<svg preserveAspectRatio="none" width="100%" height="100%" overflow="visible" style="display: block;" viewBox="0 0 1048.86 2124" fill="none" xmlns="http://www.w3.org/2000/svg">
<path id="Union" d="M874.449 0C966.816 9.30333e-06 1041.69 74.8778 1041.69 167.244V633.141H1044.08C1046.72 633.141 1048.86 635.28 1048.86 637.919V886.396C1048.86 889.035 1046.72 891.174 1044.08 891.174H1041.69V1956.76C1041.69 2046.24 971.422 2119.3 883.056 2123.78C880.205 2123.93 877.336 2124 874.449 2124H176.803L174.641 2123.99C171.781 2123.95 168.939 2123.84 166.116 2123.66C165.525 2123.63 164.935 2123.58 164.346 2123.54C164.232 2123.53 164.118 2123.53 164.005 2123.52C163.602 2123.49 163.2 2123.45 162.798 2123.42C162.485 2123.39 162.171 2123.37 161.858 2123.34C161.563 2123.31 161.268 2123.29 160.974 2123.26C160.567 2123.22 160.16 2123.18 159.754 2123.14C159.542 2123.12 159.331 2123.1 159.119 2123.07C158.614 2123.02 158.109 2122.97 157.605 2122.91C157.534 2122.9 157.464 2122.89 157.393 2122.88C156.785 2122.81 156.179 2122.74 155.573 2122.66C155.233 2122.62 154.893 2122.57 154.554 2122.53C154.204 2122.48 153.855 2122.44 153.506 2122.39C152.982 2122.32 152.458 2122.24 151.936 2122.16C151.784 2122.14 151.632 2122.12 151.48 2122.09C151.094 2122.04 150.709 2121.97 150.324 2121.91C149.994 2121.86 149.664 2121.81 149.334 2121.75C149.028 2121.7 148.722 2121.65 148.416 2121.6C148.047 2121.53 147.678 2121.47 147.31 2121.41C146.863 2121.33 146.417 2121.24 145.972 2121.16C145.751 2121.12 145.529 2121.08 145.309 2121.04C144.91 2120.96 144.511 2120.88 144.113 2120.8C143.812 2120.74 143.511 2120.69 143.211 2120.62C142.936 2120.57 142.661 2120.51 142.387 2120.45C141.97 2120.36 141.553 2120.28 141.138 2120.19C140.873 2120.13 140.609 2120.07 140.345 2120.01C139.958 2119.93 139.571 2119.84 139.185 2119.75C138.771 2119.66 138.358 2119.56 137.945 2119.46C137.697 2119.4 137.448 2119.34 137.199 2119.28C136.819 2119.19 136.439 2119.09 136.06 2119C135.755 2118.92 135.45 2118.85 135.146 2118.77C134.86 2118.7 134.575 2118.62 134.29 2118.54C133.907 2118.44 133.523 2118.35 133.141 2118.24C132.821 2118.16 132.502 2118.07 132.184 2117.98C131.853 2117.89 131.523 2117.8 131.193 2117.7C130.875 2117.61 130.558 2117.52 130.241 2117.43C129.892 2117.33 129.543 2117.23 129.194 2117.12C128.817 2117.01 128.441 2116.9 128.064 2116.78C127.814 2116.71 127.563 2116.63 127.313 2116.56C126.903 2116.43 126.493 2116.3 126.084 2116.17C125.828 2116.09 125.572 2116.01 125.316 2115.92C124.978 2115.81 124.641 2115.7 124.304 2115.59C123.988 2115.49 123.672 2115.38 123.356 2115.28C123.033 2115.17 122.71 2115.06 122.387 2114.95C122.067 2114.84 121.747 2114.73 121.428 2114.61C121.04 2114.48 120.654 2114.34 120.268 2114.2C120.023 2114.11 119.778 2114.02 119.533 2113.94C119.185 2113.81 118.839 2113.68 118.492 2113.55C118.193 2113.44 117.893 2113.33 117.595 2113.22C117.294 2113.1 116.994 2112.99 116.694 2112.87C116.354 2112.74 116.014 2112.61 115.675 2112.47C115.368 2112.35 115.061 2112.23 114.755 2112.11C114.444 2111.98 114.134 2111.86 113.824 2111.74C113.509 2111.61 113.194 2111.48 112.88 2111.35C112.56 2111.21 112.24 2111.08 111.921 2110.95C111.604 2110.81 111.289 2110.68 110.973 2110.54C110.677 2110.42 110.382 2110.29 110.088 2110.16C109.758 2110.02 109.429 2109.87 109.101 2109.73C108.809 2109.6 108.517 2109.47 108.227 2109.34C107.916 2109.2 107.606 2109.06 107.296 2108.91C106.985 2108.77 106.675 2108.63 106.365 2108.49C106.082 2108.35 105.8 2108.22 105.518 2108.09C105.185 2107.93 104.852 2107.77 104.521 2107.61C104.215 2107.47 103.911 2107.32 103.606 2107.17C103.306 2107.02 103.006 2106.88 102.707 2106.73C102.427 2106.59 102.149 2106.45 101.87 2106.31C101.561 2106.16 101.252 2106 100.944 2105.85C100.611 2105.68 100.279 2105.5 99.9473 2105.33C99.6873 2105.2 99.4272 2105.06 99.168 2104.93C98.8138 2104.74 98.461 2104.55 98.1084 2104.36C97.8638 2104.23 97.6189 2104.1 97.375 2103.97C97.0555 2103.8 96.7372 2103.62 96.4189 2103.45C96.1547 2103.3 95.8903 2103.16 95.627 2103.01C95.3006 2102.83 94.9754 2102.65 94.6504 2102.46C94.3809 2102.31 94.1113 2102.16 93.8428 2102C93.5687 2101.85 93.2956 2101.69 93.0225 2101.53C92.7068 2101.35 92.3915 2101.16 92.0771 2100.98C91.7867 2100.81 91.4974 2100.64 91.208 2100.46C90.9329 2100.3 90.6579 2100.13 90.3838 2099.97C90.1186 2099.81 89.8541 2099.65 89.5898 2099.49C89.2539 2099.28 88.9184 2099.07 88.584 2098.87C88.3465 2098.72 88.1097 2098.57 87.873 2098.42C87.5763 2098.23 87.2799 2098.05 86.9844 2097.86C86.6787 2097.66 86.3737 2097.47 86.0693 2097.27C85.8107 2097.1 85.5525 2096.93 85.2949 2096.77C84.9926 2096.57 84.6916 2096.37 84.3906 2096.17C84.1381 2096 83.8853 2095.83 83.6338 2095.66C83.3186 2095.45 83.005 2095.24 82.6914 2095.02C82.4613 2094.87 82.2312 2094.71 82.002 2094.55C81.6811 2094.33 81.3612 2094.11 81.042 2093.89C80.8092 2093.72 80.5767 2093.56 80.3447 2093.4C80.0569 2093.19 79.7698 2092.99 79.4834 2092.78C79.2 2092.58 78.9168 2092.38 78.6348 2092.17C78.3994 2092 78.1651 2091.83 77.9307 2091.66C77.6283 2091.43 77.3262 2091.21 77.0254 2090.99C76.7786 2090.8 76.5328 2090.62 76.2871 2090.43C76.0144 2090.23 75.7421 2090.02 75.4707 2089.82C75.201 2089.61 74.9325 2089.4 74.6641 2089.2C74.3925 2088.99 74.1209 2088.78 73.8506 2088.56C73.6165 2088.38 73.3835 2088.2 73.1504 2088.01C72.8571 2087.78 72.5642 2087.55 72.2725 2087.31C72.0308 2087.12 71.7904 2086.93 71.5498 2086.73C71.2788 2086.51 71.0079 2086.29 70.7383 2086.07C70.501 2085.87 70.2645 2085.68 70.0283 2085.48C69.7424 2085.25 69.4571 2085.01 69.1729 2084.77C68.9574 2084.59 68.7428 2084.4 68.5283 2084.22C68.233 2083.97 67.9381 2083.72 67.6445 2083.47C67.4123 2083.27 67.1813 2083.06 66.9502 2082.86C66.693 2082.64 66.4364 2082.41 66.1807 2082.19C65.9478 2081.98 65.7151 2081.78 65.4834 2081.57C65.2065 2081.32 64.9305 2081.07 64.6553 2080.83C64.4275 2080.62 64.2003 2080.41 63.9736 2080.21C63.724 2079.98 63.4748 2079.75 63.2266 2079.52C62.9896 2079.3 62.7533 2079.08 62.5176 2078.86C62.2419 2078.6 61.9673 2078.34 61.6934 2078.08C61.4961 2077.89 61.2989 2077.71 61.1025 2077.52C60.8432 2077.27 60.5848 2077.02 60.3271 2076.77C60.0637 2076.51 59.8008 2076.26 59.5391 2076C59.3461 2075.81 59.154 2075.62 58.9619 2075.43C58.6905 2075.16 58.42 2074.89 58.1504 2074.62C57.9221 2074.39 57.6947 2074.16 57.4678 2073.93C57.2605 2073.72 57.0538 2073.5 56.8477 2073.29C56.5919 2073.03 56.337 2072.76 56.083 2072.5C55.8328 2072.24 55.5835 2071.98 55.335 2071.71C55.15 2071.52 54.9652 2071.32 54.7812 2071.13C54.5345 2070.86 54.289 2070.6 54.0439 2070.34C53.8105 2070.08 53.5777 2069.83 53.3457 2069.58C53.1251 2069.34 52.9048 2069.09 52.6855 2068.85C52.4608 2068.6 52.2369 2068.35 52.0137 2068.1C51.8014 2067.87 51.5898 2067.63 51.3789 2067.39C51.1476 2067.13 50.9171 2066.86 50.6875 2066.6C50.4735 2066.36 50.2604 2066.11 50.0479 2065.86C49.8168 2065.59 49.5867 2065.33 49.3574 2065.06C49.1677 2064.83 48.9786 2064.61 48.79 2064.38C48.5505 2064.1 48.3119 2063.81 48.0742 2063.53C47.8674 2063.28 47.6614 2063.03 47.4561 2062.78C47.2597 2062.54 47.0642 2062.3 46.8691 2062.06C46.6498 2061.79 46.4306 2061.52 46.2129 2061.25C45.9936 2060.97 45.7752 2060.7 45.5576 2060.42C45.3682 2060.18 45.1793 2059.94 44.9912 2059.7C44.7623 2059.41 44.5347 2059.12 44.3076 2058.82C44.1353 2058.6 43.9632 2058.38 43.792 2058.15C43.543 2057.83 43.2955 2057.5 43.0488 2057.17C42.8948 2056.97 42.741 2056.76 42.5879 2056.56C42.3655 2056.26 42.1443 2055.96 41.9238 2055.66C41.7373 2055.4 41.5514 2055.15 41.3662 2054.89C41.1542 2054.6 40.9436 2054.31 40.7334 2054.01C40.555 2053.77 40.3762 2053.52 40.1992 2053.27C40.002 2052.99 39.8069 2052.71 39.6113 2052.43C39.4143 2052.15 39.2178 2051.86 39.0225 2051.58C38.8404 2051.32 38.6591 2051.05 38.4785 2050.79C38.2954 2050.52 38.1122 2050.25 37.9307 2049.98C37.7187 2049.66 37.5087 2049.35 37.2988 2049.03C37.1413 2048.79 36.9835 2048.55 36.8271 2048.32C36.6249 2048.01 36.4249 2047.7 36.2246 2047.39C36.0557 2047.13 35.8863 2046.87 35.7188 2046.6C35.5414 2046.32 35.3653 2046.05 35.1895 2045.77C34.9989 2045.46 34.8088 2045.16 34.6201 2044.86C34.4582 2044.6 34.2973 2044.34 34.1367 2044.07C33.9448 2043.76 33.7534 2043.45 33.5635 2043.13C33.412 2042.88 33.2625 2042.63 33.1123 2042.38C32.9188 2042.05 32.7255 2041.73 32.5342 2041.41C32.393 2041.17 32.2524 2040.92 32.1123 2040.68C31.9219 2040.36 31.7322 2040.03 31.5439 2039.7C31.3631 2039.38 31.1837 2039.07 31.0049 2038.75C30.8702 2038.51 30.7351 2038.27 30.6016 2038.03C30.4077 2037.68 30.2168 2037.33 30.0254 2036.98C29.8812 2036.72 29.7365 2036.46 29.5938 2036.19C29.429 2035.89 29.2664 2035.58 29.1035 2035.28C28.9537 2035 28.8036 2034.72 28.6553 2034.43C28.4947 2034.13 28.3355 2033.82 28.1768 2033.51C28.0231 2033.22 27.8687 2032.92 27.7168 2032.62C27.5643 2032.32 27.4144 2032.02 27.2637 2031.72C27.1132 2031.42 26.9622 2031.12 26.8135 2030.82C26.6504 2030.49 26.49 2030.16 26.3291 2029.83C26.1994 2029.57 26.0698 2029.3 25.9414 2029.03C25.7778 2028.69 25.6165 2028.35 25.4551 2028.01C25.3309 2027.74 25.2058 2027.48 25.083 2027.22C24.9232 2026.87 24.7659 2026.53 24.6084 2026.18C24.4817 2025.91 24.3537 2025.63 24.2285 2025.35C24.0674 2024.99 23.9087 2024.63 23.75 2024.28C23.6422 2024.03 23.5344 2023.79 23.4277 2023.54C23.2543 2023.15 23.0835 2022.75 22.9131 2022.35C22.8197 2022.13 22.7253 2021.91 22.6328 2021.69C22.4708 2021.31 22.3116 2020.92 22.1523 2020.54C22.0471 2020.28 21.9409 2020.03 21.8369 2019.77C21.6965 2019.43 21.559 2019.08 21.4209 2018.73C21.3034 2018.44 21.1852 2018.14 21.0693 2017.85C20.9668 2017.59 20.8659 2017.33 20.7646 2017.06C20.6119 2016.67 20.4594 2016.27 20.3096 2015.88C20.1809 2015.54 20.0552 2015.2 19.9287 2014.85C19.8406 2014.62 19.7512 2014.38 19.6641 2014.14C19.4996 2013.69 19.3384 2013.24 19.1777 2012.79C19.1078 2012.59 19.0369 2012.39 18.9678 2012.2C18.8315 2011.81 18.6979 2011.42 18.5645 2011.03C18.4688 2010.75 18.3725 2010.47 18.2783 2010.19C18.1606 2009.85 18.0461 2009.49 17.9307 2009.14C17.8378 2008.86 17.7437 2008.58 17.6523 2008.3C17.5274 2007.91 17.4054 2007.53 17.2832 2007.14C17.1979 2006.87 17.1113 2006.6 17.0273 2006.33C16.9115 2005.95 16.7989 2005.58 16.6855 2005.2C16.6002 2004.92 16.5145 2004.64 16.4307 2004.36C16.3413 2004.05 16.2537 2003.75 16.166 2003.45C16.0566 2003.07 15.9466 2002.7 15.8398 2002.32C15.7473 2001.99 15.658 2001.66 15.5674 2001.33C15.4855 2001.04 15.4025 2000.74 15.3223 2000.44C15.2198 2000.06 15.1203 1999.68 15.0205 1999.3C14.94 1998.99 14.8581 1998.69 14.7793 1998.38C14.6818 1998 14.5881 1997.62 14.4932 1997.24C14.4277 1996.97 14.3611 1996.71 14.2969 1996.45C14.196 1996.03 14.0987 1995.62 14.001 1995.2C13.9375 1994.93 13.8727 1994.66 13.8105 1994.39C13.7279 1994.03 13.6477 1993.67 13.5674 1993.31C13.4979 1993 13.4271 1992.69 13.3594 1992.38C13.2854 1992.03 13.2154 1991.69 13.1436 1991.35C13.0702 1991 12.995 1990.65 12.9238 1990.3C12.8557 1989.97 12.7917 1989.63 12.7256 1989.3C12.6586 1988.96 12.5903 1988.62 12.5254 1988.28C12.4669 1987.97 12.4113 1987.66 12.3545 1987.36C12.2857 1986.99 12.2147 1986.61 12.1484 1986.24C12.0763 1985.84 12.0087 1985.43 11.9395 1985.02C11.8941 1984.76 11.8468 1984.49 11.8027 1984.22C11.7404 1983.85 11.6828 1983.47 11.623 1983.09C11.5711 1982.76 11.5169 1982.43 11.4668 1982.1C11.4314 1981.87 11.3987 1981.64 11.3643 1981.4C11.1991 1980.29 11.0433 1979.17 10.9004 1978.04C10.8431 1977.59 10.79 1977.14 10.7363 1976.69C10.7041 1976.41 10.6696 1976.14 10.6387 1975.87C10.3622 1973.44 10.1409 1971 9.96973 1968.54C9.79684 1966.05 9.67548 1963.55 9.6123 1961.04C9.57652 1959.62 9.55859 1958.19 9.55859 1956.76V946.122H4.77832C2.13961 946.122 0.000258291 943.982 0 941.344V786.045C0.00013765 783.406 2.13954 781.267 4.77832 781.267H9.55859V740.651H4.7793C2.14026 740.651 0.000981823 738.512 0.000976562 735.873V580.575C0.000976562 577.936 2.14026 575.797 4.7793 575.797H9.55859V504.122H4.7793C2.14026 504.122 0.000981823 501.983 0.000976562 499.344V427.668C0.000976563 425.029 2.14026 422.89 4.7793 422.89H9.55859V167.244C9.55859 166.528 9.56232 165.813 9.57129 165.1C9.58923 163.672 9.62519 162.248 9.67871 160.829C9.70546 160.12 9.73691 159.412 9.77246 158.705C9.82625 157.636 9.89301 156.569 9.9668 155.505C9.9906 155.162 10.0122 154.818 10.0381 154.476C10.1972 152.368 10.3954 150.272 10.6318 148.188C10.6341 148.167 10.6364 148.147 10.6387 148.127C10.6727 147.828 10.7105 147.529 10.7461 147.23C10.7908 146.856 10.8337 146.481 10.8809 146.106C10.9681 145.414 11.0605 144.724 11.1562 144.034C11.1581 144.021 11.1593 144.007 11.1611 143.994C11.2304 143.496 11.3052 142.999 11.3789 142.502C11.4089 142.3 11.4361 142.097 11.4668 141.895C11.5169 141.565 11.5711 141.237 11.623 140.908C11.6828 140.53 11.7404 140.152 11.8027 139.775C11.8442 139.525 11.8891 139.275 11.9316 139.024C12.0042 138.597 12.0755 138.17 12.1514 137.744C12.2271 137.319 12.3078 136.894 12.3867 136.47C12.4333 136.219 12.4777 135.969 12.5254 135.719C12.5969 135.344 12.6721 134.97 12.7461 134.596C12.8065 134.29 12.8656 133.985 12.9277 133.68C13.0064 133.294 13.0886 132.909 13.1699 132.523C13.2333 132.223 13.2944 131.923 13.3594 131.623C13.4368 131.266 13.5189 130.91 13.5986 130.554C13.6692 130.238 13.7382 129.923 13.8105 129.608C13.8727 129.338 13.9375 129.069 14.001 128.799C14.0987 128.383 14.196 127.968 14.2969 127.554C14.371 127.249 14.4486 126.946 14.5244 126.642C14.6094 126.301 14.6922 125.959 14.7793 125.619C14.8581 125.311 14.94 125.004 15.0205 124.697C15.1203 124.317 15.2198 123.936 15.3223 123.557C15.4142 123.216 15.5095 122.877 15.6035 122.537C15.6824 122.252 15.7594 121.966 15.8398 121.682C15.9466 121.304 16.0566 120.927 16.166 120.55C16.2537 120.247 16.3413 119.945 16.4307 119.644C16.5145 119.361 16.6002 119.078 16.6855 118.796C16.7989 118.421 16.9115 118.046 17.0273 117.672C17.1113 117.401 17.1979 117.131 17.2832 116.86C17.4054 116.473 17.5274 116.086 17.6523 115.7C17.7438 115.418 17.8378 115.136 17.9307 114.854C18.0461 114.504 18.1606 114.154 18.2783 113.805C18.3725 113.525 18.4688 113.247 18.5645 112.968C18.6979 112.579 18.8315 112.19 18.9678 111.802C19.037 111.605 19.1078 111.409 19.1777 111.212C19.3384 110.76 19.4996 110.309 19.6641 109.858C19.7628 109.588 19.8638 109.319 19.9639 109.049C20.0787 108.739 20.1929 108.43 20.3096 108.121C20.4594 107.725 20.6119 107.33 20.7646 106.935C20.8659 106.673 20.9668 106.411 21.0693 106.149C21.1852 105.854 21.3034 105.56 21.4209 105.266C21.559 104.92 21.6965 104.573 21.8369 104.229C21.9409 103.973 22.0471 103.719 22.1523 103.464C22.3116 103.078 22.4708 102.693 22.6328 102.309C22.7253 102.089 22.8197 101.871 22.9131 101.652C23.0835 101.253 23.2543 100.854 23.4277 100.456C23.5672 100.136 23.7092 99.8177 23.8506 99.499C23.9765 99.2151 24.101 98.9306 24.2285 98.6475C24.3537 98.3694 24.4817 98.0927 24.6084 97.8154C24.766 97.4706 24.9232 97.1258 25.083 96.7822C25.2058 96.5182 25.3309 96.2554 25.4551 95.9922C25.6165 95.65 25.7778 95.3078 25.9414 94.9668C26.0698 94.6994 26.1994 94.4326 26.3291 94.166C26.49 93.8353 26.6504 93.5043 26.8135 93.1748C26.9562 92.8864 27.1008 92.599 27.2451 92.3115C27.4084 91.9862 27.5719 91.661 27.7373 91.3369C27.87 91.0769 28.0047 90.8179 28.1387 90.5586C28.3113 90.2247 28.4844 89.8912 28.6592 89.5586C28.808 89.2753 28.959 88.9932 29.1094 88.7109C29.2705 88.4086 29.4308 88.1059 29.5938 87.8047C29.7365 87.5407 29.8812 87.2778 30.0254 87.0146C30.2168 86.6652 30.4077 86.3157 30.6016 85.9678C30.7351 85.728 30.8702 85.4891 31.0049 85.25C31.1891 84.9232 31.3742 84.5969 31.5605 84.2715C31.7434 83.9521 31.9274 83.6335 32.1123 83.3154C32.2524 83.0745 32.393 82.8339 32.5342 82.5938C32.7182 82.2808 32.9038 81.9689 33.0898 81.6572C33.256 81.3789 33.4221 81.1006 33.5898 80.8232C33.7666 80.5309 33.9445 80.2394 34.123 79.9482C34.2904 79.6753 34.4581 79.4027 34.627 79.1309C34.8134 78.8307 35.0012 78.5313 35.1895 78.2324C35.3653 77.9533 35.5414 77.6745 35.7188 77.3965C35.8863 77.134 36.0557 76.8728 36.2246 76.6113C36.4249 76.3013 36.6249 75.9912 36.8271 75.6826C36.9835 75.4441 37.1413 75.2065 37.2988 74.9688C37.5087 74.6521 37.7187 74.3356 37.9307 74.0205C38.1165 73.7442 38.3047 73.4695 38.4922 73.1943C38.6685 72.9355 38.8447 72.6767 39.0225 72.4189C39.2202 72.1322 39.4187 71.846 39.6182 71.5605C39.8113 71.2841 40.0044 71.0076 40.1992 70.7324C40.3762 70.4823 40.555 70.2335 40.7334 69.9844C40.9436 69.6908 41.1542 69.3976 41.3662 69.1055C41.5514 68.8504 41.7373 68.5958 41.9238 68.3418C42.14 68.0475 42.3571 67.7538 42.5752 67.4609C42.7487 67.228 42.923 66.9957 43.0977 66.7637C43.3152 66.4746 43.5335 66.1861 43.7529 65.8984C43.9389 65.6546 44.1262 65.4117 44.3135 65.1689C44.5534 64.858 44.794 64.5475 45.0361 64.2383C45.1903 64.0413 45.3449 63.8447 45.5 63.6484C45.7401 63.3445 45.9814 63.0415 46.2236 62.7393C46.4379 62.4719 46.6533 62.2055 46.8691 61.9395C47.0773 61.6829 47.2864 61.4272 47.4961 61.1719C47.6884 60.9378 47.8807 60.7037 48.0742 60.4707C48.3119 60.1844 48.5505 59.8989 48.79 59.6143C48.9786 59.3902 49.1677 59.1664 49.3574 58.9434C49.5867 58.6738 49.8168 58.4048 50.0479 58.1367C50.2604 57.89 50.4735 57.6439 50.6875 57.3984C50.9287 57.1218 51.1711 56.8463 51.4141 56.5713C51.6134 56.3456 51.8131 56.1201 52.0137 55.8955C52.2426 55.6391 52.4727 55.3838 52.7031 55.1289C52.9167 54.8927 53.1308 54.6569 53.3457 54.4219C53.5777 54.1682 53.8105 53.9153 54.0439 53.6631C54.3065 53.3795 54.5705 53.0972 54.835 52.8154C55.0014 52.6381 55.1678 52.4608 55.335 52.2842C55.5835 52.0217 55.8328 51.7599 56.083 51.499C56.337 51.2342 56.5919 50.9702 56.8477 50.707C57.0538 50.4949 57.2605 50.2833 57.4678 50.0723C57.6947 49.8412 57.9221 49.6106 58.1504 49.3809C58.42 49.1095 58.6905 48.8389 58.9619 48.5693C59.154 48.3786 59.3461 48.1879 59.5391 47.998C59.8008 47.7406 60.0637 47.4842 60.3271 47.2285C60.5848 46.9784 60.8432 46.729 61.1025 46.4805C61.2989 46.2923 61.4961 46.1052 61.6934 45.918C61.9673 45.658 62.2419 45.3988 62.5176 45.1406C62.7533 44.9199 62.9896 44.6998 63.2266 44.4805C63.4748 44.2507 63.724 44.0222 63.9736 43.7939C64.2012 43.5859 64.4295 43.3787 64.6582 43.1719C64.9326 42.9237 65.2074 42.676 65.4834 42.4297C65.7151 42.2229 65.9478 42.0171 66.1807 41.8115C66.4364 41.5858 66.693 41.3609 66.9502 41.1367C67.1813 40.9352 67.4123 40.7335 67.6445 40.5332C67.9381 40.2801 68.233 40.0285 68.5283 39.7773C68.7428 39.595 68.9574 39.4127 69.1729 39.2314C69.4571 38.9922 69.7424 38.754 70.0283 38.5166C70.2645 38.3205 70.501 38.1246 70.7383 37.9297C71.0079 37.7083 71.2788 37.4883 71.5498 37.2686C71.7904 37.0735 72.0308 36.8783 72.2725 36.6846C72.5642 36.4507 72.8571 36.2183 73.1504 35.9863C73.3835 35.802 73.6165 35.6177 73.8506 35.4346C74.1432 35.2057 74.4373 34.9789 74.7314 34.752C74.9775 34.5621 75.2235 34.3721 75.4707 34.1836C75.7421 33.9766 76.0144 33.7708 76.2871 33.5654C76.5328 33.3804 76.7786 33.1954 77.0254 33.0117C77.3262 32.7878 77.6283 32.5657 77.9307 32.3438C78.1651 32.1716 78.3994 31.9991 78.6348 31.8281C78.9168 31.6233 79.2 31.4199 79.4834 31.2168C79.7698 31.0115 80.0569 30.807 80.3447 30.6035C80.579 30.4379 80.8137 30.2729 81.0488 30.1084C81.3658 29.8867 81.6834 29.6659 82.002 29.4463C82.2312 29.2883 82.4613 29.1315 82.6914 28.9746C83.005 28.7607 83.3186 28.5468 83.6338 28.335C83.8853 28.1659 84.1381 27.9988 84.3906 27.8311C84.6916 27.6312 84.9926 27.4314 85.2949 27.2334C85.5525 27.0647 85.8107 26.8968 86.0693 26.7295C86.3737 26.5326 86.6787 26.3366 86.9844 26.1416C87.2799 25.9531 87.5763 25.7658 87.873 25.5791C88.1097 25.4302 88.3465 25.2815 88.584 25.1338C88.9184 24.9258 89.2539 24.7194 89.5898 24.5137C89.854 24.3519 90.1186 24.1906 90.3838 24.0303C90.6579 23.8645 90.9329 23.7003 91.208 23.5361C91.4974 23.3634 91.7867 23.1905 92.0771 23.0195C92.3915 22.8345 92.7068 22.6508 93.0225 22.4678C93.2956 22.3094 93.5687 22.151 93.8428 21.9941C94.1113 21.8404 94.3809 21.6884 94.6504 21.5361C94.9754 21.3525 95.3006 21.1688 95.627 20.9873C95.8903 20.8408 96.1547 20.6959 96.4189 20.5508C96.7372 20.376 97.0555 20.2011 97.375 20.0283C97.6454 19.8821 97.9172 19.7385 98.1885 19.5938C98.5097 19.4223 98.8308 19.2504 99.1533 19.0811C99.4664 18.9167 99.7805 18.7543 100.095 18.5918C100.353 18.4583 100.611 18.3246 100.87 18.1924C101.226 18.0106 101.584 17.8316 101.941 17.6523C102.197 17.5244 102.451 17.3952 102.707 17.2686C103.045 17.1011 103.385 16.9367 103.725 16.7715C103.99 16.6425 104.255 16.5124 104.521 16.3848C104.852 16.2256 105.185 16.0682 105.518 15.9111C105.8 15.7779 106.082 15.6444 106.365 15.5127C106.675 15.3688 106.985 15.227 107.296 15.085C107.606 14.9432 107.916 14.8011 108.227 14.6611C108.517 14.5303 108.809 14.4017 109.101 14.2725C109.429 14.1267 109.758 13.9806 110.088 13.8369C110.382 13.7087 110.677 13.5826 110.973 13.4561C111.289 13.3207 111.604 13.1843 111.921 13.0508C112.24 12.9164 112.56 12.7848 112.88 12.6523C113.194 12.5222 113.509 12.392 113.824 12.2637C114.134 12.1378 114.444 12.0147 114.755 11.8906C115.061 11.7681 115.368 11.6451 115.675 11.5244C116.014 11.3912 116.354 11.26 116.694 11.1289C116.994 11.0134 117.294 10.8971 117.595 10.7832C117.893 10.6702 118.193 10.5596 118.492 10.4482C118.839 10.3193 119.186 10.1902 119.533 10.0635C119.813 9.9615 120.094 9.86126 120.374 9.76074C120.725 9.63502 121.076 9.50919 121.428 9.38574C121.747 9.27384 122.067 9.1647 122.387 9.05469C122.71 8.94357 123.032 8.83087 123.356 8.72168C123.672 8.61549 123.988 8.51256 124.304 8.4082C124.641 8.29678 124.978 8.18453 125.316 8.0752C125.572 7.99264 125.828 7.91241 126.084 7.83105C126.493 7.70093 126.903 7.57041 127.313 7.44336C127.563 7.36605 127.814 7.29101 128.064 7.21484C128.441 7.10041 128.817 6.98587 129.194 6.87402C129.543 6.77078 129.892 6.67037 130.241 6.56934C130.558 6.47758 130.875 6.38484 131.193 6.29492C131.523 6.20174 131.853 6.11171 132.184 6.02051C132.502 5.93246 132.821 5.84304 133.141 5.75684C133.523 5.65371 133.907 5.55458 134.29 5.4541C134.575 5.37931 134.86 5.30281 135.146 5.22949C135.466 5.14754 135.787 5.06937 136.107 4.98926C136.471 4.89832 136.835 4.80535 137.199 4.7168C137.448 4.65651 137.697 4.59922 137.945 4.54004C138.358 4.44184 138.771 4.34221 139.185 4.24707C139.579 4.15641 139.975 4.07028 140.37 3.98242C140.626 3.92559 140.881 3.86718 141.138 3.81152C141.553 3.72124 141.97 3.63406 142.387 3.54688C142.661 3.48942 142.936 3.43013 143.211 3.37402C143.511 3.31279 143.812 3.25493 144.113 3.19531C144.511 3.11644 144.91 3.03698 145.309 2.96094C145.529 2.91887 145.751 2.87909 145.972 2.83789C146.417 2.75488 146.863 2.67224 147.31 2.59277C147.686 2.52575 148.064 2.46196 148.441 2.39746C148.739 2.34666 149.036 2.29434 149.334 2.24512C149.664 2.19065 149.994 2.13945 150.324 2.08691C150.709 2.02565 151.094 1.96292 151.48 1.9043C151.632 1.88128 151.784 1.8605 151.936 1.83789C152.458 1.75997 152.982 1.68245 153.506 1.60938C153.855 1.56076 154.204 1.51618 154.554 1.46973C154.893 1.42458 155.233 1.37807 155.573 1.33496C156.179 1.25827 156.785 1.18544 157.393 1.11523C157.464 1.10703 157.534 1.09796 157.605 1.08984C158.109 1.03227 158.614 0.978868 159.119 0.925781C159.331 0.903548 159.542 0.878866 159.754 0.857422C160.16 0.816314 160.567 0.780386 160.974 0.742188C161.268 0.714512 161.563 0.684347 161.858 0.658203C162.171 0.630502 162.485 0.606055 162.798 0.580078C163.2 0.546749 163.602 0.511926 164.005 0.481445C164.118 0.472855 164.232 0.466371 164.346 0.458008C164.935 0.414613 165.525 0.372231 166.116 0.334961C166.12 0.334716 166.124 0.335206 166.128 0.334961C168.947 0.157396 171.785 0.0498464 174.641 0.0136719L176.803 0H874.449ZM169.635 16.7246C90.4637 16.7246 26.2824 80.9052 26.2822 160.076V1963.92C26.2824 2043.09 90.4637 2107.28 169.635 2107.28H881.617C960.788 2107.28 1024.97 2043.09 1024.97 1963.92V160.076C1024.97 80.9053 960.788 16.7249 881.617 16.7246H169.635Z" fill="var(--fill-0, #F8CB94)"/>
</svg>
