<svg preserveAspectRatio="none" width="100%" height="100%" overflow="visible" style="display: block;" viewBox="0 0 578.642 60" fill="none" xmlns="http://www.w3.org/2000/svg">
<g id="YouVersion Logo" clip-path="url(#clip0_0_280)">
<path id="Union" d="M287.638 42.6045C287.638 45.6201 288.155 47.7863 289.154 49.0693C290.154 50.3356 291.72 50.9687 293.819 50.9688C295.086 50.9688 296.286 50.7195 297.402 50.2529C301.001 48.7366 303.417 45.1039 303.417 41.2217H303.4V16.1455H313.631V58.9502H304.866L303.884 51.8857C303.401 52.6521 302.334 54.5678 301.135 55.8008C299.669 57.3169 298.085 58.2837 296.336 58.9668C294.57 59.6499 292.67 60 290.688 60C287.772 60 285.272 59.3833 283.306 58.1836C281.323 56.984 279.824 55.2014 278.857 52.9023C277.891 50.6196 277.407 47.7865 277.407 44.4707V16.1455H287.638V42.6045ZM74.3467 17.7285C77.3291 17.7285 79.9954 18.228 82.3613 19.1943C84.7273 20.1774 86.7439 21.5774 88.4102 23.3936L88.3936 23.377C90.0596 25.193 91.3259 27.3923 92.209 29.958C93.0754 32.524 93.5088 35.4238 93.5088 38.6562C93.5088 43.0216 92.7254 46.7873 91.1592 49.9697C89.593 53.1521 87.36 55.6177 84.4609 57.3672C81.5617 59.1167 78.1122 59.9834 74.1133 59.9834C71.081 59.9833 68.3981 59.5006 66.0322 58.5176C63.683 57.5345 61.6837 56.1345 60.0342 54.3184C58.4013 52.5022 57.135 50.2857 56.2686 47.7031C55.3856 45.1206 54.9521 42.2049 54.9521 38.9727C54.9521 34.6072 55.7521 30.8415 57.335 27.6924C58.9345 24.5434 61.1839 22.0942 64.1162 20.3447C67.032 18.6119 70.4479 17.7286 74.3467 17.7285ZM249.748 15.1123C252.397 15.1123 254.997 15.6291 257.463 16.6455C259.912 17.6452 262.111 19.1279 263.961 21.0439L263.944 21.0605C265.794 22.9767 267.294 25.3601 268.427 28.126C269.56 30.8918 270.126 34.0909 270.126 37.6064C270.126 41.122 269.56 44.3211 268.427 47.0869C267.31 49.8528 265.794 52.2186 263.944 54.1348C262.095 56.0509 259.896 57.5179 257.446 58.501C254.98 59.484 252.381 59.9834 249.731 59.9834C247.082 59.9834 244.5 59.4839 242.067 58.501C239.635 57.5179 237.452 56.0509 235.569 54.1348C233.703 52.2186 232.187 49.8362 231.087 47.0703C229.987 44.3045 229.438 41.1054 229.438 37.5898C229.438 34.0741 229.987 30.8743 231.087 28.1084C232.17 25.326 233.687 22.96 235.569 21.0439C237.452 19.1446 239.635 17.6618 242.067 16.6455C244.5 15.6292 247.099 15.1123 249.748 15.1123ZM370.115 19.7783C374.881 15.6628 381.396 14.0629 387.761 15.8291C393.276 17.3454 396.608 20.8781 398.457 25.6934C398.89 26.793 399.224 27.9595 399.507 29.1924V29.209C400.323 32.8746 400.357 36.5736 399.724 40.5225H372.498C372.881 43.6215 373.781 46.3704 375.647 48.4697C376.414 49.3195 377.346 50.0866 378.479 50.7031C382.512 52.8858 387.577 51.7857 390.276 48.1367C390.693 47.5703 391.092 46.937 391.459 46.2373C394.225 46.9704 396.841 47.6533 399.99 48.4863C399.207 50.5357 398.158 52.4687 396.691 54.1182C394.059 57.1007 390.41 58.8841 386.544 59.6172C378.396 61.15 370.065 57.4505 365.75 50.3525C361.151 42.8046 361.467 32.3408 365.916 24.8096C367.066 22.8602 368.499 21.1779 370.115 19.7783ZM514.409 15.0625C517.058 15.0625 519.658 15.5793 522.124 16.5957C524.573 17.5954 526.773 19.0781 528.622 20.9941L528.605 21.0107C530.455 22.9269 531.954 25.3103 533.087 28.0762C534.22 30.842 534.787 34.0411 534.787 37.5566C534.787 41.0723 534.22 44.2713 533.087 47.0371C531.971 49.8028 530.455 52.1689 528.605 54.085C526.756 56.001 524.557 57.4671 522.107 58.4502C519.641 59.4332 517.042 59.9336 514.393 59.9336C511.743 59.9336 509.16 59.4333 506.728 58.4502C504.295 57.4671 502.112 56.001 500.229 54.085C498.347 52.1689 496.83 49.7863 495.73 47.0205C494.631 44.2547 494.081 41.0556 494.081 37.54C494.081 34.0243 494.631 30.8245 495.73 28.0586C496.83 25.2761 498.347 22.9102 500.229 20.9941C502.112 19.0948 504.295 17.6121 506.728 16.5957C509.16 15.5793 511.76 15.0625 514.409 15.0625ZM451.526 15.1133C455.559 14.9633 459.791 15.9627 463.057 18.4287C465.673 20.3948 467.472 23.1611 468.705 26.1436C465.906 26.8267 462.94 27.7261 460.174 28.3926C460.168 28.3798 459.706 27.4402 459.475 27.0264C457.808 24.0105 454.425 22.2943 451.01 23.0107C448.96 23.444 446.711 24.8935 446.411 27.1094C446.245 28.3423 446.677 29.6258 447.561 30.4922C448.777 31.6919 450.894 32.0748 452.51 32.458L452.493 32.4414C456.742 33.4577 461.64 34.0911 465.056 37.0732C468.138 39.7558 469.621 43.5887 469.038 47.6709C468.655 50.4034 467.405 53.0193 465.456 54.9854C462.207 58.2844 457.508 59.7839 452.959 59.8506C449.827 59.8839 446.627 59.2509 443.795 57.918C439.73 55.9852 436.947 52.6193 435.281 48.4873C438.397 47.6709 441.046 46.9371 443.778 46.2207C446.278 50.9194 449.91 52.7692 454.775 51.7861C456.941 51.3529 458.957 49.8703 459.357 47.6045C459.924 44.472 457.358 42.5892 454.608 41.9561C450.793 41.0897 446.894 40.3056 443.295 38.7061C434.215 34.657 434.981 22.9607 441.879 18.1621C444.678 16.196 448.127 15.2466 451.526 15.1133ZM340.557 46.9033L352.953 3.14941H363.983L346.588 58.9336H334.525L317.13 3.14941H328.16L340.557 46.9033ZM564.995 15.0625C568.011 15.0625 570.56 15.6628 572.56 16.8291L572.543 16.8623C574.559 18.0286 576.092 19.7945 577.108 22.0938C578.125 24.3765 578.642 27.2263 578.642 30.5254V58.917H568.478V32.4746C568.478 29.409 567.928 27.2098 566.861 25.9268C565.795 24.6605 564.146 24.0098 561.963 24.0098C559.014 24.0098 556.164 25.393 554.314 27.709C552.948 29.4251 552.216 31.5747 552.216 33.9072V58.9004H542.052V16.1123H550.883L551.815 22.9941C554.015 18.3624 557.28 16.7791 559.396 16.0459C561.196 15.4128 563.079 15.0625 564.995 15.0625ZM211.292 29.5918L221.972 3.11621H233.103L216.557 40.9551V58.9004H206.026V40.9551L189.48 3.11621H200.611L211.292 29.5918ZM486.832 58.8838H476.485V16.0957H486.832V58.8838ZM427.233 15.2461C431.165 14.7297 433.415 15.7793 433.415 15.7793L432.032 25.543C432.032 25.543 429.899 24.9932 428.083 24.9932C425.267 24.9765 422.535 25.91 420.535 28.1094C418.752 30.0588 417.752 33.4577 417.752 36.2402V58.8174H407.438V16.0293H416.319L417.336 23.3604C419.202 19.095 422.935 15.796 427.217 15.2295L427.233 15.2461ZM18.3281 3.18262C19.4945 3.18262 20.6444 3.24952 21.7441 3.38281C22.8437 3.5161 23.9599 3.74876 25.0928 4.11523L24.0098 9.34766C23.1936 9.09781 22.4107 8.93097 21.6611 8.84766C20.9113 8.76435 20.1774 8.73145 19.4609 8.73145C17.6616 8.73151 16.1286 9.19779 14.8457 10.1475C13.5629 11.0972 12.9297 12.83 12.9297 15.3457V18.9619H23.0107V24.2764H12.9297V58.7676H6.23145V24.2764H0V18.9619H6.24805V15.4961C6.24805 12.6304 6.78127 10.2975 7.89746 8.49805C9.01382 6.69854 10.4806 5.36545 12.3301 4.49902C14.1795 3.61597 16.1788 3.18264 18.3281 3.18262ZM146.477 17.7285C149.092 17.7285 151.325 18.1949 153.142 19.1445L153.158 19.1279C154.974 20.0943 156.358 21.5446 157.308 23.5273C158.257 25.4934 158.724 28.0426 158.724 31.1748V58.7344H152.025V32.7246C152.025 30.3087 151.759 28.4423 151.226 27.1094C150.692 25.7764 149.909 24.8262 148.876 24.293C147.843 23.7599 146.577 23.4932 145.027 23.4932C143.911 23.4932 142.678 23.6938 141.378 24.1104C140.062 24.5269 138.795 25.2434 137.562 26.2764C136.879 26.8428 136.279 27.4925 135.746 28.2422C135.213 28.9919 134.78 29.8084 134.48 30.708C134.164 31.6077 134.014 32.5909 134.014 33.6738V58.7676H127.315V32.8242C127.315 30.5251 127.032 28.6924 126.499 27.3262C125.966 25.9599 125.166 24.9767 124.116 24.3936C123.067 23.8104 121.784 23.5098 120.301 23.5098C118.968 23.5098 117.685 23.7765 116.485 24.3096C115.269 24.8594 114.085 25.6601 112.902 26.7432C112.336 27.2596 111.753 27.8931 111.17 28.626C110.587 29.3589 110.12 30.2583 109.754 31.3076C109.404 32.3572 109.221 33.6073 109.221 35.04V58.751H102.522V18.9619H109.137V25.0928C109.97 23.9598 110.837 22.9104 111.753 22.0439C113.286 20.6111 114.902 19.528 116.602 18.8115C118.301 18.0951 119.984 17.7285 121.684 17.7285C125.133 17.7285 127.799 18.5953 129.731 20.3115C131.131 21.5778 132.198 23.2437 132.931 25.2764C133.814 24.0601 134.713 22.9603 135.696 22.0439C137.246 20.611 138.929 19.528 140.745 18.8115C142.561 18.0951 144.477 17.7286 146.477 17.7285ZM47.8203 18.2451C48.5367 18.2451 49.1698 18.2791 49.7363 18.3291C50.3028 18.3791 50.8361 18.4616 51.3525 18.5615L50.5029 24.7939C50.0031 24.694 49.4863 24.6107 48.9697 24.5273C48.4533 24.4441 47.8869 24.4102 47.2705 24.4102C46.0375 24.4102 44.7877 24.6107 43.5381 25.0605C42.2885 25.5104 41.0716 26.2267 39.8887 27.2598C39.1557 27.9262 38.5225 28.6428 37.9561 29.4092C37.3897 30.1755 36.9727 31.0416 36.6895 31.9912C36.4229 32.941 36.2734 33.9744 36.2734 35.1074V58.7344H29.5752V18.9453H36.1904V25.127C37.44 23.2942 38.8556 21.7942 40.4551 20.6445C42.6878 19.0616 45.1378 18.2617 47.8037 18.2617L47.8203 18.2451ZM74.2139 23.2773C71.3813 23.2773 69.0817 23.9269 67.2822 25.2432C65.4828 26.5428 64.1662 28.3754 63.3164 30.708C62.4667 33.0406 62.0508 35.7899 62.0508 38.8223C62.0508 41.8546 62.4669 44.5374 63.2832 46.9033C64.1163 49.2693 65.433 51.1192 67.2158 52.4521C68.9987 53.7851 71.348 54.4521 74.2139 54.4521C77.0797 54.4521 79.4124 53.7851 81.2119 52.4521C83.0114 51.1192 84.328 49.2527 85.1777 46.8701C86.0274 44.4875 86.4434 41.7882 86.4434 38.7559C86.4433 35.7234 86.0275 33.0407 85.1777 30.708C84.328 28.3754 83.0113 26.5428 81.2119 25.2432C79.4291 23.9269 77.0464 23.2774 74.2139 23.2773ZM249.731 23.6436C246.716 23.6436 244.317 24.91 242.617 27.3926C240.884 29.9085 240.018 33.4077 240.018 37.5898C240.018 41.7718 240.901 45.1706 242.617 47.6865C244.317 50.1691 246.716 51.4355 249.731 51.4355C252.747 51.4355 255.164 50.1692 256.896 47.6865V47.6699C258.646 45.1707 259.529 41.8052 259.529 37.5732C259.529 33.3412 258.646 29.9085 256.896 27.3926C255.164 24.9099 252.747 23.6436 249.731 23.6436ZM514.393 23.5938C511.377 23.5938 508.977 24.8601 507.277 27.3428C505.545 29.8587 504.679 33.3581 504.679 37.54C504.679 41.7219 505.561 45.1208 507.277 47.6367C508.977 50.1194 511.377 51.3857 514.393 51.3857C517.408 51.3857 519.825 50.1193 521.558 47.6367V47.6201C523.307 45.1209 524.189 41.7552 524.189 37.5234C524.189 33.2915 523.307 29.8587 521.558 27.3428C519.825 24.8601 517.408 23.5938 514.393 23.5938ZM387.561 24.377C384.361 22.4608 380.996 22.5442 377.797 24.377C377.697 24.4269 377.613 24.493 377.53 24.543C376.031 25.4593 374.931 26.6426 374.131 28.0088C373.198 29.6083 372.682 31.475 372.448 33.5244H391.159C391.542 30.7419 390.593 27.4592 388.894 25.5098C388.494 25.0599 388.044 24.6602 387.561 24.377ZM481.651 0C483.401 0 484.885 0.533296 486.018 1.58301C487.15 2.63267 487.733 4.01566 487.733 5.66504C487.733 7.31459 487.15 8.68082 486 9.71387C484.867 10.7468 483.384 11.2637 481.635 11.2637C479.885 11.2636 478.402 10.7469 477.27 9.71387C476.12 8.68083 475.537 7.31455 475.537 5.66504C475.537 4.01554 476.103 2.64936 477.253 1.58301C478.386 0.53333 479.869 3.46774e-05 481.618 0H481.651Z" fill="var(--fill-0, #FEF5EB)"/>
</g>
<defs>
<clipPath id="clip0_0_280">
<rect width="578.642" height="60" fill="white"/>
</clipPath>
</defs>
</svg>
