<svg width="68" height="68" viewBox="0 0 68 68" fill="none" xmlns="http://www.w3.org/2000/svg">
<g clip-path="url(#clip0_23632_22699)">
<mask id="mask0_23632_22699" style="mask-type:alpha" maskUnits="userSpaceOnUse" x="0" y="0" width="68" height="68">
<path fill-rule="evenodd" clip-rule="evenodd" d="M47.0333 0H20.9667C13.5811 0 8.89667 0.0377779 4.45778 4.45778C0.018889 8.89667 0 13.6 0 20.9667V47.0333C0 54.4189 0.0377779 59.1033 4.45778 63.5422C8.89667 67.9811 13.6 68 20.9667 68H47.0333C54.4189 68 59.1033 67.9811 63.5422 63.5422C67.9622 59.1033 68 54.4 68 47.0333V20.9667C68 13.5811 67.9622 8.89667 63.5422 4.45778C59.1033 0.018889 54.4 0 47.0333 0Z" fill="url(#paint0_linear_23632_22699)"/>
</mask>
<g mask="url(#mask0_23632_22699)">
<rect width="68" height="68" fill="url(#paint1_linear_23632_22699)"/>
<path fill-rule="evenodd" clip-rule="evenodd" d="M15.6212 64.373C26.4256 64.373 45.6357 64.373 45.6357 64.373C52.5868 64.373 57.0823 64.6374 61.2379 60.4441C64.8079 56.8741 64.5057 50.8674 64.7323 46.1074C60.709 52.1519 53.3234 51.9441 47.619 51.9441C47.619 51.9441 20.929 51.9441 10.9556 51.9441C0.982316 51.963 4.81676 64.373 15.6212 64.373Z" fill="#FEF5EB"/>
<path d="M12.4854 53.5312H23.1387V61.5213L17.812 58.8579L12.4854 61.5213V53.5312Z" fill="#F19C33"/>
<mask id="path-5-outside-1_23632_22699" maskUnits="userSpaceOnUse" x="11.1016" y="9.22656" width="45" height="30" fill="black">
<rect fill="white" x="11.1016" y="9.22656" width="45" height="30"/>
<path d="M14.341 19.1053V21.6991C14.341 22.0642 14.3794 22.3283 14.4562 22.4917C14.5331 22.655 14.6676 22.7654 14.8597 22.8231C15.0519 22.8807 15.3641 22.9191 15.7964 22.9384V23.2266C15.2968 23.1977 14.5907 23.1833 13.6781 23.1833C12.8519 23.1833 12.2371 23.1977 11.8336 23.2266V22.9384C12.1795 22.9191 12.4292 22.8807 12.5829 22.8231C12.7463 22.7654 12.8567 22.655 12.9144 22.4917C12.972 22.3283 13.0008 22.0642 13.0008 21.6991V14.5517C13.0008 14.1867 12.972 13.9225 12.9144 13.7592C12.8567 13.5959 12.7463 13.4854 12.5829 13.4278C12.4292 13.3701 12.1795 13.3317 11.8336 13.3125V13.0243C12.2371 13.0531 12.8231 13.0675 13.5916 13.0675L15.1479 13.0531C15.3305 13.0435 15.537 13.0387 15.7676 13.0387C16.8915 13.0387 17.7513 13.2981 18.3469 13.8168C18.9426 14.326 19.2404 15.0129 19.2404 15.8775C19.2404 16.4058 19.1203 16.915 18.8801 17.4049C18.6496 17.8853 18.2509 18.2887 17.6841 18.6154C17.1269 18.942 16.3824 19.1053 15.4505 19.1053H14.341ZM15.4073 13.3125C15.1095 13.3125 14.8837 13.3461 14.73 13.4134C14.5859 13.4806 14.4851 13.6007 14.4274 13.7736C14.3698 13.9465 14.341 14.2059 14.341 14.5517V18.8171H15.3064C16.2479 18.8171 16.8963 18.5673 17.2518 18.0678C17.6168 17.5586 17.7994 16.8814 17.7994 16.036C17.7994 15.1041 17.612 14.4172 17.2374 13.9753C16.8723 13.5334 16.2623 13.3125 15.4073 13.3125ZM24.2031 13.3125C23.8573 13.3317 23.6027 13.3701 23.4394 13.4278C23.2857 13.4854 23.18 13.5959 23.1223 13.7592C23.0647 13.9225 23.0359 14.1867 23.0359 14.5517V21.6991C23.0359 22.0642 23.0647 22.3283 23.1223 22.4917C23.18 22.655 23.2857 22.7654 23.4394 22.8231C23.6027 22.8807 23.8573 22.9191 24.2031 22.9384V23.2266C23.7612 23.1977 23.1512 23.1833 22.373 23.1833C21.5468 23.1833 20.932 23.1977 20.5285 23.2266V22.9384C20.8744 22.9191 21.1242 22.8807 21.2779 22.8231C21.4412 22.7654 21.5517 22.655 21.6093 22.4917C21.6669 22.3283 21.6958 22.0642 21.6958 21.6991V14.5517C21.6958 14.1867 21.6669 13.9225 21.6093 13.7592C21.5517 13.5959 21.4412 13.4854 21.2779 13.4278C21.1242 13.3701 20.8744 13.3317 20.5285 13.3125V13.0243C20.932 13.0531 21.5468 13.0675 22.373 13.0675C23.1416 13.0675 23.7516 13.0531 24.2031 13.0243V13.3125ZM23.9149 9.8829C24.0686 9.78684 24.2127 9.7388 24.3472 9.7388C24.5297 9.7388 24.6786 9.82046 24.7939 9.98377C24.8515 10.0702 24.8804 10.1615 24.8804 10.2576C24.8804 10.4689 24.7507 10.6562 24.4913 10.8196C24.2896 10.9444 23.9437 11.0981 23.4538 11.2807C22.7333 11.5689 22.1136 11.8427 21.5949 12.102L21.494 11.9147C21.8879 11.6169 22.2241 11.3431 22.5027 11.0933C22.7909 10.834 22.9686 10.6755 23.0359 10.6178C23.3913 10.2816 23.6843 10.0366 23.9149 9.8829ZM28.761 12.8658C29.1837 12.8658 29.5151 12.9138 29.7553 13.0099C30.005 13.0963 30.2596 13.226 30.519 13.3989C30.7303 13.5334 30.8937 13.6007 31.0089 13.6007C31.0954 13.6007 31.1626 13.5526 31.2107 13.4566C31.2587 13.3509 31.2971 13.1876 31.326 12.9666H31.6574C31.6094 13.5238 31.5853 14.5037 31.5853 15.9063H31.2539C31.1963 15.1281 30.9705 14.4749 30.5766 13.9465C30.1924 13.4085 29.6304 13.1396 28.8907 13.1396C28.3719 13.1396 27.9492 13.2981 27.6226 13.6151C27.296 13.9225 27.1327 14.3212 27.1327 14.8111C27.1327 15.1762 27.2143 15.4932 27.3776 15.7622C27.5505 16.0312 27.7667 16.2617 28.0261 16.4539C28.2855 16.646 28.6553 16.891 29.1356 17.1888L29.5535 17.4482C30.1588 17.8228 30.6343 18.1542 30.9801 18.4424C31.3356 18.721 31.619 19.0429 31.8303 19.4079C32.0417 19.773 32.1473 20.2005 32.1473 20.6904C32.1473 21.5646 31.8591 22.2419 31.2827 22.7222C30.7063 23.1929 29.9762 23.4283 29.0924 23.4283C28.6313 23.4283 28.2518 23.3803 27.954 23.2842C27.6658 23.1881 27.3872 23.0584 27.1182 22.8951C26.9069 22.7606 26.7436 22.6934 26.6283 22.6934C26.5418 22.6934 26.4746 22.7462 26.4266 22.8519C26.3785 22.948 26.3401 23.1065 26.3113 23.3274H25.9799C26.0183 22.7991 26.0375 21.6463 26.0375 19.869H26.3689C26.4362 20.8393 26.6763 21.6271 27.0894 22.2323C27.5025 22.8375 28.1365 23.1401 28.9915 23.1401C29.5103 23.1401 29.9522 22.9816 30.3173 22.6646C30.6823 22.3379 30.8648 21.8576 30.8648 21.2236C30.8648 20.6856 30.6823 20.2293 30.3173 19.8546C29.9618 19.48 29.395 19.0573 28.6169 18.5865C28.0501 18.2407 27.589 17.9333 27.2335 17.6643C26.8877 17.3953 26.6043 17.0735 26.3833 16.6988C26.1624 16.3146 26.0519 15.8679 26.0519 15.3587C26.0519 14.5517 26.3113 13.9369 26.83 13.5142C27.3488 13.0819 27.9924 12.8658 28.761 12.8658ZM45.0655 13.3125C44.7197 13.3317 44.4651 13.3701 44.3018 13.4278C44.1481 13.4854 44.0424 13.5959 43.9847 13.7592C43.9271 13.9225 43.8983 14.1867 43.8983 14.5517V21.6991C43.8983 22.0642 43.9271 22.3283 43.9847 22.4917C44.0424 22.655 44.1481 22.7654 44.3018 22.8231C44.4651 22.8807 44.7197 22.9191 45.0655 22.9384V23.2266C44.6236 23.1977 44.0136 23.1833 43.2354 23.1833C42.4093 23.1833 41.7944 23.1977 41.3909 23.2266V22.9384C41.7368 22.9191 41.9866 22.8807 42.1403 22.8231C42.3036 22.7654 42.4141 22.655 42.4717 22.4917C42.5293 22.3283 42.5582 22.0642 42.5582 21.6991V13.9753L39.0854 23.2986H38.8548L35.2235 13.9465V21.555C35.2235 21.9297 35.2523 22.2083 35.3099 22.3908C35.3772 22.5733 35.5021 22.7078 35.6846 22.7943C35.8671 22.8711 36.1505 22.9191 36.5348 22.9384V23.2266C36.1889 23.1977 35.699 23.1833 35.065 23.1833C34.4886 23.1833 34.0418 23.1977 33.7248 23.2266V22.9384C34.0611 22.9191 34.3108 22.8711 34.4741 22.7943C34.6375 22.7078 34.7479 22.5733 34.8056 22.3908C34.8632 22.1986 34.892 21.9201 34.892 21.555V14.5517C34.892 14.1867 34.8632 13.9225 34.8056 13.7592C34.7479 13.5959 34.6375 13.4854 34.4741 13.4278C34.3204 13.3701 34.0707 13.3317 33.7248 13.3125V13.0243C34.0418 13.0531 34.4886 13.0675 35.065 13.0675C35.5645 13.0675 35.9728 13.0531 36.2898 13.0243L39.46 21.3677L42.5582 13.0675H43.2354C44.0136 13.0675 44.6236 13.0531 45.0655 13.0243V13.3125ZM51.1712 12.8225C52.0839 12.8225 52.8812 13.0291 53.5633 13.4422C54.255 13.8553 54.7881 14.4557 55.1628 15.2434C55.5471 16.0216 55.7392 16.9534 55.7392 18.039C55.7392 19.0957 55.5423 20.0323 55.1484 20.8489C54.7641 21.6655 54.2213 22.2995 53.5201 22.751C52.8284 23.2025 52.0406 23.4283 51.1568 23.4283C50.2442 23.4283 49.442 23.2218 48.7503 22.8087C48.0683 22.3956 47.5351 21.8 47.1508 21.0218C46.7762 20.2341 46.5888 19.2974 46.5888 18.2119C46.5888 17.1551 46.781 16.2185 47.1652 15.4019C47.5591 14.5854 48.1019 13.9513 48.7936 13.4998C49.4949 13.0483 50.2874 12.8225 51.1712 12.8225ZM51.1136 13.0819C50.4988 13.0819 49.956 13.2981 49.4853 13.7304C49.0241 14.1531 48.6639 14.7487 48.4045 15.5172C48.1547 16.2857 48.0298 17.1648 48.0298 18.1542C48.0298 19.1533 48.1691 20.0323 48.4477 20.7913C48.7359 21.5502 49.1202 22.1362 49.6005 22.5493C50.0809 22.9624 50.6188 23.1689 51.2145 23.1689C51.8293 23.1689 52.3673 22.9576 52.8284 22.5349C53.2991 22.1026 53.6594 21.5022 53.9091 20.7336C54.1685 19.9651 54.2982 19.0861 54.2982 18.0966C54.2982 17.0975 54.1541 16.2185 53.8659 15.4596C53.5873 14.7006 53.2078 14.1146 52.7275 13.7016C52.2472 13.2885 51.7092 13.0819 51.1136 13.0819ZM16.1478 27.8658C16.5705 27.8658 16.9019 27.9138 17.1421 28.0099C17.3919 28.0963 17.6465 28.226 17.9058 28.3989C18.1172 28.5334 18.2805 28.6007 18.3958 28.6007C18.4822 28.6007 18.5495 28.5526 18.5975 28.4566C18.6456 28.3509 18.684 28.1876 18.7128 27.9666H19.0442C18.9962 28.5238 18.9722 29.5037 18.9722 30.9063H18.6407C18.5831 30.1281 18.3574 29.4749 17.9635 28.9465C17.5792 28.4085 17.0172 28.1396 16.2775 28.1396C15.7587 28.1396 15.3361 28.2981 15.0094 28.6151C14.6828 28.9225 14.5195 29.3212 14.5195 29.8111C14.5195 30.1762 14.6011 30.4932 14.7645 30.7622C14.9374 31.0312 15.1535 31.2617 15.4129 31.4539C15.6723 31.646 16.0421 31.891 16.5225 32.1888L16.9404 32.4482C17.5456 32.8228 18.0211 33.1542 18.367 33.4424C18.7224 33.721 19.0058 34.0429 19.2171 34.4079C19.4285 34.773 19.5342 35.2005 19.5342 35.6904C19.5342 36.5646 19.246 37.2419 18.6696 37.7222C18.0932 38.1929 17.3631 38.4283 16.4792 38.4283C16.0181 38.4283 15.6387 38.3803 15.3409 38.2842C15.0527 38.1881 14.7741 38.0584 14.5051 37.8951C14.2937 37.7606 14.1304 37.6934 14.0151 37.6934C13.9287 37.6934 13.8614 37.7462 13.8134 37.8519C13.7654 37.948 13.7269 38.1065 13.6981 38.3274H13.3667C13.4051 37.7991 13.4243 36.6463 13.4243 34.869H13.7558C13.823 35.8393 14.0632 36.6271 14.4763 37.2323C14.8893 37.8375 15.5234 38.1401 16.3784 38.1401C16.8971 38.1401 17.339 37.9816 17.7041 37.6646C18.0692 37.3379 18.2517 36.8576 18.2517 36.2236C18.2517 35.6856 18.0692 35.2293 17.7041 34.8546C17.3487 34.48 16.7819 34.0573 16.0037 33.5865C15.4369 33.2407 14.9758 32.9333 14.6204 32.6643C14.2745 32.3953 13.9911 32.0735 13.7702 31.6988C13.5492 31.3146 13.4387 30.8679 13.4387 30.3587C13.4387 29.5517 13.6981 28.9369 14.2169 28.5142C14.7356 28.0819 15.3793 27.8658 16.1478 27.8658ZM28.6049 28.0675C29.0372 28.0675 29.3974 28.0531 29.6856 28.0243V28.3125C29.2053 28.4278 28.8258 28.8457 28.5472 29.5662L25.1609 38.2986H25.0456H24.9303L21.4143 29.2347C21.1837 28.6391 20.8523 28.3317 20.42 28.3125V28.0243C20.8043 28.0531 21.3182 28.0675 21.9619 28.0675C22.788 28.0675 23.4029 28.0531 23.8063 28.0243V28.3125C23.4413 28.3317 23.1771 28.3797 23.0138 28.4566C22.8601 28.5238 22.7832 28.6535 22.7832 28.8457C22.7832 29.009 22.8409 29.2347 22.9561 29.5229L25.5644 36.4541L27.9132 30.3587C28.1053 29.8399 28.2014 29.4461 28.2014 29.1771C28.2014 28.8793 28.0957 28.6631 27.8844 28.5286C27.6826 28.3941 27.3704 28.3221 26.9477 28.3125V28.0243C27.4953 28.0531 28.0477 28.0675 28.6049 28.0675ZM37.0904 37.0161C37.3209 37.6117 37.6524 37.9191 38.0847 37.9384V38.2266C37.7004 38.1977 37.1864 38.1833 36.5428 38.1833C35.7166 38.1833 35.1018 38.1977 34.6983 38.2266V37.9384C35.0634 37.9191 35.3228 37.8759 35.4765 37.8087C35.6398 37.7318 35.7214 37.5973 35.7214 37.4052C35.7214 37.2419 35.6638 37.0161 35.5485 36.7279L34.6695 34.3647H31.1823L30.5915 35.8921C30.3993 36.4109 30.3033 36.8048 30.3033 37.0738C30.3033 37.3716 30.4041 37.5877 30.6059 37.7222C30.8172 37.8567 31.1342 37.9288 31.5569 37.9384V38.2266C31.0094 38.1977 30.457 38.1833 29.8998 38.1833C29.4675 38.1833 29.1072 38.1977 28.819 38.2266V37.9384C29.2994 37.8231 29.6788 37.4052 29.9574 36.6847L33.3438 27.9522H33.5743L37.0904 37.0161ZM34.5542 34.0765L32.9403 29.7679L31.2976 34.0765H34.5542ZM46.0752 28.0243C46.0079 28.7064 45.9743 29.3212 45.9743 29.8688C45.9743 30.3491 45.9887 30.743 46.0175 31.0504H45.6861C45.6093 30.3107 45.5132 29.7631 45.3979 29.4076C45.2826 29.0426 45.0809 28.7784 44.7927 28.6151C44.5045 28.4422 44.0626 28.3557 43.467 28.3557H42.6888V36.555C42.6888 36.9585 42.7273 37.2515 42.8041 37.434C42.881 37.6165 43.0155 37.7414 43.2076 37.8087C43.3997 37.8759 43.7119 37.9191 44.1442 37.9384V38.2266C43.6447 38.1977 42.9386 38.1833 42.026 38.1833C41.0653 38.1833 40.3544 38.1977 39.8933 38.2266V37.9384C40.3256 37.9191 40.6378 37.8759 40.8299 37.8087C41.0221 37.7414 41.1566 37.6165 41.2334 37.434C41.3103 37.2515 41.3487 36.9585 41.3487 36.555V28.3557H40.5706C39.975 28.3557 39.533 28.4422 39.2448 28.6151C38.9566 28.7784 38.7549 29.0426 38.6396 29.4076C38.5243 29.7631 38.4283 30.3107 38.3514 31.0504H38.02C38.0488 30.743 38.0632 30.3491 38.0632 29.8688C38.0632 29.3212 38.0296 28.7064 37.9624 28.0243C38.7597 28.0531 40.1142 28.0675 42.026 28.0675C43.9281 28.0675 45.2778 28.0531 46.0752 28.0243ZM54.7432 36.3821C54.7432 36.9297 54.7768 37.5445 54.8441 38.2266C54.1908 38.1977 53.0908 38.1833 51.5442 38.1833C49.6997 38.1833 48.3067 38.1977 47.3653 38.2266V37.9384C47.7111 37.9191 47.9609 37.8807 48.1146 37.8231C48.2779 37.7654 48.3884 37.655 48.446 37.4917C48.5037 37.3283 48.5325 37.0642 48.5325 36.6991V29.5517C48.5325 29.1867 48.5037 28.9225 48.446 28.7592C48.3884 28.5959 48.2779 28.4854 48.1146 28.4278C47.9609 28.3701 47.7111 28.3317 47.3653 28.3125V28.0243C48.3067 28.0531 49.6997 28.0675 51.5442 28.0675C52.9563 28.0675 53.9602 28.0531 54.5559 28.0243C54.4886 28.6583 54.455 29.2251 54.455 29.7247C54.455 30.0993 54.4694 30.3971 54.4982 30.6181H54.1668C54.0995 29.9936 54.0131 29.5325 53.9074 29.2347C53.8017 28.9273 53.624 28.7064 53.3742 28.5719C53.1245 28.4278 52.745 28.3557 52.2358 28.3557H51.0398C50.694 28.3557 50.4394 28.3845 50.2761 28.4422C50.1224 28.4902 50.0167 28.5959 49.9591 28.7592C49.9014 28.9225 49.8726 29.1867 49.8726 29.5517V32.9525H50.8237C51.1599 32.9525 51.4193 32.8756 51.6018 32.7219C51.7843 32.5586 51.9044 32.3713 51.9621 32.16C52.0293 31.939 52.0821 31.6652 52.1206 31.3386L52.1638 31.0504H52.4952C52.4664 31.4539 52.452 31.9054 52.452 32.4049V33.0966C52.452 33.5865 52.4808 34.2686 52.5385 35.1428H52.207C52.1974 35.0756 52.1686 34.845 52.1206 34.4511C52.0725 34.0477 51.938 33.7451 51.7171 33.5433C51.5057 33.3416 51.2079 33.2407 50.8237 33.2407H49.8726V36.6991C49.8726 37.0642 49.9014 37.3283 49.9591 37.4917C50.0167 37.655 50.1224 37.7654 50.2761 37.8231C50.4394 37.8711 50.694 37.8951 51.0398 37.8951H52.0917C52.6874 37.8951 53.1389 37.8183 53.4463 37.6646C53.7633 37.5013 53.9939 37.2467 54.138 36.9008C54.2821 36.5454 54.3877 36.0266 54.455 35.3446H54.7864C54.7576 35.6039 54.7432 35.9498 54.7432 36.3821ZM52.7114 24.8829C52.8651 24.7868 53.0092 24.7388 53.1437 24.7388C53.3262 24.7388 53.4751 24.8205 53.5904 24.9838C53.648 25.0702 53.6768 25.1615 53.6768 25.2576C53.6768 25.4689 53.5472 25.6562 53.2878 25.8196C53.086 25.9444 52.7402 26.0981 52.2503 26.2807C51.5298 26.5689 50.9101 26.8427 50.3914 27.102L50.2905 26.9147C50.6844 26.6169 51.0206 26.3431 51.2992 26.0933C51.5874 25.834 51.7651 25.6755 51.8324 25.6178C52.1878 25.2816 52.4808 25.0366 52.7114 24.8829Z"/>
</mask>
<path d="M14.341 19.1053V21.6991C14.341 22.0642 14.3794 22.3283 14.4562 22.4917C14.5331 22.655 14.6676 22.7654 14.8597 22.8231C15.0519 22.8807 15.3641 22.9191 15.7964 22.9384V23.2266C15.2968 23.1977 14.5907 23.1833 13.6781 23.1833C12.8519 23.1833 12.2371 23.1977 11.8336 23.2266V22.9384C12.1795 22.9191 12.4292 22.8807 12.5829 22.8231C12.7463 22.7654 12.8567 22.655 12.9144 22.4917C12.972 22.3283 13.0008 22.0642 13.0008 21.6991V14.5517C13.0008 14.1867 12.972 13.9225 12.9144 13.7592C12.8567 13.5959 12.7463 13.4854 12.5829 13.4278C12.4292 13.3701 12.1795 13.3317 11.8336 13.3125V13.0243C12.2371 13.0531 12.8231 13.0675 13.5916 13.0675L15.1479 13.0531C15.3305 13.0435 15.537 13.0387 15.7676 13.0387C16.8915 13.0387 17.7513 13.2981 18.3469 13.8168C18.9426 14.326 19.2404 15.0129 19.2404 15.8775C19.2404 16.4058 19.1203 16.915 18.8801 17.4049C18.6496 17.8853 18.2509 18.2887 17.6841 18.6154C17.1269 18.942 16.3824 19.1053 15.4505 19.1053H14.341ZM15.4073 13.3125C15.1095 13.3125 14.8837 13.3461 14.73 13.4134C14.5859 13.4806 14.4851 13.6007 14.4274 13.7736C14.3698 13.9465 14.341 14.2059 14.341 14.5517V18.8171H15.3064C16.2479 18.8171 16.8963 18.5673 17.2518 18.0678C17.6168 17.5586 17.7994 16.8814 17.7994 16.036C17.7994 15.1041 17.612 14.4172 17.2374 13.9753C16.8723 13.5334 16.2623 13.3125 15.4073 13.3125ZM24.2031 13.3125C23.8573 13.3317 23.6027 13.3701 23.4394 13.4278C23.2857 13.4854 23.18 13.5959 23.1223 13.7592C23.0647 13.9225 23.0359 14.1867 23.0359 14.5517V21.6991C23.0359 22.0642 23.0647 22.3283 23.1223 22.4917C23.18 22.655 23.2857 22.7654 23.4394 22.8231C23.6027 22.8807 23.8573 22.9191 24.2031 22.9384V23.2266C23.7612 23.1977 23.1512 23.1833 22.373 23.1833C21.5468 23.1833 20.932 23.1977 20.5285 23.2266V22.9384C20.8744 22.9191 21.1242 22.8807 21.2779 22.8231C21.4412 22.7654 21.5517 22.655 21.6093 22.4917C21.6669 22.3283 21.6958 22.0642 21.6958 21.6991V14.5517C21.6958 14.1867 21.6669 13.9225 21.6093 13.7592C21.5517 13.5959 21.4412 13.4854 21.2779 13.4278C21.1242 13.3701 20.8744 13.3317 20.5285 13.3125V13.0243C20.932 13.0531 21.5468 13.0675 22.373 13.0675C23.1416 13.0675 23.7516 13.0531 24.2031 13.0243V13.3125ZM23.9149 9.8829C24.0686 9.78684 24.2127 9.7388 24.3472 9.7388C24.5297 9.7388 24.6786 9.82046 24.7939 9.98377C24.8515 10.0702 24.8804 10.1615 24.8804 10.2576C24.8804 10.4689 24.7507 10.6562 24.4913 10.8196C24.2896 10.9444 23.9437 11.0981 23.4538 11.2807C22.7333 11.5689 22.1136 11.8427 21.5949 12.102L21.494 11.9147C21.8879 11.6169 22.2241 11.3431 22.5027 11.0933C22.7909 10.834 22.9686 10.6755 23.0359 10.6178C23.3913 10.2816 23.6843 10.0366 23.9149 9.8829ZM28.761 12.8658C29.1837 12.8658 29.5151 12.9138 29.7553 13.0099C30.005 13.0963 30.2596 13.226 30.519 13.3989C30.7303 13.5334 30.8937 13.6007 31.0089 13.6007C31.0954 13.6007 31.1626 13.5526 31.2107 13.4566C31.2587 13.3509 31.2971 13.1876 31.326 12.9666H31.6574C31.6094 13.5238 31.5853 14.5037 31.5853 15.9063H31.2539C31.1963 15.1281 30.9705 14.4749 30.5766 13.9465C30.1924 13.4085 29.6304 13.1396 28.8907 13.1396C28.3719 13.1396 27.9492 13.2981 27.6226 13.6151C27.296 13.9225 27.1327 14.3212 27.1327 14.8111C27.1327 15.1762 27.2143 15.4932 27.3776 15.7622C27.5505 16.0312 27.7667 16.2617 28.0261 16.4539C28.2855 16.646 28.6553 16.891 29.1356 17.1888L29.5535 17.4482C30.1588 17.8228 30.6343 18.1542 30.9801 18.4424C31.3356 18.721 31.619 19.0429 31.8303 19.4079C32.0417 19.773 32.1473 20.2005 32.1473 20.6904C32.1473 21.5646 31.8591 22.2419 31.2827 22.7222C30.7063 23.1929 29.9762 23.4283 29.0924 23.4283C28.6313 23.4283 28.2518 23.3803 27.954 23.2842C27.6658 23.1881 27.3872 23.0584 27.1182 22.8951C26.9069 22.7606 26.7436 22.6934 26.6283 22.6934C26.5418 22.6934 26.4746 22.7462 26.4266 22.8519C26.3785 22.948 26.3401 23.1065 26.3113 23.3274H25.9799C26.0183 22.7991 26.0375 21.6463 26.0375 19.869H26.3689C26.4362 20.8393 26.6763 21.6271 27.0894 22.2323C27.5025 22.8375 28.1365 23.1401 28.9915 23.1401C29.5103 23.1401 29.9522 22.9816 30.3173 22.6646C30.6823 22.3379 30.8648 21.8576 30.8648 21.2236C30.8648 20.6856 30.6823 20.2293 30.3173 19.8546C29.9618 19.48 29.395 19.0573 28.6169 18.5865C28.0501 18.2407 27.589 17.9333 27.2335 17.6643C26.8877 17.3953 26.6043 17.0735 26.3833 16.6988C26.1624 16.3146 26.0519 15.8679 26.0519 15.3587C26.0519 14.5517 26.3113 13.9369 26.83 13.5142C27.3488 13.0819 27.9924 12.8658 28.761 12.8658ZM45.0655 13.3125C44.7197 13.3317 44.4651 13.3701 44.3018 13.4278C44.1481 13.4854 44.0424 13.5959 43.9847 13.7592C43.9271 13.9225 43.8983 14.1867 43.8983 14.5517V21.6991C43.8983 22.0642 43.9271 22.3283 43.9847 22.4917C44.0424 22.655 44.1481 22.7654 44.3018 22.8231C44.4651 22.8807 44.7197 22.9191 45.0655 22.9384V23.2266C44.6236 23.1977 44.0136 23.1833 43.2354 23.1833C42.4093 23.1833 41.7944 23.1977 41.3909 23.2266V22.9384C41.7368 22.9191 41.9866 22.8807 42.1403 22.8231C42.3036 22.7654 42.4141 22.655 42.4717 22.4917C42.5293 22.3283 42.5582 22.0642 42.5582 21.6991V13.9753L39.0854 23.2986H38.8548L35.2235 13.9465V21.555C35.2235 21.9297 35.2523 22.2083 35.3099 22.3908C35.3772 22.5733 35.5021 22.7078 35.6846 22.7943C35.8671 22.8711 36.1505 22.9191 36.5348 22.9384V23.2266C36.1889 23.1977 35.699 23.1833 35.065 23.1833C34.4886 23.1833 34.0418 23.1977 33.7248 23.2266V22.9384C34.0611 22.9191 34.3108 22.8711 34.4741 22.7943C34.6375 22.7078 34.7479 22.5733 34.8056 22.3908C34.8632 22.1986 34.892 21.9201 34.892 21.555V14.5517C34.892 14.1867 34.8632 13.9225 34.8056 13.7592C34.7479 13.5959 34.6375 13.4854 34.4741 13.4278C34.3204 13.3701 34.0707 13.3317 33.7248 13.3125V13.0243C34.0418 13.0531 34.4886 13.0675 35.065 13.0675C35.5645 13.0675 35.9728 13.0531 36.2898 13.0243L39.46 21.3677L42.5582 13.0675H43.2354C44.0136 13.0675 44.6236 13.0531 45.0655 13.0243V13.3125ZM51.1712 12.8225C52.0839 12.8225 52.8812 13.0291 53.5633 13.4422C54.255 13.8553 54.7881 14.4557 55.1628 15.2434C55.5471 16.0216 55.7392 16.9534 55.7392 18.039C55.7392 19.0957 55.5423 20.0323 55.1484 20.8489C54.7641 21.6655 54.2213 22.2995 53.5201 22.751C52.8284 23.2025 52.0406 23.4283 51.1568 23.4283C50.2442 23.4283 49.442 23.2218 48.7503 22.8087C48.0683 22.3956 47.5351 21.8 47.1508 21.0218C46.7762 20.2341 46.5888 19.2974 46.5888 18.2119C46.5888 17.1551 46.781 16.2185 47.1652 15.4019C47.5591 14.5854 48.1019 13.9513 48.7936 13.4998C49.4949 13.0483 50.2874 12.8225 51.1712 12.8225ZM51.1136 13.0819C50.4988 13.0819 49.956 13.2981 49.4853 13.7304C49.0241 14.1531 48.6639 14.7487 48.4045 15.5172C48.1547 16.2857 48.0298 17.1648 48.0298 18.1542C48.0298 19.1533 48.1691 20.0323 48.4477 20.7913C48.7359 21.5502 49.1202 22.1362 49.6005 22.5493C50.0809 22.9624 50.6188 23.1689 51.2145 23.1689C51.8293 23.1689 52.3673 22.9576 52.8284 22.5349C53.2991 22.1026 53.6594 21.5022 53.9091 20.7336C54.1685 19.9651 54.2982 19.0861 54.2982 18.0966C54.2982 17.0975 54.1541 16.2185 53.8659 15.4596C53.5873 14.7006 53.2078 14.1146 52.7275 13.7016C52.2472 13.2885 51.7092 13.0819 51.1136 13.0819ZM16.1478 27.8658C16.5705 27.8658 16.9019 27.9138 17.1421 28.0099C17.3919 28.0963 17.6465 28.226 17.9058 28.3989C18.1172 28.5334 18.2805 28.6007 18.3958 28.6007C18.4822 28.6007 18.5495 28.5526 18.5975 28.4566C18.6456 28.3509 18.684 28.1876 18.7128 27.9666H19.0442C18.9962 28.5238 18.9722 29.5037 18.9722 30.9063H18.6407C18.5831 30.1281 18.3574 29.4749 17.9635 28.9465C17.5792 28.4085 17.0172 28.1396 16.2775 28.1396C15.7587 28.1396 15.3361 28.2981 15.0094 28.6151C14.6828 28.9225 14.5195 29.3212 14.5195 29.8111C14.5195 30.1762 14.6011 30.4932 14.7645 30.7622C14.9374 31.0312 15.1535 31.2617 15.4129 31.4539C15.6723 31.646 16.0421 31.891 16.5225 32.1888L16.9404 32.4482C17.5456 32.8228 18.0211 33.1542 18.367 33.4424C18.7224 33.721 19.0058 34.0429 19.2171 34.4079C19.4285 34.773 19.5342 35.2005 19.5342 35.6904C19.5342 36.5646 19.246 37.2419 18.6696 37.7222C18.0932 38.1929 17.3631 38.4283 16.4792 38.4283C16.0181 38.4283 15.6387 38.3803 15.3409 38.2842C15.0527 38.1881 14.7741 38.0584 14.5051 37.8951C14.2937 37.7606 14.1304 37.6934 14.0151 37.6934C13.9287 37.6934 13.8614 37.7462 13.8134 37.8519C13.7654 37.948 13.7269 38.1065 13.6981 38.3274H13.3667C13.4051 37.7991 13.4243 36.6463 13.4243 34.869H13.7558C13.823 35.8393 14.0632 36.6271 14.4763 37.2323C14.8893 37.8375 15.5234 38.1401 16.3784 38.1401C16.8971 38.1401 17.339 37.9816 17.7041 37.6646C18.0692 37.3379 18.2517 36.8576 18.2517 36.2236C18.2517 35.6856 18.0692 35.2293 17.7041 34.8546C17.3487 34.48 16.7819 34.0573 16.0037 33.5865C15.4369 33.2407 14.9758 32.9333 14.6204 32.6643C14.2745 32.3953 13.9911 32.0735 13.7702 31.6988C13.5492 31.3146 13.4387 30.8679 13.4387 30.3587C13.4387 29.5517 13.6981 28.9369 14.2169 28.5142C14.7356 28.0819 15.3793 27.8658 16.1478 27.8658ZM28.6049 28.0675C29.0372 28.0675 29.3974 28.0531 29.6856 28.0243V28.3125C29.2053 28.4278 28.8258 28.8457 28.5472 29.5662L25.1609 38.2986H25.0456H24.9303L21.4143 29.2347C21.1837 28.6391 20.8523 28.3317 20.42 28.3125V28.0243C20.8043 28.0531 21.3182 28.0675 21.9619 28.0675C22.788 28.0675 23.4029 28.0531 23.8063 28.0243V28.3125C23.4413 28.3317 23.1771 28.3797 23.0138 28.4566C22.8601 28.5238 22.7832 28.6535 22.7832 28.8457C22.7832 29.009 22.8409 29.2347 22.9561 29.5229L25.5644 36.4541L27.9132 30.3587C28.1053 29.8399 28.2014 29.4461 28.2014 29.1771C28.2014 28.8793 28.0957 28.6631 27.8844 28.5286C27.6826 28.3941 27.3704 28.3221 26.9477 28.3125V28.0243C27.4953 28.0531 28.0477 28.0675 28.6049 28.0675ZM37.0904 37.0161C37.3209 37.6117 37.6524 37.9191 38.0847 37.9384V38.2266C37.7004 38.1977 37.1864 38.1833 36.5428 38.1833C35.7166 38.1833 35.1018 38.1977 34.6983 38.2266V37.9384C35.0634 37.9191 35.3228 37.8759 35.4765 37.8087C35.6398 37.7318 35.7214 37.5973 35.7214 37.4052C35.7214 37.2419 35.6638 37.0161 35.5485 36.7279L34.6695 34.3647H31.1823L30.5915 35.8921C30.3993 36.4109 30.3033 36.8048 30.3033 37.0738C30.3033 37.3716 30.4041 37.5877 30.6059 37.7222C30.8172 37.8567 31.1342 37.9288 31.5569 37.9384V38.2266C31.0094 38.1977 30.457 38.1833 29.8998 38.1833C29.4675 38.1833 29.1072 38.1977 28.819 38.2266V37.9384C29.2994 37.8231 29.6788 37.4052 29.9574 36.6847L33.3438 27.9522H33.5743L37.0904 37.0161ZM34.5542 34.0765L32.9403 29.7679L31.2976 34.0765H34.5542ZM46.0752 28.0243C46.0079 28.7064 45.9743 29.3212 45.9743 29.8688C45.9743 30.3491 45.9887 30.743 46.0175 31.0504H45.6861C45.6093 30.3107 45.5132 29.7631 45.3979 29.4076C45.2826 29.0426 45.0809 28.7784 44.7927 28.6151C44.5045 28.4422 44.0626 28.3557 43.467 28.3557H42.6888V36.555C42.6888 36.9585 42.7273 37.2515 42.8041 37.434C42.881 37.6165 43.0155 37.7414 43.2076 37.8087C43.3997 37.8759 43.7119 37.9191 44.1442 37.9384V38.2266C43.6447 38.1977 42.9386 38.1833 42.026 38.1833C41.0653 38.1833 40.3544 38.1977 39.8933 38.2266V37.9384C40.3256 37.9191 40.6378 37.8759 40.8299 37.8087C41.0221 37.7414 41.1566 37.6165 41.2334 37.434C41.3103 37.2515 41.3487 36.9585 41.3487 36.555V28.3557H40.5706C39.975 28.3557 39.533 28.4422 39.2448 28.6151C38.9566 28.7784 38.7549 29.0426 38.6396 29.4076C38.5243 29.7631 38.4283 30.3107 38.3514 31.0504H38.02C38.0488 30.743 38.0632 30.3491 38.0632 29.8688C38.0632 29.3212 38.0296 28.7064 37.9624 28.0243C38.7597 28.0531 40.1142 28.0675 42.026 28.0675C43.9281 28.0675 45.2778 28.0531 46.0752 28.0243ZM54.7432 36.3821C54.7432 36.9297 54.7768 37.5445 54.8441 38.2266C54.1908 38.1977 53.0908 38.1833 51.5442 38.1833C49.6997 38.1833 48.3067 38.1977 47.3653 38.2266V37.9384C47.7111 37.9191 47.9609 37.8807 48.1146 37.8231C48.2779 37.7654 48.3884 37.655 48.446 37.4917C48.5037 37.3283 48.5325 37.0642 48.5325 36.6991V29.5517C48.5325 29.1867 48.5037 28.9225 48.446 28.7592C48.3884 28.5959 48.2779 28.4854 48.1146 28.4278C47.9609 28.3701 47.7111 28.3317 47.3653 28.3125V28.0243C48.3067 28.0531 49.6997 28.0675 51.5442 28.0675C52.9563 28.0675 53.9602 28.0531 54.5559 28.0243C54.4886 28.6583 54.455 29.2251 54.455 29.7247C54.455 30.0993 54.4694 30.3971 54.4982 30.6181H54.1668C54.0995 29.9936 54.0131 29.5325 53.9074 29.2347C53.8017 28.9273 53.624 28.7064 53.3742 28.5719C53.1245 28.4278 52.745 28.3557 52.2358 28.3557H51.0398C50.694 28.3557 50.4394 28.3845 50.2761 28.4422C50.1224 28.4902 50.0167 28.5959 49.9591 28.7592C49.9014 28.9225 49.8726 29.1867 49.8726 29.5517V32.9525H50.8237C51.1599 32.9525 51.4193 32.8756 51.6018 32.7219C51.7843 32.5586 51.9044 32.3713 51.9621 32.16C52.0293 31.939 52.0821 31.6652 52.1206 31.3386L52.1638 31.0504H52.4952C52.4664 31.4539 52.452 31.9054 52.452 32.4049V33.0966C52.452 33.5865 52.4808 34.2686 52.5385 35.1428H52.207C52.1974 35.0756 52.1686 34.845 52.1206 34.4511C52.0725 34.0477 51.938 33.7451 51.7171 33.5433C51.5057 33.3416 51.2079 33.2407 50.8237 33.2407H49.8726V36.6991C49.8726 37.0642 49.9014 37.3283 49.9591 37.4917C50.0167 37.655 50.1224 37.7654 50.2761 37.8231C50.4394 37.8711 50.694 37.8951 51.0398 37.8951H52.0917C52.6874 37.8951 53.1389 37.8183 53.4463 37.6646C53.7633 37.5013 53.9939 37.2467 54.138 36.9008C54.2821 36.5454 54.3877 36.0266 54.455 35.3446H54.7864C54.7576 35.6039 54.7432 35.9498 54.7432 36.3821ZM52.7114 24.8829C52.8651 24.7868 53.0092 24.7388 53.1437 24.7388C53.3262 24.7388 53.4751 24.8205 53.5904 24.9838C53.648 25.0702 53.6768 25.1615 53.6768 25.2576C53.6768 25.4689 53.5472 25.6562 53.2878 25.8196C53.086 25.9444 52.7402 26.0981 52.2503 26.2807C51.5298 26.5689 50.9101 26.8427 50.3914 27.102L50.2905 26.9147C50.6844 26.6169 51.0206 26.3431 51.2992 26.0933C51.5874 25.834 51.7651 25.6755 51.8324 25.6178C52.1878 25.2816 52.4808 25.0366 52.7114 24.8829Z" fill="#FEF5EB"/>
<path d="M14.341 19.1053V18.9026H14.1382V19.1053H14.341ZM14.8597 22.8231L14.8015 23.0173V23.0173L14.8597 22.8231ZM15.7964 22.9384H15.9991V22.7444L15.8054 22.7358L15.7964 22.9384ZM15.7964 23.2266L15.7847 23.429L15.9991 23.4413V23.2266H15.7964ZM11.8336 23.2266H11.6309V23.4443L11.8481 23.4288L11.8336 23.2266ZM11.8336 22.9384L11.8224 22.7359L11.6309 22.7466V22.9384H11.8336ZM12.5829 22.8231L12.5155 22.6319L12.5118 22.6333L12.5829 22.8231ZM12.9144 13.7592L12.7232 13.8267V13.8267L12.9144 13.7592ZM12.5829 13.4278L12.5117 13.6176L12.5155 13.6189L12.5829 13.4278ZM11.8336 13.3125H11.6309V13.5043L11.8224 13.5149L11.8336 13.3125ZM11.8336 13.0243L11.8481 12.8221L11.6309 12.8065V13.0243H11.8336ZM13.5916 13.0675V13.2703L13.5935 13.2702L13.5916 13.0675ZM15.1479 13.0531L15.1498 13.256L15.1586 13.2556L15.1479 13.0531ZM18.3469 13.8168L18.2138 13.9697L18.2152 13.9709L18.3469 13.8168ZM18.8801 17.4049L18.6981 17.3157L18.6973 17.3172L18.8801 17.4049ZM17.6841 18.6154L17.5829 18.4397L17.5816 18.4405L17.6841 18.6154ZM14.73 13.4134L14.6488 13.2276L14.6443 13.2296L14.73 13.4134ZM14.4274 13.7736L14.6198 13.8377V13.8377L14.4274 13.7736ZM14.341 18.8171H14.1382V19.0198H14.341V18.8171ZM17.2518 18.0678L17.087 17.9496L17.0866 17.9502L17.2518 18.0678ZM17.2374 13.9753L17.0811 14.1045L17.0827 14.1064L17.2374 13.9753ZM14.1382 19.1053V21.6991H14.5437V19.1053H14.1382ZM14.1382 21.6991C14.1382 22.0696 14.1759 22.372 14.2728 22.578L14.6397 22.4053C14.5829 22.2847 14.5437 22.0587 14.5437 21.6991H14.1382ZM14.2728 22.578C14.3771 22.7995 14.561 22.9451 14.8015 23.0173L14.918 22.6289C14.7742 22.5857 14.6891 22.5104 14.6397 22.4053L14.2728 22.578ZM14.8015 23.0173C15.0193 23.0826 15.353 23.1216 15.7874 23.1409L15.8054 22.7358C15.3751 22.7167 15.0844 22.6788 14.918 22.6289L14.8015 23.0173ZM15.5936 22.9384V23.2266H15.9991V22.9384H15.5936ZM15.8081 23.0242C15.3027 22.995 14.592 22.9806 13.6781 22.9806V23.3861C14.5895 23.3861 15.291 23.4005 15.7847 23.429L15.8081 23.0242ZM13.6781 22.9806C12.851 22.9806 12.2302 22.995 11.8192 23.0243L11.8481 23.4288C12.244 23.4005 12.8529 23.3861 13.6781 23.3861V22.9806ZM12.0364 23.2266V22.9384H11.6309V23.2266H12.0364ZM11.8449 23.1408C12.1937 23.1214 12.4697 23.0821 12.6541 23.0129L12.5118 22.6333C12.3887 22.6794 12.1652 22.7169 11.8224 22.7359L11.8449 23.1408ZM12.6504 23.0143C12.8716 22.9362 13.0275 22.7803 13.1056 22.5591L12.7232 22.4242C12.686 22.5297 12.621 22.5947 12.5155 22.6319L12.6504 23.0143ZM13.1056 22.5591C13.1754 22.3612 13.2036 22.0674 13.2036 21.6991H12.7981C12.7981 22.0609 12.7686 22.2955 12.7232 22.4242L13.1056 22.5591ZM13.2036 21.6991V14.5517H12.7981V21.6991H13.2036ZM13.2036 14.5517C13.2036 14.1834 13.1754 13.8897 13.1056 13.6917L12.7232 13.8267C12.7686 13.9554 12.7981 14.19 12.7981 14.5517H13.2036ZM13.1056 13.6917C13.0275 13.4706 12.8716 13.3146 12.6504 13.2366L12.5155 13.6189C12.621 13.6562 12.686 13.7212 12.7232 13.8267L13.1056 13.6917ZM12.6541 13.2379C12.4697 13.1688 12.1937 13.1294 11.8449 13.1101L11.8224 13.5149C12.1652 13.534 12.3887 13.5715 12.5118 13.6176L12.6541 13.2379ZM12.0364 13.3125V13.0243H11.6309V13.3125H12.0364ZM11.8192 13.2265C12.23 13.2558 12.8218 13.2702 13.5916 13.2702V12.8648C12.8245 12.8648 12.2442 12.8504 11.8481 12.8221L11.8192 13.2265ZM13.5935 13.2702L15.1498 13.2558L15.1461 12.8504L13.5898 12.8648L13.5935 13.2702ZM15.1586 13.2556C15.3368 13.2462 15.5397 13.2414 15.7676 13.2414V12.836C15.5343 12.836 15.3241 12.8408 15.1373 12.8506L15.1586 13.2556ZM15.7676 13.2414C16.8631 13.2414 17.6681 13.4944 18.2138 13.9697L18.4801 13.664C17.8346 13.1018 16.92 12.836 15.7676 12.836V13.2414ZM18.2152 13.9709C18.7608 14.4373 19.0376 15.0652 19.0376 15.8775H19.4431C19.4431 14.9605 19.1244 14.2147 18.4787 13.6627L18.2152 13.9709ZM19.0376 15.8775C19.0376 16.3739 18.9251 16.8526 18.6981 17.3157L19.0622 17.4942C19.3155 16.9774 19.4431 16.4378 19.4431 15.8775H19.0376ZM18.6973 17.3172C18.4882 17.753 18.1224 18.1288 17.5829 18.4397L17.7853 18.791C18.3794 18.4487 18.811 18.0175 19.0629 17.4927L18.6973 17.3172ZM17.5816 18.4405C17.0663 18.7425 16.3614 18.9026 15.4505 18.9026V19.308C16.4034 19.308 17.1875 19.1414 17.7866 18.7903L17.5816 18.4405ZM15.4505 18.9026H14.341V19.308H15.4505V18.9026ZM15.4073 13.1097C15.0999 13.1097 14.8408 13.1436 14.6488 13.2276L14.8113 13.5991C14.9267 13.5486 15.1191 13.5152 15.4073 13.5152V13.1097ZM14.6443 13.2296C14.4422 13.3239 14.3075 13.4922 14.2351 13.7095L14.6198 13.8377C14.6626 13.7091 14.7297 13.6373 14.8158 13.5971L14.6443 13.2296ZM14.2351 13.7095C14.1669 13.9141 14.1382 14.2 14.1382 14.5517H14.5437C14.5437 14.2118 14.5727 13.9789 14.6198 13.8377L14.2351 13.7095ZM14.1382 14.5517V18.8171H14.5437V14.5517H14.1382ZM14.341 19.0198H15.3064V18.6144H14.341V19.0198ZM15.3064 19.0198C16.2771 19.0198 17.0064 18.7623 17.417 18.1853L17.0866 17.9502C16.7863 18.3723 16.2187 18.6144 15.3064 18.6144V19.0198ZM17.4166 18.1859C17.8136 17.6321 18.0021 16.9092 18.0021 16.036H17.5966C17.5966 16.8535 17.4201 17.4851 17.087 17.9497L17.4166 18.1859ZM18.0021 16.036C18.0021 15.0835 17.8118 14.3393 17.392 13.8442L17.0827 14.1064C17.4123 14.4952 17.5966 15.1247 17.5966 16.036H18.0021ZM17.3937 13.8462C16.9742 13.3385 16.2924 13.1097 15.4073 13.1097V13.5152C16.2322 13.5152 16.7704 13.7284 17.0811 14.1045L17.3937 13.8462ZM24.2031 13.3125L24.2143 13.5149L24.4058 13.5043V13.3125H24.2031ZM23.4394 13.4278L23.3719 13.2365L23.3682 13.2379L23.4394 13.4278ZM23.1223 13.7592L23.3135 13.8267V13.8267L23.1223 13.7592ZM23.1223 22.4917L23.3135 22.4242V22.4242L23.1223 22.4917ZM23.4394 22.8231L23.3682 23.0129L23.3719 23.0143L23.4394 22.8231ZM24.2031 22.9384H24.4058V22.7466L24.2143 22.7359L24.2031 22.9384ZM24.2031 23.2266L24.1899 23.4289L24.4058 23.443V23.2266H24.2031ZM20.5285 23.2266H20.3258V23.4443L20.543 23.4288L20.5285 23.2266ZM20.5285 22.9384L20.5173 22.7359L20.3258 22.7466V22.9384H20.5285ZM21.2779 22.8231L21.2104 22.6319L21.2067 22.6333L21.2779 22.8231ZM21.6093 13.7592L21.4181 13.8267V13.8267L21.6093 13.7592ZM21.2779 13.4278L21.2067 13.6176L21.2104 13.6189L21.2779 13.4278ZM20.5285 13.3125H20.3258V13.5043L20.5173 13.5149L20.5285 13.3125ZM20.5285 13.0243L20.543 12.8221L20.3258 12.8065V13.0243H20.5285ZM24.2031 13.0243H24.4058V12.8082L24.1902 12.822L24.2031 13.0243ZM23.9149 9.8829L23.8074 9.71091L23.8024 9.71421L23.9149 9.8829ZM24.7939 9.98377L24.9626 9.87127L24.9595 9.86686L24.7939 9.98377ZM24.4913 10.8196L24.598 10.9919L24.5993 10.9911L24.4913 10.8196ZM23.4538 11.2807L23.383 11.0906L23.3785 11.0924L23.4538 11.2807ZM21.5949 12.102L21.4164 12.1982L21.5096 12.3713L21.6855 12.2834L21.5949 12.102ZM21.494 11.9147L21.3717 11.753L21.2331 11.8578L21.3155 12.0108L21.494 11.9147ZM22.5027 11.0933L22.638 11.2443L22.6383 11.244L22.5027 11.0933ZM23.0359 10.6178L23.168 10.7719L23.1752 10.7651L23.0359 10.6178ZM24.1918 13.1101C23.842 13.1295 23.5635 13.1689 23.3719 13.2366L23.5068 13.6189C23.6418 13.5713 23.8725 13.5339 24.2143 13.5149L24.1918 13.1101ZM23.3682 13.2379C23.1549 13.3179 23.0075 13.4754 22.9312 13.6917L23.3135 13.8267C23.3525 13.7163 23.4164 13.6529 23.5105 13.6176L23.3682 13.2379ZM22.9312 13.6917C22.8613 13.8897 22.8331 14.1834 22.8331 14.5517H23.2386C23.2386 14.19 23.2681 13.9554 23.3135 13.8267L22.9312 13.6917ZM22.8331 14.5517V21.6991H23.2386V14.5517H22.8331ZM22.8331 21.6991C22.8331 22.0674 22.8613 22.3612 22.9312 22.5591L23.3135 22.4242C23.2681 22.2955 23.2386 22.0609 23.2386 21.6991H22.8331ZM22.9312 22.5591C23.0075 22.7754 23.1549 22.9329 23.3682 23.0129L23.5105 22.6333C23.4164 22.5979 23.3525 22.5345 23.3135 22.4242L22.9312 22.5591ZM23.3719 23.0143C23.5635 23.0819 23.842 23.1213 24.1918 23.1408L24.2143 22.7359C23.8726 22.7169 23.6418 22.6795 23.5068 22.6319L23.3719 23.0143ZM24.0004 22.9384V23.2266H24.4058V22.9384H24.0004ZM24.2163 23.0243C23.7679 22.995 23.1528 22.9806 22.373 22.9806V23.3861C23.1495 23.3861 23.7545 23.4005 24.1899 23.4289L24.2163 23.0243ZM22.373 22.9806C21.5459 22.9806 20.9251 22.995 20.5141 23.0243L20.543 23.4288C20.9389 23.4005 21.5478 23.3861 22.373 23.3861V22.9806ZM20.7313 23.2266V22.9384H20.3258V23.2266H20.7313ZM20.5398 23.1408C20.8886 23.1214 21.1647 23.0821 21.349 23.0129L21.2067 22.6333C21.0837 22.6794 20.8602 22.7169 20.5173 22.7359L20.5398 23.1408ZM21.3453 23.0143C21.5665 22.9362 21.7224 22.7803 21.8005 22.5591L21.4181 22.4242C21.3809 22.5297 21.3159 22.5947 21.2104 22.6319L21.3453 23.0143ZM21.8005 22.5591C21.8703 22.3612 21.8985 22.0674 21.8985 21.6991H21.493C21.493 22.0609 21.4635 22.2955 21.4181 22.4242L21.8005 22.5591ZM21.8985 21.6991V14.5517H21.493V21.6991H21.8985ZM21.8985 14.5517C21.8985 14.1834 21.8703 13.8897 21.8005 13.6917L21.4181 13.8267C21.4635 13.9554 21.493 14.19 21.493 14.5517H21.8985ZM21.8005 13.6917C21.7224 13.4706 21.5665 13.3146 21.3453 13.2366L21.2104 13.6189C21.3159 13.6562 21.3809 13.7212 21.4181 13.8267L21.8005 13.6917ZM21.349 13.2379C21.1647 13.1688 20.8886 13.1294 20.5398 13.1101L20.5173 13.5149C20.8602 13.534 21.0837 13.5715 21.2067 13.6176L21.349 13.2379ZM20.7313 13.3125V13.0243H20.3258V13.3125H20.7313ZM20.5141 13.2265C20.9251 13.2559 21.5459 13.2702 22.373 13.2702V12.8648C21.5478 12.8648 20.9389 12.8503 20.543 12.8221L20.5141 13.2265ZM22.373 13.2702C23.1433 13.2702 23.7583 13.2558 24.216 13.2266L24.1902 12.822C23.7449 12.8504 23.1398 12.8648 22.373 12.8648V13.2702ZM24.0004 13.0243V13.3125H24.4058V13.0243H24.0004ZM24.0223 10.0548C24.1547 9.9721 24.2617 9.94154 24.3472 9.94154V9.53607C24.1637 9.53607 23.9825 9.60157 23.8074 9.71098L24.0223 10.0548ZM24.3472 9.94154C24.4568 9.94154 24.5468 9.9852 24.6283 10.1007L24.9595 9.86686C24.8105 9.65571 24.6026 9.53607 24.3472 9.53607V9.94154ZM24.6252 10.0962C24.6625 10.1522 24.6776 10.2048 24.6776 10.2576H25.0831C25.0831 10.1182 25.0405 9.98823 24.9626 9.87131L24.6252 10.0962ZM24.6776 10.2576C24.6776 10.3709 24.6125 10.5037 24.3833 10.648L24.5993 10.9911C24.8889 10.8088 25.0831 10.5669 25.0831 10.2576H24.6776ZM24.3846 10.6472C24.2012 10.7607 23.8717 10.9086 23.383 11.0907L23.5245 11.4707C24.0158 11.2877 24.3779 11.1282 24.598 10.9919L24.3846 10.6472ZM23.3785 11.0924C22.6544 11.3821 22.0294 11.6581 21.5042 11.9207L21.6855 12.2834C22.1979 12.0272 22.8122 11.7557 23.5291 11.4689L23.3785 11.0924ZM21.7734 12.0059L21.6725 11.8186L21.3155 12.0108L21.4164 12.1982L21.7734 12.0059ZM21.6163 12.0764C22.0133 11.7762 22.3542 11.4988 22.638 11.2443L22.3674 10.9424C22.0941 11.1874 21.7624 11.4576 21.3717 11.753L21.6163 12.0764ZM22.6383 11.244C22.9273 10.9839 23.1029 10.8274 23.1678 10.7717L22.9039 10.4639C22.8344 10.5235 22.6545 10.684 22.3671 10.9426L22.6383 11.244ZM23.1752 10.7651C23.5276 10.4317 23.8109 10.1959 24.0273 10.0516L23.8024 9.71421C23.5578 9.87733 23.2551 10.1314 22.8966 10.4705L23.1752 10.7651ZM29.7553 13.0099L29.6799 13.1983L29.689 13.2015L29.7553 13.0099ZM30.519 13.3989L30.4065 13.5677L30.4102 13.57L30.519 13.3989ZM31.2107 13.4566L31.3921 13.5473L31.3952 13.5405L31.2107 13.4566ZM31.326 12.9666V12.7639H31.148L31.1249 12.9404L31.326 12.9666ZM31.6574 12.9666L31.8594 12.9841L31.8784 12.7639H31.6574V12.9666ZM31.5853 15.9063V16.109H31.7881V15.9063H31.5853ZM31.2539 15.9063L31.0517 15.9213L31.0656 16.109H31.2539V15.9063ZM30.5766 13.9465L30.4116 14.0644L30.4141 14.0677L30.5766 13.9465ZM27.6226 13.6151L27.7616 13.7627L27.7638 13.7606L27.6226 13.6151ZM27.3776 15.7622L27.2043 15.8674L27.2071 15.8718L27.3776 15.7622ZM28.0261 16.4539L28.1467 16.291V16.291L28.0261 16.4539ZM29.1356 17.1888L29.2426 17.0165L29.2425 17.0165L29.1356 17.1888ZM29.5535 17.4482L29.4466 17.6204L29.4468 17.6205L29.5535 17.4482ZM30.9801 18.4424L30.8503 18.5983L30.8551 18.602L30.9801 18.4424ZM31.8303 19.4079L31.6549 19.5095V19.5095L31.8303 19.4079ZM31.2827 22.7222L31.411 22.8792L31.4125 22.878L31.2827 22.7222ZM27.954 23.2842L27.8899 23.4765L27.8918 23.4771L27.954 23.2842ZM27.1182 22.8951L27.0094 23.0662L27.013 23.0684L27.1182 22.8951ZM26.4266 22.8519L26.608 22.9426L26.6111 22.9358L26.4266 22.8519ZM26.3113 23.3274V23.5302H26.4893L26.5123 23.3537L26.3113 23.3274ZM25.9799 23.3274L25.7776 23.3127L25.7618 23.5302H25.9799V23.3274ZM26.0375 19.869V19.6663H25.8348V19.869H26.0375ZM26.3689 19.869L26.5712 19.855L26.5581 19.6663H26.3689V19.869ZM27.0894 22.2323L26.922 22.3466V22.3466L27.0894 22.2323ZM30.3173 22.6646L30.4502 22.8177L30.4524 22.8157L30.3173 22.6646ZM30.3173 19.8546L30.1702 19.9942L30.1721 19.9961L30.3173 19.8546ZM28.6169 18.5865L28.5113 18.7596L28.5119 18.76L28.6169 18.5865ZM27.2335 17.6643L27.109 17.8243L27.1112 17.826L27.2335 17.6643ZM26.3833 16.6988L26.2076 16.7999L26.2087 16.8018L26.3833 16.6988ZM26.83 13.5142L26.9581 13.6714L26.9598 13.67L26.83 13.5142ZM28.761 13.0685C29.1722 13.0685 29.4742 13.1158 29.68 13.1981L29.8306 12.8216C29.556 12.7118 29.1952 12.663 28.761 12.663V13.0685ZM29.689 13.2015C29.9198 13.2814 30.159 13.4026 30.4065 13.5676L30.6315 13.2303C30.3602 13.0494 30.0903 12.9113 29.8216 12.8183L29.689 13.2015ZM30.4102 13.57C30.6239 13.706 30.8305 13.8034 31.0089 13.8034V13.3979C30.9568 13.3979 30.8368 13.3609 30.6278 13.2279L30.4102 13.57ZM31.0089 13.8034C31.1922 13.8034 31.3196 13.692 31.392 13.5472L31.0293 13.3659C31.0227 13.3792 31.0169 13.3878 31.0127 13.393C31.0107 13.3955 31.0091 13.3972 31.008 13.3983C31.007 13.3993 31.0064 13.3997 31.0064 13.3997C31.0064 13.3997 31.0067 13.3994 31.0074 13.3991C31.0081 13.3987 31.0089 13.3984 31.0097 13.3982C31.0115 13.3976 31.0116 13.3979 31.0089 13.3979V13.8034ZM31.3952 13.5405C31.4561 13.4066 31.4975 13.219 31.527 12.9929L31.1249 12.9404C31.0968 13.1562 31.0613 13.2952 31.0261 13.3727L31.3952 13.5405ZM31.326 13.1694H31.6574V12.7639H31.326V13.1694ZM31.4554 12.9492C31.4065 13.5161 31.3826 14.504 31.3826 15.9063H31.7881C31.7881 14.5034 31.8122 13.5315 31.8594 12.9841L31.4554 12.9492ZM31.5853 15.7035H31.2539V16.109H31.5853V15.7035ZM31.4561 15.8913C31.3961 15.0819 31.1601 14.3899 30.7392 13.8254L30.4141 14.0677C30.781 14.5598 30.9964 15.1744 31.0517 15.9213L31.4561 15.8913ZM30.7416 13.8287C30.3143 13.2305 29.6868 12.9368 28.8907 12.9368V13.3423C29.5739 13.3423 30.0704 13.5866 30.4117 14.0644L30.7416 13.8287ZM28.8907 12.9368C28.3272 12.9368 27.8512 13.1107 27.4814 13.4696L27.7638 13.7606C28.0472 13.4855 28.4167 13.3423 28.8907 13.3423V12.9368ZM27.4836 13.4675C27.1123 13.8169 26.9299 14.271 26.9299 14.8111H27.3354C27.3354 14.3713 27.4796 14.0281 27.7615 13.7627L27.4836 13.4675ZM26.9299 14.8111C26.9299 15.2072 27.0188 15.5619 27.2043 15.8674L27.5509 15.657C27.4098 15.4245 27.3354 15.1451 27.3354 14.8111H26.9299ZM27.2071 15.8718C27.3934 16.1616 27.6265 16.4102 27.9054 16.6168L28.1467 16.291C27.9069 16.1133 27.7077 15.9007 27.5482 15.6526L27.2071 15.8718ZM27.9054 16.6168C28.1714 16.8138 28.5467 17.0622 29.0288 17.3611L29.2425 17.0165C28.7639 16.7198 28.3995 16.4782 28.1467 16.291L27.9054 16.6168ZM29.0287 17.361L29.4466 17.6204L29.6604 17.2759L29.2426 17.0165L29.0287 17.361ZM29.4468 17.6205C30.048 17.9927 30.5147 18.3185 30.8503 18.5982L31.1099 18.2867C30.7539 17.99 30.2695 17.6529 29.6602 17.2758L29.4468 17.6205ZM30.8551 18.602C31.1916 18.8658 31.4574 19.1683 31.6549 19.5095L32.0058 19.3063C31.7806 18.9174 31.4795 18.5763 31.1052 18.2829L30.8551 18.602ZM31.6549 19.5095C31.8456 19.839 31.9446 20.2303 31.9446 20.6904H32.3501C32.3501 20.1706 32.2377 19.7069 32.0058 19.3063L31.6549 19.5095ZM31.9446 20.6904C31.9446 21.5155 31.6752 22.1312 31.1529 22.5665L31.4125 22.878C32.043 22.3525 32.3501 21.6137 32.3501 20.6904H31.9446ZM31.1545 22.5652C30.6208 23.001 29.9386 23.2256 29.0924 23.2256V23.631C30.0138 23.631 30.7919 23.3848 31.411 22.8792L31.1545 22.5652ZM29.0924 23.2256C28.6434 23.2256 28.2869 23.1785 28.0163 23.0913L27.8918 23.4771C28.2168 23.582 28.6192 23.631 29.0924 23.631V23.2256ZM28.0181 23.0919C27.7448 23.0008 27.48 22.8776 27.2235 22.7218L27.013 23.0684C27.2945 23.2393 27.5868 23.3755 27.8899 23.4765L28.0181 23.0919ZM27.2271 22.7241C27.0133 22.5881 26.8067 22.4907 26.6283 22.4907V22.8961C26.6804 22.8961 26.8005 22.9332 27.0094 23.0662L27.2271 22.7241ZM26.6283 22.4907C26.4344 22.4907 26.3095 22.6194 26.242 22.768L26.6111 22.9358C26.6263 22.9025 26.6377 22.8929 26.6383 22.8924C26.6384 22.8924 26.6379 22.8928 26.6368 22.8933C26.6358 22.8939 26.6345 22.8945 26.633 22.895C26.6297 22.8962 26.6277 22.8961 26.6283 22.8961V22.4907ZM26.2452 22.7612C26.1811 22.8894 26.1395 23.0766 26.1102 23.3012L26.5123 23.3537C26.5407 23.1364 26.5759 23.0065 26.6079 22.9426L26.2452 22.7612ZM26.3113 23.1247H25.9799V23.5302H26.3113V23.1247ZM26.1821 23.3421C26.2211 22.805 26.2402 21.6444 26.2402 19.869H25.8348C25.8348 21.6481 25.8154 22.7931 25.7776 23.3127L26.1821 23.3421ZM26.0375 20.0718H26.3689V19.6663H26.0375V20.0718ZM26.1667 19.883C26.2356 20.8778 26.483 21.7034 26.922 22.3466L27.2569 22.118C26.8697 21.5507 26.6367 20.8008 26.5712 19.855L26.1667 19.883ZM26.922 22.3466C27.3796 23.017 28.0824 23.3428 28.9915 23.3428V22.9374C28.1907 22.9374 27.6255 22.658 27.2569 22.118L26.922 22.3466ZM28.9915 23.3428C29.5553 23.3428 30.0454 23.1691 30.4502 22.8176L30.1843 22.5115C29.859 22.794 29.4653 22.9374 28.9915 22.9374V23.3428ZM30.4524 22.8157C30.8723 22.44 31.0676 21.8972 31.0676 21.2236H30.6621C30.6621 21.818 30.4923 22.2359 30.1821 22.5135L30.4524 22.8157ZM31.0676 21.2236C31.0676 20.6344 30.8656 20.1268 30.4625 19.7131L30.1721 19.9961C30.4991 20.3317 30.6621 20.7368 30.6621 21.2236H31.0676ZM30.4643 19.7151C30.0904 19.321 29.5056 18.8872 28.7218 18.4131L28.5119 18.76C29.2844 19.2273 29.8332 19.639 30.1702 19.9942L30.4643 19.7151ZM28.7225 18.4135C28.159 18.0696 27.704 17.7661 27.3559 17.5026L27.1112 17.826C27.4739 18.1005 27.9412 18.4118 28.5113 18.7596L28.7225 18.4135ZM27.358 17.5043C27.0322 17.2509 26.7658 16.9483 26.558 16.5958L26.2087 16.8018C26.4427 17.1986 26.7432 17.5398 27.1091 17.8243L27.358 17.5043ZM26.5591 16.5978C26.3583 16.2486 26.2546 15.8377 26.2546 15.3587H25.8492C25.8492 15.898 25.9665 16.3806 26.2076 16.7999L26.5591 16.5978ZM26.2546 15.3587C26.2546 14.5988 26.4964 14.0476 26.9581 13.6714L26.702 13.3571C26.1262 13.8262 25.8492 14.5047 25.8492 15.3587H26.2546ZM26.9598 13.67C27.4372 13.2722 28.0329 13.0685 28.761 13.0685V12.663C27.952 12.663 27.2604 12.8916 26.7003 13.3585L26.9598 13.67ZM45.0655 13.3125L45.0767 13.5149L45.2682 13.5043V13.3125H45.0655ZM44.3018 13.4278L44.2343 13.2365L44.2306 13.2379L44.3018 13.4278ZM43.9847 13.7592L43.7936 13.6917V13.6917L43.9847 13.7592ZM43.9847 22.4917L43.7936 22.5591V22.5591L43.9847 22.4917ZM44.3018 22.8231L44.2306 23.0129L44.2343 23.0143L44.3018 22.8231ZM45.0655 22.9384H45.2682V22.7466L45.0767 22.7359L45.0655 22.9384ZM45.0655 23.2266L45.0523 23.4289L45.2682 23.443V23.2266H45.0655ZM41.3909 23.2266H41.1882V23.4443L41.4054 23.4288L41.3909 23.2266ZM41.3909 22.9384L41.3797 22.7359L41.1882 22.7466V22.9384H41.3909ZM42.1403 22.8231L42.0728 22.6319L42.0691 22.6333L42.1403 22.8231ZM42.4717 22.4917L42.6629 22.5591V22.5591L42.4717 22.4917ZM42.5582 13.9753H42.7609L42.3682 13.9046L42.5582 13.9753ZM39.0854 23.2986V23.5013H39.2262L39.2753 23.3694L39.0854 23.2986ZM38.8548 23.2986L38.6658 23.372L38.716 23.5013H38.8548V23.2986ZM35.2235 13.9465L35.4125 13.8731L35.0207 13.9465H35.2235ZM35.3099 22.3908L35.1164 22.4519L35.1197 22.4609L35.3099 22.3908ZM35.6846 22.7943L35.5977 22.9777L35.6059 22.9811L35.6846 22.7943ZM36.5348 22.9384H36.7375V22.7455L36.5449 22.7359L36.5348 22.9384ZM36.5348 23.2266L36.5179 23.4286L36.7375 23.4469V23.2266H36.5348ZM33.7248 23.2266H33.5221V23.4486L33.7432 23.4285L33.7248 23.2266ZM33.7248 22.9384L33.7133 22.736L33.5221 22.7469V22.9384H33.7248ZM34.4741 22.7943L34.5606 22.9779L34.569 22.9734L34.4741 22.7943ZM34.8056 22.3908L34.9989 22.4518L34.9998 22.449L34.8056 22.3908ZM34.8056 13.7592L34.6144 13.8267V13.8267L34.8056 13.7592ZM34.4741 13.4278L34.403 13.6176L34.4067 13.6189L34.4741 13.4278ZM33.7248 13.3125H33.5221V13.5043L33.7136 13.5149L33.7248 13.3125ZM33.7248 13.0243L33.7432 12.8224L33.5221 12.8023V13.0243H33.7248ZM36.2898 13.0243L36.4793 12.9523L36.4247 12.8084L36.2715 12.8224L36.2898 13.0243ZM39.46 21.3677L39.2705 21.4397L39.4617 21.9429L39.6499 21.4386L39.46 21.3677ZM42.5582 13.0675V12.8648H42.4174L42.3682 12.9966L42.5582 13.0675ZM45.0655 13.0243H45.2682V12.8079L45.0523 12.822L45.0655 13.0243ZM45.0543 13.1101C44.7044 13.1295 44.4259 13.1689 44.2343 13.2366L44.3692 13.6189C44.5042 13.5713 44.735 13.5339 45.0767 13.5149L45.0543 13.1101ZM44.2306 13.2379C44.0173 13.3179 43.8699 13.4754 43.7936 13.6917L44.1759 13.8267C44.2149 13.7163 44.2788 13.6529 44.373 13.6176L44.2306 13.2379ZM43.7936 13.6917C43.7237 13.8897 43.6956 14.1834 43.6956 14.5517H44.101C44.101 14.19 44.1305 13.9554 44.1759 13.8267L43.7936 13.6917ZM43.6956 14.5517V21.6991H44.101V14.5517H43.6956ZM43.6956 21.6991C43.6956 22.0674 43.7237 22.3612 43.7936 22.5591L44.1759 22.4242C44.1305 22.2955 44.101 22.0609 44.101 21.6991H43.6956ZM43.7936 22.5591C43.8699 22.7754 44.0173 22.9329 44.2306 23.0129L44.373 22.6333C44.2788 22.5979 44.2149 22.5345 44.1759 22.4242L43.7936 22.5591ZM44.2343 23.0143C44.4259 23.0819 44.7044 23.1213 45.0543 23.1408L45.0767 22.7359C44.735 22.7169 44.5042 22.6795 44.3692 22.6319L44.2343 23.0143ZM44.8628 22.9384V23.2266H45.2682V22.9384H44.8628ZM45.0787 23.0243C44.6303 22.995 44.0152 22.9806 43.2354 22.9806V23.3861C44.0119 23.3861 44.6169 23.4005 45.0523 23.4289L45.0787 23.0243ZM43.2354 22.9806C42.4083 22.9806 41.7875 22.995 41.3765 23.0243L41.4054 23.4288C41.8013 23.4005 42.4102 23.3861 43.2354 23.3861V22.9806ZM41.5937 23.2266V22.9384H41.1882V23.2266H41.5937ZM41.4022 23.1408C41.751 23.1214 42.0271 23.0821 42.2115 23.0129L42.0691 22.6333C41.9461 22.6794 41.7226 22.7169 41.3797 22.7359L41.4022 23.1408ZM42.2077 23.0143C42.4289 22.9362 42.5848 22.7803 42.6629 22.5591L42.2805 22.4242C42.2433 22.5297 42.1783 22.5947 42.0728 22.6319L42.2077 23.0143ZM42.6629 22.5591C42.7327 22.3612 42.7609 22.0674 42.7609 21.6991H42.3554C42.3554 22.0609 42.3259 22.2955 42.2805 22.4242L42.6629 22.5591ZM42.7609 21.6991V13.9753H42.3554V21.6991H42.7609ZM42.3682 13.9046L38.8954 23.2278L39.2753 23.3694L42.7481 14.0461L42.3682 13.9046ZM39.0854 23.0959H38.8548V23.5013H39.0854V23.0959ZM39.0438 23.2252L35.4125 13.8731L35.0345 14.0199L38.6658 23.372L39.0438 23.2252ZM35.0207 13.9465V21.555H35.4262V13.9465H35.0207ZM35.0207 21.555C35.0207 21.9345 35.0493 22.2387 35.1166 22.4518L35.5033 22.3297C35.4553 22.1779 35.4262 21.9248 35.4262 21.555H35.0207ZM35.1197 22.4609C35.2061 22.6953 35.3694 22.8693 35.5978 22.9775L35.7714 22.611C35.6348 22.5463 35.5483 22.4513 35.5002 22.3207L35.1197 22.4609ZM35.6059 22.9811C35.8222 23.0722 36.1347 23.1213 36.5247 23.1408L36.5449 22.7359C36.1663 22.7169 35.9121 22.6701 35.7633 22.6074L35.6059 22.9811ZM36.332 22.9384V23.2266H36.7375V22.9384H36.332ZM36.5516 23.0245C36.1974 22.995 35.7008 22.9806 35.065 22.9806V23.3861C35.6972 23.3861 36.1805 23.4005 36.5179 23.4286L36.5516 23.0245ZM35.065 22.9806C34.4865 22.9806 34.0326 22.995 33.7065 23.0247L33.7432 23.4285C34.0511 23.4005 34.4906 23.3861 35.065 23.3861V22.9806ZM33.9276 23.2266V22.9384H33.5221V23.2266H33.9276ZM33.7364 23.1408C34.08 23.1211 34.3613 23.0714 34.5605 22.9777L34.3878 22.6108C34.2603 22.6708 34.0421 22.7172 33.7133 22.736L33.7364 23.1408ZM34.569 22.9734C34.7812 22.8611 34.9259 22.6831 34.9989 22.4518L34.6123 22.3297C34.57 22.4635 34.4937 22.5545 34.3793 22.6151L34.569 22.9734ZM34.9998 22.449C35.0659 22.2285 35.0948 21.9264 35.0948 21.555H34.6893C34.6893 21.9137 34.6605 22.1688 34.6114 22.3325L34.9998 22.449ZM35.0948 21.555V14.5517H34.6893V21.555H35.0948ZM35.0948 14.5517C35.0948 14.1834 35.0666 13.8897 34.9968 13.6917L34.6144 13.8267C34.6598 13.9554 34.6893 14.19 34.6893 14.5517H35.0948ZM34.9968 13.6917C34.9187 13.4706 34.7628 13.3146 34.5416 13.2366L34.4067 13.6189C34.5122 13.6562 34.5772 13.7212 34.6144 13.8267L34.9968 13.6917ZM34.5453 13.2379C34.3609 13.1688 34.0849 13.1294 33.7361 13.1101L33.7136 13.5149C34.0564 13.534 34.2799 13.5715 34.403 13.6176L34.5453 13.2379ZM33.9276 13.3125V13.0243H33.5221V13.3125H33.9276ZM33.7065 13.2262C34.0326 13.2558 34.4865 13.2702 35.065 13.2702V12.8648C34.4906 12.8648 34.0511 12.8504 33.7432 12.8224L33.7065 13.2262ZM35.065 13.2702C35.5676 13.2702 35.9826 13.2558 36.3082 13.2262L36.2715 12.8224C35.9629 12.8504 35.5614 12.8648 35.065 12.8648V13.2702ZM36.1003 13.0963L39.2705 21.4397L39.6495 21.2957L36.4793 12.9523L36.1003 13.0963ZM39.6499 21.4386L42.7481 13.1384L42.3682 12.9966L39.2701 21.2968L39.6499 21.4386ZM42.5582 13.2702H43.2354V12.8648H42.5582V13.2702ZM43.2354 13.2702C44.0152 13.2702 44.6303 13.2558 45.0787 13.2266L45.0523 12.822C44.6169 12.8504 44.0119 12.8648 43.2354 12.8648V13.2702ZM44.8628 13.0243V13.3125H45.2682V13.0243H44.8628ZM53.5633 13.4422L53.4583 13.6156L53.4593 13.6162L53.5633 13.4422ZM55.1628 15.2434L54.9797 15.3305L54.981 15.3332L55.1628 15.2434ZM55.1484 20.8489L54.9658 20.7608L54.965 20.7626L55.1484 20.8489ZM53.5201 22.751L53.4103 22.5806L53.4092 22.5813L53.5201 22.751ZM48.7504 22.8087L48.6453 22.9821L48.6464 22.9827L48.7504 22.8087ZM47.1508 21.0218L46.9677 21.1089L46.9691 21.1116L47.1508 21.0218ZM47.1652 15.4019L46.9826 15.3138L46.9818 15.3156L47.1652 15.4019ZM48.7936 13.4998L48.6838 13.3293L48.6828 13.33L48.7936 13.4998ZM49.4853 13.7304L49.6223 13.8798L49.6224 13.8797L49.4853 13.7304ZM48.4045 15.5172L48.2124 15.4524L48.2117 15.4545L48.4045 15.5172ZM48.4477 20.7913L48.2574 20.8611L48.2582 20.8632L48.4477 20.7913ZM49.6005 22.5493L49.7327 22.3956V22.3956L49.6005 22.5493ZM52.8284 22.5349L52.9654 22.6843L52.9655 22.6842L52.8284 22.5349ZM53.9091 20.7336L53.717 20.6688L53.7163 20.671L53.9091 20.7336ZM53.8659 15.4596L53.6756 15.5294L53.6764 15.5315L53.8659 15.4596ZM52.7275 13.7016L52.5953 13.8553V13.8553L52.7275 13.7016ZM51.1712 13.0253C52.0523 13.0253 52.8122 13.2243 53.4583 13.6156L53.6683 13.2688C52.9502 12.8338 52.1154 12.6198 51.1712 12.6198V13.0253ZM53.4593 13.6162C54.1138 14.0071 54.6208 14.5758 54.9797 15.3305L55.3459 15.1563C54.9555 14.3356 54.3962 13.7034 53.6672 13.2681L53.4593 13.6162ZM54.981 15.3332C55.3485 16.0773 55.5365 16.9769 55.5365 18.039H55.9419C55.9419 16.9299 55.7457 15.9658 55.3446 15.1537L54.981 15.3332ZM55.5365 18.039C55.5365 19.0702 55.3444 19.9759 54.9658 20.7608L55.331 20.937C55.7401 20.0888 55.9419 19.1212 55.9419 18.039H55.5365ZM54.965 20.7626C54.5955 21.5477 54.077 22.1513 53.4103 22.5806L53.6298 22.9215C54.3657 22.4477 54.9328 21.7833 55.3318 20.9352L54.965 20.7626ZM53.4092 22.5813C52.7528 23.0097 52.0042 23.2256 51.1568 23.2256V23.631C52.0771 23.631 52.9039 23.3954 53.6309 22.9208L53.4092 22.5813ZM51.1568 23.2256C50.2758 23.2256 49.5105 23.0265 48.8543 22.6346L48.6464 22.9827C49.3735 23.417 50.2125 23.631 51.1568 23.631V23.2256ZM48.8554 22.6353C48.2092 22.2439 47.7014 21.6788 47.3326 20.9321L46.9691 21.1116C47.3689 21.9212 47.9273 22.5472 48.6453 22.9821L48.8554 22.6353ZM47.3339 20.9348C46.975 20.18 46.7916 19.2745 46.7916 18.2119H46.3861C46.3861 19.3204 46.5774 20.2881 46.9678 21.1089L47.3339 20.9348ZM46.7916 18.2119C46.7916 17.1799 46.9791 16.2736 47.3487 15.4883L46.9818 15.3156C46.5828 16.1634 46.3861 17.1304 46.3861 18.2119H46.7916ZM47.3479 15.49C47.7273 14.7034 48.2466 14.099 48.9044 13.6696L48.6828 13.33C47.9572 13.8037 47.3909 14.4674 46.9826 15.3139L47.3479 15.49ZM48.9033 13.6703C49.5699 13.2411 50.3239 13.0253 51.1712 13.0253V12.6198C50.2509 12.6198 49.4198 12.8555 48.6838 13.3294L48.9033 13.6703ZM51.1136 12.8792C50.4458 12.8792 49.8546 13.1159 49.3481 13.5811L49.6224 13.8797C50.0573 13.4803 50.5517 13.2847 51.1136 13.2847V12.8792ZM49.3483 13.5809C48.8555 14.0326 48.4796 14.6608 48.2124 15.4524L48.5966 15.582C48.8482 14.8366 49.1927 14.2735 49.6223 13.8798L49.3483 13.5809ZM48.2117 15.4545C47.9541 16.2473 47.8271 17.1481 47.8271 18.1542H48.2326C48.2326 17.1814 48.3554 16.3242 48.5973 15.5799L48.2117 15.4545ZM47.8271 18.1542C47.8271 19.1718 47.9689 20.0753 48.2574 20.8611L48.6381 20.7214C48.3694 19.9894 48.2326 19.1349 48.2326 18.1542H47.8271ZM48.2582 20.8632C48.5551 21.6451 48.9562 22.2625 49.4683 22.703L49.7327 22.3956C49.2842 22.0099 48.9168 21.4553 48.6373 20.7193L48.2582 20.8632ZM49.4683 22.703C49.9829 23.1455 50.5671 23.3717 51.2145 23.3717V22.9662C50.6706 22.9662 50.1788 22.7792 49.7327 22.3956L49.4683 22.703ZM51.2145 23.3717C51.881 23.3717 52.4676 23.1406 52.9654 22.6843L52.6914 22.3854C52.2669 22.7745 51.7776 22.9662 51.2145 22.9662V23.3717ZM52.9655 22.6842C53.4679 22.2228 53.8442 21.5894 54.1019 20.7963L53.7163 20.671C53.4745 21.4149 53.1303 21.9823 52.6912 22.3856L52.9655 22.6842ZM54.1012 20.7985C54.369 20.005 54.5009 19.1035 54.5009 18.0966H54.0955C54.0955 19.0687 53.968 19.9252 53.717 20.6688L54.1012 20.7985ZM54.5009 18.0966C54.5009 17.0784 54.3541 16.1741 54.0554 15.3876L53.6764 15.5315C53.9541 16.2629 54.0955 17.1166 54.0955 18.0966H54.5009ZM54.0562 15.3897C53.7689 14.6071 53.3725 13.9889 52.8597 13.5478L52.5953 13.8553C53.0432 14.2404 53.4057 14.7942 53.6756 15.5294L54.0562 15.3897ZM52.8597 13.5478C52.3451 13.1053 51.761 12.8792 51.1136 12.8792V13.2847C51.6574 13.2847 52.1492 13.4716 52.5953 13.8553L52.8597 13.5478ZM17.1421 28.0099L17.0667 28.1983L17.0758 28.2015L17.1421 28.0099ZM17.9058 28.3989L17.7934 28.5677L17.797 28.57L17.9058 28.3989ZM18.5975 28.4566L18.779 28.5473L18.7821 28.5405L18.5975 28.4566ZM18.7128 27.9666V27.7639H18.5348L18.5118 27.9404L18.7128 27.9666ZM19.0442 27.9666L19.2462 27.9841L19.2652 27.7639H19.0442V27.9666ZM18.9722 30.9063V31.109H19.1749V30.9063H18.9722ZM18.6407 30.9063L18.4386 30.9213L18.4525 31.109H18.6407V30.9063ZM17.9635 28.9465L17.7985 29.0644L17.8009 29.0677L17.9635 28.9465ZM15.0094 28.6151L15.1484 28.7627L15.1506 28.7606L15.0094 28.6151ZM14.7645 30.7622L14.5911 30.8674L14.5939 30.8718L14.7645 30.7622ZM15.4129 31.4539L15.5336 31.291V31.291L15.4129 31.4539ZM16.5225 32.1888L16.6294 32.0165L16.6293 32.0165L16.5225 32.1888ZM16.9404 32.4482L16.8335 32.6204L16.8337 32.6205L16.9404 32.4482ZM18.367 33.4424L18.2371 33.5983L18.2419 33.602L18.367 33.4424ZM19.2171 34.4079L19.0417 34.5095V34.5095L19.2171 34.4079ZM18.6696 37.7222L18.7978 37.8792L18.7994 37.878L18.6696 37.7222ZM15.3409 38.2842L15.2767 38.4765L15.2786 38.4771L15.3409 38.2842ZM14.5051 37.8951L14.3962 38.0662L14.3999 38.0684L14.5051 37.8951ZM13.8134 37.8519L13.9949 37.9426L13.998 37.9358L13.8134 37.8519ZM13.6981 38.3274V38.5302H13.8761L13.8992 38.3537L13.6981 38.3274ZM13.3667 38.3274L13.1645 38.3127L13.1487 38.5302H13.3667V38.3274ZM13.4243 34.869V34.6663H13.2216V34.869H13.4243ZM13.7558 34.869L13.958 34.855L13.9449 34.6663H13.7558V34.869ZM14.4763 37.2323L14.3088 37.3466V37.3466L14.4763 37.2323ZM17.7041 37.6646L17.837 37.8177L17.8393 37.8157L17.7041 37.6646ZM17.7041 34.8546L17.557 34.9942L17.5589 34.9961L17.7041 34.8546ZM16.0037 33.5865L15.8981 33.7596L15.8988 33.76L16.0037 33.5865ZM14.6204 32.6643L14.4959 32.8243L14.498 32.826L14.6204 32.6643ZM13.7702 31.6988L13.5944 31.7999L13.5955 31.8018L13.7702 31.6988ZM14.2169 28.5142L14.3449 28.6714L14.3467 28.67L14.2169 28.5142ZM16.1478 28.0685C16.559 28.0685 16.861 28.1158 17.0668 28.1981L17.2174 27.8216C16.9429 27.7118 16.582 27.663 16.1478 27.663V28.0685ZM17.0758 28.2015C17.3067 28.2814 17.5459 28.4026 17.7934 28.5676L18.0183 28.2303C17.7471 28.0494 17.4771 27.9113 17.2084 27.8183L17.0758 28.2015ZM17.797 28.57C18.0108 28.706 18.2174 28.8034 18.3958 28.8034V28.3979C18.3436 28.3979 18.2236 28.3609 18.0147 28.2279L17.797 28.57ZM18.3958 28.8034C18.5791 28.8034 18.7065 28.692 18.7789 28.5472L18.4162 28.3659C18.4095 28.3792 18.4038 28.3878 18.3996 28.393C18.3975 28.3955 18.3959 28.3972 18.3949 28.3983C18.3938 28.3993 18.3932 28.3997 18.3932 28.3997C18.3932 28.3997 18.3936 28.3994 18.3943 28.3991C18.395 28.3987 18.3958 28.3984 18.3966 28.3982C18.3983 28.3976 18.3984 28.3979 18.3958 28.3979V28.8034ZM18.7821 28.5405C18.8429 28.4066 18.8843 28.219 18.9138 27.9929L18.5118 27.9404C18.4836 28.1562 18.4482 28.2952 18.413 28.3727L18.7821 28.5405ZM18.7128 28.1694H19.0442V27.7639H18.7128V28.1694ZM18.8422 27.9492C18.7934 28.5161 18.7694 29.504 18.7694 30.9063H19.1749C19.1749 29.5034 19.199 28.5315 19.2462 27.9841L18.8422 27.9492ZM18.9722 30.7035H18.6407V31.109H18.9722V30.7035ZM18.8429 30.8913C18.783 30.0819 18.5469 29.3899 18.126 28.8254L17.8009 29.0677C18.1678 29.5598 18.3832 30.1744 18.4386 30.9213L18.8429 30.8913ZM18.1285 28.8287C17.7012 28.2305 17.0737 27.9368 16.2775 27.9368V28.3423C16.9608 28.3423 17.4573 28.5866 17.7985 29.0644L18.1285 28.8287ZM16.2775 27.9368C15.714 27.9368 15.238 28.1107 14.8682 28.4696L15.1506 28.7606C15.4341 28.4855 15.8035 28.3423 16.2775 28.3423V27.9368ZM14.8705 28.4675C14.4991 28.8169 14.3168 29.271 14.3168 29.8111H14.7222C14.7222 29.3713 14.8665 29.0281 15.1484 28.7627L14.8705 28.4675ZM14.3168 29.8111C14.3168 30.2072 14.4057 30.5619 14.5912 30.8674L14.9378 30.657C14.7966 30.4245 14.7222 30.1451 14.7222 29.8111H14.3168ZM14.5939 30.8718C14.7802 31.1616 15.0133 31.4102 15.2922 31.6168L15.5336 31.291C15.2937 31.1133 15.0945 30.9007 14.935 30.6526L14.5939 30.8718ZM15.2922 31.6168C15.5582 31.8138 15.9335 32.0622 16.4156 32.3611L16.6293 32.0165C16.1508 31.7198 15.7864 31.4782 15.5336 31.291L15.2922 31.6168ZM16.4156 32.361L16.8335 32.6204L17.0473 32.2759L16.6294 32.0165L16.4156 32.361ZM16.8337 32.6205C17.4349 32.9927 17.9015 33.3185 18.2372 33.5982L18.4967 33.2867C18.1407 32.99 17.6563 32.6529 17.0471 32.2758L16.8337 32.6205ZM18.2419 33.602C18.5785 33.8658 18.8442 34.1683 19.0417 34.5095L19.3926 34.3063C19.1674 33.9174 18.8664 33.5763 18.492 33.2829L18.2419 33.602ZM19.0417 34.5095C19.2325 34.839 19.3314 35.2303 19.3314 35.6904H19.7369C19.7369 35.1706 19.6245 34.7069 19.3926 34.3063L19.0417 34.5095ZM19.3314 35.6904C19.3314 36.5155 19.0621 37.1312 18.5398 37.5665L18.7994 37.878C19.4299 37.3525 19.7369 36.6137 19.7369 35.6904H19.3314ZM18.5413 37.5652C18.0076 38.001 17.3255 38.2256 16.4792 38.2256V38.631C17.4007 38.631 18.1787 38.3848 18.7978 37.8792L18.5413 37.5652ZM16.4792 38.2256C16.0302 38.2256 15.6737 38.1785 15.4031 38.0913L15.2786 38.4771C15.6036 38.582 16.006 38.631 16.4792 38.631V38.2256ZM15.405 38.0919C15.1316 38.0008 14.8668 37.8776 14.6103 37.7218L14.3999 38.0684C14.6813 38.2393 14.9737 38.3755 15.2767 38.4765L15.405 38.0919ZM14.6139 37.7241C14.4002 37.5881 14.1936 37.4907 14.0151 37.4907V37.8961C14.0673 37.8961 14.1873 37.9332 14.3962 38.0662L14.6139 37.7241ZM14.0151 37.4907C13.8212 37.4907 13.6964 37.6194 13.6288 37.768L13.998 37.9358C14.0131 37.9025 14.0245 37.8929 14.0251 37.8924C14.0252 37.8924 14.0247 37.8928 14.0237 37.8933C14.0226 37.8939 14.0213 37.8945 14.0198 37.895C14.0165 37.8962 14.0145 37.8961 14.0151 37.8961V37.4907ZM13.6321 37.7612C13.568 37.8894 13.5264 38.0766 13.4971 38.3012L13.8992 38.3537C13.9275 38.1364 13.9628 38.0065 13.9947 37.9426L13.6321 37.7612ZM13.6981 38.1247H13.3667V38.5302H13.6981V38.1247ZM13.5689 38.3421C13.608 37.805 13.6271 36.6444 13.6271 34.869H13.2216C13.2216 36.6481 13.2023 37.7931 13.1645 38.3127L13.5689 38.3421ZM13.4243 35.0718H13.7558V34.6663H13.4243V35.0718ZM13.5535 34.883C13.6225 35.8778 13.8698 36.7034 14.3088 37.3466L14.6437 37.118C14.2565 36.5507 14.0236 35.8008 13.958 34.855L13.5535 34.883ZM14.3088 37.3466C14.7664 38.017 15.4693 38.3428 16.3784 38.3428V37.9374C15.5775 37.9374 15.0123 37.658 14.6437 37.118L14.3088 37.3466ZM16.3784 38.3428C16.9421 38.3428 17.4323 38.1691 17.837 37.8176L17.5712 37.5115C17.2458 37.794 16.8522 37.9374 16.3784 37.9374V38.3428ZM17.8393 37.8157C18.2591 37.44 18.4544 36.8972 18.4544 36.2236H18.0489C18.0489 36.818 17.8792 37.2359 17.5689 37.5135L17.8393 37.8157ZM18.4544 36.2236C18.4544 35.6344 18.2524 35.1268 17.8493 34.7131L17.5589 34.9961C17.8859 35.3317 18.0489 35.7368 18.0489 36.2236H18.4544ZM17.8512 34.7151C17.4773 34.321 16.8924 33.8872 16.1087 33.4131L15.8988 33.76C16.6713 34.2273 17.22 34.639 17.557 34.9942L17.8512 34.7151ZM16.1093 33.4135C15.5458 33.0696 15.0908 32.7661 14.7427 32.5026L14.498 32.826C14.8608 33.1005 15.3281 33.4118 15.8981 33.7596L16.1093 33.4135ZM14.7448 32.5043C14.419 32.2509 14.1527 31.9483 13.9448 31.5958L13.5955 31.8018C13.8296 32.1986 14.13 32.5398 14.4959 32.8243L14.7448 32.5043ZM13.9459 31.5978C13.7451 31.2486 13.6415 30.8377 13.6415 30.3587H13.236C13.236 30.898 13.3533 31.3806 13.5944 31.7999L13.9459 31.5978ZM13.6415 30.3587C13.6415 29.5988 13.8832 29.0476 14.3449 28.6714L14.0888 28.3571C13.513 28.8262 13.236 29.5047 13.236 30.3587H13.6415ZM14.3467 28.67C14.824 28.2722 15.4198 28.0685 16.1478 28.0685V27.663C15.3388 27.663 14.6473 27.8916 14.0871 28.3585L14.3467 28.67ZM29.6856 28.0243H29.8884V27.8003L29.6654 27.8226L29.6856 28.0243ZM29.6856 28.3125L29.7329 28.5096L29.8884 28.4723V28.3125H29.6856ZM28.5472 29.5662L28.7362 29.6395L28.7363 29.6393L28.5472 29.5662ZM25.1609 38.2986V38.5013H25.2997L25.3499 38.3719L25.1609 38.2986ZM24.9303 38.2986L24.7413 38.3719L24.7915 38.5013H24.9303V38.2986ZM21.4143 29.2347L21.2252 29.3079L21.2253 29.308L21.4143 29.2347ZM20.42 28.3125H20.2172V28.5064L20.411 28.515L20.42 28.3125ZM20.42 28.0243L20.4351 27.8221L20.2172 27.8058V28.0243H20.42ZM23.8063 28.0243H24.0091V27.8065L23.7919 27.8221L23.8063 28.0243ZM23.8063 28.3125L23.817 28.5149L24.0091 28.5048V28.3125H23.8063ZM23.0138 28.4566L23.0951 28.6424L23.1001 28.64L23.0138 28.4566ZM22.9561 29.5229L23.1459 29.4515L23.1444 29.4476L22.9561 29.5229ZM25.5644 36.4541L25.3746 36.5255L25.5621 37.0238L25.7535 36.527L25.5644 36.4541ZM27.9132 30.3587L28.1024 30.4316L28.1033 30.4291L27.9132 30.3587ZM27.8844 28.5286L27.7719 28.6974L27.7755 28.6997L27.8844 28.5286ZM26.9477 28.3125H26.745V28.5107L26.9431 28.5152L26.9477 28.3125ZM26.9477 28.0243L26.9584 27.8218L26.745 27.8106V28.0243H26.9477ZM28.6049 28.2702C29.041 28.2702 29.4085 28.2557 29.7058 28.226L29.6654 27.8226C29.3863 27.8505 29.0334 27.8648 28.6049 27.8648V28.2702ZM29.4829 28.0243V28.3125H29.8884V28.0243H29.4829ZM29.6383 28.1153C29.0629 28.2534 28.6467 28.7466 28.3581 29.493L28.7363 29.6393C29.0049 28.9447 29.3477 28.6021 29.7329 28.5096L29.6383 28.1153ZM28.3582 29.4929L24.9719 38.2253L25.3499 38.3719L28.7362 29.6395L28.3582 29.4929ZM25.1609 38.0959H25.0456V38.5013H25.1609V38.0959ZM25.0456 38.0959H24.9303V38.5013H25.0456V38.0959ZM25.1193 38.2253L21.6033 29.1614L21.2253 29.308L24.7413 38.3719L25.1193 38.2253ZM21.6033 29.1615C21.3596 28.532 20.978 28.1343 20.429 28.1099L20.411 28.515C20.7266 28.529 21.0078 28.7462 21.2252 29.3079L21.6033 29.1615ZM20.6227 28.3125V28.0243H20.2172V28.3125H20.6227ZM20.4048 28.2265C20.7964 28.2558 21.316 28.2702 21.9619 28.2702V27.8648C21.3204 27.8648 20.8122 27.8504 20.4351 27.8221L20.4048 28.2265ZM21.9619 28.2702C22.789 28.2702 23.4098 28.2559 23.8208 28.2265L23.7919 27.8221C23.396 27.8503 22.7871 27.8648 21.9619 27.8648V28.2702ZM23.6036 28.0243V28.3125H24.0091V28.0243H23.6036ZM23.7957 28.11C23.4257 28.1295 23.1283 28.1786 22.9275 28.2731L23.1001 28.64C23.2259 28.5808 23.4568 28.5339 23.817 28.5149L23.7957 28.11ZM22.9325 28.2708C22.8214 28.3195 22.729 28.3954 22.6665 28.5009C22.605 28.6046 22.5805 28.723 22.5805 28.8457H22.986C22.986 28.7761 22.9998 28.7337 23.0153 28.7076C23.0296 28.6834 23.0525 28.6609 23.095 28.6423L22.9325 28.2708ZM22.5805 28.8457C22.5805 29.0486 22.6501 29.3037 22.7679 29.5982L23.1444 29.4476C23.0316 29.1658 22.986 28.9693 22.986 28.8457H22.5805ZM22.7664 29.5943L25.3746 36.5255L25.7541 36.3827L23.1459 29.4515L22.7664 29.5943ZM25.7535 36.527L28.1024 30.4316L27.724 30.2858L25.3752 36.3812L25.7535 36.527ZM28.1033 30.4291C28.2969 29.9065 28.4041 29.4842 28.4041 29.1771H27.9986C27.9986 29.408 27.9138 29.7734 27.7231 30.2883L28.1033 30.4291ZM28.4041 29.1771C28.4041 28.8252 28.2748 28.5368 27.9932 28.3576L27.7755 28.6997C27.9166 28.7895 27.9986 28.9334 27.9986 29.1771H28.4041ZM27.9968 28.3599C27.7472 28.1935 27.3884 28.1197 26.9523 28.1098L26.9431 28.5152C27.3524 28.5245 27.6181 28.5948 27.7719 28.6973L27.9968 28.3599ZM27.1505 28.3125V28.0243H26.745V28.3125H27.1505ZM26.9371 28.2267C27.4882 28.2557 28.0442 28.2702 28.6049 28.2702V27.8648C28.0512 27.8648 27.5023 27.8505 26.9584 27.8218L26.9371 28.2267ZM37.0904 37.0161L37.2794 36.9429L37.2794 36.9428L37.0904 37.0161ZM38.0847 37.9384H38.2874V37.7444L38.0937 37.7358L38.0847 37.9384ZM38.0847 38.2266L38.0695 38.4287L38.2874 38.4451V38.2266H38.0847ZM34.6983 38.2266H34.4956V38.4443L34.7128 38.4288L34.6983 38.2266ZM34.6983 37.9384L34.6877 37.7359L34.4956 37.746V37.9384H34.6983ZM35.4765 37.8087L35.5578 37.9945L35.5628 37.9921L35.4765 37.8087ZM35.5485 36.7279L35.3584 36.7986L35.3603 36.8032L35.5485 36.7279ZM34.6695 34.3647L34.8595 34.294L34.8104 34.1619H34.6695V34.3647ZM31.1823 34.3647V34.1619H31.0433L30.9932 34.2915L31.1823 34.3647ZM30.5915 35.8921L30.4024 35.819L30.4014 35.8217L30.5915 35.8921ZM30.6059 37.7222L30.4934 37.8909L30.497 37.8933L30.6059 37.7222ZM31.5569 37.9384H31.7597V37.7402L31.5615 37.7357L31.5569 37.9384ZM31.5569 38.2266L31.5463 38.429L31.7597 38.4403V38.2266H31.5569ZM28.819 38.2266H28.6163V38.4506L28.8392 38.4283L28.819 38.2266ZM28.819 37.9384L28.7717 37.7412L28.6163 37.7785V37.9384H28.819ZM29.9574 36.6847L29.7684 36.6114L29.7683 36.6116L29.9574 36.6847ZM33.3438 27.9522V27.7495H33.205L33.1548 27.8789L33.3438 27.9522ZM33.5743 27.9522L33.7634 27.8789L33.7132 27.7495H33.5743V27.9522ZM34.5542 34.0765V34.2792H34.8467L34.7441 34.0054L34.5542 34.0765ZM32.9403 29.7679L33.1302 29.6968L32.942 29.1944L32.7509 29.6957L32.9403 29.7679ZM31.2976 34.0765L31.1081 34.0043L31.0033 34.2792H31.2976V34.0765ZM36.9013 37.0893C37.145 37.7189 37.5267 38.1165 38.0757 38.1409L38.0937 37.7358C37.7781 37.7218 37.4969 37.5046 37.2794 36.9429L36.9013 37.0893ZM37.8819 37.9384V38.2266H38.2874V37.9384H37.8819ZM38.0998 38.0244C37.7083 37.995 37.1886 37.9806 36.5428 37.9806V38.3861C37.1843 38.3861 37.6925 38.4005 38.0695 38.4287L38.0998 38.0244ZM36.5428 37.9806C35.7157 37.9806 35.0949 37.995 34.6839 38.0243L34.7128 38.4288C35.1087 38.4005 35.7176 38.3861 36.5428 38.3861V37.9806ZM34.9011 38.2266V37.9384H34.4956V38.2266H34.9011ZM34.709 38.1408C35.0765 38.1215 35.3679 38.0775 35.5577 37.9944L35.3952 37.6229C35.2776 37.6744 35.0503 37.7168 34.6877 37.7359L34.709 38.1408ZM35.5628 37.9921C35.675 37.9393 35.7691 37.8615 35.8335 37.7554C35.8974 37.6501 35.9242 37.5302 35.9242 37.4052H35.5187C35.5187 37.4724 35.5046 37.5158 35.4869 37.5449C35.4697 37.5733 35.4412 37.6012 35.3901 37.6252L35.5628 37.9921ZM35.9242 37.4052C35.9242 37.2022 35.8546 36.9472 35.7367 36.6526L35.3603 36.8032C35.473 37.0851 35.5187 37.2816 35.5187 37.4052H35.9242ZM35.7385 36.6572L34.8595 34.294L34.4795 34.4354L35.3585 36.7986L35.7385 36.6572ZM34.6695 34.1619H31.1823V34.5674H34.6695V34.1619ZM30.9932 34.2915L30.4024 35.819L30.7806 35.9653L31.3714 34.4378L30.9932 34.2915ZM30.4014 35.8217C30.2078 36.3444 30.1005 36.7667 30.1005 37.0738H30.506C30.506 36.8429 30.5909 36.4775 30.7816 35.9626L30.4014 35.8217ZM30.1005 37.0738C30.1005 37.4217 30.222 37.71 30.4934 37.8909L30.7183 37.5535C30.5863 37.4655 30.506 37.3214 30.506 37.0738H30.1005ZM30.497 37.8933C30.7543 38.057 31.1152 38.1311 31.5523 38.141L31.5615 37.7357C31.1533 37.7264 30.8802 37.6565 30.7147 37.5512L30.497 37.8933ZM31.3542 37.9384V38.2266H31.7597V37.9384H31.3542ZM31.5676 38.0241C31.0164 37.9951 30.4605 37.9806 29.8998 37.9806V38.3861C30.4535 38.3861 31.0023 38.4004 31.5463 38.429L31.5676 38.0241ZM29.8998 37.9806C29.4637 37.9806 29.0962 37.9951 28.7989 38.0248L28.8392 38.4283C29.1183 38.4004 29.4713 38.3861 29.8998 38.3861V37.9806ZM29.0218 38.2266V37.9384H28.6163V38.2266H29.0218ZM28.8664 38.1355C29.4417 37.9974 29.8579 37.5042 30.1465 36.7578L29.7683 36.6116C29.4998 37.3062 29.157 37.6488 28.7717 37.7412L28.8664 38.1355ZM30.1465 36.758L33.5328 28.0255L33.1548 27.8789L29.7684 36.6114L30.1465 36.758ZM33.3438 28.155H33.5743V27.7495H33.3438V28.155ZM33.3853 28.0256L36.9014 37.0894L37.2794 36.9428L33.7634 27.8789L33.3853 28.0256ZM34.7441 34.0054L33.1302 29.6968L32.7504 29.839L34.3644 34.1476L34.7441 34.0054ZM32.7509 29.6957L31.1081 34.0043L31.487 34.1487L33.1297 29.8401L32.7509 29.6957ZM31.2976 34.2792H34.5542V33.8737H31.2976V34.2792ZM46.0752 28.0243L46.2769 28.0442L46.2997 27.8133L46.0679 27.8217L46.0752 28.0243ZM46.0175 31.0504V31.2531H46.2402L46.2194 31.0315L46.0175 31.0504ZM45.6861 31.0504L45.4845 31.0713L45.5033 31.2531H45.6861V31.0504ZM45.3979 29.4076L45.2046 29.4687L45.2051 29.4702L45.3979 29.4076ZM44.7927 28.6151L44.6884 28.789L44.6927 28.7915L44.7927 28.6151ZM42.6888 28.3557V28.153H42.4861V28.3557H42.6888ZM42.8041 37.434L42.6173 37.5127V37.5127L42.8041 37.434ZM43.2076 37.8087L43.1406 38V38L43.2076 37.8087ZM44.1442 37.9384H44.347V37.7444L44.1532 37.7358L44.1442 37.9384ZM44.1442 38.2266L44.1326 38.429L44.347 38.4413V38.2266H44.1442ZM39.8933 38.2266H39.6906V38.4424L39.9059 38.4289L39.8933 38.2266ZM39.8933 37.9384L39.8843 37.7358L39.6906 37.7444V37.9384H39.8933ZM40.8299 37.8087L40.8969 38V38L40.8299 37.8087ZM41.2334 37.434L41.4203 37.5127V37.5127L41.2334 37.434ZM41.3487 28.3557H41.5514V28.153H41.3487V28.3557ZM39.2448 28.6151L39.3448 28.7915L39.3492 28.7889L39.2448 28.6151ZM38.6396 29.4076L38.8325 29.4702L38.833 29.4687L38.6396 29.4076ZM38.3514 31.0504V31.2531H38.5342L38.5531 31.0713L38.3514 31.0504ZM38.02 31.0504L37.8181 31.0315L37.7974 31.2531H38.02V31.0504ZM37.9624 28.0243L37.9697 27.8217L37.7378 27.8133L37.7606 28.0442L37.9624 28.0243ZM45.8734 28.0044C45.8057 28.6915 45.7716 29.3131 45.7716 29.8688H46.1771C46.1771 29.3292 46.2102 28.7212 46.2769 28.0442L45.8734 28.0044ZM45.7716 29.8688C45.7716 30.3524 45.7861 30.7532 45.8157 31.0693L46.2194 31.0315C46.1914 30.7328 46.1771 30.3458 46.1771 29.8688H45.7716ZM46.0175 30.8476H45.6861V31.2531H46.0175V30.8476ZM45.8878 31.0294C45.8106 30.2866 45.7129 29.7216 45.5908 29.3451L45.2051 29.4702C45.3135 29.8046 45.4079 30.3348 45.4845 31.0713L45.8878 31.0294ZM45.5912 29.3466C45.4631 28.9408 45.2323 28.6312 44.8926 28.4387L44.6927 28.7915C44.9294 28.9256 45.1022 29.1444 45.2046 29.4687L45.5912 29.3466ZM44.897 28.4412C44.5614 28.2399 44.0748 28.153 43.467 28.153V28.5584C44.0504 28.5584 44.4476 28.6445 44.6884 28.7889L44.897 28.4412ZM43.467 28.153H42.6888V28.5584H43.467V28.153ZM42.4861 28.3557V36.555H42.8916V28.3557H42.4861ZM42.4861 36.555C42.4861 36.9633 42.5238 37.2908 42.6173 37.5127L42.991 37.3553C42.9307 37.2122 42.8916 36.9537 42.8916 36.555H42.4861ZM42.6173 37.5127C42.7171 37.7497 42.8961 37.9144 43.1406 38L43.2746 37.6173C43.1348 37.5684 43.0449 37.4834 42.991 37.3553L42.6173 37.5127ZM43.1406 38C43.3626 38.0777 43.7002 38.1216 44.1352 38.1409L44.1532 37.7358C43.7237 37.7167 43.4368 37.6741 43.2746 37.6173L43.1406 38ZM43.9415 37.9384V38.2266H44.347V37.9384H43.9415ZM44.1559 38.0242C43.6505 37.995 42.9399 37.9806 42.026 37.9806V38.3861C42.9373 38.3861 43.6388 38.4005 44.1326 38.429L44.1559 38.0242ZM42.026 37.9806C41.0646 37.9806 40.3484 37.995 39.8806 38.0242L39.9059 38.4289C40.3604 38.4005 41.066 38.3861 42.026 38.3861V37.9806ZM40.096 38.2266V37.9384H39.6906V38.2266H40.096ZM39.9023 38.1409C40.3373 38.1216 40.6749 38.0777 40.8969 38L40.763 37.6173C40.6007 37.6741 40.3139 37.7167 39.8843 37.7358L39.9023 38.1409ZM40.8969 38C41.1414 37.9144 41.3205 37.7497 41.4203 37.5127L41.0466 37.3553C40.9927 37.4834 40.9027 37.5684 40.763 37.6173L40.8969 38ZM41.4203 37.5127C41.5137 37.2908 41.5514 36.9633 41.5514 36.555H41.146C41.146 36.9537 41.1068 37.2122 41.0466 37.3553L41.4203 37.5127ZM41.5514 36.555V28.3557H41.146V36.555H41.5514ZM41.3487 28.153H40.5706V28.5584H41.3487V28.153ZM40.5706 28.153C39.9628 28.153 39.4762 28.2399 39.1405 28.4412L39.3492 28.7889C39.5899 28.6445 39.9871 28.5584 40.5706 28.5584V28.153ZM39.1449 28.4387C38.8052 28.6312 38.5744 28.9408 38.4463 29.3466L38.833 29.4687C38.9354 29.1444 39.1081 28.9256 39.3448 28.7915L39.1449 28.4387ZM38.4468 29.3451C38.3247 29.7216 38.227 30.2866 38.1498 31.0294L38.5531 31.0713C38.6296 30.3348 38.724 29.8046 38.8325 29.4702L38.4468 29.3451ZM38.3514 30.8476H38.02V31.2531H38.3514V30.8476ZM38.2218 31.0693C38.2515 30.7532 38.266 30.3524 38.266 29.8688H37.8605C37.8605 30.3458 37.8461 30.7328 37.8181 31.0315L38.2218 31.0693ZM38.266 29.8688C38.266 29.3131 38.2319 28.6915 38.1641 28.0044L37.7606 28.0442C37.8273 28.7212 37.8605 29.3292 37.8605 29.8688H38.266ZM37.955 28.2269C38.7564 28.2559 40.1142 28.2702 42.026 28.2702V27.8648C40.1143 27.8648 38.763 27.8504 37.9697 27.8217L37.955 28.2269ZM42.026 28.2702C43.9281 28.2702 45.2811 28.2559 46.0825 28.2269L46.0679 27.8217C45.2745 27.8504 43.9281 27.8648 42.026 27.8648V28.2702ZM54.8441 38.2266L54.8351 38.4291L55.0688 38.4394L55.0458 38.2067L54.8441 38.2266ZM47.3653 38.2266H47.1625V38.4356L47.3715 38.4292L47.3653 38.2266ZM47.3653 37.9384L47.354 37.7359L47.1625 37.7466V37.9384H47.3653ZM48.1146 37.8231L48.0471 37.6319L48.0434 37.6333L48.1146 37.8231ZM48.446 28.7592L48.2548 28.8267V28.8267L48.446 28.7592ZM48.1146 28.4278L48.0434 28.6176L48.0471 28.6189L48.1146 28.4278ZM47.3653 28.3125H47.1625V28.5043L47.354 28.5149L47.3653 28.3125ZM47.3653 28.0243L47.3715 27.8216L47.1625 27.8152V28.0243H47.3653ZM54.5559 28.0243L54.7575 28.0457L54.7824 27.8103L54.5461 27.8218L54.5559 28.0243ZM54.4982 30.6181V30.8208H54.7291L54.6993 30.5919L54.4982 30.6181ZM54.1668 30.6181L53.9652 30.6398L53.9847 30.8208H54.1668V30.6181ZM53.9074 29.2347L53.7157 29.3006L53.7163 29.3025L53.9074 29.2347ZM53.3742 28.5719L53.2729 28.7475L53.2781 28.7504L53.3742 28.5719ZM50.2761 28.4422L50.3366 28.6358L50.3436 28.6334L50.2761 28.4422ZM49.9591 28.7592L50.1502 28.8267V28.8267L49.9591 28.7592ZM49.8726 32.9525H49.6699V33.1552H49.8726V32.9525ZM51.6018 32.7219L51.7325 32.8771L51.737 32.873L51.6018 32.7219ZM51.9621 32.16L51.768 32.1009L51.7665 32.1066L51.9621 32.16ZM52.1206 31.3386L51.92 31.3085L51.9192 31.3149L52.1206 31.3386ZM52.1638 31.0504V30.8476H51.9892L51.9633 31.0203L52.1638 31.0504ZM52.4952 31.0504L52.6974 31.0648L52.713 30.8476H52.4952V31.0504ZM52.5385 35.1428V35.3456H52.755L52.7408 35.1295L52.5385 35.1428ZM52.207 35.1428L52.0063 35.1715L52.0312 35.3456H52.207V35.1428ZM52.1206 34.4511L51.9193 34.4751L51.9193 34.4757L52.1206 34.4511ZM51.7171 33.5433L51.5771 33.69L51.5804 33.693L51.7171 33.5433ZM49.8726 33.2407V33.038H49.6699V33.2407H49.8726ZM49.9591 37.4917L50.1502 37.4242V37.4242L49.9591 37.4917ZM50.2761 37.8231L50.2049 38.0129L50.2118 38.0155L50.2189 38.0176L50.2761 37.8231ZM53.4463 37.6646L53.537 37.8459L53.5391 37.8448L53.4463 37.6646ZM54.138 36.9008L54.3251 36.9788L54.3259 36.977L54.138 36.9008ZM54.455 35.3446V35.1418H54.2713L54.2532 35.3247L54.455 35.3446ZM54.7864 35.3446L54.9879 35.367L55.0129 35.1418H54.7864V35.3446ZM52.7114 24.8829L52.6039 24.7109L52.5989 24.7142L52.7114 24.8829ZM53.5904 24.9838L53.7591 24.8713L53.756 24.8669L53.5904 24.9838ZM53.2878 25.8196L53.3945 25.9919L53.3958 25.9911L53.2878 25.8196ZM52.2503 26.2807L52.1795 26.0906L52.175 26.0924L52.2503 26.2807ZM50.3914 27.102L50.2129 27.1982L50.3061 27.3713L50.482 27.2834L50.3914 27.102ZM50.2905 26.9147L50.1682 26.753L50.0296 26.8578L50.112 27.0108L50.2905 26.9147ZM51.2992 26.0933L51.4345 26.2443L51.4348 26.244L51.2992 26.0933ZM51.8324 25.6178L51.9645 25.7719L51.9717 25.7651L51.8324 25.6178ZM54.5405 36.3821C54.5405 36.9377 54.5746 37.5593 54.6423 38.2465L55.0458 38.2067C54.9791 37.5296 54.9459 36.9216 54.9459 36.3821H54.5405ZM54.853 38.024C54.1948 37.995 53.0909 37.9806 51.5442 37.9806V38.3861C53.0908 38.3861 54.1868 38.4005 54.8351 38.4291L54.853 38.024ZM51.5442 37.9806C49.6992 37.9806 48.3037 37.995 47.3591 38.0239L47.3715 38.4292C48.3097 38.4005 49.7002 38.3861 51.5442 38.3861V37.9806ZM47.568 38.2266V37.9384H47.1625V38.2266H47.568ZM47.3765 38.1408C47.7253 38.1214 48.0014 38.0821 48.1858 38.0129L48.0434 37.6333C47.9204 37.6794 47.6969 37.7169 47.354 37.7359L47.3765 38.1408ZM48.1821 38.0143C48.4032 37.9362 48.5592 37.7803 48.6372 37.5591L48.2548 37.4242C48.2176 37.5297 48.1526 37.5947 48.0471 37.6319L48.1821 38.0143ZM48.6372 37.5591C48.7071 37.3612 48.7352 37.0674 48.7352 36.6991H48.3297C48.3297 37.0609 48.3003 37.2955 48.2548 37.4242L48.6372 37.5591ZM48.7352 36.6991V29.5517H48.3297V36.6991H48.7352ZM48.7352 29.5517C48.7352 29.1834 48.7071 28.8897 48.6372 28.6917L48.2548 28.8267C48.3003 28.9554 48.3297 29.19 48.3297 29.5517H48.7352ZM48.6372 28.6917C48.5592 28.4706 48.4032 28.3146 48.1821 28.2366L48.0471 28.6189C48.1526 28.6562 48.2176 28.7212 48.2548 28.8267L48.6372 28.6917ZM48.1858 28.2379C48.0014 28.1688 47.7253 28.1294 47.3765 28.1101L47.354 28.5149C47.6969 28.534 47.9204 28.5715 48.0434 28.6176L48.1858 28.2379ZM47.568 28.3125V28.0243H47.1625V28.3125H47.568ZM47.3591 28.2269C48.3037 28.2558 49.6992 28.2702 51.5442 28.2702V27.8648C49.7002 27.8648 48.3097 27.8504 47.3715 27.8216L47.3591 28.2269ZM51.5442 28.2702C52.9564 28.2702 53.9647 28.2559 54.5657 28.2268L54.5461 27.8218C53.9558 27.8503 52.9563 27.8648 51.5442 27.8648V28.2702ZM54.3543 28.0029C54.2864 28.6422 54.2523 29.2163 54.2523 29.7247H54.6577C54.6577 29.2339 54.6908 28.6744 54.7575 28.0457L54.3543 28.0029ZM54.2523 29.7247C54.2523 30.1031 54.2667 30.4108 54.2972 30.6443L54.6993 30.5919C54.6721 30.3835 54.6577 30.0956 54.6577 29.7247H54.2523ZM54.4982 30.4153H54.1668V30.8208H54.4982V30.4153ZM54.3684 30.5964C54.3007 29.9684 54.2124 29.4879 54.0985 29.1669L53.7163 29.3025C53.8138 29.5771 53.8983 30.0189 53.9652 30.6398L54.3684 30.5964ZM54.0991 29.1688C53.9795 28.8207 53.7716 28.5556 53.4704 28.3934L53.2781 28.7504C53.4764 28.8572 53.624 29.0339 53.7157 29.3006L54.0991 29.1688ZM53.4756 28.3963C53.1795 28.2255 52.757 28.153 52.2358 28.153V28.5584C52.733 28.5584 53.0694 28.6301 53.2729 28.7475L53.4756 28.3963ZM52.2358 28.153H51.0398V28.5584H52.2358V28.153ZM51.0398 28.153C50.6892 28.153 50.4059 28.1814 50.2086 28.251L50.3436 28.6334C50.4729 28.5877 50.6988 28.5584 51.0398 28.5584V28.153ZM50.2156 28.2487C49.9958 28.3174 49.8449 28.4734 49.7679 28.6917L50.1502 28.8267C50.1885 28.7183 50.249 28.663 50.3366 28.6357L50.2156 28.2487ZM49.7679 28.6917C49.698 28.8897 49.6699 29.1834 49.6699 29.5517H50.0753C50.0753 29.19 50.1048 28.9554 50.1502 28.8267L49.7679 28.6917ZM49.6699 29.5517V32.9525H50.0753V29.5517H49.6699ZM49.8726 33.1552H50.8237V32.7498H49.8726V33.1552ZM50.8237 33.1552C51.1884 33.1552 51.5009 33.072 51.7324 32.877L51.4712 32.5669C51.3377 32.6793 51.1314 32.7498 50.8237 32.7498V33.1552ZM51.737 32.873C51.9451 32.6868 52.0885 32.4667 52.1576 32.2133L51.7665 32.1066C51.7203 32.2759 51.6236 32.4304 51.4666 32.5709L51.737 32.873ZM52.156 32.219C52.2279 31.9828 52.2826 31.6963 52.3219 31.3623L51.9192 31.3149C51.8817 31.6341 51.8307 31.8952 51.7681 32.1009L52.156 32.219ZM52.3211 31.3687L52.3643 31.0805L51.9633 31.0203L51.9201 31.3085L52.3211 31.3687ZM52.1638 31.2531H52.4952V30.8476H52.1638V31.2531ZM52.293 31.0359C52.2638 31.4452 52.2493 31.9016 52.2493 32.4049H52.6547C52.6547 31.9091 52.669 31.4625 52.6974 31.0648L52.293 31.0359ZM52.2493 32.4049V33.0966H52.6547V32.4049H52.2493ZM52.2493 33.0966C52.2493 33.5932 52.2784 34.2804 52.3362 35.1562L52.7408 35.1295C52.6832 34.2568 52.6547 33.5799 52.6547 33.0966H52.2493ZM52.5385 34.9401H52.207V35.3456H52.5385V34.9401ZM52.4077 35.1142C52.3985 35.0495 52.37 34.8217 52.3218 34.4266L51.9193 34.4757C51.9672 34.8683 51.9963 35.1016 52.0063 35.1715L52.4077 35.1142ZM52.3219 34.4272C52.2702 33.9928 52.1218 33.6383 51.8538 33.3936L51.5804 33.693C51.7543 33.8518 51.8749 34.1026 51.9193 34.4751L52.3219 34.4272ZM51.8571 33.3967C51.5973 33.1487 51.2431 33.038 50.8237 33.038V33.4434C51.1727 33.4434 51.4142 33.5344 51.5771 33.69L51.8571 33.3967ZM50.8237 33.038H49.8726V33.4434H50.8237V33.038ZM49.6699 33.2407V36.6991H50.0753V33.2407H49.6699ZM49.6699 36.6991C49.6699 37.0674 49.698 37.3612 49.7679 37.5591L50.1502 37.4242C50.1048 37.2955 50.0753 37.0609 50.0753 36.6991H49.6699ZM49.7679 37.5591C49.8442 37.7754 49.9916 37.9329 50.2049 38.0129L50.3473 37.6333C50.2531 37.5979 50.1892 37.5345 50.1502 37.4242L49.7679 37.5591ZM50.2189 38.0176C50.4114 38.0742 50.6903 38.0979 51.0398 38.0979V37.6924C50.6977 37.6924 50.4674 37.668 50.3333 37.6286L50.2189 38.0176ZM51.0398 38.0979H52.0917V37.6924H51.0398V38.0979ZM52.0917 38.0979C52.6989 38.0979 53.1878 38.0205 53.537 37.8459L53.3556 37.4832C53.09 37.6161 52.6758 37.6924 52.0917 37.6924V38.0979ZM53.5391 37.8448C53.9009 37.6584 54.1636 37.3664 54.3251 36.9788L53.9508 36.8229C53.8241 37.127 53.6257 37.3441 53.3534 37.4843L53.5391 37.8448ZM54.3259 36.977C54.4808 36.5947 54.5888 36.0532 54.6567 35.3645L54.2532 35.3247C54.1866 36.0001 54.0833 36.4961 53.9501 36.8247L54.3259 36.977ZM54.455 35.5473H54.7864V35.1418H54.455V35.5473ZM54.5849 35.3222C54.5549 35.5922 54.5405 35.9465 54.5405 36.3821H54.9459C54.9459 35.9531 54.9603 35.6157 54.9879 35.367L54.5849 35.3222ZM52.8188 25.0548C52.9512 24.9721 53.0582 24.9415 53.1437 24.9415V24.5361C52.9601 24.5361 52.779 24.6016 52.6039 24.711L52.8188 25.0548ZM53.1437 24.9415C53.2533 24.9415 53.3432 24.9852 53.4248 25.1007L53.756 24.8669C53.607 24.6557 53.3991 24.5361 53.1437 24.5361V24.9415ZM53.4217 25.0962C53.459 25.1522 53.4741 25.2048 53.4741 25.2576H53.8796C53.8796 25.1182 53.837 24.9882 53.7591 24.8713L53.4217 25.0962ZM53.4741 25.2576C53.4741 25.3709 53.409 25.5037 53.1798 25.648L53.3958 25.9911C53.6853 25.8088 53.8796 25.5669 53.8796 25.2576H53.4741ZM53.1811 25.6472C52.9977 25.7607 52.6681 25.9086 52.1795 26.0907L52.321 26.4707C52.8122 26.2877 53.1744 26.1282 53.3945 25.9919L53.1811 25.6472ZM52.175 26.0924C51.4509 26.3821 50.8258 26.6581 50.3007 26.9207L50.482 27.2834C50.9944 27.0272 51.6087 26.7557 52.3256 26.4689L52.175 26.0924ZM50.5699 27.0059L50.469 26.8186L50.112 27.0108L50.2129 27.1982L50.5699 27.0059ZM50.4128 27.0764C50.8098 26.7762 51.1507 26.4988 51.4345 26.2443L51.1639 25.9424C50.8906 26.1874 50.5589 26.4576 50.1682 26.753L50.4128 27.0764ZM51.4348 26.244C51.7238 25.9839 51.8994 25.8274 51.9643 25.7717L51.7004 25.4639C51.6309 25.5235 51.451 25.684 51.1636 25.9426L51.4348 26.244ZM51.9717 25.7651C52.3241 25.4317 52.6074 25.1959 52.8238 25.0516L52.5989 24.7142C52.3542 24.8773 52.0515 25.1314 51.693 25.4705L51.9717 25.7651Z" fill="#FEF5EB" mask="url(#path-5-outside-1_23632_22699)"/>
</g>
</g>
<defs>
<linearGradient id="paint0_linear_23632_22699" x1="34" y1="-1.04141e-05" x2="34" y2="68" gradientUnits="userSpaceOnUse">
<stop stop-color="#C93D34"/>
<stop offset="1" stop-color="#7A2629"/>
</linearGradient>
<linearGradient id="paint1_linear_23632_22699" x1="34" y1="-1.04141e-05" x2="34" y2="68" gradientUnits="userSpaceOnUse">
<stop stop-color="#C93D34"/>
<stop offset="1" stop-color="#7A2629"/>
</linearGradient>
<clipPath id="clip0_23632_22699">
<rect width="68" height="68" fill="white"/>
</clipPath>
</defs>
</svg>
