<svg width="68" height="68" viewBox="0 0 68 68" fill="none" xmlns="http://www.w3.org/2000/svg">
<g clip-path="url(#clip0_23632_22687)">
<mask id="mask0_23632_22687" style="mask-type:alpha" maskUnits="userSpaceOnUse" x="0" y="0" width="68" height="68">
<path fill-rule="evenodd" clip-rule="evenodd" d="M47.0333 0H20.9667C13.5811 0 8.89667 0.0377779 4.45778 4.45778C0.018889 8.89667 0 13.6 0 20.9667V47.0333C0 54.4189 0.0377779 59.1033 4.45778 63.5422C8.89667 67.9811 13.6 68 20.9667 68H47.0333C54.4189 68 59.1033 67.9811 63.5422 63.5422C67.9622 59.1033 68 54.4 68 47.0333V20.9667C68 13.5811 67.9622 8.89667 63.5422 4.45778C59.1033 0.018889 54.4 0 47.0333 0Z" fill="url(#paint0_linear_23632_22687)"/>
</mask>
<g mask="url(#mask0_23632_22687)">
<rect width="68" height="68" fill="url(#paint1_linear_23632_22687)"/>
<path fill-rule="evenodd" clip-rule="evenodd" d="M15.6212 64.3735C26.4256 64.3735 45.6357 64.3735 45.6357 64.3735C52.5868 64.3735 57.0823 64.6379 61.2379 60.4446C64.8079 56.8746 64.5057 50.8679 64.7323 46.1079C60.709 52.1524 53.3234 51.9446 47.619 51.9446C47.619 51.9446 20.929 51.9446 10.9556 51.9446C0.982316 51.9635 4.81676 64.3735 15.6212 64.3735Z" fill="#FEF5EB"/>
<path d="M12.4854 53.5312H23.1387V61.5213L17.812 58.8579L12.4854 61.5213V53.5312Z" fill="#F19C33"/>
<mask id="path-5-outside-1_23632_22687" maskUnits="userSpaceOnUse" x="8.10156" y="20.2266" width="51" height="10" fill="black">
<rect fill="white" x="8.10156" y="20.2266" width="51" height="10"/>
<path d="M13.1872 24.7386C14.0672 24.8586 14.6952 25.1146 15.0712 25.5066C15.4472 25.8906 15.6352 26.3546 15.6352 26.8986C15.6352 27.3546 15.5192 27.7586 15.2872 28.1106C15.0552 28.4626 14.7232 28.7386 14.2912 28.9386C13.8592 29.1306 13.3472 29.2266 12.7552 29.2266C12.5392 29.2266 12.3552 29.2226 12.2032 29.2146C11.6912 29.1986 11.1872 29.1906 10.6912 29.1906C10.0352 29.1906 9.53922 29.2026 9.20322 29.2266V28.9866C9.49122 28.9706 9.69922 28.9386 9.82722 28.8906C9.96322 28.8426 10.0552 28.7506 10.1032 28.6146C10.1512 28.4786 10.1752 28.2586 10.1752 27.9546V22.0026C10.1752 21.6986 10.1512 21.4786 10.1032 21.3426C10.0552 21.2066 9.96322 21.1146 9.82722 21.0666C9.69922 21.0186 9.49122 20.9866 9.20322 20.9706V20.7306C9.53922 20.7546 10.0272 20.7666 10.6672 20.7666L11.9632 20.7546C12.1152 20.7466 12.2872 20.7426 12.4792 20.7426C13.2952 20.7426 13.9192 20.9146 14.3512 21.2586C14.7912 21.6026 15.0112 22.0586 15.0112 22.6266C15.0112 23.0906 14.8632 23.5066 14.5672 23.8746C14.2792 24.2426 13.8192 24.5226 13.1872 24.7146V24.7386ZM12.1792 20.9706C11.9312 20.9706 11.7432 20.9986 11.6152 21.0546C11.4952 21.1106 11.4112 21.2106 11.3632 21.3546C11.3152 21.4986 11.2912 21.7146 11.2912 22.0026V24.7146H12.0952C12.7512 24.7146 13.2072 24.5386 13.4632 24.1866C13.7272 23.8266 13.8592 23.3506 13.8592 22.7586C13.8592 22.1586 13.7272 21.7106 13.4632 21.4146C13.1992 21.1186 12.7712 20.9706 12.1792 20.9706ZM12.1912 28.9506C13.6872 28.9506 14.4352 28.2506 14.4352 26.8506C14.4352 26.2186 14.2632 25.7386 13.9192 25.4106C13.5832 25.0826 13.0432 24.9186 12.2992 24.9186H11.2912V27.9546C11.2912 28.2426 11.3152 28.4546 11.3632 28.5906C11.4112 28.7266 11.4952 28.8226 11.6152 28.8786C11.7432 28.9266 11.9352 28.9506 12.1912 28.9506ZM19.9234 20.9706C19.6354 20.9866 19.4234 21.0186 19.2874 21.0666C19.1594 21.1146 19.0714 21.2066 19.0234 21.3426C18.9754 21.4786 18.9514 21.6986 18.9514 22.0026V27.9546C18.9514 28.2586 18.9754 28.4786 19.0234 28.6146C19.0714 28.7506 19.1594 28.8426 19.2874 28.8906C19.4234 28.9386 19.6354 28.9706 19.9234 28.9866V29.2266C19.5554 29.2026 19.0474 29.1906 18.3994 29.1906C17.7114 29.1906 17.1994 29.2026 16.8634 29.2266V28.9866C17.1514 28.9706 17.3594 28.9386 17.4874 28.8906C17.6234 28.8426 17.7154 28.7506 17.7634 28.6146C17.8114 28.4786 17.8354 28.2586 17.8354 27.9546V22.0026C17.8354 21.6986 17.8114 21.4786 17.7634 21.3426C17.7154 21.2066 17.6234 21.1146 17.4874 21.0666C17.3594 21.0186 17.1514 20.9866 16.8634 20.9706V20.7306C17.1994 20.7546 17.7114 20.7666 18.3994 20.7666C19.0394 20.7666 19.5474 20.7546 19.9234 20.7306V20.9706ZM25.1794 24.7386C26.0594 24.8586 26.6874 25.1146 27.0634 25.5066C27.4394 25.8906 27.6274 26.3546 27.6274 26.8986C27.6274 27.3546 27.5114 27.7586 27.2794 28.1106C27.0474 28.4626 26.7154 28.7386 26.2834 28.9386C25.8514 29.1306 25.3394 29.2266 24.7474 29.2266C24.5314 29.2266 24.3474 29.2226 24.1954 29.2146C23.6834 29.1986 23.1794 29.1906 22.6834 29.1906C22.0274 29.1906 21.5314 29.2026 21.1954 29.2266V28.9866C21.4834 28.9706 21.6914 28.9386 21.8194 28.8906C21.9554 28.8426 22.0474 28.7506 22.0954 28.6146C22.1434 28.4786 22.1674 28.2586 22.1674 27.9546V22.0026C22.1674 21.6986 22.1434 21.4786 22.0954 21.3426C22.0474 21.2066 21.9554 21.1146 21.8194 21.0666C21.6914 21.0186 21.4834 20.9866 21.1954 20.9706V20.7306C21.5314 20.7546 22.0194 20.7666 22.6594 20.7666L23.9554 20.7546C24.1074 20.7466 24.2794 20.7426 24.4714 20.7426C25.2874 20.7426 25.9114 20.9146 26.3434 21.2586C26.7834 21.6026 27.0034 22.0586 27.0034 22.6266C27.0034 23.0906 26.8554 23.5066 26.5594 23.8746C26.2714 24.2426 25.8114 24.5226 25.1794 24.7146V24.7386ZM24.1714 20.9706C23.9234 20.9706 23.7354 20.9986 23.6074 21.0546C23.4874 21.1106 23.4034 21.2106 23.3554 21.3546C23.3074 21.4986 23.2834 21.7146 23.2834 22.0026V24.7146H24.0874C24.7434 24.7146 25.1994 24.5386 25.4554 24.1866C25.7194 23.8266 25.8514 23.3506 25.8514 22.7586C25.8514 22.1586 25.7194 21.7106 25.4554 21.4146C25.1914 21.1186 24.7634 20.9706 24.1714 20.9706ZM24.1834 28.9506C25.6794 28.9506 26.4274 28.2506 26.4274 26.8506C26.4274 26.2186 26.2554 25.7386 25.9114 25.4106C25.5754 25.0826 25.0354 24.9186 24.2914 24.9186H23.2834V27.9546C23.2834 28.2426 23.3074 28.4546 23.3554 28.5906C23.4034 28.7266 23.4874 28.8226 23.6074 28.8786C23.7354 28.9266 23.9274 28.9506 24.1834 28.9506ZM34.9996 27.6906C34.9996 28.1466 35.0276 28.6586 35.0836 29.2266C34.5396 29.2026 33.6236 29.1906 32.3356 29.1906C30.7996 29.1906 29.6396 29.2026 28.8556 29.2266V28.9866C29.1436 28.9706 29.3516 28.9386 29.4796 28.8906C29.6156 28.8426 29.7076 28.7506 29.7556 28.6146C29.8036 28.4786 29.8276 28.2586 29.8276 27.9546V22.0026C29.8276 21.6986 29.8036 21.4786 29.7556 21.3426C29.7076 21.2066 29.6156 21.1146 29.4796 21.0666C29.3516 21.0186 29.1436 20.9866 28.8556 20.9706V20.7306C29.6396 20.7546 30.7996 20.7666 32.3356 20.7666C33.5116 20.7666 34.3476 20.7546 34.8436 20.7306C34.7876 21.2586 34.7596 21.7306 34.7596 22.1466C34.7596 22.4586 34.7716 22.7066 34.7956 22.8906H34.5196C34.4636 22.3706 34.3916 21.9866 34.3036 21.7386C34.2156 21.4826 34.0676 21.2986 33.8596 21.1866C33.6516 21.0666 33.3356 21.0066 32.9116 21.0066H31.9156C31.6276 21.0066 31.4156 21.0306 31.2796 21.0786C31.1516 21.1186 31.0636 21.2066 31.0156 21.3426C30.9676 21.4786 30.9436 21.6986 30.9436 22.0026V24.8346H31.7356C32.0156 24.8346 32.2316 24.7706 32.3836 24.6426C32.5356 24.5066 32.6356 24.3506 32.6836 24.1746C32.7396 23.9906 32.7836 23.7626 32.8156 23.4906L32.8516 23.2506H33.1276C33.1036 23.5866 33.0916 23.9626 33.0916 24.3786V24.9546C33.0916 25.3626 33.1156 25.9306 33.1636 26.6586H32.8876C32.8796 26.6026 32.8556 26.4106 32.8156 26.0826C32.7756 25.7466 32.6636 25.4946 32.4796 25.3266C32.3036 25.1586 32.0556 25.0746 31.7356 25.0746H30.9436V27.9546C30.9436 28.2586 30.9676 28.4786 31.0156 28.6146C31.0636 28.7506 31.1516 28.8426 31.2796 28.8906C31.4156 28.9306 31.6276 28.9506 31.9156 28.9506H32.7916C33.2876 28.9506 33.6636 28.8866 33.9196 28.7586C34.1836 28.6226 34.3756 28.4106 34.4956 28.1226C34.6156 27.8266 34.7036 27.3946 34.7596 26.8266H35.0356C35.0116 27.0426 34.9996 27.3306 34.9996 27.6906ZM39.4937 20.9706C39.2057 20.9866 38.9937 21.0186 38.8577 21.0666C38.7297 21.1146 38.6417 21.2066 38.5937 21.3426C38.5457 21.4786 38.5217 21.6986 38.5217 22.0026V27.9546C38.5217 28.2586 38.5457 28.4786 38.5937 28.6146C38.6417 28.7506 38.7297 28.8426 38.8577 28.8906C38.9937 28.9306 39.2057 28.9506 39.4937 28.9506H40.3697C40.8657 28.9506 41.2417 28.8826 41.4977 28.7466C41.7617 28.6026 41.9537 28.3746 42.0737 28.0626C42.1937 27.7506 42.2817 27.2986 42.3377 26.7066H42.6137C42.5897 26.9546 42.5777 27.2826 42.5777 27.6906C42.5777 28.1466 42.6057 28.6586 42.6617 29.2266C42.1177 29.2026 41.2017 29.1906 39.9137 29.1906C38.3777 29.1906 37.2177 29.2026 36.4337 29.2266V28.9866C36.7217 28.9706 36.9297 28.9386 37.0577 28.8906C37.1937 28.8426 37.2857 28.7506 37.3337 28.6146C37.3817 28.4786 37.4057 28.2586 37.4057 27.9546V22.0026C37.4057 21.6986 37.3817 21.4786 37.3337 21.3426C37.2857 21.2066 37.1937 21.1146 37.0577 21.0666C36.9297 21.0186 36.7217 20.9866 36.4337 20.9706V20.7306C36.7697 20.7546 37.2817 20.7666 37.9697 20.7666C38.6097 20.7666 39.1177 20.7546 39.4937 20.7306V20.9706ZM49.898 27.6906C49.898 28.1466 49.926 28.6586 49.982 29.2266C49.438 29.2026 48.522 29.1906 47.234 29.1906C45.698 29.1906 44.538 29.2026 43.754 29.2266V28.9866C44.042 28.9706 44.25 28.9386 44.378 28.8906C44.514 28.8426 44.606 28.7506 44.654 28.6146C44.702 28.4786 44.726 28.2586 44.726 27.9546V22.0026C44.726 21.6986 44.702 21.4786 44.654 21.3426C44.606 21.2066 44.514 21.1146 44.378 21.0666C44.25 21.0186 44.042 20.9866 43.754 20.9706V20.7306C44.538 20.7546 45.698 20.7666 47.234 20.7666C48.41 20.7666 49.246 20.7546 49.742 20.7306C49.686 21.2586 49.658 21.7306 49.658 22.1466C49.658 22.4586 49.67 22.7066 49.694 22.8906H49.418C49.362 22.3706 49.29 21.9866 49.202 21.7386C49.114 21.4826 48.966 21.2986 48.758 21.1866C48.55 21.0666 48.234 21.0066 47.81 21.0066H46.814C46.526 21.0066 46.314 21.0306 46.178 21.0786C46.05 21.1186 45.962 21.2066 45.914 21.3426C45.866 21.4786 45.842 21.6986 45.842 22.0026V24.8346H46.634C46.914 24.8346 47.13 24.7706 47.282 24.6426C47.434 24.5066 47.534 24.3506 47.582 24.1746C47.638 23.9906 47.682 23.7626 47.714 23.4906L47.75 23.2506H48.026C48.002 23.5866 47.99 23.9626 47.99 24.3786V24.9546C47.99 25.3626 48.014 25.9306 48.062 26.6586H47.786C47.778 26.6026 47.754 26.4106 47.714 26.0826C47.674 25.7466 47.562 25.4946 47.378 25.3266C47.202 25.1586 46.954 25.0746 46.634 25.0746H45.842V27.9546C45.842 28.2586 45.866 28.4786 45.914 28.6146C45.962 28.7506 46.05 28.8426 46.178 28.8906C46.314 28.9306 46.526 28.9506 46.814 28.9506H47.69C48.186 28.9506 48.562 28.8866 48.818 28.7586C49.082 28.6226 49.274 28.4106 49.394 28.1226C49.514 27.8266 49.602 27.3946 49.658 26.8266H49.934C49.91 27.0426 49.898 27.3306 49.898 27.6906ZM58.8681 20.9706C58.5881 20.9866 58.3801 21.0306 58.2441 21.1026C58.1081 21.1666 58.0161 21.2786 57.9681 21.4386C57.9201 21.5906 57.8961 21.8186 57.8961 22.1226V29.2866H57.6201L52.5801 21.4986V27.8346C52.5801 28.1466 52.6041 28.3786 52.6521 28.5306C52.7081 28.6826 52.8121 28.7946 52.9641 28.8666C53.1161 28.9306 53.3521 28.9706 53.6721 28.9866V29.2266C53.3841 29.2026 52.9761 29.1906 52.4481 29.1906C51.9681 29.1906 51.5961 29.2026 51.3321 29.2266V28.9866C51.6121 28.9706 51.8201 28.9306 51.9561 28.8666C52.0921 28.7946 52.1841 28.6826 52.2321 28.5306C52.2801 28.3706 52.3041 28.1386 52.3041 27.8346V22.0026C52.3041 21.6986 52.2801 21.4786 52.2321 21.3426C52.1841 21.2066 52.0921 21.1146 51.9561 21.0666C51.8281 21.0186 51.6201 20.9866 51.3321 20.9706V20.7306C51.5961 20.7546 51.9681 20.7666 52.4481 20.7666C52.8081 20.7666 53.1201 20.7546 53.3841 20.7306L57.6201 27.2586V22.1226C57.6201 21.8106 57.5921 21.5786 57.5361 21.4266C57.4881 21.2746 57.3881 21.1666 57.2361 21.1026C57.0841 21.0306 56.8481 20.9866 56.5281 20.9706V20.7306C56.8161 20.7546 57.2241 20.7666 57.7521 20.7666C58.2321 20.7666 58.6041 20.7546 58.8681 20.7306V20.9706Z"/>
</mask>
<path d="M13.1872 24.7386C14.0672 24.8586 14.6952 25.1146 15.0712 25.5066C15.4472 25.8906 15.6352 26.3546 15.6352 26.8986C15.6352 27.3546 15.5192 27.7586 15.2872 28.1106C15.0552 28.4626 14.7232 28.7386 14.2912 28.9386C13.8592 29.1306 13.3472 29.2266 12.7552 29.2266C12.5392 29.2266 12.3552 29.2226 12.2032 29.2146C11.6912 29.1986 11.1872 29.1906 10.6912 29.1906C10.0352 29.1906 9.53922 29.2026 9.20322 29.2266V28.9866C9.49122 28.9706 9.69922 28.9386 9.82722 28.8906C9.96322 28.8426 10.0552 28.7506 10.1032 28.6146C10.1512 28.4786 10.1752 28.2586 10.1752 27.9546V22.0026C10.1752 21.6986 10.1512 21.4786 10.1032 21.3426C10.0552 21.2066 9.96322 21.1146 9.82722 21.0666C9.69922 21.0186 9.49122 20.9866 9.20322 20.9706V20.7306C9.53922 20.7546 10.0272 20.7666 10.6672 20.7666L11.9632 20.7546C12.1152 20.7466 12.2872 20.7426 12.4792 20.7426C13.2952 20.7426 13.9192 20.9146 14.3512 21.2586C14.7912 21.6026 15.0112 22.0586 15.0112 22.6266C15.0112 23.0906 14.8632 23.5066 14.5672 23.8746C14.2792 24.2426 13.8192 24.5226 13.1872 24.7146V24.7386ZM12.1792 20.9706C11.9312 20.9706 11.7432 20.9986 11.6152 21.0546C11.4952 21.1106 11.4112 21.2106 11.3632 21.3546C11.3152 21.4986 11.2912 21.7146 11.2912 22.0026V24.7146H12.0952C12.7512 24.7146 13.2072 24.5386 13.4632 24.1866C13.7272 23.8266 13.8592 23.3506 13.8592 22.7586C13.8592 22.1586 13.7272 21.7106 13.4632 21.4146C13.1992 21.1186 12.7712 20.9706 12.1792 20.9706ZM12.1912 28.9506C13.6872 28.9506 14.4352 28.2506 14.4352 26.8506C14.4352 26.2186 14.2632 25.7386 13.9192 25.4106C13.5832 25.0826 13.0432 24.9186 12.2992 24.9186H11.2912V27.9546C11.2912 28.2426 11.3152 28.4546 11.3632 28.5906C11.4112 28.7266 11.4952 28.8226 11.6152 28.8786C11.7432 28.9266 11.9352 28.9506 12.1912 28.9506ZM19.9234 20.9706C19.6354 20.9866 19.4234 21.0186 19.2874 21.0666C19.1594 21.1146 19.0714 21.2066 19.0234 21.3426C18.9754 21.4786 18.9514 21.6986 18.9514 22.0026V27.9546C18.9514 28.2586 18.9754 28.4786 19.0234 28.6146C19.0714 28.7506 19.1594 28.8426 19.2874 28.8906C19.4234 28.9386 19.6354 28.9706 19.9234 28.9866V29.2266C19.5554 29.2026 19.0474 29.1906 18.3994 29.1906C17.7114 29.1906 17.1994 29.2026 16.8634 29.2266V28.9866C17.1514 28.9706 17.3594 28.9386 17.4874 28.8906C17.6234 28.8426 17.7154 28.7506 17.7634 28.6146C17.8114 28.4786 17.8354 28.2586 17.8354 27.9546V22.0026C17.8354 21.6986 17.8114 21.4786 17.7634 21.3426C17.7154 21.2066 17.6234 21.1146 17.4874 21.0666C17.3594 21.0186 17.1514 20.9866 16.8634 20.9706V20.7306C17.1994 20.7546 17.7114 20.7666 18.3994 20.7666C19.0394 20.7666 19.5474 20.7546 19.9234 20.7306V20.9706ZM25.1794 24.7386C26.0594 24.8586 26.6874 25.1146 27.0634 25.5066C27.4394 25.8906 27.6274 26.3546 27.6274 26.8986C27.6274 27.3546 27.5114 27.7586 27.2794 28.1106C27.0474 28.4626 26.7154 28.7386 26.2834 28.9386C25.8514 29.1306 25.3394 29.2266 24.7474 29.2266C24.5314 29.2266 24.3474 29.2226 24.1954 29.2146C23.6834 29.1986 23.1794 29.1906 22.6834 29.1906C22.0274 29.1906 21.5314 29.2026 21.1954 29.2266V28.9866C21.4834 28.9706 21.6914 28.9386 21.8194 28.8906C21.9554 28.8426 22.0474 28.7506 22.0954 28.6146C22.1434 28.4786 22.1674 28.2586 22.1674 27.9546V22.0026C22.1674 21.6986 22.1434 21.4786 22.0954 21.3426C22.0474 21.2066 21.9554 21.1146 21.8194 21.0666C21.6914 21.0186 21.4834 20.9866 21.1954 20.9706V20.7306C21.5314 20.7546 22.0194 20.7666 22.6594 20.7666L23.9554 20.7546C24.1074 20.7466 24.2794 20.7426 24.4714 20.7426C25.2874 20.7426 25.9114 20.9146 26.3434 21.2586C26.7834 21.6026 27.0034 22.0586 27.0034 22.6266C27.0034 23.0906 26.8554 23.5066 26.5594 23.8746C26.2714 24.2426 25.8114 24.5226 25.1794 24.7146V24.7386ZM24.1714 20.9706C23.9234 20.9706 23.7354 20.9986 23.6074 21.0546C23.4874 21.1106 23.4034 21.2106 23.3554 21.3546C23.3074 21.4986 23.2834 21.7146 23.2834 22.0026V24.7146H24.0874C24.7434 24.7146 25.1994 24.5386 25.4554 24.1866C25.7194 23.8266 25.8514 23.3506 25.8514 22.7586C25.8514 22.1586 25.7194 21.7106 25.4554 21.4146C25.1914 21.1186 24.7634 20.9706 24.1714 20.9706ZM24.1834 28.9506C25.6794 28.9506 26.4274 28.2506 26.4274 26.8506C26.4274 26.2186 26.2554 25.7386 25.9114 25.4106C25.5754 25.0826 25.0354 24.9186 24.2914 24.9186H23.2834V27.9546C23.2834 28.2426 23.3074 28.4546 23.3554 28.5906C23.4034 28.7266 23.4874 28.8226 23.6074 28.8786C23.7354 28.9266 23.9274 28.9506 24.1834 28.9506ZM34.9996 27.6906C34.9996 28.1466 35.0276 28.6586 35.0836 29.2266C34.5396 29.2026 33.6236 29.1906 32.3356 29.1906C30.7996 29.1906 29.6396 29.2026 28.8556 29.2266V28.9866C29.1436 28.9706 29.3516 28.9386 29.4796 28.8906C29.6156 28.8426 29.7076 28.7506 29.7556 28.6146C29.8036 28.4786 29.8276 28.2586 29.8276 27.9546V22.0026C29.8276 21.6986 29.8036 21.4786 29.7556 21.3426C29.7076 21.2066 29.6156 21.1146 29.4796 21.0666C29.3516 21.0186 29.1436 20.9866 28.8556 20.9706V20.7306C29.6396 20.7546 30.7996 20.7666 32.3356 20.7666C33.5116 20.7666 34.3476 20.7546 34.8436 20.7306C34.7876 21.2586 34.7596 21.7306 34.7596 22.1466C34.7596 22.4586 34.7716 22.7066 34.7956 22.8906H34.5196C34.4636 22.3706 34.3916 21.9866 34.3036 21.7386C34.2156 21.4826 34.0676 21.2986 33.8596 21.1866C33.6516 21.0666 33.3356 21.0066 32.9116 21.0066H31.9156C31.6276 21.0066 31.4156 21.0306 31.2796 21.0786C31.1516 21.1186 31.0636 21.2066 31.0156 21.3426C30.9676 21.4786 30.9436 21.6986 30.9436 22.0026V24.8346H31.7356C32.0156 24.8346 32.2316 24.7706 32.3836 24.6426C32.5356 24.5066 32.6356 24.3506 32.6836 24.1746C32.7396 23.9906 32.7836 23.7626 32.8156 23.4906L32.8516 23.2506H33.1276C33.1036 23.5866 33.0916 23.9626 33.0916 24.3786V24.9546C33.0916 25.3626 33.1156 25.9306 33.1636 26.6586H32.8876C32.8796 26.6026 32.8556 26.4106 32.8156 26.0826C32.7756 25.7466 32.6636 25.4946 32.4796 25.3266C32.3036 25.1586 32.0556 25.0746 31.7356 25.0746H30.9436V27.9546C30.9436 28.2586 30.9676 28.4786 31.0156 28.6146C31.0636 28.7506 31.1516 28.8426 31.2796 28.8906C31.4156 28.9306 31.6276 28.9506 31.9156 28.9506H32.7916C33.2876 28.9506 33.6636 28.8866 33.9196 28.7586C34.1836 28.6226 34.3756 28.4106 34.4956 28.1226C34.6156 27.8266 34.7036 27.3946 34.7596 26.8266H35.0356C35.0116 27.0426 34.9996 27.3306 34.9996 27.6906ZM39.4937 20.9706C39.2057 20.9866 38.9937 21.0186 38.8577 21.0666C38.7297 21.1146 38.6417 21.2066 38.5937 21.3426C38.5457 21.4786 38.5217 21.6986 38.5217 22.0026V27.9546C38.5217 28.2586 38.5457 28.4786 38.5937 28.6146C38.6417 28.7506 38.7297 28.8426 38.8577 28.8906C38.9937 28.9306 39.2057 28.9506 39.4937 28.9506H40.3697C40.8657 28.9506 41.2417 28.8826 41.4977 28.7466C41.7617 28.6026 41.9537 28.3746 42.0737 28.0626C42.1937 27.7506 42.2817 27.2986 42.3377 26.7066H42.6137C42.5897 26.9546 42.5777 27.2826 42.5777 27.6906C42.5777 28.1466 42.6057 28.6586 42.6617 29.2266C42.1177 29.2026 41.2017 29.1906 39.9137 29.1906C38.3777 29.1906 37.2177 29.2026 36.4337 29.2266V28.9866C36.7217 28.9706 36.9297 28.9386 37.0577 28.8906C37.1937 28.8426 37.2857 28.7506 37.3337 28.6146C37.3817 28.4786 37.4057 28.2586 37.4057 27.9546V22.0026C37.4057 21.6986 37.3817 21.4786 37.3337 21.3426C37.2857 21.2066 37.1937 21.1146 37.0577 21.0666C36.9297 21.0186 36.7217 20.9866 36.4337 20.9706V20.7306C36.7697 20.7546 37.2817 20.7666 37.9697 20.7666C38.6097 20.7666 39.1177 20.7546 39.4937 20.7306V20.9706ZM49.898 27.6906C49.898 28.1466 49.926 28.6586 49.982 29.2266C49.438 29.2026 48.522 29.1906 47.234 29.1906C45.698 29.1906 44.538 29.2026 43.754 29.2266V28.9866C44.042 28.9706 44.25 28.9386 44.378 28.8906C44.514 28.8426 44.606 28.7506 44.654 28.6146C44.702 28.4786 44.726 28.2586 44.726 27.9546V22.0026C44.726 21.6986 44.702 21.4786 44.654 21.3426C44.606 21.2066 44.514 21.1146 44.378 21.0666C44.25 21.0186 44.042 20.9866 43.754 20.9706V20.7306C44.538 20.7546 45.698 20.7666 47.234 20.7666C48.41 20.7666 49.246 20.7546 49.742 20.7306C49.686 21.2586 49.658 21.7306 49.658 22.1466C49.658 22.4586 49.67 22.7066 49.694 22.8906H49.418C49.362 22.3706 49.29 21.9866 49.202 21.7386C49.114 21.4826 48.966 21.2986 48.758 21.1866C48.55 21.0666 48.234 21.0066 47.81 21.0066H46.814C46.526 21.0066 46.314 21.0306 46.178 21.0786C46.05 21.1186 45.962 21.2066 45.914 21.3426C45.866 21.4786 45.842 21.6986 45.842 22.0026V24.8346H46.634C46.914 24.8346 47.13 24.7706 47.282 24.6426C47.434 24.5066 47.534 24.3506 47.582 24.1746C47.638 23.9906 47.682 23.7626 47.714 23.4906L47.75 23.2506H48.026C48.002 23.5866 47.99 23.9626 47.99 24.3786V24.9546C47.99 25.3626 48.014 25.9306 48.062 26.6586H47.786C47.778 26.6026 47.754 26.4106 47.714 26.0826C47.674 25.7466 47.562 25.4946 47.378 25.3266C47.202 25.1586 46.954 25.0746 46.634 25.0746H45.842V27.9546C45.842 28.2586 45.866 28.4786 45.914 28.6146C45.962 28.7506 46.05 28.8426 46.178 28.8906C46.314 28.9306 46.526 28.9506 46.814 28.9506H47.69C48.186 28.9506 48.562 28.8866 48.818 28.7586C49.082 28.6226 49.274 28.4106 49.394 28.1226C49.514 27.8266 49.602 27.3946 49.658 26.8266H49.934C49.91 27.0426 49.898 27.3306 49.898 27.6906ZM58.8681 20.9706C58.5881 20.9866 58.3801 21.0306 58.2441 21.1026C58.1081 21.1666 58.0161 21.2786 57.9681 21.4386C57.9201 21.5906 57.8961 21.8186 57.8961 22.1226V29.2866H57.6201L52.5801 21.4986V27.8346C52.5801 28.1466 52.6041 28.3786 52.6521 28.5306C52.7081 28.6826 52.8121 28.7946 52.9641 28.8666C53.1161 28.9306 53.3521 28.9706 53.6721 28.9866V29.2266C53.3841 29.2026 52.9761 29.1906 52.4481 29.1906C51.9681 29.1906 51.5961 29.2026 51.3321 29.2266V28.9866C51.6121 28.9706 51.8201 28.9306 51.9561 28.8666C52.0921 28.7946 52.1841 28.6826 52.2321 28.5306C52.2801 28.3706 52.3041 28.1386 52.3041 27.8346V22.0026C52.3041 21.6986 52.2801 21.4786 52.2321 21.3426C52.1841 21.2066 52.0921 21.1146 51.9561 21.0666C51.8281 21.0186 51.6201 20.9866 51.3321 20.9706V20.7306C51.5961 20.7546 51.9681 20.7666 52.4481 20.7666C52.8081 20.7666 53.1201 20.7546 53.3841 20.7306L57.6201 27.2586V22.1226C57.6201 21.8106 57.5921 21.5786 57.5361 21.4266C57.4881 21.2746 57.3881 21.1666 57.2361 21.1026C57.0841 21.0306 56.8481 20.9866 56.5281 20.9706V20.7306C56.8161 20.7546 57.2241 20.7666 57.7521 20.7666C58.2321 20.7666 58.6041 20.7546 58.8681 20.7306V20.9706Z" fill="#FEF5EB"/>
<path d="M13.1872 24.7386H12.9845V24.9155L13.1598 24.9394L13.1872 24.7386ZM15.0712 25.5066L14.9249 25.6469L14.9264 25.6484L15.0712 25.5066ZM15.2872 28.1106L15.4565 28.2221V28.2221L15.2872 28.1106ZM14.2912 28.9386L14.3736 29.1238L14.3764 29.1225L14.2912 28.9386ZM12.2032 29.2146L12.2139 29.0121L12.2096 29.0119L12.2032 29.2146ZM9.20322 29.2266H9.00048V29.4443L9.21766 29.4288L9.20322 29.2266ZM9.20322 28.9866L9.19197 28.7841L9.00048 28.7948V28.9866H9.20322ZM9.82722 28.8906L9.75973 28.6993L9.75603 28.7007L9.82722 28.8906ZM10.1032 21.3426L9.91204 21.41H9.91204L10.1032 21.3426ZM9.82722 21.0666L9.75602 21.2564L9.75974 21.2577L9.82722 21.0666ZM9.20322 20.9706H9.00048V21.1623L9.19197 21.173L9.20322 20.9706ZM9.20322 20.7306L9.21766 20.5283L9.00048 20.5128V20.7306H9.20322ZM10.6672 20.7666L10.6672 20.9693L10.6691 20.9693L10.6672 20.7666ZM11.9632 20.7546L11.9651 20.9575L11.9739 20.957L11.9632 20.7546ZM14.3512 21.2586L14.2249 21.4172L14.2263 21.4183L14.3512 21.2586ZM14.5672 23.8746L14.4092 23.7475L14.4076 23.7496L14.5672 23.8746ZM13.1872 24.7146L13.1283 24.5206L12.9845 24.5643V24.7146H13.1872ZM11.6152 21.0546L11.5339 20.8688L11.5295 20.8708L11.6152 21.0546ZM11.3632 21.3546L11.5556 21.4187V21.4187L11.3632 21.3546ZM11.2912 24.7146H11.0885V24.9173H11.2912V24.7146ZM13.4632 24.1866L13.2997 24.0667L13.2993 24.0673L13.4632 24.1866ZM13.9192 25.4106L13.7776 25.5556L13.7793 25.5573L13.9192 25.4106ZM11.2912 24.9186V24.7158H11.0885V24.9186H11.2912ZM11.3632 28.5906L11.5544 28.5231V28.5231L11.3632 28.5906ZM11.6152 28.8786L11.5295 29.0623L11.5366 29.0656L11.544 29.0684L11.6152 28.8786ZM13.1598 24.9394C14.0211 25.0569 14.5952 25.3031 14.9249 25.6469L15.2175 25.3662C14.7953 24.926 14.1133 24.6602 13.2146 24.5377L13.1598 24.9394ZM14.9264 25.6484C15.2648 25.994 15.4325 26.4069 15.4325 26.8986H15.838C15.838 26.3023 15.6297 25.7871 15.2161 25.3647L14.9264 25.6484ZM15.4325 26.8986C15.4325 27.3183 15.3263 27.6828 15.1179 27.999L15.4565 28.2221C15.7121 27.8343 15.838 27.3908 15.838 26.8986H15.4325ZM15.1179 27.999C14.9093 28.3156 14.6084 28.5683 14.206 28.7546L14.3764 29.1225C14.8381 28.9088 15.2012 28.6095 15.4565 28.2221L15.1179 27.999ZM14.2089 28.7533C13.8085 28.9313 13.3258 29.0238 12.7552 29.0238V29.4293C13.3687 29.4293 13.91 29.3299 14.3736 29.1238L14.2089 28.7533ZM12.7552 29.0238C12.5414 29.0238 12.3612 29.0199 12.2139 29.0121L12.1926 29.417C12.3492 29.4253 12.537 29.4293 12.7552 29.4293V29.0238ZM12.2096 29.0119C11.6955 28.9959 11.1894 28.9878 10.6912 28.9878V29.3933C11.185 29.3933 11.6869 29.4013 12.1969 29.4172L12.2096 29.0119ZM10.6912 28.9878C10.034 28.9878 9.53218 28.9998 9.18877 29.0243L9.21766 29.4288C9.54626 29.4053 10.0364 29.3933 10.6912 29.3933V28.9878ZM9.40596 29.2266V28.9866H9.00048V29.2266H9.40596ZM9.21446 29.189C9.50545 29.1728 9.73972 29.1399 9.8984 29.0804L9.75603 28.7007C9.65872 28.7372 9.47699 28.7683 9.19197 28.7841L9.21446 29.189ZM9.89469 29.0817C10.0885 29.0133 10.226 28.8759 10.2944 28.682L9.91204 28.5471C9.88445 28.6253 9.83792 28.6718 9.75974 28.6994L9.89469 29.0817ZM10.2944 28.682C10.3546 28.5114 10.378 28.2619 10.378 27.9546H9.97248C9.97248 28.2553 9.94782 28.4457 9.91204 28.5471L10.2944 28.682ZM10.378 27.9546V22.0026H9.97248V27.9546H10.378ZM10.378 22.0026C10.378 21.6953 10.3546 21.4457 10.2944 21.2751L9.91204 21.41C9.94782 21.5114 9.97248 21.7019 9.97248 22.0026H10.378ZM10.2944 21.2751C10.226 21.0813 10.0885 20.9438 9.89469 20.8754L9.75974 21.2577C9.83792 21.2853 9.88445 21.3319 9.91204 21.41L10.2944 21.2751ZM9.8984 20.8767C9.73972 20.8172 9.50545 20.7843 9.21446 20.7681L9.19197 21.173C9.47699 21.1888 9.65872 21.2199 9.75603 21.2564L9.8984 20.8767ZM9.40596 20.9706V20.7306H9.00048V20.9706H9.40596ZM9.18877 20.9328C9.5321 20.9573 10.0259 20.9693 10.6672 20.9693V20.5638C10.0286 20.5638 9.54633 20.5518 9.21766 20.5283L9.18877 20.9328ZM10.6691 20.9693L11.9651 20.9573L11.9613 20.5518L10.6653 20.5638L10.6691 20.9693ZM11.9739 20.957C12.1216 20.9492 12.2899 20.9453 12.4792 20.9453V20.5398C12.2845 20.5398 12.1089 20.5439 11.9526 20.5521L11.9739 20.957ZM12.4792 20.9453C13.2704 20.9453 13.8424 21.1126 14.2249 21.4172L14.4775 21.1C13.996 20.7165 13.32 20.5398 12.4792 20.5398V20.9453ZM14.2263 21.4183C14.6162 21.7231 14.8085 22.1197 14.8085 22.6266H15.214C15.214 21.9974 14.9662 21.482 14.4761 21.0988L14.2263 21.4183ZM14.8085 22.6266C14.8085 23.0435 14.6768 23.4148 14.4092 23.7475L14.7252 24.0016C15.0496 23.5983 15.214 23.1377 15.214 22.6266H14.8085ZM14.4076 23.7496C14.1539 24.0738 13.7363 24.3359 13.1283 24.5206L13.2462 24.9085C13.9021 24.7093 14.4046 24.4114 14.7269 23.9995L14.4076 23.7496ZM12.9845 24.7146V24.7386H13.39V24.7146H12.9845ZM12.1792 20.7678C11.9216 20.7678 11.7003 20.7961 11.534 20.8688L11.6965 21.2403C11.7862 21.2011 11.9408 21.1733 12.1792 21.1733V20.7678ZM11.5295 20.8708C11.3515 20.9539 11.2337 21.1021 11.1709 21.2905L11.5556 21.4187C11.5888 21.319 11.6389 21.2672 11.701 21.2383L11.5295 20.8708ZM11.1709 21.2905C11.1123 21.4661 11.0885 21.7086 11.0885 22.0026H11.494C11.494 21.7205 11.5181 21.531 11.5556 21.4187L11.1709 21.2905ZM11.0885 22.0026V24.7146H11.494V22.0026H11.0885ZM11.2912 24.9173H12.0952V24.5118H11.2912V24.9173ZM12.0952 24.9173C12.7819 24.9173 13.3166 24.7329 13.6272 24.3058L13.2993 24.0673C13.0978 24.3443 12.7206 24.5118 12.0952 24.5118V24.9173ZM13.6267 24.3065C13.9234 23.9019 14.062 23.3797 14.062 22.7586H13.6565C13.6565 23.3214 13.5311 23.7512 13.2997 24.0667L13.6267 24.3065ZM14.062 22.7586C14.062 22.1335 13.9251 21.6278 13.6145 21.2796L13.3119 21.5495C13.5294 21.7933 13.6565 22.1836 13.6565 22.7586H14.062ZM13.6145 21.2796C13.2964 20.9229 12.8003 20.7678 12.1792 20.7678V21.1733C12.7421 21.1733 13.1021 21.3142 13.3119 21.5495L13.6145 21.2796ZM12.1912 29.1533C12.9672 29.1533 13.587 28.972 14.0127 28.5736C14.441 28.1728 14.638 27.5854 14.638 26.8506H14.2325C14.2325 27.5157 14.0554 27.9783 13.7357 28.2775C13.4134 28.5791 12.9112 28.7478 12.1912 28.7478V29.1533ZM14.638 26.8506C14.638 26.1822 14.4552 25.6415 14.0591 25.2638L13.7793 25.5573C14.0712 25.8356 14.2325 26.255 14.2325 26.8506H14.638ZM14.0608 25.2655C13.67 24.8839 13.0664 24.7158 12.2992 24.7158V25.1213C13.0201 25.1213 13.4965 25.2812 13.7776 25.5556L14.0608 25.2655ZM12.2992 24.7158H11.2912V25.1213H12.2992V24.7158ZM11.0885 24.9186V27.9546H11.494V24.9186H11.0885ZM11.0885 27.9546C11.0885 28.2474 11.1121 28.4881 11.172 28.658L11.5544 28.5231C11.5184 28.421 11.494 28.2378 11.494 27.9546H11.0885ZM11.172 28.658C11.2364 28.8403 11.3555 28.9811 11.5295 29.0623L11.701 28.6948C11.6349 28.664 11.5861 28.6128 11.5544 28.5231L11.172 28.658ZM11.544 29.0684C11.7068 29.1294 11.9283 29.1533 12.1912 29.1533V28.7478C11.9421 28.7478 11.7796 28.7237 11.6864 28.6887L11.544 29.0684ZM19.9234 20.9706L19.9346 21.173L20.1261 21.1623V20.9706H19.9234ZM19.2874 21.0666L19.2199 20.8753L19.2162 20.8767L19.2874 21.0666ZM19.0234 21.3426L19.2146 21.41V21.41L19.0234 21.3426ZM19.0234 28.6146L19.2146 28.5471V28.5471L19.0234 28.6146ZM19.2874 28.8906L19.2162 29.0804L19.2199 29.0817L19.2874 28.8906ZM19.9234 28.9866H20.1261V28.7948L19.9346 28.7841L19.9234 28.9866ZM19.9234 29.2266L19.9102 29.4289L20.1261 29.443V29.2266H19.9234ZM16.8634 29.2266H16.6606V29.4443L16.8778 29.4288L16.8634 29.2266ZM16.8634 28.9866L16.8521 28.7841L16.6606 28.7948V28.9866H16.8634ZM17.4874 28.8906L17.4199 28.6993L17.4162 28.7007L17.4874 28.8906ZM17.7634 21.3426L17.5722 21.41V21.41L17.7634 21.3426ZM17.4874 21.0666L17.4162 21.2564L17.4199 21.2577L17.4874 21.0666ZM16.8634 20.9706H16.6606V21.1623L16.8521 21.173L16.8634 20.9706ZM16.8634 20.7306L16.8778 20.5283L16.6606 20.5128V20.7306H16.8634ZM19.9234 20.7306H20.1261V20.5145L19.9105 20.5282L19.9234 20.7306ZM19.9121 20.7681C19.6201 20.7844 19.3842 20.8174 19.2199 20.8754L19.3549 21.2577C19.4625 21.2197 19.6507 21.1888 19.9346 21.173L19.9121 20.7681ZM19.2162 20.8767C19.0286 20.9471 18.8989 21.0861 18.8322 21.2751L19.2146 21.41C19.2439 21.327 19.2901 21.2821 19.3586 21.2564L19.2162 20.8767ZM18.8322 21.2751C18.772 21.4457 18.7486 21.6953 18.7486 22.0026H19.1541C19.1541 21.7019 19.1788 21.5114 19.2146 21.41L18.8322 21.2751ZM18.7486 22.0026V27.9546H19.1541V22.0026H18.7486ZM18.7486 27.9546C18.7486 28.2619 18.772 28.5114 18.8322 28.682L19.2146 28.5471C19.1788 28.4457 19.1541 28.2553 19.1541 27.9546H18.7486ZM18.8322 28.682C18.8989 28.871 19.0286 29.0101 19.2162 29.0804L19.3586 28.7007C19.2901 28.6751 19.2439 28.6301 19.2146 28.5471L18.8322 28.682ZM19.2199 29.0817C19.3842 29.1397 19.6201 29.1728 19.9121 29.189L19.9346 28.7841C19.6507 28.7684 19.4625 28.7374 19.3548 28.6994L19.2199 29.0817ZM19.7206 28.9866V29.2266H20.1261V28.9866H19.7206ZM19.9366 29.0243C19.5621 28.9998 19.049 28.9878 18.3994 28.9878V29.3933C19.0457 29.3933 19.5487 29.4053 19.9102 29.4289L19.9366 29.0243ZM18.3994 28.9878C17.7104 28.9878 17.1925 28.9998 16.8489 29.0243L16.8778 29.4288C17.2063 29.4053 17.7123 29.3933 18.3994 29.3933V28.9878ZM17.0661 29.2266V28.9866H16.6606V29.2266H17.0661ZM16.8746 29.189C17.1656 29.1728 17.3999 29.1399 17.5586 29.0804L17.4162 28.7007C17.3189 28.7372 17.1371 28.7683 16.8521 28.7841L16.8746 29.189ZM17.5548 29.0817C17.7487 29.0133 17.8861 28.8759 17.9546 28.682L17.5722 28.5471C17.5446 28.6253 17.4981 28.6718 17.4199 28.6994L17.5548 29.0817ZM17.9546 28.682C18.0148 28.5114 18.0381 28.2619 18.0381 27.9546H17.6326C17.6326 28.2553 17.608 28.4457 17.5722 28.5471L17.9546 28.682ZM18.0381 27.9546V22.0026H17.6326V27.9546H18.0381ZM18.0381 22.0026C18.0381 21.6953 18.0148 21.4457 17.9546 21.2751L17.5722 21.41C17.608 21.5114 17.6326 21.7019 17.6326 22.0026H18.0381ZM17.9546 21.2751C17.8861 21.0813 17.7487 20.9438 17.5548 20.8754L17.4199 21.2577C17.4981 21.2853 17.5446 21.3319 17.5722 21.41L17.9546 21.2751ZM17.5586 20.8767C17.3999 20.8172 17.1656 20.7843 16.8746 20.7681L16.8521 21.173C17.1371 21.1888 17.3189 21.2199 17.4162 21.2564L17.5586 20.8767ZM17.0661 20.9706V20.7306H16.6606V20.9706H17.0661ZM16.8489 20.9328C17.1925 20.9573 17.7104 20.9693 18.3994 20.9693V20.5638C17.7123 20.5638 17.2063 20.5518 16.8778 20.5283L16.8489 20.9328ZM18.3994 20.9693C19.0412 20.9693 19.5541 20.9573 19.9363 20.9329L19.9105 20.5282C19.5407 20.5518 19.0376 20.5638 18.3994 20.5638V20.9693ZM19.7206 20.7306V20.9706H20.1261V20.7306H19.7206ZM25.1794 24.7386H24.9767V24.9155L25.152 24.9394L25.1794 24.7386ZM27.0634 25.5066L26.9171 25.6469L26.9185 25.6484L27.0634 25.5066ZM27.2794 28.1106L27.4487 28.2221V28.2221L27.2794 28.1106ZM26.2834 28.9386L26.3658 29.1238L26.3686 29.1225L26.2834 28.9386ZM24.1954 29.2146L24.2061 29.0121L24.2017 29.0119L24.1954 29.2146ZM21.1954 29.2266H20.9927V29.4443L21.2099 29.4288L21.1954 29.2266ZM21.1954 28.9866L21.1842 28.7841L20.9927 28.7948V28.9866H21.1954ZM21.8194 28.8906L21.7519 28.6993L21.7482 28.7007L21.8194 28.8906ZM22.0954 21.3426L21.9042 21.41V21.41L22.0954 21.3426ZM21.8194 21.0666L21.7482 21.2564L21.7519 21.2577L21.8194 21.0666ZM21.1954 20.9706H20.9927V21.1623L21.1842 21.173L21.1954 20.9706ZM21.1954 20.7306L21.2099 20.5283L20.9927 20.5128V20.7306H21.1954ZM22.6594 20.7666V20.9693L22.6613 20.9693L22.6594 20.7666ZM23.9554 20.7546L23.9573 20.9575L23.9661 20.957L23.9554 20.7546ZM26.3434 21.2586L26.2171 21.4172L26.2185 21.4183L26.3434 21.2586ZM26.5594 23.8746L26.4014 23.7475L26.3997 23.7496L26.5594 23.8746ZM25.1794 24.7146L25.1205 24.5206L24.9767 24.5643V24.7146H25.1794ZM23.6074 21.0546L23.5261 20.8688L23.5217 20.8708L23.6074 21.0546ZM23.3554 21.3546L23.5477 21.4187V21.4187L23.3554 21.3546ZM23.2834 24.7146H23.0807V24.9173H23.2834V24.7146ZM25.4554 24.1866L25.2919 24.0667L25.2914 24.0673L25.4554 24.1866ZM25.9114 25.4106L25.7698 25.5556L25.7715 25.5573L25.9114 25.4106ZM23.2834 24.9186V24.7158H23.0807V24.9186H23.2834ZM23.3554 28.5906L23.5466 28.5231V28.5231L23.3554 28.5906ZM23.6074 28.8786L23.5217 29.0623L23.5288 29.0656L23.5362 29.0684L23.6074 28.8786ZM25.152 24.9394C26.0133 25.0569 26.5874 25.3031 26.9171 25.6469L27.2097 25.3662C26.7875 24.926 26.1055 24.6602 25.2068 24.5377L25.152 24.9394ZM26.9185 25.6484C27.2569 25.994 27.4247 26.4069 27.4247 26.8986H27.8301C27.8301 26.3023 27.6219 25.7871 27.2083 25.3647L26.9185 25.6484ZM27.4247 26.8986C27.4247 27.3183 27.3185 27.6828 27.1101 27.999L27.4487 28.2221C27.7043 27.8343 27.8301 27.3908 27.8301 26.8986H27.4247ZM27.1101 27.999C26.9015 28.3156 26.6005 28.5683 26.1982 28.7546L26.3686 29.1225C26.8303 28.9088 27.1933 28.6095 27.4487 28.2221L27.1101 27.999ZM26.2011 28.7533C25.8007 28.9313 25.318 29.0238 24.7474 29.0238V29.4293C25.3608 29.4293 25.9022 29.3299 26.3657 29.1238L26.2011 28.7533ZM24.7474 29.0238C24.5336 29.0238 24.3534 29.0199 24.2061 29.0121L24.1848 29.417C24.3414 29.4253 24.5292 29.4293 24.7474 29.4293V29.0238ZM24.2017 29.0119C23.6877 28.9959 23.1816 28.9878 22.6834 28.9878V29.3933C23.1772 29.3933 23.6791 29.4013 24.1891 29.4172L24.2017 29.0119ZM22.6834 28.9878C22.0262 28.9878 21.5244 28.9998 21.181 29.0243L21.2099 29.4288C21.5384 29.4053 22.0286 29.3933 22.6834 29.3933V28.9878ZM21.3981 29.2266V28.9866H20.9927V29.2266H21.3981ZM21.2067 29.189C21.4976 29.1728 21.7319 29.1399 21.8906 29.0804L21.7482 28.7007C21.6509 28.7372 21.4692 28.7683 21.1842 28.7841L21.2067 29.189ZM21.8869 29.0817C22.0807 29.0133 22.2182 28.8759 22.2866 28.682L21.9042 28.5471C21.8766 28.6253 21.8301 28.6718 21.7519 28.6994L21.8869 29.0817ZM22.2866 28.682C22.3468 28.5114 22.3701 28.2619 22.3701 27.9546H21.9647C21.9647 28.2553 21.94 28.4457 21.9042 28.5471L22.2866 28.682ZM22.3701 27.9546V22.0026H21.9647V27.9546H22.3701ZM22.3701 22.0026C22.3701 21.6953 22.3468 21.4457 22.2866 21.2751L21.9042 21.41C21.94 21.5114 21.9647 21.7019 21.9647 22.0026H22.3701ZM22.2866 21.2751C22.2182 21.0813 22.0807 20.9438 21.8869 20.8754L21.7519 21.2577C21.8301 21.2853 21.8766 21.3319 21.9042 21.41L22.2866 21.2751ZM21.8906 20.8767C21.7319 20.8172 21.4976 20.7843 21.2067 20.7681L21.1842 21.173C21.4692 21.1888 21.6509 21.2199 21.7482 21.2564L21.8906 20.8767ZM21.3981 20.9706V20.7306H20.9927V20.9706H21.3981ZM21.181 20.9328C21.5243 20.9573 22.018 20.9693 22.6594 20.9693V20.5638C22.0208 20.5638 21.5385 20.5518 21.2099 20.5283L21.181 20.9328ZM22.6613 20.9693L23.9573 20.9573L23.9535 20.5518L22.6575 20.5638L22.6613 20.9693ZM23.9661 20.957C24.1137 20.9492 24.2821 20.9453 24.4714 20.9453V20.5398C24.2767 20.5398 24.1011 20.5439 23.9448 20.5521L23.9661 20.957ZM24.4714 20.9453C25.2626 20.9453 25.8346 21.1126 26.2171 21.4172L26.4697 21.1C25.9882 20.7165 25.3122 20.5398 24.4714 20.5398V20.9453ZM26.2185 21.4183C26.6084 21.7231 26.8007 22.1197 26.8007 22.6266H27.2061C27.2061 21.9974 26.9584 21.482 26.4683 21.0988L26.2185 21.4183ZM26.8007 22.6266C26.8007 23.0435 26.669 23.4148 26.4014 23.7475L26.7174 24.0016C27.0418 23.5983 27.2061 23.1377 27.2061 22.6266H26.8007ZM26.3997 23.7496C26.1461 24.0738 25.7285 24.3359 25.1205 24.5206L25.2383 24.9085C25.8943 24.7093 26.3967 24.4114 26.7191 23.9995L26.3997 23.7496ZM24.9767 24.7146V24.7386H25.3821V24.7146H24.9767ZM24.1714 20.7678C23.9138 20.7678 23.6925 20.7961 23.5261 20.8688L23.6887 21.2403C23.7783 21.2011 23.933 21.1733 24.1714 21.1733V20.7678ZM23.5217 20.8708C23.3437 20.9539 23.2259 21.1021 23.1631 21.2905L23.5477 21.4187C23.581 21.319 23.6311 21.2672 23.6931 21.2383L23.5217 20.8708ZM23.1631 21.2905C23.1045 21.4661 23.0807 21.7086 23.0807 22.0026H23.4861C23.4861 21.7205 23.5103 21.531 23.5477 21.4187L23.1631 21.2905ZM23.0807 22.0026V24.7146H23.4861V22.0026H23.0807ZM23.2834 24.9173H24.0874V24.5118H23.2834V24.9173ZM24.0874 24.9173C24.774 24.9173 25.3088 24.7329 25.6194 24.3058L25.2914 24.0673C25.09 24.3443 24.7128 24.5118 24.0874 24.5118V24.9173ZM25.6189 24.3065C25.9156 23.9019 26.0541 23.3797 26.0541 22.7586H25.6487C25.6487 23.3214 25.5232 23.7512 25.2919 24.0667L25.6189 24.3065ZM26.0541 22.7586C26.0541 22.1335 25.9172 21.6278 25.6067 21.2796L25.3041 21.5495C25.5216 21.7933 25.6487 22.1836 25.6487 22.7586H26.0541ZM25.6067 21.2796C25.2886 20.9229 24.7925 20.7678 24.1714 20.7678V21.1733C24.7343 21.1733 25.0942 21.3142 25.3041 21.5495L25.6067 21.2796ZM24.1834 29.1533C24.9594 29.1533 25.5792 28.972 26.0049 28.5736C26.4332 28.1728 26.6301 27.5854 26.6301 26.8506H26.2247C26.2247 27.5157 26.0476 27.9783 25.7279 28.2775C25.4056 28.5791 24.9034 28.7478 24.1834 28.7478V29.1533ZM26.6301 26.8506C26.6301 26.1822 26.4474 25.6415 26.0513 25.2638L25.7715 25.5573C26.0634 25.8356 26.2247 26.255 26.2247 26.8506H26.6301ZM26.053 25.2655C25.6622 24.8839 25.0585 24.7158 24.2914 24.7158V25.1213C25.0123 25.1213 25.4886 25.2812 25.7698 25.5556L26.053 25.2655ZM24.2914 24.7158H23.2834V25.1213H24.2914V24.7158ZM23.0807 24.9186V27.9546H23.4861V24.9186H23.0807ZM23.0807 27.9546C23.0807 28.2474 23.1042 28.4881 23.1642 28.658L23.5466 28.5231C23.5106 28.421 23.4861 28.2378 23.4861 27.9546H23.0807ZM23.1642 28.658C23.2286 28.8403 23.3477 28.9811 23.5217 29.0623L23.6931 28.6948C23.6271 28.664 23.5783 28.6128 23.5466 28.5231L23.1642 28.658ZM23.5362 29.0684C23.699 29.1294 23.9205 29.1533 24.1834 29.1533V28.7478C23.9343 28.7478 23.7718 28.7237 23.6786 28.6887L23.5362 29.0684ZM35.0836 29.2266L35.0746 29.4291L35.3083 29.4394L35.2853 29.2067L35.0836 29.2266ZM28.8556 29.2266H28.6528V29.4356L28.8618 29.4292L28.8556 29.2266ZM28.8556 28.9866L28.8443 28.7841L28.6528 28.7948V28.9866H28.8556ZM29.4796 28.8906L29.4121 28.6993L29.4084 28.7007L29.4796 28.8906ZM29.7556 21.3426L29.5644 21.41V21.41L29.7556 21.3426ZM29.4796 21.0666L29.4084 21.2564L29.4121 21.2577L29.4796 21.0666ZM28.8556 20.9706H28.6528V21.1623L28.8443 21.173L28.8556 20.9706ZM28.8556 20.7306L28.8618 20.5279L28.6528 20.5215V20.7306H28.8556ZM34.8436 20.7306L35.0452 20.7519L35.0701 20.5166L34.8338 20.5281L34.8436 20.7306ZM34.7956 22.8906V23.0933H35.0265L34.9966 22.8643L34.7956 22.8906ZM34.5196 22.8906L34.318 22.9123L34.3375 23.0933H34.5196V22.8906ZM34.3036 21.7386L34.1118 21.8045L34.1125 21.8064L34.3036 21.7386ZM33.8596 21.1866L33.7582 21.3622L33.7634 21.3651L33.8596 21.1866ZM31.2796 21.0786L31.3401 21.2722L31.347 21.2697L31.2796 21.0786ZM31.0156 21.3426L31.2067 21.41V21.41L31.0156 21.3426ZM30.9436 24.8346H30.7408V25.0373H30.9436V24.8346ZM32.3836 24.6426L32.5142 24.7977L32.5187 24.7936L32.3836 24.6426ZM32.6836 24.1746L32.4895 24.1155L32.488 24.1212L32.6836 24.1746ZM32.8156 23.4906L32.615 23.4605L32.6142 23.4669L32.8156 23.4906ZM32.8516 23.2506V23.0478H32.677L32.6511 23.2205L32.8516 23.2506ZM33.1276 23.2506L33.3298 23.265L33.3453 23.0478H33.1276V23.2506ZM33.1636 26.6586V26.8613H33.3801L33.3659 26.6452L33.1636 26.6586ZM32.8876 26.6586L32.6869 26.6872L32.7117 26.8613H32.8876V26.6586ZM32.8156 26.0826L32.6142 26.1065L32.6143 26.1071L32.8156 26.0826ZM32.4796 25.3266L32.3395 25.4732L32.3429 25.4763L32.4796 25.3266ZM30.9436 25.0746V24.8718H30.7408V25.0746H30.9436ZM31.0156 28.6146L31.2067 28.5471V28.5471L31.0156 28.6146ZM31.2796 28.8906L31.2084 29.0804L31.2153 29.083L31.2224 29.0851L31.2796 28.8906ZM33.9196 28.7586L34.0102 28.9399L34.0124 28.9388L33.9196 28.7586ZM34.4956 28.1226L34.6827 28.2005L34.6834 28.1987L34.4956 28.1226ZM34.7596 26.8266V26.6238H34.5758L34.5578 26.8067L34.7596 26.8266ZM35.0356 26.8266L35.2371 26.849L35.2621 26.6238H35.0356V26.8266ZM34.7968 27.6906C34.7968 28.1546 34.8253 28.6734 34.8818 29.2465L35.2853 29.2067C35.2298 28.6437 35.2023 28.1385 35.2023 27.6906H34.7968ZM35.0925 29.024C34.5436 28.9998 33.6236 28.9878 32.3356 28.9878V29.3933C33.6235 29.3933 34.5355 29.4053 35.0746 29.4291L35.0925 29.024ZM32.3356 28.9878C30.7991 28.9878 29.6365 28.9998 28.8494 29.0239L28.8618 29.4292C29.6426 29.4053 30.8001 29.3933 32.3356 29.3933V28.9878ZM29.0583 29.2266V28.9866H28.6528V29.2266H29.0583ZM28.8668 29.189C29.1578 29.1728 29.3921 29.1399 29.5507 29.0804L29.4084 28.7007C29.3111 28.7372 29.1293 28.7683 28.8443 28.7841L28.8668 29.189ZM29.547 29.0817C29.7409 29.0133 29.8783 28.8759 29.9467 28.682L29.5644 28.5471C29.5368 28.6253 29.4903 28.6718 29.4121 28.6994L29.547 29.0817ZM29.9467 28.682C30.007 28.5114 30.0303 28.2619 30.0303 27.9546H29.6248C29.6248 28.2553 29.6002 28.4457 29.5644 28.5471L29.9467 28.682ZM30.0303 27.9546V22.0026H29.6248V27.9546H30.0303ZM30.0303 22.0026C30.0303 21.6953 30.007 21.4457 29.9467 21.2751L29.5644 21.41C29.6002 21.5114 29.6248 21.7019 29.6248 22.0026H30.0303ZM29.9467 21.2751C29.8783 21.0813 29.7409 20.9438 29.547 20.8754L29.4121 21.2577C29.4903 21.2853 29.5368 21.3319 29.5644 21.41L29.9467 21.2751ZM29.5507 20.8767C29.3921 20.8172 29.1578 20.7843 28.8668 20.7681L28.8443 21.173C29.1293 21.1888 29.3111 21.2199 29.4084 21.2564L29.5507 20.8767ZM29.0583 20.9706V20.7306H28.6528V20.9706H29.0583ZM28.8494 20.9332C29.6365 20.9573 30.7991 20.9693 32.3356 20.9693V20.5638C30.8001 20.5638 29.6426 20.5518 28.8618 20.5279L28.8494 20.9332ZM32.3356 20.9693C33.5116 20.9693 34.352 20.9573 34.8534 20.9331L34.8338 20.5281C34.3431 20.5518 33.5115 20.5638 32.3356 20.5638V20.9693ZM34.642 20.7092C34.5854 21.2424 34.5568 21.7218 34.5568 22.1466H34.9623C34.9623 21.7393 34.9897 21.2747 35.0452 20.7519L34.642 20.7092ZM34.5568 22.1466C34.5568 22.4623 34.5689 22.7202 34.5945 22.9168L34.9966 22.8643C34.9742 22.6929 34.9623 22.4548 34.9623 22.1466H34.5568ZM34.7956 22.6878H34.5196V23.0933H34.7956V22.6878ZM34.7211 22.8689C34.6648 22.3454 34.5909 21.942 34.4946 21.6708L34.1125 21.8064C34.1923 22.0312 34.2624 22.3958 34.318 22.9123L34.7211 22.8689ZM34.4953 21.6727C34.3933 21.376 34.2151 21.1478 33.9557 21.0081L33.7634 21.3651C33.92 21.4494 34.0378 21.5891 34.1118 21.8045L34.4953 21.6727ZM33.9609 21.011C33.7066 20.8643 33.3476 20.8038 32.9116 20.8038V21.2093C33.3235 21.2093 33.5965 21.2689 33.7583 21.3622L33.9609 21.011ZM32.9116 20.8038H31.9156V21.2093H32.9116V20.8038ZM31.9156 20.8038C31.6228 20.8038 31.382 20.8274 31.2121 20.8874L31.347 21.2697C31.4491 21.2337 31.6324 21.2093 31.9156 21.2093V20.8038ZM31.2191 20.8851C31.0249 20.9457 30.8918 21.0841 30.8244 21.2751L31.2067 21.41C31.2353 21.329 31.2782 21.2914 31.34 21.2721L31.2191 20.8851ZM30.8244 21.2751C30.7642 21.4457 30.7408 21.6953 30.7408 22.0026H31.1463C31.1463 21.7019 31.171 21.5114 31.2067 21.41L30.8244 21.2751ZM30.7408 22.0026V24.8346H31.1463V22.0026H30.7408ZM30.9436 25.0373H31.7356V24.6318H30.9436V25.0373ZM31.7356 25.0373C32.044 25.0373 32.3131 24.9669 32.5142 24.7976L32.253 24.4875C32.15 24.5742 31.9871 24.6318 31.7356 24.6318V25.0373ZM32.5187 24.7936C32.6963 24.6348 32.8197 24.446 32.8792 24.2279L32.488 24.1212C32.4514 24.2551 32.3748 24.3784 32.2484 24.4915L32.5187 24.7936ZM32.8775 24.2336C32.9382 24.0343 32.984 23.7936 33.0169 23.5142L32.6142 23.4669C32.5831 23.7315 32.541 23.9468 32.4896 24.1155L32.8775 24.2336ZM33.0161 23.5206L33.0521 23.2806L32.6511 23.2205L32.6151 23.4605L33.0161 23.5206ZM32.8516 23.4533H33.1276V23.0478H32.8516V23.4533ZM32.9253 23.2361C32.9009 23.5779 32.8888 23.9588 32.8888 24.3786H33.2943C33.2943 23.9663 33.3062 23.5952 33.3298 23.265L32.9253 23.2361ZM32.8888 24.3786V24.9546H33.2943V24.3786H32.8888ZM32.8888 24.9546C32.8888 25.3692 32.9132 25.9423 32.9613 26.6719L33.3659 26.6452C33.318 25.9188 33.2943 25.356 33.2943 24.9546H32.8888ZM33.1636 26.4558H32.8876V26.8613H33.1636V26.4558ZM33.0883 26.6299C33.0806 26.5765 33.057 26.3873 33.0168 26.058L32.6143 26.1071C32.6542 26.4338 32.6785 26.6286 32.6869 26.6872L33.0883 26.6299ZM33.0169 26.0586C32.9732 25.6917 32.8473 25.3878 32.6163 25.1768L32.3429 25.4763C32.4798 25.6013 32.5779 25.8015 32.6142 26.1065L33.0169 26.0586ZM32.6195 25.1799C32.3951 24.9657 32.0908 24.8718 31.7356 24.8718V25.2773C32.0204 25.2773 32.212 25.3514 32.3396 25.4732L32.6195 25.1799ZM31.7356 24.8718H30.9436V25.2773H31.7356V24.8718ZM30.7408 25.0746V27.9546H31.1463V25.0746H30.7408ZM30.7408 27.9546C30.7408 28.2619 30.7642 28.5114 30.8244 28.682L31.2067 28.5471C31.171 28.4457 31.1463 28.2553 31.1463 27.9546H30.7408ZM30.8244 28.682C30.8911 28.871 31.0208 29.0101 31.2084 29.0804L31.3507 28.7007C31.2823 28.6751 31.236 28.6301 31.2067 28.5471L30.8244 28.682ZM31.2224 29.0851C31.3876 29.1337 31.6238 29.1533 31.9156 29.1533V28.7478C31.6313 28.7478 31.4435 28.7275 31.3368 28.6961L31.2224 29.0851ZM31.9156 29.1533H32.7916V28.7478H31.9156V29.1533ZM32.7916 29.1533C33.2991 29.1533 33.7125 29.0888 34.0102 28.9399L33.8289 28.5772C33.6146 28.6844 33.276 28.7478 32.7916 28.7478V29.1533ZM34.0124 28.9388C34.3212 28.7797 34.5453 28.5303 34.6827 28.2005L34.3084 28.0446C34.2058 28.2909 34.0459 28.4654 33.8267 28.5783L34.0124 28.9388ZM34.6834 28.1987C34.8143 27.8759 34.9047 27.4211 34.9613 26.8465L34.5578 26.8067C34.5025 27.368 34.4168 27.7773 34.3077 28.0464L34.6834 28.1987ZM34.7596 27.0293H35.0356V26.6238H34.7596V27.0293ZM34.8341 26.8042C34.8089 27.0308 34.7968 27.3272 34.7968 27.6906H35.2023C35.2023 27.3339 35.2142 27.0543 35.2371 26.849L34.8341 26.8042ZM39.4937 20.9706L39.5049 21.173L39.6964 21.1623V20.9706H39.4937ZM38.8577 21.0666L38.7902 20.8753L38.7865 20.8767L38.8577 21.0666ZM38.5937 21.3426L38.7849 21.41V21.41L38.5937 21.3426ZM38.5937 28.6146L38.7849 28.5471V28.5471L38.5937 28.6146ZM38.8577 28.8906L38.7865 29.0804L38.7934 29.083L38.8005 29.0851L38.8577 28.8906ZM41.4977 28.7466L41.5928 28.9256L41.5948 28.9245L41.4977 28.7466ZM42.0737 28.0626L42.2629 28.1353V28.1353L42.0737 28.0626ZM42.3377 26.7066V26.5038H42.1532L42.1359 26.6875L42.3377 26.7066ZM42.6137 26.7066L42.8155 26.7261L42.837 26.5038H42.6137V26.7066ZM42.6617 29.2266L42.6528 29.4291L42.8864 29.4394L42.8634 29.2067L42.6617 29.2266ZM36.4337 29.2266H36.231V29.4356L36.4399 29.4292L36.4337 29.2266ZM36.4337 28.9866L36.4224 28.7841L36.231 28.7948V28.9866H36.4337ZM37.0577 28.8906L36.9902 28.6993L36.9865 28.7007L37.0577 28.8906ZM37.3337 21.3426L37.1425 21.41V21.41L37.3337 21.3426ZM37.0577 21.0666L36.9865 21.2564L36.9902 21.2577L37.0577 21.0666ZM36.4337 20.9706H36.231V21.1623L36.4224 21.173L36.4337 20.9706ZM36.4337 20.7306L36.4481 20.5283L36.231 20.5128V20.7306H36.4337ZM39.4937 20.7306H39.6964V20.5145L39.4808 20.5282L39.4937 20.7306ZM39.4824 20.7681C39.1904 20.7844 38.9545 20.8174 38.7902 20.8754L38.9252 21.2577C39.0328 21.2197 39.221 21.1888 39.5049 21.173L39.4824 20.7681ZM38.7865 20.8767C38.5989 20.9471 38.4692 21.0861 38.4025 21.2751L38.7849 21.41C38.8142 21.327 38.8604 21.2821 38.9289 21.2564L38.7865 20.8767ZM38.4025 21.2751C38.3423 21.4457 38.319 21.6953 38.319 22.0026H38.7244C38.7244 21.7019 38.7491 21.5114 38.7849 21.41L38.4025 21.2751ZM38.319 22.0026V27.9546H38.7244V22.0026H38.319ZM38.319 27.9546C38.319 28.2619 38.3423 28.5114 38.4025 28.682L38.7849 28.5471C38.7491 28.4457 38.7244 28.2553 38.7244 27.9546H38.319ZM38.4025 28.682C38.4692 28.871 38.5989 29.0101 38.7865 29.0804L38.9289 28.7007C38.8604 28.6751 38.8142 28.6301 38.7849 28.5471L38.4025 28.682ZM38.8005 29.0851C38.9657 29.1337 39.202 29.1533 39.4937 29.1533V28.7478C39.2094 28.7478 39.0217 28.7275 38.9149 28.6961L38.8005 29.0851ZM39.4937 29.1533H40.3697V28.7478H39.4937V29.1533ZM40.3697 29.1533C40.8783 29.1533 41.2936 29.0846 41.5928 28.9256L41.4026 28.5675C41.1898 28.6806 40.8531 28.7478 40.3697 28.7478V29.1533ZM41.5948 28.9245C41.9058 28.7549 42.1277 28.4869 42.2629 28.1353L41.8845 27.9898C41.7797 28.2623 41.6176 28.4502 41.4006 28.5686L41.5948 28.9245ZM42.2629 28.1353C42.3928 27.7977 42.4829 27.3241 42.5395 26.7257L42.1359 26.6875C42.0805 27.273 41.9946 27.7034 41.8845 27.9898L42.2629 28.1353ZM42.3377 26.9093H42.6137V26.5038H42.3377V26.9093ZM42.4119 26.687C42.387 26.9443 42.375 27.2796 42.375 27.6906H42.7804C42.7804 27.2855 42.7924 26.9648 42.8155 26.7261L42.4119 26.687ZM42.375 27.6906C42.375 28.1546 42.4034 28.6734 42.4599 29.2465L42.8634 29.2067C42.8079 28.6437 42.7804 28.1385 42.7804 27.6906H42.375ZM42.6706 29.024C42.1217 28.9998 41.2018 28.9878 39.9137 28.9878V29.3933C41.2016 29.3933 42.1137 29.4053 42.6528 29.4291L42.6706 29.024ZM39.9137 28.9878C38.3772 28.9878 37.2147 28.9998 36.4275 29.0239L36.4399 29.4292C37.2207 29.4053 38.3782 29.3933 39.9137 29.3933V28.9878ZM36.6364 29.2266V28.9866H36.231V29.2266H36.6364ZM36.4449 29.189C36.7359 29.1728 36.9702 29.1399 37.1289 29.0804L36.9865 28.7007C36.8892 28.7372 36.7075 28.7683 36.4224 28.7841L36.4449 29.189ZM37.1252 29.0817C37.319 29.0133 37.4565 28.8759 37.5249 28.682L37.1425 28.5471C37.1149 28.6253 37.0684 28.6718 36.9902 28.6994L37.1252 29.0817ZM37.5249 28.682C37.5851 28.5114 37.6084 28.2619 37.6084 27.9546H37.203C37.203 28.2553 37.1783 28.4457 37.1425 28.5471L37.5249 28.682ZM37.6084 27.9546V22.0026H37.203V27.9546H37.6084ZM37.6084 22.0026C37.6084 21.6953 37.5851 21.4457 37.5249 21.2751L37.1425 21.41C37.1783 21.5114 37.203 21.7019 37.203 22.0026H37.6084ZM37.5249 21.2751C37.4565 21.0813 37.319 20.9438 37.1252 20.8754L36.9902 21.2577C37.0684 21.2853 37.1149 21.3319 37.1425 21.41L37.5249 21.2751ZM37.1289 20.8767C36.9702 20.8172 36.7359 20.7843 36.4449 20.7681L36.4224 21.173C36.7075 21.1888 36.8892 21.2199 36.9865 21.2564L37.1289 20.8767ZM36.6364 20.9706V20.7306H36.231V20.9706H36.6364ZM36.4192 20.9328C36.7628 20.9573 37.2807 20.9693 37.9697 20.9693V20.5638C37.2826 20.5638 36.7766 20.5518 36.4481 20.5283L36.4192 20.9328ZM37.9697 20.9693C38.6115 20.9693 39.1244 20.9573 39.5066 20.9329L39.4808 20.5282C39.111 20.5518 38.6079 20.5638 37.9697 20.5638V20.9693ZM39.291 20.7306V20.9706H39.6964V20.7306H39.291ZM49.982 29.2266L49.9731 29.4291L50.2067 29.4394L50.1838 29.2067L49.982 29.2266ZM43.754 29.2266H43.5513V29.4356L43.7602 29.4292L43.754 29.2266ZM43.754 28.9866L43.7428 28.7841L43.5513 28.7948V28.9866H43.754ZM44.378 28.8906L44.3105 28.6993L44.3068 28.7007L44.378 28.8906ZM44.654 21.3426L44.4628 21.41V21.41L44.654 21.3426ZM44.378 21.0666L44.3068 21.2564L44.3105 21.2577L44.378 21.0666ZM43.754 20.9706H43.5513V21.1623L43.7428 21.173L43.754 20.9706ZM43.754 20.7306L43.7602 20.5279L43.5513 20.5215V20.7306H43.754ZM49.742 20.7306L49.9436 20.7519L49.9686 20.5166L49.7322 20.5281L49.742 20.7306ZM49.694 22.8906V23.0933H49.9249L49.895 22.8643L49.694 22.8906ZM49.418 22.8906L49.2164 22.9123L49.2359 23.0933H49.418V22.8906ZM49.202 21.7386L49.0103 21.8045L49.0109 21.8064L49.202 21.7386ZM48.758 21.1866L48.6566 21.3622L48.6619 21.3651L48.758 21.1866ZM46.178 21.0786L46.2385 21.2722L46.2455 21.2697L46.178 21.0786ZM45.914 21.3426L46.1052 21.41V21.41L45.914 21.3426ZM45.842 24.8346H45.6393V25.0373H45.842V24.8346ZM47.282 24.6426L47.4126 24.7977L47.4172 24.7936L47.282 24.6426ZM47.582 24.1746L47.388 24.1155L47.3864 24.1212L47.582 24.1746ZM47.714 23.4906L47.5134 23.4605L47.5127 23.4669L47.714 23.4906ZM47.75 23.2506V23.0478H47.5754L47.5495 23.2205L47.75 23.2506ZM48.026 23.2506L48.2282 23.265L48.2437 23.0478H48.026V23.2506ZM48.062 26.6586V26.8613H48.2785L48.2643 26.6452L48.062 26.6586ZM47.786 26.6586L47.5853 26.6872L47.6102 26.8613H47.786V26.6586ZM47.714 26.0826L47.5127 26.1065L47.5128 26.1071L47.714 26.0826ZM47.378 25.3266L47.238 25.4732L47.2413 25.4763L47.378 25.3266ZM45.842 25.0746V24.8718H45.6393V25.0746H45.842ZM45.914 28.6146L46.1052 28.5471V28.5471L45.914 28.6146ZM46.178 28.8906L46.1068 29.0804L46.1137 29.083L46.1208 29.0851L46.178 28.8906ZM48.818 28.7586L48.9087 28.9399L48.9108 28.9388L48.818 28.7586ZM49.394 28.1226L49.5812 28.2005L49.5819 28.1987L49.394 28.1226ZM49.658 26.8266V26.6238H49.4743L49.4562 26.8067L49.658 26.8266ZM49.934 26.8266L50.1355 26.849L50.1605 26.6238H49.934V26.8266ZM49.6953 27.6906C49.6953 28.1546 49.7237 28.6734 49.7802 29.2465L50.1838 29.2067C50.1283 28.6437 50.1007 28.1385 50.1007 27.6906H49.6953ZM49.9909 29.024C49.442 28.9998 48.5221 28.9878 47.234 28.9878V29.3933C48.5219 29.3933 49.434 29.4053 49.9731 29.4291L49.9909 29.024ZM47.234 28.9878C45.6975 28.9878 44.535 28.9998 43.7478 29.0239L43.7602 29.4292C44.541 29.4053 45.6985 29.3933 47.234 29.3933V28.9878ZM43.9567 29.2266V28.9866H43.5513V29.2266H43.9567ZM43.7652 29.189C44.0562 29.1728 44.2905 29.1399 44.4492 29.0804L44.3068 28.7007C44.2095 28.7372 44.0278 28.7683 43.7428 28.7841L43.7652 29.189ZM44.4455 29.0817C44.6393 29.0133 44.7768 28.8759 44.8452 28.682L44.4628 28.5471C44.4352 28.6253 44.3887 28.6718 44.3105 28.6994L44.4455 29.0817ZM44.8452 28.682C44.9054 28.5114 44.9287 28.2619 44.9287 27.9546H44.5233C44.5233 28.2553 44.4986 28.4457 44.4628 28.5471L44.8452 28.682ZM44.9287 27.9546V22.0026H44.5233V27.9546H44.9287ZM44.9287 22.0026C44.9287 21.6953 44.9054 21.4457 44.8452 21.2751L44.4628 21.41C44.4986 21.5114 44.5233 21.7019 44.5233 22.0026H44.9287ZM44.8452 21.2751C44.7768 21.0813 44.6393 20.9438 44.4455 20.8754L44.3105 21.2577C44.3887 21.2853 44.4352 21.3319 44.4628 21.41L44.8452 21.2751ZM44.4492 20.8767C44.2905 20.8172 44.0562 20.7843 43.7652 20.7681L43.7428 21.173C44.0278 21.1888 44.2095 21.2199 44.3068 21.2564L44.4492 20.8767ZM43.9567 20.9706V20.7306H43.5513V20.9706H43.9567ZM43.7478 20.9332C44.535 20.9573 45.6975 20.9693 47.234 20.9693V20.5638C45.6985 20.5638 44.541 20.5518 43.7602 20.5279L43.7478 20.9332ZM47.234 20.9693C48.4101 20.9693 49.2504 20.9573 49.7518 20.9331L49.7322 20.5281C49.2416 20.5518 48.4099 20.5638 47.234 20.5638V20.9693ZM49.5404 20.7092C49.4838 21.2424 49.4553 21.7218 49.4553 22.1466H49.8607C49.8607 21.7393 49.8882 21.2747 49.9436 20.7519L49.5404 20.7092ZM49.4553 22.1466C49.4553 22.4623 49.4673 22.7202 49.493 22.9168L49.895 22.8643C49.8727 22.6929 49.8607 22.4548 49.8607 22.1466H49.4553ZM49.694 22.6878H49.418V23.0933H49.694V22.6878ZM49.6196 22.8689C49.5632 22.3454 49.4893 21.942 49.3931 21.6708L49.0109 21.8064C49.0907 22.0312 49.1608 22.3958 49.2164 22.9123L49.6196 22.8689ZM49.3937 21.6727C49.2917 21.376 49.1136 21.1478 48.8541 21.0081L48.6619 21.3651C48.8184 21.4494 48.9363 21.5891 49.0103 21.8045L49.3937 21.6727ZM48.8593 21.011C48.6051 20.8643 48.246 20.8038 47.81 20.8038V21.2093C48.222 21.2093 48.4949 21.2689 48.6567 21.3622L48.8593 21.011ZM47.81 20.8038H46.814V21.2093H47.81V20.8038ZM46.814 20.8038C46.5212 20.8038 46.2805 20.8274 46.1105 20.8874L46.2455 21.2697C46.3475 21.2337 46.5308 21.2093 46.814 21.2093V20.8038ZM46.1175 20.8851C45.9234 20.9457 45.7902 21.0841 45.7228 21.2751L46.1052 21.41C46.1338 21.329 46.1766 21.2914 46.2385 21.2721L46.1175 20.8851ZM45.7228 21.2751C45.6626 21.4457 45.6393 21.6953 45.6393 22.0026H46.0447C46.0447 21.7019 46.0694 21.5114 46.1052 21.41L45.7228 21.2751ZM45.6393 22.0026V24.8346H46.0447V22.0026H45.6393ZM45.842 25.0373H46.634V24.6318H45.842V25.0373ZM46.634 25.0373C46.9425 25.0373 47.2116 24.9669 47.4126 24.7976L47.1514 24.4875C47.0484 24.5742 46.8855 24.6318 46.634 24.6318V25.0373ZM47.4172 24.7936C47.5948 24.6348 47.7181 24.446 47.7776 24.2279L47.3864 24.1212C47.3499 24.2551 47.2732 24.3784 47.1468 24.4915L47.4172 24.7936ZM47.776 24.2336C47.8366 24.0343 47.8825 23.7936 47.9153 23.5142L47.5127 23.4669C47.4815 23.7315 47.4394 23.9468 47.388 24.1155L47.776 24.2336ZM47.9145 23.5206L47.9505 23.2806L47.5495 23.2205L47.5135 23.4605L47.9145 23.5206ZM47.75 23.4533H48.026V23.0478H47.75V23.4533ZM47.8238 23.2361C47.7994 23.5779 47.7873 23.9588 47.7873 24.3786H48.1927C48.1927 23.9663 48.2046 23.5952 48.2282 23.265L47.8238 23.2361ZM47.7873 24.3786V24.9546H48.1927V24.3786H47.7873ZM47.7873 24.9546C47.7873 25.3692 47.8116 25.9423 47.8597 26.6719L48.2643 26.6452C48.2164 25.9188 48.1927 25.356 48.1927 24.9546H47.7873ZM48.062 26.4558H47.786V26.8613H48.062V26.4558ZM47.9867 26.6299C47.9791 26.5765 47.9554 26.3873 47.9152 26.058L47.5128 26.1071C47.5526 26.4338 47.5769 26.6286 47.5853 26.6872L47.9867 26.6299ZM47.9153 26.0586C47.8716 25.6917 47.7457 25.3878 47.5147 25.1768L47.2413 25.4763C47.3783 25.6013 47.4764 25.8015 47.5127 26.1065L47.9153 26.0586ZM47.518 25.1799C47.2936 24.9657 46.9892 24.8718 46.634 24.8718V25.2773C46.9188 25.2773 47.1104 25.3514 47.238 25.4732L47.518 25.1799ZM46.634 24.8718H45.842V25.2773H46.634V24.8718ZM45.6393 25.0746V27.9546H46.0447V25.0746H45.6393ZM45.6393 27.9546C45.6393 28.2619 45.6626 28.5114 45.7228 28.682L46.1052 28.5471C46.0694 28.4457 46.0447 28.2553 46.0447 27.9546H45.6393ZM45.7228 28.682C45.7895 28.871 45.9193 29.0101 46.1068 29.0804L46.2492 28.7007C46.1807 28.6751 46.1345 28.6301 46.1052 28.5471L45.7228 28.682ZM46.1208 29.0851C46.286 29.1337 46.5223 29.1533 46.814 29.1533V28.7478C46.5297 28.7478 46.342 28.7275 46.2352 28.6961L46.1208 29.0851ZM46.814 29.1533H47.69V28.7478H46.814V29.1533ZM47.69 29.1533C48.1976 29.1533 48.6109 29.0888 48.9087 28.9399L48.7273 28.5772C48.5131 28.6844 48.1744 28.7478 47.69 28.7478V29.1533ZM48.9108 28.9388C49.2196 28.7797 49.4438 28.5303 49.5811 28.2005L49.2069 28.0446C49.1042 28.2909 48.9444 28.4654 48.7252 28.5783L48.9108 28.9388ZM49.5819 28.1987C49.7128 27.8759 49.8031 27.4211 49.8598 26.8465L49.4562 26.8067C49.4009 27.368 49.3152 27.7773 49.2061 28.0464L49.5819 28.1987ZM49.658 27.0293H49.934V26.6238H49.658V27.0293ZM49.7325 26.8042C49.7073 27.0308 49.6953 27.3272 49.6953 27.6906H50.1007C50.1007 27.3339 50.1127 27.0543 50.1355 26.849L49.7325 26.8042ZM58.8681 20.9706L58.8797 21.173L59.0709 21.162V20.9706H58.8681ZM58.2441 21.1026L58.3305 21.2862L58.339 21.2817L58.2441 21.1026ZM57.9681 21.4386L58.1615 21.4996L58.1623 21.4968L57.9681 21.4386ZM57.8961 29.2866V29.4893H58.0989V29.2866H57.8961ZM57.6201 29.2866L57.4499 29.3967L57.5098 29.4893H57.6201V29.2866ZM52.5801 21.4986L52.7503 21.3884L52.3774 20.8121V21.4986H52.5801ZM52.6521 28.5306L52.4586 28.5917L52.4619 28.6006L52.6521 28.5306ZM52.9641 28.8666L52.8773 29.05L52.8855 29.0534L52.9641 28.8666ZM53.6721 28.9866H53.8749V28.7937L53.6823 28.7841L53.6721 28.9866ZM53.6721 29.2266L53.6553 29.4286L53.8749 29.4469V29.2266H53.6721ZM51.3321 29.2266H51.1294V29.4486L51.3505 29.4285L51.3321 29.2266ZM51.3321 28.9866L51.3206 28.7842L51.1294 28.7951V28.9866H51.3321ZM51.9561 28.8666L52.0425 29.0502L52.051 29.0457L51.9561 28.8666ZM52.2321 28.5306L52.4255 28.5916L52.4263 28.5888L52.2321 28.5306ZM52.2321 21.3426L52.0409 21.41V21.41L52.2321 21.3426ZM51.9561 21.0666L51.8849 21.2564L51.8886 21.2577L51.9561 21.0666ZM51.3321 20.9706H51.1294V21.1623L51.3209 21.173L51.3321 20.9706ZM51.3321 20.7306L51.3505 20.5287L51.1294 20.5086V20.7306H51.3321ZM53.3841 20.7306L53.5542 20.6202L53.4876 20.5176L53.3658 20.5287L53.3841 20.7306ZM57.6201 27.2586L57.4501 27.3689L57.8229 27.9434V27.2586H57.6201ZM57.5361 21.4266L57.3426 21.4877L57.3459 21.4966L57.5361 21.4266ZM57.2361 21.1026L57.1493 21.286L57.1575 21.2894L57.2361 21.1026ZM56.5281 20.9706H56.3254V21.1634L56.518 21.173L56.5281 20.9706ZM56.5281 20.7306L56.545 20.5285L56.3254 20.5102V20.7306H56.5281ZM58.8681 20.7306H59.0709V20.5086L58.8498 20.5287L58.8681 20.7306ZM58.8566 20.7682C58.5675 20.7847 58.3243 20.8307 58.1493 20.9234L58.339 21.2817C58.436 21.2304 58.6087 21.1885 58.8797 21.173L58.8566 20.7682ZM58.1578 20.9191C57.9636 21.0105 57.8364 21.172 57.7739 21.3803L58.1623 21.4968C58.1958 21.3851 58.2527 21.3226 58.3305 21.286L58.1578 20.9191ZM57.7748 21.3775C57.7172 21.5598 57.6934 21.813 57.6934 22.1226H58.0989C58.0989 21.8241 58.123 21.6213 58.1615 21.4996L57.7748 21.3775ZM57.6934 22.1226V29.2866H58.0989V22.1226H57.6934ZM57.8961 29.0838H57.6201V29.4893H57.8961V29.0838ZM57.7903 29.1764L52.7503 21.3884L52.4099 21.6087L57.4499 29.3967L57.7903 29.1764ZM52.3774 21.4986V27.8346H52.7829V21.4986H52.3774ZM52.3774 27.8346C52.3774 28.1514 52.4011 28.409 52.4588 28.5916L52.8455 28.4695C52.8071 28.3482 52.7829 28.1417 52.7829 27.8346H52.3774ZM52.4619 28.6006C52.537 28.8045 52.6794 28.956 52.8773 29.0498L53.0509 28.6833C52.9448 28.6331 52.8792 28.5606 52.8424 28.4605L52.4619 28.6006ZM52.8855 29.0534C53.0712 29.1316 53.3363 29.1728 53.662 29.189L53.6823 28.7841C53.3679 28.7684 53.1611 28.7295 53.0428 28.6797L52.8855 29.0534ZM53.4694 28.9866V29.2266H53.8749V28.9866H53.4694ZM53.689 29.0245C53.3926 28.9998 52.978 28.9878 52.4481 28.9878V29.3933C52.9743 29.3933 53.3757 29.4053 53.6553 29.4286L53.689 29.0245ZM52.4481 28.9878C51.966 28.9878 51.5869 28.9998 51.3138 29.0247L51.3505 29.4285C51.6054 29.4053 51.9702 29.3933 52.4481 29.3933V28.9878ZM51.5349 29.2266V28.9866H51.1294V29.2266H51.5349ZM51.3437 29.189C51.6311 29.1725 51.8706 29.1309 52.0424 29.05L51.8698 28.6831C51.7696 28.7303 51.5931 28.7686 51.3206 28.7842L51.3437 29.189ZM52.051 29.0457C52.2359 28.9478 52.3621 28.7924 52.4255 28.5916L52.0388 28.4695C52.0062 28.5728 51.9484 28.6413 51.8613 28.6874L52.051 29.0457ZM52.4263 28.5888C52.4828 28.4004 52.5069 28.145 52.5069 27.8346H52.1014C52.1014 28.1322 52.0774 28.3407 52.0379 28.4723L52.4263 28.5888ZM52.5069 27.8346V22.0026H52.1014V27.8346H52.5069ZM52.5069 22.0026C52.5069 21.6953 52.4835 21.4457 52.4233 21.2751L52.0409 21.41C52.0767 21.5114 52.1014 21.7019 52.1014 22.0026H52.5069ZM52.4233 21.2751C52.3549 21.0813 52.2174 20.9438 52.0236 20.8754L51.8886 21.2577C51.9668 21.2853 52.0134 21.3319 52.0409 21.41L52.4233 21.2751ZM52.0273 20.8767C51.8686 20.8172 51.6344 20.7843 51.3434 20.7681L51.3209 21.173C51.6059 21.1888 51.7876 21.2199 51.8849 21.2564L52.0273 20.8767ZM51.5349 20.9706V20.7306H51.1294V20.9706H51.5349ZM51.3138 20.9325C51.5869 20.9573 51.966 20.9693 52.4481 20.9693V20.5638C51.9702 20.5638 51.6054 20.5518 51.3505 20.5287L51.3138 20.9325ZM52.4481 20.9693C52.8122 20.9693 53.1307 20.9572 53.4025 20.9325L53.3658 20.5287C53.1096 20.5519 52.804 20.5638 52.4481 20.5638V20.9693ZM53.2141 20.8409L57.4501 27.3689L57.7902 27.1482L53.5542 20.6202L53.2141 20.8409ZM57.8229 27.2586V22.1226H57.4174V27.2586H57.8229ZM57.8229 22.1226C57.8229 21.8046 57.7951 21.5431 57.7264 21.3565L57.3459 21.4966C57.3891 21.614 57.4174 21.8166 57.4174 22.1226H57.8229ZM57.7295 21.3655C57.6628 21.1546 57.5194 21.0019 57.3148 20.9157L57.1575 21.2894C57.2568 21.3312 57.3134 21.3946 57.3428 21.4876L57.7295 21.3655ZM57.3229 20.9193C57.1339 20.8298 56.8652 20.7844 56.5382 20.7681L56.518 21.173C56.8311 21.1887 57.0344 21.2313 57.1493 21.2858L57.3229 20.9193ZM56.7309 20.9706V20.7306H56.3254V20.9706H56.7309ZM56.5113 20.9326C56.8077 20.9573 57.2223 20.9693 57.7521 20.9693V20.5638C57.226 20.5638 56.8246 20.5518 56.545 20.5285L56.5113 20.9326ZM57.7521 20.9693C58.2342 20.9693 58.6134 20.9573 58.8865 20.9325L58.8498 20.5287C58.5949 20.5518 58.23 20.5638 57.7521 20.5638V20.9693ZM58.6654 20.7306V20.9706H59.0709V20.7306H58.6654Z" fill="#FEF5EB" mask="url(#path-5-outside-1_23632_22687)"/>
</g>
</g>
<defs>
<linearGradient id="paint0_linear_23632_22687" x1="34" y1="-1.04141e-05" x2="34" y2="68" gradientUnits="userSpaceOnUse">
<stop stop-color="#C93D34"/>
<stop offset="1" stop-color="#7A2629"/>
</linearGradient>
<linearGradient id="paint1_linear_23632_22687" x1="34" y1="-1.04141e-05" x2="34" y2="68" gradientUnits="userSpaceOnUse">
<stop stop-color="#C93D34"/>
<stop offset="1" stop-color="#7A2629"/>
</linearGradient>
<clipPath id="clip0_23632_22687">
<rect width="68" height="68" fill="white"/>
</clipPath>
</defs>
</svg>
