<svg width="68" height="68" viewBox="0 0 68 68" fill="none" xmlns="http://www.w3.org/2000/svg">
<g clip-path="url(#clip0_23632_22681)">
<mask id="mask0_23632_22681" style="mask-type:alpha" maskUnits="userSpaceOnUse" x="0" y="0" width="68" height="68">
<path fill-rule="evenodd" clip-rule="evenodd" d="M47.0333 0H20.9667C13.5811 0 8.89667 0.0377779 4.45778 4.45778C0.018889 8.89667 0 13.6 0 20.9667V47.0333C0 54.4189 0.0377779 59.1033 4.45778 63.5422C8.89667 67.9811 13.6 68 20.9667 68H47.0333C54.4189 68 59.1033 67.9811 63.5422 63.5422C67.9622 59.1033 68 54.4 68 47.0333V20.9667C68 13.5811 67.9622 8.89667 63.5422 4.45778C59.1033 0.018889 54.4 0 47.0333 0Z" fill="url(#paint0_linear_23632_22681)"/>
</mask>
<g mask="url(#mask0_23632_22681)">
<rect width="68" height="68" fill="url(#paint1_linear_23632_22681)"/>
<path fill-rule="evenodd" clip-rule="evenodd" d="M15.6212 64.3735C26.4256 64.3735 45.6357 64.3735 45.6357 64.3735C52.5868 64.3735 57.0823 64.6379 61.2379 60.4446C64.8079 56.8746 64.5057 50.8679 64.7323 46.1079C60.709 52.1524 53.3234 51.9446 47.619 51.9446C47.619 51.9446 20.929 51.9446 10.9556 51.9446C0.982316 51.9635 4.81676 64.3735 15.6212 64.3735Z" fill="#FEF5EB"/>
<path d="M12.4854 53.5312H23.1387V61.5213L17.812 58.8579L12.4854 61.5213V53.5312Z" fill="#F19C33"/>
<mask id="path-5-outside-1_23632_22681" maskUnits="userSpaceOnUse" x="9.10156" y="12.2266" width="50" height="26" fill="black">
<rect fill="white" x="9.10156" y="12.2266" width="50" height="26"/>
<path d="M24.752 23.2266L23.5127 20.0419H19.4347L18.2098 23.2266H16.8985L20.9189 12.8945H22.0861L26.0922 23.2266H24.752ZM21.9709 15.7765C21.942 15.6997 21.894 15.5604 21.8268 15.3586C21.7595 15.1569 21.6923 14.9503 21.625 14.739C21.5674 14.518 21.5193 14.3499 21.4809 14.2346C21.4329 14.4268 21.38 14.6237 21.3224 14.8254C21.2744 15.0176 21.2215 15.1953 21.1639 15.3586C21.1159 15.5219 21.0726 15.6612 21.0342 15.7765L19.867 18.8891H23.1237L21.9709 15.7765ZM27.7652 23.2266V12.9377H33.2267V14.0761H29.0622V23.2266H27.7652ZM40.7698 23.2266H37.052V22.4772L38.2624 22.2034V13.9752L37.052 13.687V12.9377H40.7698V13.687L39.5593 13.9752V22.2034L40.7698 22.4772V23.2266ZM33.9682 15.3874V15.2145L34.6599 12.9377H36.1874V13.0818L34.8184 15.3874H33.9682ZM49.4861 23.2266L48.2468 20.0419H44.1687L42.9439 23.2266H41.6325L45.653 12.8945H46.8202L50.8262 23.2266H49.4861ZM46.7049 15.7765C46.6761 15.6997 46.6281 15.5604 46.5608 15.3586C46.4936 15.1569 46.4263 14.9503 46.3591 14.739C46.3014 14.518 46.2534 14.3499 46.215 14.2346C46.1669 14.4268 46.1141 14.6237 46.0565 14.8254C46.0084 15.0176 45.9556 15.1953 45.8979 15.3586C45.8499 15.5219 45.8067 15.6612 45.7683 15.7765L44.601 18.8891H47.8577L46.7049 15.7765ZM9.85281 37.2266V26.9377H15.3143V28.0761H11.1497V37.2266H9.85281ZM20.033 26.9377C21.3779 26.9377 22.3578 27.2019 22.9726 27.7303C23.5875 28.2586 23.8949 29.0032 23.8949 29.9638C23.8949 30.3865 23.8228 30.7948 23.6787 31.1887C23.5442 31.573 23.3185 31.9188 23.0015 32.2262C22.6844 32.5337 22.2617 32.7786 21.7334 32.9612C21.205 33.1341 20.5565 33.2205 19.788 33.2205H18.6064V37.2266H17.3094V26.9377H20.033ZM19.9177 28.0473H18.6064V32.111H19.6439C20.2971 32.111 20.8399 32.0437 21.2722 31.9092C21.7045 31.7651 22.0264 31.5394 22.2377 31.2319C22.4491 30.9245 22.5547 30.521 22.5547 30.0215C22.5547 29.3586 22.3434 28.8639 21.9207 28.5372C21.498 28.2106 20.8303 28.0473 19.9177 28.0473ZM32.7557 37.2266L31.5164 34.0419H27.4384L26.2135 37.2266H24.9022L28.9226 26.8945H30.0898L34.0959 37.2266H32.7557ZM29.9746 29.7765C29.9457 29.6997 29.8977 29.5604 29.8305 29.3586C29.7632 29.1569 29.696 28.9503 29.6287 28.739C29.5711 28.518 29.523 28.3499 29.4846 28.2346C29.4366 28.4268 29.3837 28.6237 29.3261 28.8254C29.2781 29.0176 29.2252 29.1953 29.1676 29.3586C29.1196 29.5219 29.0763 29.6612 29.0379 29.7765L27.8707 32.8891H31.1274L29.9746 29.7765ZM39.5223 37.2266V35.9296C38.5713 35.9104 37.7883 35.7759 37.1735 35.5262C36.5683 35.2764 36.0927 34.9546 35.7469 34.5607C35.4107 34.1572 35.1705 33.7249 35.0264 33.2638C34.8919 32.793 34.8246 32.3367 34.8246 31.8948C34.8246 31.3856 34.9015 30.8957 35.0552 30.425C35.2089 29.9542 35.4635 29.5363 35.8189 29.1713C36.1744 28.7966 36.6547 28.4988 37.26 28.2779C37.8652 28.0473 38.6193 27.9272 39.5223 27.9176V26.9377H40.8049V27.9176C41.7175 27.9272 42.4764 28.0425 43.0817 28.2634C43.6869 28.4844 44.1624 28.7774 44.5083 29.1425C44.8637 29.5075 45.1183 29.9302 45.272 30.4106C45.4257 30.8813 45.5026 31.376 45.5026 31.8948C45.5026 32.3559 45.4305 32.8219 45.2864 33.2926C45.1423 33.7633 44.8925 34.1956 44.5371 34.5895C44.1912 34.9738 43.7109 35.2908 43.0961 35.5406C42.4908 35.7807 41.7271 35.9104 40.8049 35.9296V37.2266H39.5223ZM39.5223 34.8633V29.0128C38.6577 29.032 37.9757 29.1713 37.4761 29.4307C36.9862 29.6804 36.6403 30.0167 36.4386 30.4394C36.2368 30.8621 36.136 31.3424 36.136 31.8804C36.136 32.4472 36.2464 32.9515 36.4674 33.3935C36.698 33.8354 37.0582 34.186 37.5482 34.4454C38.0477 34.6952 38.7058 34.8345 39.5223 34.8633ZM40.8049 34.8633C41.6406 34.8345 42.3035 34.6904 42.7935 34.431C43.293 34.162 43.6485 33.8066 43.8598 33.3646C44.0808 32.9227 44.1912 32.428 44.1912 31.8804C44.1912 31.3328 44.0904 30.8477 43.8886 30.425C43.6869 30.0023 43.341 29.666 42.8511 29.4163C42.3612 29.1665 41.6791 29.032 40.8049 29.0128V34.8633ZM58.1288 37.2266H56.8319V32.428H51.5578V37.2266H50.2609V26.9377H51.5578V31.2896H56.8319V26.9377H58.1288V37.2266ZM46.6439 29.3874V29.2145L47.3356 26.9377H48.8631V27.0818L47.4941 29.3874H46.6439Z"/>
</mask>
<path d="M24.752 23.2266L23.5127 20.0419H19.4347L18.2098 23.2266H16.8985L20.9189 12.8945H22.0861L26.0922 23.2266H24.752ZM21.9709 15.7765C21.942 15.6997 21.894 15.5604 21.8268 15.3586C21.7595 15.1569 21.6923 14.9503 21.625 14.739C21.5674 14.518 21.5193 14.3499 21.4809 14.2346C21.4329 14.4268 21.38 14.6237 21.3224 14.8254C21.2744 15.0176 21.2215 15.1953 21.1639 15.3586C21.1159 15.5219 21.0726 15.6612 21.0342 15.7765L19.867 18.8891H23.1237L21.9709 15.7765ZM27.7652 23.2266V12.9377H33.2267V14.0761H29.0622V23.2266H27.7652ZM40.7698 23.2266H37.052V22.4772L38.2624 22.2034V13.9752L37.052 13.687V12.9377H40.7698V13.687L39.5593 13.9752V22.2034L40.7698 22.4772V23.2266ZM33.9682 15.3874V15.2145L34.6599 12.9377H36.1874V13.0818L34.8184 15.3874H33.9682ZM49.4861 23.2266L48.2468 20.0419H44.1687L42.9439 23.2266H41.6325L45.653 12.8945H46.8202L50.8262 23.2266H49.4861ZM46.7049 15.7765C46.6761 15.6997 46.6281 15.5604 46.5608 15.3586C46.4936 15.1569 46.4263 14.9503 46.3591 14.739C46.3014 14.518 46.2534 14.3499 46.215 14.2346C46.1669 14.4268 46.1141 14.6237 46.0565 14.8254C46.0084 15.0176 45.9556 15.1953 45.8979 15.3586C45.8499 15.5219 45.8067 15.6612 45.7683 15.7765L44.601 18.8891H47.8577L46.7049 15.7765ZM9.85281 37.2266V26.9377H15.3143V28.0761H11.1497V37.2266H9.85281ZM20.033 26.9377C21.3779 26.9377 22.3578 27.2019 22.9726 27.7303C23.5875 28.2586 23.8949 29.0032 23.8949 29.9638C23.8949 30.3865 23.8228 30.7948 23.6787 31.1887C23.5442 31.573 23.3185 31.9188 23.0015 32.2262C22.6844 32.5337 22.2617 32.7786 21.7334 32.9612C21.205 33.1341 20.5565 33.2205 19.788 33.2205H18.6064V37.2266H17.3094V26.9377H20.033ZM19.9177 28.0473H18.6064V32.111H19.6439C20.2971 32.111 20.8399 32.0437 21.2722 31.9092C21.7045 31.7651 22.0264 31.5394 22.2377 31.2319C22.4491 30.9245 22.5547 30.521 22.5547 30.0215C22.5547 29.3586 22.3434 28.8639 21.9207 28.5372C21.498 28.2106 20.8303 28.0473 19.9177 28.0473ZM32.7557 37.2266L31.5164 34.0419H27.4384L26.2135 37.2266H24.9022L28.9226 26.8945H30.0898L34.0959 37.2266H32.7557ZM29.9746 29.7765C29.9457 29.6997 29.8977 29.5604 29.8305 29.3586C29.7632 29.1569 29.696 28.9503 29.6287 28.739C29.5711 28.518 29.523 28.3499 29.4846 28.2346C29.4366 28.4268 29.3837 28.6237 29.3261 28.8254C29.2781 29.0176 29.2252 29.1953 29.1676 29.3586C29.1196 29.5219 29.0763 29.6612 29.0379 29.7765L27.8707 32.8891H31.1274L29.9746 29.7765ZM39.5223 37.2266V35.9296C38.5713 35.9104 37.7883 35.7759 37.1735 35.5262C36.5683 35.2764 36.0927 34.9546 35.7469 34.5607C35.4107 34.1572 35.1705 33.7249 35.0264 33.2638C34.8919 32.793 34.8246 32.3367 34.8246 31.8948C34.8246 31.3856 34.9015 30.8957 35.0552 30.425C35.2089 29.9542 35.4635 29.5363 35.8189 29.1713C36.1744 28.7966 36.6547 28.4988 37.26 28.2779C37.8652 28.0473 38.6193 27.9272 39.5223 27.9176V26.9377H40.8049V27.9176C41.7175 27.9272 42.4764 28.0425 43.0817 28.2634C43.6869 28.4844 44.1624 28.7774 44.5083 29.1425C44.8637 29.5075 45.1183 29.9302 45.272 30.4106C45.4257 30.8813 45.5026 31.376 45.5026 31.8948C45.5026 32.3559 45.4305 32.8219 45.2864 33.2926C45.1423 33.7633 44.8925 34.1956 44.5371 34.5895C44.1912 34.9738 43.7109 35.2908 43.0961 35.5406C42.4908 35.7807 41.7271 35.9104 40.8049 35.9296V37.2266H39.5223ZM39.5223 34.8633V29.0128C38.6577 29.032 37.9757 29.1713 37.4761 29.4307C36.9862 29.6804 36.6403 30.0167 36.4386 30.4394C36.2368 30.8621 36.136 31.3424 36.136 31.8804C36.136 32.4472 36.2464 32.9515 36.4674 33.3935C36.698 33.8354 37.0582 34.186 37.5482 34.4454C38.0477 34.6952 38.7058 34.8345 39.5223 34.8633ZM40.8049 34.8633C41.6406 34.8345 42.3035 34.6904 42.7935 34.431C43.293 34.162 43.6485 33.8066 43.8598 33.3646C44.0808 32.9227 44.1912 32.428 44.1912 31.8804C44.1912 31.3328 44.0904 30.8477 43.8886 30.425C43.6869 30.0023 43.341 29.666 42.8511 29.4163C42.3612 29.1665 41.6791 29.032 40.8049 29.0128V34.8633ZM58.1288 37.2266H56.8319V32.428H51.5578V37.2266H50.2609V26.9377H51.5578V31.2896H56.8319V26.9377H58.1288V37.2266ZM46.6439 29.3874V29.2145L47.3356 26.9377H48.8631V27.0818L47.4941 29.3874H46.6439Z" fill="#FEF5EB"/>
<path d="M24.752 23.2266L24.5631 23.3001L24.6134 23.4293H24.752V23.2266ZM23.5127 20.0419L23.7017 19.9684L23.6514 19.8392H23.5127V20.0419ZM19.4347 20.0419V19.8392H19.2954L19.2454 19.9691L19.4347 20.0419ZM18.2098 23.2266V23.4293H18.349L18.399 23.2993L18.2098 23.2266ZM16.8985 23.2266L16.7095 23.153L16.602 23.4293H16.8985V23.2266ZM20.9189 12.8945V12.6917H20.7803L20.73 12.821L20.9189 12.8945ZM22.0861 12.8945L22.2752 12.8212L22.225 12.6917H22.0861V12.8945ZM26.0922 23.2266V23.4293H26.3882L26.2812 23.1533L26.0922 23.2266ZM21.9709 15.7765L22.161 15.7061L22.1607 15.7053L21.9709 15.7765ZM21.8268 15.3586L21.6344 15.4227H21.6344L21.8268 15.3586ZM21.625 14.739L21.4286 14.7902L21.4318 14.8005L21.625 14.739ZM21.4809 14.2346L21.6732 14.1705L21.4531 13.51L21.2842 14.1855L21.4809 14.2346ZM21.3224 14.8254L21.1274 14.7697L21.1257 14.7763L21.3224 14.8254ZM21.1639 15.3586L20.9724 15.291L20.9694 15.3014L21.1639 15.3586ZM21.0342 15.7765L21.2242 15.8477L21.2265 15.8406L21.0342 15.7765ZM19.867 18.8891L19.6771 18.8179L19.5744 19.0918H19.867V18.8891ZM23.1237 18.8891V19.0918H23.4149L23.3138 18.8187L23.1237 18.8891ZM24.9409 23.153L23.7017 19.9684L23.3238 20.1154L24.5631 23.3001L24.9409 23.153ZM23.5127 19.8392H19.4347V20.2447H23.5127V19.8392ZM19.2454 19.9691L18.0206 23.1538L18.399 23.2993L19.6239 20.1147L19.2454 19.9691ZM18.2098 23.0238H16.8985V23.4293H18.2098V23.0238ZM17.0874 23.3001L21.1078 12.968L20.73 12.821L16.7095 23.153L17.0874 23.3001ZM20.9189 13.0972H22.0861V12.6917H20.9189V13.0972ZM21.8971 12.9678L25.9031 23.2999L26.2812 23.1533L22.2752 12.8212L21.8971 12.9678ZM26.0922 23.0238H24.752V23.4293H26.0922V23.0238ZM22.1607 15.7053C22.1333 15.6324 22.0864 15.4964 22.0191 15.2945L21.6344 15.4227C21.7016 15.6243 21.7507 15.7669 21.781 15.8477L22.1607 15.7053ZM22.0191 15.2945C21.9521 15.0937 21.8852 14.888 21.8182 14.6775L21.4318 14.8005C21.4993 15.0126 21.5669 15.2201 21.6344 15.4227L22.0191 15.2945ZM21.8212 14.6878C21.7632 14.4656 21.7138 14.2923 21.6732 14.1705L21.2886 14.2987C21.3248 14.4075 21.3715 14.5705 21.4288 14.7902L21.8212 14.6878ZM21.2842 14.1855C21.2368 14.3753 21.1845 14.57 21.1275 14.7697L21.5173 14.8811C21.5756 14.6774 21.629 14.4782 21.6776 14.2838L21.2842 14.1855ZM21.1257 14.7763C21.079 14.9631 21.0279 15.1346 20.9727 15.2911L21.3551 15.4261C21.4151 15.256 21.4697 15.0721 21.5191 14.8746L21.1257 14.7763ZM20.9694 15.3014C20.9218 15.4632 20.8793 15.6001 20.8419 15.7124L21.2265 15.8406C21.2659 15.7224 21.3099 15.5806 21.3584 15.4158L20.9694 15.3014ZM20.8444 15.7053L19.6771 18.8179L20.0568 18.9603L21.224 15.8477L20.8444 15.7053ZM19.867 19.0918H23.1237V18.6864H19.867V19.0918ZM23.3138 18.8187L22.161 15.7061L21.7807 15.8469L22.9335 18.9595L23.3138 18.8187ZM27.7652 23.2266H27.5625V23.4293H27.7652V23.2266ZM27.7652 12.9377V12.735H27.5625V12.9377H27.7652ZM33.2267 12.9377H33.4294V12.735H33.2267V12.9377ZM33.2267 14.0761V14.2788H33.4294V14.0761H33.2267ZM29.0622 14.0761V13.8734H28.8594V14.0761H29.0622ZM29.0622 23.2266V23.4293H29.2649V23.2266H29.0622ZM27.968 23.2266V12.9377H27.5625V23.2266H27.968ZM27.7652 13.1404H33.2267V12.735H27.7652V13.1404ZM33.024 12.9377V14.0761H33.4294V12.9377H33.024ZM33.2267 13.8734H29.0622V14.2788H33.2267V13.8734ZM28.8594 14.0761V23.2266H29.2649V14.0761H28.8594ZM29.0622 23.0238H27.7652V23.4293H29.0622V23.0238ZM40.7698 23.2266V23.4293H40.9725V23.2266H40.7698ZM37.052 23.2266H36.8492V23.4293H37.052V23.2266ZM37.052 22.4772L37.0072 22.2795L36.8492 22.3152V22.4772H37.052ZM38.2624 22.2034L38.3071 22.4012L38.4652 22.3654V22.2034H38.2624ZM38.2624 13.9752H38.4652V13.8151L38.3094 13.778L38.2624 13.9752ZM37.052 13.687H36.8492V13.8472L37.005 13.8843L37.052 13.687ZM37.052 12.9377V12.735H36.8492V12.9377H37.052ZM40.7698 12.9377H40.9725V12.735H40.7698V12.9377ZM40.7698 13.687L40.8167 13.8843L40.9725 13.8472V13.687H40.7698ZM39.5593 13.9752L39.5124 13.778L39.3566 13.8151V13.9752H39.5593ZM39.5593 22.2034H39.3566V22.3654L39.5146 22.4012L39.5593 22.2034ZM40.7698 22.4772H40.9725V22.3152L40.8145 22.2795L40.7698 22.4772ZM33.9682 15.3874H33.7655V15.5902H33.9682V15.3874ZM33.9682 15.2145L33.7742 15.1556L33.7655 15.1844V15.2145H33.9682ZM34.6599 12.9377V12.735H34.5096L34.4659 12.8788L34.6599 12.9377ZM36.1874 12.9377H36.3901V12.735H36.1874V12.9377ZM36.1874 13.0818L36.3617 13.1853L36.3901 13.1375V13.0818H36.1874ZM34.8184 15.3874V15.5902H34.9338L34.9927 15.4909L34.8184 15.3874ZM40.7698 23.0238H37.052V23.4293H40.7698V23.0238ZM37.2547 23.2266V22.4772H36.8492V23.2266H37.2547ZM37.0967 22.675L38.3071 22.4012L38.2177 22.0057L37.0072 22.2795L37.0967 22.675ZM38.4652 22.2034V13.9752H38.0597V22.2034H38.4652ZM38.3094 13.778L37.0989 13.4898L37.005 13.8843L38.2155 14.1725L38.3094 13.778ZM37.2547 13.687V12.9377H36.8492V13.687H37.2547ZM37.052 13.1404H40.7698V12.735H37.052V13.1404ZM40.5671 12.9377V13.687H40.9725V12.9377H40.5671ZM40.7228 13.4898L39.5124 13.778L39.6063 14.1725L40.8167 13.8843L40.7228 13.4898ZM39.3566 13.9752V22.2034H39.7621V13.9752H39.3566ZM39.5146 22.4012L40.7251 22.675L40.8145 22.2795L39.6041 22.0057L39.5146 22.4012ZM40.5671 22.4772V23.2266H40.9725V22.4772H40.5671ZM34.1709 15.3874V15.2145H33.7655V15.3874H34.1709ZM34.1622 15.2734L34.8539 12.9966L34.4659 12.8788L33.7742 15.1556L34.1622 15.2734ZM34.6599 13.1404H36.1874V12.735H34.6599V13.1404ZM35.9846 12.9377V13.0818H36.3901V12.9377H35.9846ZM36.013 12.9783L34.6441 15.2839L34.9927 15.4909L36.3617 13.1853L36.013 12.9783ZM34.8184 15.1847H33.9682V15.5902H34.8184V15.1847ZM49.4861 23.2266L49.2971 23.3001L49.3474 23.4293H49.4861V23.2266ZM48.2468 20.0419L48.4357 19.9684L48.3855 19.8392H48.2468V20.0419ZM44.1687 20.0419V19.8392H44.0295L43.9795 19.9691L44.1687 20.0419ZM42.9439 23.2266V23.4293H43.0831L43.1331 23.2993L42.9439 23.2266ZM41.6325 23.2266L41.4436 23.153L41.3361 23.4293H41.6325V23.2266ZM45.653 12.8945V12.6917H45.5143L45.464 12.821L45.653 12.8945ZM46.8202 12.8945L47.0092 12.8212L46.959 12.6917H46.8202V12.8945ZM50.8262 23.2266V23.4293H51.1223L51.0152 23.1533L50.8262 23.2266ZM46.7049 15.7765L46.895 15.7061L46.8947 15.7053L46.7049 15.7765ZM46.5608 15.3586L46.3685 15.4227V15.4227L46.5608 15.3586ZM46.3591 14.739L46.1626 14.7902L46.1659 14.8005L46.3591 14.739ZM46.215 14.2346L46.4073 14.1705L46.1871 13.51L46.0183 14.1855L46.215 14.2346ZM46.0565 14.8254L45.8614 14.7697L45.8598 14.7763L46.0565 14.8254ZM45.8979 15.3586L45.7065 15.291L45.7034 15.3014L45.8979 15.3586ZM45.7683 15.7765L45.9582 15.8477L45.9606 15.8406L45.7683 15.7765ZM44.601 18.8891L44.4112 18.8179L44.3085 19.0918H44.601V18.8891ZM47.8577 18.8891V19.0918H48.149L48.0478 18.8187L47.8577 18.8891ZM49.675 23.153L48.4357 19.9684L48.0579 20.1154L49.2971 23.3001L49.675 23.153ZM48.2468 19.8392H44.1687V20.2447H48.2468V19.8392ZM43.9795 19.9691L42.7546 23.1538L43.1331 23.2993L44.3579 20.1147L43.9795 19.9691ZM42.9439 23.0238H41.6325V23.4293H42.9439V23.0238ZM41.8215 23.3001L45.8419 12.968L45.464 12.821L41.4436 23.153L41.8215 23.3001ZM45.653 13.0972H46.8202V12.6917H45.653V13.0972ZM46.6312 12.9678L50.6372 23.2999L51.0152 23.1533L47.0092 12.8212L46.6312 12.9678ZM50.8262 23.0238H49.4861V23.4293H50.8262V23.0238ZM46.8947 15.7053C46.8674 15.6324 46.8205 15.4964 46.7531 15.2945L46.3685 15.4227C46.4357 15.6243 46.4848 15.7669 46.5151 15.8477L46.8947 15.7053ZM46.7531 15.2945C46.6862 15.0937 46.6192 14.888 46.5523 14.6775L46.1659 14.8005C46.2334 15.0126 46.3009 15.2201 46.3685 15.4227L46.7531 15.2945ZM46.5552 14.6878C46.4973 14.4656 46.4479 14.2923 46.4073 14.1705L46.0226 14.2987C46.0589 14.4075 46.1056 14.5705 46.1629 14.7902L46.5552 14.6878ZM46.0183 14.1855C45.9708 14.3753 45.9186 14.57 45.8615 14.7697L46.2514 14.8811C46.3096 14.6774 46.363 14.4782 46.4117 14.2838L46.0183 14.1855ZM45.8598 14.7763C45.8131 14.9631 45.762 15.1346 45.7068 15.2911L46.0891 15.4261C46.1492 15.256 46.2038 15.0721 46.2531 14.8746L45.8598 14.7763ZM45.7034 15.3014C45.6558 15.4632 45.6133 15.6001 45.5759 15.7124L45.9606 15.8406C46 15.7224 46.044 15.5806 46.0924 15.4158L45.7034 15.3014ZM45.5784 15.7053L44.4112 18.8179L44.7909 18.9603L45.9581 15.8477L45.5784 15.7053ZM44.601 19.0918H47.8577V18.6864H44.601V19.0918ZM48.0478 18.8187L46.895 15.7061L46.5148 15.8469L47.6676 18.9595L48.0478 18.8187ZM9.85281 37.2266H9.65007V37.4293H9.85281V37.2266ZM9.85281 26.9377V26.735H9.65007V26.9377H9.85281ZM15.3143 26.9377H15.517V26.735H15.3143V26.9377ZM15.3143 28.0761V28.2788H15.517V28.0761H15.3143ZM11.1497 28.0761V27.8734H10.947V28.0761H11.1497ZM11.1497 37.2266V37.4293H11.3525V37.2266H11.1497ZM10.0555 37.2266V26.9377H9.65007V37.2266H10.0555ZM9.85281 27.1404H15.3143V26.735H9.85281V27.1404ZM15.1115 26.9377V28.0761H15.517V26.9377H15.1115ZM15.3143 27.8734H11.1497V28.2788H15.3143V27.8734ZM10.947 28.0761V37.2266H11.3525V28.0761H10.947ZM11.1497 37.0238H9.85281V37.4293H11.1497V37.0238ZM22.9726 27.7303L22.8405 27.884V27.884L22.9726 27.7303ZM23.6787 31.1887L23.4883 31.119L23.4874 31.1217L23.6787 31.1887ZM23.0015 32.2262L23.1426 32.3718L23.0015 32.2262ZM21.7334 32.9612L21.7964 33.1539L21.7996 33.1528L21.7334 32.9612ZM18.6064 33.2205V33.0178H18.4036V33.2205H18.6064ZM18.6064 37.2266V37.4293H18.8091V37.2266H18.6064ZM17.3094 37.2266H17.1067V37.4293H17.3094V37.2266ZM17.3094 26.9377V26.735H17.1067V26.9377H17.3094ZM18.6064 28.0473V27.8446H18.4036V28.0473H18.6064ZM18.6064 32.111H18.4036V32.3137H18.6064V32.111ZM21.2722 31.9092L21.3325 32.1028L21.3363 32.1015L21.2722 31.9092ZM22.2377 31.2319L22.0707 31.1171V31.1171L22.2377 31.2319ZM21.9207 28.5372L22.0447 28.3768V28.3768L21.9207 28.5372ZM20.033 27.1404C21.3591 27.1404 22.28 27.4023 22.8405 27.884L23.1048 27.5765C22.4356 27.0015 21.3968 26.735 20.033 26.735V27.1404ZM22.8405 27.884C23.4021 28.3667 23.6921 29.0502 23.6921 29.9638H24.0976C24.0976 28.9561 23.7728 28.1506 23.1048 27.5765L22.8405 27.884ZM23.6921 29.9638C23.6921 30.363 23.6242 30.7477 23.4883 31.119L23.8691 31.2584C24.0215 30.842 24.0976 30.4101 24.0976 29.9638H23.6921ZM23.4874 31.1217C23.3642 31.4738 23.1567 31.7933 22.8603 32.0807L23.1426 32.3718C23.4803 32.0443 23.7243 31.6722 23.8701 31.2557L23.4874 31.1217ZM22.8603 32.0807C22.5695 32.3627 22.1747 32.5942 21.6672 32.7695L21.7996 33.1528C22.3488 32.9631 22.7994 32.7046 23.1426 32.3718L22.8603 32.0807ZM21.6703 32.7685C21.1684 32.9327 20.5427 33.0178 19.788 33.0178V33.4233C20.5704 33.4233 21.2416 33.3354 21.7964 33.1538L21.6703 32.7685ZM19.788 33.0178H18.6064V33.4233H19.788V33.0178ZM18.4036 33.2205V37.2266H18.8091V33.2205H18.4036ZM18.6064 37.0238H17.3094V37.4293H18.6064V37.0238ZM17.5122 37.2266V26.9377H17.1067V37.2266H17.5122ZM17.3094 27.1404H20.033V26.735H17.3094V27.1404ZM19.9177 27.8446H18.6064V28.25H19.9177V27.8446ZM18.4036 28.0473V32.111H18.8091V28.0473H18.4036ZM18.6064 32.3137H19.6439V31.9082H18.6064V32.3137ZM19.6439 32.3137C20.3094 32.3137 20.8741 32.2454 21.3325 32.1028L21.212 31.7156C20.8057 31.842 20.2849 31.9082 19.6439 31.9082V32.3137ZM21.3363 32.1015C21.801 31.9467 22.1633 31.698 22.4048 31.3468L22.0707 31.1171C21.8894 31.3807 21.6081 31.5836 21.2081 31.7169L21.3363 32.1015ZM22.4048 31.3468C22.6461 30.9958 22.7575 30.5484 22.7575 30.0215H22.352C22.352 30.4937 22.2521 30.8532 22.0707 31.1171L22.4048 31.3468ZM22.7575 30.0215C22.7575 29.3126 22.5289 28.751 22.0447 28.3768L21.7967 28.6977C22.1579 28.9767 22.352 29.4047 22.352 30.0215H22.7575ZM22.0447 28.3768C21.569 28.0092 20.8465 27.8446 19.9177 27.8446V28.25C20.8142 28.25 21.427 28.412 21.7967 28.6977L22.0447 28.3768ZM32.7557 37.2266L32.5668 37.3001L32.6171 37.4293H32.7557V37.2266ZM31.5164 34.0419L31.7054 33.9684L31.6551 33.8392H31.5164V34.0419ZM27.4384 34.0419V33.8392H27.2991L27.2491 33.9691L27.4384 34.0419ZM26.2135 37.2266V37.4293H26.3527L26.4027 37.2993L26.2135 37.2266ZM24.9022 37.2266L24.7132 37.153L24.6057 37.4293H24.9022V37.2266ZM28.9226 26.8945V26.6917H28.784L28.7337 26.821L28.9226 26.8945ZM30.0898 26.8945L30.2789 26.8212L30.2287 26.6917H30.0898V26.8945ZM34.0959 37.2266V37.4293H34.3919L34.2849 37.1533L34.0959 37.2266ZM29.9746 29.7765L30.1647 29.7061L30.1644 29.7053L29.9746 29.7765ZM29.8305 29.3586L29.6381 29.4227V29.4227L29.8305 29.3586ZM29.6287 28.739L29.4323 28.7902L29.4355 28.8004L29.6287 28.739ZM29.4846 28.2346L29.6769 28.1705L29.4568 27.51L29.2879 28.1855L29.4846 28.2346ZM29.3261 28.8254L29.1311 28.7697L29.1294 28.7763L29.3261 28.8254ZM29.1676 29.3586L28.9761 29.291L28.9731 29.3014L29.1676 29.3586ZM29.0379 29.7765L29.2279 29.8477L29.2302 29.8406L29.0379 29.7765ZM27.8707 32.8891L27.6808 32.8179L27.5781 33.0918H27.8707V32.8891ZM31.1274 32.8891V33.0918H31.4187L31.3175 32.8187L31.1274 32.8891ZM32.9447 37.153L31.7054 33.9684L31.3275 34.1154L32.5668 37.3001L32.9447 37.153ZM31.5164 33.8392H27.4384V34.2447H31.5164V33.8392ZM27.2491 33.9691L26.0243 37.1538L26.4027 37.2993L27.6276 34.1147L27.2491 33.9691ZM26.2135 37.0238H24.9022V37.4293H26.2135V37.0238ZM25.0911 37.3001L29.1116 26.968L28.7337 26.821L24.7132 37.153L25.0911 37.3001ZM28.9226 27.0972H30.0898V26.6917H28.9226V27.0972ZM29.9008 26.9678L33.9068 37.2999L34.2849 37.1533L30.2789 26.8212L29.9008 26.9678ZM34.0959 37.0238H32.7557V37.4293H34.0959V37.0238ZM30.1644 29.7053C30.137 29.6324 30.0901 29.4964 30.0228 29.2945L29.6381 29.4227C29.7053 29.6243 29.7544 29.7669 29.7847 29.8477L30.1644 29.7053ZM30.0228 29.2945C29.9558 29.0937 29.8889 28.888 29.8219 28.6775L29.4355 28.8004C29.503 29.0126 29.5706 29.2201 29.6381 29.4227L30.0228 29.2945ZM29.8249 28.6878C29.7669 28.4656 29.7175 28.2923 29.6769 28.1705L29.2923 28.2987C29.3285 28.4075 29.3752 28.5705 29.4325 28.7902L29.8249 28.6878ZM29.2879 28.1855C29.2405 28.3753 29.1882 28.57 29.1312 28.7697L29.521 28.8811C29.5793 28.6774 29.6327 28.4782 29.6813 28.2838L29.2879 28.1855ZM29.1294 28.7763C29.0827 28.9631 29.0317 29.1346 28.9764 29.2911L29.3588 29.4261C29.4188 29.256 29.4734 29.0721 29.5228 28.8746L29.1294 28.7763ZM28.9731 29.3014C28.9255 29.4632 28.883 29.6001 28.8456 29.7124L29.2302 29.8406C29.2697 29.7224 29.3136 29.5806 29.3621 29.4158L28.9731 29.3014ZM28.8481 29.7053L27.6808 32.8179L28.0605 32.9603L29.2277 29.8477L28.8481 29.7053ZM27.8707 33.0918H31.1274V32.6864H27.8707V33.0918ZM31.3175 32.8187L30.1647 29.7061L29.7844 29.8469L30.9373 32.9595L31.3175 32.8187ZM39.5223 37.2266H39.3196V37.4293H39.5223V37.2266ZM39.5223 35.9296H39.7251V35.731L39.5264 35.727L39.5223 35.9296ZM37.1735 35.5262L37.0962 35.7136L37.0972 35.714L37.1735 35.5262ZM35.7469 34.5607L35.5911 34.6905L35.5945 34.6945L35.7469 34.5607ZM35.0264 33.2638L34.8314 33.3195L34.8329 33.3242L35.0264 33.2638ZM35.0552 30.425L34.8625 30.362V30.362L35.0552 30.425ZM35.8189 29.1713L35.9642 29.3127L35.966 29.3108L35.8189 29.1713ZM37.26 28.2779L37.3295 28.4683L37.3321 28.4673L37.26 28.2779ZM39.5223 27.9176L39.5245 28.1203L39.7251 28.1182V27.9176H39.5223ZM39.5223 26.9377V26.735H39.3196V26.9377H39.5223ZM40.8049 26.9377H41.0076V26.735H40.8049V26.9377ZM40.8049 27.9176H40.6021V28.1182L40.8027 28.1203L40.8049 27.9176ZM43.0817 28.2634L43.0121 28.4539V28.4539L43.0817 28.2634ZM44.5083 29.1425L44.3611 29.2819L44.363 29.2839L44.5083 29.1425ZM45.272 30.4106L45.0789 30.4723L45.0793 30.4735L45.272 30.4106ZM45.2864 33.2926L45.0926 33.2332V33.2332L45.2864 33.2926ZM44.5371 34.5895L44.3866 34.4537L44.3864 34.4539L44.5371 34.5895ZM43.0961 35.5406L43.1708 35.729L43.1724 35.7284L43.0961 35.5406ZM40.8049 35.9296L40.8006 35.727L40.6021 35.7311V35.9296H40.8049ZM40.8049 37.2266V37.4293H41.0076V37.2266H40.8049ZM39.5223 34.8633L39.5152 35.0659L39.7251 35.0733V34.8633H39.5223ZM39.5223 29.0128H39.7251V28.8055L39.5178 28.8101L39.5223 29.0128ZM37.4761 29.4307L37.5682 29.6113L37.5695 29.6106L37.4761 29.4307ZM36.4386 30.4394L36.2556 30.3521L36.4386 30.4394ZM36.4674 33.3935L36.286 33.4841L36.2877 33.4872L36.4674 33.3935ZM37.5482 34.4454L37.4533 34.6246L37.4575 34.6267L37.5482 34.4454ZM40.8049 34.8633H40.6021V35.0731L40.8118 35.0659L40.8049 34.8633ZM42.7935 34.431L42.8883 34.6102L42.8896 34.6095L42.7935 34.431ZM43.8598 33.3646L43.6784 33.274L43.6769 33.2772L43.8598 33.3646ZM43.8886 30.425L43.7057 30.5123V30.5123L43.8886 30.425ZM42.8511 29.4163L42.9432 29.2356V29.2356L42.8511 29.4163ZM40.8049 29.0128L40.8093 28.8101L40.6021 28.8055V29.0128H40.8049ZM39.7251 37.2266V35.9296H39.3196V37.2266H39.7251ZM39.5264 35.727C38.5903 35.708 37.834 35.5757 37.2498 35.3383L37.0972 35.714C37.7426 35.9762 38.5523 36.1128 39.5183 36.1323L39.5264 35.727ZM37.2508 35.3388C36.6674 35.098 36.2201 34.7923 35.8992 34.4269L35.5945 34.6945C35.9654 35.1168 36.4691 35.4548 37.0962 35.7136L37.2508 35.3388ZM35.9026 34.4309C35.5819 34.046 35.3554 33.6369 35.2199 33.2033L34.8329 33.3242C34.9856 33.8129 35.2394 34.2684 35.5911 34.6905L35.9026 34.4309ZM35.2213 33.2081C35.0914 32.7535 35.0274 32.316 35.0274 31.8948H34.6219C34.6219 32.3575 34.6923 32.8326 34.8314 33.3195L35.2213 33.2081ZM35.0274 31.8948C35.0274 31.4064 35.101 30.9377 35.2479 30.4879L34.8625 30.362C34.7019 30.8537 34.6219 31.3649 34.6219 31.8948H35.0274ZM35.2479 30.4879C35.3917 30.0475 35.6297 29.6562 35.9642 29.3127L35.6737 29.0299C35.2973 29.4164 35.0261 29.861 34.8625 30.362L35.2479 30.4879ZM35.966 29.3108C36.2952 28.9638 36.7466 28.6811 37.3295 28.4683L37.1904 28.0874C36.5629 28.3165 36.0536 28.6294 35.6719 29.0317L35.966 29.3108ZM37.3321 28.4673C37.9081 28.2479 38.6367 28.1298 39.5245 28.1203L39.5202 27.7149C38.602 27.7246 37.8223 27.8467 37.1878 28.0884L37.3321 28.4673ZM39.7251 27.9176V26.9377H39.3196V27.9176H39.7251ZM39.5223 27.1404H40.8049V26.735H39.5223V27.1404ZM40.6021 26.9377V27.9176H41.0076V26.9377H40.6021ZM40.8027 28.1203C41.7012 28.1298 42.4355 28.2434 43.0121 28.4539L43.1512 28.073C42.5174 27.8416 41.7338 27.7246 40.807 27.7149L40.8027 28.1203ZM43.0121 28.4539C43.5959 28.667 44.042 28.9451 44.3611 29.2819L44.6554 29.003C44.2828 28.6097 43.7779 28.3018 43.1512 28.073L43.0121 28.4539ZM44.363 29.2839C44.6968 29.6267 44.9349 30.0222 45.0789 30.4723L45.4651 30.3488C45.3017 29.8382 45.0306 29.3883 44.6535 29.001L44.363 29.2839ZM45.0793 30.4735C45.226 30.923 45.2998 31.3964 45.2998 31.8948H45.7053C45.7053 31.3557 45.6254 30.8396 45.4647 30.3476L45.0793 30.4735ZM45.2998 31.8948C45.2998 32.3345 45.2312 32.7804 45.0926 33.2332L45.4803 33.3519C45.6299 32.8633 45.7053 32.3774 45.7053 31.8948H45.2998ZM45.0926 33.2332C44.9578 33.6735 44.7237 34.0801 44.3866 34.4537L44.6876 34.7253C45.0613 34.3112 45.3268 33.8532 45.4803 33.3519L45.0926 33.2332ZM44.3864 34.4539C44.066 34.8098 43.614 35.1114 43.0198 35.3527L43.1724 35.7284C43.8078 35.4702 44.3164 35.1377 44.6878 34.7251L44.3864 34.4539ZM43.0213 35.3521C42.4458 35.5805 41.708 35.7081 40.8006 35.727L40.8091 36.1323C41.7462 36.1128 42.5359 35.981 43.1708 35.729L43.0213 35.3521ZM40.6021 35.9296V37.2266H41.0076V35.9296H40.6021ZM40.8049 37.0238H39.5223V37.4293H40.8049V37.0238ZM39.7251 34.8633V29.0128H39.3196V34.8633H39.7251ZM39.5178 28.8101C38.6373 28.8297 37.9206 28.9715 37.3827 29.2507L37.5695 29.6106C38.0308 29.3711 38.6782 29.2343 39.5269 29.2155L39.5178 28.8101ZM37.384 29.25C36.8615 29.5164 36.4798 29.8824 36.2556 30.3521L36.6215 30.5267C36.8009 30.151 37.1108 29.8445 37.5682 29.6113L37.384 29.25ZM36.2556 30.3521C36.039 30.8058 35.9332 31.3167 35.9332 31.8804H36.3387C36.3387 31.3681 36.4346 30.9183 36.6215 30.5267L36.2556 30.3521ZM35.9332 31.8804C35.9332 32.474 36.0491 33.0102 36.2861 33.4841L36.6487 33.3028C36.4438 32.8929 36.3387 32.4204 36.3387 31.8804H35.9332ZM36.2877 33.4872C36.5393 33.9696 36.9313 34.3482 37.4533 34.6246L37.643 34.2662C37.1851 34.0238 36.8566 33.7012 36.6471 33.2997L36.2877 33.4872ZM37.4575 34.6267C37.9922 34.8941 38.6819 35.0365 39.5152 35.0659L39.5295 34.6607C38.7296 34.6325 38.1032 34.4963 37.6388 34.2641L37.4575 34.6267ZM40.8118 35.0659C41.6641 35.0365 42.361 34.8894 42.8883 34.6102L42.6986 34.2518C42.2461 34.4914 41.6172 34.6324 40.7979 34.6607L40.8118 35.0659ZM42.8896 34.6095C43.4208 34.3235 43.81 33.9387 44.0427 33.4521L43.6769 33.2772C43.4869 33.6744 43.1653 34.0005 42.6973 34.2525L42.8896 34.6095ZM44.0411 33.4553C44.2776 32.9823 44.394 32.456 44.394 31.8804H43.9885C43.9885 32.4 43.8839 32.8631 43.6785 33.274L44.0411 33.4553ZM44.394 31.8804C44.394 31.3077 44.2884 30.7919 44.0716 30.3376L43.7057 30.5123C43.8924 30.9035 43.9885 31.3579 43.9885 31.8804H44.394ZM44.0716 30.3376C43.8474 29.868 43.4657 29.502 42.9432 29.2356L42.759 29.5969C43.2164 29.8301 43.5263 30.1366 43.7057 30.5123L44.0716 30.3376ZM42.9432 29.2356C42.4147 28.9662 41.698 28.8296 40.8093 28.8101L40.8004 29.2155C41.6602 29.2344 42.3076 29.3668 42.759 29.5969L42.9432 29.2356ZM40.6021 29.0128V34.8633H41.0076V29.0128H40.6021ZM58.1288 37.2266V37.4293H58.3316V37.2266H58.1288ZM56.8319 37.2266H56.6292V37.4293H56.8319V37.2266ZM56.8319 32.428H57.0347V32.2252H56.8319V32.428ZM51.5578 32.428V32.2252H51.3551V32.428H51.5578ZM51.5578 37.2266V37.4293H51.7605V37.2266H51.5578ZM50.2609 37.2266H50.0582V37.4293H50.2609V37.2266ZM50.2609 26.9377V26.735H50.0582V26.9377H50.2609ZM51.5578 26.9377H51.7605V26.735H51.5578V26.9377ZM51.5578 31.2896H51.3551V31.4923H51.5578V31.2896ZM56.8319 31.2896V31.4923H57.0347V31.2896H56.8319ZM56.8319 26.9377V26.735H56.6292V26.9377H56.8319ZM58.1288 26.9377H58.3316V26.735H58.1288V26.9377ZM46.6439 29.3874H46.4412V29.5902H46.6439V29.3874ZM46.6439 29.2145L46.45 29.1556L46.4412 29.1844V29.2145H46.6439ZM47.3356 26.9377V26.735H47.1853L47.1416 26.8788L47.3356 26.9377ZM48.8631 26.9377H49.0658V26.735H48.8631V26.9377ZM48.8631 27.0818L49.0374 27.1853L49.0658 27.1375V27.0818H48.8631ZM47.4941 29.3874V29.5902H47.6095L47.6685 29.4909L47.4941 29.3874ZM58.1288 37.0238H56.8319V37.4293H58.1288V37.0238ZM57.0347 37.2266V32.428H56.6292V37.2266H57.0347ZM56.8319 32.2252H51.5578V32.6307H56.8319V32.2252ZM51.3551 32.428V37.2266H51.7605V32.428H51.3551ZM51.5578 37.0238H50.2609V37.4293H51.5578V37.0238ZM50.4636 37.2266V26.9377H50.0582V37.2266H50.4636ZM50.2609 27.1404H51.5578V26.735H50.2609V27.1404ZM51.3551 26.9377V31.2896H51.7605V26.9377H51.3551ZM51.5578 31.4923H56.8319V31.0868H51.5578V31.4923ZM57.0347 31.2896V26.9377H56.6292V31.2896H57.0347ZM56.8319 27.1404H58.1288V26.735H56.8319V27.1404ZM57.9261 26.9377V37.2266H58.3316V26.9377H57.9261ZM46.8467 29.3874V29.2145H46.4412V29.3874H46.8467ZM46.8379 29.2734L47.5296 26.9966L47.1416 26.8788L46.45 29.1556L46.8379 29.2734ZM47.3356 27.1404H48.8631V26.735H47.3356V27.1404ZM48.6604 26.9377V27.0818H49.0658V26.9377H48.6604ZM48.6888 26.9783L47.3198 29.2839L47.6685 29.4909L49.0374 27.1853L48.6888 26.9783ZM47.4941 29.1847H46.6439V29.5902H47.4941V29.1847Z" fill="#FEF5EB" mask="url(#path-5-outside-1_23632_22681)"/>
</g>
</g>
<defs>
<linearGradient id="paint0_linear_23632_22681" x1="34" y1="-1.04141e-05" x2="34" y2="68" gradientUnits="userSpaceOnUse">
<stop stop-color="#C93D34"/>
<stop offset="1" stop-color="#7A2629"/>
</linearGradient>
<linearGradient id="paint1_linear_23632_22681" x1="34" y1="-1.04141e-05" x2="34" y2="68" gradientUnits="userSpaceOnUse">
<stop stop-color="#C93D34"/>
<stop offset="1" stop-color="#7A2629"/>
</linearGradient>
<clipPath id="clip0_23632_22681">
<rect width="68" height="68" fill="white"/>
</clipPath>
</defs>
</svg>
