<svg width="68" height="68" viewBox="0 0 68 68" fill="none" xmlns="http://www.w3.org/2000/svg">
<g clip-path="url(#clip0_23632_22741)">
<mask id="mask0_23632_22741" style="mask-type:alpha" maskUnits="userSpaceOnUse" x="0" y="0" width="68" height="68">
<path fill-rule="evenodd" clip-rule="evenodd" d="M47.0333 0H20.9667C13.5811 0 8.89667 0.0377779 4.45778 4.45778C0.018889 8.89667 0 13.6 0 20.9667V47.0333C0 54.4189 0.0377779 59.1033 4.45778 63.5422C8.89667 67.9811 13.6 68 20.9667 68H47.0333C54.4189 68 59.1033 67.9811 63.5422 63.5422C67.9622 59.1033 68 54.4 68 47.0333V20.9667C68 13.5811 67.9622 8.89667 63.5422 4.45778C59.1033 0.018889 54.4 0 47.0333 0Z" fill="url(#paint0_linear_23632_22741)"/>
</mask>
<g mask="url(#mask0_23632_22741)">
<rect width="68" height="68" fill="url(#paint1_linear_23632_22741)"/>
<path fill-rule="evenodd" clip-rule="evenodd" d="M15.6212 64.373C26.4256 64.373 45.6357 64.373 45.6357 64.373C52.5868 64.373 57.0823 64.6374 61.2379 60.4441C64.8079 56.8741 64.5057 50.8674 64.7323 46.1074C60.709 52.1519 53.3234 51.9441 47.619 51.9441C47.619 51.9441 20.929 51.9441 10.9556 51.9441C0.982316 51.963 4.81676 64.373 15.6212 64.373Z" fill="#FEF5EB"/>
<path d="M12.4854 53.5312H23.1387V61.5213L17.812 58.8579L12.4854 61.5213V53.5312Z" fill="#F19C33"/>
<mask id="path-5-outside-1_23632_22741" maskUnits="userSpaceOnUse" x="11.1016" y="12.2266" width="47" height="26" fill="black">
<rect fill="white" x="11.1016" y="12.2266" width="47" height="26"/>
<path d="M15.0088 12.8658C15.4315 12.8658 15.763 12.9138 16.0031 13.0099C16.2529 13.0963 16.5075 13.226 16.7669 13.3989C16.9782 13.5334 17.1415 13.6007 17.2568 13.6007C17.3433 13.6007 17.4105 13.5526 17.4585 13.4566C17.5066 13.3509 17.545 13.1876 17.5738 12.9666H17.9052C17.8572 13.5238 17.8332 14.5037 17.8332 15.9063H17.5018C17.4441 15.1281 17.2184 14.4749 16.8245 13.9465C16.4402 13.4085 15.8782 13.1396 15.1385 13.1396C14.6198 13.1396 14.1971 13.2981 13.8704 13.6151C13.5438 13.9225 13.3805 14.3212 13.3805 14.8111C13.3805 15.1762 13.4622 15.4932 13.6255 15.7622C13.7984 16.0312 14.0145 16.2617 14.2739 16.4539C14.5333 16.646 14.9032 16.891 15.3835 17.1888L15.8014 17.4482C16.4066 17.8228 16.8821 18.1542 17.228 18.4424C17.5834 18.721 17.8668 19.0429 18.0782 19.4079C18.2895 19.773 18.3952 20.2005 18.3952 20.6904C18.3952 21.5646 18.107 22.2419 17.5306 22.7222C16.9542 23.1929 16.2241 23.4283 15.3403 23.4283C14.8791 23.4283 14.4997 23.3803 14.2019 23.2842C13.9137 23.1881 13.6351 23.0584 13.3661 22.8951C13.1548 22.7606 12.9914 22.6934 12.8762 22.6934C12.7897 22.6934 12.7225 22.7462 12.6744 22.8519C12.6264 22.948 12.588 23.1065 12.5591 23.3274H12.2277C12.2661 22.7991 12.2853 21.6463 12.2853 19.869H12.6168C12.684 20.8393 12.9242 21.6271 13.3373 22.2323C13.7504 22.8375 14.3844 23.1401 15.2394 23.1401C15.7582 23.1401 16.2001 22.9816 16.5651 22.6646C16.9302 22.3379 17.1127 21.8576 17.1127 21.2236C17.1127 20.6856 16.9302 20.2293 16.5651 19.8546C16.2097 19.48 15.6429 19.0573 14.8647 18.5865C14.2979 18.2407 13.8368 17.9333 13.4814 17.6643C13.1355 17.3953 12.8521 17.0735 12.6312 16.6988C12.4102 16.3146 12.2998 15.8679 12.2998 15.3587C12.2998 14.5517 12.5591 13.9369 13.0779 13.5142C13.5967 13.0819 14.2403 12.8658 15.0088 12.8658ZM27.4676 22.0161C27.6981 22.6117 28.0296 22.9191 28.4619 22.9384V23.2266C28.0776 23.1977 27.5636 23.1833 26.92 23.1833C26.0938 23.1833 25.479 23.1977 25.0755 23.2266V22.9384C25.4406 22.9191 25.6999 22.8759 25.8537 22.8087C26.017 22.7318 26.0986 22.5973 26.0986 22.4052C26.0986 22.2419 26.041 22.0161 25.9257 21.7279L25.0467 19.3647H21.5595L20.9687 20.8921C20.7765 21.4109 20.6805 21.8048 20.6805 22.0738C20.6805 22.3716 20.7813 22.5877 20.9831 22.7222C21.1944 22.8567 21.5114 22.9288 21.9341 22.9384V23.2266C21.3866 23.1977 20.8342 23.1833 20.277 23.1833C19.8447 23.1833 19.4844 23.1977 19.1962 23.2266V22.9384C19.6766 22.8231 20.056 22.4052 20.3346 21.6847L23.721 12.9522H23.9515L27.4676 22.0161ZM24.9314 19.0765L23.3175 14.7679L21.6748 19.0765H24.9314ZM38.0126 13.3125C37.6764 13.3317 37.4266 13.3845 37.2633 13.471C37.1 13.5478 36.9895 13.6823 36.9318 13.8745C36.8742 14.057 36.8454 14.3308 36.8454 14.6958V23.2986H36.514L30.4618 13.9465V21.555C30.4618 21.9297 30.4906 22.2083 30.5482 22.3908C30.6155 22.5733 30.7403 22.7078 30.9229 22.7943C31.1054 22.8711 31.3888 22.9191 31.7731 22.9384V23.2266C31.4272 23.1977 30.9373 23.1833 30.3032 23.1833C29.7268 23.1833 29.2801 23.1977 28.9631 23.2266V22.9384C29.2993 22.9191 29.5491 22.8711 29.7124 22.7943C29.8757 22.7078 29.9862 22.5733 30.0439 22.3908C30.1015 22.1986 30.1303 21.9201 30.1303 21.555V14.5517C30.1303 14.1867 30.1015 13.9225 30.0439 13.7592C29.9862 13.5959 29.8757 13.4854 29.7124 13.4278C29.5587 13.3701 29.309 13.3317 28.9631 13.3125V13.0243C29.2801 13.0531 29.7268 13.0675 30.3032 13.0675C30.7355 13.0675 31.1102 13.0531 31.4272 13.0243L36.514 20.8633V14.6958C36.514 14.3212 36.4803 14.0426 36.4131 13.8601C36.3554 13.6775 36.2354 13.5478 36.0528 13.471C35.8703 13.3845 35.5869 13.3317 35.2026 13.3125V13.0243C35.5485 13.0531 36.0384 13.0675 36.6725 13.0675C37.2489 13.0675 37.6956 13.0531 38.0126 13.0243V13.3125ZM47.3285 13.0243C47.2612 13.7064 47.2276 14.3212 47.2276 14.8688C47.2276 15.3491 47.242 15.743 47.2708 16.0504H46.9394C46.8626 15.3107 46.7665 14.7631 46.6512 14.4076C46.5359 14.0426 46.3342 13.7784 46.046 13.6151C45.7578 13.4422 45.3159 13.3557 44.7203 13.3557H43.9421V21.555C43.9421 21.9585 43.9806 22.2515 44.0574 22.434C44.1343 22.6165 44.2688 22.7414 44.4609 22.8087C44.653 22.8759 44.9652 22.9191 45.3975 22.9384V23.2266C44.898 23.1977 44.1919 23.1833 43.2793 23.1833C42.3186 23.1833 41.6077 23.1977 41.1466 23.2266V22.9384C41.5789 22.9191 41.8911 22.8759 42.0832 22.8087C42.2754 22.7414 42.4099 22.6165 42.4867 22.434C42.5636 22.2515 42.602 21.9585 42.602 21.555V13.3557H41.8239C41.2283 13.3557 40.7863 13.4422 40.4981 13.6151C40.2099 13.7784 40.0082 14.0426 39.8929 14.4076C39.7776 14.7631 39.6816 15.3107 39.6047 16.0504H39.2733C39.3021 15.743 39.3165 15.3491 39.3165 14.8688C39.3165 14.3212 39.2829 13.7064 39.2157 13.0243C40.013 13.0531 41.3676 13.0675 43.2793 13.0675C45.1814 13.0675 46.5311 13.0531 47.3285 13.0243ZM55.5084 22.0161C55.7389 22.6117 56.0703 22.9191 56.5026 22.9384V23.2266C56.1184 23.1977 55.6044 23.1833 54.9608 23.1833C54.1346 23.1833 53.5198 23.1977 53.1163 23.2266V22.9384C53.4813 22.9191 53.7407 22.8759 53.8944 22.8087C54.0577 22.7318 54.1394 22.5973 54.1394 22.4052C54.1394 22.2419 54.0818 22.0161 53.9665 21.7279L53.0875 19.3647H49.6003L49.0094 20.8921C48.8173 21.4109 48.7212 21.8048 48.7212 22.0738C48.7212 22.3716 48.8221 22.5877 49.0239 22.7222C49.2352 22.8567 49.5522 22.9288 49.9749 22.9384V23.2266C49.4273 23.1977 48.8749 23.1833 48.3178 23.1833C47.8855 23.1833 47.5252 23.1977 47.237 23.2266V22.9384C47.7173 22.8231 48.0968 22.4052 48.3754 21.6847L51.7618 12.9522H51.9923L55.5084 22.0161ZM52.9722 19.0765L51.3583 14.7679L49.7155 19.0765H52.9722ZM16.1885 31.8372C17.2453 31.9813 17.9994 32.2887 18.4509 32.7595C18.9024 33.2206 19.1282 33.7778 19.1282 34.431C19.1282 34.9786 18.9889 35.4637 18.7103 35.8864C18.4317 36.3091 18.033 36.6406 17.5143 36.8807C16.9955 37.1113 16.3807 37.2266 15.6698 37.2266C15.4104 37.2266 15.1895 37.2218 15.0069 37.2122C14.3921 37.1929 13.7869 37.1833 13.1913 37.1833C12.4035 37.1833 11.8079 37.1977 11.4044 37.2266V36.9384C11.7503 36.9191 12 36.8807 12.1537 36.8231C12.3171 36.7654 12.4275 36.655 12.4852 36.4917C12.5428 36.3283 12.5716 36.0642 12.5716 35.6991V28.5517C12.5716 28.1867 12.5428 27.9225 12.4852 27.7592C12.4275 27.5959 12.3171 27.4854 12.1537 27.4278C12 27.3701 11.7503 27.3317 11.4044 27.3125V27.0243C11.8079 27.0531 12.3939 27.0675 13.1624 27.0675L14.7187 27.0531C14.9013 27.0435 15.1078 27.0387 15.3384 27.0387C16.3182 27.0387 17.0676 27.2452 17.5863 27.6583C18.1147 28.0714 18.3789 28.619 18.3789 29.3011C18.3789 29.8582 18.2011 30.3578 17.8457 30.7997C17.4999 31.2416 16.9475 31.5778 16.1885 31.8084V31.8372ZM14.9781 27.3125C14.6803 27.3125 14.4545 27.3461 14.3008 27.4134C14.1567 27.4806 14.0559 27.6007 13.9982 27.7736C13.9406 27.9465 13.9118 28.2059 13.9118 28.5517V31.8084H14.8772C15.665 31.8084 16.2126 31.5971 16.52 31.1744C16.837 30.7421 16.9955 30.1705 16.9955 29.4596C16.9955 28.7391 16.837 28.2011 16.52 27.8457C16.203 27.4902 15.689 27.3125 14.9781 27.3125ZM14.9925 36.8951C16.789 36.8951 17.6872 36.0545 17.6872 34.3734C17.6872 33.6145 17.4806 33.0381 17.0676 32.6442C16.6641 32.2503 16.0156 32.0534 15.1222 32.0534H13.9118V35.6991C13.9118 36.0449 13.9406 36.2995 13.9982 36.4628C14.0559 36.6261 14.1567 36.7414 14.3008 36.8087C14.4545 36.8663 14.6851 36.8951 14.9925 36.8951ZM24.2242 27.3125C23.8784 27.3317 23.6238 27.3701 23.4605 27.4278C23.3068 27.4854 23.2011 27.5959 23.1434 27.7592C23.0858 27.9225 23.057 28.1867 23.057 28.5517V35.6991C23.057 36.0642 23.0858 36.3283 23.1434 36.4917C23.2011 36.655 23.3068 36.7654 23.4605 36.8231C23.6238 36.8807 23.8784 36.9191 24.2242 36.9384V37.2266C23.7823 37.1977 23.1723 37.1833 22.3941 37.1833C21.568 37.1833 20.9531 37.1977 20.5496 37.2266V36.9384C20.8955 36.9191 21.1453 36.8807 21.299 36.8231C21.4623 36.7654 21.5728 36.655 21.6304 36.4917C21.688 36.3283 21.7169 36.0642 21.7169 35.6991V28.5517C21.7169 28.1867 21.688 27.9225 21.6304 27.7592C21.5728 27.5959 21.4623 27.4854 21.299 27.4278C21.1453 27.3701 20.8955 27.3317 20.5496 27.3125V27.0243C20.9531 27.0531 21.568 27.0675 22.3941 27.0675C23.1627 27.0675 23.7727 27.0531 24.2242 27.0243V27.3125ZM30.4825 31.8372C31.5392 31.9813 32.2933 32.2887 32.7448 32.7595C33.1964 33.2206 33.4221 33.7778 33.4221 34.431C33.4221 34.9786 33.2828 35.4637 33.0042 35.8864C32.7256 36.3091 32.327 36.6406 31.8082 36.8807C31.2894 37.1113 30.6746 37.2266 29.9637 37.2266C29.7043 37.2266 29.4834 37.2218 29.3009 37.2122C28.686 37.1929 28.0808 37.1833 27.4852 37.1833C26.6974 37.1833 26.1018 37.1977 25.6984 37.2266V36.9384C26.0442 36.9191 26.294 36.8807 26.4477 36.8231C26.611 36.7654 26.7215 36.655 26.7791 36.4917C26.8367 36.3283 26.8656 36.0642 26.8656 35.6991V28.5517C26.8656 28.1867 26.8367 27.9225 26.7791 27.7592C26.7215 27.5959 26.611 27.4854 26.4477 27.4278C26.294 27.3701 26.0442 27.3317 25.6984 27.3125V27.0243C26.1018 27.0531 26.6878 27.0675 27.4564 27.0675L29.0127 27.0531C29.1952 27.0435 29.4017 27.0387 29.6323 27.0387C30.6122 27.0387 31.3615 27.2452 31.8802 27.6583C32.4086 28.0714 32.6728 28.619 32.6728 29.3011C32.6728 29.8582 32.4951 30.3578 32.1396 30.7997C31.7938 31.2416 31.2414 31.5778 30.4825 31.8084V31.8372ZM29.272 27.3125C28.9742 27.3125 28.7485 27.3461 28.5948 27.4134C28.4507 27.4806 28.3498 27.6007 28.2922 27.7736C28.2345 27.9465 28.2057 28.2059 28.2057 28.5517V31.8084H29.1712C29.9589 31.8084 30.5065 31.5971 30.8139 31.1744C31.1309 30.7421 31.2894 30.1705 31.2894 29.4596C31.2894 28.7391 31.1309 28.2011 30.8139 27.8457C30.4969 27.4902 29.9829 27.3125 29.272 27.3125ZM29.2864 36.8951C31.0829 36.8951 31.9811 36.0545 31.9811 34.3734C31.9811 33.6145 31.7746 33.0381 31.3615 32.6442C30.958 32.2503 30.3096 32.0534 29.4161 32.0534H28.2057V35.6991C28.2057 36.0449 28.2345 36.2995 28.2922 36.4628C28.3498 36.6261 28.4507 36.7414 28.5948 36.8087C28.7485 36.8663 28.979 36.8951 29.2864 36.8951ZM38.5181 27.3125C38.1723 27.3317 37.9177 27.3701 37.7544 27.4278C37.6007 27.4854 37.495 27.5959 37.4374 27.7592C37.3797 27.9225 37.3509 28.1867 37.3509 28.5517V35.6991C37.3509 36.0642 37.3797 36.3283 37.4374 36.4917C37.495 36.655 37.6007 36.7654 37.7544 36.8231C37.9177 36.8711 38.1723 36.8951 38.5181 36.8951H39.5701C40.1657 36.8951 40.6172 36.8135 40.9246 36.6502C41.2416 36.4772 41.4722 36.2035 41.6163 35.8288C41.7604 35.4541 41.866 34.9114 41.9333 34.2005H42.2647C42.2359 34.4983 42.2215 34.8921 42.2215 35.3821C42.2215 35.9297 42.2551 36.5445 42.3224 37.2266C41.6691 37.1977 40.5691 37.1833 39.0225 37.1833C37.178 37.1833 35.785 37.1977 34.8436 37.2266V36.9384C35.1894 36.9191 35.4392 36.8807 35.5929 36.8231C35.7562 36.7654 35.8667 36.655 35.9243 36.4917C35.982 36.3283 36.0108 36.0642 36.0108 35.6991V28.5517C36.0108 28.1867 35.982 27.9225 35.9243 27.7592C35.8667 27.5959 35.7562 27.4854 35.5929 27.4278C35.4392 27.3701 35.1894 27.3317 34.8436 27.3125V27.0243C35.2471 27.0531 35.8619 27.0675 36.6881 27.0675C37.4566 27.0675 38.0666 27.0531 38.5181 27.0243V27.3125ZM47.2553 27.3125C46.9094 27.3317 46.6548 27.3701 46.4915 27.4278C46.3378 27.4854 46.2321 27.5959 46.1745 27.7592C46.1169 27.9225 46.088 28.1867 46.088 28.5517V35.6991C46.088 36.0642 46.1169 36.3283 46.1745 36.4917C46.2321 36.655 46.3378 36.7654 46.4915 36.8231C46.6548 36.8807 46.9094 36.9191 47.2553 36.9384V37.2266C46.8134 37.1977 46.2033 37.1833 45.4252 37.1833C44.599 37.1833 43.9842 37.1977 43.5807 37.2266V36.9384C43.9265 36.9191 44.1763 36.8807 44.33 36.8231C44.4933 36.7654 44.6038 36.655 44.6615 36.4917C44.7191 36.3283 44.7479 36.0642 44.7479 35.6991V28.5517C44.7479 28.1867 44.7191 27.9225 44.6615 27.7592C44.6038 27.5959 44.4933 27.4854 44.33 27.4278C44.1763 27.3701 43.9265 27.3317 43.5807 27.3125V27.0243C43.9842 27.0531 44.599 27.0675 45.4252 27.0675C46.1937 27.0675 46.8037 27.0531 47.2553 27.0243V27.3125ZM56.2947 36.0161C56.5252 36.6117 56.8566 36.9191 57.2889 36.9384V37.2266C56.9047 37.1977 56.3907 37.1833 55.7471 37.1833C54.9209 37.1833 54.3061 37.1977 53.9026 37.2266V36.9384C54.2676 36.9191 54.527 36.8759 54.6807 36.8087C54.844 36.7318 54.9257 36.5973 54.9257 36.4052C54.9257 36.2419 54.8681 36.0161 54.7528 35.7279L53.8738 33.3647H50.3866L49.7957 34.8921C49.6036 35.4109 49.5075 35.8048 49.5075 36.0738C49.5075 36.3716 49.6084 36.5877 49.8102 36.7222C50.0215 36.8567 50.3385 36.9288 50.7612 36.9384V37.2266C50.2136 37.1977 49.6613 37.1833 49.1041 37.1833C48.6718 37.1833 48.3115 37.1977 48.0233 37.2266V36.9384C48.5036 36.8231 48.8831 36.4052 49.1617 35.6847L52.5481 26.9522H52.7786L56.2947 36.0161ZM53.7585 33.0765L52.1446 28.7679L50.5018 33.0765H53.7585Z"/>
</mask>
<path d="M15.0088 12.8658C15.4315 12.8658 15.763 12.9138 16.0031 13.0099C16.2529 13.0963 16.5075 13.226 16.7669 13.3989C16.9782 13.5334 17.1415 13.6007 17.2568 13.6007C17.3433 13.6007 17.4105 13.5526 17.4585 13.4566C17.5066 13.3509 17.545 13.1876 17.5738 12.9666H17.9052C17.8572 13.5238 17.8332 14.5037 17.8332 15.9063H17.5018C17.4441 15.1281 17.2184 14.4749 16.8245 13.9465C16.4402 13.4085 15.8782 13.1396 15.1385 13.1396C14.6198 13.1396 14.1971 13.2981 13.8704 13.6151C13.5438 13.9225 13.3805 14.3212 13.3805 14.8111C13.3805 15.1762 13.4622 15.4932 13.6255 15.7622C13.7984 16.0312 14.0145 16.2617 14.2739 16.4539C14.5333 16.646 14.9032 16.891 15.3835 17.1888L15.8014 17.4482C16.4066 17.8228 16.8821 18.1542 17.228 18.4424C17.5834 18.721 17.8668 19.0429 18.0782 19.4079C18.2895 19.773 18.3952 20.2005 18.3952 20.6904C18.3952 21.5646 18.107 22.2419 17.5306 22.7222C16.9542 23.1929 16.2241 23.4283 15.3403 23.4283C14.8791 23.4283 14.4997 23.3803 14.2019 23.2842C13.9137 23.1881 13.6351 23.0584 13.3661 22.8951C13.1548 22.7606 12.9914 22.6934 12.8762 22.6934C12.7897 22.6934 12.7225 22.7462 12.6744 22.8519C12.6264 22.948 12.588 23.1065 12.5591 23.3274H12.2277C12.2661 22.7991 12.2853 21.6463 12.2853 19.869H12.6168C12.684 20.8393 12.9242 21.6271 13.3373 22.2323C13.7504 22.8375 14.3844 23.1401 15.2394 23.1401C15.7582 23.1401 16.2001 22.9816 16.5651 22.6646C16.9302 22.3379 17.1127 21.8576 17.1127 21.2236C17.1127 20.6856 16.9302 20.2293 16.5651 19.8546C16.2097 19.48 15.6429 19.0573 14.8647 18.5865C14.2979 18.2407 13.8368 17.9333 13.4814 17.6643C13.1355 17.3953 12.8521 17.0735 12.6312 16.6988C12.4102 16.3146 12.2998 15.8679 12.2998 15.3587C12.2998 14.5517 12.5591 13.9369 13.0779 13.5142C13.5967 13.0819 14.2403 12.8658 15.0088 12.8658ZM27.4676 22.0161C27.6981 22.6117 28.0296 22.9191 28.4619 22.9384V23.2266C28.0776 23.1977 27.5636 23.1833 26.92 23.1833C26.0938 23.1833 25.479 23.1977 25.0755 23.2266V22.9384C25.4406 22.9191 25.6999 22.8759 25.8537 22.8087C26.017 22.7318 26.0986 22.5973 26.0986 22.4052C26.0986 22.2419 26.041 22.0161 25.9257 21.7279L25.0467 19.3647H21.5595L20.9687 20.8921C20.7765 21.4109 20.6805 21.8048 20.6805 22.0738C20.6805 22.3716 20.7813 22.5877 20.9831 22.7222C21.1944 22.8567 21.5114 22.9288 21.9341 22.9384V23.2266C21.3866 23.1977 20.8342 23.1833 20.277 23.1833C19.8447 23.1833 19.4844 23.1977 19.1962 23.2266V22.9384C19.6766 22.8231 20.056 22.4052 20.3346 21.6847L23.721 12.9522H23.9515L27.4676 22.0161ZM24.9314 19.0765L23.3175 14.7679L21.6748 19.0765H24.9314ZM38.0126 13.3125C37.6764 13.3317 37.4266 13.3845 37.2633 13.471C37.1 13.5478 36.9895 13.6823 36.9318 13.8745C36.8742 14.057 36.8454 14.3308 36.8454 14.6958V23.2986H36.514L30.4618 13.9465V21.555C30.4618 21.9297 30.4906 22.2083 30.5482 22.3908C30.6155 22.5733 30.7403 22.7078 30.9229 22.7943C31.1054 22.8711 31.3888 22.9191 31.7731 22.9384V23.2266C31.4272 23.1977 30.9373 23.1833 30.3032 23.1833C29.7268 23.1833 29.2801 23.1977 28.9631 23.2266V22.9384C29.2993 22.9191 29.5491 22.8711 29.7124 22.7943C29.8757 22.7078 29.9862 22.5733 30.0439 22.3908C30.1015 22.1986 30.1303 21.9201 30.1303 21.555V14.5517C30.1303 14.1867 30.1015 13.9225 30.0439 13.7592C29.9862 13.5959 29.8757 13.4854 29.7124 13.4278C29.5587 13.3701 29.309 13.3317 28.9631 13.3125V13.0243C29.2801 13.0531 29.7268 13.0675 30.3032 13.0675C30.7355 13.0675 31.1102 13.0531 31.4272 13.0243L36.514 20.8633V14.6958C36.514 14.3212 36.4803 14.0426 36.4131 13.8601C36.3554 13.6775 36.2354 13.5478 36.0528 13.471C35.8703 13.3845 35.5869 13.3317 35.2026 13.3125V13.0243C35.5485 13.0531 36.0384 13.0675 36.6725 13.0675C37.2489 13.0675 37.6956 13.0531 38.0126 13.0243V13.3125ZM47.3285 13.0243C47.2612 13.7064 47.2276 14.3212 47.2276 14.8688C47.2276 15.3491 47.242 15.743 47.2708 16.0504H46.9394C46.8626 15.3107 46.7665 14.7631 46.6512 14.4076C46.5359 14.0426 46.3342 13.7784 46.046 13.6151C45.7578 13.4422 45.3159 13.3557 44.7203 13.3557H43.9421V21.555C43.9421 21.9585 43.9806 22.2515 44.0574 22.434C44.1343 22.6165 44.2688 22.7414 44.4609 22.8087C44.653 22.8759 44.9652 22.9191 45.3975 22.9384V23.2266C44.898 23.1977 44.1919 23.1833 43.2793 23.1833C42.3186 23.1833 41.6077 23.1977 41.1466 23.2266V22.9384C41.5789 22.9191 41.8911 22.8759 42.0832 22.8087C42.2754 22.7414 42.4099 22.6165 42.4867 22.434C42.5636 22.2515 42.602 21.9585 42.602 21.555V13.3557H41.8239C41.2283 13.3557 40.7863 13.4422 40.4981 13.6151C40.2099 13.7784 40.0082 14.0426 39.8929 14.4076C39.7776 14.7631 39.6816 15.3107 39.6047 16.0504H39.2733C39.3021 15.743 39.3165 15.3491 39.3165 14.8688C39.3165 14.3212 39.2829 13.7064 39.2157 13.0243C40.013 13.0531 41.3676 13.0675 43.2793 13.0675C45.1814 13.0675 46.5311 13.0531 47.3285 13.0243ZM55.5084 22.0161C55.7389 22.6117 56.0703 22.9191 56.5026 22.9384V23.2266C56.1184 23.1977 55.6044 23.1833 54.9608 23.1833C54.1346 23.1833 53.5198 23.1977 53.1163 23.2266V22.9384C53.4813 22.9191 53.7407 22.8759 53.8944 22.8087C54.0577 22.7318 54.1394 22.5973 54.1394 22.4052C54.1394 22.2419 54.0818 22.0161 53.9665 21.7279L53.0875 19.3647H49.6003L49.0094 20.8921C48.8173 21.4109 48.7212 21.8048 48.7212 22.0738C48.7212 22.3716 48.8221 22.5877 49.0239 22.7222C49.2352 22.8567 49.5522 22.9288 49.9749 22.9384V23.2266C49.4273 23.1977 48.8749 23.1833 48.3178 23.1833C47.8855 23.1833 47.5252 23.1977 47.237 23.2266V22.9384C47.7173 22.8231 48.0968 22.4052 48.3754 21.6847L51.7618 12.9522H51.9923L55.5084 22.0161ZM52.9722 19.0765L51.3583 14.7679L49.7155 19.0765H52.9722ZM16.1885 31.8372C17.2453 31.9813 17.9994 32.2887 18.4509 32.7595C18.9024 33.2206 19.1282 33.7778 19.1282 34.431C19.1282 34.9786 18.9889 35.4637 18.7103 35.8864C18.4317 36.3091 18.033 36.6406 17.5143 36.8807C16.9955 37.1113 16.3807 37.2266 15.6698 37.2266C15.4104 37.2266 15.1895 37.2218 15.0069 37.2122C14.3921 37.1929 13.7869 37.1833 13.1913 37.1833C12.4035 37.1833 11.8079 37.1977 11.4044 37.2266V36.9384C11.7503 36.9191 12 36.8807 12.1537 36.8231C12.3171 36.7654 12.4275 36.655 12.4852 36.4917C12.5428 36.3283 12.5716 36.0642 12.5716 35.6991V28.5517C12.5716 28.1867 12.5428 27.9225 12.4852 27.7592C12.4275 27.5959 12.3171 27.4854 12.1537 27.4278C12 27.3701 11.7503 27.3317 11.4044 27.3125V27.0243C11.8079 27.0531 12.3939 27.0675 13.1624 27.0675L14.7187 27.0531C14.9013 27.0435 15.1078 27.0387 15.3384 27.0387C16.3182 27.0387 17.0676 27.2452 17.5863 27.6583C18.1147 28.0714 18.3789 28.619 18.3789 29.3011C18.3789 29.8582 18.2011 30.3578 17.8457 30.7997C17.4999 31.2416 16.9475 31.5778 16.1885 31.8084V31.8372ZM14.9781 27.3125C14.6803 27.3125 14.4545 27.3461 14.3008 27.4134C14.1567 27.4806 14.0559 27.6007 13.9982 27.7736C13.9406 27.9465 13.9118 28.2059 13.9118 28.5517V31.8084H14.8772C15.665 31.8084 16.2126 31.5971 16.52 31.1744C16.837 30.7421 16.9955 30.1705 16.9955 29.4596C16.9955 28.7391 16.837 28.2011 16.52 27.8457C16.203 27.4902 15.689 27.3125 14.9781 27.3125ZM14.9925 36.8951C16.789 36.8951 17.6872 36.0545 17.6872 34.3734C17.6872 33.6145 17.4806 33.0381 17.0676 32.6442C16.6641 32.2503 16.0156 32.0534 15.1222 32.0534H13.9118V35.6991C13.9118 36.0449 13.9406 36.2995 13.9982 36.4628C14.0559 36.6261 14.1567 36.7414 14.3008 36.8087C14.4545 36.8663 14.6851 36.8951 14.9925 36.8951ZM24.2242 27.3125C23.8784 27.3317 23.6238 27.3701 23.4605 27.4278C23.3068 27.4854 23.2011 27.5959 23.1434 27.7592C23.0858 27.9225 23.057 28.1867 23.057 28.5517V35.6991C23.057 36.0642 23.0858 36.3283 23.1434 36.4917C23.2011 36.655 23.3068 36.7654 23.4605 36.8231C23.6238 36.8807 23.8784 36.9191 24.2242 36.9384V37.2266C23.7823 37.1977 23.1723 37.1833 22.3941 37.1833C21.568 37.1833 20.9531 37.1977 20.5496 37.2266V36.9384C20.8955 36.9191 21.1453 36.8807 21.299 36.8231C21.4623 36.7654 21.5728 36.655 21.6304 36.4917C21.688 36.3283 21.7169 36.0642 21.7169 35.6991V28.5517C21.7169 28.1867 21.688 27.9225 21.6304 27.7592C21.5728 27.5959 21.4623 27.4854 21.299 27.4278C21.1453 27.3701 20.8955 27.3317 20.5496 27.3125V27.0243C20.9531 27.0531 21.568 27.0675 22.3941 27.0675C23.1627 27.0675 23.7727 27.0531 24.2242 27.0243V27.3125ZM30.4825 31.8372C31.5392 31.9813 32.2933 32.2887 32.7448 32.7595C33.1964 33.2206 33.4221 33.7778 33.4221 34.431C33.4221 34.9786 33.2828 35.4637 33.0042 35.8864C32.7256 36.3091 32.327 36.6406 31.8082 36.8807C31.2894 37.1113 30.6746 37.2266 29.9637 37.2266C29.7043 37.2266 29.4834 37.2218 29.3009 37.2122C28.686 37.1929 28.0808 37.1833 27.4852 37.1833C26.6974 37.1833 26.1018 37.1977 25.6984 37.2266V36.9384C26.0442 36.9191 26.294 36.8807 26.4477 36.8231C26.611 36.7654 26.7215 36.655 26.7791 36.4917C26.8367 36.3283 26.8656 36.0642 26.8656 35.6991V28.5517C26.8656 28.1867 26.8367 27.9225 26.7791 27.7592C26.7215 27.5959 26.611 27.4854 26.4477 27.4278C26.294 27.3701 26.0442 27.3317 25.6984 27.3125V27.0243C26.1018 27.0531 26.6878 27.0675 27.4564 27.0675L29.0127 27.0531C29.1952 27.0435 29.4017 27.0387 29.6323 27.0387C30.6122 27.0387 31.3615 27.2452 31.8802 27.6583C32.4086 28.0714 32.6728 28.619 32.6728 29.3011C32.6728 29.8582 32.4951 30.3578 32.1396 30.7997C31.7938 31.2416 31.2414 31.5778 30.4825 31.8084V31.8372ZM29.272 27.3125C28.9742 27.3125 28.7485 27.3461 28.5948 27.4134C28.4507 27.4806 28.3498 27.6007 28.2922 27.7736C28.2345 27.9465 28.2057 28.2059 28.2057 28.5517V31.8084H29.1712C29.9589 31.8084 30.5065 31.5971 30.8139 31.1744C31.1309 30.7421 31.2894 30.1705 31.2894 29.4596C31.2894 28.7391 31.1309 28.2011 30.8139 27.8457C30.4969 27.4902 29.9829 27.3125 29.272 27.3125ZM29.2864 36.8951C31.0829 36.8951 31.9811 36.0545 31.9811 34.3734C31.9811 33.6145 31.7746 33.0381 31.3615 32.6442C30.958 32.2503 30.3096 32.0534 29.4161 32.0534H28.2057V35.6991C28.2057 36.0449 28.2345 36.2995 28.2922 36.4628C28.3498 36.6261 28.4507 36.7414 28.5948 36.8087C28.7485 36.8663 28.979 36.8951 29.2864 36.8951ZM38.5181 27.3125C38.1723 27.3317 37.9177 27.3701 37.7544 27.4278C37.6007 27.4854 37.495 27.5959 37.4374 27.7592C37.3797 27.9225 37.3509 28.1867 37.3509 28.5517V35.6991C37.3509 36.0642 37.3797 36.3283 37.4374 36.4917C37.495 36.655 37.6007 36.7654 37.7544 36.8231C37.9177 36.8711 38.1723 36.8951 38.5181 36.8951H39.5701C40.1657 36.8951 40.6172 36.8135 40.9246 36.6502C41.2416 36.4772 41.4722 36.2035 41.6163 35.8288C41.7604 35.4541 41.866 34.9114 41.9333 34.2005H42.2647C42.2359 34.4983 42.2215 34.8921 42.2215 35.3821C42.2215 35.9297 42.2551 36.5445 42.3224 37.2266C41.6691 37.1977 40.5691 37.1833 39.0225 37.1833C37.178 37.1833 35.785 37.1977 34.8436 37.2266V36.9384C35.1894 36.9191 35.4392 36.8807 35.5929 36.8231C35.7562 36.7654 35.8667 36.655 35.9243 36.4917C35.982 36.3283 36.0108 36.0642 36.0108 35.6991V28.5517C36.0108 28.1867 35.982 27.9225 35.9243 27.7592C35.8667 27.5959 35.7562 27.4854 35.5929 27.4278C35.4392 27.3701 35.1894 27.3317 34.8436 27.3125V27.0243C35.2471 27.0531 35.8619 27.0675 36.6881 27.0675C37.4566 27.0675 38.0666 27.0531 38.5181 27.0243V27.3125ZM47.2553 27.3125C46.9094 27.3317 46.6548 27.3701 46.4915 27.4278C46.3378 27.4854 46.2321 27.5959 46.1745 27.7592C46.1169 27.9225 46.088 28.1867 46.088 28.5517V35.6991C46.088 36.0642 46.1169 36.3283 46.1745 36.4917C46.2321 36.655 46.3378 36.7654 46.4915 36.8231C46.6548 36.8807 46.9094 36.9191 47.2553 36.9384V37.2266C46.8134 37.1977 46.2033 37.1833 45.4252 37.1833C44.599 37.1833 43.9842 37.1977 43.5807 37.2266V36.9384C43.9265 36.9191 44.1763 36.8807 44.33 36.8231C44.4933 36.7654 44.6038 36.655 44.6615 36.4917C44.7191 36.3283 44.7479 36.0642 44.7479 35.6991V28.5517C44.7479 28.1867 44.7191 27.9225 44.6615 27.7592C44.6038 27.5959 44.4933 27.4854 44.33 27.4278C44.1763 27.3701 43.9265 27.3317 43.5807 27.3125V27.0243C43.9842 27.0531 44.599 27.0675 45.4252 27.0675C46.1937 27.0675 46.8037 27.0531 47.2553 27.0243V27.3125ZM56.2947 36.0161C56.5252 36.6117 56.8566 36.9191 57.2889 36.9384V37.2266C56.9047 37.1977 56.3907 37.1833 55.7471 37.1833C54.9209 37.1833 54.3061 37.1977 53.9026 37.2266V36.9384C54.2676 36.9191 54.527 36.8759 54.6807 36.8087C54.844 36.7318 54.9257 36.5973 54.9257 36.4052C54.9257 36.2419 54.8681 36.0161 54.7528 35.7279L53.8738 33.3647H50.3866L49.7957 34.8921C49.6036 35.4109 49.5075 35.8048 49.5075 36.0738C49.5075 36.3716 49.6084 36.5877 49.8102 36.7222C50.0215 36.8567 50.3385 36.9288 50.7612 36.9384V37.2266C50.2136 37.1977 49.6613 37.1833 49.1041 37.1833C48.6718 37.1833 48.3115 37.1977 48.0233 37.2266V36.9384C48.5036 36.8231 48.8831 36.4052 49.1617 35.6847L52.5481 26.9522H52.7786L56.2947 36.0161ZM53.7585 33.0765L52.1446 28.7679L50.5018 33.0765H53.7585Z" fill="#FEF5EB"/>
<path d="M16.0031 13.0099L15.9277 13.1983L15.9368 13.2015L16.0031 13.0099ZM16.7669 13.3989L16.6544 13.5677L16.658 13.57L16.7669 13.3989ZM17.4585 13.4566L17.64 13.5473L17.6431 13.5405L17.4585 13.4566ZM17.5738 12.9666V12.7639H17.3958L17.3728 12.9404L17.5738 12.9666ZM17.9052 12.9666L18.1072 12.9841L18.1262 12.7639H17.9052V12.9666ZM17.8332 15.9063V16.109H18.0359V15.9063H17.8332ZM17.5018 15.9063L17.2996 15.9213L17.3135 16.109H17.5018V15.9063ZM16.8245 13.9465L16.6595 14.0644L16.662 14.0677L16.8245 13.9465ZM13.8704 13.6151L14.0094 13.7627L14.0116 13.7606L13.8704 13.6151ZM13.6255 15.7622L13.4521 15.8674L13.4549 15.8718L13.6255 15.7622ZM14.2739 16.4539L14.3946 16.291V16.291L14.2739 16.4539ZM15.3835 17.1888L15.4904 17.0165L15.4903 17.0165L15.3835 17.1888ZM15.8014 17.4482L15.6945 17.6204L15.6947 17.6205L15.8014 17.4482ZM17.228 18.4424L17.0981 18.5983L17.1029 18.602L17.228 18.4424ZM18.0782 19.4079L17.9027 19.5095V19.5095L18.0782 19.4079ZM17.5306 22.7222L17.6588 22.8792L17.6604 22.878L17.5306 22.7222ZM14.2019 23.2842L14.1378 23.4765L14.1396 23.4771L14.2019 23.2842ZM13.3661 22.8951L13.2572 23.0662L13.2609 23.0684L13.3661 22.8951ZM12.6744 22.8519L12.8559 22.9426L12.859 22.9358L12.6744 22.8519ZM12.5591 23.3274V23.5302H12.7371L12.7602 23.3537L12.5591 23.3274ZM12.2277 23.3274L12.0255 23.3127L12.0097 23.5302H12.2277V23.3274ZM12.2853 19.869V19.6663H12.0826V19.869H12.2853ZM12.6168 19.869L12.819 19.855L12.8059 19.6663H12.6168V19.869ZM13.3373 22.2323L13.1698 22.3466V22.3466L13.3373 22.2323ZM16.5651 22.6646L16.6981 22.8177L16.7003 22.8157L16.5651 22.6646ZM16.5651 19.8546L16.418 19.9942L16.4199 19.9961L16.5651 19.8546ZM14.8647 18.5865L14.7591 18.7596L14.7598 18.76L14.8647 18.5865ZM13.4814 17.6643L13.3569 17.8243L13.359 17.826L13.4814 17.6643ZM12.6312 16.6988L12.4554 16.7999L12.4566 16.8018L12.6312 16.6988ZM13.0779 13.5142L13.206 13.6714L13.2077 13.67L13.0779 13.5142ZM15.0088 13.0685C15.42 13.0685 15.722 13.1158 15.9278 13.1981L16.0784 12.8216C15.8039 12.7118 15.443 12.663 15.0088 12.663V13.0685ZM15.9368 13.2015C16.1677 13.2814 16.4069 13.4026 16.6544 13.5676L16.8793 13.2303C16.6081 13.0494 16.3381 12.9113 16.0694 12.8183L15.9368 13.2015ZM16.658 13.57C16.8718 13.706 17.0784 13.8034 17.2568 13.8034V13.3979C17.2047 13.3979 17.0846 13.3609 16.8757 13.2279L16.658 13.57ZM17.2568 13.8034C17.4401 13.8034 17.5675 13.692 17.6399 13.5472L17.2772 13.3659C17.2706 13.3792 17.2648 13.3878 17.2606 13.393C17.2585 13.3955 17.2569 13.3972 17.2559 13.3983C17.2548 13.3993 17.2543 13.3997 17.2542 13.3997C17.2542 13.3997 17.2546 13.3994 17.2553 13.3991C17.256 13.3987 17.2568 13.3984 17.2576 13.3982C17.2593 13.3976 17.2594 13.3979 17.2568 13.3979V13.8034ZM17.6431 13.5405C17.7039 13.4066 17.7454 13.219 17.7749 12.9929L17.3728 12.9404C17.3446 13.1562 17.3092 13.2952 17.274 13.3727L17.6431 13.5405ZM17.5738 13.1694H17.9052V12.7639H17.5738V13.1694ZM17.7033 12.9492C17.6544 13.5161 17.6305 14.504 17.6305 15.9063H18.0359C18.0359 14.5034 18.06 13.5315 18.1072 12.9841L17.7033 12.9492ZM17.8332 15.7035H17.5018V16.109H17.8332V15.7035ZM17.704 15.8913C17.644 15.0819 17.4079 14.3899 16.987 13.8254L16.662 14.0677C17.0288 14.5598 17.2443 15.1744 17.2996 15.9213L17.704 15.8913ZM16.9895 13.8287C16.5622 13.2305 15.9347 12.9368 15.1385 12.9368V13.3423C15.8218 13.3423 16.3183 13.5866 16.6595 14.0644L16.9895 13.8287ZM15.1385 12.9368C14.575 12.9368 14.0991 13.1107 13.7292 13.4696L14.0116 13.7606C14.2951 13.4855 14.6645 13.3423 15.1385 13.3423V12.9368ZM13.7315 13.4675C13.3602 13.8169 13.1778 14.271 13.1778 14.8111H13.5832C13.5832 14.3713 13.7275 14.0281 14.0094 13.7627L13.7315 13.4675ZM13.1778 14.8111C13.1778 15.2072 13.2667 15.5619 13.4522 15.8674L13.7988 15.657C13.6576 15.4245 13.5832 15.1451 13.5832 14.8111H13.1778ZM13.4549 15.8718C13.6412 16.1616 13.8744 16.4102 14.1533 16.6168L14.3946 16.291C14.1547 16.1133 13.9555 15.9007 13.796 15.6526L13.4549 15.8718ZM14.1533 16.6168C14.4192 16.8138 14.7945 17.0622 15.2767 17.3611L15.4903 17.0165C15.0118 16.7198 14.6474 16.4782 14.3946 16.291L14.1533 16.6168ZM15.2766 17.361L15.6945 17.6204L15.9083 17.2759L15.4904 17.0165L15.2766 17.361ZM15.6947 17.6205C16.2959 17.9927 16.7626 18.3185 17.0982 18.5982L17.3578 18.2867C17.0017 17.99 16.5173 17.6529 15.9081 17.2758L15.6947 17.6205ZM17.1029 18.602C17.4395 18.8658 17.7052 19.1683 17.9027 19.5095L18.2536 19.3063C18.0284 18.9174 17.7274 18.5763 17.353 18.2829L17.1029 18.602ZM17.9027 19.5095C18.0935 19.839 18.1925 20.2303 18.1925 20.6904H18.5979C18.5979 20.1706 18.4855 19.7069 18.2536 19.3063L17.9027 19.5095ZM18.1925 20.6904C18.1925 21.5155 17.9231 22.1312 17.4008 22.5665L17.6604 22.878C18.2909 22.3525 18.5979 21.6137 18.5979 20.6904H18.1925ZM17.4023 22.5652C16.8686 23.001 16.1865 23.2256 15.3403 23.2256V23.631C16.2617 23.631 17.0397 23.3848 17.6588 22.8792L17.4023 22.5652ZM15.3403 23.2256C14.8913 23.2256 14.5347 23.1785 14.2641 23.0913L14.1396 23.4771C14.4646 23.582 14.867 23.631 15.3403 23.631V23.2256ZM14.266 23.0919C13.9927 23.0008 13.7278 22.8776 13.4713 22.7218L13.2609 23.0684C13.5424 23.2393 13.8347 23.3755 14.1378 23.4765L14.266 23.0919ZM13.4749 22.7241C13.2612 22.5881 13.0546 22.4907 12.8762 22.4907V22.8961C12.9283 22.8961 13.0483 22.9332 13.2573 23.0662L13.4749 22.7241ZM12.8762 22.4907C12.6823 22.4907 12.5574 22.6194 12.4899 22.768L12.859 22.9358C12.8741 22.9025 12.8855 22.8929 12.8861 22.8924C12.8862 22.8924 12.8857 22.8928 12.8847 22.8933C12.8836 22.8939 12.8823 22.8945 12.8808 22.895C12.8775 22.8962 12.8755 22.8961 12.8762 22.8961V22.4907ZM12.4931 22.7612C12.429 22.8894 12.3874 23.0766 12.3581 23.3012L12.7602 23.3537C12.7885 23.1364 12.8238 23.0065 12.8558 22.9426L12.4931 22.7612ZM12.5591 23.1247H12.2277V23.5302H12.5591V23.1247ZM12.4299 23.3421C12.469 22.805 12.4881 21.6444 12.4881 19.869H12.0826C12.0826 21.6481 12.0633 22.7931 12.0255 23.3127L12.4299 23.3421ZM12.2853 20.0718H12.6168V19.6663H12.2853V20.0718ZM12.4145 19.883C12.4835 20.8778 12.7308 21.7034 13.1698 22.3466L13.5047 22.118C13.1175 21.5507 12.8846 20.8008 12.819 19.855L12.4145 19.883ZM13.1698 22.3466C13.6274 23.017 14.3303 23.3428 15.2394 23.3428V22.9374C14.4385 22.9374 13.8733 22.658 13.5047 22.118L13.1698 22.3466ZM15.2394 23.3428C15.8031 23.3428 16.2933 23.1691 16.698 22.8176L16.4322 22.5115C16.1068 22.794 15.7132 22.9374 15.2394 22.9374V23.3428ZM16.7003 22.8157C17.1202 22.44 17.3154 21.8972 17.3154 21.2236H16.91C16.91 21.818 16.7402 22.2359 16.4299 22.5135L16.7003 22.8157ZM17.3154 21.2236C17.3154 20.6344 17.1134 20.1268 16.7103 19.7131L16.4199 19.9961C16.7469 20.3317 16.91 20.7368 16.91 21.2236H17.3154ZM16.7122 19.7151C16.3383 19.321 15.7535 18.8872 14.9697 18.4131L14.7598 18.76C15.5323 19.2273 16.0811 19.639 16.418 19.9942L16.7122 19.7151ZM14.9703 18.4135C14.4068 18.0696 13.9519 17.7661 13.6037 17.5026L13.359 17.826C13.7218 18.1005 14.1891 18.4118 14.7591 18.7596L14.9703 18.4135ZM13.6058 17.5043C13.28 17.2509 13.0137 16.9483 12.8058 16.5958L12.4566 16.8018C12.6906 17.1986 12.9911 17.5398 13.3569 17.8243L13.6058 17.5043ZM12.8069 16.5978C12.6062 16.2486 12.5025 15.8377 12.5025 15.3587H12.097C12.097 15.898 12.2143 16.3806 12.4554 16.7999L12.8069 16.5978ZM12.5025 15.3587C12.5025 14.5988 12.7443 14.0476 13.206 13.6714L12.9498 13.3571C12.374 13.8262 12.097 14.5047 12.097 15.3587H12.5025ZM13.2077 13.67C13.685 13.2722 14.2808 13.0685 15.0088 13.0685V12.663C14.1998 12.663 13.5083 12.8916 12.9481 13.3585L13.2077 13.67ZM27.4676 22.0161L27.6566 21.9429L27.6566 21.9428L27.4676 22.0161ZM28.4619 22.9384H28.6646V22.7444L28.4709 22.7358L28.4619 22.9384ZM28.4619 23.2266L28.4467 23.4287L28.6646 23.4451V23.2266H28.4619ZM25.0755 23.2266H24.8728V23.4443L25.09 23.4288L25.0755 23.2266ZM25.0755 22.9384L25.0649 22.7359L24.8728 22.746V22.9384H25.0755ZM25.8537 22.8087L25.9349 22.9945L25.94 22.9921L25.8537 22.8087ZM25.9257 21.7279L25.7356 21.7986L25.7375 21.8032L25.9257 21.7279ZM25.0467 19.3647L25.2367 19.294L25.1876 19.1619H25.0467V19.3647ZM21.5595 19.3647V19.1619H21.4205L21.3704 19.2915L21.5595 19.3647ZM20.9687 20.8921L20.7796 20.819L20.7785 20.8217L20.9687 20.8921ZM20.9831 22.7222L20.8706 22.8909L20.8742 22.8933L20.9831 22.7222ZM21.9341 22.9384H22.1369V22.7402L21.9387 22.7357L21.9341 22.9384ZM21.9341 23.2266L21.9235 23.429L22.1369 23.4403V23.2266H21.9341ZM19.1962 23.2266H18.9935V23.4506L19.2164 23.4283L19.1962 23.2266ZM19.1962 22.9384L19.1489 22.7412L18.9935 22.7785V22.9384H19.1962ZM20.3346 21.6847L20.1456 21.6114L20.1455 21.6116L20.3346 21.6847ZM23.721 12.9522V12.7495H23.5821L23.532 12.8789L23.721 12.9522ZM23.9515 12.9522L24.1405 12.8789L24.0903 12.7495H23.9515V12.9522ZM24.9314 19.0765V19.2792H25.2238L25.1213 19.0054L24.9314 19.0765ZM23.3175 14.7679L23.5073 14.6968L23.3192 14.1944L23.1281 14.6957L23.3175 14.7679ZM21.6748 19.0765L21.4853 19.0043L21.3805 19.2792H21.6748V19.0765ZM27.2785 22.0893C27.5222 22.7189 27.9039 23.1165 28.4529 23.1409L28.4709 22.7358C28.1553 22.7218 27.8741 22.5046 27.6566 21.9429L27.2785 22.0893ZM28.2591 22.9384V23.2266H28.6646V22.9384H28.2591ZM28.477 23.0244C28.0855 22.995 27.5658 22.9806 26.92 22.9806V23.3861C27.5614 23.3861 28.0697 23.4005 28.4467 23.4287L28.477 23.0244ZM26.92 22.9806C26.0929 22.9806 25.4721 22.995 25.0611 23.0243L25.09 23.4288C25.4859 23.4005 26.0948 23.3861 26.92 23.3861V22.9806ZM25.2783 23.2266V22.9384H24.8728V23.2266H25.2783ZM25.0862 23.1408C25.4537 23.1215 25.7451 23.0775 25.9349 22.9944L25.7724 22.6229C25.6548 22.6744 25.4274 22.7168 25.0649 22.7359L25.0862 23.1408ZM25.94 22.9921C26.0522 22.9393 26.1463 22.8615 26.2107 22.7554C26.2746 22.6501 26.3014 22.5302 26.3014 22.4052H25.8959C25.8959 22.4724 25.8818 22.5158 25.8641 22.5449C25.8469 22.5733 25.8184 22.6012 25.7673 22.6252L25.94 22.9921ZM26.3014 22.4052C26.3014 22.2022 26.2318 21.9472 26.1139 21.6526L25.7375 21.8032C25.8502 22.0851 25.8959 22.2816 25.8959 22.4052H26.3014ZM26.1157 21.6572L25.2367 19.294L24.8567 19.4354L25.7357 21.7986L26.1157 21.6572ZM25.0467 19.1619H21.5595V19.5674H25.0467V19.1619ZM21.3704 19.2915L20.7796 20.819L21.1577 20.9653L21.7486 19.4378L21.3704 19.2915ZM20.7785 20.8217C20.585 21.3444 20.4777 21.7667 20.4777 22.0738H20.8832C20.8832 21.8429 20.9681 21.4775 21.1588 20.9626L20.7785 20.8217ZM20.4777 22.0738C20.4777 22.4217 20.5992 22.71 20.8706 22.8909L21.0955 22.5535C20.9634 22.4655 20.8832 22.3214 20.8832 22.0738H20.4777ZM20.8742 22.8933C21.1315 23.057 21.4924 23.1311 21.9295 23.141L21.9387 22.7357C21.5305 22.7264 21.2574 22.6564 21.0919 22.5512L20.8742 22.8933ZM21.7314 22.9384V23.2266H22.1369V22.9384H21.7314ZM21.9448 23.0241C21.3936 22.9951 20.8377 22.9806 20.277 22.9806V23.3861C20.8307 23.3861 21.3795 23.4004 21.9235 23.429L21.9448 23.0241ZM20.277 22.9806C19.8409 22.9806 19.4734 22.9951 19.1761 23.0248L19.2164 23.4283C19.4955 23.4004 19.8485 23.3861 20.277 23.3861V22.9806ZM19.399 23.2266V22.9384H18.9935V23.2266H19.399ZM19.2435 23.1355C19.8189 22.9974 20.2351 22.5042 20.5237 21.7578L20.1455 21.6116C19.877 22.3062 19.5342 22.6488 19.1489 22.7412L19.2435 23.1355ZM20.5236 21.758L23.91 13.0255L23.532 12.8789L20.1456 21.6114L20.5236 21.758ZM23.721 13.155H23.9515V12.7495H23.721V13.155ZM23.7625 13.0256L27.2786 22.0894L27.6566 21.9428L24.1405 12.8789L23.7625 13.0256ZM25.1213 19.0054L23.5073 14.6968L23.1276 14.839L24.7416 19.1476L25.1213 19.0054ZM23.1281 14.6957L21.4853 19.0043L21.8642 19.1487L23.5069 14.8401L23.1281 14.6957ZM21.6748 19.2792H24.9314V18.8737H21.6748V19.2792ZM38.0126 13.3125L38.0242 13.5149L38.2153 13.504V13.3125H38.0126ZM37.2633 13.471L37.3497 13.6546L37.3581 13.6502L37.2633 13.471ZM36.9318 13.8745L37.1252 13.9355L37.126 13.9327L36.9318 13.8745ZM36.8454 23.2986V23.5013H37.0481V23.2986H36.8454ZM36.514 23.2986L36.3438 23.4088L36.4037 23.5013H36.514V23.2986ZM30.4618 13.9465L30.632 13.8364L30.259 13.2601V13.9465H30.4618ZM30.5482 22.3908L30.3547 22.4519L30.358 22.4609L30.5482 22.3908ZM30.9229 22.7943L30.836 22.9777L30.8442 22.9811L30.9229 22.7943ZM31.7731 22.9384H31.9758V22.7455L31.7832 22.7359L31.7731 22.9384ZM31.7731 23.2266L31.7562 23.4286L31.9758 23.4469V23.2266H31.7731ZM28.9631 23.2266H28.7604V23.4486L28.9815 23.4285L28.9631 23.2266ZM28.9631 22.9384L28.9515 22.736L28.7604 22.7469V22.9384H28.9631ZM29.7124 22.7943L29.7989 22.9779L29.8073 22.9734L29.7124 22.7943ZM30.0439 22.3908L30.2372 22.4518L30.2381 22.449L30.0439 22.3908ZM30.0439 13.7592L29.8527 13.8267V13.8267L30.0439 13.7592ZM29.7124 13.4278L29.6412 13.6176L29.645 13.6189L29.7124 13.4278ZM28.9631 13.3125H28.7604V13.5043L28.9519 13.5149L28.9631 13.3125ZM28.9631 13.0243L28.9815 12.8224L28.7604 12.8023V13.0243H28.9631ZM31.4272 13.0243L31.5973 12.9139L31.5307 12.8113L31.4089 12.8224L31.4272 13.0243ZM36.514 20.8633L36.3439 20.9737L36.7167 21.5482V20.8633H36.514ZM36.4131 13.8601L36.2195 13.9212L36.2228 13.9301L36.4131 13.8601ZM36.0528 13.471L35.966 13.6544L35.9742 13.6578L36.0528 13.471ZM35.2026 13.3125H34.9999V13.5053L35.1925 13.515L35.2026 13.3125ZM35.2026 13.0243L35.2195 12.8222L34.9999 12.8039V13.0243H35.2026ZM38.0126 13.0243H38.2153V12.8023L37.9942 12.8224L38.0126 13.0243ZM38.001 13.1101C37.6558 13.1298 37.3708 13.1847 37.1684 13.2918L37.3581 13.6502C37.4824 13.5844 37.697 13.5336 38.0242 13.5149L38.001 13.1101ZM37.177 13.2876C36.9554 13.3918 36.8098 13.5758 36.7377 13.8162L37.126 13.9327C37.1692 13.7889 37.2445 13.7039 37.3496 13.6544L37.177 13.2876ZM36.7385 13.8134C36.6713 14.0263 36.6426 14.3253 36.6426 14.6958H37.0481C37.0481 14.3363 37.0771 14.0877 37.1252 13.9355L36.7385 13.8134ZM36.6426 14.6958V23.2986H37.0481V14.6958H36.6426ZM36.8454 23.0959H36.514V23.5013H36.8454V23.0959ZM36.6842 23.1885L30.632 13.8364L30.2915 14.0567L36.3438 23.4088L36.6842 23.1885ZM30.259 13.9465V21.555H30.6645V13.9465H30.259ZM30.259 21.555C30.259 21.9345 30.2876 22.2387 30.3549 22.4518L30.7415 22.3297C30.6936 22.1779 30.6645 21.9248 30.6645 21.555H30.259ZM30.358 22.4609C30.4443 22.6953 30.6076 22.8693 30.8361 22.9775L31.0097 22.611C30.8731 22.5463 30.7866 22.4513 30.7385 22.3207L30.358 22.4609ZM30.8442 22.9811C31.0605 23.0722 31.373 23.1213 31.7629 23.1408L31.7832 22.7359C31.4046 22.7169 31.1503 22.6701 31.0015 22.6074L30.8442 22.9811ZM31.5703 22.9384V23.2266H31.9758V22.9384H31.5703ZM31.7899 23.0245C31.4357 22.995 30.9391 22.9806 30.3032 22.9806V23.3861C30.9354 23.3861 31.4188 23.4005 31.7562 23.4286L31.7899 23.0245ZM30.3032 22.9806C29.7248 22.9806 29.2709 22.995 28.9448 23.0247L28.9815 23.4285C29.2894 23.4005 29.7289 23.3861 30.3032 23.3861V22.9806ZM29.1659 23.2266V22.9384H28.7604V23.2266H29.1659ZM28.9747 23.1408C29.3183 23.1211 29.5996 23.0714 29.7988 22.9777L29.6261 22.6108C29.4986 22.6708 29.2804 22.7172 28.9515 22.736L28.9747 23.1408ZM29.8073 22.9734C30.0195 22.8611 30.1642 22.6831 30.2372 22.4518L29.8505 22.3297C29.8083 22.4635 29.732 22.5545 29.6176 22.6151L29.8073 22.9734ZM30.2381 22.449C30.3042 22.2285 30.3331 21.9264 30.3331 21.555H29.9276C29.9276 21.9137 29.8988 22.1688 29.8497 22.3325L30.2381 22.449ZM30.3331 21.555V14.5517H29.9276V21.555H30.3331ZM30.3331 14.5517C30.3331 14.1834 30.3049 13.8897 30.235 13.6917L29.8527 13.8267C29.8981 13.9554 29.9276 14.19 29.9276 14.5517H30.3331ZM30.235 13.6917C30.157 13.4706 30.001 13.3146 29.7799 13.2366L29.645 13.6189C29.7505 13.6562 29.8155 13.7212 29.8527 13.8267L30.235 13.6917ZM29.7836 13.2379C29.5992 13.1688 29.3232 13.1294 28.9744 13.1101L28.9519 13.5149C29.2947 13.534 29.5182 13.5715 29.6412 13.6176L29.7836 13.2379ZM29.1659 13.3125V13.0243H28.7604V13.3125H29.1659ZM28.9448 13.2262C29.2709 13.2558 29.7248 13.2702 30.3032 13.2702V12.8648C29.7289 12.8648 29.2894 12.8504 28.9815 12.8224L28.9448 13.2262ZM30.3032 13.2702C30.7397 13.2702 31.1207 13.2557 31.4456 13.2262L31.4089 12.8224C31.0997 12.8505 30.7314 12.8648 30.3032 12.8648V13.2702ZM31.2572 13.1346L36.3439 20.9737L36.684 20.753L31.5973 12.9139L31.2572 13.1346ZM36.7167 20.8633V14.6958H36.3112V20.8633H36.7167ZM36.7167 14.6958C36.7167 14.3152 36.6833 14.0072 36.6033 13.79L36.2228 13.9301C36.2773 14.078 36.3112 14.3272 36.3112 14.6958H36.7167ZM36.6064 13.799C36.5302 13.5575 36.3667 13.3832 36.1315 13.2841L35.9742 13.6578C36.104 13.7125 36.1807 13.7975 36.2198 13.9211L36.6064 13.799ZM36.1396 13.2878C35.9201 13.1838 35.6039 13.1296 35.2128 13.11L35.1925 13.515C35.5699 13.5338 35.8206 13.5853 35.966 13.6542L36.1396 13.2878ZM35.4054 13.3125V13.0243H34.9999V13.3125H35.4054ZM35.1858 13.2263C35.5401 13.2558 36.0366 13.2702 36.6725 13.2702V12.8648C36.0403 12.8648 35.5569 12.8504 35.2195 12.8222L35.1858 13.2263ZM36.6725 13.2702C37.2509 13.2702 37.7048 13.2558 38.031 13.2262L37.9942 12.8224C37.6863 12.8504 37.2468 12.8648 36.6725 12.8648V13.2702ZM37.8099 13.0243V13.3125H38.2153V13.0243H37.8099ZM47.3285 13.0243L47.5302 13.0442L47.553 12.8133L47.3212 12.8217L47.3285 13.0243ZM47.2708 16.0504V16.2531H47.4935L47.4727 16.0315L47.2708 16.0504ZM46.9394 16.0504L46.7378 16.0713L46.7567 16.2531H46.9394V16.0504ZM46.6512 14.4076L46.4579 14.4687L46.4584 14.4702L46.6512 14.4076ZM46.046 13.6151L45.9417 13.789L45.946 13.7915L46.046 13.6151ZM43.9421 13.3557V13.153H43.7394V13.3557H43.9421ZM44.0574 22.434L43.8706 22.5127V22.5127L44.0574 22.434ZM44.4609 22.8087L44.3939 23V23L44.4609 22.8087ZM45.3975 22.9384H45.6003V22.7444L45.4066 22.7358L45.3975 22.9384ZM45.3975 23.2266L45.3859 23.429L45.6003 23.4413V23.2266H45.3975ZM41.1466 23.2266H40.9439V23.4424L41.1592 23.4289L41.1466 23.2266ZM41.1466 22.9384L41.1376 22.7358L40.9439 22.7444V22.9384H41.1466ZM42.0832 22.8087L42.1502 23V23L42.0832 22.8087ZM42.4867 22.434L42.6736 22.5127V22.5127L42.4867 22.434ZM42.602 13.3557H42.8047V13.153H42.602V13.3557ZM40.4981 13.6151L40.5981 13.7915L40.6025 13.7889L40.4981 13.6151ZM39.8929 14.4076L40.0858 14.4702L40.0863 14.4687L39.8929 14.4076ZM39.6047 16.0504V16.2531H39.7875L39.8064 16.0713L39.6047 16.0504ZM39.2733 16.0504L39.0714 16.0315L39.0507 16.2531H39.2733V16.0504ZM39.2157 13.0243L39.223 12.8217L38.9911 12.8133L39.0139 13.0442L39.2157 13.0243ZM47.1267 13.0044C47.059 13.6915 47.0249 14.3131 47.0249 14.8688H47.4304C47.4304 14.3292 47.4635 13.7212 47.5302 13.0442L47.1267 13.0044ZM47.0249 14.8688C47.0249 15.3524 47.0394 15.7532 47.069 16.0693L47.4727 16.0315C47.4447 15.7328 47.4304 15.3458 47.4304 14.8688H47.0249ZM47.2708 15.8476H46.9394V16.2531H47.2708V15.8476ZM47.1411 16.0294C47.0639 15.2866 46.9662 14.7216 46.8441 14.3451L46.4584 14.4702C46.5668 14.8046 46.6612 15.3348 46.7378 16.0713L47.1411 16.0294ZM46.8445 14.3466C46.7164 13.9408 46.4856 13.6312 46.146 13.4387L45.946 13.7915C46.1828 13.9256 46.3555 14.1444 46.4579 14.4687L46.8445 14.3466ZM46.1503 13.4412C45.8147 13.2399 45.3281 13.153 44.7203 13.153V13.5584C45.3037 13.5584 45.7009 13.6445 45.9417 13.7889L46.1503 13.4412ZM44.7203 13.153H43.9421V13.5584H44.7203V13.153ZM43.7394 13.3557V21.555H44.1449V13.3557H43.7394ZM43.7394 21.555C43.7394 21.9633 43.7771 22.2908 43.8706 22.5127L44.2443 22.3553C44.184 22.2122 44.1449 21.9537 44.1449 21.555H43.7394ZM43.8706 22.5127C43.9704 22.7497 44.1494 22.9144 44.3939 23L44.5279 22.6173C44.3881 22.5684 44.2982 22.4834 44.2443 22.3553L43.8706 22.5127ZM44.3939 23C44.6159 23.0777 44.9535 23.1216 45.3885 23.1409L45.4066 22.7358C44.977 22.7167 44.6901 22.6741 44.5279 22.6173L44.3939 23ZM45.1948 22.9384V23.2266H45.6003V22.9384H45.1948ZM45.4092 23.0242C44.9039 22.995 44.1932 22.9806 43.2793 22.9806V23.3861C44.1906 23.3861 44.8922 23.4005 45.3859 23.429L45.4092 23.0242ZM43.2793 22.9806C42.3179 22.9806 41.6017 22.995 41.134 23.0242L41.1592 23.4289C41.6137 23.4005 42.3194 23.3861 43.2793 23.3861V22.9806ZM41.3493 23.2266V22.9384H40.9439V23.2266H41.3493ZM41.1556 23.1409C41.5906 23.1216 41.9282 23.0777 42.1502 23L42.0163 22.6173C41.854 22.6741 41.5672 22.7167 41.1376 22.7358L41.1556 23.1409ZM42.1502 23C42.3947 22.9144 42.5738 22.7497 42.6736 22.5127L42.2999 22.3553C42.246 22.4834 42.156 22.5684 42.0163 22.6173L42.1502 23ZM42.6736 22.5127C42.767 22.2908 42.8047 21.9633 42.8047 21.555H42.3993C42.3993 21.9537 42.3601 22.2122 42.2999 22.3553L42.6736 22.5127ZM42.8047 21.555V13.3557H42.3993V21.555H42.8047ZM42.602 13.153H41.8239V13.5584H42.602V13.153ZM41.8239 13.153C41.2161 13.153 40.7295 13.2399 40.3938 13.4412L40.6025 13.7889C40.8432 13.6445 41.2404 13.5584 41.8239 13.5584V13.153ZM40.3982 13.4387C40.0585 13.6312 39.8277 13.9408 39.6996 14.3466L40.0863 14.4687C40.1887 14.1444 40.3614 13.9256 40.5981 13.7915L40.3982 13.4387ZM39.7001 14.3451C39.578 14.7216 39.4803 15.2866 39.4031 16.0294L39.8064 16.0713C39.8829 15.3348 39.9773 14.8046 40.0858 14.4702L39.7001 14.3451ZM39.6047 15.8476H39.2733V16.2531H39.6047V15.8476ZM39.4751 16.0693C39.5048 15.7532 39.5193 15.3524 39.5193 14.8688H39.1138C39.1138 15.3458 39.0994 15.7328 39.0714 16.0315L39.4751 16.0693ZM39.5193 14.8688C39.5193 14.3131 39.4852 13.6915 39.4174 13.0044L39.0139 13.0442C39.0806 13.7212 39.1138 14.3292 39.1138 14.8688H39.5193ZM39.2083 13.2269C40.0097 13.2559 41.3675 13.2702 43.2793 13.2702V12.8648C41.3676 12.8648 40.0163 12.8504 39.223 12.8217L39.2083 13.2269ZM43.2793 13.2702C45.1814 13.2702 46.5344 13.2559 47.3358 13.2269L47.3212 12.8217C46.5278 12.8504 45.1814 12.8648 43.2793 12.8648V13.2702ZM55.5084 22.0161L55.6974 21.9429L55.6974 21.9428L55.5084 22.0161ZM56.5026 22.9384H56.7054V22.7444L56.5116 22.7358L56.5026 22.9384ZM56.5026 23.2266L56.4875 23.4287L56.7054 23.4451V23.2266H56.5026ZM53.1163 23.2266H52.9136V23.4443L53.1307 23.4288L53.1163 23.2266ZM53.1163 22.9384L53.1056 22.7359L52.9136 22.746V22.9384H53.1163ZM53.8944 22.8087L53.9757 22.9945L53.9808 22.9921L53.8944 22.8087ZM53.9665 21.7279L53.7764 21.7986L53.7782 21.8032L53.9665 21.7279ZM53.0875 19.3647L53.2775 19.294L53.2284 19.1619H53.0875V19.3647ZM49.6003 19.3647V19.1619H49.4613L49.4112 19.2915L49.6003 19.3647ZM49.0094 20.8921L48.8203 20.819L48.8193 20.8217L49.0094 20.8921ZM49.0239 22.7222L48.9114 22.8909L48.915 22.8933L49.0239 22.7222ZM49.9749 22.9384H50.1777V22.7402L49.9795 22.7357L49.9749 22.9384ZM49.9749 23.2266L49.9643 23.429L50.1777 23.4403V23.2266H49.9749ZM47.237 23.2266H47.0343V23.4506L47.2572 23.4283L47.237 23.2266ZM47.237 22.9384L47.1897 22.7412L47.0343 22.7785V22.9384H47.237ZM48.3754 21.6847L48.1864 21.6114L48.1863 21.6116L48.3754 21.6847ZM51.7618 12.9522V12.7495H51.6229L51.5727 12.8789L51.7618 12.9522ZM51.9923 12.9522L52.1813 12.8789L52.1311 12.7495H51.9923V12.9522ZM52.9722 19.0765V19.2792H53.2646L53.162 19.0054L52.9722 19.0765ZM51.3583 14.7679L51.5481 14.6968L51.36 14.1944L51.1688 14.6957L51.3583 14.7679ZM49.7155 19.0765L49.5261 19.0043L49.4213 19.2792H49.7155V19.0765ZM55.3193 22.0893C55.563 22.7189 55.9446 23.1165 56.4936 23.1409L56.5116 22.7358C56.196 22.7218 55.9148 22.5046 55.6974 21.9429L55.3193 22.0893ZM56.2999 22.9384V23.2266H56.7054V22.9384H56.2999ZM56.5178 23.0244C56.1263 22.995 55.6066 22.9806 54.9608 22.9806V23.3861C55.6022 23.3861 56.1105 23.4005 56.4875 23.4287L56.5178 23.0244ZM54.9608 22.9806C54.1337 22.9806 53.5129 22.995 53.1018 23.0243L53.1307 23.4288C53.5267 23.4005 54.1355 23.3861 54.9608 23.3861V22.9806ZM53.319 23.2266V22.9384H52.9136V23.2266H53.319ZM53.1269 23.1408C53.4945 23.1215 53.7858 23.0775 53.9757 22.9944L53.8132 22.6229C53.6956 22.6744 53.4682 22.7168 53.1056 22.7359L53.1269 23.1408ZM53.9808 22.9921C54.093 22.9393 54.187 22.8615 54.2515 22.7554C54.3154 22.6501 54.3421 22.5302 54.3421 22.4052H53.9367C53.9367 22.4724 53.9226 22.5158 53.9049 22.5449C53.8876 22.5733 53.8592 22.6012 53.8081 22.6252L53.9808 22.9921ZM54.3421 22.4052C54.3421 22.2022 54.2725 21.9472 54.1547 21.6526L53.7782 21.8032C53.891 22.0851 53.9367 22.2816 53.9367 22.4052H54.3421ZM54.1565 21.6572L53.2775 19.294L52.8975 19.4354L53.7765 21.7986L54.1565 21.6572ZM53.0875 19.1619H49.6003V19.5674H53.0875V19.1619ZM49.4112 19.2915L48.8204 20.819L49.1985 20.9653L49.7893 19.4378L49.4112 19.2915ZM48.8193 20.8217C48.6258 21.3444 48.5185 21.7667 48.5185 22.0738H48.924C48.924 21.8429 49.0089 21.4775 49.1996 20.9626L48.8193 20.8217ZM48.5185 22.0738C48.5185 22.4217 48.64 22.71 48.9114 22.8909L49.1363 22.5535C49.0042 22.4655 48.924 22.3214 48.924 22.0738H48.5185ZM48.915 22.8933C49.1723 23.057 49.5332 23.1311 49.9703 23.141L49.9795 22.7357C49.5713 22.7264 49.2981 22.6564 49.1327 22.5512L48.915 22.8933ZM49.7722 22.9384V23.2266H50.1777V22.9384H49.7722ZM49.9856 23.0241C49.4344 22.9951 48.8784 22.9806 48.3178 22.9806V23.3861C48.8715 23.3861 49.4203 23.4004 49.9643 23.429L49.9856 23.0241ZM48.3178 22.9806C47.8817 22.9806 47.5141 22.9951 47.2168 23.0248L47.2572 23.4283C47.5363 23.4004 47.8893 23.3861 48.3178 23.3861V22.9806ZM47.4398 23.2266V22.9384H47.0343V23.2266H47.4398ZM47.2843 23.1355C47.8597 22.9974 48.2759 22.5042 48.5645 21.7578L48.1863 21.6116C47.9177 22.3062 47.575 22.6488 47.1897 22.7412L47.2843 23.1355ZM48.5644 21.758L51.9508 13.0255L51.5727 12.8789L48.1864 21.6114L48.5644 21.758ZM51.7618 13.155H51.9923V12.7495H51.7618V13.155ZM51.8033 13.0256L55.3193 22.0894L55.6974 21.9428L52.1813 12.8789L51.8033 13.0256ZM53.162 19.0054L51.5481 14.6968L51.1684 14.839L52.7823 19.1476L53.162 19.0054ZM51.1688 14.6957L49.5261 19.0043L49.905 19.1487L51.5477 14.8401L51.1688 14.6957ZM49.7155 19.2792H52.9722V18.8737H49.7155V19.2792ZM16.1885 31.8372H15.9858V32.0142L16.1612 32.0381L16.1885 31.8372ZM18.4509 32.7595L18.3046 32.8998L18.3061 32.9013L18.4509 32.7595ZM18.7103 35.8864L18.8796 35.998V35.998L18.7103 35.8864ZM17.5143 36.8807L17.5966 37.066L17.5994 37.0647L17.5143 36.8807ZM15.0069 37.2122L15.0176 37.0096L15.0133 37.0095L15.0069 37.2122ZM11.4044 37.2266H11.2017V37.4443L11.4189 37.4288L11.4044 37.2266ZM11.4044 36.9384L11.3932 36.7359L11.2017 36.7466V36.9384H11.4044ZM12.1537 36.8231L12.0863 36.6319L12.0826 36.6333L12.1537 36.8231ZM12.4852 27.7592L12.294 27.8267V27.8267L12.4852 27.7592ZM12.1537 27.4278L12.0825 27.6176L12.0863 27.6189L12.1537 27.4278ZM11.4044 27.3125H11.2017V27.5043L11.3932 27.5149L11.4044 27.3125ZM11.4044 27.0243L11.4189 26.8221L11.2017 26.8065V27.0243H11.4044ZM13.1624 27.0675V27.2703L13.1643 27.2702L13.1624 27.0675ZM14.7187 27.0531L14.7206 27.256L14.7294 27.2556L14.7187 27.0531ZM17.5863 27.6583L17.46 27.8169L17.4614 27.818L17.5863 27.6583ZM17.8457 30.7997L17.6877 30.6726L17.686 30.6748L17.8457 30.7997ZM16.1885 31.8084L16.1296 31.6144L15.9858 31.6581V31.8084H16.1885ZM14.3008 27.4134L14.2195 27.2276L14.2151 27.2296L14.3008 27.4134ZM13.9982 27.7736L14.1906 27.8377V27.8377L13.9982 27.7736ZM13.9118 31.8084H13.709V32.0111H13.9118V31.8084ZM16.52 31.1744L16.3565 31.0545L16.356 31.0551L16.52 31.1744ZM17.0676 32.6442L16.9259 32.7893L16.9277 32.7909L17.0676 32.6442ZM13.9118 32.0534V31.8506H13.709V32.0534H13.9118ZM13.9982 36.4628L14.1894 36.3954V36.3954L13.9982 36.4628ZM14.3008 36.8087L14.2151 36.9924L14.2223 36.9957L14.2296 36.9985L14.3008 36.8087ZM16.1612 32.0381C17.1991 32.1796 17.8994 32.4773 18.3046 32.8998L18.5972 32.6191C18.0994 32.1002 17.2914 31.783 16.2159 31.6363L16.1612 32.0381ZM18.3061 32.9013C18.72 33.324 18.9254 33.8301 18.9254 34.431H19.3309C19.3309 33.7255 19.0849 33.1171 18.5958 32.6176L18.3061 32.9013ZM18.9254 34.431C18.9254 34.9423 18.796 35.388 18.541 35.7749L18.8796 35.998C19.1818 35.5395 19.3309 35.0149 19.3309 34.431H18.9254ZM18.541 35.7749C18.2858 36.1621 17.9182 36.4703 17.4291 36.6967L17.5994 37.0647C18.1479 36.8108 18.5776 36.4561 18.8796 35.998L18.541 35.7749ZM17.4319 36.6955C16.9448 36.912 16.3592 37.0238 15.6698 37.0238V37.4293C16.4021 37.4293 17.0463 37.3106 17.5966 37.066L17.4319 36.6955ZM15.6698 37.0238C15.4126 37.0238 15.1954 37.0191 15.0176 37.0097L14.9963 37.4146C15.1835 37.4245 15.4082 37.4293 15.6698 37.4293V37.0238ZM15.0133 37.0095C14.3964 36.9902 13.7891 36.9806 13.1913 36.9806V37.3861C13.7847 37.3861 14.3878 37.3956 15.0006 37.4148L15.0133 37.0095ZM13.1913 36.9806C12.4023 36.9806 11.8009 36.995 11.39 37.0243L11.4189 37.4288C11.8149 37.4005 12.4047 37.3861 13.1913 37.3861V36.9806ZM11.6072 37.2266V36.9384H11.2017V37.2266H11.6072ZM11.4157 37.1408C11.7645 37.1214 12.0405 37.0821 12.2249 37.0129L12.0826 36.6333C11.9595 36.6794 11.736 36.7169 11.3932 36.7359L11.4157 37.1408ZM12.2212 37.0143C12.4424 36.9362 12.5983 36.7803 12.6764 36.5591L12.294 36.4242C12.2568 36.5297 12.1918 36.5947 12.0863 36.6319L12.2212 37.0143ZM12.6764 36.5591C12.7462 36.3612 12.7744 36.0674 12.7744 35.6991H12.3689C12.3689 36.0609 12.3394 36.2955 12.294 36.4242L12.6764 36.5591ZM12.7744 35.6991V28.5517H12.3689V35.6991H12.7744ZM12.7744 28.5517C12.7744 28.1834 12.7462 27.8897 12.6764 27.6917L12.294 27.8267C12.3394 27.9554 12.3689 28.19 12.3689 28.5517H12.7744ZM12.6764 27.6917C12.5983 27.4706 12.4424 27.3146 12.2212 27.2366L12.0863 27.6189C12.1918 27.6562 12.2568 27.7212 12.294 27.8267L12.6764 27.6917ZM12.2249 27.2379C12.0405 27.1688 11.7645 27.1294 11.4157 27.1101L11.3932 27.5149C11.736 27.534 11.9595 27.5715 12.0826 27.6176L12.2249 27.2379ZM11.6072 27.3125V27.0243H11.2017V27.3125H11.6072ZM11.39 27.2265C11.8008 27.2558 12.3925 27.2702 13.1624 27.2702V26.8648C12.3953 26.8648 11.815 26.8504 11.4189 26.8221L11.39 27.2265ZM13.1643 27.2702L14.7206 27.2558L14.7168 26.8504L13.1606 26.8648L13.1643 27.2702ZM14.7294 27.2556C14.9076 27.2462 15.1105 27.2414 15.3384 27.2414V26.836C15.1051 26.836 14.8949 26.8408 14.7081 26.8506L14.7294 27.2556ZM15.3384 27.2414C16.2935 27.2414 16.9908 27.4432 17.46 27.8169L17.7126 27.4997C17.1443 27.0472 16.343 26.836 15.3384 26.836V27.2414ZM17.4614 27.818C17.9397 28.1919 18.1761 28.6801 18.1761 29.3011H18.5816C18.5816 28.5578 18.2897 27.9509 17.7112 27.4986L17.4614 27.818ZM18.1761 29.3011C18.1761 29.8111 18.0148 30.266 17.6877 30.6726L18.0037 30.9268C18.3875 30.4495 18.5816 29.9054 18.5816 29.3011H18.1761ZM17.686 30.6748C17.3745 31.0728 16.8646 31.3911 16.1296 31.6144L16.2475 32.0024C17.0304 31.7645 17.6252 31.4104 18.0054 30.9247L17.686 30.6748ZM15.9858 31.8084V31.8372H16.3913V31.8084H15.9858ZM14.9781 27.1097C14.6707 27.1097 14.4116 27.1436 14.2196 27.2276L14.3821 27.5991C14.4975 27.5486 14.6899 27.5152 14.9781 27.5152V27.1097ZM14.2151 27.2296C14.013 27.3239 13.8783 27.4922 13.8059 27.7095L14.1906 27.8377C14.2334 27.7092 14.3005 27.6373 14.3866 27.5971L14.2151 27.2296ZM13.8059 27.7095C13.7377 27.9141 13.709 28.2 13.709 28.5517H14.1145C14.1145 28.2118 14.1435 27.9789 14.1906 27.8377L13.8059 27.7095ZM13.709 28.5517V31.8084H14.1145V28.5517H13.709ZM13.9118 32.0111H14.8772V31.6057H13.9118V32.0111ZM14.8772 32.0111C15.6956 32.0111 16.3219 31.7914 16.6839 31.2936L16.356 31.0551C16.1032 31.4028 15.6343 31.6057 14.8772 31.6057V32.0111ZM16.6835 31.2943C17.0332 30.8174 17.1982 30.1996 17.1982 29.4596H16.7928C16.7928 30.1413 16.6408 30.6667 16.3565 31.0545L16.6835 31.2943ZM17.1982 29.4596C17.1982 28.714 17.0348 28.1183 16.6713 27.7107L16.3687 27.9806C16.6392 28.2839 16.7928 28.7641 16.7928 29.4596H17.1982ZM16.6713 27.7107C16.3001 27.2946 15.7181 27.1097 14.9781 27.1097V27.5152C15.6599 27.5152 16.1058 27.6859 16.3687 27.9806L16.6713 27.7107ZM14.9925 37.0979C15.9188 37.0979 16.6512 36.8814 17.152 36.4127C17.6554 35.9416 17.8899 35.2488 17.8899 34.3734H17.4844C17.4844 35.1791 17.2698 35.7472 16.875 36.1167C16.4776 36.4885 15.8627 36.6924 14.9925 36.6924V37.0979ZM17.8899 34.3734C17.8899 33.5781 17.6726 32.941 17.2075 32.4975L16.9277 32.7909C17.2886 33.1351 17.4844 33.6509 17.4844 34.3734H17.8899ZM17.2092 32.4991C16.7508 32.0517 16.0388 31.8506 15.1222 31.8506V32.2561C15.9925 32.2561 16.5773 32.4489 16.9259 32.7893L17.2092 32.4991ZM15.1222 31.8506H13.9118V32.2561H15.1222V31.8506ZM13.709 32.0534V35.6991H14.1145V32.0534H13.709ZM13.709 35.6991C13.709 36.0497 13.7374 36.3331 13.807 36.5303L14.1894 36.3954C14.1437 36.266 14.1145 36.0402 14.1145 35.6991H13.709ZM13.807 36.5303C13.881 36.7399 14.017 36.9 14.2151 36.9924L14.3866 36.625C14.2965 36.5829 14.2307 36.5124 14.1894 36.3954L13.807 36.5303ZM14.2296 36.9985C14.4181 37.0692 14.6782 37.0979 14.9925 37.0979V36.6924C14.692 36.6924 14.491 36.6634 14.372 36.6188L14.2296 36.9985ZM24.2242 27.3125L24.2354 27.5149L24.4269 27.5043V27.3125H24.2242ZM23.4605 27.4278L23.393 27.2365L23.3893 27.2379L23.4605 27.4278ZM23.1434 27.7592L23.3346 27.8267V27.8267L23.1434 27.7592ZM23.1434 36.4917L23.3346 36.4242V36.4242L23.1434 36.4917ZM23.4605 36.8231L23.3893 37.0129L23.393 37.0143L23.4605 36.8231ZM24.2242 36.9384H24.4269V36.7466L24.2354 36.7359L24.2242 36.9384ZM24.2242 37.2266L24.211 37.4289L24.4269 37.443V37.2266H24.2242ZM20.5496 37.2266H20.3469V37.4443L20.5641 37.4288L20.5496 37.2266ZM20.5496 36.9384L20.5384 36.7359L20.3469 36.7466V36.9384H20.5496ZM21.299 36.8231L21.2315 36.6319L21.2278 36.6333L21.299 36.8231ZM21.6304 27.7592L21.4392 27.8267V27.8267L21.6304 27.7592ZM21.299 27.4278L21.2278 27.6176L21.2315 27.6189L21.299 27.4278ZM20.5496 27.3125H20.3469V27.5043L20.5384 27.5149L20.5496 27.3125ZM20.5496 27.0243L20.5641 26.8221L20.3469 26.8065V27.0243H20.5496ZM24.2242 27.0243H24.4269V26.8082L24.2113 26.822L24.2242 27.0243ZM24.213 27.1101C23.8631 27.1295 23.5846 27.1689 23.393 27.2366L23.5279 27.6189C23.6629 27.5713 23.8937 27.5339 24.2354 27.5149L24.213 27.1101ZM23.3893 27.2379C23.176 27.3179 23.0286 27.4754 22.9523 27.6917L23.3346 27.8267C23.3736 27.7163 23.4375 27.6529 23.5317 27.6176L23.3893 27.2379ZM22.9523 27.6917C22.8824 27.8897 22.8543 28.1834 22.8543 28.5517H23.2597C23.2597 28.19 23.2892 27.9554 23.3346 27.8267L22.9523 27.6917ZM22.8543 28.5517V35.6991H23.2597V28.5517H22.8543ZM22.8543 35.6991C22.8543 36.0674 22.8824 36.3612 22.9523 36.5591L23.3346 36.4242C23.2892 36.2955 23.2597 36.0609 23.2597 35.6991H22.8543ZM22.9523 36.5591C23.0286 36.7754 23.176 36.9329 23.3893 37.0129L23.5317 36.6333C23.4375 36.5979 23.3736 36.5345 23.3346 36.4242L22.9523 36.5591ZM23.393 37.0143C23.5846 37.0819 23.8631 37.1213 24.213 37.1408L24.2354 36.7359C23.8937 36.7169 23.6629 36.6795 23.5279 36.6319L23.393 37.0143ZM24.0215 36.9384V37.2266H24.4269V36.9384H24.0215ZM24.2374 37.0243C23.789 36.995 23.1739 36.9806 22.3941 36.9806V37.3861C23.1706 37.3861 23.7756 37.4005 24.211 37.4289L24.2374 37.0243ZM22.3941 36.9806C21.567 36.9806 20.9462 36.995 20.5352 37.0243L20.5641 37.4288C20.96 37.4005 21.5689 37.3861 22.3941 37.3861V36.9806ZM20.7524 37.2266V36.9384H20.3469V37.2266H20.7524ZM20.5609 37.1408C20.9097 37.1214 21.1858 37.0821 21.3702 37.0129L21.2278 36.6333C21.1048 36.6794 20.8813 36.7169 20.5384 36.7359L20.5609 37.1408ZM21.3664 37.0143C21.5876 36.9362 21.7435 36.7803 21.8216 36.5591L21.4392 36.4242C21.402 36.5297 21.337 36.5947 21.2315 36.6319L21.3664 37.0143ZM21.8216 36.5591C21.8914 36.3612 21.9196 36.0674 21.9196 35.6991H21.5141C21.5141 36.0609 21.4846 36.2955 21.4392 36.4242L21.8216 36.5591ZM21.9196 35.6991V28.5517H21.5141V35.6991H21.9196ZM21.9196 28.5517C21.9196 28.1834 21.8914 27.8897 21.8216 27.6917L21.4392 27.8267C21.4846 27.9554 21.5141 28.19 21.5141 28.5517H21.9196ZM21.8216 27.6917C21.7435 27.4706 21.5876 27.3146 21.3664 27.2366L21.2315 27.6189C21.337 27.6562 21.402 27.7212 21.4392 27.8267L21.8216 27.6917ZM21.3702 27.2379C21.1858 27.1688 20.9097 27.1294 20.5609 27.1101L20.5384 27.5149C20.8813 27.534 21.1048 27.5715 21.2278 27.6176L21.3702 27.2379ZM20.7524 27.3125V27.0243H20.3469V27.3125H20.7524ZM20.5352 27.2265C20.9462 27.2559 21.567 27.2702 22.3941 27.2702V26.8648C21.5689 26.8648 20.96 26.8503 20.5641 26.8221L20.5352 27.2265ZM22.3941 27.2702C23.1644 27.2702 23.7794 27.2558 24.2371 27.2266L24.2113 26.822C23.766 26.8504 23.1609 26.8648 22.3941 26.8648V27.2702ZM24.0215 27.0243V27.3125H24.4269V27.0243H24.0215ZM30.4825 31.8372H30.2797V32.0142L30.4551 32.0381L30.4825 31.8372ZM32.7448 32.7595L32.5985 32.8998L32.6 32.9013L32.7448 32.7595ZM33.0042 35.8864L33.1735 35.998V35.998L33.0042 35.8864ZM31.8082 36.8807L31.8905 37.066L31.8934 37.0647L31.8082 36.8807ZM29.3008 37.2122L29.3115 37.0096L29.3072 37.0095L29.3008 37.2122ZM25.6984 37.2266H25.4956V37.4443L25.7128 37.4288L25.6984 37.2266ZM25.6984 36.9384L25.6871 36.7359L25.4956 36.7466V36.9384H25.6984ZM26.4477 36.8231L26.3802 36.6319L26.3765 36.6333L26.4477 36.8231ZM26.7791 27.7592L26.5879 27.8267V27.8267L26.7791 27.7592ZM26.4477 27.4278L26.3765 27.6176L26.3802 27.6189L26.4477 27.4278ZM25.6984 27.3125H25.4956V27.5043L25.6871 27.5149L25.6984 27.3125ZM25.6984 27.0243L25.7128 26.8221L25.4956 26.8065V27.0243H25.6984ZM27.4564 27.0675V27.2703L27.4582 27.2702L27.4564 27.0675ZM29.0126 27.0531L29.0145 27.256L29.0233 27.2556L29.0126 27.0531ZM31.8802 27.6583L31.7539 27.8169L31.7554 27.818L31.8802 27.6583ZM32.1396 30.7997L31.9816 30.6726L31.98 30.6748L32.1396 30.7997ZM30.4825 31.8084L30.4235 31.6144L30.2797 31.6581V31.8084H30.4825ZM28.5948 27.4134L28.5135 27.2276L28.509 27.2296L28.5948 27.4134ZM28.2922 27.7736L28.4845 27.8377V27.8377L28.2922 27.7736ZM28.2057 31.8084H28.003V32.0111H28.2057V31.8084ZM30.8139 31.1744L30.6504 31.0545L30.6499 31.0551L30.8139 31.1744ZM31.3615 32.6442L31.2199 32.7893L31.2216 32.7909L31.3615 32.6442ZM28.2057 32.0534V31.8506H28.003V32.0534H28.2057ZM28.2922 36.4628L28.4833 36.3954V36.3954L28.2922 36.4628ZM28.5948 36.8087L28.509 36.9924L28.5162 36.9957L28.5236 36.9985L28.5948 36.8087ZM30.4551 32.0381C31.4931 32.1796 32.1933 32.4773 32.5985 32.8998L32.8912 32.6191C32.3934 32.1002 31.5853 31.783 30.5099 31.6363L30.4551 32.0381ZM32.6 32.9013C33.0139 33.324 33.2194 33.8301 33.2194 34.431H33.6248C33.6248 33.7255 33.3788 33.1171 32.8897 32.6176L32.6 32.9013ZM33.2194 34.431C33.2194 34.9423 33.0899 35.388 32.8349 35.7749L33.1735 35.998C33.4757 35.5395 33.6248 35.0149 33.6248 34.431H33.2194ZM32.8349 35.7749C32.5797 36.1621 32.2121 36.4703 31.723 36.6967L31.8934 37.0647C32.4418 36.8108 32.8716 36.4561 33.1735 35.998L32.8349 35.7749ZM31.7259 36.6955C31.2387 36.912 30.6532 37.0238 29.9637 37.0238V37.4293C30.696 37.4293 31.3402 37.3106 31.8905 37.066L31.7259 36.6955ZM29.9637 37.0238C29.7065 37.0238 29.4894 37.0191 29.3115 37.0097L29.2902 37.4146C29.4774 37.4245 29.7021 37.4293 29.9637 37.4293V37.0238ZM29.3072 37.0095C28.6903 36.9902 28.083 36.9806 27.4852 36.9806V37.3861C28.0786 37.3861 28.6817 37.3956 29.2945 37.4148L29.3072 37.0095ZM27.4852 36.9806C26.6962 36.9806 26.0948 36.995 25.6839 37.0243L25.7128 37.4288C26.1089 37.4005 26.6987 37.3861 27.4852 37.3861V36.9806ZM25.9011 37.2266V36.9384H25.4956V37.2266H25.9011ZM25.7096 37.1408C26.0584 37.1214 26.3345 37.0821 26.5189 37.0129L26.3765 36.6333C26.2535 36.6794 26.03 36.7169 25.6871 36.7359L25.7096 37.1408ZM26.5151 37.0143C26.7363 36.9362 26.8922 36.7803 26.9703 36.5591L26.5879 36.4242C26.5507 36.5297 26.4857 36.5947 26.3802 36.6319L26.5151 37.0143ZM26.9703 36.5591C27.0401 36.3612 27.0683 36.0674 27.0683 35.6991H26.6628C26.6628 36.0609 26.6333 36.2955 26.5879 36.4242L26.9703 36.5591ZM27.0683 35.6991V28.5517H26.6628V35.6991H27.0683ZM27.0683 28.5517C27.0683 28.1834 27.0401 27.8897 26.9703 27.6917L26.5879 27.8267C26.6333 27.9554 26.6628 28.19 26.6628 28.5517H27.0683ZM26.9703 27.6917C26.8922 27.4706 26.7363 27.3146 26.5151 27.2366L26.3802 27.6189C26.4857 27.6562 26.5507 27.7212 26.5879 27.8267L26.9703 27.6917ZM26.5189 27.2379C26.3345 27.1688 26.0584 27.1294 25.7096 27.1101L25.6871 27.5149C26.03 27.534 26.2535 27.5715 26.3765 27.6176L26.5189 27.2379ZM25.9011 27.3125V27.0243H25.4956V27.3125H25.9011ZM25.6839 27.2265C26.0947 27.2558 26.6865 27.2702 27.4564 27.2702V26.8648C26.6892 26.8648 26.1089 26.8504 25.7128 26.8221L25.6839 27.2265ZM27.4582 27.2702L29.0145 27.2558L29.0108 26.8504L27.4545 26.8648L27.4582 27.2702ZM29.0233 27.2556C29.2015 27.2462 29.4044 27.2414 29.6323 27.2414V26.836C29.399 26.836 29.1888 26.8408 29.002 26.8506L29.0233 27.2556ZM29.6323 27.2414C30.5874 27.2414 31.2847 27.4432 31.754 27.8169L32.0065 27.4997C31.4383 27.0472 30.6369 26.836 29.6323 26.836V27.2414ZM31.7554 27.818C32.2336 28.1919 32.4701 28.6801 32.4701 29.3011H32.8755C32.8755 28.5578 32.5836 27.9509 32.0051 27.4986L31.7554 27.818ZM32.4701 29.3011C32.4701 29.8111 32.3087 30.266 31.9816 30.6726L32.2976 30.9268C32.6814 30.4495 32.8755 29.9054 32.8755 29.3011H32.4701ZM31.98 30.6748C31.6684 31.0728 31.1585 31.3911 30.4235 31.6144L30.5414 32.0024C31.3243 31.7645 31.9191 31.4104 32.2993 30.9247L31.98 30.6748ZM30.2797 31.8084V31.8372H30.6852V31.8084H30.2797ZM29.272 27.1097C28.9646 27.1097 28.7055 27.1436 28.5135 27.2276L28.676 27.5991C28.7914 27.5486 28.9838 27.5152 29.272 27.5152V27.1097ZM28.509 27.2296C28.3069 27.3239 28.1722 27.4922 28.0998 27.7095L28.4845 27.8377C28.5273 27.7092 28.5944 27.6373 28.6805 27.5971L28.509 27.2296ZM28.0998 27.7095C28.0316 27.9141 28.003 28.2 28.003 28.5517H28.4084C28.4084 28.2118 28.4374 27.9789 28.4845 27.8377L28.0998 27.7095ZM28.003 28.5517V31.8084H28.4084V28.5517H28.003ZM28.2057 32.0111H29.1712V31.6057H28.2057V32.0111ZM29.1712 32.0111C29.9895 32.0111 30.6159 31.7914 30.9779 31.2936L30.6499 31.0551C30.3971 31.4028 29.9283 31.6057 29.1712 31.6057V32.0111ZM30.9774 31.2943C31.3271 30.8174 31.4922 30.1996 31.4922 29.4596H31.0867C31.0867 30.1413 30.9348 30.6667 30.6504 31.0545L30.9774 31.2943ZM31.4922 29.4596C31.4922 28.714 31.3288 28.1183 30.9652 27.7107L30.6626 27.9806C30.9331 28.2839 31.0867 28.7641 31.0867 29.4596H31.4922ZM30.9652 27.7107C30.594 27.2946 30.012 27.1097 29.272 27.1097V27.5152C29.9538 27.5152 30.3997 27.6859 30.6626 27.9806L30.9652 27.7107ZM29.2864 37.0979C30.2127 37.0979 30.9451 36.8814 31.446 36.4127C31.9494 35.9416 32.1838 35.2488 32.1838 34.3734H31.7784C31.7784 35.1791 31.5638 35.7472 31.1689 36.1167C30.7715 36.4885 30.1566 36.6924 29.2864 36.6924V37.0979ZM32.1838 34.3734C32.1838 33.5781 31.9666 32.941 31.5014 32.4975L31.2216 32.7909C31.5826 33.1351 31.7784 33.6509 31.7784 34.3734H32.1838ZM31.5031 32.4991C31.0448 32.0517 30.3327 31.8506 29.4161 31.8506V32.2561C30.2864 32.2561 30.8712 32.4489 31.2199 32.7893L31.5031 32.4991ZM29.4161 31.8506H28.2057V32.2561H29.4161V31.8506ZM28.003 32.0534V35.6991H28.4084V32.0534H28.003ZM28.003 35.6991C28.003 36.0497 28.0314 36.3331 28.101 36.5303L28.4833 36.3954C28.4377 36.266 28.4084 36.0402 28.4084 35.6991H28.003ZM28.101 36.5303C28.1749 36.7399 28.3109 36.9 28.509 36.9924L28.6805 36.625C28.5904 36.5829 28.5246 36.5124 28.4833 36.3954L28.101 36.5303ZM28.5236 36.9985C28.712 37.0692 28.9721 37.0979 29.2864 37.0979V36.6924C28.9859 36.6924 28.7849 36.6634 28.6659 36.6188L28.5236 36.9985ZM38.5181 27.3125L38.5294 27.5149L38.7209 27.5043V27.3125H38.5181ZM37.7544 27.4278L37.6869 27.2365L37.6832 27.2379L37.7544 27.4278ZM37.4374 27.7592L37.6286 27.8267V27.8267L37.4374 27.7592ZM37.4374 36.4917L37.6286 36.4242V36.4242L37.4374 36.4917ZM37.7544 36.8231L37.6832 37.0129L37.6901 37.0155L37.6972 37.0176L37.7544 36.8231ZM40.9246 36.6502L41.0197 36.8292L41.0217 36.8281L40.9246 36.6502ZM41.6163 35.8288L41.8055 35.9016V35.9016L41.6163 35.8288ZM41.9333 34.2005V33.9977H41.7488L41.7315 34.1814L41.9333 34.2005ZM42.2647 34.2005L42.4665 34.22L42.488 33.9977H42.2647V34.2005ZM42.3224 37.2266L42.3134 37.4291L42.5471 37.4394L42.5241 37.2067L42.3224 37.2266ZM34.8436 37.2266H34.6408V37.4356L34.8498 37.4292L34.8436 37.2266ZM34.8436 36.9384L34.8323 36.7359L34.6408 36.7466V36.9384H34.8436ZM35.5929 36.8231L35.5254 36.6319L35.5217 36.6333L35.5929 36.8231ZM35.9243 27.7592L35.7331 27.8267V27.8267L35.9243 27.7592ZM35.5929 27.4278L35.5217 27.6176L35.5254 27.6189L35.5929 27.4278ZM34.8436 27.3125H34.6408V27.5043L34.8323 27.5149L34.8436 27.3125ZM34.8436 27.0243L34.858 26.8221L34.6408 26.8065V27.0243H34.8436ZM38.5181 27.0243H38.7209V26.8082L38.5052 26.822L38.5181 27.0243ZM38.5069 27.1101C38.157 27.1295 37.8786 27.1689 37.6869 27.2366L37.8219 27.6189C37.9569 27.5713 38.1876 27.5339 38.5294 27.5149L38.5069 27.1101ZM37.6832 27.2379C37.4699 27.3179 37.3225 27.4754 37.2462 27.6917L37.6286 27.8267C37.6675 27.7163 37.7314 27.6529 37.8256 27.6176L37.6832 27.2379ZM37.2462 27.6917C37.1763 27.8897 37.1482 28.1834 37.1482 28.5517H37.5536C37.5536 28.19 37.5831 27.9554 37.6286 27.8267L37.2462 27.6917ZM37.1482 28.5517V35.6991H37.5536V28.5517H37.1482ZM37.1482 35.6991C37.1482 36.0674 37.1763 36.3612 37.2462 36.5591L37.6286 36.4242C37.5831 36.2955 37.5536 36.0609 37.5536 35.6991H37.1482ZM37.2462 36.5591C37.3225 36.7754 37.4699 36.9329 37.6832 37.0129L37.8256 36.6333C37.7314 36.5979 37.6675 36.5345 37.6286 36.4242L37.2462 36.5591ZM37.6972 37.0176C37.8897 37.0742 38.1686 37.0979 38.5181 37.0979V36.6924C38.176 36.6924 37.9457 36.668 37.8116 36.6286L37.6972 37.0176ZM38.5181 37.0979H39.5701V36.6924H38.5181V37.0979ZM39.5701 37.0979C40.1783 37.0979 40.6691 37.0155 41.0197 36.8292L40.8295 36.4711C40.5653 36.6115 40.153 36.6924 39.5701 36.6924V37.0979ZM41.0217 36.8281C41.3857 36.6296 41.6462 36.3158 41.8055 35.9016L41.4271 35.756C41.2982 36.0911 41.0975 36.3249 40.8275 36.4722L41.0217 36.8281ZM41.8055 35.9016C41.9595 35.5013 42.0673 34.9369 42.1351 34.2196L41.7315 34.1814C41.6648 34.8858 41.5613 35.407 41.4271 35.756L41.8055 35.9016ZM41.9333 34.4032H42.2647V33.9977H41.9333V34.4032ZM42.0629 34.1809C42.0332 34.488 42.0188 34.8892 42.0188 35.3821H42.4242C42.4242 34.8951 42.4386 34.5085 42.4665 34.22L42.0629 34.1809ZM42.0188 35.3821C42.0188 35.9377 42.0529 36.5593 42.1206 37.2465L42.5241 37.2067C42.4574 36.5296 42.4242 35.9216 42.4242 35.3821H42.0188ZM42.3313 37.024C41.6731 36.995 40.5692 36.9806 39.0225 36.9806V37.3861C40.5691 37.3861 41.6651 37.4005 42.3134 37.4291L42.3313 37.024ZM39.0225 36.9806C37.1775 36.9806 35.782 36.995 34.8374 37.0239L34.8498 37.4292C35.788 37.4005 37.1785 37.3861 39.0225 37.3861V36.9806ZM35.0463 37.2266V36.9384H34.6408V37.2266H35.0463ZM34.8548 37.1408C35.2036 37.1214 35.4797 37.0821 35.6641 37.0129L35.5217 36.6333C35.3987 36.6794 35.1752 36.7169 34.8323 36.7359L34.8548 37.1408ZM35.6604 37.0143C35.8815 36.9362 36.0375 36.7803 36.1155 36.5591L35.7331 36.4242C35.6959 36.5297 35.6309 36.5947 35.5254 36.6319L35.6604 37.0143ZM36.1155 36.5591C36.1854 36.3612 36.2135 36.0674 36.2135 35.6991H35.808C35.808 36.0609 35.7786 36.2955 35.7331 36.4242L36.1155 36.5591ZM36.2135 35.6991V28.5517H35.808V35.6991H36.2135ZM36.2135 28.5517C36.2135 28.1834 36.1854 27.8897 36.1155 27.6917L35.7331 27.8267C35.7786 27.9554 35.808 28.19 35.808 28.5517H36.2135ZM36.1155 27.6917C36.0375 27.4706 35.8815 27.3146 35.6604 27.2366L35.5254 27.6189C35.6309 27.6562 35.6959 27.7212 35.7331 27.8267L36.1155 27.6917ZM35.6641 27.2379C35.4797 27.1688 35.2036 27.1294 34.8548 27.1101L34.8323 27.5149C35.1752 27.534 35.3987 27.5715 35.5217 27.6176L35.6641 27.2379ZM35.0463 27.3125V27.0243H34.6408V27.3125H35.0463ZM34.8291 27.2265C35.2401 27.2559 35.8609 27.2702 36.6881 27.2702V26.8648C35.8628 26.8648 35.254 26.8503 34.858 26.8221L34.8291 27.2265ZM36.6881 27.2702C37.4584 27.2702 38.0733 27.2558 38.531 27.2266L38.5052 26.822C38.0599 26.8504 37.4548 26.8648 36.6881 26.8648V27.2702ZM38.3154 27.0243V27.3125H38.7209V27.0243H38.3154ZM47.2553 27.3125L47.2665 27.5149L47.458 27.5043V27.3125H47.2553ZM46.4915 27.4278L46.424 27.2365L46.4203 27.2379L46.4915 27.4278ZM46.1745 27.7592L46.3657 27.8267V27.8267L46.1745 27.7592ZM46.1745 36.4917L46.3657 36.4242V36.4242L46.1745 36.4917ZM46.4915 36.8231L46.4203 37.0129L46.4241 37.0143L46.4915 36.8231ZM47.2553 36.9384H47.458V36.7466L47.2665 36.7359L47.2553 36.9384ZM47.2553 37.2266L47.2421 37.4289L47.458 37.443V37.2266H47.2553ZM43.5807 37.2266H43.378V37.4443L43.5951 37.4288L43.5807 37.2266ZM43.5807 36.9384L43.5695 36.7359L43.378 36.7466V36.9384H43.5807ZM44.33 36.8231L44.2625 36.6319L44.2588 36.6333L44.33 36.8231ZM44.6615 27.7592L44.4703 27.8267V27.8267L44.6615 27.7592ZM44.33 27.4278L44.2588 27.6176L44.2626 27.6189L44.33 27.4278ZM43.5807 27.3125H43.378V27.5043L43.5695 27.5149L43.5807 27.3125ZM43.5807 27.0243L43.5951 26.8221L43.378 26.8065V27.0243H43.5807ZM47.2553 27.0243H47.458V26.8082L47.2423 26.822L47.2553 27.0243ZM47.244 27.1101C46.8941 27.1295 46.6157 27.1689 46.4241 27.2366L46.559 27.6189C46.694 27.5713 46.9247 27.5339 47.2665 27.5149L47.244 27.1101ZM46.4203 27.2379C46.2071 27.3179 46.0597 27.4754 45.9833 27.6917L46.3657 27.8267C46.4046 27.7163 46.4686 27.6529 46.5627 27.6176L46.4203 27.2379ZM45.9833 27.6917C45.9135 27.8897 45.8853 28.1834 45.8853 28.5517H46.2908C46.2908 28.19 46.3203 27.9554 46.3657 27.8267L45.9833 27.6917ZM45.8853 28.5517V35.6991H46.2908V28.5517H45.8853ZM45.8853 35.6991C45.8853 36.0674 45.9135 36.3612 45.9833 36.5591L46.3657 36.4242C46.3203 36.2955 46.2908 36.0609 46.2908 35.6991H45.8853ZM45.9833 36.5591C46.0597 36.7754 46.2071 36.9329 46.4203 37.0129L46.5627 36.6333C46.4686 36.5979 46.4046 36.5345 46.3657 36.4242L45.9833 36.5591ZM46.4241 37.0143C46.6157 37.0819 46.8941 37.1213 47.244 37.1408L47.2665 36.7359C46.9247 36.7169 46.694 36.6795 46.559 36.6319L46.4241 37.0143ZM47.0525 36.9384V37.2266H47.458V36.9384H47.0525ZM47.2685 37.0243C46.8201 36.995 46.205 36.9806 45.4252 36.9806V37.3861C46.2017 37.3861 46.8066 37.4005 47.2421 37.4289L47.2685 37.0243ZM45.4252 36.9806C44.5981 36.9806 43.9773 36.995 43.5663 37.0243L43.5951 37.4288C43.9911 37.4005 44.6 37.3861 45.4252 37.3861V36.9806ZM43.7834 37.2266V36.9384H43.378V37.2266H43.7834ZM43.592 37.1408C43.9408 37.1214 44.2168 37.0821 44.4012 37.0129L44.2588 36.6333C44.1358 36.6794 43.9123 36.7169 43.5695 36.7359L43.592 37.1408ZM44.3975 37.0143C44.6186 36.9362 44.7746 36.7803 44.8526 36.5591L44.4703 36.4242C44.433 36.5297 44.368 36.5947 44.2626 36.6319L44.3975 37.0143ZM44.8526 36.5591C44.9225 36.3612 44.9507 36.0674 44.9507 35.6991H44.5452C44.5452 36.0609 44.5157 36.2955 44.4703 36.4242L44.8526 36.5591ZM44.9507 35.6991V28.5517H44.5452V35.6991H44.9507ZM44.9507 28.5517C44.9507 28.1834 44.9225 27.8897 44.8526 27.6917L44.4703 27.8267C44.5157 27.9554 44.5452 28.19 44.5452 28.5517H44.9507ZM44.8526 27.6917C44.7746 27.4706 44.6186 27.3146 44.3975 27.2366L44.2626 27.6189C44.368 27.6562 44.433 27.7212 44.4703 27.8267L44.8526 27.6917ZM44.4012 27.2379C44.2168 27.1688 43.9408 27.1294 43.592 27.1101L43.5695 27.5149C43.9123 27.534 44.1358 27.5715 44.2588 27.6176L44.4012 27.2379ZM43.7834 27.3125V27.0243H43.378V27.3125H43.7834ZM43.5663 27.2265C43.9773 27.2559 44.5981 27.2702 45.4252 27.2702V26.8648C44.6 26.8648 43.9911 26.8503 43.5951 26.8221L43.5663 27.2265ZM45.4252 27.2702C46.1955 27.2702 46.8104 27.2558 47.2682 27.2266L47.2423 26.822C46.7971 26.8504 46.1919 26.8648 45.4252 26.8648V27.2702ZM47.0525 27.0243V27.3125H47.458V27.0243H47.0525ZM56.2947 36.0161L56.4837 35.9429L56.4837 35.9428L56.2947 36.0161ZM57.2889 36.9384H57.4917V36.7444L57.2979 36.7358L57.2889 36.9384ZM57.2889 37.2266L57.2738 37.4287L57.4917 37.4451V37.2266H57.2889ZM53.9026 37.2266H53.6999V37.4443L53.917 37.4288L53.9026 37.2266ZM53.9026 36.9384L53.8919 36.7359L53.6999 36.746V36.9384H53.9026ZM54.6807 36.8087L54.762 36.9945L54.7671 36.9921L54.6807 36.8087ZM54.7528 35.7279L54.5627 35.7986L54.5645 35.8032L54.7528 35.7279ZM53.8738 33.3647L54.0638 33.294L54.0147 33.1619H53.8738V33.3647ZM50.3866 33.3647V33.1619H50.2476L50.1975 33.2915L50.3866 33.3647ZM49.7957 34.8921L49.6066 34.819L49.6056 34.8217L49.7957 34.8921ZM49.8102 36.7222L49.6977 36.8909L49.7013 36.8933L49.8102 36.7222ZM50.7612 36.9384H50.964V36.7402L50.7658 36.7357L50.7612 36.9384ZM50.7612 37.2266L50.7506 37.429L50.964 37.4403V37.2266H50.7612ZM48.0233 37.2266H47.8206V37.4506L48.0435 37.4283L48.0233 37.2266ZM48.0233 36.9384L47.976 36.7412L47.8206 36.7785V36.9384H48.0233ZM49.1617 35.6847L48.9727 35.6114L48.9726 35.6116L49.1617 35.6847ZM52.5481 26.9522V26.7495H52.4092L52.359 26.8789L52.5481 26.9522ZM52.7786 26.9522L52.9676 26.8789L52.9174 26.7495H52.7786V26.9522ZM53.7585 33.0765V33.2792H54.0509L53.9483 33.0054L53.7585 33.0765ZM52.1446 28.7679L52.3344 28.6968L52.1463 28.1944L51.9551 28.6957L52.1446 28.7679ZM50.5018 33.0765L50.3124 33.0043L50.2076 33.2792H50.5018V33.0765ZM56.1056 36.0893C56.3493 36.7189 56.7309 37.1165 57.2799 37.1409L57.2979 36.7358C56.9823 36.7218 56.7011 36.5046 56.4837 35.9429L56.1056 36.0893ZM57.0862 36.9384V37.2266H57.4917V36.9384H57.0862ZM57.3041 37.0244C56.9126 36.995 56.3929 36.9806 55.7471 36.9806V37.3861C56.3885 37.3861 56.8968 37.4005 57.2738 37.4287L57.3041 37.0244ZM55.7471 36.9806C54.92 36.9806 54.2992 36.995 53.8881 37.0243L53.917 37.4288C54.313 37.4005 54.9218 37.3861 55.7471 37.3861V36.9806ZM54.1053 37.2266V36.9384H53.6999V37.2266H54.1053ZM53.9132 37.1408C54.2808 37.1215 54.5721 37.0775 54.762 36.9944L54.5995 36.6229C54.4819 36.6744 54.2545 36.7168 53.8919 36.7359L53.9132 37.1408ZM54.7671 36.9921C54.8793 36.9393 54.9733 36.8615 55.0378 36.7554C55.1017 36.6501 55.1284 36.5302 55.1284 36.4052H54.723C54.723 36.4724 54.7089 36.5158 54.6912 36.5449C54.6739 36.5733 54.6455 36.6012 54.5944 36.6252L54.7671 36.9921ZM55.1284 36.4052C55.1284 36.2022 55.0588 35.9472 54.941 35.6526L54.5645 35.8032C54.6773 36.0851 54.723 36.2816 54.723 36.4052H55.1284ZM54.9428 35.6572L54.0638 33.294L53.6838 33.4354L54.5628 35.7986L54.9428 35.6572ZM53.8738 33.1619H50.3866V33.5674H53.8738V33.1619ZM50.1975 33.2915L49.6067 34.819L49.9848 34.9653L50.5756 33.4378L50.1975 33.2915ZM49.6056 34.8217C49.4121 35.3444 49.3048 35.7667 49.3048 36.0738H49.7103C49.7103 35.8429 49.7952 35.4775 49.9859 34.9626L49.6056 34.8217ZM49.3048 36.0738C49.3048 36.4217 49.4263 36.71 49.6977 36.8909L49.9226 36.5535C49.7905 36.4655 49.7103 36.3214 49.7103 36.0738H49.3048ZM49.7013 36.8933C49.9586 37.057 50.3195 37.1311 50.7566 37.141L50.7658 36.7357C50.3576 36.7264 50.0844 36.6565 49.919 36.5512L49.7013 36.8933ZM50.5585 36.9384V37.2266H50.964V36.9384H50.5585ZM50.7719 37.0241C50.2207 36.9951 49.6647 36.9806 49.1041 36.9806V37.3861C49.6578 37.3861 50.2066 37.4004 50.7506 37.429L50.7719 37.0241ZM49.1041 36.9806C48.668 36.9806 48.3004 36.9951 48.0031 37.0248L48.0435 37.4283C48.3226 37.4004 48.6756 37.3861 49.1041 37.3861V36.9806ZM48.2261 37.2266V36.9384H47.8206V37.2266H48.2261ZM48.0706 37.1355C48.646 36.9974 49.0622 36.5042 49.3508 35.7578L48.9726 35.6116C48.704 36.3062 48.3613 36.6488 47.976 36.7412L48.0706 37.1355ZM49.3507 35.758L52.7371 27.0255L52.359 26.8789L48.9727 35.6114L49.3507 35.758ZM52.5481 27.155H52.7786V26.7495H52.5481V27.155ZM52.5896 27.0256L56.1056 36.0894L56.4837 35.9428L52.9676 26.8789L52.5896 27.0256ZM53.9483 33.0054L52.3344 28.6968L51.9547 28.839L53.5686 33.1476L53.9483 33.0054ZM51.9551 28.6957L50.3124 33.0043L50.6913 33.1487L52.334 28.8401L51.9551 28.6957ZM50.5018 33.2792H53.7585V32.8737H50.5018V33.2792Z" fill="#FEF5EB" mask="url(#path-5-outside-1_23632_22741)"/>
</g>
</g>
<defs>
<linearGradient id="paint0_linear_23632_22741" x1="34" y1="-1.04141e-05" x2="34" y2="68" gradientUnits="userSpaceOnUse">
<stop stop-color="#C93D34"/>
<stop offset="1" stop-color="#7A2629"/>
</linearGradient>
<linearGradient id="paint1_linear_23632_22741" x1="34" y1="-1.04141e-05" x2="34" y2="68" gradientUnits="userSpaceOnUse">
<stop stop-color="#C93D34"/>
<stop offset="1" stop-color="#7A2629"/>
</linearGradient>
<clipPath id="clip0_23632_22741">
<rect width="68" height="68" fill="white"/>
</clipPath>
</defs>
</svg>
