<svg width="68" height="68" viewBox="0 0 68 68" fill="none" xmlns="http://www.w3.org/2000/svg">
<g clip-path="url(#clip0_23668_7509)">
<mask id="mask0_23668_7509" style="mask-type:alpha" maskUnits="userSpaceOnUse" x="0" y="0" width="68" height="68">
<path fill-rule="evenodd" clip-rule="evenodd" d="M47.0333 0H20.9667C13.5811 0 8.89667 0.0377779 4.45778 4.45778C0.018889 8.89667 0 13.6 0 20.9667V47.0333C0 54.4189 0.0377779 59.1033 4.45778 63.5422C8.89667 67.9811 13.6 68 20.9667 68H47.0333C54.4189 68 59.1033 67.9811 63.5422 63.5422C67.9622 59.1033 68 54.4 68 47.0333V20.9667C68 13.5811 67.9622 8.89667 63.5422 4.45778C59.1033 0.018889 54.4 0 47.0333 0Z" fill="url(#paint0_linear_23668_7509)"/>
</mask>
<g mask="url(#mask0_23668_7509)">
<rect width="68" height="68" fill="url(#paint1_linear_23668_7509)"/>
<path fill-rule="evenodd" clip-rule="evenodd" d="M15.6212 64.3732C26.4256 64.3732 45.6357 64.3732 45.6357 64.3732C52.5868 64.3732 57.0823 64.6377 61.2379 60.4443C64.8079 56.8743 64.5057 50.8677 64.7323 46.1077C60.709 52.1521 53.3234 51.9443 47.619 51.9443C47.619 51.9443 20.929 51.9443 10.9556 51.9443C0.982316 51.9632 4.81676 64.3732 15.6212 64.3732Z" fill="#FEF5EB"/>
<path d="M12.4854 53.531H23.1387V61.521L17.812 58.8577L12.4854 61.521V53.531Z" fill="#F19C33"/>
<mask id="path-5-outside-1_23668_7509" maskUnits="userSpaceOnUse" x="11.1016" y="19.2266" width="47" height="12" fill="black">
<rect fill="white" x="11.1016" y="19.2266" width="47" height="12"/>
<path d="M16.1884 24.8372C17.2451 24.9813 17.9992 25.2887 18.4508 25.7594C18.9023 26.2205 19.128 26.7777 19.128 27.431C19.128 27.9786 18.9887 28.4637 18.7101 28.8864C18.4315 29.3091 18.0329 29.6405 17.5141 29.8807C16.9953 30.1113 16.3805 30.2266 15.6696 30.2266C15.4102 30.2266 15.1893 30.2218 15.0067 30.2122C14.3919 30.1929 13.7867 30.1833 13.191 30.1833C12.4033 30.1833 11.8077 30.1977 11.4042 30.2266V29.9384C11.75 29.9191 11.9998 29.8807 12.1535 29.8231C12.3168 29.7654 12.4273 29.655 12.4849 29.4916C12.5426 29.3283 12.5714 29.0641 12.5714 28.6991V21.5516C12.5714 21.1866 12.5426 20.9224 12.4849 20.7591C12.4273 20.5958 12.3168 20.4853 12.1535 20.4277C11.9998 20.37 11.75 20.3316 11.4042 20.3124V20.0242C11.8077 20.053 12.3937 20.0674 13.1622 20.0674L14.7185 20.053C14.9011 20.0434 15.1076 20.0386 15.3382 20.0386C16.318 20.0386 17.0674 20.2451 17.5861 20.6582C18.1145 21.0713 18.3787 21.6189 18.3787 22.301C18.3787 22.8582 18.201 23.3577 17.8455 23.7996C17.4997 24.2415 16.9473 24.5778 16.1884 24.8083V24.8372ZM14.9779 20.3124C14.6801 20.3124 14.4543 20.346 14.3006 20.4132C14.1565 20.4805 14.0557 20.6006 13.998 20.7735C13.9404 20.9464 13.9116 21.2058 13.9116 21.5516V24.8083H14.877C15.6648 24.8083 16.2124 24.597 16.5198 24.1743C16.8368 23.742 16.9953 23.1704 16.9953 22.4595C16.9953 21.739 16.8368 21.201 16.5198 20.8456C16.2028 20.4901 15.6888 20.3124 14.9779 20.3124ZM14.9923 29.8951C16.7888 29.8951 17.687 29.0545 17.687 27.3734C17.687 26.6144 17.4805 26.038 17.0674 25.6441C16.6639 25.2503 16.0154 25.0533 15.122 25.0533H13.9116V28.6991C13.9116 29.0449 13.9404 29.2995 13.998 29.4628C14.0557 29.6261 14.1565 29.7414 14.3006 29.8087C14.4543 29.8663 14.6849 29.8951 14.9923 29.8951ZM24.2241 20.3124C23.8783 20.3316 23.6237 20.37 23.4604 20.4277C23.3067 20.4853 23.201 20.5958 23.1433 20.7591C23.0857 20.9224 23.0569 21.1866 23.0569 21.5516V28.6991C23.0569 29.0641 23.0857 29.3283 23.1433 29.4916C23.201 29.655 23.3067 29.7654 23.4604 29.8231C23.6237 29.8807 23.8783 29.9191 24.2241 29.9384V30.2266C23.7822 30.1977 23.1722 30.1833 22.394 30.1833C21.5678 30.1833 20.953 30.1977 20.5495 30.2266V29.9384C20.8954 29.9191 21.1451 29.8807 21.2988 29.8231C21.4622 29.7654 21.5726 29.655 21.6303 29.4916C21.6879 29.3283 21.7167 29.0641 21.7167 28.6991V21.5516C21.7167 21.1866 21.6879 20.9224 21.6303 20.7591C21.5726 20.5958 21.4622 20.4853 21.2988 20.4277C21.1451 20.37 20.8954 20.3316 20.5495 20.3124V20.0242C20.953 20.053 21.5678 20.0674 22.394 20.0674C23.1625 20.0674 23.7726 20.053 24.2241 20.0242V20.3124ZM30.4824 24.8372C31.5392 24.9813 32.2933 25.2887 32.7448 25.7594C33.1963 26.2205 33.4221 26.7777 33.4221 27.431C33.4221 27.9786 33.2828 28.4637 33.0042 28.8864C32.7256 29.3091 32.3269 29.6405 31.8082 29.8807C31.2894 30.1113 30.6746 30.2266 29.9637 30.2266C29.7043 30.2266 29.4833 30.2218 29.3008 30.2122C28.686 30.1929 28.0807 30.1833 27.4851 30.1833C26.6974 30.1833 26.1017 30.1977 25.6983 30.2266V29.9384C26.0441 29.9191 26.2939 29.8807 26.4476 29.8231C26.6109 29.7654 26.7214 29.655 26.779 29.4916C26.8367 29.3283 26.8655 29.0641 26.8655 28.6991V21.5516C26.8655 21.1866 26.8367 20.9224 26.779 20.7591C26.7214 20.5958 26.6109 20.4853 26.4476 20.4277C26.2939 20.37 26.0441 20.3316 25.6983 20.3124V20.0242C26.1017 20.053 26.6878 20.0674 27.4563 20.0674L29.0126 20.053C29.1951 20.0434 29.4017 20.0386 29.6322 20.0386C30.6121 20.0386 31.3615 20.2451 31.8802 20.6582C32.4086 21.0713 32.6728 21.6189 32.6728 22.301C32.6728 22.8582 32.4951 23.3577 32.1396 23.7996C31.7938 24.2415 31.2414 24.5778 30.4824 24.8083V24.8372ZM29.272 20.3124C28.9742 20.3124 28.7484 20.346 28.5947 20.4132C28.4506 20.4805 28.3497 20.6006 28.2921 20.7735C28.2344 20.9464 28.2056 21.2058 28.2056 21.5516V24.8083H29.1711C29.9589 24.8083 30.5065 24.597 30.8139 24.1743C31.1309 23.742 31.2894 23.1704 31.2894 22.4595C31.2894 21.739 31.1309 21.201 30.8139 20.8456C30.4968 20.4901 29.9829 20.3124 29.272 20.3124ZM29.2864 29.8951C31.0829 29.8951 31.9811 29.0545 31.9811 27.3734C31.9811 26.6144 31.7745 26.038 31.3615 25.6441C30.958 25.2503 30.3095 25.0533 29.4161 25.0533H28.2056V28.6991C28.2056 29.0449 28.2344 29.2995 28.2921 29.4628C28.3497 29.6261 28.4506 29.7414 28.5947 29.8087C28.7484 29.8663 28.979 29.8951 29.2864 29.8951ZM38.5182 20.3124C38.1723 20.3316 37.9177 20.37 37.7544 20.4277C37.6007 20.4853 37.4951 20.5958 37.4374 20.7591C37.3798 20.9224 37.3509 21.1866 37.3509 21.5516V28.6991C37.3509 29.0641 37.3798 29.3283 37.4374 29.4916C37.4951 29.655 37.6007 29.7654 37.7544 29.8231C37.9177 29.8711 38.1723 29.8951 38.5182 29.8951H39.5701C40.1657 29.8951 40.6173 29.8135 40.9247 29.6502C41.2417 29.4772 41.4723 29.2034 41.6164 28.8288C41.7605 28.4541 41.8661 27.9113 41.9334 27.2004H42.2648C42.236 27.4982 42.2216 27.8921 42.2216 28.3821C42.2216 28.9296 42.2552 29.5445 42.3225 30.2266C41.6692 30.1977 40.5692 30.1833 39.0225 30.1833C37.178 30.1833 35.785 30.1977 34.8436 30.2266V29.9384C35.1894 29.9191 35.4392 29.8807 35.5929 29.8231C35.7562 29.7654 35.8667 29.655 35.9243 29.4916C35.982 29.3283 36.0108 29.0641 36.0108 28.6991V21.5516C36.0108 21.1866 35.982 20.9224 35.9243 20.7591C35.8667 20.5958 35.7562 20.4853 35.5929 20.4277C35.4392 20.37 35.1894 20.3316 34.8436 20.3124V20.0242C35.2471 20.053 35.8619 20.0674 36.6881 20.0674C37.4566 20.0674 38.0667 20.053 38.5182 20.0242V20.3124ZM47.2554 20.3124C46.9096 20.3316 46.655 20.37 46.4917 20.4277C46.3379 20.4853 46.2323 20.5958 46.1746 20.7591C46.117 20.9224 46.0882 21.1866 46.0882 21.5516V28.6991C46.0882 29.0641 46.117 29.3283 46.1746 29.4916C46.2323 29.655 46.3379 29.7654 46.4917 29.8231C46.655 29.8807 46.9096 29.9191 47.2554 29.9384V30.2266C46.8135 30.1977 46.2035 30.1833 45.4253 30.1833C44.5991 30.1833 43.9843 30.1977 43.5808 30.2266V29.9384C43.9266 29.9191 44.1764 29.8807 44.3301 29.8231C44.4934 29.7654 44.6039 29.655 44.6616 29.4916C44.7192 29.3283 44.748 29.0641 44.748 28.6991V21.5516C44.748 21.1866 44.7192 20.9224 44.6616 20.7591C44.6039 20.5958 44.4934 20.4853 44.3301 20.4277C44.1764 20.37 43.9266 20.3316 43.5808 20.3124V20.0242C43.9843 20.053 44.5991 20.0674 45.4253 20.0674C46.1938 20.0674 46.8039 20.053 47.2554 20.0242V20.3124ZM56.2949 29.0161C56.5255 29.6117 56.8569 29.9191 57.2892 29.9384V30.2266C56.9049 30.1977 56.391 30.1833 55.7473 30.1833C54.9211 30.1833 54.3063 30.1977 53.9028 30.2266V29.9384C54.2679 29.9191 54.5272 29.8759 54.6809 29.8087C54.8443 29.7318 54.9259 29.5973 54.9259 29.4052C54.9259 29.2419 54.8683 29.0161 54.753 28.7279L53.874 26.3646H50.3867L49.7959 27.8921C49.6038 28.4109 49.5077 28.8048 49.5077 29.0737C49.5077 29.3716 49.6086 29.5877 49.8103 29.7222C50.0217 29.8567 50.3387 29.9288 50.7614 29.9384V30.2266C50.2138 30.1977 49.6614 30.1833 49.1042 30.1833C48.6719 30.1833 48.3117 30.1977 48.0235 30.2266V29.9384C48.5038 29.8231 48.8833 29.4052 49.1619 28.6847L52.5482 19.9521H52.7788L56.2949 29.0161ZM53.7587 26.0764L52.1448 21.7678L50.502 26.0764H53.7587Z"/>
</mask>
<path d="M16.1884 24.8372C17.2451 24.9813 17.9992 25.2887 18.4508 25.7594C18.9023 26.2205 19.128 26.7777 19.128 27.431C19.128 27.9786 18.9887 28.4637 18.7101 28.8864C18.4315 29.3091 18.0329 29.6405 17.5141 29.8807C16.9953 30.1113 16.3805 30.2266 15.6696 30.2266C15.4102 30.2266 15.1893 30.2218 15.0067 30.2122C14.3919 30.1929 13.7867 30.1833 13.191 30.1833C12.4033 30.1833 11.8077 30.1977 11.4042 30.2266V29.9384C11.75 29.9191 11.9998 29.8807 12.1535 29.8231C12.3168 29.7654 12.4273 29.655 12.4849 29.4916C12.5426 29.3283 12.5714 29.0641 12.5714 28.6991V21.5516C12.5714 21.1866 12.5426 20.9224 12.4849 20.7591C12.4273 20.5958 12.3168 20.4853 12.1535 20.4277C11.9998 20.37 11.75 20.3316 11.4042 20.3124V20.0242C11.8077 20.053 12.3937 20.0674 13.1622 20.0674L14.7185 20.053C14.9011 20.0434 15.1076 20.0386 15.3382 20.0386C16.318 20.0386 17.0674 20.2451 17.5861 20.6582C18.1145 21.0713 18.3787 21.6189 18.3787 22.301C18.3787 22.8582 18.201 23.3577 17.8455 23.7996C17.4997 24.2415 16.9473 24.5778 16.1884 24.8083V24.8372ZM14.9779 20.3124C14.6801 20.3124 14.4543 20.346 14.3006 20.4132C14.1565 20.4805 14.0557 20.6006 13.998 20.7735C13.9404 20.9464 13.9116 21.2058 13.9116 21.5516V24.8083H14.877C15.6648 24.8083 16.2124 24.597 16.5198 24.1743C16.8368 23.742 16.9953 23.1704 16.9953 22.4595C16.9953 21.739 16.8368 21.201 16.5198 20.8456C16.2028 20.4901 15.6888 20.3124 14.9779 20.3124ZM14.9923 29.8951C16.7888 29.8951 17.687 29.0545 17.687 27.3734C17.687 26.6144 17.4805 26.038 17.0674 25.6441C16.6639 25.2503 16.0154 25.0533 15.122 25.0533H13.9116V28.6991C13.9116 29.0449 13.9404 29.2995 13.998 29.4628C14.0557 29.6261 14.1565 29.7414 14.3006 29.8087C14.4543 29.8663 14.6849 29.8951 14.9923 29.8951ZM24.2241 20.3124C23.8783 20.3316 23.6237 20.37 23.4604 20.4277C23.3067 20.4853 23.201 20.5958 23.1433 20.7591C23.0857 20.9224 23.0569 21.1866 23.0569 21.5516V28.6991C23.0569 29.0641 23.0857 29.3283 23.1433 29.4916C23.201 29.655 23.3067 29.7654 23.4604 29.8231C23.6237 29.8807 23.8783 29.9191 24.2241 29.9384V30.2266C23.7822 30.1977 23.1722 30.1833 22.394 30.1833C21.5678 30.1833 20.953 30.1977 20.5495 30.2266V29.9384C20.8954 29.9191 21.1451 29.8807 21.2988 29.8231C21.4622 29.7654 21.5726 29.655 21.6303 29.4916C21.6879 29.3283 21.7167 29.0641 21.7167 28.6991V21.5516C21.7167 21.1866 21.6879 20.9224 21.6303 20.7591C21.5726 20.5958 21.4622 20.4853 21.2988 20.4277C21.1451 20.37 20.8954 20.3316 20.5495 20.3124V20.0242C20.953 20.053 21.5678 20.0674 22.394 20.0674C23.1625 20.0674 23.7726 20.053 24.2241 20.0242V20.3124ZM30.4824 24.8372C31.5392 24.9813 32.2933 25.2887 32.7448 25.7594C33.1963 26.2205 33.4221 26.7777 33.4221 27.431C33.4221 27.9786 33.2828 28.4637 33.0042 28.8864C32.7256 29.3091 32.3269 29.6405 31.8082 29.8807C31.2894 30.1113 30.6746 30.2266 29.9637 30.2266C29.7043 30.2266 29.4833 30.2218 29.3008 30.2122C28.686 30.1929 28.0807 30.1833 27.4851 30.1833C26.6974 30.1833 26.1017 30.1977 25.6983 30.2266V29.9384C26.0441 29.9191 26.2939 29.8807 26.4476 29.8231C26.6109 29.7654 26.7214 29.655 26.779 29.4916C26.8367 29.3283 26.8655 29.0641 26.8655 28.6991V21.5516C26.8655 21.1866 26.8367 20.9224 26.779 20.7591C26.7214 20.5958 26.6109 20.4853 26.4476 20.4277C26.2939 20.37 26.0441 20.3316 25.6983 20.3124V20.0242C26.1017 20.053 26.6878 20.0674 27.4563 20.0674L29.0126 20.053C29.1951 20.0434 29.4017 20.0386 29.6322 20.0386C30.6121 20.0386 31.3615 20.2451 31.8802 20.6582C32.4086 21.0713 32.6728 21.6189 32.6728 22.301C32.6728 22.8582 32.4951 23.3577 32.1396 23.7996C31.7938 24.2415 31.2414 24.5778 30.4824 24.8083V24.8372ZM29.272 20.3124C28.9742 20.3124 28.7484 20.346 28.5947 20.4132C28.4506 20.4805 28.3497 20.6006 28.2921 20.7735C28.2344 20.9464 28.2056 21.2058 28.2056 21.5516V24.8083H29.1711C29.9589 24.8083 30.5065 24.597 30.8139 24.1743C31.1309 23.742 31.2894 23.1704 31.2894 22.4595C31.2894 21.739 31.1309 21.201 30.8139 20.8456C30.4968 20.4901 29.9829 20.3124 29.272 20.3124ZM29.2864 29.8951C31.0829 29.8951 31.9811 29.0545 31.9811 27.3734C31.9811 26.6144 31.7745 26.038 31.3615 25.6441C30.958 25.2503 30.3095 25.0533 29.4161 25.0533H28.2056V28.6991C28.2056 29.0449 28.2344 29.2995 28.2921 29.4628C28.3497 29.6261 28.4506 29.7414 28.5947 29.8087C28.7484 29.8663 28.979 29.8951 29.2864 29.8951ZM38.5182 20.3124C38.1723 20.3316 37.9177 20.37 37.7544 20.4277C37.6007 20.4853 37.4951 20.5958 37.4374 20.7591C37.3798 20.9224 37.3509 21.1866 37.3509 21.5516V28.6991C37.3509 29.0641 37.3798 29.3283 37.4374 29.4916C37.4951 29.655 37.6007 29.7654 37.7544 29.8231C37.9177 29.8711 38.1723 29.8951 38.5182 29.8951H39.5701C40.1657 29.8951 40.6173 29.8135 40.9247 29.6502C41.2417 29.4772 41.4723 29.2034 41.6164 28.8288C41.7605 28.4541 41.8661 27.9113 41.9334 27.2004H42.2648C42.236 27.4982 42.2216 27.8921 42.2216 28.3821C42.2216 28.9296 42.2552 29.5445 42.3225 30.2266C41.6692 30.1977 40.5692 30.1833 39.0225 30.1833C37.178 30.1833 35.785 30.1977 34.8436 30.2266V29.9384C35.1894 29.9191 35.4392 29.8807 35.5929 29.8231C35.7562 29.7654 35.8667 29.655 35.9243 29.4916C35.982 29.3283 36.0108 29.0641 36.0108 28.6991V21.5516C36.0108 21.1866 35.982 20.9224 35.9243 20.7591C35.8667 20.5958 35.7562 20.4853 35.5929 20.4277C35.4392 20.37 35.1894 20.3316 34.8436 20.3124V20.0242C35.2471 20.053 35.8619 20.0674 36.6881 20.0674C37.4566 20.0674 38.0667 20.053 38.5182 20.0242V20.3124ZM47.2554 20.3124C46.9096 20.3316 46.655 20.37 46.4917 20.4277C46.3379 20.4853 46.2323 20.5958 46.1746 20.7591C46.117 20.9224 46.0882 21.1866 46.0882 21.5516V28.6991C46.0882 29.0641 46.117 29.3283 46.1746 29.4916C46.2323 29.655 46.3379 29.7654 46.4917 29.8231C46.655 29.8807 46.9096 29.9191 47.2554 29.9384V30.2266C46.8135 30.1977 46.2035 30.1833 45.4253 30.1833C44.5991 30.1833 43.9843 30.1977 43.5808 30.2266V29.9384C43.9266 29.9191 44.1764 29.8807 44.3301 29.8231C44.4934 29.7654 44.6039 29.655 44.6616 29.4916C44.7192 29.3283 44.748 29.0641 44.748 28.6991V21.5516C44.748 21.1866 44.7192 20.9224 44.6616 20.7591C44.6039 20.5958 44.4934 20.4853 44.3301 20.4277C44.1764 20.37 43.9266 20.3316 43.5808 20.3124V20.0242C43.9843 20.053 44.5991 20.0674 45.4253 20.0674C46.1938 20.0674 46.8039 20.053 47.2554 20.0242V20.3124ZM56.2949 29.0161C56.5255 29.6117 56.8569 29.9191 57.2892 29.9384V30.2266C56.9049 30.1977 56.391 30.1833 55.7473 30.1833C54.9211 30.1833 54.3063 30.1977 53.9028 30.2266V29.9384C54.2679 29.9191 54.5272 29.8759 54.6809 29.8087C54.8443 29.7318 54.9259 29.5973 54.9259 29.4052C54.9259 29.2419 54.8683 29.0161 54.753 28.7279L53.874 26.3646H50.3867L49.7959 27.8921C49.6038 28.4109 49.5077 28.8048 49.5077 29.0737C49.5077 29.3716 49.6086 29.5877 49.8103 29.7222C50.0217 29.8567 50.3387 29.9288 50.7614 29.9384V30.2266C50.2138 30.1977 49.6614 30.1833 49.1042 30.1833C48.6719 30.1833 48.3117 30.1977 48.0235 30.2266V29.9384C48.5038 29.8231 48.8833 29.4052 49.1619 28.6847L52.5482 19.9521H52.7788L56.2949 29.0161ZM53.7587 26.0764L52.1448 21.7678L50.502 26.0764H53.7587Z" fill="#FEF5EB"/>
<path d="M16.1884 24.8372H15.9856V25.0141L16.161 25.038L16.1884 24.8372ZM18.4508 25.7594L18.3044 25.8998L18.3059 25.9013L18.4508 25.7594ZM18.7101 28.8864L18.8794 28.998V28.998L18.7101 28.8864ZM17.5141 29.8807L17.5964 30.066L17.5993 30.0647L17.5141 29.8807ZM15.0067 30.2122L15.0174 30.0096L15.0131 30.0095L15.0067 30.2122ZM11.4042 30.2266H11.2014V30.4443L11.4186 30.4288L11.4042 30.2266ZM11.4042 29.9384L11.3929 29.7359L11.2014 29.7466V29.9384H11.4042ZM12.1535 29.8231L12.086 29.6319L12.0823 29.6332L12.1535 29.8231ZM12.4849 20.7591L12.2938 20.8266V20.8266L12.4849 20.7591ZM12.1535 20.4277L12.0823 20.6175L12.086 20.6188L12.1535 20.4277ZM11.4042 20.3124H11.2014V20.5042L11.3929 20.5148L11.4042 20.3124ZM11.4042 20.0242L11.4186 19.8219L11.2014 19.8064V20.0242H11.4042ZM13.1622 20.0674V20.2701L13.1641 20.2701L13.1622 20.0674ZM14.7185 20.053L14.7204 20.2559L14.7292 20.2554L14.7185 20.053ZM17.5861 20.6582L17.4598 20.8168L17.4613 20.8179L17.5861 20.6582ZM17.8455 23.7996L17.6875 23.6726L17.6859 23.6747L17.8455 23.7996ZM16.1884 24.8083L16.1294 24.6144L15.9856 24.658V24.8083H16.1884ZM14.3006 20.4132L14.2193 20.2275L14.2149 20.2295L14.3006 20.4132ZM13.998 20.7735L14.1903 20.8376V20.8376L13.998 20.7735ZM13.9116 24.8083H13.7088V25.0111H13.9116V24.8083ZM16.5198 24.1743L16.3563 24.0544L16.3558 24.0551L16.5198 24.1743ZM17.0674 25.6441L16.9257 25.7892L16.9275 25.7909L17.0674 25.6441ZM13.9116 25.0533V24.8506H13.7088V25.0533H13.9116ZM13.998 29.4628L14.1892 29.3953V29.3953L13.998 29.4628ZM14.3006 29.8087L14.2149 29.9924L14.222 29.9957L14.2294 29.9985L14.3006 29.8087ZM16.161 25.038C17.199 25.1796 17.8992 25.4773 18.3044 25.8998L18.5971 25.6191C18.0993 25.1001 17.2912 24.7829 16.2158 24.6363L16.161 25.038ZM18.3059 25.9013C18.7198 26.324 18.9253 26.83 18.9253 27.431H19.3308C19.3308 26.7254 19.0847 26.1171 18.5956 25.6176L18.3059 25.9013ZM18.9253 27.431C18.9253 27.9423 18.7958 28.388 18.5409 28.7748L18.8794 28.998C19.1816 28.5395 19.3308 28.0149 19.3308 27.431H18.9253ZM18.5409 28.7748C18.2856 29.1621 17.918 29.4703 17.4289 29.6967L17.5993 30.0647C18.1477 29.8108 18.5775 29.4561 18.8794 28.998L18.5409 28.7748ZM17.4318 29.6955C16.9446 29.912 16.3591 30.0238 15.6696 30.0238V30.4293C16.4019 30.4293 17.0461 30.3106 17.5964 30.066L17.4318 29.6955ZM15.6696 30.0238C15.4124 30.0238 15.1952 30.0191 15.0174 30.0097L14.9961 30.4146C15.1833 30.4245 15.408 30.4293 15.6696 30.4293V30.0238ZM15.0131 30.0095C14.3962 29.9902 13.7888 29.9806 13.191 29.9806V30.3861C13.7845 30.3861 14.3876 30.3956 15.0004 30.4148L15.0131 30.0095ZM13.191 29.9806C12.4021 29.9806 11.8006 29.995 11.3897 30.0243L11.4186 30.4288C11.8147 30.4005 12.4045 30.3861 13.191 30.3861V29.9806ZM11.6069 30.2266V29.9384H11.2014V30.2266H11.6069ZM11.4154 30.1408C11.7643 30.1214 12.0403 30.0821 12.2247 30.0129L12.0823 29.6332C11.9593 29.6794 11.7358 29.7169 11.3929 29.7359L11.4154 30.1408ZM12.221 30.0143C12.4421 29.9362 12.5981 29.7803 12.6761 29.5591L12.2938 29.4242C12.2565 29.5297 12.1915 29.5947 12.086 29.6319L12.221 30.0143ZM12.6761 29.5591C12.746 29.3612 12.7741 29.0674 12.7741 28.6991H12.3687C12.3687 29.0609 12.3392 29.2955 12.2938 29.4242L12.6761 29.5591ZM12.7741 28.6991V21.5516H12.3687V28.6991H12.7741ZM12.7741 21.5516C12.7741 21.1833 12.746 20.8896 12.6761 20.6916L12.2938 20.8266C12.3392 20.9552 12.3687 21.1899 12.3687 21.5516H12.7741ZM12.6761 20.6916C12.5981 20.4705 12.4421 20.3145 12.221 20.2365L12.086 20.6188C12.1915 20.6561 12.2565 20.7211 12.2938 20.8266L12.6761 20.6916ZM12.2247 20.2378C12.0403 20.1687 11.7643 20.1293 11.4154 20.11L11.3929 20.5148C11.7358 20.5338 11.9593 20.5714 12.0823 20.6175L12.2247 20.2378ZM11.6069 20.3124V20.0242H11.2014V20.3124H11.6069ZM11.3897 20.2264C11.8006 20.2557 12.3923 20.2701 13.1622 20.2701V19.8647C12.395 19.8647 11.8148 19.8502 11.4186 19.8219L11.3897 20.2264ZM13.1641 20.2701L14.7204 20.2557L14.7166 19.8503L13.1603 19.8647L13.1641 20.2701ZM14.7292 20.2554C14.9074 20.2461 15.1103 20.2413 15.3382 20.2413V19.8358C15.1049 19.8358 14.8947 19.8407 14.7079 19.8505L14.7292 20.2554ZM15.3382 20.2413C16.2933 20.2413 16.9906 20.4431 17.4599 20.8168L17.7124 20.4996C17.1442 20.0471 16.3428 19.8358 15.3382 19.8358V20.2413ZM17.4613 20.8179C17.9395 21.1918 18.176 21.68 18.176 22.301H18.5814C18.5814 21.5578 18.2895 20.9508 17.711 20.4985L17.4613 20.8179ZM18.176 22.301C18.176 22.8111 18.0146 23.266 17.6876 23.6726L18.0035 23.9267C18.3874 23.4495 18.5814 22.9053 18.5814 22.301H18.176ZM17.6859 23.6747C17.3743 24.0728 16.8644 24.3911 16.1294 24.6144L16.2473 25.0023C17.0302 24.7645 17.625 24.4103 18.0052 23.9246L17.6859 23.6747ZM15.9856 24.8083V24.8372H16.3911V24.8083H15.9856ZM14.9779 20.1096C14.6705 20.1096 14.4114 20.1435 14.2194 20.2275L14.3819 20.599C14.4973 20.5485 14.6897 20.5151 14.9779 20.5151V20.1096ZM14.2149 20.2295C14.0128 20.3238 13.8781 20.4921 13.8057 20.7094L14.1903 20.8376C14.2332 20.709 14.3003 20.6371 14.3864 20.597L14.2149 20.2295ZM13.8057 20.7094C13.7375 20.914 13.7088 21.1999 13.7088 21.5516H14.1143C14.1143 21.2117 14.1433 20.9788 14.1903 20.8376L13.8057 20.7094ZM13.7088 21.5516V24.8083H14.1143V21.5516H13.7088ZM13.9116 25.0111H14.877V24.6056H13.9116V25.0111ZM14.877 25.0111C15.6954 25.0111 16.3217 24.7913 16.6838 24.2935L16.3558 24.0551C16.103 24.4027 15.6341 24.6056 14.877 24.6056V25.0111ZM16.6833 24.2942C17.033 23.8173 17.1981 23.1996 17.1981 22.4595H16.7926C16.7926 23.1412 16.6407 23.6667 16.3563 24.0544L16.6833 24.2942ZM17.1981 22.4595C17.1981 21.7139 17.0347 21.1182 16.6711 20.7106L16.3685 20.9805C16.639 21.2838 16.7926 21.764 16.7926 22.4595H17.1981ZM16.6711 20.7106C16.2999 20.2945 15.7179 20.1096 14.9779 20.1096V20.5151C15.6597 20.5151 16.1056 20.6857 16.3685 20.9805L16.6711 20.7106ZM14.9923 30.0979C15.9186 30.0979 16.651 29.8814 17.1519 29.4127C17.6553 28.9416 17.8898 28.2488 17.8898 27.3734H17.4843C17.4843 28.1791 17.2697 28.7471 16.8748 29.1167C16.4774 29.4885 15.8625 29.6924 14.9923 29.6924V30.0979ZM17.8898 27.3734C17.8898 26.578 17.6725 25.9409 17.2073 25.4974L16.9275 25.7909C17.2885 26.1351 17.4843 26.6508 17.4843 27.3734H17.8898ZM17.209 25.4991C16.7507 25.0516 16.0386 24.8506 15.122 24.8506V25.2561C15.9923 25.2561 16.5771 25.4489 16.9258 25.7892L17.209 25.4991ZM15.122 24.8506H13.9116V25.2561H15.122V24.8506ZM13.7088 25.0533V28.6991H14.1143V25.0533H13.7088ZM13.7088 28.6991C13.7088 29.0497 13.7372 29.333 13.8068 29.5303L14.1892 29.3953C14.1435 29.266 14.1143 29.0401 14.1143 28.6991H13.7088ZM13.8068 29.5303C13.8808 29.7399 14.0168 29.8999 14.2149 29.9924L14.3864 29.625C14.2962 29.5829 14.2305 29.5124 14.1892 29.3953L13.8068 29.5303ZM14.2294 29.9985C14.4179 30.0692 14.678 30.0979 14.9923 30.0979V29.6924C14.6918 29.6924 14.4908 29.6634 14.3718 29.6188L14.2294 29.9985ZM24.2241 20.3124L24.2353 20.5148L24.4268 20.5042V20.3124H24.2241ZM23.4604 20.4277L23.3929 20.2364L23.3892 20.2378L23.4604 20.4277ZM23.1433 20.7591L23.3345 20.8266V20.8266L23.1433 20.7591ZM23.1433 29.4916L23.3345 29.4242V29.4242L23.1433 29.4916ZM23.4604 29.8231L23.3892 30.0129L23.3929 30.0143L23.4604 29.8231ZM24.2241 29.9384H24.4268V29.7466L24.2353 29.7359L24.2241 29.9384ZM24.2241 30.2266L24.2109 30.4289L24.4268 30.443V30.2266H24.2241ZM20.5495 30.2266H20.3468V30.4443L20.564 30.4288L20.5495 30.2266ZM20.5495 29.9384L20.5383 29.7359L20.3468 29.7466V29.9384H20.5495ZM21.2988 29.8231L21.2313 29.6319L21.2276 29.6332L21.2988 29.8231ZM21.6303 20.7591L21.4391 20.8266V20.8266L21.6303 20.7591ZM21.2988 20.4277L21.2276 20.6175L21.2314 20.6188L21.2988 20.4277ZM20.5495 20.3124H20.3468V20.5042L20.5383 20.5148L20.5495 20.3124ZM20.5495 20.0242L20.564 19.8219L20.3468 19.8064V20.0242H20.5495ZM24.2241 20.0242H24.4268V19.8081L24.2112 19.8218L24.2241 20.0242ZM24.2129 20.11C23.863 20.1294 23.5845 20.1688 23.3929 20.2365L23.5278 20.6188C23.6628 20.5712 23.8936 20.5338 24.2353 20.5148L24.2129 20.11ZM23.3892 20.2378C23.1759 20.3178 23.0285 20.4753 22.9522 20.6916L23.3345 20.8266C23.3735 20.7162 23.4374 20.6528 23.5315 20.6175L23.3892 20.2378ZM22.9522 20.6916C22.8823 20.8896 22.8541 21.1833 22.8541 21.5516H23.2596C23.2596 21.1899 23.2891 20.9553 23.3345 20.8266L22.9522 20.6916ZM22.8541 21.5516V28.6991H23.2596V21.5516H22.8541ZM22.8541 28.6991C22.8541 29.0674 22.8823 29.3612 22.9522 29.5591L23.3345 29.4242C23.2891 29.2955 23.2596 29.0609 23.2596 28.6991H22.8541ZM22.9522 29.5591C23.0285 29.7754 23.1759 29.9329 23.3892 30.0129L23.5315 29.6332C23.4374 29.5979 23.3735 29.5345 23.3345 29.4242L22.9522 29.5591ZM23.3929 30.0143C23.5845 30.0819 23.863 30.1213 24.2129 30.1408L24.2353 29.7359C23.8936 29.7169 23.6628 29.6795 23.5278 29.6319L23.3929 30.0143ZM24.0214 29.9384V30.2266H24.4268V29.9384H24.0214ZM24.2373 30.0243C23.7889 29.995 23.1738 29.9806 22.394 29.9806V30.3861C23.1705 30.3861 23.7755 30.4005 24.2109 30.4289L24.2373 30.0243ZM22.394 29.9806C21.5669 29.9806 20.9461 29.995 20.5351 30.0243L20.564 30.4288C20.9599 30.4005 21.5688 30.3861 22.394 30.3861V29.9806ZM20.7522 30.2266V29.9384H20.3468V30.2266H20.7522ZM20.5608 30.1408C20.9096 30.1214 21.1856 30.0821 21.37 30.0129L21.2276 29.6332C21.1046 29.6794 20.8811 29.7169 20.5383 29.7359L20.5608 30.1408ZM21.3663 30.0143C21.5874 29.9362 21.7434 29.7803 21.8214 29.5591L21.4391 29.4242C21.4019 29.5297 21.3369 29.5947 21.2314 29.6319L21.3663 30.0143ZM21.8214 29.5591C21.8913 29.3612 21.9195 29.0674 21.9195 28.6991H21.514C21.514 29.0609 21.4845 29.2955 21.4391 29.4242L21.8214 29.5591ZM21.9195 28.6991V21.5516H21.514V28.6991H21.9195ZM21.9195 21.5516C21.9195 21.1833 21.8913 20.8896 21.8214 20.6916L21.4391 20.8266C21.4845 20.9552 21.514 21.1899 21.514 21.5516H21.9195ZM21.8214 20.6916C21.7434 20.4705 21.5874 20.3145 21.3663 20.2365L21.2314 20.6188C21.3369 20.6561 21.4019 20.7211 21.4391 20.8266L21.8214 20.6916ZM21.37 20.2378C21.1856 20.1687 20.9096 20.1293 20.5608 20.11L20.5383 20.5148C20.8811 20.5338 21.1046 20.5714 21.2276 20.6175L21.37 20.2378ZM20.7522 20.3124V20.0242H20.3468V20.3124H20.7522ZM20.5351 20.2264C20.9461 20.2558 21.5669 20.2701 22.394 20.2701V19.8647C21.5688 19.8647 20.9599 19.8502 20.564 19.8219L20.5351 20.2264ZM22.394 20.2701C23.1643 20.2701 23.7793 20.2557 24.237 20.2265L24.2112 19.8218C23.7659 19.8503 23.1608 19.8647 22.394 19.8647V20.2701ZM24.0214 20.0242V20.3124H24.4268V20.0242H24.0214ZM30.4824 24.8372H30.2797V25.0141L30.455 25.038L30.4824 24.8372ZM32.7448 25.7594L32.5985 25.8998L32.6 25.9013L32.7448 25.7594ZM33.0042 28.8864L33.1735 28.998V28.998L33.0042 28.8864ZM31.8082 29.8807L31.8905 30.066L31.8933 30.0647L31.8082 29.8807ZM29.3008 30.2122L29.3115 30.0096L29.3071 30.0095L29.3008 30.2122ZM25.6983 30.2266H25.4955V30.4443L25.7127 30.4288L25.6983 30.2266ZM25.6983 29.9384L25.687 29.7359L25.4955 29.7466V29.9384H25.6983ZM26.4476 29.8231L26.3801 29.6319L26.3764 29.6332L26.4476 29.8231ZM26.779 20.7591L26.5878 20.8266V20.8266L26.779 20.7591ZM26.4476 20.4277L26.3764 20.6175L26.3801 20.6188L26.4476 20.4277ZM25.6983 20.3124H25.4955V20.5042L25.687 20.5148L25.6983 20.3124ZM25.6983 20.0242L25.7127 19.8219L25.4955 19.8064V20.0242H25.6983ZM27.4563 20.0674V20.2701L27.4582 20.2701L27.4563 20.0674ZM29.0126 20.053L29.0145 20.2559L29.0233 20.2554L29.0126 20.053ZM31.8802 20.6582L31.7539 20.8168L31.7553 20.8179L31.8802 20.6582ZM32.1396 23.7996L31.9816 23.6726L31.9799 23.6747L32.1396 23.7996ZM30.4824 24.8083L30.4235 24.6144L30.2797 24.658V24.8083H30.4824ZM28.5947 20.4132L28.5134 20.2275L28.509 20.2295L28.5947 20.4132ZM28.2921 20.7735L28.4844 20.8376V20.8376L28.2921 20.7735ZM28.2056 24.8083H28.0029V25.0111H28.2056V24.8083ZM30.8139 24.1743L30.6504 24.0544L30.6499 24.0551L30.8139 24.1743ZM31.3615 25.6441L31.2198 25.7892L31.2215 25.7909L31.3615 25.6441ZM28.2056 25.0533V24.8506H28.0029V25.0533H28.2056ZM28.2921 29.4628L28.4833 29.3953V29.3953L28.2921 29.4628ZM28.5947 29.8087L28.509 29.9924L28.5161 29.9957L28.5235 29.9985L28.5947 29.8087ZM30.455 25.038C31.493 25.1796 32.1933 25.4773 32.5985 25.8998L32.8911 25.6191C32.3934 25.1001 31.5853 24.7829 30.5098 24.6363L30.455 25.038ZM32.6 25.9013C33.0139 26.324 33.2194 26.83 33.2194 27.431H33.6248C33.6248 26.7254 33.3788 26.1171 32.8897 25.6176L32.6 25.9013ZM33.2194 27.431C33.2194 27.9423 33.0899 28.388 32.8349 28.7748L33.1735 28.998C33.4757 28.5395 33.6248 28.0149 33.6248 27.431H33.2194ZM32.8349 28.7748C32.5797 29.1621 32.2121 29.4703 31.723 29.6967L31.8933 30.0647C32.4418 29.8108 32.8715 29.4561 33.1735 28.998L32.8349 28.7748ZM31.7258 29.6955C31.2386 29.912 30.6531 30.0238 29.9637 30.0238V30.4293C30.696 30.4293 31.3402 30.3106 31.8905 30.066L31.7258 29.6955ZM29.9637 30.0238C29.7065 30.0238 29.4893 30.0191 29.3115 30.0097L29.2901 30.4146C29.4773 30.4245 29.7021 30.4293 29.9637 30.4293V30.0238ZM29.3071 30.0095C28.6903 29.9902 28.0829 29.9806 27.4851 29.9806V30.3861C28.0786 30.3861 28.6817 30.3956 29.2945 30.4148L29.3071 30.0095ZM27.4851 29.9806C26.6961 29.9806 26.0947 29.995 25.6838 30.0243L25.7127 30.4288C26.1088 30.4005 26.6986 30.3861 27.4851 30.3861V29.9806ZM25.901 30.2266V29.9384H25.4955V30.2266H25.901ZM25.7095 30.1408C26.0583 30.1214 26.3344 30.0821 26.5188 30.0129L26.3764 29.6332C26.2534 29.6794 26.0299 29.7169 25.687 29.7359L25.7095 30.1408ZM26.5151 30.0143C26.7362 29.9362 26.8922 29.7803 26.9702 29.5591L26.5878 29.4242C26.5506 29.5297 26.4856 29.5947 26.3801 29.6319L26.5151 30.0143ZM26.9702 29.5591C27.0401 29.3612 27.0682 29.0674 27.0682 28.6991H26.6627C26.6627 29.0609 26.6333 29.2955 26.5878 29.4242L26.9702 29.5591ZM27.0682 28.6991V21.5516H26.6627V28.6991H27.0682ZM27.0682 21.5516C27.0682 21.1833 27.0401 20.8896 26.9702 20.6916L26.5878 20.8266C26.6333 20.9552 26.6627 21.1899 26.6627 21.5516H27.0682ZM26.9702 20.6916C26.8922 20.4705 26.7362 20.3145 26.5151 20.2365L26.3801 20.6188C26.4856 20.6561 26.5506 20.7211 26.5878 20.8266L26.9702 20.6916ZM26.5188 20.2378C26.3344 20.1687 26.0583 20.1293 25.7095 20.11L25.687 20.5148C26.0299 20.5338 26.2534 20.5714 26.3764 20.6175L26.5188 20.2378ZM25.901 20.3124V20.0242H25.4955V20.3124H25.901ZM25.6838 20.2264C26.0946 20.2557 26.6864 20.2701 27.4563 20.2701V19.8647C26.6891 19.8647 26.1089 19.8502 25.7127 19.8219L25.6838 20.2264ZM27.4582 20.2701L29.0145 20.2557L29.0107 19.8503L27.4544 19.8647L27.4582 20.2701ZM29.0233 20.2554C29.2015 20.2461 29.4044 20.2413 29.6322 20.2413V19.8358C29.399 19.8358 29.1888 19.8407 29.0019 19.8505L29.0233 20.2554ZM29.6322 20.2413C30.5874 20.2413 31.2847 20.4431 31.7539 20.8168L32.0065 20.4996C31.4382 20.0471 30.6369 19.8358 29.6322 19.8358V20.2413ZM31.7553 20.8179C32.2336 21.1918 32.47 21.68 32.47 22.301H32.8755C32.8755 21.5578 32.5836 20.9508 32.0051 20.4985L31.7553 20.8179ZM32.47 22.301C32.47 22.8111 32.3087 23.266 31.9816 23.6726L32.2976 23.9267C32.6814 23.4495 32.8755 22.9053 32.8755 22.301H32.47ZM31.9799 23.6747C31.6684 24.0728 31.1585 24.3911 30.4235 24.6144L30.5414 25.0023C31.3243 24.7645 31.9191 24.4103 32.2993 23.9246L31.9799 23.6747ZM30.2797 24.8083V24.8372H30.6852V24.8083H30.2797ZM29.272 20.1096C28.9646 20.1096 28.7055 20.1435 28.5134 20.2275L28.676 20.599C28.7913 20.5485 28.9838 20.5151 29.272 20.5151V20.1096ZM28.509 20.2295C28.3069 20.3238 28.1722 20.4921 28.0998 20.7094L28.4844 20.8376C28.5273 20.709 28.5943 20.6371 28.6804 20.597L28.509 20.2295ZM28.0998 20.7094C28.0316 20.914 28.0029 21.1999 28.0029 21.5516H28.4084C28.4084 21.2117 28.4373 20.9788 28.4844 20.8376L28.0998 20.7094ZM28.0029 21.5516V24.8083H28.4084V21.5516H28.0029ZM28.2056 25.0111H29.1711V24.6056H28.2056V25.0111ZM29.1711 25.0111C29.9895 25.0111 30.6158 24.7913 30.9778 24.2935L30.6499 24.0551C30.3971 24.4027 29.9282 24.6056 29.1711 24.6056V25.0111ZM30.9774 24.2942C31.327 23.8173 31.4921 23.1996 31.4921 22.4595H31.0867C31.0867 23.1412 30.9347 23.6667 30.6504 24.0544L30.9774 24.2942ZM31.4921 22.4595C31.4921 21.7139 31.3287 21.1182 30.9652 20.7106L30.6626 20.9805C30.9331 21.2838 31.0867 21.764 31.0867 22.4595H31.4921ZM30.9652 20.7106C30.594 20.2945 30.012 20.1096 29.272 20.1096V20.5151C29.9538 20.5151 30.3997 20.6857 30.6626 20.9805L30.9652 20.7106ZM29.2864 30.0979C30.2127 30.0979 30.9451 29.8814 31.4459 29.4127C31.9493 28.9416 32.1838 28.2488 32.1838 27.3734H31.7784C31.7784 28.1791 31.5637 28.7471 31.1689 29.1167C30.7715 29.4885 30.1566 29.6924 29.2864 29.6924V30.0979ZM32.1838 27.3734C32.1838 26.578 31.9665 25.9409 31.5014 25.4974L31.2215 25.7909C31.5826 26.1351 31.7784 26.6508 31.7784 27.3734H32.1838ZM31.5031 25.4991C31.0447 25.0516 30.3327 24.8506 29.4161 24.8506V25.2561C30.2864 25.2561 30.8712 25.4489 31.2198 25.7892L31.5031 25.4991ZM29.4161 24.8506H28.2056V25.2561H29.4161V24.8506ZM28.0029 25.0533V28.6991H28.4084V25.0533H28.0029ZM28.0029 28.6991C28.0029 29.0497 28.0313 29.333 28.1009 29.5303L28.4833 29.3953C28.4376 29.266 28.4084 29.0401 28.4084 28.6991H28.0029ZM28.1009 29.5303C28.1749 29.7399 28.3109 29.8999 28.509 29.9924L28.6804 29.625C28.5903 29.5829 28.5246 29.5124 28.4833 29.3953L28.1009 29.5303ZM28.5235 29.9985C28.712 30.0692 28.9721 30.0979 29.2864 30.0979V29.6924C28.9859 29.6924 28.7848 29.6634 28.6659 29.6188L28.5235 29.9985ZM38.5182 20.3124L38.5294 20.5148L38.7209 20.5042V20.3124H38.5182ZM37.7544 20.4277L37.6869 20.2364L37.6832 20.2378L37.7544 20.4277ZM37.4374 20.7591L37.6286 20.8266V20.8266L37.4374 20.7591ZM37.4374 29.4916L37.6286 29.4242V29.4242L37.4374 29.4916ZM37.7544 29.8231L37.6832 30.0129L37.6902 30.0155L37.6972 30.0176L37.7544 29.8231ZM40.9247 29.6502L41.0198 29.8292L41.0217 29.8281L40.9247 29.6502ZM41.6164 28.8288L41.8056 28.9016V28.9016L41.6164 28.8288ZM41.9334 27.2004V26.9977H41.7489L41.7315 27.1813L41.9334 27.2004ZM42.2648 27.2004L42.4666 27.22L42.4881 26.9977H42.2648V27.2004ZM42.3225 30.2266L42.3135 30.4291L42.5472 30.4394L42.5242 30.2067L42.3225 30.2266ZM34.8436 30.2266H34.6408V30.4356L34.8498 30.4292L34.8436 30.2266ZM34.8436 29.9384L34.8323 29.7359L34.6408 29.7466V29.9384H34.8436ZM35.5929 29.8231L35.5254 29.6319L35.5217 29.6332L35.5929 29.8231ZM35.9243 20.7591L35.7332 20.8266V20.8266L35.9243 20.7591ZM35.5929 20.4277L35.5217 20.6175L35.5254 20.6188L35.5929 20.4277ZM34.8436 20.3124H34.6408V20.5042L34.8323 20.5148L34.8436 20.3124ZM34.8436 20.0242L34.858 19.8219L34.6408 19.8064V20.0242H34.8436ZM38.5182 20.0242H38.7209V19.8081L38.5053 19.8218L38.5182 20.0242ZM38.5069 20.11C38.157 20.1294 37.8786 20.1688 37.687 20.2365L37.8219 20.6188C37.9569 20.5712 38.1876 20.5338 38.5294 20.5148L38.5069 20.11ZM37.6832 20.2378C37.47 20.3178 37.3226 20.4753 37.2462 20.6916L37.6286 20.8266C37.6675 20.7162 37.7315 20.6528 37.8256 20.6175L37.6832 20.2378ZM37.2462 20.6916C37.1764 20.8896 37.1482 21.1833 37.1482 21.5516H37.5537C37.5537 21.1899 37.5832 20.9553 37.6286 20.8266L37.2462 20.6916ZM37.1482 21.5516V28.6991H37.5537V21.5516H37.1482ZM37.1482 28.6991C37.1482 29.0674 37.1764 29.3612 37.2462 29.5591L37.6286 29.4242C37.5832 29.2955 37.5537 29.0609 37.5537 28.6991H37.1482ZM37.2462 29.5591C37.3226 29.7754 37.47 29.9329 37.6832 30.0129L37.8256 29.6332C37.7315 29.5979 37.6675 29.5345 37.6286 29.4242L37.2462 29.5591ZM37.6972 30.0176C37.8898 30.0742 38.1686 30.0979 38.5182 30.0979V29.6924C38.1761 29.6924 37.9457 29.668 37.8116 29.6286L37.6972 30.0176ZM38.5182 30.0979H39.5701V29.6924H38.5182V30.0979ZM39.5701 30.0979C40.1784 30.0979 40.6691 30.0155 41.0198 29.8292L40.8296 29.4711C40.5654 29.6115 40.1531 29.6924 39.5701 29.6924V30.0979ZM41.0217 29.8281C41.3858 29.6296 41.6463 29.3157 41.8056 28.9016L41.4271 28.756C41.2982 29.0911 41.0976 29.3249 40.8276 29.4722L41.0217 29.8281ZM41.8056 28.9016C41.9595 28.5012 42.0674 27.9369 42.1352 27.2195L41.7315 27.1813C41.6649 27.8858 41.5614 28.407 41.4271 28.756L41.8056 28.9016ZM41.9334 27.4032H42.2648V26.9977H41.9334V27.4032ZM42.063 27.1809C42.0333 27.488 42.0188 27.8891 42.0188 28.3821H42.4243C42.4243 27.8951 42.4387 27.5085 42.4666 27.22L42.063 27.1809ZM42.0188 28.3821C42.0188 28.9377 42.053 29.5593 42.1207 30.2465L42.5242 30.2067C42.4575 29.5296 42.4243 28.9216 42.4243 28.3821H42.0188ZM42.3314 30.024C41.6732 29.995 40.5693 29.9806 39.0225 29.9806V30.3861C40.5691 30.3861 41.6652 30.4005 42.3135 30.4291L42.3314 30.024ZM39.0225 29.9806C37.1775 29.9806 35.782 29.995 34.8374 30.0239L34.8498 30.4292C35.7881 30.4005 37.1785 30.3861 39.0225 30.3861V29.9806ZM35.0463 30.2266V29.9384H34.6408V30.2266H35.0463ZM34.8548 30.1408C35.2037 30.1214 35.4797 30.0821 35.6641 30.0129L35.5217 29.6332C35.3987 29.6794 35.1752 29.7169 34.8323 29.7359L34.8548 30.1408ZM35.6604 30.0143C35.8815 29.9362 36.0375 29.7803 36.1155 29.5591L35.7332 29.4242C35.6959 29.5297 35.6309 29.5947 35.5254 29.6319L35.6604 30.0143ZM36.1155 29.5591C36.1854 29.3612 36.2135 29.0674 36.2135 28.6991H35.8081C35.8081 29.0609 35.7786 29.2955 35.7332 29.4242L36.1155 29.5591ZM36.2135 28.6991V21.5516H35.8081V28.6991H36.2135ZM36.2135 21.5516C36.2135 21.1833 36.1854 20.8896 36.1155 20.6916L35.7332 20.8266C35.7786 20.9552 35.8081 21.1899 35.8081 21.5516H36.2135ZM36.1155 20.6916C36.0375 20.4705 35.8815 20.3145 35.6604 20.2365L35.5254 20.6188C35.6309 20.6561 35.6959 20.7211 35.7332 20.8266L36.1155 20.6916ZM35.6641 20.2378C35.4797 20.1687 35.2037 20.1293 34.8548 20.11L34.8323 20.5148C35.1752 20.5338 35.3987 20.5714 35.5217 20.6175L35.6641 20.2378ZM35.0463 20.3124V20.0242H34.6408V20.3124H35.0463ZM34.8291 20.2264C35.2402 20.2558 35.861 20.2701 36.6881 20.2701V19.8647C35.8628 19.8647 35.254 19.8502 34.858 19.8219L34.8291 20.2264ZM36.6881 20.2701C37.4584 20.2701 38.0733 20.2557 38.5311 20.2265L38.5053 19.8218C38.06 19.8503 37.4548 19.8647 36.6881 19.8647V20.2701ZM38.3154 20.0242V20.3124H38.7209V20.0242H38.3154ZM47.2554 20.3124L47.2666 20.5148L47.4581 20.5042V20.3124H47.2554ZM46.4917 20.4277L46.4242 20.2364L46.4205 20.2378L46.4917 20.4277ZM46.1746 20.7591L46.3658 20.8266V20.8266L46.1746 20.7591ZM46.1746 29.4916L46.3658 29.4242V29.4242L46.1746 29.4916ZM46.4917 29.8231L46.4205 30.0129L46.4242 30.0143L46.4917 29.8231ZM47.2554 29.9384H47.4581V29.7466L47.2666 29.7359L47.2554 29.9384ZM47.2554 30.2266L47.2422 30.4289L47.4581 30.443V30.2266H47.2554ZM43.5808 30.2266H43.3781V30.4443L43.5952 30.4288L43.5808 30.2266ZM43.5808 29.9384L43.5696 29.7359L43.3781 29.7466V29.9384H43.5808ZM44.3301 29.8231L44.2626 29.6319L44.2589 29.6332L44.3301 29.8231ZM44.6616 20.7591L44.4704 20.8266V20.8266L44.6616 20.7591ZM44.3301 20.4277L44.2589 20.6175L44.2627 20.6188L44.3301 20.4277ZM43.5808 20.3124H43.3781V20.5042L43.5696 20.5148L43.5808 20.3124ZM43.5808 20.0242L43.5952 19.8219L43.3781 19.8064V20.0242H43.5808ZM47.2554 20.0242H47.4581V19.8081L47.2425 19.8218L47.2554 20.0242ZM47.2441 20.11C46.8943 20.1294 46.6158 20.1688 46.4242 20.2365L46.5591 20.6188C46.6941 20.5712 46.9249 20.5338 47.2666 20.5148L47.2441 20.11ZM46.4205 20.2378C46.2072 20.3178 46.0598 20.4753 45.9835 20.6916L46.3658 20.8266C46.4048 20.7162 46.4687 20.6528 46.5628 20.6175L46.4205 20.2378ZM45.9835 20.6916C45.9136 20.8896 45.8854 21.1833 45.8854 21.5516H46.2909C46.2909 21.1899 46.3204 20.9553 46.3658 20.8266L45.9835 20.6916ZM45.8854 21.5516V28.6991H46.2909V21.5516H45.8854ZM45.8854 28.6991C45.8854 29.0674 45.9136 29.3612 45.9835 29.5591L46.3658 29.4242C46.3204 29.2955 46.2909 29.0609 46.2909 28.6991H45.8854ZM45.9835 29.5591C46.0598 29.7754 46.2072 29.9329 46.4205 30.0129L46.5628 29.6332C46.4687 29.5979 46.4048 29.5345 46.3658 29.4242L45.9835 29.5591ZM46.4242 30.0143C46.6158 30.0819 46.8943 30.1213 47.2441 30.1408L47.2666 29.7359C46.9249 29.7169 46.6941 29.6795 46.5591 29.6319L46.4242 30.0143ZM47.0527 29.9384V30.2266H47.4581V29.9384H47.0527ZM47.2686 30.0243C46.8202 29.995 46.2051 29.9806 45.4253 29.9806V30.3861C46.2018 30.3861 46.8068 30.4005 47.2422 30.4289L47.2686 30.0243ZM45.4253 29.9806C44.5982 29.9806 43.9774 29.995 43.5664 30.0243L43.5952 30.4288C43.9912 30.4005 44.6001 30.3861 45.4253 30.3861V29.9806ZM43.7835 30.2266V29.9384H43.3781V30.2266H43.7835ZM43.5921 30.1408C43.9409 30.1214 44.2169 30.0821 44.4013 30.0129L44.2589 29.6332C44.1359 29.6794 43.9124 29.7169 43.5696 29.7359L43.5921 30.1408ZM44.3976 30.0143C44.6187 29.9362 44.7747 29.7803 44.8527 29.5591L44.4704 29.4242C44.4332 29.5297 44.3682 29.5947 44.2627 29.6319L44.3976 30.0143ZM44.8527 29.5591C44.9226 29.3612 44.9508 29.0674 44.9508 28.6991H44.5453C44.5453 29.0609 44.5158 29.2955 44.4704 29.4242L44.8527 29.5591ZM44.9508 28.6991V21.5516H44.5453V28.6991H44.9508ZM44.9508 21.5516C44.9508 21.1833 44.9226 20.8896 44.8527 20.6916L44.4704 20.8266C44.5158 20.9552 44.5453 21.1899 44.5453 21.5516H44.9508ZM44.8527 20.6916C44.7747 20.4705 44.6187 20.3145 44.3976 20.2365L44.2627 20.6188C44.3682 20.6561 44.4332 20.7211 44.4704 20.8266L44.8527 20.6916ZM44.4013 20.2378C44.2169 20.1687 43.9409 20.1293 43.5921 20.11L43.5696 20.5148C43.9124 20.5338 44.1359 20.5714 44.2589 20.6175L44.4013 20.2378ZM43.7835 20.3124V20.0242H43.3781V20.3124H43.7835ZM43.5664 20.2264C43.9774 20.2558 44.5982 20.2701 45.4253 20.2701V19.8647C44.6001 19.8647 43.9912 19.8502 43.5952 19.8219L43.5664 20.2264ZM45.4253 20.2701C46.1956 20.2701 46.8106 20.2557 47.2683 20.2265L47.2425 19.8218C46.7972 19.8503 46.1921 19.8647 45.4253 19.8647V20.2701ZM47.0527 20.0242V20.3124H47.4581V20.0242H47.0527ZM56.2949 29.0161L56.484 28.9429L56.4839 28.9428L56.2949 29.0161ZM57.2892 29.9384H57.4919V29.7444L57.2982 29.7358L57.2892 29.9384ZM57.2892 30.2266L57.274 30.4287L57.4919 30.4451V30.2266H57.2892ZM53.9028 30.2266H53.7001V30.4443L53.9172 30.4288L53.9028 30.2266ZM53.9028 29.9384L53.8921 29.7359L53.7001 29.746V29.9384H53.9028ZM54.681 29.8087L54.7622 29.9945L54.7673 29.9921L54.681 29.8087ZM54.753 28.7279L54.5629 28.7986L54.5648 28.8032L54.753 28.7279ZM53.874 26.3646L54.064 26.294L54.0149 26.1619H53.874V26.3646ZM50.3867 26.3646V26.1619H50.2478L50.1976 26.2915L50.3867 26.3646ZM49.7959 27.8921L49.6068 27.819L49.6058 27.8217L49.7959 27.8921ZM49.8103 29.7222L49.6978 29.8909L49.7015 29.8932L49.8103 29.7222ZM50.7614 29.9384H50.9641V29.7402L50.766 29.7357L50.7614 29.9384ZM50.7614 30.2266L50.7507 30.429L50.9641 30.4403V30.2266H50.7614ZM48.0235 30.2266H47.8207V30.4506L48.0436 30.4283L48.0235 30.2266ZM48.0235 29.9384L47.9761 29.7412L47.8207 29.7785V29.9384H48.0235ZM49.1619 28.6847L48.9728 28.6114L48.9728 28.6116L49.1619 28.6847ZM52.5482 19.9521V19.7494H52.4094L52.3592 19.8788L52.5482 19.9521ZM52.7788 19.9521L52.9678 19.8788L52.9176 19.7494H52.7788V19.9521ZM53.7587 26.0764V26.2792H54.0511L53.9486 26.0053L53.7587 26.0764ZM52.1448 21.7678L52.3346 21.6967L52.1464 21.1943L51.9553 21.6956L52.1448 21.7678ZM50.502 26.0764L50.3126 26.0042L50.2077 26.2792H50.502V26.0764ZM56.1058 29.0893C56.3495 29.7188 56.7312 30.1165 57.2802 30.1409L57.2982 29.7358C56.9826 29.7218 56.7014 29.5046 56.484 28.9429L56.1058 29.0893ZM57.0865 29.9384V30.2266H57.4919V29.9384H57.0865ZM57.3044 30.0244C56.9128 29.995 56.3932 29.9806 55.7473 29.9806V30.3861C56.3888 30.3861 56.897 30.4005 57.274 30.4287L57.3044 30.0244ZM55.7473 29.9806C54.9202 29.9806 54.2994 29.995 53.8884 30.0243L53.9172 30.4288C54.3132 30.4005 54.9221 30.3861 55.7473 30.3861V29.9806ZM54.1055 30.2266V29.9384H53.7001V30.2266H54.1055ZM53.9135 30.1408C54.281 30.1215 54.5724 30.0775 54.7622 29.9944L54.5997 29.6229C54.4821 29.6744 54.2547 29.7168 53.8921 29.7359L53.9135 30.1408ZM54.7673 29.9921C54.8795 29.9393 54.9736 29.8615 55.038 29.7554C55.1019 29.6501 55.1287 29.5302 55.1287 29.4052H54.7232C54.7232 29.4724 54.7091 29.5158 54.6914 29.5449C54.6741 29.5733 54.6457 29.6012 54.5946 29.6252L54.7673 29.9921ZM55.1287 29.4052C55.1287 29.2022 55.059 28.9471 54.9412 28.6526L54.5648 28.8032C54.6775 29.0851 54.7232 29.2815 54.7232 29.4052H55.1287ZM54.943 28.6572L54.064 26.294L53.684 26.4353L54.563 28.7986L54.943 28.6572ZM53.874 26.1619H50.3867V26.5674H53.874V26.1619ZM50.1976 26.2915L49.6068 27.819L49.985 27.9653L50.5758 26.4378L50.1976 26.2915ZM49.6058 27.8217C49.4122 28.3443 49.305 28.7667 49.305 29.0737H49.7104C49.7104 28.8428 49.7953 28.4774 49.986 27.9625L49.6058 27.8217ZM49.305 29.0737C49.305 29.4217 49.4265 29.71 49.6979 29.8909L49.9228 29.5535C49.7907 29.4655 49.7104 29.3214 49.7104 29.0737H49.305ZM49.7015 29.8932C49.9587 30.057 50.3196 30.1311 50.7568 30.141L50.766 29.7357C50.3578 29.7264 50.0846 29.6564 49.9192 29.5512L49.7015 29.8932ZM50.5587 29.9384V30.2266H50.9641V29.9384H50.5587ZM50.772 30.0241C50.2209 29.9951 49.6649 29.9806 49.1042 29.9806V30.3861C49.6579 30.3861 50.2068 30.4004 50.7507 30.429L50.772 30.0241ZM49.1042 29.9806C48.6681 29.9806 48.3006 29.9951 48.0033 30.0248L48.0436 30.4283C48.3227 30.4004 48.6757 30.3861 49.1042 30.3861V29.9806ZM48.2262 30.2266V29.9384H47.8207V30.2266H48.2262ZM48.0708 30.1355C48.6462 29.9974 49.0623 29.5042 49.351 28.7578L48.9728 28.6116C48.7042 29.3062 48.3614 29.6488 47.9761 29.7412L48.0708 30.1355ZM49.3509 28.758L52.7373 20.0254L52.3592 19.8788L48.9728 28.6114L49.3509 28.758ZM52.5482 20.1549H52.7788V19.7494H52.5482V20.1549ZM52.5898 20.0254L56.1059 29.0894L56.4839 28.9428L52.9678 19.8788L52.5898 20.0254ZM53.9486 26.0053L52.3346 21.6967L51.9549 21.8389L53.5688 26.1476L53.9486 26.0053ZM51.9553 21.6956L50.3126 26.0042L50.6914 26.1487L52.3342 21.84L51.9553 21.6956ZM50.502 26.2792H53.7587V25.8737H50.502V26.2792Z" fill="#FEF5EB" mask="url(#path-5-outside-1_23668_7509)"/>
</g>
</g>
<defs>
<linearGradient id="paint0_linear_23668_7509" x1="34" y1="-1.04141e-05" x2="34" y2="68" gradientUnits="userSpaceOnUse">
<stop stop-color="#C93D34"/>
<stop offset="1" stop-color="#7A2629"/>
</linearGradient>
<linearGradient id="paint1_linear_23668_7509" x1="34" y1="-1.04141e-05" x2="34" y2="68" gradientUnits="userSpaceOnUse">
<stop stop-color="#C93D34"/>
<stop offset="1" stop-color="#7A2629"/>
</linearGradient>
<clipPath id="clip0_23668_7509">
<rect width="68" height="68" fill="white"/>
</clipPath>
</defs>
</svg>
