<svg width="68" height="68" viewBox="0 0 68 68" fill="none" xmlns="http://www.w3.org/2000/svg">
<g clip-path="url(#clip0_23632_22729)">
<mask id="mask0_23632_22729" style="mask-type:alpha" maskUnits="userSpaceOnUse" x="0" y="0" width="68" height="68">
<path fill-rule="evenodd" clip-rule="evenodd" d="M47.0333 0H20.9667C13.5811 0 8.89667 0.0377779 4.45778 4.45778C0.018889 8.89667 0 13.6 0 20.9667V47.0333C0 54.4189 0.0377779 59.1033 4.45778 63.5422C8.89667 67.9811 13.6 68 20.9667 68H47.0333C54.4189 68 59.1033 67.9811 63.5422 63.5422C67.9622 59.1033 68 54.4 68 47.0333V20.9667C68 13.5811 67.9622 8.89667 63.5422 4.45778C59.1033 0.018889 54.4 0 47.0333 0Z" fill="url(#paint0_linear_23632_22729)"/>
</mask>
<g mask="url(#mask0_23632_22729)">
<rect width="68" height="68" fill="url(#paint1_linear_23632_22729)"/>
<path fill-rule="evenodd" clip-rule="evenodd" d="M15.6212 64.373C26.4256 64.373 45.6357 64.373 45.6357 64.373C52.5868 64.373 57.0823 64.6374 61.2379 60.4441C64.8079 56.8741 64.5057 50.8674 64.7323 46.1074C60.709 52.1519 53.3234 51.9441 47.619 51.9441C47.619 51.9441 20.929 51.9441 10.9556 51.9441C0.982316 51.963 4.81676 64.373 15.6212 64.373Z" fill="#FEF5EB"/>
<path d="M12.4854 53.5312H23.1387V61.5213L17.812 58.8579L12.4854 61.5213V53.5312Z" fill="#F19C33"/>
<mask id="path-5-outside-1_23632_22729" maskUnits="userSpaceOnUse" x="9.10156" y="12.2266" width="50" height="26" fill="black">
<rect fill="white" x="9.10156" y="12.2266" width="50" height="26"/>
<path d="M12.2445 12.8658C12.6672 12.8658 12.9986 12.9138 13.2388 13.0099C13.4886 13.0963 13.7432 13.226 14.0025 13.3989C14.2139 13.5334 14.3772 13.6007 14.4925 13.6007C14.5789 13.6007 14.6462 13.5526 14.6942 13.4566C14.7422 13.3509 14.7807 13.1876 14.8095 12.9666H15.1409C15.0929 13.5238 15.0689 14.5037 15.0689 15.9063H14.7374C14.6798 15.1281 14.454 14.4749 14.0602 13.9465C13.6759 13.4085 13.1139 13.1396 12.3742 13.1396C11.8554 13.1396 11.4327 13.2981 11.1061 13.6151C10.7795 13.9225 10.6162 14.3212 10.6162 14.8111C10.6162 15.1762 10.6978 15.4932 10.8612 15.7622C11.0341 16.0312 11.2502 16.2617 11.5096 16.4539C11.769 16.646 12.1388 16.891 12.6192 17.1888L13.0371 17.4482C13.6423 17.8228 14.1178 18.1542 14.4637 18.4424C14.8191 18.721 15.1025 19.0429 15.3138 19.4079C15.5252 19.773 15.6309 20.2005 15.6309 20.6904C15.6309 21.5646 15.3427 22.2419 14.7663 22.7222C14.1899 23.1929 13.4598 23.4283 12.5759 23.4283C12.1148 23.4283 11.7354 23.3803 11.4376 23.2842C11.1494 23.1881 10.8708 23.0584 10.6018 22.8951C10.3904 22.7606 10.2271 22.6934 10.1118 22.6934C10.0254 22.6934 9.95812 22.7462 9.91009 22.8519C9.86206 22.948 9.82363 23.1065 9.79481 23.3274H9.46338C9.50181 22.7991 9.52102 21.6463 9.52102 19.869H9.85245C9.9197 20.8393 10.1599 21.6271 10.573 22.2323C10.986 22.8375 11.6201 23.1401 12.4751 23.1401C12.9938 23.1401 13.4357 22.9816 13.8008 22.6646C14.1658 22.3379 14.3484 21.8576 14.3484 21.2236C14.3484 20.6856 14.1658 20.2293 13.8008 19.8546C13.4453 19.48 12.8786 19.0573 12.1004 18.5865C11.5336 18.2407 11.0725 17.9333 10.7171 17.6643C10.3712 17.3953 10.0878 17.0735 9.86686 16.6988C9.64591 16.3146 9.53543 15.8679 9.53543 15.3587C9.53543 14.5517 9.79481 13.9369 10.3136 13.5142C10.8323 13.0819 11.476 12.8658 12.2445 12.8658ZM24.7032 22.0161C24.9338 22.6117 25.2652 22.9191 25.6975 22.9384V23.2266C25.3133 23.1977 24.7993 23.1833 24.1557 23.1833C23.3295 23.1833 22.7147 23.1977 22.3112 23.2266V22.9384C22.6762 22.9191 22.9356 22.8759 23.0893 22.8087C23.2526 22.7318 23.3343 22.5973 23.3343 22.4052C23.3343 22.2419 23.2767 22.0161 23.1614 21.7279L22.2824 19.3647H18.7951L18.2043 20.8921C18.0122 21.4109 17.9161 21.8048 17.9161 22.0738C17.9161 22.3716 18.017 22.5877 18.2187 22.7222C18.4301 22.8567 18.7471 22.9288 19.1698 22.9384V23.2266C18.6222 23.1977 18.0698 23.1833 17.5127 23.1833C17.0804 23.1833 16.7201 23.1977 16.4319 23.2266V22.9384C16.9122 22.8231 17.2917 22.4052 17.5703 21.6847L20.9566 12.9522H21.1872L24.7032 22.0161ZM22.1671 19.0765L20.5532 14.7679L18.9104 19.0765H22.1671ZM29.8733 13.3125C29.5275 13.3317 29.2729 13.3701 29.1096 13.4278C28.9559 13.4854 28.8502 13.5959 28.7926 13.7592C28.7349 13.9225 28.7061 14.1867 28.7061 14.5517V21.6991C28.7061 22.0642 28.7349 22.3283 28.7926 22.4917C28.8502 22.655 28.9559 22.7654 29.1096 22.8231C29.2729 22.8807 29.5275 22.9191 29.8733 22.9384V23.2266C29.4314 23.1977 28.8214 23.1833 28.0433 23.1833C27.2171 23.1833 26.6023 23.1977 26.1988 23.2266V22.9384C26.5446 22.9191 26.7944 22.8807 26.9481 22.8231C27.1114 22.7654 27.2219 22.655 27.2795 22.4917C27.3372 22.3283 27.366 22.0642 27.366 21.6991V14.5517C27.366 14.1867 27.3372 13.9225 27.2795 13.7592C27.2219 13.5959 27.1114 13.4854 26.9481 13.4278C26.7944 13.3701 26.5446 13.3317 26.1988 13.3125V13.0243C26.6023 13.0531 27.2171 13.0675 28.0433 13.0675C28.8118 13.0675 29.4218 13.0531 29.8733 13.0243V13.3125ZM40.397 13.3125C40.0607 13.3317 39.811 13.3845 39.6476 13.471C39.4843 13.5478 39.3739 13.6823 39.3162 13.8745C39.2586 14.057 39.2298 14.3308 39.2298 14.6958V23.2986H38.8983L32.8461 13.9465V21.555C32.8461 21.9297 32.8749 22.2083 32.9326 22.3908C32.9998 22.5733 33.1247 22.7078 33.3072 22.7943C33.4898 22.8711 33.7732 22.9191 34.1574 22.9384V23.2266C33.8116 23.1977 33.3217 23.1833 32.6876 23.1833C32.1112 23.1833 31.6645 23.1977 31.3475 23.2266V22.9384C31.6837 22.9191 31.9335 22.8711 32.0968 22.7943C32.2601 22.7078 32.3706 22.5733 32.4282 22.3908C32.4859 22.1986 32.5147 21.9201 32.5147 21.555V14.5517C32.5147 14.1867 32.4859 13.9225 32.4282 13.7592C32.3706 13.5959 32.2601 13.4854 32.0968 13.4278C31.9431 13.3701 31.6933 13.3317 31.3475 13.3125V13.0243C31.6645 13.0531 32.1112 13.0675 32.6876 13.0675C33.1199 13.0675 33.4946 13.0531 33.8116 13.0243L38.8983 20.8633V14.6958C38.8983 14.3212 38.8647 14.0426 38.7975 13.8601C38.7398 13.6775 38.6197 13.5478 38.4372 13.471C38.2547 13.3845 37.9713 13.3317 37.587 13.3125V13.0243C37.9329 13.0531 38.4228 13.0675 39.0568 13.0675C39.6332 13.0675 40.0799 13.0531 40.397 13.0243V13.3125ZM49.7129 13.0243C49.6456 13.7064 49.612 14.3212 49.612 14.8688C49.612 15.3491 49.6264 15.743 49.6552 16.0504H49.3238C49.2469 15.3107 49.1509 14.7631 49.0356 14.4076C48.9203 14.0426 48.7186 13.7784 48.4304 13.6151C48.1422 13.4422 47.7003 13.3557 47.1047 13.3557H46.3265V21.555C46.3265 21.9585 46.3649 22.2515 46.4418 22.434C46.5186 22.6165 46.6531 22.7414 46.8453 22.8087C47.0374 22.8759 47.3496 22.9191 47.7819 22.9384V23.2266C47.2824 23.1977 46.5763 23.1833 45.6637 23.1833C44.703 23.1833 43.9921 23.1977 43.531 23.2266V22.9384C43.9633 22.9191 44.2755 22.8759 44.4676 22.8087C44.6598 22.7414 44.7943 22.6165 44.8711 22.434C44.948 22.2515 44.9864 21.9585 44.9864 21.555V13.3557H44.2082C43.6126 13.3557 43.1707 13.4422 42.8825 13.6151C42.5943 13.7784 42.3926 14.0426 42.2773 14.4076C42.162 14.7631 42.066 15.3107 41.9891 16.0504H41.6577C41.6865 15.743 41.7009 15.3491 41.7009 14.8688C41.7009 14.3212 41.6673 13.7064 41.6 13.0243C42.3974 13.0531 43.7519 13.0675 45.6637 13.0675C47.5658 13.0675 48.9155 13.0531 49.7129 13.0243ZM58.3809 21.3821C58.3809 21.9297 58.4145 22.5445 58.4817 23.2266C57.8285 23.1977 56.7285 23.1833 55.1818 23.1833C53.3374 23.1833 51.9444 23.1977 51.0029 23.2266V22.9384C51.3488 22.9191 51.5986 22.8807 51.7523 22.8231C51.9156 22.7654 52.0261 22.655 52.0837 22.4917C52.1413 22.3283 52.1702 22.0642 52.1702 21.6991V14.5517C52.1702 14.1867 52.1413 13.9225 52.0837 13.7592C52.0261 13.5959 51.9156 13.4854 51.7523 13.4278C51.5986 13.3701 51.3488 13.3317 51.0029 13.3125V13.0243C51.9444 13.0531 53.3374 13.0675 55.1818 13.0675C56.594 13.0675 57.5979 13.0531 58.1935 13.0243C58.1263 13.6583 58.0927 14.2251 58.0927 14.7247C58.0927 15.0993 58.1071 15.3971 58.1359 15.6181H57.8045C57.7372 14.9936 57.6508 14.5325 57.5451 14.2347C57.4394 13.9273 57.2617 13.7064 57.0119 13.5719C56.7621 13.4278 56.3827 13.3557 55.8735 13.3557H54.6775C54.3317 13.3557 54.0771 13.3845 53.9138 13.4422C53.7601 13.4902 53.6544 13.5959 53.5967 13.7592C53.5391 13.9225 53.5103 14.1867 53.5103 14.5517V17.9525H54.4613C54.7976 17.9525 55.057 17.8756 55.2395 17.7219C55.422 17.5586 55.5421 17.3713 55.5997 17.16C55.667 16.939 55.7198 16.6652 55.7582 16.3386L55.8015 16.0504H56.1329C56.1041 16.4539 56.0897 16.9054 56.0897 17.4049V18.0966C56.0897 18.5865 56.1185 19.2686 56.1761 20.1428H55.8447C55.8351 20.0756 55.8063 19.845 55.7582 19.4511C55.7102 19.0477 55.5757 18.7451 55.3548 18.5433C55.1434 18.3416 54.8456 18.2407 54.4613 18.2407H53.5103V21.6991C53.5103 22.0642 53.5391 22.3283 53.5967 22.4917C53.6544 22.655 53.7601 22.7654 53.9138 22.8231C54.0771 22.8711 54.3317 22.8951 54.6775 22.8951H55.7294C56.325 22.8951 56.7766 22.8183 57.084 22.6646C57.401 22.5013 57.6315 22.2467 57.7756 21.9008C57.9197 21.5454 58.0254 21.0266 58.0927 20.3446H58.4241C58.3953 20.6039 58.3809 20.9498 58.3809 21.3821ZM18.9107 31.8372C19.9674 31.9813 20.7215 32.2887 21.173 32.7595C21.6245 33.2206 21.8503 33.7778 21.8503 34.431C21.8503 34.9786 21.711 35.4637 21.4324 35.8864C21.1538 36.3091 20.7551 36.6406 20.2364 36.8807C19.7176 37.1113 19.1028 37.2266 18.3919 37.2266C18.1325 37.2266 17.9116 37.2218 17.729 37.2122C17.1142 37.1929 16.509 37.1833 15.9134 37.1833C15.1256 37.1833 14.53 37.1977 14.1265 37.2266V36.9384C14.4724 36.9191 14.7221 36.8807 14.8759 36.8231C15.0392 36.7654 15.1496 36.655 15.2073 36.4917C15.2649 36.3283 15.2937 36.0642 15.2937 35.6991V28.5517C15.2937 28.1867 15.2649 27.9225 15.2073 27.7592C15.1496 27.5959 15.0392 27.4854 14.8759 27.4278C14.7221 27.3701 14.4724 27.3317 14.1265 27.3125V27.0243C14.53 27.0531 15.116 27.0675 15.8846 27.0675L17.4408 27.0531C17.6234 27.0435 17.8299 27.0387 18.0605 27.0387C19.0403 27.0387 19.7897 27.2452 20.3084 27.6583C20.8368 28.0714 21.101 28.619 21.101 29.3011C21.101 29.8582 20.9232 30.3578 20.5678 30.7997C20.222 31.2416 19.6696 31.5778 18.9107 31.8084V31.8372ZM17.7002 27.3125C17.4024 27.3125 17.1766 27.3461 17.0229 27.4134C16.8788 27.4806 16.778 27.6007 16.7203 27.7736C16.6627 27.9465 16.6339 28.2059 16.6339 28.5517V31.8084H17.5993C18.3871 31.8084 18.9347 31.5971 19.2421 31.1744C19.5591 30.7421 19.7176 30.1705 19.7176 29.4596C19.7176 28.7391 19.5591 28.2011 19.2421 27.8457C18.9251 27.4902 18.4111 27.3125 17.7002 27.3125ZM17.7146 36.8951C19.5111 36.8951 20.4093 36.0545 20.4093 34.3734C20.4093 33.6145 20.2027 33.0381 19.7897 32.6442C19.3862 32.2503 18.7377 32.0534 17.8443 32.0534H16.6339V35.6991C16.6339 36.0449 16.6627 36.2995 16.7203 36.4628C16.778 36.6261 16.8788 36.7414 17.0229 36.8087C17.1766 36.8663 17.4072 36.8951 17.7146 36.8951ZM26.9463 27.3125C26.6005 27.3317 26.3459 27.3701 26.1826 27.4278C26.0289 27.4854 25.9232 27.5959 25.8656 27.7592C25.8079 27.9225 25.7791 28.1867 25.7791 28.5517V35.6991C25.7791 36.0642 25.8079 36.3283 25.8656 36.4917C25.9232 36.655 26.0289 36.7654 26.1826 36.8231C26.3459 36.8807 26.6005 36.9191 26.9463 36.9384V37.2266C26.5044 37.1977 25.8944 37.1833 25.1162 37.1833C24.2901 37.1833 23.6752 37.1977 23.2718 37.2266V36.9384C23.6176 36.9191 23.8674 36.8807 24.0211 36.8231C24.1844 36.7654 24.2949 36.655 24.3525 36.4917C24.4101 36.3283 24.439 36.0642 24.439 35.6991V28.5517C24.439 28.1867 24.4101 27.9225 24.3525 27.7592C24.2949 27.5959 24.1844 27.4854 24.0211 27.4278C23.8674 27.3701 23.6176 27.3317 23.2718 27.3125V27.0243C23.6752 27.0531 24.2901 27.0675 25.1162 27.0675C25.8848 27.0675 26.4948 27.0531 26.9463 27.0243V27.3125ZM33.2046 31.8372C34.2613 31.9813 35.0154 32.2887 35.4669 32.7595C35.9185 33.2206 36.1442 33.7778 36.1442 34.431C36.1442 34.9786 36.0049 35.4637 35.7263 35.8864C35.4477 36.3091 35.0491 36.6406 34.5303 36.8807C34.0115 37.1113 33.3967 37.2266 32.6858 37.2266C32.4264 37.2266 32.2055 37.2218 32.023 37.2122C31.4081 37.1929 30.8029 37.1833 30.2073 37.1833C29.4196 37.1833 28.8239 37.1977 28.4205 37.2266V36.9384C28.7663 36.9191 29.0161 36.8807 29.1698 36.8231C29.3331 36.7654 29.4436 36.655 29.5012 36.4917C29.5588 36.3283 29.5877 36.0642 29.5877 35.6991V28.5517C29.5877 28.1867 29.5588 27.9225 29.5012 27.7592C29.4436 27.5959 29.3331 27.4854 29.1698 27.4278C29.0161 27.3701 28.7663 27.3317 28.4205 27.3125V27.0243C28.8239 27.0531 29.4099 27.0675 30.1785 27.0675L31.7348 27.0531C31.9173 27.0435 32.1238 27.0387 32.3544 27.0387C33.3343 27.0387 34.0836 27.2452 34.6023 27.6583C35.1307 28.0714 35.3949 28.619 35.3949 29.3011C35.3949 29.8582 35.2172 30.3578 34.8617 30.7997C34.5159 31.2416 33.9635 31.5778 33.2046 31.8084V31.8372ZM31.9941 27.3125C31.6963 27.3125 31.4706 27.3461 31.3169 27.4134C31.1728 27.4806 31.0719 27.6007 31.0143 27.7736C30.9566 27.9465 30.9278 28.2059 30.9278 28.5517V31.8084H31.8933C32.681 31.8084 33.2286 31.5971 33.536 31.1744C33.853 30.7421 34.0115 30.1705 34.0115 29.4596C34.0115 28.7391 33.853 28.2011 33.536 27.8457C33.219 27.4902 32.705 27.3125 31.9941 27.3125ZM32.0085 36.8951C33.805 36.8951 34.7032 36.0545 34.7032 34.3734C34.7032 33.6145 34.4967 33.0381 34.0836 32.6442C33.6801 32.2503 33.0317 32.0534 32.1382 32.0534H30.9278V35.6991C30.9278 36.0449 30.9566 36.2995 31.0143 36.4628C31.0719 36.6261 31.1728 36.7414 31.3169 36.8087C31.4706 36.8663 31.7011 36.8951 32.0085 36.8951ZM41.2402 27.3125C40.8944 27.3317 40.6398 27.3701 40.4765 27.4278C40.3228 27.4854 40.2171 27.5959 40.1595 27.7592C40.1018 27.9225 40.073 28.1867 40.073 28.5517V35.6991C40.073 36.0642 40.1018 36.3283 40.1595 36.4917C40.2171 36.655 40.3228 36.7654 40.4765 36.8231C40.6398 36.8711 40.8944 36.8951 41.2402 36.8951H42.2922C42.8878 36.8951 43.3393 36.8135 43.6467 36.6502C43.9637 36.4772 44.1943 36.2035 44.3384 35.8288C44.4825 35.4541 44.5882 34.9114 44.6554 34.2005H44.9868C44.958 34.4983 44.9436 34.8921 44.9436 35.3821C44.9436 35.9297 44.9772 36.5445 45.0445 37.2266C44.3912 37.1977 43.2913 37.1833 41.7446 37.1833C39.9001 37.1833 38.5071 37.1977 37.5657 37.2266V36.9384C37.9115 36.9191 38.1613 36.8807 38.315 36.8231C38.4783 36.7654 38.5888 36.655 38.6464 36.4917C38.7041 36.3283 38.7329 36.0642 38.7329 35.6991V28.5517C38.7329 28.1867 38.7041 27.9225 38.6464 27.7592C38.5888 27.5959 38.4783 27.4854 38.315 27.4278C38.1613 27.3701 37.9115 27.3317 37.5657 27.3125V27.0243C37.9692 27.0531 38.584 27.0675 39.4102 27.0675C40.1787 27.0675 40.7887 27.0531 41.2402 27.0243V27.3125ZM53.6807 35.3821C53.6807 35.9297 53.7144 36.5445 53.7816 37.2266C53.1284 37.1977 52.0284 37.1833 50.4817 37.1833C48.6372 37.1833 47.2443 37.1977 46.3028 37.2266V36.9384C46.6487 36.9191 46.8984 36.8807 47.0521 36.8231C47.2154 36.7654 47.3259 36.655 47.3836 36.4917C47.4412 36.3283 47.47 36.0642 47.47 35.6991V28.5517C47.47 28.1867 47.4412 27.9225 47.3836 27.7592C47.3259 27.5959 47.2154 27.4854 47.0521 27.4278C46.8984 27.3701 46.6487 27.3317 46.3028 27.3125V27.0243C47.2443 27.0531 48.6372 27.0675 50.4817 27.0675C51.8939 27.0675 52.8978 27.0531 53.4934 27.0243C53.4262 27.6583 53.3925 28.2251 53.3925 28.7247C53.3925 29.0993 53.4069 29.3971 53.4358 29.6181H53.1043C53.0371 28.9936 52.9506 28.5325 52.845 28.2347C52.7393 27.9273 52.5616 27.7064 52.3118 27.5719C52.062 27.4278 51.6825 27.3557 51.1734 27.3557H49.9774C49.6315 27.3557 49.3769 27.3845 49.2136 27.4422C49.0599 27.4902 48.9543 27.5959 48.8966 27.7592C48.839 27.9225 48.8102 28.1867 48.8102 28.5517V31.9525H49.7612C50.0974 31.9525 50.3568 31.8756 50.5394 31.7219C50.7219 31.5586 50.842 31.3713 50.8996 31.16C50.9669 30.939 51.0197 30.6652 51.0581 30.3386L51.1013 30.0504H51.4328C51.404 30.4539 51.3895 30.9054 51.3895 31.4049V32.0966C51.3895 32.5865 51.4184 33.2686 51.476 34.1428H51.1446C51.135 34.0756 51.1061 33.845 51.0581 33.4511C51.0101 33.0477 50.8756 32.7451 50.6546 32.5433C50.4433 32.3416 50.1455 32.2407 49.7612 32.2407H48.8102V35.6991C48.8102 36.0642 48.839 36.3283 48.8966 36.4917C48.9543 36.655 49.0599 36.7654 49.2136 36.8231C49.3769 36.8711 49.6315 36.8951 49.9774 36.8951H51.0293C51.6249 36.8951 52.0764 36.8183 52.3838 36.6646C52.7009 36.5013 52.9314 36.2467 53.0755 35.9008C53.2196 35.5454 53.3253 35.0266 53.3925 34.3446H53.724C53.6951 34.6039 53.6807 34.9498 53.6807 35.3821Z"/>
</mask>
<path d="M12.2445 12.8658C12.6672 12.8658 12.9986 12.9138 13.2388 13.0099C13.4886 13.0963 13.7432 13.226 14.0025 13.3989C14.2139 13.5334 14.3772 13.6007 14.4925 13.6007C14.5789 13.6007 14.6462 13.5526 14.6942 13.4566C14.7422 13.3509 14.7807 13.1876 14.8095 12.9666H15.1409C15.0929 13.5238 15.0689 14.5037 15.0689 15.9063H14.7374C14.6798 15.1281 14.454 14.4749 14.0602 13.9465C13.6759 13.4085 13.1139 13.1396 12.3742 13.1396C11.8554 13.1396 11.4327 13.2981 11.1061 13.6151C10.7795 13.9225 10.6162 14.3212 10.6162 14.8111C10.6162 15.1762 10.6978 15.4932 10.8612 15.7622C11.0341 16.0312 11.2502 16.2617 11.5096 16.4539C11.769 16.646 12.1388 16.891 12.6192 17.1888L13.0371 17.4482C13.6423 17.8228 14.1178 18.1542 14.4637 18.4424C14.8191 18.721 15.1025 19.0429 15.3138 19.4079C15.5252 19.773 15.6309 20.2005 15.6309 20.6904C15.6309 21.5646 15.3427 22.2419 14.7663 22.7222C14.1899 23.1929 13.4598 23.4283 12.5759 23.4283C12.1148 23.4283 11.7354 23.3803 11.4376 23.2842C11.1494 23.1881 10.8708 23.0584 10.6018 22.8951C10.3904 22.7606 10.2271 22.6934 10.1118 22.6934C10.0254 22.6934 9.95812 22.7462 9.91009 22.8519C9.86206 22.948 9.82363 23.1065 9.79481 23.3274H9.46338C9.50181 22.7991 9.52102 21.6463 9.52102 19.869H9.85245C9.9197 20.8393 10.1599 21.6271 10.573 22.2323C10.986 22.8375 11.6201 23.1401 12.4751 23.1401C12.9938 23.1401 13.4357 22.9816 13.8008 22.6646C14.1658 22.3379 14.3484 21.8576 14.3484 21.2236C14.3484 20.6856 14.1658 20.2293 13.8008 19.8546C13.4453 19.48 12.8786 19.0573 12.1004 18.5865C11.5336 18.2407 11.0725 17.9333 10.7171 17.6643C10.3712 17.3953 10.0878 17.0735 9.86686 16.6988C9.64591 16.3146 9.53543 15.8679 9.53543 15.3587C9.53543 14.5517 9.79481 13.9369 10.3136 13.5142C10.8323 13.0819 11.476 12.8658 12.2445 12.8658ZM24.7032 22.0161C24.9338 22.6117 25.2652 22.9191 25.6975 22.9384V23.2266C25.3133 23.1977 24.7993 23.1833 24.1557 23.1833C23.3295 23.1833 22.7147 23.1977 22.3112 23.2266V22.9384C22.6762 22.9191 22.9356 22.8759 23.0893 22.8087C23.2526 22.7318 23.3343 22.5973 23.3343 22.4052C23.3343 22.2419 23.2767 22.0161 23.1614 21.7279L22.2824 19.3647H18.7951L18.2043 20.8921C18.0122 21.4109 17.9161 21.8048 17.9161 22.0738C17.9161 22.3716 18.017 22.5877 18.2187 22.7222C18.4301 22.8567 18.7471 22.9288 19.1698 22.9384V23.2266C18.6222 23.1977 18.0698 23.1833 17.5127 23.1833C17.0804 23.1833 16.7201 23.1977 16.4319 23.2266V22.9384C16.9122 22.8231 17.2917 22.4052 17.5703 21.6847L20.9566 12.9522H21.1872L24.7032 22.0161ZM22.1671 19.0765L20.5532 14.7679L18.9104 19.0765H22.1671ZM29.8733 13.3125C29.5275 13.3317 29.2729 13.3701 29.1096 13.4278C28.9559 13.4854 28.8502 13.5959 28.7926 13.7592C28.7349 13.9225 28.7061 14.1867 28.7061 14.5517V21.6991C28.7061 22.0642 28.7349 22.3283 28.7926 22.4917C28.8502 22.655 28.9559 22.7654 29.1096 22.8231C29.2729 22.8807 29.5275 22.9191 29.8733 22.9384V23.2266C29.4314 23.1977 28.8214 23.1833 28.0433 23.1833C27.2171 23.1833 26.6023 23.1977 26.1988 23.2266V22.9384C26.5446 22.9191 26.7944 22.8807 26.9481 22.8231C27.1114 22.7654 27.2219 22.655 27.2795 22.4917C27.3372 22.3283 27.366 22.0642 27.366 21.6991V14.5517C27.366 14.1867 27.3372 13.9225 27.2795 13.7592C27.2219 13.5959 27.1114 13.4854 26.9481 13.4278C26.7944 13.3701 26.5446 13.3317 26.1988 13.3125V13.0243C26.6023 13.0531 27.2171 13.0675 28.0433 13.0675C28.8118 13.0675 29.4218 13.0531 29.8733 13.0243V13.3125ZM40.397 13.3125C40.0607 13.3317 39.811 13.3845 39.6476 13.471C39.4843 13.5478 39.3739 13.6823 39.3162 13.8745C39.2586 14.057 39.2298 14.3308 39.2298 14.6958V23.2986H38.8983L32.8461 13.9465V21.555C32.8461 21.9297 32.8749 22.2083 32.9326 22.3908C32.9998 22.5733 33.1247 22.7078 33.3072 22.7943C33.4898 22.8711 33.7732 22.9191 34.1574 22.9384V23.2266C33.8116 23.1977 33.3217 23.1833 32.6876 23.1833C32.1112 23.1833 31.6645 23.1977 31.3475 23.2266V22.9384C31.6837 22.9191 31.9335 22.8711 32.0968 22.7943C32.2601 22.7078 32.3706 22.5733 32.4282 22.3908C32.4859 22.1986 32.5147 21.9201 32.5147 21.555V14.5517C32.5147 14.1867 32.4859 13.9225 32.4282 13.7592C32.3706 13.5959 32.2601 13.4854 32.0968 13.4278C31.9431 13.3701 31.6933 13.3317 31.3475 13.3125V13.0243C31.6645 13.0531 32.1112 13.0675 32.6876 13.0675C33.1199 13.0675 33.4946 13.0531 33.8116 13.0243L38.8983 20.8633V14.6958C38.8983 14.3212 38.8647 14.0426 38.7975 13.8601C38.7398 13.6775 38.6197 13.5478 38.4372 13.471C38.2547 13.3845 37.9713 13.3317 37.587 13.3125V13.0243C37.9329 13.0531 38.4228 13.0675 39.0568 13.0675C39.6332 13.0675 40.0799 13.0531 40.397 13.0243V13.3125ZM49.7129 13.0243C49.6456 13.7064 49.612 14.3212 49.612 14.8688C49.612 15.3491 49.6264 15.743 49.6552 16.0504H49.3238C49.2469 15.3107 49.1509 14.7631 49.0356 14.4076C48.9203 14.0426 48.7186 13.7784 48.4304 13.6151C48.1422 13.4422 47.7003 13.3557 47.1047 13.3557H46.3265V21.555C46.3265 21.9585 46.3649 22.2515 46.4418 22.434C46.5186 22.6165 46.6531 22.7414 46.8453 22.8087C47.0374 22.8759 47.3496 22.9191 47.7819 22.9384V23.2266C47.2824 23.1977 46.5763 23.1833 45.6637 23.1833C44.703 23.1833 43.9921 23.1977 43.531 23.2266V22.9384C43.9633 22.9191 44.2755 22.8759 44.4676 22.8087C44.6598 22.7414 44.7943 22.6165 44.8711 22.434C44.948 22.2515 44.9864 21.9585 44.9864 21.555V13.3557H44.2082C43.6126 13.3557 43.1707 13.4422 42.8825 13.6151C42.5943 13.7784 42.3926 14.0426 42.2773 14.4076C42.162 14.7631 42.066 15.3107 41.9891 16.0504H41.6577C41.6865 15.743 41.7009 15.3491 41.7009 14.8688C41.7009 14.3212 41.6673 13.7064 41.6 13.0243C42.3974 13.0531 43.7519 13.0675 45.6637 13.0675C47.5658 13.0675 48.9155 13.0531 49.7129 13.0243ZM58.3809 21.3821C58.3809 21.9297 58.4145 22.5445 58.4817 23.2266C57.8285 23.1977 56.7285 23.1833 55.1818 23.1833C53.3374 23.1833 51.9444 23.1977 51.0029 23.2266V22.9384C51.3488 22.9191 51.5986 22.8807 51.7523 22.8231C51.9156 22.7654 52.0261 22.655 52.0837 22.4917C52.1413 22.3283 52.1702 22.0642 52.1702 21.6991V14.5517C52.1702 14.1867 52.1413 13.9225 52.0837 13.7592C52.0261 13.5959 51.9156 13.4854 51.7523 13.4278C51.5986 13.3701 51.3488 13.3317 51.0029 13.3125V13.0243C51.9444 13.0531 53.3374 13.0675 55.1818 13.0675C56.594 13.0675 57.5979 13.0531 58.1935 13.0243C58.1263 13.6583 58.0927 14.2251 58.0927 14.7247C58.0927 15.0993 58.1071 15.3971 58.1359 15.6181H57.8045C57.7372 14.9936 57.6508 14.5325 57.5451 14.2347C57.4394 13.9273 57.2617 13.7064 57.0119 13.5719C56.7621 13.4278 56.3827 13.3557 55.8735 13.3557H54.6775C54.3317 13.3557 54.0771 13.3845 53.9138 13.4422C53.7601 13.4902 53.6544 13.5959 53.5967 13.7592C53.5391 13.9225 53.5103 14.1867 53.5103 14.5517V17.9525H54.4613C54.7976 17.9525 55.057 17.8756 55.2395 17.7219C55.422 17.5586 55.5421 17.3713 55.5997 17.16C55.667 16.939 55.7198 16.6652 55.7582 16.3386L55.8015 16.0504H56.1329C56.1041 16.4539 56.0897 16.9054 56.0897 17.4049V18.0966C56.0897 18.5865 56.1185 19.2686 56.1761 20.1428H55.8447C55.8351 20.0756 55.8063 19.845 55.7582 19.4511C55.7102 19.0477 55.5757 18.7451 55.3548 18.5433C55.1434 18.3416 54.8456 18.2407 54.4613 18.2407H53.5103V21.6991C53.5103 22.0642 53.5391 22.3283 53.5967 22.4917C53.6544 22.655 53.7601 22.7654 53.9138 22.8231C54.0771 22.8711 54.3317 22.8951 54.6775 22.8951H55.7294C56.325 22.8951 56.7766 22.8183 57.084 22.6646C57.401 22.5013 57.6315 22.2467 57.7756 21.9008C57.9197 21.5454 58.0254 21.0266 58.0927 20.3446H58.4241C58.3953 20.6039 58.3809 20.9498 58.3809 21.3821ZM18.9107 31.8372C19.9674 31.9813 20.7215 32.2887 21.173 32.7595C21.6245 33.2206 21.8503 33.7778 21.8503 34.431C21.8503 34.9786 21.711 35.4637 21.4324 35.8864C21.1538 36.3091 20.7551 36.6406 20.2364 36.8807C19.7176 37.1113 19.1028 37.2266 18.3919 37.2266C18.1325 37.2266 17.9116 37.2218 17.729 37.2122C17.1142 37.1929 16.509 37.1833 15.9134 37.1833C15.1256 37.1833 14.53 37.1977 14.1265 37.2266V36.9384C14.4724 36.9191 14.7221 36.8807 14.8759 36.8231C15.0392 36.7654 15.1496 36.655 15.2073 36.4917C15.2649 36.3283 15.2937 36.0642 15.2937 35.6991V28.5517C15.2937 28.1867 15.2649 27.9225 15.2073 27.7592C15.1496 27.5959 15.0392 27.4854 14.8759 27.4278C14.7221 27.3701 14.4724 27.3317 14.1265 27.3125V27.0243C14.53 27.0531 15.116 27.0675 15.8846 27.0675L17.4408 27.0531C17.6234 27.0435 17.8299 27.0387 18.0605 27.0387C19.0403 27.0387 19.7897 27.2452 20.3084 27.6583C20.8368 28.0714 21.101 28.619 21.101 29.3011C21.101 29.8582 20.9232 30.3578 20.5678 30.7997C20.222 31.2416 19.6696 31.5778 18.9107 31.8084V31.8372ZM17.7002 27.3125C17.4024 27.3125 17.1766 27.3461 17.0229 27.4134C16.8788 27.4806 16.778 27.6007 16.7203 27.7736C16.6627 27.9465 16.6339 28.2059 16.6339 28.5517V31.8084H17.5993C18.3871 31.8084 18.9347 31.5971 19.2421 31.1744C19.5591 30.7421 19.7176 30.1705 19.7176 29.4596C19.7176 28.7391 19.5591 28.2011 19.2421 27.8457C18.9251 27.4902 18.4111 27.3125 17.7002 27.3125ZM17.7146 36.8951C19.5111 36.8951 20.4093 36.0545 20.4093 34.3734C20.4093 33.6145 20.2027 33.0381 19.7897 32.6442C19.3862 32.2503 18.7377 32.0534 17.8443 32.0534H16.6339V35.6991C16.6339 36.0449 16.6627 36.2995 16.7203 36.4628C16.778 36.6261 16.8788 36.7414 17.0229 36.8087C17.1766 36.8663 17.4072 36.8951 17.7146 36.8951ZM26.9463 27.3125C26.6005 27.3317 26.3459 27.3701 26.1826 27.4278C26.0289 27.4854 25.9232 27.5959 25.8656 27.7592C25.8079 27.9225 25.7791 28.1867 25.7791 28.5517V35.6991C25.7791 36.0642 25.8079 36.3283 25.8656 36.4917C25.9232 36.655 26.0289 36.7654 26.1826 36.8231C26.3459 36.8807 26.6005 36.9191 26.9463 36.9384V37.2266C26.5044 37.1977 25.8944 37.1833 25.1162 37.1833C24.2901 37.1833 23.6752 37.1977 23.2718 37.2266V36.9384C23.6176 36.9191 23.8674 36.8807 24.0211 36.8231C24.1844 36.7654 24.2949 36.655 24.3525 36.4917C24.4101 36.3283 24.439 36.0642 24.439 35.6991V28.5517C24.439 28.1867 24.4101 27.9225 24.3525 27.7592C24.2949 27.5959 24.1844 27.4854 24.0211 27.4278C23.8674 27.3701 23.6176 27.3317 23.2718 27.3125V27.0243C23.6752 27.0531 24.2901 27.0675 25.1162 27.0675C25.8848 27.0675 26.4948 27.0531 26.9463 27.0243V27.3125ZM33.2046 31.8372C34.2613 31.9813 35.0154 32.2887 35.4669 32.7595C35.9185 33.2206 36.1442 33.7778 36.1442 34.431C36.1442 34.9786 36.0049 35.4637 35.7263 35.8864C35.4477 36.3091 35.0491 36.6406 34.5303 36.8807C34.0115 37.1113 33.3967 37.2266 32.6858 37.2266C32.4264 37.2266 32.2055 37.2218 32.023 37.2122C31.4081 37.1929 30.8029 37.1833 30.2073 37.1833C29.4196 37.1833 28.8239 37.1977 28.4205 37.2266V36.9384C28.7663 36.9191 29.0161 36.8807 29.1698 36.8231C29.3331 36.7654 29.4436 36.655 29.5012 36.4917C29.5588 36.3283 29.5877 36.0642 29.5877 35.6991V28.5517C29.5877 28.1867 29.5588 27.9225 29.5012 27.7592C29.4436 27.5959 29.3331 27.4854 29.1698 27.4278C29.0161 27.3701 28.7663 27.3317 28.4205 27.3125V27.0243C28.8239 27.0531 29.4099 27.0675 30.1785 27.0675L31.7348 27.0531C31.9173 27.0435 32.1238 27.0387 32.3544 27.0387C33.3343 27.0387 34.0836 27.2452 34.6023 27.6583C35.1307 28.0714 35.3949 28.619 35.3949 29.3011C35.3949 29.8582 35.2172 30.3578 34.8617 30.7997C34.5159 31.2416 33.9635 31.5778 33.2046 31.8084V31.8372ZM31.9941 27.3125C31.6963 27.3125 31.4706 27.3461 31.3169 27.4134C31.1728 27.4806 31.0719 27.6007 31.0143 27.7736C30.9566 27.9465 30.9278 28.2059 30.9278 28.5517V31.8084H31.8933C32.681 31.8084 33.2286 31.5971 33.536 31.1744C33.853 30.7421 34.0115 30.1705 34.0115 29.4596C34.0115 28.7391 33.853 28.2011 33.536 27.8457C33.219 27.4902 32.705 27.3125 31.9941 27.3125ZM32.0085 36.8951C33.805 36.8951 34.7032 36.0545 34.7032 34.3734C34.7032 33.6145 34.4967 33.0381 34.0836 32.6442C33.6801 32.2503 33.0317 32.0534 32.1382 32.0534H30.9278V35.6991C30.9278 36.0449 30.9566 36.2995 31.0143 36.4628C31.0719 36.6261 31.1728 36.7414 31.3169 36.8087C31.4706 36.8663 31.7011 36.8951 32.0085 36.8951ZM41.2402 27.3125C40.8944 27.3317 40.6398 27.3701 40.4765 27.4278C40.3228 27.4854 40.2171 27.5959 40.1595 27.7592C40.1018 27.9225 40.073 28.1867 40.073 28.5517V35.6991C40.073 36.0642 40.1018 36.3283 40.1595 36.4917C40.2171 36.655 40.3228 36.7654 40.4765 36.8231C40.6398 36.8711 40.8944 36.8951 41.2402 36.8951H42.2922C42.8878 36.8951 43.3393 36.8135 43.6467 36.6502C43.9637 36.4772 44.1943 36.2035 44.3384 35.8288C44.4825 35.4541 44.5882 34.9114 44.6554 34.2005H44.9868C44.958 34.4983 44.9436 34.8921 44.9436 35.3821C44.9436 35.9297 44.9772 36.5445 45.0445 37.2266C44.3912 37.1977 43.2913 37.1833 41.7446 37.1833C39.9001 37.1833 38.5071 37.1977 37.5657 37.2266V36.9384C37.9115 36.9191 38.1613 36.8807 38.315 36.8231C38.4783 36.7654 38.5888 36.655 38.6464 36.4917C38.7041 36.3283 38.7329 36.0642 38.7329 35.6991V28.5517C38.7329 28.1867 38.7041 27.9225 38.6464 27.7592C38.5888 27.5959 38.4783 27.4854 38.315 27.4278C38.1613 27.3701 37.9115 27.3317 37.5657 27.3125V27.0243C37.9692 27.0531 38.584 27.0675 39.4102 27.0675C40.1787 27.0675 40.7887 27.0531 41.2402 27.0243V27.3125ZM53.6807 35.3821C53.6807 35.9297 53.7144 36.5445 53.7816 37.2266C53.1284 37.1977 52.0284 37.1833 50.4817 37.1833C48.6372 37.1833 47.2443 37.1977 46.3028 37.2266V36.9384C46.6487 36.9191 46.8984 36.8807 47.0521 36.8231C47.2154 36.7654 47.3259 36.655 47.3836 36.4917C47.4412 36.3283 47.47 36.0642 47.47 35.6991V28.5517C47.47 28.1867 47.4412 27.9225 47.3836 27.7592C47.3259 27.5959 47.2154 27.4854 47.0521 27.4278C46.8984 27.3701 46.6487 27.3317 46.3028 27.3125V27.0243C47.2443 27.0531 48.6372 27.0675 50.4817 27.0675C51.8939 27.0675 52.8978 27.0531 53.4934 27.0243C53.4262 27.6583 53.3925 28.2251 53.3925 28.7247C53.3925 29.0993 53.4069 29.3971 53.4358 29.6181H53.1043C53.0371 28.9936 52.9506 28.5325 52.845 28.2347C52.7393 27.9273 52.5616 27.7064 52.3118 27.5719C52.062 27.4278 51.6825 27.3557 51.1734 27.3557H49.9774C49.6315 27.3557 49.3769 27.3845 49.2136 27.4422C49.0599 27.4902 48.9543 27.5959 48.8966 27.7592C48.839 27.9225 48.8102 28.1867 48.8102 28.5517V31.9525H49.7612C50.0974 31.9525 50.3568 31.8756 50.5394 31.7219C50.7219 31.5586 50.842 31.3713 50.8996 31.16C50.9669 30.939 51.0197 30.6652 51.0581 30.3386L51.1013 30.0504H51.4328C51.404 30.4539 51.3895 30.9054 51.3895 31.4049V32.0966C51.3895 32.5865 51.4184 33.2686 51.476 34.1428H51.1446C51.135 34.0756 51.1061 33.845 51.0581 33.4511C51.0101 33.0477 50.8756 32.7451 50.6546 32.5433C50.4433 32.3416 50.1455 32.2407 49.7612 32.2407H48.8102V35.6991C48.8102 36.0642 48.839 36.3283 48.8966 36.4917C48.9543 36.655 49.0599 36.7654 49.2136 36.8231C49.3769 36.8711 49.6315 36.8951 49.9774 36.8951H51.0293C51.6249 36.8951 52.0764 36.8183 52.3838 36.6646C52.7009 36.5013 52.9314 36.2467 53.0755 35.9008C53.2196 35.5454 53.3253 35.0266 53.3925 34.3446H53.724C53.6951 34.6039 53.6807 34.9498 53.6807 35.3821Z" fill="#FEF5EB"/>
<path d="M13.2388 13.0099L13.1634 13.1983L13.1725 13.2015L13.2388 13.0099ZM14.0025 13.3989L13.89 13.5677L13.8937 13.57L14.0025 13.3989ZM14.6942 13.4566L14.8757 13.5473L14.8788 13.5405L14.6942 13.4566ZM14.8095 12.9666V12.7639H14.6315L14.6085 12.9404L14.8095 12.9666ZM15.1409 12.9666L15.3429 12.9841L15.3619 12.7639H15.1409V12.9666ZM15.0689 15.9063V16.109H15.2716V15.9063H15.0689ZM14.7374 15.9063L14.5353 15.9213L14.5492 16.109H14.7374V15.9063ZM14.0602 13.9465L13.8952 14.0644L13.8976 14.0677L14.0602 13.9465ZM11.1061 13.6151L11.2451 13.7627L11.2473 13.7606L11.1061 13.6151ZM10.8612 15.7622L10.6878 15.8674L10.6906 15.8718L10.8612 15.7622ZM11.5096 16.4539L11.6303 16.291V16.291L11.5096 16.4539ZM12.6192 17.1888L12.7261 17.0165L12.726 17.0165L12.6192 17.1888ZM13.0371 17.4482L12.9301 17.6204L12.9304 17.6205L13.0371 17.4482ZM14.4637 18.4424L14.3338 18.5983L14.3386 18.602L14.4637 18.4424ZM15.3138 19.4079L15.1384 19.5095V19.5095L15.3138 19.4079ZM14.7663 22.7222L14.8945 22.8792L14.8961 22.878L14.7663 22.7222ZM11.4376 23.2842L11.3734 23.4765L11.3753 23.4771L11.4376 23.2842ZM10.6018 22.8951L10.4929 23.0662L10.4966 23.0684L10.6018 22.8951ZM9.91009 22.8519L10.0915 22.9426L10.0947 22.9358L9.91009 22.8519ZM9.79481 23.3274V23.5302H9.97282L9.99585 23.3537L9.79481 23.3274ZM9.46338 23.3274L9.26118 23.3127L9.24536 23.5302H9.46338V23.3274ZM9.52102 19.869V19.6663H9.31828V19.869H9.52102ZM9.85245 19.869L10.0547 19.855L10.0416 19.6663H9.85245V19.869ZM10.573 22.2323L10.4055 22.3466V22.3466L10.573 22.2323ZM13.8008 22.6646L13.9337 22.8177L13.936 22.8157L13.8008 22.6646ZM13.8008 19.8546L13.6537 19.9942L13.6556 19.9961L13.8008 19.8546ZM12.1004 18.5865L11.9948 18.7596L11.9955 18.76L12.1004 18.5865ZM10.7171 17.6643L10.5926 17.8243L10.5947 17.826L10.7171 17.6643ZM9.86686 16.6988L9.6911 16.7999L9.69223 16.8018L9.86686 16.6988ZM10.3136 13.5142L10.4416 13.6714L10.4434 13.67L10.3136 13.5142ZM12.2445 13.0685C12.6557 13.0685 12.9577 13.1158 13.1635 13.1981L13.3141 12.8216C13.0396 12.7118 12.6787 12.663 12.2445 12.663V13.0685ZM13.1725 13.2015C13.4034 13.2814 13.6425 13.4026 13.8901 13.5676L14.115 13.2303C13.8438 13.0494 13.5738 12.9113 13.3051 12.8183L13.1725 13.2015ZM13.8937 13.57C14.1075 13.706 14.3141 13.8034 14.4925 13.8034V13.3979C14.4403 13.3979 14.3203 13.3609 14.1114 13.2279L13.8937 13.57ZM14.4925 13.8034C14.6758 13.8034 14.8031 13.692 14.8755 13.5472L14.5129 13.3659C14.5062 13.3792 14.5005 13.3878 14.4963 13.393C14.4942 13.3955 14.4926 13.3972 14.4915 13.3983C14.4905 13.3993 14.4899 13.3997 14.4899 13.3997C14.4899 13.3997 14.4903 13.3994 14.491 13.3991C14.4917 13.3987 14.4925 13.3984 14.4932 13.3982C14.495 13.3976 14.4951 13.3979 14.4925 13.3979V13.8034ZM14.8788 13.5405C14.9396 13.4066 14.981 13.219 15.0105 12.9929L14.6085 12.9404C14.5803 13.1562 14.5449 13.2952 14.5096 13.3727L14.8788 13.5405ZM14.8095 13.1694H15.1409V12.7639H14.8095V13.1694ZM14.9389 12.9492C14.8901 13.5161 14.8661 14.504 14.8661 15.9063H15.2716C15.2716 14.5034 15.2957 13.5315 15.3429 12.9841L14.9389 12.9492ZM15.0689 15.7035H14.7374V16.109H15.0689V15.7035ZM14.9396 15.8913C14.8797 15.0819 14.6436 14.3899 14.2227 13.8254L13.8976 14.0677C14.2645 14.5598 14.4799 15.1744 14.5353 15.9213L14.9396 15.8913ZM14.2251 13.8287C13.7979 13.2305 13.1704 12.9368 12.3742 12.9368V13.3423C13.0575 13.3423 13.5539 13.5866 13.8952 14.0644L14.2251 13.8287ZM12.3742 12.9368C11.8107 12.9368 11.3347 13.1107 10.9649 13.4696L11.2473 13.7606C11.5308 13.4855 11.9002 13.3423 12.3742 13.3423V12.9368ZM10.9672 13.4675C10.5958 13.8169 10.4134 14.271 10.4134 14.8111H10.8189C10.8189 14.3713 10.9631 14.0281 11.2451 13.7627L10.9672 13.4675ZM10.4134 14.8111C10.4134 15.2072 10.5024 15.5619 10.6879 15.8674L11.0344 15.657C10.8933 15.4245 10.8189 15.1451 10.8189 14.8111H10.4134ZM10.6906 15.8718C10.8769 16.1616 11.11 16.4102 11.3889 16.6168L11.6303 16.291C11.3904 16.1133 11.1912 15.9007 11.0317 15.6526L10.6906 15.8718ZM11.3889 16.6168C11.6549 16.8138 12.0302 17.0622 12.5123 17.3611L12.726 17.0165C12.2475 16.7198 11.8831 16.4782 11.6303 16.291L11.3889 16.6168ZM12.5123 17.361L12.9301 17.6204L13.144 17.2759L12.7261 17.0165L12.5123 17.361ZM12.9304 17.6205C13.5316 17.9927 13.9982 18.3185 14.3339 18.5982L14.5934 18.2867C14.2374 17.99 13.753 17.6529 13.1438 17.2758L12.9304 17.6205ZM14.3386 18.602C14.6751 18.8658 14.9409 19.1683 15.1384 19.5095L15.4893 19.3063C15.2641 18.9174 14.9631 18.5763 14.5887 18.2829L14.3386 18.602ZM15.1384 19.5095C15.3292 19.839 15.4281 20.2303 15.4281 20.6904H15.8336C15.8336 20.1706 15.7212 19.7069 15.4893 19.3063L15.1384 19.5095ZM15.4281 20.6904C15.4281 21.5155 15.1588 22.1312 14.6365 22.5665L14.8961 22.878C15.5265 22.3525 15.8336 21.6137 15.8336 20.6904H15.4281ZM14.638 22.5652C14.1043 23.001 13.4222 23.2256 12.5759 23.2256V23.631C13.4973 23.631 14.2754 23.3848 14.8945 22.8792L14.638 22.5652ZM12.5759 23.2256C12.1269 23.2256 11.7704 23.1785 11.4998 23.0913L11.3753 23.4771C11.7003 23.582 12.1027 23.631 12.5759 23.631V23.2256ZM11.5017 23.0919C11.2283 23.0008 10.9635 22.8776 10.707 22.7218L10.4966 23.0684C10.778 23.2393 11.0704 23.3755 11.3734 23.4765L11.5017 23.0919ZM10.7106 22.7241C10.4969 22.5881 10.2903 22.4907 10.1118 22.4907V22.8961C10.164 22.8961 10.284 22.9332 10.4929 23.0662L10.7106 22.7241ZM10.1118 22.4907C9.91793 22.4907 9.79308 22.6194 9.72553 22.768L10.0947 22.9358C10.1098 22.9025 10.1212 22.8929 10.1218 22.8924C10.1219 22.8924 10.1214 22.8928 10.1204 22.8933C10.1193 22.8939 10.118 22.8945 10.1165 22.895C10.1132 22.8962 10.1112 22.8961 10.1118 22.8961V22.4907ZM9.72876 22.7612C9.66466 22.8894 9.62307 23.0766 9.59378 23.3012L9.99585 23.3537C10.0242 23.1364 10.0595 23.0065 10.0914 22.9426L9.72876 22.7612ZM9.79481 23.1247H9.46338V23.5302H9.79481V23.1247ZM9.66558 23.3421C9.70465 22.805 9.72376 21.6444 9.72376 19.869H9.31828C9.31828 21.6481 9.29897 22.7931 9.26118 23.3127L9.66558 23.3421ZM9.52102 20.0718H9.85245V19.6663H9.52102V20.0718ZM9.6502 19.883C9.71915 20.8778 9.96652 21.7034 10.4055 22.3466L10.7404 22.118C10.3532 21.5507 10.1203 20.8008 10.0547 19.855L9.6502 19.883ZM10.4055 22.3466C10.8631 23.017 11.566 23.3428 12.4751 23.3428V22.9374C11.6742 22.9374 11.109 22.658 10.7404 22.118L10.4055 22.3466ZM12.4751 23.3428C13.0388 23.3428 13.529 23.1691 13.9337 22.8176L13.6679 22.5115C13.3425 22.794 12.9488 22.9374 12.4751 22.9374V23.3428ZM13.936 22.8157C14.3558 22.44 14.5511 21.8972 14.5511 21.2236H14.1456C14.1456 21.818 13.9758 22.2359 13.6656 22.5135L13.936 22.8157ZM14.5511 21.2236C14.5511 20.6344 14.3491 20.1268 13.946 19.7131L13.6556 19.9961C13.9826 20.3317 14.1456 20.7368 14.1456 21.2236H14.5511ZM13.9479 19.7151C13.574 19.321 12.9891 18.8872 12.2053 18.4131L11.9955 18.76C12.768 19.2273 13.3167 19.639 13.6537 19.9942L13.9479 19.7151ZM12.206 18.4135C11.6425 18.0696 11.1875 17.7661 10.8394 17.5026L10.5947 17.826C10.9575 18.1005 11.4247 18.4118 11.9948 18.7596L12.206 18.4135ZM10.8415 17.5043C10.5157 17.2509 10.2494 16.9483 10.0415 16.5958L9.69223 16.8018C9.92626 17.1986 10.2267 17.5398 10.5926 17.8243L10.8415 17.5043ZM10.0426 16.5978C9.84183 16.2486 9.73817 15.8377 9.73817 15.3587H9.33269C9.33269 15.898 9.44999 16.3806 9.69111 16.7999L10.0426 16.5978ZM9.73817 15.3587C9.73817 14.5988 9.97993 14.0476 10.4416 13.6714L10.1855 13.3571C9.6097 13.8262 9.33269 14.5047 9.33269 15.3587H9.73817ZM10.4434 13.67C10.9207 13.2722 11.5165 13.0685 12.2445 13.0685V12.663C11.4355 12.663 10.744 12.8916 10.1838 13.3585L10.4434 13.67ZM24.7032 22.0161L24.8923 21.9429L24.8923 21.9428L24.7032 22.0161ZM25.6975 22.9384H25.9003V22.7444L25.7065 22.7358L25.6975 22.9384ZM25.6975 23.2266L25.6824 23.4287L25.9003 23.4451V23.2266H25.6975ZM22.3112 23.2266H22.1085V23.4443L22.3256 23.4288L22.3112 23.2266ZM22.3112 22.9384L22.3005 22.7359L22.1085 22.746V22.9384H22.3112ZM23.0893 22.8087L23.1706 22.9945L23.1757 22.9921L23.0893 22.8087ZM23.1614 21.7279L22.9713 21.7986L22.9731 21.8032L23.1614 21.7279ZM22.2824 19.3647L22.4724 19.294L22.4233 19.1619H22.2824V19.3647ZM18.7951 19.3647V19.1619H18.6562L18.6061 19.2915L18.7951 19.3647ZM18.2043 20.8921L18.0152 20.819L18.0142 20.8217L18.2043 20.8921ZM18.2187 22.7222L18.1063 22.8909L18.1099 22.8933L18.2187 22.7222ZM19.1698 22.9384H19.3725V22.7402L19.1744 22.7357L19.1698 22.9384ZM19.1698 23.2266L19.1592 23.429L19.3725 23.4403V23.2266H19.1698ZM16.4319 23.2266H16.2292V23.4506L16.4521 23.4283L16.4319 23.2266ZM16.4319 22.9384L16.3846 22.7412L16.2292 22.7785V22.9384H16.4319ZM17.5703 21.6847L17.3813 21.6114L17.3812 21.6116L17.5703 21.6847ZM20.9566 12.9522V12.7495H20.8178L20.7676 12.8789L20.9566 12.9522ZM21.1872 12.9522L21.3762 12.8789L21.326 12.7495H21.1872V12.9522ZM22.1671 19.0765V19.2792H22.4595L22.3569 19.0054L22.1671 19.0765ZM20.5532 14.7679L20.743 14.6968L20.5548 14.1944L20.3637 14.6957L20.5532 14.7679ZM18.9104 19.0765L18.721 19.0043L18.6162 19.2792H18.9104V19.0765ZM24.5142 22.0893C24.7579 22.7189 25.1395 23.1165 25.6885 23.1409L25.7065 22.7358C25.3909 22.7218 25.1097 22.5046 24.8923 21.9429L24.5142 22.0893ZM25.4948 22.9384V23.2266H25.9003V22.9384H25.4948ZM25.7127 23.0244C25.3212 22.995 24.8015 22.9806 24.1557 22.9806V23.3861C24.7971 23.3861 25.3054 23.4005 25.6824 23.4287L25.7127 23.0244ZM24.1557 22.9806C23.3285 22.9806 22.7078 22.995 22.2967 23.0243L22.3256 23.4288C22.7216 23.4005 23.3304 23.3861 24.1557 23.3861V22.9806ZM22.5139 23.2266V22.9384H22.1085V23.2266H22.5139ZM22.3218 23.1408C22.6894 23.1215 22.9807 23.0775 23.1706 22.9944L23.0081 22.6229C22.8905 22.6744 22.6631 22.7168 22.3005 22.7359L22.3218 23.1408ZM23.1757 22.9921C23.2879 22.9393 23.3819 22.8615 23.4464 22.7554C23.5103 22.6501 23.537 22.5302 23.537 22.4052H23.1316C23.1316 22.4724 23.1175 22.5158 23.0998 22.5449C23.0825 22.5733 23.0541 22.6012 23.003 22.6252L23.1757 22.9921ZM23.537 22.4052C23.537 22.2022 23.4674 21.9472 23.3496 21.6526L22.9731 21.8032C23.0859 22.0851 23.1316 22.2816 23.1316 22.4052H23.537ZM23.3514 21.6572L22.4724 19.294L22.0924 19.4354L22.9714 21.7986L23.3514 21.6572ZM22.2824 19.1619H18.7951V19.5674H22.2824V19.1619ZM18.6061 19.2915L18.0153 20.819L18.3934 20.9653L18.9842 19.4378L18.6061 19.2915ZM18.0142 20.8217C17.8207 21.3444 17.7134 21.7667 17.7134 22.0738H18.1189C18.1189 21.8429 18.2038 21.4775 18.3945 20.9626L18.0142 20.8217ZM17.7134 22.0738C17.7134 22.4217 17.8349 22.71 18.1063 22.8909L18.3312 22.5535C18.1991 22.4655 18.1189 22.3214 18.1189 22.0738H17.7134ZM18.1099 22.8933C18.3672 23.057 18.7281 23.1311 19.1652 23.141L19.1744 22.7357C18.7662 22.7264 18.493 22.6564 18.3276 22.5512L18.1099 22.8933ZM18.9671 22.9384V23.2266H19.3725V22.9384H18.9671ZM19.1805 23.0241C18.6293 22.9951 18.0733 22.9806 17.5127 22.9806V23.3861C18.0663 23.3861 18.6152 23.4004 19.1592 23.429L19.1805 23.0241ZM17.5127 22.9806C17.0766 22.9806 16.709 22.9951 16.4117 23.0248L16.4521 23.4283C16.7312 23.4004 17.0842 23.3861 17.5127 23.3861V22.9806ZM16.6346 23.2266V22.9384H16.2292V23.2266H16.6346ZM16.4792 23.1355C17.0546 22.9974 17.4708 22.5042 17.7594 21.7578L17.3812 21.6116C17.1126 22.3062 16.7699 22.6488 16.3846 22.7412L16.4792 23.1355ZM17.7593 21.758L21.1457 13.0255L20.7676 12.8789L17.3813 21.6114L17.7593 21.758ZM20.9566 13.155H21.1872V12.7495H20.9566V13.155ZM20.9982 13.0256L24.5142 22.0894L24.8923 21.9428L21.3762 12.8789L20.9982 13.0256ZM22.3569 19.0054L20.743 14.6968L20.3633 14.839L21.9772 19.1476L22.3569 19.0054ZM20.3637 14.6957L18.721 19.0043L19.0999 19.1487L20.7426 14.8401L20.3637 14.6957ZM18.9104 19.2792H22.1671V18.8737H18.9104V19.2792ZM29.8733 13.3125L29.8846 13.5149L30.0761 13.5043V13.3125H29.8733ZM29.1096 13.4278L29.0421 13.2365L29.0384 13.2379L29.1096 13.4278ZM28.7926 13.7592L28.9838 13.8267V13.8267L28.7926 13.7592ZM28.7926 22.4917L28.9838 22.4242V22.4242L28.7926 22.4917ZM29.1096 22.8231L29.0384 23.0129L29.0421 23.0143L29.1096 22.8231ZM29.8733 22.9384H30.0761V22.7466L29.8846 22.7359L29.8733 22.9384ZM29.8733 23.2266L29.8601 23.4289L30.0761 23.443V23.2266H29.8733ZM26.1988 23.2266H25.9961V23.4443L26.2132 23.4288L26.1988 23.2266ZM26.1988 22.9384L26.1875 22.7359L25.9961 22.7466V22.9384H26.1988ZM26.9481 22.8231L26.8806 22.6319L26.8769 22.6333L26.9481 22.8231ZM27.2795 13.7592L27.0884 13.8267V13.8267L27.2795 13.7592ZM26.9481 13.4278L26.8769 13.6176L26.8806 13.6189L26.9481 13.4278ZM26.1988 13.3125H25.9961V13.5043L26.1875 13.5149L26.1988 13.3125ZM26.1988 13.0243L26.2132 12.8221L25.9961 12.8065V13.0243H26.1988ZM29.8733 13.0243H30.0761V12.8082L29.8604 12.822L29.8733 13.0243ZM29.8621 13.1101C29.5122 13.1295 29.2338 13.1689 29.0421 13.2366L29.1771 13.6189C29.3121 13.5713 29.5428 13.5339 29.8846 13.5149L29.8621 13.1101ZM29.0384 13.2379C28.8252 13.3179 28.6777 13.4754 28.6014 13.6917L28.9838 13.8267C29.0227 13.7163 29.0866 13.6529 29.1808 13.6176L29.0384 13.2379ZM28.6014 13.6917C28.5315 13.8897 28.5034 14.1834 28.5034 14.5517H28.9089C28.9089 14.19 28.9384 13.9554 28.9838 13.8267L28.6014 13.6917ZM28.5034 14.5517V21.6991H28.9089V14.5517H28.5034ZM28.5034 21.6991C28.5034 22.0674 28.5315 22.3612 28.6014 22.5591L28.9838 22.4242C28.9384 22.2955 28.9089 22.0609 28.9089 21.6991H28.5034ZM28.6014 22.5591C28.6777 22.7754 28.8252 22.9329 29.0384 23.0129L29.1808 22.6333C29.0866 22.5979 29.0227 22.5345 28.9838 22.4242L28.6014 22.5591ZM29.0421 23.0143C29.2338 23.0819 29.5122 23.1213 29.8621 23.1408L29.8846 22.7359C29.5428 22.7169 29.3121 22.6795 29.1771 22.6319L29.0421 23.0143ZM29.6706 22.9384V23.2266H30.0761V22.9384H29.6706ZM29.8865 23.0243C29.4382 22.995 28.8231 22.9806 28.0433 22.9806V23.3861C28.8198 23.3861 29.4247 23.4005 29.8601 23.4289L29.8865 23.0243ZM28.0433 22.9806C27.2161 22.9806 26.5954 22.995 26.1843 23.0243L26.2132 23.4288C26.6092 23.4005 27.218 23.3861 28.0433 23.3861V22.9806ZM26.4015 23.2266V22.9384H25.9961V23.2266H26.4015ZM26.21 23.1408C26.5589 23.1214 26.8349 23.0821 27.0193 23.0129L26.8769 22.6333C26.7539 22.6794 26.5304 22.7169 26.1875 22.7359L26.21 23.1408ZM27.0156 23.0143C27.2367 22.9362 27.3927 22.7803 27.4707 22.5591L27.0884 22.4242C27.0511 22.5297 26.9861 22.5947 26.8806 22.6319L27.0156 23.0143ZM27.4707 22.5591C27.5406 22.3612 27.5687 22.0674 27.5687 21.6991H27.1633C27.1633 22.0609 27.1338 22.2955 27.0884 22.4242L27.4707 22.5591ZM27.5687 21.6991V14.5517H27.1633V21.6991H27.5687ZM27.5687 14.5517C27.5687 14.1834 27.5406 13.8897 27.4707 13.6917L27.0884 13.8267C27.1338 13.9554 27.1633 14.19 27.1633 14.5517H27.5687ZM27.4707 13.6917C27.3927 13.4706 27.2367 13.3146 27.0156 13.2366L26.8806 13.6189C26.9861 13.6562 27.0511 13.7212 27.0884 13.8267L27.4707 13.6917ZM27.0193 13.2379C26.8349 13.1688 26.5589 13.1294 26.21 13.1101L26.1875 13.5149C26.5304 13.534 26.7539 13.5715 26.8769 13.6176L27.0193 13.2379ZM26.4015 13.3125V13.0243H25.9961V13.3125H26.4015ZM26.1843 13.2265C26.5954 13.2559 27.2161 13.2702 28.0433 13.2702V12.8648C27.218 12.8648 26.6092 12.8503 26.2132 12.8221L26.1843 13.2265ZM28.0433 13.2702C28.8136 13.2702 29.4285 13.2558 29.8863 13.2266L29.8604 12.822C29.4151 12.8504 28.81 12.8648 28.0433 12.8648V13.2702ZM29.6706 13.0243V13.3125H30.0761V13.0243H29.6706ZM40.397 13.3125L40.4085 13.5149L40.5997 13.504V13.3125H40.397ZM39.6476 13.471L39.7341 13.6546L39.7425 13.6502L39.6476 13.471ZM39.3162 13.8745L39.5096 13.9355L39.5104 13.9327L39.3162 13.8745ZM39.2298 23.2986V23.5013H39.4325V23.2986H39.2298ZM38.8983 23.2986L38.7281 23.4088L38.788 23.5013H38.8983V23.2986ZM32.8461 13.9465L33.0163 13.8364L32.6434 13.2601V13.9465H32.8461ZM32.9326 22.3908L32.739 22.4519L32.7424 22.4609L32.9326 22.3908ZM33.3072 22.7943L33.2204 22.9777L33.2286 22.9811L33.3072 22.7943ZM34.1574 22.9384H34.3602V22.7455L34.1676 22.7359L34.1574 22.9384ZM34.1574 23.2266L34.1406 23.4286L34.3602 23.4469V23.2266H34.1574ZM31.3475 23.2266H31.1448V23.4486L31.3658 23.4285L31.3475 23.2266ZM31.3475 22.9384L31.3359 22.736L31.1448 22.7469V22.9384H31.3475ZM32.0968 22.7943L32.1832 22.9779L32.1917 22.9734L32.0968 22.7943ZM32.4282 22.3908L32.6216 22.4518L32.6224 22.449L32.4282 22.3908ZM32.4282 13.7592L32.2371 13.8267V13.8267L32.4282 13.7592ZM32.0968 13.4278L32.0256 13.6176L32.0293 13.6189L32.0968 13.4278ZM31.3475 13.3125H31.1448V13.5043L31.3362 13.5149L31.3475 13.3125ZM31.3475 13.0243L31.3658 12.8224L31.1448 12.8023V13.0243H31.3475ZM33.8116 13.0243L33.9817 12.9139L33.9151 12.8113L33.7932 12.8224L33.8116 13.0243ZM38.8983 20.8633L38.7283 20.9737L39.1011 21.5482V20.8633H38.8983ZM38.7975 13.8601L38.6039 13.9212L38.6072 13.9301L38.7975 13.8601ZM38.4372 13.471L38.3503 13.6544L38.3585 13.6578L38.4372 13.471ZM37.587 13.3125H37.3843V13.5053L37.5769 13.515L37.587 13.3125ZM37.587 13.0243L37.6039 12.8222L37.3843 12.8039V13.0243H37.587ZM40.397 13.0243H40.5997V12.8023L40.3786 12.8224L40.397 13.0243ZM40.3854 13.1101C40.0401 13.1298 39.7551 13.1847 39.5528 13.2918L39.7425 13.6502C39.8668 13.5844 40.0813 13.5336 40.4085 13.5149L40.3854 13.1101ZM39.5613 13.2876C39.3398 13.3918 39.1942 13.5758 39.122 13.8162L39.5104 13.9327C39.5536 13.7889 39.6289 13.7039 39.734 13.6544L39.5613 13.2876ZM39.1229 13.8134C39.0557 14.0263 39.027 14.3253 39.027 14.6958H39.4325C39.4325 14.3363 39.4615 14.0877 39.5095 13.9355L39.1229 13.8134ZM39.027 14.6958V23.2986H39.4325V14.6958H39.027ZM39.2298 23.0959H38.8983V23.5013H39.2298V23.0959ZM39.0685 23.1885L33.0163 13.8364L32.6759 14.0567L38.7281 23.4088L39.0685 23.1885ZM32.6434 13.9465V21.555H33.0489V13.9465H32.6434ZM32.6434 21.555C32.6434 21.9345 32.6719 22.2387 32.7393 22.4518L33.1259 22.3297C33.078 22.1779 33.0489 21.9248 33.0489 21.555H32.6434ZM32.7424 22.4609C32.8287 22.6953 32.992 22.8693 33.2205 22.9775L33.394 22.611C33.2574 22.5463 33.171 22.4513 33.1228 22.3207L32.7424 22.4609ZM33.2286 22.9811C33.4448 23.0722 33.7574 23.1213 34.1473 23.1408L34.1676 22.7359C33.789 22.7169 33.5347 22.6701 33.3859 22.6074L33.2286 22.9811ZM33.9547 22.9384V23.2266H34.3602V22.9384H33.9547ZM34.1743 23.0245C33.82 22.995 33.3235 22.9806 32.6876 22.9806V23.3861C33.3198 23.3861 33.8032 23.4005 34.1406 23.4286L34.1743 23.0245ZM32.6876 22.9806C32.1091 22.9806 31.6553 22.995 31.3291 23.0247L31.3658 23.4285C31.6737 23.4005 32.1133 23.3861 32.6876 23.3861V22.9806ZM31.5502 23.2266V22.9384H31.1448V23.2266H31.5502ZM31.3591 23.1408C31.7027 23.1211 31.984 23.0714 32.1831 22.9777L32.0105 22.6108C31.883 22.6708 31.6647 22.7172 31.3359 22.736L31.3591 23.1408ZM32.1917 22.9734C32.4039 22.8611 32.5485 22.6831 32.6216 22.4518L32.2349 22.3297C32.1927 22.4635 32.1164 22.5545 32.002 22.6151L32.1917 22.9734ZM32.6224 22.449C32.6886 22.2285 32.7174 21.9264 32.7174 21.555H32.312C32.312 21.9137 32.2832 22.1688 32.2341 22.3325L32.6224 22.449ZM32.7174 21.555V14.5517H32.312V21.555H32.7174ZM32.7174 14.5517C32.7174 14.1834 32.6893 13.8897 32.6194 13.6917L32.2371 13.8267C32.2825 13.9554 32.312 14.19 32.312 14.5517H32.7174ZM32.6194 13.6917C32.5414 13.4706 32.3854 13.3146 32.1643 13.2366L32.0293 13.6189C32.1348 13.6562 32.1998 13.7212 32.2371 13.8267L32.6194 13.6917ZM32.168 13.2379C31.9836 13.1688 31.7076 13.1294 31.3587 13.1101L31.3362 13.5149C31.6791 13.534 31.9026 13.5715 32.0256 13.6176L32.168 13.2379ZM31.5502 13.3125V13.0243H31.1448V13.3125H31.5502ZM31.3291 13.2262C31.6553 13.2558 32.1091 13.2702 32.6876 13.2702V12.8648C32.1133 12.8648 31.6737 12.8504 31.3658 12.8224L31.3291 13.2262ZM32.6876 13.2702C33.124 13.2702 33.5051 13.2557 33.83 13.2262L33.7932 12.8224C33.484 12.8505 33.1158 12.8648 32.6876 12.8648V13.2702ZM33.6415 13.1346L38.7283 20.9737L39.0684 20.753L33.9817 12.9139L33.6415 13.1346ZM39.1011 20.8633V14.6958H38.6956V20.8633H39.1011ZM39.1011 14.6958C39.1011 14.3152 39.0677 14.0072 38.9877 13.79L38.6072 13.9301C38.6617 14.078 38.6956 14.3272 38.6956 14.6958H39.1011ZM38.9908 13.799C38.9145 13.5575 38.7511 13.3832 38.5159 13.2841L38.3585 13.6578C38.4884 13.7125 38.5651 13.7975 38.6041 13.9211L38.9908 13.799ZM38.524 13.2878C38.3044 13.1838 37.9883 13.1296 37.5971 13.11L37.5769 13.515C37.9543 13.5338 38.2049 13.5853 38.3504 13.6542L38.524 13.2878ZM37.7898 13.3125V13.0243H37.3843V13.3125H37.7898ZM37.5702 13.2263C37.9244 13.2558 38.421 13.2702 39.0568 13.2702V12.8648C38.4246 12.8648 37.9413 12.8504 37.6039 12.8222L37.5702 13.2263ZM39.0568 13.2702C39.6353 13.2702 40.0892 13.2558 40.4153 13.2262L40.3786 12.8224C40.0707 12.8504 39.6312 12.8648 39.0568 12.8648V13.2702ZM40.1942 13.0243V13.3125H40.5997V13.0243H40.1942ZM49.7129 13.0243L49.9146 13.0442L49.9374 12.8133L49.7055 12.8217L49.7129 13.0243ZM49.6552 16.0504V16.2531H49.8779L49.8571 16.0315L49.6552 16.0504ZM49.3238 16.0504L49.1221 16.0713L49.141 16.2531H49.3238V16.0504ZM49.0356 14.4076L48.8423 14.4687L48.8427 14.4702L49.0356 14.4076ZM48.4304 13.6151L48.326 13.789L48.3304 13.7915L48.4304 13.6151ZM46.3265 13.3557V13.153H46.1238V13.3557H46.3265ZM46.4418 22.434L46.2549 22.5127V22.5127L46.4418 22.434ZM46.8453 22.8087L46.7783 23V23L46.8453 22.8087ZM47.7819 22.9384H47.9847V22.7444L47.7909 22.7358L47.7819 22.9384ZM47.7819 23.2266L47.7702 23.429L47.9847 23.4413V23.2266H47.7819ZM43.531 23.2266H43.3282V23.4424L43.5436 23.4289L43.531 23.2266ZM43.531 22.9384L43.522 22.7358L43.3282 22.7444V22.9384H43.531ZM44.4676 22.8087L44.5346 23V23L44.4676 22.8087ZM44.8711 22.434L45.058 22.5127V22.5127L44.8711 22.434ZM44.9864 13.3557H45.1891V13.153H44.9864V13.3557ZM42.8825 13.6151L42.9825 13.7915L42.9868 13.7889L42.8825 13.6151ZM42.2773 14.4076L42.4702 14.4702L42.4706 14.4687L42.2773 14.4076ZM41.9891 16.0504V16.2531H42.1719L42.1908 16.0713L41.9891 16.0504ZM41.6577 16.0504L41.4558 16.0315L41.435 16.2531H41.6577V16.0504ZM41.6 13.0243L41.6074 12.8217L41.3755 12.8133L41.3983 13.0442L41.6 13.0243ZM49.5111 13.0044C49.4434 13.6915 49.4093 14.3131 49.4093 14.8688H49.8147C49.8147 14.3292 49.8479 13.7212 49.9146 13.0442L49.5111 13.0044ZM49.4093 14.8688C49.4093 15.3524 49.4237 15.7532 49.4534 16.0693L49.8571 16.0315C49.8291 15.7328 49.8147 15.3458 49.8147 14.8688H49.4093ZM49.6552 15.8476H49.3238V16.2531H49.6552V15.8476ZM49.5254 16.0294C49.4483 15.2866 49.3505 14.7216 49.2284 14.3451L48.8427 14.4702C48.9512 14.8046 49.0456 15.3348 49.1221 16.0713L49.5254 16.0294ZM49.2289 14.3466C49.1008 13.9408 48.87 13.6312 48.5303 13.4387L48.3304 13.7915C48.5671 13.9256 48.7398 14.1444 48.8423 14.4687L49.2289 14.3466ZM48.5347 13.4412C48.199 13.2399 47.7124 13.153 47.1047 13.153V13.5584C47.6881 13.5584 48.0853 13.6445 48.3261 13.7889L48.5347 13.4412ZM47.1047 13.153H46.3265V13.5584H47.1047V13.153ZM46.1238 13.3557V21.555H46.5293V13.3557H46.1238ZM46.1238 21.555C46.1238 21.9633 46.1615 22.2908 46.2549 22.5127L46.6286 22.3553C46.5684 22.2122 46.5293 21.9537 46.5293 21.555H46.1238ZM46.2549 22.5127C46.3547 22.7497 46.5338 22.9144 46.7783 23L46.9122 22.6173C46.7725 22.5684 46.6826 22.4834 46.6286 22.3553L46.2549 22.5127ZM46.7783 23C47.0003 23.0777 47.3379 23.1216 47.7729 23.1409L47.7909 22.7358C47.3613 22.7167 47.0745 22.6741 46.9122 22.6173L46.7783 23ZM47.5792 22.9384V23.2266H47.9847V22.9384H47.5792ZM47.7936 23.0242C47.2882 22.995 46.5776 22.9806 45.6637 22.9806V23.3861C46.575 23.3861 47.2765 23.4005 47.7702 23.429L47.7936 23.0242ZM45.6637 22.9806C44.7022 22.9806 43.9861 22.995 43.5183 23.0242L43.5436 23.4289C43.9981 23.4005 44.7037 23.3861 45.6637 23.3861V22.9806ZM43.7337 23.2266V22.9384H43.3282V23.2266H43.7337ZM43.54 23.1409C43.975 23.1216 44.3126 23.0777 44.5346 23L44.4007 22.6173C44.2384 22.6741 43.9516 22.7167 43.522 22.7358L43.54 23.1409ZM44.5346 23C44.7791 22.9144 44.9582 22.7497 45.058 22.5127L44.6843 22.3553C44.6303 22.4834 44.5404 22.5684 44.4007 22.6173L44.5346 23ZM45.058 22.5127C45.1514 22.2908 45.1891 21.9633 45.1891 21.555H44.7836C44.7836 21.9537 44.7445 22.2122 44.6843 22.3553L45.058 22.5127ZM45.1891 21.555V13.3557H44.7836V21.555H45.1891ZM44.9864 13.153H44.2082V13.5584H44.9864V13.153ZM44.2082 13.153C43.6005 13.153 43.1139 13.2399 42.7782 13.4412L42.9868 13.7889C43.2276 13.6445 43.6248 13.5584 44.2082 13.5584V13.153ZM42.7826 13.4387C42.4429 13.6312 42.2121 13.9408 42.084 14.3466L42.4706 14.4687C42.5731 14.1444 42.7458 13.9256 42.9825 13.7915L42.7826 13.4387ZM42.0845 14.3451C41.9623 14.7216 41.8646 15.2866 41.7875 16.0294L42.1908 16.0713C42.2673 15.3348 42.3617 14.8046 42.4702 14.4702L42.0845 14.3451ZM41.9891 15.8476H41.6577V16.2531H41.9891V15.8476ZM41.8595 16.0693C41.8892 15.7532 41.9036 15.3524 41.9036 14.8688H41.4982C41.4982 15.3458 41.4838 15.7328 41.4558 16.0315L41.8595 16.0693ZM41.9036 14.8688C41.9036 14.3131 41.8695 13.6915 41.8018 13.0044L41.3983 13.0442C41.465 13.7212 41.4982 14.3292 41.4982 14.8688H41.9036ZM41.5927 13.2269C42.3941 13.2559 43.7519 13.2702 45.6637 13.2702V12.8648C43.7519 12.8648 42.4007 12.8504 41.6074 12.8217L41.5927 13.2269ZM45.6637 13.2702C47.5658 13.2702 48.9188 13.2559 49.7202 13.2269L49.7055 12.8217C48.9122 12.8504 47.5657 12.8648 45.6637 12.8648V13.2702ZM58.4817 23.2266L58.4728 23.4291L58.7064 23.4394L58.6835 23.2067L58.4817 23.2266ZM51.0029 23.2266H50.8002V23.4356L51.0092 23.4292L51.0029 23.2266ZM51.0029 22.9384L50.9917 22.7359L50.8002 22.7466V22.9384H51.0029ZM51.7523 22.8231L51.6848 22.6319L51.6811 22.6333L51.7523 22.8231ZM52.0837 13.7592L51.8925 13.8267V13.8267L52.0837 13.7592ZM51.7523 13.4278L51.6811 13.6176L51.6848 13.6189L51.7523 13.4278ZM51.0029 13.3125H50.8002V13.5043L50.9917 13.5149L51.0029 13.3125ZM51.0029 13.0243L51.0092 12.8216L50.8002 12.8152V13.0243H51.0029ZM58.1935 13.0243L58.3951 13.0457L58.4201 12.8103L58.1837 12.8218L58.1935 13.0243ZM58.1359 15.6181V15.8208H58.3668L58.3369 15.5919L58.1359 15.6181ZM57.8045 15.6181L57.6029 15.6398L57.6224 15.8208H57.8045V15.6181ZM57.5451 14.2347L57.3534 14.3006L57.354 14.3025L57.5451 14.2347ZM57.0119 13.5719L56.9106 13.7475L56.9158 13.7504L57.0119 13.5719ZM53.9138 13.4422L53.9743 13.6358L53.9812 13.6334L53.9138 13.4422ZM53.5967 13.7592L53.7879 13.8267V13.8267L53.5967 13.7592ZM53.5103 17.9525H53.3076V18.1552H53.5103V17.9525ZM55.2395 17.7219L55.3701 17.8771L55.3747 17.873L55.2395 17.7219ZM55.5997 17.16L55.4057 17.1009L55.4041 17.1066L55.5997 17.16ZM55.7582 16.3386L55.5577 16.3085L55.5569 16.3149L55.7582 16.3386ZM55.8015 16.0504V15.8476H55.6269L55.601 16.0203L55.8015 16.0504ZM56.1329 16.0504L56.3351 16.0648L56.3506 15.8476H56.1329V16.0504ZM56.1761 20.1428V20.3456H56.3927L56.3784 20.1295L56.1761 20.1428ZM55.8447 20.1428L55.644 20.1715L55.6689 20.3456H55.8447V20.1428ZM55.7582 19.4511L55.5569 19.4751L55.557 19.4757L55.7582 19.4511ZM55.3548 18.5433L55.2147 18.69L55.2181 18.693L55.3548 18.5433ZM53.5103 18.2407V18.038H53.3076V18.2407H53.5103ZM53.5967 22.4917L53.7879 22.4242V22.4242L53.5967 22.4917ZM53.9138 22.8231L53.8426 23.0129L53.8495 23.0155L53.8566 23.0176L53.9138 22.8231ZM57.084 22.6646L57.1746 22.8459L57.1768 22.8448L57.084 22.6646ZM57.7757 21.9008L57.9628 21.9788L57.9635 21.977L57.7757 21.9008ZM58.0927 20.3446V20.1418H57.9089L57.8909 20.3247L58.0927 20.3446ZM58.4241 20.3446L58.6256 20.367L58.6506 20.1418H58.4241V20.3446ZM58.1781 21.3821C58.1781 21.9377 58.2122 22.5593 58.28 23.2465L58.6835 23.2067C58.6167 22.5296 58.5836 21.9216 58.5836 21.3821H58.1781ZM58.4907 23.024C57.8325 22.995 56.7286 22.9806 55.1818 22.9806V23.3861C56.7285 23.3861 57.8245 23.4005 58.4728 23.4291L58.4907 23.024ZM55.1818 22.9806C53.3369 22.9806 51.9414 22.995 50.9967 23.0239L51.0092 23.4292C51.9474 23.4005 53.3379 23.3861 55.1818 23.3861V22.9806ZM51.2057 23.2266V22.9384H50.8002V23.2266H51.2057ZM51.0142 23.1408C51.363 23.1214 51.6391 23.0821 51.8235 23.0129L51.6811 22.6333C51.5581 22.6794 51.3346 22.7169 50.9917 22.7359L51.0142 23.1408ZM51.8197 23.0143C52.0409 22.9362 52.1968 22.7803 52.2749 22.5591L51.8925 22.4242C51.8553 22.5297 51.7903 22.5947 51.6848 22.6319L51.8197 23.0143ZM52.2749 22.5591C52.3447 22.3612 52.3729 22.0674 52.3729 21.6991H51.9674C51.9674 22.0609 51.9379 22.2955 51.8925 22.4242L52.2749 22.5591ZM52.3729 21.6991V14.5517H51.9674V21.6991H52.3729ZM52.3729 14.5517C52.3729 14.1834 52.3447 13.8897 52.2749 13.6917L51.8925 13.8267C51.9379 13.9554 51.9674 14.19 51.9674 14.5517H52.3729ZM52.2749 13.6917C52.1968 13.4706 52.0409 13.3146 51.8197 13.2366L51.6848 13.6189C51.7903 13.6562 51.8553 13.7212 51.8925 13.8267L52.2749 13.6917ZM51.8235 13.2379C51.6391 13.1688 51.363 13.1294 51.0142 13.1101L50.9917 13.5149C51.3346 13.534 51.5581 13.5715 51.6811 13.6176L51.8235 13.2379ZM51.2057 13.3125V13.0243H50.8002V13.3125H51.2057ZM50.9967 13.2269C51.9414 13.2558 53.3369 13.2702 55.1818 13.2702V12.8648C53.3379 12.8648 51.9474 12.8504 51.0092 12.8216L50.9967 13.2269ZM55.1818 13.2702C56.5941 13.2702 57.6023 13.2559 58.2033 13.2268L58.1837 12.8218C57.5935 12.8503 56.594 12.8648 55.1818 12.8648V13.2702ZM57.9919 13.0029C57.9241 13.6422 57.8899 14.2163 57.8899 14.7247H58.2954C58.2954 14.2339 58.3285 13.6744 58.3951 13.0457L57.9919 13.0029ZM57.8899 14.7247C57.8899 15.1031 57.9044 15.4108 57.9349 15.6443L58.3369 15.5919C58.3097 15.3835 58.2954 15.0956 58.2954 14.7247H57.8899ZM58.1359 15.4153H57.8045V15.8208H58.1359V15.4153ZM58.006 15.5964C57.9384 14.9684 57.8501 14.4879 57.7362 14.1669L57.354 14.3025C57.4515 14.5771 57.536 15.0189 57.6029 15.6398L58.006 15.5964ZM57.7368 14.1688C57.6172 13.8207 57.4093 13.5556 57.108 13.3934L56.9158 13.7504C57.1141 13.8572 57.2617 14.0339 57.3534 14.3006L57.7368 14.1688ZM57.1132 13.3963C56.8172 13.2255 56.3947 13.153 55.8735 13.153V13.5584C56.3707 13.5584 56.7071 13.6301 56.9106 13.7475L57.1132 13.3963ZM55.8735 13.153H54.6775V13.5584H55.8735V13.153ZM54.6775 13.153C54.3269 13.153 54.0435 13.1814 53.8463 13.251L53.9812 13.6334C54.1106 13.5877 54.3364 13.5584 54.6775 13.5584V13.153ZM53.8533 13.2487C53.6334 13.3174 53.4826 13.4734 53.4056 13.6917L53.7879 13.8267C53.8262 13.7183 53.8867 13.663 53.9742 13.6357L53.8533 13.2487ZM53.4056 13.6917C53.3357 13.8897 53.3076 14.1834 53.3076 14.5517H53.713C53.713 14.19 53.7425 13.9554 53.7879 13.8267L53.4056 13.6917ZM53.3076 14.5517V17.9525H53.713V14.5517H53.3076ZM53.5103 18.1552H54.4613V17.7498H53.5103V18.1552ZM54.4613 18.1552C54.8261 18.1552 55.1385 18.072 55.3701 17.877L55.1089 17.5669C54.9754 17.6793 54.7691 17.7498 54.4613 17.7498V18.1552ZM55.3747 17.873C55.5828 17.6868 55.7262 17.4667 55.7953 17.2133L55.4041 17.1066C55.358 17.2759 55.2612 17.4304 55.1043 17.5709L55.3747 17.873ZM55.7937 17.219C55.8656 16.9828 55.9203 16.6963 55.9596 16.3623L55.5569 16.3149C55.5193 16.6341 55.4684 16.8952 55.4058 17.1009L55.7937 17.219ZM55.9587 16.3687L56.002 16.0805L55.601 16.0203L55.5578 16.3085L55.9587 16.3687ZM55.8015 16.2531H56.1329V15.8476H55.8015V16.2531ZM55.9307 16.0359C55.9015 16.4452 55.8869 16.9016 55.8869 17.4049H56.2924C56.2924 16.9091 56.3067 16.4625 56.3351 16.0648L55.9307 16.0359ZM55.8869 17.4049V18.0966H56.2924V17.4049H55.8869ZM55.8869 18.0966C55.8869 18.5932 55.9161 19.2804 55.9738 20.1562L56.3784 20.1295C56.3209 19.2569 56.2924 18.5799 56.2924 18.0966H55.8869ZM56.1761 19.9401H55.8447V20.3456H56.1761V19.9401ZM56.0454 20.1142C56.0362 20.0495 56.0077 19.8217 55.9595 19.4266L55.557 19.4757C55.6049 19.8683 55.634 20.1016 55.644 20.1715L56.0454 20.1142ZM55.9596 19.4272C55.9078 18.9928 55.7595 18.6383 55.4915 18.3936L55.2181 18.693C55.392 18.8518 55.5126 19.1026 55.5569 19.4751L55.9596 19.4272ZM55.4948 18.3967C55.235 18.1487 54.8808 18.038 54.4613 18.038V18.4434C54.8104 18.4434 55.0518 18.5344 55.2148 18.69L55.4948 18.3967ZM54.4613 18.038H53.5103V18.4434H54.4613V18.038ZM53.3076 18.2407V21.6991H53.713V18.2407H53.3076ZM53.3076 21.6991C53.3076 22.0674 53.3357 22.3612 53.4056 22.5591L53.7879 22.4242C53.7425 22.2955 53.713 22.0609 53.713 21.6991H53.3076ZM53.4056 22.5591C53.4819 22.7754 53.6293 22.9329 53.8426 23.0129L53.985 22.6333C53.8908 22.5979 53.8269 22.5345 53.7879 22.4242L53.4056 22.5591ZM53.8566 23.0176C54.0491 23.0742 54.3279 23.0979 54.6775 23.0979V22.6924C54.3354 22.6924 54.1051 22.668 53.971 22.6286L53.8566 23.0176ZM54.6775 23.0979H55.7294V22.6924H54.6775V23.0979ZM55.7294 23.0979C56.3366 23.0979 56.8255 23.0205 57.1746 22.8459L56.9933 22.4832C56.7276 22.6161 56.3135 22.6924 55.7294 22.6924V23.0979ZM57.1768 22.8448C57.5386 22.6584 57.8013 22.3664 57.9628 21.9788L57.5885 21.8229C57.4618 22.127 57.2634 22.3441 56.9911 22.4843L57.1768 22.8448ZM57.9635 21.977C58.1185 21.5947 58.2265 21.0532 58.2944 20.3645L57.8909 20.3247C57.8243 21.0001 57.721 21.4961 57.5878 21.8247L57.9635 21.977ZM58.0927 20.5473H58.4241V20.1418H58.0927V20.5473ZM58.2226 20.3222C58.1926 20.5922 58.1781 20.9465 58.1781 21.3821H58.5836C58.5836 20.9531 58.598 20.6157 58.6256 20.367L58.2226 20.3222ZM18.9107 31.8372H18.7079V32.0142L18.8833 32.0381L18.9107 31.8372ZM21.173 32.7595L21.0267 32.8998L21.0282 32.9013L21.173 32.7595ZM21.4324 35.8864L21.6017 35.998V35.998L21.4324 35.8864ZM20.2364 36.8807L20.3187 37.066L20.3215 37.0647L20.2364 36.8807ZM17.729 37.2122L17.7397 37.0096L17.7354 37.0095L17.729 37.2122ZM14.1265 37.2266H13.9238V37.4443L14.141 37.4288L14.1265 37.2266ZM14.1265 36.9384L14.1153 36.7359L13.9238 36.7466V36.9384H14.1265ZM14.8759 36.8231L14.8084 36.6319L14.8047 36.6333L14.8759 36.8231ZM15.2073 27.7592L15.0161 27.8267V27.8267L15.2073 27.7592ZM14.8759 27.4278L14.8047 27.6176L14.8084 27.6189L14.8759 27.4278ZM14.1265 27.3125H13.9238V27.5043L14.1153 27.5149L14.1265 27.3125ZM14.1265 27.0243L14.141 26.8221L13.9238 26.8065V27.0243H14.1265ZM15.8846 27.0675V27.2703L15.8864 27.2702L15.8846 27.0675ZM17.4408 27.0531L17.4427 27.256L17.4515 27.2556L17.4408 27.0531ZM20.3084 27.6583L20.1821 27.8169L20.1836 27.818L20.3084 27.6583ZM20.5678 30.7997L20.4098 30.6726L20.4081 30.6748L20.5678 30.7997ZM18.9107 31.8084L18.8517 31.6144L18.7079 31.6581V31.8084H18.9107ZM17.0229 27.4134L16.9417 27.2276L16.9372 27.2296L17.0229 27.4134ZM16.7203 27.7736L16.9127 27.8377V27.8377L16.7203 27.7736ZM16.6339 31.8084H16.4311V32.0111H16.6339V31.8084ZM19.2421 31.1744L19.0786 31.0545L19.0781 31.0551L19.2421 31.1744ZM19.7897 32.6442L19.648 32.7893L19.6498 32.7909L19.7897 32.6442ZM16.6339 32.0534V31.8506H16.4311V32.0534H16.6339ZM16.7203 36.4628L16.9115 36.3954V36.3954L16.7203 36.4628ZM17.0229 36.8087L16.9372 36.9924L16.9444 36.9957L16.9518 36.9985L17.0229 36.8087ZM18.8833 32.0381C19.9213 32.1796 20.6215 32.4773 21.0267 32.8998L21.3193 32.6191C20.8216 32.1002 20.0135 31.783 18.938 31.6363L18.8833 32.0381ZM21.0282 32.9013C21.4421 33.324 21.6476 33.8301 21.6476 34.431H22.053C22.053 33.7255 21.807 33.1171 21.3179 32.6176L21.0282 32.9013ZM21.6476 34.431C21.6476 34.9423 21.5181 35.388 21.2631 35.7749L21.6017 35.998C21.9039 35.5395 22.053 35.0149 22.053 34.431H21.6476ZM21.2631 35.7749C21.0079 36.1621 20.6403 36.4703 20.1512 36.6967L20.3215 37.0647C20.87 36.8108 21.2997 36.4561 21.6017 35.998L21.2631 35.7749ZM20.154 36.6955C19.6669 36.912 19.0814 37.0238 18.3919 37.0238V37.4293C19.1242 37.4293 19.7684 37.3106 20.3187 37.066L20.154 36.6955ZM18.3919 37.0238C18.1347 37.0238 17.9175 37.0191 17.7397 37.0097L17.7184 37.4146C17.9056 37.4245 18.1303 37.4293 18.3919 37.4293V37.0238ZM17.7354 37.0095C17.1185 36.9902 16.5112 36.9806 15.9134 36.9806V37.3861C16.5068 37.3861 17.1099 37.3956 17.7227 37.4148L17.7354 37.0095ZM15.9134 36.9806C15.1244 36.9806 14.523 36.995 14.1121 37.0243L14.141 37.4288C14.5371 37.4005 15.1268 37.3861 15.9134 37.3861V36.9806ZM14.3293 37.2266V36.9384H13.9238V37.2266H14.3293ZM14.1378 37.1408C14.4866 37.1214 14.7626 37.0821 14.947 37.0129L14.8047 36.6333C14.6816 36.6794 14.4581 36.7169 14.1153 36.7359L14.1378 37.1408ZM14.9433 37.0143C15.1645 36.9362 15.3204 36.7803 15.3985 36.5591L15.0161 36.4242C14.9789 36.5297 14.9139 36.5947 14.8084 36.6319L14.9433 37.0143ZM15.3985 36.5591C15.4683 36.3612 15.4965 36.0674 15.4965 35.6991H15.091C15.091 36.0609 15.0615 36.2955 15.0161 36.4242L15.3985 36.5591ZM15.4965 35.6991V28.5517H15.091V35.6991H15.4965ZM15.4965 28.5517C15.4965 28.1834 15.4683 27.8897 15.3985 27.6917L15.0161 27.8267C15.0615 27.9554 15.091 28.19 15.091 28.5517H15.4965ZM15.3985 27.6917C15.3204 27.4706 15.1645 27.3146 14.9433 27.2366L14.8084 27.6189C14.9139 27.6562 14.9789 27.7212 15.0161 27.8267L15.3985 27.6917ZM14.947 27.2379C14.7626 27.1688 14.4866 27.1294 14.1378 27.1101L14.1153 27.5149C14.4581 27.534 14.6816 27.5715 14.8047 27.6176L14.947 27.2379ZM14.3293 27.3125V27.0243H13.9238V27.3125H14.3293ZM14.1121 27.2265C14.5229 27.2558 15.1147 27.2702 15.8846 27.2702V26.8648C15.1174 26.8648 14.5371 26.8504 14.141 26.8221L14.1121 27.2265ZM15.8864 27.2702L17.4427 27.2558L17.439 26.8504L15.8827 26.8648L15.8864 27.2702ZM17.4515 27.2556C17.6297 27.2462 17.8326 27.2414 18.0605 27.2414V26.836C17.8272 26.836 17.617 26.8408 17.4302 26.8506L17.4515 27.2556ZM18.0605 27.2414C19.0156 27.2414 19.7129 27.4432 20.1821 27.8169L20.4347 27.4997C19.8665 27.0472 19.0651 26.836 18.0605 26.836V27.2414ZM20.1836 27.818C20.6618 28.1919 20.8982 28.6801 20.8982 29.3011H21.3037C21.3037 28.5578 21.0118 27.9509 20.4333 27.4986L20.1836 27.818ZM20.8982 29.3011C20.8982 29.8111 20.7369 30.266 20.4098 30.6726L20.7258 30.9268C21.1096 30.4495 21.3037 29.9054 21.3037 29.3011H20.8982ZM20.4081 30.6748C20.0966 31.0728 19.5867 31.3911 18.8517 31.6144L18.9696 32.0024C19.7525 31.7645 20.3473 31.4104 20.7275 30.9247L20.4081 30.6748ZM18.7079 31.8084V31.8372H19.1134V31.8084H18.7079ZM17.7002 27.1097C17.3928 27.1097 17.1337 27.1436 16.9417 27.2276L17.1042 27.5991C17.2196 27.5486 17.412 27.5152 17.7002 27.5152V27.1097ZM16.9372 27.2296C16.7351 27.3239 16.6004 27.4922 16.528 27.7095L16.9127 27.8377C16.9555 27.7092 17.0226 27.6373 17.1087 27.5971L16.9372 27.2296ZM16.528 27.7095C16.4598 27.9141 16.4311 28.2 16.4311 28.5517H16.8366C16.8366 28.2118 16.8656 27.9789 16.9127 27.8377L16.528 27.7095ZM16.4311 28.5517V31.8084H16.8366V28.5517H16.4311ZM16.6339 32.0111H17.5993V31.6057H16.6339V32.0111ZM17.5993 32.0111C18.4177 32.0111 19.044 31.7914 19.406 31.2936L19.0781 31.0551C18.8253 31.4028 18.3564 31.6057 17.5993 31.6057V32.0111ZM19.4056 31.2943C19.7553 30.8174 19.9204 30.1996 19.9204 29.4596H19.5149C19.5149 30.1413 19.3629 30.6667 19.0786 31.0545L19.4056 31.2943ZM19.9204 29.4596C19.9204 28.714 19.7569 28.1183 19.3934 27.7107L19.0908 27.9806C19.3613 28.2839 19.5149 28.7641 19.5149 29.4596H19.9204ZM19.3934 27.7107C19.0222 27.2946 18.4402 27.1097 17.7002 27.1097V27.5152C18.382 27.5152 18.8279 27.6859 19.0908 27.9806L19.3934 27.7107ZM17.7146 37.0979C18.6409 37.0979 19.3733 36.8814 19.8742 36.4127C20.3775 35.9416 20.612 35.2488 20.612 34.3734H20.2066C20.2066 35.1791 19.9919 35.7472 19.5971 36.1167C19.1997 36.4885 18.5848 36.6924 17.7146 36.6924V37.0979ZM20.612 34.3734C20.612 33.5781 20.3947 32.941 19.9296 32.4975L19.6498 32.7909C20.0108 33.1351 20.2066 33.6509 20.2066 34.3734H20.612ZM19.9313 32.4991C19.4729 32.0517 18.7609 31.8506 17.8443 31.8506V32.2561C18.7146 32.2561 19.2994 32.4489 19.648 32.7893L19.9313 32.4991ZM17.8443 31.8506H16.6339V32.2561H17.8443V31.8506ZM16.4311 32.0534V35.6991H16.8366V32.0534H16.4311ZM16.4311 35.6991C16.4311 36.0497 16.4595 36.3331 16.5292 36.5303L16.9115 36.3954C16.8659 36.266 16.8366 36.0402 16.8366 35.6991H16.4311ZM16.5292 36.5303C16.6031 36.7399 16.7391 36.9 16.9372 36.9924L17.1087 36.625C17.0186 36.5829 16.9528 36.5124 16.9115 36.3954L16.5292 36.5303ZM16.9518 36.9985C17.1402 37.0692 17.4003 37.0979 17.7146 37.0979V36.6924C17.4141 36.6924 17.2131 36.6634 17.0941 36.6188L16.9518 36.9985ZM26.9463 27.3125L26.9576 27.5149L27.149 27.5043V27.3125H26.9463ZM26.1826 27.4278L26.1151 27.2365L26.1114 27.2379L26.1826 27.4278ZM25.8656 27.7592L26.0567 27.8267V27.8267L25.8656 27.7592ZM25.8656 36.4917L26.0567 36.4242V36.4242L25.8656 36.4917ZM26.1826 36.8231L26.1114 37.0129L26.1151 37.0143L26.1826 36.8231ZM26.9463 36.9384H27.149V36.7466L26.9576 36.7359L26.9463 36.9384ZM26.9463 37.2266L26.9331 37.4289L27.149 37.443V37.2266H26.9463ZM23.2718 37.2266H23.069V37.4443L23.2862 37.4288L23.2718 37.2266ZM23.2718 36.9384L23.2605 36.7359L23.069 36.7466V36.9384H23.2718ZM24.0211 36.8231L23.9536 36.6319L23.9499 36.6333L24.0211 36.8231ZM24.3525 27.7592L24.1613 27.8267V27.8267L24.3525 27.7592ZM24.0211 27.4278L23.9499 27.6176L23.9536 27.6189L24.0211 27.4278ZM23.2718 27.3125H23.069V27.5043L23.2605 27.5149L23.2718 27.3125ZM23.2718 27.0243L23.2862 26.8221L23.069 26.8065V27.0243H23.2718ZM26.9463 27.0243H27.149V26.8082L26.9334 26.822L26.9463 27.0243ZM26.9351 27.1101C26.5852 27.1295 26.3067 27.1689 26.1151 27.2366L26.2501 27.6189C26.385 27.5713 26.6158 27.5339 26.9576 27.5149L26.9351 27.1101ZM26.1114 27.2379C25.8981 27.3179 25.7507 27.4754 25.6744 27.6917L26.0567 27.8267C26.0957 27.7163 26.1596 27.6529 26.2538 27.6176L26.1114 27.2379ZM25.6744 27.6917C25.6045 27.8897 25.5764 28.1834 25.5764 28.5517H25.9818C25.9818 28.19 26.0113 27.9554 26.0567 27.8267L25.6744 27.6917ZM25.5764 28.5517V35.6991H25.9818V28.5517H25.5764ZM25.5764 35.6991C25.5764 36.0674 25.6045 36.3612 25.6744 36.5591L26.0567 36.4242C26.0113 36.2955 25.9818 36.0609 25.9818 35.6991H25.5764ZM25.6744 36.5591C25.7507 36.7754 25.8981 36.9329 26.1114 37.0129L26.2538 36.6333C26.1596 36.5979 26.0957 36.5345 26.0567 36.4242L25.6744 36.5591ZM26.1151 37.0143C26.3067 37.0819 26.5852 37.1213 26.9351 37.1408L26.9576 36.7359C26.6158 36.7169 26.385 36.6795 26.2501 36.6319L26.1151 37.0143ZM26.7436 36.9384V37.2266H27.149V36.9384H26.7436ZM26.9595 37.0243C26.5111 36.995 25.896 36.9806 25.1162 36.9806V37.3861C25.8927 37.3861 26.4977 37.4005 26.9331 37.4289L26.9595 37.0243ZM25.1162 36.9806C24.2891 36.9806 23.6683 36.995 23.2573 37.0243L23.2862 37.4288C23.6821 37.4005 24.291 37.3861 25.1162 37.3861V36.9806ZM23.4745 37.2266V36.9384H23.069V37.2266H23.4745ZM23.283 37.1408C23.6318 37.1214 23.9079 37.0821 24.0923 37.0129L23.9499 36.6333C23.8269 36.6794 23.6034 36.7169 23.2605 36.7359L23.283 37.1408ZM24.0886 37.0143C24.3097 36.9362 24.4656 36.7803 24.5437 36.5591L24.1613 36.4242C24.1241 36.5297 24.0591 36.5947 23.9536 36.6319L24.0886 37.0143ZM24.5437 36.5591C24.6135 36.3612 24.6417 36.0674 24.6417 35.6991H24.2362C24.2362 36.0609 24.2067 36.2955 24.1613 36.4242L24.5437 36.5591ZM24.6417 35.6991V28.5517H24.2362V35.6991H24.6417ZM24.6417 28.5517C24.6417 28.1834 24.6135 27.8897 24.5437 27.6917L24.1613 27.8267C24.2067 27.9554 24.2362 28.19 24.2362 28.5517H24.6417ZM24.5437 27.6917C24.4656 27.4706 24.3097 27.3146 24.0886 27.2366L23.9536 27.6189C24.0591 27.6562 24.1241 27.7212 24.1613 27.8267L24.5437 27.6917ZM24.0923 27.2379C23.9079 27.1688 23.6318 27.1294 23.283 27.1101L23.2605 27.5149C23.6034 27.534 23.8269 27.5715 23.9499 27.6176L24.0923 27.2379ZM23.4745 27.3125V27.0243H23.069V27.3125H23.4745ZM23.2573 27.2265C23.6683 27.2559 24.2891 27.2702 25.1162 27.2702V26.8648C24.291 26.8648 23.6821 26.8503 23.2862 26.8221L23.2573 27.2265ZM25.1162 27.2702C25.8866 27.2702 26.5015 27.2558 26.9592 27.2266L26.9334 26.822C26.4881 26.8504 25.883 26.8648 25.1162 26.8648V27.2702ZM26.7436 27.0243V27.3125H27.149V27.0243H26.7436ZM33.2046 31.8372H33.0018V32.0142L33.1772 32.0381L33.2046 31.8372ZM35.4669 32.7595L35.3206 32.8998L35.3221 32.9013L35.4669 32.7595ZM35.7263 35.8864L35.8956 35.998V35.998L35.7263 35.8864ZM34.5303 36.8807L34.6126 37.066L34.6155 37.0647L34.5303 36.8807ZM32.023 37.2122L32.0336 37.0096L32.0293 37.0095L32.023 37.2122ZM28.4205 37.2266H28.2177V37.4443L28.4349 37.4288L28.4205 37.2266ZM28.4205 36.9384L28.4092 36.7359L28.2177 36.7466V36.9384H28.4205ZM29.1698 36.8231L29.1023 36.6319L29.0986 36.6333L29.1698 36.8231ZM29.5012 27.7592L29.31 27.8267V27.8267L29.5012 27.7592ZM29.1698 27.4278L29.0986 27.6176L29.1023 27.6189L29.1698 27.4278ZM28.4205 27.3125H28.2177V27.5043L28.4092 27.5149L28.4205 27.3125ZM28.4205 27.0243L28.4349 26.8221L28.2177 26.8065V27.0243H28.4205ZM30.1785 27.0675V27.2703L30.1804 27.2702L30.1785 27.0675ZM31.7348 27.0531L31.7366 27.256L31.7454 27.2556L31.7348 27.0531ZM34.6023 27.6583L34.4761 27.8169L34.4775 27.818L34.6023 27.6583ZM34.8617 30.7997L34.7037 30.6726L34.7021 30.6748L34.8617 30.7997ZM33.2046 31.8084L33.1456 31.6144L33.0018 31.6581V31.8084H33.2046ZM31.3169 27.4134L31.2356 27.2276L31.2311 27.2296L31.3169 27.4134ZM31.0143 27.7736L31.2066 27.8377V27.8377L31.0143 27.7736ZM30.9278 31.8084H30.7251V32.0111H30.9278V31.8084ZM33.536 31.1744L33.3725 31.0545L33.372 31.0551L33.536 31.1744ZM34.0836 32.6442L33.942 32.7893L33.9437 32.7909L34.0836 32.6442ZM30.9278 32.0534V31.8506H30.7251V32.0534H30.9278ZM31.0143 36.4628L31.2054 36.3954V36.3954L31.0143 36.4628ZM31.3169 36.8087L31.2311 36.9924L31.2383 36.9957L31.2457 36.9985L31.3169 36.8087ZM33.1772 32.0381C34.2152 32.1796 34.9154 32.4773 35.3206 32.8998L35.6133 32.6191C35.1155 32.1002 34.3074 31.783 33.232 31.6363L33.1772 32.0381ZM35.3221 32.9013C35.736 33.324 35.9415 33.8301 35.9415 34.431H36.347C36.347 33.7255 36.1009 33.1171 35.6118 32.6176L35.3221 32.9013ZM35.9415 34.431C35.9415 34.9423 35.812 35.388 35.5571 35.7749L35.8956 35.998C36.1978 35.5395 36.347 35.0149 36.347 34.431H35.9415ZM35.5571 35.7749C35.3018 36.1621 34.9342 36.4703 34.4451 36.6967L34.6155 37.0647C35.1639 36.8108 35.5937 36.4561 35.8956 35.998L35.5571 35.7749ZM34.448 36.6955C33.9608 36.912 33.3753 37.0238 32.6858 37.0238V37.4293C33.4181 37.4293 34.0623 37.3106 34.6126 37.066L34.448 36.6955ZM32.6858 37.0238C32.4287 37.0238 32.2115 37.0191 32.0336 37.0097L32.0123 37.4146C32.1995 37.4245 32.4242 37.4293 32.6858 37.4293V37.0238ZM32.0293 37.0095C31.4124 36.9902 30.8051 36.9806 30.2073 36.9806V37.3861C30.8007 37.3861 31.4038 37.3956 32.0166 37.4148L32.0293 37.0095ZM30.2073 36.9806C29.4183 36.9806 28.8169 36.995 28.406 37.0243L28.4349 37.4288C28.831 37.4005 29.4208 37.3861 30.2073 37.3861V36.9806ZM28.6232 37.2266V36.9384H28.2177V37.2266H28.6232ZM28.4317 37.1408C28.7805 37.1214 29.0566 37.0821 29.241 37.0129L29.0986 36.6333C28.9756 36.6794 28.7521 36.7169 28.4092 36.7359L28.4317 37.1408ZM29.2373 37.0143C29.4584 36.9362 29.6143 36.7803 29.6924 36.5591L29.31 36.4242C29.2728 36.5297 29.2078 36.5947 29.1023 36.6319L29.2373 37.0143ZM29.6924 36.5591C29.7623 36.3612 29.7904 36.0674 29.7904 35.6991H29.3849C29.3849 36.0609 29.3554 36.2955 29.31 36.4242L29.6924 36.5591ZM29.7904 35.6991V28.5517H29.3849V35.6991H29.7904ZM29.7904 28.5517C29.7904 28.1834 29.7623 27.8897 29.6924 27.6917L29.31 27.8267C29.3554 27.9554 29.3849 28.19 29.3849 28.5517H29.7904ZM29.6924 27.6917C29.6143 27.4706 29.4584 27.3146 29.2373 27.2366L29.1023 27.6189C29.2078 27.6562 29.2728 27.7212 29.31 27.8267L29.6924 27.6917ZM29.241 27.2379C29.0566 27.1688 28.7805 27.1294 28.4317 27.1101L28.4092 27.5149C28.7521 27.534 28.9756 27.5715 29.0986 27.6176L29.241 27.2379ZM28.6232 27.3125V27.0243H28.2177V27.3125H28.6232ZM28.406 27.2265C28.8168 27.2558 29.4086 27.2702 30.1785 27.2702V26.8648C29.4113 26.8648 28.8311 26.8504 28.4349 26.8221L28.406 27.2265ZM30.1804 27.2702L31.7366 27.2558L31.7329 26.8504L30.1766 26.8648L30.1804 27.2702ZM31.7454 27.2556C31.9236 27.2462 32.1265 27.2414 32.3544 27.2414V26.836C32.1211 26.836 31.911 26.8408 31.7241 26.8506L31.7454 27.2556ZM32.3544 27.2414C33.3095 27.2414 34.0068 27.4432 34.4761 27.8169L34.7286 27.4997C34.1604 27.0472 33.359 26.836 32.3544 26.836V27.2414ZM34.4775 27.818C34.9557 28.1919 35.1922 28.6801 35.1922 29.3011H35.5976C35.5976 28.5578 35.3057 27.9509 34.7272 27.4986L34.4775 27.818ZM35.1922 29.3011C35.1922 29.8111 35.0308 30.266 34.7038 30.6726L35.0197 30.9268C35.4036 30.4495 35.5976 29.9054 35.5976 29.3011H35.1922ZM34.7021 30.6748C34.3905 31.0728 33.8806 31.3911 33.1456 31.6144L33.2635 32.0024C34.0464 31.7645 34.6412 31.4104 35.0214 30.9247L34.7021 30.6748ZM33.0018 31.8084V31.8372H33.4073V31.8084H33.0018ZM31.9941 27.1097C31.6867 27.1097 31.4276 27.1436 31.2356 27.2276L31.3981 27.5991C31.5135 27.5486 31.7059 27.5152 31.9941 27.5152V27.1097ZM31.2311 27.2296C31.029 27.3239 30.8944 27.4922 30.8219 27.7095L31.2066 27.8377C31.2494 27.7092 31.3165 27.6373 31.4026 27.5971L31.2311 27.2296ZM30.8219 27.7095C30.7537 27.9141 30.7251 28.2 30.7251 28.5517H31.1305C31.1305 28.2118 31.1595 27.9789 31.2066 27.8377L30.8219 27.7095ZM30.7251 28.5517V31.8084H31.1305V28.5517H30.7251ZM30.9278 32.0111H31.8933V31.6057H30.9278V32.0111ZM31.8933 32.0111C32.7117 32.0111 33.338 31.7914 33.7 31.2936L33.372 31.0551C33.1192 31.4028 32.6504 31.6057 31.8933 31.6057V32.0111ZM33.6995 31.2943C34.0492 30.8174 34.2143 30.1996 34.2143 29.4596H33.8088C33.8088 30.1413 33.6569 30.6667 33.3725 31.0545L33.6995 31.2943ZM34.2143 29.4596C34.2143 28.714 34.0509 28.1183 33.6873 27.7107L33.3847 27.9806C33.6552 28.2839 33.8088 28.7641 33.8088 29.4596H34.2143ZM33.6873 27.7107C33.3161 27.2946 32.7341 27.1097 31.9941 27.1097V27.5152C32.6759 27.5152 33.1218 27.6859 33.3847 27.9806L33.6873 27.7107ZM32.0085 37.0979C32.9348 37.0979 33.6672 36.8814 34.1681 36.4127C34.6715 35.9416 34.906 35.2488 34.906 34.3734H34.5005C34.5005 35.1791 34.2859 35.7472 33.891 36.1167C33.4937 36.4885 32.8787 36.6924 32.0085 36.6924V37.0979ZM34.906 34.3734C34.906 33.5781 34.6887 32.941 34.2235 32.4975L33.9437 32.7909C34.3047 33.1351 34.5005 33.6509 34.5005 34.3734H34.906ZM34.2252 32.4991C33.7669 32.0517 33.0548 31.8506 32.1382 31.8506V32.2561C33.0085 32.2561 33.5933 32.4489 33.942 32.7893L34.2252 32.4991ZM32.1382 31.8506H30.9278V32.2561H32.1382V31.8506ZM30.7251 32.0534V35.6991H31.1305V32.0534H30.7251ZM30.7251 35.6991C30.7251 36.0497 30.7535 36.3331 30.8231 36.5303L31.2054 36.3954C31.1598 36.266 31.1305 36.0402 31.1305 35.6991H30.7251ZM30.8231 36.5303C30.8971 36.7399 31.0331 36.9 31.2311 36.9924L31.4026 36.625C31.3125 36.5829 31.2467 36.5124 31.2054 36.3954L30.8231 36.5303ZM31.2457 36.9985C31.4342 37.0692 31.6942 37.0979 32.0085 37.0979V36.6924C31.708 36.6924 31.507 36.6634 31.3881 36.6188L31.2457 36.9985ZM41.2402 27.3125L41.2515 27.5149L41.443 27.5043V27.3125H41.2402ZM40.4765 27.4278L40.409 27.2365L40.4053 27.2379L40.4765 27.4278ZM40.1595 27.7592L40.3507 27.8267V27.8267L40.1595 27.7592ZM40.1595 36.4917L40.3507 36.4242V36.4242L40.1595 36.4917ZM40.4765 36.8231L40.4053 37.0129L40.4122 37.0155L40.4193 37.0176L40.4765 36.8231ZM43.6467 36.6502L43.7418 36.8292L43.7438 36.8281L43.6467 36.6502ZM44.3384 35.8288L44.5276 35.9016V35.9016L44.3384 35.8288ZM44.6554 34.2005V33.9977H44.4709L44.4536 34.1814L44.6554 34.2005ZM44.9868 34.2005L45.1886 34.22L45.2101 33.9977H44.9868V34.2005ZM45.0445 37.2266L45.0355 37.4291L45.2692 37.4394L45.2462 37.2067L45.0445 37.2266ZM37.5657 37.2266H37.3629V37.4356L37.5719 37.4292L37.5657 37.2266ZM37.5657 36.9384L37.5544 36.7359L37.3629 36.7466V36.9384H37.5657ZM38.315 36.8231L38.2475 36.6319L38.2438 36.6333L38.315 36.8231ZM38.6464 27.7592L38.4553 27.8267V27.8267L38.6464 27.7592ZM38.315 27.4278L38.2438 27.6176L38.2475 27.6189L38.315 27.4278ZM37.5657 27.3125H37.3629V27.5043L37.5544 27.5149L37.5657 27.3125ZM37.5657 27.0243L37.5801 26.8221L37.3629 26.8065V27.0243H37.5657ZM41.2402 27.0243H41.443V26.8082L41.2273 26.822L41.2402 27.0243ZM41.229 27.1101C40.8791 27.1295 40.6007 27.1689 40.409 27.2366L40.544 27.6189C40.679 27.5713 40.9097 27.5339 41.2515 27.5149L41.229 27.1101ZM40.4053 27.2379C40.1921 27.3179 40.0446 27.4754 39.9683 27.6917L40.3507 27.8267C40.3896 27.7163 40.4535 27.6529 40.5477 27.6176L40.4053 27.2379ZM39.9683 27.6917C39.8984 27.8897 39.8703 28.1834 39.8703 28.5517H40.2758C40.2758 28.19 40.3052 27.9554 40.3507 27.8267L39.9683 27.6917ZM39.8703 28.5517V35.6991H40.2758V28.5517H39.8703ZM39.8703 35.6991C39.8703 36.0674 39.8984 36.3612 39.9683 36.5591L40.3507 36.4242C40.3052 36.2955 40.2758 36.0609 40.2758 35.6991H39.8703ZM39.9683 36.5591C40.0446 36.7754 40.1921 36.9329 40.4053 37.0129L40.5477 36.6333C40.4535 36.5979 40.3896 36.5345 40.3507 36.4242L39.9683 36.5591ZM40.4193 37.0176C40.6118 37.0742 40.8907 37.0979 41.2402 37.0979V36.6924C40.8981 36.6924 40.6678 36.668 40.5337 36.6286L40.4193 37.0176ZM41.2402 37.0979H42.2922V36.6924H41.2402V37.0979ZM42.2922 37.0979C42.9004 37.0979 43.3912 37.0155 43.7418 36.8292L43.5516 36.4711C43.2874 36.6115 42.8752 36.6924 42.2922 36.6924V37.0979ZM43.7438 36.8281C44.1078 36.6296 44.3683 36.3158 44.5276 35.9016L44.1492 35.756C44.0203 36.0911 43.8196 36.3249 43.5496 36.4722L43.7438 36.8281ZM44.5276 35.9016C44.6816 35.5013 44.7894 34.9369 44.8572 34.2196L44.4536 34.1814C44.3869 34.8858 44.2834 35.407 44.1492 35.756L44.5276 35.9016ZM44.6554 34.4032H44.9868V33.9977H44.6554V34.4032ZM44.785 34.1809C44.7553 34.488 44.7409 34.8892 44.7409 35.3821H45.1463C45.1463 34.8951 45.1607 34.5085 45.1886 34.22L44.785 34.1809ZM44.7409 35.3821C44.7409 35.9377 44.775 36.5593 44.8427 37.2465L45.2462 37.2067C45.1795 36.5296 45.1463 35.9216 45.1463 35.3821H44.7409ZM45.0534 37.024C44.3953 36.995 43.2913 36.9806 41.7446 36.9806V37.3861C43.2912 37.3861 44.3872 37.4005 45.0355 37.4291L45.0534 37.024ZM41.7446 36.9806C39.8996 36.9806 38.5041 36.995 37.5595 37.0239L37.5719 37.4292C38.5101 37.4005 39.9006 37.3861 41.7446 37.3861V36.9806ZM37.7684 37.2266V36.9384H37.3629V37.2266H37.7684ZM37.5769 37.1408C37.9258 37.1214 38.2018 37.0821 38.3862 37.0129L38.2438 36.6333C38.1208 36.6794 37.8973 36.7169 37.5544 36.7359L37.5769 37.1408ZM38.3825 37.0143C38.6036 36.9362 38.7596 36.7803 38.8376 36.5591L38.4553 36.4242C38.418 36.5297 38.353 36.5947 38.2475 36.6319L38.3825 37.0143ZM38.8376 36.5591C38.9075 36.3612 38.9356 36.0674 38.9356 35.6991H38.5302C38.5302 36.0609 38.5007 36.2955 38.4553 36.4242L38.8376 36.5591ZM38.9356 35.6991V28.5517H38.5302V35.6991H38.9356ZM38.9356 28.5517C38.9356 28.1834 38.9075 27.8897 38.8376 27.6917L38.4553 27.8267C38.5007 27.9554 38.5302 28.19 38.5302 28.5517H38.9356ZM38.8376 27.6917C38.7596 27.4706 38.6036 27.3146 38.3825 27.2366L38.2475 27.6189C38.353 27.6562 38.418 27.7212 38.4553 27.8267L38.8376 27.6917ZM38.3862 27.2379C38.2018 27.1688 37.9258 27.1294 37.5769 27.1101L37.5544 27.5149C37.8973 27.534 38.1208 27.5715 38.2438 27.6176L38.3862 27.2379ZM37.7684 27.3125V27.0243H37.3629V27.3125H37.7684ZM37.5512 27.2265C37.9623 27.2559 38.583 27.2702 39.4102 27.2702V26.8648C38.5849 26.8648 37.9761 26.8503 37.5801 26.8221L37.5512 27.2265ZM39.4102 27.2702C40.1805 27.2702 40.7954 27.2558 41.2531 27.2266L41.2273 26.822C40.782 26.8504 40.1769 26.8648 39.4102 26.8648V27.2702ZM41.0375 27.0243V27.3125H41.443V27.0243H41.0375ZM53.7816 37.2266L53.7727 37.4291L54.0063 37.4394L53.9834 37.2067L53.7816 37.2266ZM46.3028 37.2266H46.1001V37.4356L46.309 37.4292L46.3028 37.2266ZM46.3028 36.9384L46.2916 36.7359L46.1001 36.7466V36.9384H46.3028ZM47.0521 36.8231L46.9846 36.6319L46.9809 36.6333L47.0521 36.8231ZM47.3836 27.7592L47.1924 27.8267V27.8267L47.3836 27.7592ZM47.0521 27.4278L46.9809 27.6176L46.9847 27.6189L47.0521 27.4278ZM46.3028 27.3125H46.1001V27.5043L46.2916 27.5149L46.3028 27.3125ZM46.3028 27.0243L46.309 26.8216L46.1001 26.8152V27.0243H46.3028ZM53.4934 27.0243L53.695 27.0457L53.72 26.8103L53.4836 26.8218L53.4934 27.0243ZM53.4358 29.6181V29.8208H53.6667L53.6368 29.5919L53.4358 29.6181ZM53.1043 29.6181L52.9028 29.6398L52.9223 29.8208H53.1043V29.6181ZM52.845 28.2347L52.6532 28.3006L52.6539 28.3025L52.845 28.2347ZM52.3118 27.5719L52.2104 27.7475L52.2157 27.7504L52.3118 27.5719ZM49.2136 27.4422L49.2741 27.6358L49.2811 27.6334L49.2136 27.4422ZM48.8966 27.7592L49.0878 27.8267V27.8267L48.8966 27.7592ZM48.8102 31.9525H48.6074V32.1552H48.8102V31.9525ZM50.5394 31.7219L50.67 31.8771L50.6745 31.873L50.5394 31.7219ZM50.8996 31.16L50.7056 31.1009L50.704 31.1066L50.8996 31.16ZM51.0581 30.3386L50.8575 30.3085L50.8568 30.3149L51.0581 30.3386ZM51.1013 30.0504V29.8476H50.9268L50.9008 30.0203L51.1013 30.0504ZM51.4328 30.0504L51.635 30.0648L51.6505 29.8476H51.4328V30.0504ZM51.476 34.1428V34.3456H51.6925L51.6783 34.1295L51.476 34.1428ZM51.1446 34.1428L50.9439 34.1715L50.9687 34.3456H51.1446V34.1428ZM51.0581 33.4511L50.8568 33.4751L50.8569 33.4757L51.0581 33.4511ZM50.6546 32.5433L50.5146 32.69L50.5179 32.693L50.6546 32.5433ZM48.8102 32.2407V32.038H48.6074V32.2407H48.8102ZM48.8966 36.4917L49.0878 36.4242V36.4242L48.8966 36.4917ZM49.2136 36.8231L49.1424 37.0129L49.1494 37.0155L49.1564 37.0176L49.2136 36.8231ZM52.3838 36.6646L52.4745 36.8459L52.4767 36.8448L52.3838 36.6646ZM53.0755 35.9008L53.2627 35.9788L53.2634 35.977L53.0755 35.9008ZM53.3925 34.3446V34.1418H53.2088L53.1908 34.3247L53.3925 34.3446ZM53.724 34.3446L53.9255 34.367L53.9505 34.1418H53.724V34.3446ZM53.478 35.3821C53.478 35.9377 53.5121 36.5593 53.5798 37.2465L53.9834 37.2067C53.9166 36.5296 53.8835 35.9216 53.8835 35.3821H53.478ZM53.7905 37.024C53.1324 36.995 52.0285 36.9806 50.4817 36.9806V37.3861C52.0283 37.3861 53.1243 37.4005 53.7727 37.4291L53.7905 37.024ZM50.4817 36.9806C48.6367 36.9806 47.2413 36.995 46.2966 37.0239L46.309 37.4292C47.2473 37.4005 48.6377 37.3861 50.4817 37.3861V36.9806ZM46.5056 37.2266V36.9384H46.1001V37.2266H46.5056ZM46.3141 37.1408C46.6629 37.1214 46.9389 37.0821 47.1233 37.0129L46.9809 36.6333C46.8579 36.6794 46.6344 36.7169 46.2916 36.7359L46.3141 37.1408ZM47.1196 37.0143C47.3407 36.9362 47.4967 36.7803 47.5747 36.5591L47.1924 36.4242C47.1552 36.5297 47.0902 36.5947 46.9847 36.6319L47.1196 37.0143ZM47.5747 36.5591C47.6446 36.3612 47.6728 36.0674 47.6728 35.6991H47.2673C47.2673 36.0609 47.2378 36.2955 47.1924 36.4242L47.5747 36.5591ZM47.6728 35.6991V28.5517H47.2673V35.6991H47.6728ZM47.6728 28.5517C47.6728 28.1834 47.6446 27.8897 47.5747 27.6917L47.1924 27.8267C47.2378 27.9554 47.2673 28.19 47.2673 28.5517H47.6728ZM47.5747 27.6917C47.4967 27.4706 47.3407 27.3146 47.1196 27.2366L46.9847 27.6189C47.0902 27.6562 47.1552 27.7212 47.1924 27.8267L47.5747 27.6917ZM47.1233 27.2379C46.9389 27.1688 46.6629 27.1294 46.3141 27.1101L46.2916 27.5149C46.6344 27.534 46.8579 27.5715 46.9809 27.6176L47.1233 27.2379ZM46.5056 27.3125V27.0243H46.1001V27.3125H46.5056ZM46.2966 27.2269C47.2413 27.2558 48.6367 27.2702 50.4817 27.2702V26.8648C48.6377 26.8648 47.2473 26.8504 46.309 26.8216L46.2966 27.2269ZM50.4817 27.2702C51.894 27.2702 52.9022 27.2559 53.5032 27.2268L53.4836 26.8218C52.8934 26.8503 51.8938 26.8648 50.4817 26.8648V27.2702ZM53.2918 27.0029C53.224 27.6422 53.1898 28.2163 53.1898 28.7247H53.5953C53.5953 28.2339 53.6283 27.6744 53.695 27.0457L53.2918 27.0029ZM53.1898 28.7247C53.1898 29.1031 53.2043 29.4108 53.2347 29.6443L53.6368 29.5919C53.6096 29.3835 53.5953 29.0956 53.5953 28.7247H53.1898ZM53.4358 29.4153H53.1043V29.8208H53.4358V29.4153ZM53.3059 29.5964C53.2383 28.9684 53.1499 28.4879 53.036 28.1669L52.6539 28.3025C52.7513 28.5771 52.8359 29.0189 52.9028 29.6398L53.3059 29.5964ZM53.0367 28.1688C52.917 27.8207 52.7091 27.5556 52.4079 27.3934L52.2157 27.7504C52.414 27.8572 52.5615 28.0339 52.6532 28.3006L53.0367 28.1688ZM52.4131 27.3963C52.1171 27.2255 51.6946 27.153 51.1734 27.153V27.5584C51.6705 27.5584 52.0069 27.6301 52.2105 27.7475L52.4131 27.3963ZM51.1734 27.153H49.9774V27.5584H51.1734V27.153ZM49.9774 27.153C49.6267 27.153 49.3434 27.1814 49.1462 27.251L49.2811 27.6334C49.4105 27.5877 49.6363 27.5584 49.9774 27.5584V27.153ZM49.1532 27.2487C48.9333 27.3174 48.7825 27.4734 48.7054 27.6917L49.0878 27.8267C49.126 27.7183 49.1866 27.663 49.2741 27.6357L49.1532 27.2487ZM48.7054 27.6917C48.6356 27.8897 48.6074 28.1834 48.6074 28.5517H49.0129C49.0129 28.19 49.0424 27.9554 49.0878 27.8267L48.7054 27.6917ZM48.6074 28.5517V31.9525H49.0129V28.5517H48.6074ZM48.8102 32.1552H49.7612V31.7498H48.8102V32.1552ZM49.7612 32.1552C50.1259 32.1552 50.4384 32.072 50.6699 31.877L50.4088 31.5669C50.2752 31.6793 50.069 31.7498 49.7612 31.7498V32.1552ZM50.6745 31.873C50.8827 31.6868 51.0261 31.4667 51.0952 31.2133L50.704 31.1066C50.6578 31.2759 50.5611 31.4304 50.4042 31.5709L50.6745 31.873ZM51.0936 31.219C51.1654 30.9828 51.2202 30.6963 51.2595 30.3623L50.8568 30.3149C50.8192 30.6341 50.7683 30.8952 50.7057 31.1009L51.0936 31.219ZM51.2586 30.3687L51.3018 30.0805L50.9008 30.0203L50.8576 30.3085L51.2586 30.3687ZM51.1013 30.2531H51.4328V29.8476H51.1013V30.2531ZM51.2306 30.0359C51.2013 30.4452 51.1868 30.9016 51.1868 31.4049H51.5923C51.5923 30.9091 51.6066 30.4625 51.635 30.0648L51.2306 30.0359ZM51.1868 31.4049V32.0966H51.5923V31.4049H51.1868ZM51.1868 32.0966C51.1868 32.5932 51.216 33.2804 51.2737 34.1562L51.6783 34.1295C51.6208 33.2568 51.5923 32.5799 51.5923 32.0966H51.1868ZM51.476 33.9401H51.1446V34.3456H51.476V33.9401ZM51.3453 34.1142C51.336 34.0495 51.3075 33.8217 51.2594 33.4266L50.8569 33.4757C50.9047 33.8683 50.9339 34.1016 50.9439 34.1715L51.3453 34.1142ZM51.2594 33.4272C51.2077 32.9928 51.0593 32.6383 50.7913 32.3936L50.5179 32.693C50.6919 32.8518 50.8124 33.1026 50.8568 33.4751L51.2594 33.4272ZM50.7946 32.3967C50.5349 32.1487 50.1807 32.038 49.7612 32.038V32.4434C50.1103 32.4434 50.3517 32.5344 50.5146 32.69L50.7946 32.3967ZM49.7612 32.038H48.8102V32.4434H49.7612V32.038ZM48.6074 32.2407V35.6991H49.0129V32.2407H48.6074ZM48.6074 35.6991C48.6074 36.0674 48.6356 36.3612 48.7054 36.5591L49.0878 36.4242C49.0424 36.2955 49.0129 36.0609 49.0129 35.6991H48.6074ZM48.7054 36.5591C48.7818 36.7754 48.9292 36.9329 49.1424 37.0129L49.2848 36.6333C49.1907 36.5979 49.1267 36.5345 49.0878 36.4242L48.7054 36.5591ZM49.1564 37.0176C49.349 37.0742 49.6278 37.0979 49.9774 37.0979V36.6924C49.6352 36.6924 49.4049 36.668 49.2708 36.6286L49.1564 37.0176ZM49.9774 37.0979H51.0293V36.6924H49.9774V37.0979ZM51.0293 37.0979C51.6365 37.0979 52.1253 37.0205 52.4745 36.8459L52.2932 36.4832C52.0275 36.6161 51.6133 36.6924 51.0293 36.6924V37.0979ZM52.4767 36.8448C52.8385 36.6584 53.1012 36.3664 53.2627 35.9788L52.8884 35.8229C52.7617 36.127 52.5632 36.3441 52.291 36.4843L52.4767 36.8448ZM53.2634 35.977C53.4184 35.5947 53.5264 35.0532 53.5943 34.3645L53.1908 34.3247C53.1242 35.0001 53.0208 35.4961 52.8876 35.8247L53.2634 35.977ZM53.3925 34.5473H53.724V34.1418H53.3925V34.5473ZM53.5225 34.3222C53.4925 34.5922 53.478 34.9465 53.478 35.3821H53.8835C53.8835 34.9531 53.8978 34.6157 53.9255 34.367L53.5225 34.3222Z" fill="#FEF5EB" mask="url(#path-5-outside-1_23632_22729)"/>
</g>
</g>
<defs>
<linearGradient id="paint0_linear_23632_22729" x1="34" y1="-1.04141e-05" x2="34" y2="68" gradientUnits="userSpaceOnUse">
<stop stop-color="#C93D34"/>
<stop offset="1" stop-color="#7A2629"/>
</linearGradient>
<linearGradient id="paint1_linear_23632_22729" x1="34" y1="-1.04141e-05" x2="34" y2="68" gradientUnits="userSpaceOnUse">
<stop stop-color="#C93D34"/>
<stop offset="1" stop-color="#7A2629"/>
</linearGradient>
<clipPath id="clip0_23632_22729">
<rect width="68" height="68" fill="white"/>
</clipPath>
</defs>
</svg>
