<svg width="68" height="68" viewBox="0 0 68 68" fill="none" xmlns="http://www.w3.org/2000/svg">
<g clip-path="url(#clip0_23668_7483)">
<mask id="mask0_23668_7483" style="mask-type:alpha" maskUnits="userSpaceOnUse" x="0" y="0" width="68" height="68">
<path fill-rule="evenodd" clip-rule="evenodd" d="M47.0333 0H20.9667C13.5811 0 8.89667 0.0377779 4.45778 4.45778C0.018889 8.89667 0 13.6 0 20.9667V47.0333C0 54.4189 0.0377779 59.1033 4.45778 63.5422C8.89667 67.9811 13.6 68 20.9667 68H47.0333C54.4189 68 59.1033 67.9811 63.5422 63.5422C67.9622 59.1033 68 54.4 68 47.0333V20.9667C68 13.5811 67.9622 8.89667 63.5422 4.45778C59.1033 0.018889 54.4 0 47.0333 0Z" fill="url(#paint0_linear_23668_7483)"/>
</mask>
<g mask="url(#mask0_23668_7483)">
<rect width="68" height="68" fill="url(#paint1_linear_23668_7483)"/>
<path fill-rule="evenodd" clip-rule="evenodd" d="M15.6212 64.3732C26.4256 64.3732 45.6357 64.3732 45.6357 64.3732C52.5868 64.3732 57.0823 64.6377 61.2379 60.4443C64.8079 56.8743 64.5057 50.8677 64.7323 46.1077C60.709 52.1521 53.3234 51.9443 47.619 51.9443C47.619 51.9443 20.929 51.9443 10.9556 51.9443C0.982316 51.9632 4.81676 64.3732 15.6212 64.3732Z" fill="#FEF5EB"/>
<path d="M12.4854 53.531H23.1387V61.521L17.812 58.8577L12.4854 61.521V53.531Z" fill="#F19C33"/>
<mask id="path-5-outside-1_23668_7483" maskUnits="userSpaceOnUse" x="11.1016" y="8.94531" width="46" height="30" fill="black">
<rect fill="white" x="11.1016" y="8.94531" width="46" height="30"/>
<path d="M27.2663 14.1782V15.1773H25.1273V23.1845H24.8529L24.0227 22.2487V19.4131C23.6662 19.718 23.244 19.8705 22.7561 19.8705C22.334 19.8705 21.9141 19.7485 21.4967 19.5046C21.0792 19.2607 20.7203 18.9699 20.4201 18.6321C20.1246 18.2897 19.9768 17.8746 19.9768 17.3867V15.1773H18.9214V14.1782H27.2663ZM24.0227 15.1773H21.0815V17.9215C21.0815 18.536 21.1964 18.9229 21.4263 19.0824C21.6561 19.2372 21.9259 19.3146 22.2355 19.3146C22.789 19.3146 23.3847 18.9534 24.0227 18.2311V15.1773ZM31.8751 14.1782V15.1773H29.7431V23.1634H29.4265L28.6384 22.2628V15.1773H27.0693V14.1782H28.7651C28.4836 13.6341 28.3429 13.1063 28.3429 12.595C28.3429 11.868 28.5938 11.2629 29.0958 10.7797C29.6024 10.2966 30.2544 10.055 31.0518 10.055C32.581 10.055 34.0281 10.8665 35.3932 12.4895H34.9147C33.6857 11.3825 32.5763 10.829 31.5866 10.829C30.8454 10.829 30.2896 11.0424 29.919 11.4693C29.5531 11.8914 29.3702 12.3464 29.3702 12.8343C29.3702 13.2471 29.4945 13.695 29.7431 14.1782H31.8751ZM40.403 14.1782V15.1773H38.2639V23.1634H37.9684L37.1593 22.2628V19.9268C36.3524 20.4803 35.6418 20.7571 35.0273 20.7571C34.4644 20.7571 33.9015 20.4779 33.3386 19.9197C32.7804 19.3568 32.5013 18.8244 32.5013 18.3225C32.5013 17.769 32.8062 17.3234 33.416 16.9856C34.0258 16.6479 34.6473 16.479 35.2806 16.479C35.9045 16.479 36.5307 16.7933 37.1593 17.4219V15.1773H31.671V14.1782H40.403ZM37.1593 18.2522V17.9004C36.7512 17.6048 36.3477 17.4571 35.949 17.4571C35.3955 17.4571 34.8115 17.6095 34.197 17.9144C33.5825 18.2146 33.2753 18.5547 33.2753 18.9347C33.2753 19.2349 33.3785 19.4858 33.5849 19.6875C33.7913 19.8846 34.0328 19.9831 34.3096 19.9831C34.6286 19.9831 35.1727 19.7579 35.942 19.3076C36.7113 18.8526 37.117 18.5008 37.1593 18.2522ZM49.2404 14.1782V15.1773H47.1085V23.1494H46.8129L46.0038 22.2628V18.8784L42.5701 20.7148L41.768 19.9971L45.7223 17.9215C45.0093 17.2085 44.3854 16.852 43.8507 16.852C43.3066 16.852 42.5373 17.1522 41.5428 17.7526L40.6985 16.9082C41.8899 16.2937 42.8117 15.9865 43.4637 15.9865C43.7827 15.9865 44.1134 16.0897 44.4558 16.2961C44.8029 16.5025 45.3189 16.9763 46.0038 17.7174V15.1773H40.1989V14.1782H49.2404ZM20.8423 28.1782V29.1773H18.7033V37.1845H18.5555L17.5986 36.2487V34.3841C16.7355 34.9517 16.0108 35.2355 15.4244 35.2355C14.8334 35.2355 14.2517 34.9494 13.6794 34.3771C13.1118 33.8001 12.828 33.2255 12.828 32.6532C12.828 32.0809 13.1423 31.6048 13.7709 31.2249C14.3995 30.8402 14.9882 30.6479 15.537 30.6479C16.0577 30.6479 16.7449 31.0279 17.5986 31.7878V29.1773H12.1104V28.1782H20.8423ZM14.8545 31.9918L16.5291 33.779C16.8809 33.5961 17.1459 33.4155 17.3242 33.2372C17.5071 33.0543 17.5986 32.7306 17.5986 32.2662C17.153 31.8394 16.6933 31.6259 16.2195 31.6259C15.7457 31.6259 15.2907 31.7479 14.8545 31.9918ZM16.1843 33.9409L14.5097 32.1396C13.8342 32.4867 13.4965 32.8784 13.4965 33.3146C13.4965 33.5773 13.6208 33.8259 13.8694 34.0605C14.118 34.2903 14.4042 34.4052 14.7278 34.4052C15.0796 34.4052 15.5651 34.2504 16.1843 33.9409ZM25.444 28.1782V29.1773H23.312V37.1845H23.0517L22.2073 36.2065V29.1773H20.6382V28.1782H25.444ZM33.1205 28.1782V29.1773H30.3975L30.5663 31.0701H28.1318C27.386 31.0701 27.013 31.3398 27.013 31.8792C27.013 32.1232 27.0904 32.3413 27.2452 32.5336C27.4047 32.7259 27.5853 32.8221 27.787 32.8221C27.8621 32.8221 28.1623 32.7611 28.6877 32.6392C29.2083 32.5125 29.5766 32.4492 29.7923 32.4492C30.0972 32.4492 30.4631 32.6837 30.89 33.1528C31.3215 33.6172 31.5373 34.0347 31.5373 34.4052C31.5373 35.0526 31.0237 35.6788 29.9964 36.2839L32.2972 38.5847H31.8328L29.6446 36.4317C29.3209 36.5536 29.0137 36.6146 28.7228 36.6146C28.2678 36.6146 27.8902 36.4715 27.59 36.1854C27.2898 35.8993 27.1397 35.5873 27.1397 35.2496C27.1397 35.0385 27.203 34.8673 27.3297 34.7359C27.4563 34.5999 27.6088 34.5319 27.787 34.5319C28.1388 34.5319 28.5985 34.8462 29.1661 35.4747C29.6493 35.4466 30.0574 35.273 30.3904 34.9541C30.7282 34.6351 30.897 34.3044 30.897 33.962C30.897 33.7321 30.822 33.5398 30.6719 33.385C30.5265 33.2302 30.3365 33.1528 30.1019 33.1528C29.9987 33.1528 29.7478 33.2067 29.3491 33.3146C28.941 33.4272 28.622 33.4835 28.3921 33.4835C27.8996 33.4835 27.4282 33.2419 26.9779 32.7588C26.5322 32.2756 26.3094 31.769 26.3094 31.2389C26.3094 30.662 26.7527 30.3735 27.6393 30.3735H29.7009V29.1773H25.2399V28.1782H33.1205ZM37.7292 28.1782V29.1773H35.5972V37.1634H35.2806L34.4925 36.2628V29.1773H32.9235V28.1782H34.6192C34.3377 27.6341 34.197 27.1063 34.197 26.595C34.197 25.868 34.448 25.2629 34.9499 24.7797C35.4565 24.2966 36.1085 24.055 36.906 24.055C38.4352 24.055 39.8823 24.8665 41.2473 26.4895H40.7688C39.5398 25.3825 38.4305 24.829 37.4407 24.829C36.6996 24.829 36.1437 25.0424 35.7731 25.4693C35.4072 25.8914 35.2243 26.3464 35.2243 26.8343C35.2243 27.2471 35.3486 27.695 35.5972 28.1782H37.7292ZM46.2571 28.1782V29.1773H44.1181V37.1845H43.9703L43.0134 36.2487V34.3841C42.1503 34.9517 41.4255 35.2355 40.8392 35.2355C40.2482 35.2355 39.6665 34.9494 39.0942 34.3771C38.5266 33.8001 38.2428 33.2255 38.2428 32.6532C38.2428 32.0809 38.5571 31.6048 39.1857 31.2249C39.8143 30.8402 40.403 30.6479 40.9518 30.6479C41.4725 30.6479 42.1597 31.0279 43.0134 31.7878V29.1773H37.5251V28.1782H46.2571ZM40.2693 31.9918L41.9439 33.779C42.2957 33.5961 42.5607 33.4155 42.739 33.2372C42.9219 33.0543 43.0134 32.7306 43.0134 32.2662C42.5678 31.8394 42.1081 31.6259 41.6343 31.6259C41.1605 31.6259 40.7055 31.7479 40.2693 31.9918ZM41.5991 33.9409L39.9245 32.1396C39.249 32.4867 38.9113 32.8784 38.9113 33.3146C38.9113 33.5773 39.0356 33.8259 39.2842 34.0605C39.5328 34.2903 39.8189 34.4052 40.1426 34.4052C40.4944 34.4052 40.9799 34.2504 41.5991 33.9409ZM56.0515 28.1782V29.1773H53.9195V37.1494H53.624L52.8289 36.2487V31.5837C52.3411 31.6963 51.5882 32.4163 50.5703 33.7438L49.7541 32.9347C49.8854 32.7377 50.1012 32.4656 50.4014 32.1185C49.937 31.6775 49.4773 31.4571 49.0223 31.4571C48.7174 31.4571 48.4313 31.5814 48.1639 31.83C47.9012 32.0786 47.7699 32.3718 47.7699 32.7095C47.7699 33.0754 47.8895 33.446 48.1287 33.8212C48.3726 34.1918 49.0247 34.8954 50.0848 35.9321L49.8455 36.1502L47.8473 34.1519C47.4298 33.7391 47.146 33.385 46.9959 33.0895C46.8458 32.7939 46.7707 32.5195 46.7707 32.2662C46.7707 31.8112 46.9185 31.4336 47.214 31.1334C47.5142 30.8332 47.8824 30.6831 48.3187 30.6831C49.0176 30.6831 49.7846 31.0818 50.6195 31.8792C51.3372 31.1803 52.0737 30.8308 52.8289 30.8308V29.1773H46.053V28.1782H56.0515Z"/>
</mask>
<path d="M27.2663 14.1782V15.1773H25.1273V23.1845H24.8529L24.0227 22.2487V19.4131C23.6662 19.718 23.244 19.8705 22.7561 19.8705C22.334 19.8705 21.9141 19.7485 21.4967 19.5046C21.0792 19.2607 20.7203 18.9699 20.4201 18.6321C20.1246 18.2897 19.9768 17.8746 19.9768 17.3867V15.1773H18.9214V14.1782H27.2663ZM24.0227 15.1773H21.0815V17.9215C21.0815 18.536 21.1964 18.9229 21.4263 19.0824C21.6561 19.2372 21.9259 19.3146 22.2355 19.3146C22.789 19.3146 23.3847 18.9534 24.0227 18.2311V15.1773ZM31.8751 14.1782V15.1773H29.7431V23.1634H29.4265L28.6384 22.2628V15.1773H27.0693V14.1782H28.7651C28.4836 13.6341 28.3429 13.1063 28.3429 12.595C28.3429 11.868 28.5938 11.2629 29.0958 10.7797C29.6024 10.2966 30.2544 10.055 31.0518 10.055C32.581 10.055 34.0281 10.8665 35.3932 12.4895H34.9147C33.6857 11.3825 32.5763 10.829 31.5866 10.829C30.8454 10.829 30.2896 11.0424 29.919 11.4693C29.5531 11.8914 29.3702 12.3464 29.3702 12.8343C29.3702 13.2471 29.4945 13.695 29.7431 14.1782H31.8751ZM40.403 14.1782V15.1773H38.2639V23.1634H37.9684L37.1593 22.2628V19.9268C36.3524 20.4803 35.6418 20.7571 35.0273 20.7571C34.4644 20.7571 33.9015 20.4779 33.3386 19.9197C32.7804 19.3568 32.5013 18.8244 32.5013 18.3225C32.5013 17.769 32.8062 17.3234 33.416 16.9856C34.0258 16.6479 34.6473 16.479 35.2806 16.479C35.9045 16.479 36.5307 16.7933 37.1593 17.4219V15.1773H31.671V14.1782H40.403ZM37.1593 18.2522V17.9004C36.7512 17.6048 36.3477 17.4571 35.949 17.4571C35.3955 17.4571 34.8115 17.6095 34.197 17.9144C33.5825 18.2146 33.2753 18.5547 33.2753 18.9347C33.2753 19.2349 33.3785 19.4858 33.5849 19.6875C33.7913 19.8846 34.0328 19.9831 34.3096 19.9831C34.6286 19.9831 35.1727 19.7579 35.942 19.3076C36.7113 18.8526 37.117 18.5008 37.1593 18.2522ZM49.2404 14.1782V15.1773H47.1085V23.1494H46.8129L46.0038 22.2628V18.8784L42.5701 20.7148L41.768 19.9971L45.7223 17.9215C45.0093 17.2085 44.3854 16.852 43.8507 16.852C43.3066 16.852 42.5373 17.1522 41.5428 17.7526L40.6985 16.9082C41.8899 16.2937 42.8117 15.9865 43.4637 15.9865C43.7827 15.9865 44.1134 16.0897 44.4558 16.2961C44.8029 16.5025 45.3189 16.9763 46.0038 17.7174V15.1773H40.1989V14.1782H49.2404ZM20.8423 28.1782V29.1773H18.7033V37.1845H18.5555L17.5986 36.2487V34.3841C16.7355 34.9517 16.0108 35.2355 15.4244 35.2355C14.8334 35.2355 14.2517 34.9494 13.6794 34.3771C13.1118 33.8001 12.828 33.2255 12.828 32.6532C12.828 32.0809 13.1423 31.6048 13.7709 31.2249C14.3995 30.8402 14.9882 30.6479 15.537 30.6479C16.0577 30.6479 16.7449 31.0279 17.5986 31.7878V29.1773H12.1104V28.1782H20.8423ZM14.8545 31.9918L16.5291 33.779C16.8809 33.5961 17.1459 33.4155 17.3242 33.2372C17.5071 33.0543 17.5986 32.7306 17.5986 32.2662C17.153 31.8394 16.6933 31.6259 16.2195 31.6259C15.7457 31.6259 15.2907 31.7479 14.8545 31.9918ZM16.1843 33.9409L14.5097 32.1396C13.8342 32.4867 13.4965 32.8784 13.4965 33.3146C13.4965 33.5773 13.6208 33.8259 13.8694 34.0605C14.118 34.2903 14.4042 34.4052 14.7278 34.4052C15.0796 34.4052 15.5651 34.2504 16.1843 33.9409ZM25.444 28.1782V29.1773H23.312V37.1845H23.0517L22.2073 36.2065V29.1773H20.6382V28.1782H25.444ZM33.1205 28.1782V29.1773H30.3975L30.5663 31.0701H28.1318C27.386 31.0701 27.013 31.3398 27.013 31.8792C27.013 32.1232 27.0904 32.3413 27.2452 32.5336C27.4047 32.7259 27.5853 32.8221 27.787 32.8221C27.8621 32.8221 28.1623 32.7611 28.6877 32.6392C29.2083 32.5125 29.5766 32.4492 29.7923 32.4492C30.0972 32.4492 30.4631 32.6837 30.89 33.1528C31.3215 33.6172 31.5373 34.0347 31.5373 34.4052C31.5373 35.0526 31.0237 35.6788 29.9964 36.2839L32.2972 38.5847H31.8328L29.6446 36.4317C29.3209 36.5536 29.0137 36.6146 28.7228 36.6146C28.2678 36.6146 27.8902 36.4715 27.59 36.1854C27.2898 35.8993 27.1397 35.5873 27.1397 35.2496C27.1397 35.0385 27.203 34.8673 27.3297 34.7359C27.4563 34.5999 27.6088 34.5319 27.787 34.5319C28.1388 34.5319 28.5985 34.8462 29.1661 35.4747C29.6493 35.4466 30.0574 35.273 30.3904 34.9541C30.7282 34.6351 30.897 34.3044 30.897 33.962C30.897 33.7321 30.822 33.5398 30.6719 33.385C30.5265 33.2302 30.3365 33.1528 30.1019 33.1528C29.9987 33.1528 29.7478 33.2067 29.3491 33.3146C28.941 33.4272 28.622 33.4835 28.3921 33.4835C27.8996 33.4835 27.4282 33.2419 26.9779 32.7588C26.5322 32.2756 26.3094 31.769 26.3094 31.2389C26.3094 30.662 26.7527 30.3735 27.6393 30.3735H29.7009V29.1773H25.2399V28.1782H33.1205ZM37.7292 28.1782V29.1773H35.5972V37.1634H35.2806L34.4925 36.2628V29.1773H32.9235V28.1782H34.6192C34.3377 27.6341 34.197 27.1063 34.197 26.595C34.197 25.868 34.448 25.2629 34.9499 24.7797C35.4565 24.2966 36.1085 24.055 36.906 24.055C38.4352 24.055 39.8823 24.8665 41.2473 26.4895H40.7688C39.5398 25.3825 38.4305 24.829 37.4407 24.829C36.6996 24.829 36.1437 25.0424 35.7731 25.4693C35.4072 25.8914 35.2243 26.3464 35.2243 26.8343C35.2243 27.2471 35.3486 27.695 35.5972 28.1782H37.7292ZM46.2571 28.1782V29.1773H44.1181V37.1845H43.9703L43.0134 36.2487V34.3841C42.1503 34.9517 41.4255 35.2355 40.8392 35.2355C40.2482 35.2355 39.6665 34.9494 39.0942 34.3771C38.5266 33.8001 38.2428 33.2255 38.2428 32.6532C38.2428 32.0809 38.5571 31.6048 39.1857 31.2249C39.8143 30.8402 40.403 30.6479 40.9518 30.6479C41.4725 30.6479 42.1597 31.0279 43.0134 31.7878V29.1773H37.5251V28.1782H46.2571ZM40.2693 31.9918L41.9439 33.779C42.2957 33.5961 42.5607 33.4155 42.739 33.2372C42.9219 33.0543 43.0134 32.7306 43.0134 32.2662C42.5678 31.8394 42.1081 31.6259 41.6343 31.6259C41.1605 31.6259 40.7055 31.7479 40.2693 31.9918ZM41.5991 33.9409L39.9245 32.1396C39.249 32.4867 38.9113 32.8784 38.9113 33.3146C38.9113 33.5773 39.0356 33.8259 39.2842 34.0605C39.5328 34.2903 39.8189 34.4052 40.1426 34.4052C40.4944 34.4052 40.9799 34.2504 41.5991 33.9409ZM56.0515 28.1782V29.1773H53.9195V37.1494H53.624L52.8289 36.2487V31.5837C52.3411 31.6963 51.5882 32.4163 50.5703 33.7438L49.7541 32.9347C49.8854 32.7377 50.1012 32.4656 50.4014 32.1185C49.937 31.6775 49.4773 31.4571 49.0223 31.4571C48.7174 31.4571 48.4313 31.5814 48.1639 31.83C47.9012 32.0786 47.7699 32.3718 47.7699 32.7095C47.7699 33.0754 47.8895 33.446 48.1287 33.8212C48.3726 34.1918 49.0247 34.8954 50.0848 35.9321L49.8455 36.1502L47.8473 34.1519C47.4298 33.7391 47.146 33.385 46.9959 33.0895C46.8458 32.7939 46.7707 32.5195 46.7707 32.2662C46.7707 31.8112 46.9185 31.4336 47.214 31.1334C47.5142 30.8332 47.8824 30.6831 48.3187 30.6831C49.0176 30.6831 49.7846 31.0818 50.6195 31.8792C51.3372 31.1803 52.0737 30.8308 52.8289 30.8308V29.1773H46.053V28.1782H56.0515Z" fill="#FEF5EB"/>
<path d="M27.2663 14.1782H27.3992V14.0454H27.2663V14.1782ZM27.2663 15.1773V15.3102H27.3992V15.1773H27.2663ZM25.1273 15.1773V15.0445H24.9945V15.1773H25.1273ZM25.1273 23.1845V23.3174H25.2602V23.1845H25.1273ZM24.8529 23.1845L24.7536 23.2727L24.7932 23.3174H24.8529V23.1845ZM24.0227 22.2487H23.8898V22.2992L23.9233 22.3369L24.0227 22.2487ZM24.0227 19.4131H24.1555V19.1248L23.9363 19.3122L24.0227 19.4131ZM21.4967 19.5046L21.5637 19.3899L21.4967 19.5046ZM20.4201 18.6321L20.3196 18.7189L20.3209 18.7204L20.4201 18.6321ZM19.9768 15.1773H20.1096V15.0445H19.9768V15.1773ZM18.9214 15.1773H18.7886V15.3102H18.9214V15.1773ZM18.9214 14.1782V14.0454H18.7886V14.1782H18.9214ZM24.0227 15.1773H24.1555V15.0445H24.0227V15.1773ZM21.0815 15.1773V15.0445H20.9487V15.1773H21.0815ZM21.4263 19.0824L21.3506 19.1916L21.3521 19.1926L21.4263 19.0824ZM24.0227 18.2311L24.1222 18.319L24.1555 18.2813V18.2311H24.0227ZM27.1335 14.1782V15.1773H27.3992V14.1782H27.1335ZM27.2663 15.0445H25.1273V15.3102H27.2663V15.0445ZM24.9945 15.1773V23.1845H25.2602V15.1773H24.9945ZM25.1273 23.0517H24.8529V23.3174H25.1273V23.0517ZM24.9523 23.0964L24.122 22.1606L23.9233 22.3369L24.7536 23.2727L24.9523 23.0964ZM24.1555 22.2487V19.4131H23.8898V22.2487H24.1555ZM23.9363 19.3122C23.6049 19.5957 23.2137 19.7377 22.7561 19.7377V20.0033C23.2743 20.0033 23.7274 19.8404 24.109 19.5141L23.9363 19.3122ZM22.7561 19.7377C22.3608 19.7377 21.9638 19.6237 21.5637 19.3899L21.4297 19.6193C21.8645 19.8733 22.3072 20.0033 22.7561 20.0033V19.7377ZM21.5637 19.3899C21.1574 19.1526 20.8097 18.8705 20.5194 18.5439L20.3209 18.7204C20.631 19.0693 21.0009 19.3688 21.4297 19.6193L21.5637 19.3899ZM20.5207 18.5453C20.2477 18.229 20.1096 17.8454 20.1096 17.3867H19.844C19.844 17.9037 20.0015 18.3504 20.3196 18.7189L20.5207 18.5453ZM20.1096 17.3867V15.1773H19.844V17.3867H20.1096ZM19.9768 15.0445H18.9214V15.3102H19.9768V15.0445ZM19.0542 15.1773V14.1782H18.7886V15.1773H19.0542ZM18.9214 14.311H27.2663V14.0454H18.9214V14.311ZM24.0227 15.0445H21.0815V15.3102H24.0227V15.0445ZM20.9487 15.1773V17.9215H21.2143V15.1773H20.9487ZM20.9487 17.9215C20.9487 18.2356 20.9779 18.5 21.0404 18.7104C21.1028 18.9204 21.2019 19.0884 21.3506 19.1916L21.502 18.9733C21.4208 18.917 21.3476 18.8118 21.295 18.6348C21.2426 18.4582 21.2143 18.2218 21.2143 17.9215H20.9487ZM21.3521 19.1926C21.6064 19.3639 21.9026 19.4474 22.2355 19.4474V19.1818C21.9491 19.1818 21.7059 19.1106 21.5005 18.9723L21.3521 19.1926ZM22.2355 19.4474C22.8474 19.4474 23.4767 19.0499 24.1222 18.319L23.9231 18.1431C23.2927 18.857 22.7305 19.1818 22.2355 19.1818V19.4474ZM24.1555 18.2311V15.1773H23.8898V18.2311H24.1555ZM31.8751 14.1782H32.0079V14.0454H31.8751V14.1782ZM31.8751 15.1773V15.3102H32.0079V15.1773H31.8751ZM29.7431 15.1773V15.0445H29.6103V15.1773H29.7431ZM29.7431 23.1634V23.2962H29.8759V23.1634H29.7431ZM29.4265 23.1634L29.3265 23.2509L29.3662 23.2962H29.4265V23.1634ZM28.6384 22.2628H28.5056V22.3127L28.5385 22.3503L28.6384 22.2628ZM28.6384 15.1773H28.7712V15.0445H28.6384V15.1773ZM27.0693 15.1773H26.9365V15.3102H27.0693V15.1773ZM27.0693 14.1782V14.0454H26.9365V14.1782H27.0693ZM28.7651 14.1782V14.311H28.9833L28.883 14.1172L28.7651 14.1782ZM29.0958 10.7797L29.0041 10.6836L29.0037 10.684L29.0958 10.7797ZM35.3932 12.4895V12.6223H35.6784L35.4948 12.404L35.3932 12.4895ZM34.9147 12.4895L34.8258 12.5882L34.8637 12.6223H34.9147V12.4895ZM29.919 11.4693L29.8187 11.3822L29.8186 11.3823L29.919 11.4693ZM29.7431 14.1782L29.625 14.239L29.6621 14.311H29.7431V14.1782ZM31.7423 14.1782V15.1773H32.0079V14.1782H31.7423ZM31.8751 15.0445H29.7431V15.3102H31.8751V15.0445ZM29.6103 15.1773V23.1634H29.8759V15.1773H29.6103ZM29.7431 23.0306H29.4265V23.2962H29.7431V23.0306ZM29.5264 23.076L28.7384 22.1753L28.5385 22.3503L29.3265 23.2509L29.5264 23.076ZM28.7712 22.2628V15.1773H28.5056V22.2628H28.7712ZM28.6384 15.0445H27.0693V15.3102H28.6384V15.0445ZM27.2021 15.1773V14.1782H26.9365V15.1773H27.2021ZM27.0693 14.311H28.7651V14.0454H27.0693V14.311ZM28.883 14.1172C28.6094 13.5882 28.4757 13.0813 28.4757 12.595H28.2101C28.2101 13.1314 28.3578 13.6799 28.6471 14.2392L28.883 14.1172ZM28.4757 12.595C28.4757 11.9023 28.7132 11.3323 29.1879 10.8754L29.0037 10.684C28.4745 11.1934 28.2101 11.8336 28.2101 12.595H28.4757ZM29.1874 10.8758C29.6659 10.4195 30.2834 10.1878 31.0518 10.1878V9.92216C30.2254 9.92216 29.5389 10.1736 29.0041 10.6836L29.1874 10.8758ZM31.0518 10.1878C32.5283 10.1878 33.9415 10.9698 35.2915 12.575L35.4948 12.404C34.1148 10.7632 32.6337 9.92216 31.0518 9.92216V10.1878ZM35.3932 12.3567H34.9147V12.6223H35.3932V12.3567ZM35.0036 12.3908C33.7654 11.2755 32.6251 10.6961 31.5866 10.6961V10.9618C32.5276 10.9618 33.606 11.4894 34.8258 12.5882L35.0036 12.3908ZM31.5866 10.6961C30.8197 10.6961 30.2218 10.9179 29.8187 11.3822L30.0193 11.5563C30.3573 11.1669 30.8712 10.9618 31.5866 10.9618V10.6961ZM29.8186 11.3823C29.4351 11.8249 29.2374 12.3099 29.2374 12.8343H29.503C29.503 12.383 29.6712 11.958 30.0194 11.5562L29.8186 11.3823ZM29.2374 12.8343C29.2374 13.2738 29.3697 13.7427 29.625 14.239L29.8612 14.1174C29.6193 13.6474 29.503 13.2203 29.503 12.8343H29.2374ZM29.7431 14.311H31.8751V14.0454H29.7431V14.311ZM40.403 14.1782H40.5358V14.0454H40.403V14.1782ZM40.403 15.1773V15.3102H40.5358V15.1773H40.403ZM38.2639 15.1773V15.0445H38.1311V15.1773H38.2639ZM38.2639 23.1634V23.2962H38.3968V23.1634H38.2639ZM37.9684 23.1634L37.8696 23.2522L37.9092 23.2962H37.9684V23.1634ZM37.1593 22.2628H37.0264V22.3137L37.0605 22.3516L37.1593 22.2628ZM37.1593 19.9268H37.2921V19.6746L37.0841 19.8173L37.1593 19.9268ZM33.3386 19.9197L33.2443 20.0133L33.2451 20.014L33.3386 19.9197ZM37.1593 17.4219L37.0653 17.5158L37.2921 17.7425V17.4219H37.1593ZM37.1593 15.1773H37.2921V15.0445H37.1593V15.1773ZM31.671 15.1773H31.5382V15.3102H31.671V15.1773ZM31.671 14.1782V14.0454H31.5382V14.1782H31.671ZM37.1593 18.2522L37.2902 18.2744L37.2921 18.2634V18.2522H37.1593ZM37.1593 17.9004H37.2921V17.8325L37.2372 17.7928L37.1593 17.9004ZM34.197 17.9144L34.2553 18.0338L34.256 18.0334L34.197 17.9144ZM33.5849 19.6875L33.492 19.7825L33.4932 19.7836L33.5849 19.6875ZM35.942 19.3076L36.0091 19.4222L36.0096 19.4219L35.942 19.3076ZM40.2701 14.1782V15.1773H40.5358V14.1782H40.2701ZM40.403 15.0445H38.2639V15.3102H40.403V15.0445ZM38.1311 15.1773V23.1634H38.3968V15.1773H38.1311ZM38.2639 23.0306H37.9684V23.2962H38.2639V23.0306ZM38.0672 23.0747L37.2581 22.174L37.0605 22.3516L37.8696 23.2522L38.0672 23.0747ZM37.2921 22.2628V19.9268H37.0264V22.2628H37.2921ZM37.0841 19.8173C36.2874 20.3639 35.6034 20.6242 35.0273 20.6242V20.8899C35.6802 20.8899 36.4175 20.5967 37.2344 20.0363L37.0841 19.8173ZM35.0273 20.6242C34.5116 20.6242 33.9804 20.3692 33.4321 19.8254L33.2451 20.014C33.8226 20.5867 34.4172 20.8899 35.0273 20.8899V20.6242ZM33.4329 19.8262C32.8855 19.2743 32.6341 18.7737 32.6341 18.3225H32.3685C32.3685 18.8751 32.6752 19.4394 33.2443 20.0133L33.4329 19.8262ZM32.6341 18.3225C32.6341 17.8304 32.9 17.4233 33.4803 17.1018L33.3516 16.8695C32.7124 17.2235 32.3685 17.7076 32.3685 18.3225H32.6341ZM33.4803 17.1018C34.0725 16.7739 34.6721 16.6118 35.2806 16.6118V16.3462C34.6226 16.3462 33.9791 16.5219 33.3516 16.8695L33.4803 17.1018ZM35.2806 16.6118C35.8566 16.6118 36.451 16.9015 37.0653 17.5158L37.2532 17.328C36.6104 16.6852 35.9524 16.3462 35.2806 16.3462V16.6118ZM37.2921 17.4219V15.1773H37.0264V17.4219H37.2921ZM37.1593 15.0445H31.671V15.3102H37.1593V15.0445ZM31.8038 15.1773V14.1782H31.5382V15.1773H31.8038ZM31.671 14.311H40.403V14.0454H31.671V14.311ZM37.2921 18.2522V17.9004H37.0264V18.2522H37.2921ZM37.2372 17.7928C36.8124 17.4852 36.3823 17.3243 35.949 17.3243V17.5899C36.3132 17.5899 36.6899 17.7244 37.0814 18.0079L37.2372 17.7928ZM35.949 17.3243C35.3707 17.3243 34.7665 17.4836 34.138 17.7955L34.256 18.0334C34.8565 17.7355 35.4203 17.5899 35.949 17.5899V17.3243ZM34.1387 17.7951C33.5162 18.0992 33.1425 18.4725 33.1425 18.9347H33.4081C33.4081 18.6369 33.6488 18.3301 34.2553 18.0338L34.1387 17.7951ZM33.1425 18.9347C33.1425 19.269 33.2589 19.5547 33.492 19.7825L33.6777 19.5926C33.498 19.417 33.4081 19.2007 33.4081 18.9347H33.1425ZM33.4932 19.7836C33.7234 20.0034 33.9975 20.1159 34.3096 20.1159V19.8503C34.0681 19.8503 33.8591 19.7657 33.6766 19.5915L33.4932 19.7836ZM34.3096 20.1159C34.4956 20.1159 34.7308 20.0515 35.0077 19.9369C35.2875 19.8212 35.6216 19.6491 36.0091 19.4222L35.8749 19.193C35.4931 19.4164 35.1705 19.5821 34.9061 19.6915C34.6389 19.8021 34.4426 19.8503 34.3096 19.8503V20.1159ZM36.0096 19.4219C36.3972 19.1926 36.6987 18.9863 36.9103 18.8028C37.0161 18.7111 37.1023 18.6226 37.1659 18.5374C37.2288 18.453 37.2748 18.3649 37.2902 18.2744L37.0283 18.2299C37.0226 18.2637 37.002 18.3128 36.953 18.3785C36.9046 18.4434 36.8333 18.518 36.7363 18.6021C36.5421 18.7705 36.256 18.9675 35.8744 19.1933L36.0096 19.4219ZM49.2404 14.1782H49.3732V14.0454H49.2404V14.1782ZM49.2404 15.1773V15.3102H49.3732V15.1773H49.2404ZM47.1085 15.1773V15.0445H46.9756V15.1773H47.1085ZM47.1085 23.1494V23.2822H47.2413V23.1494H47.1085ZM46.8129 23.1494L46.7148 23.2389L46.7543 23.2822H46.8129V23.1494ZM46.0038 22.2628H45.871V22.3143L45.9057 22.3523L46.0038 22.2628ZM46.0038 18.8784H46.1366V18.6567L45.9411 18.7613L46.0038 18.8784ZM42.5701 20.7148L42.4815 20.8138L42.5508 20.8758L42.6327 20.8319L42.5701 20.7148ZM41.768 19.9971L41.7062 19.8795L41.5368 19.9685L41.6794 20.0961L41.768 19.9971ZM45.7223 17.9215L45.7841 18.0391L45.9439 17.9552L45.8162 17.8275L45.7223 17.9215ZM41.5428 17.7526L41.4489 17.8465L41.5224 17.92L41.6115 17.8663L41.5428 17.7526ZM40.6985 16.9082L40.6376 16.7902L40.476 16.8736L40.6046 17.0022L40.6985 16.9082ZM44.4558 16.2961L44.3872 16.4098L44.3879 16.4103L44.4558 16.2961ZM46.0038 17.7174L45.9062 17.8075L46.1366 18.0568V17.7174H46.0038ZM46.0038 15.1773H46.1366V15.0445H46.0038V15.1773ZM40.1989 15.1773H40.0661V15.3102H40.1989V15.1773ZM40.1989 14.1782V14.0454H40.0661V14.1782H40.1989ZM49.1076 14.1782V15.1773H49.3732V14.1782H49.1076ZM49.2404 15.0445H47.1085V15.3102H49.2404V15.0445ZM46.9756 15.1773V23.1494H47.2413V15.1773H46.9756ZM47.1085 23.0166H46.8129V23.2822H47.1085V23.0166ZM46.911 23.0598L46.1019 22.1733L45.9057 22.3523L46.7148 23.2389L46.911 23.0598ZM46.1366 22.2628V18.8784H45.871V22.2628H46.1366ZM45.9411 18.7613L42.5075 20.5977L42.6327 20.8319L46.0664 18.9955L45.9411 18.7613ZM42.6587 20.6159L41.8565 19.8982L41.6794 20.0961L42.4815 20.8138L42.6587 20.6159ZM41.8297 20.1147L45.7841 18.0391L45.6606 17.8039L41.7062 19.8795L41.8297 20.1147ZM45.8162 17.8275C45.098 17.1093 44.4411 16.7191 43.8507 16.7191V16.9848C44.3297 16.9848 44.9206 17.3076 45.6284 18.0154L45.8162 17.8275ZM43.8507 16.7191C43.2673 16.7191 42.4707 17.0372 41.4742 17.6389L41.6115 17.8663C42.6038 17.2671 43.3459 16.9848 43.8507 16.9848V16.7191ZM41.6367 17.6587L40.7924 16.8143L40.6046 17.0022L41.4489 17.8465L41.6367 17.6587ZM40.7593 17.0263C41.9479 16.4133 42.8455 16.1193 43.4637 16.1193V15.8537C42.7779 15.8537 41.832 16.1742 40.6376 16.7902L40.7593 17.0263ZM43.4637 16.1193C43.7531 16.1193 44.0603 16.2128 44.3872 16.4098L44.5244 16.1823C44.1664 15.9666 43.8123 15.8537 43.4637 15.8537V16.1193ZM44.3879 16.4103C44.7165 16.6056 45.2209 17.0659 45.9062 17.8075L46.1013 17.6273C45.4169 16.8866 44.8893 16.3993 44.5237 16.1819L44.3879 16.4103ZM46.1366 17.7174V15.1773H45.871V17.7174H46.1366ZM46.0038 15.0445H40.1989V15.3102H46.0038V15.0445ZM40.3317 15.1773V14.1782H40.0661V15.1773H40.3317ZM40.1989 14.311H49.2404V14.0454H40.1989V14.311ZM20.8423 28.1782H20.9751V28.0454H20.8423V28.1782ZM20.8423 29.1773V29.3102H20.9751V29.1773H20.8423ZM18.7033 29.1773V29.0445H18.5705V29.1773H18.7033ZM18.7033 37.1845V37.3174H18.8361V37.1845H18.7033ZM18.5555 37.1845L18.4627 37.2795L18.5014 37.3174H18.5555V37.1845ZM17.5986 36.2487H17.4658V36.3046L17.5057 36.3437L17.5986 36.2487ZM17.5986 34.3841H17.7314V34.1378L17.5256 34.2732L17.5986 34.3841ZM13.6794 34.3771L13.5847 34.4702L13.5855 34.471L13.6794 34.3771ZM13.7709 31.2249L13.8396 31.3385L13.8402 31.3382L13.7709 31.2249ZM17.5986 31.7878L17.5103 31.887L17.7314 32.0838V31.7878H17.5986ZM17.5986 29.1773H17.7314V29.0445H17.5986V29.1773ZM12.1104 29.1773H11.9775V29.3102H12.1104V29.1773ZM12.1104 28.1782V28.0454H11.9775V28.1782H12.1104ZM14.8545 31.9918L14.7897 31.8759L14.6415 31.9587L14.7576 32.0826L14.8545 31.9918ZM16.5291 33.779L16.4322 33.8698L16.501 33.9433L16.5904 33.8969L16.5291 33.779ZM17.3242 33.2372L17.4181 33.3311L17.3242 33.2372ZM17.5986 32.2662H17.7314V32.2095L17.6905 32.1703L17.5986 32.2662ZM16.1843 33.9409L16.2437 34.0596L16.4024 33.9803L16.2816 33.8504L16.1843 33.9409ZM14.5097 32.1396L14.607 32.0492L14.5385 31.9755L14.449 32.0215L14.5097 32.1396ZM13.8694 34.0605L13.7783 34.1571L13.7792 34.158L13.8694 34.0605ZM20.7095 28.1782V29.1773H20.9751V28.1782H20.7095ZM20.8423 29.0445H18.7033V29.3102H20.8423V29.0445ZM18.5705 29.1773V37.1845H18.8361V29.1773H18.5705ZM18.7033 37.0517H18.5555V37.3174H18.7033V37.0517ZM18.6484 37.0896L17.6915 36.1538L17.5057 36.3437L18.4627 37.2795L18.6484 37.0896ZM17.7314 36.2487V34.3841H17.4658V36.2487H17.7314ZM17.5256 34.2732C16.6697 34.836 15.9717 35.1027 15.4244 35.1027V35.3683C16.0498 35.3683 16.8013 35.0674 17.6716 34.4951L17.5256 34.2732ZM15.4244 35.1027C14.88 35.1027 14.3301 34.84 13.7733 34.2832L13.5855 34.471C14.1733 35.0588 14.7868 35.3683 15.4244 35.3683V35.1027ZM13.7741 34.284C13.2207 33.7215 12.9609 33.1784 12.9609 32.6532H12.6952C12.6952 33.2726 13.0029 33.8788 13.5847 34.4702L13.7741 34.284ZM12.9609 32.6532C12.9609 32.1408 13.2379 31.7022 13.8396 31.3385L13.7022 31.1112C13.0467 31.5074 12.6952 32.0211 12.6952 32.6532H12.9609ZM13.8402 31.3382C14.4549 30.962 15.0196 30.7807 15.537 30.7807V30.5151C14.9567 30.5151 14.3441 30.7184 13.7016 31.1116L13.8402 31.3382ZM15.537 30.7807C15.7663 30.7807 16.0455 30.8649 16.3786 31.0491C16.7107 31.2327 17.0878 31.5109 17.5103 31.887L17.6869 31.6886C17.2557 31.3047 16.8623 31.013 16.5072 30.8166C16.1531 30.6209 15.8284 30.5151 15.537 30.5151V30.7807ZM17.7314 31.7878V29.1773H17.4658V31.7878H17.7314ZM17.5986 29.0445H12.1104V29.3102H17.5986V29.0445ZM12.2432 29.1773V28.1782H11.9775V29.1773H12.2432ZM12.1104 28.311H20.8423V28.0454H12.1104V28.311ZM14.7576 32.0826L16.4322 33.8698L16.626 33.6882L14.9514 31.901L14.7576 32.0826ZM16.5904 33.8969C16.9482 33.7108 17.2264 33.5229 17.4181 33.3311L17.2303 33.1433C17.0655 33.3081 16.8137 33.4814 16.4678 33.6612L16.5904 33.8969ZM17.4181 33.3311C17.6396 33.1097 17.7314 32.7402 17.7314 32.2662H17.4658C17.4658 32.721 17.3747 32.9989 17.2303 33.1433L17.4181 33.3311ZM17.6905 32.1703C17.2279 31.7272 16.7369 31.4931 16.2195 31.4931V31.7588C16.6496 31.7588 17.0781 31.9515 17.5067 32.3621L17.6905 32.1703ZM16.2195 31.4931C15.7218 31.4931 15.2446 31.6215 14.7897 31.8759L14.9193 32.1077C15.3369 31.8743 15.7697 31.7588 16.2195 31.7588V31.4931ZM16.2816 33.8504L14.607 32.0492L14.4124 32.23L16.087 34.0313L16.2816 33.8504ZM14.449 32.0215C13.7633 32.3738 13.3637 32.7994 13.3637 33.3146H13.6293C13.6293 32.9574 13.9051 32.5996 14.5704 32.2577L14.449 32.0215ZM13.3637 33.3146C13.3637 33.624 13.5115 33.9054 13.7783 34.1571L13.9605 33.9639C13.7301 33.7465 13.6293 33.5306 13.6293 33.3146H13.3637ZM13.7792 34.158C14.0512 34.4094 14.3691 34.5381 14.7278 34.5381V34.2724C14.4392 34.2724 14.1849 34.1713 13.9596 33.9629L13.7792 34.158ZM14.7278 34.5381C15.1119 34.5381 15.6206 34.3712 16.2437 34.0596L16.1249 33.8221C15.5097 34.1297 15.0473 34.2724 14.7278 34.2724V34.5381ZM25.444 28.1782H25.5768V28.0454H25.444V28.1782ZM25.444 29.1773V29.3102H25.5768V29.1773H25.444ZM23.312 29.1773V29.0445H23.1792V29.1773H23.312ZM23.312 37.1845V37.3174H23.4448V37.1845H23.312ZM23.0517 37.1845L22.9511 37.2713L22.9909 37.3174H23.0517V37.1845ZM22.2073 36.2065H22.0745V36.2559L22.1068 36.2933L22.2073 36.2065ZM22.2073 29.1773H22.3401V29.0445H22.2073V29.1773ZM20.6382 29.1773H20.5054V29.3102H20.6382V29.1773ZM20.6382 28.1782V28.0454H20.5054V28.1782H20.6382ZM25.3112 28.1782V29.1773H25.5768V28.1782H25.3112ZM25.444 29.0445H23.312V29.3102H25.444V29.0445ZM23.1792 29.1773V37.1845H23.4448V29.1773H23.1792ZM23.312 37.0517H23.0517V37.3174H23.312V37.0517ZM23.1522 37.0978L22.3078 36.1197L22.1068 36.2933L22.9511 37.2713L23.1522 37.0978ZM22.3401 36.2065V29.1773H22.0745V36.2065H22.3401ZM22.2073 29.0445H20.6382V29.3102H22.2073V29.0445ZM20.7711 29.1773V28.1782H20.5054V29.1773H20.7711ZM20.6382 28.311H25.444V28.0454H20.6382V28.311ZM33.1205 28.1782H33.2533V28.0454H33.1205V28.1782ZM33.1205 29.1773V29.3102H33.2533V29.1773H33.1205ZM30.3975 29.1773V29.0445H30.2523L30.2652 29.1891L30.3975 29.1773ZM30.5663 31.0701V31.2029H30.7115L30.6986 31.0583L30.5663 31.0701ZM27.2452 32.5336L27.1418 32.6169L27.143 32.6184L27.2452 32.5336ZM28.6877 32.6392L28.7177 32.7685L28.7191 32.7682L28.6877 32.6392ZM30.89 33.1528L30.7918 33.2422L30.7927 33.2432L30.89 33.1528ZM29.9964 36.2839L29.929 36.1695L29.7812 36.2565L29.9025 36.3778L29.9964 36.2839ZM32.2972 38.5847V38.7176H32.6179L32.3911 38.4908L32.2972 38.5847ZM31.8328 38.5847L31.7397 38.6794L31.7785 38.7176H31.8328V38.5847ZM29.6446 36.4317L29.7377 36.337L29.6772 36.2774L29.5978 36.3074L29.6446 36.4317ZM27.3297 34.7359L27.4253 34.8281L27.4269 34.8264L27.3297 34.7359ZM29.1661 35.4747L29.0676 35.5638L29.1102 35.611L29.1738 35.6073L29.1661 35.4747ZM30.3904 34.9541L30.2992 34.8575L30.2986 34.8581L30.3904 34.9541ZM30.6719 33.385L30.5751 33.4759L30.5765 33.4774L30.6719 33.385ZM29.3491 33.3146L29.3144 33.1864L29.3137 33.1866L29.3491 33.3146ZM26.9779 32.7588L26.8802 32.8488L26.8807 32.8493L26.9779 32.7588ZM29.7009 30.3735V30.5063H29.8337V30.3735H29.7009ZM29.7009 29.1773H29.8337V29.0445H29.7009V29.1773ZM25.2399 29.1773H25.1071V29.3102H25.2399V29.1773ZM25.2399 28.1782V28.0454H25.1071V28.1782H25.2399ZM32.9877 28.1782V29.1773H33.2533V28.1782H32.9877ZM33.1205 29.0445H30.3975V29.3102H33.1205V29.0445ZM30.2652 29.1891L30.434 31.0819L30.6986 31.0583L30.5297 29.1655L30.2652 29.1891ZM30.5663 30.9373H28.1318V31.2029H30.5663V30.9373ZM28.1318 30.9373C27.7468 30.9373 27.4342 31.0062 27.2149 31.1648C26.9877 31.3291 26.8802 31.5753 26.8802 31.8792H27.1459C27.1459 31.6438 27.2249 31.4853 27.3706 31.38C27.5242 31.2689 27.7709 31.2029 28.1318 31.2029V30.9373ZM26.8802 31.8792C26.8802 32.1539 26.9682 32.4013 27.1418 32.6169L27.3487 32.4503C27.2126 32.2813 27.1459 32.0925 27.1459 31.8792H26.8802ZM27.143 32.6184C27.3211 32.8332 27.5365 32.9549 27.787 32.9549V32.6893C27.6341 32.6893 27.4883 32.6187 27.3475 32.4488L27.143 32.6184ZM27.787 32.9549C27.8178 32.9549 27.8604 32.9493 27.9068 32.9418C27.9562 32.9337 28.019 32.9219 28.0949 32.9065C28.2468 32.8757 28.4546 32.8296 28.7177 32.7685L28.6576 32.5098C28.3954 32.5707 28.1904 32.6161 28.042 32.6462C27.9678 32.6613 27.9087 32.6723 27.8642 32.6796C27.8169 32.6873 27.7938 32.6893 27.787 32.6893V32.9549ZM28.7191 32.7682C29.2402 32.6414 29.5943 32.582 29.7923 32.582V32.3164C29.5588 32.3164 29.1765 32.3836 28.6563 32.5101L28.7191 32.7682ZM29.7923 32.582C29.9107 32.582 30.0535 32.6278 30.2238 32.7369C30.3935 32.8457 30.5829 33.0127 30.7918 33.2422L30.9882 33.0634C30.7702 32.8238 30.5632 32.639 30.3671 32.5133C30.1714 32.3878 29.9788 32.3164 29.7923 32.3164V32.582ZM30.7927 33.2432C31.2164 33.6992 31.4045 34.0852 31.4045 34.4052H31.6701C31.6701 33.9842 31.4267 33.5352 30.9873 33.0624L30.7927 33.2432ZM31.4045 34.4052C31.4045 34.9765 30.9494 35.5684 29.929 36.1695L30.0638 36.3983C31.098 35.7892 31.6701 35.1286 31.6701 34.4052H31.4045ZM29.9025 36.3778L32.2033 38.6787L32.3911 38.4908L30.0903 36.19L29.9025 36.3778ZM32.2972 38.4519H31.8328V38.7176H32.2972V38.4519ZM31.926 38.4901L29.7377 36.337L29.5514 36.5263L31.7397 38.6794L31.926 38.4901ZM29.5978 36.3074C29.2863 36.4247 28.995 36.4818 28.7228 36.4818V36.7474C29.0324 36.7474 29.3555 36.6825 29.6914 36.556L29.5978 36.3074ZM28.7228 36.4818C28.2983 36.4818 27.9547 36.3495 27.6816 36.0893L27.4984 36.2815C27.8258 36.5936 28.2373 36.7474 28.7228 36.7474V36.4818ZM27.6816 36.0893C27.4013 35.8221 27.2725 35.543 27.2725 35.2496H27.0069C27.0069 35.6317 27.1783 35.9765 27.4984 36.2815L27.6816 36.0893ZM27.2725 35.2496C27.2725 35.0671 27.3262 34.9308 27.4253 34.8281L27.2341 34.6438C27.0798 34.8037 27.0069 35.0099 27.0069 35.2496H27.2725ZM27.4269 34.8264C27.5296 34.7161 27.6474 34.6647 27.787 34.6647V34.3991C27.5702 34.3991 27.383 34.4837 27.2325 34.6454L27.4269 34.8264ZM27.787 34.6647C27.9247 34.6647 28.1011 34.7271 28.3207 34.8772C28.5387 35.0263 28.7875 35.2537 29.0676 35.5638L29.2647 35.3857C28.9771 35.0673 28.7124 34.8232 28.4706 34.658C28.2305 34.4938 28.0011 34.3991 27.787 34.3991V34.6647ZM29.1738 35.6073C29.6868 35.5774 30.1252 35.3919 30.4823 35.05L30.2986 34.8581C29.9895 35.1541 29.6117 35.3158 29.1584 35.3422L29.1738 35.6073ZM30.4816 35.0506C30.8361 34.7158 31.0298 34.3525 31.0298 33.962H30.7642C30.7642 34.2562 30.6202 34.5544 30.2992 34.8575L30.4816 35.0506ZM31.0298 33.962C31.0298 33.7001 30.943 33.4739 30.7672 33.2925L30.5765 33.4774C30.7009 33.6057 30.7642 33.7641 30.7642 33.962H31.0298ZM30.7687 33.2941C30.5954 33.1096 30.3689 33.02 30.1019 33.02V33.2856C30.3041 33.2856 30.4575 33.3508 30.5751 33.4759L30.7687 33.2941ZM30.1019 33.02C30.0346 33.02 29.9335 33.0365 29.8084 33.0634C29.6797 33.0911 29.5148 33.1322 29.3144 33.1864L29.3838 33.4428C29.582 33.3892 29.742 33.3494 29.8642 33.3231C29.9901 33.296 30.0661 33.2856 30.1019 33.2856V33.02ZM29.3137 33.1866C28.9092 33.2982 28.604 33.3507 28.3921 33.3507V33.6163C28.64 33.6163 28.9727 33.5562 29.3844 33.4427L29.3137 33.1866ZM28.3921 33.3507C27.9478 33.3507 27.5091 33.134 27.075 32.6682L26.8807 32.8493C27.3472 33.3498 27.8514 33.6163 28.3921 33.6163V33.3507ZM27.0755 32.6687C26.6468 32.2039 26.4422 31.7281 26.4422 31.2389H26.1766C26.1766 31.8099 26.4177 32.3473 26.8802 32.8488L27.0755 32.6687ZM26.4422 31.2389C26.4422 30.9905 26.5342 30.8184 26.7143 30.7012C26.9043 30.5775 27.2062 30.5063 27.6393 30.5063V30.2407C27.1858 30.2407 26.8228 30.3137 26.5694 30.4785C26.3063 30.6498 26.1766 30.9104 26.1766 31.2389H26.4422ZM27.6393 30.5063H29.7009V30.2407H27.6393V30.5063ZM29.8337 30.3735V29.1773H29.5681V30.3735H29.8337ZM29.7009 29.0445H25.2399V29.3102H29.7009V29.0445ZM25.3727 29.1773V28.1782H25.1071V29.1773H25.3727ZM25.2399 28.311H33.1205V28.0454H25.2399V28.311ZM37.7292 28.1782H37.862V28.0454H37.7292V28.1782ZM37.7292 29.1773V29.3102H37.862V29.1773H37.7292ZM35.5972 29.1773V29.0445H35.4644V29.1773H35.5972ZM35.5972 37.1634V37.2962H35.73V37.1634H35.5972ZM35.2806 37.1634L35.1806 37.2509L35.2203 37.2962H35.2806V37.1634ZM34.4925 36.2628H34.3597V36.3127L34.3926 36.3503L34.4925 36.2628ZM34.4925 29.1773H34.6253V29.0445H34.4925V29.1773ZM32.9235 29.1773H32.7906V29.3102H32.9235V29.1773ZM32.9235 28.1782V28.0454H32.7906V28.1782H32.9235ZM34.6192 28.1782V28.311H34.8374L34.7372 28.1172L34.6192 28.1782ZM34.9499 24.7797L34.8582 24.6836L34.8578 24.684L34.9499 24.7797ZM41.2473 26.4895V26.6223H41.5325L41.3489 26.404L41.2473 26.4895ZM40.7688 26.4895L40.6799 26.5882L40.7178 26.6223H40.7688V26.4895ZM35.7731 25.4693L35.6728 25.3822L35.6728 25.3823L35.7731 25.4693ZM35.5972 28.1782L35.4791 28.239L35.5162 28.311H35.5972V28.1782ZM37.5964 28.1782V29.1773H37.862V28.1782H37.5964ZM37.7292 29.0445H35.5972V29.3102H37.7292V29.0445ZM35.4644 29.1773V37.1634H35.73V29.1773H35.4644ZM35.5972 37.0306H35.2806V37.2962H35.5972V37.0306ZM35.3805 37.076L34.5925 36.1753L34.3926 36.3503L35.1806 37.2509L35.3805 37.076ZM34.6253 36.2628V29.1773H34.3597V36.2628H34.6253ZM34.4925 29.0445H32.9235V29.3102H34.4925V29.0445ZM33.0563 29.1773V28.1782H32.7906V29.1773H33.0563ZM32.9235 28.311H34.6192V28.0454H32.9235V28.311ZM34.7372 28.1172C34.4635 27.5882 34.3298 27.0813 34.3298 26.595H34.0642C34.0642 27.1314 34.2119 27.6799 34.5012 28.2392L34.7372 28.1172ZM34.3298 26.595C34.3298 25.9023 34.5673 25.3323 35.042 24.8754L34.8578 24.684C34.3286 25.1934 34.0642 25.8336 34.0642 26.595H34.3298ZM35.0415 24.8758C35.52 24.4195 36.1375 24.1878 36.906 24.1878V23.9222C36.0795 23.9222 35.393 24.1736 34.8582 24.6836L35.0415 24.8758ZM36.906 24.1878C38.3824 24.1878 39.7956 24.9698 41.1457 26.575L41.3489 26.404C39.9689 24.7632 38.4879 23.9222 36.906 23.9222V24.1878ZM41.2473 26.3567H40.7688V26.6223H41.2473V26.3567ZM40.8577 26.3908C39.6196 25.2755 38.4792 24.6961 37.4407 24.6961V24.9618C38.3817 24.9618 39.4601 25.4894 40.6799 26.5882L40.8577 26.3908ZM37.4407 24.6961C36.6738 24.6961 36.0759 24.9179 35.6728 25.3822L35.8734 25.5563C36.2115 25.1669 36.7253 24.9618 37.4407 24.9618V24.6961ZM35.6728 25.3823C35.2892 25.8249 35.0915 26.3099 35.0915 26.8343H35.3571C35.3571 26.383 35.5253 25.958 35.8735 25.5562L35.6728 25.3823ZM35.0915 26.8343C35.0915 27.2738 35.2238 27.7427 35.4791 28.239L35.7153 28.1174C35.4734 27.6474 35.3571 27.2203 35.3571 26.8343H35.0915ZM35.5972 28.311H37.7292V28.0454H35.5972V28.311ZM46.2571 28.1782H46.3899V28.0454H46.2571V28.1782ZM46.2571 29.1773V29.3102H46.3899V29.1773H46.2571ZM44.1181 29.1773V29.0445H43.9853V29.1773H44.1181ZM44.1181 37.1845V37.3174H44.2509V37.1845H44.1181ZM43.9703 37.1845L43.8774 37.2795L43.9162 37.3174H43.9703V37.1845ZM43.0134 36.2487H42.8806V36.3046L42.9205 36.3437L43.0134 36.2487ZM43.0134 34.3841H43.1462V34.1378L42.9404 34.2732L43.0134 34.3841ZM39.0942 34.3771L38.9995 34.4702L39.0003 34.471L39.0942 34.3771ZM39.1857 31.2249L39.2544 31.3385L39.255 31.3382L39.1857 31.2249ZM43.0134 31.7878L42.9251 31.887L43.1462 32.0838V31.7878H43.0134ZM43.0134 29.1773H43.1462V29.0445H43.0134V29.1773ZM37.5251 29.1773H37.3923V29.3102H37.5251V29.1773ZM37.5251 28.1782V28.0454H37.3923V28.1782H37.5251ZM40.2693 31.9918L40.2044 31.8759L40.0563 31.9587L40.1723 32.0826L40.2693 31.9918ZM41.9439 33.779L41.847 33.8698L41.9158 33.9433L42.0052 33.8969L41.9439 33.779ZM42.739 33.2372L42.8329 33.3311L42.739 33.2372ZM43.0134 32.2662H43.1462V32.2095L43.1053 32.1703L43.0134 32.2662ZM41.5991 33.9409L41.6585 34.0596L41.8171 33.9803L41.6964 33.8504L41.5991 33.9409ZM39.9245 32.1396L40.0218 32.0492L39.9533 31.9755L39.8638 32.0215L39.9245 32.1396ZM39.2842 34.0605L39.1931 34.1571L39.194 34.158L39.2842 34.0605ZM46.1243 28.1782V29.1773H46.3899V28.1782H46.1243ZM46.2571 29.0445H44.1181V29.3102H46.2571V29.0445ZM43.9853 29.1773V37.1845H44.2509V29.1773H43.9853ZM44.1181 37.0517H43.9703V37.3174H44.1181V37.0517ZM44.0632 37.0896L43.1062 36.1538L42.9205 36.3437L43.8774 37.2795L44.0632 37.0896ZM43.1462 36.2487V34.3841H42.8806V36.2487H43.1462ZM42.9404 34.2732C42.0845 34.836 41.3865 35.1027 40.8392 35.1027V35.3683C41.4646 35.3683 42.216 35.0674 43.0864 34.4951L42.9404 34.2732ZM40.8392 35.1027C40.2948 35.1027 39.7449 34.84 39.1881 34.2832L39.0003 34.471C39.5881 35.0588 40.2015 35.3683 40.8392 35.3683V35.1027ZM39.1889 34.284C38.6355 33.7215 38.3756 33.1784 38.3756 32.6532H38.11C38.11 33.2726 38.4177 33.8788 38.9995 34.4702L39.1889 34.284ZM38.3756 32.6532C38.3756 32.1408 38.6527 31.7022 39.2544 31.3385L39.117 31.1112C38.4615 31.5074 38.11 32.0211 38.11 32.6532H38.3756ZM39.255 31.3382C39.8696 30.962 40.4344 30.7807 40.9518 30.7807V30.5151C40.3715 30.5151 39.7589 30.7184 39.1164 31.1116L39.255 31.3382ZM40.9518 30.7807C41.1811 30.7807 41.4603 30.8649 41.7934 31.0491C42.1255 31.2327 42.5026 31.5109 42.9251 31.887L43.1017 31.6886C42.6705 31.3047 42.2771 31.013 41.922 30.8166C41.5679 30.6209 41.2432 30.5151 40.9518 30.5151V30.7807ZM43.1462 31.7878V29.1773H42.8806V31.7878H43.1462ZM43.0134 29.0445H37.5251V29.3102H43.0134V29.0445ZM37.658 29.1773V28.1782H37.3923V29.1773H37.658ZM37.5251 28.311H46.2571V28.0454H37.5251V28.311ZM40.1723 32.0826L41.847 33.8698L42.0408 33.6882L40.3662 31.901L40.1723 32.0826ZM42.0052 33.8969C42.3629 33.7108 42.6412 33.5229 42.8329 33.3311L42.6451 33.1433C42.4803 33.3081 42.2284 33.4814 41.8826 33.6612L42.0052 33.8969ZM42.8329 33.3311C43.0543 33.1097 43.1462 32.7402 43.1462 32.2662H42.8806C42.8806 32.721 42.7895 32.9989 42.6451 33.1433L42.8329 33.3311ZM43.1053 32.1703C42.6426 31.7272 42.1517 31.4931 41.6343 31.4931V31.7588C42.0644 31.7588 42.4929 31.9515 42.9215 32.3621L43.1053 32.1703ZM41.6343 31.4931C41.1366 31.4931 40.6594 31.6215 40.2044 31.8759L40.3341 32.1077C40.7516 31.8743 41.1845 31.7588 41.6343 31.7588V31.4931ZM41.6964 33.8504L40.0218 32.0492L39.8272 32.23L41.5018 34.0313L41.6964 33.8504ZM39.8638 32.0215C39.1781 32.3738 38.7785 32.7994 38.7785 33.3146H39.0441C39.0441 32.9574 39.3199 32.5996 39.9852 32.2577L39.8638 32.0215ZM38.7785 33.3146C38.7785 33.624 38.9263 33.9054 39.1931 34.1571L39.3753 33.9639C39.1449 33.7465 39.0441 33.5306 39.0441 33.3146H38.7785ZM39.194 34.158C39.4659 34.4094 39.7839 34.5381 40.1426 34.5381V34.2724C39.854 34.2724 39.5997 34.1713 39.3744 33.9629L39.194 34.158ZM40.1426 34.5381C40.5267 34.5381 41.0354 34.3712 41.6585 34.0596L41.5397 33.8221C40.9244 34.1297 40.4621 34.2724 40.1426 34.2724V34.5381ZM56.0515 28.1782H56.1843V28.0454H56.0515V28.1782ZM56.0515 29.1773V29.3102H56.1843V29.1773H56.0515ZM53.9195 29.1773V29.0445H53.7867V29.1773H53.9195ZM53.9195 37.1494V37.2822H54.0523V37.1494H53.9195ZM53.624 37.1494L53.5244 37.2373L53.5641 37.2822H53.624V37.1494ZM52.8289 36.2487H52.6961V36.299L52.7293 36.3366L52.8289 36.2487ZM52.8289 31.5837H52.9617V31.4168L52.799 31.4543L52.8289 31.5837ZM50.5703 33.7438L50.4768 33.8382L50.5839 33.9443L50.6757 33.8247L50.5703 33.7438ZM49.7541 32.9347L49.6436 32.861L49.5829 32.952L49.6606 33.029L49.7541 32.9347ZM50.4014 32.1185L50.5019 32.2054L50.5848 32.1095L50.4929 32.0222L50.4014 32.1185ZM48.1639 31.83L48.0734 31.7327L48.0726 31.7335L48.1639 31.83ZM48.1287 33.8212L48.0167 33.8926L48.0178 33.8943L48.1287 33.8212ZM50.0848 35.9321L50.1743 36.0302L50.2782 35.9355L50.1776 35.8371L50.0848 35.9321ZM49.8455 36.1502L49.7516 36.2441L49.8413 36.3338L49.935 36.2484L49.8455 36.1502ZM47.8473 34.1519L47.9412 34.058L47.9406 34.0575L47.8473 34.1519ZM46.9959 33.0895L46.8775 33.1496L46.9959 33.0895ZM47.214 31.1334L47.1201 31.0395L47.1194 31.0402L47.214 31.1334ZM50.6195 31.8792L50.5278 31.9753L50.6204 32.0638L50.7122 31.9744L50.6195 31.8792ZM52.8289 30.8308V30.9637H52.9617V30.8308H52.8289ZM52.8289 29.1773H52.9617V29.0445H52.8289V29.1773ZM46.053 29.1773H45.9202V29.3102H46.053V29.1773ZM46.053 28.1782V28.0454H45.9202V28.1782H46.053ZM55.9187 28.1782V29.1773H56.1843V28.1782H55.9187ZM56.0515 29.0445H53.9195V29.3102H56.0515V29.0445ZM53.7867 29.1773V37.1494H54.0523V29.1773H53.7867ZM53.9195 37.0166H53.624V37.2822H53.9195V37.0166ZM53.7236 37.0615L52.9285 36.1608L52.7293 36.3366L53.5244 37.2373L53.7236 37.0615ZM52.9617 36.2487V31.5837H52.6961V36.2487H52.9617ZM52.799 31.4543C52.5177 31.5192 52.1853 31.75 51.8066 32.1122C51.4232 32.4789 50.9758 32.9967 50.4649 33.663L50.6757 33.8247C51.1826 33.1635 51.6207 32.6575 51.9902 32.3042C52.3643 31.9463 52.6523 31.7608 52.8588 31.7131L52.799 31.4543ZM50.6638 33.6495L49.8476 32.8404L49.6606 33.029L50.4768 33.8382L50.6638 33.6495ZM49.8646 33.0083C49.9912 32.8184 50.2026 32.5514 50.5019 32.2054L50.3009 32.0316C49.9998 32.3798 49.7796 32.6569 49.6436 32.861L49.8646 33.0083ZM50.4929 32.0222C50.0139 31.5674 49.5231 31.3243 49.0223 31.3243V31.5899C49.4315 31.5899 49.8601 31.7877 50.31 32.2148L50.4929 32.0222ZM49.0223 31.3243C48.6774 31.3243 48.3603 31.466 48.0735 31.7327L48.2543 31.9273C48.5023 31.6967 48.7574 31.5899 49.0223 31.5899V31.3243ZM48.0726 31.7335C47.7855 32.0052 47.637 32.3325 47.637 32.7095H47.9027C47.9027 32.4111 48.0169 32.152 48.2552 31.9264L48.0726 31.7335ZM47.637 32.7095C47.637 33.1057 47.7668 33.5007 48.0167 33.8926L48.2407 33.7498C48.0121 33.3913 47.9027 33.0451 47.9027 32.7095H47.637ZM48.0178 33.8943C48.2711 34.2791 48.9344 34.9929 49.9919 36.0271L50.1776 35.8371C49.1149 34.798 48.4742 34.1046 48.2396 33.7482L48.0178 33.8943ZM49.9953 35.834L49.7561 36.0521L49.935 36.2484L50.1743 36.0302L49.9953 35.834ZM49.9395 36.0563L47.9412 34.058L47.7533 34.2458L49.7516 36.2441L49.9395 36.0563ZM47.9406 34.0575C47.5267 33.6483 47.2548 33.3059 47.1143 33.0293L46.8775 33.1496C47.0372 33.464 47.3328 33.83 47.7539 34.2464L47.9406 34.0575ZM47.1143 33.0293C46.9708 32.7469 46.9035 32.4932 46.9035 32.2662H46.6379C46.6379 32.5459 46.7207 32.841 46.8775 33.1496L47.1143 33.0293ZM46.9035 32.2662C46.9035 31.843 47.0397 31.4998 47.3087 31.2266L47.1194 31.0402C46.7973 31.3674 46.6379 31.7794 46.6379 32.2662H46.9035ZM47.3079 31.2273C47.5825 30.9528 47.9166 30.8159 48.3187 30.8159V30.5503C47.8483 30.5503 47.446 30.7136 47.1201 31.0395L47.3079 31.2273ZM48.3187 30.8159C48.967 30.8159 49.7024 31.1869 50.5278 31.9753L50.7113 31.7832C49.8668 30.9767 49.0682 30.5503 48.3187 30.5503V30.8159ZM50.7122 31.9744C51.4134 31.2915 52.1184 30.9637 52.8289 30.9637V30.698C52.0289 30.698 51.261 31.0691 50.5269 31.7841L50.7122 31.9744ZM52.9617 30.8308V29.1773H52.6961V30.8308H52.9617ZM52.8289 29.0445H46.053V29.3102H52.8289V29.0445ZM46.1858 29.1773V28.1782H45.9202V29.1773H46.1858ZM46.053 28.311H56.0515V28.0454H46.053V28.311Z" fill="#FEF5EB" mask="url(#path-5-outside-1_23668_7483)"/>
</g>
</g>
<defs>
<linearGradient id="paint0_linear_23668_7483" x1="34" y1="-1.04141e-05" x2="34" y2="68" gradientUnits="userSpaceOnUse">
<stop stop-color="#C93D34"/>
<stop offset="1" stop-color="#7A2629"/>
</linearGradient>
<linearGradient id="paint1_linear_23668_7483" x1="34" y1="-1.04141e-05" x2="34" y2="68" gradientUnits="userSpaceOnUse">
<stop stop-color="#C93D34"/>
<stop offset="1" stop-color="#7A2629"/>
</linearGradient>
<clipPath id="clip0_23668_7483">
<rect width="68" height="68" fill="white"/>
</clipPath>
</defs>
</svg>
