<svg width="68" height="68" viewBox="0 0 68 68" fill="none" xmlns="http://www.w3.org/2000/svg">
<g clip-path="url(#clip0_23632_22669)">
<mask id="mask0_23632_22669" style="mask-type:alpha" maskUnits="userSpaceOnUse" x="0" y="0" width="68" height="68">
<path fill-rule="evenodd" clip-rule="evenodd" d="M47.0333 0H20.9667C13.5811 0 8.89667 0.0377779 4.45778 4.45778C0.018889 8.89667 0 13.6 0 20.9667V47.0333C0 54.4189 0.0377779 59.1033 4.45778 63.5422C8.89667 67.9811 13.6 68 20.9667 68H47.0333C54.4189 68 59.1033 67.9811 63.5422 63.5422C67.9622 59.1033 68 54.4 68 47.0333V20.9667C68 13.5811 67.9622 8.89667 63.5422 4.45778C59.1033 0.018889 54.4 0 47.0333 0Z" fill="url(#paint0_linear_23632_22669)"/>
</mask>
<g mask="url(#mask0_23632_22669)">
<rect width="68" height="68" fill="url(#paint1_linear_23632_22669)"/>
<path fill-rule="evenodd" clip-rule="evenodd" d="M15.6212 64.3735C26.4256 64.3735 45.6357 64.3735 45.6357 64.3735C52.5868 64.3735 57.0823 64.6379 61.2379 60.4446C64.8079 56.8746 64.5057 50.8679 64.7323 46.1079C60.709 52.1524 53.3234 51.9446 47.619 51.9446C47.619 51.9446 20.929 51.9446 10.9556 51.9446C0.982316 51.9635 4.81676 64.3735 15.6212 64.3735Z" fill="#FEF5EB"/>
<path d="M12.4854 53.5312H23.1387V61.5213L17.812 58.8579L12.4854 61.5213V53.5312Z" fill="#F19C33"/>
<mask id="path-5-outside-1_23632_22669" maskUnits="userSpaceOnUse" x="8.10156" y="12.2266" width="52" height="28" fill="black">
<rect fill="white" x="8.10156" y="12.2266" width="52" height="28"/>
<path d="M15.5293 12.8657C15.952 12.8657 16.2835 12.9137 16.5236 13.0098C16.7734 13.0962 17.028 13.2259 17.2874 13.3988C17.4987 13.5333 17.662 13.6006 17.7773 13.6006C17.8638 13.6006 17.931 13.5525 17.979 13.4565C18.0271 13.3508 18.0655 13.1875 18.0943 12.9665H18.4258C18.3777 13.5237 18.3537 14.5036 18.3537 15.9062H18.0223C17.9646 15.1281 17.7389 14.4748 17.345 13.9464C16.9607 13.4084 16.3987 13.1395 15.659 13.1395C15.1402 13.1395 14.7175 13.298 14.3909 13.615C14.0643 13.9224 13.901 14.3211 13.901 14.811C13.901 15.1761 13.9826 15.4931 14.1459 15.7621C14.3189 16.0311 14.535 16.2617 14.7944 16.4538C15.0538 16.6459 15.4236 16.8909 15.904 17.1887L16.3219 17.4481C16.9271 17.8228 17.4026 18.1542 17.7485 18.4424C18.1039 18.721 18.3873 19.0428 18.5987 19.4079C18.81 19.7729 18.9157 20.2004 18.9157 20.6904C18.9157 21.5646 18.6275 22.2419 18.0511 22.7222C17.4747 23.1929 16.7446 23.4283 15.8608 23.4283C15.3996 23.4283 15.0202 23.3803 14.7223 23.2842C14.4341 23.1881 14.1556 23.0584 13.8866 22.8951C13.6752 22.7606 13.5119 22.6934 13.3966 22.6934C13.3102 22.6934 13.2429 22.7462 13.1949 22.8519C13.1468 22.948 13.1084 23.1065 13.0796 23.3274H12.7482C12.7866 22.7991 12.8058 21.6462 12.8058 19.869H13.1372C13.2045 20.8393 13.4446 21.627 13.8577 22.2323C14.2708 22.8375 14.9049 23.1401 15.7599 23.1401C16.2786 23.1401 16.7206 22.9816 17.0856 22.6646C17.4507 22.3379 17.6332 21.8576 17.6332 21.2236C17.6332 20.6856 17.4507 20.2292 17.0856 19.8546C16.7302 19.4799 16.1634 19.0572 15.3852 18.5865C14.8184 18.2406 14.3573 17.9332 14.0018 17.6642C13.656 17.3953 13.3726 17.0734 13.1516 16.6988C12.9307 16.3145 12.8202 15.8678 12.8202 15.3586C12.8202 14.5516 13.0796 13.9368 13.5984 13.5141C14.1171 13.0818 14.7608 12.8657 15.5293 12.8657ZM27.9865 13.0674C28.4188 13.0674 28.7791 13.053 29.0673 13.0242V13.3124C28.5869 13.4277 28.2075 13.8456 27.9289 14.5661L24.5425 23.2986H24.4272H24.3119L20.7958 14.2346C20.5653 13.639 20.2338 13.3316 19.8015 13.3124V13.0242C20.1858 13.053 20.6998 13.0674 21.3434 13.0674C22.1696 13.0674 22.7844 13.053 23.1879 13.0242V13.3124C22.8229 13.3316 22.5587 13.3796 22.3954 13.4565C22.2416 13.5237 22.1648 13.6534 22.1648 13.8456C22.1648 14.0089 22.2224 14.2346 22.3377 14.5228L24.946 21.4541L27.2948 15.3586C27.4869 14.8399 27.583 14.446 27.583 14.177C27.583 13.8792 27.4773 13.663 27.266 13.5285C27.0642 13.394 26.752 13.322 26.3293 13.3124V13.0242C26.8769 13.053 27.4293 13.0674 27.9865 13.0674ZM37.2136 21.3821C37.2136 21.9296 37.2472 22.5445 37.3144 23.2266C36.6612 23.1977 35.5612 23.1833 34.0145 23.1833C32.17 23.1833 30.777 23.1977 29.8356 23.2266V22.9384C30.1814 22.9191 30.4312 22.8807 30.5849 22.8231C30.7482 22.7654 30.8587 22.655 30.9163 22.4916C30.974 22.3283 31.0028 22.0641 31.0028 21.6991V14.5516C31.0028 14.1866 30.974 13.9224 30.9163 13.7591C30.8587 13.5958 30.7482 13.4853 30.5849 13.4277C30.4312 13.37 30.1814 13.3316 29.8356 13.3124V13.0242C30.777 13.053 32.17 13.0674 34.0145 13.0674C35.4267 13.0674 36.4306 13.053 37.0262 13.0242C36.959 13.6582 36.9253 14.225 36.9253 14.7246C36.9253 15.0992 36.9398 15.397 36.9686 15.618H36.6371C36.5699 14.9936 36.4834 14.5324 36.3778 14.2346C36.2721 13.9272 36.0944 13.7063 35.8446 13.5718C35.5948 13.4277 35.2153 13.3556 34.7062 13.3556H33.5101C33.1643 13.3556 32.9097 13.3844 32.7464 13.4421C32.5927 13.4901 32.487 13.5958 32.4294 13.7591C32.3717 13.9224 32.3429 14.1866 32.3429 14.5516V17.9524H33.294C33.6302 17.9524 33.8896 17.8756 34.0721 17.7219C34.2547 17.5586 34.3748 17.3712 34.4324 17.1599C34.4996 16.9389 34.5525 16.6651 34.5909 16.3385L34.6341 16.0503H34.9656C34.9367 16.4538 34.9223 16.9053 34.9223 17.4049V18.0965C34.9223 18.5865 34.9512 19.2686 35.0088 20.1428H34.6774C34.6678 20.0755 34.6389 19.845 34.5909 19.4511C34.5429 19.0476 34.4084 18.745 34.1874 18.5433C33.9761 18.3415 33.6783 18.2406 33.294 18.2406H32.3429V21.6991C32.3429 22.0641 32.3717 22.3283 32.4294 22.4916C32.487 22.655 32.5927 22.7654 32.7464 22.8231C32.9097 22.8711 33.1643 22.8951 33.5101 22.8951H34.5621C35.1577 22.8951 35.6092 22.8183 35.9166 22.6646C36.2337 22.5013 36.4642 22.2467 36.6083 21.9008C36.7524 21.5454 36.8581 21.0266 36.9253 20.3445H37.2568C37.228 20.6039 37.2136 20.9498 37.2136 21.3821ZM46.808 13.0242C46.7407 13.7063 46.7071 14.3211 46.7071 14.8687C46.7071 15.349 46.7215 15.7429 46.7503 16.0503H46.4189C46.342 15.3106 46.246 14.763 46.1307 14.4075C46.0154 14.0425 45.8137 13.7783 45.5254 13.615C45.2372 13.4421 44.7953 13.3556 44.1997 13.3556H43.4216V21.555C43.4216 21.9585 43.46 22.2515 43.5368 22.434C43.6137 22.6165 43.7482 22.7414 43.9403 22.8087C44.1325 22.8759 44.4447 22.9191 44.877 22.9384V23.2266C44.3774 23.1977 43.6713 23.1833 42.7587 23.1833C41.798 23.1833 41.0871 23.1977 40.626 23.2266V22.9384C41.0583 22.9191 41.3705 22.8759 41.5627 22.8087C41.7548 22.7414 41.8893 22.6165 41.9661 22.434C42.043 22.2515 42.0814 21.9585 42.0814 21.555V13.3556H41.3033C40.7077 13.3556 40.2657 13.4421 39.9775 13.615C39.6893 13.7783 39.4876 14.0425 39.3723 14.4075C39.257 14.763 39.161 15.3106 39.0841 16.0503H38.7527C38.7815 15.7429 38.7959 15.349 38.7959 14.8687C38.7959 14.3211 38.7623 13.7063 38.695 13.0242C39.4924 13.053 40.847 13.0674 42.7587 13.0674C44.6608 13.0674 46.0106 13.053 46.808 13.0242ZM54.9879 22.0161C55.2185 22.6117 55.5499 22.9191 55.9822 22.9384V23.2266C55.5979 23.1977 55.084 23.1833 54.4403 23.1833C53.6141 23.1833 52.9993 23.1977 52.5958 23.2266V22.9384C52.9609 22.9191 53.2203 22.8759 53.374 22.8087C53.5373 22.7318 53.6189 22.5973 53.6189 22.4052C53.6189 22.2419 53.5613 22.0161 53.446 21.7279L52.567 19.3646H49.0797L48.4889 20.8921C48.2968 21.4109 48.2007 21.8048 48.2007 22.0737C48.2007 22.3716 48.3016 22.5877 48.5033 22.7222C48.7147 22.8567 49.0317 22.9288 49.4544 22.9384V23.2266C48.9068 23.1977 48.3544 23.1833 47.7972 23.1833C47.3649 23.1833 47.0047 23.1977 46.7165 23.2266V22.9384C47.1968 22.8231 47.5763 22.4052 47.8549 21.6847L51.2413 12.9521H51.4718L54.9879 22.0161ZM52.4517 19.0764L50.8378 14.7678L49.195 19.0764H52.4517ZM13.7688 31.8372C14.8255 31.9813 15.5797 32.2887 16.0312 32.7594C16.4827 33.2205 16.7084 33.7777 16.7084 34.431C16.7084 34.9786 16.5692 35.4637 16.2906 35.8864C16.012 36.3091 15.6133 36.6405 15.0945 36.8807C14.5757 37.1113 13.9609 37.2266 13.25 37.2266C12.9906 37.2266 12.7697 37.2218 12.5871 37.2122C11.9723 37.1929 11.3671 37.1833 10.7715 37.1833C9.98371 37.1833 9.38809 37.1977 8.98461 37.2266V36.9384C9.33045 36.9191 9.58023 36.8807 9.73393 36.8231C9.89725 36.7654 10.0077 36.655 10.0654 36.4916C10.123 36.3283 10.1518 36.0641 10.1518 35.6991V28.5516C10.1518 28.1866 10.123 27.9224 10.0654 27.7591C10.0077 27.5958 9.89725 27.4853 9.73393 27.4277C9.58023 27.37 9.33045 27.3316 8.98461 27.3124V27.0242C9.38809 27.053 9.9741 27.0674 10.7426 27.0674L12.2989 27.053C12.4815 27.0434 12.688 27.0386 12.9186 27.0386C13.8985 27.0386 14.6478 27.2451 15.1666 27.6582C15.6949 28.0713 15.9591 28.6189 15.9591 29.301C15.9591 29.8582 15.7814 30.3577 15.4259 30.7996C15.0801 31.2415 14.5277 31.5778 13.7688 31.8083V31.8372ZM12.5583 27.3124C12.2605 27.3124 12.0348 27.346 11.881 27.4132C11.7369 27.4805 11.6361 27.6006 11.5784 27.7735C11.5208 27.9464 11.492 28.2058 11.492 28.5516V31.8083H12.4575C13.2452 31.8083 13.7928 31.597 14.1002 31.1743C14.4172 30.742 14.5757 30.1704 14.5757 29.4595C14.5757 28.739 14.4172 28.201 14.1002 27.8456C13.7832 27.4901 13.2692 27.3124 12.5583 27.3124ZM12.5727 36.8951C14.3692 36.8951 15.2674 36.0545 15.2674 34.3734C15.2674 33.6144 15.0609 33.038 14.6478 32.6441C14.2443 32.2503 13.5959 32.0533 12.7024 32.0533H11.492V35.6991C11.492 36.0449 11.5208 36.2995 11.5784 36.4628C11.6361 36.6261 11.7369 36.7414 11.881 36.8087C12.0348 36.8663 12.2653 36.8951 12.5727 36.8951ZM21.8045 27.3124C21.4587 27.3316 21.2041 27.37 21.0408 27.4277C20.8871 27.4853 20.7814 27.5958 20.7238 27.7591C20.6661 27.9224 20.6373 28.1866 20.6373 28.5516V35.6991C20.6373 36.0641 20.6661 36.3283 20.7238 36.4916C20.7814 36.655 20.8871 36.7654 21.0408 36.8231C21.2041 36.8807 21.4587 36.9191 21.8045 36.9384V37.2266C21.3626 37.1977 20.7526 37.1833 19.9744 37.1833C19.1482 37.1833 18.5334 37.1977 18.1299 37.2266V36.9384C18.4758 36.9191 18.7255 36.8807 18.8793 36.8231C19.0426 36.7654 19.153 36.655 19.2107 36.4916C19.2683 36.3283 19.2971 36.0641 19.2971 35.6991V28.5516C19.2971 28.1866 19.2683 27.9224 19.2107 27.7591C19.153 27.5958 19.0426 27.4853 18.8793 27.4277C18.7255 27.37 18.4758 27.3316 18.1299 27.3124V27.0242C18.5334 27.053 19.1482 27.0674 19.9744 27.0674C20.743 27.0674 21.353 27.053 21.8045 27.0242V27.3124ZM28.0629 31.8372C29.1196 31.9813 29.8737 32.2887 30.3252 32.7594C30.7768 33.2205 31.0025 33.7777 31.0025 34.431C31.0025 34.9786 30.8632 35.4637 30.5846 35.8864C30.306 36.3091 29.9074 36.6405 29.3886 36.8807C28.8698 37.1113 28.255 37.2266 27.5441 37.2266C27.2847 37.2266 27.0637 37.2218 26.8812 37.2122C26.2664 37.1929 25.6612 37.1833 25.0655 37.1833C24.2778 37.1833 23.6822 37.1977 23.2787 37.2266V36.9384C23.6245 36.9191 23.8743 36.8807 24.028 36.8231C24.1913 36.7654 24.3018 36.655 24.3594 36.4916C24.4171 36.3283 24.4459 36.0641 24.4459 35.6991V28.5516C24.4459 28.1866 24.4171 27.9224 24.3594 27.7591C24.3018 27.5958 24.1913 27.4853 24.028 27.4277C23.8743 27.37 23.6245 27.3316 23.2787 27.3124V27.0242C23.6822 27.053 24.2682 27.0674 25.0367 27.0674L26.593 27.053C26.7755 27.0434 26.9821 27.0386 27.2127 27.0386C28.1925 27.0386 28.9419 27.2451 29.4606 27.6582C29.989 28.0713 30.2532 28.6189 30.2532 29.301C30.2532 29.8582 30.0755 30.3577 29.72 30.7996C29.3742 31.2415 28.8218 31.5778 28.0629 31.8083V31.8372ZM26.8524 27.3124C26.5546 27.3124 26.3288 27.346 26.1751 27.4132C26.031 27.4805 25.9301 27.6006 25.8725 27.7735C25.8149 27.9464 25.786 28.2058 25.786 28.5516V31.8083H26.7515C27.5393 31.8083 28.0869 31.597 28.3943 31.1743C28.7113 30.742 28.8698 30.1704 28.8698 29.4595C28.8698 28.739 28.7113 28.201 28.3943 27.8456C28.0773 27.4901 27.5633 27.3124 26.8524 27.3124ZM26.8668 36.8951C28.6633 36.8951 29.5615 36.0545 29.5615 34.3734C29.5615 33.6144 29.355 33.038 28.9419 32.6441C28.5384 32.2503 27.8899 32.0533 26.9965 32.0533H25.786V35.6991C25.786 36.0449 25.8149 36.2995 25.8725 36.4628C25.9301 36.6261 26.031 36.7414 26.1751 36.8087C26.3288 36.8663 26.5594 36.8951 26.8668 36.8951ZM36.0986 27.3124C35.7527 27.3316 35.4982 27.37 35.3349 27.4277C35.1811 27.4853 35.0755 27.5958 35.0178 27.7591C34.9602 27.9224 34.9314 28.1866 34.9314 28.5516V35.6991C34.9314 36.0641 34.9602 36.3283 35.0178 36.4916C35.0755 36.655 35.1811 36.7654 35.3349 36.8231C35.4982 36.8711 35.7527 36.8951 36.0986 36.8951H37.1505C37.7462 36.8951 38.1977 36.8135 38.5051 36.6502C38.8221 36.4772 39.0527 36.2034 39.1968 35.8288C39.3409 35.4541 39.4466 34.9113 39.5138 34.2004H39.8452C39.8164 34.4982 39.802 34.8921 39.802 35.3821C39.802 35.9296 39.8356 36.5445 39.9029 37.2266C39.2496 37.1977 38.1496 37.1833 36.6029 37.1833C34.7584 37.1833 33.3655 37.1977 32.424 37.2266V36.9384C32.7698 36.9191 33.0196 36.8807 33.1733 36.8231C33.3366 36.7654 33.4471 36.655 33.5048 36.4916C33.5624 36.3283 33.5912 36.0641 33.5912 35.6991V28.5516C33.5912 28.1866 33.5624 27.9224 33.5048 27.7591C33.4471 27.5958 33.3366 27.4853 33.1733 27.4277C33.0196 27.37 32.7698 27.3316 32.424 27.3124V27.0242C32.8275 27.053 33.4423 27.0674 34.2685 27.0674C35.037 27.0674 35.6471 27.053 36.0986 27.0242V27.3124ZM44.8358 27.3124C44.49 27.3316 44.2354 27.37 44.0721 27.4277C43.9184 27.4853 43.8127 27.5958 43.7551 27.7591C43.6974 27.9224 43.6686 28.1866 43.6686 28.5516V35.6991C43.6686 36.0641 43.6974 36.3283 43.7551 36.4916C43.8127 36.655 43.9184 36.7654 44.0721 36.8231C44.2354 36.8807 44.49 36.9191 44.8358 36.9384V37.2266C44.3939 37.1977 43.7839 37.1833 43.0057 37.1833C42.1795 37.1833 41.5647 37.1977 41.1612 37.2266V36.9384C41.5071 36.9191 41.7568 36.8807 41.9106 36.8231C42.0739 36.7654 42.1843 36.655 42.242 36.4916C42.2996 36.3283 42.3284 36.0641 42.3284 35.6991V28.5516C42.3284 28.1866 42.2996 27.9224 42.242 27.7591C42.1843 27.5958 42.0739 27.4853 41.9106 27.4277C41.7568 27.37 41.5071 27.3316 41.1612 27.3124V27.0242C41.5647 27.053 42.1795 27.0674 43.0057 27.0674C43.7743 27.0674 44.3843 27.053 44.8358 27.0242V27.3124ZM45.4165 39.6619C46.089 39.6427 46.5838 39.3929 46.9008 38.9126C47.2274 38.4322 47.3907 37.6204 47.3907 36.4772V28.5516C47.3907 28.1866 47.3619 27.9224 47.3043 27.7591C47.2466 27.5958 47.1362 27.4853 46.9728 27.4277C46.8191 27.37 46.5694 27.3316 46.2235 27.3124V27.0242C46.627 27.053 47.2322 27.0674 48.0392 27.0674C48.827 27.0674 49.4466 27.053 49.8981 27.0242V27.3124C49.5523 27.3316 49.2977 27.37 49.1344 27.4277C48.9807 27.4853 48.875 27.5958 48.8173 27.7591C48.7597 27.9224 48.7309 28.1866 48.7309 28.5516V33.8258C48.7309 34.6423 48.7165 35.3677 48.6877 36.0017C48.6588 36.6261 48.5916 37.1545 48.4859 37.5868C48.313 38.2881 47.9575 38.8549 47.4196 39.2872C46.8912 39.7195 46.2235 39.9357 45.4165 39.9357V39.6619ZM58.7145 36.0161C58.945 36.6117 59.2765 36.9191 59.7088 36.9384V37.2266C59.3245 37.1977 58.8105 37.1833 58.1669 37.1833C57.3407 37.1833 56.7259 37.1977 56.3224 37.2266V36.9384C56.6874 36.9191 56.9468 36.8759 57.1005 36.8087C57.2638 36.7318 57.3455 36.5973 57.3455 36.4052C57.3455 36.2419 57.2879 36.0161 57.1726 35.7279L56.2936 33.3646H52.8063L52.2155 34.8921C52.0234 35.4109 51.9273 35.8048 51.9273 36.0737C51.9273 36.3716 52.0282 36.5877 52.2299 36.7222C52.4412 36.8567 52.7583 36.9288 53.181 36.9384V37.2266C52.6334 37.1977 52.081 37.1833 51.5238 37.1833C51.0915 37.1833 50.7312 37.1977 50.443 37.2266V36.9384C50.9234 36.8231 51.3028 36.4052 51.5814 35.6847L54.9678 26.9521H55.1984L58.7145 36.0161ZM56.1783 33.0764L54.5643 28.7678L52.9216 33.0764H56.1783Z"/>
</mask>
<path d="M15.5293 12.8657C15.952 12.8657 16.2835 12.9137 16.5236 13.0098C16.7734 13.0962 17.028 13.2259 17.2874 13.3988C17.4987 13.5333 17.662 13.6006 17.7773 13.6006C17.8638 13.6006 17.931 13.5525 17.979 13.4565C18.0271 13.3508 18.0655 13.1875 18.0943 12.9665H18.4258C18.3777 13.5237 18.3537 14.5036 18.3537 15.9062H18.0223C17.9646 15.1281 17.7389 14.4748 17.345 13.9464C16.9607 13.4084 16.3987 13.1395 15.659 13.1395C15.1402 13.1395 14.7175 13.298 14.3909 13.615C14.0643 13.9224 13.901 14.3211 13.901 14.811C13.901 15.1761 13.9826 15.4931 14.1459 15.7621C14.3189 16.0311 14.535 16.2617 14.7944 16.4538C15.0538 16.6459 15.4236 16.8909 15.904 17.1887L16.3219 17.4481C16.9271 17.8228 17.4026 18.1542 17.7485 18.4424C18.1039 18.721 18.3873 19.0428 18.5987 19.4079C18.81 19.7729 18.9157 20.2004 18.9157 20.6904C18.9157 21.5646 18.6275 22.2419 18.0511 22.7222C17.4747 23.1929 16.7446 23.4283 15.8608 23.4283C15.3996 23.4283 15.0202 23.3803 14.7223 23.2842C14.4341 23.1881 14.1556 23.0584 13.8866 22.8951C13.6752 22.7606 13.5119 22.6934 13.3966 22.6934C13.3102 22.6934 13.2429 22.7462 13.1949 22.8519C13.1468 22.948 13.1084 23.1065 13.0796 23.3274H12.7482C12.7866 22.7991 12.8058 21.6462 12.8058 19.869H13.1372C13.2045 20.8393 13.4446 21.627 13.8577 22.2323C14.2708 22.8375 14.9049 23.1401 15.7599 23.1401C16.2786 23.1401 16.7206 22.9816 17.0856 22.6646C17.4507 22.3379 17.6332 21.8576 17.6332 21.2236C17.6332 20.6856 17.4507 20.2292 17.0856 19.8546C16.7302 19.4799 16.1634 19.0572 15.3852 18.5865C14.8184 18.2406 14.3573 17.9332 14.0018 17.6642C13.656 17.3953 13.3726 17.0734 13.1516 16.6988C12.9307 16.3145 12.8202 15.8678 12.8202 15.3586C12.8202 14.5516 13.0796 13.9368 13.5984 13.5141C14.1171 13.0818 14.7608 12.8657 15.5293 12.8657ZM27.9865 13.0674C28.4188 13.0674 28.7791 13.053 29.0673 13.0242V13.3124C28.5869 13.4277 28.2075 13.8456 27.9289 14.5661L24.5425 23.2986H24.4272H24.3119L20.7958 14.2346C20.5653 13.639 20.2338 13.3316 19.8015 13.3124V13.0242C20.1858 13.053 20.6998 13.0674 21.3434 13.0674C22.1696 13.0674 22.7844 13.053 23.1879 13.0242V13.3124C22.8229 13.3316 22.5587 13.3796 22.3954 13.4565C22.2416 13.5237 22.1648 13.6534 22.1648 13.8456C22.1648 14.0089 22.2224 14.2346 22.3377 14.5228L24.946 21.4541L27.2948 15.3586C27.4869 14.8399 27.583 14.446 27.583 14.177C27.583 13.8792 27.4773 13.663 27.266 13.5285C27.0642 13.394 26.752 13.322 26.3293 13.3124V13.0242C26.8769 13.053 27.4293 13.0674 27.9865 13.0674ZM37.2136 21.3821C37.2136 21.9296 37.2472 22.5445 37.3144 23.2266C36.6612 23.1977 35.5612 23.1833 34.0145 23.1833C32.17 23.1833 30.777 23.1977 29.8356 23.2266V22.9384C30.1814 22.9191 30.4312 22.8807 30.5849 22.8231C30.7482 22.7654 30.8587 22.655 30.9163 22.4916C30.974 22.3283 31.0028 22.0641 31.0028 21.6991V14.5516C31.0028 14.1866 30.974 13.9224 30.9163 13.7591C30.8587 13.5958 30.7482 13.4853 30.5849 13.4277C30.4312 13.37 30.1814 13.3316 29.8356 13.3124V13.0242C30.777 13.053 32.17 13.0674 34.0145 13.0674C35.4267 13.0674 36.4306 13.053 37.0262 13.0242C36.959 13.6582 36.9253 14.225 36.9253 14.7246C36.9253 15.0992 36.9398 15.397 36.9686 15.618H36.6371C36.5699 14.9936 36.4834 14.5324 36.3778 14.2346C36.2721 13.9272 36.0944 13.7063 35.8446 13.5718C35.5948 13.4277 35.2153 13.3556 34.7062 13.3556H33.5101C33.1643 13.3556 32.9097 13.3844 32.7464 13.4421C32.5927 13.4901 32.487 13.5958 32.4294 13.7591C32.3717 13.9224 32.3429 14.1866 32.3429 14.5516V17.9524H33.294C33.6302 17.9524 33.8896 17.8756 34.0721 17.7219C34.2547 17.5586 34.3748 17.3712 34.4324 17.1599C34.4996 16.9389 34.5525 16.6651 34.5909 16.3385L34.6341 16.0503H34.9656C34.9367 16.4538 34.9223 16.9053 34.9223 17.4049V18.0965C34.9223 18.5865 34.9512 19.2686 35.0088 20.1428H34.6774C34.6678 20.0755 34.6389 19.845 34.5909 19.4511C34.5429 19.0476 34.4084 18.745 34.1874 18.5433C33.9761 18.3415 33.6783 18.2406 33.294 18.2406H32.3429V21.6991C32.3429 22.0641 32.3717 22.3283 32.4294 22.4916C32.487 22.655 32.5927 22.7654 32.7464 22.8231C32.9097 22.8711 33.1643 22.8951 33.5101 22.8951H34.5621C35.1577 22.8951 35.6092 22.8183 35.9166 22.6646C36.2337 22.5013 36.4642 22.2467 36.6083 21.9008C36.7524 21.5454 36.8581 21.0266 36.9253 20.3445H37.2568C37.228 20.6039 37.2136 20.9498 37.2136 21.3821ZM46.808 13.0242C46.7407 13.7063 46.7071 14.3211 46.7071 14.8687C46.7071 15.349 46.7215 15.7429 46.7503 16.0503H46.4189C46.342 15.3106 46.246 14.763 46.1307 14.4075C46.0154 14.0425 45.8137 13.7783 45.5254 13.615C45.2372 13.4421 44.7953 13.3556 44.1997 13.3556H43.4216V21.555C43.4216 21.9585 43.46 22.2515 43.5368 22.434C43.6137 22.6165 43.7482 22.7414 43.9403 22.8087C44.1325 22.8759 44.4447 22.9191 44.877 22.9384V23.2266C44.3774 23.1977 43.6713 23.1833 42.7587 23.1833C41.798 23.1833 41.0871 23.1977 40.626 23.2266V22.9384C41.0583 22.9191 41.3705 22.8759 41.5627 22.8087C41.7548 22.7414 41.8893 22.6165 41.9661 22.434C42.043 22.2515 42.0814 21.9585 42.0814 21.555V13.3556H41.3033C40.7077 13.3556 40.2657 13.4421 39.9775 13.615C39.6893 13.7783 39.4876 14.0425 39.3723 14.4075C39.257 14.763 39.161 15.3106 39.0841 16.0503H38.7527C38.7815 15.7429 38.7959 15.349 38.7959 14.8687C38.7959 14.3211 38.7623 13.7063 38.695 13.0242C39.4924 13.053 40.847 13.0674 42.7587 13.0674C44.6608 13.0674 46.0106 13.053 46.808 13.0242ZM54.9879 22.0161C55.2185 22.6117 55.5499 22.9191 55.9822 22.9384V23.2266C55.5979 23.1977 55.084 23.1833 54.4403 23.1833C53.6141 23.1833 52.9993 23.1977 52.5958 23.2266V22.9384C52.9609 22.9191 53.2203 22.8759 53.374 22.8087C53.5373 22.7318 53.6189 22.5973 53.6189 22.4052C53.6189 22.2419 53.5613 22.0161 53.446 21.7279L52.567 19.3646H49.0797L48.4889 20.8921C48.2968 21.4109 48.2007 21.8048 48.2007 22.0737C48.2007 22.3716 48.3016 22.5877 48.5033 22.7222C48.7147 22.8567 49.0317 22.9288 49.4544 22.9384V23.2266C48.9068 23.1977 48.3544 23.1833 47.7972 23.1833C47.3649 23.1833 47.0047 23.1977 46.7165 23.2266V22.9384C47.1968 22.8231 47.5763 22.4052 47.8549 21.6847L51.2413 12.9521H51.4718L54.9879 22.0161ZM52.4517 19.0764L50.8378 14.7678L49.195 19.0764H52.4517ZM13.7688 31.8372C14.8255 31.9813 15.5797 32.2887 16.0312 32.7594C16.4827 33.2205 16.7084 33.7777 16.7084 34.431C16.7084 34.9786 16.5692 35.4637 16.2906 35.8864C16.012 36.3091 15.6133 36.6405 15.0945 36.8807C14.5757 37.1113 13.9609 37.2266 13.25 37.2266C12.9906 37.2266 12.7697 37.2218 12.5871 37.2122C11.9723 37.1929 11.3671 37.1833 10.7715 37.1833C9.98371 37.1833 9.38809 37.1977 8.98461 37.2266V36.9384C9.33045 36.9191 9.58023 36.8807 9.73393 36.8231C9.89725 36.7654 10.0077 36.655 10.0654 36.4916C10.123 36.3283 10.1518 36.0641 10.1518 35.6991V28.5516C10.1518 28.1866 10.123 27.9224 10.0654 27.7591C10.0077 27.5958 9.89725 27.4853 9.73393 27.4277C9.58023 27.37 9.33045 27.3316 8.98461 27.3124V27.0242C9.38809 27.053 9.9741 27.0674 10.7426 27.0674L12.2989 27.053C12.4815 27.0434 12.688 27.0386 12.9186 27.0386C13.8985 27.0386 14.6478 27.2451 15.1666 27.6582C15.6949 28.0713 15.9591 28.6189 15.9591 29.301C15.9591 29.8582 15.7814 30.3577 15.4259 30.7996C15.0801 31.2415 14.5277 31.5778 13.7688 31.8083V31.8372ZM12.5583 27.3124C12.2605 27.3124 12.0348 27.346 11.881 27.4132C11.7369 27.4805 11.6361 27.6006 11.5784 27.7735C11.5208 27.9464 11.492 28.2058 11.492 28.5516V31.8083H12.4575C13.2452 31.8083 13.7928 31.597 14.1002 31.1743C14.4172 30.742 14.5757 30.1704 14.5757 29.4595C14.5757 28.739 14.4172 28.201 14.1002 27.8456C13.7832 27.4901 13.2692 27.3124 12.5583 27.3124ZM12.5727 36.8951C14.3692 36.8951 15.2674 36.0545 15.2674 34.3734C15.2674 33.6144 15.0609 33.038 14.6478 32.6441C14.2443 32.2503 13.5959 32.0533 12.7024 32.0533H11.492V35.6991C11.492 36.0449 11.5208 36.2995 11.5784 36.4628C11.6361 36.6261 11.7369 36.7414 11.881 36.8087C12.0348 36.8663 12.2653 36.8951 12.5727 36.8951ZM21.8045 27.3124C21.4587 27.3316 21.2041 27.37 21.0408 27.4277C20.8871 27.4853 20.7814 27.5958 20.7238 27.7591C20.6661 27.9224 20.6373 28.1866 20.6373 28.5516V35.6991C20.6373 36.0641 20.6661 36.3283 20.7238 36.4916C20.7814 36.655 20.8871 36.7654 21.0408 36.8231C21.2041 36.8807 21.4587 36.9191 21.8045 36.9384V37.2266C21.3626 37.1977 20.7526 37.1833 19.9744 37.1833C19.1482 37.1833 18.5334 37.1977 18.1299 37.2266V36.9384C18.4758 36.9191 18.7255 36.8807 18.8793 36.8231C19.0426 36.7654 19.153 36.655 19.2107 36.4916C19.2683 36.3283 19.2971 36.0641 19.2971 35.6991V28.5516C19.2971 28.1866 19.2683 27.9224 19.2107 27.7591C19.153 27.5958 19.0426 27.4853 18.8793 27.4277C18.7255 27.37 18.4758 27.3316 18.1299 27.3124V27.0242C18.5334 27.053 19.1482 27.0674 19.9744 27.0674C20.743 27.0674 21.353 27.053 21.8045 27.0242V27.3124ZM28.0629 31.8372C29.1196 31.9813 29.8737 32.2887 30.3252 32.7594C30.7768 33.2205 31.0025 33.7777 31.0025 34.431C31.0025 34.9786 30.8632 35.4637 30.5846 35.8864C30.306 36.3091 29.9074 36.6405 29.3886 36.8807C28.8698 37.1113 28.255 37.2266 27.5441 37.2266C27.2847 37.2266 27.0637 37.2218 26.8812 37.2122C26.2664 37.1929 25.6612 37.1833 25.0655 37.1833C24.2778 37.1833 23.6822 37.1977 23.2787 37.2266V36.9384C23.6245 36.9191 23.8743 36.8807 24.028 36.8231C24.1913 36.7654 24.3018 36.655 24.3594 36.4916C24.4171 36.3283 24.4459 36.0641 24.4459 35.6991V28.5516C24.4459 28.1866 24.4171 27.9224 24.3594 27.7591C24.3018 27.5958 24.1913 27.4853 24.028 27.4277C23.8743 27.37 23.6245 27.3316 23.2787 27.3124V27.0242C23.6822 27.053 24.2682 27.0674 25.0367 27.0674L26.593 27.053C26.7755 27.0434 26.9821 27.0386 27.2127 27.0386C28.1925 27.0386 28.9419 27.2451 29.4606 27.6582C29.989 28.0713 30.2532 28.6189 30.2532 29.301C30.2532 29.8582 30.0755 30.3577 29.72 30.7996C29.3742 31.2415 28.8218 31.5778 28.0629 31.8083V31.8372ZM26.8524 27.3124C26.5546 27.3124 26.3288 27.346 26.1751 27.4132C26.031 27.4805 25.9301 27.6006 25.8725 27.7735C25.8149 27.9464 25.786 28.2058 25.786 28.5516V31.8083H26.7515C27.5393 31.8083 28.0869 31.597 28.3943 31.1743C28.7113 30.742 28.8698 30.1704 28.8698 29.4595C28.8698 28.739 28.7113 28.201 28.3943 27.8456C28.0773 27.4901 27.5633 27.3124 26.8524 27.3124ZM26.8668 36.8951C28.6633 36.8951 29.5615 36.0545 29.5615 34.3734C29.5615 33.6144 29.355 33.038 28.9419 32.6441C28.5384 32.2503 27.8899 32.0533 26.9965 32.0533H25.786V35.6991C25.786 36.0449 25.8149 36.2995 25.8725 36.4628C25.9301 36.6261 26.031 36.7414 26.1751 36.8087C26.3288 36.8663 26.5594 36.8951 26.8668 36.8951ZM36.0986 27.3124C35.7527 27.3316 35.4982 27.37 35.3349 27.4277C35.1811 27.4853 35.0755 27.5958 35.0178 27.7591C34.9602 27.9224 34.9314 28.1866 34.9314 28.5516V35.6991C34.9314 36.0641 34.9602 36.3283 35.0178 36.4916C35.0755 36.655 35.1811 36.7654 35.3349 36.8231C35.4982 36.8711 35.7527 36.8951 36.0986 36.8951H37.1505C37.7462 36.8951 38.1977 36.8135 38.5051 36.6502C38.8221 36.4772 39.0527 36.2034 39.1968 35.8288C39.3409 35.4541 39.4466 34.9113 39.5138 34.2004H39.8452C39.8164 34.4982 39.802 34.8921 39.802 35.3821C39.802 35.9296 39.8356 36.5445 39.9029 37.2266C39.2496 37.1977 38.1496 37.1833 36.6029 37.1833C34.7584 37.1833 33.3655 37.1977 32.424 37.2266V36.9384C32.7698 36.9191 33.0196 36.8807 33.1733 36.8231C33.3366 36.7654 33.4471 36.655 33.5048 36.4916C33.5624 36.3283 33.5912 36.0641 33.5912 35.6991V28.5516C33.5912 28.1866 33.5624 27.9224 33.5048 27.7591C33.4471 27.5958 33.3366 27.4853 33.1733 27.4277C33.0196 27.37 32.7698 27.3316 32.424 27.3124V27.0242C32.8275 27.053 33.4423 27.0674 34.2685 27.0674C35.037 27.0674 35.6471 27.053 36.0986 27.0242V27.3124ZM44.8358 27.3124C44.49 27.3316 44.2354 27.37 44.0721 27.4277C43.9184 27.4853 43.8127 27.5958 43.7551 27.7591C43.6974 27.9224 43.6686 28.1866 43.6686 28.5516V35.6991C43.6686 36.0641 43.6974 36.3283 43.7551 36.4916C43.8127 36.655 43.9184 36.7654 44.0721 36.8231C44.2354 36.8807 44.49 36.9191 44.8358 36.9384V37.2266C44.3939 37.1977 43.7839 37.1833 43.0057 37.1833C42.1795 37.1833 41.5647 37.1977 41.1612 37.2266V36.9384C41.5071 36.9191 41.7568 36.8807 41.9106 36.8231C42.0739 36.7654 42.1843 36.655 42.242 36.4916C42.2996 36.3283 42.3284 36.0641 42.3284 35.6991V28.5516C42.3284 28.1866 42.2996 27.9224 42.242 27.7591C42.1843 27.5958 42.0739 27.4853 41.9106 27.4277C41.7568 27.37 41.5071 27.3316 41.1612 27.3124V27.0242C41.5647 27.053 42.1795 27.0674 43.0057 27.0674C43.7743 27.0674 44.3843 27.053 44.8358 27.0242V27.3124ZM45.4165 39.6619C46.089 39.6427 46.5838 39.3929 46.9008 38.9126C47.2274 38.4322 47.3907 37.6204 47.3907 36.4772V28.5516C47.3907 28.1866 47.3619 27.9224 47.3043 27.7591C47.2466 27.5958 47.1362 27.4853 46.9728 27.4277C46.8191 27.37 46.5694 27.3316 46.2235 27.3124V27.0242C46.627 27.053 47.2322 27.0674 48.0392 27.0674C48.827 27.0674 49.4466 27.053 49.8981 27.0242V27.3124C49.5523 27.3316 49.2977 27.37 49.1344 27.4277C48.9807 27.4853 48.875 27.5958 48.8173 27.7591C48.7597 27.9224 48.7309 28.1866 48.7309 28.5516V33.8258C48.7309 34.6423 48.7165 35.3677 48.6877 36.0017C48.6588 36.6261 48.5916 37.1545 48.4859 37.5868C48.313 38.2881 47.9575 38.8549 47.4196 39.2872C46.8912 39.7195 46.2235 39.9357 45.4165 39.9357V39.6619ZM58.7145 36.0161C58.945 36.6117 59.2765 36.9191 59.7088 36.9384V37.2266C59.3245 37.1977 58.8105 37.1833 58.1669 37.1833C57.3407 37.1833 56.7259 37.1977 56.3224 37.2266V36.9384C56.6874 36.9191 56.9468 36.8759 57.1005 36.8087C57.2638 36.7318 57.3455 36.5973 57.3455 36.4052C57.3455 36.2419 57.2879 36.0161 57.1726 35.7279L56.2936 33.3646H52.8063L52.2155 34.8921C52.0234 35.4109 51.9273 35.8048 51.9273 36.0737C51.9273 36.3716 52.0282 36.5877 52.2299 36.7222C52.4412 36.8567 52.7583 36.9288 53.181 36.9384V37.2266C52.6334 37.1977 52.081 37.1833 51.5238 37.1833C51.0915 37.1833 50.7312 37.1977 50.443 37.2266V36.9384C50.9234 36.8231 51.3028 36.4052 51.5814 35.6847L54.9678 26.9521H55.1984L58.7145 36.0161ZM56.1783 33.0764L54.5643 28.7678L52.9216 33.0764H56.1783Z" fill="#FEF5EB"/>
<path d="M16.5236 13.0098L16.4482 13.1982L16.4573 13.2013L16.5236 13.0098ZM17.2874 13.3988L17.1749 13.5676L17.1785 13.5699L17.2874 13.3988ZM17.979 13.4565L18.1605 13.5472L18.1636 13.5404L17.979 13.4565ZM18.0943 12.9665V12.7638H17.9163L17.8933 12.9403L18.0943 12.9665ZM18.4258 12.9665L18.6277 12.9839L18.6467 12.7638H18.4258V12.9665ZM18.3537 15.9062V16.1089H18.5564V15.9062H18.3537ZM18.0223 15.9062L17.8201 15.9212L17.834 16.1089H18.0223V15.9062ZM17.345 13.9464L17.18 14.0643L17.1825 14.0676L17.345 13.9464ZM14.3909 13.615L14.5299 13.7626L14.5321 13.7605L14.3909 13.615ZM14.1459 15.7621L13.9726 15.8674L13.9754 15.8717L14.1459 15.7621ZM14.7944 16.4538L14.9151 16.2909V16.2909L14.7944 16.4538ZM15.904 17.1887L16.0109 17.0165L16.0108 17.0164L15.904 17.1887ZM16.3219 17.4481L16.215 17.6203L16.2152 17.6205L16.3219 17.4481ZM17.7485 18.4424L17.6186 18.5982L17.6234 18.602L17.7485 18.4424ZM18.5987 19.4079L18.4232 19.5094V19.5094L18.5987 19.4079ZM18.0511 22.7222L18.1793 22.8792L18.1809 22.878L18.0511 22.7222ZM14.7224 23.2842L14.6582 23.4765L14.6601 23.4771L14.7224 23.2842ZM13.8866 22.8951L13.7777 23.0662L13.7813 23.0684L13.8866 22.8951ZM13.1949 22.8519L13.3763 22.9426L13.3794 22.9358L13.1949 22.8519ZM13.0796 23.3274V23.5302H13.2576L13.2806 23.3537L13.0796 23.3274ZM12.7482 23.3274L12.546 23.3127L12.5301 23.5302H12.7482V23.3274ZM12.8058 19.869V19.6663H12.6031V19.869H12.8058ZM13.1372 19.869L13.3395 19.855L13.3264 19.6663H13.1372V19.869ZM13.8577 22.2323L13.6903 22.3466V22.3466L13.8577 22.2323ZM17.0856 22.6646L17.2186 22.8177L17.2208 22.8157L17.0856 22.6646ZM17.0856 19.8546L16.9385 19.9941L16.9404 19.9961L17.0856 19.8546ZM15.3852 18.5865L15.2796 18.7596L15.2803 18.76L15.3852 18.5865ZM14.0018 17.6642L13.8774 17.8243L13.8795 17.8259L14.0018 17.6642ZM13.1516 16.6988L12.9759 16.7998L12.977 16.8017L13.1516 16.6988ZM13.5984 13.5141L13.7264 13.6713L13.7281 13.6699L13.5984 13.5141ZM15.5293 13.0684C15.9405 13.0684 16.2425 13.1157 16.4483 13.198L16.5989 12.8215C16.3244 12.7117 15.9635 12.6629 15.5293 12.6629V13.0684ZM16.4573 13.2013C16.6882 13.2813 16.9274 13.4025 17.1749 13.5675L17.3998 13.2301C17.1286 13.0493 16.8586 12.9112 16.5899 12.8182L16.4573 13.2013ZM17.1785 13.5699C17.3923 13.7059 17.5989 13.8033 17.7773 13.8033V13.3978C17.7252 13.3978 17.6051 13.3607 17.3962 13.2278L17.1785 13.5699ZM17.7773 13.8033C17.9606 13.8033 18.088 13.6919 18.1604 13.5471L17.7977 13.3658C17.7911 13.3791 17.7853 13.3876 17.7811 13.3929C17.779 13.3954 17.7774 13.3971 17.7764 13.3981C17.7753 13.3992 17.7748 13.3996 17.7747 13.3996C17.7747 13.3996 17.7751 13.3993 17.7758 13.399C17.7765 13.3986 17.7773 13.3983 17.7781 13.3981C17.7798 13.3975 17.7799 13.3978 17.7773 13.3978V13.8033ZM18.1636 13.5404C18.2244 13.4065 18.2659 13.2189 18.2954 12.9928L17.8933 12.9403C17.8651 13.1561 17.8297 13.2951 17.7945 13.3726L18.1636 13.5404ZM18.0943 13.1693H18.4258V12.7638H18.0943V13.1693ZM18.2238 12.9491C18.1749 13.516 18.151 14.5039 18.151 15.9062H18.5564C18.5564 14.5033 18.5806 13.5314 18.6277 12.9839L18.2238 12.9491ZM18.3537 15.7035H18.0223V16.1089H18.3537V15.7035ZM18.2245 15.8912C18.1645 15.0818 17.9284 14.3898 17.5075 13.8253L17.1825 14.0676C17.5493 14.5598 17.7648 15.1743 17.8201 15.9212L18.2245 15.8912ZM17.51 13.8286C17.0827 13.2304 16.4552 12.9367 15.659 12.9367V13.3422C16.3423 13.3422 16.8388 13.5865 17.18 14.0643L17.51 13.8286ZM15.659 12.9367C15.0955 12.9367 14.6195 13.1106 14.2497 13.4695L14.5321 13.7605C14.8156 13.4854 15.185 13.3422 15.659 13.3422V12.9367ZM14.252 13.4674C13.8806 13.8168 13.6982 14.2709 13.6982 14.811H14.1037C14.1037 14.3713 14.2479 14.028 14.5299 13.7626L14.252 13.4674ZM13.6982 14.811C13.6982 15.2072 13.7872 15.5618 13.9726 15.8673L14.3192 15.6569C14.1781 15.4244 14.1037 15.145 14.1037 14.811H13.6982ZM13.9754 15.8717C14.1617 16.1616 14.3948 16.4101 14.6737 16.6167L14.9151 16.2909C14.6752 16.1132 14.476 15.9006 14.3165 15.6525L13.9754 15.8717ZM14.6737 16.6167C14.9397 16.8137 15.315 17.0621 15.7972 17.361L16.0108 17.0164C15.5323 16.7197 15.1679 16.4781 14.9151 16.2909L14.6737 16.6167ZM15.7971 17.361L16.215 17.6203L16.4288 17.2758L16.0109 17.0165L15.7971 17.361ZM16.2152 17.6205C16.8164 17.9926 17.2831 18.3184 17.6187 18.5981L17.8783 18.2866C17.5222 17.9899 17.0378 17.6529 16.4286 17.2757L16.2152 17.6205ZM17.6234 18.602C17.96 18.8657 18.2257 19.1683 18.4232 19.5094L18.7741 19.3063C18.5489 18.9173 18.2479 18.5762 17.8735 18.2828L17.6234 18.602ZM18.4232 19.5094C18.614 19.839 18.713 20.2303 18.713 20.6904H19.1184C19.1184 20.1706 19.0061 19.7069 18.7741 19.3063L18.4232 19.5094ZM18.713 20.6904C18.713 21.5155 18.4436 22.1312 17.9213 22.5665L18.1809 22.878C18.8114 22.3525 19.1184 21.6137 19.1184 20.6904H18.713ZM17.9229 22.5652C17.3892 23.001 16.707 23.2256 15.8608 23.2256V23.631C16.7822 23.631 17.5602 23.3848 18.1793 22.8792L17.9229 22.5652ZM15.8608 23.2256C15.4117 23.2256 15.0552 23.1786 14.7846 23.0913L14.6601 23.4771C14.9851 23.582 15.3875 23.631 15.8608 23.631V23.2256ZM14.7865 23.0919C14.5131 23.0008 14.2483 22.8776 13.9918 22.7218L13.7813 23.0684C14.0628 23.2393 14.3552 23.3755 14.6582 23.4765L14.7865 23.0919ZM13.9954 22.7241C13.7816 22.5881 13.575 22.4907 13.3966 22.4907V22.8961C13.4488 22.8961 13.5688 22.9332 13.7777 23.0662L13.9954 22.7241ZM13.3966 22.4907C13.2027 22.4907 13.0779 22.6194 13.0103 22.768L13.3794 22.9358C13.3946 22.9025 13.406 22.8929 13.4066 22.8924C13.4067 22.8924 13.4062 22.8927 13.4052 22.8933C13.4041 22.8939 13.4028 22.8945 13.4013 22.895C13.398 22.8962 13.396 22.8961 13.3966 22.8961V22.4907ZM13.0135 22.7612C12.9494 22.8894 12.9079 23.0766 12.8786 23.3012L13.2806 23.3537C13.309 23.1364 13.3442 23.0065 13.3762 22.9426L13.0135 22.7612ZM13.0796 23.1247H12.7482V23.5302H13.0796V23.1247ZM12.9504 23.3421C12.9894 22.805 13.0085 21.6444 13.0085 19.869H12.6031C12.6031 21.6481 12.5837 22.7931 12.546 23.3127L12.9504 23.3421ZM12.8058 20.0717H13.1372V19.6663H12.8058V20.0717ZM12.935 19.883C13.0039 20.8778 13.2513 21.7034 13.6903 22.3466L14.0252 22.118C13.638 21.5507 13.405 20.8007 13.3395 19.855L12.935 19.883ZM13.6903 22.3466C14.1479 23.017 14.8508 23.3428 15.7599 23.3428V22.9374C14.959 22.9374 14.3938 22.658 14.0252 22.118L13.6903 22.3466ZM15.7599 23.3428C16.3236 23.3428 16.8138 23.1691 17.2185 22.8176L16.9527 22.5115C16.6273 22.794 16.2337 22.9374 15.7599 22.9374V23.3428ZM17.2208 22.8157C17.6407 22.44 17.8359 21.8972 17.8359 21.2236H17.4305C17.4305 21.818 17.2607 22.2359 16.9504 22.5135L17.2208 22.8157ZM17.8359 21.2236C17.8359 20.6344 17.6339 20.1268 17.2308 19.7131L16.9404 19.9961C17.2674 20.3317 17.4305 20.7368 17.4305 21.2236H17.8359ZM17.2327 19.715C16.8588 19.3209 16.274 18.8872 15.4902 18.413L15.2803 18.76C16.0528 19.2273 16.6016 19.6389 16.9385 19.9941L17.2327 19.715ZM15.4908 18.4134C14.9273 18.0696 14.4723 17.766 14.1242 17.5026L13.8795 17.8259C14.2423 18.1004 14.7095 18.4117 15.2796 18.7596L15.4908 18.4134ZM14.1263 17.5042C13.8005 17.2508 13.5342 16.9483 13.3263 16.5958L12.977 16.8017C13.211 17.1986 13.5115 17.5397 13.8774 17.8243L14.1263 17.5042ZM13.3274 16.5977C13.1266 16.2485 13.0229 15.8377 13.0229 15.3586H12.6175C12.6175 15.8979 12.7348 16.3805 12.9759 16.7998L13.3274 16.5977ZM13.0229 15.3586C13.0229 14.5987 13.2647 14.0475 13.7264 13.6713L13.4703 13.3569C12.8945 13.8261 12.6175 14.5046 12.6175 15.3586H13.0229ZM13.7281 13.6699C14.2055 13.2721 14.8013 13.0684 15.5293 13.0684V12.6629C14.7203 12.6629 14.0288 12.8915 13.4686 13.3584L13.7281 13.6699ZM29.0673 13.0242H29.27V12.8002L29.0471 12.8224L29.0673 13.0242ZM29.0673 13.3124L29.1146 13.5095L29.27 13.4722V13.3124H29.0673ZM27.9289 14.5661L28.1179 14.6394L28.118 14.6392L27.9289 14.5661ZM24.5425 23.2986V23.5014H24.6813L24.7315 23.3719L24.5425 23.2986ZM24.3119 23.2986L24.1229 23.3719L24.1731 23.5014H24.3119V23.2986ZM20.7958 14.2346L20.6068 14.3078L20.6068 14.3079L20.7958 14.2346ZM19.8015 13.3124H19.5988V13.5063L19.7925 13.5149L19.8015 13.3124ZM19.8015 13.0242L19.8167 12.822L19.5988 12.8057V13.0242H19.8015ZM23.1879 13.0242H23.3907V12.8064L23.1735 12.822L23.1879 13.0242ZM23.1879 13.3124L23.1986 13.5148L23.3907 13.5047V13.3124H23.1879ZM22.3954 13.4565L22.4767 13.6423L22.4817 13.6399L22.3954 13.4565ZM22.3377 14.5228L22.5275 14.4514L22.526 14.4475L22.3377 14.5228ZM24.946 21.4541L24.7562 21.5255L24.9437 22.0238L25.1351 21.527L24.946 21.4541ZM27.2948 15.3586L27.484 15.4315L27.4849 15.429L27.2948 15.3586ZM27.266 13.5285L27.1535 13.6973L27.1571 13.6996L27.266 13.5285ZM26.3293 13.3124H26.1266V13.5106L26.3247 13.5151L26.3293 13.3124ZM26.3293 13.0242L26.34 12.8217L26.1266 12.8105V13.0242H26.3293ZM27.9865 13.2701C28.4226 13.2701 28.7901 13.2556 29.0874 13.2259L29.0471 12.8224C28.768 12.8504 28.415 12.8647 27.9865 12.8647V13.2701ZM28.8645 13.0242V13.3124H29.27V13.0242H28.8645ZM29.0199 13.1152C28.4446 13.2533 28.0284 13.7465 27.7398 14.4929L28.118 14.6392C28.3865 13.9446 28.7293 13.602 29.1146 13.5095L29.0199 13.1152ZM27.7398 14.4928L24.3534 23.2253L24.7315 23.3719L28.1179 14.6394L27.7398 14.4928ZM24.5425 23.0959H24.4272V23.5014H24.5425V23.0959ZM24.4272 23.0959H24.3119V23.5014H24.4272V23.0959ZM24.5009 23.2253L20.9848 14.1613L20.6068 14.3079L24.1229 23.3719L24.5009 23.2253ZM20.9849 14.1614C20.7412 13.5319 20.3595 13.1342 19.8105 13.1098L19.7925 13.5149C20.1081 13.5289 20.3893 13.7461 20.6068 14.3078L20.9849 14.1614ZM20.0043 13.3124V13.0242H19.5988V13.3124H20.0043ZM19.7864 13.2263C20.1779 13.2557 20.6976 13.2701 21.3434 13.2701V12.8647C20.702 12.8647 20.1937 12.8503 19.8167 12.822L19.7864 13.2263ZM21.3434 13.2701C22.1705 13.2701 22.7913 13.2558 23.2024 13.2264L23.1735 12.822C22.7775 12.8502 22.1687 12.8647 21.3434 12.8647V13.2701ZM22.9852 13.0242V13.3124H23.3907V13.0242H22.9852ZM23.1773 13.1099C22.8073 13.1294 22.5098 13.1785 22.309 13.273L22.4817 13.6399C22.6075 13.5807 22.8384 13.5338 23.1986 13.5148L23.1773 13.1099ZM22.3141 13.2707C22.2029 13.3194 22.1105 13.3953 22.048 13.5008C21.9866 13.6044 21.9621 13.7229 21.9621 13.8456H22.3675C22.3675 13.776 22.3814 13.7336 22.3968 13.7075C22.4112 13.6833 22.4341 13.6608 22.4766 13.6422L22.3141 13.2707ZM21.9621 13.8456C21.9621 14.0485 22.0317 14.3036 22.1495 14.5981L22.526 14.4475C22.4132 14.1657 22.3675 13.9692 22.3675 13.8456H21.9621ZM22.148 14.5942L24.7562 21.5255L25.1357 21.3827L22.5275 14.4514L22.148 14.5942ZM25.1351 21.527L27.484 15.4315L27.1056 15.2857L24.7568 21.3812L25.1351 21.527ZM27.4849 15.429C27.6785 14.9064 27.7858 14.4841 27.7858 14.177H27.3803C27.3803 14.4079 27.2954 14.7733 27.1047 15.2882L27.4849 15.429ZM27.7858 14.177C27.7858 13.8251 27.6564 13.5367 27.3748 13.3575L27.1571 13.6996C27.2982 13.7894 27.3803 13.9333 27.3803 14.177H27.7858ZM27.3785 13.3598C27.1288 13.1934 26.77 13.1196 26.3339 13.1097L26.3247 13.5151C26.7341 13.5244 26.9997 13.5946 27.1535 13.6972L27.3785 13.3598ZM26.5321 13.3124V13.0242H26.1266V13.3124H26.5321ZM26.3187 13.2266C26.8699 13.2556 27.4258 13.2701 27.9865 13.2701V12.8647C27.4328 12.8647 26.884 12.8503 26.34 12.8217L26.3187 13.2266ZM37.3144 23.2266L37.3055 23.4291L37.5391 23.4394L37.5162 23.2067L37.3144 23.2266ZM29.8356 23.2266H29.6328V23.4356L29.8418 23.4292L29.8356 23.2266ZM29.8356 22.9384L29.8243 22.7359L29.6328 22.7466V22.9384H29.8356ZM30.5849 22.8231L30.5174 22.6319L30.5137 22.6332L30.5849 22.8231ZM30.9163 13.7591L30.7251 13.8266V13.8266L30.9163 13.7591ZM30.5849 13.4277L30.5137 13.6175L30.5174 13.6188L30.5849 13.4277ZM29.8356 13.3124H29.6328V13.5042L29.8243 13.5148L29.8356 13.3124ZM29.8356 13.0242L29.8418 12.8215L29.6328 12.8151V13.0242H29.8356ZM37.0262 13.0242L37.2278 13.0456L37.2528 12.8102L37.0164 12.8217L37.0262 13.0242ZM36.9686 15.618V15.8207H37.1995L37.1696 15.5918L36.9686 15.618ZM36.6371 15.618L36.4356 15.6397L36.4551 15.8207H36.6371V15.618ZM36.3778 14.2346L36.186 14.3005L36.1867 14.3024L36.3778 14.2346ZM35.8446 13.5718L35.7432 13.7474L35.7485 13.7503L35.8446 13.5718ZM32.7464 13.4421L32.8069 13.6357L32.8139 13.6332L32.7464 13.4421ZM32.4294 13.7591L32.6206 13.8266V13.8266L32.4294 13.7591ZM32.3429 17.9524H32.1402V18.1552H32.3429V17.9524ZM34.0721 17.7219L34.2028 17.877L34.2073 17.873L34.0721 17.7219ZM34.4324 17.1599L34.2384 17.1008L34.2368 17.1065L34.4324 17.1599ZM34.5909 16.3385L34.3903 16.3084L34.3896 16.3148L34.5909 16.3385ZM34.6341 16.0503V15.8476H34.4595L34.4336 16.0202L34.6341 16.0503ZM34.9656 16.0503L35.1678 16.0647L35.1833 15.8476H34.9656V16.0503ZM35.0088 20.1428V20.3455H35.2253L35.2111 20.1295L35.0088 20.1428ZM34.6774 20.1428L34.4767 20.1715L34.5015 20.3455H34.6774V20.1428ZM34.5909 19.4511L34.3896 19.4751L34.3897 19.4756L34.5909 19.4511ZM34.1874 18.5433L34.0474 18.6899L34.0507 18.693L34.1874 18.5433ZM32.3429 18.2406V18.0379H32.1402V18.2406H32.3429ZM32.4294 22.4916L32.6206 22.4242V22.4242L32.4294 22.4916ZM32.7464 22.8231L32.6752 23.0129L32.6821 23.0155L32.6892 23.0176L32.7464 22.8231ZM35.9166 22.6646L36.0073 22.8459L36.0095 22.8448L35.9166 22.6646ZM36.6083 21.9008L36.7955 21.9788L36.7962 21.977L36.6083 21.9008ZM36.9254 20.3445V20.1418H36.7416L36.7236 20.3246L36.9254 20.3445ZM37.2568 20.3445L37.4583 20.3669L37.4833 20.1418H37.2568V20.3445ZM37.0108 21.3821C37.0108 21.9377 37.0449 22.5593 37.1127 23.2465L37.5162 23.2067C37.4494 22.5296 37.4163 21.9216 37.4163 21.3821H37.0108ZM37.3234 23.024C36.6652 22.995 35.5613 22.9806 34.0145 22.9806V23.3861C35.5611 23.3861 36.6571 23.4005 37.3055 23.4291L37.3234 23.024ZM34.0145 22.9806C32.1695 22.9806 30.774 22.995 29.8293 23.0239L29.8418 23.4292C30.78 23.4005 32.1705 23.3861 34.0145 23.3861V22.9806ZM30.0383 23.2266V22.9384H29.6328V23.2266H30.0383ZM29.8468 23.1408C30.1956 23.1214 30.4717 23.0821 30.6561 23.0129L30.5137 22.6332C30.3907 22.6794 30.1672 22.7169 29.8243 22.7359L29.8468 23.1408ZM30.6524 23.0143C30.8735 22.9362 31.0294 22.7803 31.1075 22.5591L30.7251 22.4242C30.6879 22.5297 30.6229 22.5947 30.5174 22.6319L30.6524 23.0143ZM31.1075 22.5591C31.1774 22.3612 31.2055 22.0674 31.2055 21.6991H30.8C30.8 22.0609 30.7706 22.2955 30.7251 22.4242L31.1075 22.5591ZM31.2055 21.6991V14.5516H30.8V21.6991H31.2055ZM31.2055 14.5516C31.2055 14.1833 31.1774 13.8896 31.1075 13.6916L30.7251 13.8266C30.7706 13.9553 30.8 14.1899 30.8 14.5516H31.2055ZM31.1075 13.6916C31.0294 13.4705 30.8735 13.3145 30.6524 13.2365L30.5174 13.6188C30.6229 13.6561 30.6879 13.7211 30.7251 13.8266L31.1075 13.6916ZM30.6561 13.2378C30.4717 13.1687 30.1956 13.1293 29.8468 13.1099L29.8243 13.5148C30.1672 13.5338 30.3907 13.5714 30.5137 13.6175L30.6561 13.2378ZM30.0383 13.3124V13.0242H29.6328V13.3124H30.0383ZM29.8293 13.2268C30.774 13.2557 32.1695 13.2701 34.0145 13.2701V12.8647C32.1705 12.8647 30.78 12.8503 29.8418 12.8215L29.8293 13.2268ZM34.0145 13.2701C35.4268 13.2701 36.435 13.2558 37.036 13.2267L37.0164 12.8217C36.4262 12.8502 35.4266 12.8647 34.0145 12.8647V13.2701ZM36.8246 13.0028C36.7568 13.6421 36.7226 14.2162 36.7226 14.7246H37.1281C37.1281 14.2338 37.1611 13.6743 37.2278 13.0456L36.8246 13.0028ZM36.7226 14.7246C36.7226 15.103 36.7371 15.4107 36.7675 15.6442L37.1696 15.5918C37.1424 15.3834 37.1281 15.0955 37.1281 14.7246H36.7226ZM36.9686 15.4153H36.6371V15.8207H36.9686V15.4153ZM36.8387 15.5963C36.7711 14.9684 36.6827 14.4878 36.5688 14.1668L36.1867 14.3024C36.2841 14.577 36.3687 15.0188 36.4356 15.6397L36.8387 15.5963ZM36.5695 14.1687C36.4498 13.8206 36.2419 13.5555 35.9407 13.3933L35.7485 13.7503C35.9468 13.857 36.0943 14.0338 36.186 14.3005L36.5695 14.1687ZM35.9459 13.3961C35.6499 13.2254 35.2274 13.1529 34.7062 13.1529V13.5583C35.2033 13.5583 35.5397 13.6299 35.7433 13.7474L35.9459 13.3961ZM34.7062 13.1529H33.5101V13.5583H34.7062V13.1529ZM33.5101 13.1529C33.1595 13.1529 32.8762 13.1813 32.6789 13.2509L32.8139 13.6332C32.9433 13.5876 33.1691 13.5583 33.5101 13.5583V13.1529ZM32.6859 13.2486C32.4661 13.3173 32.3152 13.4733 32.2382 13.6916L32.6206 13.8266C32.6588 13.7182 32.7193 13.6629 32.8069 13.6356L32.6859 13.2486ZM32.2382 13.6916C32.1683 13.8896 32.1402 14.1833 32.1402 14.5516H32.5457C32.5457 14.1899 32.5751 13.9553 32.6206 13.8266L32.2382 13.6916ZM32.1402 14.5516V17.9524H32.5457V14.5516H32.1402ZM32.3429 18.1552H33.294V17.7497H32.3429V18.1552ZM33.294 18.1552C33.6587 18.1552 33.9712 18.0719 34.2027 17.877L33.9415 17.5668C33.808 17.6792 33.6017 17.7497 33.294 17.7497V18.1552ZM34.2073 17.873C34.4154 17.6868 34.5589 17.4667 34.628 17.2132L34.2368 17.1065C34.1906 17.2758 34.0939 17.4304 33.937 17.5708L34.2073 17.873ZM34.6263 17.2189C34.6982 16.9827 34.753 16.6962 34.7923 16.3622L34.3896 16.3148C34.352 16.6341 34.301 16.8951 34.2384 17.1009L34.6263 17.2189ZM34.7914 16.3686L34.8346 16.0804L34.4336 16.0202L34.3904 16.3084L34.7914 16.3686ZM34.6341 16.253H34.9656V15.8476H34.6341V16.253ZM34.7633 16.0359C34.7341 16.4451 34.7196 16.9016 34.7196 17.4049H35.1251C35.1251 16.9091 35.1394 16.4625 35.1678 16.0647L34.7633 16.0359ZM34.7196 17.4049V18.0965H35.1251V17.4049H34.7196ZM34.7196 18.0965C34.7196 18.5931 34.7488 19.2803 34.8065 20.1561L35.2111 20.1295C35.1536 19.2568 35.1251 18.5799 35.1251 18.0965H34.7196ZM35.0088 19.9401H34.6774V20.3455H35.0088V19.9401ZM34.8781 20.1141C34.8688 20.0495 34.8403 19.8217 34.7922 19.4266L34.3897 19.4756C34.4375 19.8683 34.4667 20.1016 34.4767 20.1715L34.8781 20.1141ZM34.7922 19.4271C34.7405 18.9927 34.5921 18.6382 34.3241 18.3935L34.0507 18.693C34.2246 18.8518 34.3452 19.1025 34.3896 19.4751L34.7922 19.4271ZM34.3274 18.3966C34.0676 18.1487 33.7135 18.0379 33.294 18.0379V18.4434C33.6431 18.4434 33.8845 18.5344 34.0474 18.6899L34.3274 18.3966ZM33.294 18.0379H32.3429V18.4434H33.294V18.0379ZM32.1402 18.2406V21.6991H32.5457V18.2406H32.1402ZM32.1402 21.6991C32.1402 22.0674 32.1683 22.3612 32.2382 22.5591L32.6206 22.4242C32.5751 22.2955 32.5457 22.0609 32.5457 21.6991H32.1402ZM32.2382 22.5591C32.3145 22.7754 32.462 22.9329 32.6752 23.0129L32.8176 22.6332C32.7234 22.5979 32.6595 22.5345 32.6206 22.4242L32.2382 22.5591ZM32.6892 23.0176C32.8817 23.0742 33.1606 23.0979 33.5101 23.0979V22.6924C33.168 22.6924 32.9377 22.668 32.8036 22.6286L32.6892 23.0176ZM33.5101 23.0979H34.5621V22.6924H33.5101V23.0979ZM34.5621 23.0979C35.1693 23.0979 35.6581 23.0205 36.0073 22.8459L35.826 22.4832C35.5603 22.6161 35.1461 22.6924 34.5621 22.6924V23.0979ZM36.0095 22.8448C36.3713 22.6584 36.634 22.3664 36.7955 21.9788L36.4212 21.8229C36.2945 22.127 36.096 22.3441 35.8238 22.4843L36.0095 22.8448ZM36.7962 21.977C36.9512 21.5947 37.0592 21.0532 37.1271 20.3644L36.7236 20.3246C36.657 21 36.5537 21.4961 36.4204 21.8247L36.7962 21.977ZM36.9254 20.5473H37.2568V20.1418H36.9254V20.5473ZM37.0553 20.3221C37.0253 20.5922 37.0108 20.9464 37.0108 21.3821H37.4163C37.4163 20.9531 37.4306 20.6156 37.4583 20.3669L37.0553 20.3221ZM46.808 13.0242L47.0097 13.0441L47.0325 12.8132L46.8006 12.8216L46.808 13.0242ZM46.7503 16.0503V16.253H46.9729L46.9522 16.0314L46.7503 16.0503ZM46.4189 16.0503L46.2172 16.0713L46.2361 16.253H46.4189V16.0503ZM46.1307 14.4075L45.9373 14.4686L45.9378 14.4701L46.1307 14.4075ZM45.5254 13.615L45.4211 13.7889L45.4255 13.7914L45.5254 13.615ZM43.4216 13.3556V13.1529H43.2188V13.3556H43.4216ZM43.5368 22.434L43.35 22.5127V22.5127L43.5368 22.434ZM43.9403 22.8087L43.8734 23V23L43.9403 22.8087ZM44.877 22.9384H45.0797V22.7444L44.886 22.7358L44.877 22.9384ZM44.877 23.2266L44.8653 23.429L45.0797 23.4413V23.2266H44.877ZM40.626 23.2266H40.4233V23.4424L40.6386 23.4289L40.626 23.2266ZM40.626 22.9384L40.617 22.7358L40.4233 22.7444V22.9384H40.626ZM41.5627 22.8087L41.6296 23V23L41.5627 22.8087ZM41.9661 22.434L42.153 22.5127V22.5127L41.9661 22.434ZM42.0814 13.3556H42.2842V13.1529H42.0814V13.3556ZM39.9775 13.615L40.0775 13.7914L40.0818 13.7888L39.9775 13.615ZM39.3723 14.4075L39.5652 14.4701L39.5656 14.4686L39.3723 14.4075ZM39.0841 16.0503V16.253H39.2669L39.2858 16.0713L39.0841 16.0503ZM38.7527 16.0503L38.5508 16.0314L38.53 16.253H38.7527V16.0503ZM38.695 13.0242L38.7024 12.8216L38.4705 12.8132L38.4933 13.0441L38.695 13.0242ZM46.6062 13.0043C46.5384 13.6914 46.5043 14.313 46.5043 14.8687H46.9098C46.9098 14.3291 46.943 13.7211 47.0097 13.0441L46.6062 13.0043ZM46.5043 14.8687C46.5043 15.3523 46.5188 15.7531 46.5485 16.0692L46.9522 16.0314C46.9242 15.7327 46.9098 15.3457 46.9098 14.8687H46.5043ZM46.7503 15.8476H46.4189V16.253H46.7503V15.8476ZM46.6205 16.0294C46.5434 15.2865 46.4456 14.7215 46.3235 14.345L45.9378 14.4701C46.0463 14.8045 46.1407 15.3347 46.2172 16.0713L46.6205 16.0294ZM46.324 14.3465C46.1959 13.9407 45.9651 13.6311 45.6254 13.4386L45.4255 13.7914C45.6622 13.9255 45.8349 14.1443 45.9373 14.4686L46.324 14.3465ZM45.6298 13.4411C45.2941 13.2398 44.8075 13.1529 44.1997 13.1529V13.5583C44.7832 13.5583 45.1804 13.6444 45.4211 13.7888L45.6298 13.4411ZM44.1997 13.1529H43.4216V13.5583H44.1997V13.1529ZM43.2188 13.3556V21.555H43.6243V13.3556H43.2188ZM43.2188 21.555C43.2188 21.9633 43.2565 22.2907 43.35 22.5127L43.7237 22.3553C43.6634 22.2122 43.6243 21.9537 43.6243 21.555H43.2188ZM43.35 22.5127C43.4498 22.7497 43.6288 22.9144 43.8734 23L44.0073 22.6173C43.8675 22.5684 43.7776 22.4834 43.7237 22.3553L43.35 22.5127ZM43.8734 23C44.0954 23.0777 44.433 23.1216 44.868 23.1409L44.886 22.7358C44.4564 22.7167 44.1696 22.6741 44.0073 22.6173L43.8734 23ZM44.6743 22.9384V23.2266H45.0797V22.9384H44.6743ZM44.8887 23.0242C44.3833 22.995 43.6726 22.9806 42.7587 22.9806V23.3861C43.6701 23.3861 44.3716 23.4005 44.8653 23.429L44.8887 23.0242ZM42.7587 22.9806C41.7973 22.9806 41.0811 22.995 40.6133 23.0242L40.6386 23.4289C41.0931 23.4005 41.7988 23.3861 42.7587 23.3861V22.9806ZM40.8287 23.2266V22.9384H40.4233V23.2266H40.8287ZM40.635 23.1409C41.07 23.1216 41.4076 23.0777 41.6296 23L41.4957 22.6173C41.3334 22.6741 41.0466 22.7167 40.617 22.7358L40.635 23.1409ZM41.6296 23C41.8741 22.9144 42.0532 22.7497 42.153 22.5127L41.7793 22.3553C41.7254 22.4834 41.6354 22.5684 41.4957 22.6173L41.6296 23ZM42.153 22.5127C42.2464 22.2907 42.2842 21.9633 42.2842 21.555H41.8787C41.8787 21.9537 41.8396 22.2122 41.7793 22.3553L42.153 22.5127ZM42.2842 21.555V13.3556H41.8787V21.555H42.2842ZM42.0814 13.1529H41.3033V13.5583H42.0814V13.1529ZM41.3033 13.1529C40.6955 13.1529 40.2089 13.2398 39.8732 13.4411L40.0818 13.7888C40.3226 13.6444 40.7198 13.5583 41.3033 13.5583V13.1529ZM39.8776 13.4386C39.5379 13.6311 39.3071 13.9407 39.179 14.3465L39.5656 14.4686C39.6681 14.1443 39.8408 13.9255 40.0775 13.7914L39.8776 13.4386ZM39.1795 14.345C39.0574 14.7215 38.9596 15.2865 38.8825 16.0294L39.2858 16.0713C39.3623 15.3347 39.4567 14.8045 39.5652 14.4701L39.1795 14.345ZM39.0841 15.8476H38.7527V16.253H39.0841V15.8476ZM38.9545 16.0692C38.9842 15.7531 38.9986 15.3523 38.9986 14.8687H38.5932C38.5932 15.3457 38.5788 15.7327 38.5508 16.0314L38.9545 16.0692ZM38.9986 14.8687C38.9986 14.313 38.9645 13.6914 38.8968 13.0043L38.4933 13.0441C38.56 13.7211 38.5932 14.3291 38.5932 14.8687H38.9986ZM38.6877 13.2268C39.4891 13.2557 40.8469 13.2701 42.7587 13.2701V12.8647C40.847 12.8647 39.4957 12.8502 38.7024 12.8216L38.6877 13.2268ZM42.7587 13.2701C44.6609 13.2701 46.0139 13.2557 46.8153 13.2268L46.8006 12.8216C46.0073 12.8502 44.6608 12.8647 42.7587 12.8647V13.2701ZM54.9879 22.0161L55.177 21.9429L55.1769 21.9428L54.9879 22.0161ZM55.9822 22.9384H56.1849V22.7444L55.9912 22.7358L55.9822 22.9384ZM55.9822 23.2266L55.967 23.4287L56.1849 23.4451V23.2266H55.9822ZM52.5958 23.2266H52.3931V23.4443L52.6103 23.4288L52.5958 23.2266ZM52.5958 22.9384L52.5852 22.7359L52.3931 22.746V22.9384H52.5958ZM53.374 22.8087L53.4553 22.9945L53.4603 22.9921L53.374 22.8087ZM53.446 21.7279L53.2559 21.7986L53.2578 21.8032L53.446 21.7279ZM52.567 19.3646L52.757 19.294L52.7079 19.1619H52.567V19.3646ZM49.0797 19.3646V19.1619H48.9408L48.8907 19.2915L49.0797 19.3646ZM48.4889 20.8921L48.2998 20.819L48.2988 20.8217L48.4889 20.8921ZM48.5033 22.7222L48.3909 22.8909L48.3945 22.8932L48.5033 22.7222ZM49.4544 22.9384H49.6571V22.7402L49.459 22.7357L49.4544 22.9384ZM49.4544 23.2266L49.4437 23.429L49.6571 23.4403V23.2266H49.4544ZM46.7165 23.2266H46.5137V23.4506L46.7366 23.4283L46.7165 23.2266ZM46.7165 22.9384L46.6692 22.7412L46.5137 22.7785V22.9384H46.7165ZM47.8549 21.6847L47.6659 21.6114L47.6658 21.6116L47.8549 21.6847ZM51.2413 12.9521V12.7494H51.1024L51.0522 12.8788L51.2413 12.9521ZM51.4718 12.9521L51.6608 12.8788L51.6106 12.7494H51.4718V12.9521ZM52.4517 19.0764V19.2792H52.7442L52.6416 19.0053L52.4517 19.0764ZM50.8378 14.7678L51.0276 14.6967L50.8395 14.1943L50.6483 14.6956L50.8378 14.7678ZM49.195 19.0764L49.0056 19.0042L48.9007 19.2792H49.195V19.0764ZM54.7988 22.0893C55.0425 22.7188 55.4242 23.1165 55.9732 23.1409L55.9912 22.7358C55.6756 22.7218 55.3944 22.5046 55.177 21.9429L54.7988 22.0893ZM55.7795 22.9384V23.2266H56.1849V22.9384H55.7795ZM55.9974 23.0244C55.6058 22.995 55.0862 22.9806 54.4403 22.9806V23.3861C55.0818 23.3861 55.59 23.4005 55.967 23.4287L55.9974 23.0244ZM54.4403 22.9806C53.6132 22.9806 52.9924 22.995 52.5814 23.0243L52.6103 23.4288C53.0062 23.4005 53.6151 23.3861 54.4403 23.3861V22.9806ZM52.7986 23.2266V22.9384H52.3931V23.2266H52.7986ZM52.6065 23.1408C52.974 23.1215 53.2654 23.0775 53.4552 22.9944L53.2927 22.6229C53.1751 22.6744 52.9478 22.7168 52.5852 22.7359L52.6065 23.1408ZM53.4603 22.9921C53.5725 22.9393 53.6666 22.8615 53.731 22.7554C53.7949 22.6501 53.8217 22.5302 53.8217 22.4052H53.4162C53.4162 22.4724 53.4021 22.5158 53.3844 22.5449C53.3672 22.5733 53.3387 22.6012 53.2876 22.6252L53.4603 22.9921ZM53.8217 22.4052C53.8217 22.2022 53.7521 21.9471 53.6343 21.6526L53.2578 21.8032C53.3705 22.0851 53.4162 22.2815 53.4162 22.4052H53.8217ZM53.636 21.6572L52.757 19.294L52.377 19.4353L53.256 21.7986L53.636 21.6572ZM52.567 19.1619H49.0797V19.5674H52.567V19.1619ZM48.8907 19.2915L48.2998 20.819L48.678 20.9653L49.2688 19.4378L48.8907 19.2915ZM48.2988 20.8217C48.1052 21.3443 47.998 21.7667 47.998 22.0737H48.4035C48.4035 21.8428 48.4883 21.4774 48.679 20.9625L48.2988 20.8217ZM47.998 22.0737C47.998 22.4217 48.1195 22.71 48.3909 22.8909L48.6158 22.5535C48.4837 22.4655 48.4035 22.3214 48.4035 22.0737H47.998ZM48.3945 22.8932C48.6517 23.057 49.0126 23.1311 49.4498 23.141L49.459 22.7357C49.0508 22.7264 48.7776 22.6564 48.6122 22.5512L48.3945 22.8932ZM49.2517 22.9384V23.2266H49.6571V22.9384H49.2517ZM49.4651 23.0241C48.9139 22.9951 48.3579 22.9806 47.7972 22.9806V23.3861C48.3509 23.3861 48.8998 23.4004 49.4437 23.429L49.4651 23.0241ZM47.7972 22.9806C47.3611 22.9806 46.9936 22.9951 46.6963 23.0248L46.7366 23.4283C47.0158 23.4004 47.3687 23.3861 47.7972 23.3861V22.9806ZM46.9192 23.2266V22.9384H46.5137V23.2266H46.9192ZM46.7638 23.1355C47.3392 22.9974 47.7554 22.5042 48.044 21.7578L47.6658 21.6116C47.3972 22.3062 47.0544 22.6488 46.6692 22.7412L46.7638 23.1355ZM48.0439 21.758L51.4303 13.0254L51.0522 12.8788L47.6659 21.6114L48.0439 21.758ZM51.2413 13.1549H51.4718V12.7494H51.2413V13.1549ZM51.2828 13.0254L54.7989 22.0894L55.1769 21.9428L51.6608 12.8788L51.2828 13.0254ZM52.6416 19.0053L51.0276 14.6967L50.6479 14.8389L52.2619 19.1476L52.6416 19.0053ZM50.6483 14.6956L49.0056 19.0042L49.3845 19.1487L51.0272 14.84L50.6483 14.6956ZM49.195 19.2792H52.4517V18.8737H49.195V19.2792ZM13.7688 31.8372H13.566V32.0141L13.7414 32.038L13.7688 31.8372ZM16.0312 32.7594L15.8849 32.8998L15.8863 32.9013L16.0312 32.7594ZM16.2906 35.8864L16.4598 35.998V35.998L16.2906 35.8864ZM15.0945 36.8807L15.1769 37.066L15.1797 37.0647L15.0945 36.8807ZM12.5871 37.2122L12.5978 37.0096L12.5935 37.0095L12.5871 37.2122ZM8.98461 37.2266H8.78187V37.4443L8.99905 37.4288L8.98461 37.2266ZM8.98461 36.9384L8.97336 36.7359L8.78187 36.7466V36.9384H8.98461ZM9.73393 36.8231L9.66645 36.6319L9.66275 36.6332L9.73393 36.8231ZM10.0654 27.7591L9.87419 27.8266H9.87419L10.0654 27.7591ZM9.73393 27.4277L9.66273 27.6175L9.66646 27.6188L9.73393 27.4277ZM8.98461 27.3124H8.78187V27.5042L8.97336 27.5148L8.98461 27.3124ZM8.98461 27.0242L8.99905 26.822L8.78187 26.8064V27.0242H8.98461ZM10.7426 27.0674V27.2701L10.7445 27.2701L10.7426 27.0674ZM12.2989 27.053L12.3008 27.2559L12.3096 27.2554L12.2989 27.053ZM15.1666 27.6582L15.0403 27.8168L15.0417 27.8179L15.1666 27.6582ZM15.4259 30.7996L15.268 30.6726L15.2663 30.6747L15.4259 30.7996ZM13.7688 31.8083L13.7098 31.6144L13.566 31.658V31.8083H13.7688ZM11.881 27.4132L11.7998 27.2275L11.7953 27.2295L11.881 27.4132ZM11.5784 27.7735L11.7708 27.8376V27.8376L11.5784 27.7735ZM11.492 31.8083H11.2892V32.0111H11.492V31.8083ZM14.1002 31.1743L13.9367 31.0544L13.9363 31.0551L14.1002 31.1743ZM14.6478 32.6441L14.5062 32.7892L14.5079 32.7909L14.6478 32.6441ZM11.492 32.0533V31.8506H11.2892V32.0533H11.492ZM11.5784 36.4628L11.7696 36.3953V36.3953L11.5784 36.4628ZM11.881 36.8087L11.7953 36.9924L11.8025 36.9957L11.8099 36.9985L11.881 36.8087ZM13.7414 32.038C14.7794 32.1796 15.4796 32.4773 15.8849 32.8998L16.1775 32.6191C15.6797 32.1001 14.8717 31.7829 13.7962 31.6363L13.7414 32.038ZM15.8863 32.9013C16.3002 33.324 16.5057 33.83 16.5057 34.431H16.9112C16.9112 33.7254 16.6652 33.1171 16.176 32.6176L15.8863 32.9013ZM16.5057 34.431C16.5057 34.9423 16.3763 35.388 16.1213 35.7748L16.4598 35.998C16.762 35.5395 16.9112 35.0149 16.9112 34.431H16.5057ZM16.1213 35.7748C15.866 36.1621 15.4984 36.4703 15.0093 36.6967L15.1797 37.0647C15.7281 36.8108 16.1579 36.4561 16.4598 35.998L16.1213 35.7748ZM15.0122 36.6955C14.525 36.912 13.9395 37.0238 13.25 37.0238V37.4293C13.9823 37.4293 14.6265 37.3106 15.1769 37.066L15.0122 36.6955ZM13.25 37.0238C12.9928 37.0238 12.7757 37.0191 12.5978 37.0097L12.5765 37.4146C12.7637 37.4245 12.9884 37.4293 13.25 37.4293V37.0238ZM12.5935 37.0095C11.9766 36.9902 11.3693 36.9806 10.7715 36.9806V37.3861C11.3649 37.3861 11.968 37.3956 12.5808 37.4148L12.5935 37.0095ZM10.7715 36.9806C9.98249 36.9806 9.38105 36.995 8.97016 37.0243L8.99905 37.4288C9.39513 37.4005 9.98493 37.3861 10.7715 37.3861V36.9806ZM9.18734 37.2266V36.9384H8.78187V37.2266H9.18734ZM8.99585 37.1408C9.34468 37.1214 9.62073 37.0821 9.80512 37.0129L9.66275 36.6332C9.53972 36.6794 9.31622 36.7169 8.97336 36.7359L8.99585 37.1408ZM9.80141 37.0143C10.0225 36.9362 10.1785 36.7803 10.2565 36.5591L9.87419 36.4242C9.83695 36.5297 9.77195 36.5947 9.66646 36.6319L9.80141 37.0143ZM10.2565 36.5591C10.3264 36.3612 10.3546 36.0674 10.3546 35.6991H9.94909C9.94909 36.0609 9.91961 36.2955 9.87419 36.4242L10.2565 36.5591ZM10.3546 35.6991V28.5516H9.94909V35.6991H10.3546ZM10.3546 28.5516C10.3546 28.1833 10.3264 27.8896 10.2565 27.6916L9.87419 27.8266C9.91961 27.9552 9.94909 28.1899 9.94909 28.5516H10.3546ZM10.2565 27.6916C10.1785 27.4705 10.0225 27.3145 9.80141 27.2365L9.66646 27.6188C9.77195 27.6561 9.83695 27.7211 9.87419 27.8266L10.2565 27.6916ZM9.80512 27.2378C9.62073 27.1687 9.34468 27.1293 8.99585 27.1099L8.97336 27.5148C9.31622 27.5338 9.53972 27.5714 9.66275 27.6175L9.80512 27.2378ZM9.18734 27.3124V27.0242H8.78187V27.3124H9.18734ZM8.97016 27.2264C9.38098 27.2557 9.97274 27.2701 10.7426 27.2701V26.8647C9.97546 26.8647 9.3952 26.8502 8.99905 26.822L8.97016 27.2264ZM10.7445 27.2701L12.3008 27.2557L12.2971 26.8503L10.7408 26.8647L10.7445 27.2701ZM12.3096 27.2554C12.4878 27.2461 12.6907 27.2413 12.9186 27.2413V26.8358C12.6853 26.8358 12.4751 26.8407 12.2883 26.8505L12.3096 27.2554ZM12.9186 27.2413C13.8737 27.2413 14.571 27.4431 15.0403 27.8168L15.2929 27.4996C14.7246 27.0471 13.9232 26.8358 12.9186 26.8358V27.2413ZM15.0417 27.8179C15.52 28.1918 15.7564 28.68 15.7564 29.301H16.1619C16.1619 28.5578 15.8699 27.9508 15.2914 27.4985L15.0417 27.8179ZM15.7564 29.301C15.7564 29.8111 15.595 30.266 15.268 30.6726L15.5839 30.9267C15.9678 30.4495 16.1619 29.9053 16.1619 29.301H15.7564ZM15.2663 30.6747C14.9548 31.0728 14.4448 31.3911 13.7098 31.6144L13.8277 32.0023C14.6106 31.7645 15.2054 31.4103 15.5856 30.9246L15.2663 30.6747ZM13.566 31.8083V31.8372H13.9715V31.8083H13.566ZM12.5583 27.1096C12.2509 27.1096 11.9918 27.1435 11.7998 27.2275L11.9623 27.599C12.0777 27.5485 12.2701 27.5151 12.5583 27.5151V27.1096ZM11.7953 27.2295C11.5932 27.3238 11.4585 27.4921 11.3861 27.7094L11.7708 27.8376C11.8136 27.709 11.8807 27.6371 11.9668 27.597L11.7953 27.2295ZM11.3861 27.7094C11.3179 27.914 11.2892 28.1999 11.2892 28.5516H11.6947C11.6947 28.2117 11.7237 27.9788 11.7708 27.8376L11.3861 27.7094ZM11.2892 28.5516V31.8083H11.6947V28.5516H11.2892ZM11.492 32.0111H12.4575V31.6056H11.492V32.0111ZM12.4575 32.0111C13.2759 32.0111 13.9022 31.7913 14.2642 31.2935L13.9363 31.0551C13.6834 31.4027 13.2146 31.6056 12.4575 31.6056V32.0111ZM14.2637 31.2942C14.6134 30.8173 14.7785 30.1996 14.7785 29.4595H14.373C14.373 30.1412 14.2211 30.6667 13.9367 31.0544L14.2637 31.2942ZM14.7785 29.4595C14.7785 28.7139 14.6151 28.1182 14.2515 27.7106L13.9489 27.9805C14.2194 28.2838 14.373 28.764 14.373 29.4595H14.7785ZM14.2515 27.7106C13.8803 27.2945 13.2983 27.1096 12.5583 27.1096V27.5151C13.2401 27.5151 13.686 27.6857 13.9489 27.9805L14.2515 27.7106ZM12.5727 37.0979C13.499 37.0979 14.2314 36.8814 14.7323 36.4127C15.2357 35.9416 15.4702 35.2488 15.4702 34.3734H15.0647C15.0647 35.1791 14.8501 35.7471 14.4552 36.1167C14.0579 36.4885 13.4429 36.6924 12.5727 36.6924V37.0979ZM15.4702 34.3734C15.4702 33.578 15.2529 32.9409 14.7877 32.4974L14.5079 32.7909C14.8689 33.1351 15.0647 33.6508 15.0647 34.3734H15.4702ZM14.7894 32.4991C14.3311 32.0516 13.619 31.8506 12.7024 31.8506V32.2561C13.5727 32.2561 14.1576 32.4489 14.5062 32.7892L14.7894 32.4991ZM12.7024 31.8506H11.492V32.2561H12.7024V31.8506ZM11.2892 32.0533V35.6991H11.6947V32.0533H11.2892ZM11.2892 35.6991C11.2892 36.0497 11.3176 36.333 11.3873 36.5303L11.7696 36.3953C11.724 36.266 11.6947 36.0401 11.6947 35.6991H11.2892ZM11.3873 36.5303C11.4612 36.7399 11.5972 36.8999 11.7953 36.9924L11.9668 36.625C11.8767 36.5829 11.8109 36.5124 11.7696 36.3953L11.3873 36.5303ZM11.8099 36.9985C11.9983 37.0692 12.2584 37.0979 12.5727 37.0979V36.6924C12.2722 36.6924 12.0712 36.6634 11.9522 36.6188L11.8099 36.9985ZM21.8045 27.3124L21.8158 27.5148L22.0073 27.5042V27.3124H21.8045ZM21.0408 27.4277L20.9733 27.2364L20.9696 27.2378L21.0408 27.4277ZM20.7238 27.7591L20.9149 27.8266V27.8266L20.7238 27.7591ZM20.7238 36.4916L20.9149 36.4242V36.4242L20.7238 36.4916ZM21.0408 36.8231L20.9696 37.0129L20.9733 37.0143L21.0408 36.8231ZM21.8045 36.9384H22.0073V36.7466L21.8158 36.7359L21.8045 36.9384ZM21.8045 37.2266L21.7913 37.4289L22.0073 37.443V37.2266H21.8045ZM18.1299 37.2266H17.9272V37.4443L18.1444 37.4288L18.1299 37.2266ZM18.1299 36.9384L18.1187 36.7359L17.9272 36.7466V36.9384H18.1299ZM18.8793 36.8231L18.8118 36.6319L18.8081 36.6332L18.8793 36.8231ZM19.2107 27.7591L19.0195 27.8266V27.8266L19.2107 27.7591ZM18.8793 27.4277L18.8081 27.6175L18.8118 27.6188L18.8793 27.4277ZM18.1299 27.3124H17.9272V27.5042L18.1187 27.5148L18.1299 27.3124ZM18.1299 27.0242L18.1444 26.822L17.9272 26.8064V27.0242H18.1299ZM21.8045 27.0242H22.0073V26.8081L21.7916 26.8218L21.8045 27.0242ZM21.7933 27.1099C21.4434 27.1294 21.1649 27.1688 20.9733 27.2365L21.1083 27.6188C21.2432 27.5712 21.474 27.5338 21.8158 27.5148L21.7933 27.1099ZM20.9696 27.2378C20.7563 27.3178 20.6089 27.4753 20.5326 27.6916L20.9149 27.8266C20.9539 27.7162 21.0178 27.6528 21.112 27.6175L20.9696 27.2378ZM20.5326 27.6916C20.4627 27.8896 20.4346 28.1833 20.4346 28.5516H20.84C20.84 28.1899 20.8695 27.9552 20.9149 27.8266L20.5326 27.6916ZM20.4346 28.5516V35.6991H20.84V28.5516H20.4346ZM20.4346 35.6991C20.4346 36.0674 20.4627 36.3612 20.5326 36.5591L20.9149 36.4242C20.8695 36.2955 20.84 36.0609 20.84 35.6991H20.4346ZM20.5326 36.5591C20.6089 36.7754 20.7563 36.9329 20.9696 37.0129L21.112 36.6332C21.0178 36.5979 20.9539 36.5345 20.9149 36.4242L20.5326 36.5591ZM20.9733 37.0143C21.1649 37.0819 21.4434 37.1213 21.7933 37.1408L21.8158 36.7359C21.474 36.7169 21.2432 36.6795 21.1083 36.6319L20.9733 37.0143ZM21.6018 36.9384V37.2266H22.0073V36.9384H21.6018ZM21.8177 37.0243C21.3693 36.995 20.7542 36.9806 19.9744 36.9806V37.3861C20.7509 37.3861 21.3559 37.4005 21.7913 37.4289L21.8177 37.0243ZM19.9744 36.9806C19.1473 36.9806 18.5265 36.995 18.1155 37.0243L18.1444 37.4288C18.5403 37.4005 19.1492 37.3861 19.9744 37.3861V36.9806ZM18.3327 37.2266V36.9384H17.9272V37.2266H18.3327ZM18.1412 37.1408C18.49 37.1214 18.766 37.0821 18.9504 37.0129L18.8081 36.6332C18.685 36.6794 18.4615 36.7169 18.1187 36.7359L18.1412 37.1408ZM18.9467 37.0143C19.1679 36.9362 19.3238 36.7803 19.4019 36.5591L19.0195 36.4242C18.9823 36.5297 18.9173 36.5947 18.8118 36.6319L18.9467 37.0143ZM19.4019 36.5591C19.4717 36.3612 19.4999 36.0674 19.4999 35.6991H19.0944C19.0944 36.0609 19.0649 36.2955 19.0195 36.4242L19.4019 36.5591ZM19.4999 35.6991V28.5516H19.0944V35.6991H19.4999ZM19.4999 28.5516C19.4999 28.1833 19.4717 27.8896 19.4019 27.6916L19.0195 27.8266C19.0649 27.9552 19.0944 28.1899 19.0944 28.5516H19.4999ZM19.4019 27.6916C19.3238 27.4705 19.1679 27.3145 18.9467 27.2365L18.8118 27.6188C18.9173 27.6561 18.9823 27.7211 19.0195 27.8266L19.4019 27.6916ZM18.9504 27.2378C18.766 27.1687 18.49 27.1293 18.1412 27.1099L18.1187 27.5148C18.4615 27.5338 18.685 27.5714 18.8081 27.6175L18.9504 27.2378ZM18.3327 27.3124V27.0242H17.9272V27.3124H18.3327ZM18.1155 27.2264C18.5265 27.2558 19.1473 27.2701 19.9744 27.2701V26.8647C19.1492 26.8647 18.5403 26.8502 18.1444 26.822L18.1155 27.2264ZM19.9744 27.2701C20.7448 27.2701 21.3597 27.2557 21.8174 27.2265L21.7916 26.8218C21.3463 26.8503 20.7412 26.8647 19.9744 26.8647V27.2701ZM21.6018 27.0242V27.3124H22.0073V27.0242H21.6018ZM28.0629 31.8372H27.8601V32.0141L28.0355 32.038L28.0629 31.8372ZM30.3252 32.7594L30.1789 32.8998L30.1804 32.9013L30.3252 32.7594ZM30.5846 35.8864L30.7539 35.998V35.998L30.5846 35.8864ZM29.3886 36.8807L29.4709 37.066L29.4738 37.0647L29.3886 36.8807ZM26.8812 37.2122L26.8919 37.0096L26.8876 37.0095L26.8812 37.2122ZM23.2787 37.2266H23.0759V37.4443L23.2931 37.4288L23.2787 37.2266ZM23.2787 36.9384L23.2674 36.7359L23.0759 36.7466V36.9384H23.2787ZM24.028 36.8231L23.9605 36.6319L23.9568 36.6332L24.028 36.8231ZM24.3594 27.7591L24.1683 27.8266V27.8266L24.3594 27.7591ZM24.028 27.4277L23.9568 27.6175L23.9605 27.6188L24.028 27.4277ZM23.2787 27.3124H23.0759V27.5042L23.2674 27.5148L23.2787 27.3124ZM23.2787 27.0242L23.2931 26.822L23.0759 26.8064V27.0242H23.2787ZM25.0367 27.0674V27.2701L25.0386 27.2701L25.0367 27.0674ZM26.593 27.053L26.5949 27.2559L26.6037 27.2554L26.593 27.053ZM29.4606 27.6582L29.3343 27.8168L29.3358 27.8179L29.4606 27.6582ZM29.72 30.7996L29.562 30.6726L29.5604 30.6747L29.72 30.7996ZM28.0629 31.8083L28.0039 31.6144L27.8601 31.658V31.8083H28.0629ZM26.1751 27.4132L26.0938 27.2275L26.0894 27.2295L26.1751 27.4132ZM25.8725 27.7735L26.0648 27.8376V27.8376L25.8725 27.7735ZM25.786 31.8083H25.5833V32.0111H25.786V31.8083ZM28.3943 31.1743L28.2308 31.0544L28.2303 31.0551L28.3943 31.1743ZM28.9419 32.6441L28.8002 32.7892L28.802 32.7909L28.9419 32.6441ZM25.786 32.0533V31.8506H25.5833V32.0533H25.786ZM25.8725 36.4628L26.0637 36.3953V36.3953L25.8725 36.4628ZM26.1751 36.8087L26.0894 36.9924L26.0965 36.9957L26.1039 36.9985L26.1751 36.8087ZM28.0355 32.038C29.0735 32.1796 29.7737 32.4773 30.1789 32.8998L30.4716 32.6191C29.9738 32.1001 29.1657 31.7829 28.0902 31.6363L28.0355 32.038ZM30.1804 32.9013C30.5943 33.324 30.7998 33.83 30.7998 34.431H31.2053C31.2053 33.7254 30.9592 33.1171 30.4701 32.6176L30.1804 32.9013ZM30.7998 34.431C30.7998 34.9423 30.6703 35.388 30.4154 35.7748L30.7539 35.998C31.0561 35.5395 31.2053 35.0149 31.2053 34.431H30.7998ZM30.4154 35.7748C30.1601 36.1621 29.7925 36.4703 29.3034 36.6967L29.4738 37.0647C30.0222 36.8108 30.452 36.4561 30.7539 35.998L30.4154 35.7748ZM29.3062 36.6955C28.8191 36.912 28.2336 37.0238 27.5441 37.0238V37.4293C28.2764 37.4293 28.9206 37.3106 29.4709 37.066L29.3062 36.6955ZM27.5441 37.0238C27.2869 37.0238 27.0697 37.0191 26.8919 37.0097L26.8706 37.4146C27.0578 37.4245 27.2825 37.4293 27.5441 37.4293V37.0238ZM26.8876 37.0095C26.2707 36.9902 25.6633 36.9806 25.0655 36.9806V37.3861C25.659 37.3861 26.2621 37.3956 26.8749 37.4148L26.8876 37.0095ZM25.0655 36.9806C24.2766 36.9806 23.6751 36.995 23.2642 37.0243L23.2931 37.4288C23.6892 37.4005 24.279 37.3861 25.0655 37.3861V36.9806ZM23.4814 37.2266V36.9384H23.0759V37.2266H23.4814ZM23.2899 37.1408C23.6388 37.1214 23.9148 37.0821 24.0992 37.0129L23.9568 36.6332C23.8338 36.6794 23.6103 36.7169 23.2674 36.7359L23.2899 37.1408ZM24.0955 37.0143C24.3166 36.9362 24.4726 36.7803 24.5506 36.5591L24.1683 36.4242C24.131 36.5297 24.066 36.5947 23.9605 36.6319L24.0955 37.0143ZM24.5506 36.5591C24.6205 36.3612 24.6486 36.0674 24.6486 35.6991H24.2432C24.2432 36.0609 24.2137 36.2955 24.1683 36.4242L24.5506 36.5591ZM24.6486 35.6991V28.5516H24.2432V35.6991H24.6486ZM24.6486 28.5516C24.6486 28.1833 24.6205 27.8896 24.5506 27.6916L24.1683 27.8266C24.2137 27.9552 24.2432 28.1899 24.2432 28.5516H24.6486ZM24.5506 27.6916C24.4726 27.4705 24.3166 27.3145 24.0955 27.2365L23.9605 27.6188C24.066 27.6561 24.131 27.7211 24.1683 27.8266L24.5506 27.6916ZM24.0992 27.2378C23.9148 27.1687 23.6388 27.1293 23.2899 27.1099L23.2674 27.5148C23.6103 27.5338 23.8338 27.5714 23.9568 27.6175L24.0992 27.2378ZM23.4814 27.3124V27.0242H23.0759V27.3124H23.4814ZM23.2642 27.2264C23.6751 27.2557 24.2668 27.2701 25.0367 27.2701V26.8647C24.2695 26.8647 23.6893 26.8502 23.2931 26.822L23.2642 27.2264ZM25.0386 27.2701L26.5949 27.2557L26.5911 26.8503L25.0348 26.8647L25.0386 27.2701ZM26.6037 27.2554C26.7819 27.2461 26.9848 27.2413 27.2127 27.2413V26.8358C26.9794 26.8358 26.7692 26.8407 26.5824 26.8505L26.6037 27.2554ZM27.2127 27.2413C28.1678 27.2413 28.8651 27.4431 29.3343 27.8168L29.5869 27.4996C29.0187 27.0471 28.2173 26.8358 27.2127 26.8358V27.2413ZM29.3358 27.8179C29.814 28.1918 30.0505 28.68 30.0505 29.301H30.4559C30.4559 28.5578 30.164 27.9508 29.5855 27.4985L29.3358 27.8179ZM30.0505 29.301C30.0505 29.8111 29.8891 30.266 29.562 30.6726L29.878 30.9267C30.2619 30.4495 30.4559 29.9053 30.4559 29.301H30.0505ZM29.5604 30.6747C29.2488 31.0728 28.7389 31.3911 28.0039 31.6144L28.1218 32.0023C28.9047 31.7645 29.4995 31.4103 29.8797 30.9246L29.5604 30.6747ZM27.8601 31.8083V31.8372H28.2656V31.8083H27.8601ZM26.8524 27.1096C26.545 27.1096 26.2859 27.1435 26.0939 27.2275L26.2564 27.599C26.3718 27.5485 26.5642 27.5151 26.8524 27.5151V27.1096ZM26.0894 27.2295C25.8873 27.3238 25.7526 27.4921 25.6802 27.7094L26.0648 27.8376C26.1077 27.709 26.1747 27.6371 26.2609 27.597L26.0894 27.2295ZM25.6802 27.7094C25.612 27.914 25.5833 28.1999 25.5833 28.5516H25.9888C25.9888 28.2117 26.0178 27.9788 26.0648 27.8376L25.6802 27.7094ZM25.5833 28.5516V31.8083H25.9888V28.5516H25.5833ZM25.786 32.0111H26.7515V31.6056H25.786V32.0111ZM26.7515 32.0111C27.5699 32.0111 28.1962 31.7913 28.5582 31.2935L28.2303 31.0551C27.9775 31.4027 27.5086 31.6056 26.7515 31.6056V32.0111ZM28.5578 31.2942C28.9075 30.8173 29.0726 30.1996 29.0726 29.4595H28.6671C28.6671 30.1412 28.5152 30.6667 28.2308 31.0544L28.5578 31.2942ZM29.0726 29.4595C29.0726 28.7139 28.9091 28.1182 28.5456 27.7106L28.243 27.9805C28.5135 28.2838 28.6671 28.764 28.6671 29.4595H29.0726ZM28.5456 27.7106C28.1744 27.2945 27.5924 27.1096 26.8524 27.1096V27.5151C27.5342 27.5151 27.9801 27.6857 28.243 27.9805L28.5456 27.7106ZM26.8668 37.0979C27.7931 37.0979 28.5255 36.8814 29.0264 36.4127C29.5297 35.9416 29.7642 35.2488 29.7642 34.3734H29.3588C29.3588 35.1791 29.1442 35.7471 28.7493 36.1167C28.3519 36.4885 27.737 36.6924 26.8668 36.6924V37.0979ZM29.7642 34.3734C29.7642 33.578 29.547 32.9409 29.0818 32.4974L28.802 32.7909C29.163 33.1351 29.3588 33.6508 29.3588 34.3734H29.7642ZM29.0835 32.4991C28.6251 32.0516 27.9131 31.8506 26.9965 31.8506V32.2561C27.8668 32.2561 28.4516 32.4489 28.8003 32.7892L29.0835 32.4991ZM26.9965 31.8506H25.786V32.2561H26.9965V31.8506ZM25.5833 32.0533V35.6991H25.9888V32.0533H25.5833ZM25.5833 35.6991C25.5833 36.0497 25.6117 36.333 25.6813 36.5303L26.0637 36.3953C26.018 36.266 25.9888 36.0401 25.9888 35.6991H25.5833ZM25.6813 36.5303C25.7553 36.7399 25.8913 36.8999 26.0894 36.9924L26.2609 36.625C26.1707 36.5829 26.105 36.5124 26.0637 36.3953L25.6813 36.5303ZM26.1039 36.9985C26.2924 37.0692 26.5525 37.0979 26.8668 37.0979V36.6924C26.5663 36.6924 26.3653 36.6634 26.2463 36.6188L26.1039 36.9985ZM36.0986 27.3124L36.1098 27.5148L36.3013 27.5042V27.3124H36.0986ZM35.3349 27.4277L35.2674 27.2364L35.2637 27.2378L35.3349 27.4277ZM35.0178 27.7591L35.209 27.8266V27.8266L35.0178 27.7591ZM35.0178 36.4916L35.209 36.4242V36.4242L35.0178 36.4916ZM35.3349 36.8231L35.2637 37.0129L35.2706 37.0155L35.2776 37.0176L35.3349 36.8231ZM38.5051 36.6502L38.6002 36.8292L38.6022 36.8281L38.5051 36.6502ZM39.1968 35.8288L39.386 35.9016V35.9016L39.1968 35.8288ZM39.5138 34.2004V33.9977H39.3293L39.312 34.1813L39.5138 34.2004ZM39.8452 34.2004L40.047 34.22L40.0685 33.9977H39.8452V34.2004ZM39.9029 37.2266L39.8939 37.4291L40.1276 37.4394L40.1046 37.2067L39.9029 37.2266ZM32.424 37.2266H32.2213V37.4356L32.4302 37.4292L32.424 37.2266ZM32.424 36.9384L32.4128 36.7359L32.2213 36.7466V36.9384H32.424ZM33.1733 36.8231L33.1058 36.6319L33.1021 36.6332L33.1733 36.8231ZM33.5048 27.7591L33.3136 27.8266V27.8266L33.5048 27.7591ZM33.1733 27.4277L33.1021 27.6175L33.1059 27.6188L33.1733 27.4277ZM32.424 27.3124H32.2213V27.5042L32.4128 27.5148L32.424 27.3124ZM32.424 27.0242L32.4384 26.822L32.2213 26.8064V27.0242H32.424ZM36.0986 27.0242H36.3013V26.8081L36.0857 26.8218L36.0986 27.0242ZM36.0873 27.1099C35.7374 27.1294 35.459 27.1688 35.2674 27.2365L35.4023 27.6188C35.5373 27.5712 35.768 27.5338 36.1098 27.5148L36.0873 27.1099ZM35.2637 27.2378C35.0504 27.3178 34.903 27.4753 34.8267 27.6916L35.209 27.8266C35.248 27.7162 35.3119 27.6528 35.406 27.6175L35.2637 27.2378ZM34.8267 27.6916C34.7568 27.8896 34.7286 28.1833 34.7286 28.5516H35.1341C35.1341 28.1899 35.1636 27.9552 35.209 27.8266L34.8267 27.6916ZM34.7286 28.5516V35.6991H35.1341V28.5516H34.7286ZM34.7286 35.6991C34.7286 36.0674 34.7568 36.3612 34.8267 36.5591L35.209 36.4242C35.1636 36.2955 35.1341 36.0609 35.1341 35.6991H34.7286ZM34.8267 36.5591C34.903 36.7754 35.0504 36.9329 35.2637 37.0129L35.406 36.6332C35.3119 36.5979 35.248 36.5345 35.209 36.4242L34.8267 36.5591ZM35.2776 37.0176C35.4702 37.0742 35.749 37.0979 36.0986 37.0979V36.6924C35.7565 36.6924 35.5262 36.668 35.3921 36.6286L35.2776 37.0176ZM36.0986 37.0979H37.1505V36.6924H36.0986V37.0979ZM37.1505 37.0979C37.7588 37.0979 38.2496 37.0155 38.6002 36.8292L38.41 36.4711C38.1458 36.6115 37.7335 36.6924 37.1505 36.6924V37.0979ZM38.6022 36.8281C38.9662 36.6296 39.2267 36.3157 39.386 35.9016L39.0076 35.756C38.8787 36.0911 38.678 36.3249 38.408 36.4722L38.6022 36.8281ZM39.386 35.9016C39.54 35.5012 39.6478 34.9369 39.7156 34.2195L39.312 34.1813C39.2453 34.8858 39.1418 35.407 39.0076 35.756L39.386 35.9016ZM39.5138 34.4032H39.8452V33.9977H39.5138V34.4032ZM39.6434 34.1809C39.6137 34.488 39.5993 34.8891 39.5993 35.3821H40.0047C40.0047 34.8951 40.0191 34.5085 40.047 34.22L39.6434 34.1809ZM39.5993 35.3821C39.5993 35.9377 39.6334 36.5593 39.7011 37.2465L40.1046 37.2067C40.0379 36.5296 40.0047 35.9216 40.0047 35.3821H39.5993ZM39.9118 37.024C39.2536 36.995 38.1497 36.9806 36.6029 36.9806V37.3861C38.1496 37.3861 39.2456 37.4005 39.8939 37.4291L39.9118 37.024ZM36.6029 36.9806C34.7579 36.9806 33.3625 36.995 32.4178 37.0239L32.4302 37.4292C33.3685 37.4005 34.759 37.3861 36.6029 37.3861V36.9806ZM32.6267 37.2266V36.9384H32.2213V37.2266H32.6267ZM32.4352 37.1408C32.7841 37.1214 33.0601 37.0821 33.2445 37.0129L33.1021 36.6332C32.9791 36.6794 32.7556 36.7169 32.4128 36.7359L32.4352 37.1408ZM33.2408 37.0143C33.4619 36.9362 33.6179 36.7803 33.6959 36.5591L33.3136 36.4242C33.2764 36.5297 33.2114 36.5947 33.1059 36.6319L33.2408 37.0143ZM33.6959 36.5591C33.7658 36.3612 33.794 36.0674 33.794 35.6991H33.3885C33.3885 36.0609 33.359 36.2955 33.3136 36.4242L33.6959 36.5591ZM33.794 35.6991V28.5516H33.3885V35.6991H33.794ZM33.794 28.5516C33.794 28.1833 33.7658 27.8896 33.6959 27.6916L33.3136 27.8266C33.359 27.9552 33.3885 28.1899 33.3885 28.5516H33.794ZM33.6959 27.6916C33.6179 27.4705 33.4619 27.3145 33.2408 27.2365L33.1059 27.6188C33.2114 27.6561 33.2764 27.7211 33.3136 27.8266L33.6959 27.6916ZM33.2445 27.2378C33.0601 27.1687 32.7841 27.1293 32.4352 27.1099L32.4128 27.5148C32.7556 27.5338 32.9791 27.5714 33.1021 27.6175L33.2445 27.2378ZM32.6267 27.3124V27.0242H32.2213V27.3124H32.6267ZM32.4096 27.2264C32.8206 27.2558 33.4414 27.2701 34.2685 27.2701V26.8647C33.4433 26.8647 32.8344 26.8502 32.4384 26.822L32.4096 27.2264ZM34.2685 27.2701C35.0388 27.2701 35.6537 27.2557 36.1115 27.2265L36.0857 26.8218C35.6404 26.8503 35.0353 26.8647 34.2685 26.8647V27.2701ZM35.8959 27.0242V27.3124H36.3013V27.0242H35.8959ZM44.8358 27.3124L44.8471 27.5148L45.0386 27.5042V27.3124H44.8358ZM44.0721 27.4277L44.0046 27.2364L44.0009 27.2378L44.0721 27.4277ZM43.7551 27.7591L43.9462 27.8266V27.8266L43.7551 27.7591ZM43.7551 36.4916L43.9462 36.4242V36.4242L43.7551 36.4916ZM44.0721 36.8231L44.0009 37.0129L44.0046 37.0143L44.0721 36.8231ZM44.8358 36.9384H45.0386V36.7466L44.8471 36.7359L44.8358 36.9384ZM44.8358 37.2266L44.8226 37.4289L45.0386 37.443V37.2266H44.8358ZM41.1612 37.2266H40.9585V37.4443L41.1757 37.4288L41.1612 37.2266ZM41.1612 36.9384L41.15 36.7359L40.9585 36.7466V36.9384H41.1612ZM41.9105 36.8231L41.8431 36.6319L41.8394 36.6332L41.9105 36.8231ZM42.242 27.7591L42.0508 27.8266V27.8266L42.242 27.7591ZM41.9105 27.4277L41.8394 27.6175L41.8431 27.6188L41.9105 27.4277ZM41.1612 27.3124H40.9585V27.5042L41.15 27.5148L41.1612 27.3124ZM41.1612 27.0242L41.1757 26.822L40.9585 26.8064V27.0242H41.1612ZM44.8358 27.0242H45.0386V26.8081L44.8229 26.8218L44.8358 27.0242ZM44.8246 27.1099C44.4747 27.1294 44.1962 27.1688 44.0046 27.2365L44.1395 27.6188C44.2745 27.5712 44.5053 27.5338 44.8471 27.5148L44.8246 27.1099ZM44.0009 27.2378C43.7876 27.3178 43.6402 27.4753 43.5639 27.6916L43.9462 27.8266C43.9852 27.7162 44.0491 27.6528 44.1433 27.6175L44.0009 27.2378ZM43.5639 27.6916C43.494 27.8896 43.4659 28.1833 43.4659 28.5516H43.8713C43.8713 28.1899 43.9008 27.9552 43.9462 27.8266L43.5639 27.6916ZM43.4659 28.5516V35.6991H43.8713V28.5516H43.4659ZM43.4659 35.6991C43.4659 36.0674 43.494 36.3612 43.5639 36.5591L43.9462 36.4242C43.9008 36.2955 43.8713 36.0609 43.8713 35.6991H43.4659ZM43.5639 36.5591C43.6402 36.7754 43.7876 36.9329 44.0009 37.0129L44.1433 36.6332C44.0491 36.5979 43.9852 36.5345 43.9462 36.4242L43.5639 36.5591ZM44.0046 37.0143C44.1962 37.0819 44.4747 37.1213 44.8246 37.1408L44.8471 36.7359C44.5053 36.7169 44.2745 36.6795 44.1395 36.6319L44.0046 37.0143ZM44.6331 36.9384V37.2266H45.0386V36.9384H44.6331ZM44.849 37.0243C44.4006 36.995 43.7855 36.9806 43.0057 36.9806V37.3861C43.7822 37.3861 44.3872 37.4005 44.8226 37.4289L44.849 37.0243ZM43.0057 36.9806C42.1786 36.9806 41.5578 36.995 41.1468 37.0243L41.1757 37.4288C41.5716 37.4005 42.1805 37.3861 43.0057 37.3861V36.9806ZM41.364 37.2266V36.9384H40.9585V37.2266H41.364ZM41.1725 37.1408C41.5213 37.1214 41.7973 37.0821 41.9817 37.0129L41.8394 36.6332C41.7163 36.6794 41.4928 36.7169 41.15 36.7359L41.1725 37.1408ZM41.978 37.0143C42.1992 36.9362 42.3551 36.7803 42.4332 36.5591L42.0508 36.4242C42.0136 36.5297 41.9486 36.5947 41.8431 36.6319L41.978 37.0143ZM42.4332 36.5591C42.503 36.3612 42.5312 36.0674 42.5312 35.6991H42.1257C42.1257 36.0609 42.0962 36.2955 42.0508 36.4242L42.4332 36.5591ZM42.5312 35.6991V28.5516H42.1257V35.6991H42.5312ZM42.5312 28.5516C42.5312 28.1833 42.503 27.8896 42.4332 27.6916L42.0508 27.8266C42.0962 27.9552 42.1257 28.1899 42.1257 28.5516H42.5312ZM42.4332 27.6916C42.3551 27.4705 42.1992 27.3145 41.978 27.2365L41.8431 27.6188C41.9486 27.6561 42.0136 27.7211 42.0508 27.8266L42.4332 27.6916ZM41.9817 27.2378C41.7973 27.1687 41.5213 27.1293 41.1725 27.1099L41.15 27.5148C41.4928 27.5338 41.7163 27.5714 41.8394 27.6175L41.9817 27.2378ZM41.364 27.3124V27.0242H40.9585V27.3124H41.364ZM41.1468 27.2264C41.5578 27.2558 42.1786 27.2701 43.0057 27.2701V26.8647C42.1805 26.8647 41.5716 26.8502 41.1757 26.822L41.1468 27.2264ZM43.0057 27.2701C43.7761 27.2701 44.391 27.2557 44.8487 27.2265L44.8229 26.8218C44.3776 26.8503 43.7725 26.8647 43.0057 26.8647V27.2701ZM44.6331 27.0242V27.3124H45.0386V27.0242H44.6331ZM45.4165 39.6619L45.4108 39.4592L45.2138 39.4649V39.6619H45.4165ZM46.9008 38.9125L46.7331 38.7985L46.7316 38.8009L46.9008 38.9125ZM47.3043 27.7591L47.1131 27.8266V27.8266L47.3043 27.7591ZM46.9728 27.4277L46.9016 27.6175L46.9054 27.6188L46.9728 27.4277ZM46.2235 27.3124H46.0208V27.5042L46.2123 27.5148L46.2235 27.3124ZM46.2235 27.0242L46.238 26.822L46.0208 26.8064V27.0242H46.2235ZM49.8981 27.0242H50.1008V26.8081L49.8852 26.8218L49.8981 27.0242ZM49.8981 27.3124L49.9094 27.5148L50.1008 27.5042V27.3124H49.8981ZM49.1344 27.4277L49.0669 27.2364L49.0632 27.2378L49.1344 27.4277ZM48.8173 27.7591L49.0085 27.8266V27.8266L48.8173 27.7591ZM48.6877 36.0017L48.8902 36.011L48.8902 36.0109L48.6877 36.0017ZM48.4859 37.5868L48.6828 37.6354L48.6828 37.635L48.4859 37.5868ZM47.4196 39.2872L47.2926 39.1292L47.2912 39.1303L47.4196 39.2872ZM45.4165 39.9357H45.2138V40.1384H45.4165V39.9357ZM45.4223 39.8645C46.1481 39.8438 46.7101 39.5696 47.07 39.0242L46.7316 38.8009C46.4575 39.2162 46.03 39.4415 45.4108 39.4592L45.4223 39.8645ZM47.0684 39.0266C47.4312 38.493 47.5935 37.6283 47.5935 36.4772H47.188C47.188 37.6126 47.0236 38.3714 46.7331 38.7985L47.0684 39.0266ZM47.5935 36.4772V28.5516H47.188V36.4772H47.5935ZM47.5935 28.5516C47.5935 28.1833 47.5653 27.8896 47.4955 27.6916L47.1131 27.8266C47.1585 27.9552 47.188 28.1899 47.188 28.5516H47.5935ZM47.4955 27.6916C47.4174 27.4705 47.2615 27.3145 47.0403 27.2365L46.9054 27.6188C47.0109 27.6561 47.0759 27.7211 47.1131 27.8266L47.4955 27.6916ZM47.044 27.2378C46.8596 27.1687 46.5836 27.1293 46.2348 27.1099L46.2123 27.5148C46.5551 27.5338 46.7786 27.5714 46.9017 27.6175L47.044 27.2378ZM46.4263 27.3124V27.0242H46.0208V27.3124H46.4263ZM46.2091 27.2264C46.62 27.2557 47.2311 27.2701 48.0392 27.2701V26.8647C47.2333 26.8647 46.634 26.8502 46.238 26.822L46.2091 27.2264ZM48.0392 27.2701C48.8286 27.2701 49.4532 27.2557 49.911 27.2265L49.8852 26.8218C49.44 26.8503 48.8253 26.8647 48.0392 26.8647V27.2701ZM49.6954 27.0242V27.3124H50.1008V27.0242H49.6954ZM49.8869 27.1099C49.537 27.1294 49.2585 27.1688 49.0669 27.2365L49.2018 27.6188C49.3368 27.5712 49.5676 27.5338 49.9094 27.5148L49.8869 27.1099ZM49.0632 27.2378C48.8499 27.3178 48.7025 27.4753 48.6262 27.6916L49.0085 27.8266C49.0475 27.7162 49.1114 27.6528 49.2056 27.6175L49.0632 27.2378ZM48.6262 27.6916C48.5563 27.8896 48.5281 28.1833 48.5281 28.5516H48.9336C48.9336 28.1899 48.9631 27.9552 49.0085 27.8266L48.6262 27.6916ZM48.5281 28.5516V33.8258H48.9336V28.5516H48.5281ZM48.5281 33.8258C48.5281 34.6401 48.5138 35.3622 48.4851 35.9925L48.8902 36.0109C48.9192 35.3731 48.9336 34.6446 48.9336 33.8258H48.5281ZM48.4851 35.9924C48.4567 36.6085 48.3906 37.123 48.289 37.5387L48.6828 37.635C48.7926 37.186 48.861 36.6438 48.8902 36.011L48.4851 35.9924ZM48.2891 37.5383C48.1263 38.1986 47.7942 38.7261 47.2926 39.1292L47.5466 39.4452C48.1209 38.9837 48.4997 38.3777 48.6828 37.6354L48.2891 37.5383ZM47.2912 39.1303C46.8054 39.5278 46.1856 39.7329 45.4165 39.7329V40.1384C46.2614 40.1384 46.977 39.9112 47.5479 39.4441L47.2912 39.1303ZM45.6193 39.9357V39.6619H45.2138V39.9357H45.6193ZM58.7145 36.0161L58.9035 35.9429L58.9035 35.9428L58.7145 36.0161ZM59.7088 36.9384H59.9115V36.7444L59.7178 36.7358L59.7088 36.9384ZM59.7088 37.2266L59.6936 37.4287L59.9115 37.4451V37.2266H59.7088ZM56.3224 37.2266H56.1196V37.4443L56.3368 37.4288L56.3224 37.2266ZM56.3224 36.9384L56.3117 36.7359L56.1196 36.746V36.9384H56.3224ZM57.1005 36.8087L57.1818 36.9945L57.1869 36.9921L57.1005 36.8087ZM57.1726 35.7279L56.9825 35.7986L56.9843 35.8032L57.1726 35.7279ZM56.2936 33.3646L56.4836 33.294L56.4345 33.1619H56.2936V33.3646ZM52.8063 33.3646V33.1619H52.6673L52.6172 33.2915L52.8063 33.3646ZM52.2155 34.8921L52.0264 34.819L52.0254 34.8217L52.2155 34.8921ZM52.2299 36.7222L52.1174 36.8909L52.1211 36.8932L52.2299 36.7222ZM53.181 36.9384H53.3837V36.7402L53.1856 36.7357L53.181 36.9384ZM53.181 37.2266L53.1703 37.429L53.3837 37.4403V37.2266H53.181ZM50.443 37.2266H50.2403V37.4506L50.4632 37.4283L50.443 37.2266ZM50.443 36.9384L50.3957 36.7412L50.2403 36.7785V36.9384H50.443ZM51.5814 35.6847L51.3924 35.6114L51.3923 35.6116L51.5814 35.6847ZM54.9678 26.9521V26.7494H54.829L54.7788 26.8788L54.9678 26.9521ZM55.1984 26.9521L55.3874 26.8788L55.3372 26.7494H55.1984V26.9521ZM56.1783 33.0764V33.2792H56.4707L56.3681 33.0053L56.1783 33.0764ZM54.5643 28.7678L54.7542 28.6967L54.566 28.1943L54.3749 28.6956L54.5643 28.7678ZM52.9216 33.0764L52.7322 33.0042L52.6273 33.2792H52.9216V33.0764ZM58.5254 36.0893C58.7691 36.7188 59.1508 37.1165 59.6998 37.1409L59.7178 36.7358C59.4022 36.7218 59.121 36.5046 58.9035 35.9429L58.5254 36.0893ZM59.506 36.9384V37.2266H59.9115V36.9384H59.506ZM59.7239 37.0244C59.3324 36.995 58.8127 36.9806 58.1669 36.9806V37.3861C58.8083 37.3861 59.3166 37.4005 59.6936 37.4287L59.7239 37.0244ZM58.1669 36.9806C57.3398 36.9806 56.719 36.995 56.3079 37.0243L56.3368 37.4288C56.7328 37.4005 57.3416 37.3861 58.1669 37.3861V36.9806ZM56.5251 37.2266V36.9384H56.1196V37.2266H56.5251ZM56.333 37.1408C56.7006 37.1215 56.9919 37.0775 57.1818 36.9944L57.0193 36.6229C56.9017 36.6744 56.6743 36.7168 56.3117 36.7359L56.333 37.1408ZM57.1869 36.9921C57.2991 36.9393 57.3931 36.8615 57.4576 36.7554C57.5215 36.6501 57.5482 36.5302 57.5482 36.4052H57.1428C57.1428 36.4724 57.1287 36.5158 57.111 36.5449C57.0937 36.5733 57.0653 36.6012 57.0142 36.6252L57.1869 36.9921ZM57.5482 36.4052C57.5482 36.2022 57.4786 35.9471 57.3608 35.6526L56.9843 35.8032C57.0971 36.0851 57.1428 36.2815 57.1428 36.4052H57.5482ZM57.3626 35.6572L56.4836 33.294L56.1035 33.4353L56.9826 35.7986L57.3626 35.6572ZM56.2936 33.1619H52.8063V33.5674H56.2936V33.1619ZM52.6172 33.2915L52.0264 34.819L52.4046 34.9653L52.9954 33.4378L52.6172 33.2915ZM52.0254 34.8217C51.8318 35.3443 51.7245 35.7667 51.7245 36.0737H52.13C52.13 35.8428 52.2149 35.4774 52.4056 34.9625L52.0254 34.8217ZM51.7245 36.0737C51.7245 36.4217 51.846 36.71 52.1174 36.8909L52.3424 36.5535C52.2103 36.4655 52.13 36.3214 52.13 36.0737H51.7245ZM52.1211 36.8932C52.3783 37.057 52.7392 37.1311 53.1764 37.141L53.1856 36.7357C52.7773 36.7264 52.5042 36.6564 52.3387 36.5512L52.1211 36.8932ZM52.9782 36.9384V37.2266H53.3837V36.9384H52.9782ZM53.1916 37.0241C52.6404 36.9951 52.0845 36.9806 51.5238 36.9806V37.3861C52.0775 37.3861 52.6263 37.4004 53.1703 37.429L53.1916 37.0241ZM51.5238 36.9806C51.0877 36.9806 50.7202 36.9951 50.4229 37.0248L50.4632 37.4283C50.7423 37.4004 51.0953 37.3861 51.5238 37.3861V36.9806ZM50.6458 37.2266V36.9384H50.2403V37.2266H50.6458ZM50.4904 37.1355C51.0657 36.9974 51.4819 36.5042 51.7705 35.7578L51.3923 35.6116C51.1238 36.3062 50.781 36.6488 50.3957 36.7412L50.4904 37.1355ZM51.7705 35.758L55.1569 27.0254L54.7788 26.8788L51.3924 35.6114L51.7705 35.758ZM54.9678 27.1549H55.1984V26.7494H54.9678V27.1549ZM55.0094 27.0254L58.5255 36.0894L58.9035 35.9428L55.3874 26.8788L55.0094 27.0254ZM56.3681 33.0053L54.7542 28.6967L54.3745 28.8389L55.9884 33.1476L56.3681 33.0053ZM54.3749 28.6956L52.7322 33.0042L53.111 33.1487L54.7538 28.84L54.3749 28.6956ZM52.9216 33.2792H56.1783V32.8737H52.9216V33.2792Z" fill="#FEF5EB" mask="url(#path-5-outside-1_23632_22669)"/>
</g>
</g>
<defs>
<linearGradient id="paint0_linear_23632_22669" x1="34" y1="-1.04141e-05" x2="34" y2="68" gradientUnits="userSpaceOnUse">
<stop stop-color="#C93D34"/>
<stop offset="1" stop-color="#7A2629"/>
</linearGradient>
<linearGradient id="paint1_linear_23632_22669" x1="34" y1="-1.04141e-05" x2="34" y2="68" gradientUnits="userSpaceOnUse">
<stop stop-color="#C93D34"/>
<stop offset="1" stop-color="#7A2629"/>
</linearGradient>
<clipPath id="clip0_23632_22669">
<rect width="68" height="68" fill="white"/>
</clipPath>
</defs>
</svg>
