<svg width="68" height="68" viewBox="0 0 68 68" fill="none" xmlns="http://www.w3.org/2000/svg">
<g clip-path="url(#clip0_23632_22663)">
<mask id="mask0_23632_22663" style="mask-type:alpha" maskUnits="userSpaceOnUse" x="0" y="0" width="68" height="68">
<path fill-rule="evenodd" clip-rule="evenodd" d="M47.0333 0H20.9667C13.5811 0 8.89667 0.0377779 4.45778 4.45778C0.018889 8.89667 0 13.6 0 20.9667V47.0333C0 54.4189 0.0377779 59.1033 4.45778 63.5422C8.89667 67.9811 13.6 68 20.9667 68H47.0333C54.4189 68 59.1033 67.9811 63.5422 63.5422C67.9622 59.1033 68 54.4 68 47.0333V20.9667C68 13.5811 67.9622 8.89667 63.5422 4.45778C59.1033 0.018889 54.4 0 47.0333 0Z" fill="url(#paint0_linear_23632_22663)"/>
</mask>
<g mask="url(#mask0_23632_22663)">
<rect width="68" height="68" fill="url(#paint1_linear_23632_22663)"/>
<path fill-rule="evenodd" clip-rule="evenodd" d="M15.6212 64.3735C26.4256 64.3735 45.6357 64.3735 45.6357 64.3735C52.5868 64.3735 57.0823 64.6379 61.2379 60.4446C64.8079 56.8746 64.5057 50.8679 64.7323 46.1079C60.709 52.1524 53.3234 51.9446 47.619 51.9446C47.619 51.9446 20.929 51.9446 10.9556 51.9446C0.982316 51.9635 4.81676 64.3735 15.6212 64.3735Z" fill="#FEF5EB"/>
<path d="M12.4854 53.5312H23.1387V61.5213L17.812 58.8579L12.4854 61.5213V53.5312Z" fill="#F19C33"/>
<mask id="path-5-outside-1_23632_22663" maskUnits="userSpaceOnUse" x="11.1016" y="12.2266" width="47" height="26" fill="black">
<rect fill="white" x="11.1016" y="12.2266" width="47" height="26"/>
<path d="M15.079 12.8657C15.5017 12.8657 15.8331 12.9137 16.0733 13.0098C16.3231 13.0962 16.5777 13.2259 16.837 13.3988C17.0484 13.5333 17.2117 13.6006 17.327 13.6006C17.4134 13.6006 17.4807 13.5525 17.5287 13.4565C17.5768 13.3508 17.6152 13.1875 17.644 12.9665H17.9754C17.9274 13.5237 17.9034 14.5036 17.9034 15.9062H17.572C17.5143 15.1281 17.2886 14.4748 16.8947 13.9464C16.5104 13.4084 15.9484 13.1395 15.2087 13.1395C14.6899 13.1395 14.2672 13.298 13.9406 13.615C13.614 13.9224 13.4507 14.3211 13.4507 14.811C13.4507 15.1761 13.5323 15.4931 13.6956 15.7621C13.8685 16.0311 14.0847 16.2617 14.3441 16.4538C14.6035 16.6459 14.9733 16.8909 15.4537 17.1887L15.8716 17.4481C16.4768 17.8228 16.9523 18.1542 17.2982 18.4424C17.6536 18.721 17.937 19.0428 18.1484 19.4079C18.3597 19.7729 18.4654 20.2004 18.4654 20.6904C18.4654 21.5646 18.1772 22.2419 17.6008 22.7222C17.0244 23.1929 16.2943 23.4283 15.4104 23.4283C14.9493 23.4283 14.5698 23.3803 14.272 23.2842C13.9838 23.1881 13.7052 23.0584 13.4362 22.8951C13.2249 22.7606 13.0616 22.6934 12.9463 22.6934C12.8598 22.6934 12.7926 22.7462 12.7446 22.8519C12.6965 22.948 12.6581 23.1065 12.6293 23.3274H12.2978C12.3363 22.7991 12.3555 21.6462 12.3555 19.869H12.6869C12.7542 20.8393 12.9943 21.627 13.4074 22.2323C13.8205 22.8375 14.4546 23.1401 15.3096 23.1401C15.8283 23.1401 16.2702 22.9816 16.6353 22.6646C17.0004 22.3379 17.1829 21.8576 17.1829 21.2236C17.1829 20.6856 17.0004 20.2292 16.6353 19.8546C16.2798 19.4799 15.713 19.0572 14.9349 18.5865C14.3681 18.2406 13.907 17.9332 13.5515 17.6642C13.2057 17.3953 12.9223 17.0734 12.7013 16.6988C12.4804 16.3145 12.3699 15.8678 12.3699 15.3586C12.3699 14.5516 12.6293 13.9368 13.148 13.5141C13.6668 13.0818 14.3105 12.8657 15.079 12.8657ZM27.3633 13.3124L21.6136 22.8951H24.438C25.0336 22.8951 25.4851 22.8135 25.7926 22.6502C26.1096 22.4772 26.3401 22.2034 26.4842 21.8288C26.6283 21.4541 26.734 20.9113 26.8013 20.2004H27.1327C27.1039 20.4982 27.0895 20.8921 27.0895 21.3821C27.0895 21.9296 27.1231 22.5445 27.1903 23.2266C26.4794 23.1977 25.2834 23.1833 23.6022 23.1833C21.9595 23.1833 20.773 23.1977 20.0429 23.2266V22.9384L25.8358 13.3556H23.0258C22.4302 13.3556 21.9739 13.4421 21.6568 13.615C21.3494 13.7783 21.1237 14.0473 20.9796 14.422C20.8355 14.7966 20.7298 15.3394 20.6625 16.0503H20.3311C20.3599 15.7429 20.3743 15.349 20.3743 14.8687C20.3743 14.3211 20.3407 13.7063 20.2735 13.0242C20.9844 13.053 22.1804 13.0674 23.8616 13.0674C25.4947 13.0674 26.662 13.053 27.3633 13.0242V13.3124ZM36.2426 21.3821C36.2426 21.9296 36.2762 22.5445 36.3434 23.2266C35.6902 23.1977 34.5902 23.1833 33.0435 23.1833C31.199 23.1833 29.806 23.1977 28.8646 23.2266V22.9384C29.2104 22.9191 29.4602 22.8807 29.6139 22.8231C29.7772 22.7654 29.8877 22.655 29.9453 22.4916C30.003 22.3283 30.0318 22.0641 30.0318 21.6991V14.5516C30.0318 14.1866 30.003 13.9224 29.9453 13.7591C29.8877 13.5958 29.7772 13.4853 29.6139 13.4277C29.4602 13.37 29.2104 13.3316 28.8646 13.3124V13.0242C29.806 13.053 31.199 13.0674 33.0435 13.0674C34.4557 13.0674 35.4596 13.053 36.0552 13.0242C35.988 13.6582 35.9544 14.225 35.9544 14.7246C35.9544 15.0992 35.9688 15.397 35.9976 15.618H35.6661C35.5989 14.9936 35.5124 14.5324 35.4068 14.2346C35.3011 13.9272 35.1234 13.7063 34.8736 13.5718C34.6238 13.4277 34.2443 13.3556 33.7352 13.3556H32.5391C32.1933 13.3556 31.9387 13.3844 31.7754 13.4421C31.6217 13.4901 31.516 13.5958 31.4584 13.7591C31.4007 13.9224 31.3719 14.1866 31.3719 14.5516V17.9524H32.323C32.6592 17.9524 32.9186 17.8756 33.1011 17.7219C33.2837 17.5586 33.4038 17.3712 33.4614 17.1599C33.5286 16.9389 33.5815 16.6651 33.6199 16.3385L33.6631 16.0503H33.9946C33.9658 16.4538 33.9513 16.9053 33.9513 17.4049V18.0965C33.9513 18.5865 33.9802 19.2686 34.0378 20.1428H33.7064C33.6968 20.0755 33.6679 19.845 33.6199 19.4511C33.5719 19.0476 33.4374 18.745 33.2164 18.5433C33.0051 18.3415 32.7073 18.2406 32.323 18.2406H31.3719V21.6991C31.3719 22.0641 31.4007 22.3283 31.4584 22.4916C31.516 22.655 31.6217 22.7654 31.7754 22.8231C31.9387 22.8711 32.1933 22.8951 32.5391 22.8951H33.5911C34.1867 22.8951 34.6382 22.8183 34.9456 22.6646C35.2627 22.5013 35.4932 22.2467 35.6373 21.9008C35.7814 21.5454 35.8871 21.0266 35.9544 20.3445H36.2858C36.257 20.6039 36.2426 20.9498 36.2426 21.3821ZM46.9609 13.3124C46.6247 13.3316 46.3749 13.3844 46.2116 13.4709C46.0483 13.5477 45.9378 13.6822 45.8802 13.8744C45.8225 14.0569 45.7937 14.3307 45.7937 14.6957V23.2986H45.4623L39.41 13.9464V21.555C39.41 21.9296 39.4388 22.2082 39.4965 22.3908C39.5637 22.5733 39.6886 22.7078 39.8712 22.7943C40.0537 22.8711 40.3371 22.9191 40.7214 22.9384V23.2266C40.3755 23.1977 39.8856 23.1833 39.2515 23.1833C38.6751 23.1833 38.2284 23.1977 37.9114 23.2266V22.9384C38.2476 22.9191 38.4974 22.8711 38.6607 22.7943C38.824 22.7078 38.9345 22.5733 38.9921 22.3908C39.0498 22.1986 39.0786 21.92 39.0786 21.555V14.5516C39.0786 14.1866 39.0498 13.9224 38.9921 13.7591C38.9345 13.5958 38.824 13.4853 38.6607 13.4277C38.507 13.37 38.2572 13.3316 37.9114 13.3124V13.0242C38.2284 13.053 38.6751 13.0674 39.2515 13.0674C39.6838 13.0674 40.0585 13.053 40.3755 13.0242L45.4623 20.8633V14.6957C45.4623 14.3211 45.4287 14.0425 45.3614 13.86C45.3038 13.6774 45.1837 13.5477 45.0012 13.4709C44.8186 13.3844 44.5352 13.3316 44.151 13.3124V13.0242C44.4968 13.053 44.9868 13.0674 45.6208 13.0674C46.1972 13.0674 46.6439 13.053 46.9609 13.0242V13.3124ZM56.2769 13.0242C56.2097 13.7063 56.1761 14.3211 56.1761 14.8687C56.1761 15.349 56.1905 15.7429 56.2193 16.0503H55.8879C55.811 15.3106 55.7149 14.763 55.5997 14.4075C55.4844 14.0425 55.2826 13.7783 54.9944 13.615C54.7062 13.4421 54.2643 13.3556 53.6687 13.3556H52.8906V21.555C52.8906 21.9585 52.929 22.2515 53.0058 22.434C53.0827 22.6165 53.2172 22.7414 53.4093 22.8087C53.6015 22.8759 53.9137 22.9191 54.346 22.9384V23.2266C53.8464 23.1977 53.1403 23.1833 52.2277 23.1833C51.267 23.1833 50.5561 23.1977 50.095 23.2266V22.9384C50.5273 22.9191 50.8395 22.8759 51.0316 22.8087C51.2238 22.7414 51.3583 22.6165 51.4351 22.434C51.512 22.2515 51.5504 21.9585 51.5504 21.555V13.3556H50.7723C50.1766 13.3556 49.7347 13.4421 49.4465 13.615C49.1583 13.7783 48.9566 14.0425 48.8413 14.4075C48.726 14.763 48.6299 15.3106 48.5531 16.0503H48.2217C48.2505 15.7429 48.2649 15.349 48.2649 14.8687C48.2649 14.3211 48.2313 13.7063 48.164 13.0242C48.9614 13.053 50.3159 13.0674 52.2277 13.0674C54.1298 13.0674 55.4796 13.053 56.2769 13.0242ZM16.1884 31.8372C17.2451 31.9813 17.9992 32.2887 18.4508 32.7594C18.9023 33.2205 19.128 33.7777 19.128 34.431C19.128 34.9786 18.9887 35.4637 18.7101 35.8864C18.4315 36.3091 18.0329 36.6405 17.5141 36.8807C16.9953 37.1113 16.3805 37.2266 15.6696 37.2266C15.4102 37.2266 15.1893 37.2218 15.0067 37.2122C14.3919 37.1929 13.7867 37.1833 13.191 37.1833C12.4033 37.1833 11.8077 37.1977 11.4042 37.2266V36.9384C11.75 36.9191 11.9998 36.8807 12.1535 36.8231C12.3168 36.7654 12.4273 36.655 12.4849 36.4916C12.5426 36.3283 12.5714 36.0641 12.5714 35.6991V28.5516C12.5714 28.1866 12.5426 27.9224 12.4849 27.7591C12.4273 27.5958 12.3168 27.4853 12.1535 27.4277C11.9998 27.37 11.75 27.3316 11.4042 27.3124V27.0242C11.8077 27.053 12.3937 27.0674 13.1622 27.0674L14.7185 27.053C14.9011 27.0434 15.1076 27.0386 15.3382 27.0386C16.318 27.0386 17.0674 27.2451 17.5861 27.6582C18.1145 28.0713 18.3787 28.6189 18.3787 29.301C18.3787 29.8582 18.201 30.3577 17.8455 30.7996C17.4997 31.2415 16.9473 31.5778 16.1884 31.8083V31.8372ZM14.9779 27.3124C14.6801 27.3124 14.4543 27.346 14.3006 27.4132C14.1565 27.4805 14.0557 27.6006 13.998 27.7735C13.9404 27.9464 13.9116 28.2058 13.9116 28.5516V31.8083H14.877C15.6648 31.8083 16.2124 31.597 16.5198 31.1743C16.8368 30.742 16.9953 30.1704 16.9953 29.4595C16.9953 28.739 16.8368 28.201 16.5198 27.8456C16.2028 27.4901 15.6888 27.3124 14.9779 27.3124ZM14.9923 36.8951C16.7888 36.8951 17.687 36.0545 17.687 34.3734C17.687 33.6144 17.4805 33.038 17.0674 32.6441C16.6639 32.2503 16.0154 32.0533 15.122 32.0533H13.9116V35.6991C13.9116 36.0449 13.9404 36.2995 13.998 36.4628C14.0557 36.6261 14.1565 36.7414 14.3006 36.8087C14.4543 36.8663 14.6849 36.8951 14.9923 36.8951ZM24.2241 27.3124C23.8783 27.3316 23.6237 27.37 23.4604 27.4277C23.3067 27.4853 23.201 27.5958 23.1433 27.7591C23.0857 27.9224 23.0569 28.1866 23.0569 28.5516V35.6991C23.0569 36.0641 23.0857 36.3283 23.1433 36.4916C23.201 36.655 23.3067 36.7654 23.4604 36.8231C23.6237 36.8807 23.8783 36.9191 24.2241 36.9384V37.2266C23.7822 37.1977 23.1722 37.1833 22.394 37.1833C21.5678 37.1833 20.953 37.1977 20.5495 37.2266V36.9384C20.8954 36.9191 21.1451 36.8807 21.2988 36.8231C21.4622 36.7654 21.5726 36.655 21.6303 36.4916C21.6879 36.3283 21.7167 36.0641 21.7167 35.6991V28.5516C21.7167 28.1866 21.6879 27.9224 21.6303 27.7591C21.5726 27.5958 21.4622 27.4853 21.2988 27.4277C21.1451 27.37 20.8954 27.3316 20.5495 27.3124V27.0242C20.953 27.053 21.5678 27.0674 22.394 27.0674C23.1625 27.0674 23.7726 27.053 24.2241 27.0242V27.3124ZM30.4824 31.8372C31.5392 31.9813 32.2933 32.2887 32.7448 32.7594C33.1963 33.2205 33.4221 33.7777 33.4221 34.431C33.4221 34.9786 33.2828 35.4637 33.0042 35.8864C32.7256 36.3091 32.3269 36.6405 31.8082 36.8807C31.2894 37.1113 30.6746 37.2266 29.9637 37.2266C29.7043 37.2266 29.4833 37.2218 29.3008 37.2122C28.686 37.1929 28.0807 37.1833 27.4851 37.1833C26.6974 37.1833 26.1017 37.1977 25.6983 37.2266V36.9384C26.0441 36.9191 26.2939 36.8807 26.4476 36.8231C26.6109 36.7654 26.7214 36.655 26.779 36.4916C26.8367 36.3283 26.8655 36.0641 26.8655 35.6991V28.5516C26.8655 28.1866 26.8367 27.9224 26.779 27.7591C26.7214 27.5958 26.6109 27.4853 26.4476 27.4277C26.2939 27.37 26.0441 27.3316 25.6983 27.3124V27.0242C26.1017 27.053 26.6878 27.0674 27.4563 27.0674L29.0126 27.053C29.1951 27.0434 29.4017 27.0386 29.6322 27.0386C30.6121 27.0386 31.3615 27.2451 31.8802 27.6582C32.4086 28.0713 32.6728 28.6189 32.6728 29.301C32.6728 29.8582 32.4951 30.3577 32.1396 30.7996C31.7938 31.2415 31.2414 31.5778 30.4824 31.8083V31.8372ZM29.272 27.3124C28.9742 27.3124 28.7484 27.346 28.5947 27.4132C28.4506 27.4805 28.3497 27.6006 28.2921 27.7735C28.2344 27.9464 28.2056 28.2058 28.2056 28.5516V31.8083H29.1711C29.9589 31.8083 30.5065 31.597 30.8139 31.1743C31.1309 30.742 31.2894 30.1704 31.2894 29.4595C31.2894 28.739 31.1309 28.201 30.8139 27.8456C30.4968 27.4901 29.9829 27.3124 29.272 27.3124ZM29.2864 36.8951C31.0829 36.8951 31.9811 36.0545 31.9811 34.3734C31.9811 33.6144 31.7745 33.038 31.3615 32.6441C30.958 32.2503 30.3095 32.0533 29.4161 32.0533H28.2056V35.6991C28.2056 36.0449 28.2344 36.2995 28.2921 36.4628C28.3497 36.6261 28.4506 36.7414 28.5947 36.8087C28.7484 36.8663 28.979 36.8951 29.2864 36.8951ZM38.5182 27.3124C38.1723 27.3316 37.9177 27.37 37.7544 27.4277C37.6007 27.4853 37.4951 27.5958 37.4374 27.7591C37.3798 27.9224 37.3509 28.1866 37.3509 28.5516V35.6991C37.3509 36.0641 37.3798 36.3283 37.4374 36.4916C37.4951 36.655 37.6007 36.7654 37.7544 36.8231C37.9177 36.8711 38.1723 36.8951 38.5182 36.8951H39.5701C40.1657 36.8951 40.6173 36.8135 40.9247 36.6502C41.2417 36.4772 41.4723 36.2034 41.6164 35.8288C41.7605 35.4541 41.8661 34.9113 41.9334 34.2004H42.2648C42.236 34.4982 42.2216 34.8921 42.2216 35.3821C42.2216 35.9296 42.2552 36.5445 42.3225 37.2266C41.6692 37.1977 40.5692 37.1833 39.0225 37.1833C37.178 37.1833 35.785 37.1977 34.8436 37.2266V36.9384C35.1894 36.9191 35.4392 36.8807 35.5929 36.8231C35.7562 36.7654 35.8667 36.655 35.9243 36.4916C35.982 36.3283 36.0108 36.0641 36.0108 35.6991V28.5516C36.0108 28.1866 35.982 27.9224 35.9243 27.7591C35.8667 27.5958 35.7562 27.4853 35.5929 27.4277C35.4392 27.37 35.1894 27.3316 34.8436 27.3124V27.0242C35.2471 27.053 35.8619 27.0674 36.6881 27.0674C37.4566 27.0674 38.0667 27.053 38.5182 27.0242V27.3124ZM47.2554 27.3124C46.9096 27.3316 46.655 27.37 46.4917 27.4277C46.3379 27.4853 46.2323 27.5958 46.1746 27.7591C46.117 27.9224 46.0882 28.1866 46.0882 28.5516V35.6991C46.0882 36.0641 46.117 36.3283 46.1746 36.4916C46.2323 36.655 46.3379 36.7654 46.4917 36.8231C46.655 36.8807 46.9096 36.9191 47.2554 36.9384V37.2266C46.8135 37.1977 46.2035 37.1833 45.4253 37.1833C44.5991 37.1833 43.9843 37.1977 43.5808 37.2266V36.9384C43.9266 36.9191 44.1764 36.8807 44.3301 36.8231C44.4934 36.7654 44.6039 36.655 44.6616 36.4916C44.7192 36.3283 44.748 36.0641 44.748 35.6991V28.5516C44.748 28.1866 44.7192 27.9224 44.6616 27.7591C44.6039 27.5958 44.4934 27.4853 44.3301 27.4277C44.1764 27.37 43.9266 27.3316 43.5808 27.3124V27.0242C43.9843 27.053 44.5991 27.0674 45.4253 27.0674C46.1938 27.0674 46.8039 27.053 47.2554 27.0242V27.3124ZM56.2949 36.0161C56.5255 36.6117 56.8569 36.9191 57.2892 36.9384V37.2266C56.9049 37.1977 56.391 37.1833 55.7473 37.1833C54.9211 37.1833 54.3063 37.1977 53.9028 37.2266V36.9384C54.2679 36.9191 54.5272 36.8759 54.6809 36.8087C54.8443 36.7318 54.9259 36.5973 54.9259 36.4052C54.9259 36.2419 54.8683 36.0161 54.753 35.7279L53.874 33.3646H50.3867L49.7959 34.8921C49.6038 35.4109 49.5077 35.8048 49.5077 36.0737C49.5077 36.3716 49.6086 36.5877 49.8103 36.7222C50.0217 36.8567 50.3387 36.9288 50.7614 36.9384V37.2266C50.2138 37.1977 49.6614 37.1833 49.1042 37.1833C48.6719 37.1833 48.3117 37.1977 48.0235 37.2266V36.9384C48.5038 36.8231 48.8833 36.4052 49.1619 35.6847L52.5482 26.9521H52.7788L56.2949 36.0161ZM53.7587 33.0764L52.1448 28.7678L50.502 33.0764H53.7587Z"/>
</mask>
<path d="M15.079 12.8657C15.5017 12.8657 15.8331 12.9137 16.0733 13.0098C16.3231 13.0962 16.5777 13.2259 16.837 13.3988C17.0484 13.5333 17.2117 13.6006 17.327 13.6006C17.4134 13.6006 17.4807 13.5525 17.5287 13.4565C17.5768 13.3508 17.6152 13.1875 17.644 12.9665H17.9754C17.9274 13.5237 17.9034 14.5036 17.9034 15.9062H17.572C17.5143 15.1281 17.2886 14.4748 16.8947 13.9464C16.5104 13.4084 15.9484 13.1395 15.2087 13.1395C14.6899 13.1395 14.2672 13.298 13.9406 13.615C13.614 13.9224 13.4507 14.3211 13.4507 14.811C13.4507 15.1761 13.5323 15.4931 13.6956 15.7621C13.8685 16.0311 14.0847 16.2617 14.3441 16.4538C14.6035 16.6459 14.9733 16.8909 15.4537 17.1887L15.8716 17.4481C16.4768 17.8228 16.9523 18.1542 17.2982 18.4424C17.6536 18.721 17.937 19.0428 18.1484 19.4079C18.3597 19.7729 18.4654 20.2004 18.4654 20.6904C18.4654 21.5646 18.1772 22.2419 17.6008 22.7222C17.0244 23.1929 16.2943 23.4283 15.4104 23.4283C14.9493 23.4283 14.5698 23.3803 14.272 23.2842C13.9838 23.1881 13.7052 23.0584 13.4362 22.8951C13.2249 22.7606 13.0616 22.6934 12.9463 22.6934C12.8598 22.6934 12.7926 22.7462 12.7446 22.8519C12.6965 22.948 12.6581 23.1065 12.6293 23.3274H12.2978C12.3363 22.7991 12.3555 21.6462 12.3555 19.869H12.6869C12.7542 20.8393 12.9943 21.627 13.4074 22.2323C13.8205 22.8375 14.4546 23.1401 15.3096 23.1401C15.8283 23.1401 16.2702 22.9816 16.6353 22.6646C17.0004 22.3379 17.1829 21.8576 17.1829 21.2236C17.1829 20.6856 17.0004 20.2292 16.6353 19.8546C16.2798 19.4799 15.713 19.0572 14.9349 18.5865C14.3681 18.2406 13.907 17.9332 13.5515 17.6642C13.2057 17.3953 12.9223 17.0734 12.7013 16.6988C12.4804 16.3145 12.3699 15.8678 12.3699 15.3586C12.3699 14.5516 12.6293 13.9368 13.148 13.5141C13.6668 13.0818 14.3105 12.8657 15.079 12.8657ZM27.3633 13.3124L21.6136 22.8951H24.438C25.0336 22.8951 25.4851 22.8135 25.7926 22.6502C26.1096 22.4772 26.3401 22.2034 26.4842 21.8288C26.6283 21.4541 26.734 20.9113 26.8013 20.2004H27.1327C27.1039 20.4982 27.0895 20.8921 27.0895 21.3821C27.0895 21.9296 27.1231 22.5445 27.1903 23.2266C26.4794 23.1977 25.2834 23.1833 23.6022 23.1833C21.9595 23.1833 20.773 23.1977 20.0429 23.2266V22.9384L25.8358 13.3556H23.0258C22.4302 13.3556 21.9739 13.4421 21.6568 13.615C21.3494 13.7783 21.1237 14.0473 20.9796 14.422C20.8355 14.7966 20.7298 15.3394 20.6625 16.0503H20.3311C20.3599 15.7429 20.3743 15.349 20.3743 14.8687C20.3743 14.3211 20.3407 13.7063 20.2735 13.0242C20.9844 13.053 22.1804 13.0674 23.8616 13.0674C25.4947 13.0674 26.662 13.053 27.3633 13.0242V13.3124ZM36.2426 21.3821C36.2426 21.9296 36.2762 22.5445 36.3434 23.2266C35.6902 23.1977 34.5902 23.1833 33.0435 23.1833C31.199 23.1833 29.806 23.1977 28.8646 23.2266V22.9384C29.2104 22.9191 29.4602 22.8807 29.6139 22.8231C29.7772 22.7654 29.8877 22.655 29.9453 22.4916C30.003 22.3283 30.0318 22.0641 30.0318 21.6991V14.5516C30.0318 14.1866 30.003 13.9224 29.9453 13.7591C29.8877 13.5958 29.7772 13.4853 29.6139 13.4277C29.4602 13.37 29.2104 13.3316 28.8646 13.3124V13.0242C29.806 13.053 31.199 13.0674 33.0435 13.0674C34.4557 13.0674 35.4596 13.053 36.0552 13.0242C35.988 13.6582 35.9544 14.225 35.9544 14.7246C35.9544 15.0992 35.9688 15.397 35.9976 15.618H35.6661C35.5989 14.9936 35.5124 14.5324 35.4068 14.2346C35.3011 13.9272 35.1234 13.7063 34.8736 13.5718C34.6238 13.4277 34.2443 13.3556 33.7352 13.3556H32.5391C32.1933 13.3556 31.9387 13.3844 31.7754 13.4421C31.6217 13.4901 31.516 13.5958 31.4584 13.7591C31.4007 13.9224 31.3719 14.1866 31.3719 14.5516V17.9524H32.323C32.6592 17.9524 32.9186 17.8756 33.1011 17.7219C33.2837 17.5586 33.4038 17.3712 33.4614 17.1599C33.5286 16.9389 33.5815 16.6651 33.6199 16.3385L33.6631 16.0503H33.9946C33.9658 16.4538 33.9513 16.9053 33.9513 17.4049V18.0965C33.9513 18.5865 33.9802 19.2686 34.0378 20.1428H33.7064C33.6968 20.0755 33.6679 19.845 33.6199 19.4511C33.5719 19.0476 33.4374 18.745 33.2164 18.5433C33.0051 18.3415 32.7073 18.2406 32.323 18.2406H31.3719V21.6991C31.3719 22.0641 31.4007 22.3283 31.4584 22.4916C31.516 22.655 31.6217 22.7654 31.7754 22.8231C31.9387 22.8711 32.1933 22.8951 32.5391 22.8951H33.5911C34.1867 22.8951 34.6382 22.8183 34.9456 22.6646C35.2627 22.5013 35.4932 22.2467 35.6373 21.9008C35.7814 21.5454 35.8871 21.0266 35.9544 20.3445H36.2858C36.257 20.6039 36.2426 20.9498 36.2426 21.3821ZM46.9609 13.3124C46.6247 13.3316 46.3749 13.3844 46.2116 13.4709C46.0483 13.5477 45.9378 13.6822 45.8802 13.8744C45.8225 14.0569 45.7937 14.3307 45.7937 14.6957V23.2986H45.4623L39.41 13.9464V21.555C39.41 21.9296 39.4388 22.2082 39.4965 22.3908C39.5637 22.5733 39.6886 22.7078 39.8712 22.7943C40.0537 22.8711 40.3371 22.9191 40.7214 22.9384V23.2266C40.3755 23.1977 39.8856 23.1833 39.2515 23.1833C38.6751 23.1833 38.2284 23.1977 37.9114 23.2266V22.9384C38.2476 22.9191 38.4974 22.8711 38.6607 22.7943C38.824 22.7078 38.9345 22.5733 38.9921 22.3908C39.0498 22.1986 39.0786 21.92 39.0786 21.555V14.5516C39.0786 14.1866 39.0498 13.9224 38.9921 13.7591C38.9345 13.5958 38.824 13.4853 38.6607 13.4277C38.507 13.37 38.2572 13.3316 37.9114 13.3124V13.0242C38.2284 13.053 38.6751 13.0674 39.2515 13.0674C39.6838 13.0674 40.0585 13.053 40.3755 13.0242L45.4623 20.8633V14.6957C45.4623 14.3211 45.4287 14.0425 45.3614 13.86C45.3038 13.6774 45.1837 13.5477 45.0012 13.4709C44.8186 13.3844 44.5352 13.3316 44.151 13.3124V13.0242C44.4968 13.053 44.9868 13.0674 45.6208 13.0674C46.1972 13.0674 46.6439 13.053 46.9609 13.0242V13.3124ZM56.2769 13.0242C56.2097 13.7063 56.1761 14.3211 56.1761 14.8687C56.1761 15.349 56.1905 15.7429 56.2193 16.0503H55.8879C55.811 15.3106 55.7149 14.763 55.5997 14.4075C55.4844 14.0425 55.2826 13.7783 54.9944 13.615C54.7062 13.4421 54.2643 13.3556 53.6687 13.3556H52.8906V21.555C52.8906 21.9585 52.929 22.2515 53.0058 22.434C53.0827 22.6165 53.2172 22.7414 53.4093 22.8087C53.6015 22.8759 53.9137 22.9191 54.346 22.9384V23.2266C53.8464 23.1977 53.1403 23.1833 52.2277 23.1833C51.267 23.1833 50.5561 23.1977 50.095 23.2266V22.9384C50.5273 22.9191 50.8395 22.8759 51.0316 22.8087C51.2238 22.7414 51.3583 22.6165 51.4351 22.434C51.512 22.2515 51.5504 21.9585 51.5504 21.555V13.3556H50.7723C50.1766 13.3556 49.7347 13.4421 49.4465 13.615C49.1583 13.7783 48.9566 14.0425 48.8413 14.4075C48.726 14.763 48.6299 15.3106 48.5531 16.0503H48.2217C48.2505 15.7429 48.2649 15.349 48.2649 14.8687C48.2649 14.3211 48.2313 13.7063 48.164 13.0242C48.9614 13.053 50.3159 13.0674 52.2277 13.0674C54.1298 13.0674 55.4796 13.053 56.2769 13.0242ZM16.1884 31.8372C17.2451 31.9813 17.9992 32.2887 18.4508 32.7594C18.9023 33.2205 19.128 33.7777 19.128 34.431C19.128 34.9786 18.9887 35.4637 18.7101 35.8864C18.4315 36.3091 18.0329 36.6405 17.5141 36.8807C16.9953 37.1113 16.3805 37.2266 15.6696 37.2266C15.4102 37.2266 15.1893 37.2218 15.0067 37.2122C14.3919 37.1929 13.7867 37.1833 13.191 37.1833C12.4033 37.1833 11.8077 37.1977 11.4042 37.2266V36.9384C11.75 36.9191 11.9998 36.8807 12.1535 36.8231C12.3168 36.7654 12.4273 36.655 12.4849 36.4916C12.5426 36.3283 12.5714 36.0641 12.5714 35.6991V28.5516C12.5714 28.1866 12.5426 27.9224 12.4849 27.7591C12.4273 27.5958 12.3168 27.4853 12.1535 27.4277C11.9998 27.37 11.75 27.3316 11.4042 27.3124V27.0242C11.8077 27.053 12.3937 27.0674 13.1622 27.0674L14.7185 27.053C14.9011 27.0434 15.1076 27.0386 15.3382 27.0386C16.318 27.0386 17.0674 27.2451 17.5861 27.6582C18.1145 28.0713 18.3787 28.6189 18.3787 29.301C18.3787 29.8582 18.201 30.3577 17.8455 30.7996C17.4997 31.2415 16.9473 31.5778 16.1884 31.8083V31.8372ZM14.9779 27.3124C14.6801 27.3124 14.4543 27.346 14.3006 27.4132C14.1565 27.4805 14.0557 27.6006 13.998 27.7735C13.9404 27.9464 13.9116 28.2058 13.9116 28.5516V31.8083H14.877C15.6648 31.8083 16.2124 31.597 16.5198 31.1743C16.8368 30.742 16.9953 30.1704 16.9953 29.4595C16.9953 28.739 16.8368 28.201 16.5198 27.8456C16.2028 27.4901 15.6888 27.3124 14.9779 27.3124ZM14.9923 36.8951C16.7888 36.8951 17.687 36.0545 17.687 34.3734C17.687 33.6144 17.4805 33.038 17.0674 32.6441C16.6639 32.2503 16.0154 32.0533 15.122 32.0533H13.9116V35.6991C13.9116 36.0449 13.9404 36.2995 13.998 36.4628C14.0557 36.6261 14.1565 36.7414 14.3006 36.8087C14.4543 36.8663 14.6849 36.8951 14.9923 36.8951ZM24.2241 27.3124C23.8783 27.3316 23.6237 27.37 23.4604 27.4277C23.3067 27.4853 23.201 27.5958 23.1433 27.7591C23.0857 27.9224 23.0569 28.1866 23.0569 28.5516V35.6991C23.0569 36.0641 23.0857 36.3283 23.1433 36.4916C23.201 36.655 23.3067 36.7654 23.4604 36.8231C23.6237 36.8807 23.8783 36.9191 24.2241 36.9384V37.2266C23.7822 37.1977 23.1722 37.1833 22.394 37.1833C21.5678 37.1833 20.953 37.1977 20.5495 37.2266V36.9384C20.8954 36.9191 21.1451 36.8807 21.2988 36.8231C21.4622 36.7654 21.5726 36.655 21.6303 36.4916C21.6879 36.3283 21.7167 36.0641 21.7167 35.6991V28.5516C21.7167 28.1866 21.6879 27.9224 21.6303 27.7591C21.5726 27.5958 21.4622 27.4853 21.2988 27.4277C21.1451 27.37 20.8954 27.3316 20.5495 27.3124V27.0242C20.953 27.053 21.5678 27.0674 22.394 27.0674C23.1625 27.0674 23.7726 27.053 24.2241 27.0242V27.3124ZM30.4824 31.8372C31.5392 31.9813 32.2933 32.2887 32.7448 32.7594C33.1963 33.2205 33.4221 33.7777 33.4221 34.431C33.4221 34.9786 33.2828 35.4637 33.0042 35.8864C32.7256 36.3091 32.3269 36.6405 31.8082 36.8807C31.2894 37.1113 30.6746 37.2266 29.9637 37.2266C29.7043 37.2266 29.4833 37.2218 29.3008 37.2122C28.686 37.1929 28.0807 37.1833 27.4851 37.1833C26.6974 37.1833 26.1017 37.1977 25.6983 37.2266V36.9384C26.0441 36.9191 26.2939 36.8807 26.4476 36.8231C26.6109 36.7654 26.7214 36.655 26.779 36.4916C26.8367 36.3283 26.8655 36.0641 26.8655 35.6991V28.5516C26.8655 28.1866 26.8367 27.9224 26.779 27.7591C26.7214 27.5958 26.6109 27.4853 26.4476 27.4277C26.2939 27.37 26.0441 27.3316 25.6983 27.3124V27.0242C26.1017 27.053 26.6878 27.0674 27.4563 27.0674L29.0126 27.053C29.1951 27.0434 29.4017 27.0386 29.6322 27.0386C30.6121 27.0386 31.3615 27.2451 31.8802 27.6582C32.4086 28.0713 32.6728 28.6189 32.6728 29.301C32.6728 29.8582 32.4951 30.3577 32.1396 30.7996C31.7938 31.2415 31.2414 31.5778 30.4824 31.8083V31.8372ZM29.272 27.3124C28.9742 27.3124 28.7484 27.346 28.5947 27.4132C28.4506 27.4805 28.3497 27.6006 28.2921 27.7735C28.2344 27.9464 28.2056 28.2058 28.2056 28.5516V31.8083H29.1711C29.9589 31.8083 30.5065 31.597 30.8139 31.1743C31.1309 30.742 31.2894 30.1704 31.2894 29.4595C31.2894 28.739 31.1309 28.201 30.8139 27.8456C30.4968 27.4901 29.9829 27.3124 29.272 27.3124ZM29.2864 36.8951C31.0829 36.8951 31.9811 36.0545 31.9811 34.3734C31.9811 33.6144 31.7745 33.038 31.3615 32.6441C30.958 32.2503 30.3095 32.0533 29.4161 32.0533H28.2056V35.6991C28.2056 36.0449 28.2344 36.2995 28.2921 36.4628C28.3497 36.6261 28.4506 36.7414 28.5947 36.8087C28.7484 36.8663 28.979 36.8951 29.2864 36.8951ZM38.5182 27.3124C38.1723 27.3316 37.9177 27.37 37.7544 27.4277C37.6007 27.4853 37.4951 27.5958 37.4374 27.7591C37.3798 27.9224 37.3509 28.1866 37.3509 28.5516V35.6991C37.3509 36.0641 37.3798 36.3283 37.4374 36.4916C37.4951 36.655 37.6007 36.7654 37.7544 36.8231C37.9177 36.8711 38.1723 36.8951 38.5182 36.8951H39.5701C40.1657 36.8951 40.6173 36.8135 40.9247 36.6502C41.2417 36.4772 41.4723 36.2034 41.6164 35.8288C41.7605 35.4541 41.8661 34.9113 41.9334 34.2004H42.2648C42.236 34.4982 42.2216 34.8921 42.2216 35.3821C42.2216 35.9296 42.2552 36.5445 42.3225 37.2266C41.6692 37.1977 40.5692 37.1833 39.0225 37.1833C37.178 37.1833 35.785 37.1977 34.8436 37.2266V36.9384C35.1894 36.9191 35.4392 36.8807 35.5929 36.8231C35.7562 36.7654 35.8667 36.655 35.9243 36.4916C35.982 36.3283 36.0108 36.0641 36.0108 35.6991V28.5516C36.0108 28.1866 35.982 27.9224 35.9243 27.7591C35.8667 27.5958 35.7562 27.4853 35.5929 27.4277C35.4392 27.37 35.1894 27.3316 34.8436 27.3124V27.0242C35.2471 27.053 35.8619 27.0674 36.6881 27.0674C37.4566 27.0674 38.0667 27.053 38.5182 27.0242V27.3124ZM47.2554 27.3124C46.9096 27.3316 46.655 27.37 46.4917 27.4277C46.3379 27.4853 46.2323 27.5958 46.1746 27.7591C46.117 27.9224 46.0882 28.1866 46.0882 28.5516V35.6991C46.0882 36.0641 46.117 36.3283 46.1746 36.4916C46.2323 36.655 46.3379 36.7654 46.4917 36.8231C46.655 36.8807 46.9096 36.9191 47.2554 36.9384V37.2266C46.8135 37.1977 46.2035 37.1833 45.4253 37.1833C44.5991 37.1833 43.9843 37.1977 43.5808 37.2266V36.9384C43.9266 36.9191 44.1764 36.8807 44.3301 36.8231C44.4934 36.7654 44.6039 36.655 44.6616 36.4916C44.7192 36.3283 44.748 36.0641 44.748 35.6991V28.5516C44.748 28.1866 44.7192 27.9224 44.6616 27.7591C44.6039 27.5958 44.4934 27.4853 44.3301 27.4277C44.1764 27.37 43.9266 27.3316 43.5808 27.3124V27.0242C43.9843 27.053 44.5991 27.0674 45.4253 27.0674C46.1938 27.0674 46.8039 27.053 47.2554 27.0242V27.3124ZM56.2949 36.0161C56.5255 36.6117 56.8569 36.9191 57.2892 36.9384V37.2266C56.9049 37.1977 56.391 37.1833 55.7473 37.1833C54.9211 37.1833 54.3063 37.1977 53.9028 37.2266V36.9384C54.2679 36.9191 54.5272 36.8759 54.6809 36.8087C54.8443 36.7318 54.9259 36.5973 54.9259 36.4052C54.9259 36.2419 54.8683 36.0161 54.753 35.7279L53.874 33.3646H50.3867L49.7959 34.8921C49.6038 35.4109 49.5077 35.8048 49.5077 36.0737C49.5077 36.3716 49.6086 36.5877 49.8103 36.7222C50.0217 36.8567 50.3387 36.9288 50.7614 36.9384V37.2266C50.2138 37.1977 49.6614 37.1833 49.1042 37.1833C48.6719 37.1833 48.3117 37.1977 48.0235 37.2266V36.9384C48.5038 36.8231 48.8833 36.4052 49.1619 35.6847L52.5482 26.9521H52.7788L56.2949 36.0161ZM53.7587 33.0764L52.1448 28.7678L50.502 33.0764H53.7587Z" fill="#FEF5EB"/>
<path d="M16.0733 13.0098L15.9979 13.1982L16.007 13.2013L16.0733 13.0098ZM16.837 13.3988L16.7246 13.5676L16.7282 13.5699L16.837 13.3988ZM17.5287 13.4565L17.7102 13.5472L17.7133 13.5404L17.5287 13.4565ZM17.644 12.9665V12.7638H17.466L17.443 12.9403L17.644 12.9665ZM17.9754 12.9665L18.1774 12.9839L18.1964 12.7638H17.9754V12.9665ZM17.9034 15.9062V16.1089H18.1061V15.9062H17.9034ZM17.572 15.9062L17.3698 15.9212L17.3837 16.1089H17.572V15.9062ZM16.8947 13.9464L16.7297 14.0643L16.7321 14.0676L16.8947 13.9464ZM13.9406 13.615L14.0796 13.7626L14.0818 13.7605L13.9406 13.615ZM13.6956 15.7621L13.5223 15.8674L13.5251 15.8717L13.6956 15.7621ZM14.3441 16.4538L14.4648 16.2909V16.2909L14.3441 16.4538ZM15.4537 17.1887L15.5606 17.0165L15.5605 17.0164L15.4537 17.1887ZM15.8716 17.4481L15.7646 17.6203L15.7648 17.6205L15.8716 17.4481ZM17.2982 18.4424L17.1683 18.5982L17.1731 18.602L17.2982 18.4424ZM18.1484 19.4079L17.9729 19.5094V19.5094L18.1484 19.4079ZM17.6008 22.7222L17.729 22.8792L17.7306 22.878L17.6008 22.7222ZM14.272 23.2842L14.2079 23.4765L14.2098 23.4771L14.272 23.2842ZM13.4362 22.8951L13.3274 23.0662L13.331 23.0684L13.4362 22.8951ZM12.7446 22.8519L12.926 22.9426L12.9291 22.9358L12.7446 22.8519ZM12.6293 23.3274V23.5302H12.8073L12.8303 23.3537L12.6293 23.3274ZM12.2978 23.3274L12.0956 23.3127L12.0798 23.5302H12.2978V23.3274ZM12.3555 19.869V19.6663H12.1527V19.869H12.3555ZM12.6869 19.869L12.8892 19.855L12.8761 19.6663H12.6869V19.869ZM13.4074 22.2323L13.24 22.3466V22.3466L13.4074 22.2323ZM16.6353 22.6646L16.7682 22.8177L16.7705 22.8157L16.6353 22.6646ZM16.6353 19.8546L16.4882 19.9941L16.4901 19.9961L16.6353 19.8546ZM14.9349 18.5865L14.8293 18.7596L14.83 18.76L14.9349 18.5865ZM13.5515 17.6642L13.427 17.8243L13.4292 17.8259L13.5515 17.6642ZM12.7013 16.6988L12.5256 16.7998L12.5267 16.8017L12.7013 16.6988ZM13.148 13.5141L13.2761 13.6713L13.2778 13.6699L13.148 13.5141ZM15.079 13.0684C15.4902 13.0684 15.7922 13.1157 15.998 13.198L16.1486 12.8215C15.8741 12.7117 15.5132 12.6629 15.079 12.6629V13.0684ZM16.007 13.2013C16.2379 13.2813 16.4771 13.4025 16.7246 13.5675L16.9495 13.2301C16.6783 13.0493 16.4083 12.9112 16.1396 12.8182L16.007 13.2013ZM16.7282 13.5699C16.942 13.7059 17.1486 13.8033 17.327 13.8033V13.3978C17.2748 13.3978 17.1548 13.3607 16.9459 13.2278L16.7282 13.5699ZM17.327 13.8033C17.5103 13.8033 17.6377 13.6919 17.7101 13.5471L17.3474 13.3658C17.3408 13.3791 17.335 13.3876 17.3308 13.3929C17.3287 13.3954 17.3271 13.3971 17.3261 13.3981C17.325 13.3992 17.3245 13.3996 17.3244 13.3996C17.3244 13.3996 17.3248 13.3993 17.3255 13.399C17.3262 13.3986 17.327 13.3983 17.3278 13.3981C17.3295 13.3975 17.3296 13.3978 17.327 13.3978V13.8033ZM17.7133 13.5404C17.7741 13.4065 17.8155 13.2189 17.845 12.9928L17.443 12.9403C17.4148 13.1561 17.3794 13.2951 17.3442 13.3726L17.7133 13.5404ZM17.644 13.1693H17.9754V12.7638H17.644V13.1693ZM17.7735 12.9491C17.7246 13.516 17.7007 14.5039 17.7007 15.9062H18.1061C18.1061 14.5033 18.1302 13.5314 18.1774 12.9839L17.7735 12.9491ZM17.9034 15.7035H17.572V16.1089H17.9034V15.7035ZM17.7741 15.8912C17.7142 15.0818 17.4781 14.3898 17.0572 13.8253L16.7321 14.0676C17.099 14.5598 17.3145 15.1743 17.3698 15.9212L17.7741 15.8912ZM17.0597 13.8286C16.6324 13.2304 16.0049 12.9367 15.2087 12.9367V13.3422C15.892 13.3422 16.3884 13.5865 16.7297 14.0643L17.0597 13.8286ZM15.2087 12.9367C14.6452 12.9367 14.1692 13.1106 13.7994 13.4695L14.0818 13.7605C14.3652 13.4854 14.7347 13.3422 15.2087 13.3422V12.9367ZM13.8017 13.4674C13.4303 13.8168 13.2479 14.2709 13.2479 14.811H13.6534C13.6534 14.3713 13.7976 14.028 14.0795 13.7626L13.8017 13.4674ZM13.2479 14.811C13.2479 15.2072 13.3368 15.5618 13.5223 15.8673L13.8689 15.6569C13.7278 15.4244 13.6534 15.145 13.6534 14.811H13.2479ZM13.5251 15.8717C13.7114 16.1616 13.9445 16.4101 14.2234 16.6167L14.4648 16.2909C14.2249 16.1132 14.0257 15.9006 13.8662 15.6525L13.5251 15.8717ZM14.2234 16.6167C14.4894 16.8137 14.8647 17.0621 15.3468 17.361L15.5605 17.0164C15.082 16.7197 14.7175 16.4781 14.4648 16.2909L14.2234 16.6167ZM15.3467 17.361L15.7646 17.6203L15.9785 17.2758L15.5606 17.0165L15.3467 17.361ZM15.7648 17.6205C16.3661 17.9926 16.8328 18.3184 17.1684 18.5981L17.428 18.2866C17.0719 17.9899 16.5875 17.6529 15.9783 17.2757L15.7648 17.6205ZM17.1731 18.602C17.5097 18.8657 17.7754 19.1683 17.9729 19.5094L18.3238 19.3063C18.0986 18.9173 17.7976 18.5762 17.4232 18.2828L17.1731 18.602ZM17.9729 19.5094C18.1637 19.839 18.2627 20.2303 18.2627 20.6904H18.6681C18.6681 20.1706 18.5557 19.7069 18.3238 19.3063L17.9729 19.5094ZM18.2627 20.6904C18.2627 21.5155 17.9933 22.1312 17.471 22.5665L17.7306 22.878C18.3611 22.3525 18.6681 21.6137 18.6681 20.6904H18.2627ZM17.4725 22.5652C16.9388 23.001 16.2567 23.2256 15.4104 23.2256V23.631C16.3319 23.631 17.1099 23.3848 17.729 22.8792L17.4725 22.5652ZM15.4104 23.2256C14.9614 23.2256 14.6049 23.1786 14.3343 23.0913L14.2098 23.4771C14.5348 23.582 14.9372 23.631 15.4104 23.631V23.2256ZM14.3361 23.0919C14.0628 23.0008 13.798 22.8776 13.5415 22.7218L13.331 23.0684C13.6125 23.2393 13.9048 23.3755 14.2079 23.4765L14.3361 23.0919ZM13.5451 22.7241C13.3313 22.5881 13.1247 22.4907 12.9463 22.4907V22.8961C12.9984 22.8961 13.1185 22.9332 13.3274 23.0662L13.5451 22.7241ZM12.9463 22.4907C12.7524 22.4907 12.6275 22.6194 12.56 22.768L12.9291 22.9358C12.9443 22.9025 12.9556 22.8929 12.9563 22.8924C12.9564 22.8924 12.9559 22.8927 12.9548 22.8933C12.9538 22.8939 12.9525 22.8945 12.951 22.895C12.9476 22.8962 12.9457 22.8961 12.9463 22.8961V22.4907ZM12.5632 22.7612C12.4991 22.8894 12.4575 23.0766 12.4282 23.3012L12.8303 23.3537C12.8587 23.1364 12.8939 23.0065 12.9259 22.9426L12.5632 22.7612ZM12.6293 23.1247H12.2978V23.5302H12.6293V23.1247ZM12.5 23.3421C12.5391 22.805 12.5582 21.6444 12.5582 19.869H12.1527C12.1527 21.6481 12.1334 22.7931 12.0956 23.3127L12.5 23.3421ZM12.3555 20.0717H12.6869V19.6663H12.3555V20.0717ZM12.4847 19.883C12.5536 20.8778 12.801 21.7034 13.24 22.3466L13.5749 22.118C13.1877 21.5507 12.9547 20.8007 12.8892 19.855L12.4847 19.883ZM13.24 22.3466C13.6976 23.017 14.4005 23.3428 15.3096 23.3428V22.9374C14.5087 22.9374 13.9435 22.658 13.5749 22.118L13.24 22.3466ZM15.3096 23.3428C15.8733 23.3428 16.3635 23.1691 16.7682 22.8176L16.5024 22.5115C16.177 22.794 15.7833 22.9374 15.3096 22.9374V23.3428ZM16.7705 22.8157C17.1904 22.44 17.3856 21.8972 17.3856 21.2236H16.9801C16.9801 21.818 16.8104 22.2359 16.5001 22.5135L16.7705 22.8157ZM17.3856 21.2236C17.3856 20.6344 17.1836 20.1268 16.7805 19.7131L16.4901 19.9961C16.8171 20.3317 16.9801 20.7368 16.9801 21.2236H17.3856ZM16.7824 19.715C16.4085 19.3209 15.8236 18.8872 15.0398 18.413L14.83 18.76C15.6025 19.2273 16.1512 19.6389 16.4882 19.9941L16.7824 19.715ZM15.0405 18.4134C14.477 18.0696 14.022 17.766 13.6739 17.5026L13.4292 17.8259C13.7919 18.1004 14.2592 18.4117 14.8293 18.7596L15.0405 18.4134ZM13.676 17.5042C13.3502 17.2508 13.0838 16.9483 12.876 16.5958L12.5267 16.8017C12.7607 17.1986 13.0612 17.5397 13.4271 17.8243L13.676 17.5042ZM12.8771 16.5977C12.6763 16.2485 12.5726 15.8377 12.5726 15.3586H12.1672C12.1672 15.8979 12.2845 16.3805 12.5256 16.7998L12.8771 16.5977ZM12.5726 15.3586C12.5726 14.5987 12.8144 14.0475 13.2761 13.6713L13.02 13.3569C12.4442 13.8261 12.1672 14.5046 12.1672 15.3586H12.5726ZM13.2778 13.6699C13.7552 13.2721 14.3509 13.0684 15.079 13.0684V12.6629C14.27 12.6629 13.5784 12.8915 13.0183 13.3584L13.2778 13.6699ZM27.3633 13.3124L27.5371 13.4167L27.566 13.3685V13.3124H27.3633ZM21.6136 22.8951L21.4398 22.7908L21.2555 23.0979H21.6136V22.8951ZM25.7926 22.6502L25.8877 22.8292L25.8896 22.8281L25.7926 22.6502ZM26.4842 21.8288L26.6735 21.9016V21.9016L26.4842 21.8288ZM26.8013 20.2004V19.9977H26.6168L26.5994 20.1813L26.8013 20.2004ZM27.1327 20.2004L27.3345 20.22L27.356 19.9977H27.1327V20.2004ZM27.1903 23.2266L27.1821 23.4291L27.415 23.4386L27.3921 23.2067L27.1903 23.2266ZM20.0429 23.2266H19.8402V23.4375L20.0509 23.4291L20.0429 23.2266ZM20.0429 22.9384L19.8694 22.8335L19.8402 22.8818V22.9384H20.0429ZM25.8358 13.3556L26.0093 13.4605L26.1952 13.1529H25.8358V13.3556ZM21.6568 13.615L21.752 13.794L21.7539 13.793L21.6568 13.615ZM20.9796 14.422L21.1688 14.4947V14.4947L20.9796 14.422ZM20.6625 16.0503V16.253H20.847L20.8644 16.0694L20.6625 16.0503ZM20.3311 16.0503L20.1293 16.0314L20.1085 16.253H20.3311V16.0503ZM20.2735 13.0242L20.2817 12.8216L20.0488 12.8122L20.0717 13.0441L20.2735 13.0242ZM27.3633 13.0242H27.566V12.8129L27.3549 12.8216L27.3633 13.0242ZM27.1894 13.2081L21.4398 22.7908L21.7875 22.9994L27.5371 13.4167L27.1894 13.2081ZM21.6136 23.0979H24.438V22.6924H21.6136V23.0979ZM24.438 23.0979C25.0462 23.0979 25.537 23.0155 25.8877 22.8292L25.6974 22.4711C25.4333 22.6115 25.021 22.6924 24.438 22.6924V23.0979ZM25.8896 22.8281C26.2537 22.6296 26.5142 22.3157 26.6735 21.9016L26.295 21.756C26.1661 22.0911 25.9655 22.3249 25.6955 22.4722L25.8896 22.8281ZM26.6735 21.9016C26.8274 21.5012 26.9352 20.9369 27.0031 20.2195L26.5994 20.1813C26.5328 20.8858 26.4293 21.407 26.295 21.756L26.6735 21.9016ZM26.8013 20.4032H27.1327V19.9977H26.8013V20.4032ZM26.9309 20.1809C26.9012 20.488 26.8867 20.8891 26.8867 21.3821H27.2922C27.2922 20.8951 27.3066 20.5085 27.3345 20.22L26.9309 20.1809ZM26.8867 21.3821C26.8867 21.9377 26.9208 22.5593 26.9886 23.2465L27.3921 23.2067C27.3253 22.5296 27.2922 21.9216 27.2922 21.3821H26.8867ZM27.1986 23.024C26.4831 22.995 25.2835 22.9806 23.6022 22.9806V23.3861C25.2833 23.3861 26.4757 23.4005 27.1821 23.4291L27.1986 23.024ZM23.6022 22.9806C21.9592 22.9806 20.7693 22.995 20.0349 23.024L20.0509 23.4291C20.7767 23.4005 21.9597 23.3861 23.6022 23.3861V22.9806ZM20.2456 23.2266V22.9384H19.8402V23.2266H20.2456ZM20.2164 23.0432L26.0093 13.4605L25.6623 13.2507L19.8694 22.8335L20.2164 23.0432ZM25.8358 13.1529H23.0258V13.5583H25.8358V13.1529ZM23.0258 13.1529C22.4158 13.1529 21.92 13.2405 21.5598 13.437L21.7539 13.793C22.0278 13.6436 22.4446 13.5583 23.0258 13.5583V13.1529ZM21.5617 13.4359C21.2046 13.6257 20.9491 13.9363 20.7903 14.3492L21.1688 14.4947C21.2982 14.1583 21.4942 13.9309 21.752 13.794L21.5617 13.4359ZM20.7903 14.3492C20.6364 14.7495 20.5286 15.3138 20.4607 16.0312L20.8644 16.0694C20.931 15.365 21.0346 14.8437 21.1688 14.4947L20.7903 14.3492ZM20.6625 15.8476H20.3311V16.253H20.6625V15.8476ZM20.533 16.0692C20.5626 15.7531 20.5771 15.3523 20.5771 14.8687H20.1716C20.1716 15.3457 20.1573 15.7327 20.1293 16.0314L20.533 16.0692ZM20.5771 14.8687C20.5771 14.313 20.543 13.6914 20.4752 13.0043L20.0717 13.0441C20.1385 13.7211 20.1716 14.3291 20.1716 14.8687H20.5771ZM20.2653 13.2267C20.9807 13.2557 22.1803 13.2701 23.8616 13.2701V12.8647C22.1805 12.8647 20.9881 12.8502 20.2817 12.8216L20.2653 13.2267ZM23.8616 13.2701C25.4949 13.2701 26.6657 13.2557 27.3716 13.2267L27.3549 12.8216C26.6582 12.8502 25.4946 12.8647 23.8616 12.8647V13.2701ZM27.1605 13.0242V13.3124H27.566V13.0242H27.1605ZM36.3434 23.2266L36.3345 23.4291L36.5681 23.4394L36.5452 23.2067L36.3434 23.2266ZM28.8646 23.2266H28.6618V23.4356L28.8708 23.4292L28.8646 23.2266ZM28.8646 22.9384L28.8533 22.7359L28.6618 22.7466V22.9384H28.8646ZM29.6139 22.8231L29.5464 22.6319L29.5427 22.6332L29.6139 22.8231ZM29.9453 13.7591L29.7541 13.8266V13.8266L29.9453 13.7591ZM29.6139 13.4277L29.5427 13.6175L29.5464 13.6188L29.6139 13.4277ZM28.8646 13.3124H28.6618V13.5042L28.8533 13.5148L28.8646 13.3124ZM28.8646 13.0242L28.8708 12.8215L28.6618 12.8151V13.0242H28.8646ZM36.0552 13.0242L36.2568 13.0456L36.2818 12.8102L36.0454 12.8217L36.0552 13.0242ZM35.9976 15.618V15.8207H36.2285L36.1986 15.5918L35.9976 15.618ZM35.6661 15.618L35.4646 15.6397L35.4841 15.8207H35.6661V15.618ZM35.4068 14.2346L35.215 14.3005L35.2157 14.3024L35.4068 14.2346ZM34.8736 13.5718L34.7722 13.7474L34.7775 13.7503L34.8736 13.5718ZM31.7754 13.4421L31.8359 13.6357L31.8429 13.6332L31.7754 13.4421ZM31.4584 13.7591L31.6496 13.8266V13.8266L31.4584 13.7591ZM31.3719 17.9524H31.1692V18.1552H31.3719V17.9524ZM33.1011 17.7219L33.2318 17.877L33.2363 17.873L33.1011 17.7219ZM33.4614 17.1599L33.2674 17.1008L33.2658 17.1065L33.4614 17.1599ZM33.6199 16.3385L33.4193 16.3084L33.4186 16.3148L33.6199 16.3385ZM33.6631 16.0503V15.8476H33.4885L33.4626 16.0202L33.6631 16.0503ZM33.9946 16.0503L34.1968 16.0647L34.2123 15.8476H33.9946V16.0503ZM34.0378 20.1428V20.3455H34.2543L34.2401 20.1295L34.0378 20.1428ZM33.7064 20.1428L33.5057 20.1715L33.5305 20.3455H33.7064V20.1428ZM33.6199 19.4511L33.4186 19.4751L33.4187 19.4756L33.6199 19.4511ZM33.2164 18.5433L33.0764 18.6899L33.0797 18.693L33.2164 18.5433ZM31.3719 18.2406V18.0379H31.1692V18.2406H31.3719ZM31.4584 22.4916L31.6496 22.4242V22.4242L31.4584 22.4916ZM31.7754 22.8231L31.7042 23.0129L31.7111 23.0155L31.7182 23.0176L31.7754 22.8231ZM34.9456 22.6646L35.0363 22.8459L35.0385 22.8448L34.9456 22.6646ZM35.6373 21.9008L35.8245 21.9788L35.8252 21.977L35.6373 21.9008ZM35.9544 20.3445V20.1418H35.7706L35.7526 20.3246L35.9544 20.3445ZM36.2858 20.3445L36.4873 20.3669L36.5123 20.1418H36.2858V20.3445ZM36.0398 21.3821C36.0398 21.9377 36.0739 22.5593 36.1417 23.2465L36.5452 23.2067C36.4784 22.5296 36.4453 21.9216 36.4453 21.3821H36.0398ZM36.3524 23.024C35.6942 22.995 34.5903 22.9806 33.0435 22.9806V23.3861C34.5901 23.3861 35.6861 23.4005 36.3345 23.4291L36.3524 23.024ZM33.0435 22.9806C31.1985 22.9806 29.803 22.995 28.8584 23.0239L28.8708 23.4292C29.809 23.4005 31.1995 23.3861 33.0435 23.3861V22.9806ZM29.0673 23.2266V22.9384H28.6618V23.2266H29.0673ZM28.8758 23.1408C29.2246 23.1214 29.5007 23.0821 29.6851 23.0129L29.5427 22.6332C29.4197 22.6794 29.1962 22.7169 28.8533 22.7359L28.8758 23.1408ZM29.6814 23.0143C29.9025 22.9362 30.0584 22.7803 30.1365 22.5591L29.7541 22.4242C29.7169 22.5297 29.6519 22.5947 29.5464 22.6319L29.6814 23.0143ZM30.1365 22.5591C30.2064 22.3612 30.2345 22.0674 30.2345 21.6991H29.829C29.829 22.0609 29.7996 22.2955 29.7541 22.4242L30.1365 22.5591ZM30.2345 21.6991V14.5516H29.829V21.6991H30.2345ZM30.2345 14.5516C30.2345 14.1833 30.2064 13.8896 30.1365 13.6916L29.7541 13.8266C29.7996 13.9553 29.829 14.1899 29.829 14.5516H30.2345ZM30.1365 13.6916C30.0584 13.4705 29.9025 13.3145 29.6814 13.2365L29.5464 13.6188C29.6519 13.6561 29.7169 13.7211 29.7541 13.8266L30.1365 13.6916ZM29.6851 13.2378C29.5007 13.1687 29.2246 13.1293 28.8758 13.1099L28.8533 13.5148C29.1962 13.5338 29.4197 13.5714 29.5427 13.6175L29.6851 13.2378ZM29.0673 13.3124V13.0242H28.6618V13.3124H29.0673ZM28.8584 13.2268C29.803 13.2557 31.1985 13.2701 33.0435 13.2701V12.8647C31.1995 12.8647 29.809 12.8503 28.8708 12.8215L28.8584 13.2268ZM33.0435 13.2701C34.4558 13.2701 35.464 13.2558 36.065 13.2267L36.0454 12.8217C35.4552 12.8502 34.4556 12.8647 33.0435 12.8647V13.2701ZM35.8536 13.0028C35.7858 13.6421 35.7516 14.2162 35.7516 14.7246H36.1571C36.1571 14.2338 36.1901 13.6743 36.2568 13.0456L35.8536 13.0028ZM35.7516 14.7246C35.7516 15.103 35.7661 15.4107 35.7965 15.6442L36.1986 15.5918C36.1714 15.3834 36.1571 15.0955 36.1571 14.7246H35.7516ZM35.9976 15.4153H35.6661V15.8207H35.9976V15.4153ZM35.8677 15.5963C35.8001 14.9684 35.7117 14.4878 35.5978 14.1668L35.2157 14.3024C35.3131 14.577 35.3977 15.0188 35.4646 15.6397L35.8677 15.5963ZM35.5985 14.1687C35.4788 13.8206 35.2709 13.5555 34.9697 13.3933L34.7775 13.7503C34.9758 13.857 35.1233 14.0338 35.215 14.3005L35.5985 14.1687ZM34.9749 13.3961C34.6789 13.2254 34.2564 13.1529 33.7352 13.1529V13.5583C34.2323 13.5583 34.5688 13.6299 34.7723 13.7474L34.9749 13.3961ZM33.7352 13.1529H32.5391V13.5583H33.7352V13.1529ZM32.5391 13.1529C32.1885 13.1529 31.9052 13.1813 31.7079 13.2509L31.8429 13.6332C31.9723 13.5876 32.1981 13.5583 32.5391 13.5583V13.1529ZM31.7149 13.2486C31.4951 13.3173 31.3442 13.4733 31.2672 13.6916L31.6496 13.8266C31.6878 13.7182 31.7483 13.6629 31.8359 13.6356L31.7149 13.2486ZM31.2672 13.6916C31.1973 13.8896 31.1692 14.1833 31.1692 14.5516H31.5747C31.5747 14.1899 31.6041 13.9553 31.6496 13.8266L31.2672 13.6916ZM31.1692 14.5516V17.9524H31.5747V14.5516H31.1692ZM31.3719 18.1552H32.323V17.7497H31.3719V18.1552ZM32.323 18.1552C32.6877 18.1552 33.0002 18.0719 33.2317 17.877L32.9706 17.5668C32.837 17.6792 32.6308 17.7497 32.323 17.7497V18.1552ZM33.2363 17.873C33.4444 17.6868 33.5879 17.4667 33.657 17.2132L33.2658 17.1065C33.2196 17.2758 33.1229 17.4304 32.966 17.5708L33.2363 17.873ZM33.6553 17.2189C33.7272 16.9827 33.782 16.6962 33.8213 16.3622L33.4186 16.3148C33.381 16.6341 33.3301 16.8951 33.2674 17.1009L33.6553 17.2189ZM33.8204 16.3686L33.8636 16.0804L33.4626 16.0202L33.4194 16.3084L33.8204 16.3686ZM33.6631 16.253H33.9946V15.8476H33.6631V16.253ZM33.7924 16.0359C33.7631 16.4451 33.7486 16.9016 33.7486 17.4049H34.1541C34.1541 16.9091 34.1684 16.4625 34.1968 16.0647L33.7924 16.0359ZM33.7486 17.4049V18.0965H34.1541V17.4049H33.7486ZM33.7486 18.0965C33.7486 18.5931 33.7778 19.2803 33.8355 20.1561L34.2401 20.1295C34.1826 19.2568 34.1541 18.5799 34.1541 18.0965H33.7486ZM34.0378 19.9401H33.7064V20.3455H34.0378V19.9401ZM33.9071 20.1141C33.8978 20.0495 33.8693 19.8217 33.8212 19.4266L33.4187 19.4756C33.4665 19.8683 33.4957 20.1016 33.5057 20.1715L33.9071 20.1141ZM33.8212 19.4271C33.7695 18.9927 33.6211 18.6382 33.3531 18.3935L33.0797 18.693C33.2536 18.8518 33.3742 19.1025 33.4186 19.4751L33.8212 19.4271ZM33.3564 18.3966C33.0967 18.1487 32.7425 18.0379 32.323 18.0379V18.4434C32.6721 18.4434 32.9135 18.5344 33.0764 18.6899L33.3564 18.3966ZM32.323 18.0379H31.3719V18.4434H32.323V18.0379ZM31.1692 18.2406V21.6991H31.5747V18.2406H31.1692ZM31.1692 21.6991C31.1692 22.0674 31.1973 22.3612 31.2672 22.5591L31.6496 22.4242C31.6041 22.2955 31.5747 22.0609 31.5747 21.6991H31.1692ZM31.2672 22.5591C31.3435 22.7754 31.491 22.9329 31.7042 23.0129L31.8466 22.6332C31.7524 22.5979 31.6885 22.5345 31.6496 22.4242L31.2672 22.5591ZM31.7182 23.0176C31.9107 23.0742 32.1896 23.0979 32.5391 23.0979V22.6924C32.197 22.6924 31.9667 22.668 31.8326 22.6286L31.7182 23.0176ZM32.5391 23.0979H33.5911V22.6924H32.5391V23.0979ZM33.5911 23.0979C34.1983 23.0979 34.6871 23.0205 35.0363 22.8459L34.855 22.4832C34.5893 22.6161 34.1751 22.6924 33.5911 22.6924V23.0979ZM35.0385 22.8448C35.4003 22.6584 35.663 22.3664 35.8245 21.9788L35.4502 21.8229C35.3235 22.127 35.125 22.3441 34.8528 22.4843L35.0385 22.8448ZM35.8252 21.977C35.9802 21.5947 36.0882 21.0532 36.1561 20.3644L35.7526 20.3246C35.686 21 35.5827 21.4961 35.4494 21.8247L35.8252 21.977ZM35.9544 20.5473H36.2858V20.1418H35.9544V20.5473ZM36.0843 20.3221C36.0543 20.5922 36.0398 20.9464 36.0398 21.3821H36.4453C36.4453 20.9531 36.4596 20.6156 36.4873 20.3669L36.0843 20.3221ZM46.9609 13.3124L46.9725 13.5148L47.1637 13.5039V13.3124H46.9609ZM46.2116 13.4709L46.298 13.6545L46.3065 13.6501L46.2116 13.4709ZM45.8802 13.8744L46.0735 13.9354L46.0744 13.9326L45.8802 13.8744ZM45.7937 23.2986V23.5014H45.9965V23.2986H45.7937ZM45.4623 23.2986L45.2921 23.4088L45.352 23.5014H45.4623V23.2986ZM39.41 13.9464L39.5802 13.8363L39.2073 13.26V13.9464H39.41ZM39.4965 22.3908L39.3029 22.4519L39.3062 22.4609L39.4965 22.3908ZM39.8712 22.7943L39.7843 22.9777L39.7925 22.9811L39.8712 22.7943ZM40.7214 22.9384H40.9241V22.7455L40.7315 22.7359L40.7214 22.9384ZM40.7214 23.2266L40.7045 23.4286L40.9241 23.4469V23.2266H40.7214ZM37.9114 23.2266H37.7086V23.4486L37.9297 23.4285L37.9114 23.2266ZM37.9114 22.9384L37.8998 22.736L37.7086 22.7469V22.9384H37.9114ZM38.6607 22.7943L38.7471 22.9779L38.7556 22.9734L38.6607 22.7943ZM38.9921 22.3908L39.1855 22.4518L39.1863 22.449L38.9921 22.3908ZM38.9921 13.7591L38.801 13.8266V13.8266L38.9921 13.7591ZM38.6607 13.4277L38.5895 13.6175L38.5932 13.6188L38.6607 13.4277ZM37.9114 13.3124H37.7086V13.5042L37.9001 13.5148L37.9114 13.3124ZM37.9114 13.0242L37.9297 12.8223L37.7086 12.8022V13.0242H37.9114ZM40.3755 13.0242L40.5456 12.9138L40.479 12.8112L40.3572 12.8223L40.3755 13.0242ZM45.4623 20.8633L45.2922 20.9737L45.665 21.5482V20.8633H45.4623ZM45.3614 13.86L45.1679 13.9211L45.1712 13.93L45.3614 13.86ZM45.0012 13.4709L44.9143 13.6543L44.9225 13.6577L45.0012 13.4709ZM44.151 13.3124H43.9482V13.5052L44.1408 13.5149L44.151 13.3124ZM44.151 13.0242L44.1678 12.8221L43.9482 12.8038V13.0242H44.151ZM46.9609 13.0242H47.1637V12.8022L46.9426 12.8223L46.9609 13.0242ZM46.9494 13.11C46.6041 13.1297 46.3191 13.1846 46.1168 13.2917L46.3065 13.6501C46.4308 13.5843 46.6453 13.5335 46.9725 13.5148L46.9494 13.11ZM46.1253 13.2874C45.9037 13.3917 45.7581 13.5757 45.686 13.8161L46.0744 13.9326C46.1175 13.7888 46.1929 13.7038 46.2979 13.6543L46.1253 13.2874ZM45.6869 13.8133C45.6196 14.0262 45.591 14.3252 45.591 14.6957H45.9965C45.9965 14.3362 46.0254 14.0876 46.0735 13.9354L45.6869 13.8133ZM45.591 14.6957V23.2986H45.9965V14.6957H45.591ZM45.7937 23.0959H45.4623V23.5014H45.7937V23.0959ZM45.6325 23.1885L39.5802 13.8363L39.2398 14.0566L45.2921 23.4088L45.6325 23.1885ZM39.2073 13.9464V21.555H39.6128V13.9464H39.2073ZM39.2073 21.555C39.2073 21.9345 39.2358 22.2386 39.3032 22.4518L39.6898 22.3297C39.6418 22.1778 39.6128 21.9248 39.6128 21.555H39.2073ZM39.3062 22.4609C39.3926 22.6953 39.5559 22.8693 39.7844 22.9775L39.9579 22.611C39.8213 22.5463 39.7349 22.4513 39.6867 22.3207L39.3062 22.4609ZM39.7925 22.9811C40.0087 23.0722 40.3213 23.1213 40.7112 23.1408L40.7315 22.7359C40.3529 22.7169 40.0986 22.6701 39.9498 22.6074L39.7925 22.9811ZM40.5186 22.9384V23.2266H40.9241V22.9384H40.5186ZM40.7382 23.0245C40.3839 22.995 39.8874 22.9806 39.2515 22.9806V23.3861C39.8837 23.3861 40.3671 23.4005 40.7045 23.4286L40.7382 23.0245ZM39.2515 22.9806C38.673 22.9806 38.2192 22.995 37.893 23.0247L37.9297 23.4285C38.2376 23.4005 38.6772 23.3861 39.2515 23.3861V22.9806ZM38.1141 23.2266V22.9384H37.7086V23.2266H38.1141ZM37.9229 23.1408C38.2666 23.1211 38.5479 23.0714 38.747 22.9777L38.5744 22.6108C38.4469 22.6708 38.2286 22.7172 37.8998 22.736L37.9229 23.1408ZM38.7556 22.9734C38.9678 22.8611 39.1124 22.6831 39.1855 22.4518L38.7988 22.3297C38.7566 22.4635 38.6802 22.5545 38.5658 22.6151L38.7556 22.9734ZM39.1863 22.449C39.2525 22.2285 39.2813 21.9264 39.2813 21.555H38.8759C38.8759 21.9137 38.8471 22.1688 38.7979 22.3325L39.1863 22.449ZM39.2813 21.555V14.5516H38.8759V21.555H39.2813ZM39.2813 14.5516C39.2813 14.1833 39.2532 13.8896 39.1833 13.6916L38.801 13.8266C38.8464 13.9553 38.8759 14.1899 38.8759 14.5516H39.2813ZM39.1833 13.6916C39.1053 13.4705 38.9493 13.3145 38.7282 13.2365L38.5932 13.6188C38.6987 13.6561 38.7637 13.7211 38.801 13.8266L39.1833 13.6916ZM38.7319 13.2378C38.5475 13.1687 38.2714 13.1293 37.9226 13.1099L37.9001 13.5148C38.243 13.5338 38.4665 13.5714 38.5895 13.6175L38.7319 13.2378ZM38.1141 13.3124V13.0242H37.7086V13.3124H38.1141ZM37.893 13.2261C38.2192 13.2557 38.673 13.2701 39.2515 13.2701V12.8647C38.6772 12.8647 38.2376 12.8503 37.9297 12.8223L37.893 13.2261ZM39.2515 13.2701C39.6879 13.2701 40.069 13.2556 40.3939 13.2261L40.3572 12.8223C40.0479 12.8504 39.6797 12.8647 39.2515 12.8647V13.2701ZM40.2054 13.1345L45.2922 20.9737L45.6324 20.7529L40.5456 12.9138L40.2054 13.1345ZM45.665 20.8633V14.6957H45.2596V20.8633H45.665ZM45.665 14.6957C45.665 14.3151 45.6317 14.0071 45.5517 13.7899L45.1712 13.93C45.2257 14.0779 45.2596 14.3271 45.2596 14.6957H45.665ZM45.5547 13.7989C45.4785 13.5574 45.315 13.3831 45.0798 13.284L44.9225 13.6577C45.0524 13.7124 45.1291 13.7974 45.1681 13.921L45.5547 13.7989ZM45.088 13.2877C44.8684 13.1837 44.5523 13.1294 44.1611 13.1099L44.1408 13.5149C44.5182 13.5337 44.7689 13.5852 44.9144 13.6541L45.088 13.2877ZM44.3537 13.3124V13.0242H43.9482V13.3124H44.3537ZM44.1341 13.2262C44.4884 13.2557 44.9849 13.2701 45.6208 13.2701V12.8647C44.9886 12.8647 44.5052 12.8503 44.1678 12.8221L44.1341 13.2262ZM45.6208 13.2701C46.1993 13.2701 46.6532 13.2557 46.9793 13.2261L46.9426 12.8223C46.6347 12.8503 46.1951 12.8647 45.6208 12.8647V13.2701ZM46.7582 13.0242V13.3124H47.1637V13.0242H46.7582ZM56.2769 13.0242L56.4787 13.0441L56.5015 12.8132L56.2696 12.8216L56.2769 13.0242ZM56.2193 16.0503V16.253H56.4419L56.4211 16.0314L56.2193 16.0503ZM55.8879 16.0503L55.6862 16.0713L55.7051 16.253H55.8879V16.0503ZM55.5997 14.4075L55.4063 14.4686L55.4068 14.4701L55.5997 14.4075ZM54.9944 13.615L54.8901 13.7889L54.8945 13.7914L54.9944 13.615ZM52.8905 13.3556V13.1529H52.6878V13.3556H52.8905ZM53.0058 22.434L52.819 22.5127V22.5127L53.0058 22.434ZM53.4093 22.8087L53.3423 23V23L53.4093 22.8087ZM54.346 22.9384H54.5487V22.7444L54.355 22.7358L54.346 22.9384ZM54.346 23.2266L54.3343 23.429L54.5487 23.4413V23.2266H54.346ZM50.095 23.2266H49.8922V23.4424L50.1076 23.4289L50.095 23.2266ZM50.095 22.9384L50.086 22.7358L49.8922 22.7444V22.9384H50.095ZM51.0316 22.8087L51.0986 23V23L51.0316 22.8087ZM51.4351 22.434L51.622 22.5127V22.5127L51.4351 22.434ZM51.5504 13.3556H51.7531V13.1529H51.5504V13.3556ZM49.4465 13.615L49.5465 13.7914L49.5508 13.7888L49.4465 13.615ZM48.8413 14.4075L49.0341 14.4701L49.0346 14.4686L48.8413 14.4075ZM48.5531 16.0503V16.253H48.7359L48.7547 16.0713L48.5531 16.0503ZM48.2217 16.0503L48.0198 16.0314L47.999 16.253H48.2217V16.0503ZM48.164 13.0242L48.1713 12.8216L47.9395 12.8132L47.9623 13.0441L48.164 13.0242ZM56.0752 13.0043C56.0074 13.6914 55.9733 14.313 55.9733 14.8687H56.3788C56.3788 14.3291 56.4119 13.7211 56.4787 13.0441L56.0752 13.0043ZM55.9733 14.8687C55.9733 15.3523 55.9878 15.7531 56.0174 16.0692L56.4211 16.0314C56.3931 15.7327 56.3788 15.3457 56.3788 14.8687H55.9733ZM56.2193 15.8476H55.8879V16.253H56.2193V15.8476ZM56.0895 16.0294C56.0123 15.2865 55.9146 14.7215 55.7925 14.345L55.4068 14.4701C55.5153 14.8045 55.6097 15.3347 55.6862 16.0713L56.0895 16.0294ZM55.793 14.3465C55.6648 13.9407 55.4341 13.6311 55.0944 13.4386L54.8945 13.7914C55.1312 13.9255 55.3039 14.1443 55.4063 14.4686L55.793 14.3465ZM55.0987 13.4411C54.7631 13.2398 54.2765 13.1529 53.6687 13.1529V13.5583C54.2522 13.5583 54.6494 13.6444 54.8901 13.7888L55.0987 13.4411ZM53.6687 13.1529H52.8905V13.5583H53.6687V13.1529ZM52.6878 13.3556V21.555H53.0933V13.3556H52.6878ZM52.6878 21.555C52.6878 21.9633 52.7255 22.2907 52.819 22.5127L53.1927 22.3553C53.1324 22.2122 53.0933 21.9537 53.0933 21.555H52.6878ZM52.819 22.5127C52.9188 22.7497 53.0978 22.9144 53.3423 23L53.4763 22.6173C53.3365 22.5684 53.2466 22.4834 53.1927 22.3553L52.819 22.5127ZM53.3423 23C53.5643 23.0777 53.902 23.1216 54.337 23.1409L54.355 22.7358C53.9254 22.7167 53.6386 22.6741 53.4763 22.6173L53.3423 23ZM54.1432 22.9384V23.2266H54.5487V22.9384H54.1432ZM54.3577 23.0242C53.8523 22.995 53.1416 22.9806 52.2277 22.9806V23.3861C53.139 23.3861 53.8406 23.4005 54.3343 23.429L54.3577 23.0242ZM52.2277 22.9806C51.2663 22.9806 50.5501 22.995 50.0823 23.0242L50.1076 23.4289C50.5621 23.4005 51.2677 23.3861 52.2277 23.3861V22.9806ZM50.2977 23.2266V22.9384H49.8922V23.2266H50.2977ZM50.104 23.1409C50.539 23.1216 50.8766 23.0777 51.0986 23L50.9647 22.6173C50.8024 22.6741 50.5156 22.7167 50.086 22.7358L50.104 23.1409ZM51.0986 23C51.3431 22.9144 51.5222 22.7497 51.622 22.5127L51.2483 22.3553C51.1944 22.4834 51.1044 22.5684 50.9647 22.6173L51.0986 23ZM51.622 22.5127C51.7154 22.2907 51.7531 21.9633 51.7531 21.555H51.3477C51.3477 21.9537 51.3085 22.2122 51.2483 22.3553L51.622 22.5127ZM51.7531 21.555V13.3556H51.3477V21.555H51.7531ZM51.5504 13.1529H50.7723V13.5583H51.5504V13.1529ZM50.7723 13.1529C50.1645 13.1529 49.6779 13.2398 49.3422 13.4411L49.5508 13.7888C49.7916 13.6444 50.1888 13.5583 50.7723 13.5583V13.1529ZM49.3466 13.4386C49.0069 13.6311 48.7761 13.9407 48.648 14.3465L49.0346 14.4686C49.137 14.1443 49.3098 13.9255 49.5465 13.7914L49.3466 13.4386ZM48.6484 14.345C48.5263 14.7215 48.4286 15.2865 48.3514 16.0294L48.7547 16.0713C48.8313 15.3347 48.9257 14.8045 49.0341 14.4701L48.6484 14.345ZM48.5531 15.8476H48.2217V16.253H48.5531V15.8476ZM48.4235 16.0692C48.4532 15.7531 48.4676 15.3523 48.4676 14.8687H48.0622C48.0622 15.3457 48.0478 15.7327 48.0198 16.0314L48.4235 16.0692ZM48.4676 14.8687C48.4676 14.313 48.4335 13.6914 48.3658 13.0043L47.9623 13.0441C48.029 13.7211 48.0622 14.3291 48.0622 14.8687H48.4676ZM48.1567 13.2268C48.9581 13.2557 50.3159 13.2701 52.2277 13.2701V12.8647C50.316 12.8647 48.9647 12.8502 48.1713 12.8216L48.1567 13.2268ZM52.2277 13.2701C54.1299 13.2701 55.4829 13.2557 56.2843 13.2268L56.2696 12.8216C55.4763 12.8502 54.1298 12.8647 52.2277 12.8647V13.2701ZM16.1884 31.8372H15.9856V32.0141L16.161 32.038L16.1884 31.8372ZM18.4508 32.7594L18.3044 32.8998L18.3059 32.9013L18.4508 32.7594ZM18.7101 35.8864L18.8794 35.998V35.998L18.7101 35.8864ZM17.5141 36.8807L17.5964 37.066L17.5993 37.0647L17.5141 36.8807ZM15.0067 37.2122L15.0174 37.0096L15.0131 37.0095L15.0067 37.2122ZM11.4042 37.2266H11.2014V37.4443L11.4186 37.4288L11.4042 37.2266ZM11.4042 36.9384L11.3929 36.7359L11.2014 36.7466V36.9384H11.4042ZM12.1535 36.8231L12.086 36.6319L12.0823 36.6332L12.1535 36.8231ZM12.4849 27.7591L12.2938 27.8266V27.8266L12.4849 27.7591ZM12.1535 27.4277L12.0823 27.6175L12.086 27.6188L12.1535 27.4277ZM11.4042 27.3124H11.2014V27.5042L11.3929 27.5148L11.4042 27.3124ZM11.4042 27.0242L11.4186 26.822L11.2014 26.8064V27.0242H11.4042ZM13.1622 27.0674V27.2701L13.1641 27.2701L13.1622 27.0674ZM14.7185 27.053L14.7204 27.2559L14.7292 27.2554L14.7185 27.053ZM17.5861 27.6582L17.4598 27.8168L17.4613 27.8179L17.5861 27.6582ZM17.8455 30.7996L17.6875 30.6726L17.6859 30.6747L17.8455 30.7996ZM16.1884 31.8083L16.1294 31.6144L15.9856 31.658V31.8083H16.1884ZM14.3006 27.4132L14.2193 27.2275L14.2149 27.2295L14.3006 27.4132ZM13.998 27.7735L14.1903 27.8376V27.8376L13.998 27.7735ZM13.9116 31.8083H13.7088V32.0111H13.9116V31.8083ZM16.5198 31.1743L16.3563 31.0544L16.3558 31.0551L16.5198 31.1743ZM17.0674 32.6441L16.9257 32.7892L16.9275 32.7909L17.0674 32.6441ZM13.9116 32.0533V31.8506H13.7088V32.0533H13.9116ZM13.998 36.4628L14.1892 36.3953V36.3953L13.998 36.4628ZM14.3006 36.8087L14.2149 36.9924L14.222 36.9957L14.2294 36.9985L14.3006 36.8087ZM16.161 32.038C17.199 32.1796 17.8992 32.4773 18.3044 32.8998L18.5971 32.6191C18.0993 32.1001 17.2912 31.7829 16.2158 31.6363L16.161 32.038ZM18.3059 32.9013C18.7198 33.324 18.9253 33.83 18.9253 34.431H19.3308C19.3308 33.7254 19.0847 33.1171 18.5956 32.6176L18.3059 32.9013ZM18.9253 34.431C18.9253 34.9423 18.7958 35.388 18.5409 35.7748L18.8794 35.998C19.1816 35.5395 19.3308 35.0149 19.3308 34.431H18.9253ZM18.5409 35.7748C18.2856 36.1621 17.918 36.4703 17.4289 36.6967L17.5993 37.0647C18.1477 36.8108 18.5775 36.4561 18.8794 35.998L18.5409 35.7748ZM17.4318 36.6955C16.9446 36.912 16.3591 37.0238 15.6696 37.0238V37.4293C16.4019 37.4293 17.0461 37.3106 17.5964 37.066L17.4318 36.6955ZM15.6696 37.0238C15.4124 37.0238 15.1952 37.0191 15.0174 37.0097L14.9961 37.4146C15.1833 37.4245 15.408 37.4293 15.6696 37.4293V37.0238ZM15.0131 37.0095C14.3962 36.9902 13.7888 36.9806 13.191 36.9806V37.3861C13.7845 37.3861 14.3876 37.3956 15.0004 37.4148L15.0131 37.0095ZM13.191 36.9806C12.4021 36.9806 11.8006 36.995 11.3897 37.0243L11.4186 37.4288C11.8147 37.4005 12.4045 37.3861 13.191 37.3861V36.9806ZM11.6069 37.2266V36.9384H11.2014V37.2266H11.6069ZM11.4154 37.1408C11.7643 37.1214 12.0403 37.0821 12.2247 37.0129L12.0823 36.6332C11.9593 36.6794 11.7358 36.7169 11.3929 36.7359L11.4154 37.1408ZM12.221 37.0143C12.4421 36.9362 12.5981 36.7803 12.6761 36.5591L12.2938 36.4242C12.2565 36.5297 12.1915 36.5947 12.086 36.6319L12.221 37.0143ZM12.6761 36.5591C12.746 36.3612 12.7741 36.0674 12.7741 35.6991H12.3687C12.3687 36.0609 12.3392 36.2955 12.2938 36.4242L12.6761 36.5591ZM12.7741 35.6991V28.5516H12.3687V35.6991H12.7741ZM12.7741 28.5516C12.7741 28.1833 12.746 27.8896 12.6761 27.6916L12.2938 27.8266C12.3392 27.9552 12.3687 28.1899 12.3687 28.5516H12.7741ZM12.6761 27.6916C12.5981 27.4705 12.4421 27.3145 12.221 27.2365L12.086 27.6188C12.1915 27.6561 12.2565 27.7211 12.2938 27.8266L12.6761 27.6916ZM12.2247 27.2378C12.0403 27.1687 11.7643 27.1293 11.4154 27.1099L11.3929 27.5148C11.7358 27.5338 11.9593 27.5714 12.0823 27.6175L12.2247 27.2378ZM11.6069 27.3124V27.0242H11.2014V27.3124H11.6069ZM11.3897 27.2264C11.8006 27.2557 12.3923 27.2701 13.1622 27.2701V26.8647C12.395 26.8647 11.8148 26.8502 11.4186 26.822L11.3897 27.2264ZM13.1641 27.2701L14.7204 27.2557L14.7166 26.8503L13.1603 26.8647L13.1641 27.2701ZM14.7292 27.2554C14.9074 27.2461 15.1103 27.2413 15.3382 27.2413V26.8358C15.1049 26.8358 14.8947 26.8407 14.7079 26.8505L14.7292 27.2554ZM15.3382 27.2413C16.2933 27.2413 16.9906 27.4431 17.4599 27.8168L17.7124 27.4996C17.1442 27.0471 16.3428 26.8358 15.3382 26.8358V27.2413ZM17.4613 27.8179C17.9395 28.1918 18.176 28.68 18.176 29.301H18.5814C18.5814 28.5578 18.2895 27.9508 17.711 27.4985L17.4613 27.8179ZM18.176 29.301C18.176 29.8111 18.0146 30.266 17.6876 30.6726L18.0035 30.9267C18.3874 30.4495 18.5814 29.9053 18.5814 29.301H18.176ZM17.6859 30.6747C17.3743 31.0728 16.8644 31.3911 16.1294 31.6144L16.2473 32.0023C17.0302 31.7645 17.625 31.4103 18.0052 30.9246L17.6859 30.6747ZM15.9856 31.8083V31.8372H16.3911V31.8083H15.9856ZM14.9779 27.1096C14.6705 27.1096 14.4114 27.1435 14.2194 27.2275L14.3819 27.599C14.4973 27.5485 14.6897 27.5151 14.9779 27.5151V27.1096ZM14.2149 27.2295C14.0128 27.3238 13.8781 27.4921 13.8057 27.7094L14.1903 27.8376C14.2332 27.709 14.3003 27.6371 14.3864 27.597L14.2149 27.2295ZM13.8057 27.7094C13.7375 27.914 13.7088 28.1999 13.7088 28.5516H14.1143C14.1143 28.2117 14.1433 27.9788 14.1903 27.8376L13.8057 27.7094ZM13.7088 28.5516V31.8083H14.1143V28.5516H13.7088ZM13.9116 32.0111H14.877V31.6056H13.9116V32.0111ZM14.877 32.0111C15.6954 32.0111 16.3217 31.7913 16.6838 31.2935L16.3558 31.0551C16.103 31.4027 15.6341 31.6056 14.877 31.6056V32.0111ZM16.6833 31.2942C17.033 30.8173 17.1981 30.1996 17.1981 29.4595H16.7926C16.7926 30.1412 16.6407 30.6667 16.3563 31.0544L16.6833 31.2942ZM17.1981 29.4595C17.1981 28.7139 17.0347 28.1182 16.6711 27.7106L16.3685 27.9805C16.639 28.2838 16.7926 28.764 16.7926 29.4595H17.1981ZM16.6711 27.7106C16.2999 27.2945 15.7179 27.1096 14.9779 27.1096V27.5151C15.6597 27.5151 16.1056 27.6857 16.3685 27.9805L16.6711 27.7106ZM14.9923 37.0979C15.9186 37.0979 16.651 36.8814 17.1519 36.4127C17.6553 35.9416 17.8898 35.2488 17.8898 34.3734H17.4843C17.4843 35.1791 17.2697 35.7471 16.8748 36.1167C16.4774 36.4885 15.8625 36.6924 14.9923 36.6924V37.0979ZM17.8898 34.3734C17.8898 33.578 17.6725 32.9409 17.2073 32.4974L16.9275 32.7909C17.2885 33.1351 17.4843 33.6508 17.4843 34.3734H17.8898ZM17.209 32.4991C16.7507 32.0516 16.0386 31.8506 15.122 31.8506V32.2561C15.9923 32.2561 16.5771 32.4489 16.9258 32.7892L17.209 32.4991ZM15.122 31.8506H13.9116V32.2561H15.122V31.8506ZM13.7088 32.0533V35.6991H14.1143V32.0533H13.7088ZM13.7088 35.6991C13.7088 36.0497 13.7372 36.333 13.8068 36.5303L14.1892 36.3953C14.1435 36.266 14.1143 36.0401 14.1143 35.6991H13.7088ZM13.8068 36.5303C13.8808 36.7399 14.0168 36.8999 14.2149 36.9924L14.3864 36.625C14.2962 36.5829 14.2305 36.5124 14.1892 36.3953L13.8068 36.5303ZM14.2294 36.9985C14.4179 37.0692 14.678 37.0979 14.9923 37.0979V36.6924C14.6918 36.6924 14.4908 36.6634 14.3718 36.6188L14.2294 36.9985ZM24.2241 27.3124L24.2353 27.5148L24.4268 27.5042V27.3124H24.2241ZM23.4604 27.4277L23.3929 27.2364L23.3892 27.2378L23.4604 27.4277ZM23.1433 27.7591L23.3345 27.8266V27.8266L23.1433 27.7591ZM23.1433 36.4916L23.3345 36.4242V36.4242L23.1433 36.4916ZM23.4604 36.8231L23.3892 37.0129L23.3929 37.0143L23.4604 36.8231ZM24.2241 36.9384H24.4268V36.7466L24.2353 36.7359L24.2241 36.9384ZM24.2241 37.2266L24.2109 37.4289L24.4268 37.443V37.2266H24.2241ZM20.5495 37.2266H20.3468V37.4443L20.564 37.4288L20.5495 37.2266ZM20.5495 36.9384L20.5383 36.7359L20.3468 36.7466V36.9384H20.5495ZM21.2988 36.8231L21.2313 36.6319L21.2276 36.6332L21.2988 36.8231ZM21.6303 27.7591L21.4391 27.8266V27.8266L21.6303 27.7591ZM21.2988 27.4277L21.2276 27.6175L21.2314 27.6188L21.2988 27.4277ZM20.5495 27.3124H20.3468V27.5042L20.5383 27.5148L20.5495 27.3124ZM20.5495 27.0242L20.564 26.822L20.3468 26.8064V27.0242H20.5495ZM24.2241 27.0242H24.4268V26.8081L24.2112 26.8218L24.2241 27.0242ZM24.2129 27.1099C23.863 27.1294 23.5845 27.1688 23.3929 27.2365L23.5278 27.6188C23.6628 27.5712 23.8936 27.5338 24.2353 27.5148L24.2129 27.1099ZM23.3892 27.2378C23.1759 27.3178 23.0285 27.4753 22.9522 27.6916L23.3345 27.8266C23.3735 27.7162 23.4374 27.6528 23.5315 27.6175L23.3892 27.2378ZM22.9522 27.6916C22.8823 27.8896 22.8541 28.1833 22.8541 28.5516H23.2596C23.2596 28.1899 23.2891 27.9552 23.3345 27.8266L22.9522 27.6916ZM22.8541 28.5516V35.6991H23.2596V28.5516H22.8541ZM22.8541 35.6991C22.8541 36.0674 22.8823 36.3612 22.9522 36.5591L23.3345 36.4242C23.2891 36.2955 23.2596 36.0609 23.2596 35.6991H22.8541ZM22.9522 36.5591C23.0285 36.7754 23.1759 36.9329 23.3892 37.0129L23.5315 36.6332C23.4374 36.5979 23.3735 36.5345 23.3345 36.4242L22.9522 36.5591ZM23.3929 37.0143C23.5845 37.0819 23.863 37.1213 24.2129 37.1408L24.2353 36.7359C23.8936 36.7169 23.6628 36.6795 23.5278 36.6319L23.3929 37.0143ZM24.0214 36.9384V37.2266H24.4268V36.9384H24.0214ZM24.2373 37.0243C23.7889 36.995 23.1738 36.9806 22.394 36.9806V37.3861C23.1705 37.3861 23.7755 37.4005 24.2109 37.4289L24.2373 37.0243ZM22.394 36.9806C21.5669 36.9806 20.9461 36.995 20.5351 37.0243L20.564 37.4288C20.9599 37.4005 21.5688 37.3861 22.394 37.3861V36.9806ZM20.7522 37.2266V36.9384H20.3468V37.2266H20.7522ZM20.5608 37.1408C20.9096 37.1214 21.1856 37.0821 21.37 37.0129L21.2276 36.6332C21.1046 36.6794 20.8811 36.7169 20.5383 36.7359L20.5608 37.1408ZM21.3663 37.0143C21.5874 36.9362 21.7434 36.7803 21.8214 36.5591L21.4391 36.4242C21.4019 36.5297 21.3369 36.5947 21.2314 36.6319L21.3663 37.0143ZM21.8214 36.5591C21.8913 36.3612 21.9195 36.0674 21.9195 35.6991H21.514C21.514 36.0609 21.4845 36.2955 21.4391 36.4242L21.8214 36.5591ZM21.9195 35.6991V28.5516H21.514V35.6991H21.9195ZM21.9195 28.5516C21.9195 28.1833 21.8913 27.8896 21.8214 27.6916L21.4391 27.8266C21.4845 27.9552 21.514 28.1899 21.514 28.5516H21.9195ZM21.8214 27.6916C21.7434 27.4705 21.5874 27.3145 21.3663 27.2365L21.2314 27.6188C21.3369 27.6561 21.4019 27.7211 21.4391 27.8266L21.8214 27.6916ZM21.37 27.2378C21.1856 27.1687 20.9096 27.1293 20.5608 27.1099L20.5383 27.5148C20.8811 27.5338 21.1046 27.5714 21.2276 27.6175L21.37 27.2378ZM20.7522 27.3124V27.0242H20.3468V27.3124H20.7522ZM20.5351 27.2264C20.9461 27.2558 21.5669 27.2701 22.394 27.2701V26.8647C21.5688 26.8647 20.9599 26.8502 20.564 26.822L20.5351 27.2264ZM22.394 27.2701C23.1643 27.2701 23.7793 27.2557 24.237 27.2265L24.2112 26.8218C23.7659 26.8503 23.1608 26.8647 22.394 26.8647V27.2701ZM24.0214 27.0242V27.3124H24.4268V27.0242H24.0214ZM30.4824 31.8372H30.2797V32.0141L30.455 32.038L30.4824 31.8372ZM32.7448 32.7594L32.5985 32.8998L32.6 32.9013L32.7448 32.7594ZM33.0042 35.8864L33.1735 35.998V35.998L33.0042 35.8864ZM31.8082 36.8807L31.8905 37.066L31.8933 37.0647L31.8082 36.8807ZM29.3008 37.2122L29.3115 37.0096L29.3071 37.0095L29.3008 37.2122ZM25.6983 37.2266H25.4955V37.4443L25.7127 37.4288L25.6983 37.2266ZM25.6983 36.9384L25.687 36.7359L25.4955 36.7466V36.9384H25.6983ZM26.4476 36.8231L26.3801 36.6319L26.3764 36.6332L26.4476 36.8231ZM26.779 27.7591L26.5878 27.8266V27.8266L26.779 27.7591ZM26.4476 27.4277L26.3764 27.6175L26.3801 27.6188L26.4476 27.4277ZM25.6983 27.3124H25.4955V27.5042L25.687 27.5148L25.6983 27.3124ZM25.6983 27.0242L25.7127 26.822L25.4955 26.8064V27.0242H25.6983ZM27.4563 27.0674V27.2701L27.4582 27.2701L27.4563 27.0674ZM29.0126 27.053L29.0145 27.2559L29.0233 27.2554L29.0126 27.053ZM31.8802 27.6582L31.7539 27.8168L31.7553 27.8179L31.8802 27.6582ZM32.1396 30.7996L31.9816 30.6726L31.9799 30.6747L32.1396 30.7996ZM30.4824 31.8083L30.4235 31.6144L30.2797 31.658V31.8083H30.4824ZM28.5947 27.4132L28.5134 27.2275L28.509 27.2295L28.5947 27.4132ZM28.2921 27.7735L28.4844 27.8376V27.8376L28.2921 27.7735ZM28.2056 31.8083H28.0029V32.0111H28.2056V31.8083ZM30.8139 31.1743L30.6504 31.0544L30.6499 31.0551L30.8139 31.1743ZM31.3615 32.6441L31.2198 32.7892L31.2215 32.7909L31.3615 32.6441ZM28.2056 32.0533V31.8506H28.0029V32.0533H28.2056ZM28.2921 36.4628L28.4833 36.3953V36.3953L28.2921 36.4628ZM28.5947 36.8087L28.509 36.9924L28.5161 36.9957L28.5235 36.9985L28.5947 36.8087ZM30.455 32.038C31.493 32.1796 32.1933 32.4773 32.5985 32.8998L32.8911 32.6191C32.3934 32.1001 31.5853 31.7829 30.5098 31.6363L30.455 32.038ZM32.6 32.9013C33.0139 33.324 33.2194 33.83 33.2194 34.431H33.6248C33.6248 33.7254 33.3788 33.1171 32.8897 32.6176L32.6 32.9013ZM33.2194 34.431C33.2194 34.9423 33.0899 35.388 32.8349 35.7748L33.1735 35.998C33.4757 35.5395 33.6248 35.0149 33.6248 34.431H33.2194ZM32.8349 35.7748C32.5797 36.1621 32.2121 36.4703 31.723 36.6967L31.8933 37.0647C32.4418 36.8108 32.8715 36.4561 33.1735 35.998L32.8349 35.7748ZM31.7258 36.6955C31.2386 36.912 30.6531 37.0238 29.9637 37.0238V37.4293C30.696 37.4293 31.3402 37.3106 31.8905 37.066L31.7258 36.6955ZM29.9637 37.0238C29.7065 37.0238 29.4893 37.0191 29.3115 37.0097L29.2901 37.4146C29.4773 37.4245 29.7021 37.4293 29.9637 37.4293V37.0238ZM29.3071 37.0095C28.6903 36.9902 28.0829 36.9806 27.4851 36.9806V37.3861C28.0786 37.3861 28.6817 37.3956 29.2945 37.4148L29.3071 37.0095ZM27.4851 36.9806C26.6961 36.9806 26.0947 36.995 25.6838 37.0243L25.7127 37.4288C26.1088 37.4005 26.6986 37.3861 27.4851 37.3861V36.9806ZM25.901 37.2266V36.9384H25.4955V37.2266H25.901ZM25.7095 37.1408C26.0583 37.1214 26.3344 37.0821 26.5188 37.0129L26.3764 36.6332C26.2534 36.6794 26.0299 36.7169 25.687 36.7359L25.7095 37.1408ZM26.5151 37.0143C26.7362 36.9362 26.8922 36.7803 26.9702 36.5591L26.5878 36.4242C26.5506 36.5297 26.4856 36.5947 26.3801 36.6319L26.5151 37.0143ZM26.9702 36.5591C27.0401 36.3612 27.0682 36.0674 27.0682 35.6991H26.6627C26.6627 36.0609 26.6333 36.2955 26.5878 36.4242L26.9702 36.5591ZM27.0682 35.6991V28.5516H26.6627V35.6991H27.0682ZM27.0682 28.5516C27.0682 28.1833 27.0401 27.8896 26.9702 27.6916L26.5878 27.8266C26.6333 27.9552 26.6627 28.1899 26.6627 28.5516H27.0682ZM26.9702 27.6916C26.8922 27.4705 26.7362 27.3145 26.5151 27.2365L26.3801 27.6188C26.4856 27.6561 26.5506 27.7211 26.5878 27.8266L26.9702 27.6916ZM26.5188 27.2378C26.3344 27.1687 26.0583 27.1293 25.7095 27.1099L25.687 27.5148C26.0299 27.5338 26.2534 27.5714 26.3764 27.6175L26.5188 27.2378ZM25.901 27.3124V27.0242H25.4955V27.3124H25.901ZM25.6838 27.2264C26.0946 27.2557 26.6864 27.2701 27.4563 27.2701V26.8647C26.6891 26.8647 26.1089 26.8502 25.7127 26.822L25.6838 27.2264ZM27.4582 27.2701L29.0145 27.2557L29.0107 26.8503L27.4544 26.8647L27.4582 27.2701ZM29.0233 27.2554C29.2015 27.2461 29.4044 27.2413 29.6322 27.2413V26.8358C29.399 26.8358 29.1888 26.8407 29.0019 26.8505L29.0233 27.2554ZM29.6322 27.2413C30.5874 27.2413 31.2847 27.4431 31.7539 27.8168L32.0065 27.4996C31.4382 27.0471 30.6369 26.8358 29.6322 26.8358V27.2413ZM31.7553 27.8179C32.2336 28.1918 32.47 28.68 32.47 29.301H32.8755C32.8755 28.5578 32.5836 27.9508 32.0051 27.4985L31.7553 27.8179ZM32.47 29.301C32.47 29.8111 32.3087 30.266 31.9816 30.6726L32.2976 30.9267C32.6814 30.4495 32.8755 29.9053 32.8755 29.301H32.47ZM31.9799 30.6747C31.6684 31.0728 31.1585 31.3911 30.4235 31.6144L30.5414 32.0023C31.3243 31.7645 31.9191 31.4103 32.2993 30.9246L31.9799 30.6747ZM30.2797 31.8083V31.8372H30.6852V31.8083H30.2797ZM29.272 27.1096C28.9646 27.1096 28.7055 27.1435 28.5134 27.2275L28.676 27.599C28.7913 27.5485 28.9838 27.5151 29.272 27.5151V27.1096ZM28.509 27.2295C28.3069 27.3238 28.1722 27.4921 28.0998 27.7094L28.4844 27.8376C28.5273 27.709 28.5943 27.6371 28.6804 27.597L28.509 27.2295ZM28.0998 27.7094C28.0316 27.914 28.0029 28.1999 28.0029 28.5516H28.4084C28.4084 28.2117 28.4373 27.9788 28.4844 27.8376L28.0998 27.7094ZM28.0029 28.5516V31.8083H28.4084V28.5516H28.0029ZM28.2056 32.0111H29.1711V31.6056H28.2056V32.0111ZM29.1711 32.0111C29.9895 32.0111 30.6158 31.7913 30.9778 31.2935L30.6499 31.0551C30.3971 31.4027 29.9282 31.6056 29.1711 31.6056V32.0111ZM30.9774 31.2942C31.327 30.8173 31.4921 30.1996 31.4921 29.4595H31.0867C31.0867 30.1412 30.9347 30.6667 30.6504 31.0544L30.9774 31.2942ZM31.4921 29.4595C31.4921 28.7139 31.3287 28.1182 30.9652 27.7106L30.6626 27.9805C30.9331 28.2838 31.0867 28.764 31.0867 29.4595H31.4921ZM30.9652 27.7106C30.594 27.2945 30.012 27.1096 29.272 27.1096V27.5151C29.9538 27.5151 30.3997 27.6857 30.6626 27.9805L30.9652 27.7106ZM29.2864 37.0979C30.2127 37.0979 30.9451 36.8814 31.4459 36.4127C31.9493 35.9416 32.1838 35.2488 32.1838 34.3734H31.7784C31.7784 35.1791 31.5637 35.7471 31.1689 36.1167C30.7715 36.4885 30.1566 36.6924 29.2864 36.6924V37.0979ZM32.1838 34.3734C32.1838 33.578 31.9665 32.9409 31.5014 32.4974L31.2215 32.7909C31.5826 33.1351 31.7784 33.6508 31.7784 34.3734H32.1838ZM31.5031 32.4991C31.0447 32.0516 30.3327 31.8506 29.4161 31.8506V32.2561C30.2864 32.2561 30.8712 32.4489 31.2198 32.7892L31.5031 32.4991ZM29.4161 31.8506H28.2056V32.2561H29.4161V31.8506ZM28.0029 32.0533V35.6991H28.4084V32.0533H28.0029ZM28.0029 35.6991C28.0029 36.0497 28.0313 36.333 28.1009 36.5303L28.4833 36.3953C28.4376 36.266 28.4084 36.0401 28.4084 35.6991H28.0029ZM28.1009 36.5303C28.1749 36.7399 28.3109 36.8999 28.509 36.9924L28.6804 36.625C28.5903 36.5829 28.5246 36.5124 28.4833 36.3953L28.1009 36.5303ZM28.5235 36.9985C28.712 37.0692 28.9721 37.0979 29.2864 37.0979V36.6924C28.9859 36.6924 28.7848 36.6634 28.6659 36.6188L28.5235 36.9985ZM38.5182 27.3124L38.5294 27.5148L38.7209 27.5042V27.3124H38.5182ZM37.7544 27.4277L37.6869 27.2364L37.6832 27.2378L37.7544 27.4277ZM37.4374 27.7591L37.6286 27.8266V27.8266L37.4374 27.7591ZM37.4374 36.4916L37.6286 36.4242V36.4242L37.4374 36.4916ZM37.7544 36.8231L37.6832 37.0129L37.6902 37.0155L37.6972 37.0176L37.7544 36.8231ZM40.9247 36.6502L41.0198 36.8292L41.0217 36.8281L40.9247 36.6502ZM41.6164 35.8288L41.8056 35.9016V35.9016L41.6164 35.8288ZM41.9334 34.2004V33.9977H41.7489L41.7315 34.1813L41.9334 34.2004ZM42.2648 34.2004L42.4666 34.22L42.4881 33.9977H42.2648V34.2004ZM42.3225 37.2266L42.3135 37.4291L42.5472 37.4394L42.5242 37.2067L42.3225 37.2266ZM34.8436 37.2266H34.6408V37.4356L34.8498 37.4292L34.8436 37.2266ZM34.8436 36.9384L34.8323 36.7359L34.6408 36.7466V36.9384H34.8436ZM35.5929 36.8231L35.5254 36.6319L35.5217 36.6332L35.5929 36.8231ZM35.9243 27.7591L35.7332 27.8266V27.8266L35.9243 27.7591ZM35.5929 27.4277L35.5217 27.6175L35.5254 27.6188L35.5929 27.4277ZM34.8436 27.3124H34.6408V27.5042L34.8323 27.5148L34.8436 27.3124ZM34.8436 27.0242L34.858 26.822L34.6408 26.8064V27.0242H34.8436ZM38.5182 27.0242H38.7209V26.8081L38.5053 26.8218L38.5182 27.0242ZM38.5069 27.1099C38.157 27.1294 37.8786 27.1688 37.687 27.2365L37.8219 27.6188C37.9569 27.5712 38.1876 27.5338 38.5294 27.5148L38.5069 27.1099ZM37.6832 27.2378C37.47 27.3178 37.3226 27.4753 37.2462 27.6916L37.6286 27.8266C37.6675 27.7162 37.7315 27.6528 37.8256 27.6175L37.6832 27.2378ZM37.2462 27.6916C37.1764 27.8896 37.1482 28.1833 37.1482 28.5516H37.5537C37.5537 28.1899 37.5832 27.9552 37.6286 27.8266L37.2462 27.6916ZM37.1482 28.5516V35.6991H37.5537V28.5516H37.1482ZM37.1482 35.6991C37.1482 36.0674 37.1764 36.3612 37.2462 36.5591L37.6286 36.4242C37.5832 36.2955 37.5537 36.0609 37.5537 35.6991H37.1482ZM37.2462 36.5591C37.3226 36.7754 37.47 36.9329 37.6832 37.0129L37.8256 36.6332C37.7315 36.5979 37.6675 36.5345 37.6286 36.4242L37.2462 36.5591ZM37.6972 37.0176C37.8898 37.0742 38.1686 37.0979 38.5182 37.0979V36.6924C38.1761 36.6924 37.9457 36.668 37.8116 36.6286L37.6972 37.0176ZM38.5182 37.0979H39.5701V36.6924H38.5182V37.0979ZM39.5701 37.0979C40.1784 37.0979 40.6691 37.0155 41.0198 36.8292L40.8296 36.4711C40.5654 36.6115 40.1531 36.6924 39.5701 36.6924V37.0979ZM41.0217 36.8281C41.3858 36.6296 41.6463 36.3157 41.8056 35.9016L41.4271 35.756C41.2982 36.0911 41.0976 36.3249 40.8276 36.4722L41.0217 36.8281ZM41.8056 35.9016C41.9595 35.5012 42.0674 34.9369 42.1352 34.2195L41.7315 34.1813C41.6649 34.8858 41.5614 35.407 41.4271 35.756L41.8056 35.9016ZM41.9334 34.4032H42.2648V33.9977H41.9334V34.4032ZM42.063 34.1809C42.0333 34.488 42.0188 34.8891 42.0188 35.3821H42.4243C42.4243 34.8951 42.4387 34.5085 42.4666 34.22L42.063 34.1809ZM42.0188 35.3821C42.0188 35.9377 42.053 36.5593 42.1207 37.2465L42.5242 37.2067C42.4575 36.5296 42.4243 35.9216 42.4243 35.3821H42.0188ZM42.3314 37.024C41.6732 36.995 40.5693 36.9806 39.0225 36.9806V37.3861C40.5691 37.3861 41.6652 37.4005 42.3135 37.4291L42.3314 37.024ZM39.0225 36.9806C37.1775 36.9806 35.782 36.995 34.8374 37.0239L34.8498 37.4292C35.7881 37.4005 37.1785 37.3861 39.0225 37.3861V36.9806ZM35.0463 37.2266V36.9384H34.6408V37.2266H35.0463ZM34.8548 37.1408C35.2037 37.1214 35.4797 37.0821 35.6641 37.0129L35.5217 36.6332C35.3987 36.6794 35.1752 36.7169 34.8323 36.7359L34.8548 37.1408ZM35.6604 37.0143C35.8815 36.9362 36.0375 36.7803 36.1155 36.5591L35.7332 36.4242C35.6959 36.5297 35.6309 36.5947 35.5254 36.6319L35.6604 37.0143ZM36.1155 36.5591C36.1854 36.3612 36.2135 36.0674 36.2135 35.6991H35.8081C35.8081 36.0609 35.7786 36.2955 35.7332 36.4242L36.1155 36.5591ZM36.2135 35.6991V28.5516H35.8081V35.6991H36.2135ZM36.2135 28.5516C36.2135 28.1833 36.1854 27.8896 36.1155 27.6916L35.7332 27.8266C35.7786 27.9552 35.8081 28.1899 35.8081 28.5516H36.2135ZM36.1155 27.6916C36.0375 27.4705 35.8815 27.3145 35.6604 27.2365L35.5254 27.6188C35.6309 27.6561 35.6959 27.7211 35.7332 27.8266L36.1155 27.6916ZM35.6641 27.2378C35.4797 27.1687 35.2037 27.1293 34.8548 27.1099L34.8323 27.5148C35.1752 27.5338 35.3987 27.5714 35.5217 27.6175L35.6641 27.2378ZM35.0463 27.3124V27.0242H34.6408V27.3124H35.0463ZM34.8291 27.2264C35.2402 27.2558 35.861 27.2701 36.6881 27.2701V26.8647C35.8628 26.8647 35.254 26.8502 34.858 26.822L34.8291 27.2264ZM36.6881 27.2701C37.4584 27.2701 38.0733 27.2557 38.5311 27.2265L38.5053 26.8218C38.06 26.8503 37.4548 26.8647 36.6881 26.8647V27.2701ZM38.3154 27.0242V27.3124H38.7209V27.0242H38.3154ZM47.2554 27.3124L47.2666 27.5148L47.4581 27.5042V27.3124H47.2554ZM46.4917 27.4277L46.4242 27.2364L46.4205 27.2378L46.4917 27.4277ZM46.1746 27.7591L46.3658 27.8266V27.8266L46.1746 27.7591ZM46.1746 36.4916L46.3658 36.4242V36.4242L46.1746 36.4916ZM46.4917 36.8231L46.4205 37.0129L46.4242 37.0143L46.4917 36.8231ZM47.2554 36.9384H47.4581V36.7466L47.2666 36.7359L47.2554 36.9384ZM47.2554 37.2266L47.2422 37.4289L47.4581 37.443V37.2266H47.2554ZM43.5808 37.2266H43.3781V37.4443L43.5952 37.4288L43.5808 37.2266ZM43.5808 36.9384L43.5696 36.7359L43.3781 36.7466V36.9384H43.5808ZM44.3301 36.8231L44.2626 36.6319L44.2589 36.6332L44.3301 36.8231ZM44.6616 27.7591L44.4704 27.8266V27.8266L44.6616 27.7591ZM44.3301 27.4277L44.2589 27.6175L44.2627 27.6188L44.3301 27.4277ZM43.5808 27.3124H43.3781V27.5042L43.5696 27.5148L43.5808 27.3124ZM43.5808 27.0242L43.5952 26.822L43.3781 26.8064V27.0242H43.5808ZM47.2554 27.0242H47.4581V26.8081L47.2425 26.8218L47.2554 27.0242ZM47.2441 27.1099C46.8943 27.1294 46.6158 27.1688 46.4242 27.2365L46.5591 27.6188C46.6941 27.5712 46.9249 27.5338 47.2666 27.5148L47.2441 27.1099ZM46.4205 27.2378C46.2072 27.3178 46.0598 27.4753 45.9835 27.6916L46.3658 27.8266C46.4048 27.7162 46.4687 27.6528 46.5628 27.6175L46.4205 27.2378ZM45.9835 27.6916C45.9136 27.8896 45.8854 28.1833 45.8854 28.5516H46.2909C46.2909 28.1899 46.3204 27.9552 46.3658 27.8266L45.9835 27.6916ZM45.8854 28.5516V35.6991H46.2909V28.5516H45.8854ZM45.8854 35.6991C45.8854 36.0674 45.9136 36.3612 45.9835 36.5591L46.3658 36.4242C46.3204 36.2955 46.2909 36.0609 46.2909 35.6991H45.8854ZM45.9835 36.5591C46.0598 36.7754 46.2072 36.9329 46.4205 37.0129L46.5628 36.6332C46.4687 36.5979 46.4048 36.5345 46.3658 36.4242L45.9835 36.5591ZM46.4242 37.0143C46.6158 37.0819 46.8943 37.1213 47.2441 37.1408L47.2666 36.7359C46.9249 36.7169 46.6941 36.6795 46.5591 36.6319L46.4242 37.0143ZM47.0527 36.9384V37.2266H47.4581V36.9384H47.0527ZM47.2686 37.0243C46.8202 36.995 46.2051 36.9806 45.4253 36.9806V37.3861C46.2018 37.3861 46.8068 37.4005 47.2422 37.4289L47.2686 37.0243ZM45.4253 36.9806C44.5982 36.9806 43.9774 36.995 43.5664 37.0243L43.5952 37.4288C43.9912 37.4005 44.6001 37.3861 45.4253 37.3861V36.9806ZM43.7835 37.2266V36.9384H43.3781V37.2266H43.7835ZM43.5921 37.1408C43.9409 37.1214 44.2169 37.0821 44.4013 37.0129L44.2589 36.6332C44.1359 36.6794 43.9124 36.7169 43.5696 36.7359L43.5921 37.1408ZM44.3976 37.0143C44.6187 36.9362 44.7747 36.7803 44.8527 36.5591L44.4704 36.4242C44.4332 36.5297 44.3682 36.5947 44.2627 36.6319L44.3976 37.0143ZM44.8527 36.5591C44.9226 36.3612 44.9508 36.0674 44.9508 35.6991H44.5453C44.5453 36.0609 44.5158 36.2955 44.4704 36.4242L44.8527 36.5591ZM44.9508 35.6991V28.5516H44.5453V35.6991H44.9508ZM44.9508 28.5516C44.9508 28.1833 44.9226 27.8896 44.8527 27.6916L44.4704 27.8266C44.5158 27.9552 44.5453 28.1899 44.5453 28.5516H44.9508ZM44.8527 27.6916C44.7747 27.4705 44.6187 27.3145 44.3976 27.2365L44.2627 27.6188C44.3682 27.6561 44.4332 27.7211 44.4704 27.8266L44.8527 27.6916ZM44.4013 27.2378C44.2169 27.1687 43.9409 27.1293 43.5921 27.1099L43.5696 27.5148C43.9124 27.5338 44.1359 27.5714 44.2589 27.6175L44.4013 27.2378ZM43.7835 27.3124V27.0242H43.3781V27.3124H43.7835ZM43.5664 27.2264C43.9774 27.2558 44.5982 27.2701 45.4253 27.2701V26.8647C44.6001 26.8647 43.9912 26.8502 43.5952 26.822L43.5664 27.2264ZM45.4253 27.2701C46.1956 27.2701 46.8106 27.2557 47.2683 27.2265L47.2425 26.8218C46.7972 26.8503 46.1921 26.8647 45.4253 26.8647V27.2701ZM47.0527 27.0242V27.3124H47.4581V27.0242H47.0527ZM56.2949 36.0161L56.484 35.9429L56.4839 35.9428L56.2949 36.0161ZM57.2892 36.9384H57.4919V36.7444L57.2982 36.7358L57.2892 36.9384ZM57.2892 37.2266L57.274 37.4287L57.4919 37.4451V37.2266H57.2892ZM53.9028 37.2266H53.7001V37.4443L53.9172 37.4288L53.9028 37.2266ZM53.9028 36.9384L53.8921 36.7359L53.7001 36.746V36.9384H53.9028ZM54.681 36.8087L54.7622 36.9945L54.7673 36.9921L54.681 36.8087ZM54.753 35.7279L54.5629 35.7986L54.5648 35.8032L54.753 35.7279ZM53.874 33.3646L54.064 33.294L54.0149 33.1619H53.874V33.3646ZM50.3867 33.3646V33.1619H50.2478L50.1976 33.2915L50.3867 33.3646ZM49.7959 34.8921L49.6068 34.819L49.6058 34.8217L49.7959 34.8921ZM49.8103 36.7222L49.6978 36.8909L49.7015 36.8932L49.8103 36.7222ZM50.7614 36.9384H50.9641V36.7402L50.766 36.7357L50.7614 36.9384ZM50.7614 37.2266L50.7507 37.429L50.9641 37.4403V37.2266H50.7614ZM48.0235 37.2266H47.8207V37.4506L48.0436 37.4283L48.0235 37.2266ZM48.0235 36.9384L47.9761 36.7412L47.8207 36.7785V36.9384H48.0235ZM49.1619 35.6847L48.9728 35.6114L48.9728 35.6116L49.1619 35.6847ZM52.5482 26.9521V26.7494H52.4094L52.3592 26.8788L52.5482 26.9521ZM52.7788 26.9521L52.9678 26.8788L52.9176 26.7494H52.7788V26.9521ZM53.7587 33.0764V33.2792H54.0511L53.9486 33.0053L53.7587 33.0764ZM52.1448 28.7678L52.3346 28.6967L52.1464 28.1943L51.9553 28.6956L52.1448 28.7678ZM50.502 33.0764L50.3126 33.0042L50.2077 33.2792H50.502V33.0764ZM56.1058 36.0893C56.3495 36.7188 56.7312 37.1165 57.2802 37.1409L57.2982 36.7358C56.9826 36.7218 56.7014 36.5046 56.484 35.9429L56.1058 36.0893ZM57.0865 36.9384V37.2266H57.4919V36.9384H57.0865ZM57.3044 37.0244C56.9128 36.995 56.3932 36.9806 55.7473 36.9806V37.3861C56.3888 37.3861 56.897 37.4005 57.274 37.4287L57.3044 37.0244ZM55.7473 36.9806C54.9202 36.9806 54.2994 36.995 53.8884 37.0243L53.9172 37.4288C54.3132 37.4005 54.9221 37.3861 55.7473 37.3861V36.9806ZM54.1055 37.2266V36.9384H53.7001V37.2266H54.1055ZM53.9135 37.1408C54.281 37.1215 54.5724 37.0775 54.7622 36.9944L54.5997 36.6229C54.4821 36.6744 54.2547 36.7168 53.8921 36.7359L53.9135 37.1408ZM54.7673 36.9921C54.8795 36.9393 54.9736 36.8615 55.038 36.7554C55.1019 36.6501 55.1287 36.5302 55.1287 36.4052H54.7232C54.7232 36.4724 54.7091 36.5158 54.6914 36.5449C54.6741 36.5733 54.6457 36.6012 54.5946 36.6252L54.7673 36.9921ZM55.1287 36.4052C55.1287 36.2022 55.059 35.9471 54.9412 35.6526L54.5648 35.8032C54.6775 36.0851 54.7232 36.2815 54.7232 36.4052H55.1287ZM54.943 35.6572L54.064 33.294L53.684 33.4353L54.563 35.7986L54.943 35.6572ZM53.874 33.1619H50.3867V33.5674H53.874V33.1619ZM50.1976 33.2915L49.6068 34.819L49.985 34.9653L50.5758 33.4378L50.1976 33.2915ZM49.6058 34.8217C49.4122 35.3443 49.305 35.7667 49.305 36.0737H49.7104C49.7104 35.8428 49.7953 35.4774 49.986 34.9625L49.6058 34.8217ZM49.305 36.0737C49.305 36.4217 49.4265 36.71 49.6979 36.8909L49.9228 36.5535C49.7907 36.4655 49.7104 36.3214 49.7104 36.0737H49.305ZM49.7015 36.8932C49.9587 37.057 50.3196 37.1311 50.7568 37.141L50.766 36.7357C50.3578 36.7264 50.0846 36.6564 49.9192 36.5512L49.7015 36.8932ZM50.5587 36.9384V37.2266H50.9641V36.9384H50.5587ZM50.772 37.0241C50.2209 36.9951 49.6649 36.9806 49.1042 36.9806V37.3861C49.6579 37.3861 50.2068 37.4004 50.7507 37.429L50.772 37.0241ZM49.1042 36.9806C48.6681 36.9806 48.3006 36.9951 48.0033 37.0248L48.0436 37.4283C48.3227 37.4004 48.6757 37.3861 49.1042 37.3861V36.9806ZM48.2262 37.2266V36.9384H47.8207V37.2266H48.2262ZM48.0708 37.1355C48.6462 36.9974 49.0623 36.5042 49.351 35.7578L48.9728 35.6116C48.7042 36.3062 48.3614 36.6488 47.9761 36.7412L48.0708 37.1355ZM49.3509 35.758L52.7373 27.0254L52.3592 26.8788L48.9728 35.6114L49.3509 35.758ZM52.5482 27.1549H52.7788V26.7494H52.5482V27.1549ZM52.5898 27.0254L56.1059 36.0894L56.4839 35.9428L52.9678 26.8788L52.5898 27.0254ZM53.9486 33.0053L52.3346 28.6967L51.9549 28.8389L53.5688 33.1476L53.9486 33.0053ZM51.9553 28.6956L50.3126 33.0042L50.6914 33.1487L52.3342 28.84L51.9553 28.6956ZM50.502 33.2792H53.7587V32.8737H50.502V33.2792Z" fill="#FEF5EB" mask="url(#path-5-outside-1_23632_22663)"/>
</g>
</g>
<defs>
<linearGradient id="paint0_linear_23632_22663" x1="34" y1="-1.04141e-05" x2="34" y2="68" gradientUnits="userSpaceOnUse">
<stop stop-color="#C93D34"/>
<stop offset="1" stop-color="#7A2629"/>
</linearGradient>
<linearGradient id="paint1_linear_23632_22663" x1="34" y1="-1.04141e-05" x2="34" y2="68" gradientUnits="userSpaceOnUse">
<stop stop-color="#C93D34"/>
<stop offset="1" stop-color="#7A2629"/>
</linearGradient>
<clipPath id="clip0_23632_22663">
<rect width="68" height="68" fill="white"/>
</clipPath>
</defs>
</svg>
