<svg width="68" height="68" viewBox="0 0 68 68" fill="none" xmlns="http://www.w3.org/2000/svg">
<g clip-path="url(#clip0_23632_22747)">
<mask id="mask0_23632_22747" style="mask-type:alpha" maskUnits="userSpaceOnUse" x="0" y="0" width="68" height="68">
<path fill-rule="evenodd" clip-rule="evenodd" d="M47.0333 0H20.9667C13.5811 0 8.89667 0.0377779 4.45778 4.45778C0.018889 8.89667 0 13.6 0 20.9667V47.0333C0 54.4189 0.0377779 59.1033 4.45778 63.5422C8.89667 67.9811 13.6 68 20.9667 68H47.0333C54.4189 68 59.1033 67.9811 63.5422 63.5422C67.9622 59.1033 68 54.4 68 47.0333V20.9667C68 13.5811 67.9622 8.89667 63.5422 4.45778C59.1033 0.018889 54.4 0 47.0333 0Z" fill="url(#paint0_linear_23632_22747)"/>
</mask>
<g mask="url(#mask0_23632_22747)">
<rect width="68" height="68" fill="url(#paint1_linear_23632_22747)"/>
<path fill-rule="evenodd" clip-rule="evenodd" d="M15.6212 64.373C26.4256 64.373 45.6357 64.373 45.6357 64.373C52.5868 64.373 57.0823 64.6374 61.2379 60.4441C64.8079 56.8741 64.5057 50.8674 64.7323 46.1074C60.709 52.1519 53.3234 51.9441 47.619 51.9441C47.619 51.9441 20.929 51.9441 10.9556 51.9441C0.982316 51.963 4.81676 64.373 15.6212 64.373Z" fill="#FEF5EB"/>
<path d="M12.4854 53.5312H23.1387V61.5213L17.812 58.8579L12.4854 61.5213V53.5312Z" fill="#F19C33"/>
<mask id="path-5-outside-1_23632_22747" maskUnits="userSpaceOnUse" x="7.1377" y="16.582" width="54" height="19" fill="black">
<rect fill="white" x="7.1377" y="16.582" width="54" height="19"/>
<path d="M10.8227 24.682C9.95602 24.682 9.28936 24.4487 8.82269 23.982C8.35602 23.5154 8.12269 22.8687 8.12269 22.042V17.442H9.02269V21.912C9.02269 22.6054 9.17936 23.1154 9.49269 23.442C9.80602 23.762 10.2594 23.922 10.8527 23.922C11.4327 23.922 11.8794 23.762 12.1927 23.442C12.5127 23.1154 12.6727 22.6254 12.6727 21.972V17.442H13.5727V22.062C13.5727 22.1687 13.5694 22.2754 13.5627 22.382C13.6294 22.3687 13.7027 22.362 13.7827 22.362C14.276 22.362 14.6527 22.502 14.9127 22.782C15.1794 23.0554 15.3127 23.502 15.3127 24.122V24.582H14.5127V24.172C14.5127 23.7654 14.4394 23.4787 14.2927 23.312C14.146 23.1454 13.9327 23.062 13.6527 23.062C13.566 23.062 13.4894 23.0654 13.4227 23.072C13.2494 23.5854 12.9394 23.982 12.4927 24.262C12.0527 24.542 11.496 24.682 10.8227 24.682ZM21.9841 17.442V22.062C21.9841 22.8754 21.7407 23.5154 21.2541 23.982C20.7741 24.4487 20.1007 24.682 19.2341 24.682C18.3674 24.682 17.7007 24.4487 17.2341 23.982C16.7674 23.5154 16.5341 22.8687 16.5341 22.042V17.442H17.4341V21.922C17.4341 22.6154 17.5907 23.122 17.9041 23.442C18.2174 23.762 18.6707 23.922 19.2641 23.922C19.8441 23.922 20.2907 23.762 20.6041 23.442C20.9241 23.122 21.0841 22.6354 21.0841 21.982V17.442H21.9841ZM28.3175 22.692C28.3175 23.1187 28.2108 23.482 27.9975 23.782C27.7841 24.0754 27.4841 24.2987 27.0975 24.452C26.7175 24.6054 26.2775 24.682 25.7775 24.682C25.3375 24.682 24.9408 24.642 24.5875 24.562C24.2408 24.482 23.9241 24.3854 23.6375 24.272V23.432C24.3575 23.7587 25.0675 23.922 25.7675 23.922C26.2808 23.922 26.6841 23.822 26.9775 23.622C27.2775 23.422 27.4275 23.122 27.4275 22.722C27.4275 22.482 27.3708 22.2854 27.2575 22.132C27.1508 21.972 26.9708 21.8287 26.7175 21.702C26.4708 21.5687 26.1408 21.432 25.7275 21.292C25.2875 21.1387 24.9175 20.9854 24.6175 20.832C24.3175 20.6787 24.0908 20.482 23.9375 20.242C23.7908 20.002 23.7175 19.6754 23.7175 19.262C23.7175 18.8487 23.8208 18.4987 24.0275 18.212C24.2341 17.9254 24.5208 17.7087 24.8875 17.562C25.2541 17.4154 25.6775 17.342 26.1575 17.342C26.8175 17.342 27.4841 17.4887 28.1575 17.782L27.9175 18.512C27.5641 18.3587 27.2408 18.252 26.9475 18.192C26.6608 18.132 26.3841 18.102 26.1175 18.102C25.6575 18.102 25.2908 18.1954 25.0175 18.382C24.7441 18.5687 24.6075 18.8487 24.6075 19.222C24.6075 19.4687 24.6608 19.672 24.7675 19.832C24.8808 19.9854 25.0541 20.1187 25.2875 20.232C25.5208 20.3454 25.8208 20.462 26.1875 20.582C26.6541 20.7287 27.0441 20.892 27.3575 21.072C27.6708 21.252 27.9075 21.472 28.0675 21.732C28.2341 21.992 28.3175 22.312 28.3175 22.692ZM36.6377 23.822V24.582H34.1077V23.132C34.1077 22.972 34.111 22.7887 34.1177 22.582C34.131 22.3687 34.1443 22.1554 34.1577 21.942H34.1277C33.9343 22.2887 33.6577 22.5587 33.2977 22.752C32.9443 22.9387 32.5177 23.032 32.0177 23.032C30.4977 23.032 29.7377 22.1954 29.7377 20.522V19.782H30.6377V20.342C30.6377 20.9887 30.761 21.472 31.0077 21.792C31.261 22.1054 31.681 22.262 32.2677 22.262C32.921 22.262 33.391 22.0687 33.6777 21.682C33.9643 21.2954 34.1077 20.7387 34.1077 20.012V17.442H35.0077V23.822H36.6377ZM40.8061 24.682C39.9394 24.682 39.2727 24.4487 38.8061 23.982C38.3394 23.5154 38.1061 22.8687 38.1061 22.042V17.442H39.0061V21.912C39.0061 22.6054 39.1627 23.1154 39.4761 23.442C39.7894 23.762 40.2427 23.922 40.8361 23.922C41.4161 23.922 41.8627 23.762 42.1761 23.442C42.4961 23.1154 42.6561 22.6254 42.6561 21.972V17.442H43.5561V22.062C43.5561 22.1687 43.5527 22.2754 43.5461 22.382C43.6127 22.3687 43.6861 22.362 43.7661 22.362C44.2594 22.362 44.6361 22.502 44.8961 22.782C45.1627 23.0554 45.2961 23.502 45.2961 24.122V24.582H44.4961V24.172C44.4961 23.7654 44.4227 23.4787 44.2761 23.312C44.1294 23.1454 43.9161 23.062 43.6361 23.062C43.5494 23.062 43.4727 23.0654 43.4061 23.072C43.2327 23.5854 42.9227 23.982 42.4761 24.262C42.0361 24.542 41.4794 24.682 40.8061 24.682ZM46.1021 21.892C46.1021 21.3587 46.2321 20.852 46.4921 20.372C46.7588 19.8854 47.1121 19.4454 47.5521 19.052C47.1654 18.9187 46.8621 18.782 46.6421 18.642C46.4288 18.4954 46.2721 18.3287 46.1721 18.142C46.0788 17.9487 46.0288 17.7154 46.0221 17.442H46.9121C46.9188 17.6154 46.9588 17.762 47.0321 17.882C47.1054 18.002 47.2354 18.112 47.4221 18.212C47.6154 18.3054 47.8888 18.4054 48.2421 18.512C48.7821 18.152 49.3721 17.8687 50.0121 17.662C50.6521 17.4487 51.2921 17.342 51.9321 17.342V18.102C51.4654 18.102 50.9988 18.1654 50.5321 18.292C50.0721 18.412 49.6388 18.582 49.2321 18.802C50.1654 19.1354 50.8388 19.5654 51.2521 20.092C51.6654 20.6187 51.8721 21.222 51.8721 21.902C51.8721 22.4487 51.7521 22.932 51.5121 23.352C51.2788 23.772 50.9454 24.0987 50.5121 24.332C50.0788 24.5654 49.5621 24.682 48.9621 24.682C48.3554 24.682 47.8388 24.5654 47.4121 24.332C46.9854 24.0987 46.6588 23.7754 46.4321 23.362C46.2121 22.942 46.1021 22.452 46.1021 21.892ZM47.0121 21.882C47.0121 22.5087 47.1788 23.0054 47.5121 23.372C47.8521 23.7387 48.3354 23.922 48.9621 23.922C49.6088 23.922 50.1021 23.7387 50.4421 23.372C50.7888 23.0054 50.9621 22.5154 50.9621 21.902C50.9621 21.3154 50.7721 20.8087 50.3921 20.382C50.0188 19.9554 49.3721 19.5987 48.4521 19.312C48.0188 19.652 47.6688 20.042 47.4021 20.482C47.1421 20.922 47.0121 21.3887 47.0121 21.882ZM56.3788 24.682C55.5121 24.682 54.8455 24.4487 54.3788 23.982C53.9121 23.5154 53.6788 22.8687 53.6788 22.042V17.442H54.5788V21.912C54.5788 22.6054 54.7355 23.1154 55.0488 23.442C55.3621 23.762 55.8155 23.922 56.4088 23.922C56.9888 23.922 57.4355 23.762 57.7488 23.442C58.0688 23.1154 58.2288 22.6254 58.2288 21.972V17.442H59.1288V22.062C59.1288 22.1687 59.1255 22.2754 59.1188 22.382C59.1855 22.3687 59.2588 22.362 59.3388 22.362C59.8321 22.362 60.2088 22.502 60.4688 22.782C60.7355 23.0554 60.8688 23.502 60.8688 24.122V24.582H60.0688V24.172C60.0688 23.7654 59.9955 23.4787 59.8488 23.312C59.7021 23.1454 59.4888 23.062 59.2088 23.062C59.1221 23.062 59.0455 23.0654 58.9788 23.072C58.8055 23.5854 58.4955 23.982 58.0488 24.262C57.6088 24.542 57.0521 24.682 56.3788 24.682ZM18.1537 27.342L23.1737 28.302L23.0637 29.062L21.0737 28.682C20.6604 28.9554 20.2904 29.272 19.9637 29.632C19.6371 29.992 19.3771 30.3754 19.1837 30.782C18.9971 31.1887 18.9037 31.5987 18.9037 32.012C18.9037 32.5787 19.0537 33.0387 19.3537 33.392C19.6604 33.7454 20.0737 33.922 20.5937 33.922C21.1804 33.922 21.6004 33.762 21.8537 33.442C22.1071 33.1154 22.2337 32.682 22.2337 32.142V31.622H23.1437V32.192C23.1437 32.9454 22.9237 33.5487 22.4837 34.002C22.0504 34.4554 21.4204 34.682 20.5937 34.682C20.0537 34.682 19.5904 34.572 19.2037 34.352C18.8171 34.1254 18.5204 33.812 18.3137 33.412C18.1071 33.012 18.0037 32.5454 18.0037 32.012C18.0037 31.5787 18.0971 31.142 18.2837 30.702C18.4704 30.262 18.7237 29.852 19.0437 29.472C19.3637 29.0854 19.7171 28.7587 20.1037 28.492L18.0437 28.092L18.1537 27.342ZM25.004 34.582V29.962C25.004 29.1487 25.244 28.5087 25.724 28.042C26.204 27.5754 26.8807 27.342 27.754 27.342C28.6207 27.342 29.2874 27.5754 29.754 28.042C30.2207 28.5087 30.454 29.1554 30.454 29.982V34.582H29.554V30.102C29.554 29.4087 29.394 28.902 29.074 28.582C28.7607 28.262 28.3107 28.102 27.724 28.102C27.144 28.102 26.694 28.262 26.374 28.582C26.0607 28.902 25.904 29.3887 25.904 30.042V34.582H25.004ZM32.5574 34.582V27.442H33.4574V29.212H33.8874C34.1474 29.212 34.3641 29.232 34.5374 29.272C34.7108 29.312 34.8608 29.382 34.9874 29.482C35.1208 29.582 35.2474 29.7254 35.3674 29.912C35.4941 30.0987 35.6308 30.3387 35.7774 30.632C35.9508 30.972 36.0908 31.222 36.1974 31.382C36.3041 31.5354 36.4041 31.6354 36.4974 31.682C36.5974 31.7287 36.7174 31.752 36.8574 31.752H37.1274V32.512H36.7574C36.4041 32.512 36.1108 32.4254 35.8774 32.252C35.6508 32.0787 35.4241 31.7587 35.1974 31.292C35.0108 30.8987 34.8541 30.6087 34.7274 30.422C34.6074 30.2354 34.4774 30.1154 34.3374 30.062C34.2041 30.002 34.0274 29.972 33.8074 29.972H33.4574V34.582H32.5574ZM41.0113 34.682C40.2046 34.682 39.5913 34.4554 39.1713 34.002C38.7513 33.542 38.5413 32.9287 38.5413 32.162C38.5413 31.502 38.6413 30.882 38.8413 30.302C39.048 29.722 39.2813 29.2254 39.5413 28.812C39.1346 28.8054 38.8246 28.6954 38.6113 28.482C38.398 28.2687 38.2913 27.922 38.2913 27.442V26.982H39.1913V27.442C39.1913 27.762 39.2546 27.982 39.3813 28.102C39.508 28.2154 39.698 28.272 39.9513 28.272H40.5913L40.6813 28.412C40.4813 28.6854 40.2846 29.0287 40.0913 29.442C39.9046 29.8487 39.748 30.2887 39.6213 30.762C39.5013 31.2354 39.4413 31.702 39.4413 32.162C39.4413 32.6954 39.5713 33.122 39.8313 33.442C40.098 33.762 40.4913 33.922 41.0113 33.922C41.5246 33.922 41.9013 33.7854 42.1413 33.512C42.3813 33.2387 42.5013 32.8387 42.5013 32.312V30.402H43.4013V32.372C43.4013 33.1187 43.1913 33.692 42.7713 34.092C42.3513 34.4854 41.7646 34.682 41.0113 34.682ZM49.7079 34.592C49.1079 34.572 48.5246 34.462 47.9579 34.262C47.3912 34.0554 46.8446 33.782 46.3179 33.442C45.7912 33.0954 45.3012 32.7054 44.8479 32.272L45.3679 31.672C45.6212 31.9187 45.8946 32.1554 46.1879 32.382C46.4812 32.6087 46.7879 32.812 47.1079 32.992C47.7879 32.4787 48.3046 31.972 48.6579 31.472C49.0179 30.972 49.1979 30.4587 49.1979 29.932C49.1979 29.392 49.0512 28.9487 48.7579 28.602C48.4712 28.2554 48.0646 28.082 47.5379 28.082C46.9446 28.082 46.5179 28.2387 46.2579 28.552C45.9979 28.8654 45.8679 29.2687 45.8679 29.762V29.882H44.9679V29.712C44.9679 28.992 45.1879 28.4154 45.6279 27.982C46.0679 27.542 46.7046 27.322 47.5379 27.322C48.0779 27.322 48.5379 27.432 48.9179 27.652C49.3046 27.8654 49.5979 28.1654 49.7979 28.552C49.9979 28.9387 50.0979 29.3887 50.0979 29.902C50.0979 30.5154 49.8979 31.122 49.4979 31.722C49.0979 32.3154 48.5546 32.8654 47.8679 33.372C48.1679 33.4987 48.4712 33.602 48.7779 33.682C49.0912 33.7554 49.4012 33.7987 49.7079 33.812V34.592Z"/>
</mask>
<path d="M10.8227 24.682C9.95602 24.682 9.28936 24.4487 8.82269 23.982C8.35602 23.5154 8.12269 22.8687 8.12269 22.042V17.442H9.02269V21.912C9.02269 22.6054 9.17936 23.1154 9.49269 23.442C9.80602 23.762 10.2594 23.922 10.8527 23.922C11.4327 23.922 11.8794 23.762 12.1927 23.442C12.5127 23.1154 12.6727 22.6254 12.6727 21.972V17.442H13.5727V22.062C13.5727 22.1687 13.5694 22.2754 13.5627 22.382C13.6294 22.3687 13.7027 22.362 13.7827 22.362C14.276 22.362 14.6527 22.502 14.9127 22.782C15.1794 23.0554 15.3127 23.502 15.3127 24.122V24.582H14.5127V24.172C14.5127 23.7654 14.4394 23.4787 14.2927 23.312C14.146 23.1454 13.9327 23.062 13.6527 23.062C13.566 23.062 13.4894 23.0654 13.4227 23.072C13.2494 23.5854 12.9394 23.982 12.4927 24.262C12.0527 24.542 11.496 24.682 10.8227 24.682ZM21.9841 17.442V22.062C21.9841 22.8754 21.7407 23.5154 21.2541 23.982C20.7741 24.4487 20.1007 24.682 19.2341 24.682C18.3674 24.682 17.7007 24.4487 17.2341 23.982C16.7674 23.5154 16.5341 22.8687 16.5341 22.042V17.442H17.4341V21.922C17.4341 22.6154 17.5907 23.122 17.9041 23.442C18.2174 23.762 18.6707 23.922 19.2641 23.922C19.8441 23.922 20.2907 23.762 20.6041 23.442C20.9241 23.122 21.0841 22.6354 21.0841 21.982V17.442H21.9841ZM28.3175 22.692C28.3175 23.1187 28.2108 23.482 27.9975 23.782C27.7841 24.0754 27.4841 24.2987 27.0975 24.452C26.7175 24.6054 26.2775 24.682 25.7775 24.682C25.3375 24.682 24.9408 24.642 24.5875 24.562C24.2408 24.482 23.9241 24.3854 23.6375 24.272V23.432C24.3575 23.7587 25.0675 23.922 25.7675 23.922C26.2808 23.922 26.6841 23.822 26.9775 23.622C27.2775 23.422 27.4275 23.122 27.4275 22.722C27.4275 22.482 27.3708 22.2854 27.2575 22.132C27.1508 21.972 26.9708 21.8287 26.7175 21.702C26.4708 21.5687 26.1408 21.432 25.7275 21.292C25.2875 21.1387 24.9175 20.9854 24.6175 20.832C24.3175 20.6787 24.0908 20.482 23.9375 20.242C23.7908 20.002 23.7175 19.6754 23.7175 19.262C23.7175 18.8487 23.8208 18.4987 24.0275 18.212C24.2341 17.9254 24.5208 17.7087 24.8875 17.562C25.2541 17.4154 25.6775 17.342 26.1575 17.342C26.8175 17.342 27.4841 17.4887 28.1575 17.782L27.9175 18.512C27.5641 18.3587 27.2408 18.252 26.9475 18.192C26.6608 18.132 26.3841 18.102 26.1175 18.102C25.6575 18.102 25.2908 18.1954 25.0175 18.382C24.7441 18.5687 24.6075 18.8487 24.6075 19.222C24.6075 19.4687 24.6608 19.672 24.7675 19.832C24.8808 19.9854 25.0541 20.1187 25.2875 20.232C25.5208 20.3454 25.8208 20.462 26.1875 20.582C26.6541 20.7287 27.0441 20.892 27.3575 21.072C27.6708 21.252 27.9075 21.472 28.0675 21.732C28.2341 21.992 28.3175 22.312 28.3175 22.692ZM36.6377 23.822V24.582H34.1077V23.132C34.1077 22.972 34.111 22.7887 34.1177 22.582C34.131 22.3687 34.1443 22.1554 34.1577 21.942H34.1277C33.9343 22.2887 33.6577 22.5587 33.2977 22.752C32.9443 22.9387 32.5177 23.032 32.0177 23.032C30.4977 23.032 29.7377 22.1954 29.7377 20.522V19.782H30.6377V20.342C30.6377 20.9887 30.761 21.472 31.0077 21.792C31.261 22.1054 31.681 22.262 32.2677 22.262C32.921 22.262 33.391 22.0687 33.6777 21.682C33.9643 21.2954 34.1077 20.7387 34.1077 20.012V17.442H35.0077V23.822H36.6377ZM40.8061 24.682C39.9394 24.682 39.2727 24.4487 38.8061 23.982C38.3394 23.5154 38.1061 22.8687 38.1061 22.042V17.442H39.0061V21.912C39.0061 22.6054 39.1627 23.1154 39.4761 23.442C39.7894 23.762 40.2427 23.922 40.8361 23.922C41.4161 23.922 41.8627 23.762 42.1761 23.442C42.4961 23.1154 42.6561 22.6254 42.6561 21.972V17.442H43.5561V22.062C43.5561 22.1687 43.5527 22.2754 43.5461 22.382C43.6127 22.3687 43.6861 22.362 43.7661 22.362C44.2594 22.362 44.6361 22.502 44.8961 22.782C45.1627 23.0554 45.2961 23.502 45.2961 24.122V24.582H44.4961V24.172C44.4961 23.7654 44.4227 23.4787 44.2761 23.312C44.1294 23.1454 43.9161 23.062 43.6361 23.062C43.5494 23.062 43.4727 23.0654 43.4061 23.072C43.2327 23.5854 42.9227 23.982 42.4761 24.262C42.0361 24.542 41.4794 24.682 40.8061 24.682ZM46.1021 21.892C46.1021 21.3587 46.2321 20.852 46.4921 20.372C46.7588 19.8854 47.1121 19.4454 47.5521 19.052C47.1654 18.9187 46.8621 18.782 46.6421 18.642C46.4288 18.4954 46.2721 18.3287 46.1721 18.142C46.0788 17.9487 46.0288 17.7154 46.0221 17.442H46.9121C46.9188 17.6154 46.9588 17.762 47.0321 17.882C47.1054 18.002 47.2354 18.112 47.4221 18.212C47.6154 18.3054 47.8888 18.4054 48.2421 18.512C48.7821 18.152 49.3721 17.8687 50.0121 17.662C50.6521 17.4487 51.2921 17.342 51.9321 17.342V18.102C51.4654 18.102 50.9988 18.1654 50.5321 18.292C50.0721 18.412 49.6388 18.582 49.2321 18.802C50.1654 19.1354 50.8388 19.5654 51.2521 20.092C51.6654 20.6187 51.8721 21.222 51.8721 21.902C51.8721 22.4487 51.7521 22.932 51.5121 23.352C51.2788 23.772 50.9454 24.0987 50.5121 24.332C50.0788 24.5654 49.5621 24.682 48.9621 24.682C48.3554 24.682 47.8388 24.5654 47.4121 24.332C46.9854 24.0987 46.6588 23.7754 46.4321 23.362C46.2121 22.942 46.1021 22.452 46.1021 21.892ZM47.0121 21.882C47.0121 22.5087 47.1788 23.0054 47.5121 23.372C47.8521 23.7387 48.3354 23.922 48.9621 23.922C49.6088 23.922 50.1021 23.7387 50.4421 23.372C50.7888 23.0054 50.9621 22.5154 50.9621 21.902C50.9621 21.3154 50.7721 20.8087 50.3921 20.382C50.0188 19.9554 49.3721 19.5987 48.4521 19.312C48.0188 19.652 47.6688 20.042 47.4021 20.482C47.1421 20.922 47.0121 21.3887 47.0121 21.882ZM56.3788 24.682C55.5121 24.682 54.8455 24.4487 54.3788 23.982C53.9121 23.5154 53.6788 22.8687 53.6788 22.042V17.442H54.5788V21.912C54.5788 22.6054 54.7355 23.1154 55.0488 23.442C55.3621 23.762 55.8155 23.922 56.4088 23.922C56.9888 23.922 57.4355 23.762 57.7488 23.442C58.0688 23.1154 58.2288 22.6254 58.2288 21.972V17.442H59.1288V22.062C59.1288 22.1687 59.1255 22.2754 59.1188 22.382C59.1855 22.3687 59.2588 22.362 59.3388 22.362C59.8321 22.362 60.2088 22.502 60.4688 22.782C60.7355 23.0554 60.8688 23.502 60.8688 24.122V24.582H60.0688V24.172C60.0688 23.7654 59.9955 23.4787 59.8488 23.312C59.7021 23.1454 59.4888 23.062 59.2088 23.062C59.1221 23.062 59.0455 23.0654 58.9788 23.072C58.8055 23.5854 58.4955 23.982 58.0488 24.262C57.6088 24.542 57.0521 24.682 56.3788 24.682ZM18.1537 27.342L23.1737 28.302L23.0637 29.062L21.0737 28.682C20.6604 28.9554 20.2904 29.272 19.9637 29.632C19.6371 29.992 19.3771 30.3754 19.1837 30.782C18.9971 31.1887 18.9037 31.5987 18.9037 32.012C18.9037 32.5787 19.0537 33.0387 19.3537 33.392C19.6604 33.7454 20.0737 33.922 20.5937 33.922C21.1804 33.922 21.6004 33.762 21.8537 33.442C22.1071 33.1154 22.2337 32.682 22.2337 32.142V31.622H23.1437V32.192C23.1437 32.9454 22.9237 33.5487 22.4837 34.002C22.0504 34.4554 21.4204 34.682 20.5937 34.682C20.0537 34.682 19.5904 34.572 19.2037 34.352C18.8171 34.1254 18.5204 33.812 18.3137 33.412C18.1071 33.012 18.0037 32.5454 18.0037 32.012C18.0037 31.5787 18.0971 31.142 18.2837 30.702C18.4704 30.262 18.7237 29.852 19.0437 29.472C19.3637 29.0854 19.7171 28.7587 20.1037 28.492L18.0437 28.092L18.1537 27.342ZM25.004 34.582V29.962C25.004 29.1487 25.244 28.5087 25.724 28.042C26.204 27.5754 26.8807 27.342 27.754 27.342C28.6207 27.342 29.2874 27.5754 29.754 28.042C30.2207 28.5087 30.454 29.1554 30.454 29.982V34.582H29.554V30.102C29.554 29.4087 29.394 28.902 29.074 28.582C28.7607 28.262 28.3107 28.102 27.724 28.102C27.144 28.102 26.694 28.262 26.374 28.582C26.0607 28.902 25.904 29.3887 25.904 30.042V34.582H25.004ZM32.5574 34.582V27.442H33.4574V29.212H33.8874C34.1474 29.212 34.3641 29.232 34.5374 29.272C34.7108 29.312 34.8608 29.382 34.9874 29.482C35.1208 29.582 35.2474 29.7254 35.3674 29.912C35.4941 30.0987 35.6308 30.3387 35.7774 30.632C35.9508 30.972 36.0908 31.222 36.1974 31.382C36.3041 31.5354 36.4041 31.6354 36.4974 31.682C36.5974 31.7287 36.7174 31.752 36.8574 31.752H37.1274V32.512H36.7574C36.4041 32.512 36.1108 32.4254 35.8774 32.252C35.6508 32.0787 35.4241 31.7587 35.1974 31.292C35.0108 30.8987 34.8541 30.6087 34.7274 30.422C34.6074 30.2354 34.4774 30.1154 34.3374 30.062C34.2041 30.002 34.0274 29.972 33.8074 29.972H33.4574V34.582H32.5574ZM41.0113 34.682C40.2046 34.682 39.5913 34.4554 39.1713 34.002C38.7513 33.542 38.5413 32.9287 38.5413 32.162C38.5413 31.502 38.6413 30.882 38.8413 30.302C39.048 29.722 39.2813 29.2254 39.5413 28.812C39.1346 28.8054 38.8246 28.6954 38.6113 28.482C38.398 28.2687 38.2913 27.922 38.2913 27.442V26.982H39.1913V27.442C39.1913 27.762 39.2546 27.982 39.3813 28.102C39.508 28.2154 39.698 28.272 39.9513 28.272H40.5913L40.6813 28.412C40.4813 28.6854 40.2846 29.0287 40.0913 29.442C39.9046 29.8487 39.748 30.2887 39.6213 30.762C39.5013 31.2354 39.4413 31.702 39.4413 32.162C39.4413 32.6954 39.5713 33.122 39.8313 33.442C40.098 33.762 40.4913 33.922 41.0113 33.922C41.5246 33.922 41.9013 33.7854 42.1413 33.512C42.3813 33.2387 42.5013 32.8387 42.5013 32.312V30.402H43.4013V32.372C43.4013 33.1187 43.1913 33.692 42.7713 34.092C42.3513 34.4854 41.7646 34.682 41.0113 34.682ZM49.7079 34.592C49.1079 34.572 48.5246 34.462 47.9579 34.262C47.3912 34.0554 46.8446 33.782 46.3179 33.442C45.7912 33.0954 45.3012 32.7054 44.8479 32.272L45.3679 31.672C45.6212 31.9187 45.8946 32.1554 46.1879 32.382C46.4812 32.6087 46.7879 32.812 47.1079 32.992C47.7879 32.4787 48.3046 31.972 48.6579 31.472C49.0179 30.972 49.1979 30.4587 49.1979 29.932C49.1979 29.392 49.0512 28.9487 48.7579 28.602C48.4712 28.2554 48.0646 28.082 47.5379 28.082C46.9446 28.082 46.5179 28.2387 46.2579 28.552C45.9979 28.8654 45.8679 29.2687 45.8679 29.762V29.882H44.9679V29.712C44.9679 28.992 45.1879 28.4154 45.6279 27.982C46.0679 27.542 46.7046 27.322 47.5379 27.322C48.0779 27.322 48.5379 27.432 48.9179 27.652C49.3046 27.8654 49.5979 28.1654 49.7979 28.552C49.9979 28.9387 50.0979 29.3887 50.0979 29.902C50.0979 30.5154 49.8979 31.122 49.4979 31.722C49.0979 32.3154 48.5546 32.8654 47.8679 33.372C48.1679 33.4987 48.4712 33.602 48.7779 33.682C49.0912 33.7554 49.4012 33.7987 49.7079 33.812V34.592Z" fill="#FEF5EB"/>
<path d="M8.82269 23.982L8.95616 23.8486V23.8486L8.82269 23.982ZM8.12269 17.442V17.2533H7.93393V17.442H8.12269ZM9.02269 17.442H9.21144V17.2533H9.02269V17.442ZM9.49269 23.442L9.35646 23.5727L9.35782 23.5741L9.49269 23.442ZM12.1927 23.442L12.0578 23.3099L12.0578 23.31L12.1927 23.442ZM12.6727 17.442V17.2533H12.4839V17.442H12.6727ZM13.5727 17.442H13.7614V17.2533H13.5727V17.442ZM13.5627 22.382L13.3743 22.3703L13.359 22.6153L13.5997 22.5671L13.5627 22.382ZM14.9127 22.782L14.7743 22.9105L14.7776 22.9138L14.9127 22.782ZM15.3127 24.582V24.7708H15.5014V24.582H15.3127ZM14.5127 24.582H14.3239V24.7708H14.5127V24.582ZM14.2927 23.312L14.151 23.4367V23.4367L14.2927 23.312ZM13.4227 23.072L13.4039 22.8842L13.2828 22.8963L13.2439 23.0116L13.4227 23.072ZM12.4927 24.262L12.3924 24.1021L12.3914 24.1028L12.4927 24.262ZM10.8227 24.4933C9.9898 24.4933 9.37737 24.2698 8.95616 23.8486L8.68922 24.1155C9.20134 24.6276 9.92225 24.8708 10.8227 24.8708V24.4933ZM8.95616 23.8486C8.53333 23.4257 8.31144 22.832 8.31144 22.042H7.93393C7.93393 22.9054 8.17872 23.605 8.68922 24.1155L8.95616 23.8486ZM8.31144 22.042V17.442H7.93393V22.042H8.31144ZM8.12269 17.6308H9.02269V17.2533H8.12269V17.6308ZM8.83393 17.442V21.912H9.21144V17.442H8.83393ZM8.83393 21.912C8.83393 22.6288 8.99528 23.1961 9.35647 23.5727L9.62891 23.3114C9.36343 23.0346 9.21144 22.5819 9.21144 21.912H8.83393ZM9.35782 23.5741C9.71708 23.941 10.2257 24.1108 10.8527 24.1108V23.7333C10.293 23.7333 9.89497 23.5831 9.62756 23.31L9.35782 23.5741ZM10.8527 24.1108C11.4678 24.1108 11.9691 23.9402 12.3276 23.5741L12.0578 23.31C11.7896 23.5839 11.3976 23.7333 10.8527 23.7333V24.1108ZM12.3275 23.5741C12.6946 23.1994 12.8614 22.6535 12.8614 21.972H12.4839C12.4839 22.5972 12.3308 23.0313 12.0578 23.3099L12.3275 23.5741ZM12.8614 21.972V17.442H12.4839V21.972H12.8614ZM12.6727 17.6308H13.5727V17.2533H12.6727V17.6308ZM13.3839 17.442V22.062H13.7614V17.442H13.3839ZM13.3839 22.062C13.3839 22.1648 13.3807 22.2675 13.3743 22.3703L13.7511 22.3938C13.758 22.2832 13.7614 22.1726 13.7614 22.062H13.3839ZM13.5997 22.5671C13.6523 22.5566 13.713 22.5508 13.7827 22.5508V22.1733C13.6924 22.1733 13.6064 22.1808 13.5257 22.1969L13.5997 22.5671ZM13.7827 22.5508C14.2397 22.5508 14.5598 22.6794 14.7744 22.9105L15.051 22.6536C14.7456 22.3247 14.3124 22.1733 13.7827 22.1733V22.5508ZM14.7776 22.9138C14.9937 23.1354 15.1239 23.522 15.1239 24.122H15.5014C15.5014 23.482 15.365 22.9753 15.0478 22.6502L14.7776 22.9138ZM15.1239 24.122V24.582H15.5014V24.122H15.1239ZM15.3127 24.3933H14.5127V24.7708H15.3127V24.3933ZM14.7014 24.582V24.172H14.3239V24.582H14.7014ZM14.7014 24.172C14.7014 23.7534 14.6281 23.4075 14.4344 23.1873L14.151 23.4367C14.2506 23.5499 14.3239 23.7773 14.3239 24.172H14.7014ZM14.4344 23.1873C14.2429 22.9698 13.9717 22.8733 13.6527 22.8733V23.2508C13.8937 23.2508 14.0491 23.321 14.151 23.4367L14.4344 23.1873ZM13.6527 22.8733C13.5615 22.8733 13.4783 22.8768 13.4039 22.8842L13.4415 23.2598C13.5004 23.254 13.5706 23.2508 13.6527 23.2508V22.8733ZM13.2439 23.0116C13.084 23.485 12.8011 23.8459 12.3924 24.1021L12.5929 24.422C13.0776 24.1181 13.4147 23.6858 13.6015 23.1324L13.2439 23.0116ZM12.3914 24.1028C11.9893 24.3586 11.4704 24.4933 10.8227 24.4933V24.8708C11.5216 24.8708 12.1161 24.7254 12.594 24.4213L12.3914 24.1028ZM21.9841 17.442H22.1728V17.2533H21.9841V17.442ZM21.2541 23.982L21.1234 23.8458L21.1225 23.8467L21.2541 23.982ZM17.2341 23.982L17.3675 23.8486V23.8486L17.2341 23.982ZM16.5341 17.442V17.2533H16.3453V17.442H16.5341ZM17.4341 17.442H17.6228V17.2533H17.4341V17.442ZM17.9041 23.442L18.0389 23.31V23.31L17.9041 23.442ZM20.6041 23.442L20.4706 23.3086L20.4692 23.31L20.6041 23.442ZM21.0841 17.442V17.2533H20.8953V17.442H21.0841ZM21.7953 17.442V22.062H22.1728V17.442H21.7953ZM21.7953 22.062C21.7953 22.8353 21.5655 23.4219 21.1234 23.8458L21.3847 24.1183C21.916 23.6088 22.1728 22.9154 22.1728 22.062H21.7953ZM21.1225 23.8467C20.6872 24.2699 20.0666 24.4933 19.2341 24.4933V24.8708C20.1348 24.8708 20.8609 24.6275 21.3856 24.1174L21.1225 23.8467ZM19.2341 24.4933C18.4012 24.4933 17.7887 24.2698 17.3675 23.8486L17.1006 24.1155C17.6127 24.6276 18.3336 24.8708 19.2341 24.8708V24.4933ZM17.3675 23.8486C16.9447 23.4257 16.7228 22.832 16.7228 22.042H16.3453C16.3453 22.9054 16.5901 23.605 17.1006 24.1155L17.3675 23.8486ZM16.7228 22.042V17.442H16.3453V22.042H16.7228ZM16.5341 17.6308H17.4341V17.2533H16.5341V17.6308ZM17.2453 17.442V21.922H17.6228V17.442H17.2453ZM17.2453 21.922C17.2453 22.6384 17.4065 23.2037 17.7692 23.5741L18.0389 23.31C17.775 23.0404 17.6228 22.5923 17.6228 21.922H17.2453ZM17.7692 23.5741C18.1284 23.941 18.6371 24.1108 19.2641 24.1108V23.7333C18.7043 23.7333 18.3063 23.5831 18.0389 23.31L17.7692 23.5741ZM19.2641 24.1108C19.8791 24.1108 20.3804 23.9402 20.7389 23.5741L20.4692 23.31C20.201 23.5839 19.809 23.7333 19.2641 23.7333V24.1108ZM20.7375 23.5755C21.1061 23.207 21.2728 22.6631 21.2728 21.982H20.8953C20.8953 22.6076 20.7421 23.0371 20.4706 23.3086L20.7375 23.5755ZM21.2728 21.982V17.442H20.8953V21.982H21.2728ZM21.0841 17.6308H21.9841V17.2533H21.0841V17.6308ZM27.9975 23.782L28.1501 23.8931L28.1513 23.8914L27.9975 23.782ZM27.0975 24.452L27.0279 24.2766L27.0268 24.277L27.0975 24.452ZM24.5875 24.562L24.545 24.746L24.5458 24.7461L24.5875 24.562ZM23.6375 24.272H23.4487V24.4004L23.5681 24.4476L23.6375 24.272ZM23.6375 23.432L23.7154 23.2601L23.4487 23.1391V23.432H23.6375ZM26.9775 23.622L26.8727 23.465L26.8711 23.4661L26.9775 23.622ZM27.2575 22.132L27.1002 22.2369L27.1057 22.2442L27.2575 22.132ZM26.7175 21.702L26.6277 21.8682L26.633 21.8709L26.7175 21.702ZM25.7275 21.292L25.6653 21.4703L25.6669 21.4708L25.7275 21.292ZM23.9375 20.242L23.7764 20.3405L23.7784 20.3437L23.9375 20.242ZM24.0275 18.212L23.8743 18.1016V18.1016L24.0275 18.212ZM24.8875 17.562L24.9576 17.7373V17.7373L24.8875 17.562ZM28.1575 17.782L28.3368 17.841L28.3905 17.6777L28.2328 17.609L28.1575 17.782ZM27.9175 18.512L27.8423 18.6852L28.0321 18.7676L28.0968 18.571L27.9175 18.512ZM26.9475 18.192L26.9088 18.3768L26.9096 18.377L26.9475 18.192ZM25.0175 18.382L25.1239 18.5379V18.5379L25.0175 18.382ZM24.7675 19.832L24.6102 19.9369L24.6157 19.9442L24.7675 19.832ZM25.2875 20.232L25.3699 20.0622V20.0622L25.2875 20.232ZM26.1875 20.582L26.1287 20.7614L26.1309 20.7621L26.1875 20.582ZM27.3575 21.072L27.2634 21.2357V21.2357L27.3575 21.072ZM28.0675 21.732L27.9067 21.831L27.9085 21.8339L28.0675 21.732ZM28.1287 22.692C28.1287 23.0859 28.0308 23.4095 27.8436 23.6726L28.1513 23.8914C28.3908 23.5546 28.5062 23.1515 28.5062 22.692H28.1287ZM27.8448 23.671C27.6555 23.9314 27.3863 24.1344 27.0279 24.2766L27.167 24.6275C27.5819 24.463 27.9128 24.2194 28.1501 23.8931L27.8448 23.671ZM27.0268 24.277C26.6736 24.4195 26.2584 24.4933 25.7775 24.4933V24.8708C26.2965 24.8708 26.7613 24.7912 27.1681 24.6271L27.0268 24.277ZM25.7775 24.4933C25.3486 24.4933 24.9662 24.4543 24.6291 24.3779L24.5458 24.7461C24.9153 24.8298 25.3263 24.8708 25.7775 24.8708V24.4933ZM24.6299 24.3781C24.291 24.2999 23.9835 24.2059 23.7069 24.0965L23.5681 24.4476C23.8647 24.5648 24.1905 24.6641 24.545 24.746L24.6299 24.3781ZM23.8262 24.272V23.432H23.4487V24.272H23.8262ZM23.5595 23.6039C24.3008 23.9403 25.0373 24.1108 25.7675 24.1108V23.7333C25.0976 23.7333 24.4141 23.5771 23.7154 23.2601L23.5595 23.6039ZM25.7675 24.1108C26.3026 24.1108 26.748 24.0069 27.0838 23.778L26.8711 23.4661C26.6202 23.6371 26.259 23.7333 25.7675 23.7333V24.1108ZM27.0822 23.7791C27.4411 23.5398 27.6162 23.177 27.6162 22.722H27.2387C27.2387 23.067 27.1138 23.3043 26.8728 23.465L27.0822 23.7791ZM27.6162 22.722C27.6162 22.4522 27.5522 22.2132 27.4092 22.0198L27.1057 22.2442C27.1894 22.3575 27.2387 22.5119 27.2387 22.722H27.6162ZM27.4145 22.0273C27.283 21.8301 27.0716 21.6681 26.8019 21.5332L26.633 21.8709C26.8699 21.9893 27.0186 22.114 27.1004 22.2367L27.4145 22.0273ZM26.8072 21.536C26.5475 21.3956 26.2065 21.255 25.788 21.1133L25.6669 21.4708C26.075 21.6091 26.394 21.7418 26.6277 21.8681L26.8072 21.536ZM25.7896 21.1138C25.3549 20.9623 24.9934 20.8122 24.7034 20.664L24.5316 21.0001C24.8415 21.1585 25.22 21.3151 25.6653 21.4703L25.7896 21.1138ZM24.7034 20.664C24.4277 20.5231 24.2287 20.3474 24.0965 20.1404L23.7784 20.3437C23.9528 20.6167 24.2072 20.8343 24.5316 21.0001L24.7034 20.664ZM24.0985 20.1436C23.9766 19.944 23.9062 19.6559 23.9062 19.262H23.5287C23.5287 19.6948 23.605 20.06 23.7764 20.3405L24.0985 20.1436ZM23.9062 19.262C23.9062 18.8814 24.0008 18.5717 24.1806 18.3224L23.8743 18.1016C23.6408 18.4257 23.5287 18.816 23.5287 19.262H23.9062ZM24.1806 18.3224C24.3639 18.0681 24.6201 17.8723 24.9576 17.7373L24.8174 17.3868C24.4215 17.5451 24.1044 17.7826 23.8743 18.1016L24.1806 18.3224ZM24.9576 17.7373C25.2977 17.6012 25.6964 17.5308 26.1575 17.5308V17.1533C25.6585 17.1533 25.2106 17.2295 24.8174 17.3868L24.9576 17.7373ZM26.1575 17.5308C26.7887 17.5308 27.4298 17.6709 28.0821 17.9551L28.2328 17.609C27.5384 17.3065 26.8462 17.1533 26.1575 17.1533V17.5308ZM27.9781 17.7231L27.7381 18.4531L28.0968 18.571L28.3368 17.841L27.9781 17.7231ZM27.9926 18.3389C27.6305 18.1817 27.2945 18.0703 26.9853 18.0071L26.9096 18.377C27.1871 18.4337 27.4978 18.5357 27.8423 18.6852L27.9926 18.3389ZM26.9861 18.0073C26.688 17.9449 26.3983 17.9133 26.1175 17.9133V18.2908C26.3699 18.2908 26.6336 18.3192 26.9088 18.3768L26.9861 18.0073ZM26.1175 17.9133C25.6338 17.9133 25.2258 18.0112 24.911 18.2262L25.1239 18.5379C25.3558 18.3795 25.6811 18.2908 26.1175 18.2908V17.9133ZM24.911 18.2262C24.5789 18.4529 24.4187 18.7956 24.4187 19.222H24.7962C24.7962 18.9018 24.9093 18.6845 25.1239 18.5379L24.911 18.2262ZM24.4187 19.222C24.4187 19.4955 24.4779 19.738 24.6104 19.9367L24.9245 19.7273C24.8436 19.606 24.7962 19.4419 24.7962 19.222H24.4187ZM24.6157 19.9442C24.7525 20.1293 24.9536 20.2797 25.205 20.4018L25.3699 20.0622C25.1546 19.9577 25.0091 19.8414 24.9192 19.7198L24.6157 19.9442ZM25.205 20.4018C25.4487 20.5202 25.7575 20.6399 26.1287 20.7614L26.2462 20.4026C25.8841 20.2842 25.5928 20.1705 25.3699 20.0622L25.205 20.4018ZM26.1309 20.7621C26.5887 20.906 26.9653 21.0644 27.2634 21.2357L27.4515 20.9084C27.123 20.7196 26.7195 20.5514 26.2441 20.402L26.1309 20.7621ZM27.2634 21.2357C27.5545 21.4029 27.766 21.6023 27.9067 21.831L28.2282 21.6331C28.0489 21.3418 27.7871 21.1012 27.4515 20.9084L27.2634 21.2357ZM27.9085 21.8339C28.0517 22.0572 28.1287 22.3398 28.1287 22.692H28.5062C28.5062 22.2843 28.4166 21.9269 28.2264 21.6302L27.9085 21.8339ZM36.6377 23.822H36.8264V23.6333H36.6377V23.822ZM36.6377 24.582V24.7708H36.8264V24.582H36.6377ZM34.1077 24.582H33.9189V24.7708H34.1077V24.582ZM34.1177 22.582L33.9292 22.5703L33.929 22.5759L34.1177 22.582ZM34.1577 21.942L34.346 21.9538L34.3586 21.7533H34.1577V21.942ZM34.1277 21.942V21.7533H34.0168L33.9628 21.8501L34.1277 21.942ZM33.2977 22.752L33.3858 22.9189L33.387 22.9183L33.2977 22.752ZM29.7377 19.782V19.5933H29.5489V19.782H29.7377ZM30.6377 19.782H30.8264V19.5933H30.6377V19.782ZM31.0077 21.792L30.8581 21.9073L30.8609 21.9107L31.0077 21.792ZM33.6777 21.682L33.526 21.5696V21.5696L33.6777 21.682ZM34.1077 17.442V17.2533H33.9189V17.442H34.1077ZM35.0077 17.442H35.1964V17.2533H35.0077V17.442ZM35.0077 23.822H34.8189V24.0108H35.0077V23.822ZM36.4489 23.822V24.582H36.8264V23.822H36.4489ZM36.6377 24.3933H34.1077V24.7708H36.6377V24.3933ZM34.2964 24.582V23.132H33.9189V24.582H34.2964ZM34.2964 23.132C34.2964 22.9745 34.2997 22.7933 34.3063 22.5881L33.929 22.5759C33.9223 22.7841 33.9189 22.9695 33.9189 23.132H34.2964ZM34.306 22.5938C34.3194 22.3805 34.3327 22.1671 34.346 21.9538L33.9693 21.9303C33.9559 22.1436 33.9426 22.3569 33.9293 22.5703L34.306 22.5938ZM34.1577 21.7533H34.1277V22.1308H34.1577V21.7533ZM33.9628 21.8501C33.7876 22.1643 33.5376 22.4089 33.2083 22.5857L33.387 22.9183C33.7777 22.7085 34.0811 22.4131 34.2925 22.034L33.9628 21.8501ZM33.2095 22.5851C32.8893 22.7543 32.4945 22.8433 32.0177 22.8433V23.2208C32.5408 23.2208 32.9993 23.1231 33.3858 22.9189L33.2095 22.5851ZM32.0177 22.8433C31.2917 22.8433 30.7805 22.6443 30.4474 22.2776C30.1112 21.9075 29.9264 21.3338 29.9264 20.522H29.5489C29.5489 21.3835 29.7442 22.0649 30.1679 22.5314C30.5948 23.0014 31.2236 23.2208 32.0177 23.2208V22.8433ZM29.9264 20.522V19.782H29.5489V20.522H29.9264ZM29.7377 19.9708H30.6377V19.5933H29.7377V19.9708ZM30.4489 19.782V20.342H30.8264V19.782H30.4489ZM30.4489 20.342C30.4489 21.0071 30.5748 21.5396 30.8582 21.9073L31.1572 21.6768C30.9472 21.4044 30.8264 20.9703 30.8264 20.342H30.4489ZM30.8609 21.9107C31.1641 22.2857 31.6509 22.4508 32.2677 22.4508V22.0733C31.7111 22.0733 31.3579 21.925 31.1544 21.6734L30.8609 21.9107ZM32.2677 22.4508C32.9577 22.4508 33.4952 22.2451 33.8293 21.7944L33.526 21.5696C33.2868 21.8923 32.8843 22.0733 32.2677 22.0733V22.4508ZM33.8293 21.7944C34.1496 21.3625 34.2964 20.7596 34.2964 20.012H33.9189C33.9189 20.7177 33.7791 21.2283 33.526 21.5696L33.8293 21.7944ZM34.2964 20.012V17.442H33.9189V20.012H34.2964ZM34.1077 17.6308H35.0077V17.2533H34.1077V17.6308ZM34.8189 17.442V23.822H35.1964V17.442H34.8189ZM35.0077 24.0108H36.6377V23.6333H35.0077V24.0108ZM38.8061 23.982L38.9395 23.8486V23.8486L38.8061 23.982ZM38.1061 17.442V17.2533H37.9173V17.442H38.1061ZM39.0061 17.442H39.1948V17.2533H39.0061V17.442ZM39.4761 23.442L39.3398 23.5727L39.3412 23.5741L39.4761 23.442ZM42.1761 23.442L42.0412 23.3099L42.0412 23.31L42.1761 23.442ZM42.6561 17.442V17.2533H42.4673V17.442H42.6561ZM43.5561 17.442H43.7448V17.2533H43.5561V17.442ZM43.5461 22.382L43.3577 22.3703L43.3424 22.6153L43.5831 22.5671L43.5461 22.382ZM44.8961 22.782L44.7577 22.9105L44.7609 22.9138L44.8961 22.782ZM45.2961 24.582V24.7708H45.4848V24.582H45.2961ZM44.4961 24.582H44.3073V24.7708H44.4961V24.582ZM44.2761 23.312L44.1344 23.4367V23.4367L44.2761 23.312ZM43.4061 23.072L43.3873 22.8842L43.2662 22.8963L43.2272 23.0116L43.4061 23.072ZM42.4761 24.262L42.3758 24.1021L42.3747 24.1028L42.4761 24.262ZM40.8061 24.4933C39.9732 24.4933 39.3607 24.2698 38.9395 23.8486L38.6726 24.1155C39.1847 24.6276 39.9056 24.8708 40.8061 24.8708V24.4933ZM38.9395 23.8486C38.5167 23.4257 38.2948 22.832 38.2948 22.042H37.9173C37.9173 22.9054 38.1621 23.605 38.6726 24.1155L38.9395 23.8486ZM38.2948 22.042V17.442H37.9173V22.042H38.2948ZM38.1061 17.6308H39.0061V17.2533H38.1061V17.6308ZM38.8173 17.442V21.912H39.1948V17.442H38.8173ZM38.8173 21.912C38.8173 22.6288 38.9786 23.1961 39.3398 23.5727L39.6123 23.3114C39.3468 23.0346 39.1948 22.5819 39.1948 21.912H38.8173ZM39.3412 23.5741C39.7004 23.941 40.2091 24.1108 40.8361 24.1108V23.7333C40.2763 23.7333 39.8783 23.5831 39.6109 23.31L39.3412 23.5741ZM40.8361 24.1108C41.4511 24.1108 41.9524 23.9402 42.3109 23.5741L42.0412 23.31C41.773 23.5839 41.381 23.7333 40.8361 23.7333V24.1108ZM42.3109 23.5741C42.6779 23.1994 42.8448 22.6535 42.8448 21.972H42.4673C42.4673 22.5972 42.3142 23.0313 42.0412 23.3099L42.3109 23.5741ZM42.8448 21.972V17.442H42.4673V21.972H42.8448ZM42.6561 17.6308H43.5561V17.2533H42.6561V17.6308ZM43.3673 17.442V22.062H43.7448V17.442H43.3673ZM43.3673 22.062C43.3673 22.1648 43.3641 22.2675 43.3577 22.3703L43.7344 22.3938C43.7414 22.2832 43.7448 22.1726 43.7448 22.062H43.3673ZM43.5831 22.5671C43.6356 22.5566 43.6964 22.5508 43.7661 22.5508V22.1733C43.6757 22.1733 43.5898 22.1808 43.509 22.1969L43.5831 22.5671ZM43.7661 22.5508C44.2231 22.5508 44.5431 22.6794 44.7577 22.9105L45.0344 22.6536C44.729 22.3247 44.2957 22.1733 43.7661 22.1733V22.5508ZM44.7609 22.9138C44.9771 23.1354 45.1073 23.522 45.1073 24.122H45.4848C45.4848 23.482 45.3483 22.9753 45.0312 22.6502L44.7609 22.9138ZM45.1073 24.122V24.582H45.4848V24.122H45.1073ZM45.2961 24.3933H44.4961V24.7708H45.2961V24.3933ZM44.6848 24.582V24.172H44.3073V24.582H44.6848ZM44.6848 24.172C44.6848 23.7534 44.6115 23.4075 44.4178 23.1873L44.1344 23.4367C44.234 23.5499 44.3073 23.7773 44.3073 24.172H44.6848ZM44.4178 23.1873C44.2263 22.9698 43.9551 22.8733 43.6361 22.8733V23.2508C43.877 23.2508 44.0325 23.321 44.1344 23.4367L44.4178 23.1873ZM43.6361 22.8733C43.5448 22.8733 43.4617 22.8768 43.3873 22.8842L43.4248 23.2598C43.4838 23.254 43.5539 23.2508 43.6361 23.2508V22.8733ZM43.2272 23.0116C43.0674 23.485 42.7845 23.8459 42.3758 24.1021L42.5763 24.422C43.061 24.1181 43.398 23.6858 43.5849 23.1324L43.2272 23.0116ZM42.3747 24.1028C41.9727 24.3586 41.4538 24.4933 40.8061 24.4933V24.8708C41.505 24.8708 42.0994 24.7254 42.5774 24.4213L42.3747 24.1028ZM46.4921 20.372L46.3266 20.2813L46.3261 20.2821L46.4921 20.372ZM47.5521 19.052L47.6779 19.1928L47.9177 18.9784L47.6136 18.8736L47.5521 19.052ZM46.6421 18.642L46.5351 18.7977L46.5408 18.8013L46.6421 18.642ZM46.1721 18.142L46.002 18.2242L46.0057 18.2312L46.1721 18.142ZM46.0221 17.442V17.2533H45.8287L45.8334 17.4466L46.0221 17.442ZM46.9121 17.442L47.1007 17.4348L47.0937 17.2533H46.9121V17.442ZM47.0321 17.882L47.1932 17.7836V17.7836L47.0321 17.882ZM47.4221 18.212L47.3329 18.3786L47.34 18.382L47.4221 18.212ZM48.2421 18.512L48.1876 18.6927L48.2728 18.7185L48.3468 18.6691L48.2421 18.512ZM50.0121 17.662L50.0701 17.8417L50.0718 17.8411L50.0121 17.662ZM51.9321 17.342H52.1209V17.1533H51.9321V17.342ZM51.9321 18.102V18.2908H52.1209V18.102H51.9321ZM50.5321 18.292L50.5798 18.4747L50.5816 18.4742L50.5321 18.292ZM49.2321 18.802L49.1423 18.636L48.77 18.8374L49.1686 18.9798L49.2321 18.802ZM51.2521 20.092L51.1036 20.2086V20.2086L51.2521 20.092ZM51.5121 23.352L51.3482 23.2584L51.3471 23.2604L51.5121 23.352ZM50.5121 24.332L50.4226 24.1658V24.1658L50.5121 24.332ZM47.4121 24.332L47.5027 24.1664V24.1664L47.4121 24.332ZM46.4321 23.362L46.2649 23.4496L46.2666 23.4528L46.4321 23.362ZM47.5121 23.372L47.3724 23.499L47.3737 23.5004L47.5121 23.372ZM50.4421 23.372L50.3049 23.2423L50.3037 23.2437L50.4421 23.372ZM50.3921 20.382L50.2501 20.5063L50.2512 20.5076L50.3921 20.382ZM48.4521 19.312L48.5083 19.1318L48.4136 19.1023L48.3356 19.1635L48.4521 19.312ZM47.4021 20.482L47.2407 20.3842L47.2396 20.386L47.4021 20.482ZM46.2909 21.892C46.2909 21.3909 46.4127 20.915 46.6581 20.4619L46.3261 20.2821C46.0516 20.7891 45.9134 21.3265 45.9134 21.892H46.2909ZM46.6576 20.4627C46.9134 19.996 47.2529 19.5727 47.6779 19.1928L47.4263 18.9113C46.9713 19.318 46.6042 19.7747 46.3266 20.2813L46.6576 20.4627ZM47.6136 18.8736C47.234 18.7427 46.946 18.6117 46.7435 18.4828L46.5408 18.8013C46.7782 18.9524 47.0969 19.0947 47.4906 19.2305L47.6136 18.8736ZM46.749 18.4865C46.5551 18.3531 46.4214 18.2077 46.3385 18.0529L46.0057 18.2312C46.1228 18.4497 46.3025 18.6376 46.5352 18.7976L46.749 18.4865ZM46.3421 18.06C46.2632 17.8965 46.217 17.691 46.2108 17.4374L45.8334 17.4466C45.8406 17.7397 45.8944 18.0009 46.0021 18.2241L46.3421 18.06ZM46.0221 17.6308H46.9121V17.2533H46.0221V17.6308ZM46.7235 17.4493C46.7311 17.6474 46.7774 17.8272 46.8711 17.9805L47.1932 17.7836C47.1402 17.6969 47.1064 17.5833 47.1007 17.4348L46.7235 17.4493ZM46.8711 17.9805C46.9686 18.1401 47.1306 18.27 47.333 18.3784L47.5112 18.0456C47.3403 17.9541 47.2423 17.864 47.1932 17.7836L46.8711 17.9805ZM47.34 18.382C47.5464 18.4816 47.8305 18.5849 48.1876 18.6927L48.2967 18.3313C47.9471 18.2258 47.6845 18.1291 47.5042 18.042L47.34 18.382ZM48.3468 18.6691C48.8718 18.3191 49.446 18.0432 50.0701 17.8417L49.9541 17.4824C49.2982 17.6942 48.6924 17.985 48.1374 18.355L48.3468 18.6691ZM50.0718 17.8411C50.6936 17.6338 51.3135 17.5308 51.9321 17.5308V17.1533C51.2707 17.1533 50.6106 17.2636 49.9524 17.483L50.0718 17.8411ZM51.7434 17.342V18.102H52.1209V17.342H51.7434ZM51.9321 17.9133C51.4481 17.9133 50.9649 17.979 50.4827 18.1099L50.5816 18.4742C51.0327 18.3517 51.4827 18.2908 51.9321 18.2908V17.9133ZM50.4845 18.1094C50.0102 18.2331 49.5627 18.4086 49.1423 18.636L49.3219 18.968C49.7149 18.7555 50.134 18.591 50.5798 18.4747L50.4845 18.1094ZM49.1686 18.9798C50.0835 19.3065 50.7204 19.7203 51.1036 20.2086L51.4006 19.9755C50.9571 19.4104 50.2474 18.9642 49.2956 18.6243L49.1686 18.9798ZM51.1036 20.2086C51.4904 20.7014 51.6834 21.2636 51.6834 21.902H52.0609C52.0609 21.1805 51.8405 20.536 51.4006 19.9755L51.1036 20.2086ZM51.6834 21.902C51.6834 22.4202 51.5699 22.8705 51.3482 23.2584L51.676 23.4457C51.9343 22.9936 52.0609 22.4772 52.0609 21.902H51.6834ZM51.3471 23.2604C51.1318 23.648 50.825 23.9492 50.4226 24.1658L50.6016 24.4982C51.0659 24.2482 51.4258 23.8961 51.6771 23.4437L51.3471 23.2604ZM50.4226 24.1658C50.0222 24.3815 49.5377 24.4933 48.9621 24.4933V24.8708C49.5866 24.8708 50.1354 24.7493 50.6016 24.4982L50.4226 24.1658ZM48.9621 24.4933C48.3794 24.4933 47.8955 24.3813 47.5027 24.1664L47.3215 24.4976C47.782 24.7495 48.3315 24.8708 48.9621 24.8708V24.4933ZM47.5027 24.1664C47.1066 23.9498 46.8064 23.652 46.5976 23.2713L46.2666 23.4528C46.5112 23.8988 46.8643 24.2476 47.3215 24.4976L47.5027 24.1664ZM46.5993 23.2744C46.3958 22.886 46.2909 22.427 46.2909 21.892H45.9134C45.9134 22.477 46.0284 22.9981 46.2649 23.4496L46.5993 23.2744ZM46.8234 21.882C46.8234 22.5428 46.9998 23.0891 47.3724 23.499L47.6518 23.2451C47.3577 22.9216 47.2009 22.4746 47.2009 21.882H46.8234ZM47.3737 23.5004C47.7581 23.9149 48.2971 24.1108 48.9621 24.1108V23.7333C48.3738 23.7333 47.9462 23.5625 47.6505 23.2437L47.3737 23.5004ZM48.9621 24.1108C49.645 24.1108 50.1951 23.9161 50.5805 23.5004L50.3037 23.2437C50.0092 23.5613 49.5725 23.7333 48.9621 23.7333V24.1108ZM50.5793 23.5017C50.9659 23.0928 51.1509 22.5526 51.1509 21.902H50.7734C50.7734 22.4781 50.6116 22.918 50.305 23.2424L50.5793 23.5017ZM51.1509 21.902C51.1509 21.2704 50.9448 20.7187 50.5331 20.2565L50.2512 20.5076C50.5995 20.8987 50.7734 21.3603 50.7734 21.902H51.1509ZM50.5342 20.2577C50.127 19.7924 49.4409 19.4224 48.5083 19.1318L48.396 19.4922C49.3033 19.775 49.9106 20.1184 50.2501 20.5063L50.5342 20.2577ZM48.3356 19.1635C47.8856 19.5166 47.52 19.9234 47.2407 20.3842L47.5635 20.5799C47.8176 20.1607 48.1519 19.7875 48.5686 19.4605L48.3356 19.1635ZM47.2396 20.386C46.9631 20.854 46.8234 21.3537 46.8234 21.882H47.2009C47.2009 21.4237 47.3212 20.9901 47.5646 20.5781L47.2396 20.386ZM54.3788 23.982L54.5123 23.8486V23.8486L54.3788 23.982ZM53.6788 17.442V17.2533H53.49V17.442H53.6788ZM54.5788 17.442H54.7675V17.2533H54.5788V17.442ZM55.0488 23.442L54.9126 23.5727L54.9139 23.5741L55.0488 23.442ZM57.7488 23.442L57.614 23.3099L57.6139 23.31L57.7488 23.442ZM58.2288 17.442V17.2533H58.04V17.442H58.2288ZM59.1288 17.442H59.3176V17.2533H59.1288V17.442ZM59.1188 22.382L58.9304 22.3703L58.9151 22.6153L59.1558 22.5671L59.1188 22.382ZM60.4688 22.782L60.3304 22.9105L60.3337 22.9138L60.4688 22.782ZM60.8688 24.582V24.7708H61.0575V24.582H60.8688ZM60.0688 24.582H59.88V24.7708H60.0688V24.582ZM59.8488 23.312L59.7071 23.4367V23.4367L59.8488 23.312ZM58.9788 23.072L58.96 22.8842L58.8389 22.8963L58.8 23.0116L58.9788 23.072ZM58.0488 24.262L57.9485 24.1021L57.9475 24.1028L58.0488 24.262ZM56.3788 24.4933C55.5459 24.4933 54.9335 24.2698 54.5123 23.8486L54.2453 24.1155C54.7574 24.6276 55.4784 24.8708 56.3788 24.8708V24.4933ZM54.5123 23.8486C54.0894 23.4257 53.8675 22.832 53.8675 22.042H53.49C53.49 22.9054 53.7348 23.605 54.2453 24.1155L54.5123 23.8486ZM53.8675 22.042V17.442H53.49V22.042H53.8675ZM53.6788 17.6308H54.5788V17.2533H53.6788V17.6308ZM54.39 17.442V21.912H54.7675V17.442H54.39ZM54.39 21.912C54.39 22.6288 54.5514 23.1961 54.9126 23.5727L55.185 23.3114C54.9195 23.0346 54.7675 22.5819 54.7675 21.912H54.39ZM54.9139 23.5741C55.2732 23.941 55.7818 24.1108 56.4088 24.1108V23.7333C55.8491 23.7333 55.4511 23.5831 55.1837 23.31L54.9139 23.5741ZM56.4088 24.1108C57.0239 24.1108 57.5252 23.9402 57.8837 23.5741L57.6139 23.31C57.3457 23.5839 56.9537 23.7333 56.4088 23.7333V24.1108ZM57.8836 23.5741C58.2507 23.1994 58.4175 22.6535 58.4175 21.972H58.04C58.04 22.5972 57.8869 23.0313 57.614 23.3099L57.8836 23.5741ZM58.4175 21.972V17.442H58.04V21.972H58.4175ZM58.2288 17.6308H59.1288V17.2533H58.2288V17.6308ZM58.94 17.442V22.062H59.3176V17.442H58.94ZM58.94 22.062C58.94 22.1648 58.9368 22.2675 58.9304 22.3703L59.3072 22.3938C59.3141 22.2832 59.3176 22.1726 59.3176 22.062H58.94ZM59.1558 22.5671C59.2084 22.5566 59.2691 22.5508 59.3388 22.5508V22.1733C59.2485 22.1733 59.1625 22.1808 59.0818 22.1969L59.1558 22.5671ZM59.3388 22.5508C59.7958 22.5508 60.1159 22.6794 60.3305 22.9105L60.6071 22.6536C60.3017 22.3247 59.8685 22.1733 59.3388 22.1733V22.5508ZM60.3337 22.9138C60.5499 23.1354 60.68 23.522 60.68 24.122H61.0575C61.0575 23.482 60.9211 22.9753 60.6039 22.6502L60.3337 22.9138ZM60.68 24.122V24.582H61.0575V24.122H60.68ZM60.8688 24.3933H60.0688V24.7708H60.8688V24.3933ZM60.2575 24.582V24.172H59.88V24.582H60.2575ZM60.2575 24.172C60.2575 23.7534 60.1842 23.4075 59.9905 23.1873L59.7071 23.4367C59.8067 23.5499 59.88 23.7773 59.88 24.172H60.2575ZM59.9905 23.1873C59.799 22.9698 59.5278 22.8733 59.2088 22.8733V23.2508C59.4498 23.2508 59.6052 23.321 59.7071 23.4367L59.9905 23.1873ZM59.2088 22.8733C59.1176 22.8733 59.0344 22.8768 58.96 22.8842L58.9976 23.2598C59.0565 23.254 59.1267 23.2508 59.2088 23.2508V22.8733ZM58.8 23.0116C58.6401 23.485 58.3572 23.8459 57.9485 24.1021L58.149 24.422C58.6337 24.1181 58.9708 23.6858 59.1576 23.1324L58.8 23.0116ZM57.9475 24.1028C57.5454 24.3586 57.0265 24.4933 56.3788 24.4933V24.8708C57.0777 24.8708 57.6722 24.7254 58.1501 24.4213L57.9475 24.1028ZM18.1537 27.342L18.1892 27.1566L17.9956 27.1196L17.967 27.3146L18.1537 27.342ZM23.1737 28.302L23.3606 28.3291L23.3864 28.1505L23.2092 28.1166L23.1737 28.302ZM23.0637 29.062L23.0283 29.2474L23.2223 29.2845L23.2506 29.0891L23.0637 29.062ZM21.0737 28.682L21.1091 28.4966L21.0337 28.4822L20.9696 28.5246L21.0737 28.682ZM19.9637 29.632L19.824 29.5052V29.5052L19.9637 29.632ZM19.1837 30.782L19.0133 30.701L19.0122 30.7033L19.1837 30.782ZM19.3537 33.392L19.2099 33.5142L19.2112 33.5158L19.3537 33.392ZM21.8537 33.442L22.0017 33.5592L22.0029 33.5577L21.8537 33.442ZM22.2337 31.622V31.4333H22.045V31.622H22.2337ZM23.1437 31.622H23.3325V31.4333H23.1437V31.622ZM22.4837 34.002L22.3483 33.8706L22.3473 33.8716L22.4837 34.002ZM19.2037 34.352L19.1083 34.5149L19.1104 34.5161L19.2037 34.352ZM18.3137 33.412L18.1461 33.4987V33.4987L18.3137 33.412ZM18.2837 30.702L18.4575 30.7757V30.7757L18.2837 30.702ZM19.0437 29.472L19.1881 29.5936L19.1892 29.5924L19.0437 29.472ZM20.1037 28.492L20.2109 28.6474L20.5807 28.3924L20.1397 28.3067L20.1037 28.492ZM18.0437 28.092L17.857 28.0646L17.8308 28.243L18.0078 28.2773L18.0437 28.092ZM18.1183 27.5274L23.1383 28.4874L23.2092 28.1166L18.1892 27.1566L18.1183 27.5274ZM22.9869 28.275L22.8769 29.035L23.2506 29.0891L23.3606 28.3291L22.9869 28.275ZM23.0991 28.8766L21.1091 28.4966L21.0383 28.8674L23.0283 29.2474L23.0991 28.8766ZM20.9696 28.5246C20.5434 28.8064 20.1614 29.1333 19.824 29.5052L20.1035 29.7589C20.4194 29.4107 20.7774 29.1043 21.1779 28.8395L20.9696 28.5246ZM19.824 29.5052C19.4859 29.8778 19.2151 30.2764 19.0133 30.701L19.3542 30.8631C19.539 30.4744 19.7883 30.1063 20.1035 29.7589L19.824 29.5052ZM19.0122 30.7033C18.8151 31.1326 18.715 31.5693 18.715 32.012H19.0925C19.0925 31.6281 19.179 31.2448 19.3553 30.8608L19.0122 30.7033ZM18.715 32.012C18.715 32.6131 18.8748 33.1196 19.2099 33.5142L19.4976 33.2699C19.2327 32.9578 19.0925 32.5443 19.0925 32.012H18.715ZM19.2112 33.5158C19.558 33.9153 20.0259 34.1108 20.5937 34.1108V33.7333C20.1216 33.7333 19.7629 33.5754 19.4963 33.2683L19.2112 33.5158ZM20.5937 34.1108C21.2117 34.1108 21.6989 33.9417 22.0017 33.5592L21.7058 33.3249C21.5019 33.5824 21.1491 33.7333 20.5937 33.7333V34.1108ZM22.0029 33.5577C22.2888 33.189 22.4225 32.711 22.4225 32.142H22.045C22.045 32.653 21.9253 33.0417 21.7046 33.3264L22.0029 33.5577ZM22.4225 32.142V31.622H22.045V32.142H22.4225ZM22.2337 31.8108H23.1437V31.4333H22.2337V31.8108ZM22.955 31.622V32.192H23.3325V31.622H22.955ZM22.955 32.192C22.955 32.9064 22.7477 33.4591 22.3483 33.8706L22.6192 34.1335C23.0998 33.6383 23.3325 32.9844 23.3325 32.192H22.955ZM22.3473 33.8716C21.9599 34.2769 21.386 34.4933 20.5937 34.4933V34.8708C21.4548 34.8708 22.1409 34.6338 22.6202 34.1325L22.3473 33.8716ZM20.5937 34.4933C20.0795 34.4933 19.6498 34.3887 19.2971 34.188L19.1104 34.5161C19.531 34.7554 20.028 34.8708 20.5937 34.8708V34.4933ZM19.2992 34.1892C18.9435 33.9807 18.6718 33.6938 18.4814 33.3254L18.1461 33.4987C18.369 33.9302 18.6907 34.2701 19.1083 34.5149L19.2992 34.1892ZM18.4814 33.3254C18.2909 32.9567 18.1925 32.5208 18.1925 32.012H17.815C17.815 32.57 17.9232 33.0674 18.1461 33.4987L18.4814 33.3254ZM18.1925 32.012C18.1925 31.6065 18.2797 31.1948 18.4575 30.7757L18.11 30.6283C17.9144 31.0892 17.815 31.5509 17.815 32.012H18.1925ZM18.4575 30.7757C18.6365 30.3538 18.8798 29.9598 19.1881 29.5936L18.8994 29.3504C18.5677 29.7443 18.3043 30.1703 18.11 30.6283L18.4575 30.7757ZM19.1892 29.5924C19.4988 29.2182 19.8395 28.9036 20.2109 28.6474L19.9966 28.3366C19.5947 28.6138 19.2287 28.9525 18.8983 29.3517L19.1892 29.5924ZM20.1397 28.3067L18.0797 27.9067L18.0078 28.2773L20.0678 28.6773L20.1397 28.3067ZM18.2305 28.1194L18.3405 27.3694L17.967 27.3146L17.857 28.0646L18.2305 28.1194ZM25.004 34.582H24.8153V34.7708H25.004V34.582ZM25.724 28.042L25.5924 27.9067V27.9067L25.724 28.042ZM29.754 28.042L29.6205 28.1755H29.6206L29.754 28.042ZM30.454 34.582V34.7708H30.6428V34.582H30.454ZM29.554 34.582H29.3653V34.7708H29.554V34.582ZM29.074 28.582L28.9391 28.7141L28.9405 28.7155L29.074 28.582ZM26.374 28.582L26.2405 28.4486L26.2392 28.45L26.374 28.582ZM25.904 34.582V34.7708H26.0928V34.582H25.904ZM25.1928 34.582V29.962H24.8153V34.582H25.1928ZM25.1928 29.962C25.1928 29.1879 25.4198 28.6011 25.8556 28.1774L25.5924 27.9067C25.0683 28.4163 24.8153 29.1094 24.8153 29.962H25.1928ZM25.8556 28.1774C26.2906 27.7544 26.9143 27.5308 27.754 27.5308V27.1533C26.8471 27.1533 26.1174 27.3963 25.5924 27.9067L25.8556 28.1774ZM27.754 27.5308C28.5869 27.5308 29.1993 27.7543 29.6205 28.1755L29.8875 27.9086C29.3754 27.3964 28.6545 27.1533 27.754 27.1533V27.5308ZM29.6206 28.1755C30.0434 28.5983 30.2653 29.1921 30.2653 29.982H30.6428C30.6428 29.1187 30.398 28.4191 29.8875 27.9086L29.6206 28.1755ZM30.2653 29.982V34.582H30.6428V29.982H30.2653ZM30.454 34.3933H29.554V34.7708H30.454V34.3933ZM29.7428 34.582V30.102H29.3653V34.582H29.7428ZM29.7428 30.102C29.7428 29.3847 29.5778 28.8189 29.2075 28.4486L28.9405 28.7155C29.2102 28.9852 29.3653 29.4327 29.3653 30.102H29.7428ZM29.2089 28.45C28.85 28.0835 28.345 27.9133 27.724 27.9133V28.2908C28.2763 28.2908 28.6714 28.4406 28.9392 28.7141L29.2089 28.45ZM27.724 27.9133C27.1087 27.9133 26.6052 28.0839 26.2405 28.4486L26.5075 28.7155C26.7829 28.4401 27.1793 28.2908 27.724 28.2908V27.9133ZM26.2392 28.45C25.8782 28.8186 25.7153 29.3619 25.7153 30.042H26.0928C26.0928 29.4155 26.2432 28.9854 26.5089 28.7141L26.2392 28.45ZM25.7153 30.042V34.582H26.0928V30.042H25.7153ZM25.904 34.3933H25.004V34.7708H25.904V34.3933ZM32.5574 34.582H32.3687V34.7708H32.5574V34.582ZM32.5574 27.442V27.2533H32.3687V27.442H32.5574ZM33.4574 27.442H33.6462V27.2533H33.4574V27.442ZM33.4574 29.212H33.2687V29.4008H33.4574V29.212ZM34.5374 29.272L34.495 29.456V29.456L34.5374 29.272ZM34.9874 29.482L34.8704 29.6302L34.8742 29.633L34.9874 29.482ZM35.3674 29.912L35.2086 30.0141L35.2112 30.018L35.3674 29.912ZM35.7774 30.632L35.6086 30.7164L35.6093 30.7178L35.7774 30.632ZM36.1974 31.382L36.0403 31.4868L36.0425 31.4898L36.1974 31.382ZM36.4974 31.682L36.413 31.8509L36.4176 31.8531L36.4974 31.682ZM37.1274 31.752H37.3162V31.5633H37.1274V31.752ZM37.1274 32.512V32.7008H37.3162V32.512H37.1274ZM35.8774 32.252L35.7628 32.402L35.7649 32.4036L35.8774 32.252ZM35.1974 31.292L35.0269 31.373L35.0276 31.3745L35.1974 31.292ZM34.7274 30.422L34.5686 30.5241L34.5712 30.528L34.7274 30.422ZM34.3374 30.062L34.2598 30.2345L34.2702 30.2384L34.3374 30.062ZM33.4574 29.972V29.7833H33.2687V29.972H33.4574ZM33.4574 34.582V34.7708H33.6462V34.582H33.4574ZM32.7462 34.582V27.442H32.3687V34.582H32.7462ZM32.5574 27.6308H33.4574V27.2533H32.5574V27.6308ZM33.2687 27.442V29.212H33.6462V27.442H33.2687ZM33.4574 29.4008H33.8874V29.0233H33.4574V29.4008ZM33.8874 29.4008C34.139 29.4008 34.3403 29.4203 34.495 29.456L34.5799 29.0881C34.3878 29.0438 34.1558 29.0233 33.8874 29.0233V29.4008ZM34.495 29.456C34.6439 29.4903 34.7678 29.5492 34.8705 29.6302L35.1044 29.3339C34.9537 29.2149 34.7776 29.1337 34.5799 29.0881L34.495 29.456ZM34.8742 29.633C34.9847 29.7159 35.097 29.8404 35.2086 30.0141L35.5262 29.81C35.3978 29.6103 35.2568 29.4481 35.1007 29.331L34.8742 29.633ZM35.2112 30.018C35.3316 30.1955 35.4641 30.4275 35.6086 30.7164L35.9462 30.5476C35.7974 30.2498 35.6565 30.0019 35.5236 29.806L35.2112 30.018ZM35.6093 30.7178C35.7834 31.0593 35.9274 31.3173 36.0404 31.4867L36.3545 31.2773C36.2541 31.1268 36.1182 30.8848 35.9456 30.5463L35.6093 30.7178ZM36.0425 31.4898C36.155 31.6516 36.2771 31.7829 36.413 31.8509L36.5818 31.5132C36.5311 31.4878 36.4532 31.4192 36.3524 31.2742L36.0425 31.4898ZM36.4176 31.8531C36.5484 31.9141 36.697 31.9408 36.8574 31.9408V31.5633C36.7378 31.5633 36.6465 31.5433 36.5772 31.511L36.4176 31.8531ZM36.8574 31.9408H37.1274V31.5633H36.8574V31.9408ZM36.9387 31.752V32.512H37.3162V31.752H36.9387ZM37.1274 32.3233H36.7574V32.7008H37.1274V32.3233ZM36.7574 32.3233C36.4357 32.3233 36.1843 32.2448 35.99 32.1005L35.7649 32.4036C36.0373 32.6059 36.3725 32.7008 36.7574 32.7008V32.3233ZM35.9921 32.1021C35.8009 31.9559 35.5899 31.6681 35.3672 31.2096L35.0276 31.3745C35.2583 31.8493 35.5006 32.2015 35.7628 32.402L35.9921 32.1021ZM35.3679 31.2111C35.1802 30.8155 35.0186 30.515 34.8836 30.316L34.5712 30.528C34.6896 30.7024 34.8413 30.9819 35.0269 31.373L35.3679 31.2111ZM34.8862 30.32C34.7544 30.1149 34.5965 29.9588 34.4046 29.8856L34.2702 30.2384C34.3583 30.272 34.4604 30.3558 34.5686 30.5241L34.8862 30.32ZM34.4149 29.8899C34.2481 29.8148 34.0419 29.7833 33.8074 29.7833V30.1608C34.013 30.1608 34.1601 30.1892 34.26 30.2342L34.4149 29.8899ZM33.8074 29.7833H33.4574V30.1608H33.8074V29.7833ZM33.2687 29.972V34.582H33.6462V29.972H33.2687ZM33.4574 34.3933H32.5574V34.7708H33.4574V34.3933ZM39.1713 34.002L39.0319 34.1293L39.0328 34.1303L39.1713 34.002ZM38.8413 30.302L38.6635 30.2387L38.6628 30.2405L38.8413 30.302ZM39.5413 28.812L39.7011 28.9125L39.8795 28.6288L39.5444 28.6233L39.5413 28.812ZM38.6113 28.482L38.4778 28.6155V28.6155L38.6113 28.482ZM38.2913 26.982V26.7933H38.1025V26.982H38.2913ZM39.1913 26.982H39.38V26.7933H39.1913V26.982ZM39.3813 28.102L39.2514 28.2391L39.2554 28.2427L39.3813 28.102ZM40.5913 28.272L40.7501 28.17L40.6943 28.0833H40.5913V28.272ZM40.6813 28.412L40.8336 28.5235L40.9101 28.4189L40.8401 28.31L40.6813 28.412ZM40.0913 29.442L39.9203 29.3621L39.9197 29.3633L40.0913 29.442ZM39.6213 30.762L39.4389 30.7132L39.4383 30.7156L39.6213 30.762ZM39.8313 33.442L39.6848 33.5611L39.6863 33.5629L39.8313 33.442ZM42.1413 33.512L41.9995 33.3875V33.3875L42.1413 33.512ZM42.5013 30.402V30.2133H42.3125V30.402H42.5013ZM43.4013 30.402H43.59V30.2133H43.4013V30.402ZM42.7713 34.092L42.9003 34.2298L42.9015 34.2287L42.7713 34.092ZM41.0113 34.4933C40.2403 34.4933 39.684 34.2777 39.3098 33.8737L39.0328 34.1303C39.4986 34.6331 40.169 34.8708 41.0113 34.8708V34.4933ZM39.3107 33.8748C38.9294 33.4571 38.73 32.893 38.73 32.162H38.3525C38.3525 32.9644 38.5732 33.6269 39.0319 34.1293L39.3107 33.8748ZM38.73 32.162C38.73 31.5214 38.8271 30.9223 39.0197 30.3636L38.6628 30.2405C38.4555 30.8417 38.3525 31.4827 38.3525 32.162H38.73ZM39.0191 30.3654C39.2223 29.7952 39.45 29.3116 39.7011 28.9125L39.3815 28.7115C39.1126 29.1391 38.8736 29.6489 38.6635 30.2387L39.0191 30.3654ZM39.5444 28.6233C39.1692 28.6172 38.9128 28.5166 38.7448 28.3486L38.4778 28.6155C38.7364 28.8741 39.1 28.9936 39.5382 29.0008L39.5444 28.6233ZM38.7448 28.3486C38.5829 28.1867 38.48 27.9005 38.48 27.442H38.1025C38.1025 27.9436 38.213 28.3507 38.4778 28.6155L38.7448 28.3486ZM38.48 27.442V26.982H38.1025V27.442H38.48ZM38.2913 27.1708H39.1913V26.7933H38.2913V27.1708ZM39.0025 26.982V27.442H39.38V26.982H39.0025ZM39.0025 27.442C39.0025 27.7744 39.0659 28.0632 39.2515 28.2391L39.5111 27.965C39.4434 27.9008 39.38 27.7496 39.38 27.442H39.0025ZM39.2554 28.2427C39.4303 28.3992 39.6737 28.4608 39.9513 28.4608V28.0833C39.7222 28.0833 39.5856 28.0316 39.5071 27.9614L39.2554 28.2427ZM39.9513 28.4608H40.5913V28.0833H39.9513V28.4608ZM40.4325 28.3741L40.5225 28.5141L40.8401 28.31L40.7501 28.17L40.4325 28.3741ZM40.529 28.3006C40.3197 28.5865 40.1172 28.9412 39.9203 29.3621L40.2623 29.522C40.4521 29.1162 40.6428 28.7842 40.8336 28.5235L40.529 28.3006ZM39.9197 29.3633C39.7282 29.7805 39.5681 30.2306 39.4389 30.7132L39.8036 30.8108C39.9278 30.3468 40.081 29.9169 40.2628 29.5208L39.9197 29.3633ZM39.4383 30.7156C39.3147 31.2032 39.2525 31.6855 39.2525 32.162H39.63C39.63 31.7186 39.6879 31.2675 39.8043 30.8084L39.4383 30.7156ZM39.2525 32.162C39.2525 32.7258 39.3903 33.1986 39.6848 33.5611L39.9778 33.323C39.7523 33.0455 39.63 32.6649 39.63 32.162H39.2525ZM39.6863 33.5629C39.9975 33.9363 40.4504 34.1108 41.0113 34.1108V33.7333C40.5322 33.7333 40.1984 33.5877 39.9763 33.3212L39.6863 33.5629ZM41.0113 34.1108C41.5559 34.1108 41.9945 33.9653 42.2831 33.6366L41.9995 33.3875C41.8081 33.6054 41.4934 33.7333 41.0113 33.7333V34.1108ZM42.2831 33.6366C42.5645 33.3162 42.69 32.8643 42.69 32.312H42.3125C42.3125 32.813 42.1981 33.1612 41.9995 33.3875L42.2831 33.6366ZM42.69 32.312V30.402H42.3125V32.312H42.69ZM42.5013 30.5908H43.4013V30.2133H42.5013V30.5908ZM43.2125 30.402V32.372H43.59V30.402H43.2125ZM43.2125 32.372C43.2125 33.0827 43.0137 33.6005 42.6411 33.9553L42.9015 34.2287C43.3689 33.7836 43.59 33.1547 43.59 32.372H43.2125ZM42.6423 33.9543C42.267 34.3057 41.732 34.4933 41.0113 34.4933V34.8708C41.7973 34.8708 42.4356 34.665 42.9003 34.2298L42.6423 33.9543ZM49.7079 34.592L49.7016 34.7807L49.8966 34.7872V34.592H49.7079ZM47.9579 34.262L47.8932 34.4394L47.8951 34.44L47.9579 34.262ZM46.3179 33.442L46.2141 33.5997L46.2155 33.6006L46.3179 33.442ZM44.8479 32.272L44.7053 32.1484L44.5875 32.2843L44.7175 32.4085L44.8479 32.272ZM45.3679 31.672L45.4996 31.5368L45.3563 31.3973L45.2253 31.5484L45.3679 31.672ZM46.1879 32.382L46.3033 32.2327V32.2327L46.1879 32.382ZM47.1079 32.992L47.0154 33.1565L47.123 33.2171L47.2216 33.1427L47.1079 32.992ZM48.6579 31.472L48.5047 31.3617L48.5037 31.3631L48.6579 31.472ZM48.7579 28.602L48.6124 28.7223L48.6138 28.724L48.7579 28.602ZM46.2579 28.552L46.4032 28.6726V28.6726L46.2579 28.552ZM45.8679 29.882V30.0708H46.0566V29.882H45.8679ZM44.9679 29.882H44.7791V30.0708H44.9679V29.882ZM45.6279 27.982L45.7603 28.1165L45.7614 28.1155L45.6279 27.982ZM48.9179 27.652L48.8233 27.8154L48.8267 27.8173L48.9179 27.652ZM49.7979 28.552L49.6302 28.6388V28.6388L49.7979 28.552ZM49.4979 31.722L49.6544 31.8275L49.6549 31.8267L49.4979 31.722ZM47.8679 33.372L47.7558 33.2201L47.4891 33.417L47.7945 33.5459L47.8679 33.372ZM48.7779 33.682L48.7302 33.8647L48.7349 33.8658L48.7779 33.682ZM49.7079 33.812H49.8966V33.6313L49.7161 33.6235L49.7079 33.812ZM49.7142 34.4034C49.1335 34.384 48.5692 34.2776 48.0207 34.084L47.8951 34.44C48.4799 34.6464 49.0823 34.76 49.7016 34.7807L49.7142 34.4034ZM48.0226 34.0847C47.4696 33.883 46.9356 33.6161 46.4203 33.2835L46.2155 33.6006C46.7535 33.9479 47.3128 34.2277 47.8932 34.4394L48.0226 34.0847ZM46.4217 33.2844C45.9045 32.9439 45.4234 32.561 44.9783 32.1356L44.7175 32.4085C45.1791 32.8497 45.678 33.2468 46.2141 33.5997L46.4217 33.2844ZM44.9905 32.3957L45.5105 31.7957L45.2253 31.5484L44.7053 32.1484L44.9905 32.3957ZM45.2362 31.8073C45.4949 32.0592 45.7737 32.3005 46.0725 32.5314L46.3033 32.2327C46.0154 32.0102 45.7475 31.7782 45.4996 31.5368L45.2362 31.8073ZM46.0725 32.5314C46.373 32.7636 46.6873 32.972 47.0154 33.1565L47.2004 32.8275C46.8885 32.6521 46.5895 32.4538 46.3033 32.2327L46.0725 32.5314ZM47.2216 33.1427C47.9116 32.6218 48.444 32.1017 48.812 31.581L48.5037 31.3631C48.1651 31.8423 47.6642 32.3356 46.9942 32.8414L47.2216 33.1427ZM48.8111 31.5823C49.1902 31.0558 49.3866 30.5047 49.3866 29.932H49.0091C49.0091 30.4127 48.8456 30.8882 48.5047 31.3617L48.8111 31.5823ZM49.3866 29.932C49.3866 29.3562 49.2294 28.867 48.902 28.4801L48.6138 28.724C48.8731 29.0303 49.0091 29.4278 49.0091 29.932H49.3866ZM48.9034 28.4817C48.5745 28.0841 48.1101 27.8933 47.5379 27.8933V28.2708C48.019 28.2708 48.3679 28.4266 48.6124 28.7223L48.9034 28.4817ZM47.5379 27.8933C46.9149 27.8933 46.4225 28.058 46.1126 28.4315L46.4032 28.6726C46.6133 28.4193 46.9743 28.2708 47.5379 28.2708V27.8933ZM46.1126 28.4315C45.8189 28.7855 45.6791 29.2344 45.6791 29.762H46.0566C46.0566 29.303 46.1769 28.9453 46.4032 28.6726L46.1126 28.4315ZM45.6791 29.762V29.882H46.0566V29.762H45.6791ZM45.8679 29.6933H44.9679V30.0708H45.8679V29.6933ZM45.1566 29.882V29.712H44.7791V29.882H45.1566ZM45.1566 29.712C45.1566 29.0335 45.3624 28.5085 45.7603 28.1165L45.4954 27.8475C45.0134 28.3223 44.7791 28.9506 44.7791 29.712H45.1566ZM45.7614 28.1155C46.1553 27.7216 46.7371 27.5108 47.5379 27.5108V27.1333C46.672 27.1333 45.9805 27.3624 45.4944 27.8486L45.7614 28.1155ZM47.5379 27.5108C48.0523 27.5108 48.478 27.6155 48.8233 27.8154L49.0125 27.4887C48.5978 27.2486 48.1035 27.1333 47.5379 27.1333V27.5108ZM48.8267 27.8173C49.1812 28.0129 49.4477 28.2858 49.6302 28.6388L49.9655 28.4653C49.7481 28.045 49.4279 27.7179 49.0091 27.4868L48.8267 27.8173ZM49.6302 28.6388C49.8141 28.9942 49.9091 29.4135 49.9091 29.902H50.2866C50.2866 29.3639 50.1817 28.8832 49.9655 28.4653L49.6302 28.6388ZM49.9091 29.902C49.9091 30.4719 49.7239 31.0428 49.3408 31.6173L49.6549 31.8267C50.0719 31.2013 50.2866 30.5588 50.2866 29.902H49.9091ZM49.3414 31.6165C48.9555 32.1889 48.4284 32.7239 47.7558 33.2201L47.98 33.5239C48.6807 33.0068 49.2403 32.4418 49.6544 31.8275L49.3414 31.6165ZM47.7945 33.5459C48.1026 33.676 48.4146 33.7823 48.7302 33.8647L48.8255 33.4994C48.5279 33.4217 48.2332 33.3214 47.9413 33.1981L47.7945 33.5459ZM48.7349 33.8658C49.0591 33.9417 49.3807 33.9867 49.6997 34.0006L49.7161 33.6235C49.4217 33.6107 49.1234 33.569 48.8209 33.4982L48.7349 33.8658ZM49.5191 33.812V34.592H49.8966V33.812H49.5191Z" fill="#FEF5EB" mask="url(#path-5-outside-1_23632_22747)"/>
</g>
</g>
<defs>
<linearGradient id="paint0_linear_23632_22747" x1="34" y1="-1.04141e-05" x2="34" y2="68" gradientUnits="userSpaceOnUse">
<stop stop-color="#C93D34"/>
<stop offset="1" stop-color="#7A2629"/>
</linearGradient>
<linearGradient id="paint1_linear_23632_22747" x1="34" y1="-1.04141e-05" x2="34" y2="68" gradientUnits="userSpaceOnUse">
<stop stop-color="#C93D34"/>
<stop offset="1" stop-color="#7A2629"/>
</linearGradient>
<clipPath id="clip0_23632_22747">
<rect width="68" height="68" fill="white"/>
</clipPath>
</defs>
</svg>
