<svg width="68" height="68" viewBox="0 0 68 68" fill="none" xmlns="http://www.w3.org/2000/svg">
<g clip-path="url(#clip0_23632_22567)">
<mask id="mask0_23632_22567" style="mask-type:alpha" maskUnits="userSpaceOnUse" x="0" y="0" width="68" height="68">
<path fill-rule="evenodd" clip-rule="evenodd" d="M47.0333 0H20.9667C13.5811 0 8.89667 0.0377779 4.45778 4.45778C0.018889 8.89667 0 13.6 0 20.9667V47.0333C0 54.4189 0.0377779 59.1033 4.45778 63.5422C8.89667 67.9811 13.6 68 20.9667 68H47.0333C54.4189 68 59.1033 67.9811 63.5422 63.5422C67.9622 59.1033 68 54.4 68 47.0333V20.9667C68 13.5811 67.9622 8.89667 63.5422 4.45778C59.1033 0.018889 54.4 0 47.0333 0Z" fill="url(#paint0_linear_23632_22567)"/>
</mask>
<g mask="url(#mask0_23632_22567)">
<rect width="68" height="68" fill="url(#paint1_linear_23632_22567)"/>
<path fill-rule="evenodd" clip-rule="evenodd" d="M15.6212 64.3732C26.4256 64.3732 45.6357 64.3732 45.6357 64.3732C52.5868 64.3732 57.0823 64.6377 61.2379 60.4443C64.8079 56.8743 64.5057 50.8677 64.7323 46.1077C60.709 52.1521 53.3234 51.9443 47.619 51.9443C47.619 51.9443 20.929 51.9443 10.9556 51.9443C0.982316 51.9632 4.81676 64.3732 15.6212 64.3732Z" fill="#FEF5EB"/>
<path d="M12.4854 53.531H23.1387V61.521L17.812 58.8577L12.4854 61.521V53.531Z" fill="#F19C33"/>
<mask id="path-5-outside-1_23632_22567" maskUnits="userSpaceOnUse" x="13.1016" y="12.2266" width="42" height="26" fill="black">
<rect fill="white" x="13.1016" y="12.2266" width="42" height="26"/>
<path d="M21.3052 22.0593C21.4685 22.2995 21.6462 22.4916 21.8384 22.6357C22.0401 22.7702 22.2851 22.8711 22.5733 22.9384V23.2266C22.1122 23.1977 21.5358 23.1833 20.8441 23.1833C20.3253 23.1833 19.8306 23.1977 19.3598 23.2266V22.9384C19.5904 22.9288 19.7585 22.8999 19.8642 22.8519C19.9699 22.8039 20.0227 22.7318 20.0227 22.6357C20.0227 22.5397 19.9747 22.4244 19.8786 22.2899L17.7747 19.1197C17.4961 18.697 17.2608 18.4232 17.0686 18.2983C16.8765 18.1638 16.6075 18.0869 16.2616 18.0677V21.6991C16.2616 22.0641 16.2905 22.3283 16.3481 22.4916C16.4057 22.655 16.5114 22.7654 16.6651 22.8231C16.8284 22.8807 17.083 22.9191 17.4289 22.9384V23.2266C16.987 23.1977 16.3769 23.1833 15.5988 23.1833C14.7726 23.1833 14.1578 23.1977 13.7543 23.2266V22.9384C14.1001 22.9191 14.3499 22.8807 14.5036 22.8231C14.6669 22.7654 14.7774 22.655 14.835 22.4916C14.8927 22.3283 14.9215 22.0641 14.9215 21.6991V14.5516C14.9215 14.1866 14.8927 13.9224 14.835 13.7591C14.7774 13.5958 14.6669 13.4853 14.5036 13.4277C14.3499 13.37 14.1001 13.3316 13.7543 13.3124V13.0242C14.1578 13.053 14.7726 13.0674 15.5988 13.0674C16.3673 13.0674 16.9774 13.053 17.4289 13.0242V13.3124C17.083 13.3316 16.8284 13.37 16.6651 13.4277C16.5114 13.4853 16.4057 13.5958 16.3481 13.7591C16.2905 13.9224 16.2616 14.1866 16.2616 14.5516V17.7795C16.9629 17.7507 17.5105 17.4817 17.9044 16.9726L19.2878 15.2145C19.7777 14.6093 20.0227 14.1482 20.0227 13.8311C20.0227 13.4949 19.7249 13.322 19.1293 13.3124V13.0242C19.6769 13.053 20.2292 13.0674 20.7864 13.0674C21.3148 13.0674 21.7231 13.053 22.0113 13.0242V13.3124C21.6943 13.3604 21.3965 13.4661 21.1179 13.6294C20.8393 13.7831 20.5703 14.0281 20.3109 14.3643L17.962 17.376L21.3052 22.0593ZM27.1371 13.3124C26.7912 13.3316 26.5367 13.37 26.3733 13.4277C26.2196 13.4853 26.114 13.5958 26.0563 13.7591C25.9987 13.9224 25.9699 14.1866 25.9699 14.5516V21.6991C25.9699 22.0641 25.9987 22.3283 26.0563 22.4916C26.114 22.655 26.2196 22.7654 26.3733 22.8231C26.5367 22.8807 26.7912 22.9191 27.1371 22.9384V23.2266C26.6952 23.1977 26.0851 23.1833 25.307 23.1833C24.4808 23.1833 23.866 23.1977 23.4625 23.2266V22.9384C23.8083 22.9191 24.0581 22.8807 24.2118 22.8231C24.3751 22.7654 24.4856 22.655 24.5433 22.4916C24.6009 22.3283 24.6297 22.0641 24.6297 21.6991V14.5516C24.6297 14.1866 24.6009 13.9224 24.5433 13.7591C24.4856 13.5958 24.3751 13.4853 24.2118 13.4277C24.0581 13.37 23.8083 13.3316 23.4625 13.3124V13.0242C23.866 13.053 24.4808 13.0674 25.307 13.0674C26.0755 13.0674 26.6856 13.053 27.1371 13.0242V13.3124ZM36.5368 13.0242C36.4696 13.7063 36.436 14.3211 36.436 14.8687C36.436 15.349 36.4504 15.7429 36.4792 16.0503H36.1478C36.0709 15.3106 35.9748 14.763 35.8596 14.4075C35.7443 14.0425 35.5425 13.7783 35.2543 13.615C34.9661 13.4421 34.5242 13.3556 33.9286 13.3556H33.1505V21.555C33.1505 21.9585 33.1889 22.2515 33.2657 22.434C33.3426 22.6165 33.4771 22.7414 33.6692 22.8087C33.8614 22.8759 34.1736 22.9191 34.6059 22.9384V23.2266C34.1063 23.1977 33.4002 23.1833 32.4876 23.1833C31.5269 23.1833 30.816 23.1977 30.3549 23.2266V22.9384C30.7872 22.9191 31.0994 22.8759 31.2915 22.8087C31.4837 22.7414 31.6182 22.6165 31.695 22.434C31.7719 22.2515 31.8103 21.9585 31.8103 21.555V13.3556H31.0322C30.4365 13.3556 29.9946 13.4421 29.7064 13.615C29.4182 13.7783 29.2165 14.0425 29.1012 14.4075C28.9859 14.763 28.8898 15.3106 28.813 16.0503H28.4816C28.5104 15.7429 28.5248 15.349 28.5248 14.8687C28.5248 14.3211 28.4912 13.7063 28.4239 13.0242C29.2213 13.053 30.5758 13.0674 32.4876 13.0674C34.3897 13.0674 35.7395 13.053 36.5368 13.0242ZM44.7168 22.0161C44.9474 22.6117 45.2788 22.9191 45.7111 22.9384V23.2266C45.3268 23.1977 44.8129 23.1833 44.1692 23.1833C43.343 23.1833 42.7282 23.1977 42.3247 23.2266V22.9384C42.6898 22.9191 42.9491 22.8759 43.1029 22.8087C43.2662 22.7318 43.3478 22.5973 43.3478 22.4052C43.3478 22.2419 43.2902 22.0161 43.1749 21.7279L42.2959 19.3646H38.8086L38.2178 20.8921C38.0257 21.4109 37.9296 21.8048 37.9296 22.0737C37.9296 22.3716 38.0305 22.5877 38.2322 22.7222C38.4436 22.8567 38.7606 22.9288 39.1833 22.9384V23.2266C38.6357 23.1977 38.0833 23.1833 37.5261 23.1833C37.0938 23.1833 36.7336 23.1977 36.4454 23.2266V22.9384C36.9257 22.8231 37.3052 22.4052 37.5838 21.6847L40.9702 12.9521H41.2007L44.7168 22.0161ZM42.1806 19.0764L40.5667 14.7678L38.9239 19.0764H42.1806ZM50.9965 17.8372C52.0533 17.9813 52.8074 18.2887 53.2589 18.7594C53.7104 19.2205 53.9362 19.7777 53.9362 20.431C53.9362 20.9786 53.7969 21.4637 53.5183 21.8864C53.2397 22.3091 52.841 22.6405 52.3222 22.8807C51.8035 23.1113 51.1887 23.2266 50.4777 23.2266C50.2184 23.2266 49.9974 23.2218 49.8149 23.2122C49.2 23.1929 48.5948 23.1833 47.9992 23.1833C47.2114 23.1833 46.6158 23.1977 46.2123 23.2266V22.9384C46.5582 22.9191 46.808 22.8807 46.9617 22.8231C47.125 22.7654 47.2355 22.655 47.2931 22.4916C47.3507 22.3283 47.3796 22.0641 47.3796 21.6991V14.5516C47.3796 14.1866 47.3507 13.9224 47.2931 13.7591C47.2355 13.5958 47.125 13.4853 46.9617 13.4277C46.808 13.37 46.5582 13.3316 46.2123 13.3124V13.0242C46.6158 13.053 47.2018 13.0674 47.9704 13.0674L49.5267 13.053C49.7092 13.0434 49.9158 13.0386 50.1463 13.0386C51.1262 13.0386 51.8755 13.2451 52.3943 13.6582C52.9227 14.0713 53.1869 14.6189 53.1869 15.301C53.1869 15.8582 53.0091 16.3577 52.6537 16.7996C52.3078 17.2415 51.7555 17.5778 50.9965 17.8083V17.8372ZM49.7861 13.3124C49.4883 13.3124 49.2625 13.346 49.1088 13.4132C48.9647 13.4805 48.8638 13.6006 48.8062 13.7735C48.7485 13.9464 48.7197 14.2058 48.7197 14.5516V17.8083H49.6852C50.4729 17.8083 51.0205 17.597 51.3279 17.1743C51.645 16.742 51.8035 16.1704 51.8035 15.4595C51.8035 14.739 51.645 14.201 51.3279 13.8456C51.0109 13.4901 50.497 13.3124 49.7861 13.3124ZM49.8005 22.8951C51.5969 22.8951 52.4952 22.0545 52.4952 20.3734C52.4952 19.6144 52.2886 19.038 51.8755 18.6441C51.4721 18.2503 50.8236 18.0533 49.9302 18.0533H48.7197V21.6991C48.7197 22.0449 48.7485 22.2995 48.8062 22.4628C48.8638 22.6261 48.9647 22.7414 49.1088 22.8087C49.2625 22.8663 49.4931 22.8951 49.8005 22.8951ZM21.1284 26.8657C21.5511 26.8657 21.8825 26.9137 22.1227 27.0098C22.3725 27.0962 22.627 27.2259 22.8864 27.3988C23.0978 27.5333 23.2611 27.6006 23.3764 27.6006C23.4628 27.6006 23.5301 27.5525 23.5781 27.4565C23.6262 27.3508 23.6646 27.1875 23.6934 26.9665H24.0248C23.9768 27.5237 23.9528 28.5036 23.9528 29.9062H23.6213C23.5637 29.1281 23.3379 28.4748 22.9441 27.9464C22.5598 27.4084 21.9978 27.1395 21.2581 27.1395C20.7393 27.1395 20.3166 27.298 19.99 27.615C19.6634 27.9224 19.5 28.3211 19.5 28.811C19.5 29.1761 19.5817 29.4931 19.745 29.7621C19.9179 30.0311 20.1341 30.2617 20.3935 30.4538C20.6529 30.6459 21.0227 30.8909 21.5031 31.1887L21.9209 31.4481C22.5262 31.8228 23.0017 32.1542 23.3476 32.4424C23.703 32.721 23.9864 33.0428 24.1978 33.4079C24.4091 33.7729 24.5148 34.2004 24.5148 34.6904C24.5148 35.5646 24.2266 36.2419 23.6502 36.7222C23.0738 37.1929 22.3436 37.4283 21.4598 37.4283C20.9987 37.4283 20.6192 37.3803 20.3214 37.2842C20.0332 37.1881 19.7546 37.0584 19.4856 36.8951C19.2743 36.7606 19.111 36.6934 18.9957 36.6934C18.9092 36.6934 18.842 36.7462 18.7939 36.8519C18.7459 36.948 18.7075 37.1065 18.6787 37.3274H18.3472C18.3857 36.7991 18.4049 35.6462 18.4049 33.869H18.7363C18.8036 34.8393 19.0437 35.627 19.4568 36.2323C19.8699 36.8375 20.504 37.1401 21.359 37.1401C21.8777 37.1401 22.3196 36.9816 22.6847 36.6646C23.0497 36.3379 23.2323 35.8576 23.2323 35.2236C23.2323 34.6856 23.0497 34.2292 22.6847 33.8546C22.3292 33.4799 21.7624 33.0572 20.9843 32.5865C20.4175 32.2406 19.9564 31.9332 19.6009 31.6642C19.2551 31.3953 18.9717 31.0734 18.7507 30.6988C18.5298 30.3145 18.4193 29.8678 18.4193 29.3586C18.4193 28.5516 18.6787 27.9368 19.1974 27.5141C19.7162 27.0818 20.3598 26.8657 21.1284 26.8657ZM34.9257 27.3124C34.5895 27.3316 34.3397 27.3844 34.1764 27.4709C34.0131 27.5477 33.9026 27.6822 33.845 27.8744C33.7873 28.0569 33.7585 28.3307 33.7585 28.6957V33.0332C33.7585 33.7249 33.7105 34.3205 33.6144 34.8201C33.5279 35.31 33.379 35.7327 33.1677 36.0882C32.9275 36.5013 32.5721 36.8279 32.1013 37.0681C31.6402 37.3082 31.1166 37.4283 30.5306 37.4283C29.4739 37.4283 28.6669 37.1689 28.1097 36.6502C27.687 36.2563 27.4036 35.8096 27.2595 35.31C27.1154 34.8105 27.0434 34.0659 27.0434 33.0764V28.5516C27.0434 28.1866 27.0145 27.9224 26.9569 27.7591C26.8993 27.5958 26.7888 27.4853 26.6255 27.4277C26.4718 27.37 26.222 27.3316 25.8761 27.3124V27.0242C26.2796 27.053 26.8945 27.0674 27.7206 27.0674C28.4988 27.0674 29.1088 27.053 29.5507 27.0242V27.3124C29.2049 27.3316 28.9503 27.37 28.787 27.4277C28.6333 27.4853 28.5276 27.5958 28.47 27.7591C28.4123 27.9224 28.3835 28.1866 28.3835 28.5516V33.3214C28.3835 34.09 28.4363 34.7288 28.542 35.238C28.6477 35.7471 28.8638 36.1554 29.1905 36.4628C29.5267 36.7702 30.0167 36.9239 30.6603 36.9239C31.6786 36.9239 32.3943 36.5973 32.8074 35.9441C33.2205 35.2908 33.4271 34.3734 33.4271 33.1917V28.6957C33.4271 28.177 33.331 27.8215 33.1389 27.6294C32.9563 27.4373 32.6153 27.3316 32.1157 27.3124V27.0242C32.4616 27.053 32.9515 27.0674 33.5856 27.0674C34.162 27.0674 34.6087 27.053 34.9257 27.0242V27.3124ZM40.837 26.8224C41.4134 26.8224 41.9033 26.9041 42.3068 27.0674C42.7103 27.2307 43.1042 27.4613 43.4884 27.7591C43.5941 27.8456 43.6854 27.8888 43.7622 27.8888C43.9544 27.8888 44.0793 27.6006 44.1369 27.0242H44.4683C44.4299 27.6486 44.4107 28.7534 44.4107 30.3385H44.0793C43.9736 29.7141 43.8775 29.2674 43.7911 28.9984C43.7046 28.7198 43.5605 28.4556 43.3587 28.2058C43.0705 27.8311 42.7007 27.5525 42.2492 27.37C41.8073 27.1779 41.3269 27.0818 40.8081 27.0818C40.1837 27.0818 39.6361 27.2884 39.1654 27.7014C38.7043 28.1145 38.344 28.7054 38.0846 29.4739C37.8252 30.2328 37.6956 31.1263 37.6956 32.1542C37.6956 33.2013 37.8349 34.0996 38.1134 34.8489C38.392 35.5982 38.7763 36.1698 39.2663 36.5637C39.7658 36.948 40.3278 37.1401 40.9523 37.1401C41.4326 37.1401 41.8985 37.0488 42.35 36.8663C42.8016 36.6838 43.157 36.41 43.4164 36.0449C43.6085 35.7759 43.7478 35.4877 43.8343 35.1803C43.9207 34.8729 44.0024 34.4022 44.0793 33.7681H44.4107C44.4107 35.4205 44.4299 36.5733 44.4683 37.2266H44.1369C44.1081 36.9191 44.0648 36.703 44.0072 36.5781C43.9592 36.4436 43.8871 36.3764 43.7911 36.3764C43.7142 36.3764 43.6133 36.4148 43.4884 36.4916C43.0561 36.7991 42.643 37.0344 42.2492 37.1977C41.8553 37.3515 41.3798 37.4283 40.8226 37.4283C39.9099 37.4283 39.1078 37.2218 38.4161 36.8087C37.734 36.3956 37.2008 35.8 36.8165 35.0218C36.4419 34.2341 36.2545 33.2974 36.2545 32.2118C36.2545 31.1551 36.4467 30.2184 36.8309 29.4018C37.2248 28.5853 37.7676 27.9512 38.4593 27.4997C39.1606 27.0482 39.9531 26.8224 40.837 26.8224ZM49.9573 27.3124C49.6115 27.3316 49.3569 27.37 49.1936 27.4277C49.0399 27.4853 48.9342 27.5958 48.8765 27.7591C48.8189 27.9224 48.7901 28.1866 48.7901 28.5516V35.6991C48.7901 36.0641 48.8189 36.3283 48.8765 36.4916C48.9342 36.655 49.0399 36.7654 49.1936 36.8231C49.3569 36.8807 49.6115 36.9191 49.9573 36.9384V37.2266C49.5154 37.1977 48.9054 37.1833 48.1272 37.1833C47.301 37.1833 46.6862 37.1977 46.2827 37.2266V36.9384C46.6286 36.9191 46.8783 36.8807 47.032 36.8231C47.1954 36.7654 47.3058 36.655 47.3635 36.4916C47.4211 36.3283 47.4499 36.0641 47.4499 35.6991V28.5516C47.4499 28.1866 47.4211 27.9224 47.3635 27.7591C47.3058 27.5958 47.1954 27.4853 47.032 27.4277C46.8783 27.37 46.6286 27.3316 46.2827 27.3124V27.0242C46.6862 27.053 47.301 27.0674 48.1272 27.0674C48.8958 27.0674 49.5058 27.053 49.9573 27.0242V27.3124Z"/>
</mask>
<path d="M21.3052 22.0593C21.4685 22.2995 21.6462 22.4916 21.8384 22.6357C22.0401 22.7702 22.2851 22.8711 22.5733 22.9384V23.2266C22.1122 23.1977 21.5358 23.1833 20.8441 23.1833C20.3253 23.1833 19.8306 23.1977 19.3598 23.2266V22.9384C19.5904 22.9288 19.7585 22.8999 19.8642 22.8519C19.9699 22.8039 20.0227 22.7318 20.0227 22.6357C20.0227 22.5397 19.9747 22.4244 19.8786 22.2899L17.7747 19.1197C17.4961 18.697 17.2608 18.4232 17.0686 18.2983C16.8765 18.1638 16.6075 18.0869 16.2616 18.0677V21.6991C16.2616 22.0641 16.2905 22.3283 16.3481 22.4916C16.4057 22.655 16.5114 22.7654 16.6651 22.8231C16.8284 22.8807 17.083 22.9191 17.4289 22.9384V23.2266C16.987 23.1977 16.3769 23.1833 15.5988 23.1833C14.7726 23.1833 14.1578 23.1977 13.7543 23.2266V22.9384C14.1001 22.9191 14.3499 22.8807 14.5036 22.8231C14.6669 22.7654 14.7774 22.655 14.835 22.4916C14.8927 22.3283 14.9215 22.0641 14.9215 21.6991V14.5516C14.9215 14.1866 14.8927 13.9224 14.835 13.7591C14.7774 13.5958 14.6669 13.4853 14.5036 13.4277C14.3499 13.37 14.1001 13.3316 13.7543 13.3124V13.0242C14.1578 13.053 14.7726 13.0674 15.5988 13.0674C16.3673 13.0674 16.9774 13.053 17.4289 13.0242V13.3124C17.083 13.3316 16.8284 13.37 16.6651 13.4277C16.5114 13.4853 16.4057 13.5958 16.3481 13.7591C16.2905 13.9224 16.2616 14.1866 16.2616 14.5516V17.7795C16.9629 17.7507 17.5105 17.4817 17.9044 16.9726L19.2878 15.2145C19.7777 14.6093 20.0227 14.1482 20.0227 13.8311C20.0227 13.4949 19.7249 13.322 19.1293 13.3124V13.0242C19.6769 13.053 20.2292 13.0674 20.7864 13.0674C21.3148 13.0674 21.7231 13.053 22.0113 13.0242V13.3124C21.6943 13.3604 21.3965 13.4661 21.1179 13.6294C20.8393 13.7831 20.5703 14.0281 20.3109 14.3643L17.962 17.376L21.3052 22.0593ZM27.1371 13.3124C26.7912 13.3316 26.5367 13.37 26.3733 13.4277C26.2196 13.4853 26.114 13.5958 26.0563 13.7591C25.9987 13.9224 25.9699 14.1866 25.9699 14.5516V21.6991C25.9699 22.0641 25.9987 22.3283 26.0563 22.4916C26.114 22.655 26.2196 22.7654 26.3733 22.8231C26.5367 22.8807 26.7912 22.9191 27.1371 22.9384V23.2266C26.6952 23.1977 26.0851 23.1833 25.307 23.1833C24.4808 23.1833 23.866 23.1977 23.4625 23.2266V22.9384C23.8083 22.9191 24.0581 22.8807 24.2118 22.8231C24.3751 22.7654 24.4856 22.655 24.5433 22.4916C24.6009 22.3283 24.6297 22.0641 24.6297 21.6991V14.5516C24.6297 14.1866 24.6009 13.9224 24.5433 13.7591C24.4856 13.5958 24.3751 13.4853 24.2118 13.4277C24.0581 13.37 23.8083 13.3316 23.4625 13.3124V13.0242C23.866 13.053 24.4808 13.0674 25.307 13.0674C26.0755 13.0674 26.6856 13.053 27.1371 13.0242V13.3124ZM36.5368 13.0242C36.4696 13.7063 36.436 14.3211 36.436 14.8687C36.436 15.349 36.4504 15.7429 36.4792 16.0503H36.1478C36.0709 15.3106 35.9748 14.763 35.8596 14.4075C35.7443 14.0425 35.5425 13.7783 35.2543 13.615C34.9661 13.4421 34.5242 13.3556 33.9286 13.3556H33.1505V21.555C33.1505 21.9585 33.1889 22.2515 33.2657 22.434C33.3426 22.6165 33.4771 22.7414 33.6692 22.8087C33.8614 22.8759 34.1736 22.9191 34.6059 22.9384V23.2266C34.1063 23.1977 33.4002 23.1833 32.4876 23.1833C31.5269 23.1833 30.816 23.1977 30.3549 23.2266V22.9384C30.7872 22.9191 31.0994 22.8759 31.2915 22.8087C31.4837 22.7414 31.6182 22.6165 31.695 22.434C31.7719 22.2515 31.8103 21.9585 31.8103 21.555V13.3556H31.0322C30.4365 13.3556 29.9946 13.4421 29.7064 13.615C29.4182 13.7783 29.2165 14.0425 29.1012 14.4075C28.9859 14.763 28.8898 15.3106 28.813 16.0503H28.4816C28.5104 15.7429 28.5248 15.349 28.5248 14.8687C28.5248 14.3211 28.4912 13.7063 28.4239 13.0242C29.2213 13.053 30.5758 13.0674 32.4876 13.0674C34.3897 13.0674 35.7395 13.053 36.5368 13.0242ZM44.7168 22.0161C44.9474 22.6117 45.2788 22.9191 45.7111 22.9384V23.2266C45.3268 23.1977 44.8129 23.1833 44.1692 23.1833C43.343 23.1833 42.7282 23.1977 42.3247 23.2266V22.9384C42.6898 22.9191 42.9491 22.8759 43.1029 22.8087C43.2662 22.7318 43.3478 22.5973 43.3478 22.4052C43.3478 22.2419 43.2902 22.0161 43.1749 21.7279L42.2959 19.3646H38.8086L38.2178 20.8921C38.0257 21.4109 37.9296 21.8048 37.9296 22.0737C37.9296 22.3716 38.0305 22.5877 38.2322 22.7222C38.4436 22.8567 38.7606 22.9288 39.1833 22.9384V23.2266C38.6357 23.1977 38.0833 23.1833 37.5261 23.1833C37.0938 23.1833 36.7336 23.1977 36.4454 23.2266V22.9384C36.9257 22.8231 37.3052 22.4052 37.5838 21.6847L40.9702 12.9521H41.2007L44.7168 22.0161ZM42.1806 19.0764L40.5667 14.7678L38.9239 19.0764H42.1806ZM50.9965 17.8372C52.0533 17.9813 52.8074 18.2887 53.2589 18.7594C53.7104 19.2205 53.9362 19.7777 53.9362 20.431C53.9362 20.9786 53.7969 21.4637 53.5183 21.8864C53.2397 22.3091 52.841 22.6405 52.3222 22.8807C51.8035 23.1113 51.1887 23.2266 50.4777 23.2266C50.2184 23.2266 49.9974 23.2218 49.8149 23.2122C49.2 23.1929 48.5948 23.1833 47.9992 23.1833C47.2114 23.1833 46.6158 23.1977 46.2123 23.2266V22.9384C46.5582 22.9191 46.808 22.8807 46.9617 22.8231C47.125 22.7654 47.2355 22.655 47.2931 22.4916C47.3507 22.3283 47.3796 22.0641 47.3796 21.6991V14.5516C47.3796 14.1866 47.3507 13.9224 47.2931 13.7591C47.2355 13.5958 47.125 13.4853 46.9617 13.4277C46.808 13.37 46.5582 13.3316 46.2123 13.3124V13.0242C46.6158 13.053 47.2018 13.0674 47.9704 13.0674L49.5267 13.053C49.7092 13.0434 49.9158 13.0386 50.1463 13.0386C51.1262 13.0386 51.8755 13.2451 52.3943 13.6582C52.9227 14.0713 53.1869 14.6189 53.1869 15.301C53.1869 15.8582 53.0091 16.3577 52.6537 16.7996C52.3078 17.2415 51.7555 17.5778 50.9965 17.8083V17.8372ZM49.7861 13.3124C49.4883 13.3124 49.2625 13.346 49.1088 13.4132C48.9647 13.4805 48.8638 13.6006 48.8062 13.7735C48.7485 13.9464 48.7197 14.2058 48.7197 14.5516V17.8083H49.6852C50.4729 17.8083 51.0205 17.597 51.3279 17.1743C51.645 16.742 51.8035 16.1704 51.8035 15.4595C51.8035 14.739 51.645 14.201 51.3279 13.8456C51.0109 13.4901 50.497 13.3124 49.7861 13.3124ZM49.8005 22.8951C51.5969 22.8951 52.4952 22.0545 52.4952 20.3734C52.4952 19.6144 52.2886 19.038 51.8755 18.6441C51.4721 18.2503 50.8236 18.0533 49.9302 18.0533H48.7197V21.6991C48.7197 22.0449 48.7485 22.2995 48.8062 22.4628C48.8638 22.6261 48.9647 22.7414 49.1088 22.8087C49.2625 22.8663 49.4931 22.8951 49.8005 22.8951ZM21.1284 26.8657C21.5511 26.8657 21.8825 26.9137 22.1227 27.0098C22.3725 27.0962 22.627 27.2259 22.8864 27.3988C23.0978 27.5333 23.2611 27.6006 23.3764 27.6006C23.4628 27.6006 23.5301 27.5525 23.5781 27.4565C23.6262 27.3508 23.6646 27.1875 23.6934 26.9665H24.0248C23.9768 27.5237 23.9528 28.5036 23.9528 29.9062H23.6213C23.5637 29.1281 23.3379 28.4748 22.9441 27.9464C22.5598 27.4084 21.9978 27.1395 21.2581 27.1395C20.7393 27.1395 20.3166 27.298 19.99 27.615C19.6634 27.9224 19.5 28.3211 19.5 28.811C19.5 29.1761 19.5817 29.4931 19.745 29.7621C19.9179 30.0311 20.1341 30.2617 20.3935 30.4538C20.6529 30.6459 21.0227 30.8909 21.5031 31.1887L21.9209 31.4481C22.5262 31.8228 23.0017 32.1542 23.3476 32.4424C23.703 32.721 23.9864 33.0428 24.1978 33.4079C24.4091 33.7729 24.5148 34.2004 24.5148 34.6904C24.5148 35.5646 24.2266 36.2419 23.6502 36.7222C23.0738 37.1929 22.3436 37.4283 21.4598 37.4283C20.9987 37.4283 20.6192 37.3803 20.3214 37.2842C20.0332 37.1881 19.7546 37.0584 19.4856 36.8951C19.2743 36.7606 19.111 36.6934 18.9957 36.6934C18.9092 36.6934 18.842 36.7462 18.7939 36.8519C18.7459 36.948 18.7075 37.1065 18.6787 37.3274H18.3472C18.3857 36.7991 18.4049 35.6462 18.4049 33.869H18.7363C18.8036 34.8393 19.0437 35.627 19.4568 36.2323C19.8699 36.8375 20.504 37.1401 21.359 37.1401C21.8777 37.1401 22.3196 36.9816 22.6847 36.6646C23.0497 36.3379 23.2323 35.8576 23.2323 35.2236C23.2323 34.6856 23.0497 34.2292 22.6847 33.8546C22.3292 33.4799 21.7624 33.0572 20.9843 32.5865C20.4175 32.2406 19.9564 31.9332 19.6009 31.6642C19.2551 31.3953 18.9717 31.0734 18.7507 30.6988C18.5298 30.3145 18.4193 29.8678 18.4193 29.3586C18.4193 28.5516 18.6787 27.9368 19.1974 27.5141C19.7162 27.0818 20.3598 26.8657 21.1284 26.8657ZM34.9257 27.3124C34.5895 27.3316 34.3397 27.3844 34.1764 27.4709C34.0131 27.5477 33.9026 27.6822 33.845 27.8744C33.7873 28.0569 33.7585 28.3307 33.7585 28.6957V33.0332C33.7585 33.7249 33.7105 34.3205 33.6144 34.8201C33.5279 35.31 33.379 35.7327 33.1677 36.0882C32.9275 36.5013 32.5721 36.8279 32.1013 37.0681C31.6402 37.3082 31.1166 37.4283 30.5306 37.4283C29.4739 37.4283 28.6669 37.1689 28.1097 36.6502C27.687 36.2563 27.4036 35.8096 27.2595 35.31C27.1154 34.8105 27.0434 34.0659 27.0434 33.0764V28.5516C27.0434 28.1866 27.0145 27.9224 26.9569 27.7591C26.8993 27.5958 26.7888 27.4853 26.6255 27.4277C26.4718 27.37 26.222 27.3316 25.8761 27.3124V27.0242C26.2796 27.053 26.8945 27.0674 27.7206 27.0674C28.4988 27.0674 29.1088 27.053 29.5507 27.0242V27.3124C29.2049 27.3316 28.9503 27.37 28.787 27.4277C28.6333 27.4853 28.5276 27.5958 28.47 27.7591C28.4123 27.9224 28.3835 28.1866 28.3835 28.5516V33.3214C28.3835 34.09 28.4363 34.7288 28.542 35.238C28.6477 35.7471 28.8638 36.1554 29.1905 36.4628C29.5267 36.7702 30.0167 36.9239 30.6603 36.9239C31.6786 36.9239 32.3943 36.5973 32.8074 35.9441C33.2205 35.2908 33.4271 34.3734 33.4271 33.1917V28.6957C33.4271 28.177 33.331 27.8215 33.1389 27.6294C32.9563 27.4373 32.6153 27.3316 32.1157 27.3124V27.0242C32.4616 27.053 32.9515 27.0674 33.5856 27.0674C34.162 27.0674 34.6087 27.053 34.9257 27.0242V27.3124ZM40.837 26.8224C41.4134 26.8224 41.9033 26.9041 42.3068 27.0674C42.7103 27.2307 43.1042 27.4613 43.4884 27.7591C43.5941 27.8456 43.6854 27.8888 43.7622 27.8888C43.9544 27.8888 44.0793 27.6006 44.1369 27.0242H44.4683C44.4299 27.6486 44.4107 28.7534 44.4107 30.3385H44.0793C43.9736 29.7141 43.8775 29.2674 43.7911 28.9984C43.7046 28.7198 43.5605 28.4556 43.3587 28.2058C43.0705 27.8311 42.7007 27.5525 42.2492 27.37C41.8073 27.1779 41.3269 27.0818 40.8081 27.0818C40.1837 27.0818 39.6361 27.2884 39.1654 27.7014C38.7043 28.1145 38.344 28.7054 38.0846 29.4739C37.8252 30.2328 37.6956 31.1263 37.6956 32.1542C37.6956 33.2013 37.8349 34.0996 38.1134 34.8489C38.392 35.5982 38.7763 36.1698 39.2663 36.5637C39.7658 36.948 40.3278 37.1401 40.9523 37.1401C41.4326 37.1401 41.8985 37.0488 42.35 36.8663C42.8016 36.6838 43.157 36.41 43.4164 36.0449C43.6085 35.7759 43.7478 35.4877 43.8343 35.1803C43.9207 34.8729 44.0024 34.4022 44.0793 33.7681H44.4107C44.4107 35.4205 44.4299 36.5733 44.4683 37.2266H44.1369C44.1081 36.9191 44.0648 36.703 44.0072 36.5781C43.9592 36.4436 43.8871 36.3764 43.7911 36.3764C43.7142 36.3764 43.6133 36.4148 43.4884 36.4916C43.0561 36.7991 42.643 37.0344 42.2492 37.1977C41.8553 37.3515 41.3798 37.4283 40.8226 37.4283C39.9099 37.4283 39.1078 37.2218 38.4161 36.8087C37.734 36.3956 37.2008 35.8 36.8165 35.0218C36.4419 34.2341 36.2545 33.2974 36.2545 32.2118C36.2545 31.1551 36.4467 30.2184 36.8309 29.4018C37.2248 28.5853 37.7676 27.9512 38.4593 27.4997C39.1606 27.0482 39.9531 26.8224 40.837 26.8224ZM49.9573 27.3124C49.6115 27.3316 49.3569 27.37 49.1936 27.4277C49.0399 27.4853 48.9342 27.5958 48.8765 27.7591C48.8189 27.9224 48.7901 28.1866 48.7901 28.5516V35.6991C48.7901 36.0641 48.8189 36.3283 48.8765 36.4916C48.9342 36.655 49.0399 36.7654 49.1936 36.8231C49.3569 36.8807 49.6115 36.9191 49.9573 36.9384V37.2266C49.5154 37.1977 48.9054 37.1833 48.1272 37.1833C47.301 37.1833 46.6862 37.1977 46.2827 37.2266V36.9384C46.6286 36.9191 46.8783 36.8807 47.032 36.8231C47.1954 36.7654 47.3058 36.655 47.3635 36.4916C47.4211 36.3283 47.4499 36.0641 47.4499 35.6991V28.5516C47.4499 28.1866 47.4211 27.9224 47.3635 27.7591C47.3058 27.5958 47.1954 27.4853 47.032 27.4277C46.8783 27.37 46.6286 27.3316 46.2827 27.3124V27.0242C46.6862 27.053 47.301 27.0674 48.1272 27.0674C48.8958 27.0674 49.5058 27.053 49.9573 27.0242V27.3124Z" fill="#FEF5EB"/>
<path d="M21.3052 22.0593L21.4729 21.9453L21.4702 21.9415L21.3052 22.0593ZM21.8384 22.6357L21.7165 22.7982L21.7259 22.8044L21.8384 22.6357ZM22.5733 22.9384H22.776V22.7775L22.6194 22.7409L22.5733 22.9384ZM22.5733 23.2266L22.5606 23.4289L22.776 23.4424V23.2266H22.5733ZM19.3598 23.2266H19.1571V23.4421L19.3722 23.4289L19.3598 23.2266ZM19.3598 22.9384L19.3514 22.7358L19.1571 22.7439V22.9384H19.3598ZM19.8642 22.8519L19.9481 23.0365V23.0365L19.8642 22.8519ZM19.8786 22.2899L19.7096 22.4021L19.7136 22.4077L19.8786 22.2899ZM17.7747 19.1197L17.6054 19.2312L17.6058 19.2318L17.7747 19.1197ZM17.0686 18.2983L16.9523 18.4645L16.9581 18.4683L17.0686 18.2983ZM16.2616 18.0677L16.2729 17.8653L16.0589 17.8534V18.0677H16.2616ZM16.3481 22.4916L16.5393 22.4242V22.4242L16.3481 22.4916ZM16.6651 22.8231L16.5939 23.0129L16.5977 23.0143L16.6651 22.8231ZM17.4289 22.9384H17.6316V22.7466L17.4401 22.7359L17.4289 22.9384ZM17.4289 23.2266L17.4157 23.4289L17.6316 23.443V23.2266H17.4289ZM13.7543 23.2266H13.5515V23.4443L13.7687 23.4288L13.7543 23.2266ZM13.7543 22.9384L13.743 22.7359L13.5515 22.7466V22.9384H13.7543ZM14.5036 22.8231L14.4361 22.6319L14.4324 22.6332L14.5036 22.8231ZM14.835 13.7591L14.6439 13.8266V13.8266L14.835 13.7591ZM14.5036 13.4277L14.4324 13.6175L14.4361 13.6188L14.5036 13.4277ZM13.7543 13.3124H13.5515V13.5042L13.743 13.5148L13.7543 13.3124ZM13.7543 13.0242L13.7687 12.822L13.5515 12.8064V13.0242H13.7543ZM17.4289 13.0242H17.6316V12.8081L17.416 12.8218L17.4289 13.0242ZM17.4289 13.3124L17.4401 13.5148L17.6316 13.5042V13.3124H17.4289ZM16.6651 13.4277L16.5976 13.2364L16.5939 13.2378L16.6651 13.4277ZM16.3481 13.7591L16.5393 13.8266V13.8266L16.3481 13.7591ZM16.2616 17.7795H16.0589V17.9908L16.27 17.9821L16.2616 17.7795ZM17.9044 16.9726L17.7451 16.8472L17.744 16.8485L17.9044 16.9726ZM19.2878 15.2145L19.1302 15.0869L19.1285 15.0891L19.2878 15.2145ZM19.1293 13.3124H18.9265V13.5119L19.126 13.5151L19.1293 13.3124ZM19.1293 13.0242L19.1399 12.8217L18.9265 12.8105V13.0242H19.1293ZM22.0113 13.0242H22.214V12.8002L21.9911 12.8224L22.0113 13.0242ZM22.0113 13.3124L22.0417 13.5128L22.214 13.4867V13.3124H22.0113ZM21.1179 13.6294L21.2158 13.807L21.2204 13.8043L21.1179 13.6294ZM20.3109 14.3643L20.4708 14.489L20.4714 14.4881L20.3109 14.3643ZM17.962 17.376L17.8022 17.2514L17.7091 17.3707L17.797 17.4938L17.962 17.376ZM21.1376 22.1733C21.3109 22.4283 21.5034 22.6379 21.7167 22.7979L21.96 22.4736C21.7891 22.3453 21.6261 22.1708 21.4729 21.9453L21.1376 22.1733ZM21.7259 22.8044C21.9518 22.955 22.2204 23.0642 22.5272 23.1358L22.6194 22.7409C22.3498 22.678 22.1284 22.5855 21.9508 22.4671L21.7259 22.8044ZM22.3706 22.9384V23.2266H22.776V22.9384H22.3706ZM22.5859 23.0242C22.1191 22.995 21.5381 22.9806 20.8441 22.9806V23.3861C21.5334 23.3861 22.1052 23.4004 22.5606 23.4289L22.5859 23.0242ZM20.8441 22.9806C20.3216 22.9806 19.8227 22.9951 19.3474 23.0242L19.3722 23.4289C19.8384 23.4004 20.329 23.3861 20.8441 23.3861V22.9806ZM19.5626 23.2266V22.9384H19.1571V23.2266H19.5626ZM19.3683 23.1409C19.6043 23.1311 19.8052 23.1014 19.9481 23.0365L19.7803 22.6673C19.7118 22.6984 19.5765 22.7264 19.3514 22.7358L19.3683 23.1409ZM19.9481 23.0365C20.0233 23.0023 20.0943 22.9529 20.1466 22.8817C20.2004 22.8083 20.2254 22.7235 20.2254 22.6357H19.82C19.82 22.641 19.8193 22.6429 19.8194 22.6425C19.8195 22.642 19.8198 22.6416 19.8196 22.6419C19.819 22.6428 19.8107 22.6535 19.7803 22.6673L19.9481 23.0365ZM20.2254 22.6357C20.2254 22.4766 20.1484 22.3188 20.0436 22.1721L19.7136 22.4077C19.8009 22.53 19.82 22.6028 19.82 22.6357H20.2254ZM20.0475 22.1778L17.9436 19.0076L17.6058 19.2318L19.7097 22.402L20.0475 22.1778ZM17.944 19.0081C17.6642 18.5836 17.4094 18.278 17.1791 18.1283L16.9581 18.4683C17.1121 18.5684 17.328 18.8104 17.6054 19.2312L17.944 19.0081ZM17.1849 18.1322C16.9504 17.9681 16.6396 17.8857 16.2729 17.8653L16.2504 18.2702C16.5754 18.2882 16.8026 18.3595 16.9524 18.4644L17.1849 18.1322ZM16.0589 18.0677V21.6991H16.4644V18.0677H16.0589ZM16.0589 21.6991C16.0589 22.0674 16.0871 22.3612 16.1569 22.5591L16.5393 22.4242C16.4939 22.2955 16.4644 22.0609 16.4644 21.6991H16.0589ZM16.1569 22.5591C16.2333 22.7754 16.3807 22.9329 16.5939 23.0129L16.7363 22.6332C16.6422 22.5979 16.5782 22.5345 16.5393 22.4242L16.1569 22.5591ZM16.5977 23.0143C16.7893 23.0819 17.0677 23.1213 17.4176 23.1408L17.4401 22.7359C17.0983 22.7169 16.8676 22.6795 16.7326 22.6319L16.5977 23.0143ZM17.2261 22.9384V23.2266H17.6316V22.9384H17.2261ZM17.4421 23.0243C16.9937 22.995 16.3786 22.9806 15.5988 22.9806V23.3861C16.3753 23.3861 16.9802 23.4005 17.4157 23.4289L17.4421 23.0243ZM15.5988 22.9806C14.7717 22.9806 14.1509 22.995 13.7398 23.0243L13.7687 23.4288C14.1647 23.4005 14.7735 23.3861 15.5988 23.3861V22.9806ZM13.957 23.2266V22.9384H13.5515V23.2266H13.957ZM13.7655 23.1408C14.1144 23.1214 14.3904 23.0821 14.5748 23.0129L14.4324 22.6332C14.3094 22.6794 14.0859 22.7169 13.743 22.7359L13.7655 23.1408ZM14.5711 23.0143C14.7922 22.9362 14.9482 22.7803 15.0262 22.5591L14.6439 22.4242C14.6066 22.5297 14.5416 22.5947 14.4361 22.6319L14.5711 23.0143ZM15.0262 22.5591C15.0961 22.3612 15.1242 22.0674 15.1242 21.6991H14.7188C14.7188 22.0609 14.6893 22.2955 14.6439 22.4242L15.0262 22.5591ZM15.1242 21.6991V14.5516H14.7188V21.6991H15.1242ZM15.1242 14.5516C15.1242 14.1833 15.0961 13.8896 15.0262 13.6916L14.6439 13.8266C14.6893 13.9553 14.7188 14.1899 14.7188 14.5516H15.1242ZM15.0262 13.6916C14.9482 13.4705 14.7922 13.3145 14.5711 13.2365L14.4361 13.6188C14.5416 13.6561 14.6066 13.7211 14.6439 13.8266L15.0262 13.6916ZM14.5748 13.2378C14.3904 13.1687 14.1144 13.1293 13.7655 13.1099L13.743 13.5148C14.0859 13.5338 14.3094 13.5714 14.4324 13.6175L14.5748 13.2378ZM13.957 13.3124V13.0242H13.5515V13.3124H13.957ZM13.7398 13.2264C14.1509 13.2558 14.7717 13.2701 15.5988 13.2701V12.8647C14.7735 12.8647 14.1647 12.8502 13.7687 12.822L13.7398 13.2264ZM15.5988 13.2701C16.3691 13.2701 16.984 13.2557 17.4418 13.2265L17.416 12.8218C16.9707 12.8503 16.3655 12.8647 15.5988 12.8647V13.2701ZM17.2261 13.0242V13.3124H17.6316V13.0242H17.2261ZM17.4176 13.1099C17.0677 13.1294 16.7893 13.1688 16.5977 13.2365L16.7326 13.6188C16.8676 13.5712 17.0983 13.5338 17.4401 13.5148L17.4176 13.1099ZM16.5939 13.2378C16.3807 13.3178 16.2333 13.4753 16.1569 13.6916L16.5393 13.8266C16.5782 13.7162 16.6422 13.6528 16.7363 13.6175L16.5939 13.2378ZM16.1569 13.6916C16.0871 13.8896 16.0589 14.1833 16.0589 14.5516H16.4644C16.4644 14.1899 16.4939 13.9553 16.5393 13.8266L16.1569 13.6916ZM16.0589 14.5516V17.7795H16.4644V14.5516H16.0589ZM16.27 17.9821C17.0249 17.9511 17.6307 17.6577 18.0648 17.0966L17.744 16.8485C17.3904 17.3057 16.901 17.5503 16.2533 17.577L16.27 17.9821ZM18.0637 17.0979L19.4471 15.3399L19.1285 15.0891L17.7451 16.8472L18.0637 17.0979ZM19.4454 15.3421C19.6949 15.0338 19.8872 14.756 20.018 14.5099C20.1471 14.2668 20.2254 14.0377 20.2254 13.8311H19.82C19.82 13.9416 19.7758 14.1016 19.6599 14.3196C19.5457 14.5346 19.3706 14.79 19.1302 15.087L19.4454 15.3421ZM20.2254 13.8311C20.2254 13.5886 20.1107 13.3956 19.9011 13.2739C19.7077 13.1616 19.443 13.1147 19.1325 13.1097L19.126 13.5151C19.4112 13.5197 19.5931 13.564 19.6975 13.6246C19.7858 13.6759 19.82 13.7374 19.82 13.8311H20.2254ZM19.332 13.3124V13.0242H18.9265V13.3124H19.332ZM19.1186 13.2266C19.6698 13.2556 20.2257 13.2701 20.7864 13.2701V12.8647C20.2327 12.8647 19.6839 12.8503 19.1399 12.8217L19.1186 13.2266ZM20.7864 13.2701C21.317 13.2701 21.7332 13.2557 22.0315 13.2259L21.9911 12.8224C21.713 12.8503 21.3126 12.8647 20.7864 12.8647V13.2701ZM21.8086 13.0242V13.3124H22.214V13.0242H21.8086ZM21.9809 13.1119C21.6383 13.1638 21.316 13.2783 21.0153 13.4545L21.2204 13.8043C21.4769 13.6539 21.7503 13.557 22.0417 13.5128L21.9809 13.1119ZM21.0199 13.4519C20.7103 13.6227 20.4213 13.8892 20.1504 14.2405L20.4714 14.4881C20.7192 14.1669 20.9682 13.9435 21.2158 13.8069L21.0199 13.4519ZM20.151 14.2396L17.8022 17.2514L18.1219 17.5007L20.4708 14.489L20.151 14.2396ZM17.797 17.4938L21.1402 22.1771L21.4702 21.9415L18.1271 17.2582L17.797 17.4938ZM27.1371 13.3124L27.1483 13.5148L27.3398 13.5042V13.3124H27.1371ZM26.3734 13.4277L26.3059 13.2364L26.3022 13.2378L26.3734 13.4277ZM26.0563 13.7591L26.2475 13.8266V13.8266L26.0563 13.7591ZM26.0563 22.4916L26.2475 22.4242V22.4242L26.0563 22.4916ZM26.3734 22.8231L26.3022 23.0129L26.3059 23.0143L26.3734 22.8231ZM27.1371 22.9384H27.3398V22.7466L27.1483 22.7359L27.1371 22.9384ZM27.1371 23.2266L27.1239 23.4289L27.3398 23.443V23.2266H27.1371ZM23.4625 23.2266H23.2598V23.4443L23.4769 23.4288L23.4625 23.2266ZM23.4625 22.9384L23.4513 22.7359L23.2598 22.7466V22.9384H23.4625ZM24.2118 22.8231L24.1443 22.6319L24.1406 22.6332L24.2118 22.8231ZM24.5433 13.7591L24.3521 13.8266V13.8266L24.5433 13.7591ZM24.2118 13.4277L24.1406 13.6175L24.1444 13.6188L24.2118 13.4277ZM23.4625 13.3124H23.2598V13.5042L23.4513 13.5148L23.4625 13.3124ZM23.4625 13.0242L23.4769 12.822L23.2598 12.8064V13.0242H23.4625ZM27.1371 13.0242H27.3398V12.8081L27.1242 12.8218L27.1371 13.0242ZM27.1258 13.1099C26.7759 13.1294 26.4975 13.1688 26.3059 13.2365L26.4408 13.6188C26.5758 13.5712 26.8065 13.5338 27.1483 13.5148L27.1258 13.1099ZM26.3022 13.2378C26.0889 13.3178 25.9415 13.4753 25.8651 13.6916L26.2475 13.8266C26.2865 13.7162 26.3504 13.6528 26.4445 13.6175L26.3022 13.2378ZM25.8651 13.6916C25.7953 13.8896 25.7671 14.1833 25.7671 14.5516H26.1726C26.1726 14.1899 26.2021 13.9553 26.2475 13.8266L25.8651 13.6916ZM25.7671 14.5516V21.6991H26.1726V14.5516H25.7671ZM25.7671 21.6991C25.7671 22.0674 25.7953 22.3612 25.8651 22.5591L26.2475 22.4242C26.2021 22.2955 26.1726 22.0609 26.1726 21.6991H25.7671ZM25.8651 22.5591C25.9415 22.7754 26.0889 22.9329 26.3022 23.0129L26.4445 22.6332C26.3504 22.5979 26.2865 22.5345 26.2475 22.4242L25.8651 22.5591ZM26.3059 23.0143C26.4975 23.0819 26.7759 23.1213 27.1258 23.1408L27.1483 22.7359C26.8065 22.7169 26.5758 22.6795 26.4408 22.6319L26.3059 23.0143ZM26.9344 22.9384V23.2266H27.3398V22.9384H26.9344ZM27.1503 23.0243C26.7019 22.995 26.0868 22.9806 25.307 22.9806V23.3861C26.0835 23.3861 26.6885 23.4005 27.1239 23.4289L27.1503 23.0243ZM25.307 22.9806C24.4799 22.9806 23.8591 22.995 23.4481 23.0243L23.4769 23.4288C23.8729 23.4005 24.4818 23.3861 25.307 23.3861V22.9806ZM23.6652 23.2266V22.9384H23.2598V23.2266H23.6652ZM23.4737 23.1408C23.8226 23.1214 24.0986 23.0821 24.283 23.0129L24.1406 22.6332C24.0176 22.6794 23.7941 22.7169 23.4513 22.7359L23.4737 23.1408ZM24.2793 23.0143C24.5004 22.9362 24.6564 22.7803 24.7344 22.5591L24.3521 22.4242C24.3148 22.5297 24.2498 22.5947 24.1444 22.6319L24.2793 23.0143ZM24.7344 22.5591C24.8043 22.3612 24.8325 22.0674 24.8325 21.6991H24.427C24.427 22.0609 24.3975 22.2955 24.3521 22.4242L24.7344 22.5591ZM24.8325 21.6991V14.5516H24.427V21.6991H24.8325ZM24.8325 14.5516C24.8325 14.1833 24.8043 13.8896 24.7344 13.6916L24.3521 13.8266C24.3975 13.9553 24.427 14.1899 24.427 14.5516H24.8325ZM24.7344 13.6916C24.6564 13.4705 24.5004 13.3145 24.2793 13.2365L24.1444 13.6188C24.2498 13.6561 24.3148 13.7211 24.3521 13.8266L24.7344 13.6916ZM24.283 13.2378C24.0986 13.1687 23.8226 13.1293 23.4737 13.1099L23.4513 13.5148C23.7941 13.5338 24.0176 13.5714 24.1406 13.6175L24.283 13.2378ZM23.6652 13.3124V13.0242H23.2598V13.3124H23.6652ZM23.4481 13.2264C23.8591 13.2558 24.4799 13.2701 25.307 13.2701V12.8647C24.4818 12.8647 23.8729 12.8502 23.4769 12.822L23.4481 13.2264ZM25.307 13.2701C26.0773 13.2701 26.6922 13.2557 27.15 13.2265L27.1242 12.8218C26.6789 12.8503 26.0738 12.8647 25.307 12.8647V13.2701ZM26.9344 13.0242V13.3124H27.3398V13.0242H26.9344ZM36.5368 13.0242L36.7386 13.0441L36.7614 12.8132L36.5295 12.8216L36.5368 13.0242ZM36.4792 16.0503V16.253H36.7018L36.681 16.0314L36.4792 16.0503ZM36.1478 16.0503L35.9461 16.0713L35.965 16.253H36.1478V16.0503ZM35.8596 14.4075L35.6662 14.4686L35.6667 14.4701L35.8596 14.4075ZM35.2543 13.615L35.15 13.7889L35.1544 13.7914L35.2543 13.615ZM33.1505 13.3556V13.1529H32.9477V13.3556H33.1505ZM33.2657 22.434L33.0789 22.5127V22.5127L33.2657 22.434ZM33.6692 22.8087L33.6022 23V23L33.6692 22.8087ZM34.6059 22.9384H34.8086V22.7444L34.6149 22.7358L34.6059 22.9384ZM34.6059 23.2266L34.5942 23.429L34.8086 23.4413V23.2266H34.6059ZM30.3549 23.2266H30.1521V23.4424L30.3675 23.4289L30.3549 23.2266ZM30.3549 22.9384L30.3459 22.7358L30.1521 22.7444V22.9384H30.3549ZM31.2915 22.8087L31.3585 23V23L31.2915 22.8087ZM31.695 22.434L31.8819 22.5127V22.5127L31.695 22.434ZM31.8103 13.3556H32.013V13.1529H31.8103V13.3556ZM29.7064 13.615L29.8064 13.7914L29.8107 13.7888L29.7064 13.615ZM29.1012 14.4075L29.2941 14.4701L29.2945 14.4686L29.1012 14.4075ZM28.813 16.0503V16.253H28.9958L29.0146 16.0713L28.813 16.0503ZM28.4816 16.0503L28.2797 16.0314L28.2589 16.253H28.4816V16.0503ZM28.4239 13.0242L28.4312 12.8216L28.1994 12.8132L28.2222 13.0441L28.4239 13.0242ZM36.3351 13.0043C36.2673 13.6914 36.2332 14.313 36.2332 14.8687H36.6387C36.6387 14.3291 36.6718 13.7211 36.7386 13.0441L36.3351 13.0043ZM36.2332 14.8687C36.2332 15.3523 36.2477 15.7531 36.2773 16.0692L36.681 16.0314C36.653 15.7327 36.6387 15.3457 36.6387 14.8687H36.2332ZM36.4792 15.8476H36.1478V16.253H36.4792V15.8476ZM36.3494 16.0294C36.2722 15.2865 36.1745 14.7215 36.0524 14.345L35.6667 14.4701C35.7752 14.8045 35.8696 15.3347 35.9461 16.0713L36.3494 16.0294ZM36.0529 14.3465C35.9247 13.9407 35.694 13.6311 35.3543 13.4386L35.1544 13.7914C35.3911 13.9255 35.5638 14.1443 35.6662 14.4686L36.0529 14.3465ZM35.3586 13.4411C35.023 13.2398 34.5364 13.1529 33.9286 13.1529V13.5583C34.5121 13.5583 34.9093 13.6444 35.15 13.7888L35.3586 13.4411ZM33.9286 13.1529H33.1505V13.5583H33.9286V13.1529ZM32.9477 13.3556V21.555H33.3532V13.3556H32.9477ZM32.9477 21.555C32.9477 21.9633 32.9854 22.2907 33.0789 22.5127L33.4526 22.3553C33.3923 22.2122 33.3532 21.9537 33.3532 21.555H32.9477ZM33.0789 22.5127C33.1787 22.7497 33.3577 22.9144 33.6022 23L33.7362 22.6173C33.5964 22.5684 33.5065 22.4834 33.4526 22.3553L33.0789 22.5127ZM33.6022 23C33.8242 23.0777 34.1619 23.1216 34.5969 23.1409L34.6149 22.7358C34.1853 22.7167 33.8985 22.6741 33.7362 22.6173L33.6022 23ZM34.4031 22.9384V23.2266H34.8086V22.9384H34.4031ZM34.6176 23.0242C34.1122 22.995 33.4015 22.9806 32.4876 22.9806V23.3861C33.3989 23.3861 34.1005 23.4005 34.5942 23.429L34.6176 23.0242ZM32.4876 22.9806C31.5262 22.9806 30.81 22.995 30.3422 23.0242L30.3675 23.4289C30.822 23.4005 31.5276 23.3861 32.4876 23.3861V22.9806ZM30.5576 23.2266V22.9384H30.1521V23.2266H30.5576ZM30.3639 23.1409C30.7989 23.1216 31.1365 23.0777 31.3585 23L31.2246 22.6173C31.0623 22.6741 30.7755 22.7167 30.3459 22.7358L30.3639 23.1409ZM31.3585 23C31.603 22.9144 31.7821 22.7497 31.8819 22.5127L31.5082 22.3553C31.4543 22.4834 31.3643 22.5684 31.2246 22.6173L31.3585 23ZM31.8819 22.5127C31.9753 22.2907 32.013 21.9633 32.013 21.555H31.6076C31.6076 21.9537 31.5684 22.2122 31.5082 22.3553L31.8819 22.5127ZM32.013 21.555V13.3556H31.6076V21.555H32.013ZM31.8103 13.1529H31.0322V13.5583H31.8103V13.1529ZM31.0322 13.1529C30.4244 13.1529 29.9378 13.2398 29.6021 13.4411L29.8107 13.7888C30.0515 13.6444 30.4487 13.5583 31.0322 13.5583V13.1529ZM29.6065 13.4386C29.2668 13.6311 29.036 13.9407 28.9079 14.3465L29.2945 14.4686C29.3969 14.1443 29.5697 13.9255 29.8064 13.7914L29.6065 13.4386ZM28.9083 14.345C28.7862 14.7215 28.6885 15.2865 28.6113 16.0294L29.0146 16.0713C29.0912 15.3347 29.1856 14.8045 29.294 14.4701L28.9083 14.345ZM28.813 15.8476H28.4816V16.253H28.813V15.8476ZM28.6834 16.0692C28.7131 15.7531 28.7275 15.3523 28.7275 14.8687H28.3221C28.3221 15.3457 28.3077 15.7327 28.2797 16.0314L28.6834 16.0692ZM28.7275 14.8687C28.7275 14.313 28.6934 13.6914 28.6257 13.0043L28.2222 13.0441C28.2889 13.7211 28.3221 14.3291 28.3221 14.8687H28.7275ZM28.4166 13.2268C29.218 13.2557 30.5758 13.2701 32.4876 13.2701V12.8647C30.5759 12.8647 29.2246 12.8502 28.4312 12.8216L28.4166 13.2268ZM32.4876 13.2701C34.3898 13.2701 35.7428 13.2557 36.5442 13.2268L36.5295 12.8216C35.7362 12.8502 34.3897 12.8647 32.4876 12.8647V13.2701ZM44.7168 22.0161L44.9059 21.9429L44.9058 21.9428L44.7168 22.0161ZM45.7111 22.9384H45.9138V22.7444L45.7201 22.7358L45.7111 22.9384ZM45.7111 23.2266L45.6959 23.4287L45.9138 23.4451V23.2266H45.7111ZM42.3247 23.2266H42.122V23.4443L42.3391 23.4288L42.3247 23.2266ZM42.3247 22.9384L42.314 22.7359L42.122 22.746V22.9384H42.3247ZM43.1029 22.8087L43.1841 22.9945L43.1892 22.9921L43.1029 22.8087ZM43.1749 21.7279L42.9848 21.7986L42.9867 21.8032L43.1749 21.7279ZM42.2959 19.3646L42.4859 19.294L42.4368 19.1619H42.2959V19.3646ZM38.8086 19.3646V19.1619H38.6697L38.6195 19.2915L38.8086 19.3646ZM38.2178 20.8921L38.0287 20.819L38.0277 20.8217L38.2178 20.8921ZM38.2322 22.7222L38.1197 22.8909L38.1234 22.8932L38.2322 22.7222ZM39.1833 22.9384H39.386V22.7402L39.1879 22.7357L39.1833 22.9384ZM39.1833 23.2266L39.1726 23.429L39.386 23.4403V23.2266H39.1833ZM36.4454 23.2266H36.2426V23.4506L36.4655 23.4283L36.4454 23.2266ZM36.4454 22.9384L36.398 22.7412L36.2426 22.7785V22.9384H36.4454ZM37.5838 21.6847L37.3947 21.6114L37.3947 21.6116L37.5838 21.6847ZM40.9701 12.9521V12.7494H40.8313L40.7811 12.8788L40.9701 12.9521ZM41.2007 12.9521L41.3897 12.8788L41.3395 12.7494H41.2007V12.9521ZM42.1806 19.0764V19.2792H42.473L42.3705 19.0053L42.1806 19.0764ZM40.5667 14.7678L40.7565 14.6967L40.5683 14.1943L40.3772 14.6956L40.5667 14.7678ZM38.9239 19.0764L38.7345 19.0042L38.6296 19.2792H38.9239V19.0764ZM44.5277 22.0893C44.7714 22.7188 45.1531 23.1165 45.7021 23.1409L45.7201 22.7358C45.4045 22.7218 45.1233 22.5046 44.9059 21.9429L44.5277 22.0893ZM45.5084 22.9384V23.2266H45.9138V22.9384H45.5084ZM45.7263 23.0244C45.3347 22.995 44.8151 22.9806 44.1692 22.9806V23.3861C44.8107 23.3861 45.3189 23.4005 45.6959 23.4287L45.7263 23.0244ZM44.1692 22.9806C43.3421 22.9806 42.7213 22.995 42.3103 23.0243L42.3391 23.4288C42.7351 23.4005 43.344 23.3861 44.1692 23.3861V22.9806ZM42.5274 23.2266V22.9384H42.122V23.2266H42.5274ZM42.3354 23.1408C42.7029 23.1215 42.9943 23.0775 43.1841 22.9944L43.0216 22.6229C42.904 22.6744 42.6766 22.7168 42.314 22.7359L42.3354 23.1408ZM43.1892 22.9921C43.3014 22.9393 43.3955 22.8615 43.4599 22.7554C43.5238 22.6501 43.5506 22.5302 43.5506 22.4052H43.1451C43.1451 22.4724 43.131 22.5158 43.1133 22.5449C43.0961 22.5733 43.0676 22.6012 43.0165 22.6252L43.1892 22.9921ZM43.5506 22.4052C43.5506 22.2022 43.481 21.9471 43.3631 21.6526L42.9867 21.8032C43.0994 22.0851 43.1451 22.2815 43.1451 22.4052H43.5506ZM43.3649 21.6572L42.4859 19.294L42.1059 19.4353L42.9849 21.7986L43.3649 21.6572ZM42.2959 19.1619H38.8086V19.5674H42.2959V19.1619ZM38.6195 19.2915L38.0287 20.819L38.4069 20.9653L38.9977 19.4378L38.6195 19.2915ZM38.0277 20.8217C37.8341 21.3443 37.7269 21.7667 37.7269 22.0737H38.1323C38.1323 21.8428 38.2172 21.4774 38.4079 20.9625L38.0277 20.8217ZM37.7269 22.0737C37.7269 22.4217 37.8484 22.71 38.1198 22.8909L38.3447 22.5535C38.2126 22.4655 38.1323 22.3214 38.1323 22.0737H37.7269ZM38.1234 22.8932C38.3806 23.057 38.7415 23.1311 39.1787 23.141L39.1879 22.7357C38.7797 22.7264 38.5065 22.6564 38.3411 22.5512L38.1234 22.8932ZM38.9806 22.9384V23.2266H39.386V22.9384H38.9806ZM39.1939 23.0241C38.6428 22.9951 38.0868 22.9806 37.5261 22.9806V23.3861C38.0798 23.3861 38.6287 23.4004 39.1726 23.429L39.1939 23.0241ZM37.5261 22.9806C37.09 22.9806 36.7225 22.9951 36.4252 23.0248L36.4655 23.4283C36.7446 23.4004 37.0976 23.3861 37.5261 23.3861V22.9806ZM36.6481 23.2266V22.9384H36.2426V23.2266H36.6481ZM36.4927 23.1355C37.0681 22.9974 37.4842 22.5042 37.7729 21.7578L37.3947 21.6116C37.1261 22.3062 36.7833 22.6488 36.398 22.7412L36.4927 23.1355ZM37.7728 21.758L41.1592 13.0254L40.7811 12.8788L37.3947 21.6114L37.7728 21.758ZM40.9701 13.1549H41.2007V12.7494H40.9701V13.1549ZM41.0117 13.0254L44.5278 22.0894L44.9058 21.9428L41.3897 12.8788L41.0117 13.0254ZM42.3705 19.0053L40.7565 14.6967L40.3768 14.8389L41.9907 19.1476L42.3705 19.0053ZM40.3772 14.6956L38.7345 19.0042L39.1133 19.1487L40.7561 14.84L40.3772 14.6956ZM38.9239 19.2792H42.1806V18.8737H38.9239V19.2792ZM50.9965 17.8372H50.7938V18.0141L50.9691 18.038L50.9965 17.8372ZM53.2589 18.7594L53.1126 18.8998L53.1141 18.9013L53.2589 18.7594ZM53.5183 21.8864L53.6876 21.998V21.998L53.5183 21.8864ZM52.3223 22.8807L52.4046 23.066L52.4074 23.0647L52.3223 22.8807ZM49.8149 23.2122L49.8255 23.0096L49.8212 23.0095L49.8149 23.2122ZM46.2123 23.2266H46.0096V23.4443L46.2268 23.4288L46.2123 23.2266ZM46.2123 22.9384L46.2011 22.7359L46.0096 22.7466V22.9384H46.2123ZM46.9617 22.8231L46.8942 22.6319L46.8905 22.6332L46.9617 22.8231ZM47.2931 13.7591L47.1019 13.8266V13.8266L47.2931 13.7591ZM46.9617 13.4277L46.8905 13.6175L46.8942 13.6188L46.9617 13.4277ZM46.2123 13.3124H46.0096V13.5042L46.2011 13.5148L46.2123 13.3124ZM46.2123 13.0242L46.2268 12.822L46.0096 12.8064V13.0242H46.2123ZM47.9704 13.0674V13.2701L47.9723 13.2701L47.9704 13.0674ZM49.5267 13.053L49.5286 13.2559L49.5373 13.2554L49.5267 13.053ZM52.3943 13.6582L52.268 13.8168L52.2694 13.8179L52.3943 13.6582ZM52.6537 16.7996L52.4957 16.6726L52.494 16.6747L52.6537 16.7996ZM50.9965 17.8083L50.9376 17.6144L50.7938 17.658V17.8083H50.9965ZM49.1088 13.4132L49.0275 13.2275L49.023 13.2295L49.1088 13.4132ZM48.8062 13.7735L48.9985 13.8376V13.8376L48.8062 13.7735ZM48.7197 17.8083H48.517V18.0111H48.7197V17.8083ZM51.3279 17.1743L51.1645 17.0544L51.164 17.0551L51.3279 17.1743ZM51.8755 18.6441L51.7339 18.7892L51.7356 18.7909L51.8755 18.6441ZM48.7197 18.0533V17.8506H48.517V18.0533H48.7197ZM48.8062 22.4628L48.9973 22.3953V22.3953L48.8062 22.4628ZM49.1088 22.8087L49.0231 22.9924L49.0302 22.9957L49.0376 22.9985L49.1088 22.8087ZM50.9691 18.038C52.0071 18.1796 52.7073 18.4773 53.1126 18.8998L53.4052 18.6191C52.9074 18.1001 52.0994 17.7829 51.0239 17.6363L50.9691 18.038ZM53.1141 18.9013C53.528 19.324 53.7335 19.83 53.7335 20.431H54.1389C54.1389 19.7254 53.8929 19.1171 53.4038 18.6176L53.1141 18.9013ZM53.7335 20.431C53.7335 20.9423 53.604 21.388 53.349 21.7748L53.6876 21.998C53.9898 21.5395 54.1389 21.0149 54.1389 20.431H53.7335ZM53.349 21.7748C53.0938 22.1621 52.7262 22.4703 52.2371 22.6967L52.4074 23.0647C52.9559 22.8108 53.3856 22.4561 53.6876 21.998L53.349 21.7748ZM52.2399 22.6955C51.7527 22.912 51.1672 23.0238 50.4777 23.0238V23.4293C51.2101 23.4293 51.8542 23.3106 52.4046 23.066L52.2399 22.6955ZM50.4777 23.0238C50.2206 23.0238 50.0034 23.0191 49.8255 23.0097L49.8042 23.4146C49.9914 23.4245 50.2162 23.4293 50.4777 23.4293V23.0238ZM49.8212 23.0095C49.2043 22.9902 48.597 22.9806 47.9992 22.9806V23.3861C48.5926 23.3861 49.1958 23.3956 49.8086 23.4148L49.8212 23.0095ZM47.9992 22.9806C47.2102 22.9806 46.6088 22.995 46.1979 23.0243L46.2268 23.4288C46.6229 23.4005 47.2127 23.3861 47.9992 23.3861V22.9806ZM46.4151 23.2266V22.9384H46.0096V23.2266H46.4151ZM46.2236 23.1408C46.5724 23.1214 46.8485 23.0821 47.0329 23.0129L46.8905 22.6332C46.7675 22.6794 46.544 22.7169 46.2011 22.7359L46.2236 23.1408ZM47.0291 23.0143C47.2503 22.9362 47.4062 22.7803 47.4843 22.5591L47.1019 22.4242C47.0647 22.5297 46.9997 22.5947 46.8942 22.6319L47.0291 23.0143ZM47.4843 22.5591C47.5541 22.3612 47.5823 22.0674 47.5823 21.6991H47.1768C47.1768 22.0609 47.1473 22.2955 47.1019 22.4242L47.4843 22.5591ZM47.5823 21.6991V14.5516H47.1768V21.6991H47.5823ZM47.5823 14.5516C47.5823 14.1833 47.5541 13.8896 47.4843 13.6916L47.1019 13.8266C47.1473 13.9553 47.1768 14.1899 47.1768 14.5516H47.5823ZM47.4843 13.6916C47.4062 13.4705 47.2503 13.3145 47.0291 13.2365L46.8942 13.6188C46.9997 13.6561 47.0647 13.7211 47.1019 13.8266L47.4843 13.6916ZM47.0329 13.2378C46.8485 13.1687 46.5724 13.1293 46.2236 13.1099L46.2011 13.5148C46.544 13.5338 46.7675 13.5714 46.8905 13.6175L47.0329 13.2378ZM46.4151 13.3124V13.0242H46.0096V13.3124H46.4151ZM46.1979 13.2264C46.6087 13.2557 47.2005 13.2701 47.9704 13.2701V12.8647C47.2032 12.8647 46.6229 12.8502 46.2268 12.822L46.1979 13.2264ZM47.9723 13.2701L49.5286 13.2557L49.5248 12.8503L47.9685 12.8647L47.9723 13.2701ZM49.5373 13.2554C49.7155 13.2461 49.9184 13.2413 50.1463 13.2413V12.8358C49.9131 12.8358 49.7029 12.8407 49.516 12.8505L49.5373 13.2554ZM50.1463 13.2413C51.1014 13.2413 51.7987 13.4431 52.268 13.8168L52.5206 13.4996C51.9523 13.0471 51.151 12.8358 50.1463 12.8358V13.2413ZM52.2694 13.8179C52.7477 14.1918 52.9841 14.68 52.9841 15.301H53.3896C53.3896 14.5578 53.0977 13.9508 52.5192 13.4985L52.2694 13.8179ZM52.9841 15.301C52.9841 15.8111 52.8228 16.266 52.4957 16.6726L52.8117 16.9267C53.1955 16.4495 53.3896 15.9053 53.3896 15.301H52.9841ZM52.494 16.6747C52.1825 17.0728 51.6726 17.3911 50.9376 17.6144L51.0554 18.0023C51.8383 17.7645 52.4332 17.4103 52.8133 16.9246L52.494 16.6747ZM50.7938 17.8083V17.8372H51.1993V17.8083H50.7938ZM49.7861 13.1096C49.4786 13.1096 49.2196 13.1435 49.0275 13.2275L49.19 13.599C49.3054 13.5485 49.4979 13.5151 49.7861 13.5151V13.1096ZM49.023 13.2295C48.821 13.3238 48.6863 13.4921 48.6138 13.7094L48.9985 13.8376C49.0414 13.709 49.1084 13.6371 49.1945 13.597L49.023 13.2295ZM48.6138 13.7094C48.5456 13.914 48.517 14.1999 48.517 14.5516H48.9224C48.9224 14.2117 48.9514 13.9788 48.9985 13.8376L48.6138 13.7094ZM48.517 14.5516V17.8083H48.9224V14.5516H48.517ZM48.7197 18.0111H49.6852V17.6056H48.7197V18.0111ZM49.6852 18.0111C50.5036 18.0111 51.1299 17.7913 51.4919 17.2935L51.164 17.0551C50.9112 17.4027 50.4423 17.6056 49.6852 17.6056V18.0111ZM51.4914 17.2942C51.8411 16.8173 52.0062 16.1996 52.0062 15.4595H51.6007C51.6007 16.1412 51.4488 16.6667 51.1645 17.0544L51.4914 17.2942ZM52.0062 15.4595C52.0062 14.7139 51.8428 14.1182 51.4793 13.7106L51.1766 13.9805C51.4471 14.2838 51.6007 14.764 51.6007 15.4595H52.0062ZM51.4793 13.7106C51.1081 13.2945 50.5261 13.1096 49.7861 13.1096V13.5151C50.4679 13.5151 50.9138 13.6857 51.1766 13.9805L51.4793 13.7106ZM49.8005 23.0979C50.7267 23.0979 51.4592 22.8814 51.96 22.4127C52.4634 21.9416 52.6979 21.2488 52.6979 20.3734H52.2924C52.2924 21.1791 52.0778 21.7471 51.683 22.1167C51.2856 22.4885 50.6707 22.6924 49.8005 22.6924V23.0979ZM52.6979 20.3734C52.6979 19.578 52.4806 18.9409 52.0154 18.4974L51.7356 18.7909C52.0966 19.1351 52.2924 19.6508 52.2924 20.3734H52.6979ZM52.0172 18.4991C51.5588 18.0516 50.8467 17.8506 49.9302 17.8506V18.2561C50.8005 18.2561 51.3853 18.4489 51.7339 18.7892L52.0172 18.4991ZM49.9302 17.8506H48.7197V18.2561H49.9302V17.8506ZM48.517 18.0533V21.6991H48.9224V18.0533H48.517ZM48.517 21.6991C48.517 22.0497 48.5454 22.333 48.615 22.5303L48.9973 22.3953C48.9517 22.266 48.9224 22.0401 48.9224 21.6991H48.517ZM48.615 22.5303C48.689 22.7399 48.825 22.8999 49.0231 22.9924L49.1945 22.625C49.1044 22.5829 49.0387 22.5124 48.9973 22.3953L48.615 22.5303ZM49.0376 22.9985C49.2261 23.0692 49.4861 23.0979 49.8005 23.0979V22.6924C49.5 22.6924 49.2989 22.6634 49.18 22.6188L49.0376 22.9985ZM22.1227 27.0098L22.0473 27.1982L22.0564 27.2013L22.1227 27.0098ZM22.8864 27.3988L22.7739 27.5676L22.7776 27.5699L22.8864 27.3988ZM23.5781 27.4565L23.7596 27.5472L23.7627 27.5404L23.5781 27.4565ZM23.6934 26.9665V26.7638H23.5154L23.4924 26.9403L23.6934 26.9665ZM24.0248 26.9665L24.2268 26.9839L24.2458 26.7638H24.0248V26.9665ZM23.9528 29.9062V30.1089H24.1555V29.9062H23.9528ZM23.6213 29.9062L23.4192 29.9212L23.4331 30.1089H23.6213V29.9062ZM22.9441 27.9464L22.7791 28.0643L22.7815 28.0676L22.9441 27.9464ZM19.99 27.615L20.129 27.7626L20.1312 27.7605L19.99 27.615ZM19.745 29.7621L19.5717 29.8674L19.5745 29.8717L19.745 29.7621ZM20.3935 30.4538L20.5141 30.2909V30.2909L20.3935 30.4538ZM21.5031 31.1887L21.61 31.0165L21.6099 31.0164L21.5031 31.1887ZM21.9209 31.4481L21.814 31.6203L21.8142 31.6205L21.9209 31.4481ZM23.3476 32.4424L23.2177 32.5982L23.2225 32.602L23.3476 32.4424ZM24.1978 33.4079L24.0223 33.5094V33.5094L24.1978 33.4079ZM23.6502 36.7222L23.7784 36.8792L23.78 36.878L23.6502 36.7222ZM20.3214 37.2842L20.2573 37.4765L20.2592 37.4771L20.3214 37.2842ZM19.4856 36.8951L19.3768 37.0662L19.3804 37.0684L19.4856 36.8951ZM18.7939 36.8519L18.9754 36.9426L18.9785 36.9358L18.7939 36.8519ZM18.6787 37.3274V37.5302H18.8567L18.8797 37.3537L18.6787 37.3274ZM18.3472 37.3274L18.145 37.3127L18.1292 37.5302H18.3472V37.3274ZM18.4049 33.869V33.6663H18.2021V33.869H18.4049ZM18.7363 33.869L18.9386 33.855L18.9255 33.6663H18.7363V33.869ZM19.4568 36.2323L19.2894 36.3466V36.3466L19.4568 36.2323ZM22.6847 36.6646L22.8176 36.8177L22.8199 36.8157L22.6847 36.6646ZM22.6847 33.8546L22.5376 33.9941L22.5395 33.9961L22.6847 33.8546ZM20.9843 32.5865L20.8787 32.7596L20.8794 32.76L20.9843 32.5865ZM19.6009 31.6642L19.4764 31.8243L19.4786 31.8259L19.6009 31.6642ZM18.7507 30.6988L18.575 30.7998L18.5761 30.8017L18.7507 30.6988ZM19.1974 27.5141L19.3255 27.6713L19.3272 27.6699L19.1974 27.5141ZM21.1284 27.0684C21.5396 27.0684 21.8416 27.1157 22.0474 27.198L22.198 26.8215C21.9235 26.7117 21.5626 26.6629 21.1284 26.6629V27.0684ZM22.0564 27.2013C22.2873 27.2813 22.5264 27.4025 22.774 27.5675L22.9989 27.2301C22.7276 27.0493 22.4577 26.9112 22.189 26.8182L22.0564 27.2013ZM22.7776 27.5699C22.9914 27.7059 23.198 27.8033 23.3764 27.8033V27.3978C23.3242 27.3978 23.2042 27.3608 22.9953 27.2278L22.7776 27.5699ZM23.3764 27.8033C23.5597 27.8033 23.6871 27.6919 23.7595 27.5471L23.3968 27.3658C23.3901 27.3791 23.3844 27.3876 23.3802 27.3929C23.3781 27.3954 23.3765 27.3971 23.3755 27.3981C23.3744 27.3992 23.3738 27.3996 23.3738 27.3996C23.3738 27.3996 23.3742 27.3993 23.3749 27.399C23.3756 27.3986 23.3764 27.3983 23.3771 27.3981C23.3789 27.3975 23.379 27.3978 23.3764 27.3978V27.8033ZM23.7627 27.5404C23.8235 27.4065 23.8649 27.2189 23.8944 26.9928L23.4924 26.9403C23.4642 27.1561 23.4288 27.2951 23.3936 27.3726L23.7627 27.5404ZM23.6934 27.1693H24.0248V26.7638H23.6934V27.1693ZM23.8228 26.9491C23.774 27.516 23.75 28.5039 23.75 29.9062H24.1555C24.1555 28.5033 24.1796 27.5314 24.2268 26.9839L23.8228 26.9491ZM23.9528 29.7035H23.6213V30.1089H23.9528V29.7035ZM23.8235 29.8912C23.7636 29.0818 23.5275 28.3898 23.1066 27.8253L22.7815 28.0676C23.1484 28.5598 23.3638 29.1743 23.4192 29.9212L23.8235 29.8912ZM23.109 27.8286C22.6818 27.2304 22.0543 26.9367 21.2581 26.9367V27.3422C21.9413 27.3422 22.4378 27.5865 22.7791 28.0643L23.109 27.8286ZM21.2581 26.9367C20.6946 26.9367 20.2186 27.1106 19.8488 27.4695L20.1312 27.7605C20.4146 27.4854 20.7841 27.3422 21.2581 27.3422V26.9367ZM19.851 27.4674C19.4797 27.8168 19.2973 28.2709 19.2973 28.811H19.7028C19.7028 28.3713 19.847 28.028 20.1289 27.7626L19.851 27.4674ZM19.2973 28.811C19.2973 29.2072 19.3862 29.5618 19.5717 29.8673L19.9183 29.6569C19.7772 29.4244 19.7028 29.145 19.7028 28.811H19.2973ZM19.5745 29.8717C19.7608 30.1616 19.9939 30.4101 20.2728 30.6167L20.5141 30.2909C20.2743 30.1132 20.0751 29.9006 19.9156 29.6525L19.5745 29.8717ZM20.2728 30.6167C20.5388 30.8137 20.9141 31.0621 21.3962 31.361L21.6099 31.0164C21.1313 30.7197 20.7669 30.4781 20.5141 30.2909L20.2728 30.6167ZM21.3961 31.361L21.814 31.6203L22.0279 31.2758L21.61 31.0165L21.3961 31.361ZM21.8142 31.6205C22.4155 31.9926 22.8821 32.3184 23.2178 32.5981L23.4773 32.2866C23.1213 31.9899 22.6369 31.6529 22.0277 31.2757L21.8142 31.6205ZM23.2225 32.602C23.5591 32.8657 23.8248 33.1683 24.0223 33.5094L24.3732 33.3063C24.148 32.9173 23.847 32.5762 23.4726 32.2828L23.2225 32.602ZM24.0223 33.5094C24.2131 33.839 24.312 34.2303 24.312 34.6904H24.7175C24.7175 34.1706 24.6051 33.7069 24.3732 33.3063L24.0223 33.5094ZM24.312 34.6904C24.312 35.5155 24.0427 36.1312 23.5204 36.5665L23.78 36.878C24.4105 36.3525 24.7175 35.6137 24.7175 34.6904H24.312ZM23.5219 36.5652C22.9882 37.001 22.3061 37.2256 21.4598 37.2256V37.631C22.3812 37.631 23.1593 37.3848 23.7784 36.8792L23.5219 36.5652ZM21.4598 37.2256C21.0108 37.2256 20.6543 37.1786 20.3837 37.0913L20.2592 37.4771C20.5842 37.582 20.9866 37.631 21.4598 37.631V37.2256ZM20.3855 37.0919C20.1122 37.0008 19.8474 36.8776 19.5908 36.7218L19.3804 37.0684C19.6619 37.2393 19.9542 37.3755 20.2573 37.4765L20.3855 37.0919ZM19.5945 36.7241C19.3807 36.5881 19.1741 36.4907 18.9957 36.4907V36.8961C19.0478 36.8961 19.1679 36.9332 19.3768 37.0662L19.5945 36.7241ZM18.9957 36.4907C18.8018 36.4907 18.6769 36.6194 18.6094 36.768L18.9785 36.9358C18.9937 36.9025 19.005 36.8929 19.0057 36.8924C19.0057 36.8924 19.0053 36.8927 19.0042 36.8933C19.0032 36.8939 19.0019 36.8945 19.0003 36.895C18.997 36.8962 18.9951 36.8961 18.9957 36.8961V36.4907ZM18.6126 36.7612C18.5485 36.8894 18.5069 37.0766 18.4776 37.3012L18.8797 37.3537C18.908 37.1364 18.9433 37.0065 18.9753 36.9426L18.6126 36.7612ZM18.6787 37.1247H18.3472V37.5302H18.6787V37.1247ZM18.5494 37.3421C18.5885 36.805 18.6076 35.6444 18.6076 33.869H18.2021C18.2021 35.6481 18.1828 36.7931 18.145 37.3127L18.5494 37.3421ZM18.4049 34.0717H18.7363V33.6663H18.4049V34.0717ZM18.5341 33.883C18.603 34.8778 18.8504 35.7034 19.2894 36.3466L19.6243 36.118C19.2371 35.5507 19.0041 34.8007 18.9386 33.855L18.5341 33.883ZM19.2894 36.3466C19.747 37.017 20.4498 37.3428 21.359 37.3428V36.9374C20.5581 36.9374 19.9928 36.658 19.6243 36.118L19.2894 36.3466ZM21.359 37.3428C21.9227 37.3428 22.4129 37.1691 22.8176 36.8176L22.5518 36.5115C22.2264 36.794 21.8327 36.9374 21.359 36.9374V37.3428ZM22.8199 36.8157C23.2397 36.44 23.435 35.8972 23.435 35.2236H23.0295C23.0295 35.818 22.8597 36.2359 22.5495 36.5135L22.8199 36.8157ZM23.435 35.2236C23.435 34.6344 23.233 34.1268 22.8299 33.7131L22.5395 33.9961C22.8665 34.3317 23.0295 34.7368 23.0295 35.2236H23.435ZM22.8318 33.715C22.4578 33.3209 21.873 32.8872 21.0892 32.413L20.8794 32.76C21.6518 33.2273 22.2006 33.6389 22.5376 33.9941L22.8318 33.715ZM21.0899 32.4134C20.5264 32.0696 20.0714 31.766 19.7233 31.5026L19.4786 31.8259C19.8413 32.1004 20.3086 32.4117 20.8787 32.7596L21.0899 32.4134ZM19.7254 31.5042C19.3996 31.2508 19.1332 30.9483 18.9253 30.5958L18.5761 30.8017C18.8101 31.1986 19.1106 31.5397 19.4764 31.8243L19.7254 31.5042ZM18.9265 30.5977C18.7257 30.2485 18.622 29.8377 18.622 29.3586H18.2165C18.2165 29.8979 18.3338 30.3805 18.575 30.7998L18.9265 30.5977ZM18.622 29.3586C18.622 28.5987 18.8638 28.0475 19.3255 27.6713L19.0694 27.3569C18.4935 27.8261 18.2165 28.5046 18.2165 29.3586H18.622ZM19.3272 27.6699C19.8046 27.2721 20.4003 27.0684 21.1284 27.0684V26.6629C20.3194 26.6629 19.6278 26.8915 19.0676 27.3584L19.3272 27.6699ZM34.9257 27.3124L34.9373 27.5148L35.1285 27.5039V27.3124H34.9257ZM34.1764 27.4709L34.2628 27.6545L34.2712 27.6501L34.1764 27.4709ZM33.845 27.8744L34.0383 27.9354L34.0391 27.9326L33.845 27.8744ZM33.6144 34.8201L33.4153 34.7818L33.4147 34.7848L33.6144 34.8201ZM33.1677 36.0882L32.9934 35.9845L32.9924 35.9863L33.1677 36.0882ZM32.1013 37.0681L32.0092 36.8875L32.0077 36.8882L32.1013 37.0681ZM28.1097 36.6502L27.9715 36.7985L27.9716 36.7985L28.1097 36.6502ZM27.2595 35.31L27.0647 35.3662V35.3662L27.2595 35.31ZM26.9569 27.7591L26.7657 27.8266V27.8266L26.9569 27.7591ZM26.6255 27.4277L26.5543 27.6175L26.558 27.6188L26.6255 27.4277ZM25.8761 27.3124H25.6734V27.5042L25.8649 27.5148L25.8761 27.3124ZM25.8761 27.0242L25.8906 26.822L25.6734 26.8064V27.0242H25.8761ZM29.5507 27.0242H29.7535V26.8078L29.5375 26.8219L29.5507 27.0242ZM29.5507 27.3124L29.562 27.5148L29.7535 27.5042V27.3124H29.5507ZM28.787 27.4277L28.7195 27.2364L28.7158 27.2378L28.787 27.4277ZM28.47 27.7591L28.6611 27.8266V27.8266L28.47 27.7591ZM28.542 35.238L28.7405 35.1968V35.1968L28.542 35.238ZM29.1905 36.4628L29.0515 36.6105L29.0537 36.6124L29.1905 36.4628ZM32.8074 35.9441L32.9788 36.0524V36.0524L32.8074 35.9441ZM33.1389 27.6294L32.9918 27.7691L32.9955 27.7728L33.1389 27.6294ZM32.1157 27.3124H31.913V27.5075L32.1079 27.515L32.1157 27.3124ZM32.1157 27.0242L32.1326 26.8221L31.913 26.8038V27.0242H32.1157ZM34.9257 27.0242H35.1285V26.8022L34.9074 26.8223L34.9257 27.0242ZM34.9142 27.11C34.5689 27.1297 34.2839 27.1846 34.0815 27.2917L34.2712 27.6501C34.3955 27.5843 34.6101 27.5335 34.9373 27.5148L34.9142 27.11ZM34.0901 27.2874C33.8685 27.3917 33.7229 27.5757 33.6508 27.8161L34.0391 27.9326C34.0823 27.7888 34.1576 27.7038 34.2627 27.6543L34.0901 27.2874ZM33.6516 27.8133C33.5844 28.0262 33.5558 28.3252 33.5558 28.6957H33.9612C33.9612 28.3362 33.9902 28.0876 34.0383 27.9354L33.6516 27.8133ZM33.5558 28.6957V33.0332H33.9612V28.6957H33.5558ZM33.5558 33.0332C33.5558 33.7163 33.5083 34.2984 33.4153 34.7818L33.8135 34.8584C33.9127 34.3426 33.9612 33.7335 33.9612 33.0332H33.5558ZM33.4147 34.7848C33.3317 35.2554 33.19 35.654 32.9934 35.9845L33.3419 36.1918C33.5681 35.8115 33.7242 35.3646 33.814 34.8553L33.4147 34.7848ZM32.9924 35.9863C32.7739 36.3622 32.449 36.663 32.0092 36.8875L32.1935 37.2486C32.6951 36.9927 33.0812 36.6403 33.3429 36.1901L32.9924 35.9863ZM32.0077 36.8882C31.579 37.1115 31.0882 37.2256 30.5306 37.2256V37.631C31.145 37.631 31.7014 37.5049 32.195 37.2479L32.0077 36.8882ZM30.5306 37.2256C29.5051 37.2256 28.7551 36.974 28.2479 36.5018L27.9716 36.7985C28.5787 37.3638 29.4426 37.631 30.5306 37.631V37.2256ZM28.2479 36.5018C27.849 36.1301 27.5871 35.7143 27.4543 35.2538L27.0647 35.3662C27.2201 35.9048 27.525 36.3824 27.9715 36.7985L28.2479 36.5018ZM27.4543 35.2538C27.3183 34.7823 27.2461 34.0608 27.2461 33.0764H26.8406C26.8406 34.0711 26.9125 34.8387 27.0647 35.3662L27.4543 35.2538ZM27.2461 33.0764V28.5516H26.8406V33.0764H27.2461ZM27.2461 28.5516C27.2461 28.1833 27.2179 27.8896 27.1481 27.6916L26.7657 27.8266C26.8111 27.9552 26.8406 28.1899 26.8406 28.5516H27.2461ZM27.1481 27.6916C27.07 27.4705 26.9141 27.3145 26.6929 27.2365L26.558 27.6188C26.6635 27.6561 26.7285 27.7211 26.7657 27.8266L27.1481 27.6916ZM26.6967 27.2378C26.5123 27.1687 26.2362 27.1293 25.8874 27.1099L25.8649 27.5148C26.2078 27.5338 26.4313 27.5714 26.5543 27.6175L26.6967 27.2378ZM26.0789 27.3124V27.0242H25.6734V27.3124H26.0789ZM25.8617 27.2264C26.2727 27.2558 26.8935 27.2701 27.7206 27.2701V26.8647C26.8954 26.8647 26.2865 26.8502 25.8906 26.822L25.8617 27.2264ZM27.7206 27.2701C28.5004 27.2701 29.1155 27.2557 29.5639 27.2265L29.5375 26.8219C29.1021 26.8503 28.4971 26.8647 27.7206 26.8647V27.2701ZM29.348 27.0242V27.3124H29.7535V27.0242H29.348ZM29.5395 27.1099C29.1896 27.1294 28.9112 27.1688 28.7195 27.2365L28.8545 27.6188C28.9895 27.5712 29.2202 27.5338 29.562 27.5148L29.5395 27.1099ZM28.7158 27.2378C28.5025 27.3178 28.3551 27.4753 28.2788 27.6916L28.6611 27.8266C28.7001 27.7162 28.764 27.6528 28.8582 27.6175L28.7158 27.2378ZM28.2788 27.6916C28.2089 27.8896 28.1808 28.1833 28.1808 28.5516H28.5862C28.5862 28.1899 28.6157 27.9552 28.6611 27.8266L28.2788 27.6916ZM28.1808 28.5516V33.3214H28.5862V28.5516H28.1808ZM28.1808 33.3214C28.1808 34.0979 28.234 34.7517 28.3435 35.2792L28.7405 35.1968C28.6386 34.7059 28.5862 34.082 28.5862 33.3214H28.1808ZM28.3435 35.2792C28.4563 35.8224 28.69 36.2702 29.0515 36.6105L29.3294 36.3152C29.0377 36.0407 28.8391 35.6719 28.7405 35.1968L28.3435 35.2792ZM29.0537 36.6124C29.4402 36.9659 29.9869 37.1267 30.6603 37.1267V36.7212C30.0464 36.7212 29.6132 36.5746 29.3273 36.3132L29.0537 36.6124ZM30.6603 37.1267C31.7233 37.1267 32.517 36.7827 32.9788 36.0524L32.6361 35.8357C32.2717 36.4119 31.6339 36.7212 30.6603 36.7212V37.1267ZM32.9788 36.0524C33.4205 35.3539 33.6298 34.3929 33.6298 33.1917H33.2243C33.2243 34.3538 33.0205 35.2277 32.6361 35.8357L32.9788 36.0524ZM33.6298 33.1917V28.6957H33.2243V33.1917H33.6298ZM33.6298 28.6957C33.6298 28.1666 33.5348 27.7386 33.2822 27.486L32.9955 27.7728C33.1272 27.9044 33.2243 28.1873 33.2243 28.6957H33.6298ZM33.2858 27.4898C33.0458 27.2371 32.6342 27.1294 32.1235 27.1098L32.1079 27.515C32.5963 27.5337 32.8669 27.6374 32.9919 27.769L33.2858 27.4898ZM32.3185 27.3124V27.0242H31.913V27.3124H32.3185ZM32.0989 27.2262C32.4531 27.2557 32.9497 27.2701 33.5856 27.2701V26.8647C32.9534 26.8647 32.47 26.8503 32.1326 26.8221L32.0989 27.2262ZM33.5856 27.2701C34.1641 27.2701 34.6179 27.2557 34.9441 27.2261L34.9074 26.8223C34.5995 26.8503 34.1599 26.8647 33.5856 26.8647V27.2701ZM34.723 27.0242V27.3124H35.1285V27.0242H34.723ZM42.3068 27.0674L42.2307 27.2553V27.2553L42.3068 27.0674ZM43.4884 27.7591L43.6169 27.6021L43.6126 27.5988L43.4884 27.7591ZM44.1369 27.0242V26.8214H43.9534L43.9352 27.004L44.1369 27.0242ZM44.4683 27.0242L44.6707 27.0366L44.6839 26.8214H44.4683V27.0242ZM44.4107 30.3385V30.5412H44.6134V30.3385H44.4107ZM44.0793 30.3385L43.8794 30.3723L43.9079 30.5412H44.0793V30.3385ZM43.791 28.9984L43.5974 29.0585L43.598 29.0604L43.791 28.9984ZM43.3587 28.2058L43.198 28.3294L43.201 28.3332L43.3587 28.2058ZM42.2492 27.37L42.1683 27.556L42.1732 27.558L42.2492 27.37ZM39.1654 27.7014L39.0317 27.5491L39.0301 27.5504L39.1654 27.7014ZM38.0846 29.4739L38.2765 29.5395L38.2767 29.5387L38.0846 29.4739ZM38.1134 34.8489L37.9234 34.9195V34.9195L38.1134 34.8489ZM39.2663 36.5637L39.1392 36.7217L39.1427 36.7244L39.2663 36.5637ZM42.35 36.8663L42.426 37.0543V37.0543L42.35 36.8663ZM43.4164 36.0449L43.2514 35.9271L43.2511 35.9275L43.4164 36.0449ZM43.8343 35.1803L44.0294 35.2352V35.2352L43.8343 35.1803ZM44.0793 33.7681V33.5654H43.8996L43.878 33.7437L44.0793 33.7681ZM44.4107 33.7681H44.6134V33.5654H44.4107V33.7681ZM44.4683 37.2266V37.4293H44.6833L44.6707 37.2147L44.4683 37.2266ZM44.1369 37.2266L43.935 37.2455L43.9523 37.4293H44.1369V37.2266ZM44.0072 36.5781L43.8163 36.6463L43.8193 36.6548L43.8231 36.6631L44.0072 36.5781ZM43.4884 36.4916L43.382 36.3186L43.3709 36.3264L43.4884 36.4916ZM42.2492 37.1977L42.3229 37.3866L42.3268 37.385L42.2492 37.1977ZM38.4161 36.8087L38.311 36.9821L38.3121 36.9827L38.4161 36.8087ZM36.8165 35.0218L36.6334 35.1089L36.6348 35.1116L36.8165 35.0218ZM36.8309 29.4018L36.6483 29.3138L36.6475 29.3155L36.8309 29.4018ZM38.4593 27.4997L38.3495 27.3292L38.3485 27.3299L38.4593 27.4997ZM40.837 27.0252C41.3953 27.0252 41.8579 27.1044 42.2307 27.2553L42.3829 26.8795C41.9488 26.7038 41.4314 26.6197 40.837 26.6197V27.0252ZM42.2307 27.2553C42.6151 27.4109 42.993 27.6316 43.3642 27.9193L43.6126 27.5988C43.2154 27.291 42.8055 27.0505 42.3829 26.8795L42.2307 27.2553ZM43.3601 27.916C43.4768 28.0115 43.614 28.0915 43.7622 28.0915V27.686C43.7567 27.686 43.7114 27.6796 43.6168 27.6022L43.3601 27.916ZM43.7622 28.0915C43.9836 28.0915 44.1139 27.9196 44.186 27.7532C44.2611 27.58 44.3092 27.3389 44.3386 27.0443L43.9352 27.004C43.907 27.2858 43.8638 27.477 43.814 27.592C43.7612 27.7139 43.733 27.686 43.7622 27.686V28.0915ZM44.1369 27.2269H44.4683V26.8214H44.1369V27.2269ZM44.266 27.0117C44.2271 27.6431 44.208 28.7536 44.208 30.3385H44.6134C44.6134 28.7532 44.6327 27.6541 44.6707 27.0366L44.266 27.0117ZM44.4107 30.1358H44.0793V30.5412H44.4107V30.1358ZM44.2791 30.3047C44.1733 29.6794 44.0753 29.2203 43.9841 28.9363L43.598 29.0604C43.6797 29.3144 43.7738 29.7487 43.8794 30.3723L44.2791 30.3047ZM43.9847 28.9383C43.8899 28.6328 43.7327 28.3461 43.5165 28.0784L43.201 28.3332C43.3883 28.565 43.5193 28.8067 43.5974 29.0585L43.9847 28.9383ZM43.5194 28.0822C43.2085 27.678 42.8091 27.3777 42.3251 27.1821L42.1732 27.558C42.5923 27.7274 42.9325 27.9843 43.1981 28.3294L43.5194 28.0822ZM42.33 27.1841C41.8607 26.98 41.3526 26.8791 40.8081 26.8791V27.2845C41.3013 27.2845 41.7538 27.3757 42.1683 27.5559L42.33 27.1841ZM40.8081 26.8791C40.1343 26.8791 39.5393 27.1036 39.0317 27.5491L39.2991 27.8538C39.733 27.4731 40.2331 27.2845 40.8081 27.2845V26.8791ZM39.0301 27.5504C38.5361 27.993 38.1597 28.6174 37.8925 29.4091L38.2767 29.5387C38.5283 28.7934 38.8725 28.2361 39.3007 27.8525L39.0301 27.5504ZM37.8928 29.4083C37.6245 30.1934 37.4928 31.1099 37.4928 32.1542H37.8983C37.8983 31.1426 38.026 30.2723 38.2765 29.5395L37.8928 29.4083ZM37.4928 32.1542C37.4928 33.2184 37.6343 34.1418 37.9234 34.9195L38.3035 34.7782C38.0354 34.0573 37.8983 33.1843 37.8983 32.1542H37.4928ZM37.9234 34.9195C38.2113 35.694 38.614 36.2995 39.1392 36.7217L39.3933 36.4057C38.9386 36.0402 38.5727 35.5025 38.3035 34.7782L37.9234 34.9195ZM39.1427 36.7244C39.6773 37.1356 40.2826 37.3428 40.9523 37.3428V36.9374C40.373 36.9374 39.8543 36.7603 39.3899 36.403L39.1427 36.7244ZM40.9523 37.3428C41.459 37.3428 41.9507 37.2464 42.426 37.0543L42.2741 36.6783C41.8463 36.8513 41.4062 36.9374 40.9523 36.9374V37.3428ZM42.426 37.0543C42.9102 36.8586 43.2979 36.5617 43.5817 36.1624L43.2511 35.9275C43.0161 36.2583 42.693 36.509 42.2741 36.6783L42.426 37.0543ZM43.5814 36.1628C43.7866 35.8754 43.9364 35.566 44.0294 35.2352L43.6391 35.1254C43.5592 35.4095 43.4304 35.6765 43.2514 35.9271L43.5814 36.1628ZM44.0294 35.2352C44.1203 34.9122 44.2034 34.4288 44.2805 33.7925L43.878 33.7437C43.8014 34.3755 43.7212 34.8336 43.6391 35.1254L44.0294 35.2352ZM44.0793 33.9709H44.4107V33.5654H44.0793V33.9709ZM44.208 33.7681C44.208 35.4203 44.2271 36.5786 44.2659 37.2385L44.6707 37.2147C44.6327 36.5681 44.6134 35.4207 44.6134 33.7681H44.208ZM44.4683 37.0238H44.1369V37.4293H44.4683V37.0238ZM44.3387 37.2076C44.3098 36.8987 44.2646 36.6521 44.1913 36.4931L43.8231 36.6631C43.8651 36.7539 43.9064 36.9396 43.935 37.2455L44.3387 37.2076ZM44.1981 36.5099C44.1678 36.4249 44.1234 36.342 44.0555 36.2786C43.983 36.2109 43.8919 36.1736 43.791 36.1736V36.5791C43.7912 36.5791 43.7903 36.5791 43.7887 36.5788C43.7871 36.5785 43.7852 36.578 43.7833 36.5772C43.779 36.5755 43.7775 36.5738 43.7788 36.575C43.7829 36.5789 43.7986 36.5968 43.8163 36.6463L44.1981 36.5099ZM43.791 36.1736C43.6558 36.1736 43.5147 36.2374 43.3822 36.319L43.5947 36.6643C43.712 36.5921 43.7726 36.5791 43.791 36.5791V36.1736ZM43.3709 36.3264C42.9482 36.6271 42.5484 36.8542 42.1715 37.0105L42.3268 37.385C42.7377 37.2147 43.1641 36.9711 43.6059 36.6569L43.3709 36.3264ZM42.1755 37.0089C41.8112 37.151 41.3621 37.2256 40.8226 37.2256V37.631C41.3974 37.631 41.8993 37.5519 42.3229 37.3866L42.1755 37.0089ZM40.8226 37.2256C39.9416 37.2256 39.1763 37.0265 38.52 36.6346L38.3121 36.9827C39.0392 37.417 39.8783 37.631 40.8226 37.631V37.2256ZM38.5211 36.6353C37.8749 36.2439 37.3671 35.6787 36.9983 34.932L36.6348 35.1116C37.0346 35.9212 37.593 36.5472 38.311 36.9821L38.5211 36.6353ZM36.9996 34.9347C36.6407 34.18 36.4573 33.2744 36.4573 32.2118H36.0518C36.0518 33.3203 36.2431 34.2881 36.6335 35.1089L36.9996 34.9347ZM36.4573 32.2118C36.4573 31.1799 36.6448 30.2735 37.0144 29.4882L36.6475 29.3155C36.2485 30.1633 36.0518 31.1303 36.0518 32.2118H36.4573ZM37.0135 29.4899C37.393 28.7033 37.9123 28.0989 38.5701 27.6695L38.3485 27.3299C37.6229 27.8036 37.0566 28.4673 36.6483 29.3138L37.0135 29.4899ZM38.569 27.6702C39.2356 27.241 39.9896 27.0252 40.837 27.0252V26.6197C39.9167 26.6197 39.0856 26.8554 38.3495 27.3292L38.569 27.6702ZM49.9573 27.3124L49.9685 27.5148L50.16 27.5042V27.3124H49.9573ZM49.1936 27.4277L49.1261 27.2364L49.1224 27.2378L49.1936 27.4277ZM48.8765 27.7591L49.0677 27.8266V27.8266L48.8765 27.7591ZM48.8765 36.4916L49.0677 36.4242V36.4242L48.8765 36.4916ZM49.1936 36.8231L49.1224 37.0129L49.1261 37.0143L49.1936 36.8231ZM49.9573 36.9384H50.16V36.7466L49.9685 36.7359L49.9573 36.9384ZM49.9573 37.2266L49.9441 37.4289L50.16 37.443V37.2266H49.9573ZM46.2827 37.2266H46.08V37.4443L46.2972 37.4288L46.2827 37.2266ZM46.2827 36.9384L46.2715 36.7359L46.08 36.7466V36.9384H46.2827ZM47.032 36.8231L46.9646 36.6319L46.9609 36.6332L47.032 36.8231ZM47.3635 27.7591L47.1723 27.8266V27.8266L47.3635 27.7591ZM47.032 27.4277L46.9608 27.6175L46.9646 27.6188L47.032 27.4277ZM46.2827 27.3124H46.08V27.5042L46.2715 27.5148L46.2827 27.3124ZM46.2827 27.0242L46.2972 26.822L46.08 26.8064V27.0242H46.2827ZM49.9573 27.0242H50.16V26.8081L49.9444 26.8218L49.9573 27.0242ZM49.9461 27.1099C49.5962 27.1294 49.3177 27.1688 49.1261 27.2365L49.261 27.6188C49.396 27.5712 49.6268 27.5338 49.9685 27.5148L49.9461 27.1099ZM49.1224 27.2378C48.9091 27.3178 48.7617 27.4753 48.6854 27.6916L49.0677 27.8266C49.1067 27.7162 49.1706 27.6528 49.2647 27.6175L49.1224 27.2378ZM48.6854 27.6916C48.6155 27.8896 48.5873 28.1833 48.5873 28.5516H48.9928C48.9928 28.1899 49.0223 27.9552 49.0677 27.8266L48.6854 27.6916ZM48.5873 28.5516V35.6991H48.9928V28.5516H48.5873ZM48.5873 35.6991C48.5873 36.0674 48.6155 36.3612 48.6854 36.5591L49.0677 36.4242C49.0223 36.2955 48.9928 36.0609 48.9928 35.6991H48.5873ZM48.6854 36.5591C48.7617 36.7754 48.9091 36.9329 49.1224 37.0129L49.2647 36.6332C49.1706 36.5979 49.1067 36.5345 49.0677 36.4242L48.6854 36.5591ZM49.1261 37.0143C49.3177 37.0819 49.5962 37.1213 49.9461 37.1408L49.9685 36.7359C49.6268 36.7169 49.396 36.6795 49.261 36.6319L49.1261 37.0143ZM49.7546 36.9384V37.2266H50.16V36.9384H49.7546ZM49.9705 37.0243C49.5221 36.995 48.907 36.9806 48.1272 36.9806V37.3861C48.9037 37.3861 49.5087 37.4005 49.9441 37.4289L49.9705 37.0243ZM48.1272 36.9806C47.3001 36.9806 46.6793 36.995 46.2683 37.0243L46.2972 37.4288C46.6931 37.4005 47.302 37.3861 48.1272 37.3861V36.9806ZM46.4854 37.2266V36.9384H46.08V37.2266H46.4854ZM46.294 37.1408C46.6428 37.1214 46.9188 37.0821 47.1032 37.0129L46.9609 36.6332C46.8378 36.6794 46.6143 36.7169 46.2715 36.7359L46.294 37.1408ZM47.0995 37.0143C47.3206 36.9362 47.4766 36.7803 47.5546 36.5591L47.1723 36.4242C47.1351 36.5297 47.0701 36.5947 46.9646 36.6319L47.0995 37.0143ZM47.5546 36.5591C47.6245 36.3612 47.6527 36.0674 47.6527 35.6991H47.2472C47.2472 36.0609 47.2177 36.2955 47.1723 36.4242L47.5546 36.5591ZM47.6527 35.6991V28.5516H47.2472V35.6991H47.6527ZM47.6527 28.5516C47.6527 28.1833 47.6245 27.8896 47.5546 27.6916L47.1723 27.8266C47.2177 27.9552 47.2472 28.1899 47.2472 28.5516H47.6527ZM47.5546 27.6916C47.4766 27.4705 47.3206 27.3145 47.0995 27.2365L46.9646 27.6188C47.0701 27.6561 47.1351 27.7211 47.1723 27.8266L47.5546 27.6916ZM47.1032 27.2378C46.9188 27.1687 46.6428 27.1293 46.294 27.1099L46.2715 27.5148C46.6143 27.5338 46.8378 27.5714 46.9608 27.6175L47.1032 27.2378ZM46.4854 27.3124V27.0242H46.08V27.3124H46.4854ZM46.2683 27.2264C46.6793 27.2558 47.3001 27.2701 48.1272 27.2701V26.8647C47.302 26.8647 46.6931 26.8502 46.2972 26.822L46.2683 27.2264ZM48.1272 27.2701C48.8975 27.2701 49.5125 27.2557 49.9702 27.2265L49.9444 26.8218C49.4991 26.8503 48.894 26.8647 48.1272 26.8647V27.2701ZM49.7546 27.0242V27.3124H50.16V27.0242H49.7546Z" fill="#FEF5EB" mask="url(#path-5-outside-1_23632_22567)"/>
</g>
</g>
<defs>
<linearGradient id="paint0_linear_23632_22567" x1="34" y1="-1.04141e-05" x2="34" y2="68" gradientUnits="userSpaceOnUse">
<stop stop-color="#C93D34"/>
<stop offset="1" stop-color="#7A2629"/>
</linearGradient>
<linearGradient id="paint1_linear_23632_22567" x1="34" y1="-1.04141e-05" x2="34" y2="68" gradientUnits="userSpaceOnUse">
<stop stop-color="#C93D34"/>
<stop offset="1" stop-color="#7A2629"/>
</linearGradient>
<clipPath id="clip0_23632_22567">
<rect width="68" height="68" fill="white"/>
</clipPath>
</defs>
</svg>
