<svg width="68" height="68" viewBox="0 0 68 68" fill="none" xmlns="http://www.w3.org/2000/svg">
<g clip-path="url(#clip0_23632_22765)">
<mask id="mask0_23632_22765" style="mask-type:alpha" maskUnits="userSpaceOnUse" x="0" y="0" width="68" height="68">
<path fill-rule="evenodd" clip-rule="evenodd" d="M47.0333 0H20.9667C13.5811 0 8.89667 0.0377779 4.45778 4.45778C0.018889 8.89667 0 13.6 0 20.9667V47.0333C0 54.4189 0.0377779 59.1033 4.45778 63.5422C8.89667 67.9811 13.6 68 20.9667 68H47.0333C54.4189 68 59.1033 67.9811 63.5422 63.5422C67.9622 59.1033 68 54.4 68 47.0333V20.9667C68 13.5811 67.9622 8.89667 63.5422 4.45778C59.1033 0.018889 54.4 0 47.0333 0Z" fill="url(#paint0_linear_23632_22765)"/>
</mask>
<g mask="url(#mask0_23632_22765)">
<rect width="68" height="68" fill="url(#paint1_linear_23632_22765)"/>
<path fill-rule="evenodd" clip-rule="evenodd" d="M15.6212 64.373C26.4256 64.373 45.6357 64.373 45.6357 64.373C52.5868 64.373 57.0823 64.6374 61.2379 60.4441C64.8079 56.8741 64.5057 50.8674 64.7323 46.1074C60.709 52.1519 53.3234 51.9441 47.619 51.9441C47.619 51.9441 20.929 51.9441 10.9556 51.9441C0.982316 51.963 4.81676 64.373 15.6212 64.373Z" fill="#FEF5EB"/>
<path d="M12.4854 53.5312H23.1387V61.5213L17.812 58.8579L12.4854 61.5213V53.5312Z" fill="#F19C33"/>
<mask id="path-5-outside-1_23632_22765" maskUnits="userSpaceOnUse" x="8.10156" y="17.2266" width="52" height="14" fill="black">
<rect fill="white" x="8.10156" y="17.2266" width="52" height="14"/>
<path d="M13.2712 25.3646C14.2245 25.4946 14.9048 25.7719 15.3122 26.1966C15.7195 26.6126 15.9232 27.1152 15.9232 27.7046C15.9232 28.1986 15.7975 28.6362 15.5462 29.0176C15.2948 29.3989 14.9352 29.6979 14.4672 29.9146C13.9992 30.1226 13.4445 30.2266 12.8032 30.2266C12.5692 30.2266 12.3698 30.2222 12.2052 30.2136C11.6505 30.1962 11.1045 30.1876 10.5672 30.1876C9.85651 30.1876 9.31918 30.2006 8.95518 30.2266V29.9666C9.26718 29.9492 9.49251 29.9146 9.63118 29.8626C9.77851 29.8106 9.87818 29.7109 9.93018 29.5636C9.98218 29.4162 10.0082 29.1779 10.0082 28.8486V22.4006C10.0082 22.0712 9.98218 21.8329 9.93018 21.6856C9.87818 21.5382 9.77851 21.4386 9.63118 21.3866C9.49251 21.3346 9.26718 21.2999 8.95518 21.2826V21.0226C9.31918 21.0486 9.84785 21.0616 10.5412 21.0616L11.9452 21.0486C12.1098 21.0399 12.2962 21.0356 12.5042 21.0356C13.3882 21.0356 14.0642 21.2219 14.5322 21.5946C15.0088 21.9672 15.2472 22.4612 15.2472 23.0766C15.2472 23.5792 15.0868 24.0299 14.7662 24.4286C14.4542 24.8272 13.9558 25.1306 13.2712 25.3386V25.3646ZM12.1792 21.2826C11.9105 21.2826 11.7068 21.3129 11.5682 21.3736C11.4382 21.4342 11.3472 21.5426 11.2952 21.6986C11.2432 21.8546 11.2172 22.0886 11.2172 22.4006V25.3386H12.0882C12.7988 25.3386 13.2928 25.1479 13.5702 24.7666C13.8562 24.3766 13.9992 23.8609 13.9992 23.2196C13.9992 22.5696 13.8562 22.0842 13.5702 21.7636C13.2842 21.4429 12.8205 21.2826 12.1792 21.2826ZM12.1922 29.9276C13.8128 29.9276 14.6232 29.1692 14.6232 27.6526C14.6232 26.9679 14.4368 26.4479 14.0642 26.0926C13.7002 25.7372 13.1152 25.5596 12.3092 25.5596H11.2172V28.8486C11.2172 29.1606 11.2432 29.3902 11.2952 29.5376C11.3472 29.6849 11.4382 29.7889 11.5682 29.8496C11.7068 29.9016 11.9148 29.9276 12.1922 29.9276ZM20.5465 21.2826C20.2345 21.2999 20.0049 21.3346 19.8575 21.3866C19.7189 21.4386 19.6235 21.5382 19.5715 21.6856C19.5195 21.8329 19.4935 22.0712 19.4935 22.4006V28.8486C19.4935 29.1779 19.5195 29.4162 19.5715 29.5636C19.6235 29.7109 19.7189 29.8106 19.8575 29.8626C20.0049 29.9146 20.2345 29.9492 20.5465 29.9666V30.2266C20.1479 30.2006 19.5975 30.1876 18.8955 30.1876C18.1502 30.1876 17.5955 30.2006 17.2315 30.2266V29.9666C17.5435 29.9492 17.7689 29.9146 17.9075 29.8626C18.0549 29.8106 18.1545 29.7109 18.2065 29.5636C18.2585 29.4162 18.2845 29.1779 18.2845 28.8486V22.4006C18.2845 22.0712 18.2585 21.8329 18.2065 21.6856C18.1545 21.5382 18.0549 21.4386 17.9075 21.3866C17.7689 21.3346 17.5435 21.2999 17.2315 21.2826V21.0226C17.5955 21.0486 18.1502 21.0616 18.8955 21.0616C19.5889 21.0616 20.1392 21.0486 20.5465 21.0226V21.2826ZM26.2184 25.3646C27.1718 25.4946 27.8521 25.7719 28.2594 26.1966C28.6668 26.6126 28.8704 27.1152 28.8704 27.7046C28.8704 28.1986 28.7448 28.6362 28.4934 29.0176C28.2421 29.3989 27.8824 29.6979 27.4144 29.9146C26.9464 30.1226 26.3918 30.2266 25.7504 30.2266C25.5164 30.2266 25.3171 30.2222 25.1524 30.2136C24.5978 30.1962 24.0518 30.1876 23.5144 30.1876C22.8038 30.1876 22.2664 30.2006 21.9024 30.2266V29.9666C22.2144 29.9492 22.4398 29.9146 22.5784 29.8626C22.7258 29.8106 22.8254 29.7109 22.8774 29.5636C22.9294 29.4162 22.9554 29.1779 22.9554 28.8486V22.4006C22.9554 22.0712 22.9294 21.8329 22.8774 21.6856C22.8254 21.5382 22.7258 21.4386 22.5784 21.3866C22.4398 21.3346 22.2144 21.2999 21.9024 21.2826V21.0226C22.2664 21.0486 22.7951 21.0616 23.4884 21.0616L24.8924 21.0486C25.0571 21.0399 25.2434 21.0356 25.4514 21.0356C26.3354 21.0356 27.0114 21.2219 27.4794 21.5946C27.9561 21.9672 28.1944 22.4612 28.1944 23.0766C28.1944 23.5792 28.0341 24.0299 27.7134 24.4286C27.4014 24.8272 26.9031 25.1306 26.2184 25.3386V25.3646ZM25.1264 21.2826C24.8578 21.2826 24.6541 21.3129 24.5154 21.3736C24.3854 21.4342 24.2944 21.5426 24.2424 21.6986C24.1904 21.8546 24.1644 22.0886 24.1644 22.4006V25.3386H25.0354C25.7461 25.3386 26.2401 25.1479 26.5174 24.7666C26.8034 24.3766 26.9464 23.8609 26.9464 23.2196C26.9464 22.5696 26.8034 22.0842 26.5174 21.7636C26.2314 21.4429 25.7678 21.2826 25.1264 21.2826ZM25.1394 29.9276C26.7601 29.9276 27.5704 29.1692 27.5704 27.6526C27.5704 26.9679 27.3841 26.4479 27.0114 26.0926C26.6474 25.7372 26.0624 25.5596 25.2564 25.5596H24.1644V28.8486C24.1644 29.1606 24.1904 29.3902 24.2424 29.5376C24.2944 29.6849 24.3854 29.7889 24.5154 29.8496C24.6541 29.9016 24.8621 29.9276 25.1394 29.9276ZM33.4938 21.2826C33.1818 21.2999 32.9521 21.3346 32.8048 21.3866C32.6661 21.4386 32.5708 21.5382 32.5188 21.6856C32.4668 21.8329 32.4408 22.0712 32.4408 22.4006V28.8486C32.4408 29.1779 32.4668 29.4162 32.5188 29.5636C32.5708 29.7109 32.6661 29.8106 32.8048 29.8626C32.9521 29.9059 33.1818 29.9276 33.4938 29.9276H34.4428C34.9801 29.9276 35.3875 29.8539 35.6648 29.7066C35.9508 29.5506 36.1588 29.3036 36.2888 28.9656C36.4188 28.6276 36.5141 28.1379 36.5748 27.4966H36.8738C36.8478 27.7652 36.8348 28.1206 36.8348 28.5626C36.8348 29.0566 36.8651 29.6112 36.9258 30.2266C36.3365 30.2006 35.3441 30.1876 33.9488 30.1876C32.2848 30.1876 31.0281 30.2006 30.1788 30.2266V29.9666C30.4908 29.9492 30.7161 29.9146 30.8548 29.8626C31.0021 29.8106 31.1018 29.7109 31.1538 29.5636C31.2058 29.4162 31.2318 29.1779 31.2318 28.8486V22.4006C31.2318 22.0712 31.2058 21.8329 31.1538 21.6856C31.1018 21.5382 31.0021 21.4386 30.8548 21.3866C30.7161 21.3346 30.4908 21.2999 30.1788 21.2826V21.0226C30.5428 21.0486 31.0975 21.0616 31.8428 21.0616C32.5361 21.0616 33.0865 21.0486 33.4938 21.0226V21.2826ZM41.402 21.2826C41.09 21.2999 40.8603 21.3346 40.713 21.3866C40.5743 21.4386 40.479 21.5382 40.427 21.6856C40.375 21.8329 40.349 22.0712 40.349 22.4006V28.8486C40.349 29.1779 40.375 29.4162 40.427 29.5636C40.479 29.7109 40.5743 29.8106 40.713 29.8626C40.8603 29.9146 41.09 29.9492 41.402 29.9666V30.2266C41.0033 30.2006 40.453 30.1876 39.751 30.1876C39.0057 30.1876 38.451 30.2006 38.087 30.2266V29.9666C38.399 29.9492 38.6243 29.9146 38.763 29.8626C38.9103 29.8106 39.01 29.7109 39.062 29.5636C39.114 29.4162 39.14 29.1779 39.14 28.8486V22.4006C39.14 22.0712 39.114 21.8329 39.062 21.6856C39.01 21.5382 38.9103 21.4386 38.763 21.3866C38.6243 21.3346 38.399 21.2999 38.087 21.2826V21.0226C38.451 21.0486 39.0057 21.0616 39.751 21.0616C40.4443 21.0616 40.9947 21.0486 41.402 21.0226V21.2826ZM41.142 18.1886C41.2807 18.1019 41.4107 18.0586 41.532 18.0586C41.6967 18.0586 41.831 18.1322 41.935 18.2796C41.987 18.3576 42.013 18.4399 42.013 18.5266C42.013 18.7172 41.896 18.8862 41.662 19.0336C41.48 19.1462 41.168 19.2849 40.726 19.4496C40.076 19.7096 39.517 19.9566 39.049 20.1906L38.958 20.0216C39.3133 19.7529 39.6167 19.5059 39.868 19.2806C40.128 19.0466 40.2883 18.9036 40.349 18.8516C40.6697 18.5482 40.934 18.3272 41.142 18.1886ZM49.5829 29.1346C49.7909 29.6719 50.0899 29.9492 50.4799 29.9666V30.2266C50.1332 30.2006 49.6696 30.1876 49.0889 30.1876C48.3436 30.1876 47.7889 30.2006 47.4249 30.2266V29.9666C47.7542 29.9492 47.9882 29.9102 48.1269 29.8496C48.2742 29.7802 48.3479 29.6589 48.3479 29.4856C48.3479 29.3382 48.2959 29.1346 48.1919 28.8746L47.3989 26.7426H44.2529L43.7199 28.1206C43.5466 28.5886 43.4599 28.9439 43.4599 29.1866C43.4599 29.4552 43.5509 29.6502 43.7329 29.7716C43.9236 29.8929 44.2096 29.9579 44.5909 29.9666V30.2266C44.0969 30.2006 43.5986 30.1876 43.0959 30.1876C42.7059 30.1876 42.3809 30.2006 42.1209 30.2266V29.9666C42.5542 29.8626 42.8966 29.4856 43.1479 28.8356L46.2029 20.9576H46.4109L49.5829 29.1346ZM47.2949 26.4826L45.8389 22.5956L44.3569 26.4826H47.2949ZM59.1221 21.2826C58.8188 21.2999 58.5934 21.3476 58.4461 21.4256C58.2988 21.4949 58.1991 21.6162 58.1471 21.7896C58.0951 21.9542 58.0691 22.2012 58.0691 22.5306V30.2916H57.7701L52.3101 21.8546V28.7186C52.3101 29.0566 52.3361 29.3079 52.3881 29.4726C52.4488 29.6372 52.5614 29.7586 52.7261 29.8366C52.8908 29.9059 53.1464 29.9492 53.4931 29.9666V30.2266C53.1811 30.2006 52.7391 30.1876 52.1671 30.1876C51.6471 30.1876 51.2441 30.2006 50.9581 30.2266V29.9666C51.2614 29.9492 51.4868 29.9059 51.6341 29.8366C51.7814 29.7586 51.8811 29.6372 51.9331 29.4726C51.9851 29.2992 52.0111 29.0479 52.0111 28.7186V22.4006C52.0111 22.0712 51.9851 21.8329 51.9331 21.6856C51.8811 21.5382 51.7814 21.4386 51.6341 21.3866C51.4954 21.3346 51.2701 21.2999 50.9581 21.2826V21.0226C51.2441 21.0486 51.6471 21.0616 52.1671 21.0616C52.5571 21.0616 52.8951 21.0486 53.1811 21.0226L57.7701 28.0946V22.5306C57.7701 22.1926 57.7398 21.9412 57.6791 21.7766C57.6271 21.6119 57.5188 21.4949 57.3541 21.4256C57.1894 21.3476 56.9338 21.2999 56.5871 21.2826V21.0226C56.8991 21.0486 57.3411 21.0616 57.9131 21.0616C58.4331 21.0616 58.8361 21.0486 59.1221 21.0226V21.2826Z"/>
</mask>
<path d="M13.2712 25.3646C14.2245 25.4946 14.9048 25.7719 15.3122 26.1966C15.7195 26.6126 15.9232 27.1152 15.9232 27.7046C15.9232 28.1986 15.7975 28.6362 15.5462 29.0176C15.2948 29.3989 14.9352 29.6979 14.4672 29.9146C13.9992 30.1226 13.4445 30.2266 12.8032 30.2266C12.5692 30.2266 12.3698 30.2222 12.2052 30.2136C11.6505 30.1962 11.1045 30.1876 10.5672 30.1876C9.85651 30.1876 9.31918 30.2006 8.95518 30.2266V29.9666C9.26718 29.9492 9.49251 29.9146 9.63118 29.8626C9.77851 29.8106 9.87818 29.7109 9.93018 29.5636C9.98218 29.4162 10.0082 29.1779 10.0082 28.8486V22.4006C10.0082 22.0712 9.98218 21.8329 9.93018 21.6856C9.87818 21.5382 9.77851 21.4386 9.63118 21.3866C9.49251 21.3346 9.26718 21.2999 8.95518 21.2826V21.0226C9.31918 21.0486 9.84785 21.0616 10.5412 21.0616L11.9452 21.0486C12.1098 21.0399 12.2962 21.0356 12.5042 21.0356C13.3882 21.0356 14.0642 21.2219 14.5322 21.5946C15.0088 21.9672 15.2472 22.4612 15.2472 23.0766C15.2472 23.5792 15.0868 24.0299 14.7662 24.4286C14.4542 24.8272 13.9558 25.1306 13.2712 25.3386V25.3646ZM12.1792 21.2826C11.9105 21.2826 11.7068 21.3129 11.5682 21.3736C11.4382 21.4342 11.3472 21.5426 11.2952 21.6986C11.2432 21.8546 11.2172 22.0886 11.2172 22.4006V25.3386H12.0882C12.7988 25.3386 13.2928 25.1479 13.5702 24.7666C13.8562 24.3766 13.9992 23.8609 13.9992 23.2196C13.9992 22.5696 13.8562 22.0842 13.5702 21.7636C13.2842 21.4429 12.8205 21.2826 12.1792 21.2826ZM12.1922 29.9276C13.8128 29.9276 14.6232 29.1692 14.6232 27.6526C14.6232 26.9679 14.4368 26.4479 14.0642 26.0926C13.7002 25.7372 13.1152 25.5596 12.3092 25.5596H11.2172V28.8486C11.2172 29.1606 11.2432 29.3902 11.2952 29.5376C11.3472 29.6849 11.4382 29.7889 11.5682 29.8496C11.7068 29.9016 11.9148 29.9276 12.1922 29.9276ZM20.5465 21.2826C20.2345 21.2999 20.0049 21.3346 19.8575 21.3866C19.7189 21.4386 19.6235 21.5382 19.5715 21.6856C19.5195 21.8329 19.4935 22.0712 19.4935 22.4006V28.8486C19.4935 29.1779 19.5195 29.4162 19.5715 29.5636C19.6235 29.7109 19.7189 29.8106 19.8575 29.8626C20.0049 29.9146 20.2345 29.9492 20.5465 29.9666V30.2266C20.1479 30.2006 19.5975 30.1876 18.8955 30.1876C18.1502 30.1876 17.5955 30.2006 17.2315 30.2266V29.9666C17.5435 29.9492 17.7689 29.9146 17.9075 29.8626C18.0549 29.8106 18.1545 29.7109 18.2065 29.5636C18.2585 29.4162 18.2845 29.1779 18.2845 28.8486V22.4006C18.2845 22.0712 18.2585 21.8329 18.2065 21.6856C18.1545 21.5382 18.0549 21.4386 17.9075 21.3866C17.7689 21.3346 17.5435 21.2999 17.2315 21.2826V21.0226C17.5955 21.0486 18.1502 21.0616 18.8955 21.0616C19.5889 21.0616 20.1392 21.0486 20.5465 21.0226V21.2826ZM26.2184 25.3646C27.1718 25.4946 27.8521 25.7719 28.2594 26.1966C28.6668 26.6126 28.8704 27.1152 28.8704 27.7046C28.8704 28.1986 28.7448 28.6362 28.4934 29.0176C28.2421 29.3989 27.8824 29.6979 27.4144 29.9146C26.9464 30.1226 26.3918 30.2266 25.7504 30.2266C25.5164 30.2266 25.3171 30.2222 25.1524 30.2136C24.5978 30.1962 24.0518 30.1876 23.5144 30.1876C22.8038 30.1876 22.2664 30.2006 21.9024 30.2266V29.9666C22.2144 29.9492 22.4398 29.9146 22.5784 29.8626C22.7258 29.8106 22.8254 29.7109 22.8774 29.5636C22.9294 29.4162 22.9554 29.1779 22.9554 28.8486V22.4006C22.9554 22.0712 22.9294 21.8329 22.8774 21.6856C22.8254 21.5382 22.7258 21.4386 22.5784 21.3866C22.4398 21.3346 22.2144 21.2999 21.9024 21.2826V21.0226C22.2664 21.0486 22.7951 21.0616 23.4884 21.0616L24.8924 21.0486C25.0571 21.0399 25.2434 21.0356 25.4514 21.0356C26.3354 21.0356 27.0114 21.2219 27.4794 21.5946C27.9561 21.9672 28.1944 22.4612 28.1944 23.0766C28.1944 23.5792 28.0341 24.0299 27.7134 24.4286C27.4014 24.8272 26.9031 25.1306 26.2184 25.3386V25.3646ZM25.1264 21.2826C24.8578 21.2826 24.6541 21.3129 24.5154 21.3736C24.3854 21.4342 24.2944 21.5426 24.2424 21.6986C24.1904 21.8546 24.1644 22.0886 24.1644 22.4006V25.3386H25.0354C25.7461 25.3386 26.2401 25.1479 26.5174 24.7666C26.8034 24.3766 26.9464 23.8609 26.9464 23.2196C26.9464 22.5696 26.8034 22.0842 26.5174 21.7636C26.2314 21.4429 25.7678 21.2826 25.1264 21.2826ZM25.1394 29.9276C26.7601 29.9276 27.5704 29.1692 27.5704 27.6526C27.5704 26.9679 27.3841 26.4479 27.0114 26.0926C26.6474 25.7372 26.0624 25.5596 25.2564 25.5596H24.1644V28.8486C24.1644 29.1606 24.1904 29.3902 24.2424 29.5376C24.2944 29.6849 24.3854 29.7889 24.5154 29.8496C24.6541 29.9016 24.8621 29.9276 25.1394 29.9276ZM33.4938 21.2826C33.1818 21.2999 32.9521 21.3346 32.8048 21.3866C32.6661 21.4386 32.5708 21.5382 32.5188 21.6856C32.4668 21.8329 32.4408 22.0712 32.4408 22.4006V28.8486C32.4408 29.1779 32.4668 29.4162 32.5188 29.5636C32.5708 29.7109 32.6661 29.8106 32.8048 29.8626C32.9521 29.9059 33.1818 29.9276 33.4938 29.9276H34.4428C34.9801 29.9276 35.3875 29.8539 35.6648 29.7066C35.9508 29.5506 36.1588 29.3036 36.2888 28.9656C36.4188 28.6276 36.5141 28.1379 36.5748 27.4966H36.8738C36.8478 27.7652 36.8348 28.1206 36.8348 28.5626C36.8348 29.0566 36.8651 29.6112 36.9258 30.2266C36.3365 30.2006 35.3441 30.1876 33.9488 30.1876C32.2848 30.1876 31.0281 30.2006 30.1788 30.2266V29.9666C30.4908 29.9492 30.7161 29.9146 30.8548 29.8626C31.0021 29.8106 31.1018 29.7109 31.1538 29.5636C31.2058 29.4162 31.2318 29.1779 31.2318 28.8486V22.4006C31.2318 22.0712 31.2058 21.8329 31.1538 21.6856C31.1018 21.5382 31.0021 21.4386 30.8548 21.3866C30.7161 21.3346 30.4908 21.2999 30.1788 21.2826V21.0226C30.5428 21.0486 31.0975 21.0616 31.8428 21.0616C32.5361 21.0616 33.0865 21.0486 33.4938 21.0226V21.2826ZM41.402 21.2826C41.09 21.2999 40.8603 21.3346 40.713 21.3866C40.5743 21.4386 40.479 21.5382 40.427 21.6856C40.375 21.8329 40.349 22.0712 40.349 22.4006V28.8486C40.349 29.1779 40.375 29.4162 40.427 29.5636C40.479 29.7109 40.5743 29.8106 40.713 29.8626C40.8603 29.9146 41.09 29.9492 41.402 29.9666V30.2266C41.0033 30.2006 40.453 30.1876 39.751 30.1876C39.0057 30.1876 38.451 30.2006 38.087 30.2266V29.9666C38.399 29.9492 38.6243 29.9146 38.763 29.8626C38.9103 29.8106 39.01 29.7109 39.062 29.5636C39.114 29.4162 39.14 29.1779 39.14 28.8486V22.4006C39.14 22.0712 39.114 21.8329 39.062 21.6856C39.01 21.5382 38.9103 21.4386 38.763 21.3866C38.6243 21.3346 38.399 21.2999 38.087 21.2826V21.0226C38.451 21.0486 39.0057 21.0616 39.751 21.0616C40.4443 21.0616 40.9947 21.0486 41.402 21.0226V21.2826ZM41.142 18.1886C41.2807 18.1019 41.4107 18.0586 41.532 18.0586C41.6967 18.0586 41.831 18.1322 41.935 18.2796C41.987 18.3576 42.013 18.4399 42.013 18.5266C42.013 18.7172 41.896 18.8862 41.662 19.0336C41.48 19.1462 41.168 19.2849 40.726 19.4496C40.076 19.7096 39.517 19.9566 39.049 20.1906L38.958 20.0216C39.3133 19.7529 39.6167 19.5059 39.868 19.2806C40.128 19.0466 40.2883 18.9036 40.349 18.8516C40.6697 18.5482 40.934 18.3272 41.142 18.1886ZM49.5829 29.1346C49.7909 29.6719 50.0899 29.9492 50.4799 29.9666V30.2266C50.1332 30.2006 49.6696 30.1876 49.0889 30.1876C48.3436 30.1876 47.7889 30.2006 47.4249 30.2266V29.9666C47.7542 29.9492 47.9882 29.9102 48.1269 29.8496C48.2742 29.7802 48.3479 29.6589 48.3479 29.4856C48.3479 29.3382 48.2959 29.1346 48.1919 28.8746L47.3989 26.7426H44.2529L43.7199 28.1206C43.5466 28.5886 43.4599 28.9439 43.4599 29.1866C43.4599 29.4552 43.5509 29.6502 43.7329 29.7716C43.9236 29.8929 44.2096 29.9579 44.5909 29.9666V30.2266C44.0969 30.2006 43.5986 30.1876 43.0959 30.1876C42.7059 30.1876 42.3809 30.2006 42.1209 30.2266V29.9666C42.5542 29.8626 42.8966 29.4856 43.1479 28.8356L46.2029 20.9576H46.4109L49.5829 29.1346ZM47.2949 26.4826L45.8389 22.5956L44.3569 26.4826H47.2949ZM59.1221 21.2826C58.8188 21.2999 58.5934 21.3476 58.4461 21.4256C58.2988 21.4949 58.1991 21.6162 58.1471 21.7896C58.0951 21.9542 58.0691 22.2012 58.0691 22.5306V30.2916H57.7701L52.3101 21.8546V28.7186C52.3101 29.0566 52.3361 29.3079 52.3881 29.4726C52.4488 29.6372 52.5614 29.7586 52.7261 29.8366C52.8908 29.9059 53.1464 29.9492 53.4931 29.9666V30.2266C53.1811 30.2006 52.7391 30.1876 52.1671 30.1876C51.6471 30.1876 51.2441 30.2006 50.9581 30.2266V29.9666C51.2614 29.9492 51.4868 29.9059 51.6341 29.8366C51.7814 29.7586 51.8811 29.6372 51.9331 29.4726C51.9851 29.2992 52.0111 29.0479 52.0111 28.7186V22.4006C52.0111 22.0712 51.9851 21.8329 51.9331 21.6856C51.8811 21.5382 51.7814 21.4386 51.6341 21.3866C51.4954 21.3346 51.2701 21.2999 50.9581 21.2826V21.0226C51.2441 21.0486 51.6471 21.0616 52.1671 21.0616C52.5571 21.0616 52.8951 21.0486 53.1811 21.0226L57.7701 28.0946V22.5306C57.7701 22.1926 57.7398 21.9412 57.6791 21.7766C57.6271 21.6119 57.5188 21.4949 57.3541 21.4256C57.1894 21.3476 56.9338 21.2999 56.5871 21.2826V21.0226C56.8991 21.0486 57.3411 21.0616 57.9131 21.0616C58.4331 21.0616 58.8361 21.0486 59.1221 21.0226V21.2826Z" fill="#FEF5EB"/>
<path d="M13.2712 25.3646H13.0684V25.5415L13.2438 25.5654L13.2712 25.3646ZM15.3122 26.1966L15.1659 26.3369L15.1673 26.3384L15.3122 26.1966ZM15.5462 29.0176L15.7155 29.1291V29.1291L15.5462 29.0176ZM14.4672 29.9146L14.5495 30.0998L14.5524 30.0985L14.4672 29.9146ZM12.2052 30.2136L12.2158 30.0111L12.2115 30.0109L12.2052 30.2136ZM8.95518 30.2266H8.75244V30.4443L8.96962 30.4288L8.95518 30.2266ZM8.95518 29.9666L8.94393 29.7641L8.75244 29.7748V29.9666H8.95518ZM9.63118 29.8626L9.56369 29.6713L9.55999 29.6727L9.63118 29.8626ZM9.93018 21.6856L9.739 21.753H9.739L9.93018 21.6856ZM9.63118 21.3866L9.55998 21.5764L9.5637 21.5777L9.63118 21.3866ZM8.95518 21.2826H8.75244V21.4743L8.94393 21.485L8.95518 21.2826ZM8.95518 21.0226L8.96962 20.8203L8.75244 20.8048V21.0226H8.95518ZM10.5412 21.0616V21.2643L10.5431 21.2643L10.5412 21.0616ZM11.9452 21.0486L11.9471 21.2515L11.9558 21.251L11.9452 21.0486ZM14.5322 21.5946L14.4059 21.7532L14.4073 21.7543L14.5322 21.5946ZM14.7662 24.4286L14.6082 24.3015L14.6065 24.3036L14.7662 24.4286ZM13.2712 25.3386L13.2122 25.1446L13.0684 25.1883V25.3386H13.2712ZM11.5682 21.3736L11.4869 21.1878L11.4824 21.1898L11.5682 21.3736ZM11.2952 21.6986L11.4875 21.7627V21.7627L11.2952 21.6986ZM11.2172 25.3386H11.0144V25.5413H11.2172V25.3386ZM13.5702 24.7666L13.4067 24.6467L13.4062 24.6473L13.5702 24.7666ZM14.0642 26.0926L13.9226 26.2376L13.9243 26.2393L14.0642 26.0926ZM11.2172 25.5596V25.3568H11.0144V25.5596H11.2172ZM11.2952 29.5376L11.4864 29.4701V29.4701L11.2952 29.5376ZM11.5682 29.8496L11.4824 30.0333L11.4896 30.0366L11.497 30.0394L11.5682 29.8496ZM13.2438 25.5654C14.1784 25.6929 14.8048 25.9605 15.1659 26.3369L15.4585 26.0562C15.0049 25.5833 14.2706 25.2962 13.2986 25.1637L13.2438 25.5654ZM15.1673 26.3384C15.537 26.716 15.7204 27.1675 15.7204 27.7046H16.1259C16.1259 27.0629 15.902 26.5091 15.457 26.0547L15.1673 26.3384ZM15.7204 27.7046C15.7204 28.1623 15.6046 28.5605 15.3769 28.906L15.7155 29.1291C15.9904 28.712 16.1259 28.2348 16.1259 27.7046H15.7204ZM15.3769 28.906C15.1489 29.2519 14.8203 29.5277 14.382 29.7306L14.5524 30.0985C15.05 29.8681 15.4408 29.5459 15.7155 29.1291L15.3769 28.906ZM14.3848 29.7293C13.9484 29.9233 13.4231 30.0238 12.8032 30.0238V30.4293C13.4659 30.4293 14.0499 30.3219 14.5495 30.0998L14.3848 29.7293ZM12.8032 30.0238C12.5714 30.0238 12.3758 30.0195 12.2158 30.0111L12.1945 30.416C12.3639 30.4249 12.567 30.4293 12.8032 30.4293V30.0238ZM12.2115 30.0109C11.6548 29.9935 11.1067 29.9848 10.5672 29.9848V30.3903C11.1023 30.3903 11.6462 30.3989 12.1988 30.4162L12.2115 30.0109ZM10.5672 29.9848C9.85529 29.9848 9.31214 29.9978 8.94074 30.0243L8.96962 30.4288C9.32622 30.4033 9.85773 30.3903 10.5672 30.3903V29.9848ZM9.15792 30.2266V29.9666H8.75244V30.2266H9.15792ZM8.96643 30.169C9.28141 30.1515 9.53301 30.1159 9.70237 30.0524L9.55999 29.6727C9.45201 29.7132 9.25295 29.747 8.94393 29.7641L8.96643 30.169ZM9.69865 30.0537C9.90381 29.9813 10.049 29.8362 10.1214 29.631L9.739 29.4961C9.70741 29.5856 9.65322 29.6398 9.5637 29.6714L9.69865 30.0537ZM10.1214 29.631C10.1856 29.4491 10.2109 29.1812 10.2109 28.8486H9.80544C9.80544 29.1746 9.77878 29.3834 9.739 29.4961L10.1214 29.631ZM10.2109 28.8486V22.4006H9.80544V28.8486H10.2109ZM10.2109 22.4006C10.2109 22.0679 10.1856 21.8 10.1214 21.6181L9.739 21.753C9.77878 21.8657 9.80544 22.0745 9.80544 22.4006H10.2109ZM10.1214 21.6181C10.049 21.4129 9.90381 21.2678 9.69865 21.1954L9.5637 21.5777C9.65322 21.6093 9.70741 21.6635 9.739 21.753L10.1214 21.6181ZM9.70237 21.1967C9.53302 21.1332 9.28141 21.0976 8.96643 21.0801L8.94393 21.485C9.25295 21.5022 9.45201 21.5359 9.55999 21.5764L9.70237 21.1967ZM9.15792 21.2826V21.0226H8.75244V21.2826H9.15792ZM8.94074 21.2248C9.31207 21.2513 9.84649 21.2643 10.5412 21.2643V20.8588C9.84921 20.8588 9.32629 20.8458 8.96962 20.8203L8.94074 21.2248ZM10.5431 21.2643L11.9471 21.2513L11.9433 20.8458L10.5393 20.8588L10.5431 21.2643ZM11.9558 21.251C12.1162 21.2426 12.2989 21.2383 12.5042 21.2383V20.8328C12.2935 20.8328 12.1035 20.8372 11.9345 20.8461L11.9558 21.251ZM12.5042 21.2383C13.3634 21.2383 13.9874 21.4199 14.4059 21.7532L14.6585 21.436C14.141 21.0239 13.413 20.8328 12.5042 20.8328V21.2383ZM14.4073 21.7543C14.8339 22.0878 15.0444 22.5224 15.0444 23.0766H15.4499C15.4499 22.4001 15.1838 21.8467 14.6571 21.4348L14.4073 21.7543ZM15.0444 23.0766C15.0444 23.5321 14.9005 23.9381 14.6082 24.3015L14.9242 24.5556C15.2732 24.1216 15.4499 23.6263 15.4499 23.0766H15.0444ZM14.6065 24.3036C14.3288 24.6584 13.873 24.9439 13.2122 25.1446L13.3301 25.5325C14.0387 25.3173 14.5795 24.996 14.9258 24.5535L14.6065 24.3036ZM13.0684 25.3386V25.3646H13.4739V25.3386H13.0684ZM12.1792 21.0798C11.9009 21.0798 11.6639 21.1104 11.4869 21.1878L11.6494 21.5593C11.7498 21.5154 11.9201 21.4853 12.1792 21.4853V21.0798ZM11.4824 21.1898C11.2945 21.2776 11.1696 21.4341 11.1028 21.6345L11.4875 21.7627C11.5247 21.651 11.5819 21.5909 11.6539 21.5573L11.4824 21.1898ZM11.1028 21.6345C11.0403 21.8221 11.0144 22.0826 11.0144 22.4006H11.4199C11.4199 22.0945 11.4461 21.887 11.4875 21.7627L11.1028 21.6345ZM11.0144 22.4006V25.3386H11.4199V22.4006H11.0144ZM11.2172 25.5413H12.0882V25.1358H11.2172V25.5413ZM12.0882 25.5413C12.8295 25.5413 13.4022 25.3422 13.7341 24.8858L13.4062 24.6473C13.1835 24.9536 12.7682 25.1358 12.0882 25.1358V25.5413ZM13.7337 24.8865C14.0523 24.4519 14.2019 23.8901 14.2019 23.2196H13.7964C13.7964 23.8317 13.66 24.3012 13.4067 24.6467L13.7337 24.8865ZM14.2019 23.2196C14.2019 22.5445 14.054 22.0015 13.7215 21.6286L13.4189 21.8985C13.6583 22.167 13.7964 22.5946 13.7964 23.2196H14.2019ZM13.7215 21.6286C13.3813 21.2472 12.8496 21.0798 12.1792 21.0798V21.4853C12.7914 21.4853 13.187 21.6385 13.4189 21.8985L13.7215 21.6286ZM12.1922 30.1303C13.0305 30.1303 13.6971 29.9344 14.154 29.5068C14.6134 29.0769 14.8259 28.4457 14.8259 27.6526H14.4204C14.4204 28.3761 14.2278 28.8824 13.8769 29.2108C13.5235 29.5415 12.9745 29.7248 12.1922 29.7248V30.1303ZM14.8259 27.6526C14.8259 26.9315 14.6288 26.3508 14.2041 25.9458L13.9243 26.2393C14.2449 26.545 14.4204 27.0043 14.4204 27.6526H14.8259ZM14.2058 25.9475C13.7869 25.5386 13.1383 25.3568 12.3092 25.3568V25.7623C13.092 25.7623 13.6134 25.9359 13.9226 26.2376L14.2058 25.9475ZM12.3092 25.3568H11.2172V25.7623H12.3092V25.3568ZM11.0144 25.5596V28.8486H11.4199V25.5596H11.0144ZM11.0144 28.8486C11.0144 29.1654 11.04 29.4238 11.104 29.605L11.4864 29.4701C11.4463 29.3567 11.4199 29.1558 11.4199 28.8486H11.0144ZM11.104 29.605C11.1723 29.7986 11.2985 29.9474 11.4824 30.0333L11.6539 29.6658C11.5779 29.6304 11.522 29.5711 11.4864 29.4701L11.104 29.605ZM11.497 30.0394C11.6704 30.1044 11.9079 30.1303 12.1922 30.1303V29.7248C11.9218 29.7248 11.7433 29.6987 11.6394 29.6597L11.497 30.0394ZM20.5465 21.2826L20.5578 21.485L20.7493 21.4743V21.2826H20.5465ZM19.8575 21.3866L19.7901 21.1953L19.7864 21.1967L19.8575 21.3866ZM19.5715 21.6856L19.7627 21.753V21.753L19.5715 21.6856ZM19.5715 29.5636L19.7627 29.4961V29.4961L19.5715 29.5636ZM19.8575 29.8626L19.7863 30.0524L19.7901 30.0537L19.8575 29.8626ZM20.5465 29.9666H20.7493V29.7748L20.5578 29.7641L20.5465 29.9666ZM20.5465 30.2266L20.5334 30.4289L20.7493 30.443V30.2266H20.5465ZM17.2315 30.2266H17.0288V30.4443L17.246 30.4288L17.2315 30.2266ZM17.2315 29.9666L17.2203 29.7641L17.0288 29.7748V29.9666H17.2315ZM17.9075 29.8626L17.8401 29.6713L17.8364 29.6727L17.9075 29.8626ZM18.2065 21.6856L18.0154 21.753V21.753L18.2065 21.6856ZM17.9075 21.3866L17.8363 21.5764L17.8401 21.5777L17.9075 21.3866ZM17.2315 21.2826H17.0288V21.4743L17.2203 21.485L17.2315 21.2826ZM17.2315 21.0226L17.246 20.8203L17.0288 20.8048V21.0226H17.2315ZM20.5465 21.0226H20.7493V20.8065L20.5336 20.8202L20.5465 21.0226ZM20.5353 21.0801C20.2192 21.0977 19.9657 21.1334 19.7901 21.1954L19.925 21.5777C20.044 21.5357 20.2498 21.5021 20.5578 21.485L20.5353 21.0801ZM19.7864 21.1967C19.5881 21.2711 19.4511 21.4178 19.3804 21.6181L19.7627 21.753C19.796 21.6587 19.8496 21.6061 19.9287 21.5764L19.7864 21.1967ZM19.3804 21.6181C19.3161 21.8 19.2908 22.0679 19.2908 22.4006H19.6963C19.6963 22.0745 19.7229 21.8657 19.7627 21.753L19.3804 21.6181ZM19.2908 22.4006V28.8486H19.6963V22.4006H19.2908ZM19.2908 28.8486C19.2908 29.1812 19.3161 29.4491 19.3804 29.631L19.7627 29.4961C19.7229 29.3834 19.6963 29.1746 19.6963 28.8486H19.2908ZM19.3804 29.631C19.4511 29.8313 19.5881 29.9781 19.7864 30.0524L19.9287 29.6727C19.8496 29.6431 19.796 29.5905 19.7627 29.4961L19.3804 29.631ZM19.7901 30.0537C19.9657 30.1157 20.2192 30.1514 20.5353 30.169L20.5578 29.7641C20.2498 29.747 20.044 29.7134 19.925 29.6714L19.7901 30.0537ZM20.3438 29.9666V30.2266H20.7493V29.9666H20.3438ZM20.5597 30.0243C20.1546 29.9978 19.5992 29.9848 18.8955 29.9848V30.3903C19.5959 30.3903 20.1412 30.4033 20.5334 30.4289L20.5597 30.0243ZM18.8955 29.9848C18.1493 29.9848 17.5886 29.9978 17.2171 30.0243L17.246 30.4288C17.6025 30.4033 18.1512 30.3903 18.8955 30.3903V29.9848ZM17.4343 30.2266V29.9666H17.0288V30.2266H17.4343ZM17.2428 30.169C17.5578 30.1515 17.8094 30.1159 17.9787 30.0524L17.8364 29.6727C17.7284 29.7132 17.5293 29.747 17.2203 29.7641L17.2428 30.169ZM17.975 30.0537C18.1802 29.9813 18.3253 29.8362 18.3977 29.631L18.0154 29.4961C17.9838 29.5856 17.9296 29.6398 17.8401 29.6714L17.975 30.0537ZM18.3977 29.631C18.4619 29.4491 18.4873 29.1812 18.4873 28.8486H18.0818C18.0818 29.1746 18.0551 29.3834 18.0154 29.4961L18.3977 29.631ZM18.4873 28.8486V22.4006H18.0818V28.8486H18.4873ZM18.4873 22.4006C18.4873 22.0679 18.4619 21.8 18.3977 21.6181L18.0154 21.753C18.0551 21.8657 18.0818 22.0745 18.0818 22.4006H18.4873ZM18.3977 21.6181C18.3253 21.4129 18.1802 21.2678 17.975 21.1954L17.8401 21.5777C17.9296 21.6093 17.9838 21.6635 18.0154 21.753L18.3977 21.6181ZM17.9787 21.1967C17.8094 21.1332 17.5578 21.0976 17.2428 21.0801L17.2203 21.485C17.5293 21.5022 17.7284 21.5359 17.8364 21.5764L17.9787 21.1967ZM17.4343 21.2826V21.0226H17.0288V21.2826H17.4343ZM17.2171 21.2248C17.5886 21.2513 18.1493 21.2643 18.8955 21.2643V20.8588C18.1512 20.8588 17.6025 20.8458 17.246 20.8203L17.2171 21.2248ZM18.8955 21.2643C19.5907 21.2643 20.1459 21.2513 20.5595 21.2249L20.5336 20.8202C20.1325 20.8458 19.5871 20.8588 18.8955 20.8588V21.2643ZM20.3438 21.0226V21.2826H20.7493V21.0226H20.3438ZM26.2184 25.3646H26.0157V25.5415L26.1911 25.5654L26.2184 25.3646ZM28.2594 26.1966L28.1131 26.3369L28.1146 26.3384L28.2594 26.1966ZM28.4934 29.0176L28.6627 29.1291V29.1291L28.4934 29.0176ZM27.4144 29.9146L27.4968 30.0998L27.4996 30.0985L27.4144 29.9146ZM25.1524 30.2136L25.1631 30.0111L25.1588 30.0109L25.1524 30.2136ZM21.9024 30.2266H21.6997V30.4443L21.9169 30.4288L21.9024 30.2266ZM21.9024 29.9666L21.8912 29.7641L21.6997 29.7748V29.9666H21.9024ZM22.5784 29.8626L22.511 29.6713L22.5073 29.6727L22.5784 29.8626ZM22.8774 21.6856L22.6863 21.753V21.753L22.8774 21.6856ZM22.5784 21.3866L22.5072 21.5764L22.511 21.5777L22.5784 21.3866ZM21.9024 21.2826H21.6997V21.4743L21.8912 21.485L21.9024 21.2826ZM21.9024 21.0226L21.9169 20.8203L21.6997 20.8048V21.0226H21.9024ZM23.4884 21.0616V21.2643L23.4903 21.2643L23.4884 21.0616ZM24.8924 21.0486L24.8943 21.2515L24.9031 21.251L24.8924 21.0486ZM27.4794 21.5946L27.3531 21.7532L27.3546 21.7543L27.4794 21.5946ZM27.7134 24.4286L27.5555 24.3015L27.5538 24.3036L27.7134 24.4286ZM26.2184 25.3386L26.1595 25.1446L26.0157 25.1883V25.3386H26.2184ZM24.5154 21.3736L24.4342 21.1878L24.4297 21.1898L24.5154 21.3736ZM24.2424 21.6986L24.4348 21.7627V21.7627L24.2424 21.6986ZM24.1644 25.3386H23.9617V25.5413H24.1644V25.3386ZM26.5174 24.7666L26.354 24.6467L26.3535 24.6473L26.5174 24.7666ZM27.0114 26.0926L26.8698 26.2376L26.8715 26.2393L27.0114 26.0926ZM24.1644 25.5596V25.3568H23.9617V25.5596H24.1644ZM24.2424 29.5376L24.4336 29.4701V29.4701L24.2424 29.5376ZM24.5154 29.8496L24.4297 30.0333L24.4369 30.0366L24.4443 30.0394L24.5154 29.8496ZM26.1911 25.5654C27.1256 25.6929 27.7521 25.9605 28.1131 26.3369L28.4058 26.0562C27.9522 25.5833 27.2179 25.2962 26.2458 25.1637L26.1911 25.5654ZM28.1146 26.3384C28.4843 26.716 28.6677 27.1675 28.6677 27.7046H29.0732C29.0732 27.0629 28.8492 26.5091 28.4043 26.0547L28.1146 26.3384ZM28.6677 27.7046C28.6677 28.1623 28.5519 28.5605 28.3242 28.906L28.6627 29.1291C28.9377 28.712 29.0732 28.2348 29.0732 27.7046H28.6677ZM28.3242 28.906C28.0962 29.2519 27.7676 29.5277 27.3293 29.7306L27.4996 30.0985C27.9973 29.8681 28.388 29.5459 28.6627 29.1291L28.3242 28.906ZM27.3321 29.7293C26.8957 29.9233 26.3703 30.0238 25.7504 30.0238V30.4293C26.4132 30.4293 26.9972 30.3219 27.4968 30.0998L27.3321 29.7293ZM25.7504 30.0238C25.5187 30.0238 25.3231 30.0195 25.1631 30.0111L25.1418 30.416C25.3111 30.4249 25.5142 30.4293 25.7504 30.4293V30.0238ZM25.1588 30.0109C24.6021 29.9935 24.054 29.9848 23.5144 29.9848V30.3903C24.0496 30.3903 24.5935 30.3989 25.1461 30.4162L25.1588 30.0109ZM23.5144 29.9848C22.8026 29.9848 22.2594 29.9978 21.888 30.0243L21.9169 30.4288C22.2735 30.4033 22.805 30.3903 23.5144 30.3903V29.9848ZM22.1052 30.2266V29.9666H21.6997V30.2266H22.1052ZM21.9137 30.169C22.2287 30.1515 22.4803 30.1159 22.6496 30.0524L22.5073 29.6727C22.3993 29.7132 22.2002 29.747 21.8912 29.7641L21.9137 30.169ZM22.6459 30.0537C22.8511 29.9813 22.9962 29.8362 23.0686 29.631L22.6863 29.4961C22.6547 29.5856 22.6005 29.6398 22.511 29.6714L22.6459 30.0537ZM23.0686 29.631C23.1328 29.4491 23.1582 29.1812 23.1582 28.8486H22.7527C22.7527 29.1746 22.726 29.3834 22.6863 29.4961L23.0686 29.631ZM23.1582 28.8486V22.4006H22.7527V28.8486H23.1582ZM23.1582 22.4006C23.1582 22.0679 23.1328 21.8 23.0686 21.6181L22.6863 21.753C22.726 21.8657 22.7527 22.0745 22.7527 22.4006H23.1582ZM23.0686 21.6181C22.9962 21.4129 22.8511 21.2678 22.6459 21.1954L22.511 21.5777C22.6005 21.6093 22.6547 21.6635 22.6863 21.753L23.0686 21.6181ZM22.6496 21.1967C22.4803 21.1332 22.2287 21.0976 21.9137 21.0801L21.8912 21.485C22.2002 21.5022 22.3993 21.5359 22.5073 21.5764L22.6496 21.1967ZM22.1052 21.2826V21.0226H21.6997V21.2826H22.1052ZM21.888 21.2248C22.2593 21.2513 22.7938 21.2643 23.4884 21.2643V20.8588C22.7965 20.8588 22.2736 20.8458 21.9169 20.8203L21.888 21.2248ZM23.4903 21.2643L24.8943 21.2513L24.8906 20.8458L23.4866 20.8588L23.4903 21.2643ZM24.9031 21.251C25.0634 21.2426 25.2461 21.2383 25.4514 21.2383V20.8328C25.2408 20.8328 25.0508 20.8372 24.8818 20.8461L24.9031 21.251ZM25.4514 21.2383C26.3107 21.2383 26.9347 21.4199 27.3532 21.7532L27.6057 21.436C27.0882 21.0239 26.3602 20.8328 25.4514 20.8328V21.2383ZM27.3546 21.7543C27.7811 22.0878 27.9917 22.5224 27.9917 23.0766H28.3972C28.3972 22.4001 28.1311 21.8467 27.6043 21.4348L27.3546 21.7543ZM27.9917 23.0766C27.9917 23.5321 27.8477 23.9381 27.5555 24.3015L27.8714 24.5556C28.2205 24.1216 28.3972 23.6263 28.3972 23.0766H27.9917ZM27.5538 24.3036C27.2761 24.6584 26.8202 24.9439 26.1595 25.1446L26.2774 25.5325C26.986 25.3173 27.5268 24.996 27.8731 24.5535L27.5538 24.3036ZM26.0157 25.3386V25.3646H26.4212V25.3386H26.0157ZM25.1264 21.0798C24.8482 21.0798 24.6112 21.1104 24.4342 21.1878L24.5967 21.5593C24.6971 21.5154 24.8674 21.4853 25.1264 21.4853V21.0798ZM24.4297 21.1898C24.2417 21.2776 24.1169 21.4341 24.0501 21.6345L24.4348 21.7627C24.472 21.651 24.5292 21.5909 24.6012 21.5573L24.4297 21.1898ZM24.0501 21.6345C23.9875 21.8221 23.9617 22.0826 23.9617 22.4006H24.3672C24.3672 22.0945 24.3933 21.887 24.4348 21.7627L24.0501 21.6345ZM23.9617 22.4006V25.3386H24.3672V22.4006H23.9617ZM24.1644 25.5413H25.0354V25.1358H24.1644V25.5413ZM25.0354 25.5413C25.7768 25.5413 26.3495 25.3422 26.6814 24.8858L26.3535 24.6473C26.1307 24.9536 25.7155 25.1358 25.0354 25.1358V25.5413ZM26.6809 24.8865C26.9996 24.4519 27.1492 23.8901 27.1492 23.2196H26.7437C26.7437 23.8317 26.6073 24.3012 26.354 24.6467L26.6809 24.8865ZM27.1492 23.2196C27.1492 22.5445 27.0013 22.0015 26.6687 21.6286L26.3661 21.8985C26.6056 22.167 26.7437 22.5946 26.7437 23.2196H27.1492ZM26.6687 21.6286C26.3286 21.2472 25.7969 21.0798 25.1264 21.0798V21.4853C25.7387 21.4853 26.1343 21.6385 26.3661 21.8985L26.6687 21.6286ZM25.1394 30.1303C25.9778 30.1303 26.6443 29.9344 27.1012 29.5068C27.5607 29.0769 27.7732 28.4457 27.7732 27.6526H27.3677C27.3677 28.3761 27.1751 28.8824 26.8242 29.2108C26.4707 29.5415 25.9218 29.7248 25.1394 29.7248V30.1303ZM27.7732 27.6526C27.7732 26.9315 27.5761 26.3508 27.1514 25.9458L26.8715 26.2393C27.1921 26.545 27.3677 27.0043 27.3677 27.6526H27.7732ZM27.1531 25.9475C26.7342 25.5386 26.0856 25.3568 25.2564 25.3568V25.7623C26.0393 25.7623 26.5607 25.9359 26.8698 26.2376L27.1531 25.9475ZM25.2564 25.3568H24.1644V25.7623H25.2564V25.3568ZM23.9617 25.5596V28.8486H24.3672V25.5596H23.9617ZM23.9617 28.8486C23.9617 29.1654 23.9873 29.4238 24.0513 29.605L24.4336 29.4701C24.3936 29.3567 24.3672 29.1558 24.3672 28.8486H23.9617ZM24.0513 29.605C24.1196 29.7986 24.2457 29.9474 24.4297 30.0333L24.6012 29.6658C24.5252 29.6304 24.4693 29.5711 24.4336 29.4701L24.0513 29.605ZM24.4443 30.0394C24.6177 30.1044 24.8552 30.1303 25.1394 30.1303V29.7248C24.869 29.7248 24.6905 29.6987 24.5866 29.6597L24.4443 30.0394ZM33.4938 21.2826L33.5051 21.485L33.6966 21.4743V21.2826H33.4938ZM32.8048 21.3866L32.7373 21.1953L32.7336 21.1967L32.8048 21.3866ZM32.5188 21.6856L32.71 21.753V21.753L32.5188 21.6856ZM32.5188 29.5636L32.71 29.4961V29.4961L32.5188 29.5636ZM32.8048 29.8626L32.7336 30.0524L32.7405 30.055L32.7476 30.0571L32.8048 29.8626ZM35.6648 29.7066L35.7599 29.8856L35.7619 29.8845L35.6648 29.7066ZM36.2888 28.9656L36.478 29.0383V29.0383L36.2888 28.9656ZM36.5748 27.4966V27.2938H36.3903L36.373 27.4775L36.5748 27.4966ZM36.8738 27.4966L37.0756 27.5161L37.0971 27.2938H36.8738V27.4966ZM36.9258 30.2266L36.9169 30.4291L37.1505 30.4394L37.1276 30.2067L36.9258 30.2266ZM30.1788 30.2266H29.9761V30.4356L30.185 30.4292L30.1788 30.2266ZM30.1788 29.9666L30.1676 29.7641L29.9761 29.7748V29.9666H30.1788ZM30.8548 29.8626L30.7873 29.6713L30.7836 29.6727L30.8548 29.8626ZM31.1538 21.6856L30.9626 21.753V21.753L31.1538 21.6856ZM30.8548 21.3866L30.7836 21.5764L30.7873 21.5777L30.8548 21.3866ZM30.1788 21.2826H29.9761V21.4743L30.1676 21.485L30.1788 21.2826ZM30.1788 21.0226L30.1933 20.8203L29.9761 20.8048V21.0226H30.1788ZM33.4938 21.0226H33.6966V20.8065L33.4809 20.8202L33.4938 21.0226ZM33.4826 21.0801C33.1665 21.0977 32.913 21.1334 32.7373 21.1954L32.8723 21.5777C32.9913 21.5357 33.1971 21.5021 33.5051 21.485L33.4826 21.0801ZM32.7336 21.1967C32.5354 21.2711 32.3983 21.4178 32.3276 21.6181L32.71 21.753C32.7433 21.6587 32.7969 21.6061 32.876 21.5764L32.7336 21.1967ZM32.3276 21.6181C32.2634 21.8 32.2381 22.0679 32.2381 22.4006H32.6435C32.6435 22.0745 32.6702 21.8657 32.71 21.753L32.3276 21.6181ZM32.2381 22.4006V28.8486H32.6435V22.4006H32.2381ZM32.2381 28.8486C32.2381 29.1812 32.2634 29.4491 32.3276 29.631L32.71 29.4961C32.6702 29.3834 32.6435 29.1746 32.6435 28.8486H32.2381ZM32.3276 29.631C32.3983 29.8313 32.5354 29.9781 32.7336 30.0524L32.876 29.6727C32.7969 29.6431 32.7433 29.5905 32.71 29.4961L32.3276 29.631ZM32.7476 30.0571C32.9242 30.109 33.1781 30.1303 33.4938 30.1303V29.7248C33.1855 29.7248 32.9801 29.7028 32.862 29.6681L32.7476 30.0571ZM33.4938 30.1303H34.4428V29.7248H33.4938V30.1303ZM34.4428 30.1303C34.9928 30.1303 35.4394 30.0559 35.7599 29.8856L35.5697 29.5275C35.3356 29.6519 34.9675 29.7248 34.4428 29.7248V30.1303ZM35.7619 29.8845C36.0949 29.7029 36.3328 29.4159 36.478 29.0383L36.0996 28.8928C35.9848 29.1913 35.8067 29.3982 35.5677 29.5286L35.7619 29.8845ZM36.478 29.0383C36.6179 28.6747 36.7154 28.1635 36.7766 27.5157L36.373 27.4775C36.3129 28.1123 36.2197 28.5804 36.0996 28.8928L36.478 29.0383ZM36.5748 27.6993H36.8738V27.2938H36.5748V27.6993ZM36.672 27.477C36.6451 27.755 36.6321 28.1176 36.6321 28.5626H37.0375C37.0375 28.1235 37.0505 27.7755 37.0756 27.5161L36.672 27.477ZM36.6321 28.5626C36.6321 29.0646 36.6629 29.6261 36.7241 30.2465L37.1276 30.2067C37.0674 29.5964 37.0375 29.0485 37.0375 28.5626H36.6321ZM36.9347 30.024C36.3405 29.9978 35.3442 29.9848 33.9488 29.9848V30.3903C35.3441 30.3903 36.3324 30.4033 36.9169 30.4291L36.9347 30.024ZM33.9488 29.9848C32.2843 29.9848 31.0251 29.9978 30.1726 30.0239L30.185 30.4292C31.0312 30.4033 32.2853 30.3903 33.9488 30.3903V29.9848ZM30.3815 30.2266V29.9666H29.9761V30.2266H30.3815ZM30.1901 30.169C30.505 30.1515 30.7566 30.1159 30.926 30.0524L30.7836 29.6727C30.6756 29.7132 30.4766 29.747 30.1676 29.7641L30.1901 30.169ZM30.9223 30.0537C31.1274 29.9813 31.2726 29.8362 31.345 29.631L30.9626 29.4961C30.931 29.5856 30.8769 29.6398 30.7873 29.6714L30.9223 30.0537ZM31.345 29.631C31.4092 29.4491 31.4345 29.1812 31.4345 28.8486H31.0291C31.0291 29.1746 31.0024 29.3834 30.9626 29.4961L31.345 29.631ZM31.4345 28.8486V22.4006H31.0291V28.8486H31.4345ZM31.4345 22.4006C31.4345 22.0679 31.4092 21.8 31.345 21.6181L30.9626 21.753C31.0024 21.8657 31.0291 22.0745 31.0291 22.4006H31.4345ZM31.345 21.6181C31.2726 21.4129 31.1274 21.2678 30.9223 21.1954L30.7873 21.5777C30.8769 21.6093 30.931 21.6635 30.9626 21.753L31.345 21.6181ZM30.926 21.1967C30.7566 21.1332 30.505 21.0976 30.1901 21.0801L30.1676 21.485C30.4766 21.5022 30.6756 21.5359 30.7836 21.5764L30.926 21.1967ZM30.3815 21.2826V21.0226H29.9761V21.2826H30.3815ZM30.1644 21.2248C30.5359 21.2513 31.0965 21.2643 31.8428 21.2643V20.8588C31.0984 20.8588 30.5497 20.8458 30.1933 20.8203L30.1644 21.2248ZM31.8428 21.2643C32.5379 21.2643 33.0932 21.2513 33.5067 21.2249L33.4809 20.8202C33.0798 20.8458 32.5344 20.8588 31.8428 20.8588V21.2643ZM33.2911 21.0226V21.2826H33.6966V21.0226H33.2911ZM41.402 21.2826L41.4133 21.485L41.6048 21.4743V21.2826H41.402ZM40.713 21.3866L40.6455 21.1953L40.6418 21.1967L40.713 21.3866ZM40.427 21.6856L40.6182 21.753V21.753L40.427 21.6856ZM40.427 29.5636L40.6182 29.4961V29.4961L40.427 29.5636ZM40.713 29.8626L40.6418 30.0524L40.6455 30.0537L40.713 29.8626ZM41.402 29.9666H41.6048V29.7748L41.4133 29.7641L41.402 29.9666ZM41.402 30.2266L41.3888 30.4289L41.6048 30.443V30.2266H41.402ZM38.087 30.2266H37.8843V30.4443L38.1015 30.4288L38.087 30.2266ZM38.087 29.9666L38.0758 29.7641L37.8843 29.7748V29.9666H38.087ZM38.763 29.8626L38.6955 29.6713L38.6918 29.6727L38.763 29.8626ZM39.062 21.6856L38.8708 21.753V21.753L39.062 21.6856ZM38.763 21.3866L38.6918 21.5764L38.6955 21.5777L38.763 21.3866ZM38.087 21.2826H37.8843V21.4743L38.0758 21.485L38.087 21.2826ZM38.087 21.0226L38.1015 20.8203L37.8843 20.8048V21.0226H38.087ZM41.402 21.0226H41.6048V20.8065L41.3891 20.8202L41.402 21.0226ZM41.142 18.1886L41.0345 18.0166L41.0296 18.0199L41.142 18.1886ZM41.935 18.2796L42.1038 18.1671L42.1006 18.1626L41.935 18.2796ZM41.662 19.0336L41.7687 19.2059L41.77 19.2051L41.662 19.0336ZM40.726 19.4496L40.6552 19.2595L40.6507 19.2613L40.726 19.4496ZM39.049 20.1906L38.8705 20.2867L38.9638 20.4599L39.1397 20.3719L39.049 20.1906ZM38.958 20.0216L38.8357 19.8598L38.6971 19.9647L38.7795 20.1177L38.958 20.0216ZM39.868 19.2806L40.0034 19.4315L40.0036 19.4313L39.868 19.2806ZM40.349 18.8516L40.4811 19.0057L40.4883 18.9988L40.349 18.8516ZM41.3908 21.0801C41.0747 21.0977 40.8212 21.1334 40.6455 21.1954L40.7805 21.5777C40.8995 21.5357 41.1053 21.5021 41.4133 21.485L41.3908 21.0801ZM40.6418 21.1967C40.4436 21.2711 40.3065 21.4178 40.2358 21.6181L40.6182 21.753C40.6515 21.6587 40.7051 21.6061 40.7842 21.5764L40.6418 21.1967ZM40.2358 21.6181C40.1716 21.8 40.1463 22.0679 40.1463 22.4006H40.5518C40.5518 22.0745 40.5784 21.8657 40.6182 21.753L40.2358 21.6181ZM40.1463 22.4006V28.8486H40.5518V22.4006H40.1463ZM40.1463 28.8486C40.1463 29.1812 40.1716 29.4491 40.2358 29.631L40.6182 29.4961C40.5784 29.3834 40.5518 29.1746 40.5518 28.8486H40.1463ZM40.2358 29.631C40.3065 29.8313 40.4436 29.9781 40.6418 30.0524L40.7842 29.6727C40.7051 29.6431 40.6515 29.5905 40.6182 29.4961L40.2358 29.631ZM40.6455 30.0537C40.8212 30.1157 41.0747 30.1514 41.3908 30.169L41.4133 29.7641C41.1053 29.747 40.8995 29.7134 40.7805 29.6714L40.6455 30.0537ZM41.1993 29.9666V30.2266H41.6048V29.9666H41.1993ZM41.4152 30.0243C41.0101 29.9978 40.4547 29.9848 39.751 29.9848V30.3903C40.4514 30.3903 40.9966 30.4033 41.3888 30.4289L41.4152 30.0243ZM39.751 29.9848C39.0047 29.9848 38.4441 29.9978 38.0726 30.0243L38.1015 30.4288C38.4579 30.4033 39.0066 30.3903 39.751 30.3903V29.9848ZM38.2898 30.2266V29.9666H37.8843V30.2266H38.2898ZM38.0983 30.169C38.4132 30.1515 38.6649 30.1159 38.8342 30.0524L38.6918 29.6727C38.5838 29.7132 38.3848 29.747 38.0758 29.7641L38.0983 30.169ZM38.8305 30.0537C39.0356 29.9813 39.1808 29.8362 39.2532 29.631L38.8708 29.4961C38.8392 29.5856 38.7851 29.6398 38.6955 29.6714L38.8305 30.0537ZM39.2532 29.631C39.3174 29.4491 39.3428 29.1812 39.3428 28.8486H38.9373C38.9373 29.1746 38.9106 29.3834 38.8708 29.4961L39.2532 29.631ZM39.3428 28.8486V22.4006H38.9373V28.8486H39.3428ZM39.3428 22.4006C39.3428 22.0679 39.3174 21.8 39.2532 21.6181L38.8708 21.753C38.9106 21.8657 38.9373 22.0745 38.9373 22.4006H39.3428ZM39.2532 21.6181C39.1808 21.4129 39.0356 21.2678 38.8305 21.1954L38.6955 21.5777C38.7851 21.6093 38.8392 21.6635 38.8708 21.753L39.2532 21.6181ZM38.8342 21.1967C38.6649 21.1332 38.4132 21.0976 38.0983 21.0801L38.0758 21.485C38.3848 21.5022 38.5838 21.5359 38.6918 21.5764L38.8342 21.1967ZM38.2898 21.2826V21.0226H37.8843V21.2826H38.2898ZM38.0726 21.2248C38.4441 21.2513 39.0047 21.2643 39.751 21.2643V20.8588C39.0066 20.8588 38.4579 20.8458 38.1015 20.8203L38.0726 21.2248ZM39.751 21.2643C40.4461 21.2643 41.0014 21.2513 41.4149 21.2249L41.3891 20.8202C40.988 20.8458 40.4426 20.8588 39.751 20.8588V21.2643ZM41.1993 21.0226V21.2826H41.6048V21.0226H41.1993ZM41.2495 18.3605C41.3668 18.2872 41.4597 18.2613 41.532 18.2613V17.8558C41.3616 17.8558 41.1946 17.9166 41.0346 18.0166L41.2495 18.3605ZM41.532 18.2613C41.6238 18.2613 41.6992 18.297 41.7694 18.3965L42.1006 18.1626C41.9629 17.9675 41.7696 17.8558 41.532 17.8558V18.2613ZM41.7663 18.392C41.798 18.4396 41.8103 18.4832 41.8103 18.5266H42.2158C42.2158 18.3966 42.176 18.2756 42.1037 18.1671L41.7663 18.392ZM41.8103 18.5266C41.8103 18.6193 41.7578 18.7337 41.554 18.862L41.77 19.2051C42.0342 19.0388 42.2158 18.8152 42.2158 18.5266H41.8103ZM41.5553 18.8612C41.3917 18.9625 41.096 19.0954 40.6552 19.2596L40.7968 19.6395C41.2401 19.4744 41.5684 19.33 41.7687 19.2059L41.5553 18.8612ZM40.6507 19.2613C39.9971 19.5228 39.4327 19.772 38.9583 20.0092L39.1397 20.3719C39.6013 20.1411 40.1549 19.8964 40.8013 19.6378L40.6507 19.2613ZM39.2275 20.0944L39.1365 19.9254L38.7795 20.1177L38.8705 20.2867L39.2275 20.0944ZM39.0803 20.1833C39.4388 19.9122 39.7467 19.6616 40.0034 19.4315L39.7327 19.1296C39.4866 19.3502 39.1879 19.5936 38.8357 19.8598L39.0803 20.1833ZM40.0036 19.4313C40.2644 19.1965 40.4226 19.0555 40.481 19.0055L40.2171 18.6976C40.1541 18.7516 39.9916 18.8966 39.7324 19.1299L40.0036 19.4313ZM40.4883 18.9988C40.806 18.6984 41.0606 18.4865 41.2545 18.3572L41.0296 18.0199C40.8074 18.168 40.5334 18.3981 40.2097 18.7043L40.4883 18.9988ZM49.5829 29.1346L49.772 29.0614L49.7719 29.0612L49.5829 29.1346ZM50.4799 29.9666H50.6827V29.7726L50.4889 29.764L50.4799 29.9666ZM50.4799 30.2266L50.4648 30.4287L50.6827 30.4451V30.2266H50.4799ZM47.4249 30.2266H47.2222V30.4443L47.4394 30.4288L47.4249 30.2266ZM47.4249 29.9666L47.4143 29.7641L47.2222 29.7742V29.9666H47.4249ZM48.1269 29.8496L48.2082 30.0354L48.2132 30.033L48.1269 29.8496ZM48.1919 28.8746L48.0018 28.9453L48.0037 28.9499L48.1919 28.8746ZM47.3989 26.7426L47.5889 26.6719L47.5398 26.5398H47.3989V26.7426ZM44.2529 26.7426V26.5398H44.114L44.0638 26.6694L44.2529 26.7426ZM43.7199 28.1206L43.5308 28.0474L43.5298 28.0501L43.7199 28.1206ZM43.7329 29.7716L43.6204 29.9403L43.6241 29.9426L43.7329 29.7716ZM44.5909 29.9666H44.7937V29.7684L44.5955 29.7639L44.5909 29.9666ZM44.5909 30.2266L44.5803 30.429L44.7937 30.4403V30.2266H44.5909ZM42.1209 30.2266H41.9182V30.4506L42.1411 30.4283L42.1209 30.2266ZM42.1209 29.9666L42.0736 29.7694L41.9182 29.8067V29.9666H42.1209ZM43.1479 28.8356L42.9589 28.7623L42.9588 28.7624L43.1479 28.8356ZM46.2029 20.9576V20.7548H46.0641L46.0139 20.8843L46.2029 20.9576ZM46.4109 20.9576L46.5999 20.8842L46.5497 20.7548H46.4109V20.9576ZM47.2949 26.4826V26.6853H47.5873L47.4848 26.4114L47.2949 26.4826ZM45.8389 22.5956L46.0288 22.5244L45.8406 22.0221L45.6495 22.5233L45.8389 22.5956ZM44.3569 26.4826L44.1675 26.4103L44.0626 26.6853H44.3569V26.4826ZM49.3938 29.2077C49.615 29.779 49.9642 30.1466 50.4709 30.1691L50.4889 29.764C50.2156 29.7519 49.9668 29.5648 49.772 29.0614L49.3938 29.2077ZM50.2772 29.9666V30.2266H50.6827V29.9666H50.2772ZM50.4951 30.0244C50.1411 29.9978 49.6718 29.9848 49.0889 29.9848V30.3903C49.6674 30.3903 50.1253 30.4033 50.4648 30.4287L50.4951 30.0244ZM49.0889 29.9848C48.3426 29.9848 47.782 29.9978 47.4105 30.0243L47.4394 30.4288C47.7958 30.4033 48.3445 30.3903 49.0889 30.3903V29.9848ZM47.6277 30.2266V29.9666H47.2222V30.2266H47.6277ZM47.4356 30.169C47.7674 30.1516 48.0334 30.1118 48.2082 30.0353L48.0457 29.6638C47.9431 29.7087 47.7411 29.7469 47.4143 29.7641L47.4356 30.169ZM48.2132 30.033C48.3175 29.9839 48.4055 29.9113 48.466 29.8118C48.5259 29.713 48.5507 29.6011 48.5507 29.4856H48.1452C48.1452 29.5433 48.1331 29.5787 48.1194 29.6013C48.1061 29.6231 48.0837 29.6459 48.0406 29.6661L48.2132 30.033ZM48.5507 29.4856C48.5507 29.2986 48.4867 29.0656 48.3801 28.7993L48.0037 28.9499C48.1051 29.2035 48.1452 29.3779 48.1452 29.4856H48.5507ZM48.3819 28.8039L47.5889 26.6719L47.2089 26.8132L48.0019 28.9452L48.3819 28.8039ZM47.3989 26.5398H44.2529V26.9453H47.3989V26.5398ZM44.0638 26.6694L43.5308 28.0474L43.909 28.1937L44.442 26.8157L44.0638 26.6694ZM43.5298 28.0501C43.355 28.522 43.2572 28.9058 43.2572 29.1866H43.6627C43.6627 28.982 43.7381 28.6551 43.91 28.191L43.5298 28.0501ZM43.2572 29.1866C43.2572 29.5054 43.3688 29.7725 43.6205 29.9403L43.8454 29.6029C43.733 29.528 43.6627 29.4051 43.6627 29.1866H43.2572ZM43.6241 29.9426C43.8606 30.0932 44.1905 30.1603 44.5863 30.1692L44.5955 29.7639C44.2286 29.7555 43.9865 29.6926 43.8418 29.6005L43.6241 29.9426ZM44.3882 29.9666V30.2266H44.7937V29.9666H44.3882ZM44.6016 30.0241C44.104 29.9979 43.6021 29.9848 43.0959 29.9848V30.3903C43.5951 30.3903 44.0899 30.4032 44.5803 30.429L44.6016 30.0241ZM43.0959 29.9848C42.7021 29.9848 42.3698 29.9979 42.1007 30.0248L42.1411 30.4283C42.392 30.4032 42.7097 30.3903 43.0959 30.3903V29.9848ZM42.3237 30.2266V29.9666H41.9182V30.2266H42.3237ZM42.1682 30.1637C42.6966 30.0369 43.0757 29.5846 43.337 28.9087L42.9588 28.7624C42.7175 29.3865 42.4119 29.6882 42.0736 29.7694L42.1682 30.1637ZM43.3369 28.9089L46.3919 21.0309L46.0139 20.8843L42.9589 28.7623L43.3369 28.9089ZM46.2029 21.1603H46.4109V20.7548H46.2029V21.1603ZM46.2219 21.0309L49.3939 29.2079L49.7719 29.0612L46.5999 20.8842L46.2219 21.0309ZM47.4848 26.4114L46.0288 22.5244L45.6491 22.6667L47.1051 26.5537L47.4848 26.4114ZM45.6495 22.5233L44.1675 26.4103L44.5463 26.5548L46.0284 22.6678L45.6495 22.5233ZM44.3569 26.6853H47.2949V26.2798H44.3569V26.6853ZM59.1221 21.2826L59.1337 21.485L59.3248 21.474V21.2826H59.1221ZM58.4461 21.4256L58.5325 21.6092L58.541 21.6047L58.4461 21.4256ZM58.1471 21.7896L58.3405 21.8506L58.3413 21.8478L58.1471 21.7896ZM58.0691 30.2916V30.4943H58.2718V30.2916H58.0691ZM57.7701 30.2916L57.5999 30.4017L57.6598 30.4943H57.7701V30.2916ZM52.3101 21.8546L52.4803 21.7444L52.1074 21.1681V21.8546H52.3101ZM52.3881 29.4726L52.1946 29.5337L52.1979 29.5427L52.3881 29.4726ZM52.7261 29.8366L52.6392 30.02L52.6474 30.0234L52.7261 29.8366ZM53.4931 29.9666H53.6958V29.7737L53.5032 29.7641L53.4931 29.9666ZM53.4931 30.2266L53.4763 30.4286L53.6958 30.4469V30.2266H53.4931ZM50.9581 30.2266H50.7554V30.4486L50.9765 30.4285L50.9581 30.2266ZM50.9581 29.9666L50.9465 29.7642L50.7554 29.7751V29.9666H50.9581ZM51.6341 29.8366L51.7205 30.0202L51.729 30.0157L51.6341 29.8366ZM51.9331 29.4726L52.1265 29.5336L52.1273 29.5308L51.9331 29.4726ZM51.9331 21.6856L51.7419 21.753V21.753L51.9331 21.6856ZM51.6341 21.3866L51.5629 21.5764L51.5666 21.5777L51.6341 21.3866ZM50.9581 21.2826H50.7554V21.4743L50.9469 21.485L50.9581 21.2826ZM50.9581 21.0226L50.9765 20.8207L50.7554 20.8006V21.0226H50.9581ZM53.1811 21.0226L53.3512 20.9122L53.2846 20.8096L53.1628 20.8207L53.1811 21.0226ZM57.7701 28.0946L57.6 28.2049L57.9728 28.7794V28.0946H57.7701ZM57.6791 21.7766L57.4856 21.8377L57.4889 21.8466L57.6791 21.7766ZM57.3541 21.4256L57.2672 21.609L57.2754 21.6124L57.3541 21.4256ZM56.5871 21.2826H56.3844V21.4754L56.577 21.485L56.5871 21.2826ZM56.5871 21.0226L56.6039 20.8205L56.3844 20.8022V21.0226H56.5871ZM59.1221 21.0226H59.3248V20.8006L59.1038 20.8207L59.1221 21.0226ZM59.1105 21.0802C58.7982 21.098 58.5376 21.1477 58.3513 21.2464L58.541 21.6047C58.6493 21.5474 58.8394 21.5018 59.1337 21.485L59.1105 21.0802ZM58.3598 21.2421C58.1542 21.3389 58.0194 21.5097 57.9529 21.7313L58.3413 21.8478C58.3788 21.7228 58.4433 21.6509 58.5324 21.609L58.3598 21.2421ZM57.9538 21.7285C57.8922 21.9235 57.8664 22.1957 57.8664 22.5306H58.2718C58.2718 22.2068 58.298 21.985 58.3404 21.8506L57.9538 21.7285ZM57.8664 22.5306V30.2916H58.2718V22.5306H57.8664ZM58.0691 30.0888H57.7701V30.4943H58.0691V30.0888ZM57.9403 30.1814L52.4803 21.7444L52.1399 21.9647L57.5999 30.4017L57.9403 30.1814ZM52.1074 21.8546V28.7186H52.5128V21.8546H52.1074ZM52.1074 28.7186C52.1074 29.0614 52.1331 29.3383 52.1948 29.5336L52.5814 29.4115C52.5391 29.2775 52.5128 29.0517 52.5128 28.7186H52.1074ZM52.1979 29.5427C52.2777 29.7592 52.4287 29.92 52.6393 30.0198L52.8129 29.6533C52.6941 29.5971 52.6199 29.5153 52.5783 29.4025L52.1979 29.5427ZM52.6474 30.0234C52.8458 30.1069 53.1306 30.1514 53.483 30.169L53.5032 29.7641C53.1622 29.747 52.9357 29.7048 52.8048 29.6497L52.6474 30.0234ZM53.2904 29.9666V30.2266H53.6958V29.9666H53.2904ZM53.5099 30.0245C53.1895 29.9978 52.741 29.9848 52.1671 29.9848V30.3903C52.7373 30.3903 53.1727 30.4033 53.4763 30.4286L53.5099 30.0245ZM52.1671 29.9848C51.645 29.9848 51.2349 29.9978 50.9398 30.0247L50.9765 30.4285C51.2533 30.4033 51.6492 30.3903 52.1671 30.3903V29.9848ZM51.1608 30.2266V29.9666H50.7554V30.2266H51.1608ZM50.9697 30.169C51.2804 30.1512 51.5373 30.1062 51.7204 30.02L51.5478 29.6531C51.4363 29.7056 51.2425 29.7472 50.9465 29.7642L50.9697 30.169ZM51.729 30.0157C51.9252 29.9118 52.059 29.747 52.1264 29.5336L51.7398 29.4115C51.7032 29.5274 51.6377 29.6053 51.5393 29.6574L51.729 30.0157ZM52.1273 29.5308C52.1878 29.3291 52.2138 29.0543 52.2138 28.7186H51.8084C51.8084 29.0415 51.7824 29.2694 51.7389 29.4143L52.1273 29.5308ZM52.2138 28.7186V22.4006H51.8084V28.7186H52.2138ZM52.2138 22.4006C52.2138 22.0679 52.1885 21.8 52.1243 21.6181L51.7419 21.753C51.7817 21.8657 51.8084 22.0745 51.8084 22.4006H52.2138ZM52.1243 21.6181C52.0519 21.4129 51.9067 21.2678 51.7016 21.1954L51.5666 21.5777C51.6561 21.6093 51.7103 21.6635 51.7419 21.753L52.1243 21.6181ZM51.7053 21.1967C51.5359 21.1332 51.2843 21.0976 50.9694 21.0801L50.9469 21.485C51.2559 21.5022 51.4549 21.5359 51.5629 21.5764L51.7053 21.1967ZM51.1608 21.2826V21.0226H50.7554V21.2826H51.1608ZM50.9398 21.2245C51.2349 21.2513 51.645 21.2643 52.1671 21.2643V20.8588C51.6492 20.8588 51.2533 20.8458 50.9765 20.8207L50.9398 21.2245ZM52.1671 21.2643C52.5612 21.2643 52.9056 21.2512 53.1995 21.2245L53.1628 20.8207C52.8846 20.8459 52.553 20.8588 52.1671 20.8588V21.2643ZM53.011 21.1329L57.6 28.2049L57.9402 27.9842L53.3512 20.9122L53.011 21.1329ZM57.9728 28.0946V22.5306H57.5674V28.0946H57.9728ZM57.9728 22.5306C57.9728 22.1866 57.9428 21.9058 57.8693 21.7065L57.4889 21.8466C57.5368 21.9766 57.5674 22.1986 57.5674 22.5306H57.9728ZM57.8724 21.7155C57.8018 21.4919 57.6501 21.3302 57.4328 21.2387L57.2754 21.6124C57.3875 21.6596 57.4524 21.7319 57.4858 21.8376L57.8724 21.7155ZM57.4409 21.2423C57.2392 21.1468 56.9508 21.0978 56.5972 21.0801L56.577 21.485C56.9167 21.502 57.1397 21.5483 57.2673 21.6088L57.4409 21.2423ZM56.7898 21.2826V21.0226H56.3844V21.2826H56.7898ZM56.5703 21.2246C56.8907 21.2513 57.3393 21.2643 57.9131 21.2643V20.8588C57.343 20.8588 56.9075 20.8458 56.6039 20.8205L56.5703 21.2246ZM57.9131 21.2643C58.4352 21.2643 58.8453 21.2513 59.1405 21.2245L59.1038 20.8207C58.8269 20.8458 58.431 20.8588 57.9131 20.8588V21.2643ZM58.9194 21.0226V21.2826H59.3248V21.0226H58.9194Z" fill="#FEF5EB" mask="url(#path-5-outside-1_23632_22765)"/>
</g>
</g>
<defs>
<linearGradient id="paint0_linear_23632_22765" x1="34" y1="-1.04141e-05" x2="34" y2="68" gradientUnits="userSpaceOnUse">
<stop stop-color="#C93D34"/>
<stop offset="1" stop-color="#7A2629"/>
</linearGradient>
<linearGradient id="paint1_linear_23632_22765" x1="34" y1="-1.04141e-05" x2="34" y2="68" gradientUnits="userSpaceOnUse">
<stop stop-color="#C93D34"/>
<stop offset="1" stop-color="#7A2629"/>
</linearGradient>
<clipPath id="clip0_23632_22765">
<rect width="68" height="68" fill="white"/>
</clipPath>
</defs>
</svg>
