<svg width="68" height="68" viewBox="0 0 68 68" fill="none" xmlns="http://www.w3.org/2000/svg">
<g clip-path="url(#clip0_23632_22579)">
<mask id="mask0_23632_22579" style="mask-type:alpha" maskUnits="userSpaceOnUse" x="0" y="0" width="68" height="68">
<path fill-rule="evenodd" clip-rule="evenodd" d="M47.0333 0H20.9667C13.5811 0 8.89667 0.0377779 4.45778 4.45778C0.018889 8.89667 0 13.6 0 20.9667V47.0333C0 54.4189 0.0377779 59.1033 4.45778 63.5422C8.89667 67.9811 13.6 68 20.9667 68H47.0333C54.4189 68 59.1033 67.9811 63.5422 63.5422C67.9622 59.1033 68 54.4 68 47.0333V20.9667C68 13.5811 67.9622 8.89667 63.5422 4.45778C59.1033 0.018889 54.4 0 47.0333 0Z" fill="url(#paint0_linear_23632_22579)"/>
</mask>
<g mask="url(#mask0_23632_22579)">
<rect width="68" height="68" fill="url(#paint1_linear_23632_22579)"/>
<path fill-rule="evenodd" clip-rule="evenodd" d="M15.6212 64.3732C26.4256 64.3732 45.6357 64.3732 45.6357 64.3732C52.5868 64.3732 57.0823 64.6377 61.2379 60.4443C64.8079 56.8743 64.5057 50.8677 64.7323 46.1077C60.709 52.1521 53.3234 51.9443 47.619 51.9443C47.619 51.9443 20.929 51.9443 10.9556 51.9443C0.982316 51.9632 4.81676 64.3732 15.6212 64.3732Z" fill="#FEF5EB"/>
<path d="M12.4854 53.531H23.1387V61.521L17.812 58.8577L12.4854 61.521V53.531Z" fill="#F19C33"/>
<mask id="path-5-outside-1_23632_22579" maskUnits="userSpaceOnUse" x="10.1016" y="12.2266" width="48" height="26" fill="black">
<rect fill="white" x="10.1016" y="12.2266" width="48" height="26"/>
<path d="M29.24 13.3124C28.8942 13.3316 28.6396 13.37 28.4763 13.4277C28.3226 13.4853 28.2169 13.5958 28.1593 13.7591C28.1016 13.9224 28.0728 14.1866 28.0728 14.5516V21.6991C28.0728 22.0641 28.1016 22.3283 28.1593 22.4916C28.2169 22.655 28.3226 22.7654 28.4763 22.8231C28.6396 22.8711 28.8942 22.8951 29.24 22.8951H30.292C30.8876 22.8951 31.3391 22.8135 31.6465 22.6502C31.9636 22.4772 32.1941 22.2034 32.3382 21.8288C32.4823 21.4541 32.588 20.9113 32.6552 20.2004H32.9867C32.9579 20.4982 32.9434 20.8921 32.9434 21.3821C32.9434 21.9296 32.9771 22.5445 33.0443 23.2266C32.3911 23.1977 31.2911 23.1833 29.7444 23.1833C27.8999 23.1833 26.5069 23.1977 25.5654 23.2266V22.9384C25.9113 22.9191 26.1611 22.8807 26.3148 22.8231C26.4781 22.7654 26.5886 22.655 26.6462 22.4916C26.7039 22.3283 26.7327 22.0641 26.7327 21.6991V14.5516C26.7327 14.1866 26.7039 13.9224 26.6462 13.7591C26.5886 13.5958 26.4781 13.4853 26.3148 13.4277C26.1611 13.37 25.9113 13.3316 25.5654 13.3124V13.0242C25.9689 13.053 26.5838 13.0674 27.4099 13.0674C28.1785 13.0674 28.7885 13.053 29.24 13.0242V13.3124ZM41.868 22.0161C42.0986 22.6117 42.43 22.9191 42.8623 22.9384V23.2266C42.478 23.1977 41.9641 23.1833 41.3204 23.1833C40.4942 23.1833 39.8794 23.1977 39.4759 23.2266V22.9384C39.841 22.9191 40.1004 22.8759 40.2541 22.8087C40.4174 22.7318 40.499 22.5973 40.499 22.4052C40.499 22.2419 40.4414 22.0161 40.3261 21.7279L39.4471 19.3646H35.9598L35.369 20.8921C35.1769 21.4109 35.0808 21.8048 35.0808 22.0737C35.0808 22.3716 35.1817 22.5877 35.3834 22.7222C35.5948 22.8567 35.9118 22.9288 36.3345 22.9384V23.2266C35.7869 23.1977 35.2345 23.1833 34.6773 23.1833C34.245 23.1833 33.8848 23.1977 33.5966 23.2266V22.9384C34.0769 22.8231 34.4564 22.4052 34.735 21.6847L38.1214 12.9521H38.3519L41.868 22.0161ZM39.3318 19.0764L37.7179 14.7678L36.0751 19.0764H39.3318ZM15.9843 31.8372C17.0411 31.9813 17.7952 32.2887 18.2467 32.7594C18.6982 33.2205 18.924 33.7777 18.924 34.431C18.924 34.9786 18.7847 35.4637 18.5061 35.8864C18.2275 36.3091 17.8288 36.6405 17.31 36.8807C16.7913 37.1113 16.1764 37.2266 15.4655 37.2266C15.2062 37.2266 14.9852 37.2218 14.8027 37.2122C14.1878 37.1929 13.5826 37.1833 12.987 37.1833C12.1992 37.1833 11.6036 37.1977 11.2001 37.2266V36.9384C11.546 36.9191 11.7958 36.8807 11.9495 36.8231C12.1128 36.7654 12.2233 36.655 12.2809 36.4916C12.3385 36.3283 12.3674 36.0641 12.3674 35.6991V28.5516C12.3674 28.1866 12.3385 27.9224 12.2809 27.7591C12.2233 27.5958 12.1128 27.4853 11.9495 27.4277C11.7958 27.37 11.546 27.3316 11.2001 27.3124V27.0242C11.6036 27.053 12.1896 27.0674 12.9582 27.0674L14.5145 27.053C14.697 27.0434 14.9035 27.0386 15.1341 27.0386C16.114 27.0386 16.8633 27.2451 17.3821 27.6582C17.9105 28.0713 18.1747 28.6189 18.1747 29.301C18.1747 29.8582 17.9969 30.3577 17.6415 30.7996C17.2956 31.2415 16.7432 31.5778 15.9843 31.8083V31.8372ZM14.7739 27.3124C14.476 27.3124 14.2503 27.346 14.0966 27.4132C13.9525 27.4805 13.8516 27.6006 13.794 27.7735C13.7363 27.9464 13.7075 28.2058 13.7075 28.5516V31.8083H14.673C15.4607 31.8083 16.0083 31.597 16.3157 31.1743C16.6328 30.742 16.7913 30.1704 16.7913 29.4595C16.7913 28.739 16.6328 28.201 16.3157 27.8456C15.9987 27.4901 15.4848 27.3124 14.7739 27.3124ZM14.7883 36.8951C16.5847 36.8951 17.483 36.0545 17.483 34.3734C17.483 33.6144 17.2764 33.038 16.8633 32.6441C16.4598 32.2503 15.8114 32.0533 14.918 32.0533H13.7075V35.6991C13.7075 36.0449 13.7363 36.2995 13.794 36.4628C13.8516 36.6261 13.9525 36.7414 14.0966 36.8087C14.2503 36.8663 14.4808 36.8951 14.7883 36.8951ZM24.02 27.3124C23.6742 27.3316 23.4196 27.37 23.2563 27.4277C23.1026 27.4853 22.9969 27.5958 22.9393 27.7591C22.8816 27.9224 22.8528 28.1866 22.8528 28.5516V35.6991C22.8528 36.0641 22.8816 36.3283 22.9393 36.4916C22.9969 36.655 23.1026 36.7654 23.2563 36.8231C23.4196 36.8807 23.6742 36.9191 24.02 36.9384V37.2266C23.5781 37.1977 22.9681 37.1833 22.19 37.1833C21.3638 37.1833 20.7489 37.1977 20.3455 37.2266V36.9384C20.6913 36.9191 20.9411 36.8807 21.0948 36.8231C21.2581 36.7654 21.3686 36.655 21.4262 36.4916C21.4839 36.3283 21.5127 36.0641 21.5127 35.6991V28.5516C21.5127 28.1866 21.4839 27.9224 21.4262 27.7591C21.3686 27.5958 21.2581 27.4853 21.0948 27.4277C20.9411 27.37 20.6913 27.3316 20.3455 27.3124V27.0242C20.7489 27.053 21.3638 27.0674 22.19 27.0674C22.9585 27.0674 23.5685 27.053 24.02 27.0242V27.3124ZM30.2784 31.8372C31.3351 31.9813 32.0893 32.2887 32.5408 32.7594C32.9923 33.2205 33.2181 33.7777 33.2181 34.431C33.2181 34.9786 33.0788 35.4637 32.8002 35.8864C32.5216 36.3091 32.1229 36.6405 31.6041 36.8807C31.0854 37.1113 30.4705 37.2266 29.7596 37.2266C29.5002 37.2266 29.2793 37.2218 29.0968 37.2122C28.4819 37.1929 27.8767 37.1833 27.2811 37.1833C26.4933 37.1833 25.8977 37.1977 25.4942 37.2266V36.9384C25.8401 36.9191 26.0898 36.8807 26.2435 36.8231C26.4069 36.7654 26.5173 36.655 26.575 36.4916C26.6326 36.3283 26.6614 36.0641 26.6614 35.6991V28.5516C26.6614 28.1866 26.6326 27.9224 26.575 27.7591C26.5173 27.5958 26.4069 27.4853 26.2435 27.4277C26.0898 27.37 25.8401 27.3316 25.4942 27.3124V27.0242C25.8977 27.053 26.4837 27.0674 27.2523 27.0674L28.8085 27.053C28.9911 27.0434 29.1976 27.0386 29.4282 27.0386C30.4081 27.0386 31.1574 27.2451 31.6762 27.6582C32.2045 28.0713 32.4687 28.6189 32.4687 29.301C32.4687 29.8582 32.291 30.3577 31.9356 30.7996C31.5897 31.2415 31.0373 31.5778 30.2784 31.8083V31.8372ZM29.0679 27.3124C28.7701 27.3124 28.5444 27.346 28.3907 27.4132C28.2466 27.4805 28.1457 27.6006 28.088 27.7735C28.0304 27.9464 28.0016 28.2058 28.0016 28.5516V31.8083H28.9671C29.7548 31.8083 30.3024 31.597 30.6098 31.1743C30.9268 30.742 31.0854 30.1704 31.0854 29.4595C31.0854 28.739 30.9268 28.201 30.6098 27.8456C30.2928 27.4901 29.7788 27.3124 29.0679 27.3124ZM29.0823 36.8951C30.8788 36.8951 31.777 36.0545 31.777 34.3734C31.777 33.6144 31.5705 33.038 31.1574 32.6441C30.7539 32.2503 30.1055 32.0533 29.212 32.0533H28.0016V35.6991C28.0016 36.0449 28.0304 36.2995 28.088 36.4628C28.1457 36.6261 28.2466 36.7414 28.3907 36.8087C28.5444 36.8663 28.7749 36.8951 29.0823 36.8951ZM39.4237 31.8372C40.4804 31.9813 41.2346 32.2887 41.6861 32.7594C42.1376 33.2205 42.3634 33.7777 42.3634 34.431C42.3634 34.9786 42.2241 35.4637 41.9455 35.8864C41.6669 36.3091 41.2682 36.6405 40.7494 36.8807C40.2307 37.1113 39.6158 37.2266 38.9049 37.2266C38.6456 37.2266 38.4246 37.2218 38.2421 37.2122C37.6272 37.1929 37.022 37.1833 36.4264 37.1833C35.6386 37.1833 35.043 37.1977 34.6395 37.2266V36.9384C34.9854 36.9191 35.2352 36.8807 35.3889 36.8231C35.5522 36.7654 35.6627 36.655 35.7203 36.4916C35.7779 36.3283 35.8068 36.0641 35.8068 35.6991V28.5516C35.8068 28.1866 35.7779 27.9224 35.7203 27.7591C35.6627 27.5958 35.5522 27.4853 35.3889 27.4277C35.2352 27.37 34.9854 27.3316 34.6395 27.3124V27.0242C35.043 27.053 35.629 27.0674 36.3976 27.0674L37.9539 27.053C38.1364 27.0434 38.3429 27.0386 38.5735 27.0386C39.5534 27.0386 40.3027 27.2451 40.8215 27.6582C41.3499 28.0713 41.614 28.6189 41.614 29.301C41.614 29.8582 41.4363 30.3577 41.0809 30.7996C40.735 31.2415 40.1826 31.5778 39.4237 31.8083V31.8372ZM38.2133 27.3124C37.9154 27.3124 37.6897 27.346 37.536 27.4132C37.3919 27.4805 37.291 27.6006 37.2334 27.7735C37.1757 27.9464 37.1469 28.2058 37.1469 28.5516V31.8083H38.1124C38.9001 31.8083 39.4477 31.597 39.7551 31.1743C40.0722 30.742 40.2307 30.1704 40.2307 29.4595C40.2307 28.739 40.0722 28.201 39.7551 27.8456C39.4381 27.4901 38.9242 27.3124 38.2133 27.3124ZM38.2277 36.8951C40.0241 36.8951 40.9224 36.0545 40.9224 34.3734C40.9224 33.6144 40.7158 33.038 40.3027 32.6441C39.8992 32.2503 39.2508 32.0533 38.3574 32.0533H37.1469V35.6991C37.1469 36.0449 37.1757 36.2995 37.2334 36.4628C37.291 36.6261 37.3919 36.7414 37.536 36.8087C37.6897 36.8663 37.9202 36.8951 38.2277 36.8951ZM47.4594 27.3124C47.1136 27.3316 46.859 27.37 46.6957 27.4277C46.542 27.4853 46.4363 27.5958 46.3787 27.7591C46.321 27.9224 46.2922 28.1866 46.2922 28.5516V35.6991C46.2922 36.0641 46.321 36.3283 46.3787 36.4916C46.4363 36.655 46.542 36.7654 46.6957 36.8231C46.859 36.8807 47.1136 36.9191 47.4594 36.9384V37.2266C47.0175 37.1977 46.4075 37.1833 45.6294 37.1833C44.8032 37.1833 44.1883 37.1977 43.7849 37.2266V36.9384C44.1307 36.9191 44.3805 36.8807 44.5342 36.8231C44.6975 36.7654 44.808 36.655 44.8656 36.4916C44.9233 36.3283 44.9521 36.0641 44.9521 35.6991V28.5516C44.9521 28.1866 44.9233 27.9224 44.8656 27.7591C44.808 27.5958 44.6975 27.4853 44.5342 27.4277C44.3805 27.37 44.1307 27.3316 43.7849 27.3124V27.0242C44.1883 27.053 44.8032 27.0674 45.6294 27.0674C46.3979 27.0674 47.0079 27.053 47.4594 27.0242V27.3124ZM56.4989 36.0161C56.7295 36.6117 57.0609 36.9191 57.4932 36.9384V37.2266C57.109 37.1977 56.595 37.1833 55.9514 37.1833C55.1252 37.1833 54.5103 37.1977 54.1069 37.2266V36.9384C54.4719 36.9191 54.7313 36.8759 54.885 36.8087C55.0483 36.7318 55.13 36.5973 55.13 36.4052C55.13 36.2419 55.0723 36.0161 54.9571 35.7279L54.078 33.3646H50.5908L50 34.8921C49.8078 35.4109 49.7118 35.8048 49.7118 36.0737C49.7118 36.3716 49.8126 36.5877 50.0144 36.7222C50.2257 36.8567 50.5427 36.9288 50.9654 36.9384V37.2266C50.4179 37.1977 49.8655 37.1833 49.3083 37.1833C48.876 37.1833 48.5157 37.1977 48.2275 37.2266V36.9384C48.7078 36.8231 49.0873 36.4052 49.3659 35.6847L52.7523 26.9521H52.9829L56.4989 36.0161ZM53.9628 33.0764L52.3488 28.7678L50.7061 33.0764H53.9628Z"/>
</mask>
<path d="M29.24 13.3124C28.8942 13.3316 28.6396 13.37 28.4763 13.4277C28.3226 13.4853 28.2169 13.5958 28.1593 13.7591C28.1016 13.9224 28.0728 14.1866 28.0728 14.5516V21.6991C28.0728 22.0641 28.1016 22.3283 28.1593 22.4916C28.2169 22.655 28.3226 22.7654 28.4763 22.8231C28.6396 22.8711 28.8942 22.8951 29.24 22.8951H30.292C30.8876 22.8951 31.3391 22.8135 31.6465 22.6502C31.9636 22.4772 32.1941 22.2034 32.3382 21.8288C32.4823 21.4541 32.588 20.9113 32.6552 20.2004H32.9867C32.9579 20.4982 32.9434 20.8921 32.9434 21.3821C32.9434 21.9296 32.9771 22.5445 33.0443 23.2266C32.3911 23.1977 31.2911 23.1833 29.7444 23.1833C27.8999 23.1833 26.5069 23.1977 25.5654 23.2266V22.9384C25.9113 22.9191 26.1611 22.8807 26.3148 22.8231C26.4781 22.7654 26.5886 22.655 26.6462 22.4916C26.7039 22.3283 26.7327 22.0641 26.7327 21.6991V14.5516C26.7327 14.1866 26.7039 13.9224 26.6462 13.7591C26.5886 13.5958 26.4781 13.4853 26.3148 13.4277C26.1611 13.37 25.9113 13.3316 25.5654 13.3124V13.0242C25.9689 13.053 26.5838 13.0674 27.4099 13.0674C28.1785 13.0674 28.7885 13.053 29.24 13.0242V13.3124ZM41.868 22.0161C42.0986 22.6117 42.43 22.9191 42.8623 22.9384V23.2266C42.478 23.1977 41.9641 23.1833 41.3204 23.1833C40.4942 23.1833 39.8794 23.1977 39.4759 23.2266V22.9384C39.841 22.9191 40.1004 22.8759 40.2541 22.8087C40.4174 22.7318 40.499 22.5973 40.499 22.4052C40.499 22.2419 40.4414 22.0161 40.3261 21.7279L39.4471 19.3646H35.9598L35.369 20.8921C35.1769 21.4109 35.0808 21.8048 35.0808 22.0737C35.0808 22.3716 35.1817 22.5877 35.3834 22.7222C35.5948 22.8567 35.9118 22.9288 36.3345 22.9384V23.2266C35.7869 23.1977 35.2345 23.1833 34.6773 23.1833C34.245 23.1833 33.8848 23.1977 33.5966 23.2266V22.9384C34.0769 22.8231 34.4564 22.4052 34.735 21.6847L38.1214 12.9521H38.3519L41.868 22.0161ZM39.3318 19.0764L37.7179 14.7678L36.0751 19.0764H39.3318ZM15.9843 31.8372C17.0411 31.9813 17.7952 32.2887 18.2467 32.7594C18.6982 33.2205 18.924 33.7777 18.924 34.431C18.924 34.9786 18.7847 35.4637 18.5061 35.8864C18.2275 36.3091 17.8288 36.6405 17.31 36.8807C16.7913 37.1113 16.1764 37.2266 15.4655 37.2266C15.2062 37.2266 14.9852 37.2218 14.8027 37.2122C14.1878 37.1929 13.5826 37.1833 12.987 37.1833C12.1992 37.1833 11.6036 37.1977 11.2001 37.2266V36.9384C11.546 36.9191 11.7958 36.8807 11.9495 36.8231C12.1128 36.7654 12.2233 36.655 12.2809 36.4916C12.3385 36.3283 12.3674 36.0641 12.3674 35.6991V28.5516C12.3674 28.1866 12.3385 27.9224 12.2809 27.7591C12.2233 27.5958 12.1128 27.4853 11.9495 27.4277C11.7958 27.37 11.546 27.3316 11.2001 27.3124V27.0242C11.6036 27.053 12.1896 27.0674 12.9582 27.0674L14.5145 27.053C14.697 27.0434 14.9035 27.0386 15.1341 27.0386C16.114 27.0386 16.8633 27.2451 17.3821 27.6582C17.9105 28.0713 18.1747 28.6189 18.1747 29.301C18.1747 29.8582 17.9969 30.3577 17.6415 30.7996C17.2956 31.2415 16.7432 31.5778 15.9843 31.8083V31.8372ZM14.7739 27.3124C14.476 27.3124 14.2503 27.346 14.0966 27.4132C13.9525 27.4805 13.8516 27.6006 13.794 27.7735C13.7363 27.9464 13.7075 28.2058 13.7075 28.5516V31.8083H14.673C15.4607 31.8083 16.0083 31.597 16.3157 31.1743C16.6328 30.742 16.7913 30.1704 16.7913 29.4595C16.7913 28.739 16.6328 28.201 16.3157 27.8456C15.9987 27.4901 15.4848 27.3124 14.7739 27.3124ZM14.7883 36.8951C16.5847 36.8951 17.483 36.0545 17.483 34.3734C17.483 33.6144 17.2764 33.038 16.8633 32.6441C16.4598 32.2503 15.8114 32.0533 14.918 32.0533H13.7075V35.6991C13.7075 36.0449 13.7363 36.2995 13.794 36.4628C13.8516 36.6261 13.9525 36.7414 14.0966 36.8087C14.2503 36.8663 14.4808 36.8951 14.7883 36.8951ZM24.02 27.3124C23.6742 27.3316 23.4196 27.37 23.2563 27.4277C23.1026 27.4853 22.9969 27.5958 22.9393 27.7591C22.8816 27.9224 22.8528 28.1866 22.8528 28.5516V35.6991C22.8528 36.0641 22.8816 36.3283 22.9393 36.4916C22.9969 36.655 23.1026 36.7654 23.2563 36.8231C23.4196 36.8807 23.6742 36.9191 24.02 36.9384V37.2266C23.5781 37.1977 22.9681 37.1833 22.19 37.1833C21.3638 37.1833 20.7489 37.1977 20.3455 37.2266V36.9384C20.6913 36.9191 20.9411 36.8807 21.0948 36.8231C21.2581 36.7654 21.3686 36.655 21.4262 36.4916C21.4839 36.3283 21.5127 36.0641 21.5127 35.6991V28.5516C21.5127 28.1866 21.4839 27.9224 21.4262 27.7591C21.3686 27.5958 21.2581 27.4853 21.0948 27.4277C20.9411 27.37 20.6913 27.3316 20.3455 27.3124V27.0242C20.7489 27.053 21.3638 27.0674 22.19 27.0674C22.9585 27.0674 23.5685 27.053 24.02 27.0242V27.3124ZM30.2784 31.8372C31.3351 31.9813 32.0893 32.2887 32.5408 32.7594C32.9923 33.2205 33.2181 33.7777 33.2181 34.431C33.2181 34.9786 33.0788 35.4637 32.8002 35.8864C32.5216 36.3091 32.1229 36.6405 31.6041 36.8807C31.0854 37.1113 30.4705 37.2266 29.7596 37.2266C29.5002 37.2266 29.2793 37.2218 29.0968 37.2122C28.4819 37.1929 27.8767 37.1833 27.2811 37.1833C26.4933 37.1833 25.8977 37.1977 25.4942 37.2266V36.9384C25.8401 36.9191 26.0898 36.8807 26.2435 36.8231C26.4069 36.7654 26.5173 36.655 26.575 36.4916C26.6326 36.3283 26.6614 36.0641 26.6614 35.6991V28.5516C26.6614 28.1866 26.6326 27.9224 26.575 27.7591C26.5173 27.5958 26.4069 27.4853 26.2435 27.4277C26.0898 27.37 25.8401 27.3316 25.4942 27.3124V27.0242C25.8977 27.053 26.4837 27.0674 27.2523 27.0674L28.8085 27.053C28.9911 27.0434 29.1976 27.0386 29.4282 27.0386C30.4081 27.0386 31.1574 27.2451 31.6762 27.6582C32.2045 28.0713 32.4687 28.6189 32.4687 29.301C32.4687 29.8582 32.291 30.3577 31.9356 30.7996C31.5897 31.2415 31.0373 31.5778 30.2784 31.8083V31.8372ZM29.0679 27.3124C28.7701 27.3124 28.5444 27.346 28.3907 27.4132C28.2466 27.4805 28.1457 27.6006 28.088 27.7735C28.0304 27.9464 28.0016 28.2058 28.0016 28.5516V31.8083H28.9671C29.7548 31.8083 30.3024 31.597 30.6098 31.1743C30.9268 30.742 31.0854 30.1704 31.0854 29.4595C31.0854 28.739 30.9268 28.201 30.6098 27.8456C30.2928 27.4901 29.7788 27.3124 29.0679 27.3124ZM29.0823 36.8951C30.8788 36.8951 31.777 36.0545 31.777 34.3734C31.777 33.6144 31.5705 33.038 31.1574 32.6441C30.7539 32.2503 30.1055 32.0533 29.212 32.0533H28.0016V35.6991C28.0016 36.0449 28.0304 36.2995 28.088 36.4628C28.1457 36.6261 28.2466 36.7414 28.3907 36.8087C28.5444 36.8663 28.7749 36.8951 29.0823 36.8951ZM39.4237 31.8372C40.4804 31.9813 41.2346 32.2887 41.6861 32.7594C42.1376 33.2205 42.3634 33.7777 42.3634 34.431C42.3634 34.9786 42.2241 35.4637 41.9455 35.8864C41.6669 36.3091 41.2682 36.6405 40.7494 36.8807C40.2307 37.1113 39.6158 37.2266 38.9049 37.2266C38.6456 37.2266 38.4246 37.2218 38.2421 37.2122C37.6272 37.1929 37.022 37.1833 36.4264 37.1833C35.6386 37.1833 35.043 37.1977 34.6395 37.2266V36.9384C34.9854 36.9191 35.2352 36.8807 35.3889 36.8231C35.5522 36.7654 35.6627 36.655 35.7203 36.4916C35.7779 36.3283 35.8068 36.0641 35.8068 35.6991V28.5516C35.8068 28.1866 35.7779 27.9224 35.7203 27.7591C35.6627 27.5958 35.5522 27.4853 35.3889 27.4277C35.2352 27.37 34.9854 27.3316 34.6395 27.3124V27.0242C35.043 27.053 35.629 27.0674 36.3976 27.0674L37.9539 27.053C38.1364 27.0434 38.3429 27.0386 38.5735 27.0386C39.5534 27.0386 40.3027 27.2451 40.8215 27.6582C41.3499 28.0713 41.614 28.6189 41.614 29.301C41.614 29.8582 41.4363 30.3577 41.0809 30.7996C40.735 31.2415 40.1826 31.5778 39.4237 31.8083V31.8372ZM38.2133 27.3124C37.9154 27.3124 37.6897 27.346 37.536 27.4132C37.3919 27.4805 37.291 27.6006 37.2334 27.7735C37.1757 27.9464 37.1469 28.2058 37.1469 28.5516V31.8083H38.1124C38.9001 31.8083 39.4477 31.597 39.7551 31.1743C40.0722 30.742 40.2307 30.1704 40.2307 29.4595C40.2307 28.739 40.0722 28.201 39.7551 27.8456C39.4381 27.4901 38.9242 27.3124 38.2133 27.3124ZM38.2277 36.8951C40.0241 36.8951 40.9224 36.0545 40.9224 34.3734C40.9224 33.6144 40.7158 33.038 40.3027 32.6441C39.8992 32.2503 39.2508 32.0533 38.3574 32.0533H37.1469V35.6991C37.1469 36.0449 37.1757 36.2995 37.2334 36.4628C37.291 36.6261 37.3919 36.7414 37.536 36.8087C37.6897 36.8663 37.9202 36.8951 38.2277 36.8951ZM47.4594 27.3124C47.1136 27.3316 46.859 27.37 46.6957 27.4277C46.542 27.4853 46.4363 27.5958 46.3787 27.7591C46.321 27.9224 46.2922 28.1866 46.2922 28.5516V35.6991C46.2922 36.0641 46.321 36.3283 46.3787 36.4916C46.4363 36.655 46.542 36.7654 46.6957 36.8231C46.859 36.8807 47.1136 36.9191 47.4594 36.9384V37.2266C47.0175 37.1977 46.4075 37.1833 45.6294 37.1833C44.8032 37.1833 44.1883 37.1977 43.7849 37.2266V36.9384C44.1307 36.9191 44.3805 36.8807 44.5342 36.8231C44.6975 36.7654 44.808 36.655 44.8656 36.4916C44.9233 36.3283 44.9521 36.0641 44.9521 35.6991V28.5516C44.9521 28.1866 44.9233 27.9224 44.8656 27.7591C44.808 27.5958 44.6975 27.4853 44.5342 27.4277C44.3805 27.37 44.1307 27.3316 43.7849 27.3124V27.0242C44.1883 27.053 44.8032 27.0674 45.6294 27.0674C46.3979 27.0674 47.0079 27.053 47.4594 27.0242V27.3124ZM56.4989 36.0161C56.7295 36.6117 57.0609 36.9191 57.4932 36.9384V37.2266C57.109 37.1977 56.595 37.1833 55.9514 37.1833C55.1252 37.1833 54.5103 37.1977 54.1069 37.2266V36.9384C54.4719 36.9191 54.7313 36.8759 54.885 36.8087C55.0483 36.7318 55.13 36.5973 55.13 36.4052C55.13 36.2419 55.0723 36.0161 54.9571 35.7279L54.078 33.3646H50.5908L50 34.8921C49.8078 35.4109 49.7118 35.8048 49.7118 36.0737C49.7118 36.3716 49.8126 36.5877 50.0144 36.7222C50.2257 36.8567 50.5427 36.9288 50.9654 36.9384V37.2266C50.4179 37.1977 49.8655 37.1833 49.3083 37.1833C48.876 37.1833 48.5157 37.1977 48.2275 37.2266V36.9384C48.7078 36.8231 49.0873 36.4052 49.3659 35.6847L52.7523 26.9521H52.9829L56.4989 36.0161ZM53.9628 33.0764L52.3488 28.7678L50.7061 33.0764H53.9628Z" fill="#FEF5EB"/>
<path d="M29.24 13.3124L29.2513 13.5148L29.4428 13.5042V13.3124H29.24ZM28.4763 13.4277L28.4088 13.2364L28.4051 13.2378L28.4763 13.4277ZM28.1593 13.7591L28.3505 13.8266V13.8266L28.1593 13.7591ZM28.1593 22.4916L28.3505 22.4242V22.4242L28.1593 22.4916ZM28.4763 22.8231L28.4051 23.0129L28.412 23.0155L28.4191 23.0176L28.4763 22.8231ZM31.6465 22.6502L31.7417 22.8292L31.7436 22.8281L31.6465 22.6502ZM32.3382 21.8288L32.5274 21.9016V21.9016L32.3382 21.8288ZM32.6552 20.2004V19.9977H32.4708L32.4534 20.1813L32.6552 20.2004ZM32.9867 20.2004L33.1885 20.22L33.21 19.9977H32.9867V20.2004ZM33.0443 23.2266L33.0354 23.4291L33.269 23.4394L33.2461 23.2067L33.0443 23.2266ZM25.5654 23.2266H25.3627V23.4356L25.5717 23.4292L25.5654 23.2266ZM25.5654 22.9384L25.5542 22.7359L25.3627 22.7466V22.9384H25.5654ZM26.3148 22.8231L26.2473 22.6319L26.2436 22.6332L26.3148 22.8231ZM26.6462 13.7591L26.455 13.8266V13.8266L26.6462 13.7591ZM26.3148 13.4277L26.2436 13.6175L26.2473 13.6188L26.3148 13.4277ZM25.5654 13.3124H25.3627V13.5042L25.5542 13.5148L25.5654 13.3124ZM25.5654 13.0242L25.5799 12.822L25.3627 12.8064V13.0242H25.5654ZM29.24 13.0242H29.4428V12.8081L29.2271 12.8218L29.24 13.0242ZM29.2288 13.1099C28.8789 13.1294 28.6005 13.1688 28.4088 13.2365L28.5438 13.6188C28.6788 13.5712 28.9095 13.5338 29.2513 13.5148L29.2288 13.1099ZM28.4051 13.2378C28.1919 13.3178 28.0444 13.4753 27.9681 13.6916L28.3505 13.8266C28.3894 13.7162 28.4533 13.6528 28.5475 13.6175L28.4051 13.2378ZM27.9681 13.6916C27.8982 13.8896 27.8701 14.1833 27.8701 14.5516H28.2756C28.2756 14.1899 28.305 13.9553 28.3505 13.8266L27.9681 13.6916ZM27.8701 14.5516V21.6991H28.2756V14.5516H27.8701ZM27.8701 21.6991C27.8701 22.0674 27.8982 22.3612 27.9681 22.5591L28.3505 22.4242C28.305 22.2955 28.2756 22.0609 28.2756 21.6991H27.8701ZM27.9681 22.5591C28.0444 22.7754 28.1919 22.9329 28.4051 23.0129L28.5475 22.6332C28.4533 22.5979 28.3894 22.5345 28.3505 22.4242L27.9681 22.5591ZM28.4191 23.0176C28.6116 23.0742 28.8905 23.0979 29.24 23.0979V22.6924C28.8979 22.6924 28.6676 22.668 28.5335 22.6286L28.4191 23.0176ZM29.24 23.0979H30.292V22.6924H29.24V23.0979ZM30.292 23.0979C30.9002 23.0979 31.391 23.0155 31.7416 22.8292L31.5514 22.4711C31.2872 22.6115 30.875 22.6924 30.292 22.6924V23.0979ZM31.7436 22.8281C32.1076 22.6296 32.3681 22.3157 32.5274 21.9016L32.149 21.756C32.0201 22.0911 31.8195 22.3249 31.5495 22.4722L31.7436 22.8281ZM32.5274 21.9016C32.6814 21.5012 32.7892 20.9369 32.8571 20.2195L32.4534 20.1813C32.3868 20.8858 32.2832 21.407 32.149 21.756L32.5274 21.9016ZM32.6552 20.4032H32.9867V19.9977H32.6552V20.4032ZM32.7849 20.1809C32.7552 20.488 32.7407 20.8891 32.7407 21.3821H33.1462C33.1462 20.8951 33.1605 20.5085 33.1885 20.22L32.7849 20.1809ZM32.7407 21.3821C32.7407 21.9377 32.7748 22.5593 32.8426 23.2465L33.2461 23.2067C33.1793 22.5296 33.1462 21.9216 33.1462 21.3821H32.7407ZM33.0533 23.024C32.3951 22.995 31.2912 22.9806 29.7444 22.9806V23.3861C31.291 23.3861 32.387 23.4005 33.0354 23.4291L33.0533 23.024ZM29.7444 22.9806C27.8994 22.9806 26.5039 22.995 25.5592 23.0239L25.5717 23.4292C26.5099 23.4005 27.9004 23.3861 29.7444 23.3861V22.9806ZM25.7682 23.2266V22.9384H25.3627V23.2266H25.7682ZM25.5767 23.1408C25.9255 23.1214 26.2016 23.0821 26.386 23.0129L26.2436 22.6332C26.1206 22.6794 25.8971 22.7169 25.5542 22.7359L25.5767 23.1408ZM26.3823 23.0143C26.6034 22.9362 26.7593 22.7803 26.8374 22.5591L26.455 22.4242C26.4178 22.5297 26.3528 22.5947 26.2473 22.6319L26.3823 23.0143ZM26.8374 22.5591C26.9073 22.3612 26.9354 22.0674 26.9354 21.6991H26.5299C26.5299 22.0609 26.5005 22.2955 26.455 22.4242L26.8374 22.5591ZM26.9354 21.6991V14.5516H26.5299V21.6991H26.9354ZM26.9354 14.5516C26.9354 14.1833 26.9073 13.8896 26.8374 13.6916L26.455 13.8266C26.5005 13.9553 26.5299 14.1899 26.5299 14.5516H26.9354ZM26.8374 13.6916C26.7593 13.4705 26.6034 13.3145 26.3823 13.2365L26.2473 13.6188C26.3528 13.6561 26.4178 13.7211 26.455 13.8266L26.8374 13.6916ZM26.386 13.2378C26.2016 13.1687 25.9255 13.1293 25.5767 13.1099L25.5542 13.5148C25.8971 13.5338 26.1206 13.5714 26.2436 13.6175L26.386 13.2378ZM25.7682 13.3124V13.0242H25.3627V13.3124H25.7682ZM25.551 13.2264C25.962 13.2558 26.5828 13.2701 27.4099 13.2701V12.8647C26.5847 12.8647 25.9758 12.8502 25.5799 12.822L25.551 13.2264ZM27.4099 13.2701C28.1803 13.2701 28.7952 13.2557 29.253 13.2265L29.2271 12.8218C28.7818 12.8503 28.1767 12.8647 27.4099 12.8647V13.2701ZM29.0373 13.0242V13.3124H29.4428V13.0242H29.0373ZM41.868 22.0161L42.0571 21.9429L42.057 21.9428L41.868 22.0161ZM42.8623 22.9384H43.065V22.7444L42.8713 22.7358L42.8623 22.9384ZM42.8623 23.2266L42.8471 23.4287L43.065 23.4451V23.2266H42.8623ZM39.4759 23.2266H39.2732V23.4443L39.4904 23.4288L39.4759 23.2266ZM39.4759 22.9384L39.4653 22.7359L39.2732 22.746V22.9384H39.4759ZM40.2541 22.8087L40.3354 22.9945L40.3404 22.9921L40.2541 22.8087ZM40.3261 21.7279L40.136 21.7986L40.1379 21.8032L40.3261 21.7279ZM39.4471 19.3646L39.6371 19.294L39.588 19.1619H39.4471V19.3646ZM35.9598 19.3646V19.1619H35.8209L35.7708 19.2915L35.9598 19.3646ZM35.369 20.8921L35.1799 20.819L35.1789 20.8217L35.369 20.8921ZM35.3834 22.7222L35.2709 22.8909L35.2746 22.8932L35.3834 22.7222ZM36.3345 22.9384H36.5372V22.7402L36.3391 22.7357L36.3345 22.9384ZM36.3345 23.2266L36.3238 23.429L36.5372 23.4403V23.2266H36.3345ZM33.5966 23.2266H33.3938V23.4506L33.6167 23.4283L33.5966 23.2266ZM33.5966 22.9384L33.5493 22.7412L33.3938 22.7785V22.9384H33.5966ZM34.735 21.6847L34.546 21.6114L34.5459 21.6116L34.735 21.6847ZM38.1214 12.9521V12.7494H37.9825L37.9323 12.8788L38.1214 12.9521ZM38.3519 12.9521L38.5409 12.8788L38.4907 12.7494H38.3519V12.9521ZM39.3318 19.0764V19.2792H39.6243L39.5217 19.0053L39.3318 19.0764ZM37.7179 14.7678L37.9077 14.6967L37.7196 14.1943L37.5284 14.6956L37.7179 14.7678ZM36.0751 19.0764L35.8857 19.0042L35.7808 19.2792H36.0751V19.0764ZM41.6789 22.0893C41.9226 22.7188 42.3043 23.1165 42.8533 23.1409L42.8713 22.7358C42.5557 22.7218 42.2745 22.5046 42.0571 21.9429L41.6789 22.0893ZM42.6596 22.9384V23.2266H43.065V22.9384H42.6596ZM42.8775 23.0244C42.4859 22.995 41.9663 22.9806 41.3204 22.9806V23.3861C41.9619 23.3861 42.4701 23.4005 42.8471 23.4287L42.8775 23.0244ZM41.3204 22.9806C40.4933 22.9806 39.8725 22.995 39.4615 23.0243L39.4904 23.4288C39.8863 23.4005 40.4952 23.3861 41.3204 23.3861V22.9806ZM39.6787 23.2266V22.9384H39.2732V23.2266H39.6787ZM39.4866 23.1408C39.8541 23.1215 40.1455 23.0775 40.3353 22.9944L40.1728 22.6229C40.0552 22.6744 39.8279 22.7168 39.4653 22.7359L39.4866 23.1408ZM40.3404 22.9921C40.4526 22.9393 40.5467 22.8615 40.6111 22.7554C40.675 22.6501 40.7018 22.5302 40.7018 22.4052H40.2963C40.2963 22.4724 40.2822 22.5158 40.2645 22.5449C40.2473 22.5733 40.2188 22.6012 40.1677 22.6252L40.3404 22.9921ZM40.7018 22.4052C40.7018 22.2022 40.6322 21.9471 40.5144 21.6526L40.1379 21.8032C40.2506 22.0851 40.2963 22.2815 40.2963 22.4052H40.7018ZM40.5161 21.6572L39.6371 19.294L39.2571 19.4353L40.1361 21.7986L40.5161 21.6572ZM39.4471 19.1619H35.9598V19.5674H39.4471V19.1619ZM35.7708 19.2915L35.1799 20.819L35.5581 20.9653L36.1489 19.4378L35.7708 19.2915ZM35.1789 20.8217C34.9853 21.3443 34.8781 21.7667 34.8781 22.0737H35.2836C35.2836 21.8428 35.3684 21.4774 35.5591 20.9625L35.1789 20.8217ZM34.8781 22.0737C34.8781 22.4217 34.9996 22.71 35.271 22.8909L35.4959 22.5535C35.3638 22.4655 35.2836 22.3214 35.2836 22.0737H34.8781ZM35.2746 22.8932C35.5318 23.057 35.8927 23.1311 36.3299 23.141L36.3391 22.7357C35.9309 22.7264 35.6577 22.6564 35.4923 22.5512L35.2746 22.8932ZM36.1318 22.9384V23.2266H36.5372V22.9384H36.1318ZM36.3452 23.0241C35.794 22.9951 35.238 22.9806 34.6773 22.9806V23.3861C35.231 23.3861 35.7799 23.4004 36.3238 23.429L36.3452 23.0241ZM34.6773 22.9806C34.2412 22.9806 33.8737 22.9951 33.5764 23.0248L33.6167 23.4283C33.8959 23.4004 34.2488 23.3861 34.6773 23.3861V22.9806ZM33.7993 23.2266V22.9384H33.3938V23.2266H33.7993ZM33.6439 23.1355C34.2193 22.9974 34.6355 22.5042 34.9241 21.7578L34.5459 21.6116C34.2773 22.3062 33.9345 22.6488 33.5493 22.7412L33.6439 23.1355ZM34.924 21.758L38.3104 13.0254L37.9323 12.8788L34.546 21.6114L34.924 21.758ZM38.1214 13.1549H38.3519V12.7494H38.1214V13.1549ZM38.1629 13.0254L41.679 22.0894L42.057 21.9428L38.5409 12.8788L38.1629 13.0254ZM39.5217 19.0053L37.9077 14.6967L37.528 14.8389L39.142 19.1476L39.5217 19.0053ZM37.5284 14.6956L35.8857 19.0042L36.2646 19.1487L37.9073 14.84L37.5284 14.6956ZM36.0751 19.2792H39.3318V18.8737H36.0751V19.2792ZM15.9843 31.8372H15.7816V32.0141L15.9569 32.038L15.9843 31.8372ZM18.2467 32.7594L18.1004 32.8998L18.1018 32.9013L18.2467 32.7594ZM18.5061 35.8864L18.6754 35.998V35.998L18.5061 35.8864ZM17.31 36.8807L17.3924 37.066L17.3952 37.0647L17.31 36.8807ZM14.8027 37.2122L14.8133 37.0096L14.809 37.0095L14.8027 37.2122ZM11.2001 37.2266H10.9974V37.4443L11.2146 37.4288L11.2001 37.2266ZM11.2001 36.9384L11.1889 36.7359L10.9974 36.7466V36.9384H11.2001ZM11.9495 36.8231L11.882 36.6319L11.8783 36.6332L11.9495 36.8231ZM12.2809 27.7591L12.0897 27.8266V27.8266L12.2809 27.7591ZM11.9495 27.4277L11.8783 27.6175L11.882 27.6188L11.9495 27.4277ZM11.2001 27.3124H10.9974V27.5042L11.1889 27.5148L11.2001 27.3124ZM11.2001 27.0242L11.2146 26.822L10.9974 26.8064V27.0242H11.2001ZM12.9582 27.0674V27.2701L12.9601 27.2701L12.9582 27.0674ZM14.5145 27.053L14.5164 27.2559L14.5251 27.2554L14.5145 27.053ZM17.3821 27.6582L17.2558 27.8168L17.2572 27.8179L17.3821 27.6582ZM17.6415 30.7996L17.4835 30.6726L17.4818 30.6747L17.6415 30.7996ZM15.9843 31.8083L15.9254 31.6144L15.7816 31.658V31.8083H15.9843ZM14.0966 27.4132L14.0153 27.2275L14.0108 27.2295L14.0966 27.4132ZM13.794 27.7735L13.9863 27.8376V27.8376L13.794 27.7735ZM13.7075 31.8083H13.5048V32.0111H13.7075V31.8083ZM16.3157 31.1743L16.1523 31.0544L16.1518 31.0551L16.3157 31.1743ZM16.8633 32.6441L16.7217 32.7892L16.7234 32.7909L16.8633 32.6441ZM13.7075 32.0533V31.8506H13.5048V32.0533H13.7075ZM13.794 36.4628L13.9851 36.3953V36.3953L13.794 36.4628ZM14.0966 36.8087L14.0108 36.9924L14.018 36.9957L14.0254 36.9985L14.0966 36.8087ZM15.9569 32.038C16.9949 32.1796 17.6951 32.4773 18.1004 32.8998L18.393 32.6191C17.8952 32.1001 17.0872 31.7829 16.0117 31.6363L15.9569 32.038ZM18.1018 32.9013C18.5158 33.324 18.7212 33.83 18.7212 34.431H19.1267C19.1267 33.7254 18.8807 33.1171 18.3916 32.6176L18.1018 32.9013ZM18.7212 34.431C18.7212 34.9423 18.5918 35.388 18.3368 35.7748L18.6754 35.998C18.9776 35.5395 19.1267 35.0149 19.1267 34.431H18.7212ZM18.3368 35.7748C18.0816 36.1621 17.7139 36.4703 17.2249 36.6967L17.3952 37.0647C17.9437 36.8108 18.3734 36.4561 18.6754 35.998L18.3368 35.7748ZM17.2277 36.6955C16.7405 36.912 16.155 37.0238 15.4655 37.0238V37.4293C16.1979 37.4293 16.842 37.3106 17.3924 37.066L17.2277 36.6955ZM15.4655 37.0238C15.2084 37.0238 14.9912 37.0191 14.8133 37.0097L14.792 37.4146C14.9792 37.4245 15.2039 37.4293 15.4655 37.4293V37.0238ZM14.809 37.0095C14.1921 36.9902 13.5848 36.9806 12.987 36.9806V37.3861C13.5804 37.3861 14.1836 37.3956 14.7963 37.4148L14.809 37.0095ZM12.987 36.9806C12.198 36.9806 11.5966 36.995 11.1857 37.0243L11.2146 37.4288C11.6107 37.4005 12.2005 37.3861 12.987 37.3861V36.9806ZM11.4029 37.2266V36.9384H10.9974V37.2266H11.4029ZM11.2114 37.1408C11.5602 37.1214 11.8363 37.0821 12.0207 37.0129L11.8783 36.6332C11.7553 36.6794 11.5318 36.7169 11.1889 36.7359L11.2114 37.1408ZM12.0169 37.0143C12.2381 36.9362 12.394 36.7803 12.4721 36.5591L12.0897 36.4242C12.0525 36.5297 11.9875 36.5947 11.882 36.6319L12.0169 37.0143ZM12.4721 36.5591C12.5419 36.3612 12.5701 36.0674 12.5701 35.6991H12.1646C12.1646 36.0609 12.1351 36.2955 12.0897 36.4242L12.4721 36.5591ZM12.5701 35.6991V28.5516H12.1646V35.6991H12.5701ZM12.5701 28.5516C12.5701 28.1833 12.5419 27.8896 12.4721 27.6916L12.0897 27.8266C12.1351 27.9552 12.1646 28.1899 12.1646 28.5516H12.5701ZM12.4721 27.6916C12.394 27.4705 12.2381 27.3145 12.0169 27.2365L11.882 27.6188C11.9875 27.6561 12.0525 27.7211 12.0897 27.8266L12.4721 27.6916ZM12.0207 27.2378C11.8363 27.1687 11.5602 27.1293 11.2114 27.1099L11.1889 27.5148C11.5318 27.5338 11.7553 27.5714 11.8783 27.6175L12.0207 27.2378ZM11.4029 27.3124V27.0242H10.9974V27.3124H11.4029ZM11.1857 27.2264C11.5965 27.2557 12.1883 27.2701 12.9582 27.2701V26.8647C12.191 26.8647 11.6107 26.8502 11.2146 26.822L11.1857 27.2264ZM12.9601 27.2701L14.5163 27.2557L14.5126 26.8503L12.9563 26.8647L12.9601 27.2701ZM14.5251 27.2554C14.7033 27.2461 14.9062 27.2413 15.1341 27.2413V26.8358C14.9009 26.8358 14.6907 26.8407 14.5038 26.8505L14.5251 27.2554ZM15.1341 27.2413C16.0892 27.2413 16.7865 27.4431 17.2558 27.8168L17.5084 27.4996C16.9401 27.0471 16.1388 26.8358 15.1341 26.8358V27.2413ZM17.2572 27.8179C17.7355 28.1918 17.9719 28.68 17.9719 29.301H18.3774C18.3774 28.5578 18.0855 27.9508 17.507 27.4985L17.2572 27.8179ZM17.9719 29.301C17.9719 29.8111 17.8105 30.266 17.4835 30.6726L17.7995 30.9267C18.1833 30.4495 18.3774 29.9053 18.3774 29.301H17.9719ZM17.4818 30.6747C17.1703 31.0728 16.6603 31.3911 15.9254 31.6144L16.0432 32.0023C16.8261 31.7645 17.421 31.4103 17.8011 30.9246L17.4818 30.6747ZM15.7816 31.8083V31.8372H16.187V31.8083H15.7816ZM14.7739 27.1096C14.4664 27.1096 14.2073 27.1435 14.0153 27.2275L14.1778 27.599C14.2932 27.5485 14.4857 27.5151 14.7739 27.5151V27.1096ZM14.0108 27.2295C13.8087 27.3238 13.6741 27.4921 13.6016 27.7094L13.9863 27.8376C14.0292 27.709 14.0962 27.6371 14.1823 27.597L14.0108 27.2295ZM13.6016 27.7094C13.5334 27.914 13.5048 28.1999 13.5048 28.5516H13.9102C13.9102 28.2117 13.9392 27.9788 13.9863 27.8376L13.6016 27.7094ZM13.5048 28.5516V31.8083H13.9102V28.5516H13.5048ZM13.7075 32.0111H14.673V31.6056H13.7075V32.0111ZM14.673 32.0111C15.4914 32.0111 16.1177 31.7913 16.4797 31.2935L16.1518 31.0551C15.899 31.4027 15.4301 31.6056 14.673 31.6056V32.0111ZM16.4792 31.2942C16.8289 30.8173 16.994 30.1996 16.994 29.4595H16.5885C16.5885 30.1412 16.4366 30.6667 16.1523 31.0544L16.4792 31.2942ZM16.994 29.4595C16.994 28.7139 16.8306 28.1182 16.467 27.7106L16.1644 27.9805C16.4349 28.2838 16.5885 28.764 16.5885 29.4595H16.994ZM16.467 27.7106C16.0959 27.2945 15.5138 27.1096 14.7739 27.1096V27.5151C15.4557 27.5151 15.9016 27.6857 16.1644 27.9805L16.467 27.7106ZM14.7883 37.0979C15.7145 37.0979 16.447 36.8814 16.9478 36.4127C17.4512 35.9416 17.6857 35.2488 17.6857 34.3734H17.2802C17.2802 35.1791 17.0656 35.7471 16.6708 36.1167C16.2734 36.4885 15.6585 36.6924 14.7883 36.6924V37.0979ZM17.6857 34.3734C17.6857 33.578 17.4684 32.9409 17.0032 32.4974L16.7234 32.7909C17.0844 33.1351 17.2802 33.6508 17.2802 34.3734H17.6857ZM17.0049 32.4991C16.5466 32.0516 15.8345 31.8506 14.918 31.8506V32.2561C15.7882 32.2561 16.3731 32.4489 16.7217 32.7892L17.0049 32.4991ZM14.918 31.8506H13.7075V32.2561H14.918V31.8506ZM13.5048 32.0533V35.6991H13.9102V32.0533H13.5048ZM13.5048 35.6991C13.5048 36.0497 13.5332 36.333 13.6028 36.5303L13.9851 36.3953C13.9395 36.266 13.9102 36.0401 13.9102 35.6991H13.5048ZM13.6028 36.5303C13.6768 36.7399 13.8128 36.8999 14.0108 36.9924L14.1823 36.625C14.0922 36.5829 14.0265 36.5124 13.9851 36.3953L13.6028 36.5303ZM14.0254 36.9985C14.2139 37.0692 14.4739 37.0979 14.7883 37.0979V36.6924C14.4878 36.6924 14.2867 36.6634 14.1678 36.6188L14.0254 36.9985ZM24.02 27.3124L24.0313 27.5148L24.2228 27.5042V27.3124H24.02ZM23.2563 27.4277L23.1888 27.2364L23.1851 27.2378L23.2563 27.4277ZM22.9393 27.7591L23.1305 27.8266V27.8266L22.9393 27.7591ZM22.9393 36.4916L23.1305 36.4242V36.4242L22.9393 36.4916ZM23.2563 36.8231L23.1851 37.0129L23.1888 37.0143L23.2563 36.8231ZM24.02 36.9384H24.2228V36.7466L24.0313 36.7359L24.02 36.9384ZM24.02 37.2266L24.0069 37.4289L24.2228 37.443V37.2266H24.02ZM20.3455 37.2266H20.1427V37.4443L20.3599 37.4288L20.3455 37.2266ZM20.3455 36.9384L20.3342 36.7359L20.1427 36.7466V36.9384H20.3455ZM21.0948 36.8231L21.0273 36.6319L21.0236 36.6332L21.0948 36.8231ZM21.4262 27.7591L21.235 27.8266V27.8266L21.4262 27.7591ZM21.0948 27.4277L21.0236 27.6175L21.0273 27.6188L21.0948 27.4277ZM20.3455 27.3124H20.1427V27.5042L20.3342 27.5148L20.3455 27.3124ZM20.3455 27.0242L20.3599 26.822L20.1427 26.8064V27.0242H20.3455ZM24.02 27.0242H24.2228V26.8081L24.0071 26.8218L24.02 27.0242ZM24.0088 27.1099C23.6589 27.1294 23.3805 27.1688 23.1888 27.2365L23.3238 27.6188C23.4588 27.5712 23.6895 27.5338 24.0313 27.5148L24.0088 27.1099ZM23.1851 27.2378C22.9719 27.3178 22.8244 27.4753 22.7481 27.6916L23.1305 27.8266C23.1694 27.7162 23.2333 27.6528 23.3275 27.6175L23.1851 27.2378ZM22.7481 27.6916C22.6782 27.8896 22.6501 28.1833 22.6501 28.5516H23.0556C23.0556 28.1899 23.085 27.9552 23.1305 27.8266L22.7481 27.6916ZM22.6501 28.5516V35.6991H23.0556V28.5516H22.6501ZM22.6501 35.6991C22.6501 36.0674 22.6782 36.3612 22.7481 36.5591L23.1305 36.4242C23.085 36.2955 23.0556 36.0609 23.0556 35.6991H22.6501ZM22.7481 36.5591C22.8244 36.7754 22.9719 36.9329 23.1851 37.0129L23.3275 36.6332C23.2333 36.5979 23.1694 36.5345 23.1305 36.4242L22.7481 36.5591ZM23.1888 37.0143C23.3805 37.0819 23.6589 37.1213 24.0088 37.1408L24.0313 36.7359C23.6895 36.7169 23.4588 36.6795 23.3238 36.6319L23.1888 37.0143ZM23.8173 36.9384V37.2266H24.2228V36.9384H23.8173ZM24.0332 37.0243C23.5849 36.995 22.9698 36.9806 22.19 36.9806V37.3861C22.9665 37.3861 23.5714 37.4005 24.0069 37.4289L24.0332 37.0243ZM22.19 36.9806C21.3628 36.9806 20.742 36.995 20.331 37.0243L20.3599 37.4288C20.7558 37.4005 21.3647 37.3861 22.19 37.3861V36.9806ZM20.5482 37.2266V36.9384H20.1427V37.2266H20.5482ZM20.3567 37.1408C20.7055 37.1214 20.9816 37.0821 21.166 37.0129L21.0236 36.6332C20.9006 36.6794 20.6771 36.7169 20.3342 36.7359L20.3567 37.1408ZM21.1623 37.0143C21.3834 36.9362 21.5394 36.7803 21.6174 36.5591L21.235 36.4242C21.1978 36.5297 21.1328 36.5947 21.0273 36.6319L21.1623 37.0143ZM21.6174 36.5591C21.6873 36.3612 21.7154 36.0674 21.7154 35.6991H21.3099C21.3099 36.0609 21.2805 36.2955 21.235 36.4242L21.6174 36.5591ZM21.7154 35.6991V28.5516H21.3099V35.6991H21.7154ZM21.7154 28.5516C21.7154 28.1833 21.6873 27.8896 21.6174 27.6916L21.235 27.8266C21.2805 27.9552 21.3099 28.1899 21.3099 28.5516H21.7154ZM21.6174 27.6916C21.5394 27.4705 21.3834 27.3145 21.1623 27.2365L21.0273 27.6188C21.1328 27.6561 21.1978 27.7211 21.235 27.8266L21.6174 27.6916ZM21.166 27.2378C20.9816 27.1687 20.7055 27.1293 20.3567 27.1099L20.3342 27.5148C20.6771 27.5338 20.9006 27.5714 21.0236 27.6175L21.166 27.2378ZM20.5482 27.3124V27.0242H20.1427V27.3124H20.5482ZM20.331 27.2264C20.742 27.2558 21.3628 27.2701 22.19 27.2701V26.8647C21.3647 26.8647 20.7558 26.8502 20.3599 26.822L20.331 27.2264ZM22.19 27.2701C22.9603 27.2701 23.5752 27.2557 24.033 27.2265L24.0071 26.8218C23.5619 26.8503 22.9567 26.8647 22.19 26.8647V27.2701ZM23.8173 27.0242V27.3124H24.2228V27.0242H23.8173ZM30.2784 31.8372H30.0756V32.0141L30.251 32.038L30.2784 31.8372ZM32.5408 32.7594L32.3945 32.8998L32.3959 32.9013L32.5408 32.7594ZM32.8002 35.8864L32.9694 35.998V35.998L32.8002 35.8864ZM31.6041 36.8807L31.6865 37.066L31.6893 37.0647L31.6041 36.8807ZM29.0968 37.2122L29.1074 37.0096L29.1031 37.0095L29.0968 37.2122ZM25.4942 37.2266H25.2915V37.4443L25.5087 37.4288L25.4942 37.2266ZM25.4942 36.9384L25.483 36.7359L25.2915 36.7466V36.9384H25.4942ZM26.2435 36.8231L26.1761 36.6319L26.1724 36.6332L26.2435 36.8231ZM26.575 27.7591L26.3838 27.8266V27.8266L26.575 27.7591ZM26.2435 27.4277L26.1723 27.6175L26.1761 27.6188L26.2435 27.4277ZM25.4942 27.3124H25.2915V27.5042L25.483 27.5148L25.4942 27.3124ZM25.4942 27.0242L25.5087 26.822L25.2915 26.8064V27.0242H25.4942ZM27.2523 27.0674V27.2701L27.2541 27.2701L27.2523 27.0674ZM28.8085 27.053L28.8104 27.2559L28.8192 27.2554L28.8085 27.053ZM31.6762 27.6582L31.5499 27.8168L31.5513 27.8179L31.6762 27.6582ZM31.9356 30.7996L31.7776 30.6726L31.7759 30.6747L31.9356 30.7996ZM30.2784 31.8083L30.2195 31.6144L30.0756 31.658V31.8083H30.2784ZM28.3907 27.4132L28.3094 27.2275L28.3049 27.2295L28.3907 27.4132ZM28.088 27.7735L28.2804 27.8376V27.8376L28.088 27.7735ZM28.0016 31.8083H27.7988V32.0111H28.0016V31.8083ZM30.6098 31.1743L30.4463 31.0544L30.4459 31.0551L30.6098 31.1743ZM31.1574 32.6441L31.0158 32.7892L31.0175 32.7909L31.1574 32.6441ZM28.0016 32.0533V31.8506H27.7988V32.0533H28.0016ZM28.088 36.4628L28.2792 36.3953V36.3953L28.088 36.4628ZM28.3907 36.8087L28.3049 36.9924L28.3121 36.9957L28.3195 36.9985L28.3907 36.8087ZM30.251 32.038C31.289 32.1796 31.9892 32.4773 32.3945 32.8998L32.6871 32.6191C32.1893 32.1001 31.3813 31.7829 30.3058 31.6363L30.251 32.038ZM32.3959 32.9013C32.8098 33.324 33.0153 33.83 33.0153 34.431H33.4208C33.4208 33.7254 33.1748 33.1171 32.6856 32.6176L32.3959 32.9013ZM33.0153 34.431C33.0153 34.9423 32.8859 35.388 32.6309 35.7748L32.9694 35.998C33.2717 35.5395 33.4208 35.0149 33.4208 34.431H33.0153ZM32.6309 35.7748C32.3756 36.1621 32.008 36.4703 31.5189 36.6967L31.6893 37.0647C32.2377 36.8108 32.6675 36.4561 32.9694 35.998L32.6309 35.7748ZM31.5218 36.6955C31.0346 36.912 30.4491 37.0238 29.7596 37.0238V37.4293C30.492 37.4293 31.1361 37.3106 31.6865 37.066L31.5218 36.6955ZM29.7596 37.0238C29.5025 37.0238 29.2853 37.0191 29.1074 37.0097L29.0861 37.4146C29.2733 37.4245 29.498 37.4293 29.7596 37.4293V37.0238ZM29.1031 37.0095C28.4862 36.9902 27.8789 36.9806 27.2811 36.9806V37.3861C27.8745 37.3861 28.4776 37.3956 29.0904 37.4148L29.1031 37.0095ZM27.2811 36.9806C26.4921 36.9806 25.8907 36.995 25.4798 37.0243L25.5087 37.4288C25.9047 37.4005 26.4945 37.3861 27.2811 37.3861V36.9806ZM25.6969 37.2266V36.9384H25.2915V37.2266H25.6969ZM25.5055 37.1408C25.8543 37.1214 26.1303 37.0821 26.3147 37.0129L26.1724 36.6332C26.0493 36.6794 25.8258 36.7169 25.483 36.7359L25.5055 37.1408ZM26.311 37.0143C26.5321 36.9362 26.6881 36.7803 26.7662 36.5591L26.3838 36.4242C26.3466 36.5297 26.2816 36.5947 26.1761 36.6319L26.311 37.0143ZM26.7662 36.5591C26.836 36.3612 26.8642 36.0674 26.8642 35.6991H26.4587C26.4587 36.0609 26.4292 36.2955 26.3838 36.4242L26.7662 36.5591ZM26.8642 35.6991V28.5516H26.4587V35.6991H26.8642ZM26.8642 28.5516C26.8642 28.1833 26.836 27.8896 26.7662 27.6916L26.3838 27.8266C26.4292 27.9552 26.4587 28.1899 26.4587 28.5516H26.8642ZM26.7662 27.6916C26.6881 27.4705 26.5321 27.3145 26.311 27.2365L26.1761 27.6188C26.2816 27.6561 26.3466 27.7211 26.3838 27.8266L26.7662 27.6916ZM26.3147 27.2378C26.1303 27.1687 25.8543 27.1293 25.5055 27.1099L25.483 27.5148C25.8258 27.5338 26.0493 27.5714 26.1724 27.6175L26.3147 27.2378ZM25.6969 27.3124V27.0242H25.2915V27.3124H25.6969ZM25.4798 27.2264C25.8906 27.2557 26.4823 27.2701 27.2523 27.2701V26.8647C26.4851 26.8647 25.9048 26.8502 25.5087 26.822L25.4798 27.2264ZM27.2541 27.2701L28.8104 27.2557L28.8067 26.8503L27.2504 26.8647L27.2541 27.2701ZM28.8192 27.2554C28.9974 27.2461 29.2003 27.2413 29.4282 27.2413V26.8358C29.1949 26.8358 28.9847 26.8407 28.7979 26.8505L28.8192 27.2554ZM29.4282 27.2413C30.3833 27.2413 31.0806 27.4431 31.5499 27.8168L31.8025 27.4996C31.2342 27.0471 30.4328 26.8358 29.4282 26.8358V27.2413ZM31.5513 27.8179C32.0296 28.1918 32.266 28.68 32.266 29.301H32.6715C32.6715 28.5578 32.3795 27.9508 31.801 27.4985L31.5513 27.8179ZM32.266 29.301C32.266 29.8111 32.1046 30.266 31.7776 30.6726L32.0935 30.9267C32.4774 30.4495 32.6715 29.9053 32.6715 29.301H32.266ZM31.7759 30.6747C31.4644 31.0728 30.9544 31.3911 30.2195 31.6144L30.3373 32.0023C31.1202 31.7645 31.715 31.4103 32.0952 30.9246L31.7759 30.6747ZM30.0756 31.8083V31.8372H30.4811V31.8083H30.0756ZM29.0679 27.1096C28.7605 27.1096 28.5014 27.1435 28.3094 27.2275L28.4719 27.599C28.5873 27.5485 28.7797 27.5151 29.0679 27.5151V27.1096ZM28.3049 27.2295C28.1028 27.3238 27.9681 27.4921 27.8957 27.7094L28.2804 27.8376C28.3232 27.709 28.3903 27.6371 28.4764 27.597L28.3049 27.2295ZM27.8957 27.7094C27.8275 27.914 27.7988 28.1999 27.7988 28.5516H28.2043C28.2043 28.2117 28.2333 27.9788 28.2804 27.8376L27.8957 27.7094ZM27.7988 28.5516V31.8083H28.2043V28.5516H27.7988ZM28.0016 32.0111H28.9671V31.6056H28.0016V32.0111ZM28.9671 32.0111C29.7855 32.0111 30.4118 31.7913 30.7738 31.2935L30.4459 31.0551C30.193 31.4027 29.7242 31.6056 28.9671 31.6056V32.0111ZM30.7733 31.2942C31.123 30.8173 31.2881 30.1996 31.2881 29.4595H30.8826C30.8826 30.1412 30.7307 30.6667 30.4463 31.0544L30.7733 31.2942ZM31.2881 29.4595C31.2881 28.7139 31.1247 28.1182 30.7611 27.7106L30.4585 27.9805C30.729 28.2838 30.8826 28.764 30.8826 29.4595H31.2881ZM30.7611 27.7106C30.39 27.2945 29.8079 27.1096 29.0679 27.1096V27.5151C29.7497 27.5151 30.1956 27.6857 30.4585 27.9805L30.7611 27.7106ZM29.0823 37.0979C30.0086 37.0979 30.741 36.8814 31.2419 36.4127C31.7453 35.9416 31.9798 35.2488 31.9798 34.3734H31.5743C31.5743 35.1791 31.3597 35.7471 30.9648 36.1167C30.5675 36.4885 29.9525 36.6924 29.0823 36.6924V37.0979ZM31.9798 34.3734C31.9798 33.578 31.7625 32.9409 31.2973 32.4974L31.0175 32.7909C31.3785 33.1351 31.5743 33.6508 31.5743 34.3734H31.9798ZM31.299 32.4991C30.8407 32.0516 30.1286 31.8506 29.212 31.8506V32.2561C30.0823 32.2561 30.6672 32.4489 31.0158 32.7892L31.299 32.4991ZM29.212 31.8506H28.0016V32.2561H29.212V31.8506ZM27.7988 32.0533V35.6991H28.2043V32.0533H27.7988ZM27.7988 35.6991C27.7988 36.0497 27.8272 36.333 27.8969 36.5303L28.2792 36.3953C28.2336 36.266 28.2043 36.0401 28.2043 35.6991H27.7988ZM27.8969 36.5303C27.9708 36.7399 28.1068 36.8999 28.3049 36.9924L28.4764 36.625C28.3863 36.5829 28.3205 36.5124 28.2792 36.3953L27.8969 36.5303ZM28.3195 36.9985C28.5079 37.0692 28.768 37.0979 29.0823 37.0979V36.6924C28.7818 36.6924 28.5808 36.6634 28.4618 36.6188L28.3195 36.9985ZM39.4237 31.8372H39.221V32.0141L39.3963 32.038L39.4237 31.8372ZM41.6861 32.7594L41.5398 32.8998L41.5412 32.9013L41.6861 32.7594ZM41.9455 35.8864L42.1148 35.998V35.998L41.9455 35.8864ZM40.7494 36.8807L40.8318 37.066L40.8346 37.0647L40.7494 36.8807ZM38.2421 37.2122L38.2527 37.0096L38.2484 37.0095L38.2421 37.2122ZM34.6395 37.2266H34.4368V37.4443L34.654 37.4288L34.6395 37.2266ZM34.6395 36.9384L34.6283 36.7359L34.4368 36.7466V36.9384H34.6395ZM35.3889 36.8231L35.3214 36.6319L35.3177 36.6332L35.3889 36.8231ZM35.7203 27.7591L35.5291 27.8266V27.8266L35.7203 27.7591ZM35.3889 27.4277L35.3177 27.6175L35.3214 27.6188L35.3889 27.4277ZM34.6395 27.3124H34.4368V27.5042L34.6283 27.5148L34.6395 27.3124ZM34.6395 27.0242L34.654 26.822L34.4368 26.8064V27.0242H34.6395ZM36.3976 27.0674V27.2701L36.3994 27.2701L36.3976 27.0674ZM37.9539 27.053L37.9557 27.2559L37.9645 27.2554L37.9539 27.053ZM40.8215 27.6582L40.6952 27.8168L40.6966 27.8179L40.8215 27.6582ZM41.0809 30.7996L40.9229 30.6726L40.9212 30.6747L41.0809 30.7996ZM39.4237 31.8083L39.3648 31.6144L39.221 31.658V31.8083H39.4237ZM37.536 27.4132L37.4547 27.2275L37.4502 27.2295L37.536 27.4132ZM37.2334 27.7735L37.4257 27.8376V27.8376L37.2334 27.7735ZM37.1469 31.8083H36.9442V32.0111H37.1469V31.8083ZM39.7551 31.1743L39.5916 31.0544L39.5912 31.0551L39.7551 31.1743ZM40.3027 32.6441L40.1611 32.7892L40.1628 32.7909L40.3027 32.6441ZM37.1469 32.0533V31.8506H36.9442V32.0533H37.1469ZM37.2334 36.4628L37.4245 36.3953V36.3953L37.2334 36.4628ZM37.536 36.8087L37.4502 36.9924L37.4574 36.9957L37.4648 36.9985L37.536 36.8087ZM39.3963 32.038C40.4343 32.1796 41.1345 32.4773 41.5398 32.8998L41.8324 32.6191C41.3346 32.1001 40.5266 31.7829 39.4511 31.6363L39.3963 32.038ZM41.5412 32.9013C41.9552 33.324 42.1606 33.83 42.1606 34.431H42.5661C42.5661 33.7254 42.3201 33.1171 41.831 32.6176L41.5412 32.9013ZM42.1606 34.431C42.1606 34.9423 42.0312 35.388 41.7762 35.7748L42.1148 35.998C42.417 35.5395 42.5661 35.0149 42.5661 34.431H42.1606ZM41.7762 35.7748C41.521 36.1621 41.1533 36.4703 40.6643 36.6967L40.8346 37.0647C41.3831 36.8108 41.8128 36.4561 42.1148 35.998L41.7762 35.7748ZM40.6671 36.6955C40.1799 36.912 39.5944 37.0238 38.9049 37.0238V37.4293C39.6373 37.4293 40.2814 37.3106 40.8318 37.066L40.6671 36.6955ZM38.9049 37.0238C38.6478 37.0238 38.4306 37.0191 38.2527 37.0097L38.2314 37.4146C38.4186 37.4245 38.6433 37.4293 38.9049 37.4293V37.0238ZM38.2484 37.0095C37.6315 36.9902 37.0242 36.9806 36.4264 36.9806V37.3861C37.0198 37.3861 37.6229 37.3956 38.2357 37.4148L38.2484 37.0095ZM36.4264 36.9806C35.6374 36.9806 35.036 36.995 34.6251 37.0243L34.654 37.4288C35.0501 37.4005 35.6399 37.3861 36.4264 37.3861V36.9806ZM34.8423 37.2266V36.9384H34.4368V37.2266H34.8423ZM34.6508 37.1408C34.9996 37.1214 35.2757 37.0821 35.46 37.0129L35.3177 36.6332C35.1947 36.6794 34.9711 36.7169 34.6283 36.7359L34.6508 37.1408ZM35.4563 37.0143C35.6775 36.9362 35.8334 36.7803 35.9115 36.5591L35.5291 36.4242C35.4919 36.5297 35.4269 36.5947 35.3214 36.6319L35.4563 37.0143ZM35.9115 36.5591C35.9813 36.3612 36.0095 36.0674 36.0095 35.6991H35.604C35.604 36.0609 35.5745 36.2955 35.5291 36.4242L35.9115 36.5591ZM36.0095 35.6991V28.5516H35.604V35.6991H36.0095ZM36.0095 28.5516C36.0095 28.1833 35.9813 27.8896 35.9115 27.6916L35.5291 27.8266C35.5745 27.9552 35.604 28.1899 35.604 28.5516H36.0095ZM35.9115 27.6916C35.8334 27.4705 35.6775 27.3145 35.4563 27.2365L35.3214 27.6188C35.4269 27.6561 35.4919 27.7211 35.5291 27.8266L35.9115 27.6916ZM35.46 27.2378C35.2757 27.1687 34.9996 27.1293 34.6508 27.1099L34.6283 27.5148C34.9711 27.5338 35.1947 27.5714 35.3177 27.6175L35.46 27.2378ZM34.8423 27.3124V27.0242H34.4368V27.3124H34.8423ZM34.6251 27.2264C35.0359 27.2557 35.6277 27.2701 36.3976 27.2701V26.8647C35.6304 26.8647 35.0501 26.8502 34.654 26.822L34.6251 27.2264ZM36.3994 27.2701L37.9557 27.2557L37.952 26.8503L36.3957 26.8647L36.3994 27.2701ZM37.9645 27.2554C38.1427 27.2461 38.3456 27.2413 38.5735 27.2413V26.8358C38.3403 26.8358 38.1301 26.8407 37.9432 26.8505L37.9645 27.2554ZM38.5735 27.2413C39.5286 27.2413 40.2259 27.4431 40.6952 27.8168L40.9478 27.4996C40.3795 27.0471 39.5782 26.8358 38.5735 26.8358V27.2413ZM40.6966 27.8179C41.1749 28.1918 41.4113 28.68 41.4113 29.301H41.8168C41.8168 28.5578 41.5248 27.9508 40.9464 27.4985L40.6966 27.8179ZM41.4113 29.301C41.4113 29.8111 41.2499 30.266 40.9229 30.6726L41.2388 30.9267C41.6227 30.4495 41.8168 29.9053 41.8168 29.301H41.4113ZM40.9212 30.6747C40.6097 31.0728 40.0997 31.3911 39.3648 31.6144L39.4826 32.0023C40.2655 31.7645 40.8604 31.4103 41.2405 30.9246L40.9212 30.6747ZM39.221 31.8083V31.8372H39.6264V31.8083H39.221ZM38.2133 27.1096C37.9058 27.1096 37.6467 27.1435 37.4547 27.2275L37.6172 27.599C37.7326 27.5485 37.9251 27.5151 38.2133 27.5151V27.1096ZM37.4502 27.2295C37.2481 27.3238 37.1135 27.4921 37.041 27.7094L37.4257 27.8376C37.4685 27.709 37.5356 27.6371 37.6217 27.597L37.4502 27.2295ZM37.041 27.7094C36.9728 27.914 36.9442 28.1999 36.9442 28.5516H37.3496C37.3496 28.2117 37.3786 27.9788 37.4257 27.8376L37.041 27.7094ZM36.9442 28.5516V31.8083H37.3496V28.5516H36.9442ZM37.1469 32.0111H38.1124V31.6056H37.1469V32.0111ZM38.1124 32.0111C38.9308 32.0111 39.5571 31.7913 39.9191 31.2935L39.5912 31.0551C39.3384 31.4027 38.8695 31.6056 38.1124 31.6056V32.0111ZM39.9186 31.2942C40.2683 30.8173 40.4334 30.1996 40.4334 29.4595H40.0279C40.0279 30.1412 39.876 30.6667 39.5917 31.0544L39.9186 31.2942ZM40.4334 29.4595C40.4334 28.7139 40.27 28.1182 39.9064 27.7106L39.6038 27.9805C39.8743 28.2838 40.0279 28.764 40.0279 29.4595H40.4334ZM39.9064 27.7106C39.5353 27.2945 38.9532 27.1096 38.2133 27.1096V27.5151C38.8951 27.5151 39.341 27.6857 39.6038 27.9805L39.9064 27.7106ZM38.2277 37.0979C39.1539 37.0979 39.8864 36.8814 40.3872 36.4127C40.8906 35.9416 41.1251 35.2488 41.1251 34.3734H40.7196C40.7196 35.1791 40.505 35.7471 40.1102 36.1167C39.7128 36.4885 39.0979 36.6924 38.2277 36.6924V37.0979ZM41.1251 34.3734C41.1251 33.578 40.9078 32.9409 40.4426 32.4974L40.1628 32.7909C40.5238 33.1351 40.7196 33.6508 40.7196 34.3734H41.1251ZM40.4443 32.4991C39.986 32.0516 39.2739 31.8506 38.3574 31.8506V32.2561C39.2276 32.2561 39.8125 32.4489 40.1611 32.7892L40.4443 32.4991ZM38.3574 31.8506H37.1469V32.2561H38.3574V31.8506ZM36.9442 32.0533V35.6991H37.3496V32.0533H36.9442ZM36.9442 35.6991C36.9442 36.0497 36.9726 36.333 37.0422 36.5303L37.4245 36.3953C37.3789 36.266 37.3496 36.0401 37.3496 35.6991H36.9442ZM37.0422 36.5303C37.1162 36.7399 37.2522 36.8999 37.4502 36.9924L37.6217 36.625C37.5316 36.5829 37.4658 36.5124 37.4245 36.3953L37.0422 36.5303ZM37.4648 36.9985C37.6533 37.0692 37.9133 37.0979 38.2277 37.0979V36.6924C37.9272 36.6924 37.7261 36.6634 37.6072 36.6188L37.4648 36.9985ZM47.4594 27.3124L47.4707 27.5148L47.6622 27.5042V27.3124H47.4594ZM46.6957 27.4277L46.6282 27.2364L46.6245 27.2378L46.6957 27.4277ZM46.3787 27.7591L46.5699 27.8266V27.8266L46.3787 27.7591ZM46.3787 36.4916L46.5699 36.4242V36.4242L46.3787 36.4916ZM46.6957 36.8231L46.6245 37.0129L46.6282 37.0143L46.6957 36.8231ZM47.4594 36.9384H47.6622V36.7466L47.4707 36.7359L47.4594 36.9384ZM47.4594 37.2266L47.4463 37.4289L47.6622 37.443V37.2266H47.4594ZM43.7849 37.2266H43.5821V37.4443L43.7993 37.4288L43.7849 37.2266ZM43.7849 36.9384L43.7736 36.7359L43.5821 36.7466V36.9384H43.7849ZM44.5342 36.8231L44.4667 36.6319L44.463 36.6332L44.5342 36.8231ZM44.8656 27.7591L44.6744 27.8266V27.8266L44.8656 27.7591ZM44.5342 27.4277L44.463 27.6175L44.4667 27.6188L44.5342 27.4277ZM43.7849 27.3124H43.5821V27.5042L43.7736 27.5148L43.7849 27.3124ZM43.7849 27.0242L43.7993 26.822L43.5821 26.8064V27.0242H43.7849ZM47.4594 27.0242H47.6622V26.8081L47.4465 26.8218L47.4594 27.0242ZM47.4482 27.1099C47.0983 27.1294 46.8199 27.1688 46.6282 27.2365L46.7632 27.6188C46.8982 27.5712 47.1289 27.5338 47.4707 27.5148L47.4482 27.1099ZM46.6245 27.2378C46.4113 27.3178 46.2638 27.4753 46.1875 27.6916L46.5699 27.8266C46.6088 27.7162 46.6727 27.6528 46.7669 27.6175L46.6245 27.2378ZM46.1875 27.6916C46.1176 27.8896 46.0895 28.1833 46.0895 28.5516H46.495C46.495 28.1899 46.5244 27.9552 46.5699 27.8266L46.1875 27.6916ZM46.0895 28.5516V35.6991H46.495V28.5516H46.0895ZM46.0895 35.6991C46.0895 36.0674 46.1176 36.3612 46.1875 36.5591L46.5699 36.4242C46.5244 36.2955 46.495 36.0609 46.495 35.6991H46.0895ZM46.1875 36.5591C46.2638 36.7754 46.4113 36.9329 46.6245 37.0129L46.7669 36.6332C46.6727 36.5979 46.6088 36.5345 46.5699 36.4242L46.1875 36.5591ZM46.6282 37.0143C46.8199 37.0819 47.0983 37.1213 47.4482 37.1408L47.4707 36.7359C47.1289 36.7169 46.8982 36.6795 46.7632 36.6319L46.6282 37.0143ZM47.2567 36.9384V37.2266H47.6622V36.9384H47.2567ZM47.4726 37.0243C47.0243 36.995 46.4092 36.9806 45.6294 36.9806V37.3861C46.4059 37.3861 47.0108 37.4005 47.4463 37.4289L47.4726 37.0243ZM45.6294 36.9806C44.8022 36.9806 44.1814 36.995 43.7704 37.0243L43.7993 37.4288C44.1952 37.4005 44.8041 37.3861 45.6294 37.3861V36.9806ZM43.9876 37.2266V36.9384H43.5821V37.2266H43.9876ZM43.7961 37.1408C44.1449 37.1214 44.421 37.0821 44.6054 37.0129L44.463 36.6332C44.34 36.6794 44.1165 36.7169 43.7736 36.7359L43.7961 37.1408ZM44.6017 37.0143C44.8228 36.9362 44.9787 36.7803 45.0568 36.5591L44.6744 36.4242C44.6372 36.5297 44.5722 36.5947 44.4667 36.6319L44.6017 37.0143ZM45.0568 36.5591C45.1267 36.3612 45.1548 36.0674 45.1548 35.6991H44.7493C44.7493 36.0609 44.7199 36.2955 44.6744 36.4242L45.0568 36.5591ZM45.1548 35.6991V28.5516H44.7493V35.6991H45.1548ZM45.1548 28.5516C45.1548 28.1833 45.1267 27.8896 45.0568 27.6916L44.6744 27.8266C44.7199 27.9552 44.7493 28.1899 44.7493 28.5516H45.1548ZM45.0568 27.6916C44.9787 27.4705 44.8228 27.3145 44.6017 27.2365L44.4667 27.6188C44.5722 27.6561 44.6372 27.7211 44.6744 27.8266L45.0568 27.6916ZM44.6054 27.2378C44.421 27.1687 44.1449 27.1293 43.7961 27.1099L43.7736 27.5148C44.1165 27.5338 44.34 27.5714 44.463 27.6175L44.6054 27.2378ZM43.9876 27.3124V27.0242H43.5821V27.3124H43.9876ZM43.7704 27.2264C44.1814 27.2558 44.8022 27.2701 45.6294 27.2701V26.8647C44.8041 26.8647 44.1952 26.8502 43.7993 26.822L43.7704 27.2264ZM45.6294 27.2701C46.3997 27.2701 47.0146 27.2557 47.4724 27.2265L47.4465 26.8218C47.0012 26.8503 46.3961 26.8647 45.6294 26.8647V27.2701ZM47.2567 27.0242V27.3124H47.6622V27.0242H47.2567ZM56.4989 36.0161L56.688 35.9429L56.688 35.9428L56.4989 36.0161ZM57.4932 36.9384H57.696V36.7444L57.5022 36.7358L57.4932 36.9384ZM57.4932 37.2266L57.4781 37.4287L57.696 37.4451V37.2266H57.4932ZM54.1069 37.2266H53.9041V37.4443L54.1213 37.4288L54.1069 37.2266ZM54.1069 36.9384L54.0962 36.7359L53.9041 36.746V36.9384H54.1069ZM54.885 36.8087L54.9663 36.9945L54.9713 36.9921L54.885 36.8087ZM54.9571 35.7279L54.767 35.7986L54.7688 35.8032L54.9571 35.7279ZM54.078 33.3646L54.2681 33.294L54.2189 33.1619H54.078V33.3646ZM50.5908 33.3646V33.1619H50.4518L50.4017 33.2915L50.5908 33.3646ZM50 34.8921L49.8109 34.819L49.8098 34.8217L50 34.8921ZM50.0144 36.7222L49.9019 36.8909L49.9055 36.8932L50.0144 36.7222ZM50.9654 36.9384H51.1682V36.7402L50.97 36.7357L50.9654 36.9384ZM50.9654 37.2266L50.9548 37.429L51.1682 37.4403V37.2266H50.9654ZM48.2275 37.2266H48.0248V37.4506L48.2477 37.4283L48.2275 37.2266ZM48.2275 36.9384L48.1802 36.7412L48.0248 36.7785V36.9384H48.2275ZM49.3659 35.6847L49.1769 35.6114L49.1768 35.6116L49.3659 35.6847ZM52.7523 26.9521V26.7494H52.6135L52.5633 26.8788L52.7523 26.9521ZM52.9829 26.9521L53.1719 26.8788L53.1217 26.7494H52.9829V26.9521ZM53.9628 33.0764V33.2792H54.2552L54.1526 33.0053L53.9628 33.0764ZM52.3488 28.7678L52.5387 28.6967L52.3505 28.1943L52.1594 28.6956L52.3488 28.7678ZM50.7061 33.0764L50.5166 33.0042L50.4118 33.2792H50.7061V33.0764ZM56.3099 36.0893C56.5536 36.7188 56.9352 37.1165 57.4842 37.1409L57.5022 36.7358C57.1866 36.7218 56.9054 36.5046 56.688 35.9429L56.3099 36.0893ZM57.2905 36.9384V37.2266H57.696V36.9384H57.2905ZM57.5084 37.0244C57.1169 36.995 56.5972 36.9806 55.9514 36.9806V37.3861C56.5928 37.3861 57.1011 37.4005 57.4781 37.4287L57.5084 37.0244ZM55.9514 36.9806C55.1242 36.9806 54.5034 36.995 54.0924 37.0243L54.1213 37.4288C54.5172 37.4005 55.1261 37.3861 55.9514 37.3861V36.9806ZM54.3096 37.2266V36.9384H53.9041V37.2266H54.3096ZM54.1175 37.1408C54.485 37.1215 54.7764 37.0775 54.9663 36.9944L54.8037 36.6229C54.6862 36.6744 54.4588 36.7168 54.0962 36.7359L54.1175 37.1408ZM54.9713 36.9921C55.0836 36.9393 55.1776 36.8615 55.242 36.7554C55.306 36.6501 55.3327 36.5302 55.3327 36.4052H54.9272C54.9272 36.4724 54.9132 36.5158 54.8954 36.5449C54.8782 36.5733 54.8497 36.6012 54.7987 36.6252L54.9713 36.9921ZM55.3327 36.4052C55.3327 36.2022 55.2631 35.9471 55.1453 35.6526L54.7688 35.8032C54.8816 36.0851 54.9272 36.2815 54.9272 36.4052H55.3327ZM55.1471 35.6572L54.2681 33.294L53.888 33.4353L54.767 35.7986L55.1471 35.6572ZM54.078 33.1619H50.5908V33.5674H54.078V33.1619ZM50.4017 33.2915L49.8109 34.819L50.189 34.9653L50.7799 33.4378L50.4017 33.2915ZM49.8098 34.8217C49.6163 35.3443 49.509 35.7667 49.509 36.0737H49.9145C49.9145 35.8428 49.9994 35.4774 50.1901 34.9625L49.8098 34.8217ZM49.509 36.0737C49.509 36.4217 49.6305 36.71 49.9019 36.8909L50.1268 36.5535C49.9947 36.4655 49.9145 36.3214 49.9145 36.0737H49.509ZM49.9055 36.8932C50.1628 37.057 50.5237 37.1311 50.9608 37.141L50.97 36.7357C50.5618 36.7264 50.2887 36.6564 50.1232 36.5512L49.9055 36.8932ZM50.7627 36.9384V37.2266H51.1682V36.9384H50.7627ZM50.9761 37.0241C50.4249 36.9951 49.869 36.9806 49.3083 36.9806V37.3861C49.862 37.3861 50.4108 37.4004 50.9548 37.429L50.9761 37.0241ZM49.3083 36.9806C48.8722 36.9806 48.5046 36.9951 48.2073 37.0248L48.2477 37.4283C48.5268 37.4004 48.8798 37.3861 49.3083 37.3861V36.9806ZM48.4302 37.2266V36.9384H48.0248V37.2266H48.4302ZM48.2748 37.1355C48.8502 36.9974 49.2664 36.5042 49.555 35.7578L49.1768 35.6116C48.9082 36.3062 48.5655 36.6488 48.1802 36.7412L48.2748 37.1355ZM49.5549 35.758L52.9413 27.0254L52.5633 26.8788L49.1769 35.6114L49.5549 35.758ZM52.7523 27.1549H52.9829V26.7494H52.7523V27.1549ZM52.7938 27.0254L56.3099 36.0894L56.688 35.9428L53.1719 26.8788L52.7938 27.0254ZM54.1526 33.0053L52.5387 28.6967L52.159 28.8389L53.7729 33.1476L54.1526 33.0053ZM52.1594 28.6956L50.5166 33.0042L50.8955 33.1487L52.5382 28.84L52.1594 28.6956ZM50.7061 33.2792H53.9628V32.8737H50.7061V33.2792Z" fill="#FEF5EB" mask="url(#path-5-outside-1_23632_22579)"/>
</g>
</g>
<defs>
<linearGradient id="paint0_linear_23632_22579" x1="34" y1="-1.04141e-05" x2="34" y2="68" gradientUnits="userSpaceOnUse">
<stop stop-color="#C93D34"/>
<stop offset="1" stop-color="#7A2629"/>
</linearGradient>
<linearGradient id="paint1_linear_23632_22579" x1="34" y1="-1.04141e-05" x2="34" y2="68" gradientUnits="userSpaceOnUse">
<stop stop-color="#C93D34"/>
<stop offset="1" stop-color="#7A2629"/>
</linearGradient>
<clipPath id="clip0_23632_22579">
<rect width="68" height="68" fill="white"/>
</clipPath>
</defs>
</svg>
