<svg width="68" height="68" viewBox="0 0 68 68" fill="none" xmlns="http://www.w3.org/2000/svg">
<g clip-path="url(#clip0_23632_22543)">
<mask id="mask0_23632_22543" style="mask-type:alpha" maskUnits="userSpaceOnUse" x="0" y="0" width="68" height="68">
<path fill-rule="evenodd" clip-rule="evenodd" d="M47.0333 0H20.9667C13.5811 0 8.89667 0.0377779 4.45778 4.45778C0.018889 8.89667 0 13.6 0 20.9667V47.0333C0 54.4189 0.0377779 59.1033 4.45778 63.5422C8.89667 67.9811 13.6 68 20.9667 68H47.0333C54.4189 68 59.1033 67.9811 63.5422 63.5422C67.9622 59.1033 68 54.4 68 47.0333V20.9667C68 13.5811 67.9622 8.89667 63.5422 4.45778C59.1033 0.018889 54.4 0 47.0333 0Z" fill="url(#paint0_linear_23632_22543)"/>
</mask>
<g mask="url(#mask0_23632_22543)">
<rect width="68" height="68" fill="url(#paint1_linear_23632_22543)"/>
<path fill-rule="evenodd" clip-rule="evenodd" d="M15.6212 64.3733C26.4256 64.3733 45.6357 64.3733 45.6357 64.3733C52.5868 64.3733 57.0823 64.6378 61.2379 60.4445C64.8079 56.8745 64.5057 50.8678 64.7323 46.1078C60.709 52.1522 53.3234 51.9445 47.619 51.9445C47.619 51.9445 20.929 51.9445 10.9556 51.9445C0.982316 51.9633 4.81676 64.3733 15.6212 64.3733Z" fill="#FEF5EB"/>
<path d="M12.4854 53.5311H23.1387V61.5211L17.812 58.8578L12.4854 61.5211V53.5311Z" fill="#F19C33"/>
<mask id="path-5-outside-1_23632_22543" maskUnits="userSpaceOnUse" x="14.1016" y="15.2266" width="40" height="20" fill="black">
<rect fill="white" x="14.1016" y="15.2266" width="40" height="20"/>
<path d="M15.0272 17.2066H24.3872V18.3666H15.0272V17.2066ZM17.1672 19.6666H22.3472V20.6866H17.1672V19.6666ZM17.1672 22.0666H22.3472V23.1066H17.1672V22.0666ZM21.7472 17.7666H23.1072V26.7866H21.7472V17.7666ZM16.3872 17.7466H17.7472V25.1266L16.3872 25.3066V17.7466ZM14.7272 24.7666C16.6272 24.6866 19.4672 24.5066 22.2872 24.3266L22.2672 25.4666C19.6072 25.6866 16.8672 25.8866 14.8672 26.0266L14.7272 24.7666ZM26.5272 19.2066V24.1466H30.8472V19.2066H26.5272ZM25.1272 17.9066H32.3072V25.4466H25.1272V17.9066ZM16.4272 27.3266H31.4472V28.5666H16.4272V27.3266ZM17.3072 30.2466H30.4872V31.4466H17.3072V30.2466ZM14.8072 33.2066H32.9272V34.4866H14.8072V33.2066ZM23.0872 27.8066H24.5872V34.0066H23.0872V27.8066ZM37.7928 28.6466H50.6728V34.8466H49.1528V29.7066H39.2528V34.8866H37.7928V28.6466ZM38.5528 30.9066H49.7328V31.9066H38.5528V30.9066ZM38.5528 33.1866H49.7328V34.2266H38.5528V33.1866ZM43.2928 16.4066H44.8128V27.2666H43.2928V16.4066ZM37.3728 17.8066H50.5728V23.2666H37.1328V22.2866H49.0728V18.8066H37.3728V17.8066ZM35.2528 19.9666H53.0128V21.0866H35.2528V19.9666ZM36.5928 24.3866H51.6728V25.4066H36.5928V24.3866ZM35.2128 26.5866H53.0328V27.7066H35.2128V26.5866Z"/>
</mask>
<path d="M15.0272 17.2066H24.3872V18.3666H15.0272V17.2066ZM17.1672 19.6666H22.3472V20.6866H17.1672V19.6666ZM17.1672 22.0666H22.3472V23.1066H17.1672V22.0666ZM21.7472 17.7666H23.1072V26.7866H21.7472V17.7666ZM16.3872 17.7466H17.7472V25.1266L16.3872 25.3066V17.7466ZM14.7272 24.7666C16.6272 24.6866 19.4672 24.5066 22.2872 24.3266L22.2672 25.4666C19.6072 25.6866 16.8672 25.8866 14.8672 26.0266L14.7272 24.7666ZM26.5272 19.2066V24.1466H30.8472V19.2066H26.5272ZM25.1272 17.9066H32.3072V25.4466H25.1272V17.9066ZM16.4272 27.3266H31.4472V28.5666H16.4272V27.3266ZM17.3072 30.2466H30.4872V31.4466H17.3072V30.2466ZM14.8072 33.2066H32.9272V34.4866H14.8072V33.2066ZM23.0872 27.8066H24.5872V34.0066H23.0872V27.8066ZM37.7928 28.6466H50.6728V34.8466H49.1528V29.7066H39.2528V34.8866H37.7928V28.6466ZM38.5528 30.9066H49.7328V31.9066H38.5528V30.9066ZM38.5528 33.1866H49.7328V34.2266H38.5528V33.1866ZM43.2928 16.4066H44.8128V27.2666H43.2928V16.4066ZM37.3728 17.8066H50.5728V23.2666H37.1328V22.2866H49.0728V18.8066H37.3728V17.8066ZM35.2528 19.9666H53.0128V21.0866H35.2528V19.9666ZM36.5928 24.3866H51.6728V25.4066H36.5928V24.3866ZM35.2128 26.5866H53.0328V27.7066H35.2128V26.5866Z" fill="#FEF5EB"/>
<path d="M15.0272 17.2066V17.0038H14.8245V17.2066H15.0272ZM24.3872 17.2066H24.5899V17.0038H24.3872V17.2066ZM24.3872 18.3666V18.5693H24.5899V18.3666H24.3872ZM15.0272 18.3666H14.8245V18.5693H15.0272V18.3666ZM17.1672 19.6666V19.4638H16.9645V19.6666H17.1672ZM22.3472 19.6666H22.5499V19.4638H22.3472V19.6666ZM22.3472 20.6866V20.8893H22.5499V20.6866H22.3472ZM17.1672 20.6866H16.9645V20.8893H17.1672V20.6866ZM17.1672 22.0666V21.8638H16.9645V22.0666H17.1672ZM22.3472 22.0666H22.5499V21.8638H22.3472V22.0666ZM22.3472 23.1066V23.3093H22.5499V23.1066H22.3472ZM17.1672 23.1066H16.9645V23.3093H17.1672V23.1066ZM21.7472 17.7666V17.5638H21.5445V17.7666H21.7472ZM23.1072 17.7666H23.3099V17.5638H23.1072V17.7666ZM23.1072 26.7866V26.9893H23.3099V26.7866H23.1072ZM21.7472 26.7866H21.5445V26.9893H21.7472V26.7866ZM16.3872 17.7466V17.5438H16.1845V17.7466H16.3872ZM17.7472 17.7466H17.9499V17.5438H17.7472V17.7466ZM17.7472 25.1266L17.7738 25.3275L17.9499 25.3042V25.1266H17.7472ZM16.3872 25.3066H16.1845V25.5379L16.4138 25.5075L16.3872 25.3066ZM14.7272 24.7666L14.7187 24.564L14.5017 24.5731L14.5257 24.789L14.7272 24.7666ZM22.2872 24.3266L22.4899 24.3301L22.4938 24.1102L22.2743 24.1242L22.2872 24.3266ZM22.2672 25.4666L22.2839 25.6686L22.4667 25.6535L22.4699 25.4701L22.2672 25.4666ZM14.8672 26.0266L14.6657 26.049L14.6872 26.2424L14.8813 26.2288L14.8672 26.0266ZM26.5272 19.2066V19.0038H26.3245V19.2066H26.5272ZM26.5272 24.1466H26.3245V24.3493H26.5272V24.1466ZM30.8472 24.1466V24.3493H31.0499V24.1466H30.8472ZM30.8472 19.2066H31.0499V19.0038H30.8472V19.2066ZM25.1272 17.9066V17.7038H24.9245V17.9066H25.1272ZM32.3072 17.9066H32.5099V17.7038H32.3072V17.9066ZM32.3072 25.4466V25.6493H32.5099V25.4466H32.3072ZM25.1272 25.4466H24.9245V25.6493H25.1272V25.4466ZM16.4272 27.3266V27.1238H16.2245V27.3266H16.4272ZM31.4472 27.3266H31.6499V27.1238H31.4472V27.3266ZM31.4472 28.5666V28.7693H31.6499V28.5666H31.4472ZM16.4272 28.5666H16.2245V28.7693H16.4272V28.5666ZM17.3072 30.2466V30.0438H17.1045V30.2466H17.3072ZM30.4872 30.2466H30.6899V30.0438H30.4872V30.2466ZM30.4872 31.4466V31.6493H30.6899V31.4466H30.4872ZM17.3072 31.4466H17.1045V31.6493H17.3072V31.4466ZM14.8072 33.2066V33.0038H14.6045V33.2066H14.8072ZM32.9272 33.2066H33.1299V33.0038H32.9272V33.2066ZM32.9272 34.4866V34.6893H33.1299V34.4866H32.9272ZM14.8072 34.4866H14.6045V34.6893H14.8072V34.4866ZM23.0872 27.8066V27.6038H22.8845V27.8066H23.0872ZM24.5872 27.8066H24.7899V27.6038H24.5872V27.8066ZM24.5872 34.0066V34.2093H24.7899V34.0066H24.5872ZM23.0872 34.0066H22.8845V34.2093H23.0872V34.0066ZM15.0272 17.4093H24.3872V17.0038H15.0272V17.4093ZM24.1845 17.2066V18.3666H24.5899V17.2066H24.1845ZM24.3872 18.1638H15.0272V18.5693H24.3872V18.1638ZM15.2299 18.3666V17.2066H14.8245V18.3666H15.2299ZM17.1672 19.8693H22.3472V19.4638H17.1672V19.8693ZM22.1445 19.6666V20.6866H22.5499V19.6666H22.1445ZM22.3472 20.4838H17.1672V20.8893H22.3472V20.4838ZM17.3699 20.6866V19.6666H16.9645V20.6866H17.3699ZM17.1672 22.2693H22.3472V21.8638H17.1672V22.2693ZM22.1445 22.0666V23.1066H22.5499V22.0666H22.1445ZM22.3472 22.9038H17.1672V23.3093H22.3472V22.9038ZM17.3699 23.1066V22.0666H16.9645V23.1066H17.3699ZM21.7472 17.9693H23.1072V17.5638H21.7472V17.9693ZM22.9045 17.7666V26.7866H23.3099V17.7666H22.9045ZM23.1072 26.5838H21.7472V26.9893H23.1072V26.5838ZM21.9499 26.7866V17.7666H21.5445V26.7866H21.9499ZM16.3872 17.9493H17.7472V17.5438H16.3872V17.9493ZM17.5445 17.7466V25.1266H17.9499V17.7466H17.5445ZM17.7206 24.9256L16.3606 25.1056L16.4138 25.5075L17.7738 25.3275L17.7206 24.9256ZM16.5899 25.3066V17.7466H16.1845V25.3066H16.5899ZM14.7357 24.9691C16.6384 24.889 19.481 24.7088 22.3001 24.5289L22.2743 24.1242C19.4534 24.3043 16.616 24.4841 14.7187 24.564L14.7357 24.9691ZM22.0845 24.323L22.0645 25.463L22.4699 25.4701L22.4899 24.3301L22.0845 24.323ZM22.2505 25.2645C19.5917 25.4844 16.8526 25.6844 14.853 25.8243L14.8813 26.2288C16.8818 26.0888 19.6227 25.8887 22.2839 25.6686L22.2505 25.2645ZM15.0687 26.0042L14.9287 24.7442L14.5257 24.789L14.6657 26.049L15.0687 26.0042ZM26.3245 19.2066V24.1466H26.7299V19.2066H26.3245ZM26.5272 24.3493H30.8472V23.9438H26.5272V24.3493ZM31.0499 24.1466V19.2066H30.6445V24.1466H31.0499ZM30.8472 19.0038H26.5272V19.4093H30.8472V19.0038ZM25.1272 18.1093H32.3072V17.7038H25.1272V18.1093ZM32.1045 17.9066V25.4466H32.5099V17.9066H32.1045ZM32.3072 25.2438H25.1272V25.6493H32.3072V25.2438ZM25.3299 25.4466V17.9066H24.9245V25.4466H25.3299ZM16.4272 27.5293H31.4472V27.1238H16.4272V27.5293ZM31.2445 27.3266V28.5666H31.6499V27.3266H31.2445ZM31.4472 28.3638H16.4272V28.7693H31.4472V28.3638ZM16.6299 28.5666V27.3266H16.2245V28.5666H16.6299ZM17.3072 30.4493H30.4872V30.0438H17.3072V30.4493ZM30.2845 30.2466V31.4466H30.6899V30.2466H30.2845ZM30.4872 31.2438H17.3072V31.6493H30.4872V31.2438ZM17.5099 31.4466V30.2466H17.1045V31.4466H17.5099ZM14.8072 33.4093H32.9272V33.0038H14.8072V33.4093ZM32.7245 33.2066V34.4866H33.1299V33.2066H32.7245ZM32.9272 34.2838H14.8072V34.6893H32.9272V34.2838ZM15.0099 34.4866V33.2066H14.6045V34.4866H15.0099ZM23.0872 28.0093H24.5872V27.6038H23.0872V28.0093ZM24.3845 27.8066V34.0066H24.7899V27.8066H24.3845ZM24.5872 33.8038H23.0872V34.2093H24.5872V33.8038ZM23.2899 34.0066V27.8066H22.8845V34.0066H23.2899ZM37.7928 28.6466V28.4438H37.5901V28.6466H37.7928ZM50.6728 28.6466H50.8755V28.4438H50.6728V28.6466ZM50.6728 34.8466V35.0493H50.8755V34.8466H50.6728ZM49.1528 34.8466H48.9501V35.0493H49.1528V34.8466ZM49.1528 29.7066H49.3555V29.5038H49.1528V29.7066ZM39.2528 29.7066V29.5038H39.0501V29.7066H39.2528ZM39.2528 34.8866V35.0893H39.4555V34.8866H39.2528ZM37.7928 34.8866H37.5901V35.0893H37.7928V34.8866ZM38.5528 30.9066V30.7038H38.3501V30.9066H38.5528ZM49.7328 30.9066H49.9356V30.7038H49.7328V30.9066ZM49.7328 31.9066V32.1093H49.9356V31.9066H49.7328ZM38.5528 31.9066H38.3501V32.1093H38.5528V31.9066ZM38.5528 33.1866V32.9838H38.3501V33.1866H38.5528ZM49.7328 33.1866H49.9356V32.9838H49.7328V33.1866ZM49.7328 34.2266V34.4293H49.9356V34.2266H49.7328ZM38.5528 34.2266H38.3501V34.4293H38.5528V34.2266ZM43.2928 16.4066V16.2038H43.0901V16.4066H43.2928ZM44.8128 16.4066H45.0155V16.2038H44.8128V16.4066ZM44.8128 27.2666V27.4693H45.0155V27.2666H44.8128ZM43.2928 27.2666H43.0901V27.4693H43.2928V27.2666ZM37.3728 17.8066V17.6038H37.1701V17.8066H37.3728ZM50.5728 17.8066H50.7756V17.6038H50.5728V17.8066ZM50.5728 23.2666V23.4693H50.7756V23.2666H50.5728ZM37.1328 23.2666H36.9301V23.4693H37.1328V23.2666ZM37.1328 22.2866V22.0838H36.9301V22.2866H37.1328ZM49.0728 22.2866V22.4893H49.2756V22.2866H49.0728ZM49.0728 18.8066H49.2756V18.6038H49.0728V18.8066ZM37.3728 18.8066H37.1701V19.0093H37.3728V18.8066ZM35.2528 19.9666V19.7638H35.0501V19.9666H35.2528ZM53.0128 19.9666H53.2155V19.7638H53.0128V19.9666ZM53.0128 21.0866V21.2893H53.2155V21.0866H53.0128ZM35.2528 21.0866H35.0501V21.2893H35.2528V21.0866ZM36.5928 24.3866V24.1838H36.3901V24.3866H36.5928ZM51.6728 24.3866H51.8755V24.1838H51.6728V24.3866ZM51.6728 25.4066V25.6093H51.8755V25.4066H51.6728ZM36.5928 25.4066H36.3901V25.6093H36.5928V25.4066ZM35.2128 26.5866V26.3838H35.0101V26.5866H35.2128ZM53.0328 26.5866H53.2355V26.3838H53.0328V26.5866ZM53.0328 27.7066V27.9093H53.2355V27.7066H53.0328ZM35.2128 27.7066H35.0101V27.9093H35.2128V27.7066ZM37.7928 28.8493H50.6728V28.4438H37.7928V28.8493ZM50.4701 28.6466V34.8466H50.8755V28.6466H50.4701ZM50.6728 34.6438H49.1528V35.0493H50.6728V34.6438ZM49.3555 34.8466V29.7066H48.9501V34.8466H49.3555ZM49.1528 29.5038H39.2528V29.9093H49.1528V29.5038ZM39.0501 29.7066V34.8866H39.4555V29.7066H39.0501ZM39.2528 34.6838H37.7928V35.0893H39.2528V34.6838ZM37.9956 34.8866V28.6466H37.5901V34.8866H37.9956ZM38.5528 31.1093H49.7328V30.7038H38.5528V31.1093ZM49.5301 30.9066V31.9066H49.9356V30.9066H49.5301ZM49.7328 31.7038H38.5528V32.1093H49.7328V31.7038ZM38.7556 31.9066V30.9066H38.3501V31.9066H38.7556ZM38.5528 33.3893H49.7328V32.9838H38.5528V33.3893ZM49.5301 33.1866V34.2266H49.9356V33.1866H49.5301ZM49.7328 34.0238H38.5528V34.4293H49.7328V34.0238ZM38.7556 34.2266V33.1866H38.3501V34.2266H38.7556ZM43.2928 16.6093H44.8128V16.2038H43.2928V16.6093ZM44.6101 16.4066V27.2666H45.0155V16.4066H44.6101ZM44.8128 27.0638H43.2928V27.4693H44.8128V27.0638ZM43.4955 27.2666V16.4066H43.0901V27.2666H43.4955ZM37.3728 18.0093H50.5728V17.6038H37.3728V18.0093ZM50.3701 17.8066V23.2666H50.7756V17.8066H50.3701ZM50.5728 23.0638H37.1328V23.4693H50.5728V23.0638ZM37.3356 23.2666V22.2866H36.9301V23.2666H37.3356ZM37.1328 22.4893H49.0728V22.0838H37.1328V22.4893ZM49.2756 22.2866V18.8066H48.8701V22.2866H49.2756ZM49.0728 18.6038H37.3728V19.0093H49.0728V18.6038ZM37.5756 18.8066V17.8066H37.1701V18.8066H37.5756ZM35.2528 20.1693H53.0128V19.7638H35.2528V20.1693ZM52.8101 19.9666V21.0866H53.2155V19.9666H52.8101ZM53.0128 20.8838H35.2528V21.2893H53.0128V20.8838ZM35.4555 21.0866V19.9666H35.0501V21.0866H35.4555ZM36.5928 24.5893H51.6728V24.1838H36.5928V24.5893ZM51.4701 24.3866V25.4066H51.8755V24.3866H51.4701ZM51.6728 25.2038H36.5928V25.6093H51.6728V25.2038ZM36.7955 25.4066V24.3866H36.3901V25.4066H36.7955ZM35.2128 26.7893H53.0328V26.3838H35.2128V26.7893ZM52.8301 26.5866V27.7066H53.2355V26.5866H52.8301ZM53.0328 27.5038H35.2128V27.9093H53.0328V27.5038ZM35.4156 27.7066V26.5866H35.0101V27.7066H35.4156Z" fill="#FEF5EB" mask="url(#path-5-outside-1_23632_22543)"/>
</g>
</g>
<defs>
<linearGradient id="paint0_linear_23632_22543" x1="34" y1="-1.04141e-05" x2="34" y2="68" gradientUnits="userSpaceOnUse">
<stop stop-color="#C93D34"/>
<stop offset="1" stop-color="#7A2629"/>
</linearGradient>
<linearGradient id="paint1_linear_23632_22543" x1="34" y1="-1.04141e-05" x2="34" y2="68" gradientUnits="userSpaceOnUse">
<stop stop-color="#C93D34"/>
<stop offset="1" stop-color="#7A2629"/>
</linearGradient>
<clipPath id="clip0_23632_22543">
<rect width="68" height="68" fill="white"/>
</clipPath>
</defs>
</svg>
