<svg width="68" height="68" viewBox="0 0 68 68" fill="none" xmlns="http://www.w3.org/2000/svg">
<g clip-path="url(#clip0_23632_22537)">
<mask id="mask0_23632_22537" style="mask-type:alpha" maskUnits="userSpaceOnUse" x="0" y="0" width="68" height="68">
<path fill-rule="evenodd" clip-rule="evenodd" d="M47.0333 0H20.9667C13.5811 0 8.89667 0.0377779 4.45778 4.45778C0.018889 8.89667 0 13.6 0 20.9667V47.0333C0 54.4189 0.0377779 59.1033 4.45778 63.5422C8.89667 67.9811 13.6 68 20.9667 68H47.0333C54.4189 68 59.1033 67.9811 63.5422 63.5422C67.9622 59.1033 68 54.4 68 47.0333V20.9667C68 13.5811 67.9622 8.89667 63.5422 4.45778C59.1033 0.018889 54.4 0 47.0333 0Z" fill="url(#paint0_linear_23632_22537)"/>
</mask>
<g mask="url(#mask0_23632_22537)">
<rect width="68" height="68" fill="url(#paint1_linear_23632_22537)"/>
<path fill-rule="evenodd" clip-rule="evenodd" d="M15.6212 64.3733C26.4256 64.3733 45.6357 64.3733 45.6357 64.3733C52.5868 64.3733 57.0823 64.6378 61.2379 60.4445C64.8079 56.8745 64.5057 50.8678 64.7323 46.1078C60.709 52.1522 53.3234 51.9445 47.619 51.9445C47.619 51.9445 20.929 51.9445 10.9556 51.9445C0.982316 51.9633 4.81676 64.3733 15.6212 64.3733Z" fill="#FEF5EB"/>
<path d="M12.4854 53.5311H23.1387V61.5211L17.812 58.8578L12.4854 61.5211V53.5311Z" fill="#F19C33"/>
<mask id="path-5-outside-1_23632_22537" maskUnits="userSpaceOnUse" x="12.1016" y="7.22656" width="44" height="37" fill="black">
<rect fill="white" x="12.1016" y="7.22656" width="44" height="37"/>
<path d="M13.7662 13.7621L15.164 15.3184V22.6243C15.164 23.3304 15.7836 23.7772 16.5618 23.7772C17.3399 23.7772 17.974 23.3304 17.974 22.6243V21.9327H19.2997V22.7108C19.2997 24.1662 17.974 24.7426 16.5618 24.7426C15.1496 24.7426 13.8383 24.1662 13.8383 22.7108V15.549C12.9304 14.4394 12.844 14.3385 12.844 14.1512C12.844 13.9927 12.9881 13.8053 13.7662 12.7822H15.5098V13.7477H13.7662V13.7621ZM20.0713 13.8342C19.7254 13.8342 19.5669 14.1368 19.5669 14.7276V18.0707C20.4459 18.0707 21.0944 18.5319 21.0944 19.5982C21.0944 20.5925 20.4315 21.2266 19.5957 21.2266H19.1923C18.6735 21.2266 18.2412 20.9384 18.2412 20.362V14.7276C18.2412 13.6756 18.6735 12.7822 19.9128 12.7822C20.4027 12.7822 20.8782 13.0704 21.397 13.6612H21.4258C21.959 13.0848 22.4201 12.7822 23.1262 12.7822C24.1926 12.7822 24.5672 13.6756 24.5672 14.7276V21.2266H23.2415V14.7276C23.2415 14.1368 23.083 13.8342 22.7372 13.8342C22.1463 13.8342 21.8725 14.7132 21.397 14.7132C20.9503 14.7132 20.6045 13.8342 20.0713 13.8342ZM19.5669 20.2611C19.9992 20.2611 20.201 20.0161 20.201 19.6126C20.201 19.2668 19.9992 19.065 19.5669 19.0506V20.2611ZM29.0228 15.9957C28.1294 15.9957 27.3945 15.2608 27.3945 14.3673C27.3945 13.4739 28.1294 12.739 29.0228 12.739C29.9163 12.739 30.6512 13.4739 30.6512 14.3673C30.6512 15.2608 29.9163 15.9957 29.0228 15.9957ZM29.0084 15.1167C29.4263 15.1167 29.7722 14.7996 29.7722 14.3673C29.7722 13.9494 29.4407 13.5892 29.0084 13.5892C28.5905 13.5892 28.2591 13.9206 28.2591 14.3673C28.2591 14.7852 28.605 15.1167 29.0084 15.1167ZM29.0228 21.2698C28.1294 21.2698 27.3945 20.5349 27.3945 19.6414C27.3945 18.748 28.1294 18.0131 29.0228 18.0131C29.9163 18.0131 30.6512 18.748 30.6512 19.6414C30.6512 20.5349 29.9163 21.2698 29.0228 21.2698ZM29.0084 20.3908C29.4263 20.3908 29.7722 20.0737 29.7722 19.6414C29.7722 19.2236 29.4407 18.8633 29.0084 18.8633C28.5905 18.8633 28.2591 19.1947 28.2591 19.6414C28.2591 20.0593 28.605 20.3908 29.0084 20.3908ZM33.4781 13.7477V12.7822H39.8042V13.7477H33.4781ZM33.4781 21.2266V17.0044C33.4781 15.4913 34.5301 14.7276 36.6339 14.7276C38.7522 14.7276 39.8042 15.4913 39.8042 17.0044V21.2266H38.4784V17.0044C38.4784 16.1398 37.8732 15.7075 36.6339 15.7075C35.4091 15.7075 34.7894 16.1398 34.7894 17.0044V18.9786C35.1209 18.6039 35.5532 18.4166 36.1008 18.4166H36.9942V19.3821H36.2593C35.2938 19.3821 34.9912 19.8288 34.7894 20.6213V21.2266H33.4781ZM47.8191 13.7621L49.2169 15.3184V18.9498C49.2169 20.4628 48.1649 21.2266 46.0466 21.2266C43.9428 21.2266 42.8908 20.4628 42.8908 18.9498V15.549C41.983 14.4394 41.8965 14.3385 41.8965 14.1512C41.8965 13.9927 42.0406 13.8053 42.8188 12.7822H44.5624V13.7477H42.8188V13.7621L44.2165 15.3184V16.5289H47.8911V15.549C46.9833 14.4394 46.8968 14.3385 46.8968 14.1512C46.8968 13.9927 47.0409 13.8053 47.8191 12.7822H49.5627V13.7477H47.8191V13.7621ZM44.2165 18.9498C44.2165 19.8144 44.8218 20.2611 46.0466 20.2611C47.2859 20.2611 47.8911 19.8144 47.8911 18.9498V17.4943H44.2165V18.9498ZM43.5569 24.7426V21.5724H44.7385L46.3092 22.4082L47.8655 21.5724H49.0471V24.7426H47.8655V22.5523L46.3092 23.3737L44.7385 22.5523V23.9501H45.3726V24.7426H43.5569ZM43.9966 11.37C43.521 11.37 43.2905 11.0242 43.2905 10.3181C43.2905 9.38141 44.0686 8.56003 45.4808 8.56003C46.4751 8.56003 47.455 8.97793 48.3052 9.55434V8.21419H49.2707V11.37H43.9966ZM44.3568 10.4622H47.9305C46.8786 9.71285 46.0428 9.46787 45.4808 9.46787C44.7747 9.46787 44.3568 9.71285 44.3568 10.4622ZM53.3247 13.7621L54.7225 15.3184V20.2323C54.7225 20.9384 54.3622 21.2266 53.7282 21.2266H53.4688C52.6762 21.2266 51.7828 20.9384 51.7828 19.6703C51.7828 18.5319 52.6907 18.1284 53.3968 18.0707V15.549C52.4889 14.4394 52.4025 14.3385 52.4025 14.1512C52.4025 13.9927 52.5466 13.8053 53.3247 12.7822H55.0683V13.7477H53.3247V13.7621ZM53.3968 20.2611V19.0506C53.123 19.0506 52.7483 19.1947 52.7483 19.6559C52.7483 20.117 53.0941 20.2611 53.3968 20.2611ZM16.4285 33.4538V31.4364H17.7398V32.4883H20.6506C21.1694 32.4883 21.4288 32.373 21.4288 32.1281V30.5141H22.7545V32.1281C22.7545 33.0215 22.3943 33.4538 20.8956 33.4538H16.4285ZM16.4285 40.2266V34.4337H17.7542V39.0593L19.5987 37.3734L21.4288 39.0449V34.4337H22.7545V40.2266H21.2271L19.5987 38.7423L17.9559 40.2266H16.4285ZM16.8185 29.37V27.9578C16.8185 27.0067 17.4093 26.5312 18.5765 26.5312H19.542C20.7813 26.5312 21.4009 26.3007 21.4009 25.8539H22.4529V26.0557C22.4529 26.7185 21.7612 27.3526 20.7813 27.3526H18.3316C17.9713 27.3526 17.8848 27.5543 17.8848 27.8425V28.563L19.6429 27.8137L21.4009 28.5775V27.8858H22.4529V29.37H21.3289L19.6285 28.6351L18.0145 29.37H16.8185ZM26.5021 32.7621L28.2601 34.3184V39.2323C28.2601 39.9384 27.8999 40.2266 27.2658 40.2266H27.0065C26.2139 40.2266 25.3205 39.9384 25.3205 38.6703C25.3205 37.5319 26.2283 37.1284 26.9344 37.0707V34.549C25.724 33.3961 25.6087 33.2809 25.6087 33.1079C25.6087 32.9494 25.7528 32.7621 26.5021 31.7822H27.2082C27.5541 31.7822 27.7126 31.6669 27.7126 31.4364V30.5141H29.0383V31.4364C29.0383 32.3154 28.4331 32.7477 27.2082 32.7477H26.5021V32.7621ZM26.9344 39.2611V38.0506C26.6606 38.0506 26.286 38.1947 26.286 38.6559C26.286 39.117 26.6318 39.2611 26.9344 39.2611ZM25.8542 29.37C25.4507 29.37 25.2345 29.0242 25.2345 28.3181C25.2345 27.3814 25.9262 26.56 27.1655 26.56C28.2606 26.56 29.4711 27.3814 30.3789 28.3181V29.37H25.8542ZM26.1712 28.4622H29.1829C28.2606 27.7128 27.6554 27.4823 27.1655 27.4823C26.6035 27.4823 26.1712 27.7128 26.1712 28.4622ZM34.5868 34.7075C33.4772 34.7075 32.9296 35.1398 32.9296 36.0044V37.0707C33.8086 37.0707 34.4571 37.5319 34.4571 38.5982C34.4571 39.5925 33.7942 40.2266 32.9584 40.2266H32.5549C32.0362 40.2266 31.6039 39.9384 31.6039 39.362V36.0044C31.6039 35.0821 31.9209 34.4769 32.5693 34.1167C32.0217 33.425 31.9497 33.3385 31.9497 33.1512C31.9497 32.9927 32.0938 32.8053 32.8719 31.7822H36.878V32.7477H32.8719V32.7621L33.7654 33.7708C34.0104 33.742 34.2841 33.7276 34.5868 33.7276C36.5754 33.7276 37.5841 34.4913 37.5841 36.0044V37.9498C37.5841 38.8144 38.1172 39.2611 39.198 39.2611C40.2932 39.2611 40.8264 38.8144 40.8264 37.9498V34.549C39.9185 33.4394 39.8321 33.3385 39.8321 33.1512C39.8321 32.9927 39.9762 32.8053 40.7543 31.7822H42.4979V32.7477H40.7543V32.7621L42.1521 34.3184V37.9498C42.1521 39.4628 41.1722 40.2266 39.198 40.2266C37.2382 40.2266 36.2583 39.4628 36.2583 37.9498V36.0044C36.2583 35.1398 35.6963 34.7075 34.5868 34.7075ZM32.9296 39.2611C33.3619 39.2611 33.5636 39.0161 33.5636 38.6126C33.5636 38.2668 33.3619 38.065 32.9296 38.0506V39.2611ZM39.116 43.7426V41.5523H38.3667V40.7165H40.4417V43.7426H39.116ZM48.3571 40.2266C46.5126 40.2266 45.5904 39.4628 45.5904 37.9498V36.8546H46.9161V37.9498C46.9161 38.8144 47.406 39.2611 48.3571 39.2611C49.3226 39.2611 49.8125 38.8144 49.8125 37.9498V36.8402C46.5703 36.3646 45.2445 35.6441 45.2445 34.059C45.2445 32.7621 46.0659 31.7822 48.4003 31.7822C50.7492 31.7822 51.5706 32.8053 51.5706 33.9149V34.2608H50.2448V33.9149C50.2448 33.2376 49.7693 32.7477 48.4003 32.7477C47.0458 32.7477 46.5558 33.1944 46.5558 34.059C46.5558 35.1254 47.5213 35.5289 49.8702 35.8603C49.9855 35.4856 50.2881 35.2839 50.6916 35.2839C51.2247 35.2839 51.5706 35.7018 51.5706 36.1053C51.5706 36.5232 51.3544 36.8258 51.1383 36.9122V37.9498C51.1383 39.4628 50.216 40.2266 48.3571 40.2266ZM47.3577 43.7426C46.4787 43.7426 45.8446 43.4112 45.8446 42.6475V41.7684C48.5681 41.2065 49.9947 40.9038 50.3118 40.5724H51.479V41.6099C51.479 42.8492 50.7441 43.1806 49.9947 43.1806C49.5048 43.1806 49.2022 43.0221 49.0004 42.878C48.8708 43.3103 48.3952 43.7426 47.3577 43.7426ZM50.2974 41.7973V41.5523L49.0581 41.8405V42.0711C49.0581 42.2728 49.2742 42.3881 49.6345 42.3881C50.0668 42.3881 50.2974 42.1431 50.2974 41.7973ZM47.5306 43.0077C47.9485 43.0077 48.2655 42.7051 48.2655 42.316V42.0278L47.0263 42.3016V42.5754C47.0263 42.8492 47.2136 43.0077 47.5306 43.0077Z"/>
</mask>
<path d="M13.7662 13.7621L15.164 15.3184V22.6243C15.164 23.3304 15.7836 23.7772 16.5618 23.7772C17.3399 23.7772 17.974 23.3304 17.974 22.6243V21.9327H19.2997V22.7108C19.2997 24.1662 17.974 24.7426 16.5618 24.7426C15.1496 24.7426 13.8383 24.1662 13.8383 22.7108V15.549C12.9304 14.4394 12.844 14.3385 12.844 14.1512C12.844 13.9927 12.9881 13.8053 13.7662 12.7822H15.5098V13.7477H13.7662V13.7621ZM20.0713 13.8342C19.7254 13.8342 19.5669 14.1368 19.5669 14.7276V18.0707C20.4459 18.0707 21.0944 18.5319 21.0944 19.5982C21.0944 20.5925 20.4315 21.2266 19.5957 21.2266H19.1923C18.6735 21.2266 18.2412 20.9384 18.2412 20.362V14.7276C18.2412 13.6756 18.6735 12.7822 19.9128 12.7822C20.4027 12.7822 20.8782 13.0704 21.397 13.6612H21.4258C21.959 13.0848 22.4201 12.7822 23.1262 12.7822C24.1926 12.7822 24.5672 13.6756 24.5672 14.7276V21.2266H23.2415V14.7276C23.2415 14.1368 23.083 13.8342 22.7372 13.8342C22.1463 13.8342 21.8725 14.7132 21.397 14.7132C20.9503 14.7132 20.6045 13.8342 20.0713 13.8342ZM19.5669 20.2611C19.9992 20.2611 20.201 20.0161 20.201 19.6126C20.201 19.2668 19.9992 19.065 19.5669 19.0506V20.2611ZM29.0228 15.9957C28.1294 15.9957 27.3945 15.2608 27.3945 14.3673C27.3945 13.4739 28.1294 12.739 29.0228 12.739C29.9163 12.739 30.6512 13.4739 30.6512 14.3673C30.6512 15.2608 29.9163 15.9957 29.0228 15.9957ZM29.0084 15.1167C29.4263 15.1167 29.7722 14.7996 29.7722 14.3673C29.7722 13.9494 29.4407 13.5892 29.0084 13.5892C28.5905 13.5892 28.2591 13.9206 28.2591 14.3673C28.2591 14.7852 28.605 15.1167 29.0084 15.1167ZM29.0228 21.2698C28.1294 21.2698 27.3945 20.5349 27.3945 19.6414C27.3945 18.748 28.1294 18.0131 29.0228 18.0131C29.9163 18.0131 30.6512 18.748 30.6512 19.6414C30.6512 20.5349 29.9163 21.2698 29.0228 21.2698ZM29.0084 20.3908C29.4263 20.3908 29.7722 20.0737 29.7722 19.6414C29.7722 19.2236 29.4407 18.8633 29.0084 18.8633C28.5905 18.8633 28.2591 19.1947 28.2591 19.6414C28.2591 20.0593 28.605 20.3908 29.0084 20.3908ZM33.4781 13.7477V12.7822H39.8042V13.7477H33.4781ZM33.4781 21.2266V17.0044C33.4781 15.4913 34.5301 14.7276 36.6339 14.7276C38.7522 14.7276 39.8042 15.4913 39.8042 17.0044V21.2266H38.4784V17.0044C38.4784 16.1398 37.8732 15.7075 36.6339 15.7075C35.4091 15.7075 34.7894 16.1398 34.7894 17.0044V18.9786C35.1209 18.6039 35.5532 18.4166 36.1008 18.4166H36.9942V19.3821H36.2593C35.2938 19.3821 34.9912 19.8288 34.7894 20.6213V21.2266H33.4781ZM47.8191 13.7621L49.2169 15.3184V18.9498C49.2169 20.4628 48.1649 21.2266 46.0466 21.2266C43.9428 21.2266 42.8908 20.4628 42.8908 18.9498V15.549C41.983 14.4394 41.8965 14.3385 41.8965 14.1512C41.8965 13.9927 42.0406 13.8053 42.8188 12.7822H44.5624V13.7477H42.8188V13.7621L44.2165 15.3184V16.5289H47.8911V15.549C46.9833 14.4394 46.8968 14.3385 46.8968 14.1512C46.8968 13.9927 47.0409 13.8053 47.8191 12.7822H49.5627V13.7477H47.8191V13.7621ZM44.2165 18.9498C44.2165 19.8144 44.8218 20.2611 46.0466 20.2611C47.2859 20.2611 47.8911 19.8144 47.8911 18.9498V17.4943H44.2165V18.9498ZM43.5569 24.7426V21.5724H44.7385L46.3092 22.4082L47.8655 21.5724H49.0471V24.7426H47.8655V22.5523L46.3092 23.3737L44.7385 22.5523V23.9501H45.3726V24.7426H43.5569ZM43.9966 11.37C43.521 11.37 43.2905 11.0242 43.2905 10.3181C43.2905 9.38141 44.0686 8.56003 45.4808 8.56003C46.4751 8.56003 47.455 8.97793 48.3052 9.55434V8.21419H49.2707V11.37H43.9966ZM44.3568 10.4622H47.9305C46.8786 9.71285 46.0428 9.46787 45.4808 9.46787C44.7747 9.46787 44.3568 9.71285 44.3568 10.4622ZM53.3247 13.7621L54.7225 15.3184V20.2323C54.7225 20.9384 54.3622 21.2266 53.7282 21.2266H53.4688C52.6762 21.2266 51.7828 20.9384 51.7828 19.6703C51.7828 18.5319 52.6907 18.1284 53.3968 18.0707V15.549C52.4889 14.4394 52.4025 14.3385 52.4025 14.1512C52.4025 13.9927 52.5466 13.8053 53.3247 12.7822H55.0683V13.7477H53.3247V13.7621ZM53.3968 20.2611V19.0506C53.123 19.0506 52.7483 19.1947 52.7483 19.6559C52.7483 20.117 53.0941 20.2611 53.3968 20.2611ZM16.4285 33.4538V31.4364H17.7398V32.4883H20.6506C21.1694 32.4883 21.4288 32.373 21.4288 32.1281V30.5141H22.7545V32.1281C22.7545 33.0215 22.3943 33.4538 20.8956 33.4538H16.4285ZM16.4285 40.2266V34.4337H17.7542V39.0593L19.5987 37.3734L21.4288 39.0449V34.4337H22.7545V40.2266H21.2271L19.5987 38.7423L17.9559 40.2266H16.4285ZM16.8185 29.37V27.9578C16.8185 27.0067 17.4093 26.5312 18.5765 26.5312H19.542C20.7813 26.5312 21.4009 26.3007 21.4009 25.8539H22.4529V26.0557C22.4529 26.7185 21.7612 27.3526 20.7813 27.3526H18.3316C17.9713 27.3526 17.8848 27.5543 17.8848 27.8425V28.563L19.6429 27.8137L21.4009 28.5775V27.8858H22.4529V29.37H21.3289L19.6285 28.6351L18.0145 29.37H16.8185ZM26.5021 32.7621L28.2601 34.3184V39.2323C28.2601 39.9384 27.8999 40.2266 27.2658 40.2266H27.0065C26.2139 40.2266 25.3205 39.9384 25.3205 38.6703C25.3205 37.5319 26.2283 37.1284 26.9344 37.0707V34.549C25.724 33.3961 25.6087 33.2809 25.6087 33.1079C25.6087 32.9494 25.7528 32.7621 26.5021 31.7822H27.2082C27.5541 31.7822 27.7126 31.6669 27.7126 31.4364V30.5141H29.0383V31.4364C29.0383 32.3154 28.4331 32.7477 27.2082 32.7477H26.5021V32.7621ZM26.9344 39.2611V38.0506C26.6606 38.0506 26.286 38.1947 26.286 38.6559C26.286 39.117 26.6318 39.2611 26.9344 39.2611ZM25.8542 29.37C25.4507 29.37 25.2345 29.0242 25.2345 28.3181C25.2345 27.3814 25.9262 26.56 27.1655 26.56C28.2606 26.56 29.4711 27.3814 30.3789 28.3181V29.37H25.8542ZM26.1712 28.4622H29.1829C28.2606 27.7128 27.6554 27.4823 27.1655 27.4823C26.6035 27.4823 26.1712 27.7128 26.1712 28.4622ZM34.5868 34.7075C33.4772 34.7075 32.9296 35.1398 32.9296 36.0044V37.0707C33.8086 37.0707 34.4571 37.5319 34.4571 38.5982C34.4571 39.5925 33.7942 40.2266 32.9584 40.2266H32.5549C32.0362 40.2266 31.6039 39.9384 31.6039 39.362V36.0044C31.6039 35.0821 31.9209 34.4769 32.5693 34.1167C32.0217 33.425 31.9497 33.3385 31.9497 33.1512C31.9497 32.9927 32.0938 32.8053 32.8719 31.7822H36.878V32.7477H32.8719V32.7621L33.7654 33.7708C34.0104 33.742 34.2841 33.7276 34.5868 33.7276C36.5754 33.7276 37.5841 34.4913 37.5841 36.0044V37.9498C37.5841 38.8144 38.1172 39.2611 39.198 39.2611C40.2932 39.2611 40.8264 38.8144 40.8264 37.9498V34.549C39.9185 33.4394 39.8321 33.3385 39.8321 33.1512C39.8321 32.9927 39.9762 32.8053 40.7543 31.7822H42.4979V32.7477H40.7543V32.7621L42.1521 34.3184V37.9498C42.1521 39.4628 41.1722 40.2266 39.198 40.2266C37.2382 40.2266 36.2583 39.4628 36.2583 37.9498V36.0044C36.2583 35.1398 35.6963 34.7075 34.5868 34.7075ZM32.9296 39.2611C33.3619 39.2611 33.5636 39.0161 33.5636 38.6126C33.5636 38.2668 33.3619 38.065 32.9296 38.0506V39.2611ZM39.116 43.7426V41.5523H38.3667V40.7165H40.4417V43.7426H39.116ZM48.3571 40.2266C46.5126 40.2266 45.5904 39.4628 45.5904 37.9498V36.8546H46.9161V37.9498C46.9161 38.8144 47.406 39.2611 48.3571 39.2611C49.3226 39.2611 49.8125 38.8144 49.8125 37.9498V36.8402C46.5703 36.3646 45.2445 35.6441 45.2445 34.059C45.2445 32.7621 46.0659 31.7822 48.4003 31.7822C50.7492 31.7822 51.5706 32.8053 51.5706 33.9149V34.2608H50.2448V33.9149C50.2448 33.2376 49.7693 32.7477 48.4003 32.7477C47.0458 32.7477 46.5558 33.1944 46.5558 34.059C46.5558 35.1254 47.5213 35.5289 49.8702 35.8603C49.9855 35.4856 50.2881 35.2839 50.6916 35.2839C51.2247 35.2839 51.5706 35.7018 51.5706 36.1053C51.5706 36.5232 51.3544 36.8258 51.1383 36.9122V37.9498C51.1383 39.4628 50.216 40.2266 48.3571 40.2266ZM47.3577 43.7426C46.4787 43.7426 45.8446 43.4112 45.8446 42.6475V41.7684C48.5681 41.2065 49.9947 40.9038 50.3118 40.5724H51.479V41.6099C51.479 42.8492 50.7441 43.1806 49.9947 43.1806C49.5048 43.1806 49.2022 43.0221 49.0004 42.878C48.8708 43.3103 48.3952 43.7426 47.3577 43.7426ZM50.2974 41.7973V41.5523L49.0581 41.8405V42.0711C49.0581 42.2728 49.2742 42.3881 49.6345 42.3881C50.0668 42.3881 50.2974 42.1431 50.2974 41.7973ZM47.5306 43.0077C47.9485 43.0077 48.2655 42.7051 48.2655 42.316V42.0278L47.0263 42.3016V42.5754C47.0263 42.8492 47.2136 43.0077 47.5306 43.0077Z" fill="#FEF5EB"/>
<path d="M13.7662 13.7621H13.5635V13.8398L13.6154 13.8976L13.7662 13.7621ZM15.164 15.3184H15.3667V15.2407L15.3148 15.1829L15.164 15.3184ZM17.974 21.9327V21.7299H17.7712V21.9327H17.974ZM19.2997 21.9327H19.5025V21.7299H19.2997V21.9327ZM13.8383 15.549H14.041V15.4766L13.9952 15.4206L13.8383 15.549ZM13.7662 12.7822V12.5795H13.6657L13.6049 12.6595L13.7662 12.7822ZM15.5098 12.7822H15.7126V12.5795H15.5098V12.7822ZM15.5098 13.7477V13.9504H15.7126V13.7477H15.5098ZM13.7662 13.7477V13.545H13.5635V13.7477H13.7662ZM13.6154 13.8976L15.0132 15.4539L15.3148 15.1829L13.9171 13.6266L13.6154 13.8976ZM14.9613 15.3184V22.6243H15.3667V15.3184H14.9613ZM14.9613 22.6243C14.9613 23.0427 15.1472 23.3882 15.4451 23.6244C15.7394 23.8577 16.1357 23.9799 16.5618 23.9799V23.5744C16.2097 23.5744 15.9071 23.4732 15.697 23.3067C15.4906 23.143 15.3667 22.9121 15.3667 22.6243H14.9613ZM16.5618 23.9799C17.4026 23.9799 18.1767 23.4861 18.1767 22.6243H17.7712C17.7712 23.1748 17.2773 23.5744 16.5618 23.5744V23.9799ZM18.1767 22.6243V21.9327H17.7712V22.6243H18.1767ZM17.974 22.1354H19.2997V21.7299H17.974V22.1354ZM19.097 21.9327V22.7108H19.5025V21.9327H19.097ZM19.097 22.7108C19.097 23.365 18.8046 23.8107 18.3508 24.1019C17.8867 24.3998 17.245 24.5399 16.5618 24.5399V24.9454C17.2908 24.9454 18.018 24.7973 18.5698 24.4431C19.132 24.0823 19.5025 23.512 19.5025 22.7108H19.097ZM16.5618 24.5399C15.8786 24.5399 15.2408 24.3998 14.7805 24.1022C14.3307 23.8115 14.041 23.3659 14.041 22.7108H13.6355C13.6355 23.5111 14.0015 24.0815 14.5604 24.4428C15.1089 24.7973 15.8328 24.9454 16.5618 24.9454V24.5399ZM14.041 22.7108V15.549H13.6355V22.7108H14.041ZM13.9952 15.4206C13.5384 14.8623 13.2955 14.5665 13.1651 14.3856C13.1 14.2954 13.0718 14.2456 13.0586 14.2141C13.0487 14.1906 13.0467 14.1767 13.0467 14.1512H12.6412C12.6412 14.2193 12.65 14.2883 12.6847 14.371C12.7161 14.4459 12.7662 14.5257 12.8362 14.6228C12.976 14.8166 13.2303 15.1261 13.6814 15.6773L13.9952 15.4206ZM13.0467 14.1512C13.0467 14.1419 13.0451 14.1031 13.1805 13.9055C13.3102 13.7163 13.5365 13.4191 13.9276 12.9049L13.6049 12.6595C13.2178 13.1684 12.983 13.4765 12.846 13.6763C12.7148 13.8678 12.6412 14.002 12.6412 14.1512H13.0467ZM13.7662 12.9849H15.5098V12.5795H13.7662V12.9849ZM15.3071 12.7822V13.7477H15.7126V12.7822H15.3071ZM15.5098 13.545H13.7662V13.9504H15.5098V13.545ZM13.5635 13.7477V13.7621H13.969V13.7477H13.5635ZM19.5669 18.0707H19.3642V18.2735H19.5669V18.0707ZM21.397 13.6612L21.2447 13.795L21.3052 13.864H21.397V13.6612ZM21.4258 13.6612V13.864H21.5145L21.5747 13.7989L21.4258 13.6612ZM24.5672 21.2266V21.4293H24.77V21.2266H24.5672ZM23.2415 21.2266H23.0388V21.4293H23.2415V21.2266ZM19.5669 20.2611H19.3642V20.4638H19.5669V20.2611ZM19.5669 19.0506L19.5737 18.848L19.3642 18.841V19.0506H19.5669ZM20.0713 13.6314C19.9545 13.6314 19.8428 13.6573 19.7433 13.7162C19.6438 13.7751 19.5679 13.8602 19.5121 13.961C19.4041 14.1559 19.3642 14.4211 19.3642 14.7276H19.7697C19.7697 14.4433 19.809 14.2617 19.8667 14.1576C19.8937 14.1089 19.9223 14.0814 19.9499 14.0651C19.9773 14.0489 20.0152 14.0369 20.0713 14.0369V13.6314ZM19.3642 14.7276V18.0707H19.7697V14.7276H19.3642ZM19.5669 18.2735C19.9733 18.2735 20.3 18.38 20.5235 18.5842C20.7438 18.7856 20.8917 19.1074 20.8917 19.5982H21.2971C21.2971 19.0227 21.1208 18.5808 20.7971 18.2849C20.4766 17.992 20.0396 17.868 19.5669 17.868V18.2735ZM20.8917 19.5982C20.8917 20.4894 20.3109 21.0238 19.5957 21.0238V21.4293C20.5521 21.4293 21.2971 20.6957 21.2971 19.5982H20.8917ZM19.5957 21.0238H19.1923V21.4293H19.5957V21.0238ZM19.1923 21.0238C18.9682 21.0238 18.7801 20.9615 18.652 20.8547C18.5287 20.7519 18.4439 20.5946 18.4439 20.362H18.0384C18.0384 20.7057 18.1698 20.9807 18.3924 21.1662C18.6101 21.3476 18.8976 21.4293 19.1923 21.4293V21.0238ZM18.4439 20.362V14.7276H18.0384V20.362H18.4439ZM18.4439 14.7276C18.4439 14.2245 18.5481 13.7875 18.7751 13.4811C18.9946 13.185 19.348 12.9849 19.9128 12.9849V12.5795C19.2383 12.5795 18.7558 12.8262 18.4494 13.2397C18.1504 13.643 18.0384 14.1788 18.0384 14.7276H18.4439ZM19.9128 12.9849C20.3153 12.9849 20.7398 13.22 21.2447 13.795L21.5494 13.5275C21.0167 12.9208 20.4901 12.5795 19.9128 12.5795V12.9849ZM21.397 13.864H21.4258V13.4585H21.397V13.864ZM21.5747 13.7989C21.8348 13.5177 22.066 13.316 22.3084 13.1835C22.547 13.053 22.8051 12.9849 23.1262 12.9849V12.5795C22.7413 12.5795 22.4157 12.6627 22.1139 12.8277C21.816 12.9905 21.5501 13.2283 21.277 13.5236L21.5747 13.7989ZM23.1262 12.9849C23.5917 12.9849 23.8869 13.1743 24.0758 13.4697C24.2732 13.7783 24.3645 14.2201 24.3645 14.7276H24.77C24.77 14.1831 24.6739 13.6523 24.4174 13.2512C24.1524 12.8369 23.7271 12.5795 23.1262 12.5795V12.9849ZM24.3645 14.7276V21.2266H24.77V14.7276H24.3645ZM24.5672 21.0238H23.2415V21.4293H24.5672V21.0238ZM23.4442 21.2266V14.7276H23.0388V21.2266H23.4442ZM23.4442 14.7276C23.4442 14.4211 23.4044 14.1559 23.2963 13.961C23.2405 13.8602 23.1646 13.7751 23.0652 13.7162C22.9656 13.6573 22.854 13.6314 22.7372 13.6314V14.0369C22.7933 14.0369 22.8311 14.0489 22.8586 14.0651C22.8861 14.0814 22.9147 14.1089 22.9417 14.1576C22.9994 14.2617 23.0388 14.4433 23.0388 14.7276H23.4442ZM22.7372 13.6314C22.3393 13.6314 22.0651 13.929 21.8745 14.1366C21.7683 14.2522 21.6835 14.3477 21.5964 14.4183C21.5116 14.4869 21.4497 14.5104 21.397 14.5104V14.9159C21.5821 14.9159 21.7328 14.8295 21.8515 14.7334C21.968 14.6391 22.0777 14.5148 22.1732 14.4108C22.3861 14.1789 22.5442 14.0369 22.7372 14.0369V13.6314ZM21.397 14.5104C21.3532 14.5104 21.2925 14.4887 21.2026 14.4172C21.1128 14.3457 21.0225 14.2486 20.9135 14.134C20.8102 14.0253 20.6909 13.902 20.559 13.807C20.4256 13.7109 20.2628 13.6314 20.0713 13.6314V14.0369C20.1463 14.0369 20.2267 14.0673 20.322 14.136C20.4189 14.2058 20.514 14.3022 20.6196 14.4134C20.7196 14.5185 20.8328 14.6411 20.9502 14.7345C21.0674 14.8278 21.2175 14.9159 21.397 14.9159V14.5104ZM19.5669 20.4638C19.8212 20.4638 20.0405 20.3908 20.1941 20.2267C20.3455 20.0649 20.4037 19.8455 20.4037 19.6126H19.9982C19.9982 19.7832 19.9556 19.8881 19.898 19.9497C19.8427 20.0088 19.745 20.0583 19.5669 20.0583V20.4638ZM20.4037 19.6126C20.4037 19.3994 20.3402 19.2015 20.1828 19.0577C20.0296 18.9177 19.8168 18.8561 19.5737 18.848L19.5602 19.2533C19.7493 19.2596 19.8535 19.306 19.9093 19.357C19.9608 19.4041 19.9982 19.48 19.9982 19.6126H20.4037ZM19.3642 19.0506V20.2611H19.7697V19.0506H19.3642ZM29.0228 15.7929C28.2414 15.7929 27.5972 15.1488 27.5972 14.3673H27.1918C27.1918 15.3727 28.0175 16.1984 29.0228 16.1984V15.7929ZM27.5972 14.3673C27.5972 13.5859 28.2414 12.9417 29.0228 12.9417V12.5362C28.0175 12.5362 27.1918 13.3619 27.1918 14.3673H27.5972ZM29.0228 12.9417C29.8043 12.9417 30.4485 13.5859 30.4485 14.3673H30.8539C30.8539 13.3619 30.0282 12.5362 29.0228 12.5362V12.9417ZM30.4485 14.3673C30.4485 15.1488 29.8043 15.7929 29.0228 15.7929V16.1984C30.0282 16.1984 30.8539 15.3727 30.8539 14.3673H30.4485ZM29.0084 15.3194C29.5306 15.3194 29.9749 14.9191 29.9749 14.3673H29.5694C29.5694 14.6801 29.322 14.9139 29.0084 14.9139V15.3194ZM29.9749 14.3673C29.9749 13.8449 29.56 13.3864 29.0084 13.3864V13.7919C29.3214 13.7919 29.5694 14.0539 29.5694 14.3673H29.9749ZM29.0084 13.3864C28.4736 13.3864 28.0564 13.8137 28.0564 14.3673H28.4618C28.4618 14.0275 28.7075 13.7919 29.0084 13.7919V13.3864ZM28.0564 14.3673C28.0564 14.8997 28.4955 15.3194 29.0084 15.3194V14.9139C28.7144 14.9139 28.4618 14.6707 28.4618 14.3673H28.0564ZM29.0228 21.0671C28.2414 21.0671 27.5972 20.4229 27.5972 19.6414H27.1918C27.1918 20.6468 28.0175 21.4725 29.0228 21.4725V21.0671ZM27.5972 19.6414C27.5972 18.86 28.2414 18.2158 29.0228 18.2158V17.8104C28.0175 17.8104 27.1918 18.636 27.1918 19.6414H27.5972ZM29.0228 18.2158C29.8043 18.2158 30.4485 18.86 30.4485 19.6414H30.8539C30.8539 18.636 30.0282 17.8104 29.0228 17.8104V18.2158ZM30.4485 19.6414C30.4485 20.4229 29.8043 21.0671 29.0228 21.0671V21.4725C30.0282 21.4725 30.8539 20.6468 30.8539 19.6414H30.4485ZM29.0084 20.5935C29.5306 20.5935 29.9749 20.1932 29.9749 19.6414H29.5694C29.5694 19.9543 29.322 20.188 29.0084 20.188V20.5935ZM29.9749 19.6414C29.9749 19.1191 29.56 18.6606 29.0084 18.6606V19.066C29.3214 19.066 29.5694 19.328 29.5694 19.6414H29.9749ZM29.0084 18.6606C28.4736 18.6606 28.0564 19.0878 28.0564 19.6414H28.4618C28.4618 19.3016 28.7075 19.066 29.0084 19.066V18.6606ZM28.0564 19.6414C28.0564 20.1738 28.4955 20.5935 29.0084 20.5935V20.188C28.7144 20.188 28.4618 19.9448 28.4618 19.6414H28.0564ZM33.4781 13.7477H33.2754V13.9504H33.4781V13.7477ZM33.4781 12.7822V12.5795H33.2754V12.7822H33.4781ZM39.8042 12.7822H40.0069V12.5795H39.8042V12.7822ZM39.8042 13.7477V13.9504H40.0069V13.7477H39.8042ZM33.4781 21.2266H33.2754V21.4293H33.4781V21.2266ZM39.8042 21.2266V21.4293H40.0069V21.2266H39.8042ZM38.4784 21.2266H38.2757V21.4293H38.4784V21.2266ZM34.7894 18.9786H34.5867V19.5137L34.9413 19.1129L34.7894 18.9786ZM36.9942 18.4166H37.1969V18.2138H36.9942V18.4166ZM36.9942 19.3821V19.5848H37.1969V19.3821H36.9942ZM34.7894 20.6213L34.593 20.5713L34.5867 20.5959V20.6213H34.7894ZM34.7894 21.2266V21.4293H34.9922V21.2266H34.7894ZM33.6809 13.7477V12.7822H33.2754V13.7477H33.6809ZM33.4781 12.9849H39.8042V12.5795H33.4781V12.9849ZM39.6014 12.7822V13.7477H40.0069V12.7822H39.6014ZM39.8042 13.545H33.4781V13.9504H39.8042V13.545ZM33.6809 21.2266V17.0044H33.2754V21.2266H33.6809ZM33.6809 17.0044C33.6809 16.3005 33.9219 15.7981 34.3858 15.4629C34.8618 15.119 35.6005 14.9303 36.6339 14.9303V14.5248C35.5635 14.5248 34.7243 14.7181 34.1483 15.1343C33.5603 15.5592 33.2754 16.1952 33.2754 17.0044H33.6809ZM36.6339 14.9303C37.6748 14.9303 38.4172 15.119 38.8949 15.4631C39.3604 15.7983 39.6014 16.3006 39.6014 17.0044H40.0069C40.0069 16.1951 39.7219 15.559 39.1319 15.1341C38.5541 14.718 37.7114 14.5248 36.6339 14.5248V14.9303ZM39.6014 17.0044V21.2266H40.0069V17.0044H39.6014ZM39.8042 21.0238H38.4784V21.4293H39.8042V21.0238ZM38.6812 21.2266V17.0044H38.2757V21.2266H38.6812ZM38.6812 17.0044C38.6812 16.5186 38.5072 16.1268 38.1378 15.8661C37.7817 15.6147 37.2708 15.5047 36.6339 15.5047V15.9102C37.2364 15.9102 37.6477 16.0164 37.904 16.1973C38.147 16.3689 38.2757 16.6256 38.2757 17.0044H38.6812ZM36.6339 15.5047C36.0038 15.5047 35.4935 15.6148 35.1359 15.8657C34.7654 16.1258 34.5867 16.517 34.5867 17.0044H34.9922C34.9922 16.6272 35.1233 16.37 35.3688 16.1977C35.6273 16.0163 36.0392 15.9102 36.6339 15.9102V15.5047ZM34.5867 17.0044V18.9786H34.9922V17.0044H34.5867ZM34.9413 19.1129C35.2309 18.7855 35.606 18.6193 36.1008 18.6193V18.2138C35.5004 18.2138 35.0109 18.4223 34.6376 18.8442L34.9413 19.1129ZM36.1008 18.6193H36.9942V18.2138H36.1008V18.6193ZM36.7915 18.4166V19.3821H37.1969V18.4166H36.7915ZM36.9942 19.1793H36.2593V19.5848H36.9942V19.1793ZM36.2593 19.1793C35.7455 19.1793 35.3703 19.2988 35.0982 19.5576C34.8333 19.8096 34.6959 20.167 34.593 20.5713L34.9859 20.6713C35.0847 20.2831 35.1995 20.0209 35.3777 19.8514C35.5487 19.6887 35.8076 19.5848 36.2593 19.5848V19.1793ZM34.5867 20.6213V21.2266H34.9922V20.6213H34.5867ZM34.7894 21.0238H33.4781V21.4293H34.7894V21.0238ZM47.8191 13.7621H47.6163V13.8398L47.6683 13.8976L47.8191 13.7621ZM49.2169 15.3184H49.4196V15.2407L49.3677 15.1829L49.2169 15.3184ZM42.8908 15.549H43.0935V15.4766L43.0477 15.4206L42.8908 15.549ZM42.8188 12.7822V12.5795H42.7182L42.6574 12.6595L42.8188 12.7822ZM44.5624 12.7822H44.7651V12.5795H44.5624V12.7822ZM44.5624 13.7477V13.9504H44.7651V13.7477H44.5624ZM42.8188 13.7477V13.545H42.616V13.7477H42.8188ZM42.8188 13.7621H42.616V13.8398L42.6679 13.8976L42.8188 13.7621ZM44.2165 15.3184H44.4193V15.2407L44.3674 15.1829L44.2165 15.3184ZM44.2165 16.5289H44.0138V16.7316H44.2165V16.5289ZM47.8911 16.5289V16.7316H48.0939V16.5289H47.8911ZM47.8911 15.549H48.0939V15.4766L48.048 15.4206L47.8911 15.549ZM47.8191 12.7822V12.5795H47.7186L47.6577 12.6595L47.8191 12.7822ZM49.5627 12.7822H49.7654V12.5795H49.5627V12.7822ZM49.5627 13.7477V13.9504H49.7654V13.7477H49.5627ZM47.8191 13.7477V13.545H47.6163V13.7477H47.8191ZM47.8911 17.4943H48.0939V17.2916H47.8911V17.4943ZM44.2165 17.4943V17.2916H44.0138V17.4943H44.2165ZM47.6683 13.8976L49.066 15.4539L49.3677 15.1829L47.9699 13.6266L47.6683 13.8976ZM49.0141 15.3184V18.9498H49.4196V15.3184H49.0141ZM49.0141 18.9498C49.0141 19.6536 48.7731 20.1558 48.3076 20.491C47.8299 20.8351 47.0875 21.0238 46.0466 21.0238V21.4293C47.1241 21.4293 47.9668 21.2362 48.5446 20.8201C49.1346 20.3952 49.4196 19.759 49.4196 18.9498H49.0141ZM46.0466 21.0238C45.0132 21.0238 44.2745 20.8352 43.7985 20.4912C43.3346 20.156 43.0935 19.6536 43.0935 18.9498H42.6881C42.6881 19.7589 42.973 20.395 43.561 20.8199C44.137 21.2361 44.9762 21.4293 46.0466 21.4293V21.0238ZM43.0935 18.9498V15.549H42.6881V18.9498H43.0935ZM43.0477 15.4206C42.5909 14.8623 42.3481 14.5665 42.2177 14.3856C42.1526 14.2954 42.1243 14.2456 42.1112 14.2141C42.1013 14.1906 42.0992 14.1767 42.0992 14.1512H41.6938C41.6938 14.2193 41.7026 14.2883 41.7373 14.371C41.7687 14.4459 41.8188 14.5257 41.8888 14.6228C42.0286 14.8166 42.2829 15.1261 42.7339 15.6773L43.0477 15.4206ZM42.0992 14.1512C42.0992 14.1419 42.0977 14.1031 42.2331 13.9055C42.3627 13.7163 42.5891 13.4191 42.9801 12.9049L42.6574 12.6595C42.2703 13.1684 42.0355 13.4765 41.8986 13.6763C41.7674 13.8678 41.6938 14.002 41.6938 14.1512H42.0992ZM42.8188 12.9849H44.5624V12.5795H42.8188V12.9849ZM44.3597 12.7822V13.7477H44.7651V12.7822H44.3597ZM44.5624 13.545H42.8188V13.9504H44.5624V13.545ZM42.616 13.7477V13.7621H43.0215V13.7477H42.616ZM42.6679 13.8976L44.0657 15.4539L44.3674 15.1829L42.9696 13.6266L42.6679 13.8976ZM44.0138 15.3184V16.5289H44.4193V15.3184H44.0138ZM44.2165 16.7316H47.8911V16.3261H44.2165V16.7316ZM48.0939 16.5289V15.549H47.6884V16.5289H48.0939ZM48.048 15.4206C47.5912 14.8623 47.3484 14.5665 47.218 14.3856C47.1529 14.2954 47.1247 14.2456 47.1115 14.2141C47.1016 14.1906 47.0996 14.1767 47.0996 14.1512H46.6941C46.6941 14.2193 46.7029 14.2883 46.7376 14.371C46.769 14.4459 46.8191 14.5257 46.8891 14.6228C47.0289 14.8166 47.2832 15.1261 47.7342 15.6773L48.048 15.4206ZM47.0996 14.1512C47.0996 14.1419 47.098 14.1031 47.2334 13.9055C47.363 13.7163 47.5894 13.4191 47.9804 12.9049L47.6577 12.6595C47.2706 13.1684 47.0358 13.4765 46.8989 13.6763C46.7677 13.8678 46.6941 14.002 46.6941 14.1512H47.0996ZM47.8191 12.9849H49.5627V12.5795H47.8191V12.9849ZM49.36 12.7822V13.7477H49.7654V12.7822H49.36ZM49.5627 13.545H47.8191V13.9504H49.5627V13.545ZM47.6163 13.7477V13.7621H48.0218V13.7477H47.6163ZM44.0138 18.9498C44.0138 19.4352 44.1873 19.8296 44.5536 20.094C44.9079 20.3498 45.4155 20.4638 46.0466 20.4638V20.0583C45.4529 20.0583 45.0455 19.949 44.7909 19.7653C44.5484 19.5902 44.4193 19.329 44.4193 18.9498H44.0138ZM46.0466 20.4638C46.6846 20.4638 47.1957 20.3499 47.5518 20.0944C47.9202 19.83 48.0939 19.4353 48.0939 18.9498H47.6884C47.6884 19.3289 47.5594 19.5898 47.3154 19.7649C47.0591 19.9489 46.6479 20.0583 46.0466 20.0583V20.4638ZM48.0939 18.9498V17.4943H47.6884V18.9498H48.0939ZM47.8911 17.2916H44.2165V17.6971H47.8911V17.2916ZM44.0138 17.4943V18.9498H44.4193V17.4943H44.0138ZM43.5569 24.7426H43.3541V24.9454H43.5569V24.7426ZM43.5569 21.5724V21.3697H43.3541V21.5724H43.5569ZM44.7385 21.5724L44.8337 21.3934L44.7891 21.3697H44.7385V21.5724ZM46.3092 22.4082L46.214 22.5872L46.3097 22.6381L46.4051 22.5868L46.3092 22.4082ZM47.8655 21.5724V21.3697H47.8145L47.7696 21.3938L47.8655 21.5724ZM49.0471 21.5724H49.2499V21.3697H49.0471V21.5724ZM49.0471 24.7426V24.9454H49.2499V24.7426H49.0471ZM47.8655 24.7426H47.6628V24.9454H47.8655V24.7426ZM47.8655 22.5523H48.0683V22.2161L47.7709 22.373L47.8655 22.5523ZM46.3092 23.3737L46.2153 23.5533L46.3097 23.6027L46.4039 23.553L46.3092 23.3737ZM44.7385 22.5523L44.8325 22.3726L44.5358 22.2175V22.5523H44.7385ZM44.7385 23.9501H44.5358V24.1528H44.7385V23.9501ZM45.3726 23.9501H45.5753V23.7473H45.3726V23.9501ZM45.3726 24.7426V24.9454H45.5753V24.7426H45.3726ZM43.7596 24.7426V21.5724H43.3541V24.7426H43.7596ZM43.5569 21.7751H44.7385V21.3697H43.5569V21.7751ZM44.6433 21.7514L46.214 22.5872L46.4045 22.2292L44.8337 21.3934L44.6433 21.7514ZM46.4051 22.5868L47.9614 21.751L47.7696 21.3938L46.2133 22.2296L46.4051 22.5868ZM47.8655 21.7751H49.0471V21.3697H47.8655V21.7751ZM48.8444 21.5724V24.7426H49.2499V21.5724H48.8444ZM49.0471 24.5399H47.8655V24.9454H49.0471V24.5399ZM48.0683 24.7426V22.5523H47.6628V24.7426H48.0683ZM47.7709 22.373L46.2146 23.1944L46.4039 23.553L47.9601 22.7316L47.7709 22.373ZM46.4032 23.194L44.8325 22.3726L44.6446 22.732L46.2153 23.5533L46.4032 23.194ZM44.5358 22.5523V23.9501H44.9412V22.5523H44.5358ZM44.7385 24.1528H45.3726V23.7473H44.7385V24.1528ZM45.1698 23.9501V24.7426H45.5753V23.9501H45.1698ZM45.3726 24.5399H43.5569V24.9454H45.3726V24.5399ZM48.3052 9.55434L48.1914 9.72214L48.5079 9.93672V9.55434H48.3052ZM48.3052 8.21419V8.01145H48.1025V8.21419H48.3052ZM49.2707 8.21419H49.4734V8.01145H49.2707V8.21419ZM49.2707 11.37V11.5728H49.4734V11.37H49.2707ZM44.3568 10.4622H44.1541V10.6649H44.3568V10.4622ZM47.9305 10.4622V10.6649H48.5646L48.0481 10.297L47.9305 10.4622ZM43.9966 11.1673C43.8157 11.1673 43.7075 11.1062 43.6336 10.996C43.5496 10.8706 43.4932 10.6558 43.4932 10.3181H43.0877C43.0877 10.6864 43.1466 10.9976 43.2968 11.2217C43.457 11.4609 43.7018 11.5728 43.9966 11.5728V11.1673ZM43.4932 10.3181C43.4932 9.9083 43.6624 9.52466 43.989 9.24084C44.3165 8.9563 44.8139 8.76277 45.4808 8.76277V8.3573C44.7355 8.3573 44.1377 8.57446 43.7231 8.93477C43.3076 9.2958 43.0877 9.79119 43.0877 10.3181H43.4932ZM45.4808 8.76277C46.4198 8.76277 47.3601 9.15852 48.1914 9.72214L48.419 9.38653C47.5499 8.79734 46.5304 8.3573 45.4808 8.3573V8.76277ZM48.5079 9.55434V8.21419H48.1025V9.55434H48.5079ZM48.3052 8.41693H49.2707V8.01145H48.3052V8.41693ZM49.0679 8.21419V11.37H49.4734V8.21419H49.0679ZM49.2707 11.1673H43.9966V11.5728H49.2707V11.1673ZM44.3568 10.6649H47.9305V10.2594H44.3568V10.6649ZM48.0481 10.297C46.9746 9.53236 46.0983 9.26514 45.4808 9.26514V9.67061C45.9873 9.67061 46.7825 9.89333 47.8129 10.6273L48.0481 10.297ZM45.4808 9.26514C45.1117 9.26514 44.7738 9.32767 44.527 9.526C44.2705 9.7322 44.1541 10.0499 44.1541 10.4622H44.5595C44.5595 10.1251 44.6521 9.94567 44.781 9.84205C44.9197 9.73057 45.1438 9.67061 45.4808 9.67061V9.26514ZM53.3247 13.7621H53.122V13.8398L53.1739 13.8976L53.3247 13.7621ZM54.7225 15.3184H54.9252V15.2407L54.8733 15.1829L54.7225 15.3184ZM53.3968 18.0707L53.4132 18.2728L53.5995 18.2576V18.0707H53.3968ZM53.3968 15.549H53.5995V15.4766L53.5537 15.4206L53.3968 15.549ZM53.3247 12.7822V12.5795H53.2242L53.1633 12.6595L53.3247 12.7822ZM55.0683 12.7822H55.2711V12.5795H55.0683V12.7822ZM55.0683 13.7477V13.9504H55.2711V13.7477H55.0683ZM53.3247 13.7477V13.545H53.122V13.7477H53.3247ZM53.3968 20.2611V20.4638H53.5995V20.2611H53.3968ZM53.3968 19.0506H53.5995V18.8479H53.3968V19.0506ZM53.1739 13.8976L54.5717 15.4539L54.8733 15.1829L53.4755 13.6266L53.1739 13.8976ZM54.5198 15.3184V20.2323H54.9252V15.3184H54.5198ZM54.5198 20.2323C54.5198 20.553 54.4383 20.7385 54.3237 20.847C54.2071 20.9574 54.0186 21.0238 53.7282 21.0238V21.4293C54.0719 21.4293 54.3805 21.3516 54.6025 21.1414C54.8266 20.9292 54.9252 20.6176 54.9252 20.2323H54.5198ZM53.7282 21.0238H53.4688V21.4293H53.7282V21.0238ZM53.4688 21.0238C53.0911 21.0238 52.7193 20.9541 52.4465 20.759C52.1862 20.5729 51.9856 20.2506 51.9856 19.6703H51.5801C51.5801 20.3581 51.8262 20.8139 52.2107 21.0889C52.5828 21.3549 53.054 21.4293 53.4688 21.4293V21.0238ZM51.9856 19.6703C51.9856 19.1631 52.1841 18.836 52.4511 18.624C52.7259 18.4057 53.087 18.2994 53.4132 18.2728L53.3803 17.8687C53.0004 17.8997 52.5545 18.024 52.1989 18.3065C51.8354 18.5952 51.5801 19.039 51.5801 19.6703H51.9856ZM53.5995 18.0707V15.549H53.194V18.0707H53.5995ZM53.5537 15.4206C53.0969 14.8623 52.854 14.5665 52.7236 14.3856C52.6585 14.2954 52.6303 14.2456 52.6171 14.2141C52.6072 14.1906 52.6052 14.1767 52.6052 14.1512H52.1997C52.1997 14.2193 52.2085 14.2883 52.2432 14.371C52.2746 14.4459 52.3247 14.5257 52.3947 14.6228C52.5345 14.8166 52.7888 15.1261 53.2398 15.6773L53.5537 15.4206ZM52.6052 14.1512C52.6052 14.1419 52.6036 14.1031 52.739 13.9055C52.8687 13.7163 53.095 13.4191 53.4861 12.9049L53.1633 12.6595C52.7763 13.1684 52.5415 13.4765 52.4045 13.6763C52.2733 13.8678 52.1997 14.002 52.1997 14.1512H52.6052ZM53.3247 12.9849H55.0683V12.5795H53.3247V12.9849ZM54.8656 12.7822V13.7477H55.2711V12.7822H54.8656ZM55.0683 13.545H53.3247V13.9504H55.0683V13.545ZM53.122 13.7477V13.7621H53.5274V13.7477H53.122ZM53.5995 20.2611V19.0506H53.194V20.2611H53.5995ZM53.3968 18.8479C53.2294 18.8479 53.0217 18.8911 52.8501 19.0168C52.6692 19.1492 52.5456 19.3617 52.5456 19.6559H52.951C52.951 19.4889 53.0147 19.3988 53.0896 19.3439C53.1738 19.2822 53.2903 19.2534 53.3968 19.2534V18.8479ZM52.5456 19.6559C52.5456 19.944 52.6572 20.1578 52.837 20.2933C53.0076 20.4219 53.2178 20.4638 53.3968 20.4638V20.0583C53.2731 20.0583 53.159 20.0282 53.0811 19.9695C53.0123 19.9176 52.951 19.8289 52.951 19.6559H52.5456ZM16.4285 33.4538H16.2257V33.6565H16.4285V33.4538ZM16.4285 31.4364V31.2336H16.2257V31.4364H16.4285ZM17.7398 31.4364H17.9425V31.2336H17.7398V31.4364ZM17.7398 32.4883H17.5371V32.691H17.7398V32.4883ZM21.4288 30.5141V30.3114H21.2261V30.5141H21.4288ZM22.7545 30.5141H22.9573V30.3114H22.7545V30.5141ZM16.4285 40.2266H16.2257V40.4293H16.4285V40.2266ZM16.4285 34.4337V34.2309H16.2257V34.4337H16.4285ZM17.7542 34.4337H17.9569V34.2309H17.7542V34.4337ZM17.7542 39.0593H17.5515V39.5193L17.891 39.209L17.7542 39.0593ZM19.5987 37.3734L19.7354 37.2237L19.5987 37.0987L19.4619 37.2237L19.5987 37.3734ZM21.4288 39.0449L21.2921 39.1946L21.6315 39.5047V39.0449H21.4288ZM21.4288 34.4337V34.2309H21.2261V34.4337H21.4288ZM22.7545 34.4337H22.9573V34.2309H22.7545V34.4337ZM22.7545 40.2266V40.4293H22.9573V40.2266H22.7545ZM21.2271 40.2266L21.0905 40.3764L21.1485 40.4293H21.2271V40.2266ZM19.5987 38.7423L19.7353 38.5925L19.5993 38.4685L19.4628 38.5919L19.5987 38.7423ZM17.9559 40.2266V40.4293H18.034L18.0919 40.377L17.9559 40.2266ZM16.6312 33.4538V31.4364H16.2257V33.4538H16.6312ZM16.4285 31.6391H17.7398V31.2336H16.4285V31.6391ZM17.5371 31.4364V32.4883H17.9425V31.4364H17.5371ZM17.7398 32.691H20.6506V32.2856H17.7398V32.691ZM20.6506 32.691C20.9183 32.691 21.1485 32.6624 21.3187 32.5843C21.4066 32.5441 21.4869 32.4868 21.545 32.4058C21.6045 32.3227 21.6315 32.2273 21.6315 32.1281H21.2261C21.2261 32.1513 21.2207 32.1622 21.2154 32.1696C21.2086 32.1791 21.1916 32.1966 21.1498 32.2157C21.0606 32.2566 20.9017 32.2856 20.6506 32.2856V32.691ZM21.6315 32.1281V30.5141H21.2261V32.1281H21.6315ZM21.4288 30.7169H22.7545V30.3114H21.4288V30.7169ZM22.5518 30.5141V32.1281H22.9573V30.5141H22.5518ZM22.5518 32.1281C22.5518 32.5529 22.4655 32.8051 22.2612 32.967C22.0412 33.1413 21.6378 33.2511 20.8956 33.2511V33.6565C21.6521 33.6565 22.1781 33.5501 22.513 33.2849C22.8634 33.0073 22.9573 32.5967 22.9573 32.1281H22.5518ZM20.8956 33.2511H16.4285V33.6565H20.8956V33.2511ZM16.6312 40.2266V34.4337H16.2257V40.2266H16.6312ZM16.4285 34.6364H17.7542V34.2309H16.4285V34.6364ZM17.5515 34.4337V39.0593H17.9569V34.4337H17.5515ZM17.891 39.209L19.7355 37.523L19.4619 37.2237L17.6174 38.9097L17.891 39.209ZM19.462 37.523L21.2921 39.1946L21.5655 38.8952L19.7354 37.2237L19.462 37.523ZM21.6315 39.0449V34.4337H21.2261V39.0449H21.6315ZM21.4288 34.6364H22.7545V34.2309H21.4288V34.6364ZM22.5518 34.4337V40.2266H22.9573V34.4337H22.5518ZM22.7545 40.0238H21.2271V40.4293H22.7545V40.0238ZM21.3636 40.0767L19.7353 38.5925L19.4621 38.8921L21.0905 40.3764L21.3636 40.0767ZM19.4628 38.5919L17.82 40.0761L18.0919 40.377L19.7346 38.8927L19.4628 38.5919ZM17.9559 40.0238H16.4285V40.4293H17.9559V40.0238ZM16.8185 29.37H16.6158V29.5728H16.8185V29.37ZM21.4009 25.8539V25.6512H21.1982V25.8539H21.4009ZM22.4529 25.8539H22.6556V25.6512H22.4529V25.8539ZM17.8848 28.563H17.6821V28.8698L17.9643 28.7495L17.8848 28.563ZM19.6429 27.8137L19.7237 27.6278L19.6437 27.593L19.5634 27.6272L19.6429 27.8137ZM21.4009 28.5775L21.3201 28.7634L21.6037 28.8866V28.5775H21.4009ZM21.4009 27.8858V27.683H21.1982V27.8858H21.4009ZM22.4529 27.8858H22.6556V27.683H22.4529V27.8858ZM22.4529 29.37V29.5728H22.6556V29.37H22.4529ZM21.3289 29.37L21.2484 29.5561L21.2869 29.5728H21.3289V29.37ZM19.6285 28.6351L19.7089 28.449L19.6263 28.4133L19.5445 28.4506L19.6285 28.6351ZM18.0145 29.37V29.5728H18.0585L18.0986 29.5545L18.0145 29.37ZM17.0212 29.37V27.9578H16.6158V29.37H17.0212ZM17.0212 27.9578C17.0212 27.5265 17.1531 27.2352 17.3874 27.0454C17.6298 26.8491 18.0153 26.734 18.5765 26.734V26.3285C17.9706 26.3285 17.477 26.4511 17.1322 26.7303C16.7793 27.0161 16.6158 27.438 16.6158 27.9578H17.0212ZM18.5765 26.734H19.542V26.3285H18.5765V26.734ZM19.542 26.734C20.1687 26.734 20.6621 26.6764 21.0059 26.5505C21.3509 26.4241 21.6037 26.2018 21.6037 25.8539H21.1982C21.1982 25.9528 21.1412 26.0691 20.8665 26.1697C20.5906 26.2708 20.1546 26.3285 19.542 26.3285V26.734ZM21.4009 26.0567H22.4529V25.6512H21.4009V26.0567ZM22.2501 25.8539V26.0557H22.6556V25.8539H22.2501ZM22.2501 26.0557C22.2501 26.5702 21.6894 27.1499 20.7813 27.1499V27.5553C21.8329 27.5553 22.6556 26.8669 22.6556 26.0557H22.2501ZM20.7813 27.1499H18.3316V27.5553H20.7813V27.1499ZM18.3316 27.1499C18.1139 27.1499 17.9307 27.2124 17.8125 27.3657C17.7035 27.5071 17.6821 27.6868 17.6821 27.8425H18.0876C18.0876 27.7101 18.1094 27.6448 18.1337 27.6133C18.1488 27.5937 18.189 27.5553 18.3316 27.5553V27.1499ZM17.6821 27.8425V28.563H18.0876V27.8425H17.6821ZM17.9643 28.7495L19.7224 28.0002L19.5634 27.6272L17.8054 28.3765L17.9643 28.7495ZM19.5621 27.9997L21.3201 28.7634L21.4817 28.3915L19.7237 27.6278L19.5621 27.9997ZM21.6037 28.5775V27.8858H21.1982V28.5775H21.6037ZM21.4009 28.0885H22.4529V27.683H21.4009V28.0885ZM22.2501 27.8858V29.37H22.6556V27.8858H22.2501ZM22.4529 29.1673H21.3289V29.5728H22.4529V29.1673ZM21.4093 29.1839L19.7089 28.449L19.548 28.8212L21.2484 29.5561L21.4093 29.1839ZM19.5445 28.4506L17.9305 29.1855L18.0986 29.5545L19.7125 28.8196L19.5445 28.4506ZM18.0145 29.1673H16.8185V29.5728H18.0145V29.1673ZM26.5021 32.7621H26.2994V32.8534L26.3677 32.9139L26.5021 32.7621ZM28.2601 34.3184H28.4629V34.2271L28.3945 34.1666L28.2601 34.3184ZM26.9344 37.0707L26.9509 37.2728L27.1371 37.2576V37.0707H26.9344ZM26.9344 34.549H27.1371V34.4621L27.0742 34.4022L26.9344 34.549ZM26.5021 31.7822V31.5795H26.4019L26.3411 31.6591L26.5021 31.7822ZM27.7126 30.5141V30.3114H27.5098V30.5141H27.7126ZM29.0383 30.5141H29.241V30.3114H29.0383V30.5141ZM26.5021 32.7477V32.545H26.2994V32.7477H26.5021ZM26.9344 39.2611V39.4638H27.1371V39.2611H26.9344ZM26.9344 38.0506H27.1371V37.8479H26.9344V38.0506ZM26.3677 32.9139L28.1258 34.4702L28.3945 34.1666L26.6365 32.6103L26.3677 32.9139ZM28.0574 34.3184V39.2323H28.4629V34.3184H28.0574ZM28.0574 39.2323C28.0574 39.553 27.9759 39.7385 27.8614 39.847C27.7447 39.9574 27.5562 40.0238 27.2658 40.0238V40.4293C27.6095 40.4293 27.9182 40.3516 28.1402 40.1414C28.3643 39.9292 28.4629 39.6176 28.4629 39.2323H28.0574ZM27.2658 40.0238H27.0065V40.4293H27.2658V40.0238ZM27.0065 40.0238C26.6287 40.0238 26.2569 39.9541 25.9842 39.759C25.7238 39.5729 25.5232 39.2506 25.5232 38.6703H25.1177C25.1177 39.3581 25.3638 39.8139 25.7483 40.0889C26.1204 40.3549 26.5916 40.4293 27.0065 40.4293V40.0238ZM25.5232 38.6703C25.5232 38.1631 25.7218 37.836 25.9888 37.624C26.2636 37.4057 26.6247 37.2994 26.9509 37.2728L26.9179 36.8687C26.538 36.8997 26.0922 37.024 25.7366 37.3065C25.3731 37.5952 25.1177 38.039 25.1177 38.6703H25.5232ZM27.1371 37.0707V34.549H26.7317V37.0707H27.1371ZM27.0742 34.4022C26.4662 33.8231 26.141 33.5118 25.9664 33.3233C25.8785 33.2283 25.84 33.1761 25.8225 33.145C25.8109 33.1242 25.8114 33.119 25.8114 33.1079H25.4059C25.4059 33.1833 25.4208 33.2574 25.4687 33.3429C25.5107 33.418 25.5767 33.4991 25.6689 33.5987C25.8545 33.7992 26.1922 34.122 26.7946 34.6958L27.0742 34.4022ZM25.8114 33.1079C25.8114 33.0983 25.8103 33.0592 25.9416 32.8677C26.0675 32.6842 26.2865 32.398 26.6632 31.9054L26.3411 31.6591C25.9684 32.1464 25.7407 32.4438 25.6072 32.6384C25.4791 32.8253 25.4059 32.9591 25.4059 33.1079H25.8114ZM26.5021 31.9849H27.2082V31.5795H26.5021V31.9849ZM27.2082 31.9849C27.3967 31.9849 27.5727 31.9548 27.7059 31.8622C27.8535 31.7594 27.9153 31.6043 27.9153 31.4364H27.5098C27.5098 31.499 27.4923 31.5168 27.4743 31.5293C27.4418 31.552 27.3655 31.5795 27.2082 31.5795V31.9849ZM27.9153 31.4364V30.5141H27.5098V31.4364H27.9153ZM27.7126 30.7169H29.0383V30.3114H27.7126V30.7169ZM28.8356 30.5141V31.4364H29.241V30.5141H28.8356ZM28.8356 31.4364C28.8356 31.8237 28.7059 32.084 28.4646 32.2568C28.2104 32.4388 27.8031 32.545 27.2082 32.545V32.9504C27.8382 32.9504 28.346 32.8404 28.7006 32.5865C29.0681 32.3234 29.241 31.9281 29.241 31.4364H28.8356ZM27.2082 32.545H26.5021V32.9504H27.2082V32.545ZM26.2994 32.7477V32.7621H26.7048V32.7477H26.2994ZM27.1371 39.2611V38.0506H26.7317V39.2611H27.1371ZM26.9344 37.8479C26.7671 37.8479 26.5593 37.8911 26.3877 38.0168C26.2069 38.1492 26.0832 38.3617 26.0832 38.6559H26.4887C26.4887 38.4889 26.5524 38.3988 26.6273 38.3439C26.7115 38.2822 26.8279 38.2534 26.9344 38.2534V37.8479ZM26.0832 38.6559C26.0832 38.944 26.1949 39.1578 26.3747 39.2933C26.5453 39.4219 26.7555 39.4638 26.9344 39.4638V39.0583C26.8107 39.0583 26.6967 39.0282 26.6187 38.9695C26.5499 38.9176 26.4887 38.8289 26.4887 38.6559H26.0832ZM30.3789 28.3181H30.5817V28.2359L30.5245 28.177L30.3789 28.3181ZM30.3789 29.37V29.5728H30.5817V29.37H30.3789ZM26.1712 28.4622H25.9684V28.6649H26.1712V28.4622ZM29.1829 28.4622V28.6649H29.7539L29.3107 28.3048L29.1829 28.4622ZM25.8542 29.1673C25.7231 29.1673 25.6346 29.1177 25.567 29.0048C25.4902 28.8763 25.4373 28.6567 25.4373 28.3181H25.0318C25.0318 28.6855 25.0869 28.9919 25.219 29.2129C25.3604 29.4494 25.5818 29.5728 25.8542 29.5728V29.1673ZM25.4373 28.3181C25.4373 27.9001 25.5911 27.514 25.8774 27.2323C26.1628 26.9517 26.5923 26.7628 27.1655 26.7628V26.3573C26.4994 26.3573 25.9634 26.579 25.5931 26.9433C25.2238 27.3065 25.0318 27.7994 25.0318 28.3181H25.4373ZM27.1655 26.7628C27.6643 26.7628 28.205 26.9508 28.7403 27.2629C29.274 27.5741 29.7892 28.001 30.2334 28.4592L30.5245 28.177C30.0608 27.6985 29.5169 27.2464 28.9446 26.9127C28.374 26.58 27.7618 26.3573 27.1655 26.3573V26.7628ZM30.1762 28.3181V29.37H30.5817V28.3181H30.1762ZM30.3789 29.1673H25.8542V29.5728H30.3789V29.1673ZM26.1712 28.6649H29.1829V28.2594H26.1712V28.6649ZM29.3107 28.3048C28.3752 27.5447 27.7248 27.2795 27.1655 27.2795V27.685C27.5861 27.685 28.146 27.881 29.0551 28.6195L29.3107 28.3048ZM27.1655 27.2795C26.8619 27.2795 26.557 27.341 26.3264 27.5366C26.0893 27.7378 25.9684 28.0481 25.9684 28.4622H26.3739C26.3739 28.1269 26.4692 27.9473 26.5887 27.8458C26.7148 27.7389 26.907 27.685 27.1655 27.685V27.2795ZM32.9296 37.0707H32.7269V37.2735H32.9296V37.0707ZM32.5693 34.1167L32.6678 34.2939L32.8764 34.178L32.7283 33.9908L32.5693 34.1167ZM32.8719 31.7822V31.5795H32.7714L32.7106 31.6595L32.8719 31.7822ZM36.878 31.7822H37.0807V31.5795H36.878V31.7822ZM36.878 32.7477V32.9504H37.0807V32.7477H36.878ZM32.8719 32.7477V32.545H32.6692V32.7477H32.8719ZM32.8719 32.7621H32.6692V32.839L32.7202 32.8965L32.8719 32.7621ZM33.7654 33.7708L33.6136 33.9052L33.6839 33.9845L33.7891 33.9722L33.7654 33.7708ZM40.8264 34.549H41.0291V34.4766L40.9833 34.4206L40.8264 34.549ZM40.7543 31.7822V31.5795H40.6538L40.5929 31.6595L40.7543 31.7822ZM42.4979 31.7822H42.7007V31.5795H42.4979V31.7822ZM42.4979 32.7477V32.9504H42.7007V32.7477H42.4979ZM40.7543 32.7477V32.545H40.5516V32.7477H40.7543ZM40.7543 32.7621H40.5516V32.8398L40.6035 32.8976L40.7543 32.7621ZM42.1521 34.3184H42.3548V34.2407L42.3029 34.1829L42.1521 34.3184ZM32.9296 39.2611H32.7269V39.4638H32.9296V39.2611ZM32.9296 38.0506L32.9363 37.848L32.7269 37.841V38.0506H32.9296ZM34.5868 34.5047C34.0113 34.5047 33.5437 34.6159 33.217 34.8722C32.8807 35.1359 32.7269 35.5263 32.7269 36.0044H33.1323C33.1323 35.6178 33.2523 35.3598 33.4672 35.1912C33.6916 35.0152 34.0527 34.9102 34.5868 34.9102V34.5047ZM32.7269 36.0044V37.0707H33.1323V36.0044H32.7269ZM32.9296 37.2735C33.3359 37.2735 33.6627 37.38 33.8862 37.5842C34.1065 37.7856 34.2543 38.1074 34.2543 38.5982H34.6598C34.6598 38.0227 34.4834 37.5808 34.1597 37.2849C33.8392 36.992 33.4023 36.868 32.9296 36.868V37.2735ZM34.2543 38.5982C34.2543 39.4894 33.6736 40.0238 32.9584 40.0238V40.4293C33.9148 40.4293 34.6598 39.6957 34.6598 38.5982H34.2543ZM32.9584 40.0238H32.5549V40.4293H32.9584V40.0238ZM32.5549 40.0238C32.3308 40.0238 32.1428 39.9615 32.0146 39.8547C31.8914 39.7519 31.8066 39.5946 31.8066 39.362H31.4011C31.4011 39.7057 31.5325 39.9807 31.7551 40.1662C31.9728 40.3476 32.2602 40.4293 32.5549 40.4293V40.0238ZM31.8066 39.362V36.0044H31.4011V39.362H31.8066ZM31.8066 36.0044C31.8066 35.5657 31.8821 35.2179 32.0237 34.9425C32.1641 34.6695 32.3755 34.4563 32.6678 34.2939L32.4709 33.9394C32.1147 34.1373 31.8433 34.4068 31.6631 34.757C31.4842 35.1049 31.4011 35.5208 31.4011 36.0044H31.8066ZM32.7283 33.9908C32.4507 33.6401 32.3037 33.4553 32.2236 33.3334C32.1849 33.2746 32.169 33.241 32.1616 33.2188C32.1552 33.2002 32.1524 33.1828 32.1524 33.1512H31.747C31.747 33.2132 31.7532 33.2769 31.7775 33.3488C31.8006 33.4171 31.837 33.4835 31.8848 33.5562C31.9776 33.6973 32.1404 33.9015 32.4104 34.2425L32.7283 33.9908ZM32.1524 33.1512C32.1524 33.1419 32.1509 33.1031 32.2863 32.9055C32.4159 32.7163 32.6422 32.4191 33.0333 31.9049L32.7106 31.6595C32.3235 32.1684 32.0887 32.4765 31.9518 32.6763C31.8206 32.8678 31.747 33.002 31.747 33.1512H32.1524ZM32.8719 31.9849H36.878V31.5795H32.8719V31.9849ZM36.6752 31.7822V32.7477H37.0807V31.7822H36.6752ZM36.878 32.545H32.8719V32.9504H36.878V32.545ZM32.6692 32.7477V32.7621H33.0747V32.7477H32.6692ZM32.7202 32.8965L33.6136 33.9052L33.9171 33.6364L33.0237 32.6277L32.7202 32.8965ZM33.7891 33.9722C34.0247 33.9444 34.2904 33.9303 34.5868 33.9303V33.5248C34.2779 33.5248 33.996 33.5395 33.7417 33.5695L33.7891 33.9722ZM34.5868 33.9303C35.5607 33.9303 36.2583 34.1183 36.7086 34.4601C37.1485 34.794 37.3813 35.2971 37.3813 36.0044H37.7868C37.7868 35.1986 37.5152 34.5633 36.9537 34.1371C36.4025 33.7187 35.6014 33.5248 34.5868 33.5248V33.9303ZM37.3813 36.0044V37.9498H37.7868V36.0044H37.3813ZM37.3813 37.9498C37.3813 38.4258 37.5301 38.8186 37.8573 39.0865C38.1769 39.3482 38.6347 39.4638 39.198 39.4638V39.0583C38.6806 39.0583 38.3314 38.9506 38.1142 38.7728C37.9046 38.6012 37.7868 38.3384 37.7868 37.9498H37.3813ZM39.198 39.4638C39.768 39.4638 40.2293 39.3484 40.5508 39.0869C40.8802 38.819 41.0291 38.4258 41.0291 37.9498H40.6236C40.6236 38.3383 40.5059 38.6008 40.2949 38.7724C40.076 38.9504 39.7232 39.0583 39.198 39.0583V39.4638ZM41.0291 37.9498V34.549H40.6236V37.9498H41.0291ZM40.9833 34.4206C40.5265 33.8623 40.2836 33.5665 40.1532 33.3856C40.0881 33.2954 40.0599 33.2456 40.0467 33.2141C40.0368 33.1906 40.0348 33.1767 40.0348 33.1512H39.6293C39.6293 33.2193 39.6381 33.2883 39.6728 33.371C39.7042 33.4459 39.7543 33.5257 39.8243 33.6228C39.9641 33.8166 40.2184 34.1261 40.6694 34.6773L40.9833 34.4206ZM40.0348 33.1512C40.0348 33.1419 40.0332 33.1031 40.1686 32.9055C40.2983 32.7163 40.5246 32.4191 40.9157 31.9049L40.5929 31.6595C40.2059 32.1684 39.9711 32.4765 39.8341 32.6763C39.7029 32.8678 39.6293 33.002 39.6293 33.1512H40.0348ZM40.7543 31.9849H42.4979V31.5795H40.7543V31.9849ZM42.2952 31.7822V32.7477H42.7007V31.7822H42.2952ZM42.4979 32.545H40.7543V32.9504H42.4979V32.545ZM40.5516 32.7477V32.7621H40.957V32.7477H40.5516ZM40.6035 32.8976L42.0013 34.4539L42.3029 34.1829L40.9051 32.6266L40.6035 32.8976ZM41.9494 34.3184V37.9498H42.3548V34.3184H41.9494ZM41.9494 37.9498C41.9494 38.659 41.7224 39.162 41.2914 39.4951C40.8505 39.8359 40.1646 40.0238 39.198 40.0238V40.4293C40.2056 40.4293 40.9967 40.2354 41.5393 39.816C42.0919 39.3889 42.3548 38.7536 42.3548 37.9498H41.9494ZM39.198 40.0238C38.2389 40.0238 37.5566 39.836 37.1175 39.4954C36.6881 39.1623 36.4611 38.6591 36.4611 37.9498H36.0556C36.0556 38.7535 36.3185 39.3887 36.869 39.8158C37.4098 40.2353 38.1973 40.4293 39.198 40.4293V40.0238ZM36.4611 37.9498V36.0044H36.0556V37.9498H36.4611ZM36.4611 36.0044C36.4611 35.5246 36.3025 35.1344 35.9627 34.8714C35.6328 34.6159 35.1624 34.5047 34.5868 34.5047V34.9102C35.1207 34.9102 35.4861 35.0152 35.7145 35.192C35.9332 35.3613 36.0556 35.6196 36.0556 36.0044H36.4611ZM32.9296 39.4638C33.1838 39.4638 33.4032 39.3909 33.5568 39.2267C33.7081 39.0649 33.7664 38.8455 33.7664 38.6126H33.3609C33.3609 38.7832 33.3183 38.8881 33.2607 38.9497C33.2053 39.0088 33.1077 39.0583 32.9296 39.0583V39.4638ZM33.7664 38.6126C33.7664 38.3994 33.7029 38.2015 33.5455 38.0577C33.3923 37.9177 33.1795 37.8561 32.9363 37.848L32.9228 38.2533C33.112 38.2596 33.2162 38.306 33.272 38.357C33.3235 38.4041 33.3609 38.48 33.3609 38.6126H33.7664ZM32.7269 38.0506V39.2611H33.1323V38.0506H32.7269ZM39.116 43.7426H38.9132V43.9454H39.116V43.7426ZM39.116 41.5523H39.3187V41.3496H39.116V41.5523ZM38.3667 41.5523H38.1639V41.755H38.3667V41.5523ZM38.3667 40.7165V40.5138H38.1639V40.7165H38.3667ZM40.4417 40.7165H40.6445V40.5138H40.4417V40.7165ZM40.4417 43.7426V43.9454H40.6445V43.7426H40.4417ZM39.3187 43.7426V41.5523H38.9132V43.7426H39.3187ZM39.116 41.3496H38.3667V41.755H39.116V41.3496ZM38.5694 41.5523V40.7165H38.1639V41.5523H38.5694ZM38.3667 40.9192H40.4417V40.5138H38.3667V40.9192ZM40.239 40.7165V43.7426H40.6445V40.7165H40.239ZM40.4417 43.5399H39.116V43.9454H40.4417V43.5399ZM45.5904 36.8546V36.6518H45.3876V36.8546H45.5904ZM46.9161 36.8546H47.1188V36.6518H46.9161V36.8546ZM49.8125 36.8402H50.0153V36.665L49.842 36.6396L49.8125 36.8402ZM51.5706 34.2608V34.4635H51.7733V34.2608H51.5706ZM50.2448 34.2608H50.0421V34.4635H50.2448V34.2608ZM49.8702 35.8603L49.8419 36.061L50.0131 36.0852L50.0639 35.9199L49.8702 35.8603ZM51.1383 36.9122L51.063 36.724L50.9355 36.775V36.9122H51.1383ZM48.3571 40.0238C47.4578 40.0238 46.8208 39.8369 46.411 39.4991C46.0087 39.1675 45.7931 38.6633 45.7931 37.9498H45.3876C45.3876 38.7493 45.6332 39.3835 46.1531 39.812C46.6656 40.2344 47.4119 40.4293 48.3571 40.4293V40.0238ZM45.7931 37.9498V36.8546H45.3876V37.9498H45.7931ZM45.5904 37.0573H46.9161V36.6518H45.5904V37.0573ZM46.7134 36.8546V37.9498H47.1188V36.8546H46.7134ZM46.7134 37.9498C46.7134 38.4202 46.8477 38.8103 47.1435 39.0796C47.4358 39.3458 47.8533 39.4638 48.3571 39.4638V39.0583C47.9099 39.0583 47.6068 38.953 47.4164 38.7797C47.2295 38.6095 47.1188 38.3439 47.1188 37.9498H46.7134ZM48.3571 39.4638C48.8675 39.4638 49.2884 39.3461 49.5828 39.0801C49.8809 38.8107 50.0153 38.4202 50.0153 37.9498H49.6098C49.6098 38.3439 49.4992 38.6091 49.3109 38.7792C49.119 38.9527 48.8123 39.0583 48.3571 39.0583V39.4638ZM50.0153 37.9498V36.8402H49.6098V37.9498H50.0153ZM49.842 36.6396C48.2234 36.4022 47.1161 36.1072 46.4162 35.6914C46.0702 35.4858 45.831 35.2548 45.6771 34.9928C45.5236 34.7314 45.4473 34.426 45.4473 34.059H45.0418C45.0418 34.4846 45.1311 34.8637 45.3275 35.1981C45.5235 35.5319 45.8184 35.8079 46.2091 36.04C46.9827 36.4996 48.1594 36.8026 49.7831 37.0408L49.842 36.6396ZM45.4473 34.059C45.4473 33.4556 45.6363 32.9507 46.0755 32.5911C46.5218 32.2256 47.2568 31.9849 48.4003 31.9849V31.5795C47.2094 31.5795 46.3665 31.8287 45.8186 32.2774C45.2634 32.732 45.0418 33.3655 45.0418 34.059H45.4473ZM48.4003 31.9849C49.5489 31.9849 50.2903 32.2355 50.7405 32.5915C51.1847 32.9426 51.3678 33.4138 51.3678 33.9149H51.7733C51.7733 33.3064 51.5458 32.7112 50.992 32.2734C50.4444 31.8404 49.6007 31.5795 48.4003 31.5795V31.9849ZM51.3678 33.9149V34.2608H51.7733V33.9149H51.3678ZM51.5706 34.058H50.2448V34.4635H51.5706V34.058ZM50.4476 34.2608V33.9149H50.0421V34.2608H50.4476ZM50.4476 33.9149C50.4476 33.5228 50.3062 33.164 49.9538 32.9123C49.6139 32.6696 49.1029 32.545 48.4003 32.545V32.9504C49.0667 32.9504 49.478 33.0708 49.7181 33.2423C49.9458 33.4049 50.0421 33.6297 50.0421 33.9149H50.4476ZM48.4003 32.545C47.7091 32.545 47.1933 32.6573 46.8482 32.9172C46.4892 33.1875 46.3531 33.5867 46.3531 34.059H46.7586C46.7586 33.6667 46.8675 33.4102 47.0921 33.2411C47.3306 33.0614 47.7371 32.9504 48.4003 32.9504V32.545ZM46.3531 34.059C46.3531 34.3578 46.4213 34.6235 46.5741 34.8553C46.7258 35.0854 46.9508 35.2668 47.2393 35.4155C47.8084 35.7086 48.6687 35.8955 49.8419 36.061L49.8985 35.6595C48.7228 35.4936 47.926 35.3131 47.425 35.055C47.1786 34.9281 47.0154 34.788 46.9127 34.6321C46.8111 34.478 46.7586 34.2934 46.7586 34.059H46.3531ZM50.0639 35.9199C50.1094 35.7721 50.1883 35.6674 50.2882 35.5983C50.3892 35.5284 50.5236 35.4866 50.6916 35.4866V35.0811C50.456 35.0811 50.2374 35.1403 50.0574 35.2649C49.8763 35.3903 49.7462 35.5738 49.6764 35.8007L50.0639 35.9199ZM50.6916 35.4866C51.1105 35.4866 51.3678 35.8115 51.3678 36.1053H51.7733C51.7733 35.592 51.3389 35.0811 50.6916 35.0811V35.4866ZM51.3678 36.1053C51.3678 36.4629 51.1831 36.676 51.063 36.724L51.2136 37.1005C51.5258 36.9756 51.7733 36.5834 51.7733 36.1053H51.3678ZM50.9355 36.9122V37.9498H51.341V36.9122H50.9355ZM50.9355 37.9498C50.9355 38.6633 50.72 39.1673 50.3161 39.4989C49.9046 39.8367 49.2639 40.0238 48.3571 40.0238V40.4293C49.3092 40.4293 50.0591 40.2345 50.5734 39.8123C51.0954 39.3837 51.341 38.7493 51.341 37.9498H50.9355ZM45.8446 41.7684L45.8036 41.5699L45.6419 41.6033V41.7684H45.8446ZM50.3118 40.5724V40.3697H50.2251L50.1653 40.4323L50.3118 40.5724ZM51.479 40.5724H51.6817V40.3697H51.479V40.5724ZM49.0004 42.878L49.1183 42.7131L48.8877 42.5483L48.8063 42.8198L49.0004 42.878ZM50.2974 41.5523H50.5001V41.297L50.2514 41.3548L50.2974 41.5523ZM49.0581 41.8405L49.0122 41.643L48.8553 41.6795V41.8405H49.0581ZM48.2655 42.0278H48.4683V41.7754L48.2218 41.8299L48.2655 42.0278ZM47.0263 42.3016L46.9825 42.1037L46.8235 42.1388V42.3016H47.0263ZM47.3577 43.5399C46.9386 43.5399 46.6057 43.4601 46.3837 43.3126C46.1734 43.1729 46.0474 42.9633 46.0474 42.6475H45.6419C45.6419 43.0954 45.8329 43.4334 46.1593 43.6503C46.4741 43.8595 46.8977 43.9454 47.3577 43.9454V43.5399ZM46.0474 42.6475V41.7684H45.6419V42.6475H46.0474ZM45.8856 41.967C47.2456 41.6864 48.2884 41.4692 49.0306 41.2805C49.4016 41.1861 49.7034 41.0974 49.9349 41.0096C50.159 40.9247 50.3453 40.8307 50.4583 40.7125L50.1653 40.4323C50.1197 40.4799 50.0088 40.548 49.7911 40.6305C49.5809 40.7102 49.2964 40.7945 48.9307 40.8875C48.1994 41.0734 47.1671 41.2885 45.8036 41.5699L45.8856 41.967ZM50.3118 40.7751H51.479V40.3697H50.3118V40.7751ZM51.2763 40.5724V41.6099H51.6817V40.5724H51.2763ZM51.2763 41.6099C51.2763 42.1884 51.1063 42.5172 50.8859 42.7061C50.6596 42.9001 50.344 42.9779 49.9947 42.9779V43.3834C50.3948 43.3834 50.8214 43.2955 51.1498 43.0139C51.4842 42.7273 51.6817 42.2707 51.6817 41.6099H51.2763ZM49.9947 42.9779C49.5556 42.9779 49.2933 42.838 49.1183 42.7131L48.8826 43.043C49.1111 43.2062 49.454 43.3834 49.9947 43.3834V42.9779ZM48.8063 42.8198C48.7105 43.139 48.3379 43.5399 47.3577 43.5399V43.9454C48.4525 43.9454 49.031 43.4817 49.1946 42.9363L48.8063 42.8198ZM50.5001 41.7973V41.5523H50.0946V41.7973H50.5001ZM50.2514 41.3548L49.0122 41.643L49.104 42.038L50.3433 41.7498L50.2514 41.3548ZM48.8553 41.8405V42.0711H49.2608V41.8405H48.8553ZM48.8553 42.0711C48.8553 42.2607 48.9638 42.4012 49.1141 42.4832C49.255 42.5601 49.4375 42.5908 49.6345 42.5908V42.1853C49.4712 42.1853 49.3655 42.1585 49.3083 42.1272C49.2605 42.1012 49.2608 42.0832 49.2608 42.0711H48.8553ZM49.6345 42.5908C49.8884 42.5908 50.1084 42.5184 50.2665 42.3704C50.4258 42.2214 50.5001 42.0165 50.5001 41.7973H50.0946C50.0946 41.9239 50.0536 42.0144 49.9895 42.0743C49.9243 42.1353 49.8129 42.1853 49.6345 42.1853V42.5908ZM47.5306 43.2105C48.0496 43.2105 48.4683 42.8277 48.4683 42.316H48.0628C48.0628 42.5825 47.8475 42.805 47.5306 42.805V43.2105ZM48.4683 42.316V42.0278H48.0628V42.316H48.4683ZM48.2218 41.8299L46.9825 42.1037L47.07 42.4996L48.3093 42.2258L48.2218 41.8299ZM46.8235 42.3016V42.5754H47.229V42.3016H46.8235ZM46.8235 42.5754C46.8235 42.7616 46.8892 42.9299 47.0279 43.0484C47.1621 43.1631 47.3407 43.2105 47.5306 43.2105V42.805C47.4035 42.805 47.3299 42.7731 47.2912 42.7401C47.257 42.7108 47.229 42.6631 47.229 42.5754H46.8235Z" fill="#FEF5EB" mask="url(#path-5-outside-1_23632_22537)"/>
</g>
</g>
<defs>
<linearGradient id="paint0_linear_23632_22537" x1="34" y1="-1.04141e-05" x2="34" y2="68" gradientUnits="userSpaceOnUse">
<stop stop-color="#C93D34"/>
<stop offset="1" stop-color="#7A2629"/>
</linearGradient>
<linearGradient id="paint1_linear_23632_22537" x1="34" y1="-1.04141e-05" x2="34" y2="68" gradientUnits="userSpaceOnUse">
<stop stop-color="#C93D34"/>
<stop offset="1" stop-color="#7A2629"/>
</linearGradient>
<clipPath id="clip0_23632_22537">
<rect width="68" height="68" fill="white"/>
</clipPath>
</defs>
</svg>
