<svg width="68" height="68" viewBox="0 0 68 68" fill="none" xmlns="http://www.w3.org/2000/svg">
<g clip-path="url(#clip0_23632_22531)">
<mask id="mask0_23632_22531" style="mask-type:alpha" maskUnits="userSpaceOnUse" x="0" y="0" width="68" height="68">
<path fill-rule="evenodd" clip-rule="evenodd" d="M47.0333 0H20.9667C13.5811 0 8.89667 0.0377779 4.45778 4.45778C0.018889 8.89667 0 13.6 0 20.9667V47.0333C0 54.4189 0.0377779 59.1033 4.45778 63.5422C8.89667 67.9811 13.6 68 20.9667 68H47.0333C54.4189 68 59.1033 67.9811 63.5422 63.5422C67.9622 59.1033 68 54.4 68 47.0333V20.9667C68 13.5811 67.9622 8.89667 63.5422 4.45778C59.1033 0.018889 54.4 0 47.0333 0Z" fill="url(#paint0_linear_23632_22531)"/>
</mask>
<g mask="url(#mask0_23632_22531)">
<rect width="68" height="68" fill="url(#paint1_linear_23632_22531)"/>
<path fill-rule="evenodd" clip-rule="evenodd" d="M15.6212 64.3733C26.4256 64.3733 45.6357 64.3733 45.6357 64.3733C52.5868 64.3733 57.0823 64.6378 61.2379 60.4445C64.8079 56.8745 64.5057 50.8678 64.7323 46.1078C60.709 52.1522 53.3234 51.9445 47.619 51.9445C47.619 51.9445 20.929 51.9445 10.9556 51.9445C0.982316 51.9633 4.81676 64.3733 15.6212 64.3733Z" fill="#FEF5EB"/>
<path d="M12.4854 53.5311H23.1387V61.5211L17.812 58.8578L12.4854 61.5211V53.5311Z" fill="#F19C33"/>
<mask id="path-5-outside-1_23632_22531" maskUnits="userSpaceOnUse" x="16.1016" y="16.2266" width="35" height="19" fill="black">
<rect fill="white" x="16.1016" y="16.2266" width="35" height="19"/>
<path d="M21.0088 17.7266H22.3888V19.5866C22.3888 23.0866 20.4088 25.9466 17.3088 27.1066L16.4488 25.7466C19.2088 24.7666 21.0088 22.3466 21.0088 19.5866V17.7266ZM21.3088 17.7266H22.6688V19.5266C22.6688 22.0866 24.4288 24.3466 27.0688 25.2666L26.1688 26.5666C23.2488 25.4666 21.3088 22.8066 21.3088 19.5266V17.7266ZM29.6688 16.7066H31.3288V27.4066H29.6688V16.7066ZM25.3888 27.9266C29.1088 27.9266 31.4088 29.1866 31.4088 31.3466C31.4088 33.5066 29.1088 34.7466 25.3888 34.7466C21.6488 34.7466 19.3488 33.5066 19.3488 31.3466C19.3488 29.1866 21.6488 27.9266 25.3888 27.9266ZM25.3888 29.2466C22.6688 29.2466 21.0088 30.0266 21.0088 31.3466C21.0088 32.6666 22.6688 33.4466 25.3888 33.4466C28.1088 33.4466 29.7688 32.6666 29.7688 31.3466C29.7688 30.0266 28.1088 29.2466 25.3888 29.2466ZM25.7487 20.5266H30.0288V21.9066H25.7487V20.5266ZM43.7728 20.0266H48.6128V21.3866H43.7728V20.0266ZM43.6128 23.7866H48.4928V25.1466H43.6128V23.7866ZM48.3328 16.7066H49.9928V27.5466H48.3328V16.7066ZM42.6728 18.0666H44.4528C44.4528 22.7266 41.2328 25.9866 36.0328 27.5466L35.3528 26.2066C39.9728 24.8666 42.6728 22.2066 42.6728 18.7866V18.0666ZM36.2928 18.0666H43.8128V19.4266H36.2928V18.0666ZM44.1128 27.7466C47.7728 27.7466 50.0928 29.0466 50.0928 31.2266C50.0928 33.4066 47.7728 34.7066 44.1128 34.7066C40.4528 34.7066 38.1328 33.4066 38.1328 31.2266C38.1328 29.0466 40.4528 27.7466 44.1128 27.7466ZM44.1128 29.0466C41.4728 29.0466 39.7728 29.8666 39.7728 31.2266C39.7728 32.5866 41.4728 33.3866 44.1128 33.3866C46.7728 33.3866 48.4728 32.5866 48.4728 31.2266C48.4728 29.8666 46.7728 29.0466 44.1128 29.0466Z"/>
</mask>
<path d="M21.0088 17.7266H22.3888V19.5866C22.3888 23.0866 20.4088 25.9466 17.3088 27.1066L16.4488 25.7466C19.2088 24.7666 21.0088 22.3466 21.0088 19.5866V17.7266ZM21.3088 17.7266H22.6688V19.5266C22.6688 22.0866 24.4288 24.3466 27.0688 25.2666L26.1688 26.5666C23.2488 25.4666 21.3088 22.8066 21.3088 19.5266V17.7266ZM29.6688 16.7066H31.3288V27.4066H29.6688V16.7066ZM25.3888 27.9266C29.1088 27.9266 31.4088 29.1866 31.4088 31.3466C31.4088 33.5066 29.1088 34.7466 25.3888 34.7466C21.6488 34.7466 19.3488 33.5066 19.3488 31.3466C19.3488 29.1866 21.6488 27.9266 25.3888 27.9266ZM25.3888 29.2466C22.6688 29.2466 21.0088 30.0266 21.0088 31.3466C21.0088 32.6666 22.6688 33.4466 25.3888 33.4466C28.1088 33.4466 29.7688 32.6666 29.7688 31.3466C29.7688 30.0266 28.1088 29.2466 25.3888 29.2466ZM25.7487 20.5266H30.0288V21.9066H25.7487V20.5266ZM43.7728 20.0266H48.6128V21.3866H43.7728V20.0266ZM43.6128 23.7866H48.4928V25.1466H43.6128V23.7866ZM48.3328 16.7066H49.9928V27.5466H48.3328V16.7066ZM42.6728 18.0666H44.4528C44.4528 22.7266 41.2328 25.9866 36.0328 27.5466L35.3528 26.2066C39.9728 24.8666 42.6728 22.2066 42.6728 18.7866V18.0666ZM36.2928 18.0666H43.8128V19.4266H36.2928V18.0666ZM44.1128 27.7466C47.7728 27.7466 50.0928 29.0466 50.0928 31.2266C50.0928 33.4066 47.7728 34.7066 44.1128 34.7066C40.4528 34.7066 38.1328 33.4066 38.1328 31.2266C38.1328 29.0466 40.4528 27.7466 44.1128 27.7466ZM44.1128 29.0466C41.4728 29.0466 39.7728 29.8666 39.7728 31.2266C39.7728 32.5866 41.4728 33.3866 44.1128 33.3866C46.7728 33.3866 48.4728 32.5866 48.4728 31.2266C48.4728 29.8666 46.7728 29.0466 44.1128 29.0466Z" fill="#FEF5EB"/>
<path d="M21.0087 17.7266V17.5238H20.806V17.7266H21.0087ZM22.3888 17.7266H22.5915V17.5238H22.3888V17.7266ZM17.3088 27.1066L17.1374 27.2149L17.2255 27.3542L17.3798 27.2964L17.3088 27.1066ZM16.4488 25.7466L16.3809 25.5555L16.1418 25.6404L16.2774 25.8549L16.4488 25.7466ZM21.3088 17.7266V17.5238H21.106V17.7266H21.3088ZM22.6688 17.7266H22.8715V17.5238H22.6688V17.7266ZM27.0688 25.2666L27.2354 25.382L27.3871 25.1628L27.1355 25.0751L27.0688 25.2666ZM26.1688 26.5666L26.0973 26.7563L26.2454 26.8121L26.3354 26.682L26.1688 26.5666ZM29.6688 16.7066V16.5038H29.466V16.7066H29.6688ZM31.3288 16.7066H31.5315V16.5038H31.3288V16.7066ZM31.3288 27.4066V27.6093H31.5315V27.4066H31.3288ZM29.6688 27.4066H29.466V27.6093H29.6688V27.4066ZM25.7488 20.5266V20.3238H25.546V20.5266H25.7488ZM30.0288 20.5266H30.2315V20.3238H30.0288V20.5266ZM30.0288 21.9066V22.1093H30.2315V21.9066H30.0288ZM25.7488 21.9066H25.546V22.1093H25.7488V21.9066ZM21.0087 17.9293H22.3888V17.5238H21.0087V17.9293ZM22.186 17.7266V19.5866H22.5915V17.7266H22.186ZM22.186 19.5866C22.186 23.005 20.2557 25.7874 17.2377 26.9167L17.3798 27.2964C20.5618 26.1058 22.5915 23.1681 22.5915 19.5866H22.186ZM17.4801 26.9982L16.6201 25.6382L16.2774 25.8549L17.1374 27.2149L17.4801 26.9982ZM16.5166 25.9376C19.3501 24.9315 21.2115 22.4399 21.2115 19.5866H20.806C20.806 22.2532 19.0674 24.6016 16.3809 25.5555L16.5166 25.9376ZM21.2115 19.5866V17.7266H20.806V19.5866H21.2115ZM21.3088 17.9293H22.6688V17.5238H21.3088V17.9293ZM22.466 17.7266V19.5266H22.8715V17.7266H22.466ZM22.466 19.5266C22.466 22.1852 24.2929 24.5139 27.002 25.458L27.1355 25.0751C24.5646 24.1792 22.8715 21.9879 22.8715 19.5266H22.466ZM26.9021 25.1512L26.0021 26.4512L26.3354 26.682L27.2354 25.382L26.9021 25.1512ZM26.2402 26.3768C23.3973 25.3059 21.5115 22.7201 21.5115 19.5266H21.106C21.106 22.893 23.1002 25.6272 26.0973 26.7563L26.2402 26.3768ZM21.5115 19.5266V17.7266H21.106V19.5266H21.5115ZM29.6688 16.9093H31.3288V16.5038H29.6688V16.9093ZM31.126 16.7066V27.4066H31.5315V16.7066H31.126ZM31.3288 27.2038H29.6688V27.6093H31.3288V27.2038ZM29.8715 27.4066V16.7066H29.466V27.4066H29.8715ZM25.3888 28.1293C27.2304 28.1293 28.6964 28.4419 29.6944 29.0033C30.6837 29.5598 31.206 30.3538 31.206 31.3466H31.6115C31.6115 30.1794 30.9838 29.2634 29.8931 28.6499C28.8111 28.0412 27.2671 27.7238 25.3888 27.7238V28.1293ZM31.206 31.3466C31.206 32.339 30.6841 33.1279 29.695 33.6795C28.697 34.2361 27.2308 34.5438 25.3888 34.5438V34.9493C27.2667 34.9493 28.8105 34.637 29.8925 34.0336C30.9834 33.4252 31.6115 32.5141 31.6115 31.3466H31.206ZM25.3888 34.5438C23.5365 34.5438 22.0653 34.236 21.0648 33.6794C20.0733 33.1278 19.5515 32.3389 19.5515 31.3466H19.146C19.146 32.5142 19.7742 33.4253 20.8677 34.0337C21.9522 34.6371 23.501 34.9493 25.3888 34.9493V34.5438ZM19.5515 31.3466C19.5515 30.3538 20.0737 29.5599 21.0655 29.0034C22.0659 28.4419 23.537 28.1293 25.3888 28.1293V27.7238C23.5005 27.7238 21.9516 28.0412 20.867 28.6498C19.7738 29.2632 19.146 30.1793 19.146 31.3466H19.5515ZM25.3888 29.0438C24.0139 29.0438 22.8849 29.2403 22.0915 29.6186C21.2939 29.9989 20.806 30.5816 20.806 31.3466H21.2115C21.2115 30.7915 21.5536 30.3243 22.266 29.9846C22.9826 29.6429 24.0436 29.4493 25.3888 29.4493V29.0438ZM20.806 31.3466C20.806 32.1115 21.2939 32.6943 22.0915 33.0746C22.8849 33.4529 24.0139 33.6493 25.3888 33.6493V33.2438C24.0436 33.2438 22.9826 33.0503 22.266 32.7086C21.5536 32.3689 21.2115 31.9016 21.2115 31.3466H20.806ZM25.3888 33.6493C26.7636 33.6493 27.8926 33.4529 28.686 33.0746C29.4836 32.6943 29.9715 32.1115 29.9715 31.3466H29.566C29.566 31.9016 29.2239 32.3689 28.5115 32.7086C27.7949 33.0503 26.7339 33.2438 25.3888 33.2438V33.6493ZM29.9715 31.3466C29.9715 30.5816 29.4836 29.9989 28.686 29.6186C27.8926 29.2403 26.7636 29.0438 25.3888 29.0438V29.4493C26.7339 29.4493 27.7949 29.6429 28.5115 29.9846C29.2239 30.3243 29.566 30.7915 29.566 31.3466H29.9715ZM25.7488 20.7293H30.0288V20.3238H25.7488V20.7293ZM29.826 20.5266V21.9066H30.2315V20.5266H29.826ZM30.0288 21.7038H25.7488V22.1093H30.0288V21.7038ZM25.9515 21.9066V20.5266H25.546V21.9066H25.9515ZM43.7728 20.0266V19.8238H43.5701V20.0266H43.7728ZM48.6128 20.0266H48.8156V19.8238H48.6128V20.0266ZM48.6128 21.3866V21.5893H48.8156V21.3866H48.6128ZM43.7728 21.3866H43.5701V21.5893H43.7728V21.3866ZM43.6128 23.7866V23.5838H43.4101V23.7866H43.6128ZM48.4928 23.7866H48.6955V23.5838H48.4928V23.7866ZM48.4928 25.1466V25.3493H48.6955V25.1466H48.4928ZM43.6128 25.1466H43.4101V25.3493H43.6128V25.1466ZM48.3328 16.7066V16.5038H48.1301V16.7066H48.3328ZM49.9928 16.7066H50.1955V16.5038H49.9928V16.7066ZM49.9928 27.5466V27.7493H50.1955V27.5466H49.9928ZM48.3328 27.5466H48.1301V27.7493H48.3328V27.5466ZM42.6728 18.0666V17.8638H42.4701V18.0666H42.6728ZM44.4528 18.0666H44.6556V17.8638H44.4528V18.0666ZM36.0328 27.5466L35.852 27.6383L35.9287 27.7895L36.0911 27.7407L36.0328 27.5466ZM35.3528 26.2066L35.2963 26.0119L35.0613 26.08L35.172 26.2983L35.3528 26.2066ZM36.2928 18.0666V17.8638H36.0901V18.0666H36.2928ZM43.8128 18.0666H44.0155V17.8638H43.8128V18.0666ZM43.8128 19.4266V19.6293H44.0155V19.4266H43.8128ZM36.2928 19.4266H36.0901V19.6293H36.2928V19.4266ZM43.7728 20.2293H48.6128V19.8238H43.7728V20.2293ZM48.4101 20.0266V21.3866H48.8156V20.0266H48.4101ZM48.6128 21.1838H43.7728V21.5893H48.6128V21.1838ZM43.9756 21.3866V20.0266H43.5701V21.3866H43.9756ZM43.6128 23.9893H48.4928V23.5838H43.6128V23.9893ZM48.2901 23.7866V25.1466H48.6955V23.7866H48.2901ZM48.4928 24.9438H43.6128V25.3493H48.4928V24.9438ZM43.8156 25.1466V23.7866H43.4101V25.1466H43.8156ZM48.3328 16.9093H49.9928V16.5038H48.3328V16.9093ZM49.7901 16.7066V27.5466H50.1955V16.7066H49.7901ZM49.9928 27.3438H48.3328V27.7493H49.9928V27.3438ZM48.5355 27.5466V16.7066H48.1301V27.5466H48.5355ZM42.6728 18.2693H44.4528V17.8638H42.6728V18.2693ZM44.2501 18.0666C44.2501 22.6055 41.1234 25.8077 35.9746 27.3524L36.0911 27.7407C41.3422 26.1654 44.6556 22.8477 44.6556 18.0666H44.2501ZM36.2136 27.4548L35.5336 26.1148L35.172 26.2983L35.852 27.6383L36.2136 27.4548ZM35.4093 26.4013C40.0671 25.0503 42.8755 22.3391 42.8755 18.7866H42.4701C42.4701 22.0741 39.8785 24.6828 35.2963 26.0119L35.4093 26.4013ZM42.8755 18.7866V18.0666H42.4701V18.7866H42.8755ZM36.2928 18.2693H43.8128V17.8638H36.2928V18.2693ZM43.6101 18.0666V19.4266H44.0155V18.0666H43.6101ZM43.8128 19.2238H36.2928V19.6293H43.8128V19.2238ZM36.4956 19.4266V18.0666H36.0901V19.4266H36.4956ZM44.1128 27.9493C45.9231 27.9493 47.3787 28.2715 48.3741 28.8447C49.3617 29.4135 49.8901 30.2229 49.8901 31.2266H50.2956C50.2956 30.0503 49.6639 29.1196 48.5765 28.4934C47.497 27.8717 45.9626 27.5438 44.1128 27.5438V27.9493ZM49.8901 31.2266C49.8901 32.2303 49.3617 33.0396 48.3741 33.6084C47.3787 34.1817 45.9231 34.5038 44.1128 34.5038V34.9093C45.9626 34.9093 47.497 34.5815 48.5765 33.9597C49.6639 33.3335 50.2956 32.4029 50.2956 31.2266H49.8901ZM44.1128 34.5038C42.3026 34.5038 40.847 34.1817 39.8515 33.6084C38.8639 33.0396 38.3356 32.2303 38.3356 31.2266H37.9301C37.9301 32.4029 38.5617 33.3335 39.6491 33.9597C40.7287 34.5815 42.2631 34.9093 44.1128 34.9093V34.5038ZM38.3356 31.2266C38.3356 30.2229 38.8639 29.4135 39.8515 28.8447C40.847 28.2715 42.3026 27.9493 44.1128 27.9493V27.5438C42.2631 27.5438 40.7287 27.8717 39.6491 28.4934C38.5617 29.1196 37.9301 30.0503 37.9301 31.2266H38.3356ZM44.1128 28.8438C42.7761 28.8438 41.6563 29.0508 40.8626 29.445C40.0653 29.841 39.5701 30.4438 39.5701 31.2266H39.9755C39.9755 30.6494 40.3303 30.1621 41.043 29.8081C41.7593 29.4523 42.8095 29.2493 44.1128 29.2493V28.8438ZM39.5701 31.2266C39.5701 32.01 40.0661 32.6078 40.8636 32.9986C41.6572 33.3875 42.7767 33.5893 44.1128 33.5893V33.1838C42.8089 33.1838 41.7585 32.9856 41.042 32.6345C40.3295 32.2853 39.9755 31.8031 39.9755 31.2266H39.5701ZM44.1128 33.5893C45.4587 33.5893 46.5832 33.3876 47.3793 32.9987C48.1794 32.6079 48.6755 32.0101 48.6755 31.2266H48.2701C48.2701 31.803 47.9163 32.2852 47.2013 32.6344C46.4824 32.9856 45.4269 33.1838 44.1128 33.1838V33.5893ZM48.6755 31.2266C48.6755 30.4436 48.1801 29.8409 47.3803 29.4449C46.5841 29.0507 45.4594 28.8438 44.1128 28.8438V29.2493C45.4263 29.2493 46.4815 29.4524 47.2004 29.8083C47.9155 30.1623 48.2701 30.6495 48.2701 31.2266H48.6755Z" fill="#FEF5EB" mask="url(#path-5-outside-1_23632_22531)"/>
</g>
</g>
<defs>
<linearGradient id="paint0_linear_23632_22531" x1="34" y1="-1.04141e-05" x2="34" y2="68" gradientUnits="userSpaceOnUse">
<stop stop-color="#C93D34"/>
<stop offset="1" stop-color="#7A2629"/>
</linearGradient>
<linearGradient id="paint1_linear_23632_22531" x1="34" y1="-1.04141e-05" x2="34" y2="68" gradientUnits="userSpaceOnUse">
<stop stop-color="#C93D34"/>
<stop offset="1" stop-color="#7A2629"/>
</linearGradient>
<clipPath id="clip0_23632_22531">
<rect width="68" height="68" fill="white"/>
</clipPath>
</defs>
</svg>
