<svg width="68" height="68" viewBox="0 0 68 68" fill="none" xmlns="http://www.w3.org/2000/svg">
<g clip-path="url(#clip0_23632_22651)">
<mask id="mask0_23632_22651" style="mask-type:alpha" maskUnits="userSpaceOnUse" x="0" y="0" width="68" height="68">
<path fill-rule="evenodd" clip-rule="evenodd" d="M47.0333 0H20.9667C13.5811 0 8.89667 0.0377779 4.45778 4.45778C0.018889 8.89667 0 13.6 0 20.9667V47.0333C0 54.4189 0.0377779 59.1033 4.45778 63.5422C8.89667 67.9811 13.6 68 20.9667 68H47.0333C54.4189 68 59.1033 67.9811 63.5422 63.5422C67.9622 59.1033 68 54.4 68 47.0333V20.9667C68 13.5811 67.9622 8.89667 63.5422 4.45778C59.1033 0.018889 54.4 0 47.0333 0Z" fill="url(#paint0_linear_23632_22651)"/>
</mask>
<g mask="url(#mask0_23632_22651)">
<rect width="68" height="68" fill="url(#paint1_linear_23632_22651)"/>
<path fill-rule="evenodd" clip-rule="evenodd" d="M15.6212 64.3735C26.4256 64.3735 45.6357 64.3735 45.6357 64.3735C52.5868 64.3735 57.0823 64.6379 61.2379 60.4446C64.8079 56.8746 64.5057 50.8679 64.7323 46.1079C60.709 52.1524 53.3234 51.9446 47.619 51.9446C47.619 51.9446 20.929 51.9446 10.9556 51.9446C0.982316 51.9635 4.81676 64.3735 15.6212 64.3735Z" fill="#FEF5EB"/>
<path d="M12.4854 53.5312H23.1387V61.5213L17.812 58.8579L12.4854 61.5213V53.5312Z" fill="#F19C33"/>
<mask id="path-5-outside-1_23632_22651" maskUnits="userSpaceOnUse" x="10.1016" y="11.2266" width="47" height="28" fill="black">
<rect fill="white" x="10.1016" y="11.2266" width="47" height="28"/>
<path d="M16.654 13.5201C17.05 13.5201 17.3605 13.5651 17.5855 13.6551C17.8195 13.7361 18.058 13.8576 18.301 14.0196C18.499 14.1456 18.652 14.2086 18.76 14.2086C18.841 14.2086 18.904 14.1636 18.949 14.0736C18.994 13.9746 19.03 13.8216 19.057 13.6146H19.3675C19.3225 14.1366 19.3 15.0546 19.3 16.3686H18.9895C18.9355 15.6396 18.724 15.0276 18.355 14.5326C17.995 14.0286 17.4685 13.7766 16.7755 13.7766C16.2895 13.7766 15.8935 13.9251 15.5875 14.2221C15.2815 14.5101 15.1285 14.8836 15.1285 15.3426C15.1285 15.6846 15.205 15.9816 15.358 16.2336C15.52 16.4856 15.7225 16.7016 15.9655 16.8816C16.2085 17.0616 16.555 17.2911 17.005 17.5701L17.3965 17.8131C17.9635 18.1641 18.409 18.4746 18.733 18.7446C19.066 19.0056 19.3315 19.3071 19.5295 19.6491C19.7275 19.9911 19.8265 20.3916 19.8265 20.8506C19.8265 21.6696 19.5565 22.3041 19.0165 22.7541C18.4765 23.1951 17.7925 23.4156 16.9645 23.4156C16.5325 23.4156 16.177 23.3706 15.898 23.2806C15.628 23.1906 15.367 23.0691 15.115 22.9161C14.917 22.7901 14.764 22.7271 14.656 22.7271C14.575 22.7271 14.512 22.7766 14.467 22.8756C14.422 22.9656 14.386 23.1141 14.359 23.3211H14.0485C14.0845 22.8261 14.1025 21.7461 14.1025 20.0811H14.413C14.476 20.9901 14.701 21.7281 15.088 22.2951C15.475 22.8621 16.069 23.1456 16.87 23.1456C17.356 23.1456 17.77 22.9971 18.112 22.7001C18.454 22.3941 18.625 21.9441 18.625 21.3501C18.625 20.8461 18.454 20.4186 18.112 20.0676C17.779 19.7166 17.248 19.3206 16.519 18.8796C15.988 18.5556 15.556 18.2676 15.223 18.0156C14.899 17.7636 14.6335 17.4621 14.4265 17.1111C14.2195 16.7511 14.116 16.3326 14.116 15.8556C14.116 15.0996 14.359 14.5236 14.845 14.1276C15.331 13.7226 15.934 13.5201 16.654 13.5201ZM28.3412 13.7091C28.7462 13.7091 29.0837 13.6956 29.3537 13.6686V13.9386C28.9037 14.0466 28.5482 14.4381 28.2872 15.1131L25.1147 23.2941H25.0067H24.8987L21.6047 14.8026C21.3887 14.2446 21.0782 13.9566 20.6732 13.9386V13.6686C21.0332 13.6956 21.5147 13.7091 22.1177 13.7091C22.8917 13.7091 23.4677 13.6956 23.8457 13.6686V13.9386C23.5037 13.9566 23.2562 14.0016 23.1032 14.0736C22.9592 14.1366 22.8872 14.2581 22.8872 14.4381C22.8872 14.5911 22.9412 14.8026 23.0492 15.0726L25.4927 21.5661L27.6932 15.8556C27.8732 15.3696 27.9632 15.0006 27.9632 14.7486C27.9632 14.4696 27.8642 14.2671 27.6662 14.1411C27.4772 14.0151 27.1847 13.9476 26.7887 13.9386V13.6686C27.3017 13.6956 27.8192 13.7091 28.3412 13.7091ZM37.0022 21.4986C37.0022 22.0116 37.0337 22.5876 37.0967 23.2266C36.4847 23.1996 35.4542 23.1861 34.0052 23.1861C32.2772 23.1861 30.9722 23.1996 30.0902 23.2266V22.9566C30.4142 22.9386 30.6482 22.9026 30.7922 22.8486C30.9452 22.7946 31.0487 22.6911 31.1027 22.5381C31.1567 22.3851 31.1837 22.1376 31.1837 21.7956V15.0996C31.1837 14.7576 31.1567 14.5101 31.1027 14.3571C31.0487 14.2041 30.9452 14.1006 30.7922 14.0466C30.6482 13.9926 30.4142 13.9566 30.0902 13.9386V13.6686C30.9722 13.6956 32.2772 13.7091 34.0052 13.7091C35.3282 13.7091 36.2687 13.6956 36.8267 13.6686C36.7637 14.2626 36.7322 14.7936 36.7322 15.2616C36.7322 15.6126 36.7457 15.8916 36.7727 16.0986H36.4622C36.3992 15.5136 36.3182 15.0816 36.2192 14.8026C36.1202 14.5146 35.9537 14.3076 35.7197 14.1816C35.4857 14.0466 35.1302 13.9791 34.6532 13.9791H33.5327C33.2087 13.9791 32.9702 14.0061 32.8172 14.0601C32.6732 14.1051 32.5742 14.2041 32.5202 14.3571C32.4662 14.5101 32.4392 14.7576 32.4392 15.0996V18.2856H33.3302C33.6452 18.2856 33.8882 18.2136 34.0592 18.0696C34.2302 17.9166 34.3427 17.7411 34.3967 17.5431C34.4597 17.3361 34.5092 17.0796 34.5452 16.7736L34.5857 16.5036H34.8962C34.8692 16.8816 34.8557 17.3046 34.8557 17.7726V18.4206C34.8557 18.8796 34.8827 19.5186 34.9367 20.3376H34.6262C34.6172 20.2746 34.5902 20.0586 34.5452 19.6896C34.5002 19.3116 34.3742 19.0281 34.1672 18.8391C33.9692 18.6501 33.6902 18.5556 33.3302 18.5556H32.4392V21.7956C32.4392 22.1376 32.4662 22.3851 32.5202 22.5381C32.5742 22.6911 32.6732 22.7946 32.8172 22.8486C32.9702 22.8936 33.2087 22.9161 33.5327 22.9161H34.5182C35.0762 22.9161 35.4992 22.8441 35.7872 22.7001C36.0842 22.5471 36.3002 22.3086 36.4352 21.9846C36.5702 21.6516 36.6692 21.1656 36.7322 20.5266H37.0427C37.0157 20.7696 37.0022 21.0936 37.0022 21.4986ZM36.0302 12.1701H31.2782V11.8326H36.0302V12.1701ZM46.0074 13.6686C45.9444 14.3076 45.9129 14.8836 45.9129 15.3966C45.9129 15.8466 45.9264 16.2156 45.9534 16.5036H45.6429C45.5709 15.8106 45.4809 15.2976 45.3729 14.9646C45.2649 14.6226 45.0759 14.3751 44.8059 14.2221C44.5359 14.0601 44.1219 13.9791 43.5639 13.9791H42.8349V21.6606C42.8349 22.0386 42.8709 22.3131 42.9429 22.4841C43.0149 22.6551 43.1409 22.7721 43.3209 22.8351C43.5009 22.8981 43.7934 22.9386 44.1984 22.9566V23.2266C43.7304 23.1996 43.0689 23.1861 42.2139 23.1861C41.3139 23.1861 40.6479 23.1996 40.2159 23.2266V22.9566C40.6209 22.9386 40.9134 22.8981 41.0934 22.8351C41.2734 22.7721 41.3994 22.6551 41.4714 22.4841C41.5434 22.3131 41.5794 22.0386 41.5794 21.6606V13.9791H40.8504C40.2924 13.9791 39.8784 14.0601 39.6084 14.2221C39.3384 14.3751 39.1494 14.6226 39.0414 14.9646C38.9334 15.2976 38.8434 15.8106 38.7714 16.5036H38.4609C38.4879 16.2156 38.5014 15.8466 38.5014 15.3966C38.5014 14.8836 38.4699 14.3076 38.4069 13.6686C39.1539 13.6956 40.4229 13.7091 42.2139 13.7091C43.9959 13.7091 45.2604 13.6956 46.0074 13.6686ZM53.6875 22.0926C53.9035 22.6506 54.214 22.9386 54.619 22.9566V23.2266C54.259 23.1996 53.7775 23.1861 53.1745 23.1861C52.4005 23.1861 51.8245 23.1996 51.4465 23.2266V22.9566C51.7885 22.9386 52.0315 22.8981 52.1755 22.8351C52.3285 22.7631 52.405 22.6371 52.405 22.4571C52.405 22.3041 52.351 22.0926 52.243 21.8226L51.4195 19.6086H48.1525L47.599 21.0396C47.419 21.5256 47.329 21.8946 47.329 22.1466C47.329 22.4256 47.4235 22.6281 47.6125 22.7541C47.8105 22.8801 48.1075 22.9476 48.5035 22.9566V23.2266C47.9905 23.1996 47.473 23.1861 46.951 23.1861C46.546 23.1861 46.2085 23.1996 45.9385 23.2266V22.9566C46.3885 22.8486 46.744 22.4571 47.005 21.7821L50.1775 13.6011H50.3935L53.6875 22.0926ZM51.3115 19.3386L49.7995 15.3021L48.2605 19.3386H51.3115ZM52.648 12.1701H47.896V11.8326H52.648V12.1701ZM15.5839 33.1776C16.5739 33.3126 17.2804 33.6006 17.7034 34.0416C18.1264 34.4736 18.3379 34.9956 18.3379 35.6076C18.3379 36.1206 18.2074 36.5751 17.9464 36.9711C17.6854 37.3671 17.3119 37.6776 16.8259 37.9026C16.3399 38.1186 15.7639 38.2266 15.0979 38.2266C14.8549 38.2266 14.6479 38.2221 14.4769 38.2131C13.9009 38.1951 13.3339 38.1861 12.7759 38.1861C12.0379 38.1861 11.4799 38.1996 11.1019 38.2266V37.9566C11.4259 37.9386 11.6599 37.9026 11.8039 37.8486C11.9569 37.7946 12.0604 37.6911 12.1144 37.5381C12.1684 37.3851 12.1954 37.1376 12.1954 36.7956V30.0996C12.1954 29.7576 12.1684 29.5101 12.1144 29.3571C12.0604 29.2041 11.9569 29.1006 11.8039 29.0466C11.6599 28.9926 11.4259 28.9566 11.1019 28.9386V28.6686C11.4799 28.6956 12.0289 28.7091 12.7489 28.7091L14.2069 28.6956C14.3779 28.6866 14.5714 28.6821 14.7874 28.6821C15.7054 28.6821 16.4074 28.8756 16.8934 29.2626C17.3884 29.6496 17.6359 30.1626 17.6359 30.8016C17.6359 31.3236 17.4694 31.7916 17.1364 32.2056C16.8124 32.6196 16.2949 32.9346 15.5839 33.1506V33.1776ZM14.4499 28.9386C14.1709 28.9386 13.9594 28.9701 13.8154 29.0331C13.6804 29.0961 13.5859 29.2086 13.5319 29.3706C13.4779 29.5326 13.4509 29.7756 13.4509 30.0996V33.1506H14.3554C15.0934 33.1506 15.6064 32.9526 15.8944 32.5566C16.1914 32.1516 16.3399 31.6161 16.3399 30.9501C16.3399 30.2751 16.1914 29.7711 15.8944 29.4381C15.5974 29.1051 15.1159 28.9386 14.4499 28.9386ZM14.4634 37.9161C16.1464 37.9161 16.9879 37.1286 16.9879 35.5536C16.9879 34.8426 16.7944 34.3026 16.4074 33.9336C16.0294 33.5646 15.4219 33.3801 14.5849 33.3801H13.4509V36.7956C13.4509 37.1196 13.4779 37.3581 13.5319 37.5111C13.5859 37.6641 13.6804 37.7721 13.8154 37.8351C13.9594 37.8891 14.1754 37.9161 14.4634 37.9161ZM23.1289 28.9386C22.8049 28.9566 22.5664 28.9926 22.4134 29.0466C22.2694 29.1006 22.1704 29.2041 22.1164 29.3571C22.0624 29.5101 22.0354 29.7576 22.0354 30.0996V36.7956C22.0354 37.1376 22.0624 37.3851 22.1164 37.5381C22.1704 37.6911 22.2694 37.7946 22.4134 37.8486C22.5664 37.9026 22.8049 37.9386 23.1289 37.9566V38.2266C22.7149 38.1996 22.1434 38.1861 21.4144 38.1861C20.6404 38.1861 20.0644 38.1996 19.6864 38.2266V37.9566C20.0104 37.9386 20.2444 37.9026 20.3884 37.8486C20.5414 37.7946 20.6449 37.6911 20.6989 37.5381C20.7529 37.3851 20.7799 37.1376 20.7799 36.7956V30.0996C20.7799 29.7576 20.7529 29.5101 20.6989 29.3571C20.6449 29.2041 20.5414 29.1006 20.3884 29.0466C20.2444 28.9926 20.0104 28.9566 19.6864 28.9386V28.6686C20.0644 28.6956 20.6404 28.7091 21.4144 28.7091C22.1344 28.7091 22.7059 28.6956 23.1289 28.6686V28.9386ZM23.7904 27.1701H19.0384V26.8326H23.7904V27.1701ZM29.0087 33.1776C29.9987 33.3126 30.7052 33.6006 31.1282 34.0416C31.5512 34.4736 31.7627 34.9956 31.7627 35.6076C31.7627 36.1206 31.6322 36.5751 31.3712 36.9711C31.1102 37.3671 30.7367 37.6776 30.2507 37.9026C29.7647 38.1186 29.1887 38.2266 28.5227 38.2266C28.2797 38.2266 28.0727 38.2221 27.9017 38.2131C27.3257 38.1951 26.7587 38.1861 26.2007 38.1861C25.4627 38.1861 24.9047 38.1996 24.5267 38.2266V37.9566C24.8507 37.9386 25.0847 37.9026 25.2287 37.8486C25.3817 37.7946 25.4852 37.6911 25.5392 37.5381C25.5932 37.3851 25.6202 37.1376 25.6202 36.7956V30.0996C25.6202 29.7576 25.5932 29.5101 25.5392 29.3571C25.4852 29.2041 25.3817 29.1006 25.2287 29.0466C25.0847 28.9926 24.8507 28.9566 24.5267 28.9386V28.6686C24.9047 28.6956 25.4537 28.7091 26.1737 28.7091L27.6317 28.6956C27.8027 28.6866 27.9962 28.6821 28.2122 28.6821C29.1302 28.6821 29.8322 28.8756 30.3182 29.2626C30.8132 29.6496 31.0607 30.1626 31.0607 30.8016C31.0607 31.3236 30.8942 31.7916 30.5612 32.2056C30.2372 32.6196 29.7197 32.9346 29.0087 33.1506V33.1776ZM27.8747 28.9386C27.5957 28.9386 27.3842 28.9701 27.2402 29.0331C27.1052 29.0961 27.0107 29.2086 26.9567 29.3706C26.9027 29.5326 26.8757 29.7756 26.8757 30.0996V33.1506H27.7802C28.5182 33.1506 29.0312 32.9526 29.3192 32.5566C29.6162 32.1516 29.7647 31.6161 29.7647 30.9501C29.7647 30.2751 29.6162 29.7711 29.3192 29.4381C29.0222 29.1051 28.5407 28.9386 27.8747 28.9386ZM27.8882 37.9161C29.5712 37.9161 30.4127 37.1286 30.4127 35.5536C30.4127 34.8426 30.2192 34.3026 29.8322 33.9336C29.4542 33.5646 28.8467 33.3801 28.0097 33.3801H26.8757V36.7956C26.8757 37.1196 26.9027 37.3581 26.9567 37.5111C27.0107 37.6641 27.1052 37.7721 27.2402 37.8351C27.3842 37.8891 27.6002 37.9161 27.8882 37.9161ZM40.0232 36.4986C40.0232 37.0116 40.0547 37.5876 40.1177 38.2266C39.5057 38.1996 38.4752 38.1861 37.0262 38.1861C35.2982 38.1861 33.9932 38.1996 33.1112 38.2266V37.9566C33.4352 37.9386 33.6692 37.9026 33.8132 37.8486C33.9662 37.7946 34.0697 37.6911 34.1237 37.5381C34.1777 37.3851 34.2047 37.1376 34.2047 36.7956V30.0996C34.2047 29.7576 34.1777 29.5101 34.1237 29.3571C34.0697 29.2041 33.9662 29.1006 33.8132 29.0466C33.6692 28.9926 33.4352 28.9566 33.1112 28.9386V28.6686C33.9932 28.6956 35.2982 28.7091 37.0262 28.7091C38.3492 28.7091 39.2897 28.6956 39.8477 28.6686C39.7847 29.2626 39.7532 29.7936 39.7532 30.2616C39.7532 30.6126 39.7667 30.8916 39.7937 31.0986H39.4832C39.4202 30.5136 39.3392 30.0816 39.2402 29.8026C39.1412 29.5146 38.9747 29.3076 38.7407 29.1816C38.5067 29.0466 38.1512 28.9791 37.6742 28.9791H36.5537C36.2297 28.9791 35.9912 29.0061 35.8382 29.0601C35.6942 29.1051 35.5952 29.2041 35.5412 29.3571C35.4872 29.5101 35.4602 29.7576 35.4602 30.0996V33.2856H36.3512C36.6662 33.2856 36.9092 33.2136 37.0802 33.0696C37.2512 32.9166 37.3637 32.7411 37.4177 32.5431C37.4807 32.3361 37.5302 32.0796 37.5662 31.7736L37.6067 31.5036H37.9172C37.8902 31.8816 37.8767 32.3046 37.8767 32.7726V33.4206C37.8767 33.8796 37.9037 34.5186 37.9577 35.3376H37.6472C37.6382 35.2746 37.6112 35.0586 37.5662 34.6896C37.5212 34.3116 37.3952 34.0281 37.1882 33.8391C36.9902 33.6501 36.7112 33.5556 36.3512 33.5556H35.4602V36.7956C35.4602 37.1376 35.4872 37.3851 35.5412 37.5381C35.5952 37.6911 35.6942 37.7946 35.8382 37.8486C35.9912 37.8936 36.2297 37.9161 36.5537 37.9161H37.5392C38.0972 37.9161 38.5202 37.8441 38.8082 37.7001C39.1052 37.5471 39.3212 37.3086 39.4562 36.9846C39.5912 36.6516 39.6902 36.1656 39.7532 35.5266H40.0637C40.0367 35.7696 40.0232 36.0936 40.0232 36.4986ZM45.0459 28.9386C44.7219 28.9566 44.4834 28.9926 44.3304 29.0466C44.1864 29.1006 44.0874 29.2041 44.0334 29.3571C43.9794 29.5101 43.9524 29.7576 43.9524 30.0996V36.7956C43.9524 37.1376 43.9794 37.3851 44.0334 37.5381C44.0874 37.6911 44.1864 37.7946 44.3304 37.8486C44.4834 37.8936 44.7219 37.9161 45.0459 37.9161H46.0314C46.5894 37.9161 47.0124 37.8396 47.3004 37.6866C47.5974 37.5246 47.8134 37.2681 47.9484 36.9171C48.0834 36.5661 48.1824 36.0576 48.2454 35.3916H48.5559C48.5289 35.6706 48.5154 36.0396 48.5154 36.4986C48.5154 37.0116 48.5469 37.5876 48.6099 38.2266C47.9979 38.1996 46.9674 38.1861 45.5184 38.1861C43.7904 38.1861 42.4854 38.1996 41.6034 38.2266V37.9566C41.9274 37.9386 42.1614 37.9026 42.3054 37.8486C42.4584 37.7946 42.5619 37.6911 42.6159 37.5381C42.6699 37.3851 42.6969 37.1376 42.6969 36.7956V30.0996C42.6969 29.7576 42.6699 29.5101 42.6159 29.3571C42.5619 29.2041 42.4584 29.1006 42.3054 29.0466C42.1614 28.9926 41.9274 28.9566 41.6034 28.9386V28.6686C41.9814 28.6956 42.5574 28.7091 43.3314 28.7091C44.0514 28.7091 44.6229 28.6956 45.0459 28.6686V28.9386ZM56.7175 36.4986C56.7175 37.0116 56.749 37.5876 56.812 38.2266C56.2 38.1996 55.1695 38.1861 53.7205 38.1861C51.9925 38.1861 50.6875 38.1996 49.8055 38.2266V37.9566C50.1295 37.9386 50.3635 37.9026 50.5075 37.8486C50.6605 37.7946 50.764 37.6911 50.818 37.5381C50.872 37.3851 50.899 37.1376 50.899 36.7956V30.0996C50.899 29.7576 50.872 29.5101 50.818 29.3571C50.764 29.2041 50.6605 29.1006 50.5075 29.0466C50.3635 28.9926 50.1295 28.9566 49.8055 28.9386V28.6686C50.6875 28.6956 51.9925 28.7091 53.7205 28.7091C55.0435 28.7091 55.984 28.6956 56.542 28.6686C56.479 29.2626 56.4475 29.7936 56.4475 30.2616C56.4475 30.6126 56.461 30.8916 56.488 31.0986H56.1775C56.1145 30.5136 56.0335 30.0816 55.9345 29.8026C55.8355 29.5146 55.669 29.3076 55.435 29.1816C55.201 29.0466 54.8455 28.9791 54.3685 28.9791H53.248C52.924 28.9791 52.6855 29.0061 52.5325 29.0601C52.3885 29.1051 52.2895 29.2041 52.2355 29.3571C52.1815 29.5101 52.1545 29.7576 52.1545 30.0996V33.2856H53.0455C53.3605 33.2856 53.6035 33.2136 53.7745 33.0696C53.9455 32.9166 54.058 32.7411 54.112 32.5431C54.175 32.3361 54.2245 32.0796 54.2605 31.7736L54.301 31.5036H54.6115C54.5845 31.8816 54.571 32.3046 54.571 32.7726V33.4206C54.571 33.8796 54.598 34.5186 54.652 35.3376H54.3415C54.3325 35.2746 54.3055 35.0586 54.2605 34.6896C54.2155 34.3116 54.0895 34.0281 53.8825 33.8391C53.6845 33.6501 53.4055 33.5556 53.0455 33.5556H52.1545V36.7956C52.1545 37.1376 52.1815 37.3851 52.2355 37.5381C52.2895 37.6911 52.3885 37.7946 52.5325 37.8486C52.6855 37.8936 52.924 37.9161 53.248 37.9161H54.2335C54.7915 37.9161 55.2145 37.8441 55.5025 37.7001C55.7995 37.5471 56.0155 37.3086 56.1505 36.9846C56.2855 36.6516 56.3845 36.1656 56.4475 35.5266H56.758C56.731 35.7696 56.7175 36.0936 56.7175 36.4986Z"/>
</mask>
<path d="M16.654 13.5201C17.05 13.5201 17.3605 13.5651 17.5855 13.6551C17.8195 13.7361 18.058 13.8576 18.301 14.0196C18.499 14.1456 18.652 14.2086 18.76 14.2086C18.841 14.2086 18.904 14.1636 18.949 14.0736C18.994 13.9746 19.03 13.8216 19.057 13.6146H19.3675C19.3225 14.1366 19.3 15.0546 19.3 16.3686H18.9895C18.9355 15.6396 18.724 15.0276 18.355 14.5326C17.995 14.0286 17.4685 13.7766 16.7755 13.7766C16.2895 13.7766 15.8935 13.9251 15.5875 14.2221C15.2815 14.5101 15.1285 14.8836 15.1285 15.3426C15.1285 15.6846 15.205 15.9816 15.358 16.2336C15.52 16.4856 15.7225 16.7016 15.9655 16.8816C16.2085 17.0616 16.555 17.2911 17.005 17.5701L17.3965 17.8131C17.9635 18.1641 18.409 18.4746 18.733 18.7446C19.066 19.0056 19.3315 19.3071 19.5295 19.6491C19.7275 19.9911 19.8265 20.3916 19.8265 20.8506C19.8265 21.6696 19.5565 22.3041 19.0165 22.7541C18.4765 23.1951 17.7925 23.4156 16.9645 23.4156C16.5325 23.4156 16.177 23.3706 15.898 23.2806C15.628 23.1906 15.367 23.0691 15.115 22.9161C14.917 22.7901 14.764 22.7271 14.656 22.7271C14.575 22.7271 14.512 22.7766 14.467 22.8756C14.422 22.9656 14.386 23.1141 14.359 23.3211H14.0485C14.0845 22.8261 14.1025 21.7461 14.1025 20.0811H14.413C14.476 20.9901 14.701 21.7281 15.088 22.2951C15.475 22.8621 16.069 23.1456 16.87 23.1456C17.356 23.1456 17.77 22.9971 18.112 22.7001C18.454 22.3941 18.625 21.9441 18.625 21.3501C18.625 20.8461 18.454 20.4186 18.112 20.0676C17.779 19.7166 17.248 19.3206 16.519 18.8796C15.988 18.5556 15.556 18.2676 15.223 18.0156C14.899 17.7636 14.6335 17.4621 14.4265 17.1111C14.2195 16.7511 14.116 16.3326 14.116 15.8556C14.116 15.0996 14.359 14.5236 14.845 14.1276C15.331 13.7226 15.934 13.5201 16.654 13.5201ZM28.3412 13.7091C28.7462 13.7091 29.0837 13.6956 29.3537 13.6686V13.9386C28.9037 14.0466 28.5482 14.4381 28.2872 15.1131L25.1147 23.2941H25.0067H24.8987L21.6047 14.8026C21.3887 14.2446 21.0782 13.9566 20.6732 13.9386V13.6686C21.0332 13.6956 21.5147 13.7091 22.1177 13.7091C22.8917 13.7091 23.4677 13.6956 23.8457 13.6686V13.9386C23.5037 13.9566 23.2562 14.0016 23.1032 14.0736C22.9592 14.1366 22.8872 14.2581 22.8872 14.4381C22.8872 14.5911 22.9412 14.8026 23.0492 15.0726L25.4927 21.5661L27.6932 15.8556C27.8732 15.3696 27.9632 15.0006 27.9632 14.7486C27.9632 14.4696 27.8642 14.2671 27.6662 14.1411C27.4772 14.0151 27.1847 13.9476 26.7887 13.9386V13.6686C27.3017 13.6956 27.8192 13.7091 28.3412 13.7091ZM37.0022 21.4986C37.0022 22.0116 37.0337 22.5876 37.0967 23.2266C36.4847 23.1996 35.4542 23.1861 34.0052 23.1861C32.2772 23.1861 30.9722 23.1996 30.0902 23.2266V22.9566C30.4142 22.9386 30.6482 22.9026 30.7922 22.8486C30.9452 22.7946 31.0487 22.6911 31.1027 22.5381C31.1567 22.3851 31.1837 22.1376 31.1837 21.7956V15.0996C31.1837 14.7576 31.1567 14.5101 31.1027 14.3571C31.0487 14.2041 30.9452 14.1006 30.7922 14.0466C30.6482 13.9926 30.4142 13.9566 30.0902 13.9386V13.6686C30.9722 13.6956 32.2772 13.7091 34.0052 13.7091C35.3282 13.7091 36.2687 13.6956 36.8267 13.6686C36.7637 14.2626 36.7322 14.7936 36.7322 15.2616C36.7322 15.6126 36.7457 15.8916 36.7727 16.0986H36.4622C36.3992 15.5136 36.3182 15.0816 36.2192 14.8026C36.1202 14.5146 35.9537 14.3076 35.7197 14.1816C35.4857 14.0466 35.1302 13.9791 34.6532 13.9791H33.5327C33.2087 13.9791 32.9702 14.0061 32.8172 14.0601C32.6732 14.1051 32.5742 14.2041 32.5202 14.3571C32.4662 14.5101 32.4392 14.7576 32.4392 15.0996V18.2856H33.3302C33.6452 18.2856 33.8882 18.2136 34.0592 18.0696C34.2302 17.9166 34.3427 17.7411 34.3967 17.5431C34.4597 17.3361 34.5092 17.0796 34.5452 16.7736L34.5857 16.5036H34.8962C34.8692 16.8816 34.8557 17.3046 34.8557 17.7726V18.4206C34.8557 18.8796 34.8827 19.5186 34.9367 20.3376H34.6262C34.6172 20.2746 34.5902 20.0586 34.5452 19.6896C34.5002 19.3116 34.3742 19.0281 34.1672 18.8391C33.9692 18.6501 33.6902 18.5556 33.3302 18.5556H32.4392V21.7956C32.4392 22.1376 32.4662 22.3851 32.5202 22.5381C32.5742 22.6911 32.6732 22.7946 32.8172 22.8486C32.9702 22.8936 33.2087 22.9161 33.5327 22.9161H34.5182C35.0762 22.9161 35.4992 22.8441 35.7872 22.7001C36.0842 22.5471 36.3002 22.3086 36.4352 21.9846C36.5702 21.6516 36.6692 21.1656 36.7322 20.5266H37.0427C37.0157 20.7696 37.0022 21.0936 37.0022 21.4986ZM36.0302 12.1701H31.2782V11.8326H36.0302V12.1701ZM46.0074 13.6686C45.9444 14.3076 45.9129 14.8836 45.9129 15.3966C45.9129 15.8466 45.9264 16.2156 45.9534 16.5036H45.6429C45.5709 15.8106 45.4809 15.2976 45.3729 14.9646C45.2649 14.6226 45.0759 14.3751 44.8059 14.2221C44.5359 14.0601 44.1219 13.9791 43.5639 13.9791H42.8349V21.6606C42.8349 22.0386 42.8709 22.3131 42.9429 22.4841C43.0149 22.6551 43.1409 22.7721 43.3209 22.8351C43.5009 22.8981 43.7934 22.9386 44.1984 22.9566V23.2266C43.7304 23.1996 43.0689 23.1861 42.2139 23.1861C41.3139 23.1861 40.6479 23.1996 40.2159 23.2266V22.9566C40.6209 22.9386 40.9134 22.8981 41.0934 22.8351C41.2734 22.7721 41.3994 22.6551 41.4714 22.4841C41.5434 22.3131 41.5794 22.0386 41.5794 21.6606V13.9791H40.8504C40.2924 13.9791 39.8784 14.0601 39.6084 14.2221C39.3384 14.3751 39.1494 14.6226 39.0414 14.9646C38.9334 15.2976 38.8434 15.8106 38.7714 16.5036H38.4609C38.4879 16.2156 38.5014 15.8466 38.5014 15.3966C38.5014 14.8836 38.4699 14.3076 38.4069 13.6686C39.1539 13.6956 40.4229 13.7091 42.2139 13.7091C43.9959 13.7091 45.2604 13.6956 46.0074 13.6686ZM53.6875 22.0926C53.9035 22.6506 54.214 22.9386 54.619 22.9566V23.2266C54.259 23.1996 53.7775 23.1861 53.1745 23.1861C52.4005 23.1861 51.8245 23.1996 51.4465 23.2266V22.9566C51.7885 22.9386 52.0315 22.8981 52.1755 22.8351C52.3285 22.7631 52.405 22.6371 52.405 22.4571C52.405 22.3041 52.351 22.0926 52.243 21.8226L51.4195 19.6086H48.1525L47.599 21.0396C47.419 21.5256 47.329 21.8946 47.329 22.1466C47.329 22.4256 47.4235 22.6281 47.6125 22.7541C47.8105 22.8801 48.1075 22.9476 48.5035 22.9566V23.2266C47.9905 23.1996 47.473 23.1861 46.951 23.1861C46.546 23.1861 46.2085 23.1996 45.9385 23.2266V22.9566C46.3885 22.8486 46.744 22.4571 47.005 21.7821L50.1775 13.6011H50.3935L53.6875 22.0926ZM51.3115 19.3386L49.7995 15.3021L48.2605 19.3386H51.3115ZM52.648 12.1701H47.896V11.8326H52.648V12.1701ZM15.5839 33.1776C16.5739 33.3126 17.2804 33.6006 17.7034 34.0416C18.1264 34.4736 18.3379 34.9956 18.3379 35.6076C18.3379 36.1206 18.2074 36.5751 17.9464 36.9711C17.6854 37.3671 17.3119 37.6776 16.8259 37.9026C16.3399 38.1186 15.7639 38.2266 15.0979 38.2266C14.8549 38.2266 14.6479 38.2221 14.4769 38.2131C13.9009 38.1951 13.3339 38.1861 12.7759 38.1861C12.0379 38.1861 11.4799 38.1996 11.1019 38.2266V37.9566C11.4259 37.9386 11.6599 37.9026 11.8039 37.8486C11.9569 37.7946 12.0604 37.6911 12.1144 37.5381C12.1684 37.3851 12.1954 37.1376 12.1954 36.7956V30.0996C12.1954 29.7576 12.1684 29.5101 12.1144 29.3571C12.0604 29.2041 11.9569 29.1006 11.8039 29.0466C11.6599 28.9926 11.4259 28.9566 11.1019 28.9386V28.6686C11.4799 28.6956 12.0289 28.7091 12.7489 28.7091L14.2069 28.6956C14.3779 28.6866 14.5714 28.6821 14.7874 28.6821C15.7054 28.6821 16.4074 28.8756 16.8934 29.2626C17.3884 29.6496 17.6359 30.1626 17.6359 30.8016C17.6359 31.3236 17.4694 31.7916 17.1364 32.2056C16.8124 32.6196 16.2949 32.9346 15.5839 33.1506V33.1776ZM14.4499 28.9386C14.1709 28.9386 13.9594 28.9701 13.8154 29.0331C13.6804 29.0961 13.5859 29.2086 13.5319 29.3706C13.4779 29.5326 13.4509 29.7756 13.4509 30.0996V33.1506H14.3554C15.0934 33.1506 15.6064 32.9526 15.8944 32.5566C16.1914 32.1516 16.3399 31.6161 16.3399 30.9501C16.3399 30.2751 16.1914 29.7711 15.8944 29.4381C15.5974 29.1051 15.1159 28.9386 14.4499 28.9386ZM14.4634 37.9161C16.1464 37.9161 16.9879 37.1286 16.9879 35.5536C16.9879 34.8426 16.7944 34.3026 16.4074 33.9336C16.0294 33.5646 15.4219 33.3801 14.5849 33.3801H13.4509V36.7956C13.4509 37.1196 13.4779 37.3581 13.5319 37.5111C13.5859 37.6641 13.6804 37.7721 13.8154 37.8351C13.9594 37.8891 14.1754 37.9161 14.4634 37.9161ZM23.1289 28.9386C22.8049 28.9566 22.5664 28.9926 22.4134 29.0466C22.2694 29.1006 22.1704 29.2041 22.1164 29.3571C22.0624 29.5101 22.0354 29.7576 22.0354 30.0996V36.7956C22.0354 37.1376 22.0624 37.3851 22.1164 37.5381C22.1704 37.6911 22.2694 37.7946 22.4134 37.8486C22.5664 37.9026 22.8049 37.9386 23.1289 37.9566V38.2266C22.7149 38.1996 22.1434 38.1861 21.4144 38.1861C20.6404 38.1861 20.0644 38.1996 19.6864 38.2266V37.9566C20.0104 37.9386 20.2444 37.9026 20.3884 37.8486C20.5414 37.7946 20.6449 37.6911 20.6989 37.5381C20.7529 37.3851 20.7799 37.1376 20.7799 36.7956V30.0996C20.7799 29.7576 20.7529 29.5101 20.6989 29.3571C20.6449 29.2041 20.5414 29.1006 20.3884 29.0466C20.2444 28.9926 20.0104 28.9566 19.6864 28.9386V28.6686C20.0644 28.6956 20.6404 28.7091 21.4144 28.7091C22.1344 28.7091 22.7059 28.6956 23.1289 28.6686V28.9386ZM23.7904 27.1701H19.0384V26.8326H23.7904V27.1701ZM29.0087 33.1776C29.9987 33.3126 30.7052 33.6006 31.1282 34.0416C31.5512 34.4736 31.7627 34.9956 31.7627 35.6076C31.7627 36.1206 31.6322 36.5751 31.3712 36.9711C31.1102 37.3671 30.7367 37.6776 30.2507 37.9026C29.7647 38.1186 29.1887 38.2266 28.5227 38.2266C28.2797 38.2266 28.0727 38.2221 27.9017 38.2131C27.3257 38.1951 26.7587 38.1861 26.2007 38.1861C25.4627 38.1861 24.9047 38.1996 24.5267 38.2266V37.9566C24.8507 37.9386 25.0847 37.9026 25.2287 37.8486C25.3817 37.7946 25.4852 37.6911 25.5392 37.5381C25.5932 37.3851 25.6202 37.1376 25.6202 36.7956V30.0996C25.6202 29.7576 25.5932 29.5101 25.5392 29.3571C25.4852 29.2041 25.3817 29.1006 25.2287 29.0466C25.0847 28.9926 24.8507 28.9566 24.5267 28.9386V28.6686C24.9047 28.6956 25.4537 28.7091 26.1737 28.7091L27.6317 28.6956C27.8027 28.6866 27.9962 28.6821 28.2122 28.6821C29.1302 28.6821 29.8322 28.8756 30.3182 29.2626C30.8132 29.6496 31.0607 30.1626 31.0607 30.8016C31.0607 31.3236 30.8942 31.7916 30.5612 32.2056C30.2372 32.6196 29.7197 32.9346 29.0087 33.1506V33.1776ZM27.8747 28.9386C27.5957 28.9386 27.3842 28.9701 27.2402 29.0331C27.1052 29.0961 27.0107 29.2086 26.9567 29.3706C26.9027 29.5326 26.8757 29.7756 26.8757 30.0996V33.1506H27.7802C28.5182 33.1506 29.0312 32.9526 29.3192 32.5566C29.6162 32.1516 29.7647 31.6161 29.7647 30.9501C29.7647 30.2751 29.6162 29.7711 29.3192 29.4381C29.0222 29.1051 28.5407 28.9386 27.8747 28.9386ZM27.8882 37.9161C29.5712 37.9161 30.4127 37.1286 30.4127 35.5536C30.4127 34.8426 30.2192 34.3026 29.8322 33.9336C29.4542 33.5646 28.8467 33.3801 28.0097 33.3801H26.8757V36.7956C26.8757 37.1196 26.9027 37.3581 26.9567 37.5111C27.0107 37.6641 27.1052 37.7721 27.2402 37.8351C27.3842 37.8891 27.6002 37.9161 27.8882 37.9161ZM40.0232 36.4986C40.0232 37.0116 40.0547 37.5876 40.1177 38.2266C39.5057 38.1996 38.4752 38.1861 37.0262 38.1861C35.2982 38.1861 33.9932 38.1996 33.1112 38.2266V37.9566C33.4352 37.9386 33.6692 37.9026 33.8132 37.8486C33.9662 37.7946 34.0697 37.6911 34.1237 37.5381C34.1777 37.3851 34.2047 37.1376 34.2047 36.7956V30.0996C34.2047 29.7576 34.1777 29.5101 34.1237 29.3571C34.0697 29.2041 33.9662 29.1006 33.8132 29.0466C33.6692 28.9926 33.4352 28.9566 33.1112 28.9386V28.6686C33.9932 28.6956 35.2982 28.7091 37.0262 28.7091C38.3492 28.7091 39.2897 28.6956 39.8477 28.6686C39.7847 29.2626 39.7532 29.7936 39.7532 30.2616C39.7532 30.6126 39.7667 30.8916 39.7937 31.0986H39.4832C39.4202 30.5136 39.3392 30.0816 39.2402 29.8026C39.1412 29.5146 38.9747 29.3076 38.7407 29.1816C38.5067 29.0466 38.1512 28.9791 37.6742 28.9791H36.5537C36.2297 28.9791 35.9912 29.0061 35.8382 29.0601C35.6942 29.1051 35.5952 29.2041 35.5412 29.3571C35.4872 29.5101 35.4602 29.7576 35.4602 30.0996V33.2856H36.3512C36.6662 33.2856 36.9092 33.2136 37.0802 33.0696C37.2512 32.9166 37.3637 32.7411 37.4177 32.5431C37.4807 32.3361 37.5302 32.0796 37.5662 31.7736L37.6067 31.5036H37.9172C37.8902 31.8816 37.8767 32.3046 37.8767 32.7726V33.4206C37.8767 33.8796 37.9037 34.5186 37.9577 35.3376H37.6472C37.6382 35.2746 37.6112 35.0586 37.5662 34.6896C37.5212 34.3116 37.3952 34.0281 37.1882 33.8391C36.9902 33.6501 36.7112 33.5556 36.3512 33.5556H35.4602V36.7956C35.4602 37.1376 35.4872 37.3851 35.5412 37.5381C35.5952 37.6911 35.6942 37.7946 35.8382 37.8486C35.9912 37.8936 36.2297 37.9161 36.5537 37.9161H37.5392C38.0972 37.9161 38.5202 37.8441 38.8082 37.7001C39.1052 37.5471 39.3212 37.3086 39.4562 36.9846C39.5912 36.6516 39.6902 36.1656 39.7532 35.5266H40.0637C40.0367 35.7696 40.0232 36.0936 40.0232 36.4986ZM45.0459 28.9386C44.7219 28.9566 44.4834 28.9926 44.3304 29.0466C44.1864 29.1006 44.0874 29.2041 44.0334 29.3571C43.9794 29.5101 43.9524 29.7576 43.9524 30.0996V36.7956C43.9524 37.1376 43.9794 37.3851 44.0334 37.5381C44.0874 37.6911 44.1864 37.7946 44.3304 37.8486C44.4834 37.8936 44.7219 37.9161 45.0459 37.9161H46.0314C46.5894 37.9161 47.0124 37.8396 47.3004 37.6866C47.5974 37.5246 47.8134 37.2681 47.9484 36.9171C48.0834 36.5661 48.1824 36.0576 48.2454 35.3916H48.5559C48.5289 35.6706 48.5154 36.0396 48.5154 36.4986C48.5154 37.0116 48.5469 37.5876 48.6099 38.2266C47.9979 38.1996 46.9674 38.1861 45.5184 38.1861C43.7904 38.1861 42.4854 38.1996 41.6034 38.2266V37.9566C41.9274 37.9386 42.1614 37.9026 42.3054 37.8486C42.4584 37.7946 42.5619 37.6911 42.6159 37.5381C42.6699 37.3851 42.6969 37.1376 42.6969 36.7956V30.0996C42.6969 29.7576 42.6699 29.5101 42.6159 29.3571C42.5619 29.2041 42.4584 29.1006 42.3054 29.0466C42.1614 28.9926 41.9274 28.9566 41.6034 28.9386V28.6686C41.9814 28.6956 42.5574 28.7091 43.3314 28.7091C44.0514 28.7091 44.6229 28.6956 45.0459 28.6686V28.9386ZM56.7175 36.4986C56.7175 37.0116 56.749 37.5876 56.812 38.2266C56.2 38.1996 55.1695 38.1861 53.7205 38.1861C51.9925 38.1861 50.6875 38.1996 49.8055 38.2266V37.9566C50.1295 37.9386 50.3635 37.9026 50.5075 37.8486C50.6605 37.7946 50.764 37.6911 50.818 37.5381C50.872 37.3851 50.899 37.1376 50.899 36.7956V30.0996C50.899 29.7576 50.872 29.5101 50.818 29.3571C50.764 29.2041 50.6605 29.1006 50.5075 29.0466C50.3635 28.9926 50.1295 28.9566 49.8055 28.9386V28.6686C50.6875 28.6956 51.9925 28.7091 53.7205 28.7091C55.0435 28.7091 55.984 28.6956 56.542 28.6686C56.479 29.2626 56.4475 29.7936 56.4475 30.2616C56.4475 30.6126 56.461 30.8916 56.488 31.0986H56.1775C56.1145 30.5136 56.0335 30.0816 55.9345 29.8026C55.8355 29.5146 55.669 29.3076 55.435 29.1816C55.201 29.0466 54.8455 28.9791 54.3685 28.9791H53.248C52.924 28.9791 52.6855 29.0061 52.5325 29.0601C52.3885 29.1051 52.2895 29.2041 52.2355 29.3571C52.1815 29.5101 52.1545 29.7576 52.1545 30.0996V33.2856H53.0455C53.3605 33.2856 53.6035 33.2136 53.7745 33.0696C53.9455 32.9166 54.058 32.7411 54.112 32.5431C54.175 32.3361 54.2245 32.0796 54.2605 31.7736L54.301 31.5036H54.6115C54.5845 31.8816 54.571 32.3046 54.571 32.7726V33.4206C54.571 33.8796 54.598 34.5186 54.652 35.3376H54.3415C54.3325 35.2746 54.3055 35.0586 54.2605 34.6896C54.2155 34.3116 54.0895 34.0281 53.8825 33.8391C53.6845 33.6501 53.4055 33.5556 53.0455 33.5556H52.1545V36.7956C52.1545 37.1376 52.1815 37.3851 52.2355 37.5381C52.2895 37.6911 52.3885 37.7946 52.5325 37.8486C52.6855 37.8936 52.924 37.9161 53.248 37.9161H54.2335C54.7915 37.9161 55.2145 37.8441 55.5025 37.7001C55.7995 37.5471 56.0155 37.3086 56.1505 36.9846C56.2855 36.6516 56.3845 36.1656 56.4475 35.5266H56.758C56.731 35.7696 56.7175 36.0936 56.7175 36.4986Z" fill="#FEF5EB"/>
<path d="M17.5855 13.6551L17.5101 13.8435L17.5192 13.8466L17.5855 13.6551ZM18.301 14.0196L18.1885 14.1883L18.1922 14.1906L18.301 14.0196ZM18.949 14.0736L19.1305 14.1643L19.1336 14.1575L18.949 14.0736ZM19.057 13.6146V13.4118H18.879L18.856 13.5883L19.057 13.6146ZM19.3675 13.6146L19.5695 13.632L19.5885 13.4118H19.3675V13.6146ZM19.3 16.3686V16.5713H19.5027V16.3686H19.3ZM18.9895 16.3686L18.7873 16.3835L18.8012 16.5713H18.9895V16.3686ZM18.355 14.5326L18.19 14.6504L18.1925 14.6537L18.355 14.5326ZM15.5875 14.2221L15.7265 14.3697L15.7287 14.3675L15.5875 14.2221ZM15.358 16.2336L15.1846 16.3388L15.1875 16.3432L15.358 16.2336ZM15.9655 16.8816L16.0862 16.7187H16.0862L15.9655 16.8816ZM17.005 17.5701L17.1119 17.3978L17.1118 17.3978L17.005 17.5701ZM17.3965 17.8131L17.2896 17.9853L17.2898 17.9854L17.3965 17.8131ZM18.733 18.7446L18.6032 18.9004L18.6079 18.9041L18.733 18.7446ZM19.5295 19.6491L19.354 19.7506V19.7506L19.5295 19.6491ZM19.0165 22.7541L19.1447 22.9111L19.1463 22.9098L19.0165 22.7541ZM15.898 23.2806L15.8339 23.4729L15.8358 23.4735L15.898 23.2806ZM15.115 22.9161L15.0061 23.0871L15.0098 23.0894L15.115 22.9161ZM14.467 22.8756L14.6485 22.9663L14.6516 22.9595L14.467 22.8756ZM14.359 23.3211V23.5238H14.537L14.56 23.3473L14.359 23.3211ZM14.0485 23.3211L13.8463 23.3064L13.8305 23.5238H14.0485V23.3211ZM14.1025 20.0811V19.8783H13.8998V20.0811H14.1025ZM14.413 20.0811L14.6152 20.067L14.6022 19.8783H14.413V20.0811ZM15.088 22.2951L14.9205 22.4094V22.4094L15.088 22.2951ZM18.112 22.7001L18.2449 22.8532L18.2472 22.8512L18.112 22.7001ZM18.112 20.0676L17.9649 20.2071L17.9668 20.209L18.112 20.0676ZM16.519 18.8796L16.4134 19.0526L16.4141 19.053L16.519 18.8796ZM15.223 18.0156L15.0985 18.1756L15.1007 18.1772L15.223 18.0156ZM14.4265 17.1111L14.2507 17.2121L14.2519 17.214L14.4265 17.1111ZM14.845 14.1276L14.9731 14.2847L14.9748 14.2833L14.845 14.1276ZM16.654 13.7228C17.0385 13.7228 17.3196 13.767 17.5102 13.8433L17.6608 13.4668C17.4014 13.3631 17.0615 13.3173 16.654 13.3173V13.7228ZM17.5192 13.8466C17.7343 13.9211 17.9574 14.0342 18.1885 14.1882L18.4135 13.8509C18.1586 13.681 17.9047 13.551 17.6518 13.4635L17.5192 13.8466ZM18.1922 14.1906C18.3926 14.3181 18.5889 14.4113 18.76 14.4113V14.0058C18.7151 14.0058 18.6054 13.973 18.4098 13.8485L18.1922 14.1906ZM18.76 14.4113C18.9378 14.4113 19.061 14.303 19.1303 14.1642L18.7677 13.9829C18.7557 14.0069 18.7479 14.0115 18.7502 14.0098C18.7514 14.0089 18.7538 14.0076 18.7569 14.0066C18.7599 14.0057 18.7613 14.0058 18.76 14.0058V14.4113ZM19.1336 14.1575C19.1914 14.0303 19.2304 13.853 19.258 13.6408L18.856 13.5883C18.8296 13.7902 18.7966 13.9188 18.7644 13.9897L19.1336 14.1575ZM19.057 13.8173H19.3675V13.4118H19.057V13.8173ZM19.1655 13.5971C19.1197 14.1289 19.0973 15.0548 19.0973 16.3686H19.5027C19.5027 15.0543 19.5253 14.1443 19.5695 13.632L19.1655 13.5971ZM19.3 16.1658H18.9895V16.5713H19.3V16.1658ZM19.1917 16.3536C19.1354 15.5933 18.9135 14.9426 18.5175 14.4114L18.1925 14.6537C18.5345 15.1125 18.7356 15.6858 18.7873 16.3835L19.1917 16.3536ZM18.52 14.4147C18.117 13.8505 17.525 13.5738 16.7755 13.5738V13.9793C17.412 13.9793 17.873 14.2066 18.19 14.6504L18.52 14.4147ZM16.7755 13.5738C16.2447 13.5738 15.7955 13.7377 15.4463 14.0766L15.7287 14.3675C15.9915 14.1125 16.3342 13.9793 16.7755 13.9793V13.5738ZM15.4485 14.0744C15.0978 14.4045 14.9258 14.8334 14.9258 15.3426H15.3312C15.3312 14.9337 15.4651 14.6156 15.7264 14.3697L15.4485 14.0744ZM14.9258 15.3426C14.9258 15.7156 15.0095 16.0503 15.1847 16.3388L15.5313 16.1283C15.4005 15.9129 15.3312 15.6535 15.3312 15.3426H14.9258ZM15.1875 16.3432C15.3628 16.616 15.5823 16.85 15.8448 17.0445L16.0862 16.7187C15.8627 16.5531 15.6771 16.3551 15.5285 16.1239L15.1875 16.3432ZM15.8448 17.0445C16.0944 17.2294 16.4464 17.4623 16.8982 17.7424L17.1118 17.3978C16.6636 17.1199 16.3226 16.8938 16.0862 16.7187L15.8448 17.0445ZM16.8981 17.7423L17.2896 17.9853L17.5034 17.6408L17.1119 17.3978L16.8981 17.7423ZM17.2898 17.9854C17.8528 18.334 18.2894 18.6388 18.6032 18.9003L18.8628 18.5888C18.5286 18.3103 18.0742 17.9942 17.5032 17.6407L17.2898 17.9854ZM18.6079 18.9041C18.922 19.1503 19.1699 19.4325 19.354 19.7506L19.705 19.5475C19.4931 19.1816 19.21 18.8608 18.8581 18.585L18.6079 18.9041ZM19.354 19.7506C19.5315 20.0571 19.6238 20.4214 19.6238 20.8506H20.0292C20.0292 20.3617 19.9235 19.925 19.705 19.5475L19.354 19.7506ZM19.6238 20.8506C19.6238 21.6205 19.3726 22.1934 18.8867 22.5983L19.1463 22.9098C19.7404 22.4147 20.0292 21.7187 20.0292 20.8506H19.6238ZM18.8883 22.597C18.391 23.0032 17.7549 23.2128 16.9645 23.2128V23.6183C17.8301 23.6183 18.562 23.387 19.1447 22.9111L18.8883 22.597ZM16.9645 23.2128C16.5446 23.2128 16.212 23.1688 15.9602 23.0876L15.8358 23.4735C16.142 23.5723 16.5204 23.6183 16.9645 23.6183V23.2128ZM15.9621 23.0882C15.707 23.0032 15.4597 22.8882 15.2202 22.7428L15.0098 23.0894C15.2743 23.2499 15.549 23.3779 15.8339 23.4729L15.9621 23.0882ZM15.2238 22.745C15.0234 22.6175 14.8271 22.5243 14.656 22.5243V22.9298C14.7009 22.9298 14.8106 22.9626 15.0062 23.0871L15.2238 22.745ZM14.656 22.5243C14.4676 22.5243 14.3469 22.6497 14.2824 22.7917L14.6516 22.9595C14.6652 22.9295 14.6748 22.9224 14.6733 22.9236C14.6721 22.9245 14.6691 22.9265 14.6645 22.9281C14.66 22.9296 14.6567 22.9298 14.656 22.9298V22.5243ZM14.2857 22.7849C14.2246 22.907 14.1854 23.0842 14.158 23.2948L14.56 23.3473C14.5866 23.1439 14.6194 23.0241 14.6483 22.9662L14.2857 22.7849ZM14.359 23.1183H14.0485V23.5238H14.359V23.1183ZM14.2507 23.3358C14.2873 22.832 14.3052 21.7442 14.3052 20.0811H13.8998C13.8998 21.7479 13.8817 22.8201 13.8463 23.3064L14.2507 23.3358ZM14.1025 20.2838H14.413V19.8783H14.1025V20.2838ZM14.2107 20.0951C14.2754 21.0286 14.5077 21.8044 14.9205 22.4094L15.2554 22.1808C14.8943 21.6517 14.6766 20.9515 14.6152 20.067L14.2107 20.0951ZM14.9205 22.4094C15.3521 23.0416 16.0149 23.3483 16.87 23.3483V22.9428C16.1231 22.9428 15.5979 22.6826 15.2554 22.1808L14.9205 22.4094ZM16.87 23.3483C17.401 23.3483 17.8632 23.1846 18.2449 22.8531L17.9791 22.547C17.6768 22.8095 17.311 22.9428 16.87 22.9428V23.3483ZM18.2472 22.8512C18.644 22.4961 18.8277 21.9837 18.8277 21.3501H18.4223C18.4223 21.9044 18.264 22.292 17.9768 22.549L18.2472 22.8512ZM18.8277 21.3501C18.8277 20.7949 18.6372 20.3161 18.2572 19.9261L17.9668 20.209C18.2708 20.521 18.4223 20.8972 18.4223 21.3501H18.8277ZM18.2591 19.928C17.9076 19.5576 17.3586 19.1505 16.6239 18.7061L16.4141 19.053C17.1374 19.4906 17.6504 19.8756 17.9649 20.2071L18.2591 19.928ZM16.6246 18.7065C16.0969 18.3845 15.671 18.1004 15.3453 17.8539L15.1007 18.1772C15.441 18.4348 15.8791 18.7266 16.4134 19.0526L16.6246 18.7065ZM15.3475 17.8555C15.0435 17.6191 14.7951 17.3369 14.6011 17.0081L14.2519 17.214C14.4719 17.5872 14.7545 17.908 15.0985 18.1756L15.3475 17.8555ZM14.6023 17.01C14.4154 16.6851 14.3187 16.3024 14.3187 15.8556H13.9133C13.9133 16.3627 14.0236 16.817 14.2507 17.2121L14.6023 17.01ZM14.3187 15.8556C14.3187 15.1466 14.5441 14.6342 14.9731 14.2847L14.7169 13.9704C14.1739 14.4129 13.9133 15.0525 13.9133 15.8556H14.3187ZM14.9748 14.2833C15.4194 13.9128 15.9745 13.7228 16.654 13.7228V13.3173C15.8935 13.3173 15.2426 13.5323 14.7152 13.9718L14.9748 14.2833ZM29.3537 13.6686H29.5564V13.4445L29.3335 13.4668L29.3537 13.6686ZM29.3537 13.9386L29.401 14.1357L29.5564 14.0984V13.9386H29.3537ZM28.2872 15.1131L28.4762 15.1864L28.4762 15.1862L28.2872 15.1131ZM25.1147 23.2941V23.4968H25.2535L25.3037 23.3674L25.1147 23.2941ZM24.8987 23.2941L24.7096 23.3674L24.7598 23.4968H24.8987V23.2941ZM21.6047 14.8026L21.4156 14.8757L21.4156 14.8759L21.6047 14.8026ZM20.6732 13.9386H20.4704V14.1325L20.6641 14.1411L20.6732 13.9386ZM20.6732 13.6686L20.6883 13.4664L20.4704 13.4501V13.6686H20.6732ZM23.8457 13.6686H24.0484V13.4508L23.8312 13.4663L23.8457 13.6686ZM23.8457 13.9386L23.8563 14.141L24.0484 14.1309V13.9386H23.8457ZM23.1032 14.0736L23.1844 14.2594L23.1895 14.257L23.1032 14.0736ZM23.0492 15.0726L23.2389 15.0011L23.2374 14.9973L23.0492 15.0726ZM25.4927 21.5661L25.3029 21.6375L25.4904 22.1357L25.6818 21.639L25.4927 21.5661ZM27.6931 15.8556L27.8823 15.9285L27.8833 15.926L27.6931 15.8556ZM27.6662 14.1411L27.5537 14.3098L27.5573 14.3121L27.6662 14.1411ZM26.7887 13.9386H26.5859V14.1367L26.784 14.1412L26.7887 13.9386ZM26.7887 13.6686L26.7993 13.4661L26.5859 13.4549V13.6686H26.7887ZM28.3412 13.9118C28.75 13.9118 29.0947 13.8982 29.3738 13.8703L29.3335 13.4668C29.0726 13.4929 28.7423 13.5063 28.3412 13.5063V13.9118ZM29.1509 13.6686V13.9386H29.5564V13.6686H29.1509ZM29.3063 13.7414C28.7613 13.8722 28.3691 14.339 28.0981 15.0399L28.4762 15.1862C28.7272 14.5371 29.046 14.2209 29.401 14.1357L29.3063 13.7414ZM28.0981 15.0398L24.9256 23.2208L25.3037 23.3674L28.4762 15.1864L28.0981 15.0398ZM25.1147 23.0913H25.0067V23.4968H25.1147V23.0913ZM25.0067 23.0913H24.8987V23.4968H25.0067V23.0913ZM25.0877 23.2207L21.7937 14.7292L21.4156 14.8759L24.7096 23.3674L25.0877 23.2207ZM21.7937 14.7294C21.5646 14.1374 21.2038 13.7592 20.6822 13.736L20.6641 14.1411C20.9525 14.1539 21.2127 14.3517 21.4156 14.8757L21.7937 14.7294ZM20.8759 13.9386V13.6686H20.4704V13.9386H20.8759ZM20.658 13.8707C21.0253 13.8983 21.5125 13.9118 22.1177 13.9118V13.5063C21.5168 13.5063 21.041 13.4928 20.6883 13.4664L20.658 13.8707ZM22.1177 13.9118C22.8926 13.9118 23.4746 13.8983 23.8601 13.8708L23.8312 13.4663C23.4607 13.4928 22.8907 13.5063 22.1177 13.5063V13.9118ZM23.6429 13.6686V13.9386H24.0484V13.6686H23.6429ZM23.835 13.7361C23.4881 13.7544 23.2073 13.8005 23.0168 13.8901L23.1895 14.257C23.305 14.2026 23.5192 14.1588 23.8563 14.141L23.835 13.7361ZM23.0219 13.8878C22.9156 13.9343 22.8268 14.0072 22.7667 14.1086C22.7078 14.2081 22.6844 14.3215 22.6844 14.4381H23.0899C23.0899 14.3746 23.1025 14.3373 23.1156 14.3153C23.1275 14.2952 23.1467 14.2758 23.1844 14.2593L23.0219 13.8878ZM22.6844 14.4381C22.6844 14.6307 22.7504 14.8715 22.8609 15.1479L23.2374 14.9973C23.1319 14.7336 23.0899 14.5514 23.0899 14.4381H22.6844ZM22.8594 15.144L25.3029 21.6375L25.6824 21.4947L23.2389 15.0012L22.8594 15.144ZM25.6818 21.639L27.8823 15.9285L27.504 15.7827L25.3035 21.4932L25.6818 21.639ZM27.8833 15.926C28.0647 15.4361 28.1659 15.0386 28.1659 14.7486H27.7604C27.7604 14.9625 27.6816 15.303 27.503 15.7851L27.8833 15.926ZM28.1659 14.7486C28.1659 14.4155 28.0432 14.1407 27.775 13.97L27.5573 14.3121C27.6851 14.3934 27.7604 14.5237 27.7604 14.7486H28.1659ZM27.7786 13.9724C27.5417 13.8144 27.2026 13.7452 26.7933 13.7359L26.784 14.1412C27.1667 14.1499 27.4126 14.2157 27.5537 14.3097L27.7786 13.9724ZM26.9914 13.9386V13.6686H26.5859V13.9386H26.9914ZM26.778 13.871C27.2946 13.8982 27.8157 13.9118 28.3412 13.9118V13.5063C27.8226 13.5063 27.3087 13.4929 26.7993 13.4661L26.778 13.871ZM37.0967 23.2266L37.0878 23.4291L37.3214 23.4394L37.2985 23.2067L37.0967 23.2266ZM30.0902 23.2266H29.8875V23.4356L30.0964 23.4292L30.0902 23.2266ZM30.0902 22.9566L30.0789 22.7541L29.8875 22.7648V22.9566H30.0902ZM30.7922 22.8486L30.7247 22.6573L30.721 22.6587L30.7922 22.8486ZM31.1027 14.3571L30.9115 14.4245V14.4245L31.1027 14.3571ZM30.7922 14.0466L30.721 14.2364L30.7247 14.2377L30.7922 14.0466ZM30.0902 13.9386H29.8875V14.1303L30.0789 14.141L30.0902 13.9386ZM30.0902 13.6686L30.0964 13.4659L29.8875 13.4595V13.6686H30.0902ZM36.8267 13.6686L37.0283 13.6899L37.0533 13.4546L36.8169 13.4661L36.8267 13.6686ZM36.7727 16.0986V16.3013H37.0036L36.9737 16.0723L36.7727 16.0986ZM36.4622 16.0986L36.2606 16.1203L36.2801 16.3013H36.4622V16.0986ZM36.2192 14.8026L36.0275 14.8685L36.0281 14.8704L36.2192 14.8026ZM35.7197 14.1816L35.6183 14.3572L35.6236 14.3601L35.7197 14.1816ZM32.8172 14.0601L32.8777 14.2537L32.8847 14.2512L32.8172 14.0601ZM32.5202 14.3571L32.7114 14.4245V14.4245L32.5202 14.3571ZM32.4392 18.2856H32.2365V18.4883H32.4392V18.2856ZM34.0592 18.0696L34.1898 18.2247L34.1944 18.2207L34.0592 18.0696ZM34.3967 17.5431L34.2027 17.484L34.2011 17.4897L34.3967 17.5431ZM34.5452 16.7736L34.3446 16.7435L34.3438 16.7499L34.5452 16.7736ZM34.5857 16.5036V16.3008H34.4111L34.3852 16.4735L34.5857 16.5036ZM34.8962 16.5036L35.0984 16.518L35.1139 16.3008H34.8962V16.5036ZM34.9367 20.3376V20.5403H35.1532L35.139 20.3242L34.9367 20.3376ZM34.6262 20.3376L34.4255 20.3662L34.4504 20.5403H34.6262V20.3376ZM34.5452 19.6896L34.3439 19.7135L34.3439 19.7141L34.5452 19.6896ZM34.1672 18.8391L34.0272 18.9857L34.0305 18.9888L34.1672 18.8391ZM32.4392 18.5556V18.3528H32.2365V18.5556H32.4392ZM32.5202 22.5381L32.7114 22.4706V22.4706L32.5202 22.5381ZM32.8172 22.8486L32.746 23.0384L32.7529 23.041L32.76 23.0431L32.8172 22.8486ZM35.7872 22.7001L35.8779 22.8814L35.88 22.8803L35.7872 22.7001ZM36.4352 21.9846L36.6223 22.0625L36.6231 22.0607L36.4352 21.9846ZM36.7322 20.5266V20.3238H36.5485L36.5304 20.5067L36.7322 20.5266ZM37.0427 20.5266L37.2442 20.549L37.2692 20.3238H37.0427V20.5266ZM36.0302 12.1701V12.3728H36.2329V12.1701H36.0302ZM31.2782 12.1701H31.0755V12.3728H31.2782V12.1701ZM31.2782 11.8326V11.6298H31.0755V11.8326H31.2782ZM36.0302 11.8326H36.2329V11.6298H36.0302V11.8326ZM36.7995 21.4986C36.7995 22.0196 36.8314 22.6024 36.8949 23.2465L37.2985 23.2067C37.236 22.5727 37.2049 22.0035 37.2049 21.4986H36.7995ZM37.1056 23.024C36.4887 22.9968 35.4543 22.9833 34.0052 22.9833V23.3888C35.4541 23.3888 36.4807 23.4023 37.0878 23.4291L37.1056 23.024ZM34.0052 22.9833C32.2767 22.9833 30.9692 22.9968 30.084 23.0239L30.0964 23.4292C30.9752 23.4023 32.2777 23.3888 34.0052 23.3888V22.9833ZM30.2929 23.2266V22.9566H29.8875V23.2266H30.2929ZM30.1014 23.159C30.4284 23.1408 30.6887 23.1039 30.8634 23.0384L30.721 22.6587C30.6077 22.7012 30.4 22.7363 30.0789 22.7541L30.1014 23.159ZM30.8597 23.0397C31.0705 22.9653 31.2195 22.8164 31.2939 22.6055L30.9115 22.4706C30.8779 22.5658 30.8199 22.6238 30.7247 22.6574L30.8597 23.0397ZM31.2939 22.6055C31.3601 22.4179 31.3864 22.1409 31.3864 21.7956H30.981C30.981 22.1343 30.9533 22.3522 30.9115 22.4706L31.2939 22.6055ZM31.3864 21.7956V15.0996H30.981V21.7956H31.3864ZM31.3864 15.0996C31.3864 14.7543 31.3601 14.4772 31.2939 14.2896L30.9115 14.4245C30.9533 14.5429 30.981 14.7609 30.981 15.0996H31.3864ZM31.2939 14.2896C31.2195 14.0788 31.0705 13.9298 30.8597 13.8554L30.7247 14.2377C30.8199 14.2713 30.8779 14.3294 30.9115 14.4245L31.2939 14.2896ZM30.8634 13.8567C30.6887 13.7912 30.4284 13.7543 30.1014 13.7361L30.0789 14.141C30.4 14.1588 30.6077 14.1939 30.721 14.2364L30.8634 13.8567ZM30.2929 13.9386V13.6686H29.8875V13.9386H30.2929ZM30.084 13.8712C30.9692 13.8983 32.2767 13.9118 34.0052 13.9118V13.5063C32.2777 13.5063 30.9752 13.4928 30.0964 13.4659L30.084 13.8712ZM34.0052 13.9118C35.3283 13.9118 36.2731 13.8983 36.8365 13.8711L36.8169 13.4661C36.2643 13.4928 35.3281 13.5063 34.0052 13.5063V13.9118ZM36.6251 13.6472C36.5615 14.2464 36.5295 14.7848 36.5295 15.2616H36.9349C36.9349 14.8023 36.9659 14.2787 37.0283 13.6899L36.6251 13.6472ZM36.5295 15.2616C36.5295 15.6163 36.543 15.9052 36.5717 16.1248L36.9737 16.0723C36.9484 15.8779 36.9349 15.6088 36.9349 15.2616H36.5295ZM36.7727 15.8958H36.4622V16.3013H36.7727V15.8958ZM36.6638 16.0769C36.6004 15.4884 36.5175 15.037 36.4103 14.7348L36.0281 14.8704C36.1189 15.1262 36.198 15.5388 36.2606 16.1203L36.6638 16.0769ZM36.4109 14.7367C36.2979 14.408 36.1013 14.1568 35.8158 14.0031L35.6236 14.3601C35.8061 14.4584 35.9424 14.6211 36.0275 14.8685L36.4109 14.7367ZM35.821 14.006C35.5408 13.8443 35.1422 13.7763 34.6532 13.7763V14.1818C35.1182 14.1818 35.4306 14.2489 35.6184 14.3572L35.821 14.006ZM34.6532 13.7763H33.5327V14.1818H34.6532V13.7763ZM33.5327 13.7763C33.2039 13.7763 32.9367 13.8029 32.7497 13.8689L32.8847 14.2512C33.0037 14.2092 33.2135 14.1818 33.5327 14.1818V13.7763ZM32.7567 13.8666C32.5466 13.9322 32.4024 14.0816 32.329 14.2896L32.7114 14.4245C32.746 14.3265 32.7998 14.2779 32.8777 14.2536L32.7567 13.8666ZM32.329 14.2896C32.2628 14.4772 32.2365 14.7543 32.2365 15.0996H32.6419C32.6419 14.7609 32.6696 14.5429 32.7114 14.4245L32.329 14.2896ZM32.2365 15.0996V18.2856H32.6419V15.0996H32.2365ZM32.4392 18.4883H33.3302V18.0828H32.4392V18.4883ZM33.3302 18.4883C33.6737 18.4883 33.9698 18.4099 34.1898 18.2246L33.9286 17.9145C33.8066 18.0172 33.6167 18.0828 33.3302 18.0828V18.4883ZM34.1944 18.2207C34.391 18.0448 34.5268 17.8365 34.5923 17.5964L34.2011 17.4897C34.1586 17.6456 34.0694 17.7884 33.924 17.9185L34.1944 18.2207ZM34.5906 17.6021C34.6583 17.3798 34.7097 17.1106 34.7465 16.7973L34.3438 16.7499C34.3087 17.0485 34.2611 17.2923 34.2027 17.484L34.5906 17.6021ZM34.7457 16.8036L34.7862 16.5336L34.3852 16.4735L34.3447 16.7435L34.7457 16.8036ZM34.5857 16.7063H34.8962V16.3008H34.5857V16.7063ZM34.694 16.4891C34.6666 16.8729 34.653 17.3008 34.653 17.7726H35.0584C35.0584 17.3083 35.0718 16.8902 35.0984 16.518L34.694 16.4891ZM34.653 17.7726V18.4206H35.0584V17.7726H34.653ZM34.653 18.4206C34.653 18.8862 34.6803 19.5303 34.7344 20.3509L35.139 20.3242C35.0851 19.5068 35.0584 18.873 35.0584 18.4206H34.653ZM34.9367 20.1348H34.6262V20.5403H34.9367V20.1348ZM34.8269 20.3089C34.8183 20.2485 34.7916 20.0353 34.7464 19.665L34.3439 19.7141C34.3888 20.0818 34.4161 20.3006 34.4255 20.3662L34.8269 20.3089ZM34.7465 19.6656C34.6978 19.2567 34.5579 18.9213 34.3039 18.6893L34.0305 18.9888C34.1905 19.1348 34.3026 19.3665 34.3439 19.7135L34.7465 19.6656ZM34.3072 18.6924C34.0608 18.4572 33.7254 18.3528 33.3302 18.3528V18.7583C33.655 18.7583 33.8776 18.8429 34.0272 18.9857L34.3072 18.6924ZM33.3302 18.3528H32.4392V18.7583H33.3302V18.3528ZM32.2365 18.5556V21.7956H32.6419V18.5556H32.2365ZM32.2365 21.7956C32.2365 22.1409 32.2628 22.4179 32.329 22.6055L32.7114 22.4706C32.6696 22.3522 32.6419 22.1343 32.6419 21.7956H32.2365ZM32.329 22.6055C32.4017 22.8115 32.5425 22.9621 32.746 23.0384L32.8884 22.6587C32.8039 22.6271 32.7467 22.5706 32.7114 22.4706L32.329 22.6055ZM32.76 23.0431C32.9422 23.0967 33.205 23.1188 33.5327 23.1188V22.7133C33.2124 22.7133 32.9982 22.6905 32.8744 22.6541L32.76 23.0431ZM33.5327 23.1188H34.5182V22.7133H33.5327V23.1188ZM34.5182 23.1188C35.0878 23.1188 35.5481 23.0463 35.8779 22.8814L35.6965 22.5187C35.4503 22.6419 35.0646 22.7133 34.5182 22.7133V23.1188ZM35.88 22.8803C36.2218 22.7042 36.47 22.4283 36.6223 22.0625L36.2481 21.9066C36.1304 22.1889 35.9466 22.3899 35.6943 22.5198L35.88 22.8803ZM36.6231 22.0607C36.769 21.7009 36.8703 21.1921 36.934 20.5465L36.5304 20.5067C36.4681 21.139 36.3714 21.6023 36.2473 21.9084L36.6231 22.0607ZM36.7322 20.7293H37.0427V20.3238H36.7322V20.7293ZM36.8412 20.5042C36.813 20.7578 36.7995 21.0902 36.7995 21.4986H37.2049C37.2049 21.0969 37.2184 20.7813 37.2442 20.549L36.8412 20.5042ZM36.0302 11.9673H31.2782V12.3728H36.0302V11.9673ZM31.4809 12.1701V11.8326H31.0755V12.1701H31.4809ZM31.2782 12.0353H36.0302V11.6298H31.2782V12.0353ZM35.8275 11.8326V12.1701H36.2329V11.8326H35.8275ZM46.0074 13.6686L46.2091 13.6885L46.2319 13.4576L46.0001 13.466L46.0074 13.6686ZM45.9534 16.5036V16.7063H46.176L46.1552 16.4846L45.9534 16.5036ZM45.6429 16.5036L45.4412 16.5245L45.4601 16.7063H45.6429V16.5036ZM45.3729 14.9646L45.1796 15.0256L45.18 15.0271L45.3729 14.9646ZM44.8059 14.2221L44.7015 14.396L44.7059 14.3984L44.8059 14.2221ZM42.8349 13.9791V13.7763H42.6321V13.9791H42.8349ZM42.9429 22.4841L42.756 22.5627V22.5627L42.9429 22.4841ZM43.3209 22.8351L43.2539 23.0264V23.0264L43.3209 22.8351ZM44.1984 22.9566H44.4011V22.7626L44.2074 22.754L44.1984 22.9566ZM44.1984 23.2266L44.1867 23.429L44.4011 23.4413V23.2266H44.1984ZM40.2159 23.2266H40.0131V23.4424L40.2285 23.4289L40.2159 23.2266ZM40.2159 22.9566L40.2069 22.754L40.0131 22.7626V22.9566H40.2159ZM41.0934 22.8351L41.1604 23.0264V23.0264L41.0934 22.8351ZM41.4714 22.4841L41.6582 22.5627V22.5627L41.4714 22.4841ZM41.5794 13.9791H41.7821V13.7763H41.5794V13.9791ZM39.6084 14.2221L39.7084 14.3985L39.7127 14.3959L39.6084 14.2221ZM39.0414 14.9646L39.2342 15.0271L39.2347 15.0256L39.0414 14.9646ZM38.7714 16.5036V16.7063H38.9541L38.973 16.5245L38.7714 16.5036ZM38.4609 16.5036L38.259 16.4846L38.2382 16.7063H38.4609V16.5036ZM38.4069 13.6686L38.4142 13.466L38.1824 13.4576L38.2051 13.6885L38.4069 13.6686ZM45.8056 13.6487C45.7421 14.2927 45.7101 14.8755 45.7101 15.3966H46.1156C46.1156 14.8916 46.1466 14.3224 46.2091 13.6885L45.8056 13.6487ZM45.7101 15.3966C45.7101 15.8498 45.7237 16.2258 45.7515 16.5225L46.1552 16.4846C46.1291 16.2054 46.1156 15.8433 46.1156 15.3966H45.7101ZM45.9534 16.3008H45.6429V16.7063H45.9534V16.3008ZM45.8445 16.4826C45.7722 15.7865 45.6806 15.2561 45.5657 14.902L45.18 15.0271C45.2812 15.3391 45.3696 15.8347 45.4412 16.5245L45.8445 16.4826ZM45.5662 14.9035C45.4454 14.5208 45.2273 14.2279 44.9058 14.0457L44.7059 14.3984C44.9244 14.5223 45.0844 14.7243 45.1796 15.0256L45.5662 14.9035ZM44.9102 14.0482C44.5928 13.8578 44.134 13.7763 43.5639 13.7763V14.1818C44.1097 14.1818 44.479 14.2624 44.7016 14.3959L44.9102 14.0482ZM43.5639 13.7763H42.8349V14.1818H43.5639V13.7763ZM42.6321 13.9791V21.6606H43.0376V13.9791H42.6321ZM42.6321 21.6606C42.6321 22.0434 42.6674 22.3523 42.756 22.5627L43.1297 22.4054C43.0743 22.2738 43.0376 22.0338 43.0376 21.6606H42.6321ZM42.756 22.5627C42.851 22.7882 43.0215 22.9451 43.2539 23.0264L43.3879 22.6437C43.2602 22.599 43.1788 22.5219 43.1297 22.4054L42.756 22.5627ZM43.2539 23.0264C43.4638 23.0999 43.7817 23.141 44.1894 23.1591L44.2074 22.754C43.8051 22.7361 43.538 22.6963 43.3879 22.6437L43.2539 23.0264ZM43.9956 22.9566V23.2266H44.4011V22.9566H43.9956ZM44.2101 23.0242C43.7362 22.9968 43.0702 22.9833 42.2139 22.9833V23.3888C43.0676 23.3888 43.7245 23.4023 44.1867 23.429L44.2101 23.0242ZM42.2139 22.9833C41.3131 22.9833 40.6419 22.9968 40.2032 23.0242L40.2285 23.4289C40.6539 23.4023 41.3146 23.3888 42.2139 23.3888V22.9833ZM40.4186 23.2266V22.9566H40.0131V23.2266H40.4186ZM40.2249 23.1591C40.6326 23.141 40.9505 23.0999 41.1604 23.0264L41.0264 22.6437C40.8763 22.6963 40.6092 22.7361 40.2069 22.754L40.2249 23.1591ZM41.1604 23.0264C41.3927 22.9451 41.5633 22.7882 41.6582 22.5627L41.2845 22.4054C41.2355 22.5219 41.154 22.599 41.0264 22.6437L41.1604 23.0264ZM41.6582 22.5627C41.7468 22.3523 41.7821 22.0434 41.7821 21.6606H41.3766C41.3766 22.0338 41.3399 22.2738 41.2845 22.4054L41.6582 22.5627ZM41.7821 21.6606V13.9791H41.3766V21.6606H41.7821ZM41.5794 13.7763H40.8504V14.1818H41.5794V13.7763ZM40.8504 13.7763C40.2802 13.7763 39.8215 13.8578 39.5041 14.0482L39.7127 14.3959C39.9353 14.2624 40.3046 14.1818 40.8504 14.1818V13.7763ZM39.5084 14.0457C39.1869 14.2279 38.9689 14.5208 38.8481 14.9035L39.2347 15.0256C39.3298 14.7243 39.4898 14.5223 39.7083 14.3984L39.5084 14.0457ZM38.8485 14.902C38.7337 15.2561 38.6421 15.7865 38.5697 16.4826L38.973 16.5245C39.0447 15.8347 39.1331 15.3391 39.2342 15.0271L38.8485 14.902ZM38.7714 16.3008H38.4609V16.7063H38.7714V16.3008ZM38.6627 16.5225C38.6906 16.2258 38.7041 15.8498 38.7041 15.3966H38.2986C38.2986 15.8433 38.2852 16.2054 38.259 16.4846L38.6627 16.5225ZM38.7041 15.3966C38.7041 14.8755 38.6721 14.2927 38.6086 13.6487L38.2051 13.6885C38.2676 14.3224 38.2986 14.8916 38.2986 15.3966H38.7041ZM38.3996 13.8712C39.1506 13.8983 40.4229 13.9118 42.2139 13.9118V13.5063C40.4229 13.5063 39.1572 13.4928 38.4142 13.466L38.3996 13.8712ZM42.2139 13.9118C43.9959 13.9118 45.2637 13.8983 46.0147 13.8712L46.0001 13.466C45.2571 13.4928 43.9958 13.5063 42.2139 13.5063V13.9118ZM53.6875 22.0926L53.8765 22.0194L53.8765 22.0192L53.6875 22.0926ZM54.619 22.9566H54.8217V22.7626L54.628 22.754L54.619 22.9566ZM54.619 23.2266L54.6038 23.4287L54.8217 23.4451V23.2266H54.619ZM51.4465 23.2266H51.2437V23.4443L51.4609 23.4288L51.4465 23.2266ZM51.4465 22.9566L51.4358 22.7541L51.2437 22.7642V22.9566H51.4465ZM52.1755 22.8351L52.2568 23.0209L52.2618 23.0185L52.1755 22.8351ZM52.243 21.8226L52.0529 21.8933L52.0547 21.8979L52.243 21.8226ZM51.4195 19.6086L51.6095 19.5379L51.5604 19.4058H51.4195V19.6086ZM48.1525 19.6086V19.4058H48.0135L47.9634 19.5354L48.1525 19.6086ZM47.599 21.0396L47.4099 20.9664L47.4088 20.9691L47.599 21.0396ZM47.6125 22.7541L47.5 22.9228L47.5036 22.9251L47.6125 22.7541ZM48.5035 22.9566H48.7062V22.7584L48.5081 22.7539L48.5035 22.9566ZM48.5035 23.2266L48.4928 23.429L48.7062 23.4403V23.2266H48.5035ZM45.9385 23.2266H45.7357V23.4506L45.9586 23.4283L45.9385 23.2266ZM45.9385 22.9566L45.8911 22.7594L45.7357 22.7967V22.9566H45.9385ZM47.005 21.7821L46.8159 21.7088L46.8159 21.7089L47.005 21.7821ZM50.1775 13.6011V13.3983H50.0386L49.9884 13.5278L50.1775 13.6011ZM50.3935 13.6011L50.5825 13.5277L50.5323 13.3983H50.3935V13.6011ZM51.3115 19.3386V19.5413H51.6039L51.5013 19.2674L51.3115 19.3386ZM49.7995 15.3021L49.9893 15.2309L49.8011 14.7286L49.61 15.2298L49.7995 15.3021ZM48.2605 19.3386L48.071 19.2663L47.9662 19.5413H48.2605V19.3386ZM52.648 12.1701V12.3728H52.8507V12.1701H52.648ZM47.896 12.1701H47.6932V12.3728H47.896V12.1701ZM47.896 11.8326V11.6298H47.6932V11.8326H47.896ZM52.648 11.8326H52.8507V11.6298H52.648V11.8326ZM53.4984 22.1657C53.7275 22.7577 54.0883 23.1359 54.61 23.1591L54.628 22.754C54.3397 22.7412 54.0794 22.5434 53.8765 22.0194L53.4984 22.1657ZM54.4162 22.9566V23.2266H54.8217V22.9566H54.4162ZM54.6341 23.0244C54.2669 22.9968 53.7797 22.9833 53.1745 22.9833V23.3888C53.7753 23.3888 54.2511 23.4023 54.6038 23.4287L54.6341 23.0244ZM53.1745 22.9833C52.3995 22.9833 51.8176 22.9968 51.432 23.0243L51.4609 23.4288C51.8314 23.4023 52.4014 23.3888 53.1745 23.3888V22.9833ZM51.6492 23.2266V22.9566H51.2437V23.2266H51.6492ZM51.4571 23.159C51.8016 23.1409 52.0766 23.0996 52.2567 23.0208L52.0942 22.6493C51.9863 22.6965 51.7753 22.7362 51.4358 22.7541L51.4571 23.159ZM52.2618 23.0185C52.3689 22.9681 52.459 22.8936 52.5209 22.7918C52.5822 22.6907 52.6077 22.576 52.6077 22.4571H52.2022C52.2022 22.5182 52.1894 22.5564 52.1743 22.5813C52.1596 22.6055 52.135 22.63 52.0891 22.6516L52.2618 23.0185ZM52.6077 22.4571C52.6077 22.2644 52.5417 22.0236 52.4312 21.7473L52.0547 21.8979C52.1602 22.1615 52.2022 22.3437 52.2022 22.4571H52.6077ZM52.433 21.7519L51.6095 19.5379L51.2294 19.6792L52.0529 21.8932L52.433 21.7519ZM51.4195 19.4058H48.1525V19.8113H51.4195V19.4058ZM47.9634 19.5354L47.4099 20.9664L47.788 21.1127L48.3415 19.6817L47.9634 19.5354ZM47.4088 20.9691C47.2274 21.459 47.1262 21.8565 47.1262 22.1466H47.5317C47.5317 21.9326 47.6105 21.5921 47.7891 21.11L47.4088 20.9691ZM47.1262 22.1466C47.1262 22.4757 47.2413 22.7503 47.5 22.9227L47.7249 22.5854C47.6056 22.5058 47.5317 22.3754 47.5317 22.1466H47.1262ZM47.5036 22.9251C47.7475 23.0803 48.0884 23.1499 48.4989 23.1592L48.5081 22.7539C48.1265 22.7452 47.8734 22.6798 47.7213 22.583L47.5036 22.9251ZM48.3007 22.9566V23.2266H48.7062V22.9566H48.3007ZM48.5141 23.0241C47.9975 22.9969 47.4765 22.9833 46.951 22.9833V23.3888C47.4695 23.3888 47.9834 23.4022 48.4928 23.429L48.5141 23.0241ZM46.951 22.9833C46.5422 22.9833 46.1974 22.9969 45.9183 23.0248L45.9586 23.4283C46.2195 23.4022 46.5498 23.3888 46.951 23.3888V22.9833ZM46.1412 23.2266V22.9566H45.7357V23.2266H46.1412ZM45.9858 23.1537C46.5308 23.0229 46.923 22.5561 47.1941 21.8552L46.8159 21.7089C46.5649 22.358 46.2461 22.6742 45.8911 22.7594L45.9858 23.1537ZM47.194 21.8554L50.3665 13.6744L49.9884 13.5278L46.8159 21.7088L47.194 21.8554ZM50.1775 13.8038H50.3935V13.3983H50.1775V13.8038ZM50.2044 13.6744L53.4984 22.1659L53.8765 22.0192L50.5825 13.5277L50.2044 13.6744ZM51.5013 19.2674L49.9893 15.2309L49.6096 15.3732L51.1216 19.4097L51.5013 19.2674ZM49.61 15.2298L48.071 19.2663L48.4499 19.4108L49.9889 15.3743L49.61 15.2298ZM48.2605 19.5413H51.3115V19.1358H48.2605V19.5413ZM52.648 11.9673H47.896V12.3728H52.648V11.9673ZM48.0987 12.1701V11.8326H47.6932V12.1701H48.0987ZM47.896 12.0353H52.648V11.6298H47.896V12.0353ZM52.4452 11.8326V12.1701H52.8507V11.8326H52.4452ZM15.5839 33.1776H15.3812V33.3545L15.5565 33.3784L15.5839 33.1776ZM17.7034 34.0416L17.5571 34.1819L17.5586 34.1834L17.7034 34.0416ZM17.9464 36.9711L18.1157 37.0826V37.0826L17.9464 36.9711ZM16.8259 37.9026L16.9083 38.0878L16.9111 38.0865L16.8259 37.9026ZM14.4769 38.2131L14.4876 38.0106L14.4832 38.0104L14.4769 38.2131ZM11.1019 38.2266H10.8992V38.4443L11.1164 38.4288L11.1019 38.2266ZM11.1019 37.9566L11.0907 37.7541L10.8992 37.7648V37.9566H11.1019ZM11.8039 37.8486L11.7364 37.6573L11.7327 37.6587L11.8039 37.8486ZM12.1144 29.3571L11.9232 29.4245V29.4245L12.1144 29.3571ZM11.8039 29.0466L11.7327 29.2364L11.7364 29.2377L11.8039 29.0466ZM11.1019 28.9386H10.8992V29.1303L11.0907 29.141L11.1019 28.9386ZM11.1019 28.6686L11.1164 28.4663L10.8992 28.4508V28.6686H11.1019ZM12.7489 28.7091V28.9118L12.7508 28.9118L12.7489 28.7091ZM14.2069 28.6956L14.2088 28.8985L14.2176 28.898L14.2069 28.6956ZM16.8934 29.2626L16.7671 29.4212L16.7685 29.4223L16.8934 29.2626ZM17.1364 32.2056L16.9784 32.0785L16.9768 32.0806L17.1364 32.2056ZM15.5839 33.1506L15.525 32.9566L15.3812 33.0003V33.1506H15.5839ZM13.8154 29.0331L13.7341 28.8473L13.7297 28.8493L13.8154 29.0331ZM13.5319 29.3706L13.7242 29.4347V29.4347L13.5319 29.3706ZM13.4509 33.1506H13.2482V33.3533H13.4509V33.1506ZM15.8944 32.5566L15.7309 32.4367L15.7305 32.4373L15.8944 32.5566ZM16.4074 33.9336L16.2658 34.0786L16.2675 34.0803L16.4074 33.9336ZM13.4509 33.3801V33.1773H13.2482V33.3801H13.4509ZM13.5319 37.5111L13.7231 37.4436V37.4436L13.5319 37.5111ZM13.8154 37.8351L13.7297 38.0188L13.7368 38.0221L13.7442 38.0249L13.8154 37.8351ZM15.5565 33.3784C16.5278 33.5109 17.1804 33.7891 17.5571 34.1819L17.8497 33.9012C17.3805 33.412 16.62 33.1142 15.6113 32.9767L15.5565 33.3784ZM17.5586 34.1834C17.9439 34.577 18.1352 35.0479 18.1352 35.6076H18.5406C18.5406 34.9433 18.3089 34.3701 17.8483 33.8997L17.5586 34.1834ZM18.1352 35.6076C18.1352 36.0843 18.0145 36.4993 17.7771 36.8595L18.1157 37.0826C18.4003 36.6508 18.5406 36.1568 18.5406 35.6076H18.1352ZM17.7771 36.8595C17.5395 37.2201 17.1971 37.5073 16.7407 37.7186L16.9111 38.0865C17.4268 37.8478 17.8313 37.514 18.1157 37.0826L17.7771 36.8595ZM16.7436 37.7173C16.2892 37.9193 15.7425 38.0238 15.0979 38.0238V38.4293C15.7853 38.4293 16.3907 38.3179 16.9083 38.0878L16.7436 37.7173ZM15.0979 38.0238C14.8571 38.0238 14.6539 38.0194 14.4876 38.0106L14.4663 38.4155C14.6419 38.4248 14.8527 38.4293 15.0979 38.4293V38.0238ZM14.4832 38.0104C13.9052 37.9924 13.3361 37.9833 12.7759 37.9833V38.3888C13.3317 38.3888 13.8966 38.3978 14.4706 38.4157L14.4832 38.0104ZM12.7759 37.9833C12.0367 37.9833 11.4729 37.9968 11.0875 38.0243L11.1164 38.4288C11.487 38.4023 12.0391 38.3888 12.7759 38.3888V37.9833ZM11.3046 38.2266V37.9566H10.8992V38.2266H11.3046ZM11.1132 38.159C11.4401 38.1408 11.7004 38.1039 11.8751 38.0384L11.7327 37.6587C11.6194 37.7012 11.4117 37.7363 11.0907 37.7541L11.1132 38.159ZM11.8714 38.0397C12.0822 37.9653 12.2312 37.8164 12.3056 37.6055L11.9232 37.4706C11.8896 37.5658 11.8316 37.6238 11.7364 37.6574L11.8714 38.0397ZM12.3056 37.6055C12.3718 37.4179 12.3981 37.1409 12.3981 36.7956H11.9927C11.9927 37.1343 11.965 37.3522 11.9232 37.4706L12.3056 37.6055ZM12.3981 36.7956V30.0996H11.9927V36.7956H12.3981ZM12.3981 30.0996C12.3981 29.7543 12.3718 29.4772 12.3056 29.2896L11.9232 29.4245C11.965 29.5429 11.9927 29.7609 11.9927 30.0996H12.3981ZM12.3056 29.2896C12.2312 29.0788 12.0822 28.9298 11.8714 28.8554L11.7364 29.2377C11.8316 29.2713 11.8896 29.3294 11.9232 29.4245L12.3056 29.2896ZM11.8751 28.8567C11.7004 28.7912 11.4401 28.7543 11.1132 28.7361L11.0907 29.141C11.4117 29.1588 11.6194 29.1939 11.7327 29.2364L11.8751 28.8567ZM11.3046 28.9386V28.6686H10.8992V28.9386H11.3046ZM11.0875 28.8708C11.4728 28.8983 12.0276 28.9118 12.7489 28.9118V28.5063C12.0303 28.5063 11.487 28.4928 11.1164 28.4663L11.0875 28.8708ZM12.7508 28.9118L14.2088 28.8983L14.205 28.4928L12.747 28.5063L12.7508 28.9118ZM14.2176 28.898C14.3842 28.8892 14.5741 28.8848 14.7874 28.8848V28.4793C14.5687 28.4793 14.3716 28.4839 14.1963 28.4931L14.2176 28.898ZM14.7874 28.8848C15.6806 28.8848 16.3306 29.0736 16.7671 29.4212L17.0197 29.104C16.4842 28.6775 15.7302 28.4793 14.7874 28.4793V28.8848ZM16.7685 29.4223C17.2134 29.7701 17.4332 30.2237 17.4332 30.8016H17.8386C17.8386 30.1014 17.5634 29.529 17.0183 29.1028L16.7685 29.4223ZM17.4332 30.8016C17.4332 31.2765 17.283 31.6998 16.9784 32.0785L17.2944 32.3326C17.6558 31.8833 17.8386 31.3707 17.8386 30.8016H17.4332ZM16.9768 32.0806C16.6871 32.4508 16.212 32.7479 15.525 32.9566L15.6428 33.3445C16.3778 33.1213 16.9378 32.7884 17.2961 32.3305L16.9768 32.0806ZM15.3812 33.1506V33.1776H15.7866V33.1506H15.3812ZM14.4499 28.7358C14.1613 28.7358 13.9165 28.7676 13.7342 28.8473L13.8967 29.2188C14.0024 29.1726 14.1805 29.1413 14.4499 29.1413V28.7358ZM13.7297 28.8493C13.5367 28.9394 13.4084 29.1001 13.3396 29.3065L13.7242 29.4347C13.7635 29.317 13.8241 29.2527 13.9011 29.2168L13.7297 28.8493ZM13.3396 29.3065C13.275 29.5001 13.2482 29.7696 13.2482 30.0996H13.6536C13.6536 29.7815 13.6808 29.565 13.7242 29.4347L13.3396 29.3065ZM13.2482 30.0996V33.1506H13.6536V30.0996H13.2482ZM13.4509 33.3533H14.3554V32.9478H13.4509V33.3533ZM14.3554 33.3533C15.1241 33.3533 15.7158 33.1469 16.0584 32.6758L15.7305 32.4373C15.497 32.7583 15.0628 32.9478 14.3554 32.9478V33.3533ZM16.0579 32.6765C16.3876 32.2269 16.5426 31.6452 16.5426 30.9501H16.1372C16.1372 31.5869 15.9953 32.0762 15.7309 32.4367L16.0579 32.6765ZM16.5426 30.9501C16.5426 30.25 16.3893 29.6883 16.0457 29.3031L15.7431 29.573C15.9936 29.8538 16.1372 30.3001 16.1372 30.9501H16.5426ZM16.0457 29.3031C15.6946 28.9094 15.145 28.7358 14.4499 28.7358V29.1413C15.0868 29.1413 15.5003 29.3007 15.7431 29.573L16.0457 29.3031ZM14.4634 38.1188C15.3329 38.1188 16.0228 37.9156 16.4953 37.4735C16.9703 37.0289 17.1906 36.3759 17.1906 35.5536H16.7852C16.7852 36.3062 16.5847 36.8344 16.2183 37.1774C15.8492 37.5227 15.2769 37.7133 14.4634 37.7133V38.1188ZM17.1906 35.5536C17.1906 34.8062 16.9864 34.2055 16.5473 33.7868L16.2675 34.0803C16.6024 34.3996 16.7852 34.879 16.7852 35.5536H17.1906ZM16.549 33.7885C16.1162 33.3659 15.4451 33.1773 14.5849 33.1773V33.5828C15.3988 33.5828 15.9427 33.7632 16.2658 34.0786L16.549 33.7885ZM14.5849 33.1773H13.4509V33.5828H14.5849V33.1773ZM13.2482 33.3801V36.7956H13.6536V33.3801H13.2482ZM13.2482 36.7956C13.2482 37.1244 13.2748 37.3916 13.3407 37.5785L13.7231 37.4436C13.6811 37.3245 13.6536 37.1148 13.6536 36.7956H13.2482ZM13.3407 37.5785C13.4111 37.7778 13.5407 37.9306 13.7297 38.0188L13.9011 37.6513C13.8201 37.6135 13.7608 37.5503 13.7231 37.4436L13.3407 37.5785ZM13.7442 38.0249C13.923 38.0919 14.1685 38.1188 14.4634 38.1188V37.7133C14.1823 37.7133 13.9958 37.6862 13.8866 37.6452L13.7442 38.0249ZM23.1289 28.9386L23.1401 29.141L23.3316 29.1303V28.9386H23.1289ZM22.4134 29.0466L22.3459 28.8553L22.3422 28.8567L22.4134 29.0466ZM22.1164 29.3571L22.3076 29.4245V29.4245L22.1164 29.3571ZM22.1164 37.5381L22.3076 37.4706V37.4706L22.1164 37.5381ZM22.4134 37.8486L22.3422 38.0384L22.3459 38.0397L22.4134 37.8486ZM23.1289 37.9566H23.3316V37.7648L23.1401 37.7541L23.1289 37.9566ZM23.1289 38.2266L23.1157 38.4289L23.3316 38.443V38.2266H23.1289ZM19.6864 38.2266H19.4836V38.4443L19.7008 38.4288L19.6864 38.2266ZM19.6864 37.9566L19.6751 37.7541L19.4836 37.7648V37.9566H19.6864ZM20.3884 37.8486L20.3209 37.6573L20.3172 37.6587L20.3884 37.8486ZM20.6989 29.3571L20.5077 29.4245V29.4245L20.6989 29.3571ZM20.3884 29.0466L20.3172 29.2364L20.3209 29.2377L20.3884 29.0466ZM19.6864 28.9386H19.4836V29.1303L19.6751 29.141L19.6864 28.9386ZM19.6864 28.6686L19.7008 28.4663L19.4836 28.4508V28.6686H19.6864ZM23.1289 28.6686H23.3316V28.4525L23.116 28.4662L23.1289 28.6686ZM23.7904 27.1701V27.3728H23.9931V27.1701H23.7904ZM19.0384 27.1701H18.8356V27.3728H19.0384V27.1701ZM19.0384 26.8326V26.6298H18.8356V26.8326H19.0384ZM23.7904 26.8326H23.9931V26.6298H23.7904V26.8326ZM23.1176 28.7361C22.7896 28.7544 22.5272 28.7914 22.3459 28.8554L22.4809 29.2377C22.6055 29.1937 22.8202 29.1588 23.1401 29.141L23.1176 28.7361ZM22.3422 28.8567C22.1386 28.9331 21.9979 29.0836 21.9252 29.2896L22.3076 29.4245C22.3429 29.3245 22.4001 29.2681 22.4846 29.2364L22.3422 28.8567ZM21.9252 29.2896C21.859 29.4772 21.8326 29.7543 21.8326 30.0996H22.2381C22.2381 29.7609 22.2658 29.5429 22.3076 29.4245L21.9252 29.2896ZM21.8326 30.0996V36.7956H22.2381V30.0996H21.8326ZM21.8326 36.7956C21.8326 37.1409 21.859 37.4179 21.9252 37.6055L22.3076 37.4706C22.2658 37.3522 22.2381 37.1343 22.2381 36.7956H21.8326ZM21.9252 37.6055C21.9979 37.8115 22.1386 37.9621 22.3422 38.0384L22.4846 37.6587C22.4001 37.6271 22.3429 37.5706 22.3076 37.4706L21.9252 37.6055ZM22.3459 38.0397C22.5272 38.1037 22.7896 38.1408 23.1176 38.159L23.1401 37.7541C22.8202 37.7364 22.6055 37.7014 22.4809 37.6574L22.3459 38.0397ZM22.9261 37.9566V38.2266H23.3316V37.9566H22.9261ZM23.1421 38.0243C22.7216 37.9968 22.145 37.9833 21.4144 37.9833V38.3888C22.1417 38.3888 22.7082 38.4023 23.1157 38.4289L23.1421 38.0243ZM21.4144 37.9833C20.6394 37.9833 20.0575 37.9968 19.6719 38.0243L19.7008 38.4288C20.0713 38.4023 20.6413 38.3888 21.4144 38.3888V37.9833ZM19.8891 38.2266V37.9566H19.4836V38.2266H19.8891ZM19.6976 38.159C20.0246 38.1408 20.2849 38.1039 20.4596 38.0384L20.3172 37.6587C20.2039 37.7012 19.9962 37.7363 19.6751 37.7541L19.6976 38.159ZM20.4559 38.0397C20.6667 37.9653 20.8157 37.8164 20.8901 37.6055L20.5077 37.4706C20.4741 37.5658 20.4161 37.6238 20.3209 37.6574L20.4559 38.0397ZM20.8901 37.6055C20.9563 37.4179 20.9826 37.1409 20.9826 36.7956H20.5771C20.5771 37.1343 20.5495 37.3522 20.5077 37.4706L20.8901 37.6055ZM20.9826 36.7956V30.0996H20.5771V36.7956H20.9826ZM20.9826 30.0996C20.9826 29.7543 20.9563 29.4772 20.8901 29.2896L20.5077 29.4245C20.5495 29.5429 20.5771 29.7609 20.5771 30.0996H20.9826ZM20.8901 29.2896C20.8157 29.0788 20.6667 28.9298 20.4559 28.8554L20.3209 29.2377C20.4161 29.2713 20.4741 29.3294 20.5077 29.4245L20.8901 29.2896ZM20.4596 28.8567C20.2849 28.7912 20.0246 28.7543 19.6976 28.7361L19.6751 29.141C19.9962 29.1588 20.2039 29.1939 20.3172 29.2364L20.4596 28.8567ZM19.8891 28.9386V28.6686H19.4836V28.9386H19.8891ZM19.6719 28.8708C20.0575 28.8983 20.6394 28.9118 21.4144 28.9118V28.5063C20.6413 28.5063 20.0713 28.4928 19.7008 28.4663L19.6719 28.8708ZM21.4144 28.9118C22.1362 28.9118 22.7126 28.8983 23.1418 28.8709L23.116 28.4662C22.6992 28.4928 22.1326 28.5063 21.4144 28.5063V28.9118ZM22.9261 28.6686V28.9386H23.3316V28.6686H22.9261ZM23.7904 26.9673H19.0384V27.3728H23.7904V26.9673ZM19.2411 27.1701V26.8326H18.8356V27.1701H19.2411ZM19.0384 27.0353H23.7904V26.6298H19.0384V27.0353ZM23.5876 26.8326V27.1701H23.9931V26.8326H23.5876ZM29.0087 33.1776H28.806V33.3545L28.9813 33.3784L29.0087 33.1776ZM31.1282 34.0416L30.9819 34.1819L30.9834 34.1834L31.1282 34.0416ZM31.3712 36.9711L31.5405 37.0826V37.0826L31.3712 36.9711ZM30.2507 37.9026L30.3331 38.0878L30.3359 38.0865L30.2507 37.9026ZM27.9017 38.2131L27.9124 38.0106L27.908 38.0104L27.9017 38.2131ZM24.5267 38.2266H24.324V38.4443L24.5412 38.4288L24.5267 38.2266ZM24.5267 37.9566L24.5155 37.7541L24.324 37.7648V37.9566H24.5267ZM25.2287 37.8486L25.1612 37.6573L25.1575 37.6587L25.2287 37.8486ZM25.5392 29.3571L25.348 29.4245V29.4245L25.5392 29.3571ZM25.2287 29.0466L25.1575 29.2364L25.1612 29.2377L25.2287 29.0466ZM24.5267 28.9386H24.324V29.1303L24.5155 29.141L24.5267 28.9386ZM24.5267 28.6686L24.5412 28.4663L24.324 28.4508V28.6686H24.5267ZM26.1737 28.7091V28.9118L26.1756 28.9118L26.1737 28.7091ZM27.6317 28.6956L27.6336 28.8985L27.6424 28.898L27.6317 28.6956ZM30.3182 29.2626L30.1919 29.4212L30.1933 29.4223L30.3182 29.2626ZM30.5612 32.2056L30.4032 32.0785L30.4016 32.0806L30.5612 32.2056ZM29.0087 33.1506L28.9498 32.9566L28.806 33.0003V33.1506H29.0087ZM27.2402 29.0331L27.1589 28.8473L27.1545 28.8493L27.2402 29.0331ZM26.9567 29.3706L27.149 29.4347V29.4347L26.9567 29.3706ZM26.8757 33.1506H26.673V33.3533H26.8757V33.1506ZM29.3192 32.5566L29.1557 32.4367L29.1553 32.4373L29.3192 32.5566ZM29.8322 33.9336L29.6906 34.0786L29.6923 34.0803L29.8322 33.9336ZM26.8757 33.3801V33.1773H26.673V33.3801H26.8757ZM26.9567 37.5111L27.1479 37.4436V37.4436L26.9567 37.5111ZM27.2402 37.8351L27.1545 38.0188L27.1616 38.0221L27.169 38.0249L27.2402 37.8351ZM28.9813 33.3784C29.9526 33.5109 30.6052 33.7891 30.9819 34.1819L31.2745 33.9012C30.8053 33.412 30.0448 33.1142 29.0361 32.9767L28.9813 33.3784ZM30.9834 34.1834C31.3688 34.577 31.56 35.0479 31.56 35.6076H31.9655C31.9655 34.9433 31.7337 34.3701 31.2731 33.8997L30.9834 34.1834ZM31.56 35.6076C31.56 36.0843 31.4393 36.4993 31.2019 36.8595L31.5405 37.0826C31.8251 36.6508 31.9655 36.1568 31.9655 35.6076H31.56ZM31.2019 36.8595C30.9643 37.2201 30.6219 37.5073 30.1655 37.7186L30.3359 38.0865C30.8516 37.8478 31.2562 37.514 31.5405 37.0826L31.2019 36.8595ZM30.1684 37.7173C29.714 37.9193 29.1673 38.0238 28.5227 38.0238V38.4293C29.2101 38.4293 29.8155 38.3179 30.3331 38.0878L30.1684 37.7173ZM28.5227 38.0238C28.2819 38.0238 28.0787 38.0194 27.9124 38.0106L27.8911 38.4155C28.0667 38.4248 28.2775 38.4293 28.5227 38.4293V38.0238ZM27.908 38.0104C27.33 37.9924 26.7609 37.9833 26.2007 37.9833V38.3888C26.7565 38.3888 27.3214 38.3978 27.8954 38.4157L27.908 38.0104ZM26.2007 37.9833C25.4615 37.9833 24.8977 37.9968 24.5123 38.0243L24.5412 38.4288C24.9118 38.4023 25.4639 38.3888 26.2007 38.3888V37.9833ZM24.7295 38.2266V37.9566H24.324V38.2266H24.7295ZM24.538 38.159C24.8649 38.1408 25.1252 38.1039 25.2999 38.0384L25.1575 37.6587C25.0442 37.7012 24.8365 37.7363 24.5155 37.7541L24.538 38.159ZM25.2962 38.0397C25.507 37.9653 25.656 37.8164 25.7304 37.6055L25.348 37.4706C25.3144 37.5658 25.2564 37.6238 25.1612 37.6574L25.2962 38.0397ZM25.7304 37.6055C25.7966 37.4179 25.823 37.1409 25.823 36.7956H25.4175C25.4175 37.1343 25.3898 37.3522 25.348 37.4706L25.7304 37.6055ZM25.823 36.7956V30.0996H25.4175V36.7956H25.823ZM25.823 30.0996C25.823 29.7543 25.7966 29.4772 25.7304 29.2896L25.348 29.4245C25.3898 29.5429 25.4175 29.7609 25.4175 30.0996H25.823ZM25.7304 29.2896C25.656 29.0788 25.507 28.9298 25.2962 28.8554L25.1612 29.2377C25.2564 29.2713 25.3144 29.3294 25.348 29.4245L25.7304 29.2896ZM25.2999 28.8567C25.1252 28.7912 24.8649 28.7543 24.538 28.7361L24.5155 29.141C24.8365 29.1588 25.0442 29.1939 25.1575 29.2364L25.2999 28.8567ZM24.7295 28.9386V28.6686H24.324V28.9386H24.7295ZM24.5123 28.8708C24.8976 28.8983 25.4524 28.9118 26.1737 28.9118V28.5063C25.4551 28.5063 24.9118 28.4928 24.5412 28.4663L24.5123 28.8708ZM26.1756 28.9118L27.6336 28.8983L27.6298 28.4928L26.1718 28.5063L26.1756 28.9118ZM27.6424 28.898C27.809 28.8892 27.9989 28.8848 28.2122 28.8848V28.4793C27.9935 28.4793 27.7964 28.4839 27.6211 28.4931L27.6424 28.898ZM28.2122 28.8848C29.1054 28.8848 29.7554 29.0736 30.1919 29.4212L30.4445 29.104C29.909 28.6775 29.155 28.4793 28.2122 28.4793V28.8848ZM30.1933 29.4223C30.6382 29.7701 30.858 30.2237 30.858 30.8016H31.2635C31.2635 30.1014 30.9882 29.529 30.4431 29.1028L30.1933 29.4223ZM30.858 30.8016C30.858 31.2765 30.7078 31.6998 30.4032 32.0785L30.7192 32.3326C31.0806 31.8833 31.2635 31.3707 31.2635 30.8016H30.858ZM30.4016 32.0806C30.1119 32.4508 29.6368 32.7479 28.9498 32.9566L29.0676 33.3445C29.8026 33.1213 30.3626 32.7884 30.7209 32.3305L30.4016 32.0806ZM28.806 33.1506V33.1776H29.2115V33.1506H28.806ZM27.8747 28.7358C27.5861 28.7358 27.3413 28.7676 27.159 28.8473L27.3215 29.2188C27.4272 29.1726 27.6053 29.1413 27.8747 29.1413V28.7358ZM27.1545 28.8493C26.9615 28.9394 26.8332 29.1001 26.7644 29.3065L27.149 29.4347C27.1883 29.317 27.2489 29.2527 27.326 29.2168L27.1545 28.8493ZM26.7644 29.3065C26.6998 29.5001 26.673 29.7696 26.673 30.0996H27.0785C27.0785 29.7815 27.1056 29.565 27.149 29.4347L26.7644 29.3065ZM26.673 30.0996V33.1506H27.0785V30.0996H26.673ZM26.8757 33.3533H27.7802V32.9478H26.8757V33.3533ZM27.7802 33.3533C28.5489 33.3533 29.1406 33.1469 29.4832 32.6758L29.1553 32.4373C28.9218 32.7583 28.4876 32.9478 27.7802 32.9478V33.3533ZM29.4827 32.6765C29.8124 32.2269 29.9675 31.6452 29.9675 30.9501H29.562C29.562 31.5869 29.4201 32.0762 29.1557 32.4367L29.4827 32.6765ZM29.9675 30.9501C29.9675 30.25 29.8141 29.6883 29.4705 29.3031L29.1679 29.573C29.4184 29.8538 29.562 30.3001 29.562 30.9501H29.9675ZM29.4705 29.3031C29.1194 28.9094 28.5698 28.7358 27.8747 28.7358V29.1413C28.5116 29.1413 28.9251 29.3007 29.1679 29.573L29.4705 29.3031ZM27.8882 38.1188C28.7577 38.1188 29.4476 37.9156 29.9201 37.4735C30.3951 37.0289 30.6155 36.3759 30.6155 35.5536H30.21C30.21 36.3062 30.0095 36.8344 29.6431 37.1774C29.2741 37.5227 28.7017 37.7133 27.8882 37.7133V38.1188ZM30.6155 35.5536C30.6155 34.8062 30.4112 34.2055 29.9721 33.7868L29.6923 34.0803C30.0272 34.3996 30.21 34.879 30.21 35.5536H30.6155ZM29.9738 33.7885C29.541 33.3659 28.8699 33.1773 28.0097 33.1773V33.5828C28.8236 33.5828 29.3675 33.7632 29.6906 34.0786L29.9738 33.7885ZM28.0097 33.1773H26.8757V33.5828H28.0097V33.1773ZM26.673 33.3801V36.7956H27.0785V33.3801H26.673ZM26.673 36.7956C26.673 37.1244 26.6996 37.3916 26.7655 37.5785L27.1479 37.4436C27.1059 37.3245 27.0785 37.1148 27.0785 36.7956H26.673ZM26.7655 37.5785C26.8359 37.7778 26.9655 37.9306 27.1545 38.0188L27.326 37.6513C27.2449 37.6135 27.1856 37.5503 27.1479 37.4436L26.7655 37.5785ZM27.169 38.0249C27.3478 38.0919 27.5933 38.1188 27.8882 38.1188V37.7133C27.6071 37.7133 27.4206 37.6862 27.3114 37.6452L27.169 38.0249ZM40.1177 38.2266L40.1088 38.4291L40.3424 38.4394L40.3195 38.2067L40.1177 38.2266ZM33.1112 38.2266H32.9085V38.4356L33.1174 38.4292L33.1112 38.2266ZM33.1112 37.9566L33.0999 37.7541L32.9085 37.7648V37.9566H33.1112ZM33.8132 37.8486L33.7457 37.6573L33.742 37.6587L33.8132 37.8486ZM34.1237 29.3571L33.9325 29.4245V29.4245L34.1237 29.3571ZM33.8132 29.0466L33.742 29.2364L33.7457 29.2377L33.8132 29.0466ZM33.1112 28.9386H32.9085V29.1303L33.0999 29.141L33.1112 28.9386ZM33.1112 28.6686L33.1174 28.4659L32.9085 28.4595V28.6686H33.1112ZM39.8477 28.6686L40.0493 28.6899L40.0743 28.4546L39.8379 28.4661L39.8477 28.6686ZM39.7937 31.0986V31.3013H40.0246L39.9947 31.0723L39.7937 31.0986ZM39.4832 31.0986L39.2816 31.1203L39.3011 31.3013H39.4832V31.0986ZM39.2402 29.8026L39.0485 29.8685L39.0491 29.8704L39.2402 29.8026ZM38.7407 29.1816L38.6393 29.3572L38.6446 29.3601L38.7407 29.1816ZM35.8382 29.0601L35.8987 29.2537L35.9057 29.2512L35.8382 29.0601ZM35.5412 29.3571L35.7324 29.4245V29.4245L35.5412 29.3571ZM35.4602 33.2856H35.2575V33.4883H35.4602V33.2856ZM37.0802 33.0696L37.2108 33.2247L37.2154 33.2206L37.0802 33.0696ZM37.4177 32.5431L37.2237 32.484L37.2221 32.4897L37.4177 32.5431ZM37.5662 31.7736L37.3656 31.7435L37.3648 31.7499L37.5662 31.7736ZM37.6067 31.5036V31.3008H37.4321L37.4062 31.4735L37.6067 31.5036ZM37.9172 31.5036L38.1194 31.518L38.1349 31.3008H37.9172V31.5036ZM37.9577 35.3376V35.5403H38.1742L38.16 35.3242L37.9577 35.3376ZM37.6472 35.3376L37.4465 35.3662L37.4714 35.5403H37.6472V35.3376ZM37.5662 34.6896L37.3649 34.7135L37.3649 34.7141L37.5662 34.6896ZM37.1882 33.8391L37.0482 33.9857L37.0515 33.9888L37.1882 33.8391ZM35.4602 33.5556V33.3528H35.2575V33.5556H35.4602ZM35.5412 37.5381L35.7324 37.4706V37.4706L35.5412 37.5381ZM35.8382 37.8486L35.767 38.0384L35.7739 38.041L35.781 38.0431L35.8382 37.8486ZM38.8082 37.7001L38.8989 37.8814L38.901 37.8803L38.8082 37.7001ZM39.4562 36.9846L39.6433 37.0625L39.6441 37.0607L39.4562 36.9846ZM39.7532 35.5266V35.3238H39.5695L39.5514 35.5067L39.7532 35.5266ZM40.0637 35.5266L40.2652 35.549L40.2902 35.3238H40.0637V35.5266ZM39.8205 36.4986C39.8205 37.0196 39.8524 37.6024 39.9159 38.2465L40.3195 38.2067C40.2569 37.5727 40.2259 37.0035 40.2259 36.4986H39.8205ZM40.1266 38.024C39.5097 37.9968 38.4753 37.9833 37.0262 37.9833V38.3888C38.4751 38.3888 39.5017 38.4023 40.1088 38.4291L40.1266 38.024ZM37.0262 37.9833C35.2977 37.9833 33.9902 37.9968 33.105 38.0239L33.1174 38.4292C33.9962 38.4023 35.2987 38.3888 37.0262 38.3888V37.9833ZM33.3139 38.2266V37.9566H32.9085V38.2266H33.3139ZM33.1224 38.159C33.4494 38.1408 33.7097 38.1039 33.8844 38.0384L33.742 37.6587C33.6287 37.7012 33.421 37.7363 33.0999 37.7541L33.1224 38.159ZM33.8807 38.0397C34.0915 37.9653 34.2405 37.8164 34.3149 37.6055L33.9325 37.4706C33.8989 37.5658 33.8409 37.6238 33.7457 37.6574L33.8807 38.0397ZM34.3149 37.6055C34.3811 37.4179 34.4074 37.1409 34.4074 36.7956H34.002C34.002 37.1343 33.9743 37.3522 33.9325 37.4706L34.3149 37.6055ZM34.4074 36.7956V30.0996H34.002V36.7956H34.4074ZM34.4074 30.0996C34.4074 29.7543 34.3811 29.4772 34.3149 29.2896L33.9325 29.4245C33.9743 29.5429 34.002 29.7609 34.002 30.0996H34.4074ZM34.3149 29.2896C34.2405 29.0788 34.0915 28.9298 33.8807 28.8554L33.7457 29.2377C33.8409 29.2713 33.8989 29.3294 33.9325 29.4245L34.3149 29.2896ZM33.8844 28.8567C33.7097 28.7912 33.4494 28.7543 33.1224 28.7361L33.0999 29.141C33.421 29.1588 33.6287 29.1939 33.742 29.2364L33.8844 28.8567ZM33.3139 28.9386V28.6686H32.9085V28.9386H33.3139ZM33.105 28.8712C33.9902 28.8983 35.2977 28.9118 37.0262 28.9118V28.5063C35.2987 28.5063 33.9962 28.4928 33.1174 28.4659L33.105 28.8712ZM37.0262 28.9118C38.3493 28.9118 39.2941 28.8983 39.8575 28.8711L39.8379 28.4661C39.2853 28.4928 38.3491 28.5063 37.0262 28.5063V28.9118ZM39.6461 28.6472C39.5825 29.2465 39.5505 29.7848 39.5505 30.2616H39.9559C39.9559 29.8023 39.9869 29.2787 40.0493 28.6899L39.6461 28.6472ZM39.5505 30.2616C39.5505 30.6163 39.564 30.9052 39.5927 31.1248L39.9947 31.0723C39.9694 30.8779 39.9559 30.6088 39.9559 30.2616H39.5505ZM39.7937 30.8958H39.4832V31.3013H39.7937V30.8958ZM39.6848 31.0769C39.6214 30.4884 39.5385 30.037 39.4313 29.7348L39.0491 29.8704C39.1399 30.1262 39.219 30.5388 39.2816 31.1203L39.6848 31.0769ZM39.4319 29.7367C39.3189 29.408 39.1223 29.1568 38.8368 29.0031L38.6446 29.3601C38.8271 29.4584 38.9634 29.6211 39.0485 29.8685L39.4319 29.7367ZM38.842 29.006C38.5618 28.8443 38.1632 28.7763 37.6742 28.7763V29.1818C38.1392 29.1818 38.4516 29.2489 38.6394 29.3572L38.842 29.006ZM37.6742 28.7763H36.5537V29.1818H37.6742V28.7763ZM36.5537 28.7763C36.2249 28.7763 35.9577 28.8029 35.7707 28.8689L35.9057 29.2512C36.0247 29.2092 36.2345 29.1818 36.5537 29.1818V28.7763ZM35.7777 28.8666C35.5676 28.9322 35.4234 29.0816 35.35 29.2896L35.7324 29.4245C35.767 29.3265 35.8208 29.2779 35.8987 29.2536L35.7777 28.8666ZM35.35 29.2896C35.2838 29.4772 35.2575 29.7543 35.2575 30.0996H35.6629C35.6629 29.7609 35.6906 29.5429 35.7324 29.4245L35.35 29.2896ZM35.2575 30.0996V33.2856H35.6629V30.0996H35.2575ZM35.4602 33.4883H36.3512V33.0828H35.4602V33.4883ZM36.3512 33.4883C36.6947 33.4883 36.9908 33.4099 37.2108 33.2246L36.9496 32.9145C36.8276 33.0172 36.6377 33.0828 36.3512 33.0828V33.4883ZM37.2154 33.2206C37.412 33.0448 37.5478 32.8365 37.6133 32.5964L37.2221 32.4897C37.1796 32.6456 37.0904 32.7884 36.945 32.9185L37.2154 33.2206ZM37.6116 32.6021C37.6793 32.3799 37.7307 32.1106 37.7675 31.7973L37.3648 31.7499C37.3297 32.0485 37.2821 32.2923 37.2237 32.484L37.6116 32.6021ZM37.7667 31.8036L37.8072 31.5336L37.4062 31.4735L37.3657 31.7435L37.7667 31.8036ZM37.6067 31.7063H37.9172V31.3008H37.6067V31.7063ZM37.715 31.4891C37.6876 31.8729 37.674 32.3008 37.674 32.7726H38.0794C38.0794 32.3083 38.0928 31.8902 38.1194 31.518L37.715 31.4891ZM37.674 32.7726V33.4206H38.0794V32.7726H37.674ZM37.674 33.4206C37.674 33.8862 37.7013 34.5303 37.7554 35.3509L38.16 35.3242C38.1061 34.5068 38.0794 33.873 38.0794 33.4206H37.674ZM37.9577 35.1348H37.6472V35.5403H37.9577V35.1348ZM37.8479 35.3089C37.8393 35.2485 37.8126 35.0353 37.7674 34.665L37.3649 34.7141C37.4098 35.0818 37.4371 35.3006 37.4465 35.3662L37.8479 35.3089ZM37.7675 34.6656C37.7188 34.2567 37.5789 33.9213 37.3249 33.6893L37.0515 33.9888C37.2115 34.1348 37.3236 34.3665 37.3649 34.7135L37.7675 34.6656ZM37.3282 33.6924C37.0818 33.4572 36.7464 33.3528 36.3512 33.3528V33.7583C36.676 33.7583 36.8986 33.8429 37.0482 33.9857L37.3282 33.6924ZM36.3512 33.3528H35.4602V33.7583H36.3512V33.3528ZM35.2575 33.5556V36.7956H35.6629V33.5556H35.2575ZM35.2575 36.7956C35.2575 37.1409 35.2838 37.4179 35.35 37.6055L35.7324 37.4706C35.6906 37.3522 35.6629 37.1343 35.6629 36.7956H35.2575ZM35.35 37.6055C35.4227 37.8115 35.5634 37.9621 35.767 38.0384L35.9094 37.6587C35.8249 37.6271 35.7677 37.5706 35.7324 37.4706L35.35 37.6055ZM35.781 38.0431C35.9632 38.0967 36.226 38.1188 36.5537 38.1188V37.7133C36.2334 37.7133 36.0192 37.6905 35.8954 37.6541L35.781 38.0431ZM36.5537 38.1188H37.5392V37.7133H36.5537V38.1188ZM37.5392 38.1188C38.1088 38.1188 38.5691 38.0463 38.8989 37.8814L38.7175 37.5187C38.4713 37.6419 38.0856 37.7133 37.5392 37.7133V38.1188ZM38.901 37.8803C39.2428 37.7042 39.4909 37.4283 39.6433 37.0625L39.269 36.9066C39.1514 37.1889 38.9676 37.3899 38.7153 37.5198L38.901 37.8803ZM39.6441 37.0607C39.79 36.7009 39.8913 36.1921 39.9549 35.5465L39.5514 35.5067C39.4891 36.139 39.3924 36.6022 39.2683 36.9084L39.6441 37.0607ZM39.7532 35.7293H40.0637V35.3238H39.7532V35.7293ZM39.8622 35.5042C39.834 35.7578 39.8205 36.0902 39.8205 36.4986H40.2259C40.2259 36.0969 40.2394 35.7813 40.2652 35.549L39.8622 35.5042ZM45.0459 28.9386L45.0571 29.141L45.2486 29.1303V28.9386H45.0459ZM44.3304 29.0466L44.2629 28.8553L44.2592 28.8567L44.3304 29.0466ZM44.0334 29.3571L44.2246 29.4245V29.4245L44.0334 29.3571ZM44.0334 37.5381L44.2246 37.4706V37.4706L44.0334 37.5381ZM44.3304 37.8486L44.2592 38.0384L44.2661 38.041L44.2732 38.0431L44.3304 37.8486ZM47.3004 37.6866L47.3955 37.8656L47.3975 37.8645L47.3004 37.6866ZM47.9484 36.9171L48.1376 36.9898V36.9898L47.9484 36.9171ZM48.2454 35.3916V35.1888H48.0609L48.0435 35.3725L48.2454 35.3916ZM48.5559 35.3916L48.7577 35.4111L48.7792 35.1888H48.5559V35.3916ZM48.6099 38.2266L48.6009 38.4291L48.8346 38.4394L48.8116 38.2067L48.6099 38.2266ZM41.6034 38.2266H41.4006V38.4356L41.6096 38.4292L41.6034 38.2266ZM41.6034 37.9566L41.5921 37.7541L41.4006 37.7648V37.9566H41.6034ZM42.3054 37.8486L42.2379 37.6573L42.2342 37.6587L42.3054 37.8486ZM42.6159 29.3571L42.4247 29.4245V29.4245L42.6159 29.3571ZM42.3054 29.0466L42.2342 29.2364L42.2379 29.2377L42.3054 29.0466ZM41.6034 28.9386H41.4006V29.1303L41.5921 29.141L41.6034 28.9386ZM41.6034 28.6686L41.6178 28.4663L41.4006 28.4508V28.6686H41.6034ZM45.0459 28.6686H45.2486V28.4525L45.033 28.4662L45.0459 28.6686ZM45.0346 28.7361C44.7066 28.7544 44.4442 28.7914 44.2629 28.8554L44.3979 29.2377C44.5225 29.1937 44.7372 29.1588 45.0571 29.141L45.0346 28.7361ZM44.2592 28.8567C44.0556 28.9331 43.9149 29.0836 43.8422 29.2896L44.2246 29.4245C44.2599 29.3245 44.3171 29.2681 44.4016 29.2364L44.2592 28.8567ZM43.8422 29.2896C43.776 29.4772 43.7496 29.7543 43.7496 30.0996H44.1551C44.1551 29.7609 44.1828 29.5429 44.2246 29.4245L43.8422 29.2896ZM43.7496 30.0996V36.7956H44.1551V30.0996H43.7496ZM43.7496 36.7956C43.7496 37.1409 43.776 37.4179 43.8422 37.6055L44.2246 37.4706C44.1828 37.3522 44.1551 37.1343 44.1551 36.7956H43.7496ZM43.8422 37.6055C43.9149 37.8115 44.0556 37.9621 44.2592 38.0384L44.4016 37.6587C44.3171 37.6271 44.2599 37.5706 44.2246 37.4706L43.8422 37.6055ZM44.2732 38.0431C44.4554 38.0967 44.7182 38.1188 45.0459 38.1188V37.7133C44.7256 37.7133 44.5114 37.6905 44.3876 37.6541L44.2732 38.0431ZM45.0459 38.1188H46.0314V37.7133H45.0459V38.1188ZM46.0314 38.1188C46.602 38.1188 47.0643 38.0416 47.3955 37.8656L47.2053 37.5075C46.9605 37.6376 46.5768 37.7133 46.0314 37.7133V38.1188ZM47.3975 37.8645C47.7415 37.6769 47.9874 37.3804 48.1376 36.9898L47.7592 36.8443C47.6394 37.1558 47.4533 37.3722 47.2033 37.5086L47.3975 37.8645ZM48.1376 36.9898C48.2825 36.6132 48.3836 36.0831 48.4472 35.4107L48.0435 35.3725C47.9812 36.032 47.8843 36.5189 47.7592 36.8443L48.1376 36.9898ZM48.2454 35.5943H48.5559V35.1888H48.2454V35.5943ZM48.3541 35.372C48.3262 35.6603 48.3126 36.0366 48.3126 36.4986H48.7181C48.7181 36.0425 48.7316 35.6808 48.7577 35.4111L48.3541 35.372ZM48.3126 36.4986C48.3126 37.0196 48.3446 37.6024 48.4081 38.2465L48.8116 38.2067C48.7491 37.5727 48.7181 37.0035 48.7181 36.4986H48.3126ZM48.6188 38.024C48.0019 37.9968 46.9674 37.9833 45.5184 37.9833V38.3888C46.9673 38.3888 47.9938 38.4023 48.6009 38.4291L48.6188 38.024ZM45.5184 37.9833C43.7899 37.9833 42.4824 37.9968 41.5972 38.0239L41.6096 38.4292C42.4884 38.4023 43.7909 38.3888 45.5184 38.3888V37.9833ZM41.8061 38.2266V37.9566H41.4006V38.2266H41.8061ZM41.6146 38.159C41.9416 38.1408 42.2019 38.1039 42.3766 38.0384L42.2342 37.6587C42.1209 37.7012 41.9132 37.7363 41.5921 37.7541L41.6146 38.159ZM42.3729 38.0397C42.5837 37.9653 42.7327 37.8164 42.8071 37.6055L42.4247 37.4706C42.3911 37.5658 42.3331 37.6238 42.2379 37.6574L42.3729 38.0397ZM42.8071 37.6055C42.8733 37.4179 42.8996 37.1409 42.8996 36.7956H42.4941C42.4941 37.1343 42.4665 37.3522 42.4247 37.4706L42.8071 37.6055ZM42.8996 36.7956V30.0996H42.4941V36.7956H42.8996ZM42.8996 30.0996C42.8996 29.7543 42.8733 29.4772 42.8071 29.2896L42.4247 29.4245C42.4665 29.5429 42.4941 29.7609 42.4941 30.0996H42.8996ZM42.8071 29.2896C42.7327 29.0788 42.5837 28.9298 42.3729 28.8554L42.2379 29.2377C42.3331 29.2713 42.3911 29.3294 42.4247 29.4245L42.8071 29.2896ZM42.3766 28.8567C42.2019 28.7912 41.9416 28.7543 41.6146 28.7361L41.5921 29.141C41.9132 29.1588 42.1209 29.1939 42.2342 29.2364L42.3766 28.8567ZM41.8061 28.9386V28.6686H41.4006V28.9386H41.8061ZM41.5889 28.8708C41.9745 28.8983 42.5564 28.9118 43.3314 28.9118V28.5063C42.5583 28.5063 41.9883 28.4928 41.6178 28.4663L41.5889 28.8708ZM43.3314 28.9118C44.0532 28.9118 44.6296 28.8983 45.0588 28.8709L45.033 28.4662C44.6162 28.4928 44.0496 28.5063 43.3314 28.5063V28.9118ZM44.8431 28.6686V28.9386H45.2486V28.6686H44.8431ZM56.812 38.2266L56.8031 38.4291L57.0367 38.4394L57.0138 38.2067L56.812 38.2266ZM49.8055 38.2266H49.6028V38.4356L49.8117 38.4292L49.8055 38.2266ZM49.8055 37.9566L49.7943 37.7541L49.6028 37.7648V37.9566H49.8055ZM50.5075 37.8486L50.44 37.6573L50.4363 37.6587L50.5075 37.8486ZM50.818 29.3571L50.6268 29.4245V29.4245L50.818 29.3571ZM50.5075 29.0466L50.4363 29.2364L50.4401 29.2377L50.5075 29.0466ZM49.8055 28.9386H49.6028V29.1303L49.7943 29.141L49.8055 28.9386ZM49.8055 28.6686L49.8117 28.4659L49.6028 28.4595V28.6686H49.8055ZM56.542 28.6686L56.7436 28.6899L56.7686 28.4546L56.5322 28.4661L56.542 28.6686ZM56.488 31.0986V31.3013H56.7189L56.6891 31.0723L56.488 31.0986ZM56.1775 31.0986L55.976 31.1203L55.9954 31.3013H56.1775V31.0986ZM55.9345 29.8026L55.7428 29.8685L55.7435 29.8704L55.9345 29.8026ZM55.435 29.1816L55.3337 29.3572L55.3389 29.3601L55.435 29.1816ZM52.5325 29.0601L52.593 29.2537L52.6 29.2512L52.5325 29.0601ZM52.2355 29.3571L52.4267 29.4245V29.4245L52.2355 29.3571ZM52.1545 33.2856H51.9518V33.4883H52.1545V33.2856ZM53.7745 33.0696L53.9052 33.2247L53.9097 33.2206L53.7745 33.0696ZM54.112 32.5431L53.918 32.484L53.9164 32.4897L54.112 32.5431ZM54.2605 31.7736L54.0599 31.7435L54.0592 31.7499L54.2605 31.7736ZM54.301 31.5036V31.3008H54.1264L54.1005 31.4735L54.301 31.5036ZM54.6115 31.5036L54.8137 31.518L54.8293 31.3008H54.6115V31.5036ZM54.652 35.3376V35.5403H54.8686L54.8543 35.3242L54.652 35.3376ZM54.3415 35.3376L54.1408 35.3662L54.1657 35.5403H54.3415V35.3376ZM54.2605 34.6896L54.0592 34.7135L54.0593 34.7141L54.2605 34.6896ZM53.8825 33.8391L53.7425 33.9857L53.7458 33.9888L53.8825 33.8391ZM52.1545 33.5556V33.3528H51.9518V33.5556H52.1545ZM52.2355 37.5381L52.4267 37.4706V37.4706L52.2355 37.5381ZM52.5325 37.8486L52.4613 38.0384L52.4682 38.041L52.4753 38.0431L52.5325 37.8486ZM55.5025 37.7001L55.5932 37.8814L55.5954 37.8803L55.5025 37.7001ZM56.1505 36.9846L56.3377 37.0625L56.3384 37.0607L56.1505 36.9846ZM56.4475 35.5266V35.3238H56.2638L56.2458 35.5067L56.4475 35.5266ZM56.758 35.5266L56.9595 35.549L56.9845 35.3238H56.758V35.5266ZM56.5148 36.4986C56.5148 37.0196 56.5468 37.6024 56.6103 38.2465L57.0138 38.2067C56.9513 37.5727 56.9203 37.0035 56.9203 36.4986H56.5148ZM56.821 38.024C56.2041 37.9968 55.1696 37.9833 53.7205 37.9833V38.3888C55.1695 38.3888 56.196 38.4023 56.8031 38.4291L56.821 38.024ZM53.7205 37.9833C51.992 37.9833 50.6845 37.9968 49.7993 38.0239L49.8117 38.4292C50.6905 38.4023 51.993 38.3888 53.7205 38.3888V37.9833ZM50.0083 38.2266V37.9566H49.6028V38.2266H50.0083ZM49.8168 38.159C50.1438 38.1408 50.404 38.1039 50.5787 38.0384L50.4363 37.6587C50.323 37.7012 50.1153 37.7363 49.7943 37.7541L49.8168 38.159ZM50.575 38.0397C50.7858 37.9653 50.9348 37.8164 51.0092 37.6055L50.6268 37.4706C50.5933 37.5658 50.5352 37.6238 50.4401 37.6574L50.575 38.0397ZM51.0092 37.6055C51.0754 37.4179 51.1018 37.1409 51.1018 36.7956H50.6963C50.6963 37.1343 50.6686 37.3522 50.6268 37.4706L51.0092 37.6055ZM51.1018 36.7956V30.0996H50.6963V36.7956H51.1018ZM51.1018 30.0996C51.1018 29.7543 51.0754 29.4772 51.0092 29.2896L50.6268 29.4245C50.6686 29.5429 50.6963 29.7609 50.6963 30.0996H51.1018ZM51.0092 29.2896C50.9348 29.0788 50.7858 28.9298 50.575 28.8554L50.4401 29.2377C50.5352 29.2713 50.5933 29.3294 50.6268 29.4245L51.0092 29.2896ZM50.5787 28.8567C50.404 28.7912 50.1438 28.7543 49.8168 28.7361L49.7943 29.141C50.1153 29.1588 50.323 29.1939 50.4363 29.2364L50.5787 28.8567ZM50.0083 28.9386V28.6686H49.6028V28.9386H50.0083ZM49.7993 28.8712C50.6845 28.8983 51.992 28.9118 53.7205 28.9118V28.5063C51.993 28.5063 50.6905 28.4928 49.8117 28.4659L49.7993 28.8712ZM53.7205 28.9118C55.0436 28.9118 55.9884 28.8983 56.5518 28.8711L56.5322 28.4661C55.9796 28.4928 55.0435 28.5063 53.7205 28.5063V28.9118ZM56.3404 28.6472C56.2769 29.2465 56.2448 29.7848 56.2448 30.2616H56.6503C56.6503 29.8023 56.6812 29.2787 56.7436 28.6899L56.3404 28.6472ZM56.2448 30.2616C56.2448 30.6163 56.2584 30.9052 56.287 31.1248L56.6891 31.0723C56.6637 30.8779 56.6503 30.6088 56.6503 30.2616H56.2448ZM56.488 30.8958H56.1775V31.3013H56.488V30.8958ZM56.3791 31.0769C56.3157 30.4884 56.2328 30.037 56.1256 29.7348L55.7435 29.8704C55.8342 30.1262 55.9133 30.5388 55.976 31.1203L56.3791 31.0769ZM56.1263 29.7367C56.0133 29.408 55.8166 29.1568 55.5311 29.0031L55.3389 29.3601C55.5215 29.4584 55.6578 29.6211 55.7428 29.8685L56.1263 29.7367ZM55.5363 29.006C55.2561 28.8443 54.8575 28.7763 54.3685 28.7763V29.1818C54.8335 29.1818 55.146 29.2489 55.3337 29.3572L55.5363 29.006ZM54.3685 28.7763H53.248V29.1818H54.3685V28.7763ZM53.248 28.7763C52.9192 28.7763 52.652 28.8029 52.465 28.8689L52.6 29.2512C52.7191 29.2092 52.9288 29.1818 53.248 29.1818V28.7763ZM52.4721 28.8666C52.2619 28.9322 52.1178 29.0816 52.0443 29.2896L52.4267 29.4245C52.4613 29.3265 52.5152 29.2779 52.593 29.2536L52.4721 28.8666ZM52.0443 29.2896C51.9781 29.4772 51.9518 29.7543 51.9518 30.0996H52.3573C52.3573 29.7609 52.3849 29.5429 52.4267 29.4245L52.0443 29.2896ZM51.9518 30.0996V33.2856H52.3573V30.0996H51.9518ZM52.1545 33.4883H53.0455V33.0828H52.1545V33.4883ZM53.0455 33.4883C53.389 33.4883 53.6851 33.4099 53.9051 33.2246L53.6439 32.9145C53.5219 33.0172 53.332 33.0828 53.0455 33.0828V33.4883ZM53.9097 33.2206C54.1063 33.0448 54.2421 32.8365 54.3076 32.5964L53.9164 32.4897C53.8739 32.6456 53.7848 32.7884 53.6393 32.9185L53.9097 33.2206ZM54.306 32.6021C54.3736 32.3799 54.425 32.1106 54.4619 31.7973L54.0592 31.7499C54.024 32.0485 53.9764 32.2923 53.9181 32.484L54.306 32.6021ZM54.461 31.8036L54.5015 31.5336L54.1005 31.4735L54.06 31.7435L54.461 31.8036ZM54.301 31.7063H54.6115V31.3008H54.301V31.7063ZM54.4093 31.4891C54.3819 31.8729 54.3683 32.3008 54.3683 32.7726H54.7738C54.7738 32.3083 54.7872 31.8902 54.8137 31.518L54.4093 31.4891ZM54.3683 32.7726V33.4206H54.7738V32.7726H54.3683ZM54.3683 33.4206C54.3683 33.8862 54.3956 34.5303 54.4497 35.3509L54.8543 35.3242C54.8004 34.5068 54.7738 33.873 54.7738 33.4206H54.3683ZM54.652 35.1348H54.3415V35.5403H54.652V35.1348ZM54.5422 35.3089C54.5336 35.2485 54.5069 35.0353 54.4618 34.665L54.0593 34.7141C54.1041 35.0818 54.1315 35.3006 54.1408 35.3662L54.5422 35.3089ZM54.4618 34.6656C54.4132 34.2567 54.2733 33.9213 54.0192 33.6893L53.7458 33.9888C53.9058 34.1348 54.0179 34.3665 54.0592 34.7135L54.4618 34.6656ZM54.0225 33.6924C53.7761 33.4572 53.4407 33.3528 53.0455 33.3528V33.7583C53.3703 33.7583 53.5929 33.8429 53.7425 33.9857L54.0225 33.6924ZM53.0455 33.3528H52.1545V33.7583H53.0455V33.3528ZM51.9518 33.5556V36.7956H52.3573V33.5556H51.9518ZM51.9518 36.7956C51.9518 37.1409 51.9781 37.4179 52.0443 37.6055L52.4267 37.4706C52.3849 37.3522 52.3573 37.1343 52.3573 36.7956H51.9518ZM52.0443 37.6055C52.117 37.8115 52.2578 37.9621 52.4613 38.0384L52.6037 37.6587C52.5193 37.6271 52.462 37.5706 52.4267 37.4706L52.0443 37.6055ZM52.4753 38.0431C52.6575 38.0967 52.9203 38.1188 53.248 38.1188V37.7133C52.9277 37.7133 52.7135 37.6905 52.5897 37.6541L52.4753 38.0431ZM53.248 38.1188H54.2335V37.7133H53.248V38.1188ZM54.2335 38.1188C54.8031 38.1188 55.2634 38.0463 55.5932 37.8814L55.4119 37.5187C55.1656 37.6419 54.78 37.7133 54.2335 37.7133V38.1188ZM55.5954 37.8803C55.9372 37.7042 56.1853 37.4283 56.3377 37.0625L55.9634 36.9066C55.8458 37.1889 55.6619 37.3899 55.4097 37.5198L55.5954 37.8803ZM56.3384 37.0607C56.4843 36.7009 56.5856 36.1921 56.6493 35.5465L56.2458 35.5067C56.1834 36.139 56.0868 36.6022 55.9626 36.9084L56.3384 37.0607ZM56.4475 35.7293H56.758V35.3238H56.4475V35.7293ZM56.5565 35.5042C56.5283 35.7578 56.5148 36.0902 56.5148 36.4986H56.9203C56.9203 36.0969 56.9337 35.7813 56.9595 35.549L56.5565 35.5042Z" fill="#FEF5EB" mask="url(#path-5-outside-1_23632_22651)"/>
</g>
</g>
<defs>
<linearGradient id="paint0_linear_23632_22651" x1="34" y1="-1.04141e-05" x2="34" y2="68" gradientUnits="userSpaceOnUse">
<stop stop-color="#C93D34"/>
<stop offset="1" stop-color="#7A2629"/>
</linearGradient>
<linearGradient id="paint1_linear_23632_22651" x1="34" y1="-1.04141e-05" x2="34" y2="68" gradientUnits="userSpaceOnUse">
<stop stop-color="#C93D34"/>
<stop offset="1" stop-color="#7A2629"/>
</linearGradient>
<clipPath id="clip0_23632_22651">
<rect width="68" height="68" fill="white"/>
</clipPath>
</defs>
</svg>
