<svg width="68" height="68" viewBox="0 0 68 68" fill="none" xmlns="http://www.w3.org/2000/svg">
<g clip-path="url(#clip0_23632_22529)">
<mask id="mask0_23632_22529" style="mask-type:alpha" maskUnits="userSpaceOnUse" x="0" y="0" width="68" height="68">
<path fill-rule="evenodd" clip-rule="evenodd" d="M47.0333 0H20.9667C13.5811 0 8.89667 0.0377779 4.45778 4.45778C0.018889 8.89667 0 13.6 0 20.9667V47.0333C0 54.4189 0.0377779 59.1033 4.45778 63.5422C8.89667 67.9811 13.6 68 20.9667 68H47.0333C54.4189 68 59.1033 67.9811 63.5422 63.5422C67.9622 59.1033 68 54.4 68 47.0333V20.9667C68 13.5811 67.9622 8.89667 63.5422 4.45778C59.1033 0.018889 54.4 0 47.0333 0Z" fill="url(#paint0_linear_23632_22529)"/>
</mask>
<g mask="url(#mask0_23632_22529)">
<rect width="68" height="68" fill="url(#paint1_linear_23632_22529)"/>
<path fill-rule="evenodd" clip-rule="evenodd" d="M15.6212 64.3733C26.4256 64.3733 45.6357 64.3733 45.6357 64.3733C52.5868 64.3733 57.0823 64.6378 61.2379 60.4445C64.8079 56.8745 64.5057 50.8678 64.7323 46.1078C60.709 52.1522 53.3234 51.9445 47.619 51.9445C47.619 51.9445 20.929 51.9445 10.9556 51.9445C0.982316 51.9633 4.81676 64.3733 15.6212 64.3733Z" fill="#FEF5EB"/>
<path d="M12.4854 53.5311H23.1387V61.5211L17.812 58.8578L12.4854 61.5211V53.5311Z" fill="#F19C33"/>
<mask id="path-5-outside-1_23632_22529" maskUnits="userSpaceOnUse" x="9.10156" y="13.2266" width="49" height="24" fill="black">
<rect fill="white" x="9.10156" y="13.2266" width="49" height="24"/>
<path d="M17.9894 22.1346C18.1021 22.4206 18.2321 22.6286 18.3794 22.7586C18.5267 22.8886 18.6697 22.9579 18.8084 22.9666V23.2266C18.2884 23.2006 17.6297 23.1876 16.8324 23.1876C15.9484 23.1876 15.2897 23.2006 14.8564 23.2266V22.9666C15.1857 22.9492 15.4197 22.9102 15.5584 22.8496C15.6971 22.7802 15.7664 22.6632 15.7664 22.4986C15.7664 22.3426 15.7144 22.1346 15.6104 21.8746L14.8304 19.7426H11.9964L11.6584 20.6396C11.4157 21.2636 11.2944 21.7446 11.2944 22.0826C11.2944 22.4032 11.3897 22.6286 11.5804 22.7586C11.7797 22.8799 12.0701 22.9492 12.4514 22.9666V23.2266C11.8621 23.2006 11.3247 23.1876 10.8394 23.1876C10.4407 23.1876 10.1114 23.2006 9.85139 23.2266V22.9666C10.2761 22.8886 10.6487 22.4336 10.9694 21.6016L13.9334 13.9966C14.0287 14.0052 14.1804 14.0096 14.3884 14.0096C14.5964 14.0096 14.7437 14.0052 14.8304 13.9966L17.9894 22.1346ZM14.7394 19.4826L13.4524 15.9726L12.1004 19.4826H14.7394ZM22.4669 19.5086V21.7706C22.4669 22.1172 22.5016 22.3729 22.5709 22.5376C22.6489 22.6936 22.7789 22.7976 22.9609 22.8496C23.1516 22.9016 23.4506 22.9319 23.8579 22.9406V23.2266C22.7919 23.2006 21.9989 23.1876 21.4789 23.1876C21.0456 23.1876 20.4996 23.1962 19.8409 23.2136L19.4249 23.2266V22.9666C19.7109 22.9492 19.9189 22.9146 20.0489 22.8626C20.1876 22.8106 20.2786 22.7109 20.3219 22.5636C20.3739 22.4162 20.3999 22.1779 20.3999 21.8486V15.4006C20.3999 15.0712 20.3739 14.8329 20.3219 14.6856C20.2786 14.5382 20.1876 14.4386 20.0489 14.3866C19.9189 14.3346 19.7109 14.2999 19.4249 14.2826V14.0226C19.8669 14.0486 20.5256 14.0616 21.4009 14.0616L22.8439 14.0486C23.0172 14.0399 23.2166 14.0356 23.4419 14.0356C24.6119 14.0356 25.5046 14.2696 26.1199 14.7376C26.7352 15.1969 27.0429 15.8166 27.0429 16.5966C27.0429 17.0732 26.9216 17.5326 26.6789 17.9746C26.4362 18.4079 26.0246 18.7719 25.4439 19.0666C24.8719 19.3612 24.1092 19.5086 23.1559 19.5086H22.4669ZM23.2729 14.2826C23.0389 14.2826 22.8656 14.3129 22.7529 14.3736C22.6489 14.4342 22.5752 14.5426 22.5319 14.6986C22.4886 14.8546 22.4669 15.0886 22.4669 15.4006V19.2486H23.0259C23.7279 19.2486 24.2132 19.0232 24.4819 18.5726C24.7506 18.1219 24.8849 17.5109 24.8849 16.7396C24.8849 15.8989 24.7592 15.2792 24.5079 14.8806C24.2652 14.4819 23.8536 14.2826 23.2729 14.2826ZM37.7442 14.2826C37.4495 14.2999 37.2372 14.3346 37.1072 14.3866C36.9772 14.4386 36.8862 14.5382 36.8342 14.6856C36.7909 14.8329 36.7692 15.0712 36.7692 15.4006V21.8486C36.7692 22.1779 36.7909 22.4162 36.8342 22.5636C36.8862 22.7109 36.9772 22.8106 37.1072 22.8626C37.2372 22.9146 37.4495 22.9492 37.7442 22.9666V23.2266C37.3022 23.2006 36.6175 23.1876 35.6902 23.1876C34.8409 23.1876 34.1865 23.2006 33.7272 23.2266V22.9666C34.0132 22.9492 34.2212 22.9146 34.3512 22.8626C34.4899 22.8106 34.5809 22.7109 34.6242 22.5636C34.6762 22.4162 34.7022 22.1779 34.7022 21.8486V15.7646L30.9972 22.0176C31.0059 22.2862 31.0362 22.4856 31.0882 22.6156C31.1402 22.7369 31.2312 22.8236 31.3612 22.8756C31.4912 22.9189 31.6949 22.9492 31.9722 22.9666V23.2266C31.5042 23.2006 30.8499 23.1876 30.0092 23.1876C29.0819 23.1876 28.3972 23.2006 27.9552 23.2266V22.9666C28.2412 22.9492 28.4492 22.9146 28.5792 22.8626C28.7179 22.8106 28.8089 22.7109 28.8522 22.5636C28.9042 22.4162 28.9302 22.1779 28.9302 21.8486V15.4006C28.9302 15.0712 28.9042 14.8329 28.8522 14.6856C28.8089 14.5382 28.7179 14.4386 28.5792 14.3866C28.4492 14.3346 28.2412 14.2999 27.9552 14.2826V14.0226C28.3972 14.0486 29.0819 14.0616 30.0092 14.0616C30.8499 14.0616 31.5042 14.0486 31.9722 14.0226V14.2826C31.6775 14.2999 31.4652 14.3346 31.3352 14.3866C31.2052 14.4386 31.1142 14.5382 31.0622 14.6856C31.0189 14.8329 30.9972 15.0712 30.9972 15.4006V21.4586L34.7022 15.1796C34.6935 14.9282 34.6589 14.7419 34.5982 14.6206C34.5462 14.4992 34.4552 14.4169 34.3252 14.3736C34.1952 14.3302 33.9959 14.2999 33.7272 14.2826V14.0226C34.1779 14.0486 34.8322 14.0616 35.6902 14.0616C36.6175 14.0616 37.3022 14.0486 37.7442 14.0226V14.2826ZM46.2169 14.0616C46.6242 14.0616 46.9579 14.0486 47.2179 14.0226V14.2826C47.0272 14.3519 46.8322 14.5036 46.6329 14.7376C46.4422 14.9716 46.2255 15.3182 45.9829 15.7776L43.4219 20.9256L42.8109 22.1606C42.6202 22.5506 42.4295 22.8409 42.2389 23.0316C41.9875 23.2829 41.6235 23.4086 41.1469 23.4086C40.7049 23.4086 40.3539 23.3089 40.0939 23.1096C39.8339 22.9102 39.7039 22.6502 39.7039 22.3296C39.7039 22.0262 39.8122 21.7792 40.0289 21.5886C40.2542 21.3979 40.5315 21.3026 40.8609 21.3026C41.1989 21.3026 41.4675 21.3762 41.6669 21.5236C41.8749 21.6709 41.9789 21.8746 41.9789 22.1346C41.9789 22.3686 41.8965 22.5679 41.7319 22.7326C41.5759 22.8972 41.3679 23.0229 41.1079 23.1096C41.1599 23.1356 41.2465 23.1486 41.3679 23.1486C41.6105 23.1486 41.8229 23.0662 42.0049 22.9016C42.1955 22.7282 42.3732 22.4726 42.5379 22.1346L42.8369 21.5106L39.1709 15.0756C38.8849 14.5902 38.5989 14.3259 38.3129 14.2826V14.0226C38.6595 14.0486 39.2359 14.0616 40.0419 14.0616C40.9692 14.0616 41.6582 14.0486 42.1089 14.0226V14.2826C41.6669 14.2999 41.4459 14.4689 41.4459 14.7896C41.4459 14.9456 41.4935 15.1232 41.5889 15.3226L43.8899 19.4046L45.2029 16.7396C45.5322 16.0896 45.6969 15.5652 45.6969 15.1666C45.6969 14.8632 45.6015 14.6466 45.4109 14.5166C45.2289 14.3779 44.9602 14.2999 44.6049 14.2826V14.0226C45.1942 14.0486 45.7315 14.0616 46.2169 14.0616ZM57.2615 14.2826C56.9669 14.2999 56.7545 14.3346 56.6245 14.3866C56.4945 14.4386 56.4035 14.5382 56.3515 14.6856C56.3082 14.8329 56.2865 15.0712 56.2865 15.4006V21.8486C56.2865 22.1779 56.3082 22.4162 56.3515 22.5636C56.4035 22.7109 56.4945 22.8106 56.6245 22.8626C56.7545 22.9146 56.9669 22.9492 57.2615 22.9666V23.2266C56.8369 23.2006 56.1782 23.1876 55.2855 23.1876C54.4102 23.1876 53.7299 23.2006 53.2445 23.2266V22.9666C53.5305 22.9492 53.7385 22.9146 53.8685 22.8626C54.0072 22.8106 54.0982 22.7109 54.1415 22.5636C54.1935 22.4162 54.2195 22.1779 54.2195 21.8486V18.7286H50.7745V21.8486C50.7745 22.1779 50.7962 22.4162 50.8395 22.5636C50.8915 22.7109 50.9825 22.8106 51.1125 22.8626C51.2425 22.9146 51.4549 22.9492 51.7495 22.9666V23.2266C51.2815 23.2006 50.6272 23.1876 49.7865 23.1876C48.8592 23.1876 48.1745 23.2006 47.7325 23.2266V22.9666C48.0185 22.9492 48.2265 22.9146 48.3565 22.8626C48.4952 22.8106 48.5862 22.7109 48.6295 22.5636C48.6815 22.4162 48.7075 22.1779 48.7075 21.8486V15.4006C48.7075 15.0712 48.6815 14.8329 48.6295 14.6856C48.5862 14.5382 48.4952 14.4386 48.3565 14.3866C48.2265 14.3346 48.0185 14.2999 47.7325 14.2826V14.0226C48.1745 14.0486 48.8592 14.0616 49.7865 14.0616C50.6272 14.0616 51.2815 14.0486 51.7495 14.0226V14.2826C51.4549 14.2999 51.2425 14.3346 51.1125 14.3866C50.9825 14.4386 50.8915 14.5382 50.8395 14.6856C50.7962 14.8329 50.7745 15.0712 50.7745 15.4006V18.4686H54.2195V15.4006C54.2195 15.0712 54.1935 14.8329 54.1415 14.6856C54.0982 14.5382 54.0072 14.4386 53.8685 14.3866C53.7385 14.3346 53.5305 14.2999 53.2445 14.2826V14.0226C53.7299 14.0486 54.4102 14.0616 55.2855 14.0616C56.1782 14.0616 56.8369 14.0486 57.2615 14.0226V14.2826ZM13.9605 30.7406C15.2691 30.7406 16.2225 31.0006 16.8205 31.5206C17.4271 32.0406 17.7305 32.6992 17.7305 33.4966C17.7305 34.3026 17.4271 34.9569 16.8205 35.4596C16.2138 35.9622 15.2821 36.2136 14.0255 36.2136C13.7828 36.2136 13.5791 36.2092 13.4145 36.2006L12.0495 36.1876C11.2261 36.1876 10.5935 36.2006 10.1515 36.2266V35.9666C10.4375 35.9492 10.6455 35.9146 10.7755 35.8626C10.9141 35.8106 11.0051 35.7109 11.0485 35.5636C11.1005 35.4162 11.1265 35.1779 11.1265 34.8486V28.4006C11.1265 28.0712 11.1005 27.8329 11.0485 27.6856C11.0051 27.5382 10.9141 27.4386 10.7755 27.3866C10.6455 27.3346 10.4375 27.2999 10.1515 27.2826V27.0226C11.0875 27.0486 12.5001 27.0616 14.3895 27.0616C15.5855 27.0616 16.4391 27.0486 16.9505 27.0226C16.8898 27.7419 16.8595 28.3832 16.8595 28.9466C16.8595 29.3279 16.8725 29.6226 16.8985 29.8306H16.5995C16.4261 28.9032 16.1705 28.2532 15.8325 27.8806C15.4945 27.5079 15.0395 27.3216 14.4675 27.3216H14.0905C13.8218 27.3216 13.6268 27.3432 13.5055 27.3866C13.3841 27.4299 13.3018 27.5166 13.2585 27.6466C13.2151 27.7679 13.1935 27.9672 13.1935 28.2446V30.7536C13.3841 30.7449 13.6398 30.7406 13.9605 30.7406ZM13.9345 35.9666C14.5411 35.9666 14.9658 35.7672 15.2085 35.3686C15.4511 34.9612 15.5725 34.3546 15.5725 33.5486C15.5725 32.7166 15.4338 32.0839 15.1565 31.6506C14.8878 31.2172 14.4025 31.0006 13.7005 31.0006H13.1935V34.8486C13.1935 35.1606 13.2108 35.3946 13.2455 35.5506C13.2888 35.6979 13.3625 35.8062 13.4665 35.8756C13.5705 35.9362 13.7265 35.9666 13.9345 35.9666ZM28.6358 27.2826C28.3411 27.2999 28.1288 27.3346 27.9988 27.3866C27.8688 27.4386 27.7778 27.5382 27.7258 27.6856C27.6825 27.8329 27.6608 28.0712 27.6608 28.4006V34.8486C27.6608 35.1779 27.6825 35.4162 27.7258 35.5636C27.7778 35.7109 27.8688 35.8106 27.9988 35.8626C28.1288 35.9146 28.3411 35.9492 28.6358 35.9666V36.2266C28.1938 36.2006 27.5091 36.1876 26.5818 36.1876C25.7325 36.1876 25.0781 36.2006 24.6188 36.2266V35.9666C24.9048 35.9492 25.1128 35.9146 25.2428 35.8626C25.3815 35.8106 25.4725 35.7109 25.5158 35.5636C25.5678 35.4162 25.5938 35.1779 25.5938 34.8486V28.7646L21.8888 35.0176C21.8975 35.2862 21.9278 35.4856 21.9798 35.6156C22.0318 35.7369 22.1228 35.8236 22.2528 35.8756C22.3828 35.9189 22.5865 35.9492 22.8638 35.9666V36.2266C22.3958 36.2006 21.7415 36.1876 20.9008 36.1876C19.9735 36.1876 19.2888 36.2006 18.8468 36.2266V35.9666C19.1328 35.9492 19.3408 35.9146 19.4708 35.8626C19.6095 35.8106 19.7005 35.7109 19.7438 35.5636C19.7958 35.4162 19.8218 35.1779 19.8218 34.8486V28.4006C19.8218 28.0712 19.7958 27.8329 19.7438 27.6856C19.7005 27.5382 19.6095 27.4386 19.4708 27.3866C19.3408 27.3346 19.1328 27.2999 18.8468 27.2826V27.0226C19.2888 27.0486 19.9735 27.0616 20.9008 27.0616C21.7415 27.0616 22.3958 27.0486 22.8638 27.0226V27.2826C22.5691 27.2999 22.3568 27.3346 22.2268 27.3866C22.0968 27.4386 22.0058 27.5382 21.9538 27.6856C21.9105 27.8329 21.8888 28.0712 21.8888 28.4006V34.4586L25.5938 28.1796C25.5851 27.9282 25.5505 27.7419 25.4898 27.6206C25.4378 27.4992 25.3468 27.4169 25.2168 27.3736C25.0868 27.3302 24.8875 27.2999 24.6188 27.2826V27.0226C25.0695 27.0486 25.7238 27.0616 26.5818 27.0616C27.5091 27.0616 28.1938 27.0486 28.6358 27.0226V27.2826ZM33.5855 30.7406C34.8941 30.7406 35.8475 31.0006 36.4455 31.5206C37.0521 32.0406 37.3555 32.6992 37.3555 33.4966C37.3555 34.3026 37.0521 34.9569 36.4455 35.4596C35.8388 35.9622 34.9071 36.2136 33.6505 36.2136C33.4078 36.2136 33.2041 36.2092 33.0395 36.2006L31.6745 36.1876C30.8511 36.1876 30.2185 36.2006 29.7765 36.2266V35.9666C30.0625 35.9492 30.2705 35.9146 30.4005 35.8626C30.5391 35.8106 30.6301 35.7109 30.6735 35.5636C30.7255 35.4162 30.7515 35.1779 30.7515 34.8486V28.4006C30.7515 28.0712 30.7255 27.8329 30.6735 27.6856C30.6301 27.5382 30.5391 27.4386 30.4005 27.3866C30.2705 27.3346 30.0625 27.2999 29.7765 27.2826V27.0226C30.7125 27.0486 32.1251 27.0616 34.0145 27.0616C35.2105 27.0616 36.0641 27.0486 36.5755 27.0226C36.5148 27.7419 36.4845 28.3832 36.4845 28.9466C36.4845 29.3279 36.4975 29.6226 36.5235 29.8306H36.2245C36.0511 28.9032 35.7955 28.2532 35.4575 27.8806C35.1195 27.5079 34.6645 27.3216 34.0925 27.3216H33.7155C33.4468 27.3216 33.2518 27.3432 33.1305 27.3866C33.0091 27.4299 32.9268 27.5166 32.8835 27.6466C32.8401 27.7679 32.8185 27.9672 32.8185 28.2446V30.7536C33.0091 30.7449 33.2648 30.7406 33.5855 30.7406ZM33.5595 35.9666C34.1661 35.9666 34.5908 35.7672 34.8335 35.3686C35.0761 34.9612 35.1975 34.3546 35.1975 33.5486C35.1975 32.7166 35.0588 32.0839 34.7815 31.6506C34.5128 31.2172 34.0275 31.0006 33.3255 31.0006H32.8185V34.8486C32.8185 35.1606 32.8358 35.3946 32.8705 35.5506C32.9138 35.6979 32.9875 35.8062 33.0915 35.8756C33.1955 35.9362 33.3515 35.9666 33.5595 35.9666ZM46.9744 27.2826C46.6624 27.2999 46.4327 27.3346 46.2854 27.3866C46.1467 27.4386 46.0514 27.5382 45.9994 27.6856C45.9474 27.8329 45.9214 28.0712 45.9214 28.4006V34.8486C45.9214 35.1779 45.9474 35.4162 45.9994 35.5636C46.0514 35.7109 46.1467 35.8106 46.2854 35.8626C46.4327 35.9146 46.6624 35.9492 46.9744 35.9666V36.2266C46.5237 36.2006 45.8174 36.1876 44.8554 36.1876C43.9107 36.1876 43.1914 36.2006 42.6974 36.2266V35.9666C43.0354 35.9492 43.2824 35.9146 43.4384 35.8626C43.5944 35.8106 43.7027 35.7109 43.7634 35.5636C43.8241 35.4076 43.8544 35.1692 43.8544 34.8486V28.4006C43.8544 28.0886 43.8241 27.8546 43.7634 27.6986C43.7114 27.5339 43.6204 27.4256 43.4904 27.3736C43.3691 27.3129 43.1914 27.2826 42.9574 27.2826H42.8664C42.6497 27.2826 42.4807 27.3129 42.3594 27.3736C42.2467 27.4342 42.1601 27.5426 42.0994 27.6986C42.0387 27.8546 41.9954 28.0886 41.9694 28.4006C41.9434 28.6432 41.9217 28.8772 41.9044 29.1026C41.8957 29.3279 41.8827 29.5402 41.8654 29.7396C41.7701 31.1262 41.6531 32.2616 41.5144 33.1456C41.3844 34.0296 41.1417 34.7966 40.7864 35.4466C40.4311 36.0879 39.9197 36.4086 39.2524 36.4086C38.8537 36.4086 38.5157 36.2959 38.2384 36.0706C37.9611 35.8452 37.8224 35.5549 37.8224 35.1996C37.8224 34.8702 37.9351 34.6059 38.1604 34.4066C38.3857 34.1986 38.6674 34.0946 39.0054 34.0946C39.2914 34.0946 39.5211 34.1682 39.6944 34.3156C39.8764 34.4542 39.9674 34.6492 39.9674 34.9006C39.9674 35.2039 39.8721 35.4596 39.6814 35.6676C39.4994 35.8669 39.2481 36.0099 38.9274 36.0966C39.0314 36.1399 39.1397 36.1616 39.2524 36.1616C39.8677 36.1616 40.3401 35.7932 40.6694 35.0566C40.9987 34.3199 41.2241 33.4489 41.3454 32.4436C41.4667 31.4296 41.5751 30.0819 41.6704 28.4006C41.6791 28.3312 41.6834 28.2359 41.6834 28.1146C41.6834 27.8892 41.6531 27.7202 41.5924 27.6076C41.5317 27.4949 41.4277 27.4169 41.2804 27.3736C41.1331 27.3302 40.9121 27.2999 40.6174 27.2826V27.0226C40.9814 27.0486 41.4277 27.0616 41.9564 27.0616C42.0864 27.0616 42.2814 27.0529 42.5414 27.0356L43.1004 27.0226L43.9714 27.0356C44.3701 27.0529 44.6994 27.0616 44.9594 27.0616C45.8521 27.0616 46.5237 27.0486 46.9744 27.0226V27.2826ZM57.8575 27.2826C57.5628 27.2999 57.3505 27.3346 57.2205 27.3866C57.0905 27.4386 56.9995 27.5382 56.9475 27.6856C56.9041 27.8329 56.8825 28.0712 56.8825 28.4006V34.8486C56.8825 35.1779 56.9041 35.4162 56.9475 35.5636C56.9995 35.7109 57.0905 35.8106 57.2205 35.8626C57.3505 35.9146 57.5628 35.9492 57.8575 35.9666V36.2266C57.4155 36.2006 56.7308 36.1876 55.8035 36.1876C54.9541 36.1876 54.2998 36.2006 53.8405 36.2266V35.9666C54.1265 35.9492 54.3345 35.9146 54.4645 35.8626C54.6031 35.8106 54.6941 35.7109 54.7375 35.5636C54.7895 35.4162 54.8155 35.1779 54.8155 34.8486V28.7646L51.1105 35.0176C51.1191 35.2862 51.1495 35.4856 51.2015 35.6156C51.2535 35.7369 51.3445 35.8236 51.4745 35.8756C51.6045 35.9189 51.8081 35.9492 52.0855 35.9666V36.2266C51.6175 36.2006 50.9631 36.1876 50.1225 36.1876C49.1951 36.1876 48.5105 36.2006 48.0685 36.2266V35.9666C48.3545 35.9492 48.5625 35.9146 48.6925 35.8626C48.8311 35.8106 48.9221 35.7109 48.9655 35.5636C49.0175 35.4162 49.0435 35.1779 49.0435 34.8486V28.4006C49.0435 28.0712 49.0175 27.8329 48.9655 27.6856C48.9221 27.5382 48.8311 27.4386 48.6925 27.3866C48.5625 27.3346 48.3545 27.2999 48.0685 27.2826V27.0226C48.5105 27.0486 49.1951 27.0616 50.1225 27.0616C50.9631 27.0616 51.6175 27.0486 52.0855 27.0226V27.2826C51.7908 27.2999 51.5785 27.3346 51.4485 27.3866C51.3185 27.4386 51.2275 27.5382 51.1755 27.6856C51.1321 27.8329 51.1105 28.0712 51.1105 28.4006V34.4586L54.8155 28.1796C54.8068 27.9282 54.7721 27.7419 54.7115 27.6206C54.6595 27.4992 54.5685 27.4169 54.4385 27.3736C54.3085 27.3302 54.1091 27.2999 53.8405 27.2826V27.0226C54.2911 27.0486 54.9455 27.0616 55.8035 27.0616C56.7308 27.0616 57.4155 27.0486 57.8575 27.0226V27.2826Z"/>
</mask>
<path d="M17.9894 22.1346C18.1021 22.4206 18.2321 22.6286 18.3794 22.7586C18.5267 22.8886 18.6697 22.9579 18.8084 22.9666V23.2266C18.2884 23.2006 17.6297 23.1876 16.8324 23.1876C15.9484 23.1876 15.2897 23.2006 14.8564 23.2266V22.9666C15.1857 22.9492 15.4197 22.9102 15.5584 22.8496C15.6971 22.7802 15.7664 22.6632 15.7664 22.4986C15.7664 22.3426 15.7144 22.1346 15.6104 21.8746L14.8304 19.7426H11.9964L11.6584 20.6396C11.4157 21.2636 11.2944 21.7446 11.2944 22.0826C11.2944 22.4032 11.3897 22.6286 11.5804 22.7586C11.7797 22.8799 12.0701 22.9492 12.4514 22.9666V23.2266C11.8621 23.2006 11.3247 23.1876 10.8394 23.1876C10.4407 23.1876 10.1114 23.2006 9.85139 23.2266V22.9666C10.2761 22.8886 10.6487 22.4336 10.9694 21.6016L13.9334 13.9966C14.0287 14.0052 14.1804 14.0096 14.3884 14.0096C14.5964 14.0096 14.7437 14.0052 14.8304 13.9966L17.9894 22.1346ZM14.7394 19.4826L13.4524 15.9726L12.1004 19.4826H14.7394ZM22.4669 19.5086V21.7706C22.4669 22.1172 22.5016 22.3729 22.5709 22.5376C22.6489 22.6936 22.7789 22.7976 22.9609 22.8496C23.1516 22.9016 23.4506 22.9319 23.8579 22.9406V23.2266C22.7919 23.2006 21.9989 23.1876 21.4789 23.1876C21.0456 23.1876 20.4996 23.1962 19.8409 23.2136L19.4249 23.2266V22.9666C19.7109 22.9492 19.9189 22.9146 20.0489 22.8626C20.1876 22.8106 20.2786 22.7109 20.3219 22.5636C20.3739 22.4162 20.3999 22.1779 20.3999 21.8486V15.4006C20.3999 15.0712 20.3739 14.8329 20.3219 14.6856C20.2786 14.5382 20.1876 14.4386 20.0489 14.3866C19.9189 14.3346 19.7109 14.2999 19.4249 14.2826V14.0226C19.8669 14.0486 20.5256 14.0616 21.4009 14.0616L22.8439 14.0486C23.0172 14.0399 23.2166 14.0356 23.4419 14.0356C24.6119 14.0356 25.5046 14.2696 26.1199 14.7376C26.7352 15.1969 27.0429 15.8166 27.0429 16.5966C27.0429 17.0732 26.9216 17.5326 26.6789 17.9746C26.4362 18.4079 26.0246 18.7719 25.4439 19.0666C24.8719 19.3612 24.1092 19.5086 23.1559 19.5086H22.4669ZM23.2729 14.2826C23.0389 14.2826 22.8656 14.3129 22.7529 14.3736C22.6489 14.4342 22.5752 14.5426 22.5319 14.6986C22.4886 14.8546 22.4669 15.0886 22.4669 15.4006V19.2486H23.0259C23.7279 19.2486 24.2132 19.0232 24.4819 18.5726C24.7506 18.1219 24.8849 17.5109 24.8849 16.7396C24.8849 15.8989 24.7592 15.2792 24.5079 14.8806C24.2652 14.4819 23.8536 14.2826 23.2729 14.2826ZM37.7442 14.2826C37.4495 14.2999 37.2372 14.3346 37.1072 14.3866C36.9772 14.4386 36.8862 14.5382 36.8342 14.6856C36.7909 14.8329 36.7692 15.0712 36.7692 15.4006V21.8486C36.7692 22.1779 36.7909 22.4162 36.8342 22.5636C36.8862 22.7109 36.9772 22.8106 37.1072 22.8626C37.2372 22.9146 37.4495 22.9492 37.7442 22.9666V23.2266C37.3022 23.2006 36.6175 23.1876 35.6902 23.1876C34.8409 23.1876 34.1865 23.2006 33.7272 23.2266V22.9666C34.0132 22.9492 34.2212 22.9146 34.3512 22.8626C34.4899 22.8106 34.5809 22.7109 34.6242 22.5636C34.6762 22.4162 34.7022 22.1779 34.7022 21.8486V15.7646L30.9972 22.0176C31.0059 22.2862 31.0362 22.4856 31.0882 22.6156C31.1402 22.7369 31.2312 22.8236 31.3612 22.8756C31.4912 22.9189 31.6949 22.9492 31.9722 22.9666V23.2266C31.5042 23.2006 30.8499 23.1876 30.0092 23.1876C29.0819 23.1876 28.3972 23.2006 27.9552 23.2266V22.9666C28.2412 22.9492 28.4492 22.9146 28.5792 22.8626C28.7179 22.8106 28.8089 22.7109 28.8522 22.5636C28.9042 22.4162 28.9302 22.1779 28.9302 21.8486V15.4006C28.9302 15.0712 28.9042 14.8329 28.8522 14.6856C28.8089 14.5382 28.7179 14.4386 28.5792 14.3866C28.4492 14.3346 28.2412 14.2999 27.9552 14.2826V14.0226C28.3972 14.0486 29.0819 14.0616 30.0092 14.0616C30.8499 14.0616 31.5042 14.0486 31.9722 14.0226V14.2826C31.6775 14.2999 31.4652 14.3346 31.3352 14.3866C31.2052 14.4386 31.1142 14.5382 31.0622 14.6856C31.0189 14.8329 30.9972 15.0712 30.9972 15.4006V21.4586L34.7022 15.1796C34.6935 14.9282 34.6589 14.7419 34.5982 14.6206C34.5462 14.4992 34.4552 14.4169 34.3252 14.3736C34.1952 14.3302 33.9959 14.2999 33.7272 14.2826V14.0226C34.1779 14.0486 34.8322 14.0616 35.6902 14.0616C36.6175 14.0616 37.3022 14.0486 37.7442 14.0226V14.2826ZM46.2169 14.0616C46.6242 14.0616 46.9579 14.0486 47.2179 14.0226V14.2826C47.0272 14.3519 46.8322 14.5036 46.6329 14.7376C46.4422 14.9716 46.2255 15.3182 45.9829 15.7776L43.4219 20.9256L42.8109 22.1606C42.6202 22.5506 42.4295 22.8409 42.2389 23.0316C41.9875 23.2829 41.6235 23.4086 41.1469 23.4086C40.7049 23.4086 40.3539 23.3089 40.0939 23.1096C39.8339 22.9102 39.7039 22.6502 39.7039 22.3296C39.7039 22.0262 39.8122 21.7792 40.0289 21.5886C40.2542 21.3979 40.5315 21.3026 40.8609 21.3026C41.1989 21.3026 41.4675 21.3762 41.6669 21.5236C41.8749 21.6709 41.9789 21.8746 41.9789 22.1346C41.9789 22.3686 41.8965 22.5679 41.7319 22.7326C41.5759 22.8972 41.3679 23.0229 41.1079 23.1096C41.1599 23.1356 41.2465 23.1486 41.3679 23.1486C41.6105 23.1486 41.8229 23.0662 42.0049 22.9016C42.1955 22.7282 42.3732 22.4726 42.5379 22.1346L42.8369 21.5106L39.1709 15.0756C38.8849 14.5902 38.5989 14.3259 38.3129 14.2826V14.0226C38.6595 14.0486 39.2359 14.0616 40.0419 14.0616C40.9692 14.0616 41.6582 14.0486 42.1089 14.0226V14.2826C41.6669 14.2999 41.4459 14.4689 41.4459 14.7896C41.4459 14.9456 41.4935 15.1232 41.5889 15.3226L43.8899 19.4046L45.2029 16.7396C45.5322 16.0896 45.6969 15.5652 45.6969 15.1666C45.6969 14.8632 45.6015 14.6466 45.4109 14.5166C45.2289 14.3779 44.9602 14.2999 44.6049 14.2826V14.0226C45.1942 14.0486 45.7315 14.0616 46.2169 14.0616ZM57.2615 14.2826C56.9669 14.2999 56.7545 14.3346 56.6245 14.3866C56.4945 14.4386 56.4035 14.5382 56.3515 14.6856C56.3082 14.8329 56.2865 15.0712 56.2865 15.4006V21.8486C56.2865 22.1779 56.3082 22.4162 56.3515 22.5636C56.4035 22.7109 56.4945 22.8106 56.6245 22.8626C56.7545 22.9146 56.9669 22.9492 57.2615 22.9666V23.2266C56.8369 23.2006 56.1782 23.1876 55.2855 23.1876C54.4102 23.1876 53.7299 23.2006 53.2445 23.2266V22.9666C53.5305 22.9492 53.7385 22.9146 53.8685 22.8626C54.0072 22.8106 54.0982 22.7109 54.1415 22.5636C54.1935 22.4162 54.2195 22.1779 54.2195 21.8486V18.7286H50.7745V21.8486C50.7745 22.1779 50.7962 22.4162 50.8395 22.5636C50.8915 22.7109 50.9825 22.8106 51.1125 22.8626C51.2425 22.9146 51.4549 22.9492 51.7495 22.9666V23.2266C51.2815 23.2006 50.6272 23.1876 49.7865 23.1876C48.8592 23.1876 48.1745 23.2006 47.7325 23.2266V22.9666C48.0185 22.9492 48.2265 22.9146 48.3565 22.8626C48.4952 22.8106 48.5862 22.7109 48.6295 22.5636C48.6815 22.4162 48.7075 22.1779 48.7075 21.8486V15.4006C48.7075 15.0712 48.6815 14.8329 48.6295 14.6856C48.5862 14.5382 48.4952 14.4386 48.3565 14.3866C48.2265 14.3346 48.0185 14.2999 47.7325 14.2826V14.0226C48.1745 14.0486 48.8592 14.0616 49.7865 14.0616C50.6272 14.0616 51.2815 14.0486 51.7495 14.0226V14.2826C51.4549 14.2999 51.2425 14.3346 51.1125 14.3866C50.9825 14.4386 50.8915 14.5382 50.8395 14.6856C50.7962 14.8329 50.7745 15.0712 50.7745 15.4006V18.4686H54.2195V15.4006C54.2195 15.0712 54.1935 14.8329 54.1415 14.6856C54.0982 14.5382 54.0072 14.4386 53.8685 14.3866C53.7385 14.3346 53.5305 14.2999 53.2445 14.2826V14.0226C53.7299 14.0486 54.4102 14.0616 55.2855 14.0616C56.1782 14.0616 56.8369 14.0486 57.2615 14.0226V14.2826ZM13.9605 30.7406C15.2691 30.7406 16.2225 31.0006 16.8205 31.5206C17.4271 32.0406 17.7305 32.6992 17.7305 33.4966C17.7305 34.3026 17.4271 34.9569 16.8205 35.4596C16.2138 35.9622 15.2821 36.2136 14.0255 36.2136C13.7828 36.2136 13.5791 36.2092 13.4145 36.2006L12.0495 36.1876C11.2261 36.1876 10.5935 36.2006 10.1515 36.2266V35.9666C10.4375 35.9492 10.6455 35.9146 10.7755 35.8626C10.9141 35.8106 11.0051 35.7109 11.0485 35.5636C11.1005 35.4162 11.1265 35.1779 11.1265 34.8486V28.4006C11.1265 28.0712 11.1005 27.8329 11.0485 27.6856C11.0051 27.5382 10.9141 27.4386 10.7755 27.3866C10.6455 27.3346 10.4375 27.2999 10.1515 27.2826V27.0226C11.0875 27.0486 12.5001 27.0616 14.3895 27.0616C15.5855 27.0616 16.4391 27.0486 16.9505 27.0226C16.8898 27.7419 16.8595 28.3832 16.8595 28.9466C16.8595 29.3279 16.8725 29.6226 16.8985 29.8306H16.5995C16.4261 28.9032 16.1705 28.2532 15.8325 27.8806C15.4945 27.5079 15.0395 27.3216 14.4675 27.3216H14.0905C13.8218 27.3216 13.6268 27.3432 13.5055 27.3866C13.3841 27.4299 13.3018 27.5166 13.2585 27.6466C13.2151 27.7679 13.1935 27.9672 13.1935 28.2446V30.7536C13.3841 30.7449 13.6398 30.7406 13.9605 30.7406ZM13.9345 35.9666C14.5411 35.9666 14.9658 35.7672 15.2085 35.3686C15.4511 34.9612 15.5725 34.3546 15.5725 33.5486C15.5725 32.7166 15.4338 32.0839 15.1565 31.6506C14.8878 31.2172 14.4025 31.0006 13.7005 31.0006H13.1935V34.8486C13.1935 35.1606 13.2108 35.3946 13.2455 35.5506C13.2888 35.6979 13.3625 35.8062 13.4665 35.8756C13.5705 35.9362 13.7265 35.9666 13.9345 35.9666ZM28.6358 27.2826C28.3411 27.2999 28.1288 27.3346 27.9988 27.3866C27.8688 27.4386 27.7778 27.5382 27.7258 27.6856C27.6825 27.8329 27.6608 28.0712 27.6608 28.4006V34.8486C27.6608 35.1779 27.6825 35.4162 27.7258 35.5636C27.7778 35.7109 27.8688 35.8106 27.9988 35.8626C28.1288 35.9146 28.3411 35.9492 28.6358 35.9666V36.2266C28.1938 36.2006 27.5091 36.1876 26.5818 36.1876C25.7325 36.1876 25.0781 36.2006 24.6188 36.2266V35.9666C24.9048 35.9492 25.1128 35.9146 25.2428 35.8626C25.3815 35.8106 25.4725 35.7109 25.5158 35.5636C25.5678 35.4162 25.5938 35.1779 25.5938 34.8486V28.7646L21.8888 35.0176C21.8975 35.2862 21.9278 35.4856 21.9798 35.6156C22.0318 35.7369 22.1228 35.8236 22.2528 35.8756C22.3828 35.9189 22.5865 35.9492 22.8638 35.9666V36.2266C22.3958 36.2006 21.7415 36.1876 20.9008 36.1876C19.9735 36.1876 19.2888 36.2006 18.8468 36.2266V35.9666C19.1328 35.9492 19.3408 35.9146 19.4708 35.8626C19.6095 35.8106 19.7005 35.7109 19.7438 35.5636C19.7958 35.4162 19.8218 35.1779 19.8218 34.8486V28.4006C19.8218 28.0712 19.7958 27.8329 19.7438 27.6856C19.7005 27.5382 19.6095 27.4386 19.4708 27.3866C19.3408 27.3346 19.1328 27.2999 18.8468 27.2826V27.0226C19.2888 27.0486 19.9735 27.0616 20.9008 27.0616C21.7415 27.0616 22.3958 27.0486 22.8638 27.0226V27.2826C22.5691 27.2999 22.3568 27.3346 22.2268 27.3866C22.0968 27.4386 22.0058 27.5382 21.9538 27.6856C21.9105 27.8329 21.8888 28.0712 21.8888 28.4006V34.4586L25.5938 28.1796C25.5851 27.9282 25.5505 27.7419 25.4898 27.6206C25.4378 27.4992 25.3468 27.4169 25.2168 27.3736C25.0868 27.3302 24.8875 27.2999 24.6188 27.2826V27.0226C25.0695 27.0486 25.7238 27.0616 26.5818 27.0616C27.5091 27.0616 28.1938 27.0486 28.6358 27.0226V27.2826ZM33.5855 30.7406C34.8941 30.7406 35.8475 31.0006 36.4455 31.5206C37.0521 32.0406 37.3555 32.6992 37.3555 33.4966C37.3555 34.3026 37.0521 34.9569 36.4455 35.4596C35.8388 35.9622 34.9071 36.2136 33.6505 36.2136C33.4078 36.2136 33.2041 36.2092 33.0395 36.2006L31.6745 36.1876C30.8511 36.1876 30.2185 36.2006 29.7765 36.2266V35.9666C30.0625 35.9492 30.2705 35.9146 30.4005 35.8626C30.5391 35.8106 30.6301 35.7109 30.6735 35.5636C30.7255 35.4162 30.7515 35.1779 30.7515 34.8486V28.4006C30.7515 28.0712 30.7255 27.8329 30.6735 27.6856C30.6301 27.5382 30.5391 27.4386 30.4005 27.3866C30.2705 27.3346 30.0625 27.2999 29.7765 27.2826V27.0226C30.7125 27.0486 32.1251 27.0616 34.0145 27.0616C35.2105 27.0616 36.0641 27.0486 36.5755 27.0226C36.5148 27.7419 36.4845 28.3832 36.4845 28.9466C36.4845 29.3279 36.4975 29.6226 36.5235 29.8306H36.2245C36.0511 28.9032 35.7955 28.2532 35.4575 27.8806C35.1195 27.5079 34.6645 27.3216 34.0925 27.3216H33.7155C33.4468 27.3216 33.2518 27.3432 33.1305 27.3866C33.0091 27.4299 32.9268 27.5166 32.8835 27.6466C32.8401 27.7679 32.8185 27.9672 32.8185 28.2446V30.7536C33.0091 30.7449 33.2648 30.7406 33.5855 30.7406ZM33.5595 35.9666C34.1661 35.9666 34.5908 35.7672 34.8335 35.3686C35.0761 34.9612 35.1975 34.3546 35.1975 33.5486C35.1975 32.7166 35.0588 32.0839 34.7815 31.6506C34.5128 31.2172 34.0275 31.0006 33.3255 31.0006H32.8185V34.8486C32.8185 35.1606 32.8358 35.3946 32.8705 35.5506C32.9138 35.6979 32.9875 35.8062 33.0915 35.8756C33.1955 35.9362 33.3515 35.9666 33.5595 35.9666ZM46.9744 27.2826C46.6624 27.2999 46.4327 27.3346 46.2854 27.3866C46.1467 27.4386 46.0514 27.5382 45.9994 27.6856C45.9474 27.8329 45.9214 28.0712 45.9214 28.4006V34.8486C45.9214 35.1779 45.9474 35.4162 45.9994 35.5636C46.0514 35.7109 46.1467 35.8106 46.2854 35.8626C46.4327 35.9146 46.6624 35.9492 46.9744 35.9666V36.2266C46.5237 36.2006 45.8174 36.1876 44.8554 36.1876C43.9107 36.1876 43.1914 36.2006 42.6974 36.2266V35.9666C43.0354 35.9492 43.2824 35.9146 43.4384 35.8626C43.5944 35.8106 43.7027 35.7109 43.7634 35.5636C43.8241 35.4076 43.8544 35.1692 43.8544 34.8486V28.4006C43.8544 28.0886 43.8241 27.8546 43.7634 27.6986C43.7114 27.5339 43.6204 27.4256 43.4904 27.3736C43.3691 27.3129 43.1914 27.2826 42.9574 27.2826H42.8664C42.6497 27.2826 42.4807 27.3129 42.3594 27.3736C42.2467 27.4342 42.1601 27.5426 42.0994 27.6986C42.0387 27.8546 41.9954 28.0886 41.9694 28.4006C41.9434 28.6432 41.9217 28.8772 41.9044 29.1026C41.8957 29.3279 41.8827 29.5402 41.8654 29.7396C41.7701 31.1262 41.6531 32.2616 41.5144 33.1456C41.3844 34.0296 41.1417 34.7966 40.7864 35.4466C40.4311 36.0879 39.9197 36.4086 39.2524 36.4086C38.8537 36.4086 38.5157 36.2959 38.2384 36.0706C37.9611 35.8452 37.8224 35.5549 37.8224 35.1996C37.8224 34.8702 37.9351 34.6059 38.1604 34.4066C38.3857 34.1986 38.6674 34.0946 39.0054 34.0946C39.2914 34.0946 39.5211 34.1682 39.6944 34.3156C39.8764 34.4542 39.9674 34.6492 39.9674 34.9006C39.9674 35.2039 39.8721 35.4596 39.6814 35.6676C39.4994 35.8669 39.2481 36.0099 38.9274 36.0966C39.0314 36.1399 39.1397 36.1616 39.2524 36.1616C39.8677 36.1616 40.3401 35.7932 40.6694 35.0566C40.9987 34.3199 41.2241 33.4489 41.3454 32.4436C41.4667 31.4296 41.5751 30.0819 41.6704 28.4006C41.6791 28.3312 41.6834 28.2359 41.6834 28.1146C41.6834 27.8892 41.6531 27.7202 41.5924 27.6076C41.5317 27.4949 41.4277 27.4169 41.2804 27.3736C41.1331 27.3302 40.9121 27.2999 40.6174 27.2826V27.0226C40.9814 27.0486 41.4277 27.0616 41.9564 27.0616C42.0864 27.0616 42.2814 27.0529 42.5414 27.0356L43.1004 27.0226L43.9714 27.0356C44.3701 27.0529 44.6994 27.0616 44.9594 27.0616C45.8521 27.0616 46.5237 27.0486 46.9744 27.0226V27.2826ZM57.8575 27.2826C57.5628 27.2999 57.3505 27.3346 57.2205 27.3866C57.0905 27.4386 56.9995 27.5382 56.9475 27.6856C56.9041 27.8329 56.8825 28.0712 56.8825 28.4006V34.8486C56.8825 35.1779 56.9041 35.4162 56.9475 35.5636C56.9995 35.7109 57.0905 35.8106 57.2205 35.8626C57.3505 35.9146 57.5628 35.9492 57.8575 35.9666V36.2266C57.4155 36.2006 56.7308 36.1876 55.8035 36.1876C54.9541 36.1876 54.2998 36.2006 53.8405 36.2266V35.9666C54.1265 35.9492 54.3345 35.9146 54.4645 35.8626C54.6031 35.8106 54.6941 35.7109 54.7375 35.5636C54.7895 35.4162 54.8155 35.1779 54.8155 34.8486V28.7646L51.1105 35.0176C51.1191 35.2862 51.1495 35.4856 51.2015 35.6156C51.2535 35.7369 51.3445 35.8236 51.4745 35.8756C51.6045 35.9189 51.8081 35.9492 52.0855 35.9666V36.2266C51.6175 36.2006 50.9631 36.1876 50.1225 36.1876C49.1951 36.1876 48.5105 36.2006 48.0685 36.2266V35.9666C48.3545 35.9492 48.5625 35.9146 48.6925 35.8626C48.8311 35.8106 48.9221 35.7109 48.9655 35.5636C49.0175 35.4162 49.0435 35.1779 49.0435 34.8486V28.4006C49.0435 28.0712 49.0175 27.8329 48.9655 27.6856C48.9221 27.5382 48.8311 27.4386 48.6925 27.3866C48.5625 27.3346 48.3545 27.2999 48.0685 27.2826V27.0226C48.5105 27.0486 49.1951 27.0616 50.1225 27.0616C50.9631 27.0616 51.6175 27.0486 52.0855 27.0226V27.2826C51.7908 27.2999 51.5785 27.3346 51.4485 27.3866C51.3185 27.4386 51.2275 27.5382 51.1755 27.6856C51.1321 27.8329 51.1105 28.0712 51.1105 28.4006V34.4586L54.8155 28.1796C54.8068 27.9282 54.7721 27.7419 54.7115 27.6206C54.6595 27.4992 54.5685 27.4169 54.4385 27.3736C54.3085 27.3302 54.1091 27.2999 53.8405 27.2826V27.0226C54.2911 27.0486 54.9455 27.0616 55.8035 27.0616C56.7308 27.0616 57.4155 27.0486 57.8575 27.0226V27.2826Z" fill="#FEF5EB"/>
<path d="M17.9894 22.1346L17.8004 22.2079L17.8008 22.2089L17.9894 22.1346ZM18.8084 22.9666H19.0111V22.7761L18.821 22.7642L18.8084 22.9666ZM18.8084 23.2266L18.7983 23.429L19.0111 23.4397V23.2266H18.8084ZM14.8564 23.2266H14.6536V23.4418L14.8685 23.4289L14.8564 23.2266ZM14.8564 22.9666L14.8457 22.7641L14.6536 22.7742V22.9666H14.8564ZM15.5584 22.8496L15.6398 23.0355L15.6491 23.0309L15.5584 22.8496ZM15.6104 21.8746L15.4199 21.9443L15.4222 21.9499L15.6104 21.8746ZM14.8304 19.7426L15.0208 19.6729L14.9721 19.5398H14.8304V19.7426ZM11.9964 19.7426V19.5398H11.8561L11.8067 19.6711L11.9964 19.7426ZM11.6584 20.6396L11.8473 20.713L11.8481 20.711L11.6584 20.6396ZM11.5804 22.7586L11.466 22.9263L11.475 22.9317L11.5804 22.7586ZM12.4514 22.9666H12.6541V22.7728L12.4606 22.764L12.4514 22.9666ZM12.4514 23.2266L12.4425 23.4291L12.6541 23.4384V23.2266H12.4514ZM9.85139 23.2266H9.64865V23.4506L9.87156 23.4283L9.85139 23.2266ZM9.85139 22.9666L9.81476 22.7672L9.64865 22.7977V22.9666H9.85139ZM10.9694 21.6016L10.7805 21.5279L10.7802 21.5287L10.9694 21.6016ZM13.9334 13.9966L13.9517 13.7947L13.7999 13.7809L13.7445 13.9229L13.9334 13.9966ZM14.8304 13.9966L15.0194 13.9232L14.9636 13.7795L14.8102 13.7948L14.8304 13.9966ZM14.7394 19.4826V19.6853H15.0297L14.9297 19.4128L14.7394 19.4826ZM13.4524 15.9726L13.6427 15.9028L13.4571 15.3964L13.2632 15.8997L13.4524 15.9726ZM12.1004 19.4826L11.9112 19.4097L11.805 19.6853H12.1004V19.4826ZM17.8008 22.2089C17.9192 22.5095 18.064 22.7507 18.2453 22.9106L18.5135 22.6065C18.4001 22.5064 18.2849 22.3316 18.178 22.0603L17.8008 22.2089ZM18.2453 22.9106C18.4127 23.0583 18.5968 23.1565 18.7957 23.1689L18.821 22.7642C18.7426 22.7593 18.6407 22.7188 18.5135 22.6065L18.2453 22.9106ZM18.6056 22.9666V23.2266H19.0111V22.9666H18.6056ZM18.8185 23.0241C18.2939 22.9978 17.6315 22.9848 16.8324 22.9848V23.3903C17.6279 23.3903 18.2829 23.4033 18.7983 23.429L18.8185 23.0241ZM16.8324 22.9848C15.9476 22.9848 15.2839 22.9978 14.8442 23.0242L14.8685 23.4289C15.2955 23.4033 15.9492 23.3903 16.8324 23.3903V22.9848ZM15.0591 23.2266V22.9666H14.6536V23.2266H15.0591ZM14.867 23.169C15.1988 23.1516 15.4648 23.1118 15.6396 23.0353L15.4771 22.6638C15.3746 22.7087 15.1726 22.7469 14.8457 22.7641L14.867 23.169ZM15.6491 23.0309C15.7482 22.9813 15.8316 22.9097 15.8888 22.8132C15.9456 22.7174 15.9691 22.6096 15.9691 22.4986H15.5637C15.5637 22.5522 15.5525 22.5852 15.54 22.6065C15.5278 22.627 15.5072 22.6485 15.4677 22.6682L15.6491 23.0309ZM15.9691 22.4986C15.9691 22.3039 15.9058 22.0672 15.7986 21.7993L15.4222 21.9499C15.523 22.2019 15.5637 22.3813 15.5637 22.4986H15.9691ZM15.8008 21.8049L15.0208 19.6729L14.64 19.8122L15.42 21.9442L15.8008 21.8049ZM14.8304 19.5398H11.9964V19.9453H14.8304V19.5398ZM11.8067 19.6711L11.4687 20.5681L11.8481 20.711L12.1861 19.814L11.8067 19.6711ZM11.4694 20.5661C11.2248 21.1951 11.0916 21.7053 11.0916 22.0826H11.4971C11.4971 21.7839 11.6066 21.332 11.8473 20.713L11.4694 20.5661ZM11.0916 22.0826C11.0916 22.4419 11.2002 22.7447 11.4662 22.9261L11.6946 22.5911C11.5792 22.5124 11.4971 22.3646 11.4971 22.0826H11.0916ZM11.475 22.9317C11.7163 23.0786 12.0461 23.1511 12.4422 23.1691L12.4606 22.764C12.094 22.7474 11.8431 22.6811 11.6858 22.5854L11.475 22.9317ZM12.2487 22.9666V23.2266H12.6541V22.9666H12.2487ZM12.4603 23.024C11.8686 22.9979 11.3283 22.9848 10.8394 22.9848V23.3903C11.3212 23.3903 11.8555 23.4032 12.4425 23.4291L12.4603 23.024ZM10.8394 22.9848C10.4371 22.9848 10.1004 22.9979 9.83121 23.0248L9.87156 23.4283C10.1224 23.4032 10.4444 23.3903 10.8394 23.3903V22.9848ZM10.0541 23.2266V22.9666H9.64865V23.2266H10.0541ZM9.88801 23.166C10.1622 23.1156 10.4005 22.9464 10.6062 22.6953C10.8113 22.4448 10.994 22.1013 11.1586 21.6745L10.7802 21.5287C10.6241 21.9338 10.4601 22.2338 10.2925 22.4384C10.1256 22.6422 9.96521 22.7395 9.81476 22.7672L9.88801 23.166ZM11.1583 21.6752L14.1223 14.0702L13.7445 13.9229L10.7805 21.5279L11.1583 21.6752ZM13.915 14.1985C14.0202 14.208 14.1796 14.2123 14.3884 14.2123V13.8068C14.1811 13.8068 14.0373 13.8024 13.9517 13.7947L13.915 14.1985ZM14.3884 14.2123C14.5965 14.2123 14.7528 14.2081 14.8506 14.1983L14.8102 13.7948C14.7346 13.8024 14.5963 13.8068 14.3884 13.8068V14.2123ZM14.6414 14.0699L17.8004 22.2079L18.1784 22.0612L15.0194 13.9232L14.6414 14.0699ZM14.9297 19.4128L13.6427 15.9028L13.262 16.0424L14.549 19.5524L14.9297 19.4128ZM13.2632 15.8997L11.9112 19.4097L12.2896 19.5554L13.6416 16.0454L13.2632 15.8997ZM12.1004 19.6853H14.7394V19.2798H12.1004V19.6853ZM22.4669 19.5086V19.3058H22.2642V19.5086H22.4669ZM22.5709 22.5376L22.3837 22.6164L22.3896 22.6282L22.5709 22.5376ZM22.9609 22.8496L22.9052 23.0445L22.9076 23.0452L22.9609 22.8496ZM23.8579 22.9406H24.0606V22.7421L23.8622 22.7379L23.8579 22.9406ZM23.8579 23.2266L23.853 23.4292L24.0606 23.4343V23.2266H23.8579ZM19.8409 23.2136L19.8356 23.0109L19.8346 23.0109L19.8409 23.2136ZM19.4249 23.2266H19.2222V23.4357L19.4312 23.4292L19.4249 23.2266ZM19.4249 22.9666L19.4126 22.7642L19.2222 22.7757V22.9666H19.4249ZM20.0489 22.8626L19.9777 22.6727L19.9736 22.6743L20.0489 22.8626ZM20.3219 22.5636L20.1305 22.496L20.1274 22.5064L20.3219 22.5636ZM20.3219 14.6856L20.1271 14.7428L20.1307 14.753L20.3219 14.6856ZM20.0489 14.3866L19.9736 14.5748L19.9777 14.5764L20.0489 14.3866ZM19.4249 14.2826H19.2222V14.4734L19.4126 14.4849L19.4249 14.2826ZM19.4249 14.0226L19.4368 13.8202L19.2222 13.8075V14.0226H19.4249ZM21.4009 14.0616V14.2643L21.4027 14.2643L21.4009 14.0616ZM22.8439 14.0486L22.8457 14.2515L22.854 14.251L22.8439 14.0486ZM26.1199 14.7376L25.9972 14.8989L25.9986 14.9L26.1199 14.7376ZM26.6789 17.9746L26.8558 18.0736L26.8566 18.0721L26.6789 17.9746ZM25.4439 19.0666L25.3522 18.8858L25.3511 18.8863L25.4439 19.0666ZM22.7529 14.3736L22.6567 14.195L22.6508 14.1984L22.7529 14.3736ZM22.5319 14.6986L22.3366 14.6443V14.6443L22.5319 14.6986ZM22.4669 19.2486H22.2642V19.4513H22.4669V19.2486ZM24.4819 18.5726L24.3078 18.4687V18.4687L24.4819 18.5726ZM24.5079 14.8806L24.3347 14.986L24.3364 14.9887L24.5079 14.8806ZM22.2642 19.5086V21.7706H22.6696V19.5086H22.2642ZM22.2642 21.7706C22.2642 22.1236 22.2984 22.4129 22.3841 22.6162L22.7578 22.4589C22.7047 22.3329 22.6696 22.1108 22.6696 21.7706H22.2642ZM22.3896 22.6282C22.4953 22.8397 22.6738 22.9784 22.9052 23.0445L23.0166 22.6546C22.884 22.6167 22.8025 22.5474 22.7522 22.4469L22.3896 22.6282ZM22.9076 23.0452C23.1235 23.104 23.4433 23.1345 23.8536 23.1433L23.8622 22.7379C23.4578 22.7293 23.1797 22.6991 23.0143 22.654L22.9076 23.0452ZM23.6552 22.9406V23.2266H24.0606V22.9406H23.6552ZM23.8629 23.0239C22.7965 22.9979 22.0015 22.9848 21.4789 22.9848V23.3903C21.9963 23.3903 22.7873 23.4032 23.853 23.4292L23.8629 23.0239ZM21.4789 22.9848C21.0431 22.9848 20.4952 22.9935 19.8356 23.0109L19.8462 23.4162C20.5039 23.3989 21.048 23.3903 21.4789 23.3903V22.9848ZM19.8346 23.0109L19.4186 23.0239L19.4312 23.4292L19.8472 23.4162L19.8346 23.0109ZM19.6276 23.2266V22.9666H19.2222V23.2266H19.6276ZM19.4372 23.1689C19.7271 23.1514 19.9624 23.1155 20.1242 23.0508L19.9736 22.6743C19.8754 22.7136 19.6947 22.7471 19.4126 22.7642L19.4372 23.1689ZM20.1201 23.0524C20.321 22.9771 20.4559 22.8266 20.5164 22.6208L20.1274 22.5064C20.1013 22.5952 20.0542 22.6441 19.9777 22.6727L20.1201 23.0524ZM20.5131 22.631C20.5773 22.4491 20.6026 22.1812 20.6026 21.8486H20.1972C20.1972 22.1746 20.1705 22.3834 20.1307 22.4961L20.5131 22.631ZM20.6026 21.8486V15.4006H20.1972V21.8486H20.6026ZM20.6026 15.4006C20.6026 15.0679 20.5773 14.8 20.5131 14.6181L20.1307 14.753C20.1705 14.8657 20.1972 15.0745 20.1972 15.4006H20.6026ZM20.5164 14.6284C20.4559 14.4225 20.321 14.2721 20.1201 14.1967L19.9777 14.5764C20.0542 14.6051 20.1013 14.6539 20.1274 14.7428L20.5164 14.6284ZM20.1242 14.1983C19.9624 14.1336 19.7271 14.0978 19.4372 14.0802L19.4126 14.4849C19.6947 14.502 19.8754 14.5355 19.9736 14.5748L20.1242 14.1983ZM19.6276 14.2826V14.0226H19.2222V14.2826H19.6276ZM19.413 14.2249C19.8611 14.2513 20.5246 14.2643 21.4009 14.2643V13.8588C20.5265 13.8588 19.8727 13.8458 19.4368 13.8202L19.413 14.2249ZM21.4027 14.2643L22.8457 14.2513L22.8421 13.8458L21.3991 13.8588L21.4027 14.2643ZM22.854 14.251C23.0232 14.2426 23.219 14.2383 23.4419 14.2383V13.8328C23.2141 13.8328 23.0113 13.8372 22.8338 13.8461L22.854 14.251ZM23.4419 14.2383C24.5892 14.2383 25.4311 14.4684 25.9972 14.8989L26.2426 14.5762C25.578 14.0707 24.6346 13.8328 23.4419 13.8328V14.2383ZM25.9986 14.9C26.5618 15.3204 26.8402 15.8793 26.8402 16.5966H27.2456C27.2456 15.7538 26.9087 15.0734 26.2412 14.5751L25.9986 14.9ZM26.8402 16.5966C26.8402 17.0371 26.7284 17.4631 26.5012 17.877L26.8566 18.0721C27.1147 17.602 27.2456 17.1093 27.2456 16.5966H26.8402ZM26.502 17.8755C26.2843 18.2643 25.908 18.6037 25.3522 18.8858L25.5357 19.2474C26.1412 18.9401 26.5882 18.5514 26.8558 18.0736L26.502 17.8755ZM25.3511 18.8863C24.8183 19.1608 24.0913 19.3058 23.1559 19.3058V19.7113C24.1272 19.7113 24.9255 19.5617 25.5368 19.2468L25.3511 18.8863ZM23.1559 19.3058H22.4669V19.7113H23.1559V19.3058ZM23.2729 14.0798C23.0289 14.0798 22.8144 14.1102 22.6568 14.1951L22.849 14.5521C22.9167 14.5156 23.0489 14.4853 23.2729 14.4853V14.0798ZM22.6508 14.1984C22.4872 14.2938 22.389 14.4554 22.3366 14.6443L22.7273 14.7528C22.7614 14.6297 22.8106 14.5746 22.8551 14.5487L22.6508 14.1984ZM22.3366 14.6443C22.2857 14.8275 22.2642 15.0839 22.2642 15.4006H22.6696C22.6696 15.0933 22.6915 14.8816 22.7273 14.7528L22.3366 14.6443ZM22.2642 15.4006V19.2486H22.6696V15.4006H22.2642ZM22.4669 19.4513H23.0259V19.0458H22.4669V19.4513ZM23.0259 19.4513C23.772 19.4513 24.3387 19.2087 24.656 18.6764L24.3078 18.4687C24.0878 18.8378 23.6838 19.0458 23.0259 19.0458V19.4513ZM24.656 18.6764C24.9502 18.1829 25.0876 17.5314 25.0876 16.7396H24.6822C24.6822 17.4904 24.5509 18.0609 24.3078 18.4687L24.656 18.6764ZM25.0876 16.7396C25.0876 15.8866 24.9616 15.2201 24.6794 14.7724L24.3364 14.9887C24.5569 15.3384 24.6822 15.9111 24.6822 16.7396H25.0876ZM24.6811 14.7751C24.3923 14.3008 23.9044 14.0798 23.2729 14.0798V14.4853C23.8028 14.4853 24.1382 14.663 24.3347 14.986L24.6811 14.7751ZM37.7442 14.2826L37.7561 14.4849L37.9469 14.4737V14.2826H37.7442ZM37.1072 14.3866L37.1825 14.5748L37.1825 14.5748L37.1072 14.3866ZM36.8342 14.6856L36.6427 14.618L36.6397 14.6284L36.8342 14.6856ZM36.8342 22.5636L36.6394 22.6208L36.643 22.631L36.8342 22.5636ZM37.1072 22.8626L37.0319 23.0508V23.0508L37.1072 22.8626ZM37.7442 22.9666H37.9469V22.7754L37.7561 22.7642L37.7442 22.9666ZM37.7442 23.2266L37.7323 23.4289L37.9469 23.4416V23.2266H37.7442ZM33.7272 23.2266H33.5244V23.4411L33.7386 23.429L33.7272 23.2266ZM33.7272 22.9666L33.7149 22.7642L33.5244 22.7757V22.9666H33.7272ZM34.3512 22.8626L34.28 22.6727L34.2759 22.6743L34.3512 22.8626ZM34.6242 22.5636L34.4327 22.496L34.4297 22.5064L34.6242 22.5636ZM34.7022 15.7646H34.9049V15.0247L34.5278 15.6612L34.7022 15.7646ZM30.9972 22.0176L30.8228 21.9142L30.7926 21.965L30.7946 22.0241L30.9972 22.0176ZM31.0882 22.6156L30.8999 22.6909L30.9018 22.6954L31.0882 22.6156ZM31.3612 22.8756L31.2858 23.0641L31.2971 23.0679L31.3612 22.8756ZM31.9722 22.9666H32.1749V22.7761L31.9848 22.7642L31.9722 22.9666ZM31.9722 23.2266L31.9609 23.429L32.1749 23.4409V23.2266H31.9722ZM27.9552 23.2266H27.7524V23.4416L27.9671 23.4289L27.9552 23.2266ZM27.9552 22.9666L27.9429 22.7642L27.7524 22.7757V22.9666H27.9552ZM28.5792 22.8626L28.508 22.6727L28.5039 22.6743L28.5792 22.8626ZM28.8522 22.5636L28.6607 22.496L28.6577 22.5064L28.8522 22.5636ZM28.8522 14.6856L28.6574 14.7428L28.661 14.753L28.8522 14.6856ZM28.5792 14.3866L28.5039 14.5748L28.508 14.5764L28.5792 14.3866ZM27.9552 14.2826H27.7524V14.4734L27.9429 14.4849L27.9552 14.2826ZM27.9552 14.0226L27.9671 13.8202L27.7524 13.8075V14.0226H27.9552ZM31.9722 14.0226H32.1749V13.8082L31.9609 13.8201L31.9722 14.0226ZM31.9722 14.2826L31.9841 14.4849L32.1749 14.4737V14.2826H31.9722ZM31.3352 14.3866L31.4105 14.5748V14.5748L31.3352 14.3866ZM31.0622 14.6856L30.8707 14.618L30.8677 14.6284L31.0622 14.6856ZM30.9972 21.4586H30.7944V22.2011L31.1718 21.5616L30.9972 21.4586ZM34.7022 15.1796L34.8768 15.2826L34.9068 15.2317L34.9048 15.1726L34.7022 15.1796ZM34.5982 14.6206L34.4115 14.7006L34.4169 14.7112L34.5982 14.6206ZM34.3252 14.3736L34.3893 14.1812V14.1812L34.3252 14.3736ZM33.7272 14.2826H33.5244V14.4726L33.7141 14.4849L33.7272 14.2826ZM33.7272 14.0226L33.7389 13.8202L33.5244 13.8078V14.0226H33.7272ZM37.7442 14.0226H37.9469V13.8075L37.7323 13.8202L37.7442 14.0226ZM37.7323 14.0802C37.4345 14.0977 37.1942 14.1334 37.0319 14.1983L37.1825 14.5748C37.2802 14.5357 37.4646 14.5021 37.7561 14.4849L37.7323 14.0802ZM37.0319 14.1983C36.841 14.2747 36.7119 14.4228 36.643 14.6181L37.0254 14.753C37.0604 14.6536 37.1133 14.6025 37.1825 14.5748L37.0319 14.1983ZM36.6397 14.6284C36.5876 14.8055 36.5664 15.0688 36.5664 15.4006H36.9719C36.9719 15.0737 36.9941 14.8603 37.0287 14.7428L36.6397 14.6284ZM36.5664 15.4006V21.8486H36.9719V15.4006H36.5664ZM36.5664 21.8486C36.5664 22.1804 36.5876 22.4436 36.6397 22.6208L37.0287 22.5064C36.9941 22.3888 36.9719 22.1754 36.9719 21.8486H36.5664ZM36.643 22.631C36.7119 22.8263 36.841 22.9745 37.0319 23.0508L37.1825 22.6743C37.1133 22.6467 37.0604 22.5955 37.0254 22.4961L36.643 22.631ZM37.0319 23.0508C37.1942 23.1157 37.4345 23.1514 37.7323 23.1689L37.7561 22.7642C37.4646 22.747 37.2802 22.7134 37.1825 22.6743L37.0319 23.0508ZM37.5414 22.9666V23.2266H37.9469V22.9666H37.5414ZM37.7561 23.0242C37.3078 22.9978 36.6182 22.9848 35.6902 22.9848V23.3903C36.6169 23.3903 37.2966 23.4033 37.7323 23.4289L37.7561 23.0242ZM35.6902 22.9848C34.8396 22.9848 34.1808 22.9978 33.7157 23.0241L33.7386 23.429C34.1922 23.4033 34.8421 23.3903 35.6902 23.3903V22.9848ZM33.9299 23.2266V22.9666H33.5244V23.2266H33.9299ZM33.7394 23.1689C34.0294 23.1514 34.2647 23.1155 34.4265 23.0508L34.2759 22.6743C34.1777 22.7136 33.997 22.7471 33.7149 22.7642L33.7394 23.1689ZM34.4224 23.0524C34.6232 22.9771 34.7582 22.8266 34.8187 22.6208L34.4297 22.5064C34.4036 22.5952 34.3565 22.6441 34.28 22.6727L34.4224 23.0524ZM34.8154 22.631C34.8796 22.4491 34.9049 22.1812 34.9049 21.8486H34.4994C34.4994 22.1746 34.4728 22.3834 34.433 22.4961L34.8154 22.631ZM34.9049 21.8486V15.7646H34.4994V21.8486H34.9049ZM34.5278 15.6612L30.8228 21.9142L31.1716 22.1209L34.8766 15.8679L34.5278 15.6612ZM30.7946 22.0241C30.8034 22.2988 30.8344 22.5271 30.8999 22.6909L31.2764 22.5403C31.2379 22.4441 31.2083 22.2737 31.1998 22.011L30.7946 22.0241ZM30.9018 22.6954C30.9764 22.8694 31.1093 22.9932 31.2859 23.0638L31.4365 22.6873C31.353 22.654 31.304 22.6044 31.2745 22.5357L30.9018 22.6954ZM31.2971 23.0679C31.4532 23.1199 31.6788 23.1514 31.9595 23.1689L31.9848 22.7642C31.7109 22.7471 31.5292 22.7178 31.4253 22.6832L31.2971 23.0679ZM31.7694 22.9666V23.2266H32.1749V22.9666H31.7694ZM31.9834 23.0241C31.5099 22.9978 30.8512 22.9848 30.0092 22.9848V23.3903C30.8485 23.3903 31.4985 23.4033 31.9609 23.429L31.9834 23.0241ZM30.0092 22.9848C29.0812 22.9848 28.3916 22.9978 27.9433 23.0242L27.9671 23.4289C28.4028 23.4033 29.0825 23.3903 30.0092 23.3903V22.9848ZM28.1579 23.2266V22.9666H27.7524V23.2266H28.1579ZM27.9674 23.1689C28.2574 23.1514 28.4927 23.1155 28.6545 23.0508L28.5039 22.6743C28.4057 22.7136 28.225 22.7471 27.9429 22.7642L27.9674 23.1689ZM28.6504 23.0524C28.8512 22.9771 28.9861 22.8266 29.0467 22.6208L28.6577 22.5064C28.6316 22.5952 28.5845 22.6441 28.508 22.6727L28.6504 23.0524ZM29.0434 22.631C29.1076 22.4491 29.1329 22.1812 29.1329 21.8486H28.7274C28.7274 22.1746 28.7008 22.3834 28.661 22.4961L29.0434 22.631ZM29.1329 21.8486V15.4006H28.7274V21.8486H29.1329ZM29.1329 15.4006C29.1329 15.0679 29.1076 14.8 29.0434 14.6181L28.661 14.753C28.7008 14.8657 28.7274 15.0745 28.7274 15.4006H29.1329ZM29.0467 14.6284C28.9861 14.4225 28.8512 14.2721 28.6504 14.1967L28.508 14.5764C28.5845 14.6051 28.6316 14.6539 28.6577 14.7428L29.0467 14.6284ZM28.6545 14.1983C28.4927 14.1336 28.2574 14.0978 27.9674 14.0802L27.9429 14.4849C28.225 14.502 28.4057 14.5355 28.5039 14.5748L28.6545 14.1983ZM28.1579 14.2826V14.0226H27.7524V14.2826H28.1579ZM27.9433 14.2249C28.3916 14.2513 29.0812 14.2643 30.0092 14.2643V13.8588C29.0825 13.8588 28.4028 13.8458 27.9671 13.8202L27.9433 14.2249ZM30.0092 14.2643C30.8512 14.2643 31.5099 14.2513 31.9834 14.225L31.9609 13.8201C31.4985 13.8458 30.8485 13.8588 30.0092 13.8588V14.2643ZM31.7694 14.0226V14.2826H32.1749V14.0226H31.7694ZM31.9603 14.0802C31.6625 14.0977 31.4222 14.1334 31.2599 14.1983L31.4105 14.5748C31.5082 14.5357 31.6926 14.5021 31.9841 14.4849L31.9603 14.0802ZM31.2599 14.1983C31.069 14.2747 30.9399 14.4228 30.871 14.6181L31.2534 14.753C31.2884 14.6536 31.3413 14.6025 31.4105 14.5748L31.2599 14.1983ZM30.8677 14.6284C30.8156 14.8055 30.7944 15.0688 30.7944 15.4006H31.1999C31.1999 15.0737 31.2221 14.8603 31.2567 14.7428L30.8677 14.6284ZM30.7944 15.4006V21.4586H31.1999V15.4006H30.7944ZM31.1718 21.5616L34.8768 15.2826L34.5276 15.0765L30.8226 21.3555L31.1718 21.5616ZM34.9048 15.1726C34.8958 14.9128 34.8601 14.691 34.7795 14.5299L34.4169 14.7112C34.4576 14.7928 34.4912 14.9436 34.4996 15.1865L34.9048 15.1726ZM34.7845 14.5407C34.7087 14.3639 34.5719 14.2421 34.3893 14.1812L34.2611 14.5659C34.3385 14.5917 34.3836 14.6346 34.4118 14.7004L34.7845 14.5407ZM34.3893 14.1812C34.2337 14.1294 34.013 14.0978 33.7402 14.0802L33.7141 14.4849C33.9787 14.5019 34.1567 14.5311 34.2611 14.5659L34.3893 14.1812ZM33.9299 14.2826V14.0226H33.5244V14.2826H33.9299ZM33.7155 14.225C34.1721 14.2513 34.8311 14.2643 35.6902 14.2643V13.8588C34.8333 13.8588 34.1836 13.8458 33.7389 13.8202L33.7155 14.225ZM35.6902 14.2643C36.6182 14.2643 37.3078 14.2513 37.7561 14.2249L37.7323 13.8202C37.2966 13.8458 36.6169 13.8588 35.6902 13.8588V14.2643ZM37.5414 14.0226V14.2826H37.9469V14.0226H37.5414ZM47.2179 14.0226H47.4206V13.7985L47.1977 13.8208L47.2179 14.0226ZM47.2179 14.2826L47.2872 14.4731L47.4206 14.4246V14.2826H47.2179ZM46.6329 14.7376L46.4785 14.6061L46.4757 14.6095L46.6329 14.7376ZM45.9829 15.7776L45.8036 15.6828L45.8014 15.6873L45.9829 15.7776ZM43.4219 20.9256L43.2404 20.8353L43.2402 20.8357L43.4219 20.9256ZM42.8109 22.1606L42.6292 22.0707L42.6287 22.0715L42.8109 22.1606ZM42.2389 23.0316L42.3822 23.1749V23.1749L42.2389 23.0316ZM40.0939 23.1096L39.9705 23.2705L40.0939 23.1096ZM40.0289 21.5886L39.8979 21.4338L39.8949 21.4364L40.0289 21.5886ZM41.6669 21.5236L41.5463 21.6866L41.5497 21.689L41.6669 21.5236ZM41.7319 22.7326L41.5885 22.5892L41.5847 22.5931L41.7319 22.7326ZM41.1079 23.1096L41.0438 22.9172L40.5794 23.072L41.0172 23.2909L41.1079 23.1096ZM42.0049 22.9016L42.1409 23.0519L42.1412 23.0516L42.0049 22.9016ZM42.5379 22.1346L42.7201 22.2234L42.7207 22.2222L42.5379 22.1346ZM42.8369 21.5106L43.0197 21.5982L43.0656 21.5024L43.013 21.4102L42.8369 21.5106ZM39.1709 15.0756L39.347 14.9752L39.3455 14.9726L39.1709 15.0756ZM38.3129 14.2826H38.1101V14.4569L38.2825 14.483L38.3129 14.2826ZM38.3129 14.0226L38.328 13.8204L38.1101 13.8041V14.0226H38.3129ZM42.1089 14.0226H42.3116V13.8078L42.0972 13.8202L42.1089 14.0226ZM42.1089 14.2826L42.1168 14.4851L42.3116 14.4775V14.2826H42.1089ZM41.5889 15.3226L41.4056 15.4102L41.4123 15.4221L41.5889 15.3226ZM43.8899 19.4046L43.7133 19.5041L43.9019 19.8388L44.0717 19.4942L43.8899 19.4046ZM45.2029 16.7396L45.022 16.6479L45.021 16.65L45.2029 16.7396ZM45.4109 14.5166L45.2878 14.678L45.2967 14.6841L45.4109 14.5166ZM44.6049 14.2826H44.4021V14.4757L44.595 14.4851L44.6049 14.2826ZM44.6049 14.0226L44.6138 13.82L44.4021 13.8107V14.0226H44.6049ZM46.2169 14.2643C46.6277 14.2643 46.9687 14.2512 47.238 14.2243L47.1977 13.8208C46.947 13.8459 46.6207 13.8588 46.2169 13.8588V14.2643ZM47.0151 14.0226V14.2826H47.4206V14.0226H47.0151ZM47.1486 14.092C46.9122 14.178 46.6898 14.358 46.4785 14.6061L46.7872 14.869C46.9746 14.6491 47.1422 14.5258 47.2872 14.4731L47.1486 14.092ZM46.4757 14.6095C46.2727 14.8587 46.0488 15.2188 45.8036 15.6829L46.1621 15.8723C46.4023 15.4176 46.6117 15.0845 46.79 14.8656L46.4757 14.6095ZM45.8014 15.6873L43.2404 20.8353L43.6034 21.0159L46.1644 15.8679L45.8014 15.6873ZM43.2402 20.8357L42.6292 22.0707L42.9926 22.2505L43.6036 21.0155L43.2402 20.8357ZM42.6287 22.0715C42.4427 22.4521 42.2637 22.72 42.0955 22.8882L42.3822 23.1749C42.5954 22.9617 42.7977 22.649 42.993 22.2496L42.6287 22.0715ZM42.0955 22.8882C41.8938 23.09 41.5887 23.2058 41.1469 23.2058V23.6113C41.6584 23.6113 42.0813 23.4758 42.3822 23.1749L42.0955 22.8882ZM41.1469 23.2058C40.734 23.2058 40.4313 23.1128 40.2172 22.9487L39.9705 23.2705C40.2765 23.505 40.6757 23.6113 41.1469 23.6113V23.2058ZM40.2172 22.9487C40.006 22.7867 39.9066 22.5856 39.9066 22.3296H39.5011C39.5011 22.7149 39.6617 23.0337 39.9705 23.2705L40.2172 22.9487ZM39.9066 22.3296C39.9066 22.0811 39.9923 21.8908 40.1628 21.7408L39.8949 21.4364C39.6321 21.6677 39.5011 21.9713 39.5011 22.3296H39.9066ZM40.1598 21.7433C40.3443 21.5873 40.5736 21.5053 40.8609 21.5053V21.0998C40.4895 21.0998 40.1641 21.2085 39.8979 21.4338L40.1598 21.7433ZM40.8609 21.5053C41.171 21.5053 41.3926 21.573 41.5464 21.6866L41.7874 21.3605C41.5425 21.1795 41.2267 21.0998 40.8609 21.0998V21.5053ZM41.5497 21.689C41.7028 21.7974 41.7761 21.9388 41.7761 22.1346H42.1816C42.1816 21.8104 42.047 21.5444 41.7841 21.3581L41.5497 21.689ZM41.7761 22.1346C41.7761 22.3151 41.715 22.4628 41.5885 22.5892L41.8752 22.8759C42.0781 22.673 42.1816 22.422 42.1816 22.1346H41.7761ZM41.5847 22.5931C41.4559 22.7291 41.2787 22.8389 41.0438 22.9172L41.172 23.3019C41.4571 23.2069 41.6958 23.0654 41.879 22.872L41.5847 22.5931ZM41.0172 23.2909C41.1143 23.3395 41.2421 23.3513 41.3679 23.3513V22.9458C41.3137 22.9458 41.2724 22.9429 41.2419 22.9383C41.2101 22.9335 41.1984 22.9282 41.1985 22.9282L41.0172 23.2909ZM41.3679 23.3513C41.6614 23.3513 41.9221 23.2499 42.1409 23.0519L41.8689 22.7512C41.7237 22.8826 41.5596 22.9458 41.3679 22.9458V23.3513ZM42.1412 23.0516C42.3576 22.8549 42.5489 22.5748 42.7201 22.2234L42.3556 22.0458C42.1975 22.3703 42.0335 22.6015 41.8685 22.7515L42.1412 23.0516ZM42.7207 22.2222L43.0197 21.5982L42.654 21.423L42.355 22.047L42.7207 22.2222ZM43.013 21.4102L39.347 14.9752L38.9947 15.1759L42.6607 21.6109L43.013 21.4102ZM39.3455 14.9726C39.0552 14.4799 38.7271 14.1403 38.3432 14.0821L38.2825 14.483C38.4706 14.5115 38.7145 14.7005 38.9962 15.1785L39.3455 14.9726ZM38.5156 14.2826V14.0226H38.1101V14.2826H38.5156ZM38.2977 14.2247C38.6526 14.2514 39.2356 14.2643 40.0419 14.2643V13.8588C39.2361 13.8588 38.6664 13.8458 38.328 13.8204L38.2977 14.2247ZM40.0419 14.2643C40.9699 14.2643 41.6638 14.2513 42.1205 14.225L42.0972 13.8202C41.6526 13.8458 40.9685 13.8588 40.0419 13.8588V14.2643ZM41.9061 14.0226V14.2826H42.3116V14.0226H41.9061ZM42.1009 14.08C41.8609 14.0894 41.6465 14.1404 41.4885 14.2613C41.3197 14.3903 41.2431 14.577 41.2431 14.7896H41.6486C41.6486 14.6814 41.6825 14.6233 41.7348 14.5834C41.7977 14.5352 41.9149 14.4931 42.1168 14.4851L42.1009 14.08ZM41.2431 14.7896C41.2431 14.9857 41.3027 15.194 41.406 15.41L41.7718 15.2351C41.6844 15.0525 41.6486 14.9054 41.6486 14.7896H41.2431ZM41.4123 15.4221L43.7133 19.5041L44.0665 19.305L41.7655 15.223L41.4123 15.4221ZM44.0717 19.4942L45.3847 16.8292L45.021 16.65L43.708 19.315L44.0717 19.4942ZM45.3837 16.8312C45.7174 16.1726 45.8996 15.6136 45.8996 15.1666H45.4941C45.4941 15.5168 45.347 16.0065 45.022 16.6479L45.3837 16.8312ZM45.8996 15.1666C45.8996 14.8196 45.788 14.5283 45.5251 14.3491L45.2967 14.6841C45.4151 14.7648 45.4941 14.9069 45.4941 15.1666H45.8996ZM45.5337 14.3553C45.3056 14.1815 44.99 14.0984 44.6147 14.0801L44.595 14.4851C44.9305 14.5014 45.1521 14.5743 45.288 14.6778L45.5337 14.3553ZM44.8076 14.2826V14.0226H44.4021V14.2826H44.8076ZM44.5959 14.2251C45.1876 14.2512 45.728 14.2643 46.2169 14.2643V13.8588C45.7351 13.8588 45.2008 13.8459 44.6138 13.82L44.5959 14.2251ZM57.2615 14.2826L57.2734 14.4849L57.4643 14.4737V14.2826H57.2615ZM56.6245 14.3866L56.6998 14.5748V14.5748L56.6245 14.3866ZM56.3515 14.6856L56.1601 14.618L56.157 14.6284L56.3515 14.6856ZM56.3515 22.5636L56.1568 22.6208L56.1603 22.631L56.3515 22.5636ZM56.6245 22.8626L56.6998 22.6743V22.6743L56.6245 22.8626ZM57.2615 22.9666H57.4643V22.7754L57.2734 22.7642L57.2615 22.9666ZM57.2615 23.2266L57.2491 23.4289L57.4643 23.4421V23.2266H57.2615ZM53.2445 23.2266H53.0418V23.4405L53.2554 23.429L53.2445 23.2266ZM53.2445 22.9666L53.2323 22.7642L53.0418 22.7757V22.9666H53.2445ZM53.8685 22.8626L53.7973 22.6727L53.7932 22.6743L53.8685 22.8626ZM54.1415 22.5636L53.9501 22.496L53.947 22.5064L54.1415 22.5636ZM54.2195 18.7286H54.4223V18.5258H54.2195V18.7286ZM50.7745 18.7286V18.5258H50.5718V18.7286H50.7745ZM50.8395 22.5636L50.6448 22.6208L50.6483 22.631L50.8395 22.5636ZM51.1125 22.8626L51.0372 23.0508V23.0508L51.1125 22.8626ZM51.7495 22.9666H51.9523V22.7754L51.7614 22.7642L51.7495 22.9666ZM51.7495 23.2266L51.7383 23.429L51.9523 23.4409V23.2266H51.7495ZM47.7325 23.2266H47.5298V23.4416L47.7444 23.4289L47.7325 23.2266ZM47.7325 22.9666L47.7203 22.7642L47.5298 22.7757V22.9666H47.7325ZM48.3565 22.8626L48.2853 22.6727L48.2812 22.6743L48.3565 22.8626ZM48.6295 22.5636L48.4381 22.496L48.435 22.5064L48.6295 22.5636ZM48.6295 14.6856L48.4348 14.7428L48.4383 14.753L48.6295 14.6856ZM48.3565 14.3866L48.2812 14.5748L48.2853 14.5764L48.3565 14.3866ZM47.7325 14.2826H47.5298V14.4734L47.7203 14.4849L47.7325 14.2826ZM47.7325 14.0226L47.7444 13.8202L47.5298 13.8075V14.0226H47.7325ZM51.7495 14.0226H51.9523V13.8082L51.7383 13.8201L51.7495 14.0226ZM51.7495 14.2826L51.7614 14.4849L51.9523 14.4737V14.2826H51.7495ZM51.1125 14.3866L51.1878 14.5748V14.5748L51.1125 14.3866ZM50.8395 14.6856L50.6481 14.618L50.645 14.6284L50.8395 14.6856ZM50.7745 18.4686H50.5718V18.6713H50.7745V18.4686ZM54.2195 18.4686V18.6713H54.4223V18.4686H54.2195ZM54.1415 14.6856L53.9468 14.7428L53.9503 14.753L54.1415 14.6856ZM53.8685 14.3866L53.7932 14.5748L53.7973 14.5764L53.8685 14.3866ZM53.2445 14.2826H53.0418V14.4734L53.2323 14.4849L53.2445 14.2826ZM53.2445 14.0226L53.2554 13.8201L53.0418 13.8087V14.0226H53.2445ZM57.2615 14.0226H57.4643V13.807L57.2491 13.8202L57.2615 14.0226ZM57.2496 14.0802C56.9518 14.0977 56.7115 14.1334 56.5492 14.1983L56.6998 14.5748C56.7975 14.5357 56.9819 14.5021 57.2734 14.4849L57.2496 14.0802ZM56.5492 14.1983C56.3584 14.2747 56.2293 14.4228 56.1603 14.6181L56.5427 14.753C56.5778 14.6536 56.6307 14.6025 56.6998 14.5748L56.5492 14.1983ZM56.157 14.6284C56.1049 14.8055 56.0838 15.0688 56.0838 15.4006H56.4893C56.4893 15.0737 56.5115 14.8603 56.546 14.7428L56.157 14.6284ZM56.0838 15.4006V21.8486H56.4893V15.4006H56.0838ZM56.0838 21.8486C56.0838 22.1804 56.1049 22.4436 56.157 22.6208L56.546 22.5064C56.5115 22.3888 56.4893 22.1754 56.4893 21.8486H56.0838ZM56.1603 22.631C56.2293 22.8263 56.3584 22.9745 56.5492 23.0508L56.6998 22.6743C56.6307 22.6467 56.5778 22.5955 56.5427 22.4961L56.1603 22.631ZM56.5492 23.0508C56.7115 23.1157 56.9518 23.1514 57.2496 23.1689L57.2734 22.7642C56.9819 22.747 56.7975 22.7134 56.6998 22.6743L56.5492 23.0508ZM57.0588 22.9666V23.2266H57.4643V22.9666H57.0588ZM57.2739 23.0242C56.8427 22.9978 56.1789 22.9848 55.2855 22.9848V23.3903C56.1775 23.3903 56.831 23.4033 57.2491 23.4289L57.2739 23.0242ZM55.2855 22.9848C54.4089 22.9848 53.7244 22.9978 53.2337 23.0241L53.2554 23.429C53.7353 23.4033 54.4114 23.3903 55.2855 23.3903V22.9848ZM53.4473 23.2266V22.9666H53.0418V23.2266H53.4473ZM53.2568 23.1689C53.5467 23.1514 53.782 23.1155 53.9438 23.0508L53.7932 22.6743C53.695 22.7136 53.5144 22.7471 53.2323 22.7642L53.2568 23.1689ZM53.9397 23.0524C54.1406 22.9771 54.2755 22.8266 54.336 22.6208L53.947 22.5064C53.9209 22.5952 53.8738 22.6441 53.7973 22.6727L53.9397 23.0524ZM54.3327 22.631C54.3969 22.4491 54.4223 22.1812 54.4223 21.8486H54.0168C54.0168 22.1746 53.9901 22.3834 53.9503 22.4961L54.3327 22.631ZM54.4223 21.8486V18.7286H54.0168V21.8486H54.4223ZM54.2195 18.5258H50.7745V18.9313H54.2195V18.5258ZM50.5718 18.7286V21.8486H50.9773V18.7286H50.5718ZM50.5718 21.8486C50.5718 22.1804 50.5929 22.4436 50.645 22.6208L51.034 22.5064C50.9995 22.3888 50.9773 22.1754 50.9773 21.8486H50.5718ZM50.6483 22.631C50.7173 22.8263 50.8464 22.9745 51.0372 23.0508L51.1878 22.6743C51.1187 22.6467 51.0658 22.5955 51.0307 22.4961L50.6483 22.631ZM51.0372 23.0508C51.1995 23.1157 51.4398 23.1514 51.7376 23.1689L51.7614 22.7642C51.4699 22.747 51.2855 22.7134 51.1878 22.6743L51.0372 23.0508ZM51.5468 22.9666V23.2266H51.9523V22.9666H51.5468ZM51.7608 23.0241C51.2872 22.9978 50.6285 22.9848 49.7865 22.9848V23.3903C50.6259 23.3903 51.2759 23.4033 51.7383 23.429L51.7608 23.0241ZM49.7865 22.9848C48.8585 22.9848 48.1689 22.9978 47.7206 23.0242L47.7444 23.4289C48.1802 23.4033 48.8599 23.3903 49.7865 23.3903V22.9848ZM47.9353 23.2266V22.9666H47.5298V23.2266H47.9353ZM47.7448 23.1689C48.0347 23.1514 48.27 23.1155 48.4318 23.0508L48.2812 22.6743C48.183 22.7136 48.0024 22.7471 47.7203 22.7642L47.7448 23.1689ZM48.4277 23.0524C48.6286 22.9771 48.7635 22.8266 48.824 22.6208L48.435 22.5064C48.4089 22.5952 48.3618 22.6441 48.2853 22.6727L48.4277 23.0524ZM48.8207 22.631C48.8849 22.4491 48.9103 22.1812 48.9103 21.8486H48.5048C48.5048 22.1746 48.4781 22.3834 48.4383 22.4961L48.8207 22.631ZM48.9103 21.8486V15.4006H48.5048V21.8486H48.9103ZM48.9103 15.4006C48.9103 15.0679 48.8849 14.8 48.8207 14.6181L48.4383 14.753C48.4781 14.8657 48.5048 15.0745 48.5048 15.4006H48.9103ZM48.824 14.6284C48.7635 14.4225 48.6286 14.2721 48.4277 14.1967L48.2853 14.5764C48.3618 14.6051 48.4089 14.6539 48.435 14.7428L48.824 14.6284ZM48.4318 14.1983C48.27 14.1336 48.0347 14.0978 47.7448 14.0802L47.7203 14.4849C48.0024 14.502 48.183 14.5355 48.2812 14.5748L48.4318 14.1983ZM47.9353 14.2826V14.0226H47.5298V14.2826H47.9353ZM47.7206 14.2249C48.1689 14.2513 48.8585 14.2643 49.7865 14.2643V13.8588C48.8599 13.8588 48.1802 13.8458 47.7444 13.8202L47.7206 14.2249ZM49.7865 14.2643C50.6285 14.2643 51.2872 14.2513 51.7608 14.225L51.7383 13.8201C51.2759 13.8458 50.6259 13.8588 49.7865 13.8588V14.2643ZM51.5468 14.0226V14.2826H51.9523V14.0226H51.5468ZM51.7376 14.0802C51.4398 14.0977 51.1995 14.1334 51.0372 14.1983L51.1878 14.5748C51.2855 14.5357 51.4699 14.5021 51.7614 14.4849L51.7376 14.0802ZM51.0372 14.1983C50.8464 14.2747 50.7173 14.4228 50.6483 14.6181L51.0307 14.753C51.0658 14.6536 51.1187 14.6025 51.1878 14.5748L51.0372 14.1983ZM50.645 14.6284C50.5929 14.8055 50.5718 15.0688 50.5718 15.4006H50.9773C50.9773 15.0737 50.9995 14.8603 51.034 14.7428L50.645 14.6284ZM50.5718 15.4006V18.4686H50.9773V15.4006H50.5718ZM50.7745 18.6713H54.2195V18.2658H50.7745V18.6713ZM54.4223 18.4686V15.4006H54.0168V18.4686H54.4223ZM54.4223 15.4006C54.4223 15.0679 54.3969 14.8 54.3327 14.6181L53.9503 14.753C53.9901 14.8657 54.0168 15.0745 54.0168 15.4006H54.4223ZM54.336 14.6284C54.2755 14.4225 54.1406 14.2721 53.9397 14.1967L53.7973 14.5764C53.8738 14.6051 53.9209 14.6539 53.947 14.7428L54.336 14.6284ZM53.9438 14.1983C53.782 14.1336 53.5467 14.0978 53.2568 14.0802L53.2323 14.4849C53.5144 14.502 53.695 14.5355 53.7932 14.5748L53.9438 14.1983ZM53.4473 14.2826V14.0226H53.0418V14.2826H53.4473ZM53.2337 14.225C53.7244 14.2513 54.4089 14.2643 55.2855 14.2643V13.8588C54.4114 13.8588 53.7353 13.8458 53.2554 13.8201L53.2337 14.225ZM55.2855 14.2643C56.1789 14.2643 56.8427 14.2513 57.2739 14.2249L57.2491 13.8202C56.831 13.8458 56.1775 13.8588 55.2855 13.8588V14.2643ZM57.0588 14.0226V14.2826H57.4643V14.0226H57.0588ZM16.8205 31.5206L16.6874 31.6736L16.6885 31.6745L16.8205 31.5206ZM16.8205 35.4596L16.9498 35.6157V35.6157L16.8205 35.4596ZM13.4145 36.2006L13.4251 35.9979L13.4164 35.9978L13.4145 36.2006ZM12.0495 36.1876L12.0514 35.9848H12.0495V36.1876ZM10.1515 36.2266H9.94874V36.4416L10.1634 36.4289L10.1515 36.2266ZM10.1515 35.9666L10.1392 35.7642L9.94874 35.7757V35.9666H10.1515ZM10.7755 35.8626L10.7043 35.6727L10.7002 35.6743L10.7755 35.8626ZM11.0485 35.5636L10.857 35.496L10.854 35.5064L11.0485 35.5636ZM11.0485 27.6856L10.8537 27.7428L10.8573 27.753L11.0485 27.6856ZM10.7755 27.3866L10.7002 27.5748L10.7043 27.5764L10.7755 27.3866ZM10.1515 27.2826H9.94874V27.4734L10.1392 27.4849L10.1515 27.2826ZM10.1515 27.0226L10.1571 26.8199L9.94874 26.8141V27.0226H10.1515ZM16.9505 27.0226L17.1525 27.0396L17.172 26.8083L16.9402 26.8201L16.9505 27.0226ZM16.8985 29.8306V30.0333H17.1281L17.0996 29.8054L16.8985 29.8306ZM16.5995 29.8306L16.4002 29.8678L16.4311 30.0333H16.5995V29.8306ZM15.8325 27.8806L15.6823 28.0168H15.6823L15.8325 27.8806ZM13.5055 27.3866L13.5737 27.5775H13.5737L13.5055 27.3866ZM13.2585 27.6466L13.4494 27.7148L13.4508 27.7107L13.2585 27.6466ZM13.1935 30.7536H12.9907V30.9657L13.2027 30.9561L13.1935 30.7536ZM15.2085 35.3686L15.3817 35.474L15.3826 35.4723L15.2085 35.3686ZM15.1565 31.6506L14.9841 31.7574L14.9857 31.7598L15.1565 31.6506ZM13.1935 31.0006V30.7978H12.9907V31.0006H13.1935ZM13.2455 35.5506L13.0471 35.5946L13.051 35.6078L13.2455 35.5506ZM13.4665 35.8756L13.3538 36.0446L13.3643 36.0507L13.4665 35.8756ZM13.9605 30.9433C15.2499 30.9433 16.1438 31.2008 16.6874 31.6735L16.9535 31.3676C16.3011 30.8003 15.2884 30.5378 13.9605 30.5378V30.9433ZM16.6885 31.6745C17.2504 32.1561 17.5277 32.7586 17.5277 33.4966H17.9332C17.9332 32.6399 17.6039 31.9251 16.9524 31.3666L16.6885 31.6745ZM17.5277 33.4966C17.5277 34.2438 17.2501 34.8403 16.6911 35.3035L16.9498 35.6157C17.6042 35.0735 17.9332 34.3613 17.9332 33.4966H17.5277ZM16.6911 35.3035C16.137 35.7626 15.2613 36.0108 14.0255 36.0108V36.4163C15.303 36.4163 16.2906 36.1618 16.9498 35.6157L16.6911 35.3035ZM14.0255 36.0108C13.7849 36.0108 13.585 36.0065 13.4251 35.9981L13.4038 36.403C13.5733 36.4119 13.7807 36.4163 14.0255 36.4163V36.0108ZM13.4164 35.9978L12.0514 35.9848L12.0475 36.3903L13.4125 36.4033L13.4164 35.9978ZM12.0495 35.9848C11.2249 35.9848 10.5876 35.9978 10.1396 36.0242L10.1634 36.4289C10.5994 36.4033 11.2274 36.3903 12.0495 36.3903V35.9848ZM10.3542 36.2266V35.9666H9.94874V36.2266H10.3542ZM10.1637 36.1689C10.4536 36.1514 10.689 36.1155 10.8508 36.0508L10.7002 35.6743C10.602 35.7136 10.4213 35.7471 10.1392 35.7642L10.1637 36.1689ZM10.8467 36.0524C11.0475 35.9771 11.1824 35.8266 11.243 35.6208L10.854 35.5064C10.8278 35.5952 10.7808 35.6441 10.7043 35.6727L10.8467 36.0524ZM11.2397 35.631C11.3039 35.4491 11.3292 35.1812 11.3292 34.8486H10.9237C10.9237 35.1746 10.8971 35.3834 10.8573 35.4961L11.2397 35.631ZM11.3292 34.8486V28.4006H10.9237V34.8486H11.3292ZM11.3292 28.4006C11.3292 28.0679 11.3039 27.8 11.2397 27.6181L10.8573 27.753C10.8971 27.8657 10.9237 28.0745 10.9237 28.4006H11.3292ZM11.243 27.6284C11.1824 27.4225 11.0475 27.2721 10.8467 27.1967L10.7043 27.5764C10.7808 27.6051 10.8278 27.6539 10.854 27.7428L11.243 27.6284ZM10.8508 27.1983C10.689 27.1336 10.4536 27.0978 10.1637 27.0802L10.1392 27.4849C10.4213 27.502 10.602 27.5355 10.7002 27.5748L10.8508 27.1983ZM10.3542 27.2826V27.0226H9.94874V27.2826H10.3542ZM10.1458 27.2252C11.0848 27.2513 12.4997 27.2643 14.3895 27.2643V26.8588C12.5005 26.8588 11.0902 26.8458 10.1571 26.8199L10.1458 27.2252ZM14.3895 27.2643C15.5856 27.2643 16.4438 27.2513 16.9608 27.225L16.9402 26.8201C16.4345 26.8458 15.5853 26.8588 14.3895 26.8588V27.2643ZM16.7485 27.0055C16.6874 27.729 16.6567 28.3762 16.6567 28.9466H17.0622C17.0622 28.3902 17.0922 27.7548 17.1525 27.0396L16.7485 27.0055ZM16.6567 28.9466C16.6567 29.3307 16.6697 29.6352 16.6973 29.8557L17.0996 29.8054C17.0752 29.6099 17.0622 29.3251 17.0622 28.9466H16.6567ZM16.8985 29.6278H16.5995V30.0333H16.8985V29.6278ZM16.7988 29.7933C16.6236 28.8564 16.3596 28.16 15.9826 27.7444L15.6823 28.0168C15.9813 28.3465 16.2286 28.9501 16.4002 29.8678L16.7988 29.7933ZM15.9826 27.7444C15.6008 27.3233 15.088 27.1188 14.4675 27.1188V27.5243C14.9909 27.5243 15.3882 27.6925 15.6823 28.0168L15.9826 27.7444ZM14.4675 27.1188H14.0905V27.5243H14.4675V27.1188ZM14.0905 27.1188C13.8182 27.1188 13.5935 27.1399 13.4373 27.1956L13.5737 27.5775C13.6602 27.5466 13.8254 27.5243 14.0905 27.5243V27.1188ZM13.4373 27.1956C13.2531 27.2614 13.1277 27.3977 13.0661 27.5825L13.4508 27.7107C13.4759 27.6354 13.5152 27.5984 13.5737 27.5775L13.4373 27.1956ZM13.0675 27.5784C13.0116 27.7349 12.9907 27.9645 12.9907 28.2446H13.3962C13.3962 27.97 13.4186 27.8009 13.4494 27.7148L13.0675 27.5784ZM12.9907 28.2446V30.7536H13.3962V28.2446H12.9907ZM13.2027 30.9561C13.3889 30.9476 13.6411 30.9433 13.9605 30.9433V30.5378C13.6385 30.5378 13.3794 30.5422 13.1843 30.551L13.2027 30.9561ZM13.9345 36.1693C14.5878 36.1693 15.0912 35.9512 15.3817 35.474L15.0353 35.2631C14.8404 35.5833 14.4945 35.7638 13.9345 35.7638V36.1693ZM15.3826 35.4723C15.6529 35.0187 15.7752 34.3685 15.7752 33.5486H15.3697C15.3697 34.3406 15.2494 34.9038 15.0343 35.2648L15.3826 35.4723ZM15.7752 33.5486C15.7752 32.6995 15.6347 32.0216 15.3272 31.5413L14.9857 31.7598C15.2329 32.1461 15.3697 32.7336 15.3697 33.5486H15.7752ZM15.3288 31.5437C15.0099 31.0295 14.4433 30.7978 13.7005 30.7978V31.2033C14.3617 31.2033 14.7657 31.405 14.9842 31.7574L15.3288 31.5437ZM13.7005 30.7978H13.1935V31.2033H13.7005V30.7978ZM12.9907 31.0006V34.8486H13.3962V31.0006H12.9907ZM12.9907 34.8486C12.9907 35.1642 13.0079 35.4162 13.0476 35.5945L13.4434 35.5066C13.4137 35.3729 13.3962 35.1569 13.3962 34.8486H12.9907ZM13.051 35.6078C13.1046 35.7899 13.202 35.9429 13.354 36.0443L13.5789 35.7069C13.523 35.6696 13.4731 35.6059 13.44 35.4934L13.051 35.6078ZM13.3643 36.0507C13.5144 36.1382 13.7134 36.1693 13.9345 36.1693V35.7638C13.7395 35.7638 13.6265 35.7342 13.5686 35.7004L13.3643 36.0507ZM28.6358 27.2826L28.6477 27.4849L28.8385 27.4737V27.2826H28.6358ZM27.9988 27.3866L28.0741 27.5748H28.0741L27.9988 27.3866ZM27.7258 27.6856L27.5343 27.618L27.5313 27.6284L27.7258 27.6856ZM27.7258 35.5636L27.531 35.6208L27.5346 35.631L27.7258 35.5636ZM27.9988 35.8626L27.9235 36.0508V36.0508L27.9988 35.8626ZM28.6358 35.9666H28.8385V35.7754L28.6477 35.7642L28.6358 35.9666ZM28.6358 36.2266L28.6239 36.4289L28.8385 36.4416V36.2266H28.6358ZM24.6188 36.2266H24.416V36.4411L24.6302 36.429L24.6188 36.2266ZM24.6188 35.9666L24.6065 35.7642L24.416 35.7757V35.9666H24.6188ZM25.2428 35.8626L25.1716 35.6727L25.1675 35.6743L25.2428 35.8626ZM25.5158 35.5636L25.3243 35.496L25.3213 35.5064L25.5158 35.5636ZM25.5938 28.7646H25.7965V28.0247L25.4194 28.6612L25.5938 28.7646ZM21.8888 35.0176L21.7144 34.9142L21.6842 34.965L21.6862 35.0241L21.8888 35.0176ZM21.9798 35.6156L21.7915 35.6909L21.7934 35.6954L21.9798 35.6156ZM22.2528 35.8756L22.1774 36.0641L22.1887 36.0679L22.2528 35.8756ZM22.8638 35.9666H23.0665V35.7761L22.8764 35.7642L22.8638 35.9666ZM22.8638 36.2266L22.8525 36.429L23.0665 36.4409V36.2266H22.8638ZM18.8468 36.2266H18.644V36.4416L18.8587 36.4289L18.8468 36.2266ZM18.8468 35.9666L18.8345 35.7642L18.644 35.7757V35.9666H18.8468ZM19.4708 35.8626L19.3996 35.6727L19.3955 35.6743L19.4708 35.8626ZM19.7438 35.5636L19.5523 35.496L19.5493 35.5064L19.7438 35.5636ZM19.7438 27.6856L19.549 27.7428L19.5526 27.753L19.7438 27.6856ZM19.4708 27.3866L19.3955 27.5748L19.3996 27.5764L19.4708 27.3866ZM18.8468 27.2826H18.644V27.4734L18.8345 27.4849L18.8468 27.2826ZM18.8468 27.0226L18.8587 26.8202L18.644 26.8076V27.0226H18.8468ZM22.8638 27.0226H23.0665V26.8083L22.8525 26.8201L22.8638 27.0226ZM22.8638 27.2826L22.8757 27.4849L23.0665 27.4737V27.2826H22.8638ZM22.2268 27.3866L22.3021 27.5748H22.3021L22.2268 27.3866ZM21.9538 27.6856L21.7623 27.618L21.7593 27.6284L21.9538 27.6856ZM21.8888 34.4586H21.686V35.2011L22.0634 34.5616L21.8888 34.4586ZM25.5938 28.1796L25.7684 28.2826L25.7984 28.2317L25.7964 28.1726L25.5938 28.1796ZM25.4898 27.6206L25.3031 27.7006L25.3085 27.7112L25.4898 27.6206ZM25.2168 27.3736L25.2809 27.1812V27.1812L25.2168 27.3736ZM24.6188 27.2826H24.416V27.4726L24.6057 27.4849L24.6188 27.2826ZM24.6188 27.0226L24.6305 26.8202L24.416 26.8078V27.0226H24.6188ZM28.6358 27.0226H28.8385V26.8076L28.6239 26.8202L28.6358 27.0226ZM28.6239 27.0802C28.3261 27.0977 28.0858 27.1334 27.9235 27.1983L28.0741 27.5748C28.1718 27.5357 28.3562 27.5021 28.6477 27.4849L28.6239 27.0802ZM27.9235 27.1983C27.7326 27.2747 27.6035 27.4228 27.5346 27.6181L27.917 27.753C27.952 27.6536 28.0049 27.6025 28.0741 27.5748L27.9235 27.1983ZM27.5313 27.6284C27.4792 27.8055 27.458 28.0688 27.458 28.4006H27.8635C27.8635 28.0737 27.8857 27.8603 27.9203 27.7428L27.5313 27.6284ZM27.458 28.4006V34.8486H27.8635V28.4006H27.458ZM27.458 34.8486C27.458 35.1804 27.4792 35.4436 27.5313 35.6208L27.9203 35.5064C27.8857 35.3888 27.8635 35.1754 27.8635 34.8486H27.458ZM27.5346 35.631C27.6035 35.8263 27.7326 35.9745 27.9235 36.0508L28.0741 35.6743C28.0049 35.6467 27.952 35.5955 27.917 35.4961L27.5346 35.631ZM27.9235 36.0508C28.0858 36.1157 28.3261 36.1514 28.6239 36.1689L28.6477 35.7642C28.3562 35.747 28.1718 35.7134 28.0741 35.6743L27.9235 36.0508ZM28.433 35.9666V36.2266H28.8385V35.9666H28.433ZM28.6477 36.0242C28.1994 35.9978 27.5098 35.9848 26.5818 35.9848V36.3903C27.5085 36.3903 28.1882 36.4033 28.6239 36.4289L28.6477 36.0242ZM26.5818 35.9848C25.7312 35.9848 25.0724 35.9978 24.6073 36.0241L24.6302 36.429C25.0838 36.4033 25.7337 36.3903 26.5818 36.3903V35.9848ZM24.8215 36.2266V35.9666H24.416V36.2266H24.8215ZM24.6311 36.1689C24.921 36.1514 25.1563 36.1155 25.3181 36.0508L25.1675 35.6743C25.0693 35.7136 24.8886 35.7471 24.6065 35.7642L24.6311 36.1689ZM25.314 36.0524C25.5148 35.9771 25.6498 35.8266 25.7103 35.6208L25.3213 35.5064C25.2952 35.5952 25.2481 35.6441 25.1716 35.6727L25.314 36.0524ZM25.707 35.631C25.7712 35.4491 25.7965 35.1812 25.7965 34.8486H25.391C25.391 35.1746 25.3644 35.3834 25.3246 35.4961L25.707 35.631ZM25.7965 34.8486V28.7646H25.391V34.8486H25.7965ZM25.4194 28.6612L21.7144 34.9142L22.0632 35.1209L25.7682 28.8679L25.4194 28.6612ZM21.6862 35.0241C21.695 35.2988 21.726 35.5271 21.7915 35.6909L22.168 35.5403C22.1295 35.4441 22.0999 35.2737 22.0914 35.011L21.6862 35.0241ZM21.7934 35.6954C21.868 35.8694 22.0009 35.9932 22.1775 36.0638L22.3281 35.6873C22.2446 35.654 22.1956 35.6044 22.1661 35.5357L21.7934 35.6954ZM22.1887 36.0679C22.3448 36.1199 22.5704 36.1514 22.8511 36.1689L22.8764 35.7642C22.6025 35.7471 22.4208 35.7178 22.3169 35.6832L22.1887 36.0679ZM22.661 35.9666V36.2266H23.0665V35.9666H22.661ZM22.875 36.0241C22.4015 35.9978 21.7428 35.9848 20.9008 35.9848V36.3903C21.7401 36.3903 22.3901 36.4033 22.8525 36.429L22.875 36.0241ZM20.9008 35.9848C19.9728 35.9848 19.2832 35.9978 18.8349 36.0242L18.8587 36.4289C19.2944 36.4033 19.9741 36.3903 20.9008 36.3903V35.9848ZM19.0495 36.2266V35.9666H18.644V36.2266H19.0495ZM18.859 36.1689C19.149 36.1514 19.3843 36.1155 19.5461 36.0508L19.3955 35.6743C19.2973 35.7136 19.1166 35.7471 18.8345 35.7642L18.859 36.1689ZM19.542 36.0524C19.7428 35.9771 19.8778 35.8266 19.9383 35.6208L19.5493 35.5064C19.5232 35.5952 19.4761 35.6441 19.3996 35.6727L19.542 36.0524ZM19.935 35.631C19.9992 35.4491 20.0245 35.1812 20.0245 34.8486H19.619C19.619 35.1746 19.5924 35.3834 19.5526 35.4961L19.935 35.631ZM20.0245 34.8486V28.4006H19.619V34.8486H20.0245ZM20.0245 28.4006C20.0245 28.0679 19.9992 27.8 19.935 27.6181L19.5526 27.753C19.5924 27.8657 19.619 28.0745 19.619 28.4006H20.0245ZM19.9383 27.6284C19.8778 27.4225 19.7428 27.2721 19.542 27.1967L19.3996 27.5764C19.4761 27.6051 19.5232 27.6539 19.5493 27.7428L19.9383 27.6284ZM19.5461 27.1983C19.3843 27.1336 19.149 27.0978 18.859 27.0802L18.8345 27.4849C19.1166 27.502 19.2973 27.5355 19.3955 27.5748L19.5461 27.1983ZM19.0495 27.2826V27.0226H18.644V27.2826H19.0495ZM18.8349 27.2249C19.2832 27.2513 19.9728 27.2643 20.9008 27.2643V26.8588C19.9741 26.8588 19.2944 26.8458 18.8587 26.8202L18.8349 27.2249ZM20.9008 27.2643C21.7428 27.2643 22.4015 27.2513 22.875 27.225L22.8525 26.8201C22.3901 26.8458 21.7401 26.8588 20.9008 26.8588V27.2643ZM22.661 27.0226V27.2826H23.0665V27.0226H22.661ZM22.8519 27.0802C22.5541 27.0977 22.3138 27.1334 22.1515 27.1983L22.3021 27.5748C22.3998 27.5357 22.5842 27.5021 22.8757 27.4849L22.8519 27.0802ZM22.1515 27.1983C21.9606 27.2747 21.8315 27.4228 21.7626 27.6181L22.145 27.753C22.18 27.6536 22.2329 27.6025 22.3021 27.5748L22.1515 27.1983ZM21.7593 27.6284C21.7072 27.8055 21.686 28.0688 21.686 28.4006H22.0915C22.0915 28.0737 22.1137 27.8603 22.1483 27.7428L21.7593 27.6284ZM21.686 28.4006V34.4586H22.0915V28.4006H21.686ZM22.0634 34.5616L25.7684 28.2826L25.4192 28.0765L21.7142 34.3555L22.0634 34.5616ZM25.7964 28.1726C25.7874 27.9128 25.7517 27.691 25.6711 27.5299L25.3085 27.7112C25.3493 27.7928 25.3828 27.9436 25.3912 28.1865L25.7964 28.1726ZM25.6761 27.5407C25.6003 27.3639 25.4635 27.2421 25.2809 27.1812L25.1527 27.5659C25.2301 27.5917 25.2752 27.6346 25.3034 27.7004L25.6761 27.5407ZM25.2809 27.1812C25.1253 27.1294 24.9046 27.0978 24.6318 27.0802L24.6057 27.4849C24.8703 27.5019 25.0483 27.5311 25.1527 27.5659L25.2809 27.1812ZM24.8215 27.2826V27.0226H24.416V27.2826H24.8215ZM24.6071 27.225C25.0637 27.2513 25.7227 27.2643 26.5818 27.2643V26.8588C25.7249 26.8588 25.0752 26.8458 24.6305 26.8202L24.6071 27.225ZM26.5818 27.2643C27.5098 27.2643 28.1994 27.2513 28.6477 27.2249L28.6239 26.8202C28.1882 26.8458 27.5085 26.8588 26.5818 26.8588V27.2643ZM28.433 27.0226V27.2826H28.8385V27.0226H28.433ZM36.4455 31.5206L36.3124 31.6736L36.3135 31.6745L36.4455 31.5206ZM36.4455 35.4596L36.5748 35.6157V35.6157L36.4455 35.4596ZM33.0395 36.2006L33.0501 35.9979L33.0414 35.9978L33.0395 36.2006ZM31.6745 36.1876L31.6764 35.9848H31.6745V36.1876ZM29.7765 36.2266H29.5737V36.4416L29.7884 36.4289L29.7765 36.2266ZM29.7765 35.9666L29.7642 35.7642L29.5737 35.7757V35.9666H29.7765ZM30.4005 35.8626L30.3293 35.6727L30.3252 35.6743L30.4005 35.8626ZM30.6735 35.5636L30.482 35.496L30.479 35.5064L30.6735 35.5636ZM30.6735 27.6856L30.4787 27.7428L30.4823 27.753L30.6735 27.6856ZM30.4005 27.3866L30.3252 27.5748L30.3293 27.5764L30.4005 27.3866ZM29.7765 27.2826H29.5737V27.4734L29.7642 27.4849L29.7765 27.2826ZM29.7765 27.0226L29.7821 26.8199L29.5737 26.8141V27.0226H29.7765ZM36.5755 27.0226L36.7775 27.0396L36.797 26.8083L36.5652 26.8201L36.5755 27.0226ZM36.5235 29.8306V30.0333H36.7531L36.7246 29.8054L36.5235 29.8306ZM36.2245 29.8306L36.0252 29.8678L36.0561 30.0333H36.2245V29.8306ZM35.4575 27.8806L35.3073 28.0168V28.0168L35.4575 27.8806ZM33.1305 27.3866L33.1987 27.5775H33.1987L33.1305 27.3866ZM32.8835 27.6466L33.0744 27.7148L33.0758 27.7107L32.8835 27.6466ZM32.8185 30.7536H32.6157V30.9657L32.8277 30.9561L32.8185 30.7536ZM34.8335 35.3686L35.0067 35.474L35.0076 35.4723L34.8335 35.3686ZM34.7815 31.6506L34.6091 31.7574L34.6107 31.7598L34.7815 31.6506ZM32.8185 31.0006V30.7978H32.6157V31.0006H32.8185ZM32.8705 35.5506L32.6721 35.5946L32.676 35.6078L32.8705 35.5506ZM33.0915 35.8756L32.9788 36.0446L32.9893 36.0507L33.0915 35.8756ZM33.5855 30.9433C34.8749 30.9433 35.7688 31.2008 36.3124 31.6735L36.5785 31.3676C35.9261 30.8003 34.9134 30.5378 33.5855 30.5378V30.9433ZM36.3135 31.6745C36.8754 32.1561 37.1527 32.7586 37.1527 33.4966H37.5582C37.5582 32.6399 37.2289 31.9251 36.5774 31.3666L36.3135 31.6745ZM37.1527 33.4966C37.1527 34.2438 36.8751 34.8403 36.3161 35.3035L36.5748 35.6157C37.2292 35.0735 37.5582 34.3613 37.5582 33.4966H37.1527ZM36.3161 35.3035C35.762 35.7626 34.8863 36.0108 33.6505 36.0108V36.4163C34.928 36.4163 35.9156 36.1618 36.5748 35.6157L36.3161 35.3035ZM33.6505 36.0108C33.4099 36.0108 33.21 36.0065 33.0501 35.9981L33.0288 36.403C33.1983 36.4119 33.4057 36.4163 33.6505 36.4163V36.0108ZM33.0414 35.9978L31.6764 35.9848L31.6725 36.3903L33.0375 36.4033L33.0414 35.9978ZM31.6745 35.9848C30.8499 35.9848 30.2126 35.9978 29.7646 36.0242L29.7884 36.4289C30.2244 36.4033 30.8524 36.3903 31.6745 36.3903V35.9848ZM29.9792 36.2266V35.9666H29.5737V36.2266H29.9792ZM29.7887 36.1689C30.0786 36.1514 30.314 36.1155 30.4758 36.0508L30.3252 35.6743C30.227 35.7136 30.0463 35.7471 29.7642 35.7642L29.7887 36.1689ZM30.4717 36.0524C30.6725 35.9771 30.8074 35.8266 30.868 35.6208L30.479 35.5064C30.4528 35.5952 30.4058 35.6441 30.3293 35.6727L30.4717 36.0524ZM30.8647 35.631C30.9289 35.4491 30.9542 35.1812 30.9542 34.8486H30.5487C30.5487 35.1746 30.5221 35.3834 30.4823 35.4961L30.8647 35.631ZM30.9542 34.8486V28.4006H30.5487V34.8486H30.9542ZM30.9542 28.4006C30.9542 28.0679 30.9289 27.8 30.8647 27.6181L30.4823 27.753C30.5221 27.8657 30.5487 28.0745 30.5487 28.4006H30.9542ZM30.868 27.6284C30.8074 27.4225 30.6725 27.2721 30.4717 27.1967L30.3293 27.5764C30.4058 27.6051 30.4528 27.6539 30.479 27.7428L30.868 27.6284ZM30.4758 27.1983C30.314 27.1336 30.0786 27.0978 29.7887 27.0802L29.7642 27.4849C30.0463 27.502 30.227 27.5355 30.3252 27.5748L30.4758 27.1983ZM29.9792 27.2826V27.0226H29.5737V27.2826H29.9792ZM29.7708 27.2252C30.7098 27.2513 32.1247 27.2643 34.0145 27.2643V26.8588C32.1255 26.8588 30.7152 26.8458 29.7821 26.8199L29.7708 27.2252ZM34.0145 27.2643C35.2106 27.2643 36.0688 27.2513 36.5858 27.225L36.5652 26.8201C36.0595 26.8458 35.2103 26.8588 34.0145 26.8588V27.2643ZM36.3735 27.0055C36.3124 27.729 36.2817 28.3762 36.2817 28.9466H36.6872C36.6872 28.3902 36.7172 27.7548 36.7775 27.0396L36.3735 27.0055ZM36.2817 28.9466C36.2817 29.3307 36.2947 29.6352 36.3223 29.8557L36.7246 29.8054C36.7002 29.6099 36.6872 29.3251 36.6872 28.9466H36.2817ZM36.5235 29.6278H36.2245V30.0333H36.5235V29.6278ZM36.4238 29.7933C36.2486 28.8564 35.9846 28.16 35.6076 27.7444L35.3073 28.0168C35.6063 28.3465 35.8536 28.9501 36.0252 29.8678L36.4238 29.7933ZM35.6076 27.7444C35.2258 27.3233 34.713 27.1188 34.0925 27.1188V27.5243C34.6159 27.5243 35.0132 27.6925 35.3073 28.0168L35.6076 27.7444ZM34.0925 27.1188H33.7155V27.5243H34.0925V27.1188ZM33.7155 27.1188C33.4432 27.1188 33.2185 27.1399 33.0623 27.1956L33.1987 27.5775C33.2852 27.5466 33.4504 27.5243 33.7155 27.5243V27.1188ZM33.0623 27.1956C32.8781 27.2614 32.7527 27.3977 32.6911 27.5825L33.0758 27.7107C33.1009 27.6354 33.1402 27.5984 33.1987 27.5775L33.0623 27.1956ZM32.6925 27.5784C32.6366 27.7349 32.6157 27.9645 32.6157 28.2446H33.0212C33.0212 27.97 33.0436 27.8009 33.0744 27.7148L32.6925 27.5784ZM32.6157 28.2446V30.7536H33.0212V28.2446H32.6157ZM32.8277 30.9561C33.0139 30.9476 33.2661 30.9433 33.5855 30.9433V30.5378C33.2635 30.5378 33.0044 30.5422 32.8093 30.551L32.8277 30.9561ZM33.5595 36.1693C34.2128 36.1693 34.7162 35.9512 35.0067 35.474L34.6603 35.2631C34.4654 35.5833 34.1195 35.7638 33.5595 35.7638V36.1693ZM35.0076 35.4723C35.2779 35.0187 35.4002 34.3685 35.4002 33.5486H34.9947C34.9947 34.3406 34.8744 34.9038 34.6593 35.2648L35.0076 35.4723ZM35.4002 33.5486C35.4002 32.6995 35.2597 32.0216 34.9522 31.5413L34.6107 31.7598C34.8579 32.1461 34.9947 32.7336 34.9947 33.5486H35.4002ZM34.9538 31.5437C34.6349 31.0295 34.0683 30.7978 33.3255 30.7978V31.2033C33.9867 31.2033 34.3907 31.405 34.6092 31.7574L34.9538 31.5437ZM33.3255 30.7978H32.8185V31.2033H33.3255V30.7978ZM32.6157 31.0006V34.8486H33.0212V31.0006H32.6157ZM32.6157 34.8486C32.6157 35.1642 32.6329 35.4162 32.6726 35.5945L33.0684 35.5066C33.0387 35.3729 33.0212 35.1569 33.0212 34.8486H32.6157ZM32.676 35.6078C32.7296 35.7899 32.827 35.9429 32.979 36.0443L33.2039 35.7069C33.148 35.6696 33.0981 35.6059 33.065 35.4934L32.676 35.6078ZM32.9893 36.0507C33.1394 36.1382 33.3384 36.1693 33.5595 36.1693V35.7638C33.3645 35.7638 33.2515 35.7342 33.1936 35.7004L32.9893 36.0507ZM46.9744 27.2826L46.9856 27.485L47.1771 27.4743V27.2826H46.9744ZM46.2854 27.3866L46.2179 27.1953L46.2142 27.1967L46.2854 27.3866ZM45.9994 27.6856L45.8082 27.6181V27.6181L45.9994 27.6856ZM45.9994 35.5636L45.8082 35.631V35.631L45.9994 35.5636ZM46.2854 35.8626L46.2142 36.0524L46.2179 36.0537L46.2854 35.8626ZM46.9744 35.9666H47.1771V35.7748L46.9856 35.7641L46.9744 35.9666ZM46.9744 36.2266L46.9627 36.429L47.1771 36.4413V36.2266H46.9744ZM42.6974 36.2266H42.4947V36.4403L42.708 36.429L42.6974 36.2266ZM42.6974 35.9666L42.687 35.7641L42.4947 35.774V35.9666H42.6974ZM43.4384 35.8626L43.5025 36.0549V36.0549L43.4384 35.8626ZM43.7634 35.5636L43.9509 35.6408L43.9523 35.637L43.7634 35.5636ZM43.7634 27.6986L43.5697 27.7597L43.5744 27.772L43.7634 27.6986ZM43.4904 27.3736L43.3997 27.5549L43.4073 27.5587L43.4151 27.5618L43.4904 27.3736ZM42.3594 27.3736L42.2687 27.1921L42.2633 27.1951L42.3594 27.3736ZM41.9694 28.4006L42.171 28.4222L42.1714 28.4174L41.9694 28.4006ZM41.9044 29.1026L41.7021 29.087L41.7018 29.0948L41.9044 29.1026ZM41.8654 29.7396L41.6634 29.722L41.6631 29.7257L41.8654 29.7396ZM41.5144 33.1456L41.3141 33.1141L41.3138 33.1161L41.5144 33.1456ZM40.7864 35.4466L40.9637 35.5448L40.9643 35.5438L40.7864 35.4466ZM38.2384 36.0706L38.1105 36.2279L38.2384 36.0706ZM38.1604 34.4066L38.2948 34.5584L38.2979 34.5555L38.1604 34.4066ZM39.6944 34.3156L39.5629 34.4703L39.5715 34.4768L39.6944 34.3156ZM39.6814 35.6676L39.5319 35.5306L39.5317 35.5309L39.6814 35.6676ZM38.9274 36.0966L38.8745 35.9008L38.3019 36.0556L38.8494 36.2837L38.9274 36.0966ZM40.6694 35.0566L40.8545 35.1393V35.1393L40.6694 35.0566ZM41.3454 32.4436L41.5467 32.4679L41.5467 32.4676L41.3454 32.4436ZM41.6704 28.4006L41.4688 28.3754L41.468 28.3891L41.6704 28.4006ZM41.2804 27.3736L41.2232 27.5681V27.5681L41.2804 27.3736ZM40.6174 27.2826H40.4147V27.4737L40.6055 27.4849L40.6174 27.2826ZM40.6174 27.0226L40.6318 26.8203L40.4147 26.8048V27.0226H40.6174ZM42.5414 27.0356L42.5367 26.8327L42.5279 26.8333L42.5414 27.0356ZM43.1004 27.0226L43.1034 26.8197L43.0957 26.8199L43.1004 27.0226ZM43.9714 27.0356L43.9802 26.8329L43.9744 26.8328L43.9714 27.0356ZM46.9744 27.0226H47.1771V26.8078L46.9627 26.8202L46.9744 27.0226ZM46.9632 27.0801C46.6471 27.0977 46.3936 27.1334 46.2179 27.1954L46.3529 27.5777C46.4719 27.5357 46.6777 27.5021 46.9856 27.485L46.9632 27.0801ZM46.2142 27.1967C46.016 27.2711 45.8789 27.4178 45.8082 27.6181L46.1906 27.753C46.2239 27.6587 46.2775 27.6061 46.3566 27.5764L46.2142 27.1967ZM45.8082 27.6181C45.744 27.8 45.7187 28.0679 45.7187 28.4006H46.1241C46.1241 28.0745 46.1508 27.8657 46.1906 27.753L45.8082 27.6181ZM45.7187 28.4006V34.8486H46.1241V28.4006H45.7187ZM45.7187 34.8486C45.7187 35.1812 45.744 35.4491 45.8082 35.631L46.1906 35.4961C46.1508 35.3834 46.1241 35.1746 46.1241 34.8486H45.7187ZM45.8082 35.631C45.8789 35.8313 46.016 35.9781 46.2142 36.0524L46.3566 35.6727C46.2775 35.6431 46.2239 35.5905 46.1906 35.4961L45.8082 35.631ZM46.2179 36.0537C46.3936 36.1157 46.6471 36.1514 46.9632 36.169L46.9856 35.7641C46.6777 35.747 46.4719 35.7134 46.3529 35.6714L46.2179 36.0537ZM46.7717 35.9666V36.2266H47.1771V35.9666H46.7717ZM46.9861 36.0242C46.5292 35.9978 45.818 35.9848 44.8554 35.9848V36.3903C45.8168 36.3903 46.5182 36.4033 46.9627 36.429L46.9861 36.0242ZM44.8554 35.9848C43.9097 35.9848 43.1862 35.9978 42.6867 36.0241L42.708 36.429C43.1966 36.4033 43.9117 36.3903 44.8554 36.3903V35.9848ZM42.9001 36.2266V35.9666H42.4947V36.2266H42.9001ZM42.7078 36.169C43.049 36.1515 43.3191 36.116 43.5025 36.0549L43.3743 35.6702C43.2457 35.7131 43.0218 35.7469 42.687 35.7641L42.7078 36.169ZM43.5025 36.0549C43.7124 35.9849 43.867 35.8445 43.9509 35.6408L43.5759 35.4864C43.5385 35.5773 43.4764 35.6362 43.3743 35.6702L43.5025 36.0549ZM43.9523 35.637C44.0271 35.4449 44.0571 35.1756 44.0571 34.8486H43.6517C43.6517 35.1628 43.6211 35.3702 43.5744 35.4901L43.9523 35.637ZM44.0571 34.8486V28.4006H43.6517V34.8486H44.0571ZM44.0571 28.4006C44.0571 28.0813 44.0269 27.8168 43.9523 27.6251L43.5744 27.772C43.6212 27.8923 43.6517 28.0958 43.6517 28.4006H44.0571ZM43.9567 27.6375C43.8911 27.4297 43.7651 27.2651 43.5657 27.1853L43.4151 27.5618C43.4757 27.586 43.5317 27.6381 43.5701 27.7596L43.9567 27.6375ZM43.5811 27.1922C43.4181 27.1107 43.2031 27.0798 42.9574 27.0798V27.4853C43.1796 27.4853 43.32 27.5151 43.3997 27.5549L43.5811 27.1922ZM42.9574 27.0798H42.8664V27.4853H42.9574V27.0798ZM42.8664 27.0798C42.635 27.0798 42.4301 27.1115 42.2687 27.1922L42.4501 27.5549C42.5313 27.5143 42.6644 27.4853 42.8664 27.4853V27.0798ZM42.2633 27.1951C42.0965 27.2848 41.9831 27.4382 41.9104 27.6251L42.2883 27.772C42.337 27.6469 42.3969 27.5836 42.4555 27.5521L42.2633 27.1951ZM41.9104 27.6251C41.839 27.8087 41.7938 28.0661 41.7674 28.3837L42.1714 28.4174C42.197 28.1111 42.2384 27.9004 42.2883 27.772L41.9104 27.6251ZM41.7678 28.379C41.7416 28.6235 41.7198 28.8595 41.7023 29.087L42.1065 29.1181C42.1237 28.8949 42.1452 28.663 42.171 28.4222L41.7678 28.379ZM41.7018 29.0948C41.6933 29.3172 41.6804 29.5263 41.6634 29.722L42.0674 29.7571C42.085 29.5542 42.0982 29.3385 42.107 29.1104L41.7018 29.0948ZM41.6631 29.7257C41.568 31.1093 41.4515 32.2382 41.3141 33.1141L41.7147 33.177C41.8546 32.2849 41.9721 31.1432 42.0677 29.7535L41.6631 29.7257ZM41.3138 33.1161C41.1866 33.9811 40.9502 34.7242 40.6085 35.3493L40.9643 35.5438C41.3332 34.8689 41.5822 34.0781 41.715 33.1751L41.3138 33.1161ZM40.6091 35.3483C40.2851 35.9329 39.8375 36.2058 39.2524 36.2058V36.6113C40.0019 36.6113 40.577 36.2428 40.9637 35.5448L40.6091 35.3483ZM39.2524 36.2058C38.8946 36.2058 38.6032 36.1058 38.3662 35.9132L38.1105 36.2279C38.4282 36.486 38.8129 36.6113 39.2524 36.6113V36.2058ZM38.3662 35.9132C38.136 35.7261 38.0251 35.4934 38.0251 35.1996H37.6197C37.6197 35.6163 37.7861 35.9643 38.1105 36.2279L38.3662 35.9132ZM38.0251 35.1996C38.0251 34.9221 38.1173 34.7154 38.2947 34.5584L38.0261 34.2547C37.7528 34.4964 37.6197 34.8183 37.6197 35.1996H38.0251ZM38.2979 34.5555C38.4818 34.3858 38.7127 34.2973 39.0054 34.2973V33.8918C38.6221 33.8918 38.2896 34.0114 38.0229 34.2576L38.2979 34.5555ZM39.0054 34.2973C39.256 34.2973 39.4351 34.3612 39.5631 34.47L39.8257 34.1611C39.607 33.9752 39.3268 33.8918 39.0054 33.8918V34.2973ZM39.5715 34.4768C39.6978 34.573 39.7647 34.7053 39.7647 34.9006H40.1701C40.1701 34.5931 40.055 34.3355 39.8173 34.1543L39.5715 34.4768ZM39.7647 34.9006C39.7647 35.1573 39.6856 35.3629 39.5319 35.5306L39.8308 35.8046C40.0585 35.5562 40.1701 35.2505 40.1701 34.9006H39.7647ZM39.5317 35.5309C39.3811 35.6958 39.1665 35.8219 38.8745 35.9008L38.9803 36.2923C39.3296 36.1979 39.6177 36.038 39.8311 35.8043L39.5317 35.5309ZM38.8494 36.2837C38.9781 36.3373 39.113 36.3643 39.2524 36.3643V35.9588C39.1665 35.9588 39.0847 35.9425 39.0054 35.9094L38.8494 36.2837ZM39.2524 36.3643C39.6039 36.3643 39.92 36.2579 40.1928 36.0452C40.4626 35.8348 40.6808 35.5278 40.8545 35.1393L40.4843 34.9738C40.3287 35.3219 40.146 35.5675 39.9435 35.7254C39.744 35.881 39.5162 35.9588 39.2524 35.9588V36.3643ZM40.8545 35.1393C41.1939 34.3801 41.4235 33.4885 41.5467 32.4679L41.1441 32.4193C41.0246 33.4093 40.8035 34.2597 40.4843 34.9738L40.8545 35.1393ZM41.5467 32.4676C41.6687 31.4477 41.7774 30.0953 41.8728 28.412L41.468 28.3891C41.3728 30.0685 41.2647 31.4115 41.1441 32.4195L41.5467 32.4676ZM41.8716 28.4257C41.8818 28.3441 41.8861 28.2392 41.8861 28.1146H41.4807C41.4807 28.2326 41.4764 28.3183 41.4692 28.3754L41.8716 28.4257ZM41.8861 28.1146C41.8861 27.8777 41.8554 27.6683 41.7709 27.5114L41.4139 27.7037C41.4508 27.7721 41.4807 27.9008 41.4807 28.1146H41.8861ZM41.7709 27.5114C41.6795 27.3418 41.5257 27.2344 41.3376 27.1791L41.2232 27.5681C41.3297 27.5994 41.3839 27.648 41.4139 27.7037L41.7709 27.5114ZM41.3376 27.1791C41.1676 27.1291 40.928 27.0977 40.6293 27.0802L40.6055 27.4849C40.8961 27.502 41.0985 27.5314 41.2232 27.5681L41.3376 27.1791ZM40.8201 27.2826V27.0226H40.4147V27.2826H40.8201ZM40.603 27.2248C40.9734 27.2512 41.4248 27.2643 41.9564 27.2643V26.8588C41.4306 26.8588 40.9894 26.8459 40.6318 26.8203L40.603 27.2248ZM41.9564 27.2643C42.0934 27.2643 42.2939 27.2552 42.5549 27.2379L42.5279 26.8333C42.2689 26.8505 42.0794 26.8588 41.9564 26.8588V27.2643ZM42.5461 27.2382L43.1051 27.2252L43.0957 26.8199L42.5367 26.8329L42.5461 27.2382ZM43.0974 27.2253L43.9684 27.2383L43.9744 26.8328L43.1034 26.8198L43.0974 27.2253ZM43.9626 27.2381C44.3628 27.2555 44.6954 27.2643 44.9594 27.2643V26.8588C44.7034 26.8588 44.3773 26.8503 43.9802 26.833L43.9626 27.2381ZM44.9594 27.2643C45.853 27.2643 46.5294 27.2513 46.9861 27.225L46.9627 26.8202C46.5181 26.8458 45.8511 26.8588 44.9594 26.8588V27.2643ZM46.7717 27.0226V27.2826H47.1771V27.0226H46.7717ZM57.8575 27.2826L57.8694 27.4849L58.0602 27.4737V27.2826H57.8575ZM57.2205 27.3866L57.2958 27.5748V27.5748L57.2205 27.3866ZM56.9475 27.6856L56.756 27.618L56.753 27.6284L56.9475 27.6856ZM56.9475 35.5636L56.7527 35.6208L56.7563 35.631L56.9475 35.5636ZM57.2205 35.8626L57.1452 36.0508V36.0508L57.2205 35.8626ZM57.8575 35.9666H58.0602V35.7754L57.8694 35.7642L57.8575 35.9666ZM57.8575 36.2266L57.8456 36.4289L58.0602 36.4416V36.2266H57.8575ZM53.8405 36.2266H53.6377V36.4411L53.8519 36.429L53.8405 36.2266ZM53.8405 35.9666L53.8282 35.7642L53.6377 35.7757V35.9666H53.8405ZM54.4645 35.8626L54.3933 35.6727L54.3892 35.6743L54.4645 35.8626ZM54.7375 35.5636L54.546 35.496L54.543 35.5064L54.7375 35.5636ZM54.8155 28.7646H55.0182V28.0247L54.641 28.6612L54.8155 28.7646ZM51.1105 35.0176L50.936 34.9142L50.9059 34.965L50.9078 35.0241L51.1105 35.0176ZM51.2015 35.6156L51.0132 35.6909L51.0151 35.6954L51.2015 35.6156ZM51.4745 35.8756L51.399 36.0641L51.4104 36.0679L51.4745 35.8756ZM52.0855 35.9666H52.2882V35.7761L52.0981 35.7642L52.0855 35.9666ZM52.0855 36.2266L52.0742 36.429L52.2882 36.4409V36.2266H52.0855ZM48.0685 36.2266H47.8657V36.4416L48.0804 36.4289L48.0685 36.2266ZM48.0685 35.9666L48.0562 35.7642L47.8657 35.7757V35.9666H48.0685ZM48.6925 35.8626L48.6213 35.6727L48.6172 35.6743L48.6925 35.8626ZM48.9655 35.5636L48.774 35.496L48.771 35.5064L48.9655 35.5636ZM48.9655 27.6856L48.7707 27.7428L48.7743 27.753L48.9655 27.6856ZM48.6925 27.3866L48.6172 27.5748L48.6213 27.5764L48.6925 27.3866ZM48.0685 27.2826H47.8657V27.4734L48.0562 27.4849L48.0685 27.2826ZM48.0685 27.0226L48.0804 26.8202L47.8657 26.8076V27.0226H48.0685ZM52.0855 27.0226H52.2882V26.8083L52.0742 26.8201L52.0855 27.0226ZM52.0855 27.2826L52.0974 27.4849L52.2882 27.4737V27.2826H52.0855ZM51.4485 27.3866L51.5238 27.5748V27.5748L51.4485 27.3866ZM51.1755 27.6856L50.984 27.618L50.981 27.6284L51.1755 27.6856ZM51.1105 34.4586H50.9077V35.2011L51.2851 34.5616L51.1105 34.4586ZM54.8155 28.1796L54.9901 28.2826L55.0201 28.2317L55.0181 28.1726L54.8155 28.1796ZM54.7115 27.6206L54.5248 27.7006L54.5301 27.7112L54.7115 27.6206ZM54.4385 27.3736L54.5026 27.1812V27.1812L54.4385 27.3736ZM53.8405 27.2826H53.6377V27.4726L53.8274 27.4849L53.8405 27.2826ZM53.8405 27.0226L53.8521 26.8202L53.6377 26.8078V27.0226H53.8405ZM57.8575 27.0226H58.0602V26.8076L57.8456 26.8202L57.8575 27.0226ZM57.8456 27.0802C57.5477 27.0977 57.3075 27.1334 57.1452 27.1983L57.2958 27.5748C57.3935 27.5357 57.5779 27.5021 57.8694 27.4849L57.8456 27.0802ZM57.1452 27.1983C56.9543 27.2747 56.8252 27.4228 56.7563 27.6181L57.1386 27.753C57.1737 27.6536 57.2266 27.6025 57.2958 27.5748L57.1452 27.1983ZM56.753 27.6284C56.7009 27.8055 56.6797 28.0688 56.6797 28.4006H57.0852C57.0852 28.0737 57.1074 27.8603 57.142 27.7428L56.753 27.6284ZM56.6797 28.4006V34.8486H57.0852V28.4006H56.6797ZM56.6797 34.8486C56.6797 35.1804 56.7009 35.4436 56.753 35.6208L57.142 35.5064C57.1074 35.3888 57.0852 35.1754 57.0852 34.8486H56.6797ZM56.7563 35.631C56.8252 35.8263 56.9543 35.9745 57.1452 36.0508L57.2958 35.6743C57.2266 35.6467 57.1737 35.5955 57.1386 35.4961L56.7563 35.631ZM57.1452 36.0508C57.3075 36.1157 57.5477 36.1514 57.8456 36.1689L57.8694 35.7642C57.5779 35.747 57.3935 35.7134 57.2958 35.6743L57.1452 36.0508ZM57.6547 35.9666V36.2266H58.0602V35.9666H57.6547ZM57.8694 36.0242C57.4211 35.9978 56.7315 35.9848 55.8035 35.9848V36.3903C56.7301 36.3903 57.4098 36.4033 57.8456 36.4289L57.8694 36.0242ZM55.8035 35.9848C54.9529 35.9848 54.2941 35.9978 53.829 36.0241L53.8519 36.429C54.3055 36.4033 54.9553 36.3903 55.8035 36.3903V35.9848ZM54.0432 36.2266V35.9666H53.6377V36.2266H54.0432ZM53.8527 36.1689C54.1426 36.1514 54.378 36.1155 54.5398 36.0508L54.3892 35.6743C54.2909 35.7136 54.1103 35.7471 53.8282 35.7642L53.8527 36.1689ZM54.5357 36.0524C54.7365 35.9771 54.8714 35.8266 54.932 35.6208L54.543 35.5064C54.5168 35.5952 54.4697 35.6441 54.3933 35.6727L54.5357 36.0524ZM54.9286 35.631C54.9929 35.4491 55.0182 35.1812 55.0182 34.8486H54.6127C54.6127 35.1746 54.5861 35.3834 54.5463 35.4961L54.9286 35.631ZM55.0182 34.8486V28.7646H54.6127V34.8486H55.0182ZM54.641 28.6612L50.936 34.9142L51.2849 35.1209L54.9899 28.8679L54.641 28.6612ZM50.9078 35.0241C50.9167 35.2988 50.9477 35.5271 51.0132 35.6909L51.3897 35.5403C51.3512 35.4441 51.3216 35.2737 51.3131 35.011L50.9078 35.0241ZM51.0151 35.6954C51.0897 35.8694 51.2226 35.9932 51.3992 36.0638L51.5498 35.6873C51.4663 35.654 51.4172 35.6044 51.3878 35.5357L51.0151 35.6954ZM51.4104 36.0679C51.5665 36.1199 51.792 36.1514 52.0728 36.1689L52.0981 35.7642C51.8242 35.7471 51.6424 35.7178 51.5386 35.6832L51.4104 36.0679ZM51.8827 35.9666V36.2266H52.2882V35.9666H51.8827ZM52.0967 36.0241C51.6231 35.9978 50.9644 35.9848 50.1225 35.9848V36.3903C50.9618 36.3903 51.6118 36.4033 52.0742 36.429L52.0967 36.0241ZM50.1225 35.9848C49.1945 35.9848 48.5048 35.9978 48.0566 36.0242L48.0804 36.4289C48.5161 36.4033 49.1958 36.3903 50.1225 36.3903V35.9848ZM48.2712 36.2266V35.9666H47.8657V36.2266H48.2712ZM48.0807 36.1689C48.3706 36.1514 48.606 36.1155 48.7678 36.0508L48.6172 35.6743C48.5189 35.7136 48.3383 35.7471 48.0562 35.7642L48.0807 36.1689ZM48.7636 36.0524C48.9645 35.9771 49.0994 35.8266 49.16 35.6208L48.771 35.5064C48.7448 35.5952 48.6977 35.6441 48.6213 35.6727L48.7636 36.0524ZM49.1566 35.631C49.2209 35.4491 49.2462 35.1812 49.2462 34.8486H48.8407C48.8407 35.1746 48.8141 35.3834 48.7743 35.4961L49.1566 35.631ZM49.2462 34.8486V28.4006H48.8407V34.8486H49.2462ZM49.2462 28.4006C49.2462 28.0679 49.2209 27.8 49.1566 27.6181L48.7743 27.753C48.8141 27.8657 48.8407 28.0745 48.8407 28.4006H49.2462ZM49.16 27.6284C49.0994 27.4225 48.9645 27.2721 48.7636 27.1967L48.6213 27.5764C48.6977 27.6051 48.7448 27.6539 48.771 27.7428L49.16 27.6284ZM48.7678 27.1983C48.606 27.1336 48.3706 27.0978 48.0807 27.0802L48.0562 27.4849C48.3383 27.502 48.5189 27.5355 48.6172 27.5748L48.7678 27.1983ZM48.2712 27.2826V27.0226H47.8657V27.2826H48.2712ZM48.0566 27.2249C48.5048 27.2513 49.1945 27.2643 50.1225 27.2643V26.8588C49.1958 26.8588 48.5161 26.8458 48.0804 26.8202L48.0566 27.2249ZM50.1225 27.2643C50.9644 27.2643 51.6231 27.2513 52.0967 27.225L52.0742 26.8201C51.6118 26.8458 50.9618 26.8588 50.1225 26.8588V27.2643ZM51.8827 27.0226V27.2826H52.2882V27.0226H51.8827ZM52.0736 27.0802C51.7757 27.0977 51.5355 27.1334 51.3732 27.1983L51.5238 27.5748C51.6215 27.5357 51.8059 27.5021 52.0974 27.4849L52.0736 27.0802ZM51.3732 27.1983C51.1823 27.2747 51.0532 27.4228 50.9843 27.6181L51.3666 27.753C51.4017 27.6536 51.4546 27.6025 51.5238 27.5748L51.3732 27.1983ZM50.981 27.6284C50.9289 27.8055 50.9077 28.0688 50.9077 28.4006H51.3132C51.3132 28.0737 51.3354 27.8603 51.37 27.7428L50.981 27.6284ZM50.9077 28.4006V34.4586H51.3132V28.4006H50.9077ZM51.2851 34.5616L54.9901 28.2826L54.6409 28.0765L50.9359 34.3555L51.2851 34.5616ZM55.0181 28.1726C55.0091 27.9128 54.9733 27.691 54.8928 27.5299L54.5301 27.7112C54.5709 27.7928 54.6045 27.9436 54.6129 28.1865L55.0181 28.1726ZM54.8978 27.5407C54.822 27.3639 54.6851 27.2421 54.5026 27.1812L54.3744 27.5659C54.4518 27.5917 54.4969 27.6346 54.5251 27.7004L54.8978 27.5407ZM54.5026 27.1812C54.3469 27.1294 54.1263 27.0978 53.8535 27.0802L53.8274 27.4849C54.092 27.5019 54.27 27.5311 54.3744 27.5659L54.5026 27.1812ZM54.0432 27.2826V27.0226H53.6377V27.2826H54.0432ZM53.8288 27.225C54.2854 27.2513 54.9444 27.2643 55.8035 27.2643V26.8588C54.9466 26.8588 54.2969 26.8458 53.8521 26.8202L53.8288 27.225ZM55.8035 27.2643C56.7315 27.2643 57.4211 27.2513 57.8694 27.2249L57.8456 26.8202C57.4098 26.8458 56.7301 26.8588 55.8035 26.8588V27.2643ZM57.6547 27.0226V27.2826H58.0602V27.0226H57.6547Z" fill="#FEF5EB" mask="url(#path-5-outside-1_23632_22529)"/>
</g>
</g>
<defs>
<linearGradient id="paint0_linear_23632_22529" x1="34" y1="-1.04141e-05" x2="34" y2="68" gradientUnits="userSpaceOnUse">
<stop stop-color="#C93D34"/>
<stop offset="1" stop-color="#7A2629"/>
</linearGradient>
<linearGradient id="paint1_linear_23632_22529" x1="34" y1="-1.04141e-05" x2="34" y2="68" gradientUnits="userSpaceOnUse">
<stop stop-color="#C93D34"/>
<stop offset="1" stop-color="#7A2629"/>
</linearGradient>
<clipPath id="clip0_23632_22529">
<rect width="68" height="68" fill="white"/>
</clipPath>
</defs>
</svg>
