<svg width="68" height="68" viewBox="0 0 68 68" fill="none" xmlns="http://www.w3.org/2000/svg">
<g clip-path="url(#clip0_23632_22639)">
<mask id="mask0_23632_22639" style="mask-type:alpha" maskUnits="userSpaceOnUse" x="0" y="0" width="68" height="68">
<path fill-rule="evenodd" clip-rule="evenodd" d="M47.0333 0H20.9667C13.5811 0 8.89667 0.0377779 4.45778 4.45778C0.018889 8.89667 0 13.6 0 20.9667V47.0333C0 54.4189 0.0377779 59.1033 4.45778 63.5422C8.89667 67.9811 13.6 68 20.9667 68H47.0333C54.4189 68 59.1033 67.9811 63.5422 63.5422C67.9622 59.1033 68 54.4 68 47.0333V20.9667C68 13.5811 67.9622 8.89667 63.5422 4.45778C59.1033 0.018889 54.4 0 47.0333 0Z" fill="url(#paint0_linear_23632_22639)"/>
</mask>
<g mask="url(#mask0_23632_22639)">
<rect width="68" height="68" fill="url(#paint1_linear_23632_22639)"/>
<path fill-rule="evenodd" clip-rule="evenodd" d="M15.6212 64.3735C26.4256 64.3735 45.6357 64.3735 45.6357 64.3735C52.5868 64.3735 57.0823 64.6379 61.2379 60.4446C64.8079 56.8746 64.5057 50.8679 64.7323 46.1079C60.709 52.1524 53.3234 51.9446 47.619 51.9446C47.619 51.9446 20.929 51.9446 10.9556 51.9446C0.982316 51.9635 4.81676 64.3735 15.6212 64.3735Z" fill="#FEF5EB"/>
<path d="M12.4854 53.5312H23.1387V61.5213L17.812 58.8579L12.4854 61.5213V53.5312Z" fill="#F19C33"/>
<mask id="path-5-outside-1_23632_22639" maskUnits="userSpaceOnUse" x="11.1016" y="19.2266" width="46" height="14" fill="black">
<rect fill="white" x="11.1016" y="19.2266" width="46" height="14"/>
<path d="M16.4276 24.8372C17.4843 24.9813 18.2385 25.2887 18.69 25.7594C19.1415 26.2205 19.3673 26.7777 19.3673 27.431C19.3673 27.9786 19.228 28.4637 18.9494 28.8864C18.6708 29.3091 18.2721 29.6405 17.7533 29.8807C17.2346 30.1113 16.6197 30.2266 15.9088 30.2266C15.6494 30.2266 15.4285 30.2218 15.246 30.2122C14.6311 30.1929 14.0259 30.1833 13.4303 30.1833C12.6425 30.1833 12.0469 30.1977 11.6434 30.2266V29.9384C11.9893 29.9191 12.239 29.8807 12.3927 29.8231C12.5561 29.7654 12.6665 29.655 12.7242 29.4916C12.7818 29.3283 12.8106 29.0641 12.8106 28.6991V21.5516C12.8106 21.1866 12.7818 20.9224 12.7242 20.7591C12.6665 20.5958 12.5561 20.4853 12.3927 20.4277C12.239 20.37 11.9893 20.3316 11.6434 20.3124V20.0242C12.0469 20.053 12.6329 20.0674 13.4015 20.0674L14.9578 20.053C15.1403 20.0434 15.3468 20.0386 15.5774 20.0386C16.5573 20.0386 17.3066 20.2451 17.8254 20.6582C18.3537 21.0713 18.6179 21.6189 18.6179 22.301C18.6179 22.8582 18.4402 23.3577 18.0848 23.7996C17.7389 24.2415 17.1865 24.5778 16.4276 24.8083V24.8372ZM15.2171 20.3124C14.9193 20.3124 14.6936 20.346 14.5399 20.4132C14.3958 20.4805 14.2949 20.6006 14.2372 20.7735C14.1796 20.9464 14.1508 21.2058 14.1508 21.5516V24.8083H15.1163C15.904 24.8083 16.4516 24.597 16.759 24.1743C17.076 23.742 17.2346 23.1704 17.2346 22.4595C17.2346 21.739 17.076 21.201 16.759 20.8456C16.442 20.4901 15.928 20.3124 15.2171 20.3124ZM15.2315 29.8951C17.028 29.8951 17.9262 29.0545 17.9262 27.3734C17.9262 26.6144 17.7197 26.038 17.3066 25.6441C16.9031 25.2503 16.2547 25.0533 15.3612 25.0533H14.1508V28.6991C14.1508 29.0449 14.1796 29.2995 14.2372 29.4628C14.2949 29.6261 14.3958 29.7414 14.5399 29.8087C14.6936 29.8663 14.9241 29.8951 15.2315 29.8951ZM24.4633 20.3124C24.1175 20.3316 23.8629 20.37 23.6996 20.4277C23.5459 20.4853 23.4402 20.5958 23.3826 20.7591C23.3249 20.9224 23.2961 21.1866 23.2961 21.5516V28.6991C23.2961 29.0641 23.3249 29.3283 23.3826 29.4916C23.4402 29.655 23.5459 29.7654 23.6996 29.8231C23.8629 29.8807 24.1175 29.9191 24.4633 29.9384V30.2266C24.0214 30.1977 23.4114 30.1833 22.6332 30.1833C21.8071 30.1833 21.1922 30.1977 20.7887 30.2266V29.9384C21.1346 29.9191 21.3844 29.8807 21.5381 29.8231C21.7014 29.7654 21.8119 29.655 21.8695 29.4916C21.9271 29.3283 21.956 29.0641 21.956 28.6991V21.5516C21.956 21.1866 21.9271 20.9224 21.8695 20.7591C21.8119 20.5958 21.7014 20.4853 21.5381 20.4277C21.3844 20.37 21.1346 20.3316 20.7887 20.3124V20.0242C21.1922 20.053 21.8071 20.0674 22.6332 20.0674C23.4018 20.0674 24.0118 20.053 24.4633 20.0242V20.3124ZM25.0441 32.6619C25.7165 32.6427 26.2113 32.3929 26.5283 31.9126C26.8549 31.4322 27.0183 30.6204 27.0183 29.4772V21.5516C27.0183 21.1866 26.9894 20.9224 26.9318 20.7591C26.8742 20.5958 26.7637 20.4853 26.6004 20.4277C26.4467 20.37 26.1969 20.3316 25.851 20.3124V20.0242C26.2545 20.053 26.8597 20.0674 27.6667 20.0674C28.4545 20.0674 29.0741 20.053 29.5256 20.0242V20.3124C29.1798 20.3316 28.9252 20.37 28.7619 20.4277C28.6082 20.4853 28.5025 20.5958 28.4449 20.7591C28.3872 20.9224 28.3584 21.1866 28.3584 21.5516V26.8258C28.3584 27.6423 28.344 28.3677 28.3152 29.0017C28.2863 29.6261 28.2191 30.1545 28.1134 30.5868C27.9405 31.2881 27.5851 31.8549 27.0471 32.2872C26.5187 32.7195 25.851 32.9357 25.0441 32.9357V32.6619ZM35.6875 24.8372C36.7442 24.9813 37.4984 25.2887 37.9499 25.7594C38.4014 26.2205 38.6271 26.7777 38.6271 27.431C38.6271 27.9786 38.4879 28.4637 38.2093 28.8864C37.9307 29.3091 37.532 29.6405 37.0132 29.8807C36.4944 30.1113 35.8796 30.2266 35.1687 30.2266C34.9093 30.2266 34.6884 30.2218 34.5058 30.2122C33.891 30.1929 33.2858 30.1833 32.6902 30.1833C31.9024 30.1833 31.3068 30.1977 30.9033 30.2266V29.9384C31.2491 29.9191 31.4989 29.8807 31.6526 29.8231C31.8159 29.7654 31.9264 29.655 31.9841 29.4916C32.0417 29.3283 32.0705 29.0641 32.0705 28.6991V21.5516C32.0705 21.1866 32.0417 20.9224 31.9841 20.7591C31.9264 20.5958 31.8159 20.4853 31.6526 20.4277C31.4989 20.37 31.2491 20.3316 30.9033 20.3124V20.0242C31.3068 20.053 31.8928 20.0674 32.6613 20.0674L34.2176 20.053C34.4002 20.0434 34.6067 20.0386 34.8373 20.0386C35.8172 20.0386 36.5665 20.2451 37.0853 20.6582C37.6136 21.0713 37.8778 21.6189 37.8778 22.301C37.8778 22.8582 37.7001 23.3577 37.3446 23.7996C36.9988 24.2415 36.4464 24.5778 35.6875 24.8083V24.8372ZM34.477 20.3124C34.1792 20.3124 33.9535 20.346 33.7997 20.4132C33.6556 20.4805 33.5548 20.6006 33.4971 20.7735C33.4395 20.9464 33.4107 21.2058 33.4107 21.5516V24.8083H34.3762C35.1639 24.8083 35.7115 24.597 36.0189 24.1743C36.3359 23.742 36.4944 23.1704 36.4944 22.4595C36.4944 21.739 36.3359 21.201 36.0189 20.8456C35.7019 20.4901 35.1879 20.3124 34.477 20.3124ZM34.4914 29.8951C36.2879 29.8951 37.1861 29.0545 37.1861 27.3734C37.1861 26.6144 36.9796 26.038 36.5665 25.6441C36.163 25.2503 35.5146 25.0533 34.6211 25.0533H33.4107V28.6991C33.4107 29.0449 33.4395 29.2995 33.4971 29.4628C33.5548 29.6261 33.6556 29.7414 33.7997 29.8087C33.9535 29.8663 34.184 29.8951 34.4914 29.8951ZM47.4266 28.3821C47.4266 28.9296 47.4603 29.5445 47.5275 30.2266C46.8742 30.1977 45.7743 30.1833 44.2276 30.1833C42.3831 30.1833 40.9901 30.1977 40.0486 30.2266V29.9384C40.3945 29.9191 40.6442 29.8807 40.798 29.8231C40.9613 29.7654 41.0717 29.655 41.1294 29.4916C41.187 29.3283 41.2158 29.0641 41.2158 28.6991V21.5516C41.2158 21.1866 41.187 20.9224 41.1294 20.7591C41.0717 20.5958 40.9613 20.4853 40.798 20.4277C40.6442 20.37 40.3945 20.3316 40.0486 20.3124V20.0242C40.9901 20.053 42.3831 20.0674 44.2276 20.0674C45.6398 20.0674 46.6437 20.053 47.2393 20.0242C47.172 20.6582 47.1384 21.225 47.1384 21.7246C47.1384 22.0992 47.1528 22.397 47.1817 22.618H46.8502C46.783 21.9936 46.6965 21.5324 46.5908 21.2346C46.4852 20.9272 46.3074 20.7063 46.0577 20.5718C45.8079 20.4277 45.4284 20.3556 44.9193 20.3556H43.7232C43.3774 20.3556 43.1228 20.3844 42.9595 20.4421C42.8058 20.4901 42.7001 20.5958 42.6425 20.7591C42.5848 20.9224 42.556 21.1866 42.556 21.5516V24.9524H43.5071C43.8433 24.9524 44.1027 24.8756 44.2852 24.7219C44.4677 24.5586 44.5878 24.3712 44.6455 24.1599C44.7127 23.9389 44.7656 23.6651 44.804 23.3385L44.8472 23.0503H45.1786C45.1498 23.4538 45.1354 23.9053 45.1354 24.4049V25.0965C45.1354 25.5865 45.1642 26.2686 45.2219 27.1428H44.8904C44.8808 27.0755 44.852 26.845 44.804 26.4511C44.7559 26.0476 44.6214 25.745 44.4005 25.5433C44.1891 25.3415 43.8913 25.2406 43.5071 25.2406H42.556V28.6991C42.556 29.0641 42.5848 29.3283 42.6425 29.4916C42.7001 29.655 42.8058 29.7654 42.9595 29.8231C43.1228 29.8711 43.3774 29.8951 43.7232 29.8951H44.7752C45.3708 29.8951 45.8223 29.8183 46.1297 29.6646C46.4467 29.5013 46.6773 29.2467 46.8214 28.9008C46.9655 28.5454 47.0712 28.0266 47.1384 27.3445H47.4699C47.441 27.6039 47.4266 27.9498 47.4266 28.3821ZM52.77 20.3124C52.4242 20.3316 52.1696 20.37 52.0063 20.4277C51.8526 20.4853 51.7469 20.5958 51.6893 20.7591C51.6316 20.9224 51.6028 21.1866 51.6028 21.5516V28.6991C51.6028 29.0641 51.6316 29.3283 51.6893 29.4916C51.7469 29.655 51.8526 29.7654 52.0063 29.8231C52.1696 29.8711 52.4242 29.8951 52.77 29.8951H53.822C54.4176 29.8951 54.8691 29.8135 55.1765 29.6502C55.4935 29.4772 55.7241 29.2034 55.8682 28.8288C56.0123 28.4541 56.118 27.9113 56.1852 27.2004H56.5167C56.4878 27.4982 56.4734 27.8921 56.4734 28.3821C56.4734 28.9296 56.5071 29.5445 56.5743 30.2266C55.921 30.1977 54.8211 30.1833 53.2744 30.1833C51.4299 30.1833 50.0369 30.1977 49.0954 30.2266V29.9384C49.4413 29.9191 49.6911 29.8807 49.8448 29.8231C50.0081 29.7654 50.1186 29.655 50.1762 29.4916C50.2338 29.3283 50.2627 29.0641 50.2627 28.6991V21.5516C50.2627 21.1866 50.2338 20.9224 50.1762 20.7591C50.1186 20.5958 50.0081 20.4853 49.8448 20.4277C49.6911 20.37 49.4413 20.3316 49.0954 20.3124V20.0242C49.4989 20.053 50.1138 20.0674 50.9399 20.0674C51.7085 20.0674 52.3185 20.053 52.77 20.0242V20.3124Z"/>
</mask>
<path d="M16.4276 24.8372C17.4843 24.9813 18.2385 25.2887 18.69 25.7594C19.1415 26.2205 19.3673 26.7777 19.3673 27.431C19.3673 27.9786 19.228 28.4637 18.9494 28.8864C18.6708 29.3091 18.2721 29.6405 17.7533 29.8807C17.2346 30.1113 16.6197 30.2266 15.9088 30.2266C15.6494 30.2266 15.4285 30.2218 15.246 30.2122C14.6311 30.1929 14.0259 30.1833 13.4303 30.1833C12.6425 30.1833 12.0469 30.1977 11.6434 30.2266V29.9384C11.9893 29.9191 12.239 29.8807 12.3927 29.8231C12.5561 29.7654 12.6665 29.655 12.7242 29.4916C12.7818 29.3283 12.8106 29.0641 12.8106 28.6991V21.5516C12.8106 21.1866 12.7818 20.9224 12.7242 20.7591C12.6665 20.5958 12.5561 20.4853 12.3927 20.4277C12.239 20.37 11.9893 20.3316 11.6434 20.3124V20.0242C12.0469 20.053 12.6329 20.0674 13.4015 20.0674L14.9578 20.053C15.1403 20.0434 15.3468 20.0386 15.5774 20.0386C16.5573 20.0386 17.3066 20.2451 17.8254 20.6582C18.3537 21.0713 18.6179 21.6189 18.6179 22.301C18.6179 22.8582 18.4402 23.3577 18.0848 23.7996C17.7389 24.2415 17.1865 24.5778 16.4276 24.8083V24.8372ZM15.2171 20.3124C14.9193 20.3124 14.6936 20.346 14.5399 20.4132C14.3958 20.4805 14.2949 20.6006 14.2372 20.7735C14.1796 20.9464 14.1508 21.2058 14.1508 21.5516V24.8083H15.1163C15.904 24.8083 16.4516 24.597 16.759 24.1743C17.076 23.742 17.2346 23.1704 17.2346 22.4595C17.2346 21.739 17.076 21.201 16.759 20.8456C16.442 20.4901 15.928 20.3124 15.2171 20.3124ZM15.2315 29.8951C17.028 29.8951 17.9262 29.0545 17.9262 27.3734C17.9262 26.6144 17.7197 26.038 17.3066 25.6441C16.9031 25.2503 16.2547 25.0533 15.3612 25.0533H14.1508V28.6991C14.1508 29.0449 14.1796 29.2995 14.2372 29.4628C14.2949 29.6261 14.3958 29.7414 14.5399 29.8087C14.6936 29.8663 14.9241 29.8951 15.2315 29.8951ZM24.4633 20.3124C24.1175 20.3316 23.8629 20.37 23.6996 20.4277C23.5459 20.4853 23.4402 20.5958 23.3826 20.7591C23.3249 20.9224 23.2961 21.1866 23.2961 21.5516V28.6991C23.2961 29.0641 23.3249 29.3283 23.3826 29.4916C23.4402 29.655 23.5459 29.7654 23.6996 29.8231C23.8629 29.8807 24.1175 29.9191 24.4633 29.9384V30.2266C24.0214 30.1977 23.4114 30.1833 22.6332 30.1833C21.8071 30.1833 21.1922 30.1977 20.7887 30.2266V29.9384C21.1346 29.9191 21.3844 29.8807 21.5381 29.8231C21.7014 29.7654 21.8119 29.655 21.8695 29.4916C21.9271 29.3283 21.956 29.0641 21.956 28.6991V21.5516C21.956 21.1866 21.9271 20.9224 21.8695 20.7591C21.8119 20.5958 21.7014 20.4853 21.5381 20.4277C21.3844 20.37 21.1346 20.3316 20.7887 20.3124V20.0242C21.1922 20.053 21.8071 20.0674 22.6332 20.0674C23.4018 20.0674 24.0118 20.053 24.4633 20.0242V20.3124ZM25.0441 32.6619C25.7165 32.6427 26.2113 32.3929 26.5283 31.9126C26.8549 31.4322 27.0183 30.6204 27.0183 29.4772V21.5516C27.0183 21.1866 26.9894 20.9224 26.9318 20.7591C26.8742 20.5958 26.7637 20.4853 26.6004 20.4277C26.4467 20.37 26.1969 20.3316 25.851 20.3124V20.0242C26.2545 20.053 26.8597 20.0674 27.6667 20.0674C28.4545 20.0674 29.0741 20.053 29.5256 20.0242V20.3124C29.1798 20.3316 28.9252 20.37 28.7619 20.4277C28.6082 20.4853 28.5025 20.5958 28.4449 20.7591C28.3872 20.9224 28.3584 21.1866 28.3584 21.5516V26.8258C28.3584 27.6423 28.344 28.3677 28.3152 29.0017C28.2863 29.6261 28.2191 30.1545 28.1134 30.5868C27.9405 31.2881 27.5851 31.8549 27.0471 32.2872C26.5187 32.7195 25.851 32.9357 25.0441 32.9357V32.6619ZM35.6875 24.8372C36.7442 24.9813 37.4984 25.2887 37.9499 25.7594C38.4014 26.2205 38.6271 26.7777 38.6271 27.431C38.6271 27.9786 38.4879 28.4637 38.2093 28.8864C37.9307 29.3091 37.532 29.6405 37.0132 29.8807C36.4944 30.1113 35.8796 30.2266 35.1687 30.2266C34.9093 30.2266 34.6884 30.2218 34.5058 30.2122C33.891 30.1929 33.2858 30.1833 32.6902 30.1833C31.9024 30.1833 31.3068 30.1977 30.9033 30.2266V29.9384C31.2491 29.9191 31.4989 29.8807 31.6526 29.8231C31.8159 29.7654 31.9264 29.655 31.9841 29.4916C32.0417 29.3283 32.0705 29.0641 32.0705 28.6991V21.5516C32.0705 21.1866 32.0417 20.9224 31.9841 20.7591C31.9264 20.5958 31.8159 20.4853 31.6526 20.4277C31.4989 20.37 31.2491 20.3316 30.9033 20.3124V20.0242C31.3068 20.053 31.8928 20.0674 32.6613 20.0674L34.2176 20.053C34.4002 20.0434 34.6067 20.0386 34.8373 20.0386C35.8172 20.0386 36.5665 20.2451 37.0853 20.6582C37.6136 21.0713 37.8778 21.6189 37.8778 22.301C37.8778 22.8582 37.7001 23.3577 37.3446 23.7996C36.9988 24.2415 36.4464 24.5778 35.6875 24.8083V24.8372ZM34.477 20.3124C34.1792 20.3124 33.9535 20.346 33.7997 20.4132C33.6556 20.4805 33.5548 20.6006 33.4971 20.7735C33.4395 20.9464 33.4107 21.2058 33.4107 21.5516V24.8083H34.3762C35.1639 24.8083 35.7115 24.597 36.0189 24.1743C36.3359 23.742 36.4944 23.1704 36.4944 22.4595C36.4944 21.739 36.3359 21.201 36.0189 20.8456C35.7019 20.4901 35.1879 20.3124 34.477 20.3124ZM34.4914 29.8951C36.2879 29.8951 37.1861 29.0545 37.1861 27.3734C37.1861 26.6144 36.9796 26.038 36.5665 25.6441C36.163 25.2503 35.5146 25.0533 34.6211 25.0533H33.4107V28.6991C33.4107 29.0449 33.4395 29.2995 33.4971 29.4628C33.5548 29.6261 33.6556 29.7414 33.7997 29.8087C33.9535 29.8663 34.184 29.8951 34.4914 29.8951ZM47.4266 28.3821C47.4266 28.9296 47.4603 29.5445 47.5275 30.2266C46.8742 30.1977 45.7743 30.1833 44.2276 30.1833C42.3831 30.1833 40.9901 30.1977 40.0486 30.2266V29.9384C40.3945 29.9191 40.6442 29.8807 40.798 29.8231C40.9613 29.7654 41.0717 29.655 41.1294 29.4916C41.187 29.3283 41.2158 29.0641 41.2158 28.6991V21.5516C41.2158 21.1866 41.187 20.9224 41.1294 20.7591C41.0717 20.5958 40.9613 20.4853 40.798 20.4277C40.6442 20.37 40.3945 20.3316 40.0486 20.3124V20.0242C40.9901 20.053 42.3831 20.0674 44.2276 20.0674C45.6398 20.0674 46.6437 20.053 47.2393 20.0242C47.172 20.6582 47.1384 21.225 47.1384 21.7246C47.1384 22.0992 47.1528 22.397 47.1817 22.618H46.8502C46.783 21.9936 46.6965 21.5324 46.5908 21.2346C46.4852 20.9272 46.3074 20.7063 46.0577 20.5718C45.8079 20.4277 45.4284 20.3556 44.9193 20.3556H43.7232C43.3774 20.3556 43.1228 20.3844 42.9595 20.4421C42.8058 20.4901 42.7001 20.5958 42.6425 20.7591C42.5848 20.9224 42.556 21.1866 42.556 21.5516V24.9524H43.5071C43.8433 24.9524 44.1027 24.8756 44.2852 24.7219C44.4677 24.5586 44.5878 24.3712 44.6455 24.1599C44.7127 23.9389 44.7656 23.6651 44.804 23.3385L44.8472 23.0503H45.1786C45.1498 23.4538 45.1354 23.9053 45.1354 24.4049V25.0965C45.1354 25.5865 45.1642 26.2686 45.2219 27.1428H44.8904C44.8808 27.0755 44.852 26.845 44.804 26.4511C44.7559 26.0476 44.6214 25.745 44.4005 25.5433C44.1891 25.3415 43.8913 25.2406 43.5071 25.2406H42.556V28.6991C42.556 29.0641 42.5848 29.3283 42.6425 29.4916C42.7001 29.655 42.8058 29.7654 42.9595 29.8231C43.1228 29.8711 43.3774 29.8951 43.7232 29.8951H44.7752C45.3708 29.8951 45.8223 29.8183 46.1297 29.6646C46.4467 29.5013 46.6773 29.2467 46.8214 28.9008C46.9655 28.5454 47.0712 28.0266 47.1384 27.3445H47.4699C47.441 27.6039 47.4266 27.9498 47.4266 28.3821ZM52.77 20.3124C52.4242 20.3316 52.1696 20.37 52.0063 20.4277C51.8526 20.4853 51.7469 20.5958 51.6893 20.7591C51.6316 20.9224 51.6028 21.1866 51.6028 21.5516V28.6991C51.6028 29.0641 51.6316 29.3283 51.6893 29.4916C51.7469 29.655 51.8526 29.7654 52.0063 29.8231C52.1696 29.8711 52.4242 29.8951 52.77 29.8951H53.822C54.4176 29.8951 54.8691 29.8135 55.1765 29.6502C55.4935 29.4772 55.7241 29.2034 55.8682 28.8288C56.0123 28.4541 56.118 27.9113 56.1852 27.2004H56.5167C56.4878 27.4982 56.4734 27.8921 56.4734 28.3821C56.4734 28.9296 56.5071 29.5445 56.5743 30.2266C55.921 30.1977 54.8211 30.1833 53.2744 30.1833C51.4299 30.1833 50.0369 30.1977 49.0954 30.2266V29.9384C49.4413 29.9191 49.6911 29.8807 49.8448 29.8231C50.0081 29.7654 50.1186 29.655 50.1762 29.4916C50.2338 29.3283 50.2627 29.0641 50.2627 28.6991V21.5516C50.2627 21.1866 50.2338 20.9224 50.1762 20.7591C50.1186 20.5958 50.0081 20.4853 49.8448 20.4277C49.6911 20.37 49.4413 20.3316 49.0954 20.3124V20.0242C49.4989 20.053 50.1138 20.0674 50.9399 20.0674C51.7085 20.0674 52.3185 20.053 52.77 20.0242V20.3124Z" fill="#FEF5EB"/>
<path d="M16.4276 24.8372H16.2249V25.0141L16.4002 25.038L16.4276 24.8372ZM18.69 25.7594L18.5437 25.8998L18.5451 25.9013L18.69 25.7594ZM18.9494 28.8864L19.1186 28.998V28.998L18.9494 28.8864ZM17.7533 29.8807L17.8357 30.066L17.8385 30.0647L17.7533 29.8807ZM15.246 30.2122L15.2566 30.0096L15.2523 30.0095L15.246 30.2122ZM11.6434 30.2266H11.4407V30.4443L11.6579 30.4288L11.6434 30.2266ZM11.6434 29.9384L11.6322 29.7359L11.4407 29.7466V29.9384H11.6434ZM12.3927 29.8231L12.3253 29.6319L12.3216 29.6332L12.3927 29.8231ZM12.7242 20.7591L12.533 20.8266V20.8266L12.7242 20.7591ZM12.3927 20.4277L12.3215 20.6175L12.3253 20.6188L12.3927 20.4277ZM11.6434 20.3124H11.4407V20.5042L11.6322 20.5148L11.6434 20.3124ZM11.6434 20.0242L11.6579 19.8219L11.4407 19.8064V20.0242H11.6434ZM13.4015 20.0674V20.2701L13.4033 20.2701L13.4015 20.0674ZM14.9578 20.053L14.9596 20.2559L14.9684 20.2554L14.9578 20.053ZM17.8254 20.6582L17.6991 20.8168L17.7005 20.8179L17.8254 20.6582ZM18.0848 23.7996L17.9268 23.6726L17.9251 23.6747L18.0848 23.7996ZM16.4276 24.8083L16.3687 24.6144L16.2249 24.658V24.8083H16.4276ZM14.5399 20.4132L14.4586 20.2275L14.4541 20.2295L14.5399 20.4132ZM14.2372 20.7735L14.4296 20.8376V20.8376L14.2372 20.7735ZM14.1508 24.8083H13.948V25.0111H14.1508V24.8083ZM16.759 24.1743L16.5955 24.0544L16.5951 24.0551L16.759 24.1743ZM17.3066 25.6441L17.165 25.7892L17.1667 25.7909L17.3066 25.6441ZM14.1508 25.0533V24.8506H13.948V25.0533H14.1508ZM14.2372 29.4628L14.4284 29.3953V29.3953L14.2372 29.4628ZM14.5399 29.8087L14.4541 29.9924L14.4613 29.9957L14.4687 29.9985L14.5399 29.8087ZM16.4002 25.038C17.4382 25.1796 18.1384 25.4773 18.5437 25.8998L18.8363 25.6191C18.3385 25.1001 17.5305 24.7829 16.455 24.6363L16.4002 25.038ZM18.5451 25.9013C18.959 26.324 19.1645 26.83 19.1645 27.431H19.57C19.57 26.7254 19.324 26.1171 18.8348 25.6176L18.5451 25.9013ZM19.1645 27.431C19.1645 27.9423 19.0351 28.388 18.7801 28.7748L19.1186 28.998C19.4209 28.5395 19.57 28.0149 19.57 27.431H19.1645ZM18.7801 28.7748C18.5248 29.1621 18.1572 29.4703 17.6681 29.6967L17.8385 30.0647C18.387 29.8108 18.8167 29.4561 19.1186 28.998L18.7801 28.7748ZM17.671 29.6955C17.1838 29.912 16.5983 30.0238 15.9088 30.0238V30.4293C16.6412 30.4293 17.2853 30.3106 17.8357 30.066L17.671 29.6955ZM15.9088 30.0238C15.6517 30.0238 15.4345 30.0191 15.2566 30.0097L15.2353 30.4146C15.4225 30.4245 15.6472 30.4293 15.9088 30.4293V30.0238ZM15.2523 30.0095C14.6354 29.9902 14.0281 29.9806 13.4303 29.9806V30.3861C14.0237 30.3861 14.6268 30.3956 15.2396 30.4148L15.2523 30.0095ZM13.4303 29.9806C12.6413 29.9806 12.0399 29.995 11.629 30.0243L11.6579 30.4288C12.0539 30.4005 12.6437 30.3861 13.4303 30.3861V29.9806ZM11.8462 30.2266V29.9384H11.4407V30.2266H11.8462ZM11.6547 30.1408C12.0035 30.1214 12.2795 30.0821 12.4639 30.0129L12.3216 29.6332C12.1985 29.6794 11.975 29.7169 11.6322 29.7359L11.6547 30.1408ZM12.4602 30.0143C12.6814 29.9362 12.8373 29.7803 12.9154 29.5591L12.533 29.4242C12.4958 29.5297 12.4308 29.5947 12.3253 29.6319L12.4602 30.0143ZM12.9154 29.5591C12.9852 29.3612 13.0134 29.0674 13.0134 28.6991H12.6079C12.6079 29.0609 12.5784 29.2955 12.533 29.4242L12.9154 29.5591ZM13.0134 28.6991V21.5516H12.6079V28.6991H13.0134ZM13.0134 21.5516C13.0134 21.1833 12.9852 20.8896 12.9154 20.6916L12.533 20.8266C12.5784 20.9552 12.6079 21.1899 12.6079 21.5516H13.0134ZM12.9154 20.6916C12.8373 20.4705 12.6814 20.3145 12.4602 20.2365L12.3253 20.6188C12.4308 20.6561 12.4958 20.7211 12.533 20.8266L12.9154 20.6916ZM12.4639 20.2378C12.2795 20.1687 12.0035 20.1293 11.6547 20.11L11.6322 20.5148C11.975 20.5338 12.1985 20.5714 12.3216 20.6175L12.4639 20.2378ZM11.8462 20.3124V20.0242H11.4407V20.3124H11.8462ZM11.629 20.2264C12.0398 20.2557 12.6316 20.2701 13.4015 20.2701V19.8647C12.6343 19.8647 12.054 19.8502 11.6579 19.8219L11.629 20.2264ZM13.4033 20.2701L14.9596 20.2557L14.9559 19.8503L13.3996 19.8647L13.4033 20.2701ZM14.9684 20.2554C15.1466 20.2461 15.3495 20.2413 15.5774 20.2413V19.8358C15.3441 19.8358 15.1339 19.8407 14.9471 19.8505L14.9684 20.2554ZM15.5774 20.2413C16.5325 20.2413 17.2298 20.4431 17.6991 20.8168L17.9517 20.4996C17.3834 20.0471 16.5821 19.8358 15.5774 19.8358V20.2413ZM17.7005 20.8179C18.1788 21.1918 18.4152 21.68 18.4152 22.301H18.8207C18.8207 21.5578 18.5287 20.9508 17.9502 20.4985L17.7005 20.8179ZM18.4152 22.301C18.4152 22.8111 18.2538 23.266 17.9268 23.6726L18.2427 23.9267C18.6266 23.4495 18.8207 22.9053 18.8207 22.301H18.4152ZM17.9251 23.6747C17.6136 24.0728 17.1036 24.3911 16.3687 24.6144L16.4865 25.0023C17.2694 24.7645 17.8643 24.4103 18.2444 23.9246L17.9251 23.6747ZM16.2249 24.8083V24.8372H16.6303V24.8083H16.2249ZM15.2171 20.1096C14.9097 20.1096 14.6506 20.1435 14.4586 20.2275L14.6211 20.599C14.7365 20.5485 14.9289 20.5151 15.2171 20.5151V20.1096ZM14.4541 20.2295C14.252 20.3238 14.1173 20.4921 14.0449 20.7094L14.4296 20.8376C14.4724 20.709 14.5395 20.6371 14.6256 20.597L14.4541 20.2295ZM14.0449 20.7094C13.9767 20.914 13.948 21.1999 13.948 21.5516H14.3535C14.3535 21.2117 14.3825 20.9788 14.4296 20.8376L14.0449 20.7094ZM13.948 21.5516V24.8083H14.3535V21.5516H13.948ZM14.1508 25.0111H15.1163V24.6056H14.1508V25.0111ZM15.1163 25.0111C15.9347 25.0111 16.561 24.7913 16.923 24.2935L16.5951 24.0551C16.3422 24.4027 15.8734 24.6056 15.1163 24.6056V25.0111ZM16.9225 24.2942C17.2722 23.8173 17.4373 23.1996 17.4373 22.4595H17.0318C17.0318 23.1412 16.8799 23.6667 16.5955 24.0544L16.9225 24.2942ZM17.4373 22.4595C17.4373 21.7139 17.2739 21.1182 16.9103 20.7106L16.6077 20.9805C16.8782 21.2838 17.0318 21.764 17.0318 22.4595H17.4373ZM16.9103 20.7106C16.5392 20.2945 15.9571 20.1096 15.2171 20.1096V20.5151C15.8989 20.5151 16.3448 20.6857 16.6077 20.9805L16.9103 20.7106ZM15.2315 30.0979C16.1578 30.0979 16.8902 29.8814 17.3911 29.4127C17.8945 28.9416 18.129 28.2488 18.129 27.3734H17.7235C17.7235 28.1791 17.5089 28.7471 17.114 29.1167C16.7167 29.4885 16.1018 29.6924 15.2315 29.6924V30.0979ZM18.129 27.3734C18.129 26.578 17.9117 25.9409 17.4465 25.4974L17.1667 25.7909C17.5277 26.1351 17.7235 26.6508 17.7235 27.3734H18.129ZM17.4482 25.4991C16.9899 25.0516 16.2778 24.8506 15.3612 24.8506V25.2561C16.2315 25.2561 16.8164 25.4489 17.165 25.7892L17.4482 25.4991ZM15.3612 24.8506H14.1508V25.2561H15.3612V24.8506ZM13.948 25.0533V28.6991H14.3535V25.0533H13.948ZM13.948 28.6991C13.948 29.0497 13.9764 29.333 14.0461 29.5303L14.4284 29.3953C14.3828 29.266 14.3535 29.0401 14.3535 28.6991H13.948ZM14.0461 29.5303C14.12 29.7399 14.256 29.8999 14.4541 29.9924L14.6256 29.625C14.5355 29.5829 14.4697 29.5124 14.4284 29.3953L14.0461 29.5303ZM14.4687 29.9985C14.6571 30.0692 14.9172 30.0979 15.2315 30.0979V29.6924C14.931 29.6924 14.73 29.6634 14.611 29.6188L14.4687 29.9985ZM24.4633 20.3124L24.4746 20.5148L24.6661 20.5042V20.3124H24.4633ZM23.6996 20.4277L23.6321 20.2364L23.6284 20.2378L23.6996 20.4277ZM23.3826 20.7591L23.5737 20.8266V20.8266L23.3826 20.7591ZM23.3826 29.4916L23.5737 29.4242V29.4242L23.3826 29.4916ZM23.6996 29.8231L23.6284 30.0129L23.6321 30.0143L23.6996 29.8231ZM24.4633 29.9384H24.6661V29.7466L24.4746 29.7359L24.4633 29.9384ZM24.4633 30.2266L24.4501 30.4289L24.6661 30.443V30.2266H24.4633ZM20.7887 30.2266H20.586V30.4443L20.8032 30.4288L20.7887 30.2266ZM20.7887 29.9384L20.7775 29.7359L20.586 29.7466V29.9384H20.7887ZM21.5381 29.8231L21.4706 29.6319L21.4669 29.6332L21.5381 29.8231ZM21.8695 20.7591L21.6783 20.8266V20.8266L21.8695 20.7591ZM21.5381 20.4277L21.4669 20.6175L21.4706 20.6188L21.5381 20.4277ZM20.7887 20.3124H20.586V20.5042L20.7775 20.5148L20.7887 20.3124ZM20.7887 20.0242L20.8032 19.8219L20.586 19.8064V20.0242H20.7887ZM24.4633 20.0242H24.6661V19.8081L24.4504 19.8218L24.4633 20.0242ZM24.4521 20.11C24.1022 20.1294 23.8238 20.1688 23.6321 20.2365L23.7671 20.6188C23.9021 20.5712 24.1328 20.5338 24.4746 20.5148L24.4521 20.11ZM23.6284 20.2378C23.4151 20.3178 23.2677 20.4753 23.1914 20.6916L23.5737 20.8266C23.6127 20.7162 23.6766 20.6528 23.7708 20.6175L23.6284 20.2378ZM23.1914 20.6916C23.1215 20.8896 23.0934 21.1833 23.0934 21.5516H23.4988C23.4988 21.1899 23.5283 20.9553 23.5737 20.8266L23.1914 20.6916ZM23.0934 21.5516V28.6991H23.4988V21.5516H23.0934ZM23.0934 28.6991C23.0934 29.0674 23.1215 29.3612 23.1914 29.5591L23.5737 29.4242C23.5283 29.2955 23.4988 29.0609 23.4988 28.6991H23.0934ZM23.1914 29.5591C23.2677 29.7754 23.4151 29.9329 23.6284 30.0129L23.7708 29.6332C23.6766 29.5979 23.6127 29.5345 23.5737 29.4242L23.1914 29.5591ZM23.6321 30.0143C23.8238 30.0819 24.1022 30.1213 24.4521 30.1408L24.4746 29.7359C24.1328 29.7169 23.9021 29.6795 23.7671 29.6319L23.6321 30.0143ZM24.2606 29.9384V30.2266H24.6661V29.9384H24.2606ZM24.4765 30.0243C24.0281 29.995 23.413 29.9806 22.6332 29.9806V30.3861C23.4097 30.3861 24.0147 30.4005 24.4501 30.4289L24.4765 30.0243ZM22.6332 29.9806C21.8061 29.9806 21.1853 29.995 20.7743 30.0243L20.8032 30.4288C21.1991 30.4005 21.808 30.3861 22.6332 30.3861V29.9806ZM20.9915 30.2266V29.9384H20.586V30.2266H20.9915ZM20.8 30.1408C21.1488 30.1214 21.4249 30.0821 21.6093 30.0129L21.4669 29.6332C21.3439 29.6794 21.1204 29.7169 20.7775 29.7359L20.8 30.1408ZM21.6055 30.0143C21.8267 29.9362 21.9826 29.7803 22.0607 29.5591L21.6783 29.4242C21.6411 29.5297 21.5761 29.5947 21.4706 29.6319L21.6055 30.0143ZM22.0607 29.5591C22.1305 29.3612 22.1587 29.0674 22.1587 28.6991H21.7532C21.7532 29.0609 21.7237 29.2955 21.6783 29.4242L22.0607 29.5591ZM22.1587 28.6991V21.5516H21.7532V28.6991H22.1587ZM22.1587 21.5516C22.1587 21.1833 22.1305 20.8896 22.0607 20.6916L21.6783 20.8266C21.7237 20.9552 21.7532 21.1899 21.7532 21.5516H22.1587ZM22.0607 20.6916C21.9826 20.4705 21.8267 20.3145 21.6055 20.2365L21.4706 20.6188C21.5761 20.6561 21.6411 20.7211 21.6783 20.8266L22.0607 20.6916ZM21.6093 20.2378C21.4249 20.1687 21.1488 20.1293 20.8 20.11L20.7775 20.5148C21.1204 20.5338 21.3439 20.5714 21.4669 20.6175L21.6093 20.2378ZM20.9915 20.3124V20.0242H20.586V20.3124H20.9915ZM20.7743 20.2264C21.1853 20.2558 21.8061 20.2701 22.6332 20.2701V19.8647C21.808 19.8647 21.1991 19.8502 20.8032 19.8219L20.7743 20.2264ZM22.6332 20.2701C23.4036 20.2701 24.0185 20.2557 24.4762 20.2265L24.4504 19.8218C24.0051 19.8503 23.4 19.8647 22.6332 19.8647V20.2701ZM24.2606 20.0242V20.3124H24.6661V20.0242H24.2606ZM25.0441 32.6619L25.0383 32.4592L24.8413 32.4649V32.6619H25.0441ZM26.5283 31.9125L26.3606 31.7985L26.3591 31.8009L26.5283 31.9125ZM26.9318 20.7591L26.7406 20.8266V20.8266L26.9318 20.7591ZM26.6004 20.4277L26.5292 20.6175L26.5329 20.6188L26.6004 20.4277ZM25.851 20.3124H25.6483V20.5042L25.8398 20.5148L25.851 20.3124ZM25.851 20.0242L25.8655 19.8219L25.6483 19.8064V20.0242H25.851ZM29.5256 20.0242H29.7284V19.8081L29.5127 19.8218L29.5256 20.0242ZM29.5256 20.3124L29.5369 20.5148L29.7284 20.5042V20.3124H29.5256ZM28.7619 20.4277L28.6944 20.2364L28.6907 20.2378L28.7619 20.4277ZM28.4449 20.7591L28.636 20.8266V20.8266L28.4449 20.7591ZM28.3152 29.0017L28.5177 29.011L28.5177 29.0109L28.3152 29.0017ZM28.1134 30.5868L28.3103 30.6354L28.3104 30.635L28.1134 30.5868ZM27.0471 32.2872L26.9201 32.1292L26.9187 32.1303L27.0471 32.2872ZM25.0441 32.9357H24.8413V33.1384H25.0441V32.9357ZM25.0499 32.8645C25.7756 32.8438 26.3376 32.5696 26.6975 32.0242L26.3591 31.8009C26.085 32.2162 25.6575 32.4415 25.0383 32.4592L25.0499 32.8645ZM26.696 32.0266C27.0588 31.493 27.221 30.6283 27.221 29.4772H26.8155C26.8155 30.6126 26.6511 31.3714 26.3607 31.7985L26.696 32.0266ZM27.221 29.4772V21.5516H26.8155V29.4772H27.221ZM27.221 21.5516C27.221 21.1833 27.1928 20.8896 27.123 20.6916L26.7406 20.8266C26.786 20.9552 26.8155 21.1899 26.8155 21.5516H27.221ZM27.123 20.6916C27.0449 20.4705 26.889 20.3145 26.6678 20.2365L26.5329 20.6188C26.6384 20.6561 26.7034 20.7211 26.7406 20.8266L27.123 20.6916ZM26.6715 20.2378C26.4872 20.1687 26.2111 20.1293 25.8623 20.11L25.8398 20.5148C26.1826 20.5338 26.4061 20.5714 26.5292 20.6175L26.6715 20.2378ZM26.0538 20.3124V20.0242H25.6483V20.3124H26.0538ZM25.8366 20.2264C26.2475 20.2557 26.8587 20.2701 27.6667 20.2701V19.8647C26.8608 19.8647 26.2615 19.8502 25.8655 19.8219L25.8366 20.2264ZM27.6667 20.2701C28.4561 20.2701 29.0807 20.2557 29.5385 20.2265L29.5127 19.8218C29.0675 19.8503 28.4528 19.8647 27.6667 19.8647V20.2701ZM29.3229 20.0242V20.3124H29.7284V20.0242H29.3229ZM29.5144 20.11C29.1645 20.1294 28.886 20.1688 28.6944 20.2365L28.8294 20.6188C28.9643 20.5712 29.1951 20.5338 29.5369 20.5148L29.5144 20.11ZM28.6907 20.2378C28.4774 20.3178 28.33 20.4753 28.2537 20.6916L28.636 20.8266C28.675 20.7162 28.7389 20.6528 28.8331 20.6175L28.6907 20.2378ZM28.2537 20.6916C28.1838 20.8896 28.1557 21.1833 28.1557 21.5516H28.5611C28.5611 21.1899 28.5906 20.9552 28.636 20.8266L28.2537 20.6916ZM28.1557 21.5516V26.8258H28.5611V21.5516H28.1557ZM28.1557 26.8258C28.1557 27.6401 28.1413 28.3622 28.1126 28.9925L28.5177 29.0109C28.5467 28.3731 28.5611 27.6446 28.5611 26.8258H28.1557ZM28.1126 28.9924C28.0842 29.6085 28.0181 30.123 27.9165 30.5387L28.3104 30.635C28.4201 30.186 28.4885 29.6438 28.5177 29.011L28.1126 28.9924ZM27.9166 30.5383C27.7538 31.1986 27.4217 31.7261 26.9201 32.1292L27.1741 32.4452C27.7484 31.9837 28.1272 31.3777 28.3103 30.6354L27.9166 30.5383ZM26.9187 32.1303C26.4329 32.5278 25.8131 32.7329 25.0441 32.7329V33.1384C25.8889 33.1384 26.6045 32.9112 27.1755 32.4441L26.9187 32.1303ZM25.2468 32.9357V32.6619H24.8413V32.9357H25.2468ZM35.6875 24.8372H35.4847V25.0141L35.6601 25.038L35.6875 24.8372ZM37.9499 25.7594L37.8036 25.8998L37.805 25.9013L37.9499 25.7594ZM38.2093 28.8864L38.3785 28.998V28.998L38.2093 28.8864ZM37.0132 29.8807L37.0956 30.066L37.0984 30.0647L37.0132 29.8807ZM34.5058 30.2122L34.5165 30.0096L34.5122 30.0095L34.5058 30.2122ZM30.9033 30.2266H30.7006V30.4443L30.9177 30.4288L30.9033 30.2266ZM30.9033 29.9384L30.8921 29.7359L30.7006 29.7466V29.9384H30.9033ZM31.6526 29.8231L31.5851 29.6319L31.5814 29.6332L31.6526 29.8231ZM31.9841 20.7591L31.7929 20.8266V20.8266L31.9841 20.7591ZM31.6526 20.4277L31.5814 20.6175L31.5852 20.6188L31.6526 20.4277ZM30.9033 20.3124H30.7006V20.5042L30.8921 20.5148L30.9033 20.3124ZM30.9033 20.0242L30.9177 19.8219L30.7006 19.8064V20.0242H30.9033ZM32.6613 20.0674V20.2701L32.6632 20.2701L32.6613 20.0674ZM34.2176 20.053L34.2195 20.2559L34.2283 20.2554L34.2176 20.053ZM37.0853 20.6582L36.959 20.8168L36.9604 20.8179L37.0853 20.6582ZM37.3446 23.7996L37.1867 23.6726L37.185 23.6747L37.3446 23.7996ZM35.6875 24.8083L35.6285 24.6144L35.4847 24.658V24.8083H35.6875ZM33.7997 20.4132L33.7185 20.2275L33.714 20.2295L33.7997 20.4132ZM33.4971 20.7735L33.6895 20.8376V20.8376L33.4971 20.7735ZM33.4107 24.8083H33.2079V25.0111H33.4107V24.8083ZM36.0189 24.1743L35.8554 24.0544L35.8549 24.0551L36.0189 24.1743ZM36.5665 25.6441L36.4249 25.7892L36.4266 25.7909L36.5665 25.6441ZM33.4107 25.0533V24.8506H33.2079V25.0533H33.4107ZM33.4971 29.4628L33.6883 29.3953V29.3953L33.4971 29.4628ZM33.7997 29.8087L33.714 29.9924L33.7212 29.9957L33.7286 29.9985L33.7997 29.8087ZM35.6601 25.038C36.6981 25.1796 37.3983 25.4773 37.8036 25.8998L38.0962 25.6191C37.5984 25.1001 36.7904 24.7829 35.7149 24.6363L35.6601 25.038ZM37.805 25.9013C38.2189 26.324 38.4244 26.83 38.4244 27.431H38.8299C38.8299 26.7254 38.5839 26.1171 38.0947 25.6176L37.805 25.9013ZM38.4244 27.431C38.4244 27.9423 38.295 28.388 38.04 28.7748L38.3785 28.998C38.6807 28.5395 38.8299 28.0149 38.8299 27.431H38.4244ZM38.04 28.7748C37.7847 29.1621 37.4171 29.4703 36.928 29.6967L37.0984 30.0647C37.6468 29.8108 38.0766 29.4561 38.3785 28.998L38.04 28.7748ZM36.9309 29.6955C36.4437 29.912 35.8582 30.0238 35.1687 30.0238V30.4293C35.901 30.4293 36.5452 30.3106 37.0956 30.066L36.9309 29.6955ZM35.1687 30.0238C34.9115 30.0238 34.6944 30.0191 34.5165 30.0097L34.4952 30.4146C34.6824 30.4245 34.9071 30.4293 35.1687 30.4293V30.0238ZM34.5122 30.0095C33.8953 29.9902 33.288 29.9806 32.6902 29.9806V30.3861C33.2836 30.3861 33.8867 30.3956 34.4995 30.4148L34.5122 30.0095ZM32.6902 29.9806C31.9012 29.9806 31.2997 29.995 30.8889 30.0243L30.9177 30.4288C31.3138 30.4005 31.9036 30.3861 32.6902 30.3861V29.9806ZM31.106 30.2266V29.9384H30.7006V30.2266H31.106ZM30.9146 30.1408C31.2634 30.1214 31.5394 30.0821 31.7238 30.0129L31.5814 29.6332C31.4584 29.6794 31.2349 29.7169 30.8921 29.7359L30.9146 30.1408ZM31.7201 30.0143C31.9412 29.9362 32.0972 29.7803 32.1752 29.5591L31.7929 29.4242C31.7557 29.5297 31.6907 29.5947 31.5852 29.6319L31.7201 30.0143ZM32.1752 29.5591C32.2451 29.3612 32.2733 29.0674 32.2733 28.6991H31.8678C31.8678 29.0609 31.8383 29.2955 31.7929 29.4242L32.1752 29.5591ZM32.2733 28.6991V21.5516H31.8678V28.6991H32.2733ZM32.2733 21.5516C32.2733 21.1833 32.2451 20.8896 32.1752 20.6916L31.7929 20.8266C31.8383 20.9552 31.8678 21.1899 31.8678 21.5516H32.2733ZM32.1752 20.6916C32.0972 20.4705 31.9412 20.3145 31.7201 20.2365L31.5852 20.6188C31.6907 20.6561 31.7557 20.7211 31.7929 20.8266L32.1752 20.6916ZM31.7238 20.2378C31.5394 20.1687 31.2634 20.1293 30.9146 20.11L30.8921 20.5148C31.2349 20.5338 31.4584 20.5714 31.5814 20.6175L31.7238 20.2378ZM31.106 20.3124V20.0242H30.7006V20.3124H31.106ZM30.8889 20.2264C31.2997 20.2557 31.8914 20.2701 32.6613 20.2701V19.8647C31.8942 19.8647 31.3139 19.8502 30.9177 19.8219L30.8889 20.2264ZM32.6632 20.2701L34.2195 20.2557L34.2158 19.8503L32.6595 19.8647L32.6632 20.2701ZM34.2283 20.2554C34.4065 20.2461 34.6094 20.2413 34.8373 20.2413V19.8358C34.604 19.8358 34.3938 19.8407 34.207 19.8505L34.2283 20.2554ZM34.8373 20.2413C35.7924 20.2413 36.4897 20.4431 36.959 20.8168L37.2116 20.4996C36.6433 20.0471 35.8419 19.8358 34.8373 19.8358V20.2413ZM36.9604 20.8179C37.4387 21.1918 37.6751 21.68 37.6751 22.301H38.0806C38.0806 21.5578 37.7886 20.9508 37.2101 20.4985L36.9604 20.8179ZM37.6751 22.301C37.6751 22.8111 37.5137 23.266 37.1867 23.6726L37.5026 23.9267C37.8865 23.4495 38.0806 22.9053 38.0806 22.301H37.6751ZM37.185 23.6747C36.8735 24.0728 36.3635 24.3911 35.6285 24.6144L35.7464 25.0023C36.5293 24.7645 37.1241 24.4103 37.5043 23.9246L37.185 23.6747ZM35.4847 24.8083V24.8372H35.8902V24.8083H35.4847ZM34.477 20.1096C34.1696 20.1096 33.9105 20.1435 33.7185 20.2275L33.881 20.599C33.9964 20.5485 34.1888 20.5151 34.477 20.5151V20.1096ZM33.714 20.2295C33.5119 20.3238 33.3772 20.4921 33.3048 20.7094L33.6895 20.8376C33.7323 20.709 33.7994 20.6371 33.8855 20.597L33.714 20.2295ZM33.3048 20.7094C33.2366 20.914 33.2079 21.1999 33.2079 21.5516H33.6134C33.6134 21.2117 33.6424 20.9788 33.6895 20.8376L33.3048 20.7094ZM33.2079 21.5516V24.8083H33.6134V21.5516H33.2079ZM33.4107 25.0111H34.3762V24.6056H33.4107V25.0111ZM34.3762 25.0111C35.1946 25.0111 35.8209 24.7913 36.1829 24.2935L35.8549 24.0551C35.6021 24.4027 35.1333 24.6056 34.3762 24.6056V25.0111ZM36.1824 24.2942C36.5321 23.8173 36.6972 23.1996 36.6972 22.4595H36.2917C36.2917 23.1412 36.1398 23.6667 35.8554 24.0544L36.1824 24.2942ZM36.6972 22.4595C36.6972 21.7139 36.5338 21.1182 36.1702 20.7106L35.8676 20.9805C36.1381 21.2838 36.2917 21.764 36.2917 22.4595H36.6972ZM36.1702 20.7106C35.799 20.2945 35.217 20.1096 34.477 20.1096V20.5151C35.1588 20.5151 35.6047 20.6857 35.8676 20.9805L36.1702 20.7106ZM34.4914 30.0979C35.4177 30.0979 36.1501 29.8814 36.651 29.4127C37.1544 28.9416 37.3889 28.2488 37.3889 27.3734H36.9834C36.9834 28.1791 36.7688 28.7471 36.3739 29.1167C35.9766 29.4885 35.3616 29.6924 34.4914 29.6924V30.0979ZM37.3889 27.3734C37.3889 26.578 37.1716 25.9409 36.7064 25.4974L36.4266 25.7909C36.7876 26.1351 36.9834 26.6508 36.9834 27.3734H37.3889ZM36.7081 25.4991C36.2498 25.0516 35.5377 24.8506 34.6211 24.8506V25.2561C35.4914 25.2561 36.0763 25.4489 36.4249 25.7892L36.7081 25.4991ZM34.6211 24.8506H33.4107V25.2561H34.6211V24.8506ZM33.2079 25.0533V28.6991H33.6134V25.0533H33.2079ZM33.2079 28.6991C33.2079 29.0497 33.2363 29.333 33.306 29.5303L33.6883 29.3953C33.6427 29.266 33.6134 29.0401 33.6134 28.6991H33.2079ZM33.306 29.5303C33.3799 29.7399 33.5159 29.8999 33.714 29.9924L33.8855 29.625C33.7954 29.5829 33.7296 29.5124 33.6883 29.3953L33.306 29.5303ZM33.7286 29.9985C33.917 30.0692 34.1771 30.0979 34.4914 30.0979V29.6924C34.1909 29.6924 33.9899 29.6634 33.8709 29.6188L33.7286 29.9985ZM47.5275 30.2266L47.5186 30.4291L47.7522 30.4394L47.7293 30.2067L47.5275 30.2266ZM40.0486 30.2266H39.8459V30.4356L40.0548 30.4292L40.0486 30.2266ZM40.0486 29.9384L40.0374 29.7359L39.8459 29.7466V29.9384H40.0486ZM40.798 29.8231L40.7305 29.6319L40.7268 29.6332L40.798 29.8231ZM41.1294 20.7591L40.9382 20.8266V20.8266L41.1294 20.7591ZM40.798 20.4277L40.7268 20.6175L40.7305 20.6188L40.798 20.4277ZM40.0486 20.3124H39.8459V20.5042L40.0374 20.5148L40.0486 20.3124ZM40.0486 20.0242L40.0548 19.8215L39.8459 19.8151V20.0242H40.0486ZM47.2393 20.0242L47.4409 20.0456L47.4659 19.8102L47.2295 19.8217L47.2393 20.0242ZM47.1817 22.618V22.8207H47.4126L47.3827 22.5918L47.1817 22.618ZM46.8502 22.618L46.6486 22.6397L46.6681 22.8207H46.8502V22.618ZM46.5908 21.2346L46.3991 21.3005L46.3998 21.3024L46.5908 21.2346ZM46.0577 20.5718L45.9563 20.7474L45.9615 20.7503L46.0577 20.5718ZM42.9595 20.4421L43.02 20.6357L43.027 20.6332L42.9595 20.4421ZM42.6425 20.7591L42.8336 20.8266V20.8266L42.6425 20.7591ZM42.556 24.9524H42.3533V25.1552H42.556V24.9524ZM44.2852 24.7219L44.4159 24.877L44.4204 24.873L44.2852 24.7219ZM44.6455 24.1599L44.4514 24.1008L44.4499 24.1065L44.6455 24.1599ZM44.804 23.3385L44.6034 23.3084L44.6026 23.3148L44.804 23.3385ZM44.8472 23.0503V22.8476H44.6726L44.6467 23.0202L44.8472 23.0503ZM45.1786 23.0503L45.3809 23.0647L45.3964 22.8476H45.1786V23.0503ZM45.2219 27.1428V27.3455H45.4384L45.4242 27.1294L45.2219 27.1428ZM44.8904 27.1428L44.6897 27.1715L44.7146 27.3455H44.8904V27.1428ZM44.804 26.4511L44.6027 26.4751L44.6027 26.4756L44.804 26.4511ZM44.4005 25.5433L44.2605 25.6899L44.2638 25.693L44.4005 25.5433ZM42.556 25.2406V25.0379H42.3533V25.2406H42.556ZM42.6425 29.4916L42.8336 29.4242V29.4242L42.6425 29.4916ZM42.9595 29.8231L42.8883 30.0129L42.8952 30.0155L42.9023 30.0176L42.9595 29.8231ZM46.1297 29.6646L46.2204 29.8459L46.2226 29.8448L46.1297 29.6646ZM46.8214 28.9008L47.0085 28.9788L47.0093 28.977L46.8214 28.9008ZM47.1384 27.3445V27.1418H46.9547L46.9367 27.3246L47.1384 27.3445ZM47.4699 27.3445L47.6714 27.3669L47.6964 27.1418H47.4699V27.3445ZM47.2239 28.3821C47.2239 28.9377 47.258 29.5593 47.3257 30.2465L47.7293 30.2067C47.6625 29.5296 47.6294 28.9216 47.6294 28.3821H47.2239ZM47.5364 30.024C46.8783 29.995 45.7743 29.9806 44.2276 29.9806V30.3861C45.7742 30.3861 46.8702 30.4005 47.5186 30.4291L47.5364 30.024ZM44.2276 29.9806C42.3826 29.9806 40.9871 29.995 40.0424 30.0239L40.0548 30.4292C40.9931 30.4005 42.3836 30.3861 44.2276 30.3861V29.9806ZM40.2514 30.2266V29.9384H39.8459V30.2266H40.2514ZM40.0599 30.1408C40.4087 30.1214 40.6847 30.0821 40.8691 30.0129L40.7268 29.6332C40.6037 29.6794 40.3802 29.7169 40.0374 29.7359L40.0599 30.1408ZM40.8654 30.0143C41.0866 29.9362 41.2425 29.7803 41.3206 29.5591L40.9382 29.4242C40.901 29.5297 40.836 29.5947 40.7305 29.6319L40.8654 30.0143ZM41.3206 29.5591C41.3904 29.3612 41.4186 29.0674 41.4186 28.6991H41.0131C41.0131 29.0609 40.9836 29.2955 40.9382 29.4242L41.3206 29.5591ZM41.4186 28.6991V21.5516H41.0131V28.6991H41.4186ZM41.4186 21.5516C41.4186 21.1833 41.3904 20.8896 41.3206 20.6916L40.9382 20.8266C40.9836 20.9552 41.0131 21.1899 41.0131 21.5516H41.4186ZM41.3206 20.6916C41.2425 20.4705 41.0866 20.3145 40.8654 20.2365L40.7305 20.6188C40.836 20.6561 40.901 20.7211 40.9382 20.8266L41.3206 20.6916ZM40.8691 20.2378C40.6847 20.1687 40.4087 20.1293 40.0599 20.11L40.0374 20.5148C40.3802 20.5338 40.6037 20.5714 40.7268 20.6175L40.8691 20.2378ZM40.2514 20.3124V20.0242H39.8459V20.3124H40.2514ZM40.0424 20.2268C40.9871 20.2557 42.3826 20.2701 44.2276 20.2701V19.8647C42.3836 19.8647 40.9931 19.8503 40.0548 19.8215L40.0424 20.2268ZM44.2276 20.2701C45.6398 20.2701 46.6481 20.2558 47.2491 20.2267L47.2295 19.8217C46.6393 19.8502 45.6397 19.8647 44.2276 19.8647V20.2701ZM47.0377 20.0028C46.9699 20.6421 46.9357 21.2162 46.9357 21.7246H47.3412C47.3412 21.2338 47.3742 20.6743 47.4409 20.0456L47.0377 20.0028ZM46.9357 21.7246C46.9357 22.103 46.9502 22.4107 46.9806 22.6442L47.3827 22.5918C47.3555 22.3834 47.3412 22.0955 47.3412 21.7246H46.9357ZM47.1817 22.4153H46.8502V22.8207H47.1817V22.4153ZM47.0518 22.5963C46.9842 21.9684 46.8958 21.4878 46.7819 21.1668L46.3998 21.3024C46.4972 21.577 46.5818 22.0188 46.6486 22.6397L47.0518 22.5963ZM46.7826 21.1687C46.6629 20.8206 46.455 20.5555 46.1538 20.3933L45.9615 20.7503C46.1599 20.857 46.3074 21.0338 46.3991 21.3005L46.7826 21.1687ZM46.159 20.3961C45.8629 20.2254 45.4404 20.1529 44.9193 20.1529V20.5583C45.4164 20.5583 45.7528 20.6299 45.9563 20.7474L46.159 20.3961ZM44.9193 20.1529H43.7232V20.5583H44.9193V20.1529ZM43.7232 20.1529C43.3726 20.1529 43.0893 20.1813 42.892 20.2509L43.027 20.6332C43.1563 20.5876 43.3822 20.5583 43.7232 20.5583V20.1529ZM42.899 20.2486C42.6791 20.3173 42.5283 20.4733 42.4513 20.6916L42.8336 20.8266C42.8719 20.7182 42.9324 20.6629 43.02 20.6356L42.899 20.2486ZM42.4513 20.6916C42.3814 20.8896 42.3533 21.1833 42.3533 21.5516H42.7587C42.7587 21.1899 42.7882 20.9553 42.8336 20.8266L42.4513 20.6916ZM42.3533 21.5516V24.9524H42.7587V21.5516H42.3533ZM42.556 25.1552H43.5071V24.7497H42.556V25.1552ZM43.5071 25.1552C43.8718 25.1552 44.1843 25.0719 44.4158 24.877L44.1546 24.5668C44.0211 24.6792 43.8148 24.7497 43.5071 24.7497V25.1552ZM44.4204 24.873C44.6285 24.6868 44.7719 24.4667 44.8411 24.2132L44.4499 24.1065C44.4037 24.2758 44.307 24.4304 44.15 24.5708L44.4204 24.873ZM44.8394 24.2189C44.9113 23.9827 44.966 23.6962 45.0053 23.3622L44.6026 23.3148C44.5651 23.6341 44.5141 23.8951 44.4515 24.1009L44.8394 24.2189ZM45.0045 23.3686L45.0477 23.0804L44.6467 23.0202L44.6035 23.3084L45.0045 23.3686ZM44.8472 23.253H45.1786V22.8476H44.8472V23.253ZM44.9764 23.0359C44.9472 23.4451 44.9327 23.9016 44.9327 24.4049H45.3382C45.3382 23.9091 45.3525 23.4625 45.3809 23.0647L44.9764 23.0359ZM44.9327 24.4049V25.0965H45.3382V24.4049H44.9327ZM44.9327 25.0965C44.9327 25.5931 44.9618 26.2803 45.0196 27.1561L45.4242 27.1294C45.3666 26.2568 45.3382 25.5799 45.3382 25.0965H44.9327ZM45.2219 26.9401H44.8904V27.3455H45.2219V26.9401ZM45.0911 27.1141C45.0819 27.0495 45.0534 26.8217 45.0052 26.4266L44.6027 26.4756C44.6506 26.8683 44.6798 27.1016 44.6897 27.1715L45.0911 27.1141ZM45.0053 26.4271C44.9536 25.9927 44.8052 25.6382 44.5372 25.3935L44.2638 25.693C44.4377 25.8518 44.5583 26.1025 44.6027 26.4751L45.0053 26.4271ZM44.5405 25.3966C44.2807 25.1487 43.9265 25.0379 43.5071 25.0379V25.4434C43.8561 25.4434 44.0976 25.5344 44.2605 25.6899L44.5405 25.3966ZM43.5071 25.0379H42.556V25.4434H43.5071V25.0379ZM42.3533 25.2406V28.6991H42.7587V25.2406H42.3533ZM42.3533 28.6991C42.3533 29.0674 42.3814 29.3612 42.4513 29.5591L42.8336 29.4242C42.7882 29.2955 42.7587 29.0609 42.7587 28.6991H42.3533ZM42.4513 29.5591C42.5276 29.7754 42.675 29.9329 42.8883 30.0129L43.0307 29.6332C42.9365 29.5979 42.8726 29.5345 42.8336 29.4242L42.4513 29.5591ZM42.9023 30.0176C43.0948 30.0742 43.3736 30.0979 43.7232 30.0979V29.6924C43.3811 29.6924 43.1508 29.668 43.0167 29.6286L42.9023 30.0176ZM43.7232 30.0979H44.7752V29.6924H43.7232V30.0979ZM44.7752 30.0979C45.3824 30.0979 45.8712 30.0205 46.2204 29.8459L46.039 29.4832C45.7734 29.6161 45.3592 29.6924 44.7752 29.6924V30.0979ZM46.2226 29.8448C46.5844 29.6584 46.8471 29.3664 47.0085 28.9788L46.6343 28.8229C46.5075 29.127 46.3091 29.3441 46.0369 29.4843L46.2226 29.8448ZM47.0093 28.977C47.1643 28.5947 47.2723 28.0532 47.3402 27.3644L46.9367 27.3246C46.8701 28 46.7667 28.4961 46.6335 28.8247L47.0093 28.977ZM47.1384 27.5473H47.4699V27.1418H47.1384V27.5473ZM47.2684 27.3221C47.2384 27.5922 47.2239 27.9464 47.2239 28.3821H47.6294C47.6294 27.9531 47.6437 27.6156 47.6714 27.3669L47.2684 27.3221ZM52.77 20.3124L52.7813 20.5148L52.9728 20.5042V20.3124H52.77ZM52.0063 20.4277L51.9388 20.2364L51.9351 20.2378L52.0063 20.4277ZM51.6893 20.7591L51.8804 20.8266V20.8266L51.6893 20.7591ZM51.6893 29.4916L51.8804 29.4242V29.4242L51.6893 29.4916ZM52.0063 29.8231L51.9351 30.0129L51.942 30.0155L51.9491 30.0176L52.0063 29.8231ZM55.1765 29.6502L55.2716 29.8292L55.2736 29.8281L55.1765 29.6502ZM55.8682 28.8288L56.0574 28.9016V28.9016L55.8682 28.8288ZM56.1852 27.2004V26.9977H56.0008L55.9834 27.1813L56.1852 27.2004ZM56.5167 27.2004L56.7185 27.22L56.74 26.9977H56.5167V27.2004ZM56.5743 30.2266L56.5654 30.4291L56.799 30.4394L56.7761 30.2067L56.5743 30.2266ZM49.0954 30.2266H48.8927V30.4356L49.1016 30.4292L49.0954 30.2266ZM49.0954 29.9384L49.0842 29.7359L48.8927 29.7466V29.9384H49.0954ZM49.8448 29.8231L49.7773 29.6319L49.7736 29.6332L49.8448 29.8231ZM50.1762 20.7591L49.985 20.8266V20.8266L50.1762 20.7591ZM49.8448 20.4277L49.7736 20.6175L49.7773 20.6188L49.8448 20.4277ZM49.0954 20.3124H48.8927V20.5042L49.0842 20.5148L49.0954 20.3124ZM49.0954 20.0242L49.1099 19.8219L48.8927 19.8064V20.0242H49.0954ZM52.77 20.0242H52.9728V19.8081L52.7571 19.8218L52.77 20.0242ZM52.7588 20.11C52.4089 20.1294 52.1305 20.1688 51.9388 20.2365L52.0738 20.6188C52.2088 20.5712 52.4395 20.5338 52.7813 20.5148L52.7588 20.11ZM51.9351 20.2378C51.7218 20.3178 51.5744 20.4753 51.4981 20.6916L51.8804 20.8266C51.9194 20.7162 51.9833 20.6528 52.0775 20.6175L51.9351 20.2378ZM51.4981 20.6916C51.4282 20.8896 51.4001 21.1833 51.4001 21.5516H51.8055C51.8055 21.1899 51.835 20.9553 51.8804 20.8266L51.4981 20.6916ZM51.4001 21.5516V28.6991H51.8055V21.5516H51.4001ZM51.4001 28.6991C51.4001 29.0674 51.4282 29.3612 51.4981 29.5591L51.8804 29.4242C51.835 29.2955 51.8055 29.0609 51.8055 28.6991H51.4001ZM51.4981 29.5591C51.5744 29.7754 51.7218 29.9329 51.9351 30.0129L52.0775 29.6332C51.9833 29.5979 51.9194 29.5345 51.8804 29.4242L51.4981 29.5591ZM51.9491 30.0176C52.1416 30.0742 52.4205 30.0979 52.77 30.0979V29.6924C52.4279 29.6924 52.1976 29.668 52.0635 29.6286L51.9491 30.0176ZM52.77 30.0979H53.822V29.6924H52.77V30.0979ZM53.822 30.0979C54.4302 30.0979 54.921 30.0155 55.2716 29.8292L55.0814 29.4711C54.8172 29.6115 54.405 29.6924 53.822 29.6924V30.0979ZM55.2736 29.8281C55.6376 29.6296 55.8981 29.3157 56.0574 28.9016L55.679 28.756C55.5501 29.0911 55.3495 29.3249 55.0794 29.4722L55.2736 29.8281ZM56.0574 28.9016C56.2114 28.5012 56.3192 27.9369 56.3871 27.2195L55.9834 27.1813C55.9168 27.8858 55.8132 28.407 55.679 28.756L56.0574 28.9016ZM56.1852 27.4032H56.5167V26.9977H56.1852V27.4032ZM56.3149 27.1809C56.2852 27.488 56.2707 27.8891 56.2707 28.3821H56.6762C56.6762 27.8951 56.6905 27.5085 56.7185 27.22L56.3149 27.1809ZM56.2707 28.3821C56.2707 28.9377 56.3048 29.5593 56.3726 30.2465L56.7761 30.2067C56.7093 29.5296 56.6762 28.9216 56.6762 28.3821H56.2707ZM56.5832 30.024C55.9251 29.995 54.8211 29.9806 53.2744 29.9806V30.3861C54.821 30.3861 55.917 30.4005 56.5654 30.4291L56.5832 30.024ZM53.2744 29.9806C51.4294 29.9806 50.0339 29.995 49.0892 30.0239L49.1016 30.4292C50.0399 30.4005 51.4304 30.3861 53.2744 30.3861V29.9806ZM49.2982 30.2266V29.9384H48.8927V30.2266H49.2982ZM49.1067 30.1408C49.4555 30.1214 49.7316 30.0821 49.916 30.0129L49.7736 29.6332C49.6506 29.6794 49.4271 29.7169 49.0842 29.7359L49.1067 30.1408ZM49.9122 30.0143C50.1334 29.9362 50.2893 29.7803 50.3674 29.5591L49.985 29.4242C49.9478 29.5297 49.8828 29.5947 49.7773 29.6319L49.9122 30.0143ZM50.3674 29.5591C50.4372 29.3612 50.4654 29.0674 50.4654 28.6991H50.0599C50.0599 29.0609 50.0304 29.2955 49.985 29.4242L50.3674 29.5591ZM50.4654 28.6991V21.5516H50.0599V28.6991H50.4654ZM50.4654 21.5516C50.4654 21.1833 50.4372 20.8896 50.3674 20.6916L49.985 20.8266C50.0304 20.9552 50.0599 21.1899 50.0599 21.5516H50.4654ZM50.3674 20.6916C50.2893 20.4705 50.1334 20.3145 49.9122 20.2365L49.7773 20.6188C49.8828 20.6561 49.9478 20.7211 49.985 20.8266L50.3674 20.6916ZM49.916 20.2378C49.7316 20.1687 49.4555 20.1293 49.1067 20.11L49.0842 20.5148C49.4271 20.5338 49.6506 20.5714 49.7736 20.6175L49.916 20.2378ZM49.2982 20.3124V20.0242H48.8927V20.3124H49.2982ZM49.081 20.2264C49.492 20.2558 50.1128 20.2701 50.9399 20.2701V19.8647C50.1147 19.8647 49.5058 19.8502 49.1099 19.8219L49.081 20.2264ZM50.9399 20.2701C51.7103 20.2701 52.3252 20.2557 52.7829 20.2265L52.7571 19.8218C52.3118 19.8503 51.7067 19.8647 50.9399 19.8647V20.2701ZM52.5673 20.0242V20.3124H52.9728V20.0242H52.5673Z" fill="#FEF5EB" mask="url(#path-5-outside-1_23632_22639)"/>
</g>
</g>
<defs>
<linearGradient id="paint0_linear_23632_22639" x1="34" y1="-1.04141e-05" x2="34" y2="68" gradientUnits="userSpaceOnUse">
<stop stop-color="#C93D34"/>
<stop offset="1" stop-color="#7A2629"/>
</linearGradient>
<linearGradient id="paint1_linear_23632_22639" x1="34" y1="-1.04141e-05" x2="34" y2="68" gradientUnits="userSpaceOnUse">
<stop stop-color="#C93D34"/>
<stop offset="1" stop-color="#7A2629"/>
</linearGradient>
<clipPath id="clip0_23632_22639">
<rect width="68" height="68" fill="white"/>
</clipPath>
</defs>
</svg>
