<svg width="68" height="68" viewBox="0 0 68 68" fill="none" xmlns="http://www.w3.org/2000/svg">
<g clip-path="url(#clip0_23632_22753)">
<mask id="mask0_23632_22753" style="mask-type:alpha" maskUnits="userSpaceOnUse" x="0" y="0" width="68" height="68">
<path fill-rule="evenodd" clip-rule="evenodd" d="M47.0333 0H20.9667C13.5811 0 8.89667 0.0377779 4.45778 4.45778C0.018889 8.89667 0 13.6 0 20.9667V47.0333C0 54.4189 0.0377779 59.1033 4.45778 63.5422C8.89667 67.9811 13.6 68 20.9667 68H47.0333C54.4189 68 59.1033 67.9811 63.5422 63.5422C67.9622 59.1033 68 54.4 68 47.0333V20.9667C68 13.5811 67.9622 8.89667 63.5422 4.45778C59.1033 0.018889 54.4 0 47.0333 0Z" fill="url(#paint0_linear_23632_22753)"/>
</mask>
<g mask="url(#mask0_23632_22753)">
<rect width="68" height="68" fill="url(#paint1_linear_23632_22753)"/>
<path fill-rule="evenodd" clip-rule="evenodd" d="M15.6212 64.373C26.4256 64.373 45.6357 64.373 45.6357 64.373C52.5868 64.373 57.0823 64.6374 61.2379 60.4441C64.8079 56.8741 64.5057 50.8674 64.7323 46.1074C60.709 52.1519 53.3234 51.9441 47.619 51.9441C47.619 51.9441 20.929 51.9441 10.9556 51.9441C0.982316 51.963 4.81676 64.373 15.6212 64.373Z" fill="#FEF5EB"/>
<path d="M12.4854 53.5312H23.1387V61.5213L17.812 58.8579L12.4854 61.5213V53.5312Z" fill="#F19C33"/>
<mask id="path-5-outside-1_23632_22753" maskUnits="userSpaceOnUse" x="8.10156" y="21.2266" width="52" height="10" fill="black">
<rect fill="white" x="8.10156" y="21.2266" width="52" height="10"/>
<path d="M12.0198 25.0483C12.9792 25.0483 13.7131 25.2861 14.2215 25.7617C14.7299 26.2291 14.9841 26.8523 14.9841 27.6313C14.9841 28.3693 14.734 28.9884 14.2338 29.4886C13.7418 29.9806 12.9136 30.2266 11.7492 30.2266L11.2203 30.2143C10.8759 30.1979 10.5356 30.1897 10.1994 30.1897C9.57625 30.1897 9.09245 30.202 8.74805 30.2266V29.9806C9.04325 29.9642 9.25645 29.9314 9.38765 29.8822C9.52705 29.833 9.62135 29.7387 9.67055 29.5993C9.71975 29.4599 9.74435 29.2344 9.74435 28.9228V22.822C9.74435 22.5104 9.71975 22.2849 9.67055 22.1455C9.62135 22.0061 9.52705 21.9118 9.38765 21.8626C9.25645 21.8134 9.04325 21.7806 8.74805 21.7642V21.5182C9.55165 21.5428 10.7406 21.5551 12.315 21.5551C13.3482 21.5551 14.0821 21.5428 14.5167 21.5182C14.4593 22.0594 14.4306 22.5432 14.4306 22.9696C14.4306 23.2894 14.4429 23.5436 14.4675 23.7322H14.1846C14.1272 23.1992 14.0534 22.8056 13.9632 22.5514C13.873 22.289 13.7213 22.1004 13.5081 21.9856C13.2949 21.8626 12.971 21.8011 12.5364 21.8011H11.8845C11.5893 21.8011 11.372 21.8257 11.2326 21.8749C11.1014 21.9159 11.0112 22.0061 10.962 22.1455C10.9128 22.2849 10.8882 22.5104 10.8882 22.822V25.0729L12.0198 25.0483ZM11.7123 29.9806C12.4913 29.9806 13.0243 29.7756 13.3113 29.3656C13.6065 28.9556 13.7541 28.3816 13.7541 27.6436C13.7541 26.8154 13.5901 26.2168 13.2621 25.8478C12.9341 25.4706 12.3806 25.282 11.6016 25.282C11.3146 25.282 11.0768 25.2861 10.8882 25.2943V28.9228C10.8882 29.2262 10.9087 29.4517 10.9497 29.5993C10.9907 29.7469 11.0645 29.8494 11.1711 29.9068C11.2859 29.956 11.4663 29.9806 11.7123 29.9806ZM24.8647 21.7642C24.5695 21.7806 24.3522 21.8134 24.2128 21.8626C24.0816 21.9118 23.9914 22.0061 23.9422 22.1455C23.893 22.2849 23.8684 22.5104 23.8684 22.822V28.9228C23.8684 29.2344 23.893 29.4599 23.9422 29.5993C23.9914 29.7387 24.0816 29.833 24.2128 29.8822C24.3522 29.9314 24.5695 29.9642 24.8647 29.9806V30.2266C24.5203 30.202 23.9955 30.1897 23.2903 30.1897C22.6343 30.1897 22.1136 30.202 21.7282 30.2266V29.9806C22.0234 29.9642 22.2366 29.9314 22.3678 29.8822C22.5072 29.833 22.6015 29.7387 22.6507 29.5993C22.6999 29.4599 22.7245 29.2344 22.7245 28.9228V23.1049L18.481 29.1196C18.4892 29.3574 18.522 29.5378 18.5794 29.6608C18.6368 29.7756 18.7311 29.8535 18.8623 29.8945C18.9935 29.9355 19.1985 29.9642 19.4773 29.9806V30.2266C19.1001 30.202 18.5794 30.1897 17.9152 30.1897C17.21 30.1897 16.6852 30.202 16.3408 30.2266V29.9806C16.636 29.9642 16.8492 29.9314 16.9804 29.8822C17.1198 29.833 17.2141 29.7387 17.2633 29.5993C17.3125 29.4599 17.3371 29.2344 17.3371 28.9228V22.822C17.3371 22.5104 17.3125 22.2849 17.2633 22.1455C17.2141 22.0061 17.1198 21.9118 16.9804 21.8626C16.8492 21.8134 16.636 21.7806 16.3408 21.7642V21.5182C16.6852 21.5428 17.21 21.5551 17.9152 21.5551C18.5712 21.5551 19.0919 21.5428 19.4773 21.5182V21.7642C19.1821 21.7806 18.9648 21.8134 18.8254 21.8626C18.6942 21.9118 18.604 22.0061 18.5548 22.1455C18.5056 22.2849 18.481 22.5104 18.481 22.822V28.6399L22.7245 22.6252C22.7163 22.3874 22.6835 22.2111 22.6261 22.0963C22.5687 21.9733 22.4744 21.8913 22.3432 21.8503C22.212 21.8093 22.007 21.7806 21.7282 21.7642V21.5182C22.1136 21.5428 22.6343 21.5551 23.2903 21.5551C23.9955 21.5551 24.5203 21.5428 24.8647 21.5182V21.7642ZM29.4396 25.0483C30.399 25.0483 31.1329 25.2861 31.6413 25.7617C32.1497 26.2291 32.4039 26.8523 32.4039 27.6313C32.4039 28.3693 32.1538 28.9884 31.6536 29.4886C31.1616 29.9806 30.3334 30.2266 29.169 30.2266L28.6401 30.2143C28.2957 30.1979 27.9554 30.1897 27.6192 30.1897C26.996 30.1897 26.5122 30.202 26.1678 30.2266V29.9806C26.463 29.9642 26.6762 29.9314 26.8074 29.8822C26.9468 29.833 27.0411 29.7387 27.0903 29.5993C27.1395 29.4599 27.1641 29.2344 27.1641 28.9228V22.822C27.1641 22.5104 27.1395 22.2849 27.0903 22.1455C27.0411 22.0061 26.9468 21.9118 26.8074 21.8626C26.6762 21.8134 26.463 21.7806 26.1678 21.7642V21.5182C26.9714 21.5428 28.1604 21.5551 29.7348 21.5551C30.768 21.5551 31.5019 21.5428 31.9365 21.5182C31.8791 22.0594 31.8504 22.5432 31.8504 22.9696C31.8504 23.2894 31.8627 23.5436 31.8873 23.7322H31.6044C31.547 23.1992 31.4732 22.8056 31.383 22.5514C31.2928 22.289 31.1411 22.1004 30.9279 21.9856C30.7147 21.8626 30.3908 21.8011 29.9562 21.8011H29.3043C29.0091 21.8011 28.7918 21.8257 28.6524 21.8749C28.5212 21.9159 28.431 22.0061 28.3818 22.1455C28.3326 22.2849 28.308 22.5104 28.308 22.822V25.0729L29.4396 25.0483ZM29.1321 29.9806C29.9111 29.9806 30.4441 29.7756 30.7311 29.3656C31.0263 28.9556 31.1739 28.3816 31.1739 27.6436C31.1739 26.8154 31.0099 26.2168 30.6819 25.8478C30.3539 25.4706 29.8004 25.282 29.0214 25.282C28.7344 25.282 28.4966 25.2861 28.308 25.2943V28.9228C28.308 29.2262 28.3285 29.4517 28.3695 29.5993C28.4105 29.7469 28.4843 29.8494 28.5909 29.9068C28.7057 29.956 28.8861 29.9806 29.1321 29.9806ZM41.1177 21.7642C40.8225 21.7806 40.6052 21.8134 40.4658 21.8626C40.3346 21.9118 40.2444 22.0061 40.1952 22.1455C40.146 22.2849 40.1214 22.5104 40.1214 22.822V28.9228C40.1214 29.2344 40.146 29.4599 40.1952 29.5993C40.2444 29.7387 40.3346 29.833 40.4658 29.8822C40.6052 29.9314 40.8225 29.9642 41.1177 29.9806V30.2266C40.7733 30.202 40.2485 30.1897 39.5433 30.1897C38.7725 30.1897 38.1698 30.202 37.7352 30.2266V29.9806C38.1042 29.9642 38.3707 29.9314 38.5347 29.8822C38.6987 29.833 38.8135 29.7387 38.8791 29.5993C38.9447 29.4599 38.9775 29.2344 38.9775 28.9228V22.822C38.9775 22.5104 38.9529 22.2849 38.9037 22.1455C38.8545 21.9979 38.7602 21.8995 38.6208 21.8503C38.4814 21.7929 38.2682 21.7642 37.9812 21.7642H37.8213C37.5261 21.7642 37.3129 21.7929 37.1817 21.8503C37.0587 21.8995 36.9726 21.9938 36.9234 22.1332C36.8824 22.2644 36.8496 22.494 36.825 22.822C36.8004 23.0762 36.7717 23.4739 36.7389 24.0151C36.6569 25.3107 36.5503 26.389 36.4191 27.25C36.2961 28.1028 36.0624 28.8408 35.718 29.464C35.3736 30.0872 34.8857 30.3988 34.2543 30.3988C33.9427 30.3988 33.6762 30.3332 33.4548 30.202C33.2416 30.0626 33.135 29.8494 33.135 29.5624C33.135 29.3492 33.2006 29.1811 33.3318 29.0581C33.4712 28.9269 33.6475 28.8613 33.8607 28.8613C34.0411 28.8613 34.1887 28.9105 34.3035 29.0089C34.4265 29.1073 34.488 29.2385 34.488 29.4025C34.488 29.5747 34.447 29.7182 34.365 29.833C34.283 29.9396 34.1477 30.0462 33.9591 30.1528C34.0329 30.161 34.1313 30.1651 34.2543 30.1651C34.8365 30.1651 35.2834 29.8166 35.595 29.1196C35.9066 28.4226 36.1198 27.5985 36.2346 26.6473C36.3494 25.6879 36.4519 24.4128 36.5421 22.822C36.5503 22.7564 36.5544 22.6662 36.5544 22.5514C36.5544 22.3382 36.5257 22.1783 36.4683 22.0717C36.4109 21.9651 36.3125 21.8913 36.1731 21.8503C36.0337 21.8093 35.8246 21.7806 35.5458 21.7642V21.5182C35.8902 21.5428 36.3125 21.5551 36.8127 21.5551C36.9357 21.5551 37.1202 21.5469 37.3662 21.5305L37.8951 21.5182L38.7192 21.5305C39.0964 21.5469 39.408 21.5551 39.654 21.5551C40.2854 21.5551 40.7733 21.5428 41.1177 21.5182V21.7642ZM50.9463 21.7642C50.6511 21.7806 50.4338 21.8134 50.2944 21.8626C50.1632 21.9118 50.073 22.0061 50.0238 22.1455C49.9746 22.2849 49.95 22.5104 49.95 22.822V28.9228C49.95 29.2344 49.9746 29.4599 50.0238 29.5993C50.073 29.7387 50.1632 29.833 50.2944 29.8822C50.4338 29.9314 50.6511 29.9642 50.9463 29.9806V30.2266C50.6019 30.202 50.0771 30.1897 49.3719 30.1897C48.7159 30.1897 48.1952 30.202 47.8098 30.2266V29.9806C48.105 29.9642 48.3182 29.9314 48.4494 29.8822C48.5888 29.833 48.6831 29.7387 48.7323 29.5993C48.7815 29.4599 48.8061 29.2344 48.8061 28.9228V23.1049L44.5626 29.1196C44.5708 29.3574 44.6036 29.5378 44.661 29.6608C44.7184 29.7756 44.8127 29.8535 44.9439 29.8945C45.0751 29.9355 45.2801 29.9642 45.5589 29.9806V30.2266C45.1817 30.202 44.661 30.1897 43.9968 30.1897C43.2916 30.1897 42.7668 30.202 42.4224 30.2266V29.9806C42.7176 29.9642 42.9308 29.9314 43.062 29.8822C43.2014 29.833 43.2957 29.7387 43.3449 29.5993C43.3941 29.4599 43.4187 29.2344 43.4187 28.9228V22.822C43.4187 22.5104 43.3941 22.2849 43.3449 22.1455C43.2957 22.0061 43.2014 21.9118 43.062 21.8626C42.9308 21.8134 42.7176 21.7806 42.4224 21.7642V21.5182C42.7668 21.5428 43.2916 21.5551 43.9968 21.5551C44.6528 21.5551 45.1735 21.5428 45.5589 21.5182V21.7642C45.2637 21.7806 45.0464 21.8134 44.907 21.8626C44.7758 21.9118 44.6856 22.0061 44.6364 22.1455C44.5872 22.2849 44.5626 22.5104 44.5626 22.822V28.6399L48.8061 22.6252C48.7979 22.3874 48.7651 22.2111 48.7077 22.0963C48.6503 21.9733 48.556 21.8913 48.4248 21.8503C48.2936 21.8093 48.0886 21.7806 47.8098 21.7642V21.5182C48.1952 21.5428 48.7159 21.5551 49.3719 21.5551C50.0771 21.5551 50.6019 21.5428 50.9463 21.5182V21.7642ZM59.248 21.7642C58.9528 21.7806 58.7355 21.8134 58.5961 21.8626C58.4649 21.9118 58.3747 22.0061 58.3255 22.1455C58.2763 22.2849 58.2517 22.5104 58.2517 22.822V28.9228C58.2517 29.2344 58.2763 29.4599 58.3255 29.5993C58.3747 29.7387 58.4649 29.833 58.5961 29.8822C58.7355 29.9314 58.9528 29.9642 59.248 29.9806V30.2266C58.9036 30.202 58.3788 30.1897 57.6736 30.1897C57.0176 30.1897 56.4969 30.202 56.1115 30.2266V29.9806C56.4067 29.9642 56.6199 29.9314 56.7511 29.8822C56.8905 29.833 56.9848 29.7387 57.034 29.5993C57.0832 29.4599 57.1078 29.2344 57.1078 28.9228V26.0938H55.8778C55.5662 26.0938 55.3243 26.1635 55.1521 26.3029C54.9799 26.4423 54.8487 26.6268 54.7585 26.8564C54.6765 27.086 54.5863 27.414 54.4879 27.8404L54.2173 29.0704C54.1107 29.5624 53.9467 29.9068 53.7253 30.1036C53.5121 30.3004 53.2374 30.3988 52.9012 30.3988C52.5896 30.3988 52.3395 30.3373 52.1509 30.2143C51.9623 30.0913 51.7737 29.8904 51.5851 29.6116L51.7696 29.4763C51.8926 29.6403 51.9992 29.7592 52.0894 29.833C52.1878 29.9068 52.3067 29.9437 52.4461 29.9437C52.6019 29.9437 52.7208 29.874 52.8028 29.7346C52.8848 29.587 52.9668 29.3205 53.0488 28.9351L53.3317 27.6805C53.4465 27.1639 53.6351 26.7867 53.8975 26.5489C54.1599 26.3111 54.5617 26.1471 55.1029 26.0569L55.2628 26.0323C54.4346 25.9093 53.836 25.6264 53.467 25.1836C53.1062 24.7326 52.9258 24.2283 52.9258 23.6707C52.9258 23.0393 53.18 22.5268 53.6884 22.1332C54.205 21.7314 54.9389 21.5305 55.8901 21.5305C56.0869 21.5305 56.2632 21.5346 56.419 21.5428L57.7474 21.5551C58.4034 21.5551 58.9036 21.5428 59.248 21.5182V21.7642ZM54.1558 23.7199C54.1558 24.4005 54.3075 24.9253 54.6109 25.2943C54.9143 25.6633 55.4719 25.8478 56.2837 25.8478H57.1078V22.822C57.1078 22.5268 57.0832 22.3054 57.034 22.1578C56.9848 22.0102 56.8946 21.9077 56.7634 21.8503C56.6404 21.7929 56.4518 21.7642 56.1976 21.7642C55.4842 21.7642 54.9635 21.9323 54.6355 22.2685C54.3157 22.6047 54.1558 23.0885 54.1558 23.7199Z"/>
</mask>
<path d="M12.0198 25.0483C12.9792 25.0483 13.7131 25.2861 14.2215 25.7617C14.7299 26.2291 14.9841 26.8523 14.9841 27.6313C14.9841 28.3693 14.734 28.9884 14.2338 29.4886C13.7418 29.9806 12.9136 30.2266 11.7492 30.2266L11.2203 30.2143C10.8759 30.1979 10.5356 30.1897 10.1994 30.1897C9.57625 30.1897 9.09245 30.202 8.74805 30.2266V29.9806C9.04325 29.9642 9.25645 29.9314 9.38765 29.8822C9.52705 29.833 9.62135 29.7387 9.67055 29.5993C9.71975 29.4599 9.74435 29.2344 9.74435 28.9228V22.822C9.74435 22.5104 9.71975 22.2849 9.67055 22.1455C9.62135 22.0061 9.52705 21.9118 9.38765 21.8626C9.25645 21.8134 9.04325 21.7806 8.74805 21.7642V21.5182C9.55165 21.5428 10.7406 21.5551 12.315 21.5551C13.3482 21.5551 14.0821 21.5428 14.5167 21.5182C14.4593 22.0594 14.4306 22.5432 14.4306 22.9696C14.4306 23.2894 14.4429 23.5436 14.4675 23.7322H14.1846C14.1272 23.1992 14.0534 22.8056 13.9632 22.5514C13.873 22.289 13.7213 22.1004 13.5081 21.9856C13.2949 21.8626 12.971 21.8011 12.5364 21.8011H11.8845C11.5893 21.8011 11.372 21.8257 11.2326 21.8749C11.1014 21.9159 11.0112 22.0061 10.962 22.1455C10.9128 22.2849 10.8882 22.5104 10.8882 22.822V25.0729L12.0198 25.0483ZM11.7123 29.9806C12.4913 29.9806 13.0243 29.7756 13.3113 29.3656C13.6065 28.9556 13.7541 28.3816 13.7541 27.6436C13.7541 26.8154 13.5901 26.2168 13.2621 25.8478C12.9341 25.4706 12.3806 25.282 11.6016 25.282C11.3146 25.282 11.0768 25.2861 10.8882 25.2943V28.9228C10.8882 29.2262 10.9087 29.4517 10.9497 29.5993C10.9907 29.7469 11.0645 29.8494 11.1711 29.9068C11.2859 29.956 11.4663 29.9806 11.7123 29.9806ZM24.8647 21.7642C24.5695 21.7806 24.3522 21.8134 24.2128 21.8626C24.0816 21.9118 23.9914 22.0061 23.9422 22.1455C23.893 22.2849 23.8684 22.5104 23.8684 22.822V28.9228C23.8684 29.2344 23.893 29.4599 23.9422 29.5993C23.9914 29.7387 24.0816 29.833 24.2128 29.8822C24.3522 29.9314 24.5695 29.9642 24.8647 29.9806V30.2266C24.5203 30.202 23.9955 30.1897 23.2903 30.1897C22.6343 30.1897 22.1136 30.202 21.7282 30.2266V29.9806C22.0234 29.9642 22.2366 29.9314 22.3678 29.8822C22.5072 29.833 22.6015 29.7387 22.6507 29.5993C22.6999 29.4599 22.7245 29.2344 22.7245 28.9228V23.1049L18.481 29.1196C18.4892 29.3574 18.522 29.5378 18.5794 29.6608C18.6368 29.7756 18.7311 29.8535 18.8623 29.8945C18.9935 29.9355 19.1985 29.9642 19.4773 29.9806V30.2266C19.1001 30.202 18.5794 30.1897 17.9152 30.1897C17.21 30.1897 16.6852 30.202 16.3408 30.2266V29.9806C16.636 29.9642 16.8492 29.9314 16.9804 29.8822C17.1198 29.833 17.2141 29.7387 17.2633 29.5993C17.3125 29.4599 17.3371 29.2344 17.3371 28.9228V22.822C17.3371 22.5104 17.3125 22.2849 17.2633 22.1455C17.2141 22.0061 17.1198 21.9118 16.9804 21.8626C16.8492 21.8134 16.636 21.7806 16.3408 21.7642V21.5182C16.6852 21.5428 17.21 21.5551 17.9152 21.5551C18.5712 21.5551 19.0919 21.5428 19.4773 21.5182V21.7642C19.1821 21.7806 18.9648 21.8134 18.8254 21.8626C18.6942 21.9118 18.604 22.0061 18.5548 22.1455C18.5056 22.2849 18.481 22.5104 18.481 22.822V28.6399L22.7245 22.6252C22.7163 22.3874 22.6835 22.2111 22.6261 22.0963C22.5687 21.9733 22.4744 21.8913 22.3432 21.8503C22.212 21.8093 22.007 21.7806 21.7282 21.7642V21.5182C22.1136 21.5428 22.6343 21.5551 23.2903 21.5551C23.9955 21.5551 24.5203 21.5428 24.8647 21.5182V21.7642ZM29.4396 25.0483C30.399 25.0483 31.1329 25.2861 31.6413 25.7617C32.1497 26.2291 32.4039 26.8523 32.4039 27.6313C32.4039 28.3693 32.1538 28.9884 31.6536 29.4886C31.1616 29.9806 30.3334 30.2266 29.169 30.2266L28.6401 30.2143C28.2957 30.1979 27.9554 30.1897 27.6192 30.1897C26.996 30.1897 26.5122 30.202 26.1678 30.2266V29.9806C26.463 29.9642 26.6762 29.9314 26.8074 29.8822C26.9468 29.833 27.0411 29.7387 27.0903 29.5993C27.1395 29.4599 27.1641 29.2344 27.1641 28.9228V22.822C27.1641 22.5104 27.1395 22.2849 27.0903 22.1455C27.0411 22.0061 26.9468 21.9118 26.8074 21.8626C26.6762 21.8134 26.463 21.7806 26.1678 21.7642V21.5182C26.9714 21.5428 28.1604 21.5551 29.7348 21.5551C30.768 21.5551 31.5019 21.5428 31.9365 21.5182C31.8791 22.0594 31.8504 22.5432 31.8504 22.9696C31.8504 23.2894 31.8627 23.5436 31.8873 23.7322H31.6044C31.547 23.1992 31.4732 22.8056 31.383 22.5514C31.2928 22.289 31.1411 22.1004 30.9279 21.9856C30.7147 21.8626 30.3908 21.8011 29.9562 21.8011H29.3043C29.0091 21.8011 28.7918 21.8257 28.6524 21.8749C28.5212 21.9159 28.431 22.0061 28.3818 22.1455C28.3326 22.2849 28.308 22.5104 28.308 22.822V25.0729L29.4396 25.0483ZM29.1321 29.9806C29.9111 29.9806 30.4441 29.7756 30.7311 29.3656C31.0263 28.9556 31.1739 28.3816 31.1739 27.6436C31.1739 26.8154 31.0099 26.2168 30.6819 25.8478C30.3539 25.4706 29.8004 25.282 29.0214 25.282C28.7344 25.282 28.4966 25.2861 28.308 25.2943V28.9228C28.308 29.2262 28.3285 29.4517 28.3695 29.5993C28.4105 29.7469 28.4843 29.8494 28.5909 29.9068C28.7057 29.956 28.8861 29.9806 29.1321 29.9806ZM41.1177 21.7642C40.8225 21.7806 40.6052 21.8134 40.4658 21.8626C40.3346 21.9118 40.2444 22.0061 40.1952 22.1455C40.146 22.2849 40.1214 22.5104 40.1214 22.822V28.9228C40.1214 29.2344 40.146 29.4599 40.1952 29.5993C40.2444 29.7387 40.3346 29.833 40.4658 29.8822C40.6052 29.9314 40.8225 29.9642 41.1177 29.9806V30.2266C40.7733 30.202 40.2485 30.1897 39.5433 30.1897C38.7725 30.1897 38.1698 30.202 37.7352 30.2266V29.9806C38.1042 29.9642 38.3707 29.9314 38.5347 29.8822C38.6987 29.833 38.8135 29.7387 38.8791 29.5993C38.9447 29.4599 38.9775 29.2344 38.9775 28.9228V22.822C38.9775 22.5104 38.9529 22.2849 38.9037 22.1455C38.8545 21.9979 38.7602 21.8995 38.6208 21.8503C38.4814 21.7929 38.2682 21.7642 37.9812 21.7642H37.8213C37.5261 21.7642 37.3129 21.7929 37.1817 21.8503C37.0587 21.8995 36.9726 21.9938 36.9234 22.1332C36.8824 22.2644 36.8496 22.494 36.825 22.822C36.8004 23.0762 36.7717 23.4739 36.7389 24.0151C36.6569 25.3107 36.5503 26.389 36.4191 27.25C36.2961 28.1028 36.0624 28.8408 35.718 29.464C35.3736 30.0872 34.8857 30.3988 34.2543 30.3988C33.9427 30.3988 33.6762 30.3332 33.4548 30.202C33.2416 30.0626 33.135 29.8494 33.135 29.5624C33.135 29.3492 33.2006 29.1811 33.3318 29.0581C33.4712 28.9269 33.6475 28.8613 33.8607 28.8613C34.0411 28.8613 34.1887 28.9105 34.3035 29.0089C34.4265 29.1073 34.488 29.2385 34.488 29.4025C34.488 29.5747 34.447 29.7182 34.365 29.833C34.283 29.9396 34.1477 30.0462 33.9591 30.1528C34.0329 30.161 34.1313 30.1651 34.2543 30.1651C34.8365 30.1651 35.2834 29.8166 35.595 29.1196C35.9066 28.4226 36.1198 27.5985 36.2346 26.6473C36.3494 25.6879 36.4519 24.4128 36.5421 22.822C36.5503 22.7564 36.5544 22.6662 36.5544 22.5514C36.5544 22.3382 36.5257 22.1783 36.4683 22.0717C36.4109 21.9651 36.3125 21.8913 36.1731 21.8503C36.0337 21.8093 35.8246 21.7806 35.5458 21.7642V21.5182C35.8902 21.5428 36.3125 21.5551 36.8127 21.5551C36.9357 21.5551 37.1202 21.5469 37.3662 21.5305L37.8951 21.5182L38.7192 21.5305C39.0964 21.5469 39.408 21.5551 39.654 21.5551C40.2854 21.5551 40.7733 21.5428 41.1177 21.5182V21.7642ZM50.9463 21.7642C50.6511 21.7806 50.4338 21.8134 50.2944 21.8626C50.1632 21.9118 50.073 22.0061 50.0238 22.1455C49.9746 22.2849 49.95 22.5104 49.95 22.822V28.9228C49.95 29.2344 49.9746 29.4599 50.0238 29.5993C50.073 29.7387 50.1632 29.833 50.2944 29.8822C50.4338 29.9314 50.6511 29.9642 50.9463 29.9806V30.2266C50.6019 30.202 50.0771 30.1897 49.3719 30.1897C48.7159 30.1897 48.1952 30.202 47.8098 30.2266V29.9806C48.105 29.9642 48.3182 29.9314 48.4494 29.8822C48.5888 29.833 48.6831 29.7387 48.7323 29.5993C48.7815 29.4599 48.8061 29.2344 48.8061 28.9228V23.1049L44.5626 29.1196C44.5708 29.3574 44.6036 29.5378 44.661 29.6608C44.7184 29.7756 44.8127 29.8535 44.9439 29.8945C45.0751 29.9355 45.2801 29.9642 45.5589 29.9806V30.2266C45.1817 30.202 44.661 30.1897 43.9968 30.1897C43.2916 30.1897 42.7668 30.202 42.4224 30.2266V29.9806C42.7176 29.9642 42.9308 29.9314 43.062 29.8822C43.2014 29.833 43.2957 29.7387 43.3449 29.5993C43.3941 29.4599 43.4187 29.2344 43.4187 28.9228V22.822C43.4187 22.5104 43.3941 22.2849 43.3449 22.1455C43.2957 22.0061 43.2014 21.9118 43.062 21.8626C42.9308 21.8134 42.7176 21.7806 42.4224 21.7642V21.5182C42.7668 21.5428 43.2916 21.5551 43.9968 21.5551C44.6528 21.5551 45.1735 21.5428 45.5589 21.5182V21.7642C45.2637 21.7806 45.0464 21.8134 44.907 21.8626C44.7758 21.9118 44.6856 22.0061 44.6364 22.1455C44.5872 22.2849 44.5626 22.5104 44.5626 22.822V28.6399L48.8061 22.6252C48.7979 22.3874 48.7651 22.2111 48.7077 22.0963C48.6503 21.9733 48.556 21.8913 48.4248 21.8503C48.2936 21.8093 48.0886 21.7806 47.8098 21.7642V21.5182C48.1952 21.5428 48.7159 21.5551 49.3719 21.5551C50.0771 21.5551 50.6019 21.5428 50.9463 21.5182V21.7642ZM59.248 21.7642C58.9528 21.7806 58.7355 21.8134 58.5961 21.8626C58.4649 21.9118 58.3747 22.0061 58.3255 22.1455C58.2763 22.2849 58.2517 22.5104 58.2517 22.822V28.9228C58.2517 29.2344 58.2763 29.4599 58.3255 29.5993C58.3747 29.7387 58.4649 29.833 58.5961 29.8822C58.7355 29.9314 58.9528 29.9642 59.248 29.9806V30.2266C58.9036 30.202 58.3788 30.1897 57.6736 30.1897C57.0176 30.1897 56.4969 30.202 56.1115 30.2266V29.9806C56.4067 29.9642 56.6199 29.9314 56.7511 29.8822C56.8905 29.833 56.9848 29.7387 57.034 29.5993C57.0832 29.4599 57.1078 29.2344 57.1078 28.9228V26.0938H55.8778C55.5662 26.0938 55.3243 26.1635 55.1521 26.3029C54.9799 26.4423 54.8487 26.6268 54.7585 26.8564C54.6765 27.086 54.5863 27.414 54.4879 27.8404L54.2173 29.0704C54.1107 29.5624 53.9467 29.9068 53.7253 30.1036C53.5121 30.3004 53.2374 30.3988 52.9012 30.3988C52.5896 30.3988 52.3395 30.3373 52.1509 30.2143C51.9623 30.0913 51.7737 29.8904 51.5851 29.6116L51.7696 29.4763C51.8926 29.6403 51.9992 29.7592 52.0894 29.833C52.1878 29.9068 52.3067 29.9437 52.4461 29.9437C52.6019 29.9437 52.7208 29.874 52.8028 29.7346C52.8848 29.587 52.9668 29.3205 53.0488 28.9351L53.3317 27.6805C53.4465 27.1639 53.6351 26.7867 53.8975 26.5489C54.1599 26.3111 54.5617 26.1471 55.1029 26.0569L55.2628 26.0323C54.4346 25.9093 53.836 25.6264 53.467 25.1836C53.1062 24.7326 52.9258 24.2283 52.9258 23.6707C52.9258 23.0393 53.18 22.5268 53.6884 22.1332C54.205 21.7314 54.9389 21.5305 55.8901 21.5305C56.0869 21.5305 56.2632 21.5346 56.419 21.5428L57.7474 21.5551C58.4034 21.5551 58.9036 21.5428 59.248 21.5182V21.7642ZM54.1558 23.7199C54.1558 24.4005 54.3075 24.9253 54.6109 25.2943C54.9143 25.6633 55.4719 25.8478 56.2837 25.8478H57.1078V22.822C57.1078 22.5268 57.0832 22.3054 57.034 22.1578C56.9848 22.0102 56.8946 21.9077 56.7634 21.8503C56.6404 21.7929 56.4518 21.7642 56.1976 21.7642C55.4842 21.7642 54.9635 21.9323 54.6355 22.2685C54.3157 22.6047 54.1558 23.0885 54.1558 23.7199Z" fill="#FEF5EB"/>
<path d="M12.0198 25.0483V24.8455L12.0154 24.8456L12.0198 25.0483ZM14.2215 25.7617L14.083 25.9097L14.0843 25.9109L14.2215 25.7617ZM14.2338 29.4886L14.3772 29.6319V29.6319L14.2338 29.4886ZM11.7492 30.2266L11.7445 30.4293H11.7492V30.2266ZM11.2203 30.2143L11.2107 30.4168L11.2156 30.4169L11.2203 30.2143ZM8.74805 30.2266H8.54531V30.4443L8.76249 30.4288L8.74805 30.2266ZM8.74805 29.9806L8.7368 29.7781L8.54531 29.7888V29.9806H8.74805ZM9.38765 29.8822L9.32016 29.6909L9.31646 29.6923L9.38765 29.8822ZM9.67055 22.1455L9.47937 22.2129H9.47937L9.67055 22.1455ZM9.38765 21.8626L9.31645 22.0524L9.32017 22.0537L9.38765 21.8626ZM8.74805 21.7642H8.54531V21.9559L8.7368 21.9666L8.74805 21.7642ZM8.74805 21.5182L8.75425 21.3155L8.54531 21.3091V21.5182H8.74805ZM14.5167 21.5182L14.7184 21.5395L14.7435 21.3023L14.5053 21.3157L14.5167 21.5182ZM14.4675 23.7322V23.9349H14.6984L14.6686 23.7059L14.4675 23.7322ZM14.1846 23.7322L13.9831 23.7539L14.0026 23.9349H14.1846V23.7322ZM13.9632 22.5514L13.7715 22.6173L13.7722 22.6192L13.9632 22.5514ZM13.5081 21.9856L13.4068 22.1612L13.412 22.1641L13.5081 21.9856ZM11.2326 21.8749L11.2932 22.0685L11.3001 22.066L11.2326 21.8749ZM10.962 22.1455L11.1532 22.2129V22.2129L10.962 22.1455ZM10.8882 25.0729H10.6855V25.2801L10.8927 25.2756L10.8882 25.0729ZM13.3113 29.3656L13.1468 29.2471L13.1453 29.2493L13.3113 29.3656ZM13.2621 25.8478L13.1091 25.9808L13.1106 25.9825L13.2621 25.8478ZM10.8882 25.2943L10.8794 25.0917L10.6855 25.1001V25.2943H10.8882ZM10.9497 29.5993L11.1451 29.545V29.545L10.9497 29.5993ZM11.1711 29.9068L11.075 30.0853L11.083 30.0895L11.0913 30.0931L11.1711 29.9068ZM12.0198 25.251C12.9475 25.251 13.6244 25.4807 14.083 25.9097L14.36 25.6136C13.8018 25.0914 13.011 24.8455 12.0198 24.8455V25.251ZM14.0843 25.9109C14.5454 26.3348 14.7814 26.901 14.7814 27.6313H15.1869C15.1869 26.8036 14.9145 26.1233 14.3588 25.6124L14.0843 25.9109ZM14.7814 27.6313C14.7814 28.3181 14.5509 28.8848 14.0905 29.3452L14.3772 29.6319C14.9172 29.0919 15.1869 28.4204 15.1869 27.6313H14.7814ZM14.0905 29.3452C13.6553 29.7804 12.8941 30.0238 11.7492 30.0238V30.4293C12.9332 30.4293 13.8284 30.1807 14.3772 29.6319L14.0905 29.3452ZM11.754 30.0239L11.2251 30.0116L11.2156 30.4169L11.7445 30.4292L11.754 30.0239ZM11.23 30.0118C10.8825 29.9952 10.5389 29.9869 10.1994 29.9869V30.3924C10.5323 30.3924 10.8694 30.4005 11.2107 30.4168L11.23 30.0118ZM10.1994 29.9869C9.57459 29.9869 9.08517 29.9992 8.7336 30.0243L8.76249 30.4288C9.09972 30.4047 9.5779 30.3924 10.1994 30.3924V29.9869ZM8.95078 30.2266V29.9806H8.54531V30.2266H8.95078ZM8.75929 30.183C9.05747 30.1664 9.29695 30.1327 9.45883 30.072L9.31646 29.6923C9.21594 29.73 9.02902 29.7619 8.7368 29.7781L8.75929 30.183ZM9.45512 30.0733C9.65234 30.0037 9.79212 29.864 9.86172 29.6667L9.47937 29.5318C9.45057 29.6134 9.40175 29.6622 9.32017 29.691L9.45512 30.0733ZM9.86172 29.6667C9.92315 29.4927 9.94708 29.2377 9.94708 28.9228H9.54161C9.54161 29.2311 9.51634 29.427 9.47937 29.5318L9.86172 29.6667ZM9.94708 28.9228V22.822H9.54161V28.9228H9.94708ZM9.94708 22.822C9.94708 22.5071 9.92315 22.252 9.86172 22.078L9.47937 22.2129C9.51634 22.3177 9.54161 22.5137 9.54161 22.822H9.94708ZM9.86172 22.078C9.79212 21.8808 9.65234 21.741 9.45512 21.6714L9.32017 22.0537C9.40175 22.0825 9.45057 22.1314 9.47937 22.2129L9.86172 22.078ZM9.45883 21.6727C9.29695 21.612 9.05747 21.5783 8.75929 21.5617L8.7368 21.9666C9.02902 21.9828 9.21594 22.0147 9.31646 22.0524L9.45883 21.6727ZM8.95078 21.7642V21.5182H8.54531V21.7642H8.95078ZM8.74184 21.7208C9.54863 21.7455 10.7401 21.7578 12.315 21.7578V21.3523C10.7412 21.3523 9.55466 21.34 8.75425 21.3155L8.74184 21.7208ZM12.315 21.7578C13.3483 21.7578 14.0873 21.7455 14.5282 21.7206L14.5053 21.3157C14.077 21.34 13.3482 21.3523 12.315 21.3523V21.7578ZM14.3151 21.4968C14.2572 22.0432 14.2279 22.5344 14.2279 22.9696H14.6334C14.6334 22.5519 14.6615 22.0755 14.7184 21.5395L14.3151 21.4968ZM14.2279 22.9696C14.2279 23.2931 14.2403 23.5572 14.2665 23.7584L14.6686 23.7059C14.6456 23.5299 14.6334 23.2856 14.6334 22.9696H14.2279ZM14.4675 23.5294H14.1846V23.9349H14.4675V23.5294ZM14.3862 23.7105C14.3284 23.174 14.2527 22.761 14.1543 22.4836L13.7722 22.6192C13.8541 22.8502 13.9261 23.2244 13.9831 23.7539L14.3862 23.7105ZM14.155 22.4855C14.0508 22.1824 13.8689 21.9496 13.6043 21.8071L13.412 22.1641C13.5738 22.2512 13.6953 22.3955 13.7715 22.6173L14.155 22.4855ZM13.6095 21.81C13.35 21.6603 12.9831 21.5983 12.5364 21.5983V22.0038C12.959 22.0038 13.2399 22.0649 13.4068 22.1612L13.6095 21.81ZM12.5364 21.5983H11.8845V22.0038H12.5364V21.5983ZM11.8845 21.5983C11.5846 21.5983 11.3385 21.6225 11.1652 21.6837L11.3001 22.066C11.4056 22.0288 11.5941 22.0038 11.8845 22.0038V21.5983ZM11.1722 21.6814C10.9748 21.743 10.8395 21.8836 10.7709 22.078L11.1532 22.2129C11.183 22.1285 11.2281 22.0887 11.2931 22.0684L11.1722 21.6814ZM10.7709 22.078C10.7094 22.252 10.6855 22.5071 10.6855 22.822H11.091C11.091 22.5137 11.1162 22.3177 11.1532 22.2129L10.7709 22.078ZM10.6855 22.822V25.0729H11.091V22.822H10.6855ZM10.8927 25.2756L12.0243 25.251L12.0154 24.8456L10.8838 24.8702L10.8927 25.2756ZM11.7123 30.1833C12.5195 30.1833 13.1349 29.9711 13.4774 29.4818L13.1453 29.2493C12.9137 29.58 12.4632 29.7778 11.7123 29.7778V30.1833ZM13.4759 29.484C13.805 29.0269 13.9569 28.4054 13.9569 27.6436H13.5514C13.5514 28.3578 13.4081 28.8842 13.1468 29.2471L13.4759 29.484ZM13.9569 27.6436C13.9569 26.7969 13.7907 26.1373 13.4137 25.7131L13.1106 25.9825C13.3896 26.2963 13.5514 26.8338 13.5514 27.6436H13.9569ZM13.4151 25.7147C13.0314 25.2735 12.4067 25.0792 11.6016 25.0792V25.4847C12.3546 25.4847 12.8369 25.6676 13.1092 25.9808L13.4151 25.7147ZM11.6016 25.0792C11.313 25.0792 11.0721 25.0833 10.8794 25.0917L10.8971 25.4968C11.0816 25.4888 11.3162 25.4847 11.6016 25.4847V25.0792ZM10.6855 25.2943V28.9228H11.091V25.2943H10.6855ZM10.6855 28.9228C10.6855 29.2303 10.7058 29.4784 10.7544 29.6535L11.1451 29.545C11.1117 29.4249 11.091 29.2221 11.091 28.9228H10.6855ZM10.7544 29.6535C10.806 29.8394 10.9077 29.9952 11.075 30.0853L11.2673 29.7283C11.2214 29.7036 11.1755 29.6543 11.1451 29.545L10.7544 29.6535ZM11.0913 30.0931C11.2455 30.1592 11.4604 30.1833 11.7123 30.1833V29.7778C11.4723 29.7778 11.3264 29.7527 11.251 29.7204L11.0913 30.0931ZM24.8647 21.7642L24.876 21.9666L25.0675 21.9559V21.7642H24.8647ZM24.2128 21.8626L24.1453 21.6713L24.1416 21.6727L24.2128 21.8626ZM23.9422 22.1455L24.1334 22.2129V22.2129L23.9422 22.1455ZM24.2128 29.8822L24.1416 30.072L24.1453 30.0733L24.2128 29.8822ZM24.8647 29.9806H25.0675V29.7888L24.876 29.7781L24.8647 29.9806ZM24.8647 30.2266L24.8503 30.4288L25.0675 30.4443V30.2266H24.8647ZM21.7282 30.2266H21.5255V30.4427L21.7411 30.4289L21.7282 30.2266ZM21.7282 29.9806L21.717 29.7781L21.5255 29.7888V29.9806H21.7282ZM22.3678 29.8822L22.3003 29.6909L22.2966 29.6923L22.3678 29.8822ZM22.6507 29.5993L22.4595 29.5318V29.5318L22.6507 29.5993ZM22.7245 23.1049H22.9273V22.4658L22.5589 22.988L22.7245 23.1049ZM18.481 29.1196L18.3154 29.0027L18.2761 29.0584L18.2784 29.1265L18.481 29.1196ZM18.5794 29.6608L18.3956 29.7465L18.3981 29.7514L18.5794 29.6608ZM18.8623 29.8945L18.8018 30.088V30.088L18.8623 29.8945ZM19.4773 29.9806H19.6801V29.7894L19.4892 29.7782L19.4773 29.9806ZM19.4773 30.2266L19.4641 30.4289L19.6801 30.443V30.2266H19.4773ZM16.3408 30.2266H16.1381V30.4443L16.3553 30.4288L16.3408 30.2266ZM16.3408 29.9806L16.3296 29.7781L16.1381 29.7888V29.9806H16.3408ZM16.9804 29.8822L16.9129 29.6909L16.9092 29.6923L16.9804 29.8822ZM17.2633 22.1455L17.0721 22.2129V22.2129L17.2633 22.1455ZM16.9804 21.8626L16.9092 22.0524L16.9129 22.0537L16.9804 21.8626ZM16.3408 21.7642H16.1381V21.9559L16.3296 21.9666L16.3408 21.7642ZM16.3408 21.5182L16.3553 21.3159L16.1381 21.3004V21.5182H16.3408ZM19.4773 21.5182H19.6801V21.3021L19.4644 21.3158L19.4773 21.5182ZM19.4773 21.7642L19.4886 21.9666L19.6801 21.9559V21.7642H19.4773ZM18.8254 21.8626L18.7579 21.6713L18.7542 21.6727L18.8254 21.8626ZM18.5548 22.1455L18.746 22.2129H18.746L18.5548 22.1455ZM18.481 28.6399H18.2783V29.2789L18.6467 28.7567L18.481 28.6399ZM22.7245 22.6252L22.8902 22.742L22.9295 22.6863L22.9271 22.6182L22.7245 22.6252ZM22.6261 22.0963L22.4423 22.182L22.4448 22.1869L22.6261 22.0963ZM22.3432 21.8503L22.4037 21.6568V21.6568L22.3432 21.8503ZM21.7282 21.7642H21.5255V21.9553L21.7163 21.9665L21.7282 21.7642ZM21.7282 21.5182L21.7411 21.3158L21.5255 21.3021V21.5182H21.7282ZM24.8647 21.5182H25.0675V21.3004L24.8503 21.3159L24.8647 21.5182ZM24.8535 21.5617C24.5542 21.5784 24.3131 21.6122 24.1453 21.6714L24.2803 22.0537C24.3914 22.0145 24.5848 21.9828 24.876 21.9666L24.8535 21.5617ZM24.1416 21.6727C23.9509 21.7443 23.8189 21.8856 23.751 22.078L24.1334 22.2129C24.1639 22.1265 24.2124 22.0793 24.284 22.0524L24.1416 21.6727ZM23.751 22.078C23.6896 22.252 23.6657 22.5071 23.6657 22.822H24.0712C24.0712 22.5137 24.0964 22.3177 24.1334 22.2129L23.751 22.078ZM23.6657 22.822V28.9228H24.0712V22.822H23.6657ZM23.6657 28.9228C23.6657 29.2377 23.6896 29.4927 23.751 29.6667L24.1334 29.5318C24.0964 29.427 24.0712 29.2311 24.0712 28.9228H23.6657ZM23.751 29.6667C23.8189 29.8591 23.9509 30.0005 24.1416 30.072L24.284 29.6923C24.2124 29.6655 24.1639 29.6182 24.1334 29.5318L23.751 29.6667ZM24.1453 30.0733C24.3131 30.1325 24.5542 30.1664 24.8535 30.183L24.876 29.7781C24.5848 29.762 24.3914 29.7302 24.2803 29.691L24.1453 30.0733ZM24.662 29.9806V30.2266H25.0675V29.9806H24.662ZM24.8792 30.0243C24.5272 29.9992 23.9965 29.9869 23.2903 29.9869V30.3924C23.9946 30.3924 24.5134 30.4047 24.8503 30.4288L24.8792 30.0243ZM23.2903 29.9869C22.6325 29.9869 22.1069 29.9992 21.7153 30.0242L21.7411 30.4289C22.1203 30.4047 22.6361 30.3924 23.2903 30.3924V29.9869ZM21.931 30.2266V29.9806H21.5255V30.2266H21.931ZM21.7395 30.183C22.0376 30.1664 22.2771 30.1327 22.439 30.072L22.2966 29.6923C22.1961 29.73 22.0092 29.7619 21.717 29.7781L21.7395 30.183ZM22.4353 30.0733C22.6325 30.0037 22.7723 29.864 22.8419 29.6667L22.4595 29.5318C22.4307 29.6134 22.3819 29.6622 22.3003 29.691L22.4353 30.0733ZM22.8419 29.6667C22.9033 29.4927 22.9273 29.2377 22.9273 28.9228H22.5218C22.5218 29.2311 22.4965 29.427 22.4595 29.5318L22.8419 29.6667ZM22.9273 28.9228V23.1049H22.5218V28.9228H22.9273ZM22.5589 22.988L18.3154 29.0027L18.6467 29.2364L22.8902 23.2217L22.5589 22.988ZM18.2784 29.1265C18.2869 29.3742 18.3212 29.5868 18.3957 29.7465L18.7631 29.575C18.7229 29.4888 18.6915 29.3406 18.6836 29.1126L18.2784 29.1265ZM18.3981 29.7514C18.482 29.9193 18.6222 30.0318 18.8018 30.088L18.9228 29.701C18.84 29.6751 18.7916 29.6319 18.7608 29.5701L18.3981 29.7514ZM18.8018 30.088C18.9578 30.1367 19.1834 30.1664 19.4654 30.1829L19.4892 29.7782C19.2136 29.762 19.0292 29.7342 18.9228 29.701L18.8018 30.088ZM19.2746 29.9806V30.2266H19.6801V29.9806H19.2746ZM19.4905 30.0243C19.1068 29.9992 18.5811 29.9869 17.9152 29.9869V30.3924C18.5778 30.3924 19.0934 30.4047 19.4641 30.4289L19.4905 30.0243ZM17.9152 29.9869C17.2091 29.9869 16.6783 29.9992 16.3264 30.0243L16.3553 30.4288C16.6921 30.4047 17.211 30.3924 17.9152 30.3924V29.9869ZM16.5436 30.2266V29.9806H16.1381V30.2266H16.5436ZM16.3521 30.183C16.6502 30.1664 16.8897 30.1327 17.0516 30.072L16.9092 29.6923C16.8087 29.73 16.6218 29.7619 16.3296 29.7781L16.3521 30.183ZM17.0479 30.0733C17.2451 30.0037 17.3849 29.864 17.4545 29.6667L17.0721 29.5318C17.0433 29.6134 16.9945 29.6622 16.9129 29.691L17.0479 30.0733ZM17.4545 29.6667C17.5159 29.4927 17.5399 29.2377 17.5399 28.9228H17.1344C17.1344 29.2311 17.1091 29.427 17.0721 29.5318L17.4545 29.6667ZM17.5399 28.9228V22.822H17.1344V28.9228H17.5399ZM17.5399 22.822C17.5399 22.5071 17.5159 22.252 17.4545 22.078L17.0721 22.2129C17.1091 22.3177 17.1344 22.5137 17.1344 22.822H17.5399ZM17.4545 22.078C17.3849 21.8808 17.2451 21.741 17.0479 21.6714L16.9129 22.0537C16.9945 22.0825 17.0433 22.1314 17.0721 22.2129L17.4545 22.078ZM17.0516 21.6727C16.8897 21.612 16.6502 21.5783 16.3521 21.5617L16.3296 21.9666C16.6218 21.9828 16.8087 22.0147 16.9092 22.0524L17.0516 21.6727ZM16.5436 21.7642V21.5182H16.1381V21.7642H16.5436ZM16.3264 21.7204C16.6783 21.7455 17.2091 21.7578 17.9152 21.7578V21.3523C17.211 21.3523 16.6921 21.34 16.3553 21.3159L16.3264 21.7204ZM17.9152 21.7578C18.573 21.7578 19.0986 21.7455 19.4902 21.7205L19.4644 21.3158C19.0852 21.34 18.5694 21.3523 17.9152 21.3523V21.7578ZM19.2746 21.5182V21.7642H19.6801V21.5182H19.2746ZM19.4661 21.5617C19.1668 21.5784 18.9257 21.6122 18.7579 21.6714L18.8929 22.0537C19.004 22.0145 19.1974 21.9828 19.4886 21.9666L19.4661 21.5617ZM18.7542 21.6727C18.5635 21.7443 18.4315 21.8856 18.3636 22.078L18.746 22.2129C18.7765 22.1265 18.825 22.0793 18.8966 22.0524L18.7542 21.6727ZM18.3636 22.078C18.3022 22.252 18.2783 22.5071 18.2783 22.822H18.6838C18.6838 22.5137 18.709 22.3177 18.746 22.2129L18.3636 22.078ZM18.2783 22.822V28.6399H18.6838V22.822H18.2783ZM18.6467 28.7567L22.8902 22.742L22.5589 22.5083L18.3154 28.523L18.6467 28.7567ZM22.9271 22.6182C22.9186 22.372 22.8847 22.1601 22.8075 22.0056L22.4448 22.1869C22.4823 22.262 22.514 22.4028 22.5219 22.6321L22.9271 22.6182ZM22.8098 22.0105C22.728 21.8351 22.5885 21.7145 22.4037 21.6568L22.2827 22.0438C22.3603 22.068 22.4095 22.1114 22.4424 22.182L22.8098 22.0105ZM22.4037 21.6568C22.2477 21.608 22.0221 21.5784 21.7401 21.5618L21.7163 21.9665C21.9919 21.9828 22.1763 22.0105 22.2827 22.0438L22.4037 21.6568ZM21.931 21.7642V21.5182H21.5255V21.7642H21.931ZM21.7153 21.7205C22.1069 21.7455 22.6325 21.7578 23.2903 21.7578V21.3523C22.6361 21.3523 22.1203 21.34 21.7411 21.3158L21.7153 21.7205ZM23.2903 21.7578C23.9965 21.7578 24.5272 21.7455 24.8792 21.7204L24.8503 21.3159C24.5134 21.34 23.9946 21.3523 23.2903 21.3523V21.7578ZM24.662 21.5182V21.7642H25.0675V21.5182H24.662ZM29.4396 25.0483V24.8455L29.4352 24.8456L29.4396 25.0483ZM31.6413 25.7617L31.5028 25.9097L31.5041 25.9109L31.6413 25.7617ZM31.6536 29.4886L31.7969 29.6319V29.6319L31.6536 29.4886ZM29.169 30.2266L29.1643 30.4293H29.169V30.2266ZM28.6401 30.2143L28.6304 30.4168L28.6354 30.4169L28.6401 30.2143ZM26.1678 30.2266H25.965V30.4443L26.1822 30.4288L26.1678 30.2266ZM26.1678 29.9806L26.1565 29.7781L25.965 29.7888V29.9806H26.1678ZM26.8074 29.8822L26.7399 29.6909L26.7362 29.6923L26.8074 29.8822ZM27.0903 22.1455L26.8991 22.2129V22.2129L27.0903 22.1455ZM26.8074 21.8626L26.7362 22.0524L26.7399 22.0537L26.8074 21.8626ZM26.1678 21.7642H25.965V21.9559L26.1565 21.9666L26.1678 21.7642ZM26.1678 21.5182L26.174 21.3155L25.965 21.3091V21.5182H26.1678ZM31.9365 21.5182L32.1381 21.5395L32.1632 21.3023L31.925 21.3157L31.9365 21.5182ZM31.8873 23.7322V23.9349H32.1182L32.0883 23.7059L31.8873 23.7322ZM31.6044 23.7322L31.4028 23.7539L31.4223 23.9349H31.6044V23.7322ZM31.383 22.5514L31.1912 22.6173L31.1919 22.6192L31.383 22.5514ZM30.9279 21.9856L30.8265 22.1612L30.8318 22.1641L30.9279 21.9856ZM28.6524 21.8749L28.7129 22.0685L28.7198 22.066L28.6524 21.8749ZM28.3818 22.1455L28.573 22.2129V22.2129L28.3818 22.1455ZM28.308 25.0729H28.1052V25.2801L28.3124 25.2756L28.308 25.0729ZM30.7311 29.3656L30.5665 29.2471L30.565 29.2493L30.7311 29.3656ZM30.6819 25.8478L30.5289 25.9808L30.5303 25.9825L30.6819 25.8478ZM28.308 25.2943L28.2992 25.0917L28.1052 25.1001V25.2943H28.308ZM28.3695 29.5993L28.5648 29.545V29.545L28.3695 29.5993ZM28.5909 29.9068L28.4948 30.0853L28.5027 30.0895L28.511 30.0931L28.5909 29.9068ZM29.4396 25.251C30.3672 25.251 31.0442 25.4807 31.5028 25.9097L31.7798 25.6136C31.2216 25.0914 30.4308 24.8455 29.4396 24.8455V25.251ZM31.5041 25.9109C31.9651 26.3348 32.2011 26.901 32.2011 27.6313H32.6066C32.6066 26.8036 32.3342 26.1233 31.7785 25.6124L31.5041 25.9109ZM32.2011 27.6313C32.2011 28.3181 31.9706 28.8848 31.5102 29.3452L31.7969 29.6319C32.3369 29.0919 32.6066 28.4204 32.6066 27.6313H32.2011ZM31.5102 29.3452C31.075 29.7804 30.3138 30.0238 29.169 30.0238V30.4293C30.353 30.4293 31.2481 30.1807 31.7969 29.6319L31.5102 29.3452ZM29.1737 30.0239L28.6448 30.0116L28.6354 30.4169L29.1643 30.4292L29.1737 30.0239ZM28.6497 30.0118C28.3022 29.9952 27.9587 29.9869 27.6192 29.9869V30.3924C27.9521 30.3924 28.2892 30.4005 28.6304 30.4168L28.6497 30.0118ZM27.6192 29.9869C26.9943 29.9869 26.5049 29.9992 26.1533 30.0243L26.1822 30.4288C26.5194 30.4047 26.9976 30.3924 27.6192 30.3924V29.9869ZM26.3705 30.2266V29.9806H25.965V30.2266H26.3705ZM26.179 30.183C26.4772 30.1664 26.7167 30.1327 26.8786 30.072L26.7362 29.6923C26.6357 29.73 26.4487 29.7619 26.1565 29.7781L26.179 30.183ZM26.8748 30.0733C27.0721 30.0037 27.2118 29.864 27.2815 29.6667L26.8991 29.5318C26.8703 29.6134 26.8215 29.6622 26.7399 29.691L26.8748 30.0733ZM27.2815 29.6667C27.3429 29.4927 27.3668 29.2377 27.3668 28.9228H26.9613C26.9613 29.2311 26.9361 29.427 26.8991 29.5318L27.2815 29.6667ZM27.3668 28.9228V22.822H26.9613V28.9228H27.3668ZM27.3668 22.822C27.3668 22.5071 27.3429 22.252 27.2815 22.078L26.8991 22.2129C26.9361 22.3177 26.9613 22.5137 26.9613 22.822H27.3668ZM27.2815 22.078C27.2118 21.8808 27.0721 21.741 26.8748 21.6714L26.7399 22.0537C26.8215 22.0825 26.8703 22.1314 26.8991 22.2129L27.2815 22.078ZM26.8786 21.6727C26.7167 21.612 26.4772 21.5783 26.179 21.5617L26.1565 21.9666C26.4487 21.9828 26.6357 22.0147 26.7362 22.0524L26.8786 21.6727ZM26.3705 21.7642V21.5182H25.965V21.7642H26.3705ZM26.1616 21.7208C26.9684 21.7455 28.1599 21.7578 29.7348 21.7578V21.3523C28.1609 21.3523 26.9744 21.34 26.174 21.3155L26.1616 21.7208ZM29.7348 21.7578C30.768 21.7578 31.507 21.7455 31.9479 21.7206L31.925 21.3157C31.4967 21.34 30.7679 21.3523 29.7348 21.3523V21.7578ZM31.7349 21.4968C31.6769 22.0432 31.6476 22.5344 31.6476 22.9696H32.0531C32.0531 22.5519 32.0812 22.0755 32.1381 21.5395L31.7349 21.4968ZM31.6476 22.9696C31.6476 23.2931 31.66 23.5572 31.6862 23.7584L32.0883 23.7059C32.0653 23.5299 32.0531 23.2856 32.0531 22.9696H31.6476ZM31.8873 23.5294H31.6044V23.9349H31.8873V23.5294ZM31.8059 23.7105C31.7482 23.174 31.6725 22.761 31.574 22.4836L31.1919 22.6192C31.2739 22.8502 31.3458 23.2244 31.4028 23.7539L31.8059 23.7105ZM31.5747 22.4855C31.4705 22.1824 31.2886 21.9496 31.024 21.8071L30.8318 22.1641C30.9935 22.2512 31.115 22.3955 31.1912 22.6173L31.5747 22.4855ZM31.0292 21.81C30.7697 21.6603 30.4028 21.5983 29.9562 21.5983V22.0038C30.3788 22.0038 30.6596 22.0649 30.8266 22.1612L31.0292 21.81ZM29.9562 21.5983H29.3043V22.0038H29.9562V21.5983ZM29.3043 21.5983C29.0043 21.5983 28.7582 21.6225 28.5849 21.6837L28.7198 22.066C28.8253 22.0288 29.0139 22.0038 29.3043 22.0038V21.5983ZM28.5919 21.6814C28.3945 21.743 28.2592 21.8836 28.1906 22.078L28.573 22.2129C28.6027 22.1285 28.6478 22.0887 28.7128 22.0684L28.5919 21.6814ZM28.1906 22.078C28.1292 22.252 28.1052 22.5071 28.1052 22.822H28.5107C28.5107 22.5137 28.536 22.3177 28.573 22.2129L28.1906 22.078ZM28.1052 22.822V25.0729H28.5107V22.822H28.1052ZM28.3124 25.2756L29.444 25.251L29.4352 24.8456L28.3036 24.8702L28.3124 25.2756ZM29.1321 30.1833C29.9392 30.1833 30.5547 29.9711 30.8972 29.4818L30.565 29.2493C30.3335 29.58 29.883 29.7778 29.1321 29.7778V30.1833ZM30.8956 29.484C31.2247 29.0269 31.3766 28.4054 31.3766 27.6436H30.9711C30.9711 28.3578 30.8278 28.8842 30.5665 29.2471L30.8956 29.484ZM31.3766 27.6436C31.3766 26.7969 31.2105 26.1373 30.8334 25.7131L30.5303 25.9825C30.8093 26.2963 30.9711 26.8338 30.9711 27.6436H31.3766ZM30.8349 25.7147C30.4512 25.2735 29.8265 25.0792 29.0214 25.0792V25.4847C29.7743 25.4847 30.2566 25.6676 30.5289 25.9808L30.8349 25.7147ZM29.0214 25.0792C28.7328 25.0792 28.4918 25.0833 28.2992 25.0917L28.3168 25.4968C28.5014 25.4888 28.736 25.4847 29.0214 25.4847V25.0792ZM28.1052 25.2943V28.9228H28.5107V25.2943H28.1052ZM28.1052 28.9228C28.1052 29.2303 28.1255 29.4784 28.1741 29.6535L28.5648 29.545C28.5315 29.4249 28.5107 29.2221 28.5107 28.9228H28.1052ZM28.1741 29.6535C28.2258 29.8394 28.3274 29.9952 28.4948 30.0853L28.687 29.7283C28.6411 29.7036 28.5952 29.6543 28.5648 29.545L28.1741 29.6535ZM28.511 30.0931C28.6652 30.1592 28.8801 30.1833 29.1321 30.1833V29.7778C28.8921 29.7778 28.7461 29.7527 28.6707 29.7204L28.511 30.0931ZM41.1177 21.7642L41.1289 21.9666L41.3204 21.9559V21.7642H41.1177ZM40.4658 21.8626L40.3983 21.6713L40.3946 21.6727L40.4658 21.8626ZM40.1952 22.1455L40.3864 22.2129H40.3864L40.1952 22.1455ZM40.1952 29.5993L40.3864 29.5318H40.3864L40.1952 29.5993ZM40.4658 29.8822L40.3946 30.072L40.3983 30.0733L40.4658 29.8822ZM41.1177 29.9806H41.3204V29.7888L41.1289 29.7781L41.1177 29.9806ZM41.1177 30.2266L41.1032 30.4288L41.3204 30.4443V30.2266H41.1177ZM37.7352 30.2266H37.5324V30.4411L37.7466 30.429L37.7352 30.2266ZM37.7352 29.9806L37.7262 29.778L37.5324 29.7866V29.9806H37.7352ZM38.5347 29.8822L38.5929 30.0763V30.0763L38.5347 29.8822ZM38.8791 29.5993L38.6956 29.5129V29.5129L38.8791 29.5993ZM38.9037 22.1455L38.7113 22.2096L38.7125 22.2129L38.9037 22.1455ZM38.6208 21.8503L38.5435 22.038L38.5533 22.0414L38.6208 21.8503ZM37.1817 21.8503L37.257 22.0386L37.2629 22.036L37.1817 21.8503ZM36.9234 22.1332L36.7321 22.0656L36.7299 22.0727L36.9234 22.1332ZM36.825 22.822L37.0268 22.8415L37.0271 22.8371L36.825 22.822ZM36.7389 24.0151L36.9412 24.0279L36.9412 24.0273L36.7389 24.0151ZM36.4191 27.25L36.2186 27.2194L36.2184 27.221L36.4191 27.25ZM35.718 29.464L35.8954 29.562V29.562L35.718 29.464ZM33.4548 30.202L33.3437 30.3718L33.3514 30.3764L33.4548 30.202ZM33.3318 29.0581L33.4704 29.206L33.4707 29.2057L33.3318 29.0581ZM34.3035 29.0089L34.1715 29.1629L34.1768 29.1672L34.3035 29.0089ZM34.365 29.833L34.5258 29.9567L34.5299 29.9508L34.365 29.833ZM33.9591 30.1528L33.8593 29.9763L33.3131 30.285L33.9367 30.3543L33.9591 30.1528ZM35.595 29.1196L35.7801 29.2023L35.595 29.1196ZM36.2346 26.6473L36.4359 26.6716L36.4359 26.6714L36.2346 26.6473ZM36.5421 22.822L36.3404 22.7968L36.3397 22.8105L36.5421 22.822ZM36.1731 21.8503L36.2303 21.6558V21.6558L36.1731 21.8503ZM35.5458 21.7642H35.343V21.9553L35.5339 21.9665L35.5458 21.7642ZM35.5458 21.5182L35.5602 21.3159L35.343 21.3004V21.5182H35.5458ZM37.3662 21.5305L37.3615 21.3276L37.3527 21.3282L37.3662 21.5305ZM37.8951 21.5182L37.8981 21.3153L37.8904 21.3155L37.8951 21.5182ZM38.7192 21.5305L38.728 21.3278L38.7222 21.3277L38.7192 21.5305ZM41.1177 21.5182H41.3204V21.3004L41.1032 21.3159L41.1177 21.5182ZM41.1064 21.5617C40.8072 21.5784 40.566 21.6122 40.3983 21.6714L40.5333 22.0537C40.6443 22.0145 40.8378 21.9828 41.1289 21.9666L41.1064 21.5617ZM40.3946 21.6727C40.2038 21.7443 40.0719 21.8856 40.004 22.078L40.3864 22.2129C40.4169 22.1265 40.4653 22.0793 40.537 22.0524L40.3946 21.6727ZM40.004 22.078C39.9426 22.252 39.9186 22.5071 39.9186 22.822H40.3241C40.3241 22.5137 40.3494 22.3177 40.3864 22.2129L40.004 22.078ZM39.9186 22.822V28.9228H40.3241V22.822H39.9186ZM39.9186 28.9228C39.9186 29.2377 39.9426 29.4927 40.004 29.6667L40.3864 29.5318C40.3494 29.427 40.3241 29.2311 40.3241 28.9228H39.9186ZM40.004 29.6667C40.0719 29.8591 40.2038 30.0005 40.3946 30.072L40.537 29.6923C40.4653 29.6655 40.4169 29.6182 40.3864 29.5318L40.004 29.6667ZM40.3983 30.0733C40.566 30.1325 40.8072 30.1664 41.1064 30.183L41.1289 29.7781C40.8378 29.762 40.6443 29.7302 40.5333 29.691L40.3983 30.0733ZM40.9149 29.9806V30.2266H41.3204V29.9806H40.9149ZM41.1321 30.0243C40.7802 29.9992 40.2494 29.9869 39.5433 29.9869V30.3924C40.2475 30.3924 40.7664 30.4047 41.1032 30.4288L41.1321 30.0243ZM39.5433 29.9869C38.7711 29.9869 38.164 29.9992 37.7237 30.0241L37.7466 30.429C38.1756 30.4047 38.7739 30.3924 39.5433 30.3924V29.9869ZM37.9379 30.2266V29.9806H37.5324V30.2266H37.9379ZM37.7442 30.1831C38.1152 30.1666 38.4032 30.1333 38.5929 30.0763L38.4764 29.688C38.3381 29.7295 38.0931 29.7617 37.7262 29.778L37.7442 30.1831ZM38.5929 30.0763C38.8052 30.0127 38.9695 29.8832 39.0625 29.6856L38.6956 29.5129C38.6574 29.5941 38.5921 29.6533 38.4764 29.688L38.5929 30.0763ZM39.0625 29.6856C39.1482 29.5035 39.1802 29.2398 39.1802 28.9228H38.7747C38.7747 29.2289 38.7411 29.4162 38.6956 29.5129L39.0625 29.6856ZM39.1802 28.9228V22.822H38.7747V28.9228H39.1802ZM39.1802 22.822C39.1802 22.5071 39.1563 22.252 39.0949 22.078L38.7125 22.2129C38.7495 22.3177 38.7747 22.5137 38.7747 22.822H39.1802ZM39.096 22.0814C39.0282 21.878 38.8901 21.7303 38.6883 21.6591L38.5533 22.0414C38.6302 22.0686 38.6807 22.1177 38.7113 22.2096L39.096 22.0814ZM38.698 21.6628C38.5209 21.5899 38.2751 21.5614 37.9812 21.5614V21.9669C38.2613 21.9669 38.4419 21.9959 38.5436 22.0377L38.698 21.6628ZM37.9812 21.5614H37.8213V21.9669H37.9812V21.5614ZM37.8213 21.5614C37.5215 21.5614 37.2724 21.5893 37.1004 21.6645L37.2629 22.036C37.3534 21.9964 37.5306 21.9669 37.8213 21.9669V21.5614ZM37.1064 21.662C36.9225 21.7356 36.7983 21.8784 36.7322 22.0657L37.1146 22.2006C37.1468 22.1092 37.1948 22.0634 37.257 22.0385L37.1064 21.662ZM36.7299 22.0727C36.6812 22.2283 36.6474 22.4788 36.6228 22.8068L37.0271 22.8371C37.0517 22.5092 37.0835 22.3004 37.1169 22.1936L36.7299 22.0727ZM36.6232 22.8024C36.5982 23.0605 36.5693 23.4612 36.5365 24.0028L36.9412 24.0273C36.974 23.4865 37.0025 23.0918 37.0268 22.8415L36.6232 22.8024ZM36.5365 24.0023C36.4548 25.2945 36.3486 26.3664 36.2187 27.2194L36.6195 27.2805C36.7519 26.4115 36.859 25.3268 36.9412 24.0279L36.5365 24.0023ZM36.2184 27.221C36.0982 28.0545 35.8709 28.7681 35.5405 29.3659L35.8954 29.562C36.2539 28.9134 36.494 28.151 36.6197 27.2789L36.2184 27.221ZM35.5405 29.3659C35.2263 29.9345 34.8011 30.196 34.2543 30.196V30.6015C34.9702 30.6015 35.5209 30.2398 35.8954 29.562L35.5405 29.3659ZM34.2543 30.196C33.9714 30.196 33.7422 30.1367 33.5581 30.0275L33.3514 30.3764C33.6101 30.5297 33.914 30.6015 34.2543 30.6015V30.196ZM33.5657 30.0323C33.4178 29.9356 33.3377 29.7911 33.3377 29.5624H32.9322C32.9322 29.9076 33.0653 30.1895 33.3438 30.3716L33.5657 30.0323ZM33.3377 29.5624C33.3377 29.3939 33.3877 29.2836 33.4704 29.206L33.1931 28.9102C33.0135 29.0786 32.9322 29.3044 32.9322 29.5624H33.3377ZM33.4707 29.2057C33.5681 29.114 33.6927 29.064 33.8607 29.064V28.6585C33.6022 28.6585 33.3742 28.7397 33.1928 28.9104L33.4707 29.2057ZM33.8607 29.064C34.0025 29.064 34.1003 29.1017 34.1715 29.1628L34.4354 28.8549C34.2771 28.7192 34.0797 28.6585 33.8607 28.6585V29.064ZM34.1768 29.1672C34.2495 29.2253 34.2852 29.2971 34.2852 29.4025H34.6907C34.6907 29.1798 34.6035 28.9892 34.4301 28.8506L34.1768 29.1672ZM34.2852 29.4025C34.2852 29.5419 34.2525 29.6417 34.2 29.7151L34.5299 29.9508C34.6415 29.7946 34.6907 29.6074 34.6907 29.4025H34.2852ZM34.2043 29.7094C34.1459 29.7853 34.037 29.8758 33.8593 29.9763L34.0588 30.3293C34.2584 30.2165 34.4201 30.0939 34.5257 29.9566L34.2043 29.7094ZM33.9367 30.3543C34.0211 30.3636 34.128 30.3678 34.2543 30.3678V29.9623C34.1346 29.9623 34.0446 29.9583 33.9815 29.9513L33.9367 30.3543ZM34.2543 30.3678C34.5892 30.3678 34.8907 30.2664 35.1508 30.0636C35.4078 29.8631 35.6152 29.571 35.7801 29.2023L35.4099 29.0368C35.2631 29.3651 35.0913 29.5958 34.9014 29.7438C34.7146 29.8895 34.5015 29.9623 34.2543 29.9623V30.3678ZM35.7801 29.2023C36.1018 28.4827 36.3192 27.638 36.4359 26.6716L36.0333 26.623C35.9203 27.5589 35.7114 28.3624 35.4099 29.0368L35.7801 29.2023ZM36.4359 26.6714C36.5514 25.706 36.6542 24.4261 36.7445 22.8334L36.3397 22.8105C36.2496 24.3994 36.1474 25.6698 36.0333 26.6232L36.4359 26.6714ZM36.7432 22.8471C36.753 22.7693 36.7571 22.6694 36.7571 22.5514H36.3516C36.3516 22.6629 36.3476 22.7435 36.3409 22.7968L36.7432 22.8471ZM36.7571 22.5514C36.7571 22.3266 36.728 22.1264 36.6468 21.9755L36.2898 22.1678C36.3234 22.2302 36.3516 22.3497 36.3516 22.5514H36.7571ZM36.6468 21.9755C36.5587 21.8119 36.4105 21.7088 36.2303 21.6558L36.1159 22.0448C36.2145 22.0738 36.2631 22.1182 36.2898 22.1678L36.6468 21.9755ZM36.2303 21.6558C36.0682 21.6081 35.8405 21.5784 35.5577 21.5618L35.5339 21.9665C35.8086 21.9827 35.9991 22.0104 36.1159 22.0448L36.2303 21.6558ZM35.7485 21.7642V21.5182H35.343V21.7642H35.7485ZM35.5313 21.7204C35.8821 21.7454 36.3096 21.7578 36.8127 21.7578V21.3523C36.3154 21.3523 35.8982 21.3401 35.5602 21.3159L35.5313 21.7204ZM36.8127 21.7578C36.9427 21.7578 37.1327 21.7492 37.3797 21.7327L37.3527 21.3282C37.1077 21.3445 36.9287 21.3523 36.8127 21.3523V21.7578ZM37.3709 21.7331L37.8998 21.7208L37.8904 21.3155L37.3615 21.3278L37.3709 21.7331ZM37.892 21.7209L38.7162 21.7332L38.7222 21.3277L37.8981 21.3154L37.892 21.7209ZM38.7104 21.733C39.0891 21.7495 39.4039 21.7578 39.654 21.7578V21.3523C39.412 21.3523 39.1036 21.3442 38.728 21.3279L38.7104 21.733ZM39.654 21.7578C40.287 21.7578 40.7805 21.7455 41.1321 21.7204L41.1032 21.3159C40.766 21.34 40.2838 21.3523 39.654 21.3523V21.7578ZM40.9149 21.5182V21.7642H41.3204V21.5182H40.9149ZM50.9463 21.7642L50.9575 21.9666L51.149 21.9559V21.7642H50.9463ZM50.2944 21.8626L50.2269 21.6713L50.2232 21.6727L50.2944 21.8626ZM50.0238 22.1455L50.2149 22.2129V22.2129L50.0238 22.1455ZM50.2944 29.8822L50.2232 30.072L50.2269 30.0733L50.2944 29.8822ZM50.9463 29.9806H51.149V29.7888L50.9575 29.7781L50.9463 29.9806ZM50.9463 30.2266L50.9318 30.4288L51.149 30.4443V30.2266H50.9463ZM47.8098 30.2266H47.607V30.4427L47.8227 30.4289L47.8098 30.2266ZM47.8098 29.9806L47.7985 29.7781L47.607 29.7888V29.9806H47.8098ZM48.4494 29.8822L48.3819 29.6909L48.3782 29.6923L48.4494 29.8822ZM48.7323 29.5993L48.5411 29.5318V29.5318L48.7323 29.5993ZM48.8061 23.1049H49.0088V22.4658L48.6404 22.988L48.8061 23.1049ZM44.5626 29.1196L44.3969 29.0027L44.3576 29.0584L44.3599 29.1265L44.5626 29.1196ZM44.661 29.6608L44.4772 29.7465L44.4796 29.7514L44.661 29.6608ZM44.9439 29.8945L44.8834 30.088V30.088L44.9439 29.8945ZM45.5589 29.9806H45.7616V29.7894L45.5708 29.7782L45.5589 29.9806ZM45.5589 30.2266L45.5457 30.4289L45.7616 30.443V30.2266H45.5589ZM42.4224 30.2266H42.2196V30.4443L42.4368 30.4288L42.4224 30.2266ZM42.4224 29.9806L42.4111 29.7781L42.2196 29.7888V29.9806H42.4224ZM43.062 29.8822L42.9945 29.6909L42.9908 29.6923L43.062 29.8822ZM43.3449 22.1455L43.1537 22.2129V22.2129L43.3449 22.1455ZM43.062 21.8626L42.9908 22.0524L42.9945 22.0537L43.062 21.8626ZM42.4224 21.7642H42.2196V21.9559L42.4111 21.9666L42.4224 21.7642ZM42.4224 21.5182L42.4368 21.3159L42.2196 21.3004V21.5182H42.4224ZM45.5589 21.5182H45.7616V21.3021L45.5459 21.3158L45.5589 21.5182ZM45.5589 21.7642L45.5701 21.9666L45.7616 21.9559V21.7642H45.5589ZM44.907 21.8626L44.8395 21.6713L44.8358 21.6727L44.907 21.8626ZM44.6364 22.1455L44.8275 22.2129V22.2129L44.6364 22.1455ZM44.5626 28.6399H44.3598V29.2789L44.7282 28.7567L44.5626 28.6399ZM48.8061 22.6252L48.9717 22.742L49.011 22.6863L49.0087 22.6182L48.8061 22.6252ZM48.7077 22.0963L48.5239 22.182L48.5263 22.1869L48.7077 22.0963ZM48.4248 21.8503L48.4852 21.6568V21.6568L48.4248 21.8503ZM47.8098 21.7642H47.607V21.9553L47.7979 21.9665L47.8098 21.7642ZM47.8098 21.5182L47.8227 21.3158L47.607 21.3021V21.5182H47.8098ZM50.9463 21.5182H51.149V21.3004L50.9318 21.3159L50.9463 21.5182ZM50.935 21.5617C50.6358 21.5784 50.3946 21.6122 50.2269 21.6714L50.3618 22.0537C50.4729 22.0145 50.6664 21.9828 50.9575 21.9666L50.935 21.5617ZM50.2232 21.6727C50.0324 21.7443 49.9005 21.8856 49.8326 22.078L50.2149 22.2129C50.2454 22.1265 50.2939 22.0793 50.3655 22.0524L50.2232 21.6727ZM49.8326 22.078C49.7712 22.252 49.7472 22.5071 49.7472 22.822H50.1527C50.1527 22.5137 50.178 22.3177 50.2149 22.2129L49.8326 22.078ZM49.7472 22.822V28.9228H50.1527V22.822H49.7472ZM49.7472 28.9228C49.7472 29.2377 49.7712 29.4927 49.8326 29.6667L50.2149 29.5318C50.178 29.427 50.1527 29.2311 50.1527 28.9228H49.7472ZM49.8326 29.6667C49.9005 29.8591 50.0324 30.0005 50.2232 30.072L50.3655 29.6923C50.2939 29.6655 50.2454 29.6182 50.2149 29.5318L49.8326 29.6667ZM50.2269 30.0733C50.3946 30.1325 50.6358 30.1664 50.935 30.183L50.9575 29.7781C50.6664 29.762 50.4729 29.7302 50.3618 29.691L50.2269 30.0733ZM50.7435 29.9806V30.2266H51.149V29.9806H50.7435ZM50.9607 30.0243C50.6088 29.9992 50.078 29.9869 49.3719 29.9869V30.3924C50.0761 30.3924 50.595 30.4047 50.9318 30.4288L50.9607 30.0243ZM49.3719 29.9869C48.7141 29.9869 48.1885 29.9992 47.7968 30.0242L47.8227 30.4289C48.2018 30.4047 48.7176 30.3924 49.3719 30.3924V29.9869ZM48.0125 30.2266V29.9806H47.607V30.2266H48.0125ZM47.821 30.183C48.1192 30.1664 48.3587 30.1327 48.5205 30.072L48.3782 29.6923C48.2777 29.73 48.0907 29.7619 47.7985 29.7781L47.821 30.183ZM48.5168 30.0733C48.7141 30.0037 48.8538 29.864 48.9234 29.6667L48.5411 29.5318C48.5123 29.6134 48.4635 29.6622 48.3819 29.691L48.5168 30.0733ZM48.9234 29.6667C48.9849 29.4927 49.0088 29.2377 49.0088 28.9228H48.6033C48.6033 29.2311 48.5781 29.427 48.5411 29.5318L48.9234 29.6667ZM49.0088 28.9228V23.1049H48.6033V28.9228H49.0088ZM48.6404 22.988L44.3969 29.0027L44.7282 29.2364L48.9717 23.2217L48.6404 22.988ZM44.3599 29.1265C44.3685 29.3742 44.4027 29.5868 44.4772 29.7465L44.8447 29.575C44.8044 29.4888 44.773 29.3406 44.7652 29.1126L44.3599 29.1265ZM44.4796 29.7514C44.5635 29.9193 44.7038 30.0318 44.8834 30.088L45.0043 29.701C44.9216 29.6751 44.8732 29.6319 44.8423 29.5701L44.4796 29.7514ZM44.8834 30.088C45.0394 30.1367 45.2649 30.1664 45.547 30.1829L45.5708 29.7782C45.2952 29.762 45.1108 29.7342 45.0043 29.701L44.8834 30.088ZM45.3561 29.9806V30.2266H45.7616V29.9806H45.3561ZM45.5721 30.0243C45.1884 29.9992 44.6626 29.9869 43.9968 29.9869V30.3924C44.6593 30.3924 45.1749 30.4047 45.5457 30.4289L45.5721 30.0243ZM43.9968 29.9869C43.2906 29.9869 42.7599 29.9992 42.4079 30.0243L42.4368 30.4288C42.7737 30.4047 43.2925 30.3924 43.9968 30.3924V29.9869ZM42.6251 30.2266V29.9806H42.2196V30.2266H42.6251ZM42.4336 30.183C42.7318 30.1664 42.9713 30.1327 43.1331 30.072L42.9908 29.6923C42.8903 29.73 42.7033 29.7619 42.4111 29.7781L42.4336 30.183ZM43.1294 30.0733C43.3267 30.0037 43.4664 29.864 43.536 29.6667L43.1537 29.5318C43.1249 29.6134 43.0761 29.6622 42.9945 29.691L43.1294 30.0733ZM43.536 29.6667C43.5975 29.4927 43.6214 29.2377 43.6214 28.9228H43.2159C43.2159 29.2311 43.1907 29.427 43.1537 29.5318L43.536 29.6667ZM43.6214 28.9228V22.822H43.2159V28.9228H43.6214ZM43.6214 22.822C43.6214 22.5071 43.5975 22.252 43.536 22.078L43.1537 22.2129C43.1907 22.3177 43.2159 22.5137 43.2159 22.822H43.6214ZM43.536 22.078C43.4664 21.8808 43.3267 21.741 43.1294 21.6714L42.9945 22.0537C43.0761 22.0825 43.1249 22.1314 43.1537 22.2129L43.536 22.078ZM43.1331 21.6727C42.9713 21.612 42.7318 21.5783 42.4336 21.5617L42.4111 21.9666C42.7033 21.9828 42.8903 22.0147 42.9908 22.0524L43.1331 21.6727ZM42.6251 21.7642V21.5182H42.2196V21.7642H42.6251ZM42.4079 21.7204C42.7599 21.7455 43.2906 21.7578 43.9968 21.7578V21.3523C43.2925 21.3523 42.7737 21.34 42.4368 21.3159L42.4079 21.7204ZM43.9968 21.7578C44.6545 21.7578 45.1801 21.7455 45.5718 21.7205L45.5459 21.3158C45.1668 21.34 44.651 21.3523 43.9968 21.3523V21.7578ZM45.3561 21.5182V21.7642H45.7616V21.5182H45.3561ZM45.5476 21.5617C45.2484 21.5784 45.0072 21.6122 44.8395 21.6714L44.9744 22.0537C45.0855 22.0145 45.279 21.9828 45.5701 21.9666L45.5476 21.5617ZM44.8358 21.6727C44.645 21.7443 44.5131 21.8856 44.4452 22.078L44.8275 22.2129C44.8581 22.1265 44.9065 22.0793 44.9781 22.0524L44.8358 21.6727ZM44.4452 22.078C44.3838 22.252 44.3598 22.5071 44.3598 22.822H44.7653C44.7653 22.5137 44.7906 22.3177 44.8275 22.2129L44.4452 22.078ZM44.3598 22.822V28.6399H44.7653V22.822H44.3598ZM44.7282 28.7567L48.9717 22.742L48.6404 22.5083L44.3969 28.523L44.7282 28.7567ZM49.0087 22.6182C49.0002 22.372 48.9663 22.1601 48.889 22.0056L48.5263 22.1869C48.5639 22.262 48.5955 22.4028 48.6034 22.6321L49.0087 22.6182ZM48.8914 22.0105C48.8095 21.8351 48.6701 21.7145 48.4852 21.6568L48.3643 22.0438C48.4419 22.068 48.491 22.1114 48.5239 22.182L48.8914 22.0105ZM48.4852 21.6568C48.3293 21.608 48.1037 21.5784 47.8217 21.5618L47.7979 21.9665C48.0734 21.9828 48.2579 22.0105 48.3643 22.0438L48.4852 21.6568ZM48.0125 21.7642V21.5182H47.607V21.7642H48.0125ZM47.7968 21.7205C48.1885 21.7455 48.7141 21.7578 49.3719 21.7578V21.3523C48.7176 21.3523 48.2018 21.34 47.8227 21.3158L47.7968 21.7205ZM49.3719 21.7578C50.078 21.7578 50.6088 21.7455 50.9607 21.7204L50.9318 21.3159C50.595 21.34 50.0761 21.3523 49.3719 21.3523V21.7578ZM50.7435 21.5182V21.7642H51.149V21.5182H50.7435ZM59.248 21.7642L59.2593 21.9666L59.4508 21.9559V21.7642H59.248ZM58.5961 21.8626L58.5286 21.6713L58.5249 21.6727L58.5961 21.8626ZM58.3255 22.1455L58.1343 22.078V22.078L58.3255 22.1455ZM58.3255 29.5993L58.1343 29.6667V29.6667L58.3255 29.5993ZM58.5961 29.8822L58.5249 30.072L58.5286 30.0733L58.5961 29.8822ZM59.248 29.9806H59.4508V29.7888L59.2593 29.7781L59.248 29.9806ZM59.248 30.2266L59.2336 30.4288L59.4508 30.4443V30.2266H59.248ZM56.1115 30.2266H55.9088V30.4427L56.1244 30.4289L56.1115 30.2266ZM56.1115 29.9806L56.1003 29.7781L55.9088 29.7888V29.9806H56.1115ZM56.7511 29.8822L56.6836 29.6909L56.6799 29.6923L56.7511 29.8822ZM57.034 29.5993L57.2252 29.6667H57.2252L57.034 29.5993ZM57.1078 26.0938H57.3106V25.891H57.1078V26.0938ZM55.1521 26.3029L55.2797 26.4604V26.4604L55.1521 26.3029ZM54.7585 26.8564L54.5697 26.7822L54.5676 26.7882L54.7585 26.8564ZM54.4879 27.8404L54.2904 27.7948L54.2899 27.7968L54.4879 27.8404ZM54.2173 29.0704L54.0193 29.0268L54.0192 29.0274L54.2173 29.0704ZM53.7253 30.1036L53.5906 29.952L53.5878 29.9546L53.7253 30.1036ZM52.1509 30.2143L52.0402 30.3841V30.3841L52.1509 30.2143ZM51.5851 29.6116L51.4652 29.4481L51.3078 29.5635L51.4172 29.7252L51.5851 29.6116ZM51.7696 29.4763L51.9318 29.3546L51.8115 29.1942L51.6497 29.3128L51.7696 29.4763ZM52.0894 29.833L51.9609 29.99L51.9678 29.9952L52.0894 29.833ZM52.8028 29.7346L52.9776 29.8374L52.98 29.833L52.8028 29.7346ZM53.0488 28.9351L52.851 28.8905L52.8505 28.8929L53.0488 28.9351ZM53.3317 27.6805L53.5295 27.7251L53.5296 27.7244L53.3317 27.6805ZM53.8975 26.5489L53.7614 26.3986V26.3986L53.8975 26.5489ZM55.1029 26.0569L55.0721 25.8565L55.0696 25.8569L55.1029 26.0569ZM55.2628 26.0323L55.2936 26.2326L55.2926 25.8317L55.2628 26.0323ZM53.467 25.1836L53.3087 25.3102L53.3113 25.3134L53.467 25.1836ZM53.6884 22.1332L53.8125 22.2935L53.8129 22.2932L53.6884 22.1332ZM56.419 21.5428L56.4084 21.7454L56.4171 21.7455L56.419 21.5428ZM57.7474 21.5551L57.7455 21.7578H57.7474V21.5551ZM59.248 21.5182H59.4508V21.3004L59.2336 21.3159L59.248 21.5182ZM54.6109 25.2943L54.7675 25.1655V25.1655L54.6109 25.2943ZM57.1078 25.8478V26.0505H57.3106V25.8478H57.1078ZM57.034 22.1578L57.2263 22.0937V22.0937L57.034 22.1578ZM56.7634 21.8503L56.6777 22.034L56.6822 22.036L56.7634 21.8503ZM54.6355 22.2685L54.4904 22.1269L54.4886 22.1287L54.6355 22.2685ZM59.2368 21.5617C58.9375 21.5784 58.6964 21.6122 58.5286 21.6714L58.6636 22.0537C58.7747 22.0145 58.9681 21.9828 59.2593 21.9666L59.2368 21.5617ZM58.5249 21.6727C58.3342 21.7443 58.2022 21.8856 58.1343 22.078L58.5167 22.2129C58.5472 22.1265 58.5957 22.0793 58.6673 22.0524L58.5249 21.6727ZM58.1343 22.078C58.0729 22.252 58.049 22.5071 58.049 22.822H58.4545C58.4545 22.5137 58.4797 22.3177 58.5167 22.2129L58.1343 22.078ZM58.049 22.822V28.9228H58.4545V22.822H58.049ZM58.049 28.9228C58.049 29.2377 58.0729 29.4927 58.1343 29.6667L58.5167 29.5318C58.4797 29.427 58.4545 29.2311 58.4545 28.9228H58.049ZM58.1343 29.6667C58.2022 29.8591 58.3342 30.0005 58.5249 30.072L58.6673 29.6923C58.5957 29.6655 58.5472 29.6182 58.5167 29.5318L58.1343 29.6667ZM58.5286 30.0733C58.6964 30.1325 58.9375 30.1664 59.2368 30.183L59.2593 29.7781C58.9681 29.762 58.7747 29.7302 58.6636 29.691L58.5286 30.0733ZM59.0453 29.9806V30.2266H59.4508V29.9806H59.0453ZM59.2625 30.0243C58.9105 29.9992 58.3798 29.9869 57.6736 29.9869V30.3924C58.3779 30.3924 58.8967 30.4047 59.2336 30.4288L59.2625 30.0243ZM57.6736 29.9869C57.0158 29.9869 56.4902 29.9992 56.0986 30.0242L56.1244 30.4289C56.5036 30.4047 57.0194 30.3924 57.6736 30.3924V29.9869ZM56.3143 30.2266V29.9806H55.9088V30.2266H56.3143ZM56.1228 30.183C56.4209 30.1664 56.6604 30.1327 56.8223 30.072L56.6799 29.6923C56.5794 29.73 56.3925 29.7619 56.1003 29.7781L56.1228 30.183ZM56.8186 30.0733C57.0158 30.0037 57.1556 29.864 57.2252 29.6667L56.8428 29.5318C56.814 29.6134 56.7652 29.6622 56.6836 29.691L56.8186 30.0733ZM57.2252 29.6667C57.2866 29.4927 57.3106 29.2377 57.3106 28.9228H56.9051C56.9051 29.2311 56.8798 29.427 56.8428 29.5318L57.2252 29.6667ZM57.3106 28.9228V26.0938H56.9051V28.9228H57.3106ZM57.1078 25.891H55.8778V26.2965H57.1078V25.891ZM55.8778 25.891C55.5383 25.891 55.245 25.9668 55.0246 26.1453L55.2797 26.4604C55.4036 26.3601 55.5941 26.2965 55.8778 26.2965V25.891ZM55.0246 26.1453C54.8221 26.3092 54.6714 26.5238 54.5698 26.7822L54.9472 26.9305C55.0261 26.7297 55.1377 26.5754 55.2797 26.4604L55.0246 26.1453ZM54.5676 26.7882C54.4817 27.0288 54.3894 27.3657 54.2904 27.7948L54.6855 27.886C54.7832 27.4622 54.8714 27.1431 54.9494 26.9245L54.5676 26.7882ZM54.2899 27.7968L54.0193 29.0268L54.4153 29.1139L54.6859 27.8839L54.2899 27.7968ZM54.0192 29.0274C53.916 29.5039 53.7643 29.7976 53.5906 29.952L53.86 30.2551C54.1291 30.0159 54.3055 29.6209 54.4155 29.1133L54.0192 29.0274ZM53.5878 29.9546C53.418 30.1114 53.1951 30.196 52.9012 30.196V30.6015C53.2797 30.6015 53.6063 30.4894 53.8628 30.2525L53.5878 29.9546ZM52.9012 30.196C52.6144 30.196 52.4069 30.1392 52.2617 30.0444L52.0402 30.3841C52.2721 30.5353 52.5649 30.6015 52.9012 30.6015V30.196ZM52.2617 30.0444C52.104 29.9416 51.9333 29.7644 51.753 29.498L51.4172 29.7252C51.6141 30.0163 51.8206 30.2409 52.0402 30.3841L52.2617 30.0444ZM51.705 29.7751L51.8895 29.6397L51.6497 29.3128L51.4652 29.4481L51.705 29.7751ZM51.6074 29.5979C51.734 29.7667 51.8521 29.9008 51.961 29.9899L52.2178 29.6761C52.1463 29.6176 52.0512 29.5138 51.9318 29.3546L51.6074 29.5979ZM51.9678 29.9952C52.1059 30.0987 52.269 30.1464 52.4461 30.1464V29.7409C52.3445 29.7409 52.2698 29.7148 52.2111 29.6708L51.9678 29.9952ZM52.4461 30.1464C52.6771 30.1464 52.8608 30.0358 52.9776 29.8374L52.6281 29.6318C52.5808 29.7121 52.5268 29.7409 52.4461 29.7409V30.1464ZM52.98 29.833C53.0782 29.6564 53.165 29.3632 53.2471 28.9773L52.8505 28.8929C52.7686 29.2778 52.6915 29.5175 52.6256 29.6361L52.98 29.833ZM53.2466 28.9797L53.5295 27.7251L53.1339 27.6359L52.851 28.8905L53.2466 28.9797ZM53.5296 27.7244C53.6396 27.2296 53.8143 26.8979 54.0337 26.6991L53.7614 26.3986C53.456 26.6754 53.2535 27.0981 53.1338 27.6365L53.5296 27.7244ZM54.0337 26.6991C54.2555 26.498 54.6139 26.3439 55.1362 26.2568L55.0696 25.8569C54.5095 25.9502 54.0643 26.1241 53.7614 26.3986L54.0337 26.6991ZM55.1337 26.2572L55.2936 26.2326L55.232 25.8319L55.0721 25.8565L55.1337 26.2572ZM55.2926 25.8317C54.4917 25.7128 53.9481 25.4442 53.6228 25.0538L53.3113 25.3134C53.7239 25.8086 54.3775 26.1057 55.233 26.2328L55.2926 25.8317ZM53.6253 25.0569C53.2922 24.6405 53.1286 24.1805 53.1286 23.6707H52.7231C52.7231 24.276 52.9203 24.8247 53.3087 25.3102L53.6253 25.0569ZM53.1286 23.6707C53.1286 23.1033 53.3527 22.6495 53.8125 22.2935L53.5643 21.9729C53.0074 22.404 52.7231 22.9752 52.7231 23.6707H53.1286ZM53.8129 22.2932C54.2809 21.9291 54.9642 21.7332 55.8901 21.7332V21.3277C54.9136 21.3277 54.1291 21.5336 53.5639 21.9731L53.8129 22.2932ZM55.8901 21.7332C56.0842 21.7332 56.2569 21.7372 56.4084 21.7452L56.4297 21.3403C56.2696 21.3319 56.0896 21.3277 55.8901 21.3277V21.7332ZM56.4171 21.7455L57.7455 21.7578L57.7493 21.3523L56.4209 21.34L56.4171 21.7455ZM57.7474 21.7578C58.4048 21.7578 58.9107 21.7455 59.2625 21.7204L59.2336 21.3159C58.8965 21.34 58.4021 21.3523 57.7474 21.3523V21.7578ZM59.0453 21.5182V21.7642H59.4508V21.5182H59.0453ZM53.9531 23.7199C53.9531 24.4279 54.1107 25.0051 54.4543 25.423L54.7675 25.1655C54.5044 24.8455 54.3586 24.3731 54.3586 23.7199H53.9531ZM54.4543 25.423C54.8163 25.8633 55.4523 26.0505 56.2837 26.0505V25.645C55.4915 25.645 55.0123 25.4632 54.7675 25.1655L54.4543 25.423ZM56.2837 26.0505H57.1078V25.645H56.2837V26.0505ZM57.3106 25.8478V22.822H56.9051V25.8478H57.3106ZM57.3106 22.822C57.3106 22.5208 57.2861 22.2729 57.2263 22.0937L56.8417 22.2219C56.8803 22.3378 56.9051 22.5327 56.9051 22.822H57.3106ZM57.2263 22.0937C57.1608 21.8969 57.0333 21.7471 56.8447 21.6645L56.6822 22.036C56.7559 22.0683 56.8089 22.1234 56.8417 22.2219L57.2263 22.0937ZM56.8492 21.6665C56.685 21.5899 56.46 21.5614 56.1976 21.5614V21.9669C56.4436 21.9669 56.5958 21.9958 56.6777 22.034L56.8492 21.6665ZM56.1976 21.5614C55.4576 21.5614 54.8725 21.7353 54.4904 22.1269L54.7806 22.41C55.0546 22.1292 55.5109 21.9669 56.1976 21.9669V21.5614ZM54.4886 22.1287C54.1217 22.5145 53.9531 23.0555 53.9531 23.7199H54.3586C54.3586 23.1214 54.5098 22.6948 54.7824 22.4082L54.4886 22.1287Z" fill="#FEF5EB" mask="url(#path-5-outside-1_23632_22753)"/>
</g>
</g>
<defs>
<linearGradient id="paint0_linear_23632_22753" x1="34" y1="-1.04141e-05" x2="34" y2="68" gradientUnits="userSpaceOnUse">
<stop stop-color="#C93D34"/>
<stop offset="1" stop-color="#7A2629"/>
</linearGradient>
<linearGradient id="paint1_linear_23632_22753" x1="34" y1="-1.04141e-05" x2="34" y2="68" gradientUnits="userSpaceOnUse">
<stop stop-color="#C93D34"/>
<stop offset="1" stop-color="#7A2629"/>
</linearGradient>
<clipPath id="clip0_23632_22753">
<rect width="68" height="68" fill="white"/>
</clipPath>
</defs>
</svg>
