<svg width="68" height="68" viewBox="0 0 68 68" fill="none" xmlns="http://www.w3.org/2000/svg">
<g clip-path="url(#clip0_23632_22615)">
<mask id="mask0_23632_22615" style="mask-type:alpha" maskUnits="userSpaceOnUse" x="0" y="0" width="68" height="68">
<path fill-rule="evenodd" clip-rule="evenodd" d="M47.0333 0H20.9667C13.5811 0 8.89667 0.0377779 4.45778 4.45778C0.018889 8.89667 0 13.6 0 20.9667V47.0333C0 54.4189 0.0377779 59.1033 4.45778 63.5422C8.89667 67.9811 13.6 68 20.9667 68H47.0333C54.4189 68 59.1033 67.9811 63.5422 63.5422C67.9622 59.1033 68 54.4 68 47.0333V20.9667C68 13.5811 67.9622 8.89667 63.5422 4.45778C59.1033 0.018889 54.4 0 47.0333 0Z" fill="url(#paint0_linear_23632_22615)"/>
</mask>
<g mask="url(#mask0_23632_22615)">
<rect width="68" height="68" fill="url(#paint1_linear_23632_22615)"/>
<path fill-rule="evenodd" clip-rule="evenodd" d="M15.6212 64.3735C26.4256 64.3735 45.6357 64.3735 45.6357 64.3735C52.5868 64.3735 57.0823 64.6379 61.2379 60.4446C64.8079 56.8746 64.5057 50.8679 64.7323 46.1079C60.709 52.1524 53.3234 51.9446 47.619 51.9446C47.619 51.9446 20.929 51.9446 10.9556 51.9446C0.982316 51.9635 4.81676 64.3735 15.6212 64.3735Z" fill="#FEF5EB"/>
<path d="M12.4854 53.5312H23.1387V61.5213L17.812 58.8579L12.4854 61.5213V53.5312Z" fill="#F19C33"/>
<mask id="path-5-outside-1_23632_22615" maskUnits="userSpaceOnUse" x="11.1016" y="9.22656" width="46" height="29" fill="black">
<rect fill="white" x="11.1016" y="9.22656" width="46" height="29"/>
<path d="M16.6924 13.1606C17.1031 13.1606 17.4251 13.2072 17.6584 13.3006C17.9011 13.3846 18.1484 13.5106 18.4004 13.6786C18.6057 13.8092 18.7644 13.8746 18.8764 13.8746C18.9604 13.8746 19.0257 13.8279 19.0724 13.7346C19.1191 13.6319 19.1564 13.4732 19.1844 13.2586H19.5064C19.4597 13.7999 19.4364 14.7519 19.4364 16.1146H19.1144C19.0584 15.3586 18.8391 14.7239 18.4564 14.2106C18.0831 13.6879 17.5371 13.4266 16.8184 13.4266C16.3144 13.4266 15.9037 13.5806 15.5864 13.8886C15.2691 14.1872 15.1104 14.5746 15.1104 15.0506C15.1104 15.4052 15.1897 15.7132 15.3484 15.9746C15.5164 16.2359 15.7264 16.4599 15.9784 16.6466C16.2304 16.8332 16.5897 17.0712 17.0564 17.3606L17.4624 17.6126C18.0504 17.9766 18.5124 18.2986 18.8484 18.5786C19.1937 18.8492 19.4691 19.1619 19.6744 19.5166C19.8797 19.8712 19.9824 20.2866 19.9824 20.7626C19.9824 21.6119 19.7024 22.2699 19.1424 22.7366C18.5824 23.1939 17.8731 23.4226 17.0144 23.4226C16.5664 23.4226 16.1977 23.3759 15.9084 23.2826C15.6284 23.1892 15.3577 23.0632 15.0964 22.9046C14.8911 22.7739 14.7324 22.7086 14.6204 22.7086C14.5364 22.7086 14.4711 22.7599 14.4244 22.8626C14.3777 22.9559 14.3404 23.1099 14.3124 23.3246H13.9904C14.0277 22.8112 14.0464 21.6912 14.0464 19.9646H14.3684C14.4337 20.9072 14.6671 21.6726 15.0684 22.2606C15.4697 22.8486 16.0857 23.1426 16.9164 23.1426C17.4204 23.1426 17.8497 22.9886 18.2044 22.6806C18.5591 22.3632 18.7364 21.8966 18.7364 21.2806C18.7364 20.7579 18.5591 20.3146 18.2044 19.9506C17.8591 19.5866 17.3084 19.1759 16.5524 18.7186C16.0017 18.3826 15.5537 18.0839 15.2084 17.8226C14.8724 17.5612 14.5971 17.2486 14.3824 16.8846C14.1677 16.5112 14.0604 16.0772 14.0604 15.5826C14.0604 14.7986 14.3124 14.2012 14.8164 13.7906C15.3204 13.3706 15.9457 13.1606 16.6924 13.1606ZM28.8026 13.3566C29.2226 13.3566 29.5726 13.3426 29.8526 13.3146V13.5946C29.3859 13.7066 29.0172 14.1126 28.7466 14.8126L25.4566 23.2966H25.3446H25.2326L21.8166 14.4906C21.5926 13.9119 21.2706 13.6132 20.8506 13.5946V13.3146C21.2239 13.3426 21.7232 13.3566 22.3486 13.3566C23.1512 13.3566 23.7486 13.3426 24.1406 13.3146V13.5946C23.7859 13.6132 23.5292 13.6599 23.3706 13.7346C23.2212 13.7999 23.1466 13.9259 23.1466 14.1126C23.1466 14.2712 23.2026 14.4906 23.3146 14.7706L25.8486 21.5046L28.1306 15.5826C28.3172 15.0786 28.4106 14.6959 28.4106 14.4346C28.4106 14.1452 28.3079 13.9352 28.1026 13.8046C27.9066 13.6739 27.6032 13.6039 27.1926 13.5946V13.3146C27.7246 13.3426 28.2612 13.3566 28.8026 13.3566ZM37.0542 22.0506C37.2782 22.6292 37.6002 22.9279 38.0202 22.9466V23.2266C37.6469 23.1986 37.1475 23.1846 36.5222 23.1846C35.7195 23.1846 35.1222 23.1986 34.7302 23.2266V22.9466C35.0849 22.9279 35.3369 22.8859 35.4862 22.8206C35.6449 22.7459 35.7242 22.6152 35.7242 22.4286C35.7242 22.2699 35.6682 22.0506 35.5562 21.7706L34.7022 19.4746H31.3142L30.7402 20.9586C30.5535 21.4626 30.4602 21.8452 30.4602 22.1066C30.4602 22.3959 30.5582 22.6059 30.7542 22.7366C30.9595 22.8672 31.2675 22.9372 31.6782 22.9466V23.2266C31.1462 23.1986 30.6095 23.1846 30.0682 23.1846C29.6482 23.1846 29.2982 23.1986 29.0182 23.2266V22.9466C29.4849 22.8346 29.8535 22.4286 30.1242 21.7286L33.4142 13.2446H33.6382L37.0542 22.0506ZM34.5902 19.1946L33.0222 15.0086L31.4262 19.1946H34.5902ZM32.0282 10.7946C32.2429 10.7946 32.4295 10.8786 32.5882 11.0466C32.7562 11.2052 32.8402 11.3919 32.8402 11.6066C32.8402 11.8306 32.7562 12.0219 32.5882 12.1806C32.4295 12.3392 32.2429 12.4186 32.0282 12.4186C31.8042 12.4186 31.6129 12.3392 31.4542 12.1806C31.2955 12.0219 31.2162 11.8306 31.2162 11.6066C31.2162 11.3919 31.2955 11.2052 31.4542 11.0466C31.6129 10.8786 31.8042 10.7946 32.0282 10.7946ZM34.9962 10.7946C35.2109 10.7946 35.3975 10.8786 35.5562 11.0466C35.7242 11.2052 35.8082 11.3919 35.8082 11.6066C35.8082 11.8306 35.7242 12.0219 35.5562 12.1806C35.3975 12.3392 35.2109 12.4186 34.9962 12.4186C34.7722 12.4186 34.5809 12.3392 34.4222 12.1806C34.2635 12.0219 34.1842 11.8306 34.1842 11.6066C34.1842 11.3919 34.2635 11.2052 34.4222 11.0466C34.5809 10.8786 34.7722 10.7946 34.9962 10.7946ZM45.7909 13.3146C45.7256 13.9772 45.6929 14.5746 45.6929 15.1066C45.6929 15.5732 45.7069 15.9559 45.7349 16.2546H45.4129C45.3383 15.5359 45.2449 15.0039 45.1329 14.6586C45.0209 14.3039 44.8249 14.0472 44.5449 13.8886C44.2649 13.7206 43.8356 13.6366 43.2569 13.6366H42.5009V21.6026C42.5009 21.9946 42.5383 22.2792 42.6129 22.4566C42.6876 22.6339 42.8183 22.7552 43.0049 22.8206C43.1916 22.8859 43.4949 22.9279 43.9149 22.9466V23.2266C43.4296 23.1986 42.7436 23.1846 41.8569 23.1846C40.9236 23.1846 40.2329 23.1986 39.7849 23.2266V22.9466C40.2049 22.9279 40.5083 22.8859 40.6949 22.8206C40.8816 22.7552 41.0123 22.6339 41.0869 22.4566C41.1616 22.2792 41.1989 21.9946 41.1989 21.6026V13.6366H40.4429C39.8643 13.6366 39.4349 13.7206 39.1549 13.8886C38.8749 14.0472 38.6789 14.3039 38.5669 14.6586C38.4549 15.0039 38.3616 15.5359 38.2869 16.2546H37.9649C37.9929 15.9559 38.0069 15.5732 38.0069 15.1066C38.0069 14.5746 37.9743 13.9772 37.9089 13.3146C38.6836 13.3426 39.9996 13.3566 41.8569 13.3566C43.7049 13.3566 45.0163 13.3426 45.7909 13.3146ZM53.7456 22.0506C53.9696 22.6292 54.2916 22.9279 54.7116 22.9466V23.2266C54.3383 23.1986 53.839 23.1846 53.2136 23.1846C52.411 23.1846 51.8136 23.1986 51.4216 23.2266V22.9466C51.7763 22.9279 52.0283 22.8859 52.1776 22.8206C52.3363 22.7459 52.4156 22.6152 52.4156 22.4286C52.4156 22.2699 52.3596 22.0506 52.2476 21.7706L51.3936 19.4746H48.0056L47.4316 20.9586C47.245 21.4626 47.1516 21.8452 47.1516 22.1066C47.1516 22.3959 47.2496 22.6059 47.4456 22.7366C47.651 22.8672 47.959 22.9372 48.3696 22.9466V23.2266C47.8376 23.1986 47.301 23.1846 46.7596 23.1846C46.3396 23.1846 45.9896 23.1986 45.7096 23.2266V22.9466C46.1763 22.8346 46.545 22.4286 46.8156 21.7286L50.1056 13.2446H50.3296L53.7456 22.0506ZM51.2816 19.1946L49.7136 15.0086L48.1176 19.1946H51.2816ZM51.7016 10.2626C51.851 10.1692 51.991 10.1226 52.1216 10.1226C52.299 10.1226 52.4436 10.2019 52.5556 10.3606C52.6116 10.4446 52.6396 10.5332 52.6396 10.6266C52.6396 10.8319 52.5136 11.0139 52.2616 11.1726C52.0656 11.2939 51.7296 11.4432 51.2536 11.6206C50.5536 11.9006 49.9516 12.1666 49.4476 12.4186L49.3496 12.2366C49.7323 11.9472 50.059 11.6812 50.3296 11.4386C50.6096 11.1866 50.7823 11.0326 50.8476 10.9766C51.193 10.6499 51.4776 10.4119 51.7016 10.2626ZM16.6764 31.9906C17.7031 32.1306 18.4358 32.4292 18.8744 32.8866C19.3131 33.3346 19.5324 33.8759 19.5324 34.5106C19.5324 35.0426 19.3971 35.5139 19.1264 35.9246C18.8558 36.3352 18.4684 36.6572 17.9644 36.8906C17.4604 37.1146 16.8631 37.2266 16.1724 37.2266C15.9204 37.2266 15.7058 37.2219 15.5284 37.2126C14.9311 37.1939 14.3431 37.1846 13.7644 37.1846C12.9991 37.1846 12.4204 37.1986 12.0284 37.2266V36.9466C12.3644 36.9279 12.6071 36.8906 12.7564 36.8346C12.9151 36.7786 13.0224 36.6712 13.0784 36.5126C13.1344 36.3539 13.1624 36.0972 13.1624 35.7426V28.7986C13.1624 28.4439 13.1344 28.1872 13.0784 28.0286C13.0224 27.8699 12.9151 27.7626 12.7564 27.7066C12.6071 27.6506 12.3644 27.6132 12.0284 27.5946V27.3146C12.4204 27.3426 12.9898 27.3566 13.7364 27.3566L15.2484 27.3426C15.4258 27.3332 15.6264 27.3286 15.8504 27.3286C16.8024 27.3286 17.5304 27.5292 18.0344 27.9306C18.5478 28.3319 18.8044 28.8639 18.8044 29.5266C18.8044 30.0679 18.6318 30.5532 18.2864 30.9826C17.9504 31.4119 17.4138 31.7386 16.6764 31.9626V31.9906ZM15.5004 27.5946C15.2111 27.5946 14.9918 27.6272 14.8424 27.6926C14.7024 27.7579 14.6044 27.8746 14.5484 28.0426C14.4924 28.2106 14.4644 28.4626 14.4644 28.7986V31.9626H15.4024C16.1678 31.9626 16.6998 31.7572 16.9984 31.3466C17.3064 30.9266 17.4604 30.3712 17.4604 29.6806C17.4604 28.9806 17.3064 28.4579 16.9984 28.1126C16.6904 27.7672 16.1911 27.5946 15.5004 27.5946ZM15.5144 36.9046C17.2598 36.9046 18.1324 36.0879 18.1324 34.4546C18.1324 33.7172 17.9318 33.1572 17.5304 32.7746C17.1384 32.3919 16.5084 32.2006 15.6404 32.2006H14.4644V35.7426C14.4644 36.0786 14.4924 36.3259 14.5484 36.4846C14.6044 36.6432 14.7024 36.7552 14.8424 36.8206C14.9918 36.8766 15.2158 36.9046 15.5144 36.9046ZM24.491 27.5946C24.155 27.6132 23.9077 27.6506 23.749 27.7066C23.5997 27.7626 23.497 27.8699 23.441 28.0286C23.385 28.1872 23.357 28.4439 23.357 28.7986V35.7426C23.357 36.0972 23.385 36.3539 23.441 36.5126C23.497 36.6712 23.5997 36.7786 23.749 36.8346C23.9077 36.8906 24.155 36.9279 24.491 36.9466V37.2266C24.0617 37.1986 23.469 37.1846 22.713 37.1846C21.9103 37.1846 21.313 37.1986 20.921 37.2266V36.9466C21.257 36.9279 21.4997 36.8906 21.649 36.8346C21.8077 36.7786 21.915 36.6712 21.971 36.5126C22.027 36.3539 22.055 36.0972 22.055 35.7426V28.7986C22.055 28.4439 22.027 28.1872 21.971 28.0286C21.915 27.8699 21.8077 27.7626 21.649 27.7066C21.4997 27.6506 21.257 27.6132 20.921 27.5946V27.3146C21.313 27.3426 21.9103 27.3566 22.713 27.3566C23.4597 27.3566 24.0523 27.3426 24.491 27.3146V27.5946ZM30.5788 31.9906C31.6054 32.1306 32.3381 32.4292 32.7768 32.8866C33.2154 33.3346 33.4348 33.8759 33.4348 34.5106C33.4348 35.0426 33.2994 35.5139 33.0288 35.9246C32.7581 36.3352 32.3708 36.6572 31.8668 36.8906C31.3628 37.1146 30.7654 37.2266 30.0748 37.2266C29.8228 37.2266 29.6081 37.2219 29.4308 37.2126C28.8334 37.1939 28.2454 37.1846 27.6668 37.1846C26.9014 37.1846 26.3228 37.1986 25.9308 37.2266V36.9466C26.2668 36.9279 26.5094 36.8906 26.6588 36.8346C26.8174 36.7786 26.9248 36.6712 26.9808 36.5126C27.0368 36.3539 27.0648 36.0972 27.0648 35.7426V28.7986C27.0648 28.4439 27.0368 28.1872 26.9808 28.0286C26.9248 27.8699 26.8174 27.7626 26.6588 27.7066C26.5094 27.6506 26.2668 27.6132 25.9308 27.5946V27.3146C26.3228 27.3426 26.8921 27.3566 27.6388 27.3566L29.1508 27.3426C29.3281 27.3332 29.5288 27.3286 29.7528 27.3286C30.7048 27.3286 31.4328 27.5292 31.9368 27.9306C32.4501 28.3319 32.7068 28.8639 32.7068 29.5266C32.7068 30.0679 32.5341 30.5532 32.1888 30.9826C31.8528 31.4119 31.3161 31.7386 30.5788 31.9626V31.9906ZM29.4028 27.5946C29.1134 27.5946 28.8941 27.6272 28.7448 27.6926C28.6048 27.7579 28.5068 27.8746 28.4508 28.0426C28.3948 28.2106 28.3668 28.4626 28.3668 28.7986V31.9626H29.3048C30.0701 31.9626 30.6021 31.7572 30.9008 31.3466C31.2088 30.9266 31.3628 30.3712 31.3628 29.6806C31.3628 28.9806 31.2088 28.4579 30.9008 28.1126C30.5928 27.7672 30.0934 27.5946 29.4028 27.5946ZM29.4168 36.9046C31.1621 36.9046 32.0348 36.0879 32.0348 34.4546C32.0348 33.7172 31.8341 33.1572 31.4328 32.7746C31.0408 32.3919 30.4108 32.2006 29.5428 32.2006H28.3668V35.7426C28.3668 36.0786 28.3948 36.3259 28.4508 36.4846C28.5068 36.6432 28.6048 36.7552 28.7448 36.8206C28.8941 36.8766 29.1181 36.9046 29.4168 36.9046ZM38.3934 27.5946C38.0574 27.6132 37.81 27.6506 37.6514 27.7066C37.502 27.7626 37.3994 27.8699 37.3434 28.0286C37.2874 28.1872 37.2594 28.4439 37.2594 28.7986V35.7426C37.2594 36.0972 37.2874 36.3539 37.3434 36.5126C37.3994 36.6712 37.502 36.7786 37.6514 36.8346C37.81 36.8812 38.0574 36.9046 38.3934 36.9046H39.4154C39.994 36.9046 40.4327 36.8252 40.7314 36.6666C41.0394 36.4986 41.2634 36.2326 41.4034 35.8686C41.5434 35.5046 41.646 34.9772 41.7114 34.2866H42.0334C42.0054 34.5759 41.9914 34.9586 41.9914 35.4346C41.9914 35.9666 42.024 36.5639 42.0894 37.2266C41.4547 37.1986 40.386 37.1846 38.8834 37.1846C37.0914 37.1846 35.738 37.1986 34.8234 37.2266V36.9466C35.1594 36.9279 35.402 36.8906 35.5514 36.8346C35.71 36.7786 35.8174 36.6712 35.8734 36.5126C35.9294 36.3539 35.9574 36.0972 35.9574 35.7426V28.7986C35.9574 28.4439 35.9294 28.1872 35.8734 28.0286C35.8174 27.8699 35.71 27.7626 35.5514 27.7066C35.402 27.6506 35.1594 27.6132 34.8234 27.5946V27.3146C35.2154 27.3426 35.8127 27.3566 36.6154 27.3566C37.362 27.3566 37.9547 27.3426 38.3934 27.3146V27.5946ZM46.8894 27.5946C46.5534 27.6132 46.3061 27.6506 46.1474 27.7066C45.9981 27.7626 45.8954 27.8699 45.8394 28.0286C45.7834 28.1872 45.7554 28.4439 45.7554 28.7986V35.7426C45.7554 36.0972 45.7834 36.3539 45.8394 36.5126C45.8954 36.6712 45.9981 36.7786 46.1474 36.8346C46.3061 36.8906 46.5534 36.9279 46.8894 36.9466V37.2266C46.4601 37.1986 45.8674 37.1846 45.1114 37.1846C44.3088 37.1846 43.7114 37.1986 43.3194 37.2266V36.9466C43.6554 36.9279 43.8981 36.8906 44.0474 36.8346C44.2061 36.7786 44.3134 36.6712 44.3694 36.5126C44.4254 36.3539 44.4534 36.0972 44.4534 35.7426V28.7986C44.4534 28.4439 44.4254 28.1872 44.3694 28.0286C44.3134 27.8699 44.2061 27.7626 44.0474 27.7066C43.8981 27.6506 43.6554 27.6132 43.3194 27.5946V27.3146C43.7114 27.3426 44.3088 27.3566 45.1114 27.3566C45.8581 27.3566 46.4508 27.3426 46.8894 27.3146V27.5946ZM55.6792 36.0506C55.9032 36.6292 56.2252 36.9279 56.6452 36.9466V37.2266C56.2719 37.1986 55.7725 37.1846 55.1472 37.1846C54.3445 37.1846 53.7472 37.1986 53.3552 37.2266V36.9466C53.7099 36.9279 53.9619 36.8859 54.1112 36.8206C54.2699 36.7459 54.3492 36.6152 54.3492 36.4286C54.3492 36.2699 54.2932 36.0506 54.1812 35.7706L53.3272 33.4746H49.9392L49.3652 34.9586C49.1785 35.4626 49.0852 35.8452 49.0852 36.1066C49.0852 36.3959 49.1832 36.6059 49.3792 36.7366C49.5845 36.8672 49.8925 36.9372 50.3032 36.9466V37.2266C49.7712 37.1986 49.2345 37.1846 48.6932 37.1846C48.2732 37.1846 47.9232 37.1986 47.6432 37.2266V36.9466C48.1099 36.8346 48.4785 36.4286 48.7492 35.7286L52.0392 27.2446H52.2632L55.6792 36.0506ZM53.2152 33.1946L51.6472 29.0086L50.0512 33.1946H53.2152Z"/>
</mask>
<path d="M16.6924 13.1606C17.1031 13.1606 17.4251 13.2072 17.6584 13.3006C17.9011 13.3846 18.1484 13.5106 18.4004 13.6786C18.6057 13.8092 18.7644 13.8746 18.8764 13.8746C18.9604 13.8746 19.0257 13.8279 19.0724 13.7346C19.1191 13.6319 19.1564 13.4732 19.1844 13.2586H19.5064C19.4597 13.7999 19.4364 14.7519 19.4364 16.1146H19.1144C19.0584 15.3586 18.8391 14.7239 18.4564 14.2106C18.0831 13.6879 17.5371 13.4266 16.8184 13.4266C16.3144 13.4266 15.9037 13.5806 15.5864 13.8886C15.2691 14.1872 15.1104 14.5746 15.1104 15.0506C15.1104 15.4052 15.1897 15.7132 15.3484 15.9746C15.5164 16.2359 15.7264 16.4599 15.9784 16.6466C16.2304 16.8332 16.5897 17.0712 17.0564 17.3606L17.4624 17.6126C18.0504 17.9766 18.5124 18.2986 18.8484 18.5786C19.1937 18.8492 19.4691 19.1619 19.6744 19.5166C19.8797 19.8712 19.9824 20.2866 19.9824 20.7626C19.9824 21.6119 19.7024 22.2699 19.1424 22.7366C18.5824 23.1939 17.8731 23.4226 17.0144 23.4226C16.5664 23.4226 16.1977 23.3759 15.9084 23.2826C15.6284 23.1892 15.3577 23.0632 15.0964 22.9046C14.8911 22.7739 14.7324 22.7086 14.6204 22.7086C14.5364 22.7086 14.4711 22.7599 14.4244 22.8626C14.3777 22.9559 14.3404 23.1099 14.3124 23.3246H13.9904C14.0277 22.8112 14.0464 21.6912 14.0464 19.9646H14.3684C14.4337 20.9072 14.6671 21.6726 15.0684 22.2606C15.4697 22.8486 16.0857 23.1426 16.9164 23.1426C17.4204 23.1426 17.8497 22.9886 18.2044 22.6806C18.5591 22.3632 18.7364 21.8966 18.7364 21.2806C18.7364 20.7579 18.5591 20.3146 18.2044 19.9506C17.8591 19.5866 17.3084 19.1759 16.5524 18.7186C16.0017 18.3826 15.5537 18.0839 15.2084 17.8226C14.8724 17.5612 14.5971 17.2486 14.3824 16.8846C14.1677 16.5112 14.0604 16.0772 14.0604 15.5826C14.0604 14.7986 14.3124 14.2012 14.8164 13.7906C15.3204 13.3706 15.9457 13.1606 16.6924 13.1606ZM28.8026 13.3566C29.2226 13.3566 29.5726 13.3426 29.8526 13.3146V13.5946C29.3859 13.7066 29.0172 14.1126 28.7466 14.8126L25.4566 23.2966H25.3446H25.2326L21.8166 14.4906C21.5926 13.9119 21.2706 13.6132 20.8506 13.5946V13.3146C21.2239 13.3426 21.7232 13.3566 22.3486 13.3566C23.1512 13.3566 23.7486 13.3426 24.1406 13.3146V13.5946C23.7859 13.6132 23.5292 13.6599 23.3706 13.7346C23.2212 13.7999 23.1466 13.9259 23.1466 14.1126C23.1466 14.2712 23.2026 14.4906 23.3146 14.7706L25.8486 21.5046L28.1306 15.5826C28.3172 15.0786 28.4106 14.6959 28.4106 14.4346C28.4106 14.1452 28.3079 13.9352 28.1026 13.8046C27.9066 13.6739 27.6032 13.6039 27.1926 13.5946V13.3146C27.7246 13.3426 28.2612 13.3566 28.8026 13.3566ZM37.0542 22.0506C37.2782 22.6292 37.6002 22.9279 38.0202 22.9466V23.2266C37.6469 23.1986 37.1475 23.1846 36.5222 23.1846C35.7195 23.1846 35.1222 23.1986 34.7302 23.2266V22.9466C35.0849 22.9279 35.3369 22.8859 35.4862 22.8206C35.6449 22.7459 35.7242 22.6152 35.7242 22.4286C35.7242 22.2699 35.6682 22.0506 35.5562 21.7706L34.7022 19.4746H31.3142L30.7402 20.9586C30.5535 21.4626 30.4602 21.8452 30.4602 22.1066C30.4602 22.3959 30.5582 22.6059 30.7542 22.7366C30.9595 22.8672 31.2675 22.9372 31.6782 22.9466V23.2266C31.1462 23.1986 30.6095 23.1846 30.0682 23.1846C29.6482 23.1846 29.2982 23.1986 29.0182 23.2266V22.9466C29.4849 22.8346 29.8535 22.4286 30.1242 21.7286L33.4142 13.2446H33.6382L37.0542 22.0506ZM34.5902 19.1946L33.0222 15.0086L31.4262 19.1946H34.5902ZM32.0282 10.7946C32.2429 10.7946 32.4295 10.8786 32.5882 11.0466C32.7562 11.2052 32.8402 11.3919 32.8402 11.6066C32.8402 11.8306 32.7562 12.0219 32.5882 12.1806C32.4295 12.3392 32.2429 12.4186 32.0282 12.4186C31.8042 12.4186 31.6129 12.3392 31.4542 12.1806C31.2955 12.0219 31.2162 11.8306 31.2162 11.6066C31.2162 11.3919 31.2955 11.2052 31.4542 11.0466C31.6129 10.8786 31.8042 10.7946 32.0282 10.7946ZM34.9962 10.7946C35.2109 10.7946 35.3975 10.8786 35.5562 11.0466C35.7242 11.2052 35.8082 11.3919 35.8082 11.6066C35.8082 11.8306 35.7242 12.0219 35.5562 12.1806C35.3975 12.3392 35.2109 12.4186 34.9962 12.4186C34.7722 12.4186 34.5809 12.3392 34.4222 12.1806C34.2635 12.0219 34.1842 11.8306 34.1842 11.6066C34.1842 11.3919 34.2635 11.2052 34.4222 11.0466C34.5809 10.8786 34.7722 10.7946 34.9962 10.7946ZM45.7909 13.3146C45.7256 13.9772 45.6929 14.5746 45.6929 15.1066C45.6929 15.5732 45.7069 15.9559 45.7349 16.2546H45.4129C45.3383 15.5359 45.2449 15.0039 45.1329 14.6586C45.0209 14.3039 44.8249 14.0472 44.5449 13.8886C44.2649 13.7206 43.8356 13.6366 43.2569 13.6366H42.5009V21.6026C42.5009 21.9946 42.5383 22.2792 42.6129 22.4566C42.6876 22.6339 42.8183 22.7552 43.0049 22.8206C43.1916 22.8859 43.4949 22.9279 43.9149 22.9466V23.2266C43.4296 23.1986 42.7436 23.1846 41.8569 23.1846C40.9236 23.1846 40.2329 23.1986 39.7849 23.2266V22.9466C40.2049 22.9279 40.5083 22.8859 40.6949 22.8206C40.8816 22.7552 41.0123 22.6339 41.0869 22.4566C41.1616 22.2792 41.1989 21.9946 41.1989 21.6026V13.6366H40.4429C39.8643 13.6366 39.4349 13.7206 39.1549 13.8886C38.8749 14.0472 38.6789 14.3039 38.5669 14.6586C38.4549 15.0039 38.3616 15.5359 38.2869 16.2546H37.9649C37.9929 15.9559 38.0069 15.5732 38.0069 15.1066C38.0069 14.5746 37.9743 13.9772 37.9089 13.3146C38.6836 13.3426 39.9996 13.3566 41.8569 13.3566C43.7049 13.3566 45.0163 13.3426 45.7909 13.3146ZM53.7456 22.0506C53.9696 22.6292 54.2916 22.9279 54.7116 22.9466V23.2266C54.3383 23.1986 53.839 23.1846 53.2136 23.1846C52.411 23.1846 51.8136 23.1986 51.4216 23.2266V22.9466C51.7763 22.9279 52.0283 22.8859 52.1776 22.8206C52.3363 22.7459 52.4156 22.6152 52.4156 22.4286C52.4156 22.2699 52.3596 22.0506 52.2476 21.7706L51.3936 19.4746H48.0056L47.4316 20.9586C47.245 21.4626 47.1516 21.8452 47.1516 22.1066C47.1516 22.3959 47.2496 22.6059 47.4456 22.7366C47.651 22.8672 47.959 22.9372 48.3696 22.9466V23.2266C47.8376 23.1986 47.301 23.1846 46.7596 23.1846C46.3396 23.1846 45.9896 23.1986 45.7096 23.2266V22.9466C46.1763 22.8346 46.545 22.4286 46.8156 21.7286L50.1056 13.2446H50.3296L53.7456 22.0506ZM51.2816 19.1946L49.7136 15.0086L48.1176 19.1946H51.2816ZM51.7016 10.2626C51.851 10.1692 51.991 10.1226 52.1216 10.1226C52.299 10.1226 52.4436 10.2019 52.5556 10.3606C52.6116 10.4446 52.6396 10.5332 52.6396 10.6266C52.6396 10.8319 52.5136 11.0139 52.2616 11.1726C52.0656 11.2939 51.7296 11.4432 51.2536 11.6206C50.5536 11.9006 49.9516 12.1666 49.4476 12.4186L49.3496 12.2366C49.7323 11.9472 50.059 11.6812 50.3296 11.4386C50.6096 11.1866 50.7823 11.0326 50.8476 10.9766C51.193 10.6499 51.4776 10.4119 51.7016 10.2626ZM16.6764 31.9906C17.7031 32.1306 18.4358 32.4292 18.8744 32.8866C19.3131 33.3346 19.5324 33.8759 19.5324 34.5106C19.5324 35.0426 19.3971 35.5139 19.1264 35.9246C18.8558 36.3352 18.4684 36.6572 17.9644 36.8906C17.4604 37.1146 16.8631 37.2266 16.1724 37.2266C15.9204 37.2266 15.7058 37.2219 15.5284 37.2126C14.9311 37.1939 14.3431 37.1846 13.7644 37.1846C12.9991 37.1846 12.4204 37.1986 12.0284 37.2266V36.9466C12.3644 36.9279 12.6071 36.8906 12.7564 36.8346C12.9151 36.7786 13.0224 36.6712 13.0784 36.5126C13.1344 36.3539 13.1624 36.0972 13.1624 35.7426V28.7986C13.1624 28.4439 13.1344 28.1872 13.0784 28.0286C13.0224 27.8699 12.9151 27.7626 12.7564 27.7066C12.6071 27.6506 12.3644 27.6132 12.0284 27.5946V27.3146C12.4204 27.3426 12.9898 27.3566 13.7364 27.3566L15.2484 27.3426C15.4258 27.3332 15.6264 27.3286 15.8504 27.3286C16.8024 27.3286 17.5304 27.5292 18.0344 27.9306C18.5478 28.3319 18.8044 28.8639 18.8044 29.5266C18.8044 30.0679 18.6318 30.5532 18.2864 30.9826C17.9504 31.4119 17.4138 31.7386 16.6764 31.9626V31.9906ZM15.5004 27.5946C15.2111 27.5946 14.9918 27.6272 14.8424 27.6926C14.7024 27.7579 14.6044 27.8746 14.5484 28.0426C14.4924 28.2106 14.4644 28.4626 14.4644 28.7986V31.9626H15.4024C16.1678 31.9626 16.6998 31.7572 16.9984 31.3466C17.3064 30.9266 17.4604 30.3712 17.4604 29.6806C17.4604 28.9806 17.3064 28.4579 16.9984 28.1126C16.6904 27.7672 16.1911 27.5946 15.5004 27.5946ZM15.5144 36.9046C17.2598 36.9046 18.1324 36.0879 18.1324 34.4546C18.1324 33.7172 17.9318 33.1572 17.5304 32.7746C17.1384 32.3919 16.5084 32.2006 15.6404 32.2006H14.4644V35.7426C14.4644 36.0786 14.4924 36.3259 14.5484 36.4846C14.6044 36.6432 14.7024 36.7552 14.8424 36.8206C14.9918 36.8766 15.2158 36.9046 15.5144 36.9046ZM24.491 27.5946C24.155 27.6132 23.9077 27.6506 23.749 27.7066C23.5997 27.7626 23.497 27.8699 23.441 28.0286C23.385 28.1872 23.357 28.4439 23.357 28.7986V35.7426C23.357 36.0972 23.385 36.3539 23.441 36.5126C23.497 36.6712 23.5997 36.7786 23.749 36.8346C23.9077 36.8906 24.155 36.9279 24.491 36.9466V37.2266C24.0617 37.1986 23.469 37.1846 22.713 37.1846C21.9103 37.1846 21.313 37.1986 20.921 37.2266V36.9466C21.257 36.9279 21.4997 36.8906 21.649 36.8346C21.8077 36.7786 21.915 36.6712 21.971 36.5126C22.027 36.3539 22.055 36.0972 22.055 35.7426V28.7986C22.055 28.4439 22.027 28.1872 21.971 28.0286C21.915 27.8699 21.8077 27.7626 21.649 27.7066C21.4997 27.6506 21.257 27.6132 20.921 27.5946V27.3146C21.313 27.3426 21.9103 27.3566 22.713 27.3566C23.4597 27.3566 24.0523 27.3426 24.491 27.3146V27.5946ZM30.5788 31.9906C31.6054 32.1306 32.3381 32.4292 32.7768 32.8866C33.2154 33.3346 33.4348 33.8759 33.4348 34.5106C33.4348 35.0426 33.2994 35.5139 33.0288 35.9246C32.7581 36.3352 32.3708 36.6572 31.8668 36.8906C31.3628 37.1146 30.7654 37.2266 30.0748 37.2266C29.8228 37.2266 29.6081 37.2219 29.4308 37.2126C28.8334 37.1939 28.2454 37.1846 27.6668 37.1846C26.9014 37.1846 26.3228 37.1986 25.9308 37.2266V36.9466C26.2668 36.9279 26.5094 36.8906 26.6588 36.8346C26.8174 36.7786 26.9248 36.6712 26.9808 36.5126C27.0368 36.3539 27.0648 36.0972 27.0648 35.7426V28.7986C27.0648 28.4439 27.0368 28.1872 26.9808 28.0286C26.9248 27.8699 26.8174 27.7626 26.6588 27.7066C26.5094 27.6506 26.2668 27.6132 25.9308 27.5946V27.3146C26.3228 27.3426 26.8921 27.3566 27.6388 27.3566L29.1508 27.3426C29.3281 27.3332 29.5288 27.3286 29.7528 27.3286C30.7048 27.3286 31.4328 27.5292 31.9368 27.9306C32.4501 28.3319 32.7068 28.8639 32.7068 29.5266C32.7068 30.0679 32.5341 30.5532 32.1888 30.9826C31.8528 31.4119 31.3161 31.7386 30.5788 31.9626V31.9906ZM29.4028 27.5946C29.1134 27.5946 28.8941 27.6272 28.7448 27.6926C28.6048 27.7579 28.5068 27.8746 28.4508 28.0426C28.3948 28.2106 28.3668 28.4626 28.3668 28.7986V31.9626H29.3048C30.0701 31.9626 30.6021 31.7572 30.9008 31.3466C31.2088 30.9266 31.3628 30.3712 31.3628 29.6806C31.3628 28.9806 31.2088 28.4579 30.9008 28.1126C30.5928 27.7672 30.0934 27.5946 29.4028 27.5946ZM29.4168 36.9046C31.1621 36.9046 32.0348 36.0879 32.0348 34.4546C32.0348 33.7172 31.8341 33.1572 31.4328 32.7746C31.0408 32.3919 30.4108 32.2006 29.5428 32.2006H28.3668V35.7426C28.3668 36.0786 28.3948 36.3259 28.4508 36.4846C28.5068 36.6432 28.6048 36.7552 28.7448 36.8206C28.8941 36.8766 29.1181 36.9046 29.4168 36.9046ZM38.3934 27.5946C38.0574 27.6132 37.81 27.6506 37.6514 27.7066C37.502 27.7626 37.3994 27.8699 37.3434 28.0286C37.2874 28.1872 37.2594 28.4439 37.2594 28.7986V35.7426C37.2594 36.0972 37.2874 36.3539 37.3434 36.5126C37.3994 36.6712 37.502 36.7786 37.6514 36.8346C37.81 36.8812 38.0574 36.9046 38.3934 36.9046H39.4154C39.994 36.9046 40.4327 36.8252 40.7314 36.6666C41.0394 36.4986 41.2634 36.2326 41.4034 35.8686C41.5434 35.5046 41.646 34.9772 41.7114 34.2866H42.0334C42.0054 34.5759 41.9914 34.9586 41.9914 35.4346C41.9914 35.9666 42.024 36.5639 42.0894 37.2266C41.4547 37.1986 40.386 37.1846 38.8834 37.1846C37.0914 37.1846 35.738 37.1986 34.8234 37.2266V36.9466C35.1594 36.9279 35.402 36.8906 35.5514 36.8346C35.71 36.7786 35.8174 36.6712 35.8734 36.5126C35.9294 36.3539 35.9574 36.0972 35.9574 35.7426V28.7986C35.9574 28.4439 35.9294 28.1872 35.8734 28.0286C35.8174 27.8699 35.71 27.7626 35.5514 27.7066C35.402 27.6506 35.1594 27.6132 34.8234 27.5946V27.3146C35.2154 27.3426 35.8127 27.3566 36.6154 27.3566C37.362 27.3566 37.9547 27.3426 38.3934 27.3146V27.5946ZM46.8894 27.5946C46.5534 27.6132 46.3061 27.6506 46.1474 27.7066C45.9981 27.7626 45.8954 27.8699 45.8394 28.0286C45.7834 28.1872 45.7554 28.4439 45.7554 28.7986V35.7426C45.7554 36.0972 45.7834 36.3539 45.8394 36.5126C45.8954 36.6712 45.9981 36.7786 46.1474 36.8346C46.3061 36.8906 46.5534 36.9279 46.8894 36.9466V37.2266C46.4601 37.1986 45.8674 37.1846 45.1114 37.1846C44.3088 37.1846 43.7114 37.1986 43.3194 37.2266V36.9466C43.6554 36.9279 43.8981 36.8906 44.0474 36.8346C44.2061 36.7786 44.3134 36.6712 44.3694 36.5126C44.4254 36.3539 44.4534 36.0972 44.4534 35.7426V28.7986C44.4534 28.4439 44.4254 28.1872 44.3694 28.0286C44.3134 27.8699 44.2061 27.7626 44.0474 27.7066C43.8981 27.6506 43.6554 27.6132 43.3194 27.5946V27.3146C43.7114 27.3426 44.3088 27.3566 45.1114 27.3566C45.8581 27.3566 46.4508 27.3426 46.8894 27.3146V27.5946ZM55.6792 36.0506C55.9032 36.6292 56.2252 36.9279 56.6452 36.9466V37.2266C56.2719 37.1986 55.7725 37.1846 55.1472 37.1846C54.3445 37.1846 53.7472 37.1986 53.3552 37.2266V36.9466C53.7099 36.9279 53.9619 36.8859 54.1112 36.8206C54.2699 36.7459 54.3492 36.6152 54.3492 36.4286C54.3492 36.2699 54.2932 36.0506 54.1812 35.7706L53.3272 33.4746H49.9392L49.3652 34.9586C49.1785 35.4626 49.0852 35.8452 49.0852 36.1066C49.0852 36.3959 49.1832 36.6059 49.3792 36.7366C49.5845 36.8672 49.8925 36.9372 50.3032 36.9466V37.2266C49.7712 37.1986 49.2345 37.1846 48.6932 37.1846C48.2732 37.1846 47.9232 37.1986 47.6432 37.2266V36.9466C48.1099 36.8346 48.4785 36.4286 48.7492 35.7286L52.0392 27.2446H52.2632L55.6792 36.0506ZM53.2152 33.1946L51.6472 29.0086L50.0512 33.1946H53.2152Z" fill="#FEF5EB"/>
<path d="M17.6584 13.3006L17.583 13.489L17.5921 13.4921L17.6584 13.3006ZM18.4004 13.6786L18.2879 13.8473L18.2916 13.8496L18.4004 13.6786ZM19.0724 13.7346L19.2539 13.8253L19.257 13.8185L19.0724 13.7346ZM19.1844 13.2586V13.0558H19.0064L18.9834 13.2323L19.1844 13.2586ZM19.5064 13.2586L19.7084 13.276L19.7274 13.0558H19.5064V13.2586ZM19.4364 16.1146V16.3173H19.6391V16.1146H19.4364ZM19.1144 16.1146L18.9122 16.1295L18.9261 16.3173H19.1144V16.1146ZM18.4564 14.2106L18.2914 14.3284L18.2939 14.3317L18.4564 14.2106ZM15.5864 13.8886L15.7254 14.0362L15.7276 14.034L15.5864 13.8886ZM15.3484 15.9746L15.175 16.0798L15.1779 16.0842L15.3484 15.9746ZM15.9784 16.6466L16.0991 16.4837L16.0991 16.4837L15.9784 16.6466ZM17.0564 17.3606L17.1633 17.1883L17.1632 17.1883L17.0564 17.3606ZM17.4624 17.6126L17.3555 17.7848L17.3557 17.7849L17.4624 17.6126ZM18.8484 18.5786L18.7186 18.7344L18.7233 18.7381L18.8484 18.5786ZM19.6744 19.5166L19.4989 19.6181V19.6181L19.6744 19.5166ZM19.1424 22.7366L19.2706 22.8936L19.2722 22.8923L19.1424 22.7366ZM15.9084 23.2826L15.8443 23.4749L15.8462 23.4755L15.9084 23.2826ZM15.0964 22.9046L14.9875 23.0756L14.9912 23.0779L15.0964 22.9046ZM14.4244 22.8626L14.6059 22.9533L14.609 22.9465L14.4244 22.8626ZM14.3124 23.3246V23.5273H14.4904L14.5134 23.3508L14.3124 23.3246ZM13.9904 23.3246L13.7882 23.3099L13.7724 23.5273H13.9904V23.3246ZM14.0464 19.9646V19.7618H13.8437V19.9646H14.0464ZM14.3684 19.9646L14.5707 19.9505L14.5576 19.7618H14.3684V19.9646ZM15.0684 22.2606L14.9009 22.3749V22.3749L15.0684 22.2606ZM18.2044 22.6806L18.3373 22.8337L18.3396 22.8317L18.2044 22.6806ZM18.2044 19.9506L18.0573 20.0901L18.0592 20.092L18.2044 19.9506ZM16.5524 18.7186L16.4468 18.8916L16.4475 18.892L16.5524 18.7186ZM15.2084 17.8226L15.0839 17.9826L15.0861 17.9842L15.2084 17.8226ZM14.3824 16.8846L14.2066 16.9856L14.2078 16.9875L14.3824 16.8846ZM14.8164 13.7906L14.9445 13.9477L14.9462 13.9463L14.8164 13.7906ZM16.6924 13.3633C17.0916 13.3633 17.3841 13.4092 17.5831 13.4888L17.7337 13.1123C17.466 13.0052 17.1146 12.9578 16.6924 12.9578V13.3633ZM17.5921 13.4921C17.8159 13.5696 18.0478 13.6872 18.2879 13.8472L18.5129 13.5099C18.249 13.334 17.9863 13.1995 17.7247 13.109L17.5921 13.4921ZM18.2916 13.8496C18.4993 13.9818 18.7013 14.0773 18.8764 14.0773V13.6718C18.8275 13.6718 18.7122 13.6366 18.5092 13.5075L18.2916 13.8496ZM18.8764 14.0773C19.0572 14.0773 19.1827 13.9673 19.2537 13.8252L18.8911 13.6439C18.8782 13.6696 18.8695 13.6754 18.8706 13.6746C18.8713 13.6741 18.873 13.673 18.8754 13.6723C18.8777 13.6716 18.8784 13.6718 18.8764 13.6718V14.0773ZM19.257 13.8185C19.3164 13.6876 19.3568 13.5046 19.3854 13.2848L18.9834 13.2323C18.956 13.4418 18.9217 13.5762 18.8878 13.6507L19.257 13.8185ZM19.1844 13.4613H19.5064V13.0558H19.1844V13.4613ZM19.3044 13.2411C19.2569 13.7922 19.2337 14.7522 19.2337 16.1146H19.6391C19.6391 14.7516 19.6626 13.8076 19.7084 13.276L19.3044 13.2411ZM19.4364 15.9118H19.1144V16.3173H19.4364V15.9118ZM19.3166 16.0996C19.2583 15.3123 19.0286 14.6389 18.6189 14.0894L18.2939 14.3317C18.6495 14.8089 18.8585 15.4048 18.9122 16.1295L19.3166 16.0996ZM18.6214 14.0927C18.205 13.5098 17.5935 13.2238 16.8184 13.2238V13.6293C17.4806 13.6293 17.9611 13.866 18.2914 14.3284L18.6214 14.0927ZM16.8184 13.2238C16.2696 13.2238 15.8057 13.3932 15.4452 13.7431L15.7276 14.034C16.0017 13.768 16.3591 13.6293 16.8184 13.6293V13.2238ZM15.4474 13.7409C15.0854 14.0817 14.9077 14.5244 14.9077 15.0506H15.3131C15.3131 14.6247 15.4527 14.2928 15.7253 14.0362L15.4474 13.7409ZM14.9077 15.0506C14.9077 15.4363 14.9943 15.7819 15.1751 16.0798L15.5217 15.8693C15.3852 15.6445 15.3131 15.3742 15.3131 15.0506H14.9077ZM15.1779 16.0842C15.3592 16.3664 15.5862 16.6083 15.8577 16.8095L16.0991 16.4837C15.8666 16.3114 15.6735 16.1054 15.5189 15.8649L15.1779 16.0842ZM15.8577 16.8095C16.1163 17.001 16.4811 17.2424 16.9496 17.5329L17.1632 17.1883C16.6984 16.9 16.3445 16.6654 16.0991 16.4837L15.8577 16.8095ZM16.9495 17.5328L17.3555 17.7848L17.5693 17.4403L17.1633 17.1883L16.9495 17.5328ZM17.3557 17.7849C17.9397 18.1465 18.3928 18.4628 18.7186 18.7343L18.9782 18.4228C18.632 18.1343 18.1611 17.8067 17.5691 17.4402L17.3557 17.7849ZM18.7233 18.7381C19.0498 18.994 19.3075 19.2874 19.4989 19.6181L19.8499 19.415C19.6307 19.0364 19.3377 18.7045 18.9735 18.419L18.7233 18.7381ZM19.4989 19.6181C19.6837 19.9373 19.7797 20.3164 19.7797 20.7626H20.1851C20.1851 20.2567 20.0758 19.8052 19.8499 19.415L19.4989 19.6181ZM19.7797 20.7626C19.7797 21.5628 19.5185 22.1592 19.0126 22.5808L19.2722 22.8923C19.8863 22.3806 20.1851 21.661 20.1851 20.7626H19.7797ZM19.0142 22.5795C18.4969 23.002 17.8355 23.2198 17.0144 23.2198V23.6253C17.9107 23.6253 18.6679 23.3858 19.2706 22.8936L19.0142 22.5795ZM17.0144 23.2198C16.5785 23.2198 16.2328 23.1742 15.9706 23.0896L15.8462 23.4755C16.1627 23.5776 16.5543 23.6253 17.0144 23.6253V23.2198ZM15.9725 23.0902C15.7074 23.0019 15.4505 22.8824 15.2016 22.7313L14.9912 23.0779C15.265 23.2441 15.5494 23.3766 15.8443 23.4749L15.9725 23.0902ZM15.2052 22.7335C14.9975 22.6013 14.7955 22.5058 14.6204 22.5058V22.9113C14.6693 22.9113 14.7846 22.9465 14.9876 23.0756L15.2052 22.7335ZM14.6204 22.5058C14.429 22.5058 14.306 22.6331 14.2398 22.7787L14.609 22.9465C14.6234 22.9146 14.634 22.9062 14.6337 22.9065C14.6331 22.9069 14.6307 22.9086 14.6268 22.9099C14.6229 22.9112 14.6204 22.9113 14.6204 22.9113V22.5058ZM14.2431 22.7719C14.1803 22.8974 14.1398 23.08 14.1114 23.2983L14.5134 23.3508C14.541 23.1398 14.5751 23.0144 14.6057 22.9532L14.2431 22.7719ZM14.3124 23.1218H13.9904V23.5273H14.3124V23.1218ZM14.1926 23.3393C14.2306 22.8172 14.2491 21.6894 14.2491 19.9646H13.8437C13.8437 21.6931 13.8249 22.8053 13.7882 23.3099L14.1926 23.3393ZM14.0464 20.1673H14.3684V19.7618H14.0464V20.1673ZM14.1661 19.9786C14.2332 20.9458 14.4737 21.7489 14.9009 22.3749L15.2358 22.1463C14.8604 21.5962 14.6343 20.8687 14.5707 19.9505L14.1661 19.9786ZM14.9009 22.3749C15.3468 23.0281 16.0316 23.3453 16.9164 23.3453V22.9398C16.1398 22.9398 15.5927 22.6691 15.2358 22.1463L14.9009 22.3749ZM16.9164 23.3453C17.4654 23.3453 17.943 23.1761 18.3373 22.8336L18.0715 22.5275C17.7565 22.801 17.3754 22.9398 16.9164 22.9398V23.3453ZM18.3396 22.8317C18.7491 22.4653 18.9391 21.9362 18.9391 21.2806H18.5337C18.5337 21.8569 18.3691 22.2612 18.0692 22.5295L18.3396 22.8317ZM18.9391 21.2806C18.9391 20.7067 18.7423 20.2121 18.3496 19.8091L18.0592 20.092C18.3758 20.417 18.5337 20.8091 18.5337 21.2806H18.9391ZM18.3515 19.811C17.9877 19.4276 17.419 19.0058 16.6573 18.5451L16.4475 18.892C17.1978 19.3459 17.7305 19.7456 18.0573 20.0901L18.3515 19.811ZM16.658 18.5455C16.1106 18.2115 15.6688 17.9167 15.3307 17.6609L15.0861 17.9842C15.4387 18.2511 15.8929 18.5536 16.4468 18.8916L16.658 18.5455ZM15.3329 17.6625C15.0169 17.4168 14.7586 17.1234 14.557 16.7816L14.2078 16.9875C14.4355 17.3737 14.7279 17.7057 15.0839 17.9826L15.3329 17.6625ZM14.5582 16.7835C14.3637 16.4452 14.2631 16.0471 14.2631 15.5826H13.8577C13.8577 16.1073 13.9718 16.5772 14.2066 16.9856L14.5582 16.7835ZM14.2631 15.5826C14.2631 14.8456 14.4975 14.3119 14.9445 13.9477L14.6883 13.6334C14.1273 14.0905 13.8577 14.7515 13.8577 15.5826H14.2631ZM14.9462 13.9463C15.4088 13.5608 15.9862 13.3633 16.6924 13.3633V12.9578C15.9052 12.9578 15.232 13.1803 14.6866 13.6348L14.9462 13.9463ZM29.8526 13.3146H30.0553V13.0905L29.8324 13.1128L29.8526 13.3146ZM29.8526 13.5946L29.8999 13.7917L30.0553 13.7544V13.5946H29.8526ZM28.7466 14.8126L28.9356 14.8859L28.9357 14.8857L28.7466 14.8126ZM25.4566 23.2966V23.4993H25.5954L25.6456 23.3699L25.4566 23.2966ZM25.2326 23.2966L25.0436 23.3699L25.0938 23.4993H25.2326V23.2966ZM21.8166 14.4906L21.6275 14.5637L21.6276 14.5639L21.8166 14.4906ZM20.8506 13.5946H20.6478V13.7885L20.8416 13.7971L20.8506 13.5946ZM20.8506 13.3146L20.8657 13.1124L20.6478 13.0961V13.3146H20.8506ZM24.1406 13.3146H24.3433V13.0968L24.1261 13.1123L24.1406 13.3146ZM24.1406 13.5946L24.1512 13.797L24.3433 13.7869V13.5946H24.1406ZM23.3706 13.7346L23.4519 13.9204L23.4569 13.918L23.3706 13.7346ZM23.3146 14.7706L23.5044 14.6991L23.5028 14.6953L23.3146 14.7706ZM25.8486 21.5046L25.6588 21.576L25.8463 22.0742L26.0377 21.5775L25.8486 21.5046ZM28.1306 15.5826L28.3198 15.6555L28.3207 15.653L28.1306 15.5826ZM28.1026 13.8046L27.9901 13.9733L27.9937 13.9756L28.1026 13.8046ZM27.1926 13.5946H26.9898V13.7927L27.188 13.7972L27.1926 13.5946ZM27.1926 13.3146L27.2032 13.1121L26.9898 13.1009V13.3146H27.1926ZM28.8026 13.5593C29.2264 13.5593 29.5836 13.5452 29.8727 13.5163L29.8324 13.1128C29.5615 13.1399 29.2188 13.1538 28.8026 13.1538V13.5593ZM29.6498 13.3146V13.5946H30.0553V13.3146H29.6498ZM29.8053 13.3974C29.2435 13.5322 28.8382 14.0135 28.5575 14.7394L28.9357 14.8857C29.1963 14.2116 29.5283 13.8809 29.8999 13.7917L29.8053 13.3974ZM28.5575 14.7393L25.2675 23.2233L25.6456 23.3699L28.9356 14.8859L28.5575 14.7393ZM25.4566 23.0938H25.3446V23.4993H25.4566V23.0938ZM25.3446 23.0938H25.2326V23.4993H25.3446V23.0938ZM25.4216 23.2232L22.0056 14.4172L21.6276 14.5639L25.0436 23.3699L25.4216 23.2232ZM22.0056 14.4174C21.7685 13.8048 21.3963 13.4159 20.8596 13.392L20.8416 13.7971C21.1449 13.8106 21.4166 14.019 21.6275 14.5637L22.0056 14.4174ZM21.0533 13.5946V13.3146H20.6478V13.5946H21.0533ZM20.8354 13.5167C21.216 13.5453 21.721 13.5593 22.3486 13.5593V13.1538C21.7254 13.1538 21.2318 13.1398 20.8657 13.1124L20.8354 13.5167ZM22.3486 13.5593C23.1522 13.5593 23.7555 13.5453 24.155 13.5168L24.1261 13.1123C23.7417 13.1398 23.1503 13.1538 22.3486 13.1538V13.5593ZM23.9378 13.3146V13.5946H24.3433V13.3146H23.9378ZM24.1299 13.3921C23.7704 13.411 23.4804 13.4588 23.2842 13.5511L23.4569 13.918C23.5781 13.861 23.8014 13.8154 24.1512 13.797L24.1299 13.3921ZM23.2893 13.5488C23.1803 13.5965 23.0896 13.6711 23.0282 13.7747C22.9678 13.8765 22.9438 13.9927 22.9438 14.1126H23.3493C23.3493 14.0458 23.3626 14.0056 23.377 13.9814C23.3902 13.9591 23.4115 13.938 23.4518 13.9203L23.2893 13.5488ZM22.9438 14.1126C22.9438 14.3109 23.0118 14.5595 23.1263 14.8459L23.5028 14.6953C23.3933 14.4216 23.3493 14.2316 23.3493 14.1126H22.9438ZM23.1248 14.842L25.6588 21.576L26.0383 21.4332L23.5043 14.6992L23.1248 14.842ZM26.0377 21.5775L28.3197 15.6555L27.9414 15.5097L25.6594 21.4317L26.0377 21.5775ZM28.3207 15.653C28.5088 15.1451 28.6133 14.734 28.6133 14.4346H28.2078C28.2078 14.6578 28.1257 15.012 27.9405 15.5121L28.3207 15.653ZM28.6133 14.4346C28.6133 14.0911 28.487 13.8089 28.2114 13.6335L27.9937 13.9756C28.1288 14.0616 28.2078 14.1993 28.2078 14.4346H28.6133ZM28.215 13.6359C27.9711 13.4733 27.6212 13.4015 27.1972 13.3919L27.188 13.7972C27.5853 13.8063 27.842 13.8745 27.9901 13.9732L28.215 13.6359ZM27.3953 13.5946V13.3146H26.9898V13.5946H27.3953ZM27.1819 13.517C27.7175 13.5452 28.2577 13.5593 28.8026 13.5593V13.1538C28.2647 13.1538 27.7316 13.1399 27.2032 13.1121L27.1819 13.517ZM37.0542 22.0506L37.2433 21.9774L37.2432 21.9772L37.0542 22.0506ZM38.0202 22.9466H38.2229V22.7526L38.0292 22.744L38.0202 22.9466ZM38.0202 23.2266L38.005 23.4287L38.2229 23.4451V23.2266H38.0202ZM34.7302 23.2266H34.5275V23.4443L34.7447 23.4288L34.7302 23.2266ZM34.7302 22.9466L34.7196 22.7441L34.5275 22.7542V22.9466H34.7302ZM35.4862 22.8206L35.5675 23.0064L35.5725 23.004L35.4862 22.8206ZM35.5562 21.7706L35.3661 21.8413L35.368 21.8459L35.5562 21.7706ZM34.7022 19.4746L34.8922 19.4039L34.8431 19.2718H34.7022V19.4746ZM31.3142 19.4746V19.2718H31.1753L31.1251 19.4014L31.3142 19.4746ZM30.7402 20.9586L30.5511 20.8854L30.5501 20.8881L30.7402 20.9586ZM30.7542 22.7366L30.6417 22.9053L30.6454 22.9076L30.7542 22.7366ZM31.6782 22.9466H31.8809V22.7484L31.6828 22.7439L31.6782 22.9466ZM31.6782 23.2266L31.6676 23.429L31.8809 23.4403V23.2266H31.6782ZM29.0182 23.2266H28.8155V23.4506L29.0384 23.4283L29.0182 23.2266ZM29.0182 22.9466L28.9709 22.7494L28.8155 22.7867V22.9466H29.0182ZM30.1242 21.7286L29.9352 21.6553L29.9351 21.6554L30.1242 21.7286ZM33.4142 13.2446V13.0418H33.2754L33.2252 13.1713L33.4142 13.2446ZM33.6382 13.2446L33.8272 13.1712L33.777 13.0418H33.6382V13.2446ZM34.5902 19.1946V19.3973H34.8826L34.7801 19.1234L34.5902 19.1946ZM33.0222 15.0086L33.2121 14.9374L33.0239 14.4351L32.8328 14.9363L33.0222 15.0086ZM31.4262 19.1946L31.2368 19.1223L31.1319 19.3973H31.4262V19.1946ZM32.5882 11.0466L32.4406 11.186L32.449 11.194L32.5882 11.0466ZM32.5882 12.1806L32.4489 12.0331L32.4449 12.0372L32.5882 12.1806ZM31.4542 11.0466L31.5976 11.19L31.6016 11.1858L31.4542 11.0466ZM35.5562 11.0466L35.4086 11.186L35.417 11.194L35.5562 11.0466ZM35.5562 12.1806L35.417 12.0331L35.4129 12.0372L35.5562 12.1806ZM34.4222 12.1806L34.2789 12.3239V12.3239L34.4222 12.1806ZM34.4222 11.0466L34.5656 11.19L34.5696 11.1858L34.4222 11.0466ZM36.8651 22.1237C37.1023 22.7363 37.4745 23.1252 38.0112 23.1491L38.0292 22.744C37.7259 22.7305 37.4541 22.5221 37.2433 21.9774L36.8651 22.1237ZM37.8175 22.9466V23.2266H38.2229V22.9466H37.8175ZM38.0354 23.0244C37.6548 22.9958 37.1497 22.9818 36.5222 22.9818V23.3873C37.1453 23.3873 37.639 23.4013 38.005 23.4287L38.0354 23.0244ZM36.5222 22.9818C35.7186 22.9818 35.1153 22.9958 34.7158 23.0243L34.7447 23.4288C35.1291 23.4013 35.7205 23.3873 36.5222 23.3873V22.9818ZM34.9329 23.2266V22.9466H34.5275V23.2266H34.9329ZM34.7409 23.149C35.098 23.1302 35.382 23.0874 35.5675 23.0063L35.405 22.6348C35.2918 22.6843 35.0718 22.7256 34.7196 22.7441L34.7409 23.149ZM35.5725 23.004C35.6825 22.9523 35.7747 22.876 35.838 22.7718C35.9008 22.6684 35.9269 22.5508 35.9269 22.4286H35.5215C35.5215 22.493 35.508 22.5341 35.4914 22.5613C35.4753 22.5878 35.4486 22.6142 35.3999 22.6371L35.5725 23.004ZM35.9269 22.4286C35.9269 22.2302 35.859 21.9816 35.7444 21.6953L35.368 21.8459C35.4774 22.1195 35.5215 22.3096 35.5215 22.4286H35.9269ZM35.7462 21.6999L34.8922 19.4039L34.5122 19.5452L35.3662 21.8412L35.7462 21.6999ZM34.7022 19.2718H31.3142V19.6773H34.7022V19.2718ZM31.1251 19.4014L30.5511 20.8854L30.9293 21.0317L31.5033 19.5477L31.1251 19.4014ZM30.5501 20.8881C30.362 21.396 30.2575 21.8071 30.2575 22.1066H30.6629C30.6629 21.8833 30.7451 21.5291 30.9303 21.029L30.5501 20.8881ZM30.2575 22.1066C30.2575 22.446 30.3761 22.7281 30.6418 22.9052L30.8667 22.5679C30.7403 22.4836 30.6629 22.3458 30.6629 22.1066H30.2575ZM30.6454 22.9076C30.8966 23.0675 31.2485 23.1396 31.6736 23.1492L31.6828 22.7439C31.2866 22.7349 31.0225 22.667 30.8631 22.5655L30.6454 22.9076ZM31.4755 22.9466V23.2266H31.8809V22.9466H31.4755ZM31.6889 23.0241C31.1533 22.9959 30.613 22.9818 30.0682 22.9818V23.3873C30.606 23.3873 31.1392 23.4012 31.6676 23.429L31.6889 23.0241ZM30.0682 22.9818C29.6444 22.9818 29.2871 22.9959 28.998 23.0248L29.0384 23.4283C29.3093 23.4012 29.652 23.3873 30.0682 23.3873V22.9818ZM29.2209 23.2266V22.9466H28.8155V23.2266H29.2209ZM29.0655 23.1437C29.6272 23.0089 30.0326 22.5276 30.3133 21.8017L29.9351 21.6554C29.6745 22.3295 29.3425 22.6602 28.9709 22.7494L29.0655 23.1437ZM30.3132 21.8019L33.6032 13.3179L33.2252 13.1713L29.9352 21.6553L30.3132 21.8019ZM33.4142 13.4473H33.6382V13.0418H33.4142V13.4473ZM33.4492 13.3179L36.8652 22.1239L37.2432 21.9772L33.8272 13.1712L33.4492 13.3179ZM34.7801 19.1234L33.2121 14.9374L32.8324 15.0797L34.4004 19.2657L34.7801 19.1234ZM32.8328 14.9363L31.2368 19.1223L31.6156 19.2668L33.2116 15.0808L32.8328 14.9363ZM31.4262 19.3973H34.5902V18.9918H31.4262V19.3973ZM32.0282 10.9973C32.1825 10.9973 32.3172 11.0549 32.4408 11.1858L32.7356 10.9074C32.5419 10.7023 32.3032 10.5918 32.0282 10.5918V10.9973ZM32.449 11.194C32.5799 11.3176 32.6375 11.4523 32.6375 11.6066H33.0429C33.0429 11.3315 32.9325 11.0929 32.7274 10.8992L32.449 11.194ZM32.6375 11.6066C32.6375 11.7728 32.5779 11.9114 32.449 12.0332L32.7274 12.328C32.9345 12.1324 33.0429 11.8883 33.0429 11.6066H32.6375ZM32.4449 12.0372C32.3223 12.1598 32.1865 12.2158 32.0282 12.2158V12.6213C32.2993 12.6213 32.5368 12.5187 32.7316 12.3239L32.4449 12.0372ZM32.0282 12.2158C31.8581 12.2158 31.7183 12.1579 31.5976 12.0372L31.3109 12.3239C31.5075 12.5205 31.7503 12.6213 32.0282 12.6213V12.2158ZM31.5976 12.0372C31.4768 11.9165 31.4189 11.7767 31.4189 11.6066H31.0135C31.0135 11.8844 31.1142 12.1273 31.3109 12.3239L31.5976 12.0372ZM31.4189 11.6066C31.4189 11.4483 31.475 11.3125 31.5976 11.1899L31.3109 10.9032C31.1161 11.098 31.0135 11.3355 31.0135 11.6066H31.4189ZM31.6016 11.1858C31.7233 11.0569 31.8619 10.9973 32.0282 10.9973V10.5918C31.7465 10.5918 31.5024 10.7003 31.3068 10.9074L31.6016 11.1858ZM34.9962 10.9973C35.1505 10.9973 35.2852 11.0549 35.4088 11.1858L35.7036 10.9074C35.5099 10.7023 35.2712 10.5918 34.9962 10.5918V10.9973ZM35.417 11.194C35.5479 11.3176 35.6055 11.4523 35.6055 11.6066H36.0109C36.0109 11.3315 35.9005 11.0929 35.6954 10.8992L35.417 11.194ZM35.6055 11.6066C35.6055 11.7728 35.5459 11.9114 35.417 12.0332L35.6954 12.328C35.9025 12.1324 36.0109 11.8883 36.0109 11.6066H35.6055ZM35.4129 12.0372C35.2903 12.1598 35.1545 12.2158 34.9962 12.2158V12.6213C35.2673 12.6213 35.5048 12.5187 35.6996 12.3239L35.4129 12.0372ZM34.9962 12.2158C34.8261 12.2158 34.6863 12.1579 34.5656 12.0372L34.2789 12.3239C34.4755 12.5205 34.7183 12.6213 34.9962 12.6213V12.2158ZM34.5656 12.0372C34.4448 11.9165 34.3869 11.7767 34.3869 11.6066H33.9815C33.9815 11.8844 34.0822 12.1273 34.2789 12.3239L34.5656 12.0372ZM34.3869 11.6066C34.3869 11.4483 34.443 11.3125 34.5656 11.1899L34.2789 10.9032C34.0841 11.098 33.9815 11.3355 33.9815 11.6066H34.3869ZM34.5696 11.1858C34.6913 11.0569 34.8299 10.9973 34.9962 10.9973V10.5918C34.7145 10.5918 34.4704 10.7003 34.2748 10.9074L34.5696 11.1858ZM45.7909 13.3146L45.9927 13.3345L46.0154 13.1036L45.7836 13.112L45.7909 13.3146ZM45.7349 16.2546V16.4573H45.9576L45.9368 16.2356L45.7349 16.2546ZM45.4129 16.2546L45.2113 16.2755L45.2302 16.4573H45.4129V16.2546ZM45.1329 14.6586L44.9396 14.7196L44.9401 14.7211L45.1329 14.6586ZM44.5449 13.8886L44.4406 14.0625L44.445 14.0649L44.5449 13.8886ZM42.5009 13.6366V13.4338H42.2982V13.6366H42.5009ZM42.6129 22.4566L42.4261 22.5352V22.5352L42.6129 22.4566ZM43.0049 22.8206L42.938 23.0119V23.0119L43.0049 22.8206ZM43.9149 22.9466H44.1177V22.7526L43.9239 22.744L43.9149 22.9466ZM43.9149 23.2266L43.9033 23.429L44.1177 23.4413V23.2266H43.9149ZM39.7849 23.2266H39.5822V23.4424L39.7976 23.4289L39.7849 23.2266ZM39.7849 22.9466L39.7759 22.744L39.5822 22.7526V22.9466H39.7849ZM40.6949 22.8206L40.7619 23.0119V23.0119L40.6949 22.8206ZM41.0869 22.4566L41.2738 22.5352V22.5352L41.0869 22.4566ZM41.1989 13.6366H41.4017V13.4338H41.1989V13.6366ZM39.1549 13.8886L39.2549 14.065L39.2592 14.0624L39.1549 13.8886ZM38.5669 14.6586L38.7598 14.7211L38.7603 14.7196L38.5669 14.6586ZM38.2869 16.2546V16.4573H38.4697L38.4886 16.2755L38.2869 16.2546ZM37.9649 16.2546L37.7631 16.2356L37.7423 16.4573H37.9649V16.2546ZM37.9089 13.3146L37.9163 13.112L37.6844 13.1036L37.7072 13.3345L37.9089 13.3146ZM45.5892 13.2947C45.5233 13.9624 45.4902 14.5665 45.4902 15.1066H45.8957C45.8957 14.5826 45.9279 13.9921 45.9927 13.3345L45.5892 13.2947ZM45.4902 15.1066C45.4902 15.5765 45.5043 15.9661 45.5331 16.2735L45.9368 16.2356C45.9096 15.9457 45.8957 15.57 45.8957 15.1066H45.4902ZM45.7349 16.0518H45.4129V16.4573H45.7349V16.0518ZM45.6146 16.2336C45.5396 15.5118 45.4446 14.9624 45.3258 14.596L44.9401 14.7211C45.0453 15.0454 45.1369 15.56 45.2113 16.2755L45.6146 16.2336ZM45.3263 14.5975C45.2014 14.2021 44.9764 13.9 44.6449 13.7122L44.445 14.0649C44.6735 14.1944 44.8405 14.4057 44.9396 14.7196L45.3263 14.5975ZM44.6492 13.7147C44.3218 13.5183 43.8478 13.4338 43.2569 13.4338V13.8393C43.8234 13.8393 44.2081 13.9229 44.4406 14.0624L44.6492 13.7147ZM43.2569 13.4338H42.5009V13.8393H43.2569V13.4338ZM42.2982 13.6366V21.6026H42.7037V13.6366H42.2982ZM42.2982 21.6026C42.2982 21.9994 42.3348 22.3185 42.4261 22.5352L42.7998 22.3779C42.7417 22.24 42.7037 21.9898 42.7037 21.6026H42.2982ZM42.4261 22.5352C42.5237 22.767 42.6989 22.9283 42.938 23.0119L43.0719 22.6292C42.9376 22.5822 42.8515 22.5008 42.7998 22.3779L42.4261 22.5352ZM42.938 23.0119C43.1545 23.0877 43.4832 23.1303 43.9059 23.1491L43.9239 22.744C43.5066 22.7255 43.2287 22.6841 43.0719 22.6292L42.938 23.0119ZM43.7122 22.9466V23.2266H44.1177V22.9466H43.7122ZM43.9266 23.0242C43.4354 22.9958 42.7449 22.9818 41.8569 22.9818V23.3873C42.7423 23.3873 43.4237 23.4013 43.9033 23.429L43.9266 23.0242ZM41.8569 22.9818C40.9229 22.9818 40.2269 22.9958 39.7723 23.0242L39.7976 23.4289C40.2389 23.4013 40.9243 23.3873 41.8569 23.3873V22.9818ZM39.9877 23.2266V22.9466H39.5822V23.2266H39.9877ZM39.7939 23.1491C40.2166 23.1303 40.5454 23.0877 40.7619 23.0119L40.628 22.6292C40.4712 22.6841 40.1932 22.7255 39.7759 22.744L39.7939 23.1491ZM40.7619 23.0119C41.0009 22.9283 41.1762 22.767 41.2738 22.5352L40.9001 22.3779C40.8483 22.5008 40.7622 22.5822 40.628 22.6292L40.7619 23.0119ZM41.2738 22.5352C41.365 22.3185 41.4017 21.9994 41.4017 21.6026H40.9962C40.9962 21.9898 40.9582 22.24 40.9001 22.3779L41.2738 22.5352ZM41.4017 21.6026V13.6366H40.9962V21.6026H41.4017ZM41.1989 13.4338H40.4429V13.8393H41.1989V13.4338ZM40.4429 13.4338C39.8521 13.4338 39.3781 13.5183 39.0506 13.7147L39.2592 14.0624C39.4918 13.9229 39.8764 13.8393 40.4429 13.8393V13.4338ZM39.055 13.7122C38.7235 13.9 38.4985 14.2021 38.3736 14.5975L38.7603 14.7196C38.8594 14.4057 39.0264 14.1944 39.2549 14.0649L39.055 13.7122ZM38.3741 14.596C38.2553 14.9624 38.1603 15.5118 38.0853 16.2336L38.4886 16.2755C38.5629 15.56 38.6546 15.0454 38.7598 14.7211L38.3741 14.596ZM38.2869 16.0518H37.9649V16.4573H38.2869V16.0518ZM38.1668 16.2735C38.1956 15.9661 38.2097 15.5765 38.2097 15.1066H37.8042C37.8042 15.57 37.7903 15.9457 37.7631 16.2356L38.1668 16.2735ZM38.2097 15.1066C38.2097 14.5665 38.1765 13.9624 38.1107 13.2947L37.7072 13.3345C37.772 13.9921 37.8042 14.5826 37.8042 15.1066H38.2097ZM37.9016 13.5172C38.6803 13.5453 39.9996 13.5593 41.8569 13.5593V13.1538C39.9996 13.1538 38.6869 13.1398 37.9163 13.112L37.9016 13.5172ZM41.8569 13.5593C43.705 13.5593 45.0196 13.5453 45.7983 13.5172L45.7836 13.112C45.013 13.1398 43.7049 13.1538 41.8569 13.1538V13.5593ZM53.7456 22.0506L53.9347 21.9774L53.9346 21.9772L53.7456 22.0506ZM54.7116 22.9466H54.9144V22.7526L54.7206 22.744L54.7116 22.9466ZM54.7116 23.2266L54.6965 23.4287L54.9144 23.4451V23.2266H54.7116ZM51.4216 23.2266H51.2189V23.4443L51.4361 23.4288L51.4216 23.2266ZM51.4216 22.9466L51.411 22.7441L51.2189 22.7542V22.9466H51.4216ZM52.1776 22.8206L52.2589 23.0064L52.2639 23.004L52.1776 22.8206ZM52.2476 21.7706L52.0575 21.8413L52.0594 21.8459L52.2476 21.7706ZM51.3936 19.4746L51.5836 19.4039L51.5345 19.2718H51.3936V19.4746ZM48.0056 19.4746V19.2718H47.8667L47.8165 19.4014L48.0056 19.4746ZM47.4316 20.9586L47.2425 20.8854L47.2415 20.8881L47.4316 20.9586ZM47.4456 22.7366L47.3331 22.9053L47.3368 22.9076L47.4456 22.7366ZM48.3696 22.9466H48.5724V22.7484L48.3742 22.7439L48.3696 22.9466ZM48.3696 23.2266L48.359 23.429L48.5724 23.4403V23.2266H48.3696ZM45.7096 23.2266H45.5069V23.4506L45.7298 23.4283L45.7096 23.2266ZM45.7096 22.9466L45.6623 22.7494L45.5069 22.7867V22.9466H45.7096ZM46.8156 21.7286L46.6266 21.6553L46.6265 21.6554L46.8156 21.7286ZM50.1056 13.2446V13.0418H49.9668L49.9166 13.1713L50.1056 13.2446ZM50.3296 13.2446L50.5186 13.1712L50.4684 13.0418H50.3296V13.2446ZM51.2816 19.1946V19.3973H51.5741L51.4715 19.1234L51.2816 19.1946ZM49.7136 15.0086L49.9035 14.9374L49.7153 14.4351L49.5242 14.9363L49.7136 15.0086ZM48.1176 19.1946L47.9282 19.1223L47.8233 19.3973H48.1176V19.1946ZM51.7016 10.2626L51.5941 10.0906L51.5892 10.0939L51.7016 10.2626ZM52.5556 10.3606L52.7244 10.2481L52.7212 10.2436L52.5556 10.3606ZM52.2616 11.1726L52.3683 11.3449L52.3696 11.3441L52.2616 11.1726ZM51.2536 11.6206L51.1828 11.4305L51.1783 11.4323L51.2536 11.6206ZM49.4476 12.4186L49.2691 12.5147L49.3624 12.6879L49.5383 12.5999L49.4476 12.4186ZM49.3496 12.2366L49.2273 12.0748L49.0887 12.1797L49.1711 12.3327L49.3496 12.2366ZM50.3296 11.4386L50.465 11.5895L50.4652 11.5893L50.3296 11.4386ZM50.8476 10.9766L50.9797 11.1307L50.9869 11.1238L50.8476 10.9766ZM53.5566 22.1237C53.7937 22.7363 54.1659 23.1252 54.7026 23.1491L54.7206 22.744C54.4173 22.7305 54.1455 22.5221 53.9347 21.9774L53.5566 22.1237ZM54.5089 22.9466V23.2266H54.9144V22.9466H54.5089ZM54.7268 23.0244C54.3462 22.9958 53.8411 22.9818 53.2136 22.9818V23.3873C53.8368 23.3873 54.3304 23.4013 54.6965 23.4287L54.7268 23.0244ZM53.2136 22.9818C52.41 22.9818 51.8067 22.9958 51.4072 23.0243L51.4361 23.4288C51.8205 23.4013 52.4119 23.3873 53.2136 23.3873V22.9818ZM51.6244 23.2266V22.9466H51.2189V23.2266H51.6244ZM51.4323 23.149C51.7894 23.1302 52.0734 23.0874 52.2589 23.0063L52.0964 22.6348C51.9832 22.6843 51.7632 22.7256 51.411 22.7441L51.4323 23.149ZM52.2639 23.004C52.3739 22.9523 52.4662 22.876 52.5294 22.7718C52.5922 22.6684 52.6184 22.5508 52.6184 22.4286H52.2129C52.2129 22.493 52.1994 22.5341 52.1828 22.5613C52.1668 22.5878 52.14 22.6142 52.0913 22.6371L52.2639 23.004ZM52.6184 22.4286C52.6184 22.2302 52.5504 21.9816 52.4359 21.6953L52.0594 21.8459C52.1688 22.1195 52.2129 22.3096 52.2129 22.4286H52.6184ZM52.4376 21.6999L51.5836 19.4039L51.2036 19.5452L52.0576 21.8412L52.4376 21.6999ZM51.3936 19.2718H48.0056V19.6773H51.3936V19.2718ZM47.8165 19.4014L47.2425 20.8854L47.6207 21.0317L48.1947 19.5477L47.8165 19.4014ZM47.2415 20.8881C47.0534 21.396 46.9489 21.8071 46.9489 22.1066H47.3544C47.3544 21.8833 47.4365 21.5291 47.6217 21.029L47.2415 20.8881ZM46.9489 22.1066C46.9489 22.446 47.0675 22.7281 47.3332 22.9052L47.5581 22.5679C47.4317 22.4836 47.3544 22.3458 47.3544 22.1066H46.9489ZM47.3368 22.9076C47.588 23.0675 47.9399 23.1396 48.365 23.1492L48.3742 22.7439C47.978 22.7349 47.7139 22.667 47.5545 22.5655L47.3368 22.9076ZM48.1669 22.9466V23.2266H48.5724V22.9466H48.1669ZM48.3803 23.0241C47.8447 22.9959 47.3044 22.9818 46.7596 22.9818V23.3873C47.2975 23.3873 47.8306 23.4012 48.359 23.429L48.3803 23.0241ZM46.7596 22.9818C46.3358 22.9818 45.9785 22.9959 45.6894 23.0248L45.7298 23.4283C46.0007 23.4012 46.3434 23.3873 46.7596 23.3873V22.9818ZM45.9124 23.2266V22.9466H45.5069V23.2266H45.9124ZM45.7569 23.1437C46.3186 23.0089 46.724 22.5276 47.0047 21.8017L46.6265 21.6554C46.3659 22.3295 46.0339 22.6602 45.6623 22.7494L45.7569 23.1437ZM47.0046 21.8019L50.2946 13.3179L49.9166 13.1713L46.6266 21.6553L47.0046 21.8019ZM50.1056 13.4473H50.3296V13.0418H50.1056V13.4473ZM50.1406 13.3179L53.5566 22.1239L53.9346 21.9772L50.5186 13.1712L50.1406 13.3179ZM51.4715 19.1234L49.9035 14.9374L49.5238 15.0797L51.0918 19.2657L51.4715 19.1234ZM49.5242 14.9363L47.9282 19.1223L48.3071 19.2668L49.9031 15.0808L49.5242 14.9363ZM48.1176 19.3973H51.2816V18.9918H48.1176V19.3973ZM51.8091 10.4345C51.937 10.3545 52.04 10.3253 52.1216 10.3253V9.91982C51.9419 9.91982 51.7649 9.98396 51.5942 10.0906L51.8091 10.4345ZM52.1216 10.3253C52.2261 10.3253 52.3117 10.3666 52.39 10.4775L52.7212 10.2436C52.5755 10.0372 52.3718 9.91982 52.1216 9.91982V10.3253ZM52.3869 10.473C52.4226 10.5266 52.4369 10.5765 52.4369 10.6266H52.8424C52.8424 10.4899 52.8006 10.3626 52.7243 10.2481L52.3869 10.473ZM52.4369 10.6266C52.4369 10.7339 52.3754 10.8613 52.1536 11.001L52.3696 11.3441C52.6518 11.1665 52.8424 10.9299 52.8424 10.6266H52.4369ZM52.1549 11.0002C51.9773 11.1102 51.6576 11.2537 51.1828 11.4306L51.3244 11.8105C51.8017 11.6327 52.154 11.4776 52.3683 11.3449L52.1549 11.0002ZM51.1783 11.4323C50.4747 11.7138 49.8673 11.982 49.3569 12.2372L49.5383 12.5999C50.0359 12.3511 50.6325 12.0874 51.3289 11.8088L51.1783 11.4323ZM49.6261 12.3224L49.5281 12.1404L49.1711 12.3327L49.2691 12.5147L49.6261 12.3224ZM49.4719 12.3983C49.8577 12.1065 50.189 11.8369 50.465 11.5895L50.1943 11.2876C49.9289 11.5255 49.6068 11.7879 49.2273 12.0748L49.4719 12.3983ZM50.4652 11.5893C50.746 11.3365 50.9165 11.1845 50.9796 11.1305L50.7157 10.8226C50.648 10.8806 50.4732 11.0366 50.194 11.2879L50.4652 11.5893ZM50.9869 11.1238C51.3292 10.8001 51.6042 10.5712 51.8141 10.4312L51.5892 10.0939C51.351 10.2526 51.0567 10.4997 50.7083 10.8293L50.9869 11.1238ZM16.6764 31.9906H16.4737V32.1675L16.649 32.1914L16.6764 31.9906ZM18.8744 32.8866L18.7281 33.0269L18.7296 33.0284L18.8744 32.8866ZM19.1264 35.9246L19.2957 36.0361V36.0361L19.1264 35.9246ZM17.9644 36.8906L18.0468 37.0758L18.0496 37.0745L17.9644 36.8906ZM15.5284 37.2126L15.5391 37.0101L15.5348 37.0099L15.5284 37.2126ZM12.0284 37.2266H11.8257V37.4443L12.0429 37.4288L12.0284 37.2266ZM12.0284 36.9466L12.0172 36.7441L11.8257 36.7548V36.9466H12.0284ZM12.7564 36.8346L12.6889 36.6433L12.6852 36.6447L12.7564 36.8346ZM13.0784 28.0286L12.8873 28.096V28.096L13.0784 28.0286ZM12.7564 27.7066L12.6852 27.8964L12.689 27.8977L12.7564 27.7066ZM12.0284 27.5946H11.8257V27.7863L12.0172 27.797L12.0284 27.5946ZM12.0284 27.3146L12.0429 27.1123L11.8257 27.0968V27.3146H12.0284ZM13.7364 27.3566V27.5593L13.7383 27.5593L13.7364 27.3566ZM15.2484 27.3426L15.2503 27.5455L15.2591 27.545L15.2484 27.3426ZM18.0344 27.9306L17.9081 28.0892L17.9096 28.0903L18.0344 27.9306ZM18.2864 30.9826L18.1284 30.8555L18.1268 30.8576L18.2864 30.9826ZM16.6764 31.9626L16.6175 31.7686L16.4737 31.8123V31.9626H16.6764ZM14.8424 27.6926L14.7611 27.5068L14.7567 27.5088L14.8424 27.6926ZM14.5484 28.0426L14.7408 28.1067V28.1067L14.5484 28.0426ZM14.4644 31.9626H14.2617V32.1653H14.4644V31.9626ZM16.9984 31.3466L16.8349 31.2267L16.8345 31.2273L16.9984 31.3466ZM17.5304 32.7746L17.3888 32.9196L17.3905 32.9213L17.5304 32.7746ZM14.4644 32.2006V31.9978H14.2617V32.2006H14.4644ZM14.5484 36.4846L14.7396 36.4171V36.4171L14.5484 36.4846ZM14.8424 36.8206L14.7567 37.0043L14.7639 37.0076L14.7712 37.0104L14.8424 36.8206ZM16.649 32.1914C17.657 32.3289 18.3357 32.6178 18.7281 33.0269L19.0207 32.7462C18.5358 32.2407 17.7492 31.9322 16.7038 31.7897L16.649 32.1914ZM18.7296 33.0284C19.1306 33.438 19.3297 33.9282 19.3297 34.5106H19.7352C19.7352 33.8236 19.4956 33.2311 19.0193 32.7447L18.7296 33.0284ZM19.3297 34.5106C19.3297 35.0063 19.2042 35.4382 18.9572 35.813L19.2957 36.0361C19.59 35.5896 19.7352 35.0788 19.7352 34.5106H19.3297ZM18.9572 35.813C18.7098 36.1882 18.3536 36.487 17.8793 36.7066L18.0496 37.0745C18.5833 36.8275 19.0017 36.4822 19.2957 36.0361L18.9572 35.813ZM17.8821 36.7053C17.4097 36.9153 16.8417 37.0238 16.1724 37.0238V37.4293C16.8845 37.4293 17.5112 37.3139 18.0468 37.0758L17.8821 36.7053ZM16.1724 37.0238C15.9226 37.0238 15.7117 37.0192 15.5391 37.0101L15.5178 37.415C15.6998 37.4246 15.9182 37.4293 16.1724 37.4293V37.0238ZM15.5348 37.0099C14.9354 36.9912 14.3453 36.9818 13.7644 36.9818V37.3873C14.3409 37.3873 14.9268 37.3966 15.5221 37.4152L15.5348 37.0099ZM13.7644 36.9818C12.9979 36.9818 12.4134 36.9958 12.014 37.0243L12.0429 37.4288C12.4275 37.4013 13.0003 37.3873 13.7644 37.3873V36.9818ZM12.2312 37.2266V36.9466H11.8257V37.2266H12.2312ZM12.0397 37.149C12.3787 37.1302 12.6476 37.0919 12.8276 37.0244L12.6852 36.6447C12.5666 36.6892 12.3502 36.7256 12.0172 36.7441L12.0397 37.149ZM12.8239 37.0257C13.0404 36.9493 13.1932 36.7965 13.2696 36.58L12.8873 36.4451C12.8517 36.5459 12.7898 36.6078 12.689 36.6434L12.8239 37.0257ZM13.2696 36.58C13.3378 36.3867 13.3652 36.1005 13.3652 35.7426H12.9597C12.9597 36.0939 12.931 36.3211 12.8873 36.4451L13.2696 36.58ZM13.3652 35.7426V28.7986H12.9597V35.7426H13.3652ZM13.3652 28.7986C13.3652 28.4406 13.3378 28.1544 13.2696 27.9611L12.8873 28.096C12.931 28.2201 12.9597 28.4472 12.9597 28.7986H13.3652ZM13.2696 27.9611C13.1932 27.7446 13.0404 27.5918 12.8239 27.5154L12.689 27.8977C12.7898 27.9333 12.8517 27.9952 12.8873 28.096L13.2696 27.9611ZM12.8276 27.5167C12.6476 27.4492 12.3787 27.411 12.0397 27.3921L12.0172 27.797C12.3502 27.8155 12.5666 27.8519 12.6852 27.8964L12.8276 27.5167ZM12.2312 27.5946V27.3146H11.8257V27.5946H12.2312ZM12.014 27.5168C12.4133 27.5453 12.9884 27.5593 13.7364 27.5593V27.1538C12.9911 27.1538 12.4275 27.1398 12.0429 27.1123L12.014 27.5168ZM13.7383 27.5593L15.2503 27.5453L15.2466 27.1398L13.7346 27.1538L13.7383 27.5593ZM15.2591 27.545C15.4321 27.5359 15.6291 27.5313 15.8504 27.5313V27.1258C15.6237 27.1258 15.4194 27.1305 15.2378 27.1401L15.2591 27.545ZM15.8504 27.5313C16.7777 27.5313 17.4536 27.7272 17.9081 28.0892L18.1607 27.772C17.6072 27.3312 16.8272 27.1258 15.8504 27.1258V27.5313ZM17.9096 28.0903C18.3728 28.4524 18.6017 28.925 18.6017 29.5266H19.0072C19.0072 28.8028 18.7227 28.2114 18.1593 27.7708L17.9096 28.0903ZM18.6017 29.5266C18.6017 30.0208 18.4454 30.4615 18.1285 30.8555L18.4444 31.1096C18.8181 30.645 19.0072 30.115 19.0072 29.5266H18.6017ZM18.1268 30.8576C17.8251 31.2431 17.3309 31.5519 16.6175 31.7686L16.7354 32.1565C17.4967 31.9253 18.0758 31.5807 18.4461 31.1075L18.1268 30.8576ZM16.4737 31.9626V31.9906H16.8792V31.9626H16.4737ZM15.5004 27.3918C15.2015 27.3918 14.9488 27.4247 14.7612 27.5068L14.9237 27.8783C15.0347 27.8297 15.2207 27.7973 15.5004 27.7973V27.3918ZM14.7567 27.5088C14.5587 27.6012 14.4269 27.7661 14.3561 27.9785L14.7408 28.1067C14.782 27.983 14.8462 27.9145 14.9282 27.8763L14.7567 27.5088ZM14.3561 27.9785C14.2895 28.1781 14.2617 28.4566 14.2617 28.7986H14.6672C14.6672 28.4685 14.6953 28.243 14.7408 28.1067L14.3561 27.9785ZM14.2617 28.7986V31.9626H14.6672V28.7986H14.2617ZM14.4644 32.1653H15.4024V31.7598H14.4644V32.1653ZM15.4024 32.1653C16.1984 32.1653 16.8091 31.9515 17.1624 31.4658L16.8345 31.2273C16.5904 31.5629 16.1371 31.7598 15.4024 31.7598V32.1653ZM17.1619 31.4665C17.5026 31.0019 17.6632 30.4004 17.6632 29.6806H17.2577C17.2577 30.3421 17.1103 30.8512 16.8349 31.2267L17.1619 31.4665ZM17.6632 29.6806C17.6632 28.9555 17.5043 28.3751 17.1497 27.9776L16.8471 28.2475C17.1086 28.5407 17.2577 29.0056 17.2577 29.6806H17.6632ZM17.1497 27.9776C16.7876 27.5716 16.2202 27.3918 15.5004 27.3918V27.7973C16.162 27.7973 16.5933 27.9629 16.8471 28.2475L17.1497 27.9776ZM15.5144 37.1073C16.4151 37.1073 17.1284 36.8968 17.6165 36.4401C18.1071 35.981 18.3352 35.306 18.3352 34.4546H17.9297C17.9297 35.2364 17.7215 35.7865 17.3394 36.144C16.9548 36.504 16.3591 36.7018 15.5144 36.7018V37.1073ZM18.3352 34.4546C18.3352 33.6808 18.1238 33.0602 17.6703 32.6278L17.3905 32.9213C17.7398 33.2543 17.9297 33.7536 17.9297 34.4546H18.3352ZM17.672 32.6295C17.2252 32.1933 16.5316 31.9978 15.6404 31.9978V32.4033C16.4853 32.4033 17.0517 32.5905 17.3888 32.9196L17.672 32.6295ZM15.6404 31.9978H14.4644V32.4033H15.6404V31.9978ZM14.2617 32.2006V35.7426H14.6672V32.2006H14.2617ZM14.2617 35.7426C14.2617 36.0834 14.2893 36.3594 14.3573 36.552L14.7396 36.4171C14.6956 36.2924 14.6672 36.0738 14.6672 35.7426H14.2617ZM14.3573 36.552C14.4296 36.757 14.5627 36.9138 14.7567 37.0043L14.9282 36.6368C14.8421 36.5967 14.7793 36.5295 14.7396 36.4171L14.3573 36.552ZM14.7712 37.0104C14.9553 37.0794 15.2089 37.1073 15.5144 37.1073V36.7018C15.2227 36.7018 15.0282 36.6737 14.9136 36.6307L14.7712 37.0104ZM24.491 27.5946L24.5023 27.797L24.6937 27.7863V27.5946H24.491ZM23.749 27.7066L23.6815 27.5153L23.6778 27.5167L23.749 27.7066ZM23.441 28.0286L23.6322 28.096V28.096L23.441 28.0286ZM23.441 36.5126L23.6322 36.4451V36.4451L23.441 36.5126ZM23.749 36.8346L23.6778 37.0244L23.6815 37.0257L23.749 36.8346ZM24.491 36.9466H24.6937V36.7548L24.5023 36.7441L24.491 36.9466ZM24.491 37.2266L24.4778 37.4289L24.6937 37.443V37.2266H24.491ZM20.921 37.2266H20.7183V37.4443L20.9355 37.4288L20.921 37.2266ZM20.921 36.9466L20.9098 36.7441L20.7183 36.7548V36.9466H20.921ZM21.649 36.8346L21.5815 36.6433L21.5778 36.6447L21.649 36.8346ZM21.971 28.0286L21.7798 28.096V28.096L21.971 28.0286ZM21.649 27.7066L21.5778 27.8964L21.5815 27.8977L21.649 27.7066ZM20.921 27.5946H20.7183V27.7863L20.9098 27.797L20.921 27.5946ZM20.921 27.3146L20.9355 27.1123L20.7183 27.0968V27.3146H20.921ZM24.491 27.3146H24.6937V27.0985L24.4781 27.1122L24.491 27.3146ZM24.4798 27.3921C24.1397 27.411 23.8685 27.4494 23.6815 27.5154L23.8165 27.8977C23.9468 27.8517 24.1703 27.8154 24.5023 27.797L24.4798 27.3921ZM23.6778 27.5167C23.4689 27.5951 23.3245 27.7495 23.2498 27.9611L23.6322 28.096C23.6695 27.9903 23.7304 27.9301 23.8202 27.8964L23.6778 27.5167ZM23.2498 27.9611C23.1816 28.1544 23.1543 28.4406 23.1543 28.7986H23.5597C23.5597 28.4472 23.5884 28.2201 23.6322 28.096L23.2498 27.9611ZM23.1543 28.7986V35.7426H23.5597V28.7986H23.1543ZM23.1543 35.7426C23.1543 36.1005 23.1816 36.3867 23.2498 36.58L23.6322 36.4451C23.5884 36.3211 23.5597 36.0939 23.5597 35.7426H23.1543ZM23.2498 36.58C23.3245 36.7917 23.4689 36.9461 23.6778 37.0244L23.8202 36.6447C23.7304 36.6111 23.6695 36.5508 23.6322 36.4451L23.2498 36.58ZM23.6815 37.0257C23.8685 37.0917 24.1397 37.1301 24.4798 37.149L24.5023 36.7441C24.1703 36.7257 23.9468 36.6894 23.8165 36.6434L23.6815 37.0257ZM24.2883 36.9466V37.2266H24.6937V36.9466H24.2883ZM24.5042 37.0243C24.0684 36.9958 23.4707 36.9818 22.713 36.9818V37.3873C23.4674 37.3873 24.055 37.4013 24.4778 37.4289L24.5042 37.0243ZM22.713 36.9818C21.9094 36.9818 21.3061 36.9958 20.9066 37.0243L20.9355 37.4288C21.3199 37.4013 21.9113 37.3873 22.713 37.3873V36.9818ZM21.1237 37.2266V36.9466H20.7183V37.2266H21.1237ZM20.9323 37.149C21.2712 37.1302 21.5402 37.0919 21.7202 37.0244L21.5778 36.6447C21.4592 36.6892 21.2428 36.7256 20.9098 36.7441L20.9323 37.149ZM21.7165 37.0257C21.933 36.9493 22.0858 36.7965 22.1622 36.58L21.7798 36.4451C21.7442 36.5459 21.6824 36.6078 21.5815 36.6434L21.7165 37.0257ZM22.1622 36.58C22.2304 36.3867 22.2577 36.1005 22.2577 35.7426H21.8523C21.8523 36.0939 21.8236 36.3211 21.7798 36.4451L22.1622 36.58ZM22.2577 35.7426V28.7986H21.8523V35.7426H22.2577ZM22.2577 28.7986C22.2577 28.4406 22.2304 28.1544 22.1622 27.9611L21.7798 28.096C21.8236 28.2201 21.8523 28.4472 21.8523 28.7986H22.2577ZM22.1622 27.9611C22.0858 27.7446 21.933 27.5918 21.7165 27.5154L21.5815 27.8977C21.6824 27.9333 21.7442 27.9952 21.7798 28.096L22.1622 27.9611ZM21.7202 27.5167C21.5402 27.4492 21.2712 27.411 20.9323 27.3921L20.9098 27.797C21.2428 27.8155 21.4592 27.8519 21.5778 27.8964L21.7202 27.5167ZM21.1237 27.5946V27.3146H20.7183V27.5946H21.1237ZM20.9066 27.5168C21.3061 27.5453 21.9094 27.5593 22.713 27.5593V27.1538C21.9113 27.1538 21.3199 27.1398 20.9355 27.1123L20.9066 27.5168ZM22.713 27.5593C23.4615 27.5593 24.059 27.5453 24.5039 27.5169L24.4781 27.1122C24.0457 27.1398 23.4579 27.1538 22.713 27.1538V27.5593ZM24.2883 27.3146V27.5946H24.6937V27.3146H24.2883ZM30.5788 31.9906H30.376V32.1675L30.5514 32.1914L30.5788 31.9906ZM32.7768 32.8866L32.6305 33.0269L32.6319 33.0284L32.7768 32.8866ZM33.0288 35.9246L33.1981 36.0361V36.0361L33.0288 35.9246ZM31.8668 36.8906L31.9491 37.0758L31.9519 37.0745L31.8668 36.8906ZM29.4308 37.2126L29.4414 37.0101L29.4371 37.0099L29.4308 37.2126ZM25.9308 37.2266H25.728V37.4443L25.9452 37.4288L25.9308 37.2266ZM25.9308 36.9466L25.9195 36.7441L25.728 36.7548V36.9466H25.9308ZM26.6588 36.8346L26.5913 36.6433L26.5876 36.6447L26.6588 36.8346ZM26.9808 28.0286L26.7896 28.096V28.096L26.9808 28.0286ZM26.6588 27.7066L26.5876 27.8964L26.5913 27.8977L26.6588 27.7066ZM25.9308 27.5946H25.728V27.7863L25.9195 27.797L25.9308 27.5946ZM25.9308 27.3146L25.9452 27.1123L25.728 27.0968V27.3146H25.9308ZM27.6388 27.3566V27.5593L27.6406 27.5593L27.6388 27.3566ZM29.1508 27.3426L29.1527 27.5455L29.1614 27.545L29.1508 27.3426ZM31.9368 27.9306L31.8105 28.0892L31.8119 28.0903L31.9368 27.9306ZM32.1888 30.9826L32.0308 30.8555L32.0291 30.8576L32.1888 30.9826ZM30.5788 31.9626L30.5198 31.7686L30.376 31.8123V31.9626H30.5788ZM28.7448 27.6926L28.6635 27.5068L28.659 27.5088L28.7448 27.6926ZM28.4508 28.0426L28.6431 28.1067V28.1067L28.4508 28.0426ZM28.3668 31.9626H28.164V32.1653H28.3668V31.9626ZM30.9008 31.3466L30.7373 31.2267L30.7368 31.2273L30.9008 31.3466ZM31.4328 32.7746L31.2911 32.9196L31.2929 32.9213L31.4328 32.7746ZM28.3668 32.2006V31.9978H28.164V32.2006H28.3668ZM28.4508 36.4846L28.642 36.4171V36.4171L28.4508 36.4846ZM28.7448 36.8206L28.659 37.0043L28.6662 37.0076L28.6736 37.0104L28.7448 36.8206ZM30.5514 32.1914C31.5593 32.3289 32.2381 32.6178 32.6305 33.0269L32.9231 32.7462C32.4382 32.2407 31.6516 31.9322 30.6062 31.7897L30.5514 32.1914ZM32.6319 33.0284C33.033 33.438 33.232 33.9282 33.232 34.5106H33.6375C33.6375 33.8236 33.3979 33.2311 32.9216 32.7447L32.6319 33.0284ZM33.232 34.5106C33.232 35.0063 33.1065 35.4382 32.8595 35.813L33.1981 36.0361C33.4923 35.5896 33.6375 35.0788 33.6375 34.5106H33.232ZM32.8595 35.813C32.6122 36.1882 32.2559 36.487 31.7816 36.7066L31.9519 37.0745C32.4856 36.8275 32.904 36.4822 33.1981 36.0361L32.8595 35.813ZM31.7844 36.7053C31.312 36.9153 30.744 37.0238 30.0748 37.0238V37.4293C30.7869 37.4293 31.4135 37.3139 31.9491 37.0758L31.7844 36.7053ZM30.0748 37.0238C29.825 37.0238 29.6141 37.0192 29.4414 37.0101L29.4201 37.415C29.6021 37.4246 29.8206 37.4293 30.0748 37.4293V37.0238ZM29.4371 37.0099C28.8377 36.9912 28.2476 36.9818 27.6668 36.9818V37.3873C28.2433 37.3873 28.8291 37.3966 29.4244 37.4152L29.4371 37.0099ZM27.6668 36.9818C26.9002 36.9818 26.3157 36.9958 25.9163 37.0243L25.9452 37.4288C26.3298 37.4013 26.9027 37.3873 27.6668 37.3873V36.9818ZM26.1335 37.2266V36.9466H25.728V37.2266H26.1335ZM25.942 37.149C26.281 37.1302 26.5499 37.0919 26.73 37.0244L26.5876 36.6447C26.4689 36.6892 26.2525 36.7256 25.9195 36.7441L25.942 37.149ZM26.7262 37.0257C26.9427 36.9493 27.0955 36.7965 27.172 36.58L26.7896 36.4451C26.754 36.5459 26.6921 36.6078 26.5913 36.6434L26.7262 37.0257ZM27.172 36.58C27.2402 36.3867 27.2675 36.1005 27.2675 35.7426H26.862C26.862 36.0939 26.8334 36.3211 26.7896 36.4451L27.172 36.58ZM27.2675 35.7426V28.7986H26.862V35.7426H27.2675ZM27.2675 28.7986C27.2675 28.4406 27.2402 28.1544 27.172 27.9611L26.7896 28.096C26.8334 28.2201 26.862 28.4472 26.862 28.7986H27.2675ZM27.172 27.9611C27.0955 27.7446 26.9427 27.5918 26.7262 27.5154L26.5913 27.8977C26.6921 27.9333 26.754 27.9952 26.7896 28.096L27.172 27.9611ZM26.73 27.5167C26.5499 27.4492 26.281 27.411 25.942 27.3921L25.9195 27.797C26.2525 27.8155 26.4689 27.8519 26.5876 27.8964L26.73 27.5167ZM26.1335 27.5946V27.3146H25.728V27.5946H26.1335ZM25.9163 27.5168C26.3157 27.5453 26.8907 27.5593 27.6388 27.5593V27.1538C26.8935 27.1538 26.3299 27.1398 25.9452 27.1123L25.9163 27.5168ZM27.6406 27.5593L29.1527 27.5453L29.1489 27.1398L27.6369 27.1538L27.6406 27.5593ZM29.1614 27.545C29.3344 27.5359 29.5315 27.5313 29.7528 27.5313V27.1258C29.5261 27.1258 29.3218 27.1305 29.1401 27.1401L29.1614 27.545ZM29.7528 27.5313C30.68 27.5313 31.356 27.7272 31.8105 28.0892L32.0631 27.772C31.5096 27.3312 30.7295 27.1258 29.7528 27.1258V27.5313ZM31.8119 28.0903C32.2751 28.4524 32.504 28.925 32.504 29.5266H32.9095C32.9095 28.8028 32.6251 28.2114 32.0616 27.7708L31.8119 28.0903ZM32.504 29.5266C32.504 30.0208 32.3477 30.4615 32.0308 30.8555L32.3467 31.1096C32.7205 30.645 32.9095 30.115 32.9095 29.5266H32.504ZM32.0291 30.8576C31.7274 31.2431 31.2332 31.5519 30.5198 31.7686L30.6377 32.1565C31.399 31.9253 31.9781 31.5807 32.3484 31.1075L32.0291 30.8576ZM30.376 31.9626V31.9906H30.7815V31.9626H30.376ZM29.4028 27.3918C29.1038 27.3918 28.8512 27.4247 28.6635 27.5068L28.826 27.8783C28.937 27.8297 29.1231 27.7973 29.4028 27.7973V27.3918ZM28.659 27.5088C28.461 27.6012 28.3292 27.7661 28.2584 27.9785L28.6431 28.1067C28.6843 27.983 28.7485 27.9145 28.8305 27.8763L28.659 27.5088ZM28.2584 27.9785C28.1919 28.1781 28.164 28.4566 28.164 28.7986H28.5695C28.5695 28.4685 28.5977 28.243 28.6431 28.1067L28.2584 27.9785ZM28.164 28.7986V31.9626H28.5695V28.7986H28.164ZM28.3668 32.1653H29.3048V31.7598H28.3668V32.1653ZM29.3048 32.1653C30.1007 32.1653 30.7115 31.9515 31.0647 31.4658L30.7368 31.2273C30.4927 31.5629 30.0395 31.7598 29.3048 31.7598V32.1653ZM31.0643 31.4665C31.4049 31.0019 31.5655 30.4004 31.5655 29.6806H31.16C31.16 30.3421 31.0126 30.8512 30.7373 31.2267L31.0643 31.4665ZM31.5655 29.6806C31.5655 28.9555 31.4066 28.3751 31.0521 27.9776L30.7495 28.2475C31.0109 28.5407 31.16 29.0056 31.16 29.6806H31.5655ZM31.0521 27.9776C30.6899 27.5716 30.1225 27.3918 29.4028 27.3918V27.7973C30.0644 27.7973 30.4956 27.9629 30.7495 28.2475L31.0521 27.9776ZM29.4168 37.1073C30.3175 37.1073 31.0307 36.8968 31.5188 36.4401C32.0094 35.981 32.2375 35.306 32.2375 34.4546H31.832C31.832 35.2364 31.6238 35.7865 31.2417 36.144C30.8572 36.504 30.2614 36.7018 29.4168 36.7018V37.1073ZM32.2375 34.4546C32.2375 33.6808 32.0261 33.0602 31.5727 32.6278L31.2929 32.9213C31.6421 33.2543 31.832 33.7536 31.832 34.4546H32.2375ZM31.5744 32.6295C31.1275 32.1933 30.4339 31.9978 29.5428 31.9978V32.4033C30.3876 32.4033 30.954 32.5905 31.2912 32.9196L31.5744 32.6295ZM29.5428 31.9978H28.3668V32.4033H29.5428V31.9978ZM28.164 32.2006V35.7426H28.5695V32.2006H28.164ZM28.164 35.7426C28.164 36.0834 28.1916 36.3594 28.2596 36.552L28.642 36.4171C28.5979 36.2924 28.5695 36.0738 28.5695 35.7426H28.164ZM28.2596 36.552C28.3319 36.757 28.4651 36.9138 28.659 37.0043L28.8305 36.6368C28.7445 36.5967 28.6816 36.5295 28.642 36.4171L28.2596 36.552ZM28.6736 37.0104C28.8577 37.0794 29.1112 37.1073 29.4168 37.1073V36.7018C29.125 36.7018 28.9305 36.6737 28.816 36.6307L28.6736 37.0104ZM38.3934 27.5946L38.4046 27.797L38.5961 27.7863V27.5946H38.3934ZM37.6514 27.7066L37.5839 27.5153L37.5802 27.5167L37.6514 27.7066ZM37.3434 28.0286L37.5345 28.096V28.096L37.3434 28.0286ZM37.3434 36.5126L37.5345 36.4451V36.4451L37.3434 36.5126ZM37.6514 36.8346L37.5802 37.0244L37.5871 37.027L37.5941 37.0291L37.6514 36.8346ZM40.7313 36.6666L40.8265 36.8456L40.8284 36.8445L40.7313 36.6666ZM41.4034 35.8686L41.5926 35.9413V35.9413L41.4034 35.8686ZM41.7114 34.2866V34.0838H41.5269L41.5095 34.2675L41.7114 34.2866ZM42.0334 34.2866L42.2351 34.3061L42.2567 34.0838H42.0334V34.2866ZM42.0894 37.2266L42.0804 37.4291L42.3141 37.4394L42.2911 37.2067L42.0894 37.2266ZM34.8234 37.2266H34.6206V37.4356L34.8296 37.4292L34.8234 37.2266ZM34.8234 36.9466L34.8121 36.7441L34.6206 36.7548V36.9466H34.8234ZM35.5514 36.8346L35.4839 36.6433L35.4802 36.6447L35.5514 36.8346ZM35.8734 28.0286L35.6822 28.096V28.096L35.8734 28.0286ZM35.5514 27.7066L35.4802 27.8964L35.4839 27.8977L35.5514 27.7066ZM34.8234 27.5946H34.6206V27.7863L34.8121 27.797L34.8234 27.5946ZM34.8234 27.3146L34.8378 27.1123L34.6206 27.0968V27.3146H34.8234ZM38.3934 27.3146H38.5961V27.0985L38.3804 27.1122L38.3934 27.3146ZM38.3821 27.3921C38.0421 27.411 37.7709 27.4494 37.5839 27.5154L37.7188 27.8977C37.8492 27.8517 38.0727 27.8154 38.4046 27.797L38.3821 27.3921ZM37.5802 27.5167C37.3713 27.5951 37.2269 27.7495 37.1522 27.9611L37.5345 28.096C37.5718 27.9903 37.6328 27.9301 37.7225 27.8964L37.5802 27.5167ZM37.1522 27.9611C37.084 28.1544 37.0566 28.4406 37.0566 28.7986H37.4621C37.4621 28.4472 37.4908 28.2201 37.5345 28.096L37.1522 27.9611ZM37.0566 28.7986V35.7426H37.4621V28.7986H37.0566ZM37.0566 35.7426C37.0566 36.1005 37.084 36.3867 37.1522 36.58L37.5345 36.4451C37.4908 36.3211 37.4621 36.0939 37.4621 35.7426H37.0566ZM37.1522 36.58C37.2269 36.7917 37.3713 36.9461 37.5802 37.0244L37.7225 36.6447C37.6328 36.6111 37.5718 36.5508 37.5345 36.4451L37.1522 36.58ZM37.5941 37.0291C37.782 37.0843 38.0536 37.1073 38.3934 37.1073V36.7018C38.0611 36.7018 37.838 36.6781 37.7086 36.6401L37.5941 37.0291ZM38.3934 37.1073H39.4154V36.7018H38.3934V37.1073ZM39.4154 37.1073C40.0066 37.1073 40.4846 37.0272 40.8265 36.8456L40.6362 36.4875C40.3808 36.6232 39.9814 36.7018 39.4154 36.7018V37.1073ZM40.8284 36.8445C41.1834 36.6509 41.4374 36.3449 41.5926 35.9413L41.2141 35.7958C41.0893 36.1203 40.8953 36.3462 40.6343 36.4886L40.8284 36.8445ZM41.5926 35.9413C41.7424 35.5517 41.8472 35.0028 41.9132 34.3057L41.5095 34.2675C41.4448 34.9517 41.3443 35.4574 41.2141 35.7958L41.5926 35.9413ZM41.7114 34.4893H42.0334V34.0838H41.7114V34.4893ZM41.8316 34.267C41.8027 34.5656 41.7886 34.9556 41.7886 35.4346H42.1941C42.1941 34.9615 42.208 34.5862 42.2351 34.3061L41.8316 34.267ZM41.7886 35.4346C41.7886 35.9746 41.8218 36.5787 41.8876 37.2465L42.2911 37.2067C42.2263 36.5491 42.1941 35.9585 42.1941 35.4346H41.7886ZM42.0983 37.024C41.4587 36.9958 40.3861 36.9818 38.8834 36.9818V37.3873C40.3859 37.3873 41.4507 37.4013 42.0804 37.4291L42.0983 37.024ZM38.8834 36.9818C37.0908 36.9818 35.735 36.9958 34.8171 37.0239L34.8296 37.4292C35.741 37.4013 37.0919 37.3873 38.8834 37.3873V36.9818ZM35.0261 37.2266V36.9466H34.6206V37.2266H35.0261ZM34.8346 37.149C35.1736 37.1302 35.4425 37.0919 35.6225 37.0244L35.4802 36.6447C35.3615 36.6892 35.1451 36.7256 34.8121 36.7441L34.8346 37.149ZM35.6188 37.0257C35.8353 36.9493 35.9881 36.7965 36.0645 36.58L35.6822 36.4451C35.6466 36.5459 35.5847 36.6078 35.4839 36.6434L35.6188 37.0257ZM36.0645 36.58C36.1328 36.3867 36.1601 36.1005 36.1601 35.7426H35.7546C35.7546 36.0939 35.726 36.3211 35.6822 36.4451L36.0645 36.58ZM36.1601 35.7426V28.7986H35.7546V35.7426H36.1601ZM36.1601 28.7986C36.1601 28.4406 36.1328 28.1544 36.0645 27.9611L35.6822 28.096C35.726 28.2201 35.7546 28.4472 35.7546 28.7986H36.1601ZM36.0645 27.9611C35.9881 27.7446 35.8353 27.5918 35.6188 27.5154L35.4839 27.8977C35.5847 27.9333 35.6466 27.9952 35.6822 28.096L36.0645 27.9611ZM35.6225 27.5167C35.4425 27.4492 35.1736 27.411 34.8346 27.3921L34.8121 27.797C35.1451 27.8155 35.3615 27.8519 35.4802 27.8964L35.6225 27.5167ZM35.0261 27.5946V27.3146H34.6206V27.5946H35.0261ZM34.8089 27.5168C35.2084 27.5453 35.8117 27.5593 36.6154 27.5593V27.1538C35.8136 27.1538 35.2223 27.1398 34.8378 27.1123L34.8089 27.5168ZM36.6154 27.5593C37.3638 27.5593 37.9614 27.5453 38.4063 27.5169L38.3804 27.1122C37.948 27.1398 37.3602 27.1538 36.6154 27.1538V27.5593ZM38.1906 27.3146V27.5946H38.5961V27.3146H38.1906ZM46.8894 27.5946L46.9007 27.797L47.0922 27.7863V27.5946H46.8894ZM46.1474 27.7066L46.08 27.5153L46.0763 27.5167L46.1474 27.7066ZM45.8394 28.0286L46.0306 28.096V28.096L45.8394 28.0286ZM45.8394 36.5126L46.0306 36.4451V36.4451L45.8394 36.5126ZM46.1474 36.8346L46.0762 37.0244L46.08 37.0257L46.1474 36.8346ZM46.8894 36.9466H47.0922V36.7548L46.9007 36.7441L46.8894 36.9466ZM46.8894 37.2266L46.8763 37.4289L47.0922 37.443V37.2266H46.8894ZM43.3194 37.2266H43.1167V37.4443L43.3339 37.4288L43.3194 37.2266ZM43.3194 36.9466L43.3082 36.7441L43.1167 36.7548V36.9466H43.3194ZM44.0474 36.8346L43.98 36.6433L43.9763 36.6447L44.0474 36.8346ZM44.3694 28.0286L44.1783 28.096H44.1783L44.3694 28.0286ZM44.0474 27.7066L43.9762 27.8964L43.98 27.8977L44.0474 27.7066ZM43.3194 27.5946H43.1167V27.7863L43.3082 27.797L43.3194 27.5946ZM43.3194 27.3146L43.3339 27.1123L43.1167 27.0968V27.3146H43.3194ZM46.8894 27.3146H47.0922V27.0985L46.8765 27.1122L46.8894 27.3146ZM46.8782 27.3921C46.5381 27.411 46.267 27.4494 46.08 27.5154L46.2149 27.8977C46.3453 27.8517 46.5687 27.8154 46.9007 27.797L46.8782 27.3921ZM46.0763 27.5167C45.8674 27.5951 45.723 27.7495 45.6483 27.9611L46.0306 28.096C46.0679 27.9903 46.1289 27.9301 46.2186 27.8964L46.0763 27.5167ZM45.6483 27.9611C45.58 28.1544 45.5527 28.4406 45.5527 28.7986H45.9582C45.9582 28.4472 45.9868 28.2201 46.0306 28.096L45.6483 27.9611ZM45.5527 28.7986V35.7426H45.9582V28.7986H45.5527ZM45.5527 35.7426C45.5527 36.1005 45.58 36.3867 45.6483 36.58L46.0306 36.4451C45.9868 36.3211 45.9582 36.0939 45.9582 35.7426H45.5527ZM45.6483 36.58C45.723 36.7917 45.8674 36.9461 46.0763 37.0244L46.2186 36.6447C46.1289 36.6111 46.0679 36.5508 46.0306 36.4451L45.6483 36.58ZM46.08 37.0257C46.267 37.0917 46.5381 37.1301 46.8782 37.149L46.9007 36.7441C46.5687 36.7257 46.3453 36.6894 46.2149 36.6434L46.08 37.0257ZM46.6867 36.9466V37.2266H47.0922V36.9466H46.6867ZM46.9026 37.0243C46.4668 36.9958 45.8691 36.9818 45.1114 36.9818V37.3873C45.8658 37.3873 46.4534 37.4013 46.8763 37.4289L46.9026 37.0243ZM45.1114 36.9818C44.3078 36.9818 43.7045 36.9958 43.305 37.0243L43.3339 37.4288C43.7183 37.4013 44.3097 37.3873 45.1114 37.3873V36.9818ZM43.5222 37.2266V36.9466H43.1167V37.2266H43.5222ZM43.3307 37.149C43.6697 37.1302 43.9386 37.0919 44.1186 37.0244L43.9763 36.6447C43.8576 36.6892 43.6412 36.7256 43.3082 36.7441L43.3307 37.149ZM44.1149 37.0257C44.3314 36.9493 44.4842 36.7965 44.5606 36.58L44.1783 36.4451C44.1427 36.5459 44.0808 36.6078 43.98 36.6434L44.1149 37.0257ZM44.5606 36.58C44.6288 36.3867 44.6562 36.1005 44.6562 35.7426H44.2507C44.2507 36.0939 44.222 36.3211 44.1783 36.4451L44.5606 36.58ZM44.6562 35.7426V28.7986H44.2507V35.7426H44.6562ZM44.6562 28.7986C44.6562 28.4406 44.6288 28.1544 44.5606 27.9611L44.1783 28.096C44.222 28.2201 44.2507 28.4472 44.2507 28.7986H44.6562ZM44.5606 27.9611C44.4842 27.7446 44.3314 27.5918 44.1149 27.5154L43.98 27.8977C44.0808 27.9333 44.1427 27.9952 44.1783 28.096L44.5606 27.9611ZM44.1186 27.5167C43.9386 27.4492 43.6697 27.411 43.3307 27.3921L43.3082 27.797C43.6412 27.8155 43.8576 27.8519 43.9763 27.8964L44.1186 27.5167ZM43.5222 27.5946V27.3146H43.1167V27.5946H43.5222ZM43.305 27.5168C43.7045 27.5453 44.3078 27.5593 45.1114 27.5593V27.1538C44.3097 27.1538 43.7183 27.1398 43.3339 27.1123L43.305 27.5168ZM45.1114 27.5593C45.8599 27.5593 46.4575 27.5453 46.9024 27.5169L46.8765 27.1122C46.4441 27.1398 45.8563 27.1538 45.1114 27.1538V27.5593ZM46.6867 27.3146V27.5946H47.0922V27.3146H46.6867ZM55.6792 36.0506L55.8683 35.9774L55.8682 35.9772L55.6792 36.0506ZM56.6452 36.9466H56.8479V36.7526L56.6542 36.744L56.6452 36.9466ZM56.6452 37.2266L56.6301 37.4287L56.8479 37.4451V37.2266H56.6452ZM53.3552 37.2266H53.1525V37.4443L53.3697 37.4288L53.3552 37.2266ZM53.3552 36.9466L53.3446 36.7441L53.1525 36.7542V36.9466H53.3552ZM54.1112 36.8206L54.1925 37.0064L54.1975 37.004L54.1112 36.8206ZM54.1812 35.7706L53.9911 35.8413L53.993 35.8459L54.1812 35.7706ZM53.3272 33.4746L53.5172 33.4039L53.4681 33.2718H53.3272V33.4746ZM49.9392 33.4746V33.2718H49.8003L49.7501 33.4014L49.9392 33.4746ZM49.3652 34.9586L49.1761 34.8854L49.1751 34.8881L49.3652 34.9586ZM49.3792 36.7366L49.2667 36.9053L49.2704 36.9076L49.3792 36.7366ZM50.3032 36.9466H50.5059V36.7484L50.3078 36.7439L50.3032 36.9466ZM50.3032 37.2266L50.2926 37.429L50.5059 37.4403V37.2266H50.3032ZM47.6432 37.2266H47.4405V37.4506L47.6634 37.4283L47.6432 37.2266ZM47.6432 36.9466L47.5959 36.7494L47.4405 36.7867V36.9466H47.6432ZM48.7492 35.7286L48.5602 35.6553L48.5601 35.6554L48.7492 35.7286ZM52.0392 27.2446V27.0418H51.9004L51.8502 27.1713L52.0392 27.2446ZM52.2632 27.2446L52.4522 27.1712L52.402 27.0418H52.2632V27.2446ZM53.2152 33.1946V33.3973H53.5076L53.4051 33.1234L53.2152 33.1946ZM51.6472 29.0086L51.8371 28.9374L51.6489 28.4351L51.4578 28.9363L51.6472 29.0086ZM50.0512 33.1946L49.8618 33.1223L49.7569 33.3973H50.0512V33.1946ZM55.4901 36.1237C55.7273 36.7363 56.0995 37.1252 56.6362 37.1491L56.6542 36.744C56.3509 36.7305 56.0791 36.5221 55.8683 35.9774L55.4901 36.1237ZM56.4425 36.9466V37.2266H56.8479V36.9466H56.4425ZM56.6604 37.0244C56.2798 36.9958 55.7747 36.9818 55.1472 36.9818V37.3873C55.7703 37.3873 56.264 37.4013 56.6301 37.4287L56.6604 37.0244ZM55.1472 36.9818C54.3436 36.9818 53.7403 36.9958 53.3408 37.0243L53.3697 37.4288C53.7541 37.4013 54.3455 37.3873 55.1472 37.3873V36.9818ZM53.5579 37.2266V36.9466H53.1525V37.2266H53.5579ZM53.3659 37.149C53.723 37.1302 54.007 37.0874 54.1925 37.0063L54.0299 36.6348C53.9168 36.6843 53.6968 36.7256 53.3446 36.7441L53.3659 37.149ZM54.1975 37.004C54.3075 36.9523 54.3997 36.876 54.463 36.7718C54.5258 36.6684 54.5519 36.5508 54.5519 36.4286H54.1465C54.1465 36.493 54.133 36.5341 54.1164 36.5613C54.1003 36.5878 54.0736 36.6142 54.0249 36.6371L54.1975 37.004ZM54.5519 36.4286C54.5519 36.2302 54.484 35.9816 54.3694 35.6953L53.993 35.8459C54.1024 36.1195 54.1465 36.3096 54.1465 36.4286H54.5519ZM54.3712 35.6999L53.5172 33.4039L53.1372 33.5452L53.9912 35.8412L54.3712 35.6999ZM53.3272 33.2718H49.9392V33.6773H53.3272V33.2718ZM49.7501 33.4014L49.1761 34.8854L49.5543 35.0317L50.1283 33.5477L49.7501 33.4014ZM49.1751 34.8881C48.987 35.396 48.8825 35.8071 48.8825 36.1066H49.2879C49.2879 35.8833 49.3701 35.5291 49.5553 35.029L49.1751 34.8881ZM48.8825 36.1066C48.8825 36.446 49.0011 36.7281 49.2668 36.9053L49.4917 36.5679C49.3653 36.4836 49.2879 36.3458 49.2879 36.1066H48.8825ZM49.2704 36.9076C49.5216 37.0675 49.8735 37.1396 50.2986 37.1492L50.3078 36.7439C49.9116 36.7349 49.6475 36.667 49.4881 36.5655L49.2704 36.9076ZM50.1005 36.9466V37.2266H50.5059V36.9466H50.1005ZM50.3139 37.0241C49.7783 36.9959 49.238 36.9818 48.6932 36.9818V37.3873C49.231 37.3873 49.7642 37.4012 50.2926 37.429L50.3139 37.0241ZM48.6932 36.9818C48.2694 36.9818 47.9121 36.9959 47.623 37.0248L47.6634 37.4283C47.9343 37.4012 48.277 37.3873 48.6932 37.3873V36.9818ZM47.8459 37.2266V36.9466H47.4405V37.2266H47.8459ZM47.6905 37.1437C48.2522 37.0089 48.6576 36.5276 48.9383 35.8017L48.5601 35.6554C48.2995 36.3295 47.9675 36.6602 47.5959 36.7494L47.6905 37.1437ZM48.9382 35.8019L52.2282 27.3179L51.8502 27.1713L48.5602 35.6553L48.9382 35.8019ZM52.0392 27.4473H52.2632V27.0418H52.0392V27.4473ZM52.0742 27.3179L55.4902 36.1239L55.8682 35.9772L52.4522 27.1712L52.0742 27.3179ZM53.4051 33.1234L51.8371 28.9374L51.4574 29.0797L53.0254 33.2657L53.4051 33.1234ZM51.4578 28.9363L49.8618 33.1223L50.2406 33.2668L51.8366 29.0808L51.4578 28.9363ZM50.0512 33.3973H53.2152V32.9918H50.0512V33.3973Z" fill="#FEF5EB" mask="url(#path-5-outside-1_23632_22615)"/>
</g>
</g>
<defs>
<linearGradient id="paint0_linear_23632_22615" x1="34" y1="-1.04141e-05" x2="34" y2="68" gradientUnits="userSpaceOnUse">
<stop stop-color="#C93D34"/>
<stop offset="1" stop-color="#7A2629"/>
</linearGradient>
<linearGradient id="paint1_linear_23632_22615" x1="34" y1="-1.04141e-05" x2="34" y2="68" gradientUnits="userSpaceOnUse">
<stop stop-color="#C93D34"/>
<stop offset="1" stop-color="#7A2629"/>
</linearGradient>
<clipPath id="clip0_23632_22615">
<rect width="68" height="68" fill="white"/>
</clipPath>
</defs>
</svg>
