<svg width="68" height="68" viewBox="0 0 68 68" fill="none" xmlns="http://www.w3.org/2000/svg">
<g clip-path="url(#clip0_23632_22609)">
<mask id="mask0_23632_22609" style="mask-type:alpha" maskUnits="userSpaceOnUse" x="0" y="0" width="68" height="68">
<path fill-rule="evenodd" clip-rule="evenodd" d="M47.0333 0H20.9667C13.5811 0 8.89667 0.0377779 4.45778 4.45778C0.018889 8.89667 0 13.6 0 20.9667V47.0333C0 54.4189 0.0377779 59.1033 4.45778 63.5422C8.89667 67.9811 13.6 68 20.9667 68H47.0333C54.4189 68 59.1033 67.9811 63.5422 63.5422C67.9622 59.1033 68 54.4 68 47.0333V20.9667C68 13.5811 67.9622 8.89667 63.5422 4.45778C59.1033 0.018889 54.4 0 47.0333 0Z" fill="url(#paint0_linear_23632_22609)"/>
</mask>
<g mask="url(#mask0_23632_22609)">
<rect width="68" height="68" fill="url(#paint1_linear_23632_22609)"/>
<path fill-rule="evenodd" clip-rule="evenodd" d="M15.6212 64.3735C26.4256 64.3735 45.6357 64.3735 45.6357 64.3735C52.5868 64.3735 57.0823 64.6379 61.2379 60.4446C64.8079 56.8746 64.5057 50.8679 64.7323 46.1079C60.709 52.1524 53.3234 51.9446 47.619 51.9446C47.619 51.9446 20.929 51.9446 10.9556 51.9446C0.982316 51.9635 4.81676 64.3735 15.6212 64.3735Z" fill="#FEF5EB"/>
<path d="M12.4854 53.5312H23.1387V61.5213L17.812 58.8579L12.4854 61.5213V53.5312Z" fill="#F19C33"/>
<mask id="path-5-outside-1_23632_22609" maskUnits="userSpaceOnUse" x="11.1016" y="12.2266" width="45" height="26" fill="black">
<rect fill="white" x="11.1016" y="12.2266" width="45" height="26"/>
<path d="M14.9287 13.1606C15.3394 13.1606 15.6614 13.2072 15.8947 13.3006C16.1374 13.3846 16.3847 13.5106 16.6367 13.6786C16.8421 13.8092 17.0007 13.8746 17.1127 13.8746C17.1967 13.8746 17.2621 13.8279 17.3087 13.7346C17.3554 13.6319 17.3927 13.4732 17.4207 13.2586H17.7427C17.6961 13.7999 17.6727 14.7519 17.6727 16.1146H17.3507C17.2947 15.3586 17.0754 14.7239 16.6927 14.2106C16.3194 13.6879 15.7734 13.4266 15.0547 13.4266C14.5507 13.4266 14.1401 13.5806 13.8227 13.8886C13.5054 14.1872 13.3467 14.5746 13.3467 15.0506C13.3467 15.4052 13.4261 15.7132 13.5847 15.9746C13.7527 16.2359 13.9627 16.4599 14.2147 16.6466C14.4667 16.8332 14.8261 17.0712 15.2927 17.3606L15.6987 17.6126C16.2867 17.9766 16.7487 18.2986 17.0847 18.5786C17.4301 18.8492 17.7054 19.1619 17.9107 19.5166C18.1161 19.8712 18.2187 20.2866 18.2187 20.7626C18.2187 21.6119 17.9387 22.2699 17.3787 22.7366C16.8187 23.1939 16.1094 23.4226 15.2507 23.4226C14.8027 23.4226 14.4341 23.3759 14.1447 23.2826C13.8647 23.1892 13.5941 23.0632 13.3327 22.9046C13.1274 22.7739 12.9687 22.7086 12.8567 22.7086C12.7727 22.7086 12.7074 22.7599 12.6607 22.8626C12.6141 22.9559 12.5767 23.1099 12.5487 23.3246H12.2267C12.2641 22.8112 12.2827 21.6912 12.2827 19.9646H12.6047C12.6701 20.9072 12.9034 21.6726 13.3047 22.2606C13.7061 22.8486 14.3221 23.1426 15.1527 23.1426C15.6567 23.1426 16.0861 22.9886 16.4407 22.6806C16.7954 22.3632 16.9727 21.8966 16.9727 21.2806C16.9727 20.7579 16.7954 20.3146 16.4407 19.9506C16.0954 19.5866 15.5447 19.1759 14.7887 18.7186C14.2381 18.3826 13.7901 18.0839 13.4447 17.8226C13.1087 17.5612 12.8334 17.2486 12.6187 16.8846C12.4041 16.5112 12.2967 16.0772 12.2967 15.5826C12.2967 14.7986 12.5487 14.2012 13.0527 13.7906C13.5567 13.3706 14.1821 13.1606 14.9287 13.1606ZM27.0389 13.3566C27.4589 13.3566 27.8089 13.3426 28.0889 13.3146V13.5946C27.6222 13.7066 27.2536 14.1126 26.9829 14.8126L23.6929 23.2966H23.5809H23.4689L20.0529 14.4906C19.8289 13.9119 19.5069 13.6132 19.0869 13.5946V13.3146C19.4602 13.3426 19.9596 13.3566 20.5849 13.3566C21.3876 13.3566 21.9849 13.3426 22.3769 13.3146V13.5946C22.0222 13.6132 21.7656 13.6599 21.6069 13.7346C21.4576 13.7999 21.3829 13.9259 21.3829 14.1126C21.3829 14.2712 21.4389 14.4906 21.5509 14.7706L24.0849 21.5046L26.3669 15.5826C26.5536 15.0786 26.6469 14.6959 26.6469 14.4346C26.6469 14.1452 26.5442 13.9352 26.3389 13.8046C26.1429 13.6739 25.8396 13.6039 25.4289 13.5946V13.3146C25.9609 13.3426 26.4976 13.3566 27.0389 13.3566ZM36.0109 21.4346C36.0109 21.9666 36.0435 22.5639 36.1089 23.2266C35.4742 23.1986 34.4055 23.1846 32.9029 23.1846C31.1109 23.1846 29.7575 23.1986 28.8429 23.2266V22.9466C29.1789 22.9279 29.4215 22.8906 29.5709 22.8346C29.7295 22.7786 29.8369 22.6712 29.8929 22.5126C29.9489 22.3539 29.9769 22.0972 29.9769 21.7426V14.7986C29.9769 14.4439 29.9489 14.1872 29.8929 14.0286C29.8369 13.8699 29.7295 13.7626 29.5709 13.7066C29.4215 13.6506 29.1789 13.6132 28.8429 13.5946V13.3146C29.7575 13.3426 31.1109 13.3566 32.9029 13.3566C34.2749 13.3566 35.2502 13.3426 35.8289 13.3146C35.7635 13.9306 35.7309 14.4812 35.7309 14.9666C35.7309 15.3306 35.7449 15.6199 35.7729 15.8346H35.4509C35.3855 15.2279 35.3015 14.7799 35.1989 14.4906C35.0962 14.1919 34.9235 13.9772 34.6809 13.8466C34.4382 13.7066 34.0695 13.6366 33.5749 13.6366H32.4129C32.0769 13.6366 31.8295 13.6646 31.6709 13.7206C31.5215 13.7672 31.4189 13.8699 31.3629 14.0286C31.3069 14.1872 31.2789 14.4439 31.2789 14.7986V18.1026H32.2029C32.5295 18.1026 32.7815 18.0279 32.9589 17.8786C33.1362 17.7199 33.2529 17.5379 33.3089 17.3326C33.3742 17.1179 33.4255 16.8519 33.4629 16.5346L33.5049 16.2546H33.8269C33.7989 16.6466 33.7849 17.0852 33.7849 17.5706V18.2426C33.7849 18.7186 33.8129 19.3812 33.8689 20.2306H33.5469C33.5375 20.1652 33.5095 19.9412 33.4629 19.5586C33.4162 19.1666 33.2855 18.8726 33.0709 18.6766C32.8655 18.4806 32.5762 18.3826 32.2029 18.3826H31.2789V21.7426C31.2789 22.0972 31.3069 22.3539 31.3629 22.5126C31.4189 22.6712 31.5215 22.7786 31.6709 22.8346C31.8295 22.8812 32.0769 22.9046 32.4129 22.9046H33.4349C34.0135 22.9046 34.4522 22.8299 34.7509 22.6806C35.0589 22.5219 35.2829 22.2746 35.4229 21.9386C35.5629 21.5932 35.6655 21.0892 35.7309 20.4266H36.0529C36.0249 20.6786 36.0109 21.0146 36.0109 21.4346ZM45.3398 13.3146C45.2744 13.9772 45.2418 14.5746 45.2418 15.1066C45.2418 15.5732 45.2558 15.9559 45.2838 16.2546H44.9618C44.8871 15.5359 44.7938 15.0039 44.6818 14.6586C44.5698 14.3039 44.3738 14.0472 44.0938 13.8886C43.8138 13.7206 43.3844 13.6366 42.8058 13.6366H42.0498V21.6026C42.0498 21.9946 42.0871 22.2792 42.1618 22.4566C42.2364 22.6339 42.3671 22.7552 42.5538 22.8206C42.7404 22.8859 43.0438 22.9279 43.4638 22.9466V23.2266C42.9784 23.1986 42.2924 23.1846 41.4058 23.1846C40.4724 23.1846 39.7818 23.1986 39.3338 23.2266V22.9466C39.7538 22.9279 40.0571 22.8859 40.2438 22.8206C40.4304 22.7552 40.5611 22.6339 40.6358 22.4566C40.7104 22.2792 40.7478 21.9946 40.7478 21.6026V13.6366H39.9918C39.4131 13.6366 38.9838 13.7206 38.7038 13.8886C38.4238 14.0472 38.2278 14.3039 38.1158 14.6586C38.0038 15.0039 37.9104 15.5359 37.8358 16.2546H37.5138C37.5418 15.9559 37.5558 15.5732 37.5558 15.1066C37.5558 14.5746 37.5231 13.9772 37.4578 13.3146C38.2324 13.3426 39.5484 13.3566 41.4058 13.3566C43.2538 13.3566 44.5651 13.3426 45.3398 13.3146ZM51.2067 13.1186C52.0934 13.1186 52.868 13.3192 53.5307 13.7206C54.2027 14.1219 54.7207 14.7052 55.0847 15.4706C55.458 16.2266 55.6447 17.1319 55.6447 18.1866C55.6447 19.2132 55.4534 20.1232 55.0707 20.9166C54.6974 21.7099 54.17 22.3259 53.4887 22.7646C52.8167 23.2032 52.0514 23.4226 51.1927 23.4226C50.306 23.4226 49.5267 23.2219 48.8547 22.8206C48.192 22.4192 47.674 21.8406 47.3007 21.0846C46.9367 20.3192 46.7547 19.4092 46.7547 18.3546C46.7547 17.3279 46.9414 16.4179 47.3147 15.6246C47.6974 14.8312 48.2247 14.2152 48.8967 13.7766C49.578 13.3379 50.348 13.1186 51.2067 13.1186ZM51.1507 13.3706C50.5534 13.3706 50.026 13.5806 49.5687 14.0006C49.1207 14.4112 48.7707 14.9899 48.5187 15.7366C48.276 16.4832 48.1547 17.3372 48.1547 18.2986C48.1547 19.2692 48.29 20.1232 48.5607 20.8606C48.8407 21.5979 49.214 22.1672 49.6807 22.5686C50.1474 22.9699 50.67 23.1706 51.2487 23.1706C51.846 23.1706 52.3687 22.9652 52.8167 22.5546C53.274 22.1346 53.624 21.5512 53.8667 20.8046C54.1187 20.0579 54.2447 19.2039 54.2447 18.2426C54.2447 17.2719 54.1047 16.4179 53.8247 15.6806C53.554 14.9432 53.1854 14.3739 52.7187 13.9726C52.252 13.5712 51.7294 13.3706 51.1507 13.3706ZM15.0142 33.2226V35.7426C15.0142 36.0972 15.0516 36.3539 15.1262 36.5126C15.2009 36.6712 15.3316 36.7786 15.5182 36.8346C15.7049 36.8906 16.0082 36.9279 16.4282 36.9466V37.2266C15.9429 37.1986 15.2569 37.1846 14.3702 37.1846C13.5676 37.1846 12.9702 37.1986 12.5782 37.2266V36.9466C12.9142 36.9279 13.1569 36.8906 13.3062 36.8346C13.4649 36.7786 13.5722 36.6712 13.6282 36.5126C13.6842 36.3539 13.7122 36.0972 13.7122 35.7426V28.7986C13.7122 28.4439 13.6842 28.1872 13.6282 28.0286C13.5722 27.8699 13.4649 27.7626 13.3062 27.7066C13.1569 27.6506 12.9142 27.6132 12.5782 27.5946V27.3146C12.9702 27.3426 13.5396 27.3566 14.2862 27.3566L15.7982 27.3426C15.9756 27.3332 16.1762 27.3286 16.4002 27.3286C17.4922 27.3286 18.3276 27.5806 18.9062 28.0846C19.4849 28.5792 19.7742 29.2466 19.7742 30.0866C19.7742 30.5999 19.6576 31.0946 19.4242 31.5706C19.2002 32.0372 18.8129 32.4292 18.2622 32.7466C17.7209 33.0639 16.9976 33.2226 16.0922 33.2226H15.0142ZM16.0502 27.5946C15.7609 27.5946 15.5416 27.6272 15.3922 27.6926C15.2522 27.7579 15.1542 27.8746 15.0982 28.0426C15.0422 28.2106 15.0142 28.4626 15.0142 28.7986V32.9426H15.9522C16.8669 32.9426 17.4969 32.6999 17.8422 32.2146C18.1969 31.7199 18.3742 31.0619 18.3742 30.2406C18.3742 29.3352 18.1922 28.6679 17.8282 28.2386C17.4736 27.8092 16.8809 27.5946 16.0502 27.5946ZM24.6033 27.5946C24.2673 27.6132 24.02 27.6506 23.8613 27.7066C23.712 27.7626 23.6093 27.8699 23.5533 28.0286C23.4973 28.1872 23.4693 28.4439 23.4693 28.7986V35.7426C23.4693 36.0972 23.4973 36.3539 23.5533 36.5126C23.6093 36.6712 23.712 36.7786 23.8613 36.8346C24.02 36.8906 24.2673 36.9279 24.6033 36.9466V37.2266C24.174 37.1986 23.5813 37.1846 22.8253 37.1846C22.0226 37.1846 21.4253 37.1986 21.0333 37.2266V36.9466C21.3693 36.9279 21.612 36.8906 21.7613 36.8346C21.92 36.7786 22.0273 36.6712 22.0833 36.5126C22.1393 36.3539 22.1673 36.0972 22.1673 35.7426V28.7986C22.1673 28.4439 22.1393 28.1872 22.0833 28.0286C22.0273 27.8699 21.92 27.7626 21.7613 27.7066C21.612 27.6506 21.3693 27.6132 21.0333 27.5946V27.3146C21.4253 27.3426 22.0226 27.3566 22.8253 27.3566C23.572 27.3566 24.1646 27.3426 24.6033 27.3146V27.5946ZM29.0391 27.1606C29.4497 27.1606 29.7717 27.2072 30.0051 27.3006C30.2477 27.3846 30.4951 27.5106 30.7471 27.6786C30.9524 27.8092 31.1111 27.8746 31.2231 27.8746C31.3071 27.8746 31.3724 27.8279 31.4191 27.7346C31.4657 27.6319 31.5031 27.4732 31.5311 27.2586H31.8531C31.8064 27.7999 31.7831 28.7519 31.7831 30.1146H31.4611C31.4051 29.3586 31.1857 28.7239 30.8031 28.2106C30.4297 27.6879 29.8837 27.4266 29.1651 27.4266C28.6611 27.4266 28.2504 27.5806 27.9331 27.8886C27.6157 28.1872 27.4571 28.5746 27.4571 29.0506C27.4571 29.4052 27.5364 29.7132 27.6951 29.9746C27.8631 30.2359 28.0731 30.4599 28.3251 30.6466C28.5771 30.8332 28.9364 31.0712 29.4031 31.3606L29.8091 31.6126C30.3971 31.9766 30.8591 32.2986 31.1951 32.5786C31.5404 32.8492 31.8157 33.1619 32.0211 33.5166C32.2264 33.8712 32.3291 34.2866 32.3291 34.7626C32.3291 35.6119 32.0491 36.2699 31.4891 36.7366C30.9291 37.1939 30.2197 37.4226 29.3611 37.4226C28.9131 37.4226 28.5444 37.3759 28.2551 37.2826C27.9751 37.1892 27.7044 37.0632 27.4431 36.9046C27.2377 36.7739 27.0791 36.7086 26.9671 36.7086C26.8831 36.7086 26.8177 36.7599 26.7711 36.8626C26.7244 36.9559 26.6871 37.1099 26.6591 37.3246H26.3371C26.3744 36.8112 26.3931 35.6912 26.3931 33.9646H26.7151C26.7804 34.9072 27.0137 35.6726 27.4151 36.2606C27.8164 36.8486 28.4324 37.1426 29.2631 37.1426C29.7671 37.1426 30.1964 36.9886 30.5511 36.6806C30.9057 36.3632 31.0831 35.8966 31.0831 35.2806C31.0831 34.7579 30.9057 34.3146 30.5511 33.9506C30.2057 33.5866 29.6551 33.1759 28.8991 32.7186C28.3484 32.3826 27.9004 32.0839 27.5551 31.8226C27.2191 31.5612 26.9437 31.2486 26.7291 30.8846C26.5144 30.5112 26.4071 30.0772 26.4071 29.5826C26.4071 28.7986 26.6591 28.2012 27.1631 27.7906C27.6671 27.3706 28.2924 27.1606 29.0391 27.1606ZM44.8873 27.5946C44.5513 27.6132 44.3039 27.6506 44.1453 27.7066C43.9959 27.7626 43.8933 27.8699 43.8373 28.0286C43.7813 28.1872 43.7533 28.4439 43.7533 28.7986V35.7426C43.7533 36.0972 43.7813 36.3539 43.8373 36.5126C43.8933 36.6712 43.9959 36.7786 44.1453 36.8346C44.3039 36.8906 44.5513 36.9279 44.8873 36.9466V37.2266C44.4579 37.1986 43.8653 37.1846 43.1093 37.1846C42.3066 37.1846 41.7093 37.1986 41.3173 37.2266V36.9466C41.6533 36.9279 41.8959 36.8906 42.0453 36.8346C42.2039 36.7786 42.3113 36.6712 42.3673 36.5126C42.4233 36.3539 42.4513 36.0972 42.4513 35.7426V28.2386L39.0773 37.2966H38.8533L35.3253 28.2106V35.6026C35.3253 35.9666 35.3533 36.2372 35.4093 36.4146C35.4746 36.5919 35.5959 36.7226 35.7733 36.8066C35.9506 36.8812 36.2259 36.9279 36.5993 36.9466V37.2266C36.2633 37.1986 35.7873 37.1846 35.1713 37.1846C34.6113 37.1846 34.1773 37.1986 33.8693 37.2266V36.9466C34.1959 36.9279 34.4386 36.8812 34.5973 36.8066C34.7559 36.7226 34.8633 36.5919 34.9193 36.4146C34.9753 36.2279 35.0033 35.9572 35.0033 35.6026V28.7986C35.0033 28.4439 34.9753 28.1872 34.9193 28.0286C34.8633 27.8699 34.7559 27.7626 34.5973 27.7066C34.4479 27.6506 34.2053 27.6132 33.8693 27.5946V27.3146C34.1773 27.3426 34.6113 27.3566 35.1713 27.3566C35.6566 27.3566 36.0533 27.3426 36.3613 27.3146L39.4413 35.4206L42.4513 27.3566H43.1093C43.8653 27.3566 44.4579 27.3426 44.8873 27.3146V27.5946ZM50.8268 27.1186C51.7135 27.1186 52.4881 27.3192 53.1508 27.7206C53.8228 28.1219 54.3408 28.7052 54.7048 29.4706C55.0781 30.2266 55.2648 31.1319 55.2648 32.1866C55.2648 33.2132 55.0735 34.1232 54.6908 34.9166C54.3175 35.7099 53.7901 36.3259 53.1088 36.7646C52.4368 37.2032 51.6715 37.4226 50.8128 37.4226C49.9261 37.4226 49.1468 37.2219 48.4748 36.8206C47.8121 36.4192 47.2941 35.8406 46.9208 35.0846C46.5568 34.3192 46.3748 33.4092 46.3748 32.3546C46.3748 31.3279 46.5615 30.4179 46.9348 29.6246C47.3175 28.8312 47.8448 28.2152 48.5168 27.7766C49.1981 27.3379 49.9681 27.1186 50.8268 27.1186ZM50.7708 27.3706C50.1735 27.3706 49.6461 27.5806 49.1888 28.0006C48.7408 28.4112 48.3908 28.9899 48.1388 29.7366C47.8961 30.4832 47.7748 31.3372 47.7748 32.2986C47.7748 33.2692 47.9101 34.1232 48.1808 34.8606C48.4608 35.5979 48.8341 36.1672 49.3008 36.5686C49.7675 36.9699 50.2901 37.1706 50.8688 37.1706C51.4661 37.1706 51.9888 36.9652 52.4368 36.5546C52.8941 36.1346 53.2441 35.5512 53.4868 34.8046C53.7388 34.0579 53.8648 33.2039 53.8648 32.2426C53.8648 31.2719 53.7248 30.4179 53.4448 29.6806C53.1741 28.9432 52.8055 28.3739 52.3388 27.9726C51.8721 27.5712 51.3495 27.3706 50.7708 27.3706Z"/>
</mask>
<path d="M14.9287 13.1606C15.3394 13.1606 15.6614 13.2072 15.8947 13.3006C16.1374 13.3846 16.3847 13.5106 16.6367 13.6786C16.8421 13.8092 17.0007 13.8746 17.1127 13.8746C17.1967 13.8746 17.2621 13.8279 17.3087 13.7346C17.3554 13.6319 17.3927 13.4732 17.4207 13.2586H17.7427C17.6961 13.7999 17.6727 14.7519 17.6727 16.1146H17.3507C17.2947 15.3586 17.0754 14.7239 16.6927 14.2106C16.3194 13.6879 15.7734 13.4266 15.0547 13.4266C14.5507 13.4266 14.1401 13.5806 13.8227 13.8886C13.5054 14.1872 13.3467 14.5746 13.3467 15.0506C13.3467 15.4052 13.4261 15.7132 13.5847 15.9746C13.7527 16.2359 13.9627 16.4599 14.2147 16.6466C14.4667 16.8332 14.8261 17.0712 15.2927 17.3606L15.6987 17.6126C16.2867 17.9766 16.7487 18.2986 17.0847 18.5786C17.4301 18.8492 17.7054 19.1619 17.9107 19.5166C18.1161 19.8712 18.2187 20.2866 18.2187 20.7626C18.2187 21.6119 17.9387 22.2699 17.3787 22.7366C16.8187 23.1939 16.1094 23.4226 15.2507 23.4226C14.8027 23.4226 14.4341 23.3759 14.1447 23.2826C13.8647 23.1892 13.5941 23.0632 13.3327 22.9046C13.1274 22.7739 12.9687 22.7086 12.8567 22.7086C12.7727 22.7086 12.7074 22.7599 12.6607 22.8626C12.6141 22.9559 12.5767 23.1099 12.5487 23.3246H12.2267C12.2641 22.8112 12.2827 21.6912 12.2827 19.9646H12.6047C12.6701 20.9072 12.9034 21.6726 13.3047 22.2606C13.7061 22.8486 14.3221 23.1426 15.1527 23.1426C15.6567 23.1426 16.0861 22.9886 16.4407 22.6806C16.7954 22.3632 16.9727 21.8966 16.9727 21.2806C16.9727 20.7579 16.7954 20.3146 16.4407 19.9506C16.0954 19.5866 15.5447 19.1759 14.7887 18.7186C14.2381 18.3826 13.7901 18.0839 13.4447 17.8226C13.1087 17.5612 12.8334 17.2486 12.6187 16.8846C12.4041 16.5112 12.2967 16.0772 12.2967 15.5826C12.2967 14.7986 12.5487 14.2012 13.0527 13.7906C13.5567 13.3706 14.1821 13.1606 14.9287 13.1606ZM27.0389 13.3566C27.4589 13.3566 27.8089 13.3426 28.0889 13.3146V13.5946C27.6222 13.7066 27.2536 14.1126 26.9829 14.8126L23.6929 23.2966H23.5809H23.4689L20.0529 14.4906C19.8289 13.9119 19.5069 13.6132 19.0869 13.5946V13.3146C19.4602 13.3426 19.9596 13.3566 20.5849 13.3566C21.3876 13.3566 21.9849 13.3426 22.3769 13.3146V13.5946C22.0222 13.6132 21.7656 13.6599 21.6069 13.7346C21.4576 13.7999 21.3829 13.9259 21.3829 14.1126C21.3829 14.2712 21.4389 14.4906 21.5509 14.7706L24.0849 21.5046L26.3669 15.5826C26.5536 15.0786 26.6469 14.6959 26.6469 14.4346C26.6469 14.1452 26.5442 13.9352 26.3389 13.8046C26.1429 13.6739 25.8396 13.6039 25.4289 13.5946V13.3146C25.9609 13.3426 26.4976 13.3566 27.0389 13.3566ZM36.0109 21.4346C36.0109 21.9666 36.0435 22.5639 36.1089 23.2266C35.4742 23.1986 34.4055 23.1846 32.9029 23.1846C31.1109 23.1846 29.7575 23.1986 28.8429 23.2266V22.9466C29.1789 22.9279 29.4215 22.8906 29.5709 22.8346C29.7295 22.7786 29.8369 22.6712 29.8929 22.5126C29.9489 22.3539 29.9769 22.0972 29.9769 21.7426V14.7986C29.9769 14.4439 29.9489 14.1872 29.8929 14.0286C29.8369 13.8699 29.7295 13.7626 29.5709 13.7066C29.4215 13.6506 29.1789 13.6132 28.8429 13.5946V13.3146C29.7575 13.3426 31.1109 13.3566 32.9029 13.3566C34.2749 13.3566 35.2502 13.3426 35.8289 13.3146C35.7635 13.9306 35.7309 14.4812 35.7309 14.9666C35.7309 15.3306 35.7449 15.6199 35.7729 15.8346H35.4509C35.3855 15.2279 35.3015 14.7799 35.1989 14.4906C35.0962 14.1919 34.9235 13.9772 34.6809 13.8466C34.4382 13.7066 34.0695 13.6366 33.5749 13.6366H32.4129C32.0769 13.6366 31.8295 13.6646 31.6709 13.7206C31.5215 13.7672 31.4189 13.8699 31.3629 14.0286C31.3069 14.1872 31.2789 14.4439 31.2789 14.7986V18.1026H32.2029C32.5295 18.1026 32.7815 18.0279 32.9589 17.8786C33.1362 17.7199 33.2529 17.5379 33.3089 17.3326C33.3742 17.1179 33.4255 16.8519 33.4629 16.5346L33.5049 16.2546H33.8269C33.7989 16.6466 33.7849 17.0852 33.7849 17.5706V18.2426C33.7849 18.7186 33.8129 19.3812 33.8689 20.2306H33.5469C33.5375 20.1652 33.5095 19.9412 33.4629 19.5586C33.4162 19.1666 33.2855 18.8726 33.0709 18.6766C32.8655 18.4806 32.5762 18.3826 32.2029 18.3826H31.2789V21.7426C31.2789 22.0972 31.3069 22.3539 31.3629 22.5126C31.4189 22.6712 31.5215 22.7786 31.6709 22.8346C31.8295 22.8812 32.0769 22.9046 32.4129 22.9046H33.4349C34.0135 22.9046 34.4522 22.8299 34.7509 22.6806C35.0589 22.5219 35.2829 22.2746 35.4229 21.9386C35.5629 21.5932 35.6655 21.0892 35.7309 20.4266H36.0529C36.0249 20.6786 36.0109 21.0146 36.0109 21.4346ZM45.3398 13.3146C45.2744 13.9772 45.2418 14.5746 45.2418 15.1066C45.2418 15.5732 45.2558 15.9559 45.2838 16.2546H44.9618C44.8871 15.5359 44.7938 15.0039 44.6818 14.6586C44.5698 14.3039 44.3738 14.0472 44.0938 13.8886C43.8138 13.7206 43.3844 13.6366 42.8058 13.6366H42.0498V21.6026C42.0498 21.9946 42.0871 22.2792 42.1618 22.4566C42.2364 22.6339 42.3671 22.7552 42.5538 22.8206C42.7404 22.8859 43.0438 22.9279 43.4638 22.9466V23.2266C42.9784 23.1986 42.2924 23.1846 41.4058 23.1846C40.4724 23.1846 39.7818 23.1986 39.3338 23.2266V22.9466C39.7538 22.9279 40.0571 22.8859 40.2438 22.8206C40.4304 22.7552 40.5611 22.6339 40.6358 22.4566C40.7104 22.2792 40.7478 21.9946 40.7478 21.6026V13.6366H39.9918C39.4131 13.6366 38.9838 13.7206 38.7038 13.8886C38.4238 14.0472 38.2278 14.3039 38.1158 14.6586C38.0038 15.0039 37.9104 15.5359 37.8358 16.2546H37.5138C37.5418 15.9559 37.5558 15.5732 37.5558 15.1066C37.5558 14.5746 37.5231 13.9772 37.4578 13.3146C38.2324 13.3426 39.5484 13.3566 41.4058 13.3566C43.2538 13.3566 44.5651 13.3426 45.3398 13.3146ZM51.2067 13.1186C52.0934 13.1186 52.868 13.3192 53.5307 13.7206C54.2027 14.1219 54.7207 14.7052 55.0847 15.4706C55.458 16.2266 55.6447 17.1319 55.6447 18.1866C55.6447 19.2132 55.4534 20.1232 55.0707 20.9166C54.6974 21.7099 54.17 22.3259 53.4887 22.7646C52.8167 23.2032 52.0514 23.4226 51.1927 23.4226C50.306 23.4226 49.5267 23.2219 48.8547 22.8206C48.192 22.4192 47.674 21.8406 47.3007 21.0846C46.9367 20.3192 46.7547 19.4092 46.7547 18.3546C46.7547 17.3279 46.9414 16.4179 47.3147 15.6246C47.6974 14.8312 48.2247 14.2152 48.8967 13.7766C49.578 13.3379 50.348 13.1186 51.2067 13.1186ZM51.1507 13.3706C50.5534 13.3706 50.026 13.5806 49.5687 14.0006C49.1207 14.4112 48.7707 14.9899 48.5187 15.7366C48.276 16.4832 48.1547 17.3372 48.1547 18.2986C48.1547 19.2692 48.29 20.1232 48.5607 20.8606C48.8407 21.5979 49.214 22.1672 49.6807 22.5686C50.1474 22.9699 50.67 23.1706 51.2487 23.1706C51.846 23.1706 52.3687 22.9652 52.8167 22.5546C53.274 22.1346 53.624 21.5512 53.8667 20.8046C54.1187 20.0579 54.2447 19.2039 54.2447 18.2426C54.2447 17.2719 54.1047 16.4179 53.8247 15.6806C53.554 14.9432 53.1854 14.3739 52.7187 13.9726C52.252 13.5712 51.7294 13.3706 51.1507 13.3706ZM15.0142 33.2226V35.7426C15.0142 36.0972 15.0516 36.3539 15.1262 36.5126C15.2009 36.6712 15.3316 36.7786 15.5182 36.8346C15.7049 36.8906 16.0082 36.9279 16.4282 36.9466V37.2266C15.9429 37.1986 15.2569 37.1846 14.3702 37.1846C13.5676 37.1846 12.9702 37.1986 12.5782 37.2266V36.9466C12.9142 36.9279 13.1569 36.8906 13.3062 36.8346C13.4649 36.7786 13.5722 36.6712 13.6282 36.5126C13.6842 36.3539 13.7122 36.0972 13.7122 35.7426V28.7986C13.7122 28.4439 13.6842 28.1872 13.6282 28.0286C13.5722 27.8699 13.4649 27.7626 13.3062 27.7066C13.1569 27.6506 12.9142 27.6132 12.5782 27.5946V27.3146C12.9702 27.3426 13.5396 27.3566 14.2862 27.3566L15.7982 27.3426C15.9756 27.3332 16.1762 27.3286 16.4002 27.3286C17.4922 27.3286 18.3276 27.5806 18.9062 28.0846C19.4849 28.5792 19.7742 29.2466 19.7742 30.0866C19.7742 30.5999 19.6576 31.0946 19.4242 31.5706C19.2002 32.0372 18.8129 32.4292 18.2622 32.7466C17.7209 33.0639 16.9976 33.2226 16.0922 33.2226H15.0142ZM16.0502 27.5946C15.7609 27.5946 15.5416 27.6272 15.3922 27.6926C15.2522 27.7579 15.1542 27.8746 15.0982 28.0426C15.0422 28.2106 15.0142 28.4626 15.0142 28.7986V32.9426H15.9522C16.8669 32.9426 17.4969 32.6999 17.8422 32.2146C18.1969 31.7199 18.3742 31.0619 18.3742 30.2406C18.3742 29.3352 18.1922 28.6679 17.8282 28.2386C17.4736 27.8092 16.8809 27.5946 16.0502 27.5946ZM24.6033 27.5946C24.2673 27.6132 24.02 27.6506 23.8613 27.7066C23.712 27.7626 23.6093 27.8699 23.5533 28.0286C23.4973 28.1872 23.4693 28.4439 23.4693 28.7986V35.7426C23.4693 36.0972 23.4973 36.3539 23.5533 36.5126C23.6093 36.6712 23.712 36.7786 23.8613 36.8346C24.02 36.8906 24.2673 36.9279 24.6033 36.9466V37.2266C24.174 37.1986 23.5813 37.1846 22.8253 37.1846C22.0226 37.1846 21.4253 37.1986 21.0333 37.2266V36.9466C21.3693 36.9279 21.612 36.8906 21.7613 36.8346C21.92 36.7786 22.0273 36.6712 22.0833 36.5126C22.1393 36.3539 22.1673 36.0972 22.1673 35.7426V28.7986C22.1673 28.4439 22.1393 28.1872 22.0833 28.0286C22.0273 27.8699 21.92 27.7626 21.7613 27.7066C21.612 27.6506 21.3693 27.6132 21.0333 27.5946V27.3146C21.4253 27.3426 22.0226 27.3566 22.8253 27.3566C23.572 27.3566 24.1646 27.3426 24.6033 27.3146V27.5946ZM29.0391 27.1606C29.4497 27.1606 29.7717 27.2072 30.0051 27.3006C30.2477 27.3846 30.4951 27.5106 30.7471 27.6786C30.9524 27.8092 31.1111 27.8746 31.2231 27.8746C31.3071 27.8746 31.3724 27.8279 31.4191 27.7346C31.4657 27.6319 31.5031 27.4732 31.5311 27.2586H31.8531C31.8064 27.7999 31.7831 28.7519 31.7831 30.1146H31.4611C31.4051 29.3586 31.1857 28.7239 30.8031 28.2106C30.4297 27.6879 29.8837 27.4266 29.1651 27.4266C28.6611 27.4266 28.2504 27.5806 27.9331 27.8886C27.6157 28.1872 27.4571 28.5746 27.4571 29.0506C27.4571 29.4052 27.5364 29.7132 27.6951 29.9746C27.8631 30.2359 28.0731 30.4599 28.3251 30.6466C28.5771 30.8332 28.9364 31.0712 29.4031 31.3606L29.8091 31.6126C30.3971 31.9766 30.8591 32.2986 31.1951 32.5786C31.5404 32.8492 31.8157 33.1619 32.0211 33.5166C32.2264 33.8712 32.3291 34.2866 32.3291 34.7626C32.3291 35.6119 32.0491 36.2699 31.4891 36.7366C30.9291 37.1939 30.2197 37.4226 29.3611 37.4226C28.9131 37.4226 28.5444 37.3759 28.2551 37.2826C27.9751 37.1892 27.7044 37.0632 27.4431 36.9046C27.2377 36.7739 27.0791 36.7086 26.9671 36.7086C26.8831 36.7086 26.8177 36.7599 26.7711 36.8626C26.7244 36.9559 26.6871 37.1099 26.6591 37.3246H26.3371C26.3744 36.8112 26.3931 35.6912 26.3931 33.9646H26.7151C26.7804 34.9072 27.0137 35.6726 27.4151 36.2606C27.8164 36.8486 28.4324 37.1426 29.2631 37.1426C29.7671 37.1426 30.1964 36.9886 30.5511 36.6806C30.9057 36.3632 31.0831 35.8966 31.0831 35.2806C31.0831 34.7579 30.9057 34.3146 30.5511 33.9506C30.2057 33.5866 29.6551 33.1759 28.8991 32.7186C28.3484 32.3826 27.9004 32.0839 27.5551 31.8226C27.2191 31.5612 26.9437 31.2486 26.7291 30.8846C26.5144 30.5112 26.4071 30.0772 26.4071 29.5826C26.4071 28.7986 26.6591 28.2012 27.1631 27.7906C27.6671 27.3706 28.2924 27.1606 29.0391 27.1606ZM44.8873 27.5946C44.5513 27.6132 44.3039 27.6506 44.1453 27.7066C43.9959 27.7626 43.8933 27.8699 43.8373 28.0286C43.7813 28.1872 43.7533 28.4439 43.7533 28.7986V35.7426C43.7533 36.0972 43.7813 36.3539 43.8373 36.5126C43.8933 36.6712 43.9959 36.7786 44.1453 36.8346C44.3039 36.8906 44.5513 36.9279 44.8873 36.9466V37.2266C44.4579 37.1986 43.8653 37.1846 43.1093 37.1846C42.3066 37.1846 41.7093 37.1986 41.3173 37.2266V36.9466C41.6533 36.9279 41.8959 36.8906 42.0453 36.8346C42.2039 36.7786 42.3113 36.6712 42.3673 36.5126C42.4233 36.3539 42.4513 36.0972 42.4513 35.7426V28.2386L39.0773 37.2966H38.8533L35.3253 28.2106V35.6026C35.3253 35.9666 35.3533 36.2372 35.4093 36.4146C35.4746 36.5919 35.5959 36.7226 35.7733 36.8066C35.9506 36.8812 36.2259 36.9279 36.5993 36.9466V37.2266C36.2633 37.1986 35.7873 37.1846 35.1713 37.1846C34.6113 37.1846 34.1773 37.1986 33.8693 37.2266V36.9466C34.1959 36.9279 34.4386 36.8812 34.5973 36.8066C34.7559 36.7226 34.8633 36.5919 34.9193 36.4146C34.9753 36.2279 35.0033 35.9572 35.0033 35.6026V28.7986C35.0033 28.4439 34.9753 28.1872 34.9193 28.0286C34.8633 27.8699 34.7559 27.7626 34.5973 27.7066C34.4479 27.6506 34.2053 27.6132 33.8693 27.5946V27.3146C34.1773 27.3426 34.6113 27.3566 35.1713 27.3566C35.6566 27.3566 36.0533 27.3426 36.3613 27.3146L39.4413 35.4206L42.4513 27.3566H43.1093C43.8653 27.3566 44.4579 27.3426 44.8873 27.3146V27.5946ZM50.8268 27.1186C51.7135 27.1186 52.4881 27.3192 53.1508 27.7206C53.8228 28.1219 54.3408 28.7052 54.7048 29.4706C55.0781 30.2266 55.2648 31.1319 55.2648 32.1866C55.2648 33.2132 55.0735 34.1232 54.6908 34.9166C54.3175 35.7099 53.7901 36.3259 53.1088 36.7646C52.4368 37.2032 51.6715 37.4226 50.8128 37.4226C49.9261 37.4226 49.1468 37.2219 48.4748 36.8206C47.8121 36.4192 47.2941 35.8406 46.9208 35.0846C46.5568 34.3192 46.3748 33.4092 46.3748 32.3546C46.3748 31.3279 46.5615 30.4179 46.9348 29.6246C47.3175 28.8312 47.8448 28.2152 48.5168 27.7766C49.1981 27.3379 49.9681 27.1186 50.8268 27.1186ZM50.7708 27.3706C50.1735 27.3706 49.6461 27.5806 49.1888 28.0006C48.7408 28.4112 48.3908 28.9899 48.1388 29.7366C47.8961 30.4832 47.7748 31.3372 47.7748 32.2986C47.7748 33.2692 47.9101 34.1232 48.1808 34.8606C48.4608 35.5979 48.8341 36.1672 49.3008 36.5686C49.7675 36.9699 50.2901 37.1706 50.8688 37.1706C51.4661 37.1706 51.9888 36.9652 52.4368 36.5546C52.8941 36.1346 53.2441 35.5512 53.4868 34.8046C53.7388 34.0579 53.8648 33.2039 53.8648 32.2426C53.8648 31.2719 53.7248 30.4179 53.4448 29.6806C53.1741 28.9432 52.8055 28.3739 52.3388 27.9726C51.8721 27.5712 51.3495 27.3706 50.7708 27.3706Z" fill="#FEF5EB"/>
<path d="M15.8947 13.3006L15.8193 13.489L15.8284 13.4921L15.8947 13.3006ZM16.6367 13.6786L16.5242 13.8473L16.5279 13.8496L16.6367 13.6786ZM17.3087 13.7346L17.4902 13.8253L17.4933 13.8185L17.3087 13.7346ZM17.4207 13.2586V13.0558H17.2427L17.2197 13.2323L17.4207 13.2586ZM17.7427 13.2586L17.9447 13.276L17.9637 13.0558H17.7427V13.2586ZM17.6727 16.1146V16.3173H17.8755V16.1146H17.6727ZM17.3507 16.1146L17.1485 16.1295L17.1625 16.3173H17.3507V16.1146ZM16.6927 14.2106L16.5277 14.3284L16.5302 14.3317L16.6927 14.2106ZM13.8227 13.8886L13.9617 14.0362L13.9639 14.034L13.8227 13.8886ZM13.5847 15.9746L13.4114 16.0798L13.4142 16.0842L13.5847 15.9746ZM14.2147 16.6466L14.3354 16.4837L14.3354 16.4837L14.2147 16.6466ZM15.2927 17.3606L15.3996 17.1883L15.3996 17.1883L15.2927 17.3606ZM15.6987 17.6126L15.5918 17.7848L15.592 17.7849L15.6987 17.6126ZM17.0847 18.5786L16.9549 18.7344L16.9597 18.7381L17.0847 18.5786ZM17.9107 19.5166L17.7353 19.6181V19.6181L17.9107 19.5166ZM17.3787 22.7366L17.507 22.8936L17.5085 22.8923L17.3787 22.7366ZM14.1447 23.2826L14.0806 23.4749L14.0825 23.4755L14.1447 23.2826ZM13.3327 22.9046L13.2239 23.0756L13.2275 23.0779L13.3327 22.9046ZM12.6607 22.8626L12.8422 22.9533L12.8453 22.9465L12.6607 22.8626ZM12.5487 23.3246V23.5273H12.7267L12.7498 23.3508L12.5487 23.3246ZM12.2267 23.3246L12.0245 23.3099L12.0087 23.5273H12.2267V23.3246ZM12.2827 19.9646V19.7618H12.08V19.9646H12.2827ZM12.6047 19.9646L12.807 19.9505L12.7939 19.7618H12.6047V19.9646ZM13.3047 22.2606L13.1373 22.3749V22.3749L13.3047 22.2606ZM16.4407 22.6806L16.5737 22.8337L16.5759 22.8317L16.4407 22.6806ZM16.4407 19.9506L16.2936 20.0901L16.2955 20.092L16.4407 19.9506ZM14.7887 18.7186L14.6831 18.8916L14.6838 18.892L14.7887 18.7186ZM13.4447 17.8226L13.3202 17.9826L13.3224 17.9842L13.4447 17.8226ZM12.6187 16.8846L12.443 16.9856L12.4441 16.9875L12.6187 16.8846ZM13.0527 13.7906L13.1808 13.9477L13.1825 13.9463L13.0527 13.7906ZM14.9287 13.3633C15.3279 13.3633 15.6205 13.4092 15.8194 13.4888L15.97 13.1123C15.7023 13.0052 15.3509 12.9578 14.9287 12.9578V13.3633ZM15.8284 13.4921C16.0522 13.5696 16.2841 13.6872 16.5243 13.8472L16.7492 13.5099C16.4853 13.334 16.2226 13.1995 15.961 13.109L15.8284 13.4921ZM16.5279 13.8496C16.7356 13.9818 16.9376 14.0773 17.1127 14.0773V13.6718C17.0639 13.6718 16.9485 13.6366 16.7456 13.5075L16.5279 13.8496ZM17.1127 14.0773C17.2935 14.0773 17.419 13.9673 17.4901 13.8252L17.1274 13.6439C17.1146 13.6696 17.1058 13.6754 17.1069 13.6746C17.1076 13.6741 17.1094 13.673 17.1118 13.6723C17.1141 13.6716 17.1147 13.6718 17.1127 13.6718V14.0773ZM17.4933 13.8185C17.5528 13.6876 17.5931 13.5046 17.6218 13.2848L17.2197 13.2323C17.1924 13.4418 17.158 13.5762 17.1242 13.6507L17.4933 13.8185ZM17.4207 13.4613H17.7427V13.0558H17.4207V13.4613ZM17.5407 13.2411C17.4932 13.7922 17.47 14.7522 17.47 16.1146H17.8755C17.8755 14.7516 17.8989 13.8076 17.9447 13.276L17.5407 13.2411ZM17.6727 15.9118H17.3507V16.3173H17.6727V15.9118ZM17.5529 16.0996C17.4946 15.3123 17.2649 14.6389 16.8553 14.0894L16.5302 14.3317C16.8859 14.8089 17.0949 15.4048 17.1485 16.1295L17.5529 16.0996ZM16.8577 14.0927C16.4414 13.5098 15.8298 13.2238 15.0547 13.2238V13.6293C15.7169 13.6293 16.1974 13.866 16.5278 14.3284L16.8577 14.0927ZM15.0547 13.2238C14.506 13.2238 14.042 13.3932 13.6815 13.7431L13.9639 14.034C14.2381 13.768 14.5955 13.6293 15.0547 13.6293V13.2238ZM13.6838 13.7409C13.3217 14.0817 13.144 14.5244 13.144 15.0506H13.5495C13.5495 14.6247 13.689 14.2928 13.9617 14.0362L13.6838 13.7409ZM13.144 15.0506C13.144 15.4363 13.2306 15.7819 13.4114 16.0798L13.758 15.8693C13.6215 15.6445 13.5495 15.3742 13.5495 15.0506H13.144ZM13.4142 16.0842C13.5956 16.3664 13.8225 16.6083 14.0941 16.8095L14.3354 16.4837C14.1029 16.3114 13.9099 16.1054 13.7553 15.8649L13.4142 16.0842ZM14.0941 16.8095C14.3527 17.001 14.7174 17.2424 15.1859 17.5329L15.3996 17.1883C14.9347 16.9 14.5808 16.6654 14.3354 16.4837L14.0941 16.8095ZM15.1858 17.5328L15.5918 17.7848L15.8056 17.4403L15.3996 17.1883L15.1858 17.5328ZM15.592 17.7849C16.176 18.1465 16.6292 18.4628 16.9549 18.7343L17.2145 18.4228C16.8683 18.1343 16.3975 17.8067 15.8054 17.4402L15.592 17.7849ZM16.9597 18.7381C17.2861 18.994 17.5438 19.2874 17.7353 19.6181L18.0862 19.415C17.867 19.0364 17.574 18.7045 17.2098 18.419L16.9597 18.7381ZM17.7353 19.6181C17.92 19.9373 18.016 20.3164 18.016 20.7626H18.4215C18.4215 20.2567 18.3121 19.8052 18.0862 19.415L17.7353 19.6181ZM18.016 20.7626C18.016 21.5628 17.7548 22.1592 17.2489 22.5808L17.5085 22.8923C18.1226 22.3806 18.4215 21.661 18.4215 20.7626H18.016ZM17.2505 22.5795C16.7332 23.002 16.0718 23.2198 15.2507 23.2198V23.6253C16.147 23.6253 16.9043 23.3858 17.507 22.8936L17.2505 22.5795ZM15.2507 23.2198C14.8148 23.2198 14.4691 23.1742 14.207 23.0896L14.0825 23.4755C14.399 23.5776 14.7906 23.6253 15.2507 23.6253V23.2198ZM14.2088 23.0902C13.9437 23.0019 13.6868 22.8824 13.4379 22.7313L13.2275 23.0779C13.5013 23.2441 13.7857 23.3766 14.0806 23.4749L14.2088 23.0902ZM13.4416 22.7335C13.2338 22.6013 13.0319 22.5058 12.8567 22.5058V22.9113C12.9056 22.9113 13.021 22.9465 13.2239 23.0756L13.4416 22.7335ZM12.8567 22.5058C12.6653 22.5058 12.5423 22.6331 12.4762 22.7787L12.8453 22.9465C12.8598 22.9146 12.8703 22.9062 12.87 22.9065C12.8694 22.9069 12.867 22.9086 12.8631 22.9099C12.8593 22.9112 12.8567 22.9113 12.8567 22.9113V22.5058ZM12.4794 22.7719C12.4167 22.8974 12.3762 23.08 12.3477 23.2983L12.7498 23.3508C12.7773 23.1398 12.8115 23.0144 12.8421 22.9532L12.4794 22.7719ZM12.5487 23.1218H12.2267V23.5273H12.5487V23.1218ZM12.4289 23.3393C12.4669 22.8172 12.4855 21.6894 12.4855 19.9646H12.08C12.08 21.6931 12.0612 22.8053 12.0245 23.3099L12.4289 23.3393ZM12.2827 20.1673H12.6047V19.7618H12.2827V20.1673ZM12.4025 19.9786C12.4695 20.9458 12.71 21.7489 13.1373 22.3749L13.4722 22.1463C13.0967 21.5962 12.8706 20.8687 12.807 19.9505L12.4025 19.9786ZM13.1373 22.3749C13.5831 23.0281 14.268 23.3453 15.1527 23.3453V22.9398C14.3762 22.9398 13.829 22.6691 13.4722 22.1463L13.1373 22.3749ZM15.1527 23.3453C15.7017 23.3453 16.1793 23.1761 16.5737 22.8336L16.3078 22.5275C15.9928 22.801 15.6117 22.9398 15.1527 22.9398V23.3453ZM16.5759 22.8317C16.9854 22.4653 17.1755 21.9362 17.1755 21.2806H16.77C16.77 21.8569 16.6054 22.2612 16.3055 22.5295L16.5759 22.8317ZM17.1755 21.2806C17.1755 20.7067 16.9786 20.2121 16.5859 19.8091L16.2955 20.092C16.6121 20.417 16.77 20.8091 16.77 21.2806H17.1755ZM16.5878 19.811C16.224 19.4276 15.6553 19.0058 14.8937 18.5451L14.6838 18.892C15.4341 19.3459 15.9668 19.7456 16.2936 20.0901L16.5878 19.811ZM14.8943 18.5455C14.3469 18.2115 13.9051 17.9167 13.5671 17.6609L13.3224 17.9842C13.675 18.2511 14.1292 18.5536 14.6831 18.8916L14.8943 18.5455ZM13.5692 17.6625C13.2532 17.4168 12.9949 17.1234 12.7934 16.7816L12.4441 16.9875C12.6718 17.3737 12.9642 17.7057 13.3203 17.9826L13.5692 17.6625ZM12.7945 16.7835C12.6 16.4452 12.4995 16.0471 12.4995 15.5826H12.094C12.094 16.1073 12.2081 16.5772 12.443 16.9856L12.7945 16.7835ZM12.4995 15.5826C12.4995 14.8456 12.7338 14.3119 13.1808 13.9477L12.9247 13.6334C12.3636 14.0905 12.094 14.7515 12.094 15.5826H12.4995ZM13.1825 13.9463C13.6451 13.5608 14.2225 13.3633 14.9287 13.3633V12.9578C14.1416 12.9578 13.4684 13.1803 12.9229 13.6348L13.1825 13.9463ZM28.0889 13.3146H28.2916V13.0905L28.0687 13.1128L28.0889 13.3146ZM28.0889 13.5946L28.1362 13.7917L28.2916 13.7544V13.5946H28.0889ZM26.9829 14.8126L27.1719 14.8859L27.172 14.8857L26.9829 14.8126ZM23.6929 23.2966V23.4993H23.8317L23.8819 23.3699L23.6929 23.2966ZM23.4689 23.2966L23.2799 23.3699L23.3301 23.4993H23.4689V23.2966ZM20.0529 14.4906L19.8638 14.5637L19.8639 14.5639L20.0529 14.4906ZM19.0869 13.5946H18.8842V13.7885L19.0779 13.7971L19.0869 13.5946ZM19.0869 13.3146L19.1021 13.1124L18.8842 13.0961V13.3146H19.0869ZM22.3769 13.3146H22.5796V13.0968L22.3625 13.1123L22.3769 13.3146ZM22.3769 13.5946L22.3876 13.797L22.5796 13.7869V13.5946H22.3769ZM21.6069 13.7346L21.6882 13.9204L21.6932 13.918L21.6069 13.7346ZM21.5509 14.7706L21.7407 14.6991L21.7391 14.6953L21.5509 14.7706ZM24.0849 21.5046L23.8952 21.576L24.0826 22.0742L24.2741 21.5775L24.0849 21.5046ZM26.3669 15.5826L26.5561 15.6555L26.557 15.653L26.3669 15.5826ZM26.3389 13.8046L26.2264 13.9733L26.2301 13.9756L26.3389 13.8046ZM25.4289 13.5946H25.2262V13.7927L25.4243 13.7972L25.4289 13.5946ZM25.4289 13.3146L25.4396 13.1121L25.2262 13.1009V13.3146H25.4289ZM27.0389 13.5593C27.4627 13.5593 27.82 13.5452 28.1091 13.5163L28.0687 13.1128C27.7978 13.1399 27.4551 13.1538 27.0389 13.1538V13.5593ZM27.8862 13.3146V13.5946H28.2916V13.3146H27.8862ZM28.0416 13.3974C27.4799 13.5322 27.0745 14.0135 26.7938 14.7394L27.172 14.8857C27.4326 14.2116 27.7646 13.8809 28.1362 13.7917L28.0416 13.3974ZM26.7939 14.7393L23.5039 23.2233L23.8819 23.3699L27.1719 14.8859L26.7939 14.7393ZM23.6929 23.0938H23.5809V23.4993H23.6929V23.0938ZM23.5809 23.0938H23.4689V23.4993H23.5809V23.0938ZM23.6579 23.2232L20.2419 14.4172L19.8639 14.5639L23.2799 23.3699L23.6579 23.2232ZM20.242 14.4174C20.0048 13.8048 19.6326 13.4159 19.0959 13.392L19.0779 13.7971C19.3812 13.8106 19.653 14.019 19.8638 14.5637L20.242 14.4174ZM19.2896 13.5946V13.3146H18.8842V13.5946H19.2896ZM19.0717 13.5167C19.4523 13.5453 19.9574 13.5593 20.5849 13.5593V13.1538C19.9618 13.1538 19.4681 13.1398 19.1021 13.1124L19.0717 13.5167ZM20.5849 13.5593C21.3885 13.5593 21.9918 13.5453 22.3913 13.5168L22.3625 13.1123C21.978 13.1398 21.3866 13.1538 20.5849 13.1538V13.5593ZM22.1742 13.3146V13.5946H22.5796V13.3146H22.1742ZM22.3662 13.3921C22.0067 13.411 21.7167 13.4588 21.5206 13.5511L21.6932 13.918C21.8144 13.861 22.0378 13.8154 22.3876 13.797L22.3662 13.3921ZM21.5256 13.5488C21.4167 13.5965 21.3259 13.6711 21.2645 13.7747C21.2042 13.8765 21.1802 13.9927 21.1802 14.1126H21.5856C21.5856 14.0458 21.599 14.0056 21.6133 13.9814C21.6266 13.9591 21.6478 13.938 21.6882 13.9203L21.5256 13.5488ZM21.1802 14.1126C21.1802 14.3109 21.2481 14.5595 21.3627 14.8459L21.7391 14.6953C21.6297 14.4216 21.5856 14.2316 21.5856 14.1126H21.1802ZM21.3612 14.842L23.8952 21.576L24.2746 21.4332L21.7406 14.6992L21.3612 14.842ZM24.2741 21.5775L26.5561 15.6555L26.1777 15.5097L23.8957 21.4317L24.2741 21.5775ZM26.557 15.653C26.7451 15.1451 26.8496 14.734 26.8496 14.4346H26.4442C26.4442 14.6578 26.362 15.012 26.1768 15.5121L26.557 15.653ZM26.8496 14.4346C26.8496 14.0911 26.7233 13.8089 26.4477 13.6335L26.2301 13.9756C26.3651 14.0616 26.4442 14.1993 26.4442 14.4346H26.8496ZM26.4514 13.6359C26.2075 13.4733 25.8575 13.4015 25.4335 13.3919L25.4243 13.7972C25.8216 13.8063 26.0783 13.8745 26.2264 13.9732L26.4514 13.6359ZM25.6316 13.5946V13.3146H25.2262V13.5946H25.6316ZM25.4182 13.517C25.9538 13.5452 26.4941 13.5593 27.0389 13.5593V13.1538C26.5011 13.1538 25.9679 13.1399 25.4396 13.1121L25.4182 13.517ZM36.1089 23.2266L36.0999 23.4291L36.3336 23.4394L36.3106 23.2067L36.1089 23.2266ZM28.8429 23.2266H28.6401V23.4356L28.8491 23.4292L28.8429 23.2266ZM28.8429 22.9466L28.8316 22.7441L28.6401 22.7548V22.9466H28.8429ZM29.5709 22.8346L29.5034 22.6433L29.4997 22.6447L29.5709 22.8346ZM29.8929 14.0286L29.7017 14.096V14.096L29.8929 14.0286ZM29.5709 13.7066L29.4997 13.8964L29.5034 13.8977L29.5709 13.7066ZM28.8429 13.5946H28.6401V13.7863L28.8316 13.797L28.8429 13.5946ZM28.8429 13.3146L28.8491 13.1119L28.6401 13.1055V13.3146H28.8429ZM35.8289 13.3146L36.0305 13.3359L36.0554 13.1006L35.8191 13.1121L35.8289 13.3146ZM35.7729 15.8346V16.0373H36.0038L35.9739 15.8083L35.7729 15.8346ZM35.4509 15.8346L35.2493 15.8563L35.2688 16.0373H35.4509V15.8346ZM35.1989 14.4906L35.0071 14.5565L35.0078 14.5584L35.1989 14.4906ZM34.6809 13.8466L34.5795 14.0222L34.5848 14.0251L34.6809 13.8466ZM31.6709 13.7206L31.7314 13.9142L31.7384 13.9117L31.6709 13.7206ZM31.3629 14.0286L31.5541 14.096V14.096L31.3629 14.0286ZM31.2789 18.1026H31.0761V18.3053H31.2789V18.1026ZM32.9589 17.8786L33.0895 18.0337L33.0941 18.0297L32.9589 17.8786ZM33.3089 17.3326L33.1148 17.2735L33.1133 17.2792L33.3089 17.3326ZM33.4629 16.5346L33.2623 16.5045L33.2615 16.5109L33.4629 16.5346ZM33.5049 16.2546V16.0518H33.3303L33.3044 16.2245L33.5049 16.2546ZM33.8269 16.2546L34.0291 16.269L34.0446 16.0518H33.8269V16.2546ZM33.8689 20.2306V20.4333H34.0854L34.0712 20.2172L33.8689 20.2306ZM33.5469 20.2306L33.3462 20.2592L33.371 20.4333H33.5469V20.2306ZM33.4629 19.5586L33.2616 19.5825L33.2616 19.5831L33.4629 19.5586ZM33.0709 18.6766L32.9309 18.8232L32.9342 18.8263L33.0709 18.6766ZM31.2789 18.3826V18.1798H31.0761V18.3826H31.2789ZM31.3629 22.5126L31.5541 22.4451V22.4451L31.3629 22.5126ZM31.6709 22.8346L31.5997 23.0244L31.6066 23.027L31.6137 23.0291L31.6709 22.8346ZM34.7509 22.6806L34.8416 22.8619L34.8437 22.8608L34.7509 22.6806ZM35.4229 21.9386L35.61 22.0165L35.6108 22.0147L35.4229 21.9386ZM35.7309 20.4266V20.2238H35.5472L35.5291 20.4067L35.7309 20.4266ZM36.0529 20.4266L36.2544 20.449L36.2794 20.2238H36.0529V20.4266ZM35.8081 21.4346C35.8081 21.9746 35.8413 22.5787 35.9071 23.2465L36.3106 23.2067C36.2458 22.5491 36.2136 21.9585 36.2136 21.4346H35.8081ZM36.1178 23.024C35.4782 22.9958 34.4056 22.9818 32.9029 22.9818V23.3873C34.4055 23.3873 35.4702 23.4013 36.0999 23.4291L36.1178 23.024ZM32.9029 22.9818C31.1104 22.9818 29.7545 22.9958 28.8367 23.0239L28.8491 23.4292C29.7606 23.4013 31.1114 23.3873 32.9029 23.3873V22.9818ZM29.0456 23.2266V22.9466H28.6401V23.2266H29.0456ZM28.8541 23.149C29.1931 23.1302 29.4621 23.0919 29.6421 23.0244L29.4997 22.6447C29.381 22.6892 29.1647 22.7256 28.8316 22.7441L28.8541 23.149ZM29.6384 23.0257C29.8548 22.9493 30.0077 22.7965 30.0841 22.58L29.7017 22.4451C29.6661 22.5459 29.6043 22.6078 29.5034 22.6434L29.6384 23.0257ZM30.0841 22.58C30.1523 22.3867 30.1796 22.1005 30.1796 21.7426H29.7741C29.7741 22.0939 29.7455 22.321 29.7017 22.4451L30.0841 22.58ZM30.1796 21.7426V14.7986H29.7741V21.7426H30.1796ZM30.1796 14.7986C30.1796 14.4406 30.1523 14.1544 30.0841 13.9611L29.7017 14.096C29.7455 14.2201 29.7741 14.4472 29.7741 14.7986H30.1796ZM30.0841 13.9611C30.0077 13.7446 29.8548 13.5918 29.6384 13.5154L29.5034 13.8977C29.6043 13.9333 29.6661 13.9952 29.7017 14.096L30.0841 13.9611ZM29.6421 13.5167C29.4621 13.4492 29.1931 13.411 28.8541 13.3921L28.8316 13.797C29.1647 13.8155 29.381 13.8519 29.4997 13.8964L29.6421 13.5167ZM29.0456 13.5946V13.3146H28.6401V13.5946H29.0456ZM28.8367 13.5172C29.7545 13.5453 31.1104 13.5593 32.9029 13.5593V13.1538C31.1114 13.1538 29.7606 13.1398 28.8491 13.1119L28.8367 13.5172ZM32.9029 13.5593C34.275 13.5593 35.2546 13.5453 35.8387 13.5171L35.8191 13.1121C35.2458 13.1398 34.2748 13.1538 32.9029 13.1538V13.5593ZM35.6273 13.2932C35.5614 13.9144 35.5281 14.4725 35.5281 14.9666H35.9336C35.9336 14.49 35.9657 13.9467 36.0305 13.3359L35.6273 13.2932ZM35.5281 14.9666C35.5281 15.3343 35.5422 15.6336 35.5718 15.8608L35.9739 15.8083C35.9476 15.6062 35.9336 15.3268 35.9336 14.9666H35.5281ZM35.7729 15.6318H35.4509V16.0373H35.7729V15.6318ZM35.6525 15.8129C35.5867 15.2027 35.5008 14.7353 35.3899 14.4228L35.0078 14.5584C35.1023 14.8245 35.1844 15.2531 35.2493 15.8563L35.6525 15.8129ZM35.3906 14.4247C35.274 14.0853 35.0711 13.8264 34.777 13.6681L34.5848 14.0251C34.776 14.128 34.9185 14.2985 35.0072 14.5565L35.3906 14.4247ZM34.7822 13.671C34.4933 13.5043 34.0816 13.4338 33.5749 13.4338V13.8393C34.0575 13.8393 34.3832 13.9089 34.5796 14.0222L34.7822 13.671ZM33.5749 13.4338H32.4129V13.8393H33.5749V13.4338ZM32.4129 13.4338C32.0721 13.4338 31.796 13.4614 31.6034 13.5294L31.7384 13.9117C31.8631 13.8677 32.0817 13.8393 32.4129 13.8393V13.4338ZM31.6104 13.5271C31.3949 13.5944 31.2471 13.7474 31.1717 13.9611L31.5541 14.096C31.5907 13.9924 31.6482 13.9401 31.7314 13.9141L31.6104 13.5271ZM31.1717 13.9611C31.1035 14.1544 31.0761 14.4406 31.0761 14.7986H31.4816C31.4816 14.4472 31.5103 14.2201 31.5541 14.096L31.1717 13.9611ZM31.0761 14.7986V18.1026H31.4816V14.7986H31.0761ZM31.2789 18.3053H32.2029V17.8998H31.2789V18.3053ZM32.2029 18.3053C32.558 18.3053 32.8631 18.2242 33.0895 18.0336L32.8283 17.7235C32.7 17.8315 32.5011 17.8998 32.2029 17.8998V18.3053ZM33.0941 18.0297C33.297 17.8481 33.437 17.6333 33.5045 17.3859L33.1133 17.2792C33.0688 17.4425 32.9754 17.5917 32.8237 17.7275L33.0941 18.0297ZM33.5028 17.3916C33.5728 17.1617 33.626 16.883 33.6642 16.5583L33.2615 16.5109C33.2251 16.8208 33.1756 17.0741 33.1149 17.2735L33.5028 17.3916ZM33.6634 16.5646L33.7054 16.2846L33.3044 16.2245L33.2624 16.5045L33.6634 16.5646ZM33.5049 16.4573H33.8269V16.0518H33.5049V16.4573ZM33.6247 16.2401C33.5962 16.6379 33.5821 17.0815 33.5821 17.5706H33.9876C33.9876 17.089 34.0015 16.6552 34.0291 16.269L33.6247 16.2401ZM33.5821 17.5706V18.2426H33.9876V17.5706H33.5821ZM33.5821 18.2426C33.5821 18.7252 33.6105 19.393 33.6666 20.2439L34.0712 20.2172C34.0153 19.3695 33.9876 18.712 33.9876 18.2426H33.5821ZM33.8689 20.0278H33.5469V20.4333H33.8689V20.0278ZM33.7476 20.2019C33.7386 20.1392 33.7109 19.9179 33.6641 19.534L33.2616 19.5831C33.3081 19.9645 33.3365 20.1913 33.3462 20.2592L33.7476 20.2019ZM33.6642 19.5346C33.6138 19.1117 33.4693 18.7658 33.2076 18.5268L32.9342 18.8263C33.1018 18.9793 33.2186 19.2215 33.2616 19.5825L33.6642 19.5346ZM33.2109 18.5299C32.9571 18.2877 32.6114 18.1798 32.2029 18.1798V18.5853C32.541 18.5853 32.774 18.6734 32.9309 18.8232L33.2109 18.5299ZM32.2029 18.1798H31.2789V18.5853H32.2029V18.1798ZM31.0761 18.3826V21.7426H31.4816V18.3826H31.0761ZM31.0761 21.7426C31.0761 22.1005 31.1035 22.3867 31.1717 22.58L31.5541 22.4451C31.5103 22.321 31.4816 22.0939 31.4816 21.7426H31.0761ZM31.1717 22.58C31.2464 22.7917 31.3908 22.9461 31.5997 23.0244L31.7421 22.6447C31.6523 22.6111 31.5914 22.5508 31.5541 22.4451L31.1717 22.58ZM31.6137 23.0291C31.8016 23.0843 32.0732 23.1073 32.4129 23.1073V22.7018C32.0806 22.7018 31.8575 22.6781 31.7281 22.6401L31.6137 23.0291ZM32.4129 23.1073H33.4349V22.7018H32.4129V23.1073ZM33.4349 23.1073C34.0251 23.1073 34.5011 23.0321 34.8415 22.8619L34.6602 22.4992C34.4033 22.6277 34.002 22.7018 33.4349 22.7018V23.1073ZM34.8437 22.8608C35.1965 22.6791 35.4526 22.3943 35.61 22.0165L35.2357 21.8606C35.1131 22.1549 34.9213 22.3647 34.658 22.5003L34.8437 22.8608ZM35.6108 22.0147C35.7617 21.6425 35.8666 21.1158 35.9326 20.4465L35.5291 20.4067C35.4645 21.0626 35.3641 21.5439 35.235 21.8624L35.6108 22.0147ZM35.7309 20.6293H36.0529V20.2238H35.7309V20.6293ZM35.8514 20.4042C35.8222 20.6668 35.8081 21.0112 35.8081 21.4346H36.2136C36.2136 21.0179 36.2276 20.6903 36.2544 20.449L35.8514 20.4042ZM45.3398 13.3146L45.5415 13.3345L45.5643 13.1036L45.3324 13.112L45.3398 13.3146ZM45.2838 16.2546V16.4573H45.5064L45.4856 16.2356L45.2838 16.2546ZM44.9618 16.2546L44.7601 16.2755L44.779 16.4573H44.9618V16.2546ZM44.6818 14.6586L44.4884 14.7196L44.4889 14.7211L44.6818 14.6586ZM44.0938 13.8886L43.9894 14.0625L43.9938 14.0649L44.0938 13.8886ZM42.0498 13.6366V13.4338H41.847V13.6366H42.0498ZM42.1618 22.4566L41.9749 22.5352V22.5352L42.1618 22.4566ZM42.5538 22.8206L42.4868 23.0119V23.0119L42.5538 22.8206ZM43.4638 22.9466H43.6665V22.7526L43.4728 22.744L43.4638 22.9466ZM43.4638 23.2266L43.4521 23.429L43.6665 23.4413V23.2266H43.4638ZM39.3338 23.2266H39.131V23.4424L39.3464 23.4289L39.3338 23.2266ZM39.3338 22.9466L39.3248 22.744L39.131 22.7526V22.9466H39.3338ZM40.2438 22.8206L40.3107 23.0119V23.0119L40.2438 22.8206ZM40.6358 22.4566L40.8226 22.5352V22.5352L40.6358 22.4566ZM40.7478 13.6366H40.9505V13.4338H40.7478V13.6366ZM38.7038 13.8886L38.8037 14.065L38.8081 14.0624L38.7038 13.8886ZM38.1158 14.6586L38.3086 14.7211L38.3091 14.7196L38.1158 14.6586ZM37.8358 16.2546V16.4573H38.0185L38.0374 16.2755L37.8358 16.2546ZM37.5138 16.2546L37.3119 16.2356L37.2911 16.4573H37.5138V16.2546ZM37.4578 13.3146L37.4651 13.112L37.2332 13.1036L37.256 13.3345L37.4578 13.3146ZM45.138 13.2947C45.0722 13.9624 45.039 14.5665 45.039 15.1066H45.4445C45.4445 14.5826 45.4767 13.9921 45.5415 13.3345L45.138 13.2947ZM45.039 15.1066C45.039 15.5765 45.0531 15.9661 45.0819 16.2735L45.4856 16.2356C45.4584 15.9457 45.4445 15.57 45.4445 15.1066H45.039ZM45.2838 16.0518H44.9618V16.4573H45.2838V16.0518ZM45.1634 16.2336C45.0884 15.5118 44.9934 14.9624 44.8746 14.596L44.4889 14.7211C44.5941 15.0454 44.6858 15.56 44.7601 16.2755L45.1634 16.2336ZM44.8751 14.5975C44.7502 14.2021 44.5252 13.9 44.1937 13.7122L43.9938 14.0649C44.2223 14.1944 44.3893 14.4057 44.4884 14.7196L44.8751 14.5975ZM44.1981 13.7147C43.8706 13.5183 43.3966 13.4338 42.8058 13.4338V13.8393C43.3723 13.8393 43.7569 13.9229 43.9895 14.0624L44.1981 13.7147ZM42.8058 13.4338H42.0498V13.8393H42.8058V13.4338ZM41.847 13.6366V21.6026H42.2525V13.6366H41.847ZM41.847 21.6026C41.847 21.9994 41.8836 22.3185 41.9749 22.5352L42.3486 22.3779C42.2905 22.24 42.2525 21.9898 42.2525 21.6026H41.847ZM41.9749 22.5352C42.0725 22.767 42.2477 22.9283 42.4868 23.0119L42.6207 22.6292C42.4864 22.5822 42.4003 22.5008 42.3486 22.3779L41.9749 22.5352ZM42.4868 23.0119C42.7033 23.0877 43.032 23.1303 43.4548 23.1491L43.4728 22.744C43.0555 22.7255 42.7775 22.6841 42.6207 22.6292L42.4868 23.0119ZM43.261 22.9466V23.2266H43.6665V22.9466H43.261ZM43.4754 23.0242C42.9843 22.9958 42.2937 22.9818 41.4058 22.9818V23.3873C42.2911 23.3873 42.9726 23.4013 43.4521 23.429L43.4754 23.0242ZM41.4058 22.9818C40.4717 22.9818 39.7758 22.9958 39.3211 23.0242L39.3464 23.4289C39.7878 23.4013 40.4732 23.3873 41.4058 23.3873V22.9818ZM39.5365 23.2266V22.9466H39.131V23.2266H39.5365ZM39.3428 23.1491C39.7655 23.1303 40.0942 23.0877 40.3107 23.0119L40.1768 22.6292C40.02 22.6841 39.742 22.7255 39.3248 22.744L39.3428 23.1491ZM40.3107 23.0119C40.5498 22.9283 40.725 22.767 40.8226 22.5352L40.4489 22.3779C40.3972 22.5008 40.3111 22.5822 40.1768 22.6292L40.3107 23.0119ZM40.8226 22.5352C40.9139 22.3185 40.9505 21.9994 40.9505 21.6026H40.545C40.545 21.9898 40.507 22.24 40.4489 22.3779L40.8226 22.5352ZM40.9505 21.6026V13.6366H40.545V21.6026H40.9505ZM40.7478 13.4338H39.9918V13.8393H40.7478V13.4338ZM39.9918 13.4338C39.4009 13.4338 38.9269 13.5183 38.5995 13.7147L38.8081 14.0624C39.0406 13.9229 39.4253 13.8393 39.9918 13.8393V13.4338ZM38.6038 13.7122C38.2723 13.9 38.0473 14.2021 37.9224 14.5975L38.3091 14.7196C38.4082 14.4057 38.5752 14.1944 38.8037 14.0649L38.6038 13.7122ZM37.9229 14.596C37.8041 14.9624 37.7091 15.5118 37.6341 16.2336L38.0374 16.2755C38.1117 15.56 38.2034 15.0454 38.3086 14.7211L37.9229 14.596ZM37.8358 16.0518H37.5138V16.4573H37.8358V16.0518ZM37.7156 16.2735C37.7444 15.9661 37.7585 15.5765 37.7585 15.1066H37.353C37.353 15.57 37.3391 15.9457 37.3119 16.2356L37.7156 16.2735ZM37.7585 15.1066C37.7585 14.5665 37.7253 13.9624 37.6595 13.2947L37.256 13.3345C37.3208 13.9921 37.353 14.5826 37.353 15.1066H37.7585ZM37.4504 13.5172C38.2291 13.5453 39.5484 13.5593 41.4058 13.5593V13.1538C39.5484 13.1538 38.2357 13.1398 37.4651 13.112L37.4504 13.5172ZM41.4058 13.5593C43.2538 13.5593 44.5684 13.5453 45.3471 13.5172L45.3324 13.112C44.5618 13.1398 43.2537 13.1538 41.4058 13.1538V13.5593ZM53.5307 13.7206L53.4257 13.894L53.4267 13.8946L53.5307 13.7206ZM55.0847 15.4706L54.9016 15.5576L54.9029 15.5603L55.0847 15.4706ZM55.0707 20.9166L54.8881 20.8285L54.8873 20.8302L55.0707 20.9166ZM53.4887 22.7646L53.3789 22.5941L53.3779 22.5948L53.4887 22.7646ZM48.8547 22.8206L48.7497 22.994L48.7507 22.9946L48.8547 22.8206ZM47.3007 21.0846L47.1176 21.1716L47.1189 21.1743L47.3007 21.0846ZM47.3147 15.6246L47.1321 15.5365L47.1313 15.5382L47.3147 15.6246ZM48.8967 13.7766L48.7869 13.6061L48.7859 13.6068L48.8967 13.7766ZM49.5687 14.0006L49.7057 14.15L49.7058 14.1499L49.5687 14.0006ZM48.5187 15.7366L48.3266 15.6717L48.3259 15.6739L48.5187 15.7366ZM48.5607 20.8606L48.3704 20.9304L48.3712 20.9325L48.5607 20.8606ZM49.6807 22.5686L49.8129 22.4149V22.4149L49.6807 22.5686ZM52.8167 22.5546L52.9537 22.704L52.9538 22.7039L52.8167 22.5546ZM53.8667 20.8046L53.6746 20.7397L53.6739 20.7419L53.8667 20.8046ZM53.8247 15.6806L53.6344 15.7504L53.6352 15.7525L53.8247 15.6806ZM52.7187 13.9726L52.5865 14.1263V14.1263L52.7187 13.9726ZM51.2067 13.3213C52.0618 13.3213 52.799 13.5145 53.4257 13.894L53.6357 13.5471C52.937 13.124 52.1249 12.9158 51.2067 12.9158V13.3213ZM53.4267 13.8946C54.0615 14.2737 54.5533 14.8253 54.9016 15.5576L55.2678 15.3835C54.8881 14.5851 54.3439 13.9701 53.6346 13.5465L53.4267 13.8946ZM54.9029 15.5603C55.2594 16.2823 55.442 17.1554 55.442 18.1866H55.8474C55.8474 17.1084 55.6566 16.1708 55.2665 15.3808L54.9029 15.5603ZM55.442 18.1866C55.442 19.1878 55.2555 20.0668 54.8881 20.8285L55.2533 21.0046C55.6512 20.1796 55.8474 19.2387 55.8474 18.1866H55.442ZM54.8873 20.8302C54.5287 21.5921 54.0257 22.1777 53.3789 22.5941L53.5984 22.935C54.3144 22.4741 54.866 21.8277 55.2541 21.0029L54.8873 20.8302ZM53.3779 22.5948C52.7412 23.0104 52.0149 23.2198 51.1927 23.2198V23.6253C52.0878 23.6253 52.8922 23.396 53.5995 22.9343L53.3779 22.5948ZM51.1927 23.2198C50.3377 23.2198 49.5952 23.0267 48.9586 22.6465L48.7507 22.9946C49.4582 23.4171 50.2744 23.6253 51.1927 23.6253V23.2198ZM48.9597 22.6471C48.333 22.2676 47.8403 21.7194 47.4825 20.9948L47.1189 21.1743C47.5078 21.9618 48.0511 22.5709 48.7497 22.994L48.9597 22.6471ZM47.4838 20.9975C47.1355 20.2652 46.9574 19.3863 46.9574 18.3546H46.552C46.552 19.4322 46.7379 20.3733 47.1176 21.1716L47.4838 20.9975ZM46.9574 18.3546C46.9574 17.3527 47.1395 16.473 47.4981 15.7109L47.1313 15.5382C46.7432 16.3628 46.552 17.3031 46.552 18.3546H46.9574ZM47.4973 15.7126C47.8655 14.9492 48.3694 14.3629 49.0075 13.9463L48.7859 13.6068C48.08 14.0676 47.5292 14.7132 47.1321 15.5365L47.4973 15.7126ZM49.0064 13.947C49.6531 13.5307 50.3845 13.3213 51.2067 13.3213V12.9158C50.3115 12.9158 49.503 13.1451 48.7869 13.6061L49.0064 13.947ZM51.1507 13.1678C50.5004 13.1678 49.9247 13.3984 49.4316 13.8512L49.7058 14.1499C50.1274 13.7627 50.6063 13.5733 51.1507 13.5733V13.1678ZM49.4317 13.8511C48.9521 14.2907 48.5864 14.902 48.3266 15.6717L48.7108 15.8014C48.955 15.0778 49.2893 14.5317 49.7057 14.15L49.4317 13.8511ZM48.3259 15.6739C48.0754 16.4448 47.952 17.3205 47.952 18.2986H48.3574C48.3574 17.3539 48.4767 16.5217 48.7115 15.7992L48.3259 15.6739ZM47.952 18.2986C47.952 19.2876 48.0898 20.1661 48.3704 20.9304L48.751 20.7907C48.4902 20.0803 48.3574 19.2508 48.3574 18.2986H47.952ZM48.3712 20.9325C48.6599 21.6928 49.05 22.2936 49.5485 22.7223L49.8129 22.4149C49.3781 22.0409 49.0215 21.503 48.7502 20.7886L48.3712 20.9325ZM49.5485 22.7223C50.0494 23.1531 50.6183 23.3733 51.2487 23.3733V22.9678C50.7218 22.9678 50.2453 22.7867 49.8129 22.4149L49.5485 22.7223ZM51.2487 23.3733C51.8977 23.3733 52.469 23.1483 52.9537 22.704L52.6797 22.4051C52.2684 22.7822 51.7943 22.9678 51.2487 22.9678V23.3733ZM52.9538 22.7039C53.4428 22.2548 53.8089 21.6385 54.0595 20.8672L53.6739 20.7419C53.4392 21.464 53.1052 22.0143 52.6796 22.4052L52.9538 22.7039ZM54.0588 20.8694C54.3192 20.0978 54.4474 19.2213 54.4474 18.2426H54.042C54.042 19.1865 53.9182 20.018 53.6746 20.7397L54.0588 20.8694ZM54.4474 18.2426C54.4474 17.2528 54.3047 16.3735 54.0142 15.6086L53.6352 15.7525C53.9047 16.4623 54.042 17.291 54.042 18.2426H54.4474ZM54.015 15.6107C53.7357 14.8497 53.35 14.2481 52.8509 13.8189L52.5865 14.1263C53.0207 14.4997 53.3724 15.0368 53.6344 15.7504L54.015 15.6107ZM52.8509 13.8189C52.35 13.3881 51.7811 13.1678 51.1507 13.1678V13.5733C51.6776 13.5733 52.1541 13.7544 52.5865 14.1263L52.8509 13.8189ZM15.0142 33.2226V33.0198H14.8115V33.2226H15.0142ZM15.5182 36.8346L15.46 37.0287V37.0287L15.5182 36.8346ZM16.4282 36.9466H16.631V36.7526L16.4372 36.744L16.4282 36.9466ZM16.4282 37.2266L16.4166 37.429L16.631 37.4413V37.2266H16.4282ZM12.5782 37.2266H12.3755V37.4443L12.5927 37.4288L12.5782 37.2266ZM12.5782 36.9466L12.567 36.7441L12.3755 36.7548V36.9466H12.5782ZM13.3062 36.8346L13.2387 36.6433L13.235 36.6447L13.3062 36.8346ZM13.6282 28.0286L13.4371 28.096V28.096L13.6282 28.0286ZM13.3062 27.7066L13.235 27.8964L13.2388 27.8977L13.3062 27.7066ZM12.5782 27.5946H12.3755V27.7863L12.567 27.797L12.5782 27.5946ZM12.5782 27.3146L12.5927 27.1123L12.3755 27.0968V27.3146H12.5782ZM14.2862 27.3566V27.5593L14.2881 27.5593L14.2862 27.3566ZM15.7982 27.3426L15.8001 27.5455L15.8089 27.545L15.7982 27.3426ZM18.9062 28.0846L18.7731 28.2374L18.7745 28.2387L18.9062 28.0846ZM19.4242 31.5706L19.2422 31.4813L19.2415 31.4828L19.4242 31.5706ZM18.2622 32.7466L18.161 32.5709L18.1597 32.5717L18.2622 32.7466ZM15.3922 27.6926L15.311 27.5068L15.3065 27.5088L15.3922 27.6926ZM15.0982 28.0426L15.2906 28.1067V28.1067L15.0982 28.0426ZM15.0142 32.9426H14.8115V33.1453H15.0142V32.9426ZM17.8422 32.2146L17.6775 32.0964L17.677 32.097L17.8422 32.2146ZM17.8282 28.2386L17.6719 28.3677L17.6736 28.3697L17.8282 28.2386ZM14.8115 33.2226V35.7426H15.217V33.2226H14.8115ZM14.8115 35.7426C14.8115 36.1027 14.848 36.3975 14.9428 36.5989L15.3097 36.4262C15.2551 36.3103 15.217 36.0918 15.217 35.7426H14.8115ZM14.9428 36.5989C15.0449 36.8158 15.225 36.9583 15.46 37.0287L15.5765 36.6404C15.4381 36.5989 15.3569 36.5267 15.3097 36.4262L14.9428 36.5989ZM15.46 37.0287C15.6723 37.0925 15.9972 37.1303 16.4192 37.1491L16.4372 36.744C16.0193 36.7255 15.7375 36.6887 15.5765 36.6404L15.46 37.0287ZM16.2255 36.9466V37.2266H16.631V36.9466H16.2255ZM16.4399 37.0242C15.9488 36.9958 15.2582 36.9818 14.3702 36.9818V37.3873C15.2556 37.3873 15.9371 37.4013 16.4166 37.429L16.4399 37.0242ZM14.3702 36.9818C13.5666 36.9818 12.9633 36.9958 12.5638 37.0243L12.5927 37.4288C12.9771 37.4013 13.5685 37.3873 14.3702 37.3873V36.9818ZM12.781 37.2266V36.9466H12.3755V37.2266H12.781ZM12.5895 37.149C12.9285 37.1302 13.1974 37.0919 13.3774 37.0244L13.235 36.6447C13.1164 36.6892 12.9 36.7256 12.567 36.7441L12.5895 37.149ZM13.3737 37.0257C13.5902 36.9493 13.743 36.7965 13.8194 36.58L13.4371 36.4451C13.4015 36.5459 13.3396 36.6078 13.2388 36.6434L13.3737 37.0257ZM13.8194 36.58C13.8876 36.3867 13.915 36.1005 13.915 35.7426H13.5095C13.5095 36.0939 13.4808 36.3211 13.4371 36.4451L13.8194 36.58ZM13.915 35.7426V28.7986H13.5095V35.7426H13.915ZM13.915 28.7986C13.915 28.4406 13.8876 28.1544 13.8194 27.9611L13.4371 28.096C13.4808 28.2201 13.5095 28.4472 13.5095 28.7986H13.915ZM13.8194 27.9611C13.743 27.7446 13.5902 27.5918 13.3737 27.5154L13.2388 27.8977C13.3396 27.9333 13.4015 27.9952 13.4371 28.096L13.8194 27.9611ZM13.3774 27.5167C13.1974 27.4492 12.9285 27.411 12.5895 27.3921L12.567 27.797C12.9 27.8155 13.1164 27.8519 13.235 27.8964L13.3774 27.5167ZM12.781 27.5946V27.3146H12.3755V27.5946H12.781ZM12.5638 27.5168C12.9631 27.5453 13.5382 27.5593 14.2862 27.5593V27.1538C13.5409 27.1538 12.9773 27.1398 12.5927 27.1123L12.5638 27.5168ZM14.2881 27.5593L15.8001 27.5453L15.7964 27.1398L14.2844 27.1538L14.2881 27.5593ZM15.8089 27.545C15.9819 27.5359 16.1789 27.5313 16.4002 27.5313V27.1258C16.1736 27.1258 15.9692 27.1305 15.7876 27.1401L15.8089 27.545ZM16.4002 27.5313C17.4638 27.5313 18.2443 27.7769 18.7731 28.2374L19.0394 27.9317C18.4109 27.3842 17.5207 27.1258 16.4002 27.1258V27.5313ZM18.7745 28.2387C19.3031 28.6905 19.5715 29.2989 19.5715 30.0866H19.977C19.977 29.1942 19.6667 28.4679 19.038 27.9305L18.7745 28.2387ZM19.5715 30.0866C19.5715 30.5679 19.4624 31.0322 19.2422 31.4813L19.6063 31.6598C19.8528 31.157 19.977 30.6319 19.977 30.0866H19.5715ZM19.2415 31.4828C19.0388 31.905 18.6844 32.2693 18.161 32.5709L18.3635 32.9222C18.9414 32.5892 19.3616 32.1695 19.607 31.6583L19.2415 31.4828ZM18.1597 32.5717C17.6603 32.8644 16.9765 33.0198 16.0922 33.0198V33.4253C17.0186 33.4253 17.7815 33.2634 18.3648 32.9215L18.1597 32.5717ZM16.0922 33.0198H15.0142V33.4253H16.0922V33.0198ZM16.0502 27.3918C15.7513 27.3918 15.4986 27.4247 15.311 27.5068L15.4735 27.8783C15.5845 27.8297 15.7705 27.7973 16.0502 27.7973V27.3918ZM15.3065 27.5088C15.1085 27.6012 14.9767 27.7661 14.9059 27.9785L15.2906 28.1067C15.3318 27.983 15.396 27.9145 15.478 27.8763L15.3065 27.5088ZM14.9059 27.9785C14.8393 28.1781 14.8115 28.4566 14.8115 28.7986H15.217C15.217 28.4685 15.2451 28.243 15.2906 28.1067L14.9059 27.9785ZM14.8115 28.7986V32.9426H15.217V28.7986H14.8115ZM15.0142 33.1453H15.9522V32.7398H15.0142V33.1453ZM15.9522 33.1453C16.8961 33.1453 17.607 32.8949 18.0074 32.3321L17.677 32.097C17.3868 32.5049 16.8377 32.7398 15.9522 32.7398V33.1453ZM18.007 32.3327C18.3937 31.7934 18.577 31.0897 18.577 30.2406H18.1715C18.1715 31.0341 18.0001 31.6464 17.6775 32.0964L18.007 32.3327ZM18.577 30.2406C18.577 29.3146 18.392 28.59 17.9829 28.1075L17.6736 28.3697C17.9925 28.7458 18.1715 29.3558 18.1715 30.2406H18.577ZM17.9845 28.1094C17.5755 27.6143 16.911 27.3918 16.0502 27.3918V27.7973C16.8508 27.7973 17.3717 28.0042 17.6719 28.3677L17.9845 28.1094ZM24.6033 27.5946L24.6146 27.797L24.806 27.7863V27.5946H24.6033ZM23.8613 27.7066L23.7938 27.5153L23.7901 27.5167L23.8613 27.7066ZM23.5533 28.0286L23.7445 28.096V28.096L23.5533 28.0286ZM23.5533 36.5126L23.7445 36.4451V36.4451L23.5533 36.5126ZM23.8613 36.8346L23.7901 37.0244L23.7938 37.0257L23.8613 36.8346ZM24.6033 36.9466H24.806V36.7548L24.6146 36.7441L24.6033 36.9466ZM24.6033 37.2266L24.5901 37.4289L24.806 37.443V37.2266H24.6033ZM21.0333 37.2266H20.8306V37.4443L21.0478 37.4288L21.0333 37.2266ZM21.0333 36.9466L21.0221 36.7441L20.8306 36.7548V36.9466H21.0333ZM21.7613 36.8346L21.6938 36.6433L21.6901 36.6447L21.7613 36.8346ZM22.0833 28.0286L21.8921 28.096V28.096L22.0833 28.0286ZM21.7613 27.7066L21.6901 27.8964L21.6938 27.8977L21.7613 27.7066ZM21.0333 27.5946H20.8306V27.7863L21.0221 27.797L21.0333 27.5946ZM21.0333 27.3146L21.0478 27.1123L20.8306 27.0968V27.3146H21.0333ZM24.6033 27.3146H24.806V27.0985L24.5904 27.1122L24.6033 27.3146ZM24.5921 27.3921C24.252 27.411 23.9808 27.4494 23.7938 27.5154L23.9288 27.8977C24.0591 27.8517 24.2826 27.8154 24.6146 27.797L24.5921 27.3921ZM23.7901 27.5167C23.5812 27.5951 23.4368 27.7495 23.3621 27.9611L23.7445 28.096C23.7818 27.9903 23.8427 27.9301 23.9325 27.8964L23.7901 27.5167ZM23.3621 27.9611C23.2939 28.1544 23.2666 28.4406 23.2666 28.7986H23.672C23.672 28.4472 23.7007 28.2201 23.7445 28.096L23.3621 27.9611ZM23.2666 28.7986V35.7426H23.672V28.7986H23.2666ZM23.2666 35.7426C23.2666 36.1005 23.2939 36.3867 23.3621 36.58L23.7445 36.4451C23.7007 36.3211 23.672 36.0939 23.672 35.7426H23.2666ZM23.3621 36.58C23.4368 36.7917 23.5812 36.9461 23.7901 37.0244L23.9325 36.6447C23.8427 36.6111 23.7818 36.5508 23.7445 36.4451L23.3621 36.58ZM23.7938 37.0257C23.9808 37.0917 24.252 37.1301 24.5921 37.149L24.6146 36.7441C24.2826 36.7257 24.0591 36.6894 23.9288 36.6434L23.7938 37.0257ZM24.4006 36.9466V37.2266H24.806V36.9466H24.4006ZM24.6165 37.0243C24.1807 36.9958 23.583 36.9818 22.8253 36.9818V37.3873C23.5797 37.3873 24.1673 37.4013 24.5901 37.4289L24.6165 37.0243ZM22.8253 36.9818C22.0217 36.9818 21.4184 36.9958 21.0189 37.0243L21.0478 37.4288C21.4322 37.4013 22.0236 37.3873 22.8253 37.3873V36.9818ZM21.236 37.2266V36.9466H20.8306V37.2266H21.236ZM21.0446 37.149C21.3835 37.1302 21.6525 37.0919 21.8325 37.0244L21.6901 36.6447C21.5715 36.6892 21.3551 36.7256 21.0221 36.7441L21.0446 37.149ZM21.8288 37.0257C22.0453 36.9493 22.1981 36.7965 22.2745 36.58L21.8921 36.4451C21.8565 36.5459 21.7947 36.6078 21.6938 36.6434L21.8288 37.0257ZM22.2745 36.58C22.3427 36.3867 22.37 36.1005 22.37 35.7426H21.9646C21.9646 36.0939 21.9359 36.3211 21.8921 36.4451L22.2745 36.58ZM22.37 35.7426V28.7986H21.9646V35.7426H22.37ZM22.37 28.7986C22.37 28.4406 22.3427 28.1544 22.2745 27.9611L21.8921 28.096C21.9359 28.2201 21.9646 28.4472 21.9646 28.7986H22.37ZM22.2745 27.9611C22.1981 27.7446 22.0453 27.5918 21.8288 27.5154L21.6938 27.8977C21.7947 27.9333 21.8565 27.9952 21.8921 28.096L22.2745 27.9611ZM21.8325 27.5167C21.6525 27.4492 21.3835 27.411 21.0446 27.3921L21.0221 27.797C21.3551 27.8155 21.5715 27.8519 21.6901 27.8964L21.8325 27.5167ZM21.236 27.5946V27.3146H20.8306V27.5946H21.236ZM21.0189 27.5168C21.4184 27.5453 22.0217 27.5593 22.8253 27.5593V27.1538C22.0236 27.1538 21.4322 27.1398 21.0478 27.1123L21.0189 27.5168ZM22.8253 27.5593C23.5738 27.5593 24.1713 27.5453 24.6162 27.5169L24.5904 27.1122C24.158 27.1398 23.5702 27.1538 22.8253 27.1538V27.5593ZM24.4006 27.3146V27.5946H24.806V27.3146H24.4006ZM30.0051 27.3006L29.9297 27.489L29.9388 27.4921L30.0051 27.3006ZM30.7471 27.6786L30.6346 27.8473L30.6382 27.8496L30.7471 27.6786ZM31.4191 27.7346L31.6005 27.8253L31.6036 27.8185L31.4191 27.7346ZM31.5311 27.2586V27.0558H31.3531L31.33 27.2323L31.5311 27.2586ZM31.8531 27.2586L32.0551 27.276L32.074 27.0558H31.8531V27.2586ZM31.7831 30.1146V30.3173H31.9858V30.1146H31.7831ZM31.4611 30.1146L31.2589 30.1295L31.2728 30.3173H31.4611V30.1146ZM30.8031 28.2106L30.6381 28.3284L30.6405 28.3317L30.8031 28.2106ZM27.9331 27.8886L28.072 28.0362L28.0743 28.034L27.9331 27.8886ZM27.6951 29.9746L27.5217 30.0798L27.5245 30.0842L27.6951 29.9746ZM28.3251 30.6466L28.4458 30.4837V30.4837L28.3251 30.6466ZM29.4031 31.3606L29.51 31.1883L29.5099 31.1883L29.4031 31.3606ZM29.8091 31.6126L29.7022 31.7848L29.7024 31.7849L29.8091 31.6126ZM31.1951 32.5786L31.0652 32.7344L31.07 32.7381L31.1951 32.5786ZM32.0211 33.5166L31.8456 33.6181V33.6181L32.0211 33.5166ZM31.4891 36.7366L31.6173 36.8936L31.6189 36.8923L31.4891 36.7366ZM28.2551 37.2826L28.191 37.4749L28.1928 37.4755L28.2551 37.2826ZM27.4431 36.9046L27.3342 37.0756L27.3379 37.0779L27.4431 36.9046ZM26.7711 36.8626L26.9525 36.9533L26.9556 36.9465L26.7711 36.8626ZM26.6591 37.3246V37.5273H26.8371L26.8601 37.3508L26.6591 37.3246ZM26.3371 37.3246L26.1349 37.3099L26.1191 37.5273H26.3371V37.3246ZM26.3931 33.9646V33.7618H26.1903V33.9646H26.3931ZM26.7151 33.9646L26.9173 33.9505L26.9043 33.7618H26.7151V33.9646ZM27.4151 36.2606L27.2476 36.3749V36.3749L27.4151 36.2606ZM30.5511 36.6806L30.684 36.8337L30.6863 36.8316L30.5511 36.6806ZM30.5511 33.9506L30.404 34.0901L30.4059 34.092L30.5511 33.9506ZM28.8991 32.7186L28.7935 32.8916L28.7941 32.892L28.8991 32.7186ZM27.5551 31.8226L27.4306 31.9826L27.4327 31.9842L27.5551 31.8226ZM26.7291 30.8846L26.5533 30.9856L26.5544 30.9875L26.7291 30.8846ZM27.1631 27.7906L27.2911 27.9477L27.2929 27.9463L27.1631 27.7906ZM29.0391 27.3633C29.4382 27.3633 29.7308 27.4092 29.9298 27.4888L30.0804 27.1123C29.8127 27.0052 29.4613 26.9578 29.0391 26.9578V27.3633ZM29.9388 27.4921C30.1625 27.5696 30.3945 27.6872 30.6346 27.8472L30.8595 27.5099C30.5957 27.334 30.333 27.1995 30.0714 27.109L29.9388 27.4921ZM30.6382 27.8496C30.846 27.9818 31.0479 28.0773 31.2231 28.0773V27.6718C31.1742 27.6718 31.0588 27.6366 30.8559 27.5075L30.6382 27.8496ZM31.2231 28.0773C31.4039 28.0773 31.5294 27.9673 31.6004 27.8252L31.2377 27.6439C31.2249 27.6696 31.2161 27.6754 31.2172 27.6746C31.2179 27.6741 31.2197 27.673 31.2221 27.6723C31.2244 27.6716 31.2251 27.6718 31.2231 27.6718V28.0773ZM31.6036 27.8185C31.6631 27.6876 31.7034 27.5046 31.7321 27.2848L31.33 27.2323C31.3027 27.4418 31.2684 27.5762 31.2345 27.6507L31.6036 27.8185ZM31.5311 27.4613H31.8531V27.0558H31.5311V27.4613ZM31.6511 27.2411C31.6036 27.7922 31.5803 28.7522 31.5803 30.1146H31.9858C31.9858 28.7516 32.0092 27.8076 32.0551 27.276L31.6511 27.2411ZM31.7831 29.9118H31.4611V30.3173H31.7831V29.9118ZM31.6633 30.0996C31.6049 29.3123 31.3753 28.6389 30.9656 28.0894L30.6405 28.3317C30.9962 28.8089 31.2052 29.4048 31.2589 30.1295L31.6633 30.0996ZM30.9681 28.0927C30.5517 27.5098 29.9402 27.2238 29.1651 27.2238V27.6293C29.8273 27.6293 30.3078 27.866 30.6381 28.3284L30.9681 28.0927ZM29.1651 27.2238C28.6163 27.2238 28.1524 27.3932 27.7919 27.7431L28.0743 28.034C28.3484 27.768 28.7058 27.6293 29.1651 27.6293V27.2238ZM27.7941 27.7409C27.4321 28.0817 27.2543 28.5244 27.2543 29.0506H27.6598C27.6598 28.6247 27.7994 28.2928 28.072 28.0362L27.7941 27.7409ZM27.2543 29.0506C27.2543 29.4363 27.341 29.7819 27.5218 30.0798L27.8684 29.8693C27.7319 29.6445 27.6598 29.3742 27.6598 29.0506H27.2543ZM27.5245 30.0842C27.7059 30.3664 27.9329 30.6083 28.2044 30.8095L28.4458 30.4837C28.2133 30.3114 28.0202 30.1054 27.8656 29.8649L27.5245 30.0842ZM28.2044 30.8095C28.463 31.001 28.8278 31.2424 29.2962 31.5329L29.5099 31.1883C29.045 30.9 28.6912 30.6654 28.4458 30.4837L28.2044 30.8095ZM29.2962 31.5328L29.7022 31.7848L29.916 31.4403L29.51 31.1883L29.2962 31.5328ZM29.7024 31.7849C30.2864 32.1465 30.7395 32.4628 31.0653 32.7343L31.3249 32.4228C30.9786 32.1343 30.5078 31.8067 29.9158 31.4402L29.7024 31.7849ZM31.07 32.7381C31.3965 32.994 31.6541 33.2874 31.8456 33.6181L32.1965 33.415C31.9774 33.0364 31.6844 32.7045 31.3201 32.419L31.07 32.7381ZM31.8456 33.6181C32.0304 33.9373 32.1263 34.3164 32.1263 34.7626H32.5318C32.5318 34.2567 32.4224 33.8052 32.1965 33.415L31.8456 33.6181ZM32.1263 34.7626C32.1263 35.5628 31.8652 36.1592 31.3593 36.5808L31.6189 36.8923C32.233 36.3806 32.5318 35.661 32.5318 34.7626H32.1263ZM31.3608 36.5795C30.8435 37.002 30.1822 37.2198 29.3611 37.2198V37.6253C30.2573 37.6253 31.0146 37.3858 31.6173 36.8936L31.3608 36.5795ZM29.3611 37.2198C28.9252 37.2198 28.5795 37.1742 28.3173 37.0896L28.1928 37.4755C28.5094 37.5776 28.901 37.6253 29.3611 37.6253V37.2198ZM28.3192 37.0902C28.0541 37.0019 27.7971 36.8824 27.5483 36.7313L27.3379 37.0779C27.6117 37.2441 27.8961 37.3766 28.191 37.4749L28.3192 37.0902ZM27.5519 36.7335C27.3442 36.6013 27.1422 36.5058 26.9671 36.5058V36.9113C27.0159 36.9113 27.1313 36.9465 27.3342 37.0756L27.5519 36.7335ZM26.9671 36.5058C26.7756 36.5058 26.6527 36.6331 26.5865 36.7787L26.9556 36.9465C26.9701 36.9146 26.9807 36.9062 26.9803 36.9065C26.9798 36.9069 26.9774 36.9086 26.9735 36.9099C26.9696 36.9112 26.9671 36.9113 26.9671 36.9113V36.5058ZM26.5897 36.7719C26.527 36.8974 26.4865 37.08 26.458 37.2983L26.8601 37.3508C26.8876 37.1398 26.9218 37.0144 26.9524 36.9532L26.5897 36.7719ZM26.6591 37.1218H26.3371V37.5273H26.6591V37.1218ZM26.5393 37.3393C26.5773 36.8172 26.5958 35.6894 26.5958 33.9646H26.1903C26.1903 35.6931 26.1716 36.8053 26.1349 37.3099L26.5393 37.3393ZM26.3931 34.1673H26.7151V33.7618H26.3931V34.1673ZM26.5128 33.9786C26.5799 34.9458 26.8204 35.7489 27.2476 36.3749L27.5825 36.1463C27.2071 35.5962 26.981 34.8687 26.9173 33.9505L26.5128 33.9786ZM27.2476 36.3749C27.6935 37.0281 28.3783 37.3453 29.2631 37.3453V36.9398C28.4865 36.9398 27.9394 36.6691 27.5825 36.1463L27.2476 36.3749ZM29.2631 37.3453C29.8121 37.3453 30.2896 37.1761 30.684 36.8336L30.4181 36.5275C30.1032 36.801 29.7221 36.9398 29.2631 36.9398V37.3453ZM30.6863 36.8316C31.0957 36.4653 31.2858 35.9362 31.2858 35.2806H30.8803C30.8803 35.8569 30.7157 36.2612 30.4159 36.5295L30.6863 36.8316ZM31.2858 35.2806C31.2858 34.7067 31.089 34.2121 30.6963 33.8091L30.4059 34.092C30.7225 34.417 30.8803 34.8091 30.8803 35.2806H31.2858ZM30.6982 33.811C30.3344 33.4276 29.7657 33.0058 29.004 32.5451L28.7941 32.892C29.5445 33.3459 30.0771 33.7456 30.404 34.0901L30.6982 33.811ZM29.0047 32.5455C28.4573 32.2115 28.0155 31.9167 27.6774 31.6609L27.4327 31.9842C27.7854 32.2511 28.2395 32.5536 28.7935 32.8916L29.0047 32.5455ZM27.6795 31.6625C27.3636 31.4168 27.1053 31.1234 26.9037 30.7816L26.5544 30.9875C26.7822 31.3737 27.0746 31.7057 27.4306 31.9826L27.6795 31.6625ZM26.9048 30.7835C26.7103 30.4452 26.6098 30.0471 26.6098 29.5826H26.2043C26.2043 30.1073 26.3185 30.5772 26.5533 30.9856L26.9048 30.7835ZM26.6098 29.5826C26.6098 28.8456 26.8442 28.3119 27.2911 27.9477L27.035 27.6334C26.474 28.0905 26.2043 28.7515 26.2043 29.5826H26.6098ZM27.2929 27.9463C27.7554 27.5608 28.3329 27.3633 29.0391 27.3633V26.9578C28.2519 26.9578 27.5787 27.1803 27.0333 27.6348L27.2929 27.9463ZM44.8872 27.5946L44.8985 27.797L45.09 27.7863V27.5946H44.8872ZM44.1452 27.7066L44.0778 27.5153L44.0741 27.5167L44.1452 27.7066ZM43.8372 28.0286L43.6461 27.9611V27.9611L43.8372 28.0286ZM43.8372 36.5126L43.6461 36.58V36.58L43.8372 36.5126ZM44.1452 36.8346L44.0741 37.0244L44.0778 37.0257L44.1452 36.8346ZM44.8872 36.9466H45.09V36.7548L44.8985 36.7441L44.8872 36.9466ZM44.8872 37.2266L44.8741 37.4289L45.09 37.443V37.2266H44.8872ZM41.3172 37.2266H41.1145V37.4443L41.3317 37.4288L41.3172 37.2266ZM41.3172 36.9466L41.306 36.7441L41.1145 36.7548V36.9466H41.3172ZM42.0452 36.8346L41.9778 36.6433L41.9741 36.6447L42.0452 36.8346ZM42.3673 36.5126L42.5584 36.58V36.58L42.3673 36.5126ZM42.4513 28.2386H42.654L42.2613 28.1678L42.4513 28.2386ZM39.0773 37.2966V37.4993H39.2181L39.2672 37.3673L39.0773 37.2966ZM38.8533 37.2966L38.6643 37.3699L38.7145 37.4993H38.8533V37.2966ZM35.3253 28.2106L35.5142 28.1372L35.1225 28.2106H35.3253ZM35.4093 36.4146L35.2157 36.4757L35.219 36.4846L35.4093 36.4146ZM35.7733 36.8066L35.6864 36.99L35.6946 36.9934L35.7733 36.8066ZM36.5993 36.9466H36.802V36.7537L36.6094 36.7441L36.5993 36.9466ZM36.5993 37.2266L36.5824 37.4286L36.802 37.4469V37.2266H36.5993ZM33.8692 37.2266H33.6665V37.4486L33.8876 37.4285L33.8692 37.2266ZM33.8692 36.9466L33.8577 36.7442L33.6665 36.7551V36.9466H33.8692ZM34.5972 36.8066L34.6837 36.9902L34.6921 36.9857L34.5972 36.8066ZM34.9193 36.4146L35.1126 36.4756L35.1134 36.4728L34.9193 36.4146ZM34.9193 28.0286L34.7281 28.096V28.096L34.9193 28.0286ZM34.5972 27.7066L34.5261 27.8964L34.5298 27.8977L34.5972 27.7066ZM33.8692 27.5946H33.6665V27.7863L33.858 27.797L33.8692 27.5946ZM33.8692 27.3146L33.8876 27.1127L33.6665 27.0926V27.3146H33.8692ZM36.3612 27.3146L36.5508 27.2426L36.4961 27.0987L36.3429 27.1127L36.3612 27.3146ZM39.4412 35.4206L39.2517 35.4926L39.4429 35.9958L39.6312 35.4915L39.4412 35.4206ZM42.4513 27.3566V27.1538H42.3105L42.2613 27.2857L42.4513 27.3566ZM44.8872 27.3146H45.09V27.0982L44.8741 27.1123L44.8872 27.3146ZM44.876 27.3921C44.536 27.411 44.2648 27.4494 44.0778 27.5154L44.2127 27.8977C44.3431 27.8517 44.5665 27.8154 44.8985 27.797L44.876 27.3921ZM44.0741 27.5167C43.8652 27.5951 43.7208 27.7495 43.6461 27.9611L44.0284 28.096C44.0657 27.9903 44.1267 27.9301 44.2164 27.8964L44.0741 27.5167ZM43.6461 27.9611C43.5779 28.1544 43.5505 28.4406 43.5505 28.7986H43.956C43.956 28.4472 43.9846 28.2201 44.0284 28.096L43.6461 27.9611ZM43.5505 28.7986V35.7426H43.956V28.7986H43.5505ZM43.5505 35.7426C43.5505 36.1005 43.5779 36.3867 43.6461 36.58L44.0284 36.4451C43.9846 36.3211 43.956 36.0939 43.956 35.7426H43.5505ZM43.6461 36.58C43.7208 36.7917 43.8652 36.9461 44.0741 37.0244L44.2164 36.6447C44.1267 36.6111 44.0657 36.5508 44.0284 36.4451L43.6461 36.58ZM44.0778 37.0257C44.2648 37.0917 44.536 37.1301 44.876 37.149L44.8985 36.7441C44.5666 36.7257 44.3431 36.6894 44.2127 36.6434L44.0778 37.0257ZM44.6845 36.9466V37.2266H45.09V36.9466H44.6845ZM44.9004 37.0243C44.4646 36.9958 43.8669 36.9818 43.1092 36.9818V37.3873C43.8636 37.3873 44.4512 37.4013 44.8741 37.4289L44.9004 37.0243ZM43.1092 36.9818C42.3056 36.9818 41.7023 36.9958 41.3028 37.0243L41.3317 37.4288C41.7162 37.4013 42.3075 37.3873 43.1092 37.3873V36.9818ZM41.52 37.2266V36.9466H41.1145V37.2266H41.52ZM41.3285 37.149C41.6675 37.1302 41.9364 37.0919 42.1164 37.0244L41.9741 36.6447C41.8554 36.6892 41.639 36.7256 41.306 36.7441L41.3285 37.149ZM42.1127 37.0257C42.3292 36.9493 42.482 36.7965 42.5584 36.58L42.1761 36.4451C42.1405 36.5459 42.0786 36.6078 41.9778 36.6434L42.1127 37.0257ZM42.5584 36.58C42.6267 36.3867 42.654 36.1005 42.654 35.7426H42.2485C42.2485 36.0939 42.2198 36.3211 42.1761 36.4451L42.5584 36.58ZM42.654 35.7426V28.2386H42.2485V35.7426H42.654ZM42.2613 28.1678L38.8873 37.2258L39.2672 37.3673L42.6412 28.3093L42.2613 28.1678ZM39.0773 37.0938H38.8533V37.4993H39.0773V37.0938ZM39.0422 37.2232L35.5142 28.1372L35.1363 28.2839L38.6643 37.3699L39.0422 37.2232ZM35.1225 28.2106V35.6026H35.528V28.2106H35.1225ZM35.1225 35.6026C35.1225 35.9714 35.1502 36.2676 35.2159 36.4756L35.6026 36.3535C35.5563 36.2068 35.528 35.9617 35.528 35.6026H35.1225ZM35.219 36.4846C35.3035 36.7139 35.4632 36.884 35.6865 36.9898L35.86 36.6233C35.7286 36.5611 35.6457 36.4699 35.5995 36.3445L35.219 36.4846ZM35.6946 36.9934C35.9056 37.0823 36.2101 37.1301 36.5891 37.149L36.6094 36.7441C36.2417 36.7257 35.9955 36.6802 35.8519 36.6197L35.6946 36.9934ZM36.3965 36.9466V37.2266H36.802V36.9466H36.3965ZM36.6161 37.0245C36.2717 36.9958 35.7891 36.9818 35.1712 36.9818V37.3873C35.7854 37.3873 36.2548 37.4013 36.5824 37.4286L36.6161 37.0245ZM35.1712 36.9818C34.6092 36.9818 34.168 36.9958 33.8509 37.0247L33.8876 37.4285C34.1865 37.4013 34.6133 37.3873 35.1712 37.3873V36.9818ZM34.072 37.2266V36.9466H33.6665V37.2266H34.072ZM33.8808 37.149C34.2149 37.1299 34.4891 37.0815 34.6836 36.99L34.5109 36.6231C34.3881 36.6809 34.1769 36.7259 33.8577 36.7442L33.8808 37.149ZM34.6921 36.9857C34.8997 36.8758 35.0412 36.7017 35.1126 36.4756L34.7259 36.3535C34.6853 36.4821 34.6122 36.5693 34.5024 36.6274L34.6921 36.9857ZM35.1134 36.4728C35.178 36.2577 35.206 35.9636 35.206 35.6026H34.8005C34.8005 35.9508 34.7725 36.1981 34.7251 36.3563L35.1134 36.4728ZM35.206 35.6026V28.7986H34.8005V35.6026H35.206ZM35.206 28.7986C35.206 28.4406 35.1787 28.1544 35.1104 27.9611L34.7281 28.096C34.7718 28.2201 34.8005 28.4472 34.8005 28.7986H35.206ZM35.1104 27.9611C35.034 27.7446 34.8812 27.5918 34.6647 27.5154L34.5298 27.8977C34.6306 27.9333 34.6925 27.9952 34.7281 28.096L35.1104 27.9611ZM34.6684 27.5167C34.4884 27.4492 34.2195 27.411 33.8805 27.3921L33.858 27.797C34.191 27.8155 34.4074 27.8519 34.5261 27.8964L34.6684 27.5167ZM34.072 27.5946V27.3146H33.6665V27.5946H34.072ZM33.8509 27.5165C34.168 27.5453 34.6092 27.5593 35.1712 27.5593V27.1538C34.6133 27.1538 34.1865 27.1398 33.8876 27.1127L33.8509 27.5165ZM35.1712 27.5593C35.6597 27.5593 36.0631 27.5452 36.3796 27.5165L36.3429 27.1127C36.0434 27.1399 35.6535 27.1538 35.1712 27.1538V27.5593ZM36.1717 27.3866L39.2517 35.4926L39.6308 35.3486L36.5508 27.2426L36.1717 27.3866ZM39.6312 35.4915L42.6412 27.4275L42.2613 27.2857L39.2513 35.3497L39.6312 35.4915ZM42.4513 27.5593H43.1092V27.1538H42.4513V27.5593ZM43.1092 27.5593C43.8669 27.5593 44.4646 27.5453 44.9004 27.5169L44.8741 27.1123C44.4512 27.1398 43.8636 27.1538 43.1092 27.1538V27.5593ZM44.6845 27.3146V27.5946H45.09V27.3146H44.6845ZM53.1508 27.7206L53.0458 27.894L53.0469 27.8946L53.1508 27.7206ZM54.7048 29.4706L54.5217 29.5576L54.523 29.5603L54.7048 29.4706ZM54.6908 34.9166L54.5082 34.8285L54.5074 34.8302L54.6908 34.9166ZM53.1088 36.7646L52.9991 36.5941L52.998 36.5948L53.1088 36.7646ZM48.4748 36.8206L48.3698 36.994L48.3709 36.9946L48.4748 36.8206ZM46.9208 35.0846L46.7377 35.1716L46.739 35.1743L46.9208 35.0846ZM46.9348 29.6246L46.7522 29.5365L46.7514 29.5382L46.9348 29.6246ZM48.5168 27.7766L48.4071 27.6061L48.406 27.6068L48.5168 27.7766ZM49.1888 28.0006L49.3258 28.15L49.3259 28.1499L49.1888 28.0006ZM48.1388 29.7366L47.9467 29.6717L47.946 29.6739L48.1388 29.7366ZM48.1808 34.8606L47.9905 34.9304L47.9913 34.9325L48.1808 34.8606ZM49.3008 36.5686L49.433 36.4149V36.4149L49.3008 36.5686ZM52.4368 36.5546L52.5738 36.704L52.5739 36.7039L52.4368 36.5546ZM53.4868 34.8046L53.2947 34.7397L53.294 34.7419L53.4868 34.8046ZM53.4448 29.6806L53.2545 29.7504L53.2553 29.7525L53.4448 29.6806ZM52.3388 27.9726L52.2066 28.1263V28.1263L52.3388 27.9726ZM50.8268 27.3213C51.6819 27.3213 52.4192 27.5145 53.0458 27.894L53.2558 27.5471C52.5571 27.124 51.7451 26.9158 50.8268 26.9158V27.3213ZM53.0469 27.8946C53.6816 28.2737 54.1734 28.8253 54.5217 29.5576L54.8879 29.3835C54.5082 28.5851 53.964 27.9701 53.2548 27.5465L53.0469 27.8946ZM54.523 29.5603C54.8796 30.2823 55.0621 31.1554 55.0621 32.1866H55.4675C55.4675 31.1084 55.2767 30.1708 54.8866 29.3808L54.523 29.5603ZM55.0621 32.1866C55.0621 33.1878 54.8756 34.0668 54.5082 34.8285L54.8734 35.0046C55.2714 34.1796 55.4675 33.2387 55.4675 32.1866H55.0621ZM54.5074 34.8302C54.1488 35.5921 53.6458 36.1777 52.9991 36.5941L53.2186 36.935C53.9345 36.4741 54.4861 35.8277 54.8743 35.0029L54.5074 34.8302ZM52.998 36.5948C52.3613 37.0104 51.635 37.2198 50.8128 37.2198V37.6253C51.708 37.6253 52.5123 37.396 53.2196 36.9343L52.998 36.5948ZM50.8128 37.2198C49.9578 37.2198 49.2153 37.0267 48.5788 36.6465L48.3709 36.9946C49.0783 37.4171 49.8945 37.6253 50.8128 37.6253V37.2198ZM48.5798 36.6472C47.9531 36.2676 47.4604 35.7194 47.1026 34.9948L46.739 35.1743C47.1279 35.9618 47.6712 36.5709 48.3698 36.994L48.5798 36.6472ZM47.1039 34.9975C46.7556 34.2652 46.5775 33.3863 46.5775 32.3546H46.1721C46.1721 33.4322 46.358 34.3733 46.7377 35.1716L47.1039 34.9975ZM46.5775 32.3546C46.5775 31.3527 46.7596 30.473 47.1183 29.7109L46.7514 29.5382C46.3633 30.3628 46.1721 31.3031 46.1721 32.3546H46.5775ZM47.1174 29.7126C47.4857 28.9492 47.9895 28.3629 48.6276 27.9463L48.406 27.6068C47.7001 28.0676 47.1493 28.7132 46.7522 29.5365L47.1174 29.7126ZM48.6266 27.947C49.2732 27.5307 50.0046 27.3213 50.8268 27.3213V26.9158C49.9317 26.9158 49.1231 27.1451 48.4071 27.6061L48.6266 27.947ZM50.7708 27.1678C50.1205 27.1678 49.5448 27.3984 49.0517 27.8512L49.3259 28.1499C49.7475 27.7627 50.2264 27.5733 50.7708 27.5733V27.1678ZM49.0518 27.8511C48.5722 28.2907 48.2065 28.902 47.9467 29.6717L48.3309 29.8014C48.5751 29.0778 48.9094 28.5317 49.3258 28.15L49.0518 27.8511ZM47.946 29.6739C47.6955 30.4448 47.5721 31.3205 47.5721 32.2986H47.9776C47.9776 31.3539 48.0968 30.5217 48.3316 29.7992L47.946 29.6739ZM47.5721 32.2986C47.5721 33.2876 47.7099 34.1661 47.9905 34.9304L48.3711 34.7907C48.1104 34.0803 47.9776 33.2508 47.9776 32.2986H47.5721ZM47.9913 34.9325C48.28 35.6928 48.6701 36.2936 49.1686 36.7223L49.433 36.4149C48.9982 36.0409 48.6416 35.503 48.3703 34.7886L47.9913 34.9325ZM49.1686 36.7223C49.6695 37.1531 50.2384 37.3733 50.8688 37.3733V36.9678C50.3419 36.9678 49.8654 36.7867 49.433 36.4149L49.1686 36.7223ZM50.8688 37.3733C51.5178 37.3733 52.0891 37.1483 52.5738 36.704L52.2998 36.4051C51.8885 36.7822 51.4145 36.9678 50.8688 36.9678V37.3733ZM52.5739 36.7039C53.0629 36.2548 53.429 35.6385 53.6796 34.8672L53.294 34.7419C53.0593 35.464 52.7254 36.0143 52.2997 36.4052L52.5739 36.7039ZM53.6789 34.8694C53.9393 34.0978 54.0676 33.2213 54.0676 32.2426H53.6621C53.6621 33.1865 53.5383 34.018 53.2947 34.7397L53.6789 34.8694ZM54.0676 32.2426C54.0676 31.2528 53.9248 30.3735 53.6343 29.6086L53.2553 29.7525C53.5248 30.4623 53.6621 31.291 53.6621 32.2426H54.0676ZM53.6351 29.6107C53.3558 28.8497 52.9701 28.2481 52.471 27.8188L52.2066 28.1263C52.6408 28.4997 52.9925 29.0368 53.2545 29.7504L53.6351 29.6107ZM52.471 27.8188C51.9701 27.3881 51.4012 27.1678 50.7708 27.1678V27.5733C51.2977 27.5733 51.7742 27.7544 52.2066 28.1263L52.471 27.8188Z" fill="#FEF5EB" mask="url(#path-5-outside-1_23632_22609)"/>
</g>
</g>
<defs>
<linearGradient id="paint0_linear_23632_22609" x1="34" y1="-1.04141e-05" x2="34" y2="68" gradientUnits="userSpaceOnUse">
<stop stop-color="#C93D34"/>
<stop offset="1" stop-color="#7A2629"/>
</linearGradient>
<linearGradient id="paint1_linear_23632_22609" x1="34" y1="-1.04141e-05" x2="34" y2="68" gradientUnits="userSpaceOnUse">
<stop stop-color="#C93D34"/>
<stop offset="1" stop-color="#7A2629"/>
</linearGradient>
<clipPath id="clip0_23632_22609">
<rect width="68" height="68" fill="white"/>
</clipPath>
</defs>
</svg>
