<svg width="68" height="68" viewBox="0 0 68 68" fill="none" xmlns="http://www.w3.org/2000/svg">
<g clip-path="url(#clip0_23632_22591)">
<mask id="mask0_23632_22591" style="mask-type:alpha" maskUnits="userSpaceOnUse" x="0" y="0" width="68" height="68">
<path fill-rule="evenodd" clip-rule="evenodd" d="M47.0333 0H20.9667C13.5811 0 8.89667 0.0377779 4.45778 4.45778C0.018889 8.89667 0 13.6 0 20.9667V47.0333C0 54.4189 0.0377779 59.1033 4.45778 63.5422C8.89667 67.9811 13.6 68 20.9667 68H47.0333C54.4189 68 59.1033 67.9811 63.5422 63.5422C67.9622 59.1033 68 54.4 68 47.0333V20.9667C68 13.5811 67.9622 8.89667 63.5422 4.45778C59.1033 0.018889 54.4 0 47.0333 0Z" fill="url(#paint0_linear_23632_22591)"/>
</mask>
<g mask="url(#mask0_23632_22591)">
<rect width="68" height="68" fill="url(#paint1_linear_23632_22591)"/>
<path fill-rule="evenodd" clip-rule="evenodd" d="M15.6212 64.3732C26.4256 64.3732 45.6357 64.3732 45.6357 64.3732C52.5868 64.3732 57.0823 64.6377 61.2379 60.4443C64.8079 56.8743 64.5057 50.8677 64.7323 46.1077C60.709 52.1521 53.3234 51.9443 47.619 51.9443C47.619 51.9443 20.929 51.9443 10.9556 51.9443C0.982316 51.9632 4.81676 64.3732 15.6212 64.3732Z" fill="#FEF5EB"/>
<path d="M12.4854 53.531H23.1387V61.521L17.812 58.8577L12.4854 61.521V53.531Z" fill="#F19C33"/>
<mask id="path-5-outside-1_23632_22591" maskUnits="userSpaceOnUse" x="8.10156" y="13.2266" width="51" height="24" fill="black">
<rect fill="white" x="8.10156" y="13.2266" width="51" height="24"/>
<path d="M16.8626 13.8406C17.3826 13.8406 17.8246 13.9142 18.1886 14.0616C18.5526 14.2089 18.9079 14.4169 19.2546 14.6856C19.3499 14.7636 19.4322 14.8026 19.5016 14.8026C19.6749 14.8026 19.7876 14.5426 19.8396 14.0226H20.1386C20.1039 14.5859 20.0866 15.5826 20.0866 17.0126H19.7876C19.6922 16.4492 19.6056 16.0462 19.5276 15.8036C19.4496 15.5522 19.3196 15.3139 19.1376 15.0886C18.8776 14.7506 18.5439 14.4992 18.1366 14.3346C17.7379 14.1612 17.3046 14.0746 16.8366 14.0746C16.2732 14.0746 15.7792 14.2609 15.3546 14.6336C14.9386 15.0062 14.6136 15.5392 14.3796 16.2326C14.1456 16.9172 14.0286 17.7232 14.0286 18.6506C14.0286 19.5952 14.1542 20.4056 14.4056 21.0816C14.6569 21.7576 15.0036 22.2732 15.4456 22.6286C15.8962 22.9752 16.4032 23.1486 16.9666 23.1486C17.3999 23.1486 17.8202 23.0662 18.2276 22.9016C18.6349 22.7369 18.9556 22.4899 19.1896 22.1606C19.3629 21.9179 19.4886 21.6579 19.5666 21.3806C19.6446 21.1032 19.7182 20.6786 19.7876 20.1066H20.0866C20.0866 21.5972 20.1039 22.6372 20.1386 23.2266H19.8396C19.8136 22.9492 19.7746 22.7542 19.7226 22.6416C19.6792 22.5202 19.6142 22.4596 19.5276 22.4596C19.4582 22.4596 19.3672 22.4942 19.2546 22.5636C18.8646 22.8409 18.4919 23.0532 18.1366 23.2006C17.7812 23.3392 17.3522 23.4086 16.8496 23.4086C16.0262 23.4086 15.3026 23.2222 14.6786 22.8496C14.0632 22.4769 13.5822 21.9396 13.2356 21.2376C12.8976 20.5269 12.7286 19.6819 12.7286 18.7026C12.7286 17.7492 12.9019 16.9042 13.2486 16.1676C13.6039 15.4309 14.0936 14.8589 14.7176 14.4516C15.3502 14.0442 16.0652 13.8406 16.8626 13.8406ZM26.1174 18.3646C27.0707 18.4946 27.751 18.7719 28.1584 19.1966C28.5657 19.6126 28.7694 20.1152 28.7694 20.7046C28.7694 21.1986 28.6437 21.6362 28.3924 22.0176C28.141 22.3989 27.7814 22.6979 27.3134 22.9146C26.8454 23.1226 26.2907 23.2266 25.6494 23.2266C25.4154 23.2266 25.216 23.2222 25.0514 23.2136C24.4967 23.1962 23.9507 23.1876 23.4134 23.1876C22.7027 23.1876 22.1654 23.2006 21.8014 23.2266V22.9666C22.1134 22.9492 22.3387 22.9146 22.4774 22.8626C22.6247 22.8106 22.7244 22.7109 22.7764 22.5636C22.8284 22.4162 22.8544 22.1779 22.8544 21.8486V15.4006C22.8544 15.0712 22.8284 14.8329 22.7764 14.6856C22.7244 14.5382 22.6247 14.4386 22.4774 14.3866C22.3387 14.3346 22.1134 14.2999 21.8014 14.2826V14.0226C22.1654 14.0486 22.694 14.0616 23.3874 14.0616L24.7914 14.0486C24.956 14.0399 25.1424 14.0356 25.3504 14.0356C26.2344 14.0356 26.9104 14.2219 27.3784 14.5946C27.855 14.9672 28.0934 15.4612 28.0934 16.0766C28.0934 16.5792 27.933 17.0299 27.6124 17.4286C27.3004 17.8272 26.802 18.1306 26.1174 18.3386V18.3646ZM25.0254 14.2826C24.7567 14.2826 24.553 14.3129 24.4144 14.3736C24.2844 14.4342 24.1934 14.5426 24.1414 14.6986C24.0894 14.8546 24.0634 15.0886 24.0634 15.4006V18.3386H24.9344C25.645 18.3386 26.139 18.1479 26.4164 17.7666C26.7024 17.3766 26.8454 16.8609 26.8454 16.2196C26.8454 15.5696 26.7024 15.0842 26.4164 14.7636C26.1304 14.4429 25.6667 14.2826 25.0254 14.2826ZM25.0384 22.9276C26.659 22.9276 27.4694 22.1692 27.4694 20.6526C27.4694 19.9679 27.283 19.4479 26.9104 19.0926C26.5464 18.7372 25.9614 18.5596 25.1554 18.5596H24.0634V21.8486C24.0634 22.1606 24.0894 22.3902 24.1414 22.5376C24.1934 22.6849 24.2844 22.7889 24.4144 22.8496C24.553 22.9016 24.761 22.9276 25.0384 22.9276ZM36.7337 21.5626C36.7337 22.0566 36.7641 22.6112 36.8247 23.2266C36.2354 23.2006 35.2431 23.1876 33.8477 23.1876C32.1837 23.1876 30.9271 23.2006 30.0777 23.2266V22.9666C30.3897 22.9492 30.6151 22.9146 30.7537 22.8626C30.9011 22.8106 31.0007 22.7109 31.0527 22.5636C31.1047 22.4162 31.1307 22.1779 31.1307 21.8486V15.4006C31.1307 15.0712 31.1047 14.8329 31.0527 14.6856C31.0007 14.5382 30.9011 14.4386 30.7537 14.3866C30.6151 14.3346 30.3897 14.2999 30.0777 14.2826V14.0226C30.9271 14.0486 32.1837 14.0616 33.8477 14.0616C35.1217 14.0616 36.0274 14.0486 36.5647 14.0226C36.5041 14.5946 36.4737 15.1059 36.4737 15.5566C36.4737 15.8946 36.4867 16.1632 36.5127 16.3626H36.2137C36.1531 15.7992 36.0751 15.3832 35.9797 15.1146C35.8844 14.8372 35.7241 14.6379 35.4987 14.5166C35.2734 14.3866 34.9311 14.3216 34.4717 14.3216H33.3927C33.0807 14.3216 32.8511 14.3476 32.7037 14.3996C32.5651 14.4429 32.4697 14.5382 32.4177 14.6856C32.3657 14.8329 32.3397 15.0712 32.3397 15.4006V18.4686H33.1977C33.5011 18.4686 33.7351 18.3992 33.8997 18.2606C34.0644 18.1132 34.1727 17.9442 34.2247 17.7536C34.2854 17.5542 34.3331 17.3072 34.3677 17.0126L34.4067 16.7526H34.7057C34.6797 17.1166 34.6667 17.5239 34.6667 17.9746V18.5986C34.6667 19.0406 34.6927 19.6559 34.7447 20.4446H34.4457C34.4371 20.3839 34.4111 20.1759 34.3677 19.8206C34.3244 19.4566 34.2031 19.1836 34.0037 19.0016C33.8131 18.8196 33.5444 18.7286 33.1977 18.7286H32.3397V21.8486C32.3397 22.1779 32.3657 22.4162 32.4177 22.5636C32.4697 22.7109 32.5651 22.8106 32.7037 22.8626C32.8511 22.9059 33.0807 22.9276 33.3927 22.9276H34.3417C34.8791 22.9276 35.2864 22.8582 35.5637 22.7196C35.8497 22.5722 36.0577 22.3426 36.1877 22.0306C36.3177 21.7099 36.4131 21.2419 36.4737 20.6266H36.7727C36.7467 20.8606 36.7337 21.1726 36.7337 21.5626ZM45.4152 14.0226C45.3546 14.6379 45.3242 15.1926 45.3242 15.6866C45.3242 16.1199 45.3372 16.4752 45.3632 16.7526H45.0642C44.9949 16.0852 44.9082 15.5912 44.8042 15.2706C44.7002 14.9412 44.5182 14.7029 44.2582 14.5556C43.9982 14.3996 43.5996 14.3216 43.0622 14.3216H42.3602V21.7186C42.3602 22.0826 42.3949 22.3469 42.4642 22.5116C42.5336 22.6762 42.6549 22.7889 42.8282 22.8496C43.0016 22.9102 43.2832 22.9492 43.6732 22.9666V23.2266C43.2226 23.2006 42.5856 23.1876 41.7622 23.1876C40.8956 23.1876 40.2542 23.2006 39.8382 23.2266V22.9666C40.2282 22.9492 40.5099 22.9102 40.6832 22.8496C40.8566 22.7889 40.9779 22.6762 41.0472 22.5116C41.1166 22.3469 41.1512 22.0826 41.1512 21.7186V14.3216H40.4492C39.9119 14.3216 39.5132 14.3996 39.2532 14.5556C38.9932 14.7029 38.8112 14.9412 38.7072 15.2706C38.6032 15.5912 38.5166 16.0852 38.4472 16.7526H38.1482C38.1742 16.4752 38.1872 16.1199 38.1872 15.6866C38.1872 15.1926 38.1569 14.6379 38.0962 14.0226C38.8156 14.0486 40.0376 14.0616 41.7622 14.0616C43.4782 14.0616 44.6959 14.0486 45.4152 14.0226ZM50.8821 13.8406C51.7054 13.8406 52.4247 14.0269 53.0401 14.3996C53.6641 14.7722 54.1451 15.3139 54.4831 16.0246C54.8297 16.7266 55.0031 17.5672 55.0031 18.5466C55.0031 19.4999 54.8254 20.3449 54.4701 21.0816C54.1234 21.8182 53.6337 22.3902 53.0011 22.7976C52.3771 23.2049 51.6664 23.4086 50.8691 23.4086C50.0457 23.4086 49.3221 23.2222 48.6981 22.8496C48.0827 22.4769 47.6017 21.9396 47.2551 21.2376C46.9171 20.5269 46.7481 19.6819 46.7481 18.7026C46.7481 17.7492 46.9214 16.9042 47.2681 16.1676C47.6234 15.4309 48.1131 14.8589 48.7371 14.4516C49.3697 14.0442 50.0847 13.8406 50.8821 13.8406ZM50.8301 14.0746C50.2754 14.0746 49.7857 14.2696 49.3611 14.6596C48.9451 15.0409 48.6201 15.5782 48.3861 16.2716C48.1607 16.9649 48.0481 17.7579 48.0481 18.6506C48.0481 19.5519 48.1737 20.3449 48.4251 21.0296C48.6851 21.7142 49.0317 22.2429 49.4651 22.6156C49.8984 22.9882 50.3837 23.1746 50.9211 23.1746C51.4757 23.1746 51.9611 22.9839 52.3771 22.6026C52.8017 22.2126 53.1267 21.6709 53.3521 20.9776C53.5861 20.2842 53.7031 19.4912 53.7031 18.5986C53.7031 17.6972 53.5731 16.9042 53.3131 16.2196C53.0617 15.5349 52.7194 15.0062 52.2861 14.6336C51.8527 14.2609 51.3674 14.0746 50.8301 14.0746ZM17.9381 27.2826C17.6261 27.2999 17.3964 27.3346 17.2491 27.3866C17.1104 27.4386 17.0151 27.5382 16.9631 27.6856C16.9111 27.8329 16.8851 28.0712 16.8851 28.4006V34.8486C16.8851 35.1779 16.9111 35.4162 16.9631 35.5636C17.0151 35.7109 17.1104 35.8106 17.2491 35.8626C17.3964 35.9146 17.6261 35.9492 17.9381 35.9666V36.2266C17.5741 36.2006 17.0194 36.1876 16.2741 36.1876C15.5721 36.1876 15.0217 36.2006 14.6231 36.2266V35.9666C14.9351 35.9492 15.1604 35.9146 15.2991 35.8626C15.4464 35.8106 15.5461 35.7109 15.5981 35.5636C15.6501 35.4162 15.6761 35.1779 15.6761 34.8486V28.4006C15.6761 28.0712 15.6501 27.8329 15.5981 27.6856C15.5461 27.5296 15.4464 27.4256 15.2991 27.3736C15.1517 27.3129 14.9264 27.2826 14.6231 27.2826H12.5041C12.2007 27.2826 11.9754 27.3129 11.8281 27.3736C11.6807 27.4256 11.5811 27.5296 11.5291 27.6856C11.4771 27.8329 11.4511 28.0712 11.4511 28.4006V34.8486C11.4511 35.1779 11.4771 35.4162 11.5291 35.5636C11.5811 35.7109 11.6764 35.8106 11.8151 35.8626C11.9624 35.9146 12.1921 35.9492 12.5041 35.9666V36.2266C12.1054 36.2006 11.5551 36.1876 10.8531 36.1876C10.1077 36.1876 9.55307 36.2006 9.18907 36.2266V35.9666C9.50107 35.9492 9.7264 35.9146 9.86507 35.8626C10.0124 35.8106 10.1121 35.7109 10.1641 35.5636C10.2161 35.4162 10.2421 35.1779 10.2421 34.8486V28.4006C10.2421 28.0712 10.2161 27.8329 10.1641 27.6856C10.1121 27.5382 10.0124 27.4386 9.86507 27.3866C9.7264 27.3346 9.50107 27.2999 9.18907 27.2826V27.0226C9.55307 27.0486 10.1077 27.0616 10.8531 27.0616C11.2864 27.0616 11.8497 27.0529 12.5431 27.0356L13.5831 27.0226L14.5971 27.0356C15.2904 27.0529 15.8494 27.0616 16.2741 27.0616C17.0194 27.0616 17.5741 27.0486 17.9381 27.0226V27.2826ZM28.3026 27.2826C27.9906 27.2999 27.7609 27.3346 27.6136 27.3866C27.4749 27.4386 27.3796 27.5382 27.3276 27.6856C27.2756 27.8329 27.2496 28.0712 27.2496 28.4006V34.8486C27.2496 35.1779 27.2756 35.4162 27.3276 35.5636C27.3796 35.7109 27.4749 35.8106 27.6136 35.8626C27.7609 35.9146 27.9906 35.9492 28.3026 35.9666V36.2266C27.9386 36.2006 27.3839 36.1876 26.6386 36.1876C25.9452 36.1876 25.3949 36.2006 24.9876 36.2266V35.9666C25.2996 35.9492 25.5249 35.9146 25.6636 35.8626C25.8109 35.8106 25.9106 35.7109 25.9626 35.5636C26.0146 35.4162 26.0406 35.1779 26.0406 34.8486V28.6996L21.5556 35.0566C21.5642 35.3079 21.5989 35.4986 21.6596 35.6286C21.7202 35.7499 21.8199 35.8322 21.9586 35.8756C22.0972 35.9189 22.3139 35.9492 22.6086 35.9666V36.2266C22.2099 36.2006 21.6596 36.1876 20.9576 36.1876C20.2122 36.1876 19.6576 36.2006 19.2936 36.2266V35.9666C19.6056 35.9492 19.8309 35.9146 19.9696 35.8626C20.1169 35.8106 20.2166 35.7109 20.2686 35.5636C20.3206 35.4162 20.3466 35.1779 20.3466 34.8486V28.4006C20.3466 28.0712 20.3206 27.8329 20.2686 27.6856C20.2166 27.5382 20.1169 27.4386 19.9696 27.3866C19.8309 27.3346 19.6056 27.2999 19.2936 27.2826V27.0226C19.6576 27.0486 20.2122 27.0616 20.9576 27.0616C21.6509 27.0616 22.2012 27.0486 22.6086 27.0226V27.2826C22.2966 27.2999 22.0669 27.3346 21.9196 27.3866C21.7809 27.4386 21.6856 27.5382 21.6336 27.6856C21.5816 27.8329 21.5556 28.0712 21.5556 28.4006V34.5496L26.0406 28.1926C26.0319 27.9412 25.9972 27.7549 25.9366 27.6336C25.8759 27.5036 25.7762 27.4169 25.6376 27.3736C25.4989 27.3302 25.2822 27.2999 24.9876 27.2826V27.0226C25.3949 27.0486 25.9452 27.0616 26.6386 27.0616C27.3839 27.0616 27.9386 27.0486 28.3026 27.0226V27.2826ZM33.8401 26.8406C34.3601 26.8406 34.8021 26.9142 35.1661 27.0616C35.5301 27.2089 35.8854 27.4169 36.2321 27.6856C36.3274 27.7636 36.4098 27.8026 36.4791 27.8026C36.6524 27.8026 36.7651 27.5426 36.8171 27.0226H37.1161C37.0814 27.5859 37.0641 28.5826 37.0641 30.0126H36.7651C36.6698 29.4492 36.5831 29.0462 36.5051 28.8036C36.4271 28.5522 36.2971 28.3139 36.1151 28.0886C35.8551 27.7506 35.5214 27.4992 35.1141 27.3346C34.7154 27.1612 34.2821 27.0746 33.8141 27.0746C33.2508 27.0746 32.7568 27.2609 32.3321 27.6336C31.9161 28.0062 31.5911 28.5392 31.3571 29.2326C31.1231 29.9172 31.0061 30.7232 31.0061 31.6506C31.0061 32.5952 31.1318 33.4056 31.3831 34.0816C31.6344 34.7576 31.9811 35.2732 32.4231 35.6286C32.8738 35.9752 33.3808 36.1486 33.9441 36.1486C34.3774 36.1486 34.7978 36.0662 35.2051 35.9016C35.6124 35.7369 35.9331 35.4899 36.1671 35.1606C36.3404 34.9179 36.4661 34.6579 36.5441 34.3806C36.6221 34.1032 36.6958 33.6786 36.7651 33.1066H37.0641C37.0641 34.5972 37.0814 35.6372 37.1161 36.2266H36.8171C36.7911 35.9492 36.7521 35.7542 36.7001 35.6416C36.6568 35.5202 36.5918 35.4596 36.5051 35.4596C36.4358 35.4596 36.3448 35.4942 36.2321 35.5636C35.8421 35.8409 35.4694 36.0532 35.1141 36.2006C34.7588 36.3392 34.3298 36.4086 33.8271 36.4086C33.0038 36.4086 32.2801 36.2222 31.6561 35.8496C31.0408 35.4769 30.5598 34.9396 30.2131 34.2376C29.8751 33.5269 29.7061 32.6819 29.7061 31.7026C29.7061 30.7492 29.8794 29.9042 30.2261 29.1676C30.5814 28.4309 31.0711 27.8589 31.6951 27.4516C32.3278 27.0442 33.0428 26.8406 33.8401 26.8406ZM49.0099 27.2826C48.6979 27.2999 48.4682 27.3346 48.3209 27.3866C48.1822 27.4386 48.0869 27.5382 48.0349 27.6856C47.9829 27.8329 47.9569 28.0712 47.9569 28.4006V34.8486C47.9569 35.1779 47.9829 35.4162 48.0349 35.5636C48.0869 35.7109 48.1822 35.8106 48.3209 35.8626C48.4682 35.9146 48.6979 35.9492 49.0099 35.9666V36.2266C48.6112 36.2006 48.0609 36.1876 47.3589 36.1876C46.6136 36.1876 46.0589 36.2006 45.6949 36.2266V35.9666C46.0069 35.9492 46.2322 35.9146 46.3709 35.8626C46.5182 35.8106 46.6179 35.7109 46.6699 35.5636C46.7219 35.4162 46.7479 35.1779 46.7479 34.8486V27.8806L43.6149 36.2916H43.4069L40.1309 27.8546V34.7186C40.1309 35.0566 40.1569 35.3079 40.2089 35.4726C40.2696 35.6372 40.3822 35.7586 40.5469 35.8366C40.7116 35.9059 40.9672 35.9492 41.3139 35.9666V36.2266C41.0019 36.2006 40.5599 36.1876 39.9879 36.1876C39.4679 36.1876 39.0649 36.2006 38.7789 36.2266V35.9666C39.0822 35.9492 39.3076 35.9059 39.4549 35.8366C39.6022 35.7586 39.7019 35.6372 39.7539 35.4726C39.8059 35.2992 39.8319 35.0479 39.8319 34.7186V28.4006C39.8319 28.0712 39.8059 27.8329 39.7539 27.6856C39.7019 27.5382 39.6022 27.4386 39.4549 27.3866C39.3162 27.3346 39.0909 27.2999 38.7789 27.2826V27.0226C39.0649 27.0486 39.4679 27.0616 39.9879 27.0616C40.4386 27.0616 40.8069 27.0486 41.0929 27.0226L43.9529 34.5496L46.7479 27.0616H47.3589C48.0609 27.0616 48.6112 27.0486 49.0099 27.0226V27.2826ZM54.5442 26.8406C55.3675 26.8406 56.0869 27.0269 56.7022 27.3996C57.3262 27.7722 57.8072 28.3139 58.1452 29.0246C58.4919 29.7266 58.6652 30.5672 58.6652 31.5466C58.6652 32.4999 58.4875 33.3449 58.1322 34.0816C57.7855 34.8182 57.2959 35.3902 56.6632 35.7976C56.0392 36.2049 55.3285 36.4086 54.5312 36.4086C53.7079 36.4086 52.9842 36.2222 52.3602 35.8496C51.7449 35.4769 51.2639 34.9396 50.9172 34.2376C50.5792 33.5269 50.4102 32.6819 50.4102 31.7026C50.4102 30.7492 50.5835 29.9042 50.9302 29.1676C51.2855 28.4309 51.7752 27.8589 52.3992 27.4516C53.0319 27.0442 53.7469 26.8406 54.5442 26.8406ZM54.4922 27.0746C53.9375 27.0746 53.4479 27.2696 53.0232 27.6596C52.6072 28.0409 52.2822 28.5782 52.0482 29.2716C51.8229 29.9649 51.7102 30.7579 51.7102 31.6506C51.7102 32.5519 51.8359 33.3449 52.0872 34.0296C52.3472 34.7142 52.6939 35.2429 53.1272 35.6156C53.5605 35.9882 54.0459 36.1746 54.5832 36.1746C55.1379 36.1746 55.6232 35.9839 56.0392 35.6026C56.4639 35.2126 56.7889 34.6709 57.0142 33.9776C57.2482 33.2842 57.3652 32.4912 57.3652 31.5986C57.3652 30.6972 57.2352 29.9042 56.9752 29.2196C56.7239 28.5349 56.3815 28.0062 55.9482 27.6336C55.5149 27.2609 55.0295 27.0746 54.4922 27.0746Z"/>
</mask>
<path d="M16.8626 13.8406C17.3826 13.8406 17.8246 13.9142 18.1886 14.0616C18.5526 14.2089 18.9079 14.4169 19.2546 14.6856C19.3499 14.7636 19.4322 14.8026 19.5016 14.8026C19.6749 14.8026 19.7876 14.5426 19.8396 14.0226H20.1386C20.1039 14.5859 20.0866 15.5826 20.0866 17.0126H19.7876C19.6922 16.4492 19.6056 16.0462 19.5276 15.8036C19.4496 15.5522 19.3196 15.3139 19.1376 15.0886C18.8776 14.7506 18.5439 14.4992 18.1366 14.3346C17.7379 14.1612 17.3046 14.0746 16.8366 14.0746C16.2732 14.0746 15.7792 14.2609 15.3546 14.6336C14.9386 15.0062 14.6136 15.5392 14.3796 16.2326C14.1456 16.9172 14.0286 17.7232 14.0286 18.6506C14.0286 19.5952 14.1542 20.4056 14.4056 21.0816C14.6569 21.7576 15.0036 22.2732 15.4456 22.6286C15.8962 22.9752 16.4032 23.1486 16.9666 23.1486C17.3999 23.1486 17.8202 23.0662 18.2276 22.9016C18.6349 22.7369 18.9556 22.4899 19.1896 22.1606C19.3629 21.9179 19.4886 21.6579 19.5666 21.3806C19.6446 21.1032 19.7182 20.6786 19.7876 20.1066H20.0866C20.0866 21.5972 20.1039 22.6372 20.1386 23.2266H19.8396C19.8136 22.9492 19.7746 22.7542 19.7226 22.6416C19.6792 22.5202 19.6142 22.4596 19.5276 22.4596C19.4582 22.4596 19.3672 22.4942 19.2546 22.5636C18.8646 22.8409 18.4919 23.0532 18.1366 23.2006C17.7812 23.3392 17.3522 23.4086 16.8496 23.4086C16.0262 23.4086 15.3026 23.2222 14.6786 22.8496C14.0632 22.4769 13.5822 21.9396 13.2356 21.2376C12.8976 20.5269 12.7286 19.6819 12.7286 18.7026C12.7286 17.7492 12.9019 16.9042 13.2486 16.1676C13.6039 15.4309 14.0936 14.8589 14.7176 14.4516C15.3502 14.0442 16.0652 13.8406 16.8626 13.8406ZM26.1174 18.3646C27.0707 18.4946 27.751 18.7719 28.1584 19.1966C28.5657 19.6126 28.7694 20.1152 28.7694 20.7046C28.7694 21.1986 28.6437 21.6362 28.3924 22.0176C28.141 22.3989 27.7814 22.6979 27.3134 22.9146C26.8454 23.1226 26.2907 23.2266 25.6494 23.2266C25.4154 23.2266 25.216 23.2222 25.0514 23.2136C24.4967 23.1962 23.9507 23.1876 23.4134 23.1876C22.7027 23.1876 22.1654 23.2006 21.8014 23.2266V22.9666C22.1134 22.9492 22.3387 22.9146 22.4774 22.8626C22.6247 22.8106 22.7244 22.7109 22.7764 22.5636C22.8284 22.4162 22.8544 22.1779 22.8544 21.8486V15.4006C22.8544 15.0712 22.8284 14.8329 22.7764 14.6856C22.7244 14.5382 22.6247 14.4386 22.4774 14.3866C22.3387 14.3346 22.1134 14.2999 21.8014 14.2826V14.0226C22.1654 14.0486 22.694 14.0616 23.3874 14.0616L24.7914 14.0486C24.956 14.0399 25.1424 14.0356 25.3504 14.0356C26.2344 14.0356 26.9104 14.2219 27.3784 14.5946C27.855 14.9672 28.0934 15.4612 28.0934 16.0766C28.0934 16.5792 27.933 17.0299 27.6124 17.4286C27.3004 17.8272 26.802 18.1306 26.1174 18.3386V18.3646ZM25.0254 14.2826C24.7567 14.2826 24.553 14.3129 24.4144 14.3736C24.2844 14.4342 24.1934 14.5426 24.1414 14.6986C24.0894 14.8546 24.0634 15.0886 24.0634 15.4006V18.3386H24.9344C25.645 18.3386 26.139 18.1479 26.4164 17.7666C26.7024 17.3766 26.8454 16.8609 26.8454 16.2196C26.8454 15.5696 26.7024 15.0842 26.4164 14.7636C26.1304 14.4429 25.6667 14.2826 25.0254 14.2826ZM25.0384 22.9276C26.659 22.9276 27.4694 22.1692 27.4694 20.6526C27.4694 19.9679 27.283 19.4479 26.9104 19.0926C26.5464 18.7372 25.9614 18.5596 25.1554 18.5596H24.0634V21.8486C24.0634 22.1606 24.0894 22.3902 24.1414 22.5376C24.1934 22.6849 24.2844 22.7889 24.4144 22.8496C24.553 22.9016 24.761 22.9276 25.0384 22.9276ZM36.7337 21.5626C36.7337 22.0566 36.7641 22.6112 36.8247 23.2266C36.2354 23.2006 35.2431 23.1876 33.8477 23.1876C32.1837 23.1876 30.9271 23.2006 30.0777 23.2266V22.9666C30.3897 22.9492 30.6151 22.9146 30.7537 22.8626C30.9011 22.8106 31.0007 22.7109 31.0527 22.5636C31.1047 22.4162 31.1307 22.1779 31.1307 21.8486V15.4006C31.1307 15.0712 31.1047 14.8329 31.0527 14.6856C31.0007 14.5382 30.9011 14.4386 30.7537 14.3866C30.6151 14.3346 30.3897 14.2999 30.0777 14.2826V14.0226C30.9271 14.0486 32.1837 14.0616 33.8477 14.0616C35.1217 14.0616 36.0274 14.0486 36.5647 14.0226C36.5041 14.5946 36.4737 15.1059 36.4737 15.5566C36.4737 15.8946 36.4867 16.1632 36.5127 16.3626H36.2137C36.1531 15.7992 36.0751 15.3832 35.9797 15.1146C35.8844 14.8372 35.7241 14.6379 35.4987 14.5166C35.2734 14.3866 34.9311 14.3216 34.4717 14.3216H33.3927C33.0807 14.3216 32.8511 14.3476 32.7037 14.3996C32.5651 14.4429 32.4697 14.5382 32.4177 14.6856C32.3657 14.8329 32.3397 15.0712 32.3397 15.4006V18.4686H33.1977C33.5011 18.4686 33.7351 18.3992 33.8997 18.2606C34.0644 18.1132 34.1727 17.9442 34.2247 17.7536C34.2854 17.5542 34.3331 17.3072 34.3677 17.0126L34.4067 16.7526H34.7057C34.6797 17.1166 34.6667 17.5239 34.6667 17.9746V18.5986C34.6667 19.0406 34.6927 19.6559 34.7447 20.4446H34.4457C34.4371 20.3839 34.4111 20.1759 34.3677 19.8206C34.3244 19.4566 34.2031 19.1836 34.0037 19.0016C33.8131 18.8196 33.5444 18.7286 33.1977 18.7286H32.3397V21.8486C32.3397 22.1779 32.3657 22.4162 32.4177 22.5636C32.4697 22.7109 32.5651 22.8106 32.7037 22.8626C32.8511 22.9059 33.0807 22.9276 33.3927 22.9276H34.3417C34.8791 22.9276 35.2864 22.8582 35.5637 22.7196C35.8497 22.5722 36.0577 22.3426 36.1877 22.0306C36.3177 21.7099 36.4131 21.2419 36.4737 20.6266H36.7727C36.7467 20.8606 36.7337 21.1726 36.7337 21.5626ZM45.4152 14.0226C45.3546 14.6379 45.3242 15.1926 45.3242 15.6866C45.3242 16.1199 45.3372 16.4752 45.3632 16.7526H45.0642C44.9949 16.0852 44.9082 15.5912 44.8042 15.2706C44.7002 14.9412 44.5182 14.7029 44.2582 14.5556C43.9982 14.3996 43.5996 14.3216 43.0622 14.3216H42.3602V21.7186C42.3602 22.0826 42.3949 22.3469 42.4642 22.5116C42.5336 22.6762 42.6549 22.7889 42.8282 22.8496C43.0016 22.9102 43.2832 22.9492 43.6732 22.9666V23.2266C43.2226 23.2006 42.5856 23.1876 41.7622 23.1876C40.8956 23.1876 40.2542 23.2006 39.8382 23.2266V22.9666C40.2282 22.9492 40.5099 22.9102 40.6832 22.8496C40.8566 22.7889 40.9779 22.6762 41.0472 22.5116C41.1166 22.3469 41.1512 22.0826 41.1512 21.7186V14.3216H40.4492C39.9119 14.3216 39.5132 14.3996 39.2532 14.5556C38.9932 14.7029 38.8112 14.9412 38.7072 15.2706C38.6032 15.5912 38.5166 16.0852 38.4472 16.7526H38.1482C38.1742 16.4752 38.1872 16.1199 38.1872 15.6866C38.1872 15.1926 38.1569 14.6379 38.0962 14.0226C38.8156 14.0486 40.0376 14.0616 41.7622 14.0616C43.4782 14.0616 44.6959 14.0486 45.4152 14.0226ZM50.8821 13.8406C51.7054 13.8406 52.4247 14.0269 53.0401 14.3996C53.6641 14.7722 54.1451 15.3139 54.4831 16.0246C54.8297 16.7266 55.0031 17.5672 55.0031 18.5466C55.0031 19.4999 54.8254 20.3449 54.4701 21.0816C54.1234 21.8182 53.6337 22.3902 53.0011 22.7976C52.3771 23.2049 51.6664 23.4086 50.8691 23.4086C50.0457 23.4086 49.3221 23.2222 48.6981 22.8496C48.0827 22.4769 47.6017 21.9396 47.2551 21.2376C46.9171 20.5269 46.7481 19.6819 46.7481 18.7026C46.7481 17.7492 46.9214 16.9042 47.2681 16.1676C47.6234 15.4309 48.1131 14.8589 48.7371 14.4516C49.3697 14.0442 50.0847 13.8406 50.8821 13.8406ZM50.8301 14.0746C50.2754 14.0746 49.7857 14.2696 49.3611 14.6596C48.9451 15.0409 48.6201 15.5782 48.3861 16.2716C48.1607 16.9649 48.0481 17.7579 48.0481 18.6506C48.0481 19.5519 48.1737 20.3449 48.4251 21.0296C48.6851 21.7142 49.0317 22.2429 49.4651 22.6156C49.8984 22.9882 50.3837 23.1746 50.9211 23.1746C51.4757 23.1746 51.9611 22.9839 52.3771 22.6026C52.8017 22.2126 53.1267 21.6709 53.3521 20.9776C53.5861 20.2842 53.7031 19.4912 53.7031 18.5986C53.7031 17.6972 53.5731 16.9042 53.3131 16.2196C53.0617 15.5349 52.7194 15.0062 52.2861 14.6336C51.8527 14.2609 51.3674 14.0746 50.8301 14.0746ZM17.9381 27.2826C17.6261 27.2999 17.3964 27.3346 17.2491 27.3866C17.1104 27.4386 17.0151 27.5382 16.9631 27.6856C16.9111 27.8329 16.8851 28.0712 16.8851 28.4006V34.8486C16.8851 35.1779 16.9111 35.4162 16.9631 35.5636C17.0151 35.7109 17.1104 35.8106 17.2491 35.8626C17.3964 35.9146 17.6261 35.9492 17.9381 35.9666V36.2266C17.5741 36.2006 17.0194 36.1876 16.2741 36.1876C15.5721 36.1876 15.0217 36.2006 14.6231 36.2266V35.9666C14.9351 35.9492 15.1604 35.9146 15.2991 35.8626C15.4464 35.8106 15.5461 35.7109 15.5981 35.5636C15.6501 35.4162 15.6761 35.1779 15.6761 34.8486V28.4006C15.6761 28.0712 15.6501 27.8329 15.5981 27.6856C15.5461 27.5296 15.4464 27.4256 15.2991 27.3736C15.1517 27.3129 14.9264 27.2826 14.6231 27.2826H12.5041C12.2007 27.2826 11.9754 27.3129 11.8281 27.3736C11.6807 27.4256 11.5811 27.5296 11.5291 27.6856C11.4771 27.8329 11.4511 28.0712 11.4511 28.4006V34.8486C11.4511 35.1779 11.4771 35.4162 11.5291 35.5636C11.5811 35.7109 11.6764 35.8106 11.8151 35.8626C11.9624 35.9146 12.1921 35.9492 12.5041 35.9666V36.2266C12.1054 36.2006 11.5551 36.1876 10.8531 36.1876C10.1077 36.1876 9.55307 36.2006 9.18907 36.2266V35.9666C9.50107 35.9492 9.7264 35.9146 9.86507 35.8626C10.0124 35.8106 10.1121 35.7109 10.1641 35.5636C10.2161 35.4162 10.2421 35.1779 10.2421 34.8486V28.4006C10.2421 28.0712 10.2161 27.8329 10.1641 27.6856C10.1121 27.5382 10.0124 27.4386 9.86507 27.3866C9.7264 27.3346 9.50107 27.2999 9.18907 27.2826V27.0226C9.55307 27.0486 10.1077 27.0616 10.8531 27.0616C11.2864 27.0616 11.8497 27.0529 12.5431 27.0356L13.5831 27.0226L14.5971 27.0356C15.2904 27.0529 15.8494 27.0616 16.2741 27.0616C17.0194 27.0616 17.5741 27.0486 17.9381 27.0226V27.2826ZM28.3026 27.2826C27.9906 27.2999 27.7609 27.3346 27.6136 27.3866C27.4749 27.4386 27.3796 27.5382 27.3276 27.6856C27.2756 27.8329 27.2496 28.0712 27.2496 28.4006V34.8486C27.2496 35.1779 27.2756 35.4162 27.3276 35.5636C27.3796 35.7109 27.4749 35.8106 27.6136 35.8626C27.7609 35.9146 27.9906 35.9492 28.3026 35.9666V36.2266C27.9386 36.2006 27.3839 36.1876 26.6386 36.1876C25.9452 36.1876 25.3949 36.2006 24.9876 36.2266V35.9666C25.2996 35.9492 25.5249 35.9146 25.6636 35.8626C25.8109 35.8106 25.9106 35.7109 25.9626 35.5636C26.0146 35.4162 26.0406 35.1779 26.0406 34.8486V28.6996L21.5556 35.0566C21.5642 35.3079 21.5989 35.4986 21.6596 35.6286C21.7202 35.7499 21.8199 35.8322 21.9586 35.8756C22.0972 35.9189 22.3139 35.9492 22.6086 35.9666V36.2266C22.2099 36.2006 21.6596 36.1876 20.9576 36.1876C20.2122 36.1876 19.6576 36.2006 19.2936 36.2266V35.9666C19.6056 35.9492 19.8309 35.9146 19.9696 35.8626C20.1169 35.8106 20.2166 35.7109 20.2686 35.5636C20.3206 35.4162 20.3466 35.1779 20.3466 34.8486V28.4006C20.3466 28.0712 20.3206 27.8329 20.2686 27.6856C20.2166 27.5382 20.1169 27.4386 19.9696 27.3866C19.8309 27.3346 19.6056 27.2999 19.2936 27.2826V27.0226C19.6576 27.0486 20.2122 27.0616 20.9576 27.0616C21.6509 27.0616 22.2012 27.0486 22.6086 27.0226V27.2826C22.2966 27.2999 22.0669 27.3346 21.9196 27.3866C21.7809 27.4386 21.6856 27.5382 21.6336 27.6856C21.5816 27.8329 21.5556 28.0712 21.5556 28.4006V34.5496L26.0406 28.1926C26.0319 27.9412 25.9972 27.7549 25.9366 27.6336C25.8759 27.5036 25.7762 27.4169 25.6376 27.3736C25.4989 27.3302 25.2822 27.2999 24.9876 27.2826V27.0226C25.3949 27.0486 25.9452 27.0616 26.6386 27.0616C27.3839 27.0616 27.9386 27.0486 28.3026 27.0226V27.2826ZM33.8401 26.8406C34.3601 26.8406 34.8021 26.9142 35.1661 27.0616C35.5301 27.2089 35.8854 27.4169 36.2321 27.6856C36.3274 27.7636 36.4098 27.8026 36.4791 27.8026C36.6524 27.8026 36.7651 27.5426 36.8171 27.0226H37.1161C37.0814 27.5859 37.0641 28.5826 37.0641 30.0126H36.7651C36.6698 29.4492 36.5831 29.0462 36.5051 28.8036C36.4271 28.5522 36.2971 28.3139 36.1151 28.0886C35.8551 27.7506 35.5214 27.4992 35.1141 27.3346C34.7154 27.1612 34.2821 27.0746 33.8141 27.0746C33.2508 27.0746 32.7568 27.2609 32.3321 27.6336C31.9161 28.0062 31.5911 28.5392 31.3571 29.2326C31.1231 29.9172 31.0061 30.7232 31.0061 31.6506C31.0061 32.5952 31.1318 33.4056 31.3831 34.0816C31.6344 34.7576 31.9811 35.2732 32.4231 35.6286C32.8738 35.9752 33.3808 36.1486 33.9441 36.1486C34.3774 36.1486 34.7978 36.0662 35.2051 35.9016C35.6124 35.7369 35.9331 35.4899 36.1671 35.1606C36.3404 34.9179 36.4661 34.6579 36.5441 34.3806C36.6221 34.1032 36.6958 33.6786 36.7651 33.1066H37.0641C37.0641 34.5972 37.0814 35.6372 37.1161 36.2266H36.8171C36.7911 35.9492 36.7521 35.7542 36.7001 35.6416C36.6568 35.5202 36.5918 35.4596 36.5051 35.4596C36.4358 35.4596 36.3448 35.4942 36.2321 35.5636C35.8421 35.8409 35.4694 36.0532 35.1141 36.2006C34.7588 36.3392 34.3298 36.4086 33.8271 36.4086C33.0038 36.4086 32.2801 36.2222 31.6561 35.8496C31.0408 35.4769 30.5598 34.9396 30.2131 34.2376C29.8751 33.5269 29.7061 32.6819 29.7061 31.7026C29.7061 30.7492 29.8794 29.9042 30.2261 29.1676C30.5814 28.4309 31.0711 27.8589 31.6951 27.4516C32.3278 27.0442 33.0428 26.8406 33.8401 26.8406ZM49.0099 27.2826C48.6979 27.2999 48.4682 27.3346 48.3209 27.3866C48.1822 27.4386 48.0869 27.5382 48.0349 27.6856C47.9829 27.8329 47.9569 28.0712 47.9569 28.4006V34.8486C47.9569 35.1779 47.9829 35.4162 48.0349 35.5636C48.0869 35.7109 48.1822 35.8106 48.3209 35.8626C48.4682 35.9146 48.6979 35.9492 49.0099 35.9666V36.2266C48.6112 36.2006 48.0609 36.1876 47.3589 36.1876C46.6136 36.1876 46.0589 36.2006 45.6949 36.2266V35.9666C46.0069 35.9492 46.2322 35.9146 46.3709 35.8626C46.5182 35.8106 46.6179 35.7109 46.6699 35.5636C46.7219 35.4162 46.7479 35.1779 46.7479 34.8486V27.8806L43.6149 36.2916H43.4069L40.1309 27.8546V34.7186C40.1309 35.0566 40.1569 35.3079 40.2089 35.4726C40.2696 35.6372 40.3822 35.7586 40.5469 35.8366C40.7116 35.9059 40.9672 35.9492 41.3139 35.9666V36.2266C41.0019 36.2006 40.5599 36.1876 39.9879 36.1876C39.4679 36.1876 39.0649 36.2006 38.7789 36.2266V35.9666C39.0822 35.9492 39.3076 35.9059 39.4549 35.8366C39.6022 35.7586 39.7019 35.6372 39.7539 35.4726C39.8059 35.2992 39.8319 35.0479 39.8319 34.7186V28.4006C39.8319 28.0712 39.8059 27.8329 39.7539 27.6856C39.7019 27.5382 39.6022 27.4386 39.4549 27.3866C39.3162 27.3346 39.0909 27.2999 38.7789 27.2826V27.0226C39.0649 27.0486 39.4679 27.0616 39.9879 27.0616C40.4386 27.0616 40.8069 27.0486 41.0929 27.0226L43.9529 34.5496L46.7479 27.0616H47.3589C48.0609 27.0616 48.6112 27.0486 49.0099 27.0226V27.2826ZM54.5442 26.8406C55.3675 26.8406 56.0869 27.0269 56.7022 27.3996C57.3262 27.7722 57.8072 28.3139 58.1452 29.0246C58.4919 29.7266 58.6652 30.5672 58.6652 31.5466C58.6652 32.4999 58.4875 33.3449 58.1322 34.0816C57.7855 34.8182 57.2959 35.3902 56.6632 35.7976C56.0392 36.2049 55.3285 36.4086 54.5312 36.4086C53.7079 36.4086 52.9842 36.2222 52.3602 35.8496C51.7449 35.4769 51.2639 34.9396 50.9172 34.2376C50.5792 33.5269 50.4102 32.6819 50.4102 31.7026C50.4102 30.7492 50.5835 29.9042 50.9302 29.1676C51.2855 28.4309 51.7752 27.8589 52.3992 27.4516C53.0319 27.0442 53.7469 26.8406 54.5442 26.8406ZM54.4922 27.0746C53.9375 27.0746 53.4479 27.2696 53.0232 27.6596C52.6072 28.0409 52.2822 28.5782 52.0482 29.2716C51.8229 29.9649 51.7102 30.7579 51.7102 31.6506C51.7102 32.5519 51.8359 33.3449 52.0872 34.0296C52.3472 34.7142 52.6939 35.2429 53.1272 35.6156C53.5605 35.9882 54.0459 36.1746 54.5832 36.1746C55.1379 36.1746 55.6232 35.9839 56.0392 35.6026C56.4639 35.2126 56.7889 34.6709 57.0142 33.9776C57.2482 33.2842 57.3652 32.4912 57.3652 31.5986C57.3652 30.6972 57.2352 29.9042 56.9752 29.2196C56.7239 28.5349 56.3815 28.0062 55.9482 27.6336C55.5149 27.2609 55.0295 27.0746 54.4922 27.0746Z" fill="#FEF5EB"/>
<path d="M18.1886 14.0616L18.1125 14.2495V14.2495L18.1886 14.0616ZM19.2546 14.6856L19.383 14.5286L19.3787 14.5253L19.2546 14.6856ZM19.8396 14.0226V13.8198H19.6561L19.6378 14.0024L19.8396 14.0226ZM20.1386 14.0226L20.3409 14.035L20.3541 13.8198H20.1386V14.0226ZM20.0866 17.0126V17.2153H20.2893V17.0126H20.0866ZM19.7876 17.0126L19.5877 17.0464L19.6162 17.2153H19.7876V17.0126ZM19.5276 15.8036L19.3339 15.8637L19.3345 15.8656L19.5276 15.8036ZM19.1376 15.0886L18.9768 15.2122L18.9798 15.2159L19.1376 15.0886ZM18.1366 14.3346L18.0557 14.5205L18.0606 14.5225L18.1366 14.3346ZM15.3546 14.6336L15.2208 14.4812L15.2193 14.4826L15.3546 14.6336ZM14.3796 16.2326L14.5714 16.2981L14.5716 16.2974L14.3796 16.2326ZM14.4056 21.0816L14.2155 21.1522V21.1522L14.4056 21.0816ZM15.4456 22.6286L15.3185 22.7866L15.3219 22.7893L15.4456 22.6286ZM18.2276 22.9016L18.3035 23.0895V23.0895L18.2276 22.9016ZM19.1896 22.1606L19.0246 22.0427L19.0243 22.0431L19.1896 22.1606ZM19.5666 21.3806L19.7617 21.4355H19.7617L19.5666 21.3806ZM19.7876 20.1066V19.9038H19.6079L19.5863 20.0822L19.7876 20.1066ZM20.0866 20.1066H20.2893V19.9038H20.0866V20.1066ZM20.1386 23.2266V23.4293H20.3536L20.3409 23.2147L20.1386 23.2266ZM19.8396 23.2266L19.6377 23.2455L19.6549 23.4293H19.8396V23.2266ZM19.7226 22.6416L19.5316 22.7098L19.5347 22.7183L19.5385 22.7265L19.7226 22.6416ZM19.2546 22.5636L19.1481 22.3905L19.1371 22.3983L19.2546 22.5636ZM18.1366 23.2006L18.2103 23.3895L18.2142 23.3878L18.1366 23.2006ZM14.6786 22.8496L14.5735 23.023L14.5746 23.0236L14.6786 22.8496ZM13.2356 21.2376L13.0524 21.3246L13.0538 21.3273L13.2356 21.2376ZM13.2486 16.1676L13.0659 16.0795L13.0651 16.0812L13.2486 16.1676ZM14.7176 14.4516L14.6078 14.2811L14.6067 14.2818L14.7176 14.4516ZM16.8626 14.0433C17.3645 14.0433 17.7791 14.1145 18.1125 14.2495L18.2646 13.8736C17.87 13.7139 17.4006 13.6378 16.8626 13.6378V14.0433ZM18.1125 14.2495C18.4574 14.3891 18.7967 14.5872 19.1304 14.8458L19.3787 14.5253C19.0191 14.2466 18.6477 14.0287 18.2646 13.8736L18.1125 14.2495ZM19.1262 14.8425C19.2326 14.9295 19.3609 15.0053 19.5016 15.0053V14.5998C19.5048 14.5998 19.4968 14.6006 19.4746 14.5901C19.4525 14.5796 19.422 14.5606 19.3829 14.5287L19.1262 14.8425ZM19.5016 15.0053C19.7135 15.0053 19.8361 14.8404 19.9021 14.6882C19.971 14.5291 20.0146 14.3091 20.0413 14.0427L19.6378 14.0024C19.6125 14.256 19.5738 14.426 19.53 14.527C19.4833 14.6347 19.4629 14.5998 19.5016 14.5998V15.0053ZM19.8396 14.2253H20.1386V13.8198H19.8396V14.2253ZM19.9362 14.0101C19.9011 14.5804 19.8838 15.5828 19.8838 17.0126H20.2893C20.2893 15.5823 20.3067 14.5914 20.3409 14.035L19.9362 14.0101ZM20.0866 16.8098H19.7876V17.2153H20.0866V16.8098ZM19.9874 16.9787C19.892 16.4146 19.8034 15.9992 19.7206 15.7415L19.3345 15.8656C19.4077 16.0933 19.4925 16.4839 19.5877 17.0464L19.9874 16.9787ZM19.7212 15.7435C19.6348 15.4653 19.4918 15.2045 19.2953 14.9612L18.9798 15.2159C19.1473 15.4233 19.2643 15.6392 19.3339 15.8637L19.7212 15.7435ZM19.2982 14.965C19.0156 14.5974 18.6523 14.3244 18.2125 14.1466L18.0606 14.5225C18.4355 14.6741 18.7396 14.9037 18.9769 15.2122L19.2982 14.965ZM18.2174 14.1486C17.7913 13.9634 17.3302 13.8718 16.8366 13.8718V14.2773C17.2789 14.2773 17.6845 14.3591 18.0557 14.5205L18.2174 14.1486ZM16.8366 13.8718C16.2238 13.8718 15.6824 14.0762 15.2208 14.4812L15.4883 14.7859C15.8761 14.4456 16.3226 14.2773 16.8366 14.2773V13.8718ZM15.2193 14.4826C14.7704 14.8847 14.4293 15.4512 14.1875 16.1677L14.5716 16.2974C14.7978 15.6272 15.1067 15.1277 15.4898 14.7846L15.2193 14.4826ZM14.1877 16.167C13.9448 16.8778 13.8258 17.7069 13.8258 18.6506H14.2313C14.2313 17.7396 14.3463 16.9567 14.5714 16.2981L14.1877 16.167ZM13.8258 18.6506C13.8258 19.6123 13.9536 20.4478 14.2155 21.1522L14.5956 21.0109C14.3548 20.3633 14.2313 19.5782 14.2313 18.6506H13.8258ZM14.2155 21.1522C14.4762 21.8533 14.8413 22.4029 15.3185 22.7866L15.5726 22.4706C15.1658 22.1436 14.8376 21.6618 14.5956 21.0109L14.2155 21.1522ZM15.3219 22.7893C15.8077 23.1629 16.3581 23.3513 16.9666 23.3513V22.9458C16.4484 22.9458 15.9847 22.7875 15.5692 22.4679L15.3219 22.7893ZM16.9666 23.3513C17.4263 23.3513 17.8724 23.2638 18.3035 23.0895L18.1516 22.7136C17.768 22.8686 17.3735 22.9458 16.9666 22.9458V23.3513ZM18.3035 23.0895C18.7435 22.9117 19.0964 22.6416 19.3548 22.278L19.0243 22.0431C18.8147 22.3382 18.5263 22.5621 18.1516 22.7136L18.3035 23.0895ZM19.3545 22.2784C19.541 22.0173 19.6771 21.7361 19.7617 21.4355L19.3714 21.3257C19.3 21.5796 19.1848 21.8185 19.0246 22.0427L19.3545 22.2784ZM19.7617 21.4355C19.8441 21.1426 19.9192 20.7052 19.9888 20.131L19.5863 20.0822C19.5172 20.6519 19.445 21.0639 19.3714 21.3257L19.7617 21.4355ZM19.7876 20.3093H20.0866V19.9038H19.7876V20.3093ZM19.8838 20.1066C19.8838 21.597 19.9011 22.6425 19.9362 23.2385L20.3409 23.2147C20.3067 22.632 20.2893 21.5974 20.2893 20.1066H19.8838ZM20.1386 23.0238H19.8396V23.4293H20.1386V23.0238ZM20.0414 23.2076C20.0153 22.9288 19.9743 22.7033 19.9066 22.5566L19.5385 22.7265C19.5748 22.8052 19.6118 22.9697 19.6377 23.2455L20.0414 23.2076ZM19.9135 22.5734C19.8855 22.4949 19.844 22.417 19.7796 22.3569C19.7107 22.2925 19.6237 22.2568 19.5276 22.2568V22.6623C19.525 22.6623 19.5196 22.6617 19.5132 22.6592C19.5069 22.6566 19.5034 22.6537 19.503 22.6533C19.5028 22.6532 19.5062 22.6563 19.5118 22.6656C19.5174 22.675 19.5243 22.6892 19.5316 22.7098L19.9135 22.5734ZM19.5276 22.2568C19.3998 22.2568 19.2686 22.3169 19.1483 22.3909L19.3608 22.7362C19.4659 22.6716 19.5166 22.6623 19.5276 22.6623V22.2568ZM19.1371 22.3983C18.7566 22.6689 18.3972 22.873 18.0589 23.0133L18.2142 23.3878C18.5865 23.2335 18.9725 23.0129 19.372 22.7288L19.1371 22.3983ZM18.0628 23.0117C17.7372 23.1388 17.3346 23.2058 16.8496 23.2058V23.6113C17.3699 23.6113 17.8253 23.5397 18.2103 23.3894L18.0628 23.0117ZM16.8496 23.2058C16.0579 23.2058 15.3711 23.027 14.7825 22.6755L14.5746 23.0236C15.234 23.4174 15.9946 23.6113 16.8496 23.6113V23.2058ZM14.7836 22.6761C14.2042 22.3252 13.7485 21.8184 13.4173 21.1478L13.0538 21.3273C13.416 22.0608 13.9223 22.6285 14.5735 23.023L14.7836 22.6761ZM13.4186 21.1505C13.0963 20.4728 12.9313 19.659 12.9313 18.7026H12.5258C12.5258 19.7048 12.6988 20.581 13.0525 21.3246L13.4186 21.1505ZM12.9313 18.7026C12.9313 17.774 13.1 16.9593 13.432 16.2539L13.0651 16.0812C12.7037 16.8491 12.5258 17.7245 12.5258 18.7026H12.9313ZM13.4312 16.2556C13.7721 15.5489 14.2383 15.0065 14.8284 14.6213L14.6067 14.2818C13.9488 14.7113 13.4357 15.3129 13.0659 16.0795L13.4312 16.2556ZM14.8273 14.622C15.4253 14.237 16.1017 14.0433 16.8626 14.0433V13.6378C16.0287 13.6378 15.2752 13.8514 14.6078 14.2811L14.8273 14.622ZM26.1174 18.3646H25.9146V18.5415L26.09 18.5654L26.1174 18.3646ZM28.1584 19.1966L28.0121 19.3369L28.0135 19.3384L28.1584 19.1966ZM28.3924 22.0176L28.5616 22.1291V22.1291L28.3924 22.0176ZM27.3134 22.9146L27.3957 23.0998L27.3985 23.0985L27.3134 22.9146ZM25.0514 23.2136L25.062 23.0111L25.0577 23.0109L25.0514 23.2136ZM21.8014 23.2266H21.5986V23.4443L21.8158 23.4288L21.8014 23.2266ZM21.8014 22.9666L21.7901 22.7641L21.5986 22.7748V22.9666H21.8014ZM22.4774 22.8626L22.4099 22.6713L22.4062 22.6727L22.4774 22.8626ZM22.7764 14.6856L22.5852 14.753V14.753L22.7764 14.6856ZM22.4774 14.3866L22.4062 14.5764L22.4099 14.5777L22.4774 14.3866ZM21.8014 14.2826H21.5986V14.4743L21.7901 14.485L21.8014 14.2826ZM21.8014 14.0226L21.8158 13.8203L21.5986 13.8048V14.0226H21.8014ZM23.3874 14.0616V14.2643L23.3892 14.2643L23.3874 14.0616ZM24.7914 14.0486L24.7933 14.2515L24.802 14.251L24.7914 14.0486ZM27.3784 14.5946L27.2521 14.7532L27.2535 14.7543L27.3784 14.5946ZM27.6124 17.4286L27.4544 17.3015L27.4527 17.3036L27.6124 17.4286ZM26.1174 18.3386L26.0584 18.1446L25.9146 18.1883V18.3386H26.1174ZM24.4144 14.3736L24.3331 14.1878L24.3286 14.1898L24.4144 14.3736ZM24.1414 14.6986L24.3337 14.7627V14.7627L24.1414 14.6986ZM24.0634 18.3386H23.8606V18.5413H24.0634V18.3386ZM26.4164 17.7666L26.2529 17.6467L26.2524 17.6473L26.4164 17.7666ZM26.9104 19.0926L26.7687 19.2376L26.7705 19.2393L26.9104 19.0926ZM24.0634 18.5596V18.3568H23.8606V18.5596H24.0634ZM24.1414 22.5376L24.3326 22.4701V22.4701L24.1414 22.5376ZM24.4144 22.8496L24.3286 23.0333L24.3358 23.0366L24.3432 23.0394L24.4144 22.8496ZM26.09 18.5654C27.0246 18.6929 27.651 18.9605 28.0121 19.3369L28.3047 19.0562C27.8511 18.5833 27.1168 18.2962 26.1448 18.1637L26.09 18.5654ZM28.0135 19.3384C28.3832 19.716 28.5666 20.1675 28.5666 20.7046H28.9721C28.9721 20.0629 28.7482 19.5091 28.3032 19.0547L28.0135 19.3384ZM28.5666 20.7046C28.5666 21.1623 28.4508 21.5605 28.2231 21.906L28.5616 22.1291C28.8366 21.712 28.9721 21.2348 28.9721 20.7046H28.5666ZM28.2231 21.906C27.9951 22.2519 27.6665 22.5277 27.2282 22.7306L27.3985 23.0985C27.8962 22.8681 28.287 22.5459 28.5616 22.1291L28.2231 21.906ZM27.231 22.7293C26.7946 22.9233 26.2693 23.0238 25.6494 23.0238V23.4293C26.3121 23.4293 26.8961 23.3219 27.3957 23.0998L27.231 22.7293ZM25.6494 23.0238C25.4176 23.0238 25.222 23.0195 25.062 23.0111L25.0407 23.416C25.2101 23.4249 25.4132 23.4293 25.6494 23.4293V23.0238ZM25.0577 23.0109C24.501 22.9935 23.9529 22.9848 23.4134 22.9848V23.3903C23.9485 23.3903 24.4924 23.3989 25.045 23.4162L25.0577 23.0109ZM23.4134 22.9848C22.7015 22.9848 22.1583 22.9978 21.7869 23.0243L21.8158 23.4288C22.1724 23.4033 22.7039 23.3903 23.4134 23.3903V22.9848ZM22.0041 23.2266V22.9666H21.5986V23.2266H22.0041ZM21.8126 23.169C22.1276 23.1515 22.3792 23.1159 22.5486 23.0524L22.4062 22.6727C22.2982 22.7132 22.0991 22.747 21.7901 22.7641L21.8126 23.169ZM22.5448 23.0537C22.75 22.9813 22.8951 22.8362 22.9676 22.631L22.5852 22.4961C22.5536 22.5856 22.4994 22.6398 22.4099 22.6714L22.5448 23.0537ZM22.9676 22.631C23.0318 22.4491 23.0571 22.1812 23.0571 21.8486H22.6516C22.6516 22.1746 22.625 22.3834 22.5852 22.4961L22.9676 22.631ZM23.0571 21.8486V15.4006H22.6516V21.8486H23.0571ZM23.0571 15.4006C23.0571 15.0679 23.0318 14.8 22.9676 14.6181L22.5852 14.753C22.625 14.8657 22.6516 15.0745 22.6516 15.4006H23.0571ZM22.9676 14.6181C22.8951 14.4129 22.75 14.2678 22.5448 14.1954L22.4099 14.5777C22.4994 14.6093 22.5536 14.6635 22.5852 14.753L22.9676 14.6181ZM22.5486 14.1967C22.3792 14.1332 22.1276 14.0976 21.8126 14.0801L21.7901 14.485C22.0991 14.5022 22.2982 14.5359 22.4062 14.5764L22.5486 14.1967ZM22.0041 14.2826V14.0226H21.5986V14.2826H22.0041ZM21.7869 14.2248C22.1583 14.2513 22.6927 14.2643 23.3874 14.2643V13.8588C22.6954 13.8588 22.1725 13.8458 21.8158 13.8203L21.7869 14.2248ZM23.3892 14.2643L24.7932 14.2513L24.7895 13.8458L23.3855 13.8588L23.3892 14.2643ZM24.802 14.251C24.9624 14.2426 25.1451 14.2383 25.3504 14.2383V13.8328C25.1397 13.8328 24.9497 13.8372 24.7807 13.8461L24.802 14.251ZM25.3504 14.2383C26.2096 14.2383 26.8336 14.4199 27.2521 14.7532L27.5047 14.436C26.9872 14.0239 26.2591 13.8328 25.3504 13.8328V14.2383ZM27.2535 14.7543C27.6801 15.0878 27.8906 15.5224 27.8906 16.0766H28.2961C28.2961 15.4001 28.03 14.8467 27.5032 14.4348L27.2535 14.7543ZM27.8906 16.0766C27.8906 16.5321 27.7467 16.9381 27.4544 17.3015L27.7703 17.5556C28.1194 17.1216 28.2961 16.6263 28.2961 16.0766H27.8906ZM27.4527 17.3036C27.175 17.6584 26.7191 17.9439 26.0584 18.1446L26.1763 18.5325C26.8849 18.3173 27.4257 17.996 27.772 17.5535L27.4527 17.3036ZM25.9146 18.3386V18.3646H26.3201V18.3386H25.9146ZM25.0254 14.0798C24.7471 14.0798 24.5101 14.1104 24.3331 14.1878L24.4956 14.5593C24.596 14.5154 24.7663 14.4853 25.0254 14.4853V14.0798ZM24.3286 14.1898C24.1406 14.2776 24.0158 14.4341 23.949 14.6345L24.3337 14.7627C24.3709 14.651 24.4281 14.5909 24.5001 14.5573L24.3286 14.1898ZM23.949 14.6345C23.8865 14.8221 23.8606 15.0826 23.8606 15.4006H24.2661C24.2661 15.0945 24.2923 14.887 24.3337 14.7627L23.949 14.6345ZM23.8606 15.4006V18.3386H24.2661V15.4006H23.8606ZM24.0634 18.5413H24.9344V18.1358H24.0634V18.5413ZM24.9344 18.5413C25.6757 18.5413 26.2484 18.3422 26.5803 17.8858L26.2524 17.6473C26.0297 17.9536 25.6144 18.1358 24.9344 18.1358V18.5413ZM26.5799 17.8865C26.8985 17.4519 27.0481 16.8901 27.0481 16.2196H26.6426C26.6426 16.8317 26.5062 17.3012 26.2529 17.6467L26.5799 17.8865ZM27.0481 16.2196C27.0481 15.5445 26.9002 15.0015 26.5677 14.6286L26.2651 14.8985C26.5045 15.167 26.6426 15.5946 26.6426 16.2196H27.0481ZM26.5677 14.6286C26.2275 14.2472 25.6958 14.0798 25.0254 14.0798V14.4853C25.6376 14.4853 26.0332 14.6385 26.2651 14.8985L26.5677 14.6286ZM25.0384 23.1303C25.8767 23.1303 26.5432 22.9344 27.0001 22.5068C27.4596 22.0769 27.6721 21.4457 27.6721 20.6526H27.2666C27.2666 21.3761 27.074 21.8824 26.7231 22.2108C26.3697 22.5415 25.8207 22.7248 25.0384 22.7248V23.1303ZM27.6721 20.6526C27.6721 19.9315 27.475 19.3508 27.0503 18.9458L26.7705 19.2393C27.091 19.545 27.2666 20.0043 27.2666 20.6526H27.6721ZM27.052 18.9475C26.6331 18.5386 25.9845 18.3568 25.1554 18.3568V18.7623C25.9382 18.7623 26.4596 18.9359 26.7688 19.2376L27.052 18.9475ZM25.1554 18.3568H24.0634V18.7623H25.1554V18.3568ZM23.8606 18.5596V21.8486H24.2661V18.5596H23.8606ZM23.8606 21.8486C23.8606 22.1654 23.8862 22.4238 23.9502 22.605L24.3326 22.4701C24.2925 22.3567 24.2661 22.1558 24.2661 21.8486H23.8606ZM23.9502 22.605C24.0185 22.7986 24.1447 22.9474 24.3286 23.0333L24.5001 22.6658C24.4241 22.6304 24.3682 22.5711 24.3326 22.4701L23.9502 22.605ZM24.3432 23.0394C24.5166 23.1044 24.7541 23.1303 25.0384 23.1303V22.7248C24.7679 22.7248 24.5895 22.6987 24.4856 22.6597L24.3432 23.0394ZM36.8247 23.2266L36.8158 23.4291L37.0494 23.4394L37.0265 23.2067L36.8247 23.2266ZM30.0777 23.2266H29.875V23.4356L30.0839 23.4292L30.0777 23.2266ZM30.0777 22.9666L30.0665 22.7641L29.875 22.7748V22.9666H30.0777ZM30.7537 22.8626L30.6863 22.6713L30.6826 22.6727L30.7537 22.8626ZM31.0527 14.6856L30.8616 14.753V14.753L31.0527 14.6856ZM30.7537 14.3866L30.6825 14.5764L30.6863 14.5777L30.7537 14.3866ZM30.0777 14.2826H29.875V14.4743L30.0665 14.485L30.0777 14.2826ZM30.0777 14.0226L30.0839 13.8199L29.875 13.8135V14.0226H30.0777ZM36.5647 14.0226L36.7663 14.0439L36.7913 13.8086L36.5549 13.8201L36.5647 14.0226ZM36.5127 16.3626V16.5653H36.7436L36.7138 16.3363L36.5127 16.3626ZM36.2137 16.3626L36.0122 16.3843L36.0317 16.5653H36.2137V16.3626ZM35.9797 15.1146L35.788 15.1805L35.7887 15.1824L35.9797 15.1146ZM35.4987 14.5166L35.3974 14.6922L35.4026 14.6951L35.4987 14.5166ZM32.7037 14.3996L32.7642 14.5932L32.7712 14.5907L32.7037 14.3996ZM32.4177 14.6856L32.6089 14.753V14.753L32.4177 14.6856ZM32.3397 18.4686H32.137V18.6713H32.3397V18.4686ZM33.8997 18.2606L34.0304 18.4157L34.0349 18.4116L33.8997 18.2606ZM34.2247 17.7536L34.0307 17.6945L34.0291 17.7002L34.2247 17.7536ZM34.3677 17.0126L34.1671 16.9825L34.1664 16.9889L34.3677 17.0126ZM34.4067 16.7526V16.5498H34.2321L34.2062 16.7225L34.4067 16.7526ZM34.7057 16.7526L34.908 16.767L34.9235 16.5498H34.7057V16.7526ZM34.7447 20.4446V20.6473H34.9613L34.947 20.4312L34.7447 20.4446ZM34.4457 20.4446L34.245 20.4732L34.2699 20.6473H34.4457V20.4446ZM34.3677 19.8206L34.1664 19.8445L34.1665 19.8451L34.3677 19.8206ZM34.0037 19.0016L33.8637 19.1482L33.867 19.1513L34.0037 19.0016ZM32.3397 18.7286V18.5258H32.137V18.7286H32.3397ZM32.4177 22.5636L32.6089 22.4961V22.4961L32.4177 22.5636ZM32.7037 22.8626L32.6326 23.0524L32.6395 23.055L32.6465 23.0571L32.7037 22.8626ZM35.5637 22.7196L35.6544 22.9009L35.6566 22.8998L35.5637 22.7196ZM36.1877 22.0306L36.3749 22.1085L36.3756 22.1067L36.1877 22.0306ZM36.4737 20.6266V20.4238H36.29L36.272 20.6067L36.4737 20.6266ZM36.7727 20.6266L36.9742 20.649L36.9993 20.4238H36.7727V20.6266ZM36.531 21.5626C36.531 22.0646 36.5618 22.6261 36.623 23.2465L37.0265 23.2067C36.9663 22.5964 36.9365 22.0485 36.9365 21.5626H36.531ZM36.8337 23.024C36.2394 22.9978 35.2431 22.9848 33.8477 22.9848V23.3903C35.243 23.3903 36.2314 23.4033 36.8158 23.4291L36.8337 23.024ZM33.8477 22.9848C32.1832 22.9848 30.9241 22.9978 30.0715 23.0239L30.0839 23.4292C30.9301 23.4033 32.1842 23.3903 33.8477 23.3903V22.9848ZM30.2805 23.2266V22.9666H29.875V23.2266H30.2805ZM30.089 23.169C30.404 23.1515 30.6556 23.1159 30.8249 23.0524L30.6826 22.6727C30.5746 22.7132 30.3755 22.747 30.0665 22.7641L30.089 23.169ZM30.8212 23.0537C31.0264 22.9813 31.1715 22.8362 31.2439 22.631L30.8616 22.4961C30.83 22.5856 30.7758 22.6398 30.6863 22.6714L30.8212 23.0537ZM31.2439 22.631C31.3081 22.4491 31.3335 22.1812 31.3335 21.8486H30.928C30.928 22.1746 30.9013 22.3834 30.8616 22.4961L31.2439 22.631ZM31.3335 21.8486V15.4006H30.928V21.8486H31.3335ZM31.3335 15.4006C31.3335 15.0679 31.3081 14.8 31.2439 14.6181L30.8616 14.753C30.9013 14.8657 30.928 15.0745 30.928 15.4006H31.3335ZM31.2439 14.6181C31.1715 14.4129 31.0264 14.2678 30.8212 14.1954L30.6863 14.5777C30.7758 14.6093 30.83 14.6635 30.8616 14.753L31.2439 14.6181ZM30.8249 14.1967C30.6556 14.1332 30.404 14.0976 30.089 14.0801L30.0665 14.485C30.3755 14.5022 30.5746 14.5359 30.6826 14.5764L30.8249 14.1967ZM30.2805 14.2826V14.0226H29.875V14.2826H30.2805ZM30.0715 14.2252C30.9241 14.2513 32.1832 14.2643 33.8477 14.2643V13.8588C32.1842 13.8588 30.9301 13.8458 30.0839 13.8199L30.0715 14.2252ZM33.8477 14.2643C35.1218 14.2643 36.0318 14.2513 36.5745 14.2251L36.5549 13.8201C36.023 13.8458 35.1217 13.8588 33.8477 13.8588V14.2643ZM36.3631 14.0012C36.3019 14.5784 36.271 15.0971 36.271 15.5566H36.6765C36.6765 15.1147 36.7062 14.6107 36.7663 14.0439L36.3631 14.0012ZM36.271 15.5566C36.271 15.8983 36.2841 16.1769 36.3117 16.3888L36.7138 16.3363C36.6894 16.1496 36.6765 15.8908 36.6765 15.5566H36.271ZM36.5127 16.1598H36.2137V16.5653H36.5127V16.1598ZM36.4153 16.3409C36.3543 15.774 36.2744 15.3386 36.1708 15.0468L35.7887 15.1824C35.8758 15.4278 35.9519 15.8244 36.0122 16.3843L36.4153 16.3409ZM36.1715 15.0487C36.0621 14.7306 35.8716 14.4871 35.5949 14.3381L35.4026 14.6951C35.5765 14.7887 35.7067 14.9438 35.788 15.1805L36.1715 15.0487ZM35.6001 14.341C35.3285 14.1843 34.9431 14.1188 34.4717 14.1188V14.5243C34.9191 14.5243 35.2183 14.5889 35.3974 14.6922L35.6001 14.341ZM34.4717 14.1188H33.3927V14.5243H34.4717V14.1188ZM33.3927 14.1188C33.0759 14.1188 32.8175 14.1444 32.6363 14.2084L32.7712 14.5907C32.8846 14.5507 33.0855 14.5243 33.3927 14.5243V14.1188ZM32.6433 14.2061C32.4384 14.2701 32.298 14.4158 32.2266 14.6181L32.6089 14.753C32.6415 14.6607 32.6917 14.6157 32.7642 14.5931L32.6433 14.2061ZM32.2266 14.6181C32.1623 14.8 32.137 15.0679 32.137 15.4006H32.5425C32.5425 15.0745 32.5691 14.8657 32.6089 14.753L32.2266 14.6181ZM32.137 15.4006V18.4686H32.5425V15.4006H32.137ZM32.3397 18.6713H33.1977V18.2658H32.3397V18.6713ZM33.1977 18.6713C33.5296 18.6713 33.8167 18.5956 34.0303 18.4156L33.7691 18.1055C33.6535 18.2029 33.4726 18.2658 33.1977 18.2658V18.6713ZM34.0349 18.4116C34.2252 18.2414 34.3569 18.0397 34.4203 17.8069L34.0291 17.7002C33.9886 17.8488 33.9036 17.985 33.7646 18.1095L34.0349 18.4116ZM34.4187 17.8126C34.484 17.598 34.5336 17.3383 34.5691 17.0363L34.1664 16.9889C34.1326 17.2761 34.0868 17.5104 34.0308 17.6945L34.4187 17.8126ZM34.5682 17.0426L34.6072 16.7826L34.2062 16.7225L34.1672 16.9825L34.5682 17.0426ZM34.4067 16.9553H34.7057V16.5498H34.4067V16.9553ZM34.5035 16.7381C34.4771 17.1079 34.464 17.5201 34.464 17.9746H34.8695C34.8695 17.5276 34.8824 17.1252 34.908 16.767L34.5035 16.7381ZM34.464 17.9746V18.5986H34.8695V17.9746H34.464ZM34.464 18.5986C34.464 19.0472 34.4903 19.6677 34.5424 20.4579L34.947 20.4312C34.8951 19.6441 34.8695 19.034 34.8695 18.5986H34.464ZM34.7447 20.2418H34.4457V20.6473H34.7447V20.2418ZM34.6464 20.4159C34.6381 20.3579 34.6125 20.1526 34.569 19.796L34.1665 19.8451C34.2097 20.1992 34.236 20.4099 34.245 20.4732L34.6464 20.4159ZM34.5691 19.7966C34.522 19.4017 34.3868 19.0768 34.1404 18.8518L33.867 19.1513C34.0193 19.2903 34.1268 19.5115 34.1664 19.8445L34.5691 19.7966ZM34.1437 18.8549C33.9046 18.6267 33.5796 18.5258 33.1977 18.5258V18.9313C33.5092 18.9313 33.7215 19.0124 33.8638 19.1482L34.1437 18.8549ZM33.1977 18.5258H32.3397V18.9313H33.1977V18.5258ZM32.137 18.7286V21.8486H32.5425V18.7286H32.137ZM32.137 21.8486C32.137 22.1812 32.1623 22.4491 32.2266 22.631L32.6089 22.4961C32.5691 22.3834 32.5425 22.1746 32.5425 21.8486H32.137ZM32.2266 22.631C32.2973 22.8313 32.4343 22.9781 32.6326 23.0524L32.7749 22.6727C32.6958 22.6431 32.6422 22.5905 32.6089 22.4961L32.2266 22.631ZM32.6465 23.0571C32.8231 23.109 33.077 23.1303 33.3927 23.1303V22.7248C33.0845 22.7248 32.8791 22.7028 32.7609 22.6681L32.6465 23.0571ZM33.3927 23.1303H34.3417V22.7248H33.3927V23.1303ZM34.3417 23.1303C34.8906 23.1303 35.3353 23.0604 35.6544 22.9009L35.4731 22.5382C35.2375 22.656 34.8675 22.7248 34.3417 22.7248V23.1303ZM35.6566 22.8998C35.9874 22.7294 36.2275 22.4623 36.3749 22.1085L36.0006 21.9526C35.888 22.2229 35.7121 22.4151 35.4709 22.5393L35.6566 22.8998ZM36.3756 22.1067C36.5165 21.7592 36.6142 21.2685 36.6755 20.6465L36.272 20.6067C36.212 21.2153 36.119 21.6606 35.9999 21.9544L36.3756 22.1067ZM36.4737 20.8293H36.7727V20.4238H36.4737V20.8293ZM36.5712 20.6042C36.5441 20.8488 36.531 21.1692 36.531 21.5626H36.9365C36.9365 21.1759 36.9494 20.8723 36.9742 20.649L36.5712 20.6042ZM45.4152 14.0226L45.617 14.0425L45.6398 13.8116L45.4079 13.82L45.4152 14.0226ZM45.3632 16.7526V16.9553H45.5859L45.5651 16.7336L45.3632 16.7526ZM45.0642 16.7526L44.8626 16.7735L44.8815 16.9553H45.0642V16.7526ZM44.8042 15.2706L44.6109 15.3316L44.6114 15.3331L44.8042 15.2706ZM44.2582 14.5556L44.1539 14.7295L44.1583 14.7319L44.2582 14.5556ZM42.3602 14.3216V14.1188H42.1575V14.3216H42.3602ZM42.4642 22.5116L42.2774 22.5902V22.5902L42.4642 22.5116ZM42.8282 22.8496L42.7613 23.0409V23.0409L42.8282 22.8496ZM43.6732 22.9666H43.876V22.7726L43.6822 22.764L43.6732 22.9666ZM43.6732 23.2266L43.6616 23.429L43.876 23.4413V23.2266H43.6732ZM39.8382 23.2266H39.6355V23.4424L39.8509 23.4289L39.8382 23.2266ZM39.8382 22.9666L39.8292 22.764L39.6355 22.7726V22.9666H39.8382ZM40.6832 22.8496L40.7502 23.0409V23.0409L40.6832 22.8496ZM41.0472 22.5116L41.2341 22.5902V22.5902L41.0472 22.5116ZM41.1512 14.3216H41.354V14.1188H41.1512V14.3216ZM39.2532 14.5556L39.3532 14.732L39.3575 14.7294L39.2532 14.5556ZM38.7072 15.2706L38.9001 15.3331L38.9006 15.3316L38.7072 15.2706ZM38.4472 16.7526V16.9553H38.63L38.6489 16.7735L38.4472 16.7526ZM38.1482 16.7526L37.9464 16.7336L37.9256 16.9553H38.1482V16.7526ZM38.0962 14.0226L38.1036 13.82L37.8717 13.8116L37.8945 14.0425L38.0962 14.0226ZM45.2135 14.0027C45.1523 14.6231 45.1215 15.1845 45.1215 15.6866H45.527C45.527 15.2006 45.5568 14.6527 45.617 14.0425L45.2135 14.0027ZM45.1215 15.6866C45.1215 16.1232 45.1346 16.4854 45.1614 16.7715L45.5651 16.7336C45.5399 16.465 45.527 16.1166 45.527 15.6866H45.1215ZM45.3632 16.5498H45.0642V16.9553H45.3632V16.5498ZM45.2659 16.7316C45.1962 16.0611 45.1079 15.5497 44.9971 15.208L44.6114 15.3331C44.7086 15.6327 44.7936 16.1093 44.8626 16.7735L45.2659 16.7316ZM44.9976 15.2095C44.8807 14.8395 44.6697 14.5557 44.3582 14.3792L44.1583 14.7319C44.3668 14.8501 44.5198 15.043 44.6109 15.3316L44.9976 15.2095ZM44.3625 14.3817C44.0551 14.1973 43.6117 14.1188 43.0622 14.1188V14.5243C43.5874 14.5243 43.9414 14.6019 44.1539 14.7294L44.3625 14.3817ZM43.0622 14.1188H42.3602V14.5243H43.0622V14.1188ZM42.1575 14.3216V21.7186H42.563V14.3216H42.1575ZM42.1575 21.7186C42.1575 22.0874 42.1915 22.3862 42.2774 22.5902L42.6511 22.4329C42.5983 22.3076 42.563 22.0778 42.563 21.7186H42.1575ZM42.2774 22.5902C42.3697 22.8094 42.5356 22.9619 42.7613 23.0409L42.8952 22.6582C42.7743 22.6159 42.6975 22.5431 42.6511 22.4329L42.2774 22.5902ZM42.7613 23.0409C42.9645 23.112 43.2715 23.1516 43.6642 23.1691L43.6822 22.764C43.295 22.7468 43.0387 22.7084 42.8952 22.6582L42.7613 23.0409ZM43.4705 22.9666V23.2266H43.876V22.9666H43.4705ZM43.6849 23.0242C43.2284 22.9978 42.5869 22.9848 41.7622 22.9848V23.3903C42.5843 23.3903 43.2167 23.4033 43.6616 23.429L43.6849 23.0242ZM41.7622 22.9848C40.8948 22.9848 40.2482 22.9978 39.8256 23.0242L39.8509 23.4289C40.2602 23.4033 40.8963 23.3903 41.7622 23.3903V22.9848ZM40.041 23.2266V22.9666H39.6355V23.2266H40.041ZM39.8472 23.1691C40.24 23.1516 40.547 23.112 40.7502 23.0409L40.6163 22.6582C40.4728 22.7084 40.2165 22.7468 39.8292 22.764L39.8472 23.1691ZM40.7502 23.0409C40.9759 22.9619 41.1418 22.8094 41.2341 22.5902L40.8604 22.4329C40.814 22.5431 40.7372 22.6159 40.6163 22.6582L40.7502 23.0409ZM41.2341 22.5902C41.32 22.3862 41.354 22.0874 41.354 21.7186H40.9485C40.9485 22.0778 40.9131 22.3076 40.8604 22.4329L41.2341 22.5902ZM41.354 21.7186V14.3216H40.9485V21.7186H41.354ZM41.1512 14.1188H40.4492V14.5243H41.1512V14.1188ZM40.4492 14.1188C39.8997 14.1188 39.4564 14.1973 39.1489 14.3817L39.3575 14.7294C39.5701 14.6019 39.9241 14.5243 40.4492 14.5243V14.1188ZM39.1533 14.3792C38.8418 14.5557 38.6308 14.8395 38.5139 15.2095L38.9006 15.3316C38.9917 15.043 39.1447 14.8501 39.3532 14.7319L39.1533 14.3792ZM38.5144 15.208C38.4036 15.5497 38.3152 16.0611 38.2456 16.7316L38.6489 16.7735C38.7179 16.1093 38.8029 15.6327 38.9001 15.3331L38.5144 15.208ZM38.4472 16.5498H38.1482V16.9553H38.4472V16.5498ZM38.3501 16.7715C38.3769 16.4854 38.39 16.1232 38.39 15.6866H37.9845C37.9845 16.1166 37.9716 16.465 37.9464 16.7336L38.3501 16.7715ZM38.39 15.6866C38.39 15.1845 38.3592 14.6231 38.298 14.0027L37.8945 14.0425C37.9546 14.6527 37.9845 15.2006 37.9845 15.6866H38.39ZM38.0889 14.2252C38.8123 14.2513 40.0375 14.2643 41.7622 14.2643V13.8588C40.0376 13.8588 38.8189 13.8458 38.1036 13.82L38.0889 14.2252ZM41.7622 14.2643C43.4783 14.2643 44.6992 14.2513 45.4226 14.2252L45.4079 13.82C44.6926 13.8458 43.4782 13.8588 41.7622 13.8588V14.2643ZM53.0401 14.3996L52.9351 14.573L52.9361 14.5736L53.0401 14.3996ZM54.4831 16.0246L54.3 16.1116L54.3013 16.1143L54.4831 16.0246ZM54.4701 21.0816L54.2875 20.9935L54.2866 20.9952L54.4701 21.0816ZM53.0011 22.7976L52.8913 22.6271L52.8903 22.6278L53.0011 22.7976ZM48.6981 22.8496L48.5931 23.023L48.5941 23.0236L48.6981 22.8496ZM47.2551 21.2376L47.072 21.3246L47.0733 21.3273L47.2551 21.2376ZM47.2681 16.1676L47.0855 16.0795L47.0846 16.0812L47.2681 16.1676ZM48.7371 14.4516L48.6273 14.2811L48.6263 14.2818L48.7371 14.4516ZM49.3611 14.6596L49.4981 14.809L49.4982 14.8089L49.3611 14.6596ZM48.3861 16.2716L48.194 16.2067L48.1933 16.2089L48.3861 16.2716ZM48.4251 21.0296L48.2348 21.0994L48.2355 21.1015L48.4251 21.0296ZM49.4651 22.6156L49.5973 22.4619V22.4619L49.4651 22.6156ZM52.3771 22.6026L52.5141 22.752L52.5142 22.7519L52.3771 22.6026ZM53.3521 20.9776L53.16 20.9127L53.1593 20.9149L53.3521 20.9776ZM53.3131 16.2196L53.1228 16.2894L53.1236 16.2915L53.3131 16.2196ZM52.2861 14.6336L52.1539 14.7873V14.7873L52.2861 14.6336ZM50.8821 14.0433C51.6738 14.0433 52.3558 14.2221 52.9351 14.573L53.1451 14.2261C52.4937 13.8317 51.737 13.6378 50.8821 13.6378V14.0433ZM52.9361 14.5736C53.5229 14.924 53.9777 15.434 54.3 16.1116L54.6662 15.9375C54.3125 15.1938 53.8053 14.6204 53.144 14.2255L52.9361 14.5736ZM54.3013 16.1143C54.6312 16.7823 54.8003 17.5907 54.8003 18.5466H55.2058C55.2058 17.5437 55.0283 16.6708 54.6649 15.9348L54.3013 16.1143ZM54.8003 18.5466C54.8003 19.4744 54.6275 20.2885 54.2875 20.9935L54.6527 21.1696C55.0233 20.4013 55.2058 19.5254 55.2058 18.5466H54.8003ZM54.2866 20.9952C53.9548 21.7004 53.4894 22.242 52.8913 22.6271L53.1108 22.968C53.7781 22.5384 54.292 21.936 54.6535 21.1679L54.2866 20.9952ZM52.8903 22.6278C52.3016 23.0121 51.6299 23.2058 50.8691 23.2058V23.6113C51.7029 23.6113 52.4526 23.3977 53.1119 22.9673L52.8903 22.6278ZM50.8691 23.2058C50.0774 23.2058 49.3906 23.027 48.802 22.6755L48.5941 23.0236C49.2536 23.4174 50.0141 23.6113 50.8691 23.6113V23.2058ZM48.8031 22.6761C48.2237 22.3252 47.768 21.8184 47.4369 21.1478L47.0733 21.3273C47.4355 22.0608 47.9418 22.6285 48.5931 23.023L48.8031 22.6761ZM47.4382 21.1505C47.1159 20.4728 46.9508 19.659 46.9508 18.7026H46.5453C46.5453 19.7048 46.7183 20.581 47.072 21.3246L47.4382 21.1505ZM46.9508 18.7026C46.9508 17.774 47.1196 16.9593 47.4515 16.2539L47.0846 16.0812C46.7233 16.8491 46.5453 17.7245 46.5453 18.7026H46.9508ZM47.4507 16.2556C47.7916 15.5489 48.2578 15.0065 48.8479 14.6213L48.6263 14.2818C47.9684 14.7113 47.4552 15.3129 47.0855 16.0795L47.4507 16.2556ZM48.8468 14.622C49.4448 14.237 50.1212 14.0433 50.8821 14.0433V13.6378C50.0483 13.6378 49.2947 13.8514 48.6273 14.2811L48.8468 14.622ZM50.8301 13.8718C50.2225 13.8718 49.6844 14.0874 49.2239 14.5102L49.4982 14.8089C49.8871 14.4517 50.3284 14.2773 50.8301 14.2773V13.8718ZM49.2241 14.5101C48.7765 14.9204 48.4358 15.4903 48.194 16.2067L48.5782 16.3364C48.8044 15.6661 49.1137 15.1614 49.4981 14.809L49.2241 14.5101ZM48.1933 16.2089C47.9601 16.9264 47.8453 17.7412 47.8453 18.6506H48.2508C48.2508 17.7746 48.3614 17.0034 48.5789 16.3342L48.1933 16.2089ZM47.8453 18.6506C47.8453 19.5703 47.9735 20.3878 48.2348 21.0994L48.6154 20.9597C48.374 20.302 48.2508 19.5335 48.2508 18.6506H47.8453ZM48.2355 21.1015C48.5043 21.8091 48.8677 22.3692 49.3329 22.7693L49.5973 22.4619C49.1958 22.1166 48.8659 21.6193 48.6146 20.9576L48.2355 21.1015ZM49.3329 22.7693C49.8005 23.1714 50.332 23.3773 50.9211 23.3773V22.9718C50.4355 22.9718 49.9964 22.8051 49.5973 22.4619L49.3329 22.7693ZM50.9211 23.3773C51.5274 23.3773 52.0614 23.167 52.5141 22.752L52.2401 22.4531C51.8608 22.8008 51.4241 22.9718 50.9211 22.9718V23.3773ZM52.5142 22.7519C52.9705 22.3328 53.3116 21.7581 53.5449 21.0402L53.1593 20.9149C52.9419 21.5837 52.633 22.0923 52.24 22.4532L52.5142 22.7519ZM53.5442 21.0424C53.7866 20.3242 53.9058 19.5086 53.9058 18.5986H53.5003C53.5003 19.4739 53.3856 20.2443 53.16 20.9127L53.5442 21.0424ZM53.9058 18.5986C53.9058 17.6781 53.7731 16.8599 53.5026 16.1476L53.1236 16.2915C53.3731 16.9486 53.5003 17.7163 53.5003 18.5986H53.9058ZM53.5034 16.1497C53.2434 15.4413 52.8841 14.8804 52.4183 14.4799L52.1539 14.7873C52.5547 15.132 52.8801 15.6284 53.1228 16.2894L53.5034 16.1497ZM52.4183 14.4799C51.9507 14.0777 51.4192 13.8718 50.8301 13.8718V14.2773C51.3157 14.2773 51.7548 14.4441 52.1539 14.7873L52.4183 14.4799ZM17.9381 27.2826L17.9493 27.485L18.1408 27.4743V27.2826H17.9381ZM17.2491 27.3866L17.1816 27.1953L17.1779 27.1967L17.2491 27.3866ZM16.9631 27.6856L17.1542 27.753L17.1542 27.753L16.9631 27.6856ZM16.9631 35.5636L17.1542 35.4961H17.1542L16.9631 35.5636ZM17.2491 35.8626L17.1779 36.0524L17.1816 36.0537L17.2491 35.8626ZM17.9381 35.9666H18.1408V35.7748L17.9493 35.7641L17.9381 35.9666ZM17.9381 36.2266L17.9236 36.4288L18.1408 36.4443V36.2266H17.9381ZM14.6231 36.2266H14.4203V36.443L14.6363 36.4289L14.6231 36.2266ZM14.6231 35.9666L14.6118 35.7641L14.4203 35.7748V35.9666H14.6231ZM15.2991 35.8626L15.2316 35.6713L15.2279 35.6727L15.2991 35.8626ZM15.5981 27.6856L15.4057 27.7497L15.4069 27.753L15.5981 27.6856ZM15.2991 27.3736L15.2218 27.5613L15.2316 27.5647L15.2991 27.3736ZM11.8281 27.3736L11.8956 27.565L11.9053 27.561L11.8281 27.3736ZM11.5291 27.6856L11.7203 27.753L11.7214 27.7497L11.5291 27.6856ZM11.5291 35.5636L11.7202 35.4961V35.4961L11.5291 35.5636ZM11.8151 35.8626L11.7439 36.0524L11.7476 36.0537L11.8151 35.8626ZM12.5041 35.9666H12.7068V35.7748L12.5153 35.7641L12.5041 35.9666ZM12.5041 36.2266L12.4909 36.4289L12.7068 36.443V36.2266H12.5041ZM9.18907 36.2266H8.98633V36.4443L9.20351 36.4288L9.18907 36.2266ZM9.18907 35.9666L9.17782 35.7641L8.98633 35.7748V35.9666H9.18907ZM9.86507 35.8626L9.79758 35.6713L9.79388 35.6727L9.86507 35.8626ZM10.1641 27.6856L9.97289 27.753L9.97289 27.753L10.1641 27.6856ZM9.86507 27.3866L9.79387 27.5764L9.79759 27.5777L9.86507 27.3866ZM9.18907 27.2826H8.98633V27.4743L9.17782 27.485L9.18907 27.2826ZM9.18907 27.0226L9.20351 26.8203L8.98633 26.8048V27.0226H9.18907ZM12.5431 27.0356L12.5405 26.8328L12.538 26.8329L12.5431 27.0356ZM13.5831 27.0226L13.5857 26.8198L13.5805 26.8198L13.5831 27.0226ZM14.5971 27.0356L14.6021 26.8329L14.5997 26.8328L14.5971 27.0356ZM17.9381 27.0226H18.1408V26.8048L17.9236 26.8203L17.9381 27.0226ZM17.9268 27.0801C17.6108 27.0977 17.3572 27.1334 17.1816 27.1954L17.3165 27.5777C17.4356 27.5357 17.6414 27.5021 17.9493 27.485L17.9268 27.0801ZM17.1779 27.1967C16.9797 27.2711 16.8426 27.4178 16.7719 27.6181L17.1542 27.753C17.1876 27.6587 17.2411 27.6061 17.3203 27.5764L17.1779 27.1967ZM16.7719 27.6181C16.7077 27.8 16.6823 28.0679 16.6823 28.4006H17.0878C17.0878 28.0745 17.1145 27.8657 17.1542 27.753L16.7719 27.6181ZM16.6823 28.4006V34.8486H17.0878V28.4006H16.6823ZM16.6823 34.8486C16.6823 35.1812 16.7077 35.4491 16.7719 35.631L17.1542 35.4961C17.1145 35.3834 17.0878 35.1746 17.0878 34.8486H16.6823ZM16.7719 35.631C16.8426 35.8313 16.9797 35.9781 17.1779 36.0524L17.3203 35.6727C17.2411 35.6431 17.1876 35.5905 17.1542 35.4961L16.7719 35.631ZM17.1816 36.0537C17.3572 36.1157 17.6108 36.1514 17.9268 36.169L17.9493 35.7641C17.6414 35.747 17.4356 35.7134 17.3165 35.6714L17.1816 36.0537ZM17.7353 35.9666V36.2266H18.1408V35.9666H17.7353ZM17.9525 36.0243C17.581 35.9978 17.0203 35.9848 16.2741 35.9848V36.3903C17.0185 36.3903 17.5672 36.4033 17.9236 36.4288L17.9525 36.0243ZM16.2741 35.9848C15.5704 35.9848 15.015 35.9978 14.6099 36.0243L14.6363 36.4289C15.0285 36.4033 15.5737 36.3903 16.2741 36.3903V35.9848ZM14.8258 36.2266V35.9666H14.4203V36.2266H14.8258ZM14.6343 36.169C14.9493 36.1515 15.2009 36.1159 15.3703 36.0524L15.2279 35.6727C15.1199 35.7132 14.9208 35.747 14.6118 35.7641L14.6343 36.169ZM15.3665 36.0537C15.5717 35.9813 15.7168 35.8362 15.7892 35.631L15.4069 35.4961C15.3753 35.5856 15.3211 35.6398 15.2316 35.6714L15.3665 36.0537ZM15.7892 35.631C15.8535 35.4491 15.8788 35.1812 15.8788 34.8486H15.4733C15.4733 35.1746 15.4467 35.3834 15.4069 35.4961L15.7892 35.631ZM15.8788 34.8486V28.4006H15.4733V34.8486H15.8788ZM15.8788 28.4006C15.8788 28.0679 15.8535 27.8 15.7892 27.6181L15.4069 27.753C15.4467 27.8657 15.4733 28.0745 15.4733 28.4006H15.8788ZM15.7904 27.6215C15.7198 27.4097 15.5764 27.2564 15.3665 27.1824L15.2316 27.5647C15.3164 27.5947 15.3723 27.6494 15.4057 27.7497L15.7904 27.6215ZM15.3763 27.1861C15.1912 27.1099 14.9333 27.0798 14.6231 27.0798V27.4853C14.9195 27.4853 15.1123 27.5159 15.2219 27.561L15.3763 27.1861ZM14.6231 27.0798H12.5041V27.4853H14.6231V27.0798ZM12.5041 27.0798C12.1938 27.0798 11.9359 27.1099 11.7509 27.1861L11.9053 27.561C12.0149 27.5159 12.2076 27.4853 12.5041 27.4853V27.0798ZM11.7606 27.1824C11.5508 27.2564 11.4073 27.4097 11.3367 27.6215L11.7214 27.7497C11.7548 27.6494 11.8107 27.5947 11.8955 27.5647L11.7606 27.1824ZM11.3379 27.6181C11.2737 27.8 11.2483 28.0679 11.2483 28.4006H11.6538C11.6538 28.0745 11.6805 27.8657 11.7202 27.753L11.3379 27.6181ZM11.2483 28.4006V34.8486H11.6538V28.4006H11.2483ZM11.2483 34.8486C11.2483 35.1812 11.2737 35.4491 11.3379 35.631L11.7202 35.4961C11.6805 35.3834 11.6538 35.1746 11.6538 34.8486H11.2483ZM11.3379 35.631C11.4086 35.8313 11.5457 35.9781 11.7439 36.0524L11.8863 35.6727C11.8071 35.6431 11.7536 35.5905 11.7202 35.4961L11.3379 35.631ZM11.7476 36.0537C11.9232 36.1157 12.1768 36.1514 12.4928 36.169L12.5153 35.7641C12.2074 35.747 12.0016 35.7134 11.8825 35.6714L11.7476 36.0537ZM12.3013 35.9666V36.2266H12.7068V35.9666H12.3013ZM12.5173 36.0243C12.1121 35.9978 11.5567 35.9848 10.8531 35.9848V36.3903C11.5534 36.3903 12.0987 36.4033 12.4909 36.4289L12.5173 36.0243ZM10.8531 35.9848C10.1068 35.9848 9.54616 35.9978 9.17462 36.0243L9.20351 36.4288C9.55997 36.4033 10.1087 36.3903 10.8531 36.3903V35.9848ZM9.3918 36.2266V35.9666H8.98633V36.2266H9.3918ZM9.20031 36.169C9.51529 36.1515 9.7669 36.1159 9.93625 36.0524L9.79388 35.6727C9.6859 35.7132 9.48684 35.747 9.17782 35.7641L9.20031 36.169ZM9.93254 36.0537C10.1377 35.9813 10.2828 35.8362 10.3552 35.631L9.97289 35.4961C9.94129 35.5856 9.88711 35.6398 9.79759 35.6714L9.93254 36.0537ZM10.3552 35.631C10.4195 35.4491 10.4448 35.1812 10.4448 34.8486H10.0393C10.0393 35.1746 10.0127 35.3834 9.97289 35.4961L10.3552 35.631ZM10.4448 34.8486V28.4006H10.0393V34.8486H10.4448ZM10.4448 28.4006C10.4448 28.0679 10.4195 27.8 10.3552 27.6181L9.97289 27.753C10.0127 27.8657 10.0393 28.0745 10.0393 28.4006H10.4448ZM10.3552 27.6181C10.2828 27.4129 10.1377 27.2678 9.93254 27.1954L9.79759 27.5777C9.88711 27.6093 9.94129 27.6635 9.97289 27.753L10.3552 27.6181ZM9.93625 27.1967C9.7669 27.1332 9.51529 27.0976 9.20031 27.0801L9.17782 27.485C9.48684 27.5022 9.6859 27.5359 9.79388 27.5764L9.93625 27.1967ZM9.3918 27.2826V27.0226H8.98633V27.2826H9.3918ZM9.17462 27.2248C9.54616 27.2513 10.1068 27.2643 10.8531 27.2643V26.8588C10.1087 26.8588 9.55997 26.8458 9.20351 26.8203L9.17462 27.2248ZM10.8531 27.2643C11.2888 27.2643 11.854 27.2556 12.5481 27.2382L12.538 26.8329C11.8455 26.8502 11.284 26.8588 10.8531 26.8588V27.2643ZM12.5456 27.2383L13.5856 27.2253L13.5805 26.8198L12.5405 26.8328L12.5456 27.2383ZM13.5805 27.2253L14.5945 27.2383L14.5997 26.8328L13.5857 26.8198L13.5805 27.2253ZM14.592 27.2382C15.2861 27.2556 15.847 27.2643 16.2741 27.2643V26.8588C15.8518 26.8588 15.2947 26.8502 14.6021 26.8329L14.592 27.2382ZM16.2741 27.2643C17.0203 27.2643 17.581 27.2513 17.9525 27.2248L17.9236 26.8203C17.5672 26.8458 17.0185 26.8588 16.2741 26.8588V27.2643ZM17.7353 27.0226V27.2826H18.1408V27.0226H17.7353ZM28.3026 27.2826L28.3138 27.485L28.5053 27.4743V27.2826H28.3026ZM27.6136 27.3866L27.5461 27.1953L27.5424 27.1967L27.6136 27.3866ZM27.3276 27.6856L27.5187 27.753V27.753L27.3276 27.6856ZM27.6136 35.8626L27.5424 36.0524L27.5461 36.0537L27.6136 35.8626ZM28.3026 35.9666H28.5053V35.7748L28.3138 35.7641L28.3026 35.9666ZM28.3026 36.2266L28.2881 36.4288L28.5053 36.4443V36.2266H28.3026ZM24.9876 36.2266H24.7848V36.4427L25.0005 36.4289L24.9876 36.2266ZM24.9876 35.9666L24.9763 35.7641L24.7848 35.7748V35.9666H24.9876ZM25.6636 35.8626L25.5961 35.6713L25.5924 35.6727L25.6636 35.8626ZM25.9626 35.5636L25.7714 35.4961V35.4961L25.9626 35.5636ZM26.0406 28.6996H26.2433V28.0605L25.8749 28.5827L26.0406 28.6996ZM21.5556 35.0566L21.3899 34.9397L21.3506 34.9954L21.3529 35.0635L21.5556 35.0566ZM21.6596 35.6286L21.4758 35.7143L21.4782 35.7192L21.6596 35.6286ZM21.9586 35.8756L21.8981 36.0691V36.0691L21.9586 35.8756ZM22.6086 35.9666H22.8113V35.7754L22.6205 35.7642L22.6086 35.9666ZM22.6086 36.2266L22.5954 36.4289L22.8113 36.443V36.2266H22.6086ZM19.2936 36.2266H19.0908V36.4443L19.308 36.4288L19.2936 36.2266ZM19.2936 35.9666L19.2823 35.7641L19.0908 35.7748V35.9666H19.2936ZM19.9696 35.8626L19.9021 35.6713L19.8984 35.6727L19.9696 35.8626ZM20.2686 27.6856L20.0774 27.753V27.753L20.2686 27.6856ZM19.9696 27.3866L19.8984 27.5764L19.9021 27.5777L19.9696 27.3866ZM19.2936 27.2826H19.0908V27.4743L19.2823 27.485L19.2936 27.2826ZM19.2936 27.0226L19.308 26.8203L19.0908 26.8048V27.0226H19.2936ZM22.6086 27.0226H22.8113V26.8065L22.5956 26.8202L22.6086 27.0226ZM22.6086 27.2826L22.6198 27.485L22.8113 27.4743V27.2826H22.6086ZM21.9196 27.3866L21.8521 27.1953L21.8484 27.1967L21.9196 27.3866ZM21.6336 27.6856L21.8247 27.753V27.753L21.6336 27.6856ZM21.5556 34.5496H21.3528V35.1886L21.7212 34.6664L21.5556 34.5496ZM26.0406 28.1926L26.2062 28.3094L26.2455 28.2537L26.2432 28.1856L26.0406 28.1926ZM25.9366 27.6336L25.7528 27.7193L25.7552 27.7242L25.9366 27.6336ZM25.6376 27.3736L25.698 27.1801V27.1801L25.6376 27.3736ZM24.9876 27.2826H24.7848V27.4737L24.9757 27.4849L24.9876 27.2826ZM24.9876 27.0226L25.0005 26.8202L24.7848 26.8065V27.0226H24.9876ZM28.3026 27.0226H28.5053V26.8048L28.2881 26.8203L28.3026 27.0226ZM28.2913 27.0801C27.9753 27.0977 27.7217 27.1334 27.5461 27.1954L27.681 27.5777C27.8 27.5357 28.0059 27.5021 28.3138 27.485L28.2913 27.0801ZM27.5424 27.1967C27.3442 27.2711 27.2071 27.4178 27.1364 27.6181L27.5187 27.753C27.552 27.6587 27.6056 27.6061 27.6847 27.5764L27.5424 27.1967ZM27.1364 27.6181C27.0722 27.8 27.0468 28.0679 27.0468 28.4006H27.4523C27.4523 28.0745 27.479 27.8657 27.5187 27.753L27.1364 27.6181ZM27.0468 28.4006V34.8486H27.4523V28.4006H27.0468ZM27.0468 34.8486C27.0468 35.1812 27.0722 35.4491 27.1364 35.631L27.5187 35.4961C27.479 35.3834 27.4523 35.1746 27.4523 34.8486H27.0468ZM27.1364 35.631C27.2071 35.8313 27.3442 35.9781 27.5424 36.0524L27.6847 35.6727C27.6056 35.6431 27.552 35.5905 27.5187 35.4961L27.1364 35.631ZM27.5461 36.0537C27.7217 36.1157 27.9753 36.1514 28.2913 36.169L28.3138 35.7641C28.0059 35.747 27.8 35.7134 27.681 35.6714L27.5461 36.0537ZM28.0998 35.9666V36.2266H28.5053V35.9666H28.0998ZM28.317 36.0243C27.9455 35.9978 27.3848 35.9848 26.6386 35.9848V36.3903C27.3829 36.3903 27.9317 36.4033 28.2881 36.4288L28.317 36.0243ZM26.6386 35.9848C25.9434 35.9848 25.3882 35.9978 24.9746 36.0242L25.0005 36.4289C25.4016 36.4033 25.947 36.3903 26.6386 36.3903V35.9848ZM25.1903 36.2266V35.9666H24.7848V36.2266H25.1903ZM24.9988 36.169C25.3138 36.1515 25.5654 36.1159 25.7347 36.0524L25.5924 35.6727C25.4844 35.7132 25.2853 35.747 24.9763 35.7641L24.9988 36.169ZM25.731 36.0537C25.9362 35.9813 26.0813 35.8362 26.1537 35.631L25.7714 35.4961C25.7398 35.5856 25.6856 35.6398 25.5961 35.6714L25.731 36.0537ZM26.1537 35.631C26.218 35.4491 26.2433 35.1812 26.2433 34.8486H25.8378C25.8378 35.1746 25.8112 35.3834 25.7714 35.4961L26.1537 35.631ZM26.2433 34.8486V28.6996H25.8378V34.8486H26.2433ZM25.8749 28.5827L21.3899 34.9397L21.7212 35.1734L26.2062 28.8164L25.8749 28.5827ZM21.3529 35.0635C21.3619 35.3247 21.398 35.5476 21.4758 35.7143L21.8433 35.5428C21.7997 35.4496 21.7665 35.2911 21.7582 35.0496L21.3529 35.0635ZM21.4782 35.7192C21.5654 35.8936 21.711 36.0106 21.8981 36.0691L22.019 35.6821C21.9288 35.6539 21.875 35.6062 21.8409 35.5379L21.4782 35.7192ZM21.8981 36.0691C22.0615 36.1201 22.2988 36.1514 22.5967 36.1689L22.6205 35.7642C22.329 35.747 22.1329 35.7176 22.019 35.6821L21.8981 36.0691ZM22.4058 35.9666V36.2266H22.8113V35.9666H22.4058ZM22.6218 36.0243C22.2166 35.9978 21.6612 35.9848 20.9576 35.9848V36.3903C21.6579 36.3903 22.2032 36.4033 22.5954 36.4289L22.6218 36.0243ZM20.9576 35.9848C20.2113 35.9848 19.6507 35.9978 19.2791 36.0243L19.308 36.4288C19.6645 36.4033 20.2132 36.3903 20.9576 36.3903V35.9848ZM19.4963 36.2266V35.9666H19.0908V36.2266H19.4963ZM19.3048 36.169C19.6198 36.1515 19.8714 36.1159 20.0407 36.0524L19.8984 35.6727C19.7904 35.7132 19.5913 35.747 19.2823 35.7641L19.3048 36.169ZM20.037 36.0537C20.2422 35.9813 20.3873 35.8362 20.4597 35.631L20.0774 35.4961C20.0458 35.5856 19.9916 35.6398 19.9021 35.6714L20.037 36.0537ZM20.4597 35.631C20.524 35.4491 20.5493 35.1812 20.5493 34.8486H20.1438C20.1438 35.1746 20.1172 35.3834 20.0774 35.4961L20.4597 35.631ZM20.5493 34.8486V28.4006H20.1438V34.8486H20.5493ZM20.5493 28.4006C20.5493 28.0679 20.524 27.8 20.4597 27.6181L20.0774 27.753C20.1172 27.8657 20.1438 28.0745 20.1438 28.4006H20.5493ZM20.4597 27.6181C20.3873 27.4129 20.2422 27.2678 20.037 27.1954L19.9021 27.5777C19.9916 27.6093 20.0458 27.6635 20.0774 27.753L20.4597 27.6181ZM20.0407 27.1967C19.8714 27.1332 19.6198 27.0976 19.3048 27.0801L19.2823 27.485C19.5913 27.5022 19.7904 27.5359 19.8984 27.5764L20.0407 27.1967ZM19.4963 27.2826V27.0226H19.0908V27.2826H19.4963ZM19.2791 27.2248C19.6507 27.2513 20.2113 27.2643 20.9576 27.2643V26.8588C20.2132 26.8588 19.6645 26.8458 19.308 26.8203L19.2791 27.2248ZM20.9576 27.2643C21.6527 27.2643 22.2079 27.2513 22.6215 27.2249L22.5956 26.8202C22.1945 26.8458 21.6491 26.8588 20.9576 26.8588V27.2643ZM22.4058 27.0226V27.2826H22.8113V27.0226H22.4058ZM22.5973 27.0801C22.2813 27.0977 22.0277 27.1334 21.8521 27.1954L21.987 27.5777C22.106 27.5357 22.3119 27.5021 22.6198 27.485L22.5973 27.0801ZM21.8484 27.1967C21.6502 27.2711 21.5131 27.4178 21.4424 27.6181L21.8247 27.753C21.858 27.6587 21.9116 27.6061 21.9907 27.5764L21.8484 27.1967ZM21.4424 27.6181C21.3782 27.8 21.3528 28.0679 21.3528 28.4006H21.7583C21.7583 28.0745 21.785 27.8657 21.8247 27.753L21.4424 27.6181ZM21.3528 28.4006V34.5496H21.7583V28.4006H21.3528ZM21.7212 34.6664L26.2062 28.3094L25.8749 28.0757L21.3899 34.4327L21.7212 34.6664ZM26.2432 28.1856C26.2342 27.9258 26.1984 27.704 26.1179 27.5429L25.7552 27.7242C25.796 27.8058 25.8296 27.9566 25.8379 28.1995L26.2432 28.1856ZM26.1203 27.5478C26.0352 27.3654 25.8903 27.2401 25.698 27.1801L25.5771 27.5671C25.6621 27.5936 25.7166 27.6417 25.7528 27.7193L26.1203 27.5478ZM25.698 27.1801C25.5346 27.129 25.2974 27.0977 24.9995 27.0802L24.9757 27.4849C25.2671 27.5021 25.4632 27.5315 25.5771 27.5671L25.698 27.1801ZM25.1903 27.2826V27.0226H24.7848V27.2826H25.1903ZM24.9746 27.2249C25.3882 27.2513 25.9434 27.2643 26.6386 27.2643V26.8588C25.947 26.8588 25.4016 26.8458 25.0005 26.8202L24.9746 27.2249ZM26.6386 27.2643C27.3848 27.2643 27.9455 27.2513 28.317 27.2248L28.2881 26.8203C27.9317 26.8458 27.3829 26.8588 26.6386 26.8588V27.2643ZM28.0998 27.0226V27.2826H28.5053V27.0226H28.0998ZM35.1661 27.0616L35.09 27.2495V27.2495L35.1661 27.0616ZM36.2321 27.6856L36.3605 27.5286L36.3563 27.5253L36.2321 27.6856ZM36.8171 27.0226V26.8198H36.6336L36.6154 27.0024L36.8171 27.0226ZM37.1161 27.0226L37.3184 27.035L37.3317 26.8198H37.1161V27.0226ZM37.0641 30.0126V30.2153H37.2668V30.0126H37.0641ZM36.7651 30.0126L36.5652 30.0464L36.5938 30.2153H36.7651V30.0126ZM36.5051 28.8036L36.3115 28.8637L36.3121 28.8656L36.5051 28.8036ZM36.1151 28.0886L35.9544 28.2122L35.9574 28.2159L36.1151 28.0886ZM35.1141 27.3346L35.0332 27.5205L35.0381 27.5225L35.1141 27.3346ZM32.3321 27.6336L32.1984 27.4812L32.1968 27.4826L32.3321 27.6336ZM31.3571 29.2326L31.5489 29.2981L31.5492 29.2974L31.3571 29.2326ZM31.3831 34.0816L31.1931 34.1522V34.1522L31.3831 34.0816ZM32.4231 35.6286L32.296 35.7866L32.2995 35.7893L32.4231 35.6286ZM35.2051 35.9016L35.2811 36.0895V36.0895L35.2051 35.9016ZM36.1671 35.1606L36.0021 35.0427L36.0018 35.0431L36.1671 35.1606ZM36.5441 34.3806L36.7393 34.4355V34.4355L36.5441 34.3806ZM36.7651 33.1066V32.9038H36.5854L36.5638 33.0822L36.7651 33.1066ZM37.0641 33.1066H37.2668V32.9038H37.0641V33.1066ZM37.1161 36.2266V36.4293H37.3311L37.3185 36.2147L37.1161 36.2266ZM36.8171 36.2266L36.6152 36.2455L36.6325 36.4293H36.8171V36.2266ZM36.7001 35.6416L36.5092 35.7098L36.5122 35.7183L36.516 35.7265L36.7001 35.6416ZM36.2321 35.5636L36.1256 35.3905L36.1146 35.3983L36.2321 35.5636ZM35.1141 36.2006L35.1878 36.3895L35.1917 36.3878L35.1141 36.2006ZM31.6561 35.8496L31.5511 36.023L31.5521 36.0236L31.6561 35.8496ZM30.2131 34.2376L30.03 34.3246L30.0313 34.3273L30.2131 34.2376ZM30.2261 29.1676L30.0435 29.0795L30.0427 29.0812L30.2261 29.1676ZM31.6951 27.4516L31.5853 27.2811L31.5843 27.2818L31.6951 27.4516ZM33.8401 27.0433C34.342 27.0433 34.7566 27.1145 35.09 27.2495L35.2422 26.8736C34.8475 26.7139 34.3782 26.6378 33.8401 26.6378V27.0433ZM35.09 27.2495C35.4349 27.3891 35.7742 27.5872 36.1079 27.8458L36.3563 27.5253C35.9966 27.2466 35.6253 27.0287 35.2422 26.8736L35.09 27.2495ZM36.1037 27.8425C36.2101 27.9295 36.3384 28.0053 36.4791 28.0053V27.5998C36.4823 27.5998 36.4743 27.6006 36.4521 27.5901C36.43 27.5796 36.3995 27.5606 36.3605 27.5287L36.1037 27.8425ZM36.4791 28.0053C36.691 28.0053 36.8136 27.8404 36.8796 27.6882C36.9486 27.5291 36.9922 27.3091 37.0188 27.0427L36.6154 27.0024C36.59 27.256 36.5513 27.426 36.5076 27.527C36.4609 27.6347 36.4405 27.5998 36.4791 27.5998V28.0053ZM36.8171 27.2253H37.1161V26.8198H36.8171V27.2253ZM36.9137 27.0101C36.8786 27.5804 36.8614 28.5828 36.8614 30.0126H37.2668C37.2668 28.5823 37.2842 27.5914 37.3184 27.035L36.9137 27.0101ZM37.0641 29.8098H36.7651V30.2153H37.0641V29.8098ZM36.965 29.9787C36.8695 29.4146 36.7809 28.9992 36.6981 28.7415L36.3121 28.8656C36.3853 29.0933 36.47 29.4839 36.5652 30.0464L36.965 29.9787ZM36.6987 28.7435C36.6124 28.4653 36.4693 28.2045 36.2728 27.9612L35.9574 28.2159C36.1249 28.4233 36.2418 28.6392 36.3115 28.8637L36.6987 28.7435ZM36.2758 27.965C35.9931 27.5974 35.6298 27.3244 35.1901 27.1466L35.0381 27.5225C35.413 27.6741 35.7171 27.9037 35.9544 28.2122L36.2758 27.965ZM35.1949 27.1486C34.7688 26.9634 34.3077 26.8718 33.8141 26.8718V27.2773C34.2564 27.2773 34.662 27.3591 35.0333 27.5205L35.1949 27.1486ZM33.8141 26.8718C33.2014 26.8718 32.6599 27.0762 32.1984 27.4812L32.4658 27.7859C32.8536 27.4456 33.3001 27.2773 33.8141 27.2773V26.8718ZM32.1968 27.4826C31.7479 27.8847 31.4068 28.4512 31.165 29.1677L31.5492 29.2974C31.7754 28.6272 32.0843 28.1277 32.4674 27.7846L32.1968 27.4826ZM31.1652 29.167C30.9223 29.8778 30.8034 30.7069 30.8034 31.6506H31.2088C31.2088 30.7396 31.3239 29.9567 31.5489 29.2981L31.1652 29.167ZM30.8034 31.6506C30.8034 32.6123 30.9312 33.4478 31.1931 34.1522L31.5731 34.0109C31.3323 33.3633 31.2088 32.5782 31.2088 31.6506H30.8034ZM31.1931 34.1522C31.4537 34.8533 31.8188 35.4029 32.2961 35.7866L32.5501 35.4706C32.1434 35.1436 31.8151 34.6618 31.5731 34.0109L31.1931 34.1522ZM32.2995 35.7893C32.7852 36.1629 33.3356 36.3513 33.9441 36.3513V35.9458C33.4259 35.9458 32.9623 35.7875 32.5467 35.4679L32.2995 35.7893ZM33.9441 36.3513C34.4038 36.3513 34.8499 36.2638 35.2811 36.0895L35.1291 35.7136C34.7456 35.8686 34.351 35.9458 33.9441 35.9458V36.3513ZM35.2811 36.0895C35.721 35.9117 36.074 35.6416 36.3324 35.278L36.0018 35.0431C35.7922 35.3382 35.5038 35.5621 35.1291 35.7136L35.2811 36.0895ZM36.3321 35.2784C36.5185 35.0173 36.6547 34.7361 36.7393 34.4355L36.3489 34.3257C36.2775 34.5796 36.1623 34.8185 36.0021 35.0427L36.3321 35.2784ZM36.7393 34.4355C36.8216 34.1425 36.8967 33.7052 36.9664 33.131L36.5638 33.0822C36.4948 33.6519 36.4225 34.0639 36.3489 34.3257L36.7393 34.4355ZM36.7651 33.3093H37.0641V32.9038H36.7651V33.3093ZM36.8614 33.1066C36.8614 34.597 36.8786 35.6425 36.9137 36.2385L37.3185 36.2147C37.2842 35.632 37.2668 34.5974 37.2668 33.1066H36.8614ZM37.1161 36.0238H36.8171V36.4293H37.1161V36.0238ZM37.0189 36.2076C36.9928 35.9288 36.9519 35.7033 36.8842 35.5566L36.516 35.7265C36.5523 35.8052 36.5894 35.9697 36.6152 36.2455L37.0189 36.2076ZM36.891 35.5734C36.863 35.4949 36.8216 35.417 36.7572 35.3569C36.6882 35.2925 36.6012 35.2568 36.5051 35.2568V35.6623C36.5026 35.6623 36.4972 35.6617 36.4907 35.6592C36.4844 35.6566 36.481 35.6537 36.4805 35.6533C36.4804 35.6532 36.4838 35.6563 36.4893 35.6656C36.4949 35.675 36.5018 35.6892 36.5092 35.7098L36.891 35.5734ZM36.5051 35.2568C36.3774 35.2568 36.2461 35.3169 36.1258 35.3909L36.3383 35.7362C36.4434 35.6716 36.4942 35.6623 36.5051 35.6623V35.2568ZM36.1146 35.3983C35.7341 35.6689 35.3748 35.873 35.0364 36.0133L35.1917 36.3878C35.5641 36.2335 35.95 36.0129 36.3496 35.7288L36.1146 35.3983ZM35.0404 36.0117C34.7147 36.1388 34.3121 36.2058 33.8271 36.2058V36.6113C34.3474 36.6113 34.8028 36.5397 35.1878 36.3894L35.0404 36.0117ZM33.8271 36.2058C33.0354 36.2058 32.3486 36.027 31.76 35.6755L31.5521 36.0236C32.2116 36.4174 32.9721 36.6113 33.8271 36.6113V36.2058ZM31.7611 35.6761C31.1817 35.3252 30.726 34.8184 30.3949 34.1478L30.0313 34.3273C30.3935 35.0608 30.8998 35.6285 31.5511 36.023L31.7611 35.6761ZM30.3962 34.1505C30.0739 33.4728 29.9088 32.659 29.9088 31.7026H29.5034C29.5034 32.7048 29.6763 33.581 30.03 34.3246L30.3962 34.1505ZM29.9088 31.7026C29.9088 30.774 30.0776 29.9593 30.4095 29.2539L30.0427 29.0812C29.6813 29.8491 29.5034 30.7245 29.5034 31.7026H29.9088ZM30.4087 29.2556C30.7496 28.5489 31.2158 28.0065 31.8059 27.6213L31.5843 27.2818C30.9264 27.7113 30.4132 28.3129 30.0435 29.0795L30.4087 29.2556ZM31.8048 27.622C32.4028 27.237 33.0792 27.0433 33.8401 27.0433V26.6378C33.0063 26.6378 32.2527 26.8514 31.5853 27.2811L31.8048 27.622ZM49.0099 27.2826L49.0212 27.485L49.2126 27.4743V27.2826H49.0099ZM48.3209 27.3866L48.2534 27.1953L48.2497 27.1967L48.3209 27.3866ZM48.0349 27.6856L47.8437 27.6181V27.6181L48.0349 27.6856ZM48.0349 35.5636L47.8437 35.631V35.631L48.0349 35.5636ZM48.3209 35.8626L48.2497 36.0524L48.2534 36.0537L48.3209 35.8626ZM49.0099 35.9666H49.2126V35.7748L49.0212 35.7641L49.0099 35.9666ZM49.0099 36.2266L48.9967 36.4289L49.2126 36.443V36.2266H49.0099ZM45.6949 36.2266H45.4922V36.4443L45.7094 36.4288L45.6949 36.2266ZM45.6949 35.9666L45.6837 35.7641L45.4922 35.7748V35.9666H45.6949ZM46.3709 35.8626L46.3034 35.6713L46.2997 35.6727L46.3709 35.8626ZM46.6699 35.5636L46.8611 35.631L46.8611 35.631L46.6699 35.5636ZM46.7479 27.8806H46.9506L46.5579 27.8098L46.7479 27.8806ZM43.6149 36.2916V36.4943H43.7557L43.8049 36.3623L43.6149 36.2916ZM43.4069 36.2916L43.2179 36.3649L43.2681 36.4943H43.4069V36.2916ZM40.1309 27.8546L40.3199 27.7812L39.9282 27.8546H40.1309ZM40.2089 35.4726L40.0154 35.5337L40.0187 35.5427L40.2089 35.4726ZM40.5469 35.8366L40.46 36.02L40.4682 36.0234L40.5469 35.8366ZM41.3139 35.9666H41.5166V35.7737L41.324 35.7641L41.3139 35.9666ZM41.3139 36.2266L41.2971 36.4286L41.5166 36.4469V36.2266H41.3139ZM38.7789 36.2266H38.5762V36.4486L38.7973 36.4285L38.7789 36.2266ZM38.7789 35.9666L38.7673 35.7642L38.5762 35.7751V35.9666H38.7789ZM39.4549 35.8366L39.5413 36.0202L39.5498 36.0157L39.4549 35.8366ZM39.7539 35.4726L39.9473 35.5336L39.9481 35.5308L39.7539 35.4726ZM39.7539 27.6856L39.5627 27.753V27.753L39.7539 27.6856ZM39.4549 27.3866L39.3837 27.5764L39.3874 27.5777L39.4549 27.3866ZM38.7789 27.2826H38.5762V27.4743L38.7677 27.485L38.7789 27.2826ZM38.7789 27.0226L38.7973 26.8207L38.5762 26.8006V27.0226H38.7789ZM41.0929 27.0226L41.2824 26.9506L41.2278 26.8067L41.0746 26.8207L41.0929 27.0226ZM43.9529 34.5496L43.7634 34.6216L43.9546 35.1248L44.1428 34.6205L43.9529 34.5496ZM46.7479 27.0616V26.8588H46.6072L46.558 26.9907L46.7479 27.0616ZM49.0099 27.0226H49.2126V26.8062L48.9967 26.8203L49.0099 27.0226ZM48.9987 27.0801C48.6826 27.0977 48.4291 27.1334 48.2534 27.1954L48.3884 27.5777C48.5074 27.5357 48.7132 27.5021 49.0212 27.485L48.9987 27.0801ZM48.2497 27.1967C48.0515 27.2711 47.9144 27.4178 47.8437 27.6181L48.2261 27.753C48.2594 27.6587 48.313 27.6061 48.3921 27.5764L48.2497 27.1967ZM47.8437 27.6181C47.7795 27.8 47.7542 28.0679 47.7542 28.4006H48.1596C48.1596 28.0745 48.1863 27.8657 48.2261 27.753L47.8437 27.6181ZM47.7542 28.4006V34.8486H48.1596V28.4006H47.7542ZM47.7542 34.8486C47.7542 35.1812 47.7795 35.4491 47.8437 35.631L48.2261 35.4961C48.1863 35.3834 48.1596 35.1746 48.1596 34.8486H47.7542ZM47.8437 35.631C47.9144 35.8313 48.0515 35.9781 48.2497 36.0524L48.3921 35.6727C48.313 35.6431 48.2594 35.5905 48.2261 35.4961L47.8437 35.631ZM48.2534 36.0537C48.4291 36.1157 48.6826 36.1514 48.9987 36.169L49.0212 35.7641C48.7132 35.747 48.5074 35.7134 48.3884 35.6714L48.2534 36.0537ZM48.8072 35.9666V36.2266H49.2126V35.9666H48.8072ZM49.0231 36.0243C48.618 35.9978 48.0626 35.9848 47.3589 35.9848V36.3903C48.0593 36.3903 48.6045 36.4033 48.9967 36.4289L49.0231 36.0243ZM47.3589 35.9848C46.6126 35.9848 46.052 35.9978 45.6805 36.0243L45.7094 36.4288C46.0658 36.4033 46.6145 36.3903 47.3589 36.3903V35.9848ZM45.8976 36.2266V35.9666H45.4922V36.2266H45.8976ZM45.7062 36.169C46.0211 36.1515 46.2727 36.1159 46.4421 36.0524L46.2997 35.6727C46.1917 35.7132 45.9927 35.747 45.6837 35.7641L45.7062 36.169ZM46.4384 36.0537C46.6435 35.9813 46.7887 35.8362 46.8611 35.631L46.4787 35.4961C46.4471 35.5856 46.3929 35.6398 46.3034 35.6714L46.4384 36.0537ZM46.8611 35.631C46.9253 35.4491 46.9506 35.1812 46.9506 34.8486H46.5452C46.5452 35.1746 46.5185 35.3834 46.4787 35.4961L46.8611 35.631ZM46.9506 34.8486V27.8806H46.5452V34.8486H46.9506ZM46.5579 27.8098L43.4249 36.2208L43.8049 36.3623L46.9379 27.9513L46.5579 27.8098ZM43.6149 36.0888H43.4069V36.4943H43.6149V36.0888ZM43.5959 36.2182L40.3199 27.7812L39.9419 27.9279L43.2179 36.3649L43.5959 36.2182ZM39.9282 27.8546V34.7186H40.3336V27.8546H39.9282ZM39.9282 34.7186C39.9282 35.0614 39.9539 35.3383 40.0156 35.5336L40.4022 35.4115C40.3599 35.2775 40.3336 35.0517 40.3336 34.7186H39.9282ZM40.0187 35.5427C40.0985 35.7592 40.2495 35.92 40.4601 36.0198L40.6337 35.6533C40.5149 35.5971 40.4407 35.5153 40.3991 35.4025L40.0187 35.5427ZM40.4682 36.0234C40.6666 36.1069 40.9514 36.1514 41.3038 36.169L41.324 35.7641C40.983 35.747 40.7565 35.7048 40.6256 35.6497L40.4682 36.0234ZM41.1112 35.9666V36.2266H41.5166V35.9666H41.1112ZM41.3307 36.0245C41.0103 35.9978 40.5618 35.9848 39.9879 35.9848V36.3903C40.5581 36.3903 40.9935 36.4033 41.2971 36.4286L41.3307 36.0245ZM39.9879 35.9848C39.4658 35.9848 39.0557 35.9978 38.7606 36.0247L38.7973 36.4285C39.0741 36.4033 39.47 36.3903 39.9879 36.3903V35.9848ZM38.9816 36.2266V35.9666H38.5762V36.2266H38.9816ZM38.7905 36.169C39.1012 36.1512 39.3581 36.1062 39.5412 36.02L39.3686 35.6531C39.2571 35.7056 39.0633 35.7472 38.7673 35.7642L38.7905 36.169ZM39.5498 36.0157C39.746 35.9118 39.8798 35.747 39.9472 35.5336L39.5606 35.4115C39.524 35.5274 39.4585 35.6053 39.3601 35.6574L39.5498 36.0157ZM39.9481 35.5308C40.0086 35.3291 40.0346 35.0543 40.0346 34.7186H39.6292C39.6292 35.0415 39.6032 35.2694 39.5597 35.4143L39.9481 35.5308ZM40.0346 34.7186V28.4006H39.6292V34.7186H40.0346ZM40.0346 28.4006C40.0346 28.0679 40.0093 27.8 39.9451 27.6181L39.5627 27.753C39.6025 27.8657 39.6292 28.0745 39.6292 28.4006H40.0346ZM39.9451 27.6181C39.8727 27.4129 39.7275 27.2678 39.5224 27.1954L39.3874 27.5777C39.4769 27.6093 39.5311 27.6635 39.5627 27.753L39.9451 27.6181ZM39.5261 27.1967C39.3567 27.1332 39.1051 27.0976 38.7902 27.0801L38.7677 27.485C39.0767 27.5022 39.2757 27.5359 39.3837 27.5764L39.5261 27.1967ZM38.9816 27.2826V27.0226H38.5762V27.2826H38.9816ZM38.7606 27.2245C39.0557 27.2513 39.4658 27.2643 39.9879 27.2643V26.8588C39.47 26.8588 39.0741 26.8458 38.7973 26.8207L38.7606 27.2245ZM39.9879 27.2643C40.4417 27.2643 40.8168 27.2512 41.1113 27.2245L41.0746 26.8207C40.7971 26.8459 40.4355 26.8588 39.9879 26.8588V27.2643ZM40.9034 27.0946L43.7634 34.6216L44.1424 34.4776L41.2824 26.9506L40.9034 27.0946ZM44.1428 34.6205L46.9378 27.1325L46.558 26.9907L43.763 34.4787L44.1428 34.6205ZM46.7479 27.2643H47.3589V26.8588H46.7479V27.2643ZM47.3589 27.2643C48.0626 27.2643 48.618 27.2513 49.0231 27.2249L48.9967 26.8203C48.6045 26.8458 48.0593 26.8588 47.3589 26.8588V27.2643ZM48.8072 27.0226V27.2826H49.2126V27.0226H48.8072ZM56.7022 27.3996L56.5972 27.573L56.5982 27.5736L56.7022 27.3996ZM58.1452 29.0246L57.9621 29.1116L57.9634 29.1143L58.1452 29.0246ZM58.1322 34.0816L57.9496 33.9935L57.9488 33.9952L58.1322 34.0816ZM56.6632 35.7976L56.5534 35.6271L56.5524 35.6278L56.6632 35.7976ZM52.3602 35.8496L52.2552 36.023L52.2562 36.0236L52.3602 35.8496ZM50.9172 34.2376L50.7341 34.3246L50.7354 34.3273L50.9172 34.2376ZM50.9302 29.1676L50.7476 29.0795L50.7467 29.0812L50.9302 29.1676ZM52.3992 27.4516L52.2894 27.2811L52.2884 27.2818L52.3992 27.4516ZM53.0232 27.6596L53.1602 27.809L53.1603 27.8089L53.0232 27.6596ZM52.0482 29.2716L51.8561 29.2067L51.8554 29.2089L52.0482 29.2716ZM52.0872 34.0296L51.8969 34.0994L51.8977 34.1015L52.0872 34.0296ZM53.1272 35.6156L53.2594 35.4619V35.4619L53.1272 35.6156ZM56.0392 35.6026L56.1762 35.752L56.1763 35.7519L56.0392 35.6026ZM57.0142 33.9776L56.8221 33.9127L56.8214 33.9149L57.0142 33.9776ZM56.9752 29.2196L56.7849 29.2894L56.7857 29.2915L56.9752 29.2196ZM55.9482 27.6336L55.816 27.7873V27.7873L55.9482 27.6336ZM54.5442 27.0433C55.336 27.0433 56.0179 27.2221 56.5972 27.573L56.8072 27.2261C56.1558 26.8317 55.3991 26.6378 54.5442 26.6378V27.0433ZM56.5982 27.5736C57.185 27.924 57.6398 28.434 57.9621 29.1116L58.3283 28.9375C57.9746 28.1938 57.4674 27.6204 56.8061 27.2255L56.5982 27.5736ZM57.9634 29.1143C58.2933 29.7823 58.4625 30.5907 58.4625 31.5466H58.8679C58.8679 30.5437 58.6904 29.6708 58.327 28.9348L57.9634 29.1143ZM58.4625 31.5466C58.4625 32.4744 58.2896 33.2885 57.9496 33.9935L58.3148 34.1696C58.6854 33.4013 58.8679 32.5254 58.8679 31.5466H58.4625ZM57.9488 33.9952C57.6169 34.7004 57.1515 35.242 56.5534 35.6271L56.7729 35.968C57.4402 35.5384 57.9542 34.936 58.3156 34.1679L57.9488 33.9952ZM56.5524 35.6278C55.9637 36.0121 55.2921 36.2058 54.5312 36.2058V36.6113C55.365 36.6113 56.1147 36.3977 56.774 35.9673L56.5524 35.6278ZM54.5312 36.2058C53.7395 36.2058 53.0527 36.027 52.4641 35.6755L52.2562 36.0236C52.9157 36.4174 53.6762 36.6113 54.5312 36.6113V36.2058ZM52.4652 35.6761C51.8858 35.3252 51.4301 34.8184 51.099 34.1478L50.7354 34.3273C51.0976 35.0608 51.6039 35.6285 52.2552 36.023L52.4652 35.6761ZM51.1003 34.1505C50.778 33.4728 50.6129 32.659 50.6129 31.7026H50.2075C50.2075 32.7048 50.3804 33.581 50.7341 34.3246L51.1003 34.1505ZM50.6129 31.7026C50.6129 30.774 50.7817 29.9593 51.1136 29.2539L50.7467 29.0812C50.3854 29.8491 50.2075 30.7245 50.2075 31.7026H50.6129ZM51.1128 29.2556C51.4537 28.5489 51.9199 28.0065 52.51 27.6213L52.2884 27.2818C51.6305 27.7113 51.1173 28.3129 50.7476 29.0795L51.1128 29.2556ZM52.5089 27.622C53.1069 27.237 53.7833 27.0433 54.5442 27.0433V26.6378C53.7104 26.6378 52.9568 26.8514 52.2894 27.2811L52.5089 27.622ZM54.4922 26.8718C53.8846 26.8718 53.3465 27.0874 52.8861 27.5102L53.1603 27.8089C53.5492 27.4517 53.9905 27.2773 54.4922 27.2773V26.8718ZM52.8862 27.5101C52.4386 27.9204 52.0979 28.4903 51.8561 29.2067L52.2403 29.3364C52.4665 28.6661 52.7758 28.1614 53.1602 27.809L52.8862 27.5101ZM51.8554 29.2089C51.6222 29.9264 51.5075 30.7412 51.5075 31.6506H51.9129C51.9129 30.7746 52.0235 30.0034 52.241 29.3342L51.8554 29.2089ZM51.5075 31.6506C51.5075 32.5703 51.6356 33.3878 51.8969 34.0994L52.2775 33.9597C52.0361 33.302 51.9129 32.5335 51.9129 31.6506H51.5075ZM51.8977 34.1015C52.1664 34.8091 52.5298 35.3692 52.995 35.7693L53.2594 35.4619C52.8579 35.1166 52.528 34.6193 52.2767 33.9576L51.8977 34.1015ZM52.995 35.7693C53.4626 36.1714 53.9941 36.3773 54.5832 36.3773V35.9718C54.0976 35.9718 53.6585 35.8051 53.2594 35.4619L52.995 35.7693ZM54.5832 36.3773C55.1896 36.3773 55.7235 36.167 56.1762 35.752L55.9022 35.4531C55.5229 35.8008 55.0862 35.9718 54.5832 35.9718V36.3773ZM56.1763 35.7519C56.6326 35.3328 56.9737 34.7581 57.207 34.0402L56.8214 33.9149C56.604 34.5837 56.2951 35.0923 55.9021 35.4532L56.1763 35.7519ZM57.2063 34.0424C57.4487 33.3242 57.5679 32.5086 57.5679 31.5986H57.1625C57.1625 32.4739 57.0477 33.2443 56.8221 33.9127L57.2063 34.0424ZM57.5679 31.5986C57.5679 30.6781 57.4352 29.8599 57.1647 29.1476L56.7857 29.2915C57.0352 29.9486 57.1625 30.7163 57.1625 31.5986H57.5679ZM57.1655 29.1497C56.9055 28.4413 56.5462 27.8804 56.0804 27.4799L55.816 27.7873C56.2169 28.132 56.5422 28.6284 56.7849 29.2894L57.1655 29.1497ZM56.0804 27.4799C55.6128 27.0777 55.0813 26.8718 54.4922 26.8718V27.2773C54.9778 27.2773 55.4169 27.4441 55.816 27.7873L56.0804 27.4799Z" fill="#FEF5EB" mask="url(#path-5-outside-1_23632_22591)"/>
</g>
</g>
<defs>
<linearGradient id="paint0_linear_23632_22591" x1="34" y1="-1.04141e-05" x2="34" y2="68" gradientUnits="userSpaceOnUse">
<stop stop-color="#C93D34"/>
<stop offset="1" stop-color="#7A2629"/>
</linearGradient>
<linearGradient id="paint1_linear_23632_22591" x1="34" y1="-1.04141e-05" x2="34" y2="68" gradientUnits="userSpaceOnUse">
<stop stop-color="#C93D34"/>
<stop offset="1" stop-color="#7A2629"/>
</linearGradient>
<clipPath id="clip0_23632_22591">
<rect width="68" height="68" fill="white"/>
</clipPath>
</defs>
</svg>
