<svg width="68" height="68" viewBox="0 0 68 68" fill="none" xmlns="http://www.w3.org/2000/svg">
<g clip-path="url(#clip0_23632_22585)">
<mask id="mask0_23632_22585" style="mask-type:alpha" maskUnits="userSpaceOnUse" x="0" y="0" width="68" height="68">
<path fill-rule="evenodd" clip-rule="evenodd" d="M47.0333 0H20.9667C13.5811 0 8.89667 0.0377779 4.45778 4.45778C0.018889 8.89667 0 13.6 0 20.9667V47.0333C0 54.4189 0.0377779 59.1033 4.45778 63.5422C8.89667 67.9811 13.6 68 20.9667 68H47.0333C54.4189 68 59.1033 67.9811 63.5422 63.5422C67.9622 59.1033 68 54.4 68 47.0333V20.9667C68 13.5811 67.9622 8.89667 63.5422 4.45778C59.1033 0.018889 54.4 0 47.0333 0Z" fill="url(#paint0_linear_23632_22585)"/>
</mask>
<g mask="url(#mask0_23632_22585)">
<rect width="68" height="68" fill="url(#paint1_linear_23632_22585)"/>
<path fill-rule="evenodd" clip-rule="evenodd" d="M15.6212 64.3732C26.4256 64.3732 45.6357 64.3732 45.6357 64.3732C52.5868 64.3732 57.0823 64.6377 61.2379 60.4443C64.8079 56.8743 64.5057 50.8677 64.7323 46.1077C60.709 52.1521 53.3234 51.9443 47.619 51.9443C47.619 51.9443 20.929 51.9443 10.9556 51.9443C0.982316 51.9632 4.81676 64.3732 15.6212 64.3732Z" fill="#FEF5EB"/>
<path d="M12.4854 53.531H23.1387V61.521L17.812 58.8577L12.4854 61.521V53.531Z" fill="#F19C33"/>
<mask id="path-5-outside-1_23632_22585" maskUnits="userSpaceOnUse" x="9.10156" y="19.2266" width="50" height="12" fill="black">
<rect fill="white" x="9.10156" y="19.2266" width="50" height="12"/>
<path d="M14.2497 24.9906C15.2763 25.1306 16.009 25.4292 16.4477 25.8866C16.8863 26.3346 17.1057 26.8759 17.1057 27.5106C17.1057 28.0426 16.9703 28.5139 16.6997 28.9246C16.429 29.3352 16.0417 29.6572 15.5377 29.8906C15.0337 30.1146 14.4363 30.2266 13.7457 30.2266C13.4937 30.2266 13.279 30.2219 13.1017 30.2126C12.5043 30.1939 11.9163 30.1846 11.3377 30.1846C10.5723 30.1846 9.99367 30.1986 9.60167 30.2266V29.9466C9.93767 29.9279 10.1803 29.8906 10.3297 29.8346C10.4883 29.7786 10.5957 29.6712 10.6517 29.5126C10.7077 29.3539 10.7357 29.0972 10.7357 28.7426V21.7986C10.7357 21.4439 10.7077 21.1872 10.6517 21.0286C10.5957 20.8699 10.4883 20.7626 10.3297 20.7066C10.1803 20.6506 9.93767 20.6132 9.60167 20.5946V20.3146C9.99367 20.3426 10.563 20.3566 11.3097 20.3566L12.8217 20.3426C12.999 20.3332 13.1997 20.3286 13.4237 20.3286C14.3757 20.3286 15.1037 20.5292 15.6077 20.9306C16.121 21.3319 16.3777 21.8639 16.3777 22.5266C16.3777 23.0679 16.205 23.5532 15.8597 23.9826C15.5237 24.4119 14.987 24.7386 14.2497 24.9626V24.9906ZM13.0737 20.5946C12.7843 20.5946 12.565 20.6272 12.4157 20.6926C12.2757 20.7579 12.1777 20.8746 12.1217 21.0426C12.0657 21.2106 12.0377 21.4626 12.0377 21.7986V24.9626H12.9757C13.741 24.9626 14.273 24.7572 14.5717 24.3466C14.8797 23.9266 15.0337 23.3712 15.0337 22.6806C15.0337 21.9806 14.8797 21.4579 14.5717 21.1126C14.2637 20.7672 13.7643 20.5946 13.0737 20.5946ZM13.0877 29.9046C14.833 29.9046 15.7057 29.0879 15.7057 27.4546C15.7057 26.7172 15.505 26.1572 15.1037 25.7746C14.7117 25.3919 14.0817 25.2006 13.2137 25.2006H12.0377V28.7426C12.0377 29.0786 12.0657 29.3259 12.1217 29.4846C12.1777 29.6432 12.2757 29.7552 12.4157 29.8206C12.565 29.8766 12.789 29.9046 13.0877 29.9046ZM22.0643 20.5946C21.7283 20.6132 21.4809 20.6506 21.3223 20.7066C21.1729 20.7626 21.0703 20.8699 21.0143 21.0286C20.9583 21.1872 20.9303 21.4439 20.9303 21.7986V28.7426C20.9303 29.0972 20.9583 29.3539 21.0143 29.5126C21.0703 29.6712 21.1729 29.7786 21.3223 29.8346C21.4809 29.8906 21.7283 29.9279 22.0643 29.9466V30.2266C21.6349 30.1986 21.0423 30.1846 20.2863 30.1846C19.4836 30.1846 18.8863 30.1986 18.4943 30.2266V29.9466C18.8303 29.9279 19.0729 29.8906 19.2223 29.8346C19.3809 29.7786 19.4883 29.6712 19.5443 29.5126C19.6003 29.3539 19.6283 29.0972 19.6283 28.7426V21.7986C19.6283 21.4439 19.6003 21.1872 19.5443 21.0286C19.4883 20.8699 19.3809 20.7626 19.2223 20.7066C19.0729 20.6506 18.8303 20.6132 18.4943 20.5946V20.3146C18.8863 20.3426 19.4836 20.3566 20.2863 20.3566C21.0329 20.3566 21.6256 20.3426 22.0643 20.3146V20.5946ZM28.152 24.9906C29.1787 25.1306 29.9113 25.4292 30.35 25.8866C30.7887 26.3346 31.008 26.8759 31.008 27.5106C31.008 28.0426 30.8727 28.5139 30.602 28.9246C30.3313 29.3352 29.944 29.6572 29.44 29.8906C28.936 30.1146 28.3387 30.2266 27.648 30.2266C27.396 30.2266 27.1813 30.2219 27.004 30.2126C26.4067 30.1939 25.8187 30.1846 25.24 30.1846C24.4747 30.1846 23.896 30.1986 23.504 30.2266V29.9466C23.84 29.9279 24.0827 29.8906 24.232 29.8346C24.3907 29.7786 24.498 29.6712 24.554 29.5126C24.61 29.3539 24.638 29.0972 24.638 28.7426V21.7986C24.638 21.4439 24.61 21.1872 24.554 21.0286C24.498 20.8699 24.3907 20.7626 24.232 20.7066C24.0827 20.6506 23.84 20.6132 23.504 20.5946V20.3146C23.896 20.3426 24.4653 20.3566 25.212 20.3566L26.724 20.3426C26.9013 20.3332 27.102 20.3286 27.326 20.3286C28.278 20.3286 29.006 20.5292 29.51 20.9306C30.0233 21.3319 30.28 21.8639 30.28 22.5266C30.28 23.0679 30.1073 23.5532 29.762 23.9826C29.426 24.4119 28.8893 24.7386 28.152 24.9626V24.9906ZM26.976 20.5946C26.6867 20.5946 26.4673 20.6272 26.318 20.6926C26.178 20.7579 26.08 20.8746 26.024 21.0426C25.968 21.2106 25.94 21.4626 25.94 21.7986V24.9626H26.878C27.6433 24.9626 28.1753 24.7572 28.474 24.3466C28.782 23.9266 28.936 23.3712 28.936 22.6806C28.936 21.9806 28.782 21.4579 28.474 21.1126C28.166 20.7672 27.6667 20.5946 26.976 20.5946ZM26.99 29.9046C28.7353 29.9046 29.608 29.0879 29.608 27.4546C29.608 26.7172 29.4073 26.1572 29.006 25.7746C28.614 25.3919 27.984 25.2006 27.116 25.2006H25.94V28.7426C25.94 29.0786 25.968 29.3259 26.024 29.4846C26.08 29.6432 26.178 29.7552 26.318 29.8206C26.4673 29.8766 26.6913 29.9046 26.99 29.9046ZM39.5646 28.4346C39.5646 28.9666 39.5973 29.5639 39.6626 30.2266C39.0279 30.1986 37.9593 30.1846 36.4566 30.1846C34.6646 30.1846 33.3113 30.1986 32.3966 30.2266V29.9466C32.7326 29.9279 32.9753 29.8906 33.1246 29.8346C33.2833 29.7786 33.3906 29.6712 33.4466 29.5126C33.5026 29.3539 33.5306 29.0972 33.5306 28.7426V21.7986C33.5306 21.4439 33.5026 21.1872 33.4466 21.0286C33.3906 20.8699 33.2833 20.7626 33.1246 20.7066C32.9753 20.6506 32.7326 20.6132 32.3966 20.5946V20.3146C33.3113 20.3426 34.6646 20.3566 36.4566 20.3566C37.8286 20.3566 38.8039 20.3426 39.3826 20.3146C39.3173 20.9306 39.2846 21.4812 39.2846 21.9666C39.2846 22.3306 39.2986 22.6199 39.3266 22.8346H39.0046C38.9393 22.2279 38.8553 21.7799 38.7526 21.4906C38.6499 21.1919 38.4773 20.9772 38.2346 20.8466C37.9919 20.7066 37.6233 20.6366 37.1286 20.6366H35.9666C35.6306 20.6366 35.3833 20.6646 35.2246 20.7206C35.0753 20.7672 34.9726 20.8699 34.9166 21.0286C34.8606 21.1872 34.8326 21.4439 34.8326 21.7986V25.1026H35.7566C36.0833 25.1026 36.3353 25.0279 36.5126 24.8786C36.6899 24.7199 36.8066 24.5379 36.8626 24.3326C36.9279 24.1179 36.9793 23.8519 37.0166 23.5346L37.0586 23.2546H37.3806C37.3526 23.6466 37.3386 24.0852 37.3386 24.5706V25.2426C37.3386 25.7186 37.3666 26.3812 37.4226 27.2306H37.1006C37.0913 27.1652 37.0633 26.9412 37.0166 26.5586C36.9699 26.1666 36.8393 25.8726 36.6246 25.6766C36.4193 25.4806 36.1299 25.3826 35.7566 25.3826H34.8326V28.7426C34.8326 29.0972 34.8606 29.3539 34.9166 29.5126C34.9726 29.6712 35.0753 29.7786 35.2246 29.8346C35.3833 29.8812 35.6306 29.9046 35.9666 29.9046H36.9886C37.5673 29.9046 38.0059 29.8299 38.3046 29.6806C38.6126 29.5219 38.8366 29.2746 38.9766 28.9386C39.1166 28.5932 39.2193 28.0892 39.2846 27.4266H39.6066C39.5786 27.6786 39.5646 28.0146 39.5646 28.4346ZM44.7635 20.5946C44.4275 20.6132 44.1801 20.6506 44.0215 20.7066C43.8721 20.7626 43.7695 20.8699 43.7135 21.0286C43.6575 21.1872 43.6295 21.4439 43.6295 21.7986V28.7426C43.6295 29.0972 43.6575 29.3539 43.7135 29.5126C43.7695 29.6712 43.8721 29.7786 44.0215 29.8346C44.1801 29.8812 44.4275 29.9046 44.7635 29.9046H45.7855C46.3641 29.9046 46.8028 29.8252 47.1015 29.6666C47.4095 29.4986 47.6335 29.2326 47.7735 28.8686C47.9135 28.5046 48.0161 27.9772 48.0815 27.2866H48.4035C48.3755 27.5759 48.3615 27.9586 48.3615 28.4346C48.3615 28.9666 48.3941 29.5639 48.4595 30.2266C47.8248 30.1986 46.7561 30.1846 45.2535 30.1846C43.4615 30.1846 42.1081 30.1986 41.1935 30.2266V29.9466C41.5295 29.9279 41.7721 29.8906 41.9215 29.8346C42.0801 29.7786 42.1875 29.6712 42.2435 29.5126C42.2995 29.3539 42.3275 29.0972 42.3275 28.7426V21.7986C42.3275 21.4439 42.2995 21.1872 42.2435 21.0286C42.1875 20.8699 42.0801 20.7626 41.9215 20.7066C41.7721 20.6506 41.5295 20.6132 41.1935 20.5946V20.3146C41.5855 20.3426 42.1828 20.3566 42.9855 20.3566C43.7321 20.3566 44.3248 20.3426 44.7635 20.3146V20.5946ZM58.4816 20.5946C58.1549 20.6132 57.9122 20.6646 57.7536 20.7486C57.5949 20.8232 57.4876 20.9539 57.4316 21.1406C57.3756 21.3179 57.3476 21.5839 57.3476 21.9386V30.2966H57.0256L51.1456 21.2106V28.6026C51.1456 28.9666 51.1736 29.2372 51.2296 29.4146C51.2949 29.5919 51.4162 29.7226 51.5936 29.8066C51.7709 29.8812 52.0462 29.9279 52.4196 29.9466V30.2266C52.0836 30.1986 51.6076 30.1846 50.9916 30.1846C50.4316 30.1846 49.9976 30.1986 49.6896 30.2266V29.9466C50.0162 29.9279 50.2589 29.8812 50.4176 29.8066C50.5762 29.7226 50.6836 29.5919 50.7396 29.4146C50.7956 29.2279 50.8236 28.9572 50.8236 28.6026V21.7986C50.8236 21.4439 50.7956 21.1872 50.7396 21.0286C50.6836 20.8699 50.5762 20.7626 50.4176 20.7066C50.2682 20.6506 50.0256 20.6132 49.6896 20.5946V20.3146C49.9976 20.3426 50.4316 20.3566 50.9916 20.3566C51.4116 20.3566 51.7756 20.3426 52.0836 20.3146L57.0256 27.9306V21.9386C57.0256 21.5746 56.9929 21.3039 56.9276 21.1266C56.8716 20.9492 56.7549 20.8232 56.5776 20.7486C56.4002 20.6646 56.1249 20.6132 55.7516 20.5946V20.3146C56.0876 20.3426 56.5636 20.3566 57.1796 20.3566C57.7396 20.3566 58.1736 20.3426 58.4816 20.3146V20.5946Z"/>
</mask>
<path d="M14.2497 24.9906C15.2763 25.1306 16.009 25.4292 16.4477 25.8866C16.8863 26.3346 17.1057 26.8759 17.1057 27.5106C17.1057 28.0426 16.9703 28.5139 16.6997 28.9246C16.429 29.3352 16.0417 29.6572 15.5377 29.8906C15.0337 30.1146 14.4363 30.2266 13.7457 30.2266C13.4937 30.2266 13.279 30.2219 13.1017 30.2126C12.5043 30.1939 11.9163 30.1846 11.3377 30.1846C10.5723 30.1846 9.99367 30.1986 9.60167 30.2266V29.9466C9.93767 29.9279 10.1803 29.8906 10.3297 29.8346C10.4883 29.7786 10.5957 29.6712 10.6517 29.5126C10.7077 29.3539 10.7357 29.0972 10.7357 28.7426V21.7986C10.7357 21.4439 10.7077 21.1872 10.6517 21.0286C10.5957 20.8699 10.4883 20.7626 10.3297 20.7066C10.1803 20.6506 9.93767 20.6132 9.60167 20.5946V20.3146C9.99367 20.3426 10.563 20.3566 11.3097 20.3566L12.8217 20.3426C12.999 20.3332 13.1997 20.3286 13.4237 20.3286C14.3757 20.3286 15.1037 20.5292 15.6077 20.9306C16.121 21.3319 16.3777 21.8639 16.3777 22.5266C16.3777 23.0679 16.205 23.5532 15.8597 23.9826C15.5237 24.4119 14.987 24.7386 14.2497 24.9626V24.9906ZM13.0737 20.5946C12.7843 20.5946 12.565 20.6272 12.4157 20.6926C12.2757 20.7579 12.1777 20.8746 12.1217 21.0426C12.0657 21.2106 12.0377 21.4626 12.0377 21.7986V24.9626H12.9757C13.741 24.9626 14.273 24.7572 14.5717 24.3466C14.8797 23.9266 15.0337 23.3712 15.0337 22.6806C15.0337 21.9806 14.8797 21.4579 14.5717 21.1126C14.2637 20.7672 13.7643 20.5946 13.0737 20.5946ZM13.0877 29.9046C14.833 29.9046 15.7057 29.0879 15.7057 27.4546C15.7057 26.7172 15.505 26.1572 15.1037 25.7746C14.7117 25.3919 14.0817 25.2006 13.2137 25.2006H12.0377V28.7426C12.0377 29.0786 12.0657 29.3259 12.1217 29.4846C12.1777 29.6432 12.2757 29.7552 12.4157 29.8206C12.565 29.8766 12.789 29.9046 13.0877 29.9046ZM22.0643 20.5946C21.7283 20.6132 21.4809 20.6506 21.3223 20.7066C21.1729 20.7626 21.0703 20.8699 21.0143 21.0286C20.9583 21.1872 20.9303 21.4439 20.9303 21.7986V28.7426C20.9303 29.0972 20.9583 29.3539 21.0143 29.5126C21.0703 29.6712 21.1729 29.7786 21.3223 29.8346C21.4809 29.8906 21.7283 29.9279 22.0643 29.9466V30.2266C21.6349 30.1986 21.0423 30.1846 20.2863 30.1846C19.4836 30.1846 18.8863 30.1986 18.4943 30.2266V29.9466C18.8303 29.9279 19.0729 29.8906 19.2223 29.8346C19.3809 29.7786 19.4883 29.6712 19.5443 29.5126C19.6003 29.3539 19.6283 29.0972 19.6283 28.7426V21.7986C19.6283 21.4439 19.6003 21.1872 19.5443 21.0286C19.4883 20.8699 19.3809 20.7626 19.2223 20.7066C19.0729 20.6506 18.8303 20.6132 18.4943 20.5946V20.3146C18.8863 20.3426 19.4836 20.3566 20.2863 20.3566C21.0329 20.3566 21.6256 20.3426 22.0643 20.3146V20.5946ZM28.152 24.9906C29.1787 25.1306 29.9113 25.4292 30.35 25.8866C30.7887 26.3346 31.008 26.8759 31.008 27.5106C31.008 28.0426 30.8727 28.5139 30.602 28.9246C30.3313 29.3352 29.944 29.6572 29.44 29.8906C28.936 30.1146 28.3387 30.2266 27.648 30.2266C27.396 30.2266 27.1813 30.2219 27.004 30.2126C26.4067 30.1939 25.8187 30.1846 25.24 30.1846C24.4747 30.1846 23.896 30.1986 23.504 30.2266V29.9466C23.84 29.9279 24.0827 29.8906 24.232 29.8346C24.3907 29.7786 24.498 29.6712 24.554 29.5126C24.61 29.3539 24.638 29.0972 24.638 28.7426V21.7986C24.638 21.4439 24.61 21.1872 24.554 21.0286C24.498 20.8699 24.3907 20.7626 24.232 20.7066C24.0827 20.6506 23.84 20.6132 23.504 20.5946V20.3146C23.896 20.3426 24.4653 20.3566 25.212 20.3566L26.724 20.3426C26.9013 20.3332 27.102 20.3286 27.326 20.3286C28.278 20.3286 29.006 20.5292 29.51 20.9306C30.0233 21.3319 30.28 21.8639 30.28 22.5266C30.28 23.0679 30.1073 23.5532 29.762 23.9826C29.426 24.4119 28.8893 24.7386 28.152 24.9626V24.9906ZM26.976 20.5946C26.6867 20.5946 26.4673 20.6272 26.318 20.6926C26.178 20.7579 26.08 20.8746 26.024 21.0426C25.968 21.2106 25.94 21.4626 25.94 21.7986V24.9626H26.878C27.6433 24.9626 28.1753 24.7572 28.474 24.3466C28.782 23.9266 28.936 23.3712 28.936 22.6806C28.936 21.9806 28.782 21.4579 28.474 21.1126C28.166 20.7672 27.6667 20.5946 26.976 20.5946ZM26.99 29.9046C28.7353 29.9046 29.608 29.0879 29.608 27.4546C29.608 26.7172 29.4073 26.1572 29.006 25.7746C28.614 25.3919 27.984 25.2006 27.116 25.2006H25.94V28.7426C25.94 29.0786 25.968 29.3259 26.024 29.4846C26.08 29.6432 26.178 29.7552 26.318 29.8206C26.4673 29.8766 26.6913 29.9046 26.99 29.9046ZM39.5646 28.4346C39.5646 28.9666 39.5973 29.5639 39.6626 30.2266C39.0279 30.1986 37.9593 30.1846 36.4566 30.1846C34.6646 30.1846 33.3113 30.1986 32.3966 30.2266V29.9466C32.7326 29.9279 32.9753 29.8906 33.1246 29.8346C33.2833 29.7786 33.3906 29.6712 33.4466 29.5126C33.5026 29.3539 33.5306 29.0972 33.5306 28.7426V21.7986C33.5306 21.4439 33.5026 21.1872 33.4466 21.0286C33.3906 20.8699 33.2833 20.7626 33.1246 20.7066C32.9753 20.6506 32.7326 20.6132 32.3966 20.5946V20.3146C33.3113 20.3426 34.6646 20.3566 36.4566 20.3566C37.8286 20.3566 38.8039 20.3426 39.3826 20.3146C39.3173 20.9306 39.2846 21.4812 39.2846 21.9666C39.2846 22.3306 39.2986 22.6199 39.3266 22.8346H39.0046C38.9393 22.2279 38.8553 21.7799 38.7526 21.4906C38.6499 21.1919 38.4773 20.9772 38.2346 20.8466C37.9919 20.7066 37.6233 20.6366 37.1286 20.6366H35.9666C35.6306 20.6366 35.3833 20.6646 35.2246 20.7206C35.0753 20.7672 34.9726 20.8699 34.9166 21.0286C34.8606 21.1872 34.8326 21.4439 34.8326 21.7986V25.1026H35.7566C36.0833 25.1026 36.3353 25.0279 36.5126 24.8786C36.6899 24.7199 36.8066 24.5379 36.8626 24.3326C36.9279 24.1179 36.9793 23.8519 37.0166 23.5346L37.0586 23.2546H37.3806C37.3526 23.6466 37.3386 24.0852 37.3386 24.5706V25.2426C37.3386 25.7186 37.3666 26.3812 37.4226 27.2306H37.1006C37.0913 27.1652 37.0633 26.9412 37.0166 26.5586C36.9699 26.1666 36.8393 25.8726 36.6246 25.6766C36.4193 25.4806 36.1299 25.3826 35.7566 25.3826H34.8326V28.7426C34.8326 29.0972 34.8606 29.3539 34.9166 29.5126C34.9726 29.6712 35.0753 29.7786 35.2246 29.8346C35.3833 29.8812 35.6306 29.9046 35.9666 29.9046H36.9886C37.5673 29.9046 38.0059 29.8299 38.3046 29.6806C38.6126 29.5219 38.8366 29.2746 38.9766 28.9386C39.1166 28.5932 39.2193 28.0892 39.2846 27.4266H39.6066C39.5786 27.6786 39.5646 28.0146 39.5646 28.4346ZM44.7635 20.5946C44.4275 20.6132 44.1801 20.6506 44.0215 20.7066C43.8721 20.7626 43.7695 20.8699 43.7135 21.0286C43.6575 21.1872 43.6295 21.4439 43.6295 21.7986V28.7426C43.6295 29.0972 43.6575 29.3539 43.7135 29.5126C43.7695 29.6712 43.8721 29.7786 44.0215 29.8346C44.1801 29.8812 44.4275 29.9046 44.7635 29.9046H45.7855C46.3641 29.9046 46.8028 29.8252 47.1015 29.6666C47.4095 29.4986 47.6335 29.2326 47.7735 28.8686C47.9135 28.5046 48.0161 27.9772 48.0815 27.2866H48.4035C48.3755 27.5759 48.3615 27.9586 48.3615 28.4346C48.3615 28.9666 48.3941 29.5639 48.4595 30.2266C47.8248 30.1986 46.7561 30.1846 45.2535 30.1846C43.4615 30.1846 42.1081 30.1986 41.1935 30.2266V29.9466C41.5295 29.9279 41.7721 29.8906 41.9215 29.8346C42.0801 29.7786 42.1875 29.6712 42.2435 29.5126C42.2995 29.3539 42.3275 29.0972 42.3275 28.7426V21.7986C42.3275 21.4439 42.2995 21.1872 42.2435 21.0286C42.1875 20.8699 42.0801 20.7626 41.9215 20.7066C41.7721 20.6506 41.5295 20.6132 41.1935 20.5946V20.3146C41.5855 20.3426 42.1828 20.3566 42.9855 20.3566C43.7321 20.3566 44.3248 20.3426 44.7635 20.3146V20.5946ZM58.4816 20.5946C58.1549 20.6132 57.9122 20.6646 57.7536 20.7486C57.5949 20.8232 57.4876 20.9539 57.4316 21.1406C57.3756 21.3179 57.3476 21.5839 57.3476 21.9386V30.2966H57.0256L51.1456 21.2106V28.6026C51.1456 28.9666 51.1736 29.2372 51.2296 29.4146C51.2949 29.5919 51.4162 29.7226 51.5936 29.8066C51.7709 29.8812 52.0462 29.9279 52.4196 29.9466V30.2266C52.0836 30.1986 51.6076 30.1846 50.9916 30.1846C50.4316 30.1846 49.9976 30.1986 49.6896 30.2266V29.9466C50.0162 29.9279 50.2589 29.8812 50.4176 29.8066C50.5762 29.7226 50.6836 29.5919 50.7396 29.4146C50.7956 29.2279 50.8236 28.9572 50.8236 28.6026V21.7986C50.8236 21.4439 50.7956 21.1872 50.7396 21.0286C50.6836 20.8699 50.5762 20.7626 50.4176 20.7066C50.2682 20.6506 50.0256 20.6132 49.6896 20.5946V20.3146C49.9976 20.3426 50.4316 20.3566 50.9916 20.3566C51.4116 20.3566 51.7756 20.3426 52.0836 20.3146L57.0256 27.9306V21.9386C57.0256 21.5746 56.9929 21.3039 56.9276 21.1266C56.8716 20.9492 56.7549 20.8232 56.5776 20.7486C56.4002 20.6646 56.1249 20.6132 55.7516 20.5946V20.3146C56.0876 20.3426 56.5636 20.3566 57.1796 20.3566C57.7396 20.3566 58.1736 20.3426 58.4816 20.3146V20.5946Z" fill="#FEF5EB"/>
<path d="M14.2497 24.9906H14.0469V25.1675L14.2223 25.1914L14.2497 24.9906ZM16.4477 25.8866L16.3014 26.0269L16.3028 26.0284L16.4477 25.8866ZM16.6997 28.9246L16.8689 29.0361V29.0361L16.6997 28.9246ZM15.5377 29.8906L15.62 30.0758L15.6228 30.0745L15.5377 29.8906ZM13.1017 30.2126L13.1123 30.0101L13.108 30.0099L13.1017 30.2126ZM9.60167 30.2266H9.39894V30.4443L9.61612 30.4288L9.60167 30.2266ZM9.60167 29.9466L9.59043 29.7441L9.39894 29.7548V29.9466H9.60167ZM10.3297 29.8346L10.2622 29.6433L10.2585 29.6447L10.3297 29.8346ZM10.6517 21.0286L10.4605 21.096V21.096L10.6517 21.0286ZM10.3297 20.7066L10.2585 20.8964L10.2622 20.8977L10.3297 20.7066ZM9.60167 20.5946H9.39894V20.7863L9.59043 20.797L9.60167 20.5946ZM9.60167 20.3146L9.61612 20.1123L9.39894 20.0968V20.3146H9.60167ZM11.3097 20.3566V20.5593L11.3115 20.5593L11.3097 20.3566ZM12.8217 20.3426L12.8236 20.5455L12.8323 20.545L12.8217 20.3426ZM15.6077 20.9306L15.4814 21.0892L15.4828 21.0903L15.6077 20.9306ZM15.8597 23.9826L15.7017 23.8555L15.7 23.8576L15.8597 23.9826ZM14.2497 24.9626L14.1907 24.7686L14.0469 24.8123V24.9626H14.2497ZM12.4157 20.6926L12.3344 20.5068L12.3299 20.5088L12.4157 20.6926ZM12.1217 21.0426L12.314 21.1067V21.1067L12.1217 21.0426ZM12.0377 24.9626H11.8349V25.1653H12.0377V24.9626ZM14.5717 24.3466L14.4082 24.2267L14.4077 24.2273L14.5717 24.3466ZM15.1037 25.7746L14.962 25.9196L14.9638 25.9213L15.1037 25.7746ZM12.0377 25.2006V24.9978H11.8349V25.2006H12.0377ZM12.1217 29.4846L12.3129 29.4171V29.4171L12.1217 29.4846ZM12.4157 29.8206L12.3299 30.0043L12.3371 30.0076L12.3445 30.0104L12.4157 29.8206ZM14.2223 25.1914C15.2302 25.3289 15.909 25.6178 16.3014 26.0269L16.594 25.7462C16.1091 25.2407 15.3225 24.9322 14.2771 24.7897L14.2223 25.1914ZM16.3028 26.0284C16.7039 26.438 16.9029 26.9282 16.9029 27.5106H17.3084C17.3084 26.8236 17.0688 26.2311 16.5925 25.7447L16.3028 26.0284ZM16.9029 27.5106C16.9029 28.0063 16.7774 28.4382 16.5304 28.813L16.8689 29.0361C17.1632 28.5896 17.3084 28.0788 17.3084 27.5106H16.9029ZM16.5304 28.813C16.2831 29.1882 15.9268 29.487 15.4525 29.7066L15.6228 30.0745C16.1565 29.8275 16.5749 29.4822 16.8689 29.0361L16.5304 28.813ZM15.4553 29.7053C14.9829 29.9153 14.4149 30.0238 13.7457 30.0238V30.4293C14.4578 30.4293 15.0844 30.3139 15.62 30.0758L15.4553 29.7053ZM13.7457 30.0238C13.4959 30.0238 13.285 30.0192 13.1123 30.0101L13.091 30.415C13.273 30.4246 13.4915 30.4293 13.7457 30.4293V30.0238ZM13.108 30.0099C12.5086 29.9912 11.9185 29.9818 11.3377 29.9818V30.3873C11.9142 30.3873 12.5 30.3966 13.0953 30.4152L13.108 30.0099ZM11.3377 29.9818C10.5711 29.9818 9.98663 29.9958 9.58723 30.0243L9.61612 30.4288C10.0007 30.4013 10.5736 30.3873 11.3377 30.3873V29.9818ZM9.80441 30.2266V29.9466H9.39894V30.2266H9.80441ZM9.61292 30.149C9.9519 30.1302 10.2208 30.0919 10.4009 30.0244L10.2585 29.6447C10.1398 29.6892 9.92344 29.7256 9.59043 29.7441L9.61292 30.149ZM10.3971 30.0257C10.6136 29.9493 10.7664 29.7965 10.8429 29.58L10.4605 29.4451C10.4249 29.5459 10.363 29.6078 10.2622 29.6434L10.3971 30.0257ZM10.8429 29.58C10.9111 29.3867 10.9384 29.1005 10.9384 28.7426H10.5329C10.5329 29.0939 10.5043 29.3211 10.4605 29.4451L10.8429 29.58ZM10.9384 28.7426V21.7986H10.5329V28.7426H10.9384ZM10.9384 21.7986C10.9384 21.4406 10.9111 21.1544 10.8429 20.9611L10.4605 21.096C10.5043 21.2201 10.5329 21.4472 10.5329 21.7986H10.9384ZM10.8429 20.9611C10.7664 20.7446 10.6136 20.5918 10.3971 20.5154L10.2622 20.8977C10.363 20.9333 10.4249 20.9952 10.4605 21.096L10.8429 20.9611ZM10.4009 20.5167C10.2208 20.4492 9.9519 20.411 9.61292 20.3921L9.59043 20.797C9.92344 20.8155 10.1398 20.8519 10.2585 20.8964L10.4009 20.5167ZM9.80441 20.5946V20.3146H9.39894V20.5946H9.80441ZM9.58723 20.5168C9.98656 20.5453 10.5616 20.5593 11.3097 20.5593V20.1538C10.5644 20.1538 10.0008 20.1398 9.61612 20.1123L9.58723 20.5168ZM11.3115 20.5593L12.8235 20.5453L12.8198 20.1398L11.3078 20.1538L11.3115 20.5593ZM12.8323 20.545C13.0053 20.5359 13.2024 20.5313 13.4237 20.5313V20.1258C13.197 20.1258 12.9927 20.1305 12.811 20.1401L12.8323 20.545ZM13.4237 20.5313C14.3509 20.5313 15.0269 20.7272 15.4814 21.0892L15.734 20.772C15.1805 20.3312 14.4004 20.1258 13.4237 20.1258V20.5313ZM15.4828 21.0903C15.946 21.4524 16.1749 21.925 16.1749 22.5266H16.5804C16.5804 21.8028 16.296 21.2114 15.7325 20.7708L15.4828 21.0903ZM16.1749 22.5266C16.1749 23.0208 16.0186 23.4615 15.7017 23.8555L16.0176 24.1096C16.3914 23.645 16.5804 23.115 16.5804 22.5266H16.1749ZM15.7 23.8576C15.3983 24.2431 14.9041 24.5519 14.1907 24.7686L14.3086 25.1565C15.0699 24.9253 15.649 24.5807 16.0193 24.1075L15.7 23.8576ZM14.0469 24.9626V24.9906H14.4524V24.9626H14.0469ZM13.0737 20.3918C12.7747 20.3918 12.5221 20.4247 12.3344 20.5068L12.4969 20.8783C12.6079 20.8297 12.794 20.7973 13.0737 20.7973V20.3918ZM12.3299 20.5088C12.1319 20.6012 12.0001 20.7661 11.9293 20.9785L12.314 21.1067C12.3552 20.983 12.4194 20.9145 12.5014 20.8763L12.3299 20.5088ZM11.9293 20.9785C11.8628 21.1781 11.8349 21.4566 11.8349 21.7986H12.2404C12.2404 21.4685 12.2686 21.243 12.314 21.1067L11.9293 20.9785ZM11.8349 21.7986V24.9626H12.2404V21.7986H11.8349ZM12.0377 25.1653H12.9757V24.7598H12.0377V25.1653ZM12.9757 25.1653C13.7716 25.1653 14.3824 24.9515 14.7356 24.4658L14.4077 24.2273C14.1636 24.5629 13.7104 24.7598 12.9757 24.7598V25.1653ZM14.7352 24.4665C15.0758 24.0019 15.2364 23.4004 15.2364 22.6806H14.8309C14.8309 23.3421 14.6835 23.8512 14.4082 24.2267L14.7352 24.4665ZM15.2364 22.6806C15.2364 21.9555 15.0775 21.3751 14.723 20.9776L14.4204 21.2475C14.6818 21.5407 14.8309 22.0056 14.8309 22.6806H15.2364ZM14.723 20.9776C14.3608 20.5716 13.7934 20.3918 13.0737 20.3918V20.7973C13.7353 20.7973 14.1665 20.9629 14.4204 21.2475L14.723 20.9776ZM13.0877 30.1073C13.9884 30.1073 14.7016 29.8968 15.1897 29.4401C15.6803 28.981 15.9084 28.306 15.9084 27.4546H15.5029C15.5029 28.2364 15.2947 28.7865 14.9126 29.144C14.528 29.504 13.9323 29.7018 13.0877 29.7018V30.1073ZM15.9084 27.4546C15.9084 26.6808 15.697 26.0602 15.2436 25.6278L14.9638 25.9213C15.313 26.2543 15.5029 26.7536 15.5029 27.4546H15.9084ZM15.2453 25.6295C14.7984 25.1933 14.1048 24.9978 13.2137 24.9978V25.4033C14.0585 25.4033 14.6249 25.5905 14.9621 25.9196L15.2453 25.6295ZM13.2137 24.9978H12.0377V25.4033H13.2137V24.9978ZM11.8349 25.2006V28.7426H12.2404V25.2006H11.8349ZM11.8349 28.7426C11.8349 29.0834 11.8625 29.3594 11.9305 29.552L12.3129 29.4171C12.2688 29.2924 12.2404 29.0738 12.2404 28.7426H11.8349ZM11.9305 29.552C12.0028 29.757 12.136 29.9138 12.3299 30.0043L12.5014 29.6368C12.4154 29.5967 12.3525 29.5295 12.3129 29.4171L11.9305 29.552ZM12.3445 30.0104C12.5286 30.0794 12.7821 30.1073 13.0877 30.1073V29.7018C12.7959 29.7018 12.6014 29.6737 12.4869 29.6307L12.3445 30.0104ZM22.0642 20.5946L22.0755 20.797L22.267 20.7863V20.5946H22.0642ZM21.3223 20.7066L21.2548 20.5153L21.2511 20.5167L21.3223 20.7066ZM21.0142 21.0286L21.2054 21.096V21.096L21.0142 21.0286ZM21.0142 29.5126L21.2054 29.4451V29.4451L21.0142 29.5126ZM21.3223 29.8346L21.2511 30.0244L21.2548 30.0257L21.3223 29.8346ZM22.0642 29.9466H22.267V29.7548L22.0755 29.7441L22.0642 29.9466ZM22.0642 30.2266L22.0511 30.4289L22.267 30.443V30.2266H22.0642ZM18.4943 30.2266H18.2915V30.4443L18.5087 30.4288L18.4943 30.2266ZM18.4943 29.9466L18.483 29.7441L18.2915 29.7548V29.9466H18.4943ZM19.2222 29.8346L19.1548 29.6433L19.1511 29.6447L19.2222 29.8346ZM19.5443 21.0286L19.3531 21.096V21.096L19.5443 21.0286ZM19.2222 20.7066L19.1511 20.8964L19.1548 20.8977L19.2222 20.7066ZM18.4943 20.5946H18.2915V20.7863L18.483 20.797L18.4943 20.5946ZM18.4943 20.3146L18.5087 20.1123L18.2915 20.0968V20.3146H18.4943ZM22.0642 20.3146H22.267V20.0985L22.0513 20.1122L22.0642 20.3146ZM22.053 20.3921C21.713 20.411 21.4418 20.4494 21.2548 20.5154L21.3897 20.8977C21.5201 20.8517 21.7435 20.8154 22.0755 20.797L22.053 20.3921ZM21.2511 20.5167C21.0422 20.5951 20.8978 20.7495 20.8231 20.9611L21.2054 21.096C21.2427 20.9903 21.3037 20.9301 21.3934 20.8964L21.2511 20.5167ZM20.8231 20.9611C20.7548 21.1544 20.7275 21.4406 20.7275 21.7986H21.133C21.133 21.4472 21.1617 21.2201 21.2054 21.096L20.8231 20.9611ZM20.7275 21.7986V28.7426H21.133V21.7986H20.7275ZM20.7275 28.7426C20.7275 29.1005 20.7548 29.3867 20.8231 29.58L21.2054 29.4451C21.1617 29.3211 21.133 29.0939 21.133 28.7426H20.7275ZM20.8231 29.58C20.8978 29.7917 21.0422 29.9461 21.2511 30.0244L21.3934 29.6447C21.3037 29.6111 21.2427 29.5508 21.2054 29.4451L20.8231 29.58ZM21.2548 30.0257C21.4418 30.0917 21.713 30.1301 22.053 30.149L22.0755 29.7441C21.7435 29.7257 21.5201 29.6894 21.3897 29.6434L21.2548 30.0257ZM21.8615 29.9466V30.2266H22.267V29.9466H21.8615ZM22.0774 30.0243C21.6416 29.9958 21.0439 29.9818 20.2863 29.9818V30.3873C21.0406 30.3873 21.6282 30.4013 22.0511 30.4289L22.0774 30.0243ZM20.2863 29.9818C19.4826 29.9818 18.8793 29.9958 18.4798 30.0243L18.5087 30.4288C18.8932 30.4013 19.4845 30.3873 20.2863 30.3873V29.9818ZM18.697 30.2266V29.9466H18.2915V30.2266H18.697ZM18.5055 30.149C18.8445 30.1302 19.1134 30.0919 19.2934 30.0244L19.1511 29.6447C19.0324 29.6892 18.816 29.7256 18.483 29.7441L18.5055 30.149ZM19.2897 30.0257C19.5062 29.9493 19.659 29.7965 19.7354 29.58L19.3531 29.4451C19.3175 29.5459 19.2556 29.6078 19.1548 29.6434L19.2897 30.0257ZM19.7354 29.58C19.8037 29.3867 19.831 29.1005 19.831 28.7426H19.4255C19.4255 29.0939 19.3968 29.3211 19.3531 29.4451L19.7354 29.58ZM19.831 28.7426V21.7986H19.4255V28.7426H19.831ZM19.831 21.7986C19.831 21.4406 19.8037 21.1544 19.7354 20.9611L19.3531 21.096C19.3968 21.2201 19.4255 21.4472 19.4255 21.7986H19.831ZM19.7354 20.9611C19.659 20.7446 19.5062 20.5918 19.2897 20.5154L19.1548 20.8977C19.2556 20.9333 19.3175 20.9952 19.3531 21.096L19.7354 20.9611ZM19.2934 20.5167C19.1134 20.4492 18.8445 20.411 18.5055 20.3921L18.483 20.797C18.816 20.8155 19.0324 20.8519 19.1511 20.8964L19.2934 20.5167ZM18.697 20.5946V20.3146H18.2915V20.5946H18.697ZM18.4798 20.5168C18.8793 20.5453 19.4826 20.5593 20.2863 20.5593V20.1538C19.4845 20.1538 18.8932 20.1398 18.5087 20.1123L18.4798 20.5168ZM20.2863 20.5593C21.0347 20.5593 21.6323 20.5453 22.0772 20.5169L22.0513 20.1122C21.6189 20.1398 21.0311 20.1538 20.2863 20.1538V20.5593ZM21.8615 20.3146V20.5946H22.267V20.3146H21.8615ZM28.152 24.9906H27.9493V25.1675L28.1246 25.1914L28.152 24.9906ZM30.35 25.8866L30.2037 26.0269L30.2052 26.0284L30.35 25.8866ZM30.602 28.9246L30.7713 29.0361V29.0361L30.602 28.9246ZM29.44 29.8906L29.5224 30.0758L29.5252 30.0745L29.44 29.8906ZM27.004 30.2126L27.0147 30.0101L27.0103 30.0099L27.004 30.2126ZM23.504 30.2266H23.3013V30.4443L23.5185 30.4288L23.504 30.2266ZM23.504 29.9466L23.4928 29.7441L23.3013 29.7548V29.9466H23.504ZM24.232 29.8346L24.1645 29.6433L24.1608 29.6447L24.232 29.8346ZM24.554 21.0286L24.3628 21.096V21.096L24.554 21.0286ZM24.232 20.7066L24.1608 20.8964L24.1645 20.8977L24.232 20.7066ZM23.504 20.5946H23.3013V20.7863L23.4928 20.797L23.504 20.5946ZM23.504 20.3146L23.5185 20.1123L23.3013 20.0968V20.3146H23.504ZM25.212 20.3566V20.5593L25.2139 20.5593L25.212 20.3566ZM26.724 20.3426L26.7259 20.5455L26.7347 20.545L26.724 20.3426ZM29.51 20.9306L29.3837 21.0892L29.3851 21.0903L29.51 20.9306ZM29.762 23.9826L29.604 23.8555L29.6024 23.8576L29.762 23.9826ZM28.152 24.9626L28.0931 24.7686L27.9493 24.8123V24.9626H28.152ZM26.318 20.6926L26.2367 20.5068L26.2323 20.5088L26.318 20.6926ZM26.024 21.0426L26.2163 21.1067V21.1067L26.024 21.0426ZM25.94 24.9626H25.7373V25.1653H25.94V24.9626ZM28.474 24.3466L28.3105 24.2267L28.3101 24.2273L28.474 24.3466ZM29.006 25.7746L28.8644 25.9196L28.8661 25.9213L29.006 25.7746ZM25.94 25.2006V24.9978H25.7373V25.2006H25.94ZM26.024 29.4846L26.2152 29.4171V29.4171L26.024 29.4846ZM26.318 29.8206L26.2323 30.0043L26.2394 30.0076L26.2468 30.0104L26.318 29.8206ZM28.1246 25.1914C29.1326 25.3289 29.8113 25.6178 30.2037 26.0269L30.4963 25.7462C30.0114 25.2407 29.2248 24.9322 28.1794 24.7897L28.1246 25.1914ZM30.2052 26.0284C30.6062 26.438 30.8053 26.9282 30.8053 27.5106H31.2108C31.2108 26.8236 30.9711 26.2311 30.4949 25.7447L30.2052 26.0284ZM30.8053 27.5106C30.8053 28.0063 30.6798 28.4382 30.4327 28.813L30.7713 29.0361C31.0656 28.5896 31.2108 28.0788 31.2108 27.5106H30.8053ZM30.4327 28.813C30.1854 29.1882 29.8292 29.487 29.3548 29.7066L29.5252 30.0745C30.0589 29.8275 30.4773 29.4822 30.7713 29.0361L30.4327 28.813ZM29.3577 29.7053C28.8853 29.9153 28.3172 30.0238 27.648 30.0238V30.4293C28.3601 30.4293 28.9868 30.3139 29.5224 30.0758L29.3577 29.7053ZM27.648 30.0238C27.3982 30.0238 27.1873 30.0192 27.0147 30.0101L26.9934 30.415C27.1754 30.4246 27.3938 30.4293 27.648 30.4293V30.0238ZM27.0103 30.0099C26.411 29.9912 25.8209 29.9818 25.24 29.9818V30.3873C25.8165 30.3873 26.4024 30.3966 26.9977 30.4152L27.0103 30.0099ZM25.24 29.9818C24.4735 29.9818 23.889 29.9958 23.4896 30.0243L23.5185 30.4288C23.9031 30.4013 24.4759 30.3873 25.24 30.3873V29.9818ZM23.7068 30.2266V29.9466H23.3013V30.2266H23.7068ZM23.5153 30.149C23.8542 30.1302 24.1232 30.0919 24.3032 30.0244L24.1608 29.6447C24.0422 29.6892 23.8258 29.7256 23.4928 29.7441L23.5153 30.149ZM24.2995 30.0257C24.516 29.9493 24.6688 29.7965 24.7452 29.58L24.3628 29.4451C24.3272 29.5459 24.2654 29.6078 24.1645 29.6434L24.2995 30.0257ZM24.7452 29.58C24.8134 29.3867 24.8408 29.1005 24.8408 28.7426H24.4353C24.4353 29.0939 24.4066 29.3211 24.3628 29.4451L24.7452 29.58ZM24.8408 28.7426V21.7986H24.4353V28.7426H24.8408ZM24.8408 21.7986C24.8408 21.4406 24.8134 21.1544 24.7452 20.9611L24.3628 21.096C24.4066 21.2201 24.4353 21.4472 24.4353 21.7986H24.8408ZM24.7452 20.9611C24.6688 20.7446 24.516 20.5918 24.2995 20.5154L24.1645 20.8977C24.2654 20.9333 24.3272 20.9952 24.3628 21.096L24.7452 20.9611ZM24.3032 20.5167C24.1232 20.4492 23.8542 20.411 23.5153 20.3921L23.4928 20.797C23.8258 20.8155 24.0422 20.8519 24.1608 20.8964L24.3032 20.5167ZM23.7068 20.5946V20.3146H23.3013V20.5946H23.7068ZM23.4896 20.5168C23.8889 20.5453 24.464 20.5593 25.212 20.5593V20.1538C24.4667 20.1538 23.9031 20.1398 23.5185 20.1123L23.4896 20.5168ZM25.2139 20.5593L26.7259 20.5453L26.7221 20.1398L25.2101 20.1538L25.2139 20.5593ZM26.7347 20.545C26.9077 20.5359 27.1047 20.5313 27.326 20.5313V20.1258C27.0993 20.1258 26.895 20.1305 26.7134 20.1401L26.7347 20.545ZM27.326 20.5313C28.2532 20.5313 28.9292 20.7272 29.3837 21.0892L29.6363 20.772C29.0828 20.3312 28.3028 20.1258 27.326 20.1258V20.5313ZM29.3851 21.0903C29.8484 21.4524 30.0773 21.925 30.0773 22.5266H30.4828C30.4828 21.8028 30.1983 21.2114 29.6349 20.7708L29.3851 21.0903ZM30.0773 22.5266C30.0773 23.0208 29.921 23.4615 29.604 23.8555L29.92 24.1096C30.2937 23.645 30.4828 23.115 30.4828 22.5266H30.0773ZM29.6024 23.8576C29.3007 24.2431 28.8065 24.5519 28.0931 24.7686L28.2109 25.1565C28.9722 24.9253 29.5514 24.5807 29.9217 24.1075L29.6024 23.8576ZM27.9493 24.9626V24.9906H28.3548V24.9626H27.9493ZM26.976 20.3918C26.6771 20.3918 26.4244 20.4247 26.2368 20.5068L26.3993 20.8783C26.5103 20.8297 26.6963 20.7973 26.976 20.7973V20.3918ZM26.2323 20.5088C26.0343 20.6012 25.9025 20.7661 25.8317 20.9785L26.2163 21.1067C26.2576 20.983 26.3217 20.9145 26.4038 20.8763L26.2323 20.5088ZM25.8317 20.9785C25.7651 21.1781 25.7373 21.4566 25.7373 21.7986H26.1428C26.1428 21.4685 26.1709 21.243 26.2163 21.1067L25.8317 20.9785ZM25.7373 21.7986V24.9626H26.1428V21.7986H25.7373ZM25.94 25.1653H26.878V24.7598H25.94V25.1653ZM26.878 25.1653C27.674 25.1653 28.2847 24.9515 28.638 24.4658L28.3101 24.2273C28.066 24.5629 27.6127 24.7598 26.878 24.7598V25.1653ZM28.6375 24.4665C28.9782 24.0019 29.1388 23.4004 29.1388 22.6806H28.7333C28.7333 23.3421 28.5859 23.8512 28.3105 24.2267L28.6375 24.4665ZM29.1388 22.6806C29.1388 21.9555 28.9799 21.3751 28.6253 20.9776L28.3227 21.2475C28.5842 21.5407 28.7333 22.0056 28.7333 22.6806H29.1388ZM28.6253 20.9776C28.2632 20.5716 27.6958 20.3918 26.976 20.3918V20.7973C27.6376 20.7973 28.0689 20.9629 28.3227 21.2475L28.6253 20.9776ZM26.99 30.1073C27.8907 30.1073 28.604 29.8968 29.092 29.4401C29.5826 28.981 29.8108 28.306 29.8108 27.4546H29.4053C29.4053 28.2364 29.1971 28.7865 28.815 29.144C28.4304 29.504 27.8347 29.7018 26.99 29.7018V30.1073ZM29.8108 27.4546C29.8108 26.6808 29.5993 26.0602 29.1459 25.6278L28.8661 25.9213C29.2154 26.2543 29.4053 26.7536 29.4053 27.4546H29.8108ZM29.1476 25.6295C28.7008 25.1933 28.0072 24.9978 27.116 24.9978V25.4033C27.9609 25.4033 28.5273 25.5905 28.8644 25.9196L29.1476 25.6295ZM27.116 24.9978H25.94V25.4033H27.116V24.9978ZM25.7373 25.2006V28.7426H26.1428V25.2006H25.7373ZM25.7373 28.7426C25.7373 29.0834 25.7649 29.3594 25.8328 29.552L26.2152 29.4171C26.1712 29.2924 26.1428 29.0738 26.1428 28.7426H25.7373ZM25.8328 29.552C25.9052 29.757 26.0383 29.9138 26.2323 30.0043L26.4037 29.6368C26.3177 29.5967 26.2549 29.5295 26.2152 29.4171L25.8328 29.552ZM26.2468 30.0104C26.4309 30.0794 26.6844 30.1073 26.99 30.1073V29.7018C26.6983 29.7018 26.5038 29.6737 26.3892 29.6307L26.2468 30.0104ZM39.6626 30.2266L39.6537 30.4291L39.8873 30.4394L39.8644 30.2067L39.6626 30.2266ZM32.3966 30.2266H32.1939V30.4356L32.4028 30.4292L32.3966 30.2266ZM32.3966 29.9466L32.3853 29.7441L32.1939 29.7548V29.9466H32.3966ZM33.1246 29.8346L33.0571 29.6433L33.0534 29.6447L33.1246 29.8346ZM33.4466 21.0286L33.2554 21.096V21.096L33.4466 21.0286ZM33.1246 20.7066L33.0534 20.8964L33.0571 20.8977L33.1246 20.7066ZM32.3966 20.5946H32.1939V20.7863L32.3853 20.797L32.3966 20.5946ZM32.3966 20.3146L32.4028 20.1119L32.1939 20.1055V20.3146H32.3966ZM39.3826 20.3146L39.5842 20.3359L39.6092 20.1006L39.3728 20.1121L39.3826 20.3146ZM39.3266 22.8346V23.0373H39.5575L39.5276 22.8083L39.3266 22.8346ZM39.0046 22.8346L38.803 22.8563L38.8225 23.0373H39.0046V22.8346ZM38.7526 21.4906L38.5609 21.5565L38.5615 21.5584L38.7526 21.4906ZM38.2346 20.8466L38.1332 21.0222L38.1385 21.0251L38.2346 20.8466ZM35.2246 20.7206L35.2851 20.9142L35.2921 20.9117L35.2246 20.7206ZM34.9166 21.0286L35.1078 21.096V21.096L34.9166 21.0286ZM34.8326 25.1026H34.6299V25.3053H34.8326V25.1026ZM36.5126 24.8786L36.6432 25.0337L36.6478 25.0296L36.5126 24.8786ZM36.8626 24.3326L36.6686 24.2735L36.667 24.2792L36.8626 24.3326ZM37.0166 23.5346L36.816 23.5045L36.8152 23.5109L37.0166 23.5346ZM37.0586 23.2546V23.0518H36.884L36.8581 23.2245L37.0586 23.2546ZM37.3806 23.2546L37.5828 23.269L37.5983 23.0518H37.3806V23.2546ZM37.4226 27.2306V27.4333H37.6391L37.6249 27.2172L37.4226 27.2306ZM37.1006 27.2306L36.8999 27.2592L36.9248 27.4333H37.1006V27.2306ZM37.0166 26.5586L36.8153 26.5825L36.8153 26.5831L37.0166 26.5586ZM36.6246 25.6766L36.4846 25.8232L36.4879 25.8263L36.6246 25.6766ZM34.8326 25.3826V25.1798H34.6299V25.3826H34.8326ZM34.9166 29.5126L35.1078 29.4451V29.4451L34.9166 29.5126ZM35.2246 29.8346L35.1534 30.0244L35.1603 30.027L35.1674 30.0291L35.2246 29.8346ZM38.3046 29.6806L38.3953 29.8619L38.3974 29.8608L38.3046 29.6806ZM38.9766 28.9386L39.1637 29.0165L39.1645 29.0147L38.9766 28.9386ZM39.2846 27.4266V27.2238H39.1009L39.0828 27.4067L39.2846 27.4266ZM39.6066 27.4266L39.8081 27.449L39.8331 27.2238H39.6066V27.4266ZM39.3619 28.4346C39.3619 28.9746 39.395 29.5787 39.4608 30.2465L39.8644 30.2067C39.7995 29.5491 39.7673 28.9585 39.7673 28.4346H39.3619ZM39.6715 30.024C39.032 29.9958 37.9593 29.9818 36.4566 29.9818V30.3873C37.9592 30.3873 39.0239 30.4013 39.6537 30.4291L39.6715 30.024ZM36.4566 29.9818C34.6641 29.9818 33.3082 29.9958 32.3904 30.0239L32.4028 30.4292C33.3143 30.4013 34.6651 30.3873 36.4566 30.3873V29.9818ZM32.5993 30.2266V29.9466H32.1939V30.2266H32.5993ZM32.4078 30.149C32.7468 30.1302 33.0158 30.0919 33.1958 30.0244L33.0534 29.6447C32.9348 29.6892 32.7184 29.7256 32.3853 29.7441L32.4078 30.149ZM33.1921 30.0257C33.4086 29.9493 33.5614 29.7965 33.6378 29.58L33.2554 29.4451C33.2198 29.5459 33.158 29.6078 33.0571 29.6434L33.1921 30.0257ZM33.6378 29.58C33.706 29.3867 33.7333 29.1005 33.7333 28.7426H33.3279C33.3279 29.0939 33.2992 29.3211 33.2554 29.4451L33.6378 29.58ZM33.7333 28.7426V21.7986H33.3279V28.7426H33.7333ZM33.7333 21.7986C33.7333 21.4406 33.706 21.1544 33.6378 20.9611L33.2554 21.096C33.2992 21.2201 33.3279 21.4472 33.3279 21.7986H33.7333ZM33.6378 20.9611C33.5614 20.7446 33.4086 20.5918 33.1921 20.5154L33.0571 20.8977C33.158 20.9333 33.2198 20.9952 33.2554 21.096L33.6378 20.9611ZM33.1958 20.5167C33.0158 20.4492 32.7468 20.411 32.4078 20.3921L32.3853 20.797C32.7184 20.8155 32.9348 20.8519 33.0534 20.8964L33.1958 20.5167ZM32.5993 20.5946V20.3146H32.1939V20.5946H32.5993ZM32.3904 20.5172C33.3082 20.5453 34.6641 20.5593 36.4566 20.5593V20.1538C34.6651 20.1538 33.3143 20.1398 32.4028 20.1119L32.3904 20.5172ZM36.4566 20.5593C37.8287 20.5593 38.8083 20.5453 39.3924 20.5171L39.3728 20.1121C38.7995 20.1398 37.8285 20.1538 36.4566 20.1538V20.5593ZM39.181 20.2932C39.1151 20.9144 39.0819 21.4725 39.0819 21.9666H39.4873C39.4873 21.49 39.5194 20.9467 39.5842 20.3359L39.181 20.2932ZM39.0819 21.9666C39.0819 22.3343 39.0959 22.6336 39.1256 22.8608L39.5276 22.8083C39.5013 22.6062 39.4873 22.3268 39.4873 21.9666H39.0819ZM39.3266 22.6318H39.0046V23.0373H39.3266V22.6318ZM39.2062 22.8129C39.1405 22.2027 39.0546 21.7353 38.9437 21.4228L38.5615 21.5584C38.656 21.8245 38.7381 22.2531 38.803 22.8563L39.2062 22.8129ZM38.9443 21.4247C38.8277 21.0853 38.6248 20.8264 38.3307 20.6681L38.1385 21.0251C38.3297 21.128 38.4722 21.2985 38.5609 21.5565L38.9443 21.4247ZM38.3359 20.671C38.047 20.5043 37.6353 20.4338 37.1286 20.4338V20.8393C37.6112 20.8393 37.9369 20.9089 38.1333 21.0222L38.3359 20.671ZM37.1286 20.4338H35.9666V20.8393H37.1286V20.4338ZM35.9666 20.4338C35.6258 20.4338 35.3497 20.4614 35.1571 20.5294L35.2921 20.9117C35.4168 20.8677 35.6354 20.8393 35.9666 20.8393V20.4338ZM35.1641 20.5271C34.9486 20.5944 34.8008 20.7474 34.7254 20.9611L35.1078 21.096C35.1444 20.9924 35.2019 20.9401 35.2851 20.9141L35.1641 20.5271ZM34.7254 20.9611C34.6572 21.1544 34.6299 21.4406 34.6299 21.7986H35.0353C35.0353 21.4472 35.064 21.2201 35.1078 21.096L34.7254 20.9611ZM34.6299 21.7986V25.1026H35.0353V21.7986H34.6299ZM34.8326 25.3053H35.7566V24.8998H34.8326V25.3053ZM35.7566 25.3053C36.1117 25.3053 36.4168 25.2242 36.6432 25.0336L36.382 24.7235C36.2537 24.8315 36.0548 24.8998 35.7566 24.8998V25.3053ZM36.6478 25.0296C36.8507 24.8481 36.9907 24.6333 37.0582 24.3859L36.667 24.2792C36.6225 24.4425 36.5292 24.5917 36.3774 24.7275L36.6478 25.0296ZM37.0565 24.3916C37.1265 24.1617 37.1797 23.883 37.2179 23.5583L36.8152 23.5109C36.7788 23.8208 36.7293 24.0741 36.6686 24.2735L37.0565 24.3916ZM37.2171 23.5646L37.2591 23.2846L36.8581 23.2245L36.8161 23.5045L37.2171 23.5646ZM37.0586 23.4573H37.3806V23.0518H37.0586V23.4573ZM37.1784 23.2401C37.15 23.6379 37.1359 24.0815 37.1359 24.5706H37.5413C37.5413 24.089 37.5552 23.6552 37.5828 23.269L37.1784 23.2401ZM37.1359 24.5706V25.2426H37.5413V24.5706H37.1359ZM37.1359 25.2426C37.1359 25.7252 37.1642 26.393 37.2203 27.2439L37.6249 27.2172C37.569 26.3695 37.5413 25.712 37.5413 25.2426H37.1359ZM37.4226 27.0278H37.1006V27.4333H37.4226V27.0278ZM37.3013 27.2019C37.2923 27.1392 37.2647 26.9179 37.2178 26.534L36.8153 26.5831C36.8619 26.9645 36.8902 27.1913 36.8999 27.2592L37.3013 27.2019ZM37.2179 26.5346C37.1676 26.1117 37.023 25.7658 36.7613 25.5268L36.4879 25.8263C36.6555 25.9793 36.7723 26.2215 36.8153 26.5825L37.2179 26.5346ZM36.7646 25.5299C36.5108 25.2877 36.1651 25.1798 35.7566 25.1798V25.5853C36.0947 25.5853 36.3277 25.6734 36.4846 25.8232L36.7646 25.5299ZM35.7566 25.1798H34.8326V25.5853H35.7566V25.1798ZM34.6299 25.3826V28.7426H35.0353V25.3826H34.6299ZM34.6299 28.7426C34.6299 29.1005 34.6572 29.3867 34.7254 29.58L35.1078 29.4451C35.064 29.3211 35.0353 29.0939 35.0353 28.7426H34.6299ZM34.7254 29.58C34.8001 29.7917 34.9445 29.9461 35.1534 30.0244L35.2958 29.6447C35.206 29.6111 35.1451 29.5508 35.1078 29.4451L34.7254 29.58ZM35.1674 30.0291C35.3553 30.0843 35.6269 30.1073 35.9666 30.1073V29.7018C35.6343 29.7018 35.4112 29.6781 35.2818 29.6401L35.1674 30.0291ZM35.9666 30.1073H36.9886V29.7018H35.9666V30.1073ZM36.9886 30.1073C37.5788 30.1073 38.0548 30.0321 38.3953 29.8619L38.2139 29.4992C37.957 29.6277 37.5557 29.7018 36.9886 29.7018V30.1073ZM38.3974 29.8608C38.7502 29.6791 39.0064 29.3943 39.1637 29.0165L38.7895 28.8606C38.6668 29.1549 38.475 29.3647 38.2118 29.5003L38.3974 29.8608ZM39.1645 29.0147C39.3154 28.6425 39.4204 28.1158 39.4864 27.4465L39.0828 27.4067C39.0182 28.0626 38.9178 28.5439 38.7887 28.8624L39.1645 29.0147ZM39.2846 27.6293H39.6066V27.2238H39.2846V27.6293ZM39.4051 27.4042C39.3759 27.6668 39.3619 28.0112 39.3619 28.4346H39.7673C39.7673 28.0179 39.7813 27.6903 39.8081 27.449L39.4051 27.4042ZM44.7635 20.5946L44.7747 20.797L44.9662 20.7863V20.5946H44.7635ZM44.0215 20.7066L43.954 20.5153L43.9503 20.5167L44.0215 20.7066ZM43.7135 21.0286L43.9046 21.096V21.096L43.7135 21.0286ZM43.7135 29.5126L43.9046 29.4451V29.4451L43.7135 29.5126ZM44.0215 29.8346L43.9503 30.0244L43.9572 30.027L43.9643 30.0291L44.0215 29.8346ZM47.1015 29.6666L47.1966 29.8456L47.1986 29.8445L47.1015 29.6666ZM47.7735 28.8686L47.9627 28.9413V28.9413L47.7735 28.8686ZM48.0815 27.2866V27.0838H47.897L47.8796 27.2675L48.0815 27.2866ZM48.4035 27.2866L48.6053 27.3061L48.6268 27.0838H48.4035V27.2866ZM48.4595 30.2266L48.4505 30.4291L48.6842 30.4394L48.6612 30.2067L48.4595 30.2266ZM41.1935 30.2266H40.9907V30.4356L41.1997 30.4292L41.1935 30.2266ZM41.1935 29.9466L41.1822 29.7441L40.9907 29.7548V29.9466H41.1935ZM41.9215 29.8346L41.854 29.6433L41.8503 29.6447L41.9215 29.8346ZM42.2435 21.0286L42.0523 21.096L42.0523 21.096L42.2435 21.0286ZM41.9215 20.7066L41.8503 20.8964L41.854 20.8977L41.9215 20.7066ZM41.1935 20.5946H40.9907V20.7863L41.1822 20.797L41.1935 20.5946ZM41.1935 20.3146L41.2079 20.1123L40.9907 20.0968V20.3146H41.1935ZM44.7635 20.3146H44.9662V20.0985L44.7506 20.1122L44.7635 20.3146ZM44.7522 20.3921C44.4122 20.411 44.141 20.4494 43.954 20.5154L44.0889 20.8977C44.2193 20.8517 44.4428 20.8154 44.7747 20.797L44.7522 20.3921ZM43.9503 20.5167C43.7414 20.5951 43.597 20.7495 43.5223 20.9611L43.9046 21.096C43.942 20.9903 44.0029 20.9301 44.0927 20.8964L43.9503 20.5167ZM43.5223 20.9611C43.4541 21.1544 43.4267 21.4406 43.4267 21.7986H43.8322C43.8322 21.4472 43.8609 21.2201 43.9046 21.096L43.5223 20.9611ZM43.4267 21.7986V28.7426H43.8322V21.7986H43.4267ZM43.4267 28.7426C43.4267 29.1005 43.4541 29.3867 43.5223 29.58L43.9046 29.4451C43.8609 29.3211 43.8322 29.0939 43.8322 28.7426H43.4267ZM43.5223 29.58C43.597 29.7917 43.7414 29.9461 43.9503 30.0244L44.0927 29.6447C44.0029 29.6111 43.942 29.5508 43.9046 29.4451L43.5223 29.58ZM43.9643 30.0291C44.1521 30.0843 44.4237 30.1073 44.7635 30.1073V29.7018C44.4312 29.7018 44.2081 29.6781 44.0787 29.6401L43.9643 30.0291ZM44.7635 30.1073H45.7855V29.7018H44.7635V30.1073ZM45.7855 30.1073C46.3768 30.1073 46.8547 30.0272 47.1966 29.8456L47.0064 29.4875C46.7509 29.6232 46.3515 29.7018 45.7855 29.7018V30.1073ZM47.1986 29.8445C47.5536 29.6509 47.8075 29.3449 47.9627 28.9413L47.5842 28.7958C47.4594 29.1203 47.2654 29.3462 47.0044 29.4886L47.1986 29.8445ZM47.9627 28.9413C48.1126 28.5517 48.2174 28.0028 48.2833 27.3057L47.8796 27.2675C47.8149 27.9517 47.7144 28.4574 47.5842 28.7958L47.9627 28.9413ZM48.0815 27.4893H48.4035V27.0838H48.0815V27.4893ZM48.2017 27.267C48.1728 27.5656 48.1587 27.9556 48.1587 28.4346H48.5642C48.5642 27.9615 48.5782 27.5862 48.6053 27.3061L48.2017 27.267ZM48.1587 28.4346C48.1587 28.9746 48.1919 29.5787 48.2577 30.2465L48.6612 30.2067C48.5964 29.5491 48.5642 28.9585 48.5642 28.4346H48.1587ZM48.4684 30.024C47.8288 29.9958 46.7562 29.9818 45.2535 29.9818V30.3873C46.7561 30.3873 47.8208 30.4013 48.4505 30.4291L48.4684 30.024ZM45.2535 29.9818C43.461 29.9818 42.1051 29.9958 41.1873 30.0239L41.1997 30.4292C42.1111 30.4013 43.462 30.3873 45.2535 30.3873V29.9818ZM41.3962 30.2266V29.9466H40.9907V30.2266H41.3962ZM41.2047 30.149C41.5437 30.1302 41.8126 30.0919 41.9927 30.0244L41.8503 29.6447C41.7316 29.6892 41.5152 29.7256 41.1822 29.7441L41.2047 30.149ZM41.9889 30.0257C42.2054 29.9493 42.3582 29.7965 42.4346 29.58L42.0523 29.4451C42.0167 29.5459 41.9548 29.6078 41.854 29.6434L41.9889 30.0257ZM42.4346 29.58C42.5029 29.3867 42.5302 29.1005 42.5302 28.7426H42.1247C42.1247 29.0939 42.0961 29.3211 42.0523 29.4451L42.4346 29.58ZM42.5302 28.7426V21.7986H42.1247V28.7426H42.5302ZM42.5302 21.7986C42.5302 21.4406 42.5029 21.1544 42.4346 20.9611L42.0523 21.096C42.0961 21.2201 42.1247 21.4472 42.1247 21.7986H42.5302ZM42.4346 20.9611C42.3582 20.7446 42.2054 20.5918 41.9889 20.5154L41.854 20.8977C41.9548 20.9333 42.0167 20.9952 42.0523 21.096L42.4346 20.9611ZM41.9927 20.5167C41.8126 20.4492 41.5437 20.411 41.2047 20.3921L41.1822 20.797C41.5152 20.8155 41.7316 20.8519 41.8503 20.8964L41.9927 20.5167ZM41.3962 20.5946V20.3146H40.9907V20.5946H41.3962ZM41.179 20.5168C41.5786 20.5453 42.1819 20.5593 42.9855 20.5593V20.1538C42.1838 20.1538 41.5924 20.1398 41.2079 20.1123L41.179 20.5168ZM42.9855 20.5593C43.7339 20.5593 44.3315 20.5453 44.7764 20.5169L44.7506 20.1122C44.3181 20.1398 43.7304 20.1538 42.9855 20.1538V20.5593ZM44.5607 20.3146V20.5946H44.9662V20.3146H44.5607ZM58.4816 20.5946L58.4931 20.797L58.6843 20.786V20.5946H58.4816ZM57.7536 20.7486L57.84 20.9322L57.8484 20.9277L57.7536 20.7486ZM57.4316 21.1406L57.6249 21.2016L57.6258 21.1988L57.4316 21.1406ZM57.3476 30.2966V30.4993H57.5503V30.2966H57.3476ZM57.0256 30.2966L56.8554 30.4067L56.9153 30.4993H57.0256V30.2966ZM51.1456 21.2106L51.3158 21.1004L50.9428 20.5241V21.2106H51.1456ZM51.2296 29.4146L51.036 29.4757L51.0393 29.4846L51.2296 29.4146ZM51.5936 29.8066L51.5067 29.99L51.5149 29.9934L51.5936 29.8066ZM52.4196 29.9466H52.6223V29.7537L52.4297 29.7441L52.4196 29.9466ZM52.4196 30.2266L52.4027 30.4286L52.6223 30.4469V30.2266H52.4196ZM49.6896 30.2266H49.4868V30.4486L49.7079 30.4285L49.6896 30.2266ZM49.6896 29.9466L49.678 29.7442L49.4868 29.7551V29.9466H49.6896ZM50.4176 29.8066L50.504 29.9902L50.5124 29.9857L50.4176 29.8066ZM50.7396 29.4146L50.9329 29.4756L50.9338 29.4728L50.7396 29.4146ZM50.7396 21.0286L50.5484 21.096L50.5484 21.096L50.7396 21.0286ZM50.4176 20.7066L50.3464 20.8964L50.3501 20.8977L50.4176 20.7066ZM49.6896 20.5946H49.4868V20.7863L49.6783 20.797L49.6896 20.5946ZM49.6896 20.3146L49.7079 20.1127L49.4868 20.0926V20.3146H49.6896ZM52.0836 20.3146L52.2536 20.2042L52.187 20.1016L52.0652 20.1127L52.0836 20.3146ZM57.0256 27.9306L56.8555 28.0409L57.2283 28.6154V27.9306H57.0256ZM56.9276 21.1266L56.734 21.1877L56.7373 21.1966L56.9276 21.1266ZM56.5776 20.7486L56.4907 20.932L56.4989 20.9354L56.5776 20.7486ZM55.7516 20.5946H55.5488V20.7874L55.7414 20.797L55.7516 20.5946ZM55.7516 20.3146L55.7684 20.1125L55.5488 20.0942V20.3146H55.7516ZM58.4816 20.3146H58.6843V20.0926L58.4632 20.1127L58.4816 20.3146ZM58.47 20.3922C58.1343 20.4113 57.8564 20.4647 57.6587 20.5694L57.8484 20.9277C57.9681 20.8644 58.1755 20.8151 58.4931 20.797L58.47 20.3922ZM57.6672 20.5651C57.4503 20.6672 57.3079 20.8473 57.2374 21.0823L57.6258 21.1988C57.6673 21.0605 57.7395 20.9793 57.8399 20.932L57.6672 20.5651ZM57.2382 21.0795C57.1727 21.2872 57.1448 21.5784 57.1448 21.9386H57.5503C57.5503 21.5894 57.5785 21.3486 57.6249 21.2016L57.2382 21.0795ZM57.1448 21.9386V30.2966H57.5503V21.9386H57.1448ZM57.3476 30.0938H57.0256V30.4993H57.3476V30.0938ZM57.1958 30.1864L51.3158 21.1004L50.9754 21.3207L56.8554 30.4067L57.1958 30.1864ZM50.9428 21.2106V28.6026H51.3483V21.2106H50.9428ZM50.9428 28.6026C50.9428 28.9714 50.9706 29.2676 51.0362 29.4756L51.4229 29.3535C51.3766 29.2068 51.3483 28.9617 51.3483 28.6026H50.9428ZM51.0393 29.4846C51.1238 29.7139 51.2835 29.884 51.5068 29.9898L51.6804 29.6233C51.5489 29.5611 51.466 29.4699 51.4198 29.3445L51.0393 29.4846ZM51.5149 29.9934C51.726 30.0823 52.0304 30.1301 52.4094 30.149L52.4297 29.7441C52.062 29.7257 51.8158 29.6802 51.6722 29.6197L51.5149 29.9934ZM52.2168 29.9466V30.2266H52.6223V29.9466H52.2168ZM52.4364 30.0245C52.092 29.9958 51.6094 29.9818 50.9916 29.9818V30.3873C51.6057 30.3873 52.0751 30.4013 52.4027 30.4286L52.4364 30.0245ZM50.9916 29.9818C50.4295 29.9818 49.9883 29.9958 49.6712 30.0247L49.7079 30.4285C50.0068 30.4013 50.4336 30.3873 50.9916 30.3873V29.9818ZM49.8923 30.2266V29.9466H49.4868V30.2266H49.8923ZM49.7011 30.149C50.0352 30.1299 50.3094 30.0815 50.5039 29.99L50.3312 29.6231C50.2084 29.6809 49.9972 29.7259 49.678 29.7442L49.7011 30.149ZM50.5124 29.9857C50.72 29.8758 50.8615 29.7017 50.9329 29.4756L50.5462 29.3535C50.5056 29.4821 50.4325 29.5693 50.3227 29.6274L50.5124 29.9857ZM50.9338 29.4728C50.9983 29.2577 51.0263 28.9636 51.0263 28.6026H50.6208C50.6208 28.9508 50.5928 29.1981 50.5454 29.3563L50.9338 29.4728ZM51.0263 28.6026V21.7986H50.6208V28.6026H51.0263ZM51.0263 21.7986C51.0263 21.4406 50.999 21.1544 50.9307 20.9611L50.5484 21.096C50.5922 21.2201 50.6208 21.4472 50.6208 21.7986H51.0263ZM50.9307 20.9611C50.8543 20.7446 50.7015 20.5918 50.485 20.5154L50.3501 20.8977C50.4509 20.9333 50.5128 20.9952 50.5484 21.096L50.9307 20.9611ZM50.4888 20.5167C50.3087 20.4492 50.0398 20.411 49.7008 20.3921L49.6783 20.797C50.0113 20.8155 50.2277 20.8519 50.3464 20.8964L50.4888 20.5167ZM49.8923 20.5946V20.3146H49.4868V20.5946H49.8923ZM49.6712 20.5165C49.9883 20.5453 50.4295 20.5593 50.9916 20.5593V20.1538C50.4336 20.1538 50.0068 20.1398 49.7079 20.1127L49.6712 20.5165ZM50.9916 20.5593C51.4157 20.5593 51.7861 20.5452 52.1019 20.5165L52.0652 20.1127C51.765 20.1399 51.4074 20.1538 50.9916 20.1538V20.5593ZM51.9135 20.4249L56.8555 28.0409L57.1956 27.8202L52.2536 20.2042L51.9135 20.4249ZM57.2283 27.9306V21.9386H56.8228V27.9306H57.2283ZM57.2283 21.9386C57.2283 21.5686 57.1959 21.2685 57.1178 21.0565L56.7373 21.1966C56.7899 21.3393 56.8228 21.5806 56.8228 21.9386H57.2283ZM57.1209 21.0655C57.0463 20.8292 56.8862 20.6585 56.6562 20.5617L56.4989 20.9354C56.6236 20.9879 56.6968 21.0692 56.7342 21.1876L57.1209 21.0655ZM56.6644 20.5653C56.45 20.4638 56.1419 20.4111 55.7617 20.3921L55.7414 20.797C56.1079 20.8154 56.3505 20.8653 56.4908 20.9318L56.6644 20.5653ZM55.9543 20.5946V20.3146H55.5488V20.5946H55.9543ZM55.7347 20.5166C56.0791 20.5453 56.5617 20.5593 57.1796 20.5593V20.1538C56.5654 20.1538 56.096 20.1398 55.7684 20.1125L55.7347 20.5166ZM57.1796 20.5593C57.7416 20.5593 58.1828 20.5453 58.4999 20.5165L58.4632 20.1127C58.1643 20.1398 57.7375 20.1538 57.1796 20.1538V20.5593ZM58.2788 20.3146V20.5946H58.6843V20.3146H58.2788Z" fill="#FEF5EB" mask="url(#path-5-outside-1_23632_22585)"/>
</g>
</g>
<defs>
<linearGradient id="paint0_linear_23632_22585" x1="34" y1="-1.04141e-05" x2="34" y2="68" gradientUnits="userSpaceOnUse">
<stop stop-color="#C93D34"/>
<stop offset="1" stop-color="#7A2629"/>
</linearGradient>
<linearGradient id="paint1_linear_23632_22585" x1="34" y1="-1.04141e-05" x2="34" y2="68" gradientUnits="userSpaceOnUse">
<stop stop-color="#C93D34"/>
<stop offset="1" stop-color="#7A2629"/>
</linearGradient>
<clipPath id="clip0_23632_22585">
<rect width="68" height="68" fill="white"/>
</clipPath>
</defs>
</svg>
