<svg width="69" height="68" viewBox="0 0 69 68" fill="none" xmlns="http://www.w3.org/2000/svg">
<g clip-path="url(#clip0_23668_7548)">
<mask id="mask0_23668_7548" style="mask-type:alpha" maskUnits="userSpaceOnUse" x="0" y="0" width="69" height="68">
<path fill-rule="evenodd" clip-rule="evenodd" d="M47.3458 0H21.2792C13.8936 0 9.20917 0.0377779 4.77028 4.45778C0.331389 8.89667 0.3125 13.6 0.3125 20.9667V47.0333C0.3125 54.4189 0.350278 59.1033 4.77028 63.5422C9.20917 67.9811 13.9125 68 21.2792 68H47.3458C54.7314 68 59.4158 67.9811 63.8547 63.5422C68.2747 59.1033 68.3125 54.4 68.3125 47.0333V20.9667C68.3125 13.5811 68.2747 8.89667 63.8547 4.45778C59.4158 0.018889 54.7125 0 47.3458 0Z" fill="url(#paint0_linear_23668_7548)"/>
</mask>
<g mask="url(#mask0_23668_7548)">
<rect x="0.3125" width="68" height="68" fill="url(#paint1_linear_23668_7548)"/>
<path fill-rule="evenodd" clip-rule="evenodd" d="M15.9337 64.3733C26.7381 64.3733 45.9482 64.3733 45.9482 64.3733C52.8993 64.3733 57.3948 64.6378 61.5504 60.4445C65.1204 56.8745 64.8182 50.8678 65.0448 46.1078C61.0215 52.1522 53.6359 51.9445 47.9315 51.9445C47.9315 51.9445 21.2415 51.9445 11.2681 51.9445C1.29482 51.9633 5.12926 64.3733 15.9337 64.3733Z" fill="#FEF5EB"/>
<path d="M12.7979 53.5311H23.4512V61.5211L18.1245 58.8578L12.7979 61.5211V53.5311Z" fill="#F19C33"/>
<path d="M12.5013 30.374C12.0672 30.374 11.67 30.2675 11.3096 30.0546C10.9492 29.8334 10.6626 29.4935 10.4496 29.0349C10.2449 28.5763 10.1425 27.9784 10.1425 27.2413C10.1425 26.4304 10.3186 25.7302 10.6708 25.1405C11.0311 24.5426 11.5348 24.084 12.1818 23.7646C12.8289 23.437 13.5864 23.2732 14.4546 23.2732C14.8477 23.2732 15.2204 23.3059 15.5726 23.3714C15.9247 23.4288 16.2646 23.5189 16.5922 23.6417C16.9198 23.7646 17.2351 23.9243 17.5382 24.1208L17.9804 24.5017C18.4964 24.9194 18.8895 25.4231 19.1598 26.0128C19.4383 26.6024 19.5775 27.2331 19.5775 27.9047C19.5775 28.4534 19.4956 28.9121 19.3318 29.2806C19.1762 29.641 18.9469 29.9153 18.6438 30.1037C18.349 30.2839 17.9968 30.374 17.5873 30.374C17.1123 30.374 16.7233 30.2675 16.4202 30.0546C16.1254 29.8416 15.9042 29.555 15.7568 29.1946C15.6176 28.8261 15.548 28.4084 15.548 27.9415C15.548 27.4583 15.5971 27.0201 15.6954 26.627C15.8019 26.2257 15.9452 25.8612 16.1254 25.5336C16.3138 25.1978 16.5308 24.8907 16.7765 24.6122L17.3048 24.1086C17.6324 23.8383 17.9886 23.6335 18.3736 23.4943C18.7585 23.3469 19.1721 23.2732 19.6144 23.2732C20.3842 23.2732 21.0108 23.437 21.494 23.7646C21.9772 24.084 22.3335 24.5099 22.5628 25.0422C22.7921 25.5746 22.9068 26.1561 22.9068 26.7867C22.9068 27.3518 22.8495 27.8555 22.7348 28.2978C22.6283 28.7319 22.4891 29.1209 22.3171 29.4649C22.1533 29.8007 21.9772 30.1037 21.7888 30.374L20.9043 29.8334C21.1664 29.4649 21.3834 29.0472 21.5554 28.5804C21.7356 28.1053 21.8257 27.5238 21.8257 26.8359C21.8257 26.2953 21.7356 25.8285 21.5554 25.4354C21.3752 25.034 21.1132 24.7269 20.7692 24.514C20.4334 24.2928 20.0198 24.1823 19.5284 24.1823C19.1516 24.1823 18.824 24.2314 18.5456 24.3297C18.2753 24.428 17.9968 24.5959 17.7102 24.8334C17.4481 25.1037 17.231 25.3985 17.0591 25.7179C16.8953 26.0373 16.7724 26.3813 16.6905 26.7499C16.6168 27.1102 16.5799 27.4952 16.5799 27.9047C16.5799 28.4698 16.6659 28.8834 16.8379 29.1455C17.0099 29.4076 17.2474 29.5386 17.5505 29.5386C17.8044 29.5386 18.0009 29.4608 18.1401 29.3052C18.2876 29.1496 18.3899 28.953 18.4473 28.7155C18.5046 28.478 18.5333 28.2364 18.5333 27.9907C18.5333 27.3355 18.4063 26.7499 18.1524 26.2339C17.9067 25.7179 17.5464 25.2756 17.0713 24.9071C16.6864 24.6368 16.2646 24.4484 15.806 24.342C15.3473 24.2355 14.8559 24.1823 14.3317 24.1823C13.7257 24.1823 13.1974 24.2928 12.747 24.514C12.2965 24.7351 11.9361 25.0381 11.6659 25.4231C11.4038 25.808 11.2318 26.2503 11.1499 26.7499C11.1417 26.8727 11.1335 26.9915 11.1253 27.1061C11.1171 27.2126 11.113 27.2986 11.113 27.3641C11.113 27.8965 11.1745 28.3224 11.2973 28.6418C11.4284 28.9612 11.6044 29.1905 11.8256 29.3297C12.0467 29.469 12.2924 29.5386 12.5627 29.5386C12.7838 29.5386 12.9722 29.4935 13.1278 29.4035C13.2834 29.3052 13.4022 29.1659 13.4841 28.9858C13.5742 28.8056 13.6192 28.5844 13.6192 28.3224C13.6192 27.9129 13.5127 27.6016 13.2998 27.3887C13.0869 27.1676 12.8125 27.057 12.4767 27.057C12.1491 27.057 11.842 27.143 11.5553 27.315C11.2687 27.487 11.0066 27.704 10.7691 27.9661L10.5848 27.1798C10.8305 26.8932 11.1335 26.6598 11.4939 26.4796C11.8624 26.2912 12.2474 26.197 12.6487 26.197C13.2384 26.197 13.7134 26.3772 14.0738 26.7376C14.4423 27.0979 14.6266 27.5853 14.6266 28.1995C14.6266 28.65 14.5406 29.039 14.3686 29.3666C14.1966 29.6942 13.9509 29.944 13.6315 30.116C13.3203 30.288 12.9435 30.374 12.5013 30.374ZM24.7761 30.2266V23.4206H25.8326V29.342H31.1152V23.4206H32.1717V30.2266H24.7761ZM34.3378 30.2266V23.4206H35.3944V29.342H40.677V23.4206H41.7335V30.2266H34.3378ZM41.2215 19.8702C41.7374 19.8702 42.2084 19.9398 42.6343 20.079C43.0519 20.2183 43.4328 20.4312 43.7768 20.7179C44.0061 20.9062 44.2068 21.1437 44.3787 21.4304C44.5589 21.7089 44.6982 22.0733 44.7964 22.5238C44.9029 22.966 44.9561 23.5312 44.9561 24.2191V30.2266H43.8996V24.5631C43.8996 23.9161 43.8628 23.3919 43.7891 22.9906C43.7235 22.5811 43.6212 22.2576 43.4819 22.0201C43.3509 21.7744 43.1912 21.5696 43.0028 21.4058C42.7735 21.1929 42.5032 21.0373 42.192 20.939C41.8808 20.8407 41.5654 20.7916 41.246 20.7916C40.8038 20.7916 40.427 20.8653 40.1158 21.0127C39.8046 21.1601 39.5671 21.369 39.4033 21.6392C39.2313 21.9095 39.1453 22.233 39.1453 22.6098C39.1453 22.9046 39.1862 23.1667 39.2681 23.396C39.3418 23.6171 39.4524 23.8096 39.5998 23.9734C39.7472 24.129 39.9274 24.256 40.1404 24.3543C40.3451 24.4525 40.5744 24.5222 40.8283 24.5631V25.4354C40.3205 25.378 39.8578 25.2347 39.4401 25.0054C39.0224 24.776 38.6948 24.4607 38.4573 24.0594C38.2116 23.6581 38.0887 23.1708 38.0887 22.5975C38.0887 21.9914 38.2321 21.4877 38.5187 21.0864C38.7972 20.6851 39.1739 20.3821 39.649 20.1773C40.124 19.9726 40.6482 19.8702 41.2215 19.8702ZM49.0928 30.374C48.6587 30.374 48.2615 30.2675 47.9011 30.0546C47.5408 29.8334 47.2541 29.4935 47.0412 29.0349C46.8364 28.5763 46.734 27.9784 46.734 27.2413C46.734 26.5697 46.8323 25.9882 47.0289 25.4968C47.2336 24.9972 47.5121 24.5836 47.8643 24.256C48.2164 23.9284 48.6137 23.6827 49.0559 23.5189C49.4982 23.3551 49.9568 23.2732 50.4319 23.2732C50.7922 23.2732 51.1157 23.31 51.4024 23.3837C51.6891 23.4493 51.9511 23.5475 52.1887 23.6786C52.4262 23.8014 52.6473 23.9488 52.852 24.1208L52.6923 25.3002C52.4057 24.9398 52.0781 24.6655 51.7095 24.4771C51.3492 24.2805 50.911 24.1823 50.395 24.1823C49.8463 24.1823 49.3713 24.3215 48.9699 24.6C48.5686 24.8702 48.2574 25.2429 48.0363 25.7179C47.8151 26.1847 47.7046 26.7171 47.7046 27.315C47.7046 27.8637 47.766 28.3019 47.8888 28.6295C48.0199 28.9489 48.1919 29.1823 48.4048 29.3297C48.626 29.469 48.8717 29.5386 49.1419 29.5386C49.3631 29.5386 49.5514 29.4935 49.707 29.4035C49.8709 29.3052 49.9937 29.1659 50.0756 28.9858C50.1657 28.8056 50.2107 28.5844 50.2107 28.3224C50.2107 27.9129 50.1043 27.6016 49.8913 27.3887C49.6784 27.1676 49.404 27.057 49.0682 27.057C48.7406 27.057 48.4335 27.143 48.1468 27.315C47.8602 27.487 47.5981 27.704 47.3606 27.9661L47.1763 27.1798C47.422 26.8932 47.725 26.6598 48.0854 26.4796C48.454 26.2912 48.8389 26.197 49.2402 26.197C49.8299 26.197 50.3049 26.3772 50.6653 26.7376C51.0338 27.0979 51.2181 27.5853 51.2181 28.1995C51.2181 28.65 51.1321 29.039 50.9601 29.3666C50.7881 29.6942 50.5424 29.944 50.223 30.116C49.9118 30.288 49.5351 30.374 49.0928 30.374ZM52.6309 30.2266V25.1159L52.7783 24.1577V23.4206H58.9701V24.3051H56.8816V30.2266H55.8251V24.3051H53.6874V30.2266H52.6309ZM52.6063 21.8972C52.3688 21.8972 52.1723 21.8235 52.0167 21.6761C51.861 21.5205 51.7832 21.3198 51.7832 21.0741C51.7832 20.8366 51.861 20.64 52.0167 20.4844C52.1723 20.3288 52.3688 20.251 52.6063 20.251C52.8439 20.251 53.0404 20.3288 53.196 20.4844C53.3516 20.64 53.4295 20.8366 53.4295 21.0741C53.4295 21.3198 53.3516 21.5205 53.196 21.6761C53.0404 21.8235 52.8439 21.8972 52.6063 21.8972Z" fill="#FEF5EB"/>
</g>
</g>
<defs>
<linearGradient id="paint0_linear_23668_7548" x1="34.3125" y1="-1.04141e-05" x2="34.3125" y2="68" gradientUnits="userSpaceOnUse">
<stop stop-color="#C93D34"/>
<stop offset="1" stop-color="#7A2629"/>
</linearGradient>
<linearGradient id="paint1_linear_23668_7548" x1="34.3125" y1="-1.04141e-05" x2="34.3125" y2="68" gradientUnits="userSpaceOnUse">
<stop stop-color="#C93D34"/>
<stop offset="1" stop-color="#7A2629"/>
</linearGradient>
<clipPath id="clip0_23668_7548">
<rect width="68" height="68" fill="white" transform="translate(0.3125)"/>
</clipPath>
</defs>
</svg>
