<svg width="69" height="68" viewBox="0 0 69 68" fill="none" xmlns="http://www.w3.org/2000/svg">
<g clip-path="url(#clip0_23668_7560)">
<mask id="mask0_23668_7560" style="mask-type:alpha" maskUnits="userSpaceOnUse" x="0" y="0" width="68" height="68">
<path fill-rule="evenodd" clip-rule="evenodd" d="M47.0333 0H20.9667C13.5811 0 8.89667 0.0377779 4.45778 4.45778C0.018889 8.89667 0 13.6 0 20.9667V47.0333C0 54.4189 0.0377779 59.1033 4.45778 63.5422C8.89667 67.9811 13.6 68 20.9667 68H47.0333C54.4189 68 59.1033 67.9811 63.5422 63.5422C67.9622 59.1033 68 54.4 68 47.0333V20.9667C68 13.5811 67.9622 8.89667 63.5422 4.45778C59.1033 0.018889 54.4 0 47.0333 0Z" fill="url(#paint0_linear_23668_7560)"/>
</mask>
<g mask="url(#mask0_23668_7560)">
<rect width="68" height="68" fill="url(#paint1_linear_23668_7560)"/>
<path fill-rule="evenodd" clip-rule="evenodd" d="M15.6212 64.3733C26.4256 64.3733 45.6357 64.3733 45.6357 64.3733C52.5868 64.3733 57.0823 64.6378 61.2379 60.4445C64.8079 56.8745 64.5057 50.8678 64.7323 46.1078C60.709 52.1522 53.3234 51.9445 47.619 51.9445C47.619 51.9445 20.929 51.9445 10.9556 51.9445C0.982316 51.9633 4.81676 64.3733 15.6212 64.3733Z" fill="#FEF5EB"/>
<path d="M12.4854 53.5311H23.1387V61.5211L17.812 58.8578L12.4854 61.5211V53.5311Z" fill="#F19C33"/>
<path d="M20.249 23.3971C19.7942 23.3971 19.3963 23.3118 19.0553 23.1413C18.7237 22.9708 18.4158 22.7339 18.1315 22.4307C17.8473 22.1276 17.5489 21.7723 17.2363 21.3649C16.9615 20.986 16.7247 20.7112 16.5257 20.5407C16.3268 20.3702 16.0852 20.2849 15.801 20.2849C15.5357 20.2849 15.313 20.3702 15.133 20.5407C14.9625 20.7112 14.8772 20.9623 14.8772 21.2939C14.8772 21.5876 14.9672 21.8339 15.1472 22.0328C15.3367 22.2318 15.5925 22.3313 15.9146 22.3313C16.2368 22.3313 16.502 22.2365 16.7105 22.0471C16.9284 21.8576 17.1131 21.5828 17.2647 21.2228L18.0179 22.0755C17.8379 22.3313 17.6484 22.5586 17.4494 22.7576C17.2505 22.9566 17.0231 23.1129 16.7673 23.2266C16.521 23.3403 16.2131 23.3971 15.8436 23.3971C15.3415 23.3971 14.9388 23.2929 14.6357 23.0845C14.3325 22.876 14.1099 22.6108 13.9677 22.2886C13.8351 21.9571 13.7688 21.616 13.7688 21.2655C13.7688 20.8486 13.8588 20.4886 14.0388 20.1854C14.2188 19.8823 14.4604 19.6454 14.7636 19.4749C15.0667 19.3043 15.403 19.2191 15.7725 19.2191C16.1136 19.2191 16.4168 19.2807 16.682 19.4038C16.9473 19.5175 17.2078 19.7022 17.4636 19.958C17.7194 20.2044 17.9989 20.5312 18.3021 20.9386C18.5579 21.2702 18.7852 21.5355 18.9842 21.7344C19.1832 21.9334 19.3868 22.0755 19.5953 22.1607C19.8037 22.2365 20.0453 22.2744 20.32 22.2744C20.7937 22.2744 21.1537 22.1228 21.4001 21.8197C21.6559 21.507 21.7838 21.0618 21.7838 20.4839C21.7838 19.9344 21.6748 19.4559 21.4569 19.0485C21.239 18.6317 20.9406 18.2764 20.5616 17.9827C20.1827 17.6796 19.7563 17.4238 19.2826 17.2153L19.8226 16.1211C20.41 16.3674 20.9406 16.699 21.4143 17.1159C21.888 17.5327 22.2622 18.0206 22.5369 18.5796C22.8212 19.1291 22.9633 19.7401 22.9633 20.4128C22.9633 21.0381 22.8543 21.5734 22.6364 22.0186C22.428 22.4639 22.1201 22.805 21.7127 23.0418C21.3148 23.2787 20.8269 23.3971 20.249 23.3971ZM16.1562 17.1869C15.8815 17.1869 15.6162 17.1348 15.3604 17.0306C15.1141 16.9264 14.8867 16.7322 14.6783 16.4479C14.4699 16.1543 14.2899 15.7421 14.1383 15.2116L15.3178 14.8279C15.4599 15.349 15.5973 15.6948 15.7299 15.8653C15.8625 16.0358 16.0331 16.1211 16.2415 16.1211C16.431 16.1211 16.6062 16.0642 16.7673 15.9506C16.9378 15.8274 17.1747 15.5763 17.4778 15.1974L17.9184 14.6289C18.2405 14.2121 18.5342 13.8805 18.7995 13.6342C19.0742 13.3879 19.3632 13.2079 19.6663 13.0942C19.9695 12.9805 20.3295 12.9236 20.7464 12.9236L20.8316 14.0179C20.5 14.0368 20.2206 14.0889 19.9932 14.1742C19.7753 14.2595 19.5716 14.3968 19.3821 14.5863C19.2021 14.7663 18.9889 15.0126 18.7426 15.3253L18.4158 15.7516C18.1505 16.0927 17.8994 16.3674 17.6626 16.5758C17.4257 16.7843 17.1841 16.9406 16.9378 17.0448C16.701 17.1395 16.4404 17.1869 16.1562 17.1869ZM27.4246 13.5205C28.0878 13.5205 28.6468 13.6626 29.1015 13.9468C29.5563 14.2216 29.8973 14.591 30.1247 15.0553C30.3615 15.51 30.48 16.0121 30.48 16.5616C30.48 16.7322 30.4658 16.9027 30.4373 17.0732C30.4184 17.2438 30.3947 17.3811 30.3663 17.4853L29.3715 17.0022C29.381 16.9548 29.3857 16.9169 29.3857 16.8885C29.3857 16.8506 29.3857 16.8127 29.3857 16.7748C29.3857 16.4622 29.3289 16.14 29.2152 15.8085C29.1015 15.4674 28.9025 15.1832 28.6183 14.9558C28.3341 14.7189 27.9362 14.6005 27.4246 14.6005C26.9604 14.6005 26.6335 14.7 26.4441 14.899C26.2546 15.0884 26.1598 15.3063 26.1598 15.5527C26.1598 15.7895 26.2167 15.9885 26.3304 16.1495C26.4535 16.3106 26.6193 16.4527 26.8278 16.5758L25.5914 16.8601C25.4114 16.6801 25.274 16.4716 25.1793 16.2348C25.0845 15.9979 25.0372 15.7611 25.0372 15.5242C25.0372 15.1547 25.1224 14.8184 25.293 14.5153C25.4635 14.2121 25.724 13.9705 26.0746 13.7905C26.4251 13.6105 26.8751 13.5205 27.4246 13.5205ZM23.9571 19.8728C23.9571 19.1338 24.1135 18.4848 24.4261 17.9259C24.7387 17.3574 25.1698 16.9169 25.7193 16.6043C26.2783 16.2822 26.9272 16.1211 27.6662 16.1211C28.4146 16.1211 29.0636 16.2774 29.6131 16.5901C30.1721 16.8932 30.6079 17.3243 30.9205 17.8832C31.2331 18.4422 31.3895 19.1007 31.3895 19.8586C31.3895 20.5596 31.2379 21.1802 30.9347 21.7202C30.6315 22.2507 30.2005 22.6629 29.6415 22.9566C29.0826 23.2502 28.4241 23.3971 27.6662 23.3971C26.9178 23.3971 26.2641 23.2502 25.7051 22.9566C25.1556 22.6629 24.7245 22.2555 24.4119 21.7344C24.1087 21.2039 23.9571 20.5833 23.9571 19.8728ZM25.1366 19.7022C25.1366 20.4696 25.3498 21.0902 25.7761 21.5639C26.2025 22.0376 26.8325 22.2744 27.6662 22.2744C28.2346 22.2744 28.7036 22.1702 29.0731 21.9618C29.452 21.7439 29.7363 21.4455 29.9257 21.0665C30.1152 20.6875 30.21 20.2612 30.21 19.7875C30.21 19.3043 30.1152 18.8685 29.9257 18.4801C29.7457 18.0822 29.4662 17.7696 29.0873 17.5422C28.7178 17.3053 28.2441 17.1869 27.6662 17.1869C27.0883 17.1869 26.6099 17.3053 26.2309 17.5422C25.8614 17.7696 25.5867 18.0727 25.4067 18.4517C25.2267 18.8306 25.1366 19.2475 25.1366 19.7022ZM37.0138 23.3971C36.4927 23.3971 36.0711 23.3071 35.749 23.1271C35.4364 22.9471 35.2042 22.715 35.0527 22.4307C34.9106 22.1465 34.8395 21.8481 34.8395 21.5355C34.8395 21.1944 34.92 20.8912 35.0811 20.626C35.2421 20.3607 35.4506 20.1191 35.7064 19.9012C35.9622 19.6833 36.2322 19.4749 36.5164 19.2759C36.6111 19.2001 36.6774 19.148 36.7153 19.1196C36.7532 19.0817 36.7959 19.0438 36.8432 19.0059C37.1464 18.7785 37.3596 18.5843 37.4827 18.4233C37.6059 18.2527 37.6675 18.0775 37.6675 17.8975C37.6675 17.6322 37.5775 17.4427 37.3975 17.329C37.2175 17.2059 36.919 17.1111 36.5022 17.0448L36.9854 16.1495C37.4212 16.1969 37.7717 16.3011 38.037 16.4622C38.3022 16.6137 38.4964 16.7985 38.6196 17.0164C38.7428 17.2343 38.8044 17.4569 38.8044 17.6843C38.8044 18.1485 38.6812 18.5275 38.4349 18.8212C38.1885 19.1149 37.8854 19.3991 37.5254 19.6738C37.1654 19.9486 36.8717 20.1854 36.6443 20.3844C36.4169 20.5739 36.2511 20.7539 36.1469 20.9244C36.0427 21.0949 35.9906 21.2844 35.9906 21.4928C35.9906 21.7013 36.0616 21.8955 36.2038 22.0755C36.3553 22.246 36.6301 22.3313 37.028 22.3313C37.388 22.3313 37.658 22.2507 37.838 22.0897C38.018 21.9192 38.108 21.6823 38.108 21.3791C38.108 20.9433 37.9706 20.5644 37.6959 20.2423C37.4306 19.9107 37.0659 19.6501 36.6017 19.4607C36.1469 19.2712 35.6353 19.1764 35.0669 19.1764C34.4605 19.1764 34.039 19.2807 33.8021 19.4891C33.5747 19.688 33.461 19.9533 33.461 20.2849C33.461 20.4744 33.4847 20.6496 33.5321 20.8107C33.5889 20.9718 33.641 21.1091 33.6884 21.2228L32.6084 21.5355C32.5231 21.346 32.4473 21.1281 32.381 20.8818C32.3242 20.6354 32.2957 20.4081 32.2957 20.1996C32.2957 19.8491 32.3763 19.5175 32.5373 19.2049C32.7079 18.8922 32.9873 18.6364 33.3758 18.4375C33.7642 18.2385 34.2947 18.139 34.9674 18.139C35.4885 18.139 35.9811 18.2054 36.4453 18.338C36.919 18.4706 37.3833 18.6933 37.838 19.0059C38.3022 19.2901 38.6575 19.6407 38.9038 20.0575C39.1502 20.4649 39.2733 20.9291 39.2733 21.4502C39.2733 22.0565 39.0696 22.535 38.6622 22.8855C38.2643 23.2266 37.7148 23.3971 37.0138 23.3971ZM35.7916 17.1869C35.5169 17.1869 35.2516 17.1348 34.9958 17.0306C34.7495 16.9264 34.5221 16.7322 34.3137 16.4479C34.1053 16.1543 33.9253 15.7421 33.7737 15.2116L34.9532 14.8279C35.0953 15.349 35.2327 15.6948 35.3653 15.8653C35.4979 16.0358 35.6685 16.1211 35.8769 16.1211C36.0664 16.1211 36.2416 16.0642 36.4027 15.9506C36.5732 15.8274 36.8101 15.5763 37.1133 15.1974L37.5538 14.6289C37.8759 14.2121 38.1696 13.8805 38.4349 13.6342C38.7096 13.3879 38.9986 13.2079 39.3017 13.0942C39.6049 12.9805 39.9649 12.9236 40.3818 12.9236L40.467 14.0179C40.1354 14.0368 39.856 14.0889 39.6286 14.1742C39.4107 14.2595 39.207 14.3968 39.0175 14.5863C38.8375 14.7663 38.6243 15.0126 38.378 15.3253L38.0512 15.7516C37.7859 16.0927 37.5348 16.3674 37.298 16.5758C37.0611 16.7843 36.8196 16.9406 36.5732 17.0448C36.3364 17.1395 36.0759 17.1869 35.7916 17.1869ZM41.3453 23.3971C40.7106 23.3971 40.1564 23.236 39.6827 22.9139C39.1995 22.5918 38.7732 22.1702 38.4037 21.6491L38.9721 20.7254C39.2374 21.076 39.4979 21.3649 39.7537 21.5923C40.019 21.8197 40.289 21.9902 40.5637 22.1039C40.848 22.2176 41.1416 22.2744 41.4448 22.2744C41.928 22.2744 42.2975 22.1228 42.5533 21.8197C42.8091 21.507 42.937 21.0618 42.937 20.4839C42.937 19.9344 42.8233 19.4559 42.5959 19.0485C42.378 18.6317 42.0796 18.2764 41.7006 17.9827C41.3311 17.6796 40.9095 17.4238 40.4358 17.2153L40.9616 16.1211C41.549 16.3674 42.0796 16.699 42.5533 17.1159C43.027 17.5327 43.4059 18.0159 43.6901 18.5654C43.9744 19.1149 44.1165 19.7259 44.1165 20.3986C44.1165 21.3365 43.8796 22.0707 43.4059 22.6013C42.9322 23.1318 42.2454 23.3971 41.3453 23.3971ZM51.7719 23.3971C51.4214 23.3971 51.1088 23.3497 50.834 23.255C50.5593 23.1602 50.313 23.0087 50.0951 22.8002C49.8866 22.5823 49.6829 22.2981 49.484 21.9476L49.754 21.9192C49.555 22.3265 49.3324 22.6392 49.0861 22.8571C48.8398 23.0655 48.5792 23.2076 48.3045 23.2834C48.0297 23.3592 47.736 23.3971 47.4234 23.3971C46.7318 23.3971 46.1728 23.1318 45.7465 22.6013C45.3202 22.0707 45.107 21.3318 45.107 20.3844C45.107 19.5412 45.2918 18.8022 45.6612 18.1675C46.0307 17.5232 46.5565 17.0211 47.2387 16.6611C47.9208 16.3011 48.7355 16.1211 49.6829 16.1211C50.6303 16.1211 51.4356 16.3058 52.0988 16.6753C52.762 17.0353 53.2688 17.5375 53.6194 18.1817C53.9699 18.8164 54.1452 19.5507 54.1452 20.3844C54.1452 21.0286 54.0457 21.5781 53.8467 22.0328C53.6573 22.4781 53.3825 22.8192 53.0225 23.056C52.672 23.2834 52.2551 23.3971 51.7719 23.3971ZM51.6583 22.2744C52.0562 22.2744 52.3735 22.1276 52.6104 21.8339C52.8472 21.5402 52.9657 21.0476 52.9657 20.356C52.9657 19.7401 52.8472 19.1954 52.6104 18.7217C52.383 18.248 52.0325 17.8738 51.5588 17.599C51.0946 17.3243 50.5024 17.1869 49.7824 17.1869H49.5692C48.8587 17.1869 48.2571 17.3195 47.7645 17.5848C47.2813 17.8406 46.9118 18.2054 46.656 18.6791C46.4097 19.1433 46.2865 19.688 46.2865 20.3133C46.2865 21.0239 46.4002 21.5307 46.6276 21.8339C46.8644 22.1276 47.1865 22.2744 47.5939 22.2744C48.0203 22.2744 48.3613 22.1228 48.6171 21.8197C48.8824 21.507 49.034 21.0997 49.0719 20.5975H50.1803C50.2182 21.1755 50.384 21.6018 50.6777 21.8765C50.9809 22.1418 51.3077 22.2744 51.6583 22.2744ZM49.1998 17.1869C48.925 17.1869 48.6597 17.1348 48.404 17.0306C48.1576 16.9264 47.9303 16.7322 47.7218 16.4479C47.5134 16.1543 47.3334 15.7421 47.1818 15.2116L48.3613 14.8279C48.5034 15.349 48.6408 15.6948 48.7734 15.8653C48.9061 16.0358 49.0766 16.1211 49.285 16.1211C49.4745 16.1211 49.6498 16.0642 49.8108 15.9506C49.9814 15.8274 50.2182 15.5763 50.5214 15.1974L50.9619 14.6289C51.284 14.2121 51.5777 13.8805 51.843 13.6342C52.1177 13.3879 52.4067 13.2079 52.7099 13.0942C53.013 12.9805 53.373 12.9236 53.7899 12.9236L53.8752 14.0179C53.5436 14.0368 53.2641 14.0889 53.0367 14.1742C52.8188 14.2595 52.6151 14.3968 52.4256 14.5863C52.2456 14.7663 52.0325 15.0126 51.7862 15.3253L51.4593 15.7516C51.194 16.0927 50.943 16.3674 50.7061 16.5758C50.4693 16.7843 50.2277 16.9406 49.9814 17.0448C49.7445 17.1395 49.484 17.1869 49.1998 17.1869ZM51.1635 28.712C50.7941 28.712 50.4767 28.6409 50.2114 28.4988C49.9461 28.3662 49.714 28.0914 49.5151 27.6746H49.7851C49.5388 28.063 49.2924 28.333 49.0461 28.4846C48.7998 28.6362 48.4682 28.712 48.0513 28.712C47.6819 28.712 47.374 28.6172 47.1276 28.4278C46.8813 28.2478 46.7013 28.0062 46.5876 27.703C46.4645 27.4093 46.4029 27.0919 46.4029 26.7509C46.4029 26.1919 46.545 25.7135 46.8292 25.3156C47.1039 24.9271 47.4876 24.624 47.9803 24.4061C48.4635 24.1976 49.0129 24.0934 49.6288 24.0934C50.3014 24.0934 50.8793 24.2071 51.3625 24.4345C51.8457 24.6619 52.2151 24.9745 52.4709 25.3724C52.7267 25.7798 52.8546 26.244 52.8546 26.7651C52.8546 27.0967 52.8025 27.4093 52.6983 27.703C52.5846 28.0062 52.4046 28.2478 52.1583 28.4278C51.912 28.6172 51.5804 28.712 51.1635 28.712ZM51.0072 27.8025C51.2725 27.8025 51.4809 27.7077 51.6325 27.5183C51.7746 27.3383 51.8457 27.0919 51.8457 26.7793C51.8457 26.2488 51.6562 25.8177 51.2772 25.4861C50.8888 25.164 50.3393 25.0029 49.6288 25.0029C48.8898 25.0029 48.3356 25.164 47.9661 25.4861C47.5966 25.8082 47.4118 26.2298 47.4118 26.7509C47.4118 27.073 47.4876 27.3288 47.6392 27.5183C47.7908 27.7077 47.9992 27.8025 48.2645 27.8025C48.4919 27.8025 48.6814 27.7267 48.8329 27.5751C48.9845 27.433 49.0887 27.1867 49.1456 26.8361H50.1261C50.1925 27.2056 50.2967 27.4567 50.4388 27.5893C50.5809 27.7314 50.7704 27.8025 51.0072 27.8025ZM49.1172 29.8631L49.2024 28.513H50.0977L50.1546 29.8631H49.1172ZM15.4461 30.1211C16.185 30.1211 16.8198 30.2632 17.3503 30.5474C17.8809 30.8222 18.2835 31.2201 18.5583 31.7411C18.8425 32.2527 18.9846 32.8733 18.9846 33.6028C18.9846 34.1996 18.9277 34.7254 18.8141 35.1802C18.7004 35.6349 18.5583 36.0376 18.3877 36.3881C18.2267 36.7387 18.0561 37.056 17.8761 37.3403L16.6966 36.8144C16.8766 36.5492 17.0519 36.2744 17.2224 35.9902C17.393 35.706 17.5303 35.3839 17.6346 35.0239C17.7482 34.6544 17.8051 34.2281 17.8051 33.7449C17.8051 33.2807 17.7293 32.8543 17.5777 32.4659C17.4261 32.0775 17.1703 31.7696 16.8103 31.5422C16.4598 31.3053 15.9813 31.1869 15.375 31.1869C14.8918 31.1869 14.475 31.2864 14.1244 31.4853C13.7739 31.6843 13.4992 31.9733 13.3002 32.3522C13.1107 32.7312 13.016 33.1907 13.016 33.7307C13.016 34.3749 13.1202 34.9433 13.3286 35.436C13.5371 35.9192 13.8023 36.3786 14.1244 36.8144L12.9449 37.3403C12.6228 36.8476 12.3576 36.2981 12.1491 35.6918C11.9407 35.0854 11.8365 34.4365 11.8365 33.7449C11.8365 33.0912 11.9691 32.4896 12.2344 31.9401C12.5091 31.3906 12.9118 30.9501 13.4423 30.6185C13.9823 30.2869 14.6503 30.1211 15.4461 30.1211ZM15.0197 31.1869C14.745 31.1869 14.4797 31.1348 14.2239 31.0306C13.9776 30.9264 13.7502 30.7322 13.5418 30.4479C13.3334 30.1543 13.1534 29.7421 13.0018 29.2116L14.1813 28.8279C14.3234 29.349 14.4608 29.6948 14.5934 29.8653C14.726 30.0358 14.8966 30.1211 15.105 30.1211C15.2945 30.1211 15.4698 30.0642 15.6308 29.9506C15.8013 29.8274 16.0382 29.5763 16.3414 29.1974L16.7819 28.6289C17.104 28.2121 17.3977 27.8805 17.663 27.6342C17.9377 27.3879 18.2267 27.2079 18.5298 27.0942C18.833 26.9805 19.193 26.9236 19.6099 26.9236L19.6951 28.0179C19.3635 28.0368 19.0841 28.0889 18.8567 28.1742C18.6388 28.2595 18.4351 28.3968 18.2456 28.5863C18.0656 28.7663 17.8525 29.0126 17.6061 29.3253L17.2793 29.7516C17.014 30.0927 16.7629 30.3674 16.5261 30.5758C16.2892 30.7843 16.0477 30.9406 15.8013 31.0448C15.5645 31.1395 15.304 31.1869 15.0197 31.1869ZM15.4462 41.2483C14.8114 41.2483 14.243 41.1393 13.7409 40.9214C13.2293 40.713 12.784 40.3909 12.405 39.9551C12.0166 39.5287 11.685 38.9935 11.4103 38.3492L12.405 37.8376C12.6229 38.3871 12.8835 38.8277 13.1866 39.1593C13.4803 39.5003 13.8167 39.7466 14.1956 39.8982C14.5746 40.0498 14.9914 40.1256 15.4462 40.1256C15.9199 40.1256 16.3462 40.0498 16.7252 39.8982C17.0946 39.7466 17.4262 39.5003 17.7199 39.1593C18.0136 38.8277 18.2694 38.3871 18.4873 37.8376L19.4821 38.3492C19.2073 38.9935 18.8805 39.5287 18.5015 39.9551C18.1226 40.3909 17.682 40.713 17.1799 40.9214C16.6683 41.1393 16.0904 41.2483 15.4462 41.2483ZM20.0221 34.2707C20.0221 33.6738 20.15 33.1433 20.4058 32.6791C20.6711 32.2054 21.0406 31.8311 21.5142 31.5564C21.9879 31.2817 22.5327 31.1443 23.1485 31.1443C23.7738 31.1443 24.3233 31.2817 24.797 31.5564C25.2707 31.8217 25.6354 32.1912 25.8912 32.6649C26.1565 33.1385 26.2891 33.6738 26.2891 34.2707C26.2891 34.8675 26.1612 35.4028 25.9054 35.8765C25.6496 36.3407 25.2849 36.7102 24.8112 36.985C24.347 37.2597 23.7927 37.3971 23.1485 37.3971C22.5138 37.3971 21.9595 37.2597 21.4858 36.985C21.0216 36.7102 20.6616 36.336 20.4058 35.8623C20.15 35.3886 20.0221 34.8581 20.0221 34.2707ZM21.1874 34.2565C21.1874 34.8249 21.3532 35.3081 21.6848 35.706C22.0164 36.0944 22.5043 36.2886 23.1485 36.2886C23.5843 36.2886 23.9491 36.1986 24.2427 36.0186C24.5364 35.8386 24.7543 35.597 24.8965 35.2939C25.048 34.9812 25.1238 34.6354 25.1238 34.2565C25.1238 33.6975 24.9486 33.2238 24.598 32.8354C24.257 32.447 23.7738 32.2527 23.1485 32.2527C22.7317 32.2527 22.3764 32.3427 22.0827 32.5227C21.789 32.7027 21.5664 32.9443 21.4148 33.2475C21.2632 33.5412 21.1874 33.8775 21.1874 34.2565ZM33.9181 37.3971C33.5675 37.3971 33.2549 37.3497 32.9801 37.255C32.7054 37.1602 32.4591 37.0087 32.2412 36.8002C32.0327 36.5823 31.8291 36.2981 31.6301 35.9476L31.9001 35.9192C31.7012 36.3265 31.4785 36.6392 31.2322 36.8571C30.9859 37.0655 30.7253 37.2076 30.4506 37.2834C30.1759 37.3592 29.8822 37.3971 29.5695 37.3971C28.8779 37.3971 28.319 37.1318 27.8926 36.6013C27.4663 36.0707 27.2531 35.3318 27.2531 34.3844C27.2531 33.5412 27.4379 32.8022 27.8074 32.1675C28.1768 31.5232 28.7027 31.0211 29.3848 30.6611C30.0669 30.3011 30.8817 30.1211 31.8291 30.1211C32.7765 30.1211 33.5817 30.3058 34.2449 30.6753C34.9081 31.0353 35.415 31.5375 35.7655 32.1817C36.116 32.8164 36.2913 33.5507 36.2913 34.3844C36.2913 35.0286 36.1918 35.5781 35.9929 36.0328C35.8034 36.4781 35.5286 36.8192 35.1686 37.056C34.8181 37.2834 34.4012 37.3971 33.9181 37.3971ZM33.8044 36.2744C34.2023 36.2744 34.5197 36.1276 34.7565 35.8339C34.9934 35.5402 35.1118 35.0476 35.1118 34.356C35.1118 33.7401 34.9934 33.1954 34.7565 32.7217C34.5291 32.248 34.1786 31.8738 33.7049 31.599C33.2407 31.3243 32.6486 31.1869 31.9285 31.1869H31.7154C31.0048 31.1869 30.4032 31.3195 29.9106 31.5848C29.4274 31.8406 29.0579 32.2054 28.8021 32.6791C28.5558 33.1433 28.4326 33.688 28.4326 34.3133C28.4326 35.0239 28.5463 35.5307 28.7737 35.8339C29.0106 36.1276 29.3327 36.2744 29.74 36.2744C30.0243 36.2744 30.2611 36.2128 30.4506 36.0897C30.6495 35.9665 30.8106 35.796 30.9338 35.5781C31.0569 35.3602 31.1517 35.1091 31.218 34.8249H32.3264C32.3833 35.147 32.4828 35.417 32.6249 35.6349C32.7765 35.8434 32.9517 36.0044 33.1507 36.1181C33.3591 36.2223 33.577 36.2744 33.8044 36.2744ZM31.1327 39.0029L31.2322 36.9992H32.298L32.4117 39.0029H31.1327ZM31.019 33.418C31.019 33.1149 31.0901 32.9017 31.2322 32.7785C31.3743 32.6554 31.559 32.5938 31.7864 32.5938C31.9949 32.5938 32.1701 32.6554 32.3122 32.7785C32.4638 32.9017 32.5396 33.1149 32.5396 33.418C32.5396 33.7212 32.4638 33.9391 32.3122 34.0717C32.1701 34.2044 31.9949 34.2707 31.7864 34.2707C31.559 34.2707 31.3743 34.2044 31.2322 34.0717C31.0901 33.9391 31.019 33.7212 31.019 33.418ZM31.3459 31.1869C31.0711 31.1869 30.8059 31.1348 30.5501 31.0306C30.3038 30.9264 30.0764 30.7322 29.8679 30.4479C29.6595 30.1543 29.4795 29.7421 29.3279 29.2116L30.5074 28.8279C30.6495 29.349 30.7869 29.6948 30.9196 29.8653C31.0522 30.0358 31.2227 30.1211 31.4312 30.1211C31.6206 30.1211 31.7959 30.0642 31.957 29.9506C32.1275 29.8274 32.3643 29.5763 32.6675 29.1974L33.108 28.6289C33.4302 28.2121 33.7238 27.8805 33.9891 27.6342C34.2639 27.3879 34.5528 27.2079 34.856 27.0942C35.1592 26.9805 35.5192 26.9236 35.936 26.9236L36.0213 28.0179C35.6897 28.0368 35.4102 28.0889 35.1828 28.1742C34.9649 28.2595 34.7612 28.3968 34.5718 28.5863C34.3918 28.7663 34.1786 29.0126 33.9323 29.3253L33.6054 29.7516C33.3402 30.0927 33.0891 30.3674 32.8522 30.5758C32.6154 30.7843 32.3738 30.9406 32.1275 31.0448C31.8906 31.1395 31.6301 31.1869 31.3459 31.1869ZM40.1859 31.1869C39.9111 31.1869 39.6459 31.1348 39.3901 31.0306C39.1437 30.9264 38.9164 30.7322 38.7079 30.4479C38.4995 30.1543 38.3195 29.7421 38.1679 29.2116L39.3474 28.8279C39.4895 29.349 39.6269 29.6948 39.7595 29.8653C39.8922 30.0358 40.0627 30.1211 40.2711 30.1211C40.4606 30.1211 40.6359 30.0642 40.7969 29.9506C40.9675 29.8274 41.2043 29.5763 41.5075 29.1974L41.948 28.6289C42.2701 28.2121 42.5638 27.8805 42.8291 27.6342C43.1038 27.3879 43.3928 27.2079 43.696 27.0942C43.9991 26.9805 44.3591 26.9236 44.776 26.9236L44.8613 28.0179C44.5297 28.0368 44.2502 28.0889 44.0228 28.1742C43.8049 28.2595 43.6012 28.3968 43.4117 28.5863C43.2317 28.7663 43.0186 29.0126 42.7723 29.3253L42.4454 29.7516C42.1801 30.0927 41.9291 30.3674 41.6922 30.5758C41.4554 30.7843 41.2138 30.9406 40.9675 31.0448C40.7306 31.1395 40.4701 31.1869 40.1859 31.1869ZM43.6249 37.3971C43.1891 37.3971 42.8054 37.3118 42.4738 37.1413C42.1422 36.9708 41.8343 36.7339 41.5501 36.4307C41.2754 36.1276 40.9817 35.7723 40.669 35.3649C40.3943 34.986 40.1574 34.7112 39.9585 34.5407C39.7595 34.3702 39.518 34.2849 39.2337 34.2849C38.9685 34.2849 38.7458 34.3702 38.5658 34.5407C38.3953 34.7112 38.31 34.9623 38.31 35.2939C38.31 35.5876 38.4 35.8339 38.58 36.0328C38.7695 36.2318 39.0253 36.3313 39.3474 36.3313C39.6695 36.3313 39.9348 36.2365 40.1432 36.0471C40.3611 35.8576 40.5459 35.5828 40.6975 35.2228L41.4506 36.0755C41.2706 36.3313 41.0812 36.5586 40.8822 36.7576C40.6832 36.9566 40.4559 37.1129 40.2001 37.2266C39.9538 37.3403 39.6459 37.3971 39.2764 37.3971C38.7742 37.3971 38.3716 37.2929 38.0684 37.0845C37.7653 36.876 37.5426 36.6108 37.4005 36.2886C37.2679 35.9571 37.2016 35.616 37.2016 35.2655C37.2016 34.8486 37.2916 34.4886 37.4716 34.1854C37.6516 33.8823 37.8932 33.6454 38.1963 33.4749C38.4995 33.3043 38.8358 33.2191 39.2053 33.2191C39.5464 33.2191 39.8495 33.2807 40.1148 33.4038C40.3801 33.5175 40.6406 33.7022 40.8964 33.958C41.1522 34.2044 41.4317 34.5312 41.7349 34.9386C41.9907 35.2702 42.218 35.5355 42.417 35.7344C42.6159 35.9334 42.8149 36.0755 43.0138 36.1607C43.2128 36.2365 43.4402 36.2744 43.696 36.2744C44.1981 36.2744 44.577 36.1228 44.8328 35.8197C45.0886 35.5165 45.2165 35.076 45.2165 34.4981C45.2165 33.958 45.1076 33.4843 44.8897 33.077C44.6718 32.6601 44.3686 32.3143 43.9802 32.0396C43.5918 31.7554 43.137 31.5422 42.6159 31.4001C42.0949 31.258 41.5359 31.1869 40.939 31.1869H40.2427L41.4222 30.1211C42.4738 30.1874 43.3691 30.4148 44.1081 30.8032C44.8565 31.1822 45.425 31.689 45.8134 32.3238C46.2018 32.9491 46.396 33.6644 46.396 34.4696C46.396 35.0286 46.2966 35.5307 46.0976 35.976C45.8987 36.4213 45.5908 36.7718 45.1739 37.0276C44.7665 37.2739 44.2502 37.3971 43.6249 37.3971ZM48.5561 37.3971C47.9214 37.3971 47.3624 37.236 46.8792 36.9139C46.4055 36.5918 45.9839 36.1702 45.6144 35.6491L46.1829 34.7254C46.4482 35.076 46.7087 35.3649 46.9645 35.5923C47.2298 35.8197 47.4998 35.9902 47.7745 36.1039C48.0587 36.2176 48.3524 36.2744 48.6556 36.2744C49.1388 36.2744 49.5082 36.1228 49.764 35.8197C50.0198 35.507 50.1477 35.0618 50.1477 34.4839C50.1477 33.9344 50.034 33.4559 49.8067 33.0485C49.5888 32.6317 49.2903 32.2764 48.9114 31.9827C48.5419 31.6796 48.1203 31.4238 47.6466 31.2153L48.1724 30.1211C48.7598 30.3674 49.2903 30.699 49.764 31.1159C50.2377 31.5327 50.6167 32.0159 50.9009 32.5654C51.1851 33.1149 51.3272 33.7259 51.3272 34.3986C51.3272 35.3365 51.0904 36.0707 50.6167 36.6013C50.143 37.1318 49.4561 37.3971 48.5561 37.3971ZM53.4677 37.3971C52.8329 37.3971 52.2787 37.236 51.805 36.9139C51.3218 36.5918 50.8955 36.1702 50.526 35.6491L51.0944 34.7254C51.3597 35.076 51.6202 35.3649 51.876 35.5923C52.1413 35.8197 52.4113 35.9902 52.6861 36.1039C52.9703 36.2176 53.264 36.2744 53.5671 36.2744C54.0503 36.2744 54.4198 36.1228 54.6756 35.8197C54.9314 35.507 55.0593 35.0618 55.0593 34.4839C55.0593 33.9344 54.9456 33.4559 54.7182 33.0485C54.5003 32.6317 54.2019 32.2764 53.8229 31.9827C53.4534 31.6796 53.0319 31.4238 52.5582 31.2153L53.084 30.1211C53.6713 30.3674 54.2019 30.699 54.6756 31.1159C55.1493 31.5327 55.5282 32.0159 55.8125 32.5654C56.0967 33.1149 56.2388 33.7259 56.2388 34.3986C56.2388 35.3365 56.0019 36.0707 55.5282 36.6013C55.0545 37.1318 54.3677 37.3971 53.4677 37.3971Z" fill="#FEF5EB"/>
</g>
</g>
<defs>
<linearGradient id="paint0_linear_23668_7560" x1="34" y1="-1.04141e-05" x2="34" y2="68" gradientUnits="userSpaceOnUse">
<stop stop-color="#C93D34"/>
<stop offset="1" stop-color="#7A2629"/>
</linearGradient>
<linearGradient id="paint1_linear_23668_7560" x1="34" y1="-1.04141e-05" x2="34" y2="68" gradientUnits="userSpaceOnUse">
<stop stop-color="#C93D34"/>
<stop offset="1" stop-color="#7A2629"/>
</linearGradient>
<clipPath id="clip0_23668_7560">
<rect width="68" height="68" fill="white"/>
</clipPath>
</defs>
</svg>
