<svg width="68" height="68" viewBox="0 0 68 68" fill="none" xmlns="http://www.w3.org/2000/svg">
<g clip-path="url(#clip0_23668_7489)">
<mask id="mask0_23668_7489" style="mask-type:alpha" maskUnits="userSpaceOnUse" x="0" y="0" width="68" height="68">
<path fill-rule="evenodd" clip-rule="evenodd" d="M47.0333 0H20.9667C13.5811 0 8.89667 0.0377779 4.45778 4.45778C0.018889 8.89667 0 13.6 0 20.9667V47.0333C0 54.4189 0.0377779 59.1033 4.45778 63.5422C8.89667 67.9811 13.6 68 20.9667 68H47.0333C54.4189 68 59.1033 67.9811 63.5422 63.5422C67.9622 59.1033 68 54.4 68 47.0333V20.9667C68 13.5811 67.9622 8.89667 63.5422 4.45778C59.1033 0.018889 54.4 0 47.0333 0Z" fill="url(#paint0_linear_23668_7489)"/>
</mask>
<g mask="url(#mask0_23668_7489)">
<rect width="68" height="68" fill="url(#paint1_linear_23668_7489)"/>
<path fill-rule="evenodd" clip-rule="evenodd" d="M15.6212 64.3732C26.4256 64.3732 45.6357 64.3732 45.6357 64.3732C52.5868 64.3732 57.0823 64.6377 61.2379 60.4443C64.8079 56.8743 64.5057 50.8677 64.7323 46.1077C60.709 52.1521 53.3234 51.9443 47.619 51.9443C47.619 51.9443 20.929 51.9443 10.9556 51.9443C0.982316 51.9632 4.81676 64.3732 15.6212 64.3732Z" fill="#FEF5EB"/>
<path d="M12.4854 53.531H23.1387V61.521L17.812 58.8577L12.4854 61.521V53.531Z" fill="#F19C33"/>
<path fill-rule="evenodd" clip-rule="evenodd" d="M14.5751 30.8851L12.9969 26.0479L11.4141 30.8851H10.3729V26.4027C10.183 26.4214 10.0507 26.4307 9.97598 26.4307C9.65848 26.4307 9.38844 26.3202 9.16588 26.0992C8.94331 25.8782 8.83203 25.6105 8.83203 25.2961C8.83203 25.044 8.91141 24.8043 9.07016 24.5771C9.24448 24.328 9.45303 24.188 9.69583 24.1568C9.8826 24.135 10.0149 24.1241 10.0927 24.1241C10.5223 24.1241 10.86 24.2596 11.1059 24.5304C11.302 24.7856 11.4001 25.1093 11.4001 25.5016V27.7661L11.3627 28.4992L12.7401 24.2082H13.2864L14.6498 28.4992L14.6265 27.7661V24.2082H15.649V30.8851H14.5751ZM9.48572 25.2961C9.48572 25.43 9.53397 25.5475 9.63046 25.6486C9.72696 25.7498 9.84213 25.8004 9.97598 25.8004C10.1129 25.8004 10.2305 25.7506 10.3285 25.651C10.4266 25.5514 10.4756 25.4331 10.4756 25.2961C10.4756 25.1529 10.4281 25.0307 10.3332 24.9296C10.2382 24.8284 10.1192 24.7778 9.97598 24.7778C9.83591 24.7778 9.71918 24.83 9.62579 24.9342C9.53241 25.0385 9.48572 25.1591 9.48572 25.2961ZM19.2892 26.4587C18.9032 26.3871 18.5203 26.3436 18.1406 26.328C17.9694 26.3218 17.82 26.3187 17.6923 26.3187C17.3219 26.3187 17.1211 26.3296 17.09 26.3513C17.0807 26.3078 17.076 26.2626 17.076 26.2159C17.076 25.8019 17.2114 25.3833 17.4822 24.9599C17.8277 24.4214 18.3927 24.1522 19.1771 24.1522C19.395 24.1522 19.7001 24.209 20.0923 24.3226C20.4845 24.4362 20.774 24.493 20.9608 24.493C21.325 24.493 21.574 24.3794 21.7078 24.1522L22.5249 24.5771C22.4814 24.6953 22.3911 24.8183 22.2541 24.9459C22.058 25.1296 21.8386 25.2339 21.5958 25.2588C21.4557 25.2743 21.3608 25.2821 21.311 25.2821C21.065 25.2821 20.7226 25.2121 20.2837 25.072C19.8884 24.9506 19.5865 24.8899 19.3779 24.8899C19.0013 24.8899 18.7071 24.9848 18.4954 25.1747C18.3585 25.2899 18.248 25.458 18.1639 25.679C18.5281 25.679 18.9561 25.7163 19.448 25.791C20.0207 25.8813 20.4845 26.0074 20.8394 26.1693C21.1942 26.3311 21.4355 26.5288 21.5631 26.7622C21.6689 26.949 21.7218 27.142 21.7218 27.3412V29.6011C21.7218 29.9902 21.5958 30.3217 21.3436 30.5956C21.1071 30.854 20.7989 30.9832 20.4191 30.9832C19.9958 30.9832 19.6643 30.8509 19.4246 30.5863C19.2285 30.3746 19.1304 30.1163 19.1304 29.8112C19.1304 29.4813 19.2394 29.2081 19.4573 28.9918C19.6752 28.7754 19.9491 28.6673 20.2791 28.6673C20.4223 28.6673 20.5296 28.6797 20.6012 28.7046V27.4346C20.6012 27.2323 20.5514 27.0657 20.4518 26.935C20.2962 26.7296 19.9086 26.5708 19.2892 26.4587ZM20.2791 30.3248C20.4191 30.3248 20.5382 30.2742 20.6363 30.1731C20.7343 30.0719 20.7833 29.9513 20.7833 29.8112C20.7833 29.6711 20.7335 29.5513 20.6339 29.4517C20.5343 29.3521 20.416 29.3023 20.2791 29.3023C20.1359 29.3023 20.0137 29.3513 19.9125 29.4494C19.8114 29.5474 19.7608 29.668 19.7608 29.8112C19.7608 29.9544 19.8106 30.0758 19.9102 30.1754C20.0098 30.275 20.1328 30.3248 20.2791 30.3248ZM26.8376 25.4035C26.9248 25.1483 26.9683 24.9319 26.9683 24.7545L27.9208 24.9272C27.815 25.6027 27.4555 26.1537 26.8423 26.5801C26.4874 26.8229 25.9582 26.9443 25.2547 26.9443C24.3396 26.9443 23.7124 26.686 23.3731 26.1693C23.2641 26.0105 23.2096 25.8237 23.2096 25.6089C23.2096 25.3288 23.3124 25.0704 23.5178 24.8339C23.7139 24.6782 23.9474 24.5786 24.2182 24.535C24.5699 24.535 24.8547 24.6315 25.0726 24.8245C25.2656 25.0362 25.3621 25.2977 25.3621 25.6089C25.3621 25.9358 25.2018 26.177 24.8812 26.3327C25.0182 26.3731 25.1582 26.3934 25.3014 26.3934C25.51 26.3934 25.7123 26.3591 25.9084 26.2906C26.3722 26.1381 26.682 25.8424 26.8376 25.4035ZM26.8376 28.9614C26.9248 28.7124 26.9683 28.5007 26.9683 28.3264L27.9208 28.4852C27.815 29.1575 27.457 29.7069 26.8469 30.1334C26.4952 30.3793 25.9645 30.5023 25.2547 30.5023C24.3365 30.5023 23.7108 30.2486 23.3777 29.7412C23.2657 29.5731 23.2096 29.3863 23.2096 29.1809C23.2096 28.8727 23.3139 28.6182 23.5225 28.4175C23.731 28.2167 23.9629 28.1163 24.2182 28.1163C24.2493 28.1132 24.2929 28.1116 24.3489 28.1116C24.6415 28.1116 24.8835 28.2058 25.075 28.3941C25.2664 28.5824 25.3621 28.8447 25.3621 29.1809C25.3621 29.4859 25.2018 29.7272 24.8812 29.9046C25.0057 29.9388 25.138 29.956 25.2781 29.956C26.0874 29.956 26.6072 29.6245 26.8376 28.9614ZM23.7793 25.5576C23.7793 25.6946 23.8267 25.8128 23.9217 25.9124C24.0166 26.0121 24.1326 26.0619 24.2695 26.0619C24.4158 26.0619 24.5396 26.0144 24.6407 25.9194C24.7419 25.8245 24.7925 25.7039 24.7925 25.5576C24.7925 25.4175 24.7403 25.3008 24.6361 25.2074C24.5318 25.114 24.4096 25.0673 24.2695 25.0673C24.1388 25.0673 24.0244 25.1163 23.9264 25.2144C23.8283 25.3125 23.7793 25.4268 23.7793 25.5576ZM23.7793 29.1295C23.7793 29.2634 23.8275 29.3785 23.924 29.475C24.0205 29.5715 24.1357 29.6198 24.2695 29.6198C24.6182 29.6198 24.7925 29.4564 24.7925 29.1295C24.7925 28.9863 24.7411 28.8665 24.6384 28.77C24.5357 28.6735 24.4127 28.6252 24.2695 28.6252C24.1388 28.6252 24.0244 28.6766 23.9264 28.7793C23.8283 28.8821 23.7793 28.9988 23.7793 29.1295ZM31.0147 30.8851H29.6887C29.6887 30.8571 29.691 30.8128 29.6957 30.7521C29.7003 30.6914 29.7027 30.6454 29.7027 30.6143C29.7027 30.2314 29.6575 29.7723 29.5673 29.2369C29.4645 28.8291 29.3198 28.2128 29.133 27.3879C29.0894 27.1794 29.0676 26.9366 29.0676 26.6595C29.0676 25.8533 29.3587 25.2105 29.9408 24.7311C30.4637 24.3016 31.1812 24.0868 32.0933 24.0868C33.0707 24.0868 33.8069 24.2907 34.3018 24.6985C34.7812 25.0969 35.0209 25.6681 35.0209 26.412V30.8851H33.9003V26.3513C33.9003 25.8938 33.7602 25.5296 33.48 25.2588C33.1781 24.9693 32.7096 24.8245 32.0746 24.8245C31.5485 24.8245 31.1112 24.9778 30.7626 25.2844C30.4139 25.5911 30.2396 26.0463 30.2396 26.6502C30.2396 26.9366 30.2583 27.1669 30.2956 27.3412C30.3237 27.4626 30.3626 27.6478 30.4124 27.8969C30.4342 28.0338 30.456 28.2097 30.4777 28.4245C30.484 28.5334 30.4902 28.6175 30.4964 28.6766C30.4964 28.4836 30.5353 28.2175 30.6132 27.8782C30.6567 27.6727 30.7314 27.4035 30.8373 27.0704C30.9307 26.7187 31.0521 26.4385 31.2015 26.2299C31.3758 25.9809 31.645 25.8564 32.0092 25.8564C32.6256 25.8564 33.0302 26.0728 33.2232 26.5054C33.2979 26.6797 33.3353 26.8447 33.3353 27.0004C33.3353 27.3365 33.2435 27.6042 33.0598 27.8035C32.8108 28.0681 32.4964 28.2003 32.1166 28.2003C31.905 28.2003 31.7042 28.1365 31.5143 28.0089C31.2808 28.5786 31.133 29.3038 31.0707 30.1848L31.0147 30.8851ZM32.1353 26.5241C31.796 26.5241 31.6264 26.6938 31.6264 27.0331C31.6264 27.17 31.6762 27.2875 31.7758 27.3856C31.8754 27.4836 31.9952 27.5327 32.1353 27.5327C32.266 27.5327 32.382 27.4821 32.4832 27.3809C32.5843 27.2797 32.6349 27.1638 32.6349 27.0331C32.6349 26.8899 32.5867 26.7692 32.4902 26.6712C32.3937 26.5731 32.2754 26.5241 32.1353 26.5241ZM36.0387 21.8643C36.4714 21.5374 36.6878 21.097 36.6878 20.5429H37.799C37.799 21.1468 37.5018 21.6931 36.9072 22.1818C36.2691 22.7109 35.5812 22.9755 34.8434 22.9755C34.1524 22.9755 33.6294 22.8884 33.2746 22.7141C32.7983 22.4993 32.5602 22.1429 32.5602 21.6448C32.5602 21.3304 32.6676 21.0612 32.8824 20.837C33.1252 20.6223 33.4069 20.5149 33.7275 20.5149C34.0637 20.5149 34.3376 20.6051 34.5493 20.7857C34.7952 20.9973 34.9181 21.2666 34.9181 21.5934C34.9181 21.9047 34.8279 22.146 34.6473 22.3172C34.6785 22.3203 34.7049 22.3218 34.7267 22.3218C35.2279 22.3218 35.6652 22.1693 36.0387 21.8643ZM33.2186 21.6355C33.2186 21.7755 33.2684 21.9008 33.368 22.0113C33.4676 22.1218 33.5874 22.1771 33.7275 22.1771C33.8738 22.1771 34.0006 22.1242 34.108 22.0183C34.2154 21.9125 34.2691 21.7849 34.2691 21.6355C34.2691 21.4954 34.2131 21.3717 34.101 21.2643C33.989 21.1569 33.8645 21.1032 33.7275 21.1032C33.5905 21.1032 33.4715 21.1577 33.3703 21.2666C33.2691 21.3755 33.2186 21.4985 33.2186 21.6355ZM41.7333 24.2082H42.8353V29.6198C42.8353 30.1178 42.7528 30.4431 42.5878 30.5956C42.4104 30.8229 42.1614 30.9365 41.8407 30.9365C41.7131 30.9365 41.587 30.8509 41.4625 30.6797C41.3131 30.4525 41.1621 30.2252 41.0096 29.998C40.8322 29.7303 40.6594 29.5217 40.4913 29.3723C40.1085 29.0299 39.7225 28.8354 39.3334 28.7887V29.984C39.3334 30.4011 39.1871 30.6844 38.8945 30.8338C38.6921 30.9365 38.44 30.9879 38.1381 30.9879C37.9606 30.9879 37.8175 30.9707 37.7085 30.9365C37.3256 30.8275 37.047 30.5785 36.8727 30.1894C36.7824 29.9933 36.7373 29.7692 36.7373 29.5171C36.7373 28.8478 36.9723 28.3871 37.4424 28.135C37.7319 27.9762 37.9887 27.8969 38.2128 27.8969V26.4027L38.04 26.4214C37.9871 26.4276 37.9311 26.4307 37.8719 26.4307C37.5544 26.4307 37.2844 26.3218 37.0618 26.1039C36.8393 25.886 36.728 25.6167 36.728 25.2961C36.728 25.044 36.8105 24.8027 36.9754 24.5724C37.1529 24.3265 37.3614 24.188 37.6011 24.1568C37.791 24.135 37.9217 24.1241 37.9933 24.1241C38.4136 24.1241 38.7466 24.2596 38.9925 24.5304C39.2198 24.7856 39.3334 25.1093 39.3334 25.5016V27.9949C39.7163 28.0136 40.1303 28.1739 40.5754 28.4758C40.6096 28.5007 40.7933 28.6657 41.1264 28.9708C41.4407 29.2603 41.6026 29.4034 41.6119 29.4003C41.6929 29.3754 41.7333 29.2696 41.7333 29.0828V24.2082ZM37.3677 25.2961C37.3677 25.4268 37.419 25.5436 37.5217 25.6463C37.6245 25.749 37.7412 25.8004 37.8719 25.8004C38.012 25.8004 38.1357 25.7506 38.2431 25.651C38.3505 25.5514 38.4042 25.4331 38.4042 25.2961C38.4042 25.1498 38.3521 25.0269 38.2478 24.9272C38.1435 24.8276 38.0182 24.7778 37.8719 24.7778C37.735 24.7778 37.6167 24.83 37.5171 24.9342C37.4175 25.0385 37.3677 25.1591 37.3677 25.2961ZM37.5498 29.3583C37.5466 29.3832 37.5451 29.4097 37.5451 29.4377V29.5124C37.5451 29.7241 37.5715 29.8797 37.6245 29.9793C37.7023 30.1412 37.8034 30.2221 37.928 30.2221C38.1178 30.2221 38.2128 30.1209 38.2128 29.9186V28.7326C38.1848 28.7202 38.1474 28.714 38.1007 28.714C37.9949 28.714 37.8922 28.7513 37.7925 28.826C37.6307 29.0128 37.5498 29.1902 37.5498 29.3583ZM47.0359 29.6011C47.0359 29.9809 46.9222 30.2984 46.695 30.5536C46.446 30.84 46.1254 30.9832 45.7332 30.9832C45.6647 30.9832 45.5806 30.9738 45.481 30.9552C45.1729 30.9303 44.9207 30.8112 44.7246 30.598C44.5285 30.3847 44.4305 30.1225 44.4305 29.8112C44.4305 29.4844 44.5441 29.212 44.7713 28.9941C44.9985 28.7762 45.2756 28.6673 45.6024 28.6673C45.73 28.6673 45.839 28.6797 45.9293 28.7046V27.4346C45.9293 27.1544 45.9868 26.9366 46.102 26.7809C46.2296 26.6097 46.3775 26.5117 46.5456 26.4868C46.5954 26.4805 46.6312 26.4556 46.653 26.412L45.2989 26.2533L45.369 25.5389C45.4997 25.4829 45.6631 25.3521 45.8592 25.1467C46.1176 24.8728 46.4444 24.6237 46.8398 24.3996C47.2133 24.1911 47.6771 24.0868 48.2312 24.0868C48.9004 24.0868 49.4265 24.1708 49.8094 24.3389C50.2763 24.5444 50.6234 24.8588 50.8506 25.2821C51.0031 25.5716 51.0794 25.9358 51.0794 26.3747V30.8851H49.9728V26.412C49.9728 25.9545 49.8669 25.5903 49.6553 25.3195C49.3907 24.9895 48.916 24.8245 48.2312 24.8245C47.7674 24.8245 47.3487 24.9288 46.9752 25.1374C46.7355 25.2743 46.4865 25.472 46.2281 25.7303L47.9277 25.9918L47.8483 26.5241C47.646 26.5241 47.4748 26.5833 47.3347 26.7015C47.1355 26.8696 47.0359 27.0891 47.0359 27.3599V29.6011ZM45.6024 30.3248C45.7425 30.3248 45.8592 30.2735 45.9526 30.1707C46.046 30.068 46.0927 29.9482 46.0927 29.8112C46.0927 29.6743 46.0444 29.5552 45.9479 29.454C45.8514 29.3529 45.7363 29.3023 45.6024 29.3023C45.4623 29.3023 45.3433 29.3513 45.2452 29.4494C45.1472 29.5474 45.0981 29.668 45.0981 29.8112C45.0981 30.1536 45.2662 30.3248 45.6024 30.3248ZM51.1588 23.1576L50.5097 23.0362C49.8747 22.9179 49.137 22.8588 48.2965 22.8588C47.4281 22.8588 46.5612 22.9366 45.6958 23.0923C45.7861 22.4137 46.1114 21.8534 46.6717 21.4113C47.0608 21.1063 47.6024 20.9538 48.2965 20.9538C48.9253 20.9538 49.4358 21.0985 49.828 21.388L50.0008 21.5468V20.5289H51.1027V23.0222L51.1588 23.1576ZM48.2265 21.5094C47.8748 21.5094 47.6016 21.5724 47.4071 21.6985C47.2125 21.8246 47.0545 22.0479 46.9331 22.3685C47.5121 22.3405 48.0164 22.3265 48.446 22.3265C48.9222 22.3265 49.4405 22.381 50.0008 22.4899C49.9448 22.409 49.8872 22.3265 49.828 22.2425C49.4203 21.7538 48.8864 21.5094 48.2265 21.5094ZM54.7149 26.4587C54.3289 26.3871 53.946 26.3436 53.5662 26.328C53.395 26.3218 53.2456 26.3187 53.118 26.3187C52.7476 26.3187 52.5468 26.3296 52.5157 26.3513C52.5063 26.3078 52.5017 26.2626 52.5017 26.2159C52.5017 25.8019 52.6371 25.3833 52.9079 24.9599C53.2534 24.4214 53.8184 24.1522 54.6028 24.1522C54.8207 24.1522 55.1257 24.209 55.518 24.3226C55.9102 24.4362 56.1997 24.493 56.3864 24.493C56.7506 24.493 56.9996 24.3794 57.1335 24.1522L57.9506 24.5771C57.907 24.6953 57.8168 24.8183 57.6798 24.9459C57.4837 25.1296 57.2642 25.2339 57.0214 25.2588C56.8814 25.2743 56.7864 25.2821 56.7366 25.2821C56.4907 25.2821 56.1483 25.2121 55.7094 25.072C55.3141 24.9506 55.0121 24.8899 54.8036 24.8899C54.4269 24.8899 54.1328 24.9848 53.9211 25.1747C53.7841 25.2899 53.6736 25.458 53.5896 25.679C53.9538 25.679 54.3818 25.7163 54.8736 25.791C55.4464 25.8813 55.9102 26.0074 56.265 26.1693C56.6199 26.3311 56.8611 26.5288 56.9888 26.7622C57.0946 26.949 57.1475 27.142 57.1475 27.3412V29.6011C57.1475 29.9902 57.0214 30.3217 56.7693 30.5956C56.5327 30.854 56.2246 30.9832 55.8448 30.9832C55.4215 30.9832 55.09 30.8509 54.8503 30.5863C54.6542 30.3746 54.5561 30.1163 54.5561 29.8112C54.5561 29.4813 54.6651 29.2081 54.8829 28.9918C55.1008 28.7754 55.3748 28.6673 55.7047 28.6673C55.8479 28.6673 55.9553 28.6797 56.0269 28.7046V27.4346C56.0269 27.2323 55.9771 27.0657 55.8775 26.935C55.7218 26.7296 55.3343 26.5708 54.7149 26.4587ZM55.7047 30.3248C55.8448 30.3248 55.9639 30.2742 56.0619 30.1731C56.16 30.0719 56.209 29.9513 56.209 29.8112C56.209 29.6711 56.1592 29.5513 56.0596 29.4517C55.96 29.3521 55.8417 29.3023 55.7047 29.3023C55.5615 29.3023 55.4394 29.3513 55.3382 29.4494C55.237 29.5474 55.1864 29.668 55.1864 29.8112C55.1864 29.9544 55.2363 30.0758 55.3359 30.1754C55.4355 30.275 55.5584 30.3248 55.7047 30.3248ZM56.9747 21.2899C57.2736 21.4829 57.423 21.746 57.423 22.079C57.423 22.3934 57.3195 22.6526 57.1125 22.8565C56.9055 23.0603 56.6479 23.1623 56.3397 23.1623C56.0222 23.1623 55.7514 23.0689 55.5273 22.8821C55.2814 22.6767 55.1584 22.4106 55.1584 22.0837V21.9857C55.1584 21.6588 55.3125 21.3864 55.6207 21.1685C55.8417 21.0129 56.1047 20.8962 56.4098 20.8184C56.6495 20.7592 56.8938 20.7001 57.1428 20.6409C57.4168 20.5569 57.63 20.4355 57.7825 20.2767C58.0035 20.0526 58.1265 19.7351 58.1514 19.3242L59.1646 19.5717C59.1646 19.7927 59.1304 19.995 59.0619 20.1787C58.9249 20.4402 58.7257 20.658 58.4642 20.8324C58.2214 20.9911 57.8417 21.1234 57.3249 21.2292C57.1382 21.2697 57.0214 21.2899 56.9747 21.2899ZM56.2837 21.5934C55.9662 21.5934 55.8074 21.7522 55.8074 22.0697V22.1304C55.8074 22.4604 55.9662 22.6253 56.2837 22.6253C56.6074 22.6253 56.7693 22.451 56.7693 22.1024C56.7693 21.7631 56.6074 21.5934 56.2837 21.5934Z" fill="#FEF5EB"/>
</g>
</g>
<defs>
<linearGradient id="paint0_linear_23668_7489" x1="34" y1="-1.04141e-05" x2="34" y2="68" gradientUnits="userSpaceOnUse">
<stop stop-color="#C93D34"/>
<stop offset="1" stop-color="#7A2629"/>
</linearGradient>
<linearGradient id="paint1_linear_23668_7489" x1="34" y1="-1.04141e-05" x2="34" y2="68" gradientUnits="userSpaceOnUse">
<stop stop-color="#C93D34"/>
<stop offset="1" stop-color="#7A2629"/>
</linearGradient>
<clipPath id="clip0_23668_7489">
<rect width="68" height="68" fill="white"/>
</clipPath>
</defs>
</svg>
