<svg width="68" height="68" viewBox="0 0 68 68" fill="none" xmlns="http://www.w3.org/2000/svg">
<g clip-path="url(#clip0_23668_7491)">
<mask id="mask0_23668_7491" style="mask-type:alpha" maskUnits="userSpaceOnUse" x="0" y="0" width="68" height="68">
<path fill-rule="evenodd" clip-rule="evenodd" d="M47.0333 0H20.9667C13.5811 0 8.89667 0.0377779 4.45778 4.45778C0.018889 8.89667 0 13.6 0 20.9667V47.0333C0 54.4189 0.0377779 59.1033 4.45778 63.5422C8.89667 67.9811 13.6 68 20.9667 68H47.0333C54.4189 68 59.1033 67.9811 63.5422 63.5422C67.9622 59.1033 68 54.4 68 47.0333V20.9667C68 13.5811 67.9622 8.89667 63.5422 4.45778C59.1033 0.018889 54.4 0 47.0333 0Z" fill="url(#paint0_linear_23668_7491)"/>
</mask>
<g mask="url(#mask0_23668_7491)">
<rect width="68" height="68" fill="url(#paint1_linear_23668_7491)"/>
<path fill-rule="evenodd" clip-rule="evenodd" d="M15.6212 64.3732C26.4256 64.3732 45.6357 64.3732 45.6357 64.3732C52.5868 64.3732 57.0823 64.6377 61.2379 60.4443C64.8079 56.8743 64.5057 50.8677 64.7323 46.1077C60.709 52.1521 53.3234 51.9443 47.619 51.9443C47.619 51.9443 20.929 51.9443 10.9556 51.9443C0.982316 51.9632 4.81676 64.3732 15.6212 64.3732Z" fill="#FEF5EB"/>
<path d="M12.4854 53.531H23.1387V61.521L17.812 58.8577L12.4854 61.521V53.531Z" fill="#F19C33"/>
<mask id="path-5-outside-1_23668_7491" maskUnits="userSpaceOnUse" x="10.1016" y="14.2266" width="48" height="23" fill="black">
<rect fill="white" x="10.1016" y="14.2266" width="48" height="23"/>
<path d="M17.3118 23.2207C17.4525 23.4277 17.6057 23.5932 17.7713 23.7174C17.9451 23.8333 18.1562 23.9203 18.4046 23.9782V24.2266C18.0072 24.2017 17.5105 24.1893 16.9144 24.1893C16.4674 24.1893 16.041 24.2017 15.6354 24.2266V23.9782C15.8341 23.9699 15.9789 23.9451 16.07 23.9037C16.1611 23.8623 16.2066 23.8002 16.2066 23.7174C16.2066 23.6346 16.1652 23.5353 16.0824 23.4194L14.2694 20.6874C14.0293 20.3232 13.8265 20.0872 13.6609 19.9796C13.4954 19.8637 13.2636 19.7975 12.9655 19.7809V22.9103C12.9655 23.2248 12.9904 23.4525 13.04 23.5932C13.0897 23.734 13.1808 23.8292 13.3132 23.8789C13.454 23.9285 13.6733 23.9616 13.9714 23.9782V24.2266C13.5906 24.2017 13.0649 24.1893 12.3943 24.1893C11.6823 24.1893 11.1525 24.2017 10.8048 24.2266V23.9782C11.1028 23.9616 11.3181 23.9285 11.4505 23.8789C11.5913 23.8292 11.6865 23.734 11.7361 23.5932C11.7858 23.4525 11.8107 23.2248 11.8107 22.9103V16.7509C11.8107 16.4364 11.7858 16.2087 11.7361 16.068C11.6865 15.9272 11.5913 15.832 11.4505 15.7823C11.3181 15.7327 11.1028 15.6996 10.8048 15.683V15.4346C11.1525 15.4595 11.6823 15.4719 12.3943 15.4719C13.0566 15.4719 13.5823 15.4595 13.9714 15.4346V15.683C13.6733 15.6996 13.454 15.7327 13.3132 15.7823C13.1808 15.832 13.0897 15.9272 13.04 16.068C12.9904 16.2087 12.9655 16.4364 12.9655 16.7509V19.5326C13.5699 19.5077 14.0417 19.2759 14.3812 18.8372L15.5733 17.3222C15.9955 16.8006 16.2066 16.4032 16.2066 16.13C16.2066 15.8403 15.95 15.6913 15.4367 15.683V15.4346C15.9086 15.4595 16.3846 15.4719 16.8648 15.4719C17.3201 15.4719 17.6719 15.4595 17.9203 15.4346V15.683C17.6471 15.7244 17.3905 15.8155 17.1504 15.9562C16.9103 16.0887 16.6785 16.2998 16.455 16.5895L14.4308 19.1849L17.3118 23.2207ZM26.8198 15.683C26.53 15.6996 26.3148 15.7451 26.1741 15.8196C26.0333 15.8858 25.9381 16.0017 25.8885 16.1673C25.8388 16.3246 25.8139 16.5605 25.8139 16.8751V20.6129C25.8139 21.209 25.7726 21.7223 25.6898 22.1528C25.6153 22.575 25.4869 22.9392 25.3048 23.2455C25.0978 23.6015 24.7915 23.883 24.3859 24.09C23.9885 24.2969 23.5373 24.4004 23.0323 24.4004C22.1217 24.4004 21.4263 24.1769 20.9461 23.7298C20.5818 23.3904 20.3376 23.0055 20.2134 22.575C20.0893 22.1445 20.0272 21.5029 20.0272 20.6502V16.7509C20.0272 16.4364 20.0023 16.2087 19.9527 16.068C19.903 15.9272 19.8078 15.832 19.6671 15.7823C19.5346 15.7327 19.3193 15.6996 19.0213 15.683V15.4346C19.369 15.4595 19.8989 15.4719 20.6108 15.4719C21.2814 15.4719 21.8071 15.4595 22.1879 15.4346V15.683C21.8899 15.6996 21.6705 15.7327 21.5297 15.7823C21.3973 15.832 21.3062 15.9272 21.2566 16.068C21.2069 16.2087 21.182 16.4364 21.182 16.7509V20.8613C21.182 21.5236 21.2276 22.0741 21.3186 22.5129C21.4097 22.9517 21.596 23.3035 21.8774 23.5684C22.1672 23.8333 22.5894 23.9658 23.1441 23.9658C24.0216 23.9658 24.6384 23.6843 24.9944 23.1214C25.3503 22.5584 25.5283 21.7678 25.5283 20.7495V16.8751C25.5283 16.4281 25.4455 16.1218 25.28 15.9562C25.1227 15.7906 24.8288 15.6996 24.3983 15.683V15.4346C24.6963 15.4595 25.1185 15.4719 25.6649 15.4719C26.1616 15.4719 26.5466 15.4595 26.8198 15.4346V15.683ZM34.7677 15.4346C34.7097 16.0224 34.6808 16.5523 34.6808 17.0241C34.6808 17.4381 34.6932 17.7775 34.718 18.0424H34.4324C34.3662 17.405 34.2834 16.9331 34.184 16.6268C34.0847 16.3122 33.9108 16.0845 33.6625 15.9438C33.4141 15.7948 33.0333 15.7203 32.52 15.7203H31.8495V22.7861C31.8495 23.1338 31.8826 23.3863 31.9488 23.5436C32.015 23.7009 32.1309 23.8085 32.2965 23.8664C32.4621 23.9244 32.7311 23.9616 33.1037 23.9782V24.2266C32.6732 24.2017 32.0647 24.1893 31.2782 24.1893C30.4504 24.1893 29.8378 24.2017 29.4404 24.2266V23.9782C29.8129 23.9616 30.082 23.9244 30.2475 23.8664C30.4131 23.8085 30.529 23.7009 30.5952 23.5436C30.6615 23.3863 30.6946 23.1338 30.6946 22.7861V15.7203H30.024C29.5107 15.7203 29.1299 15.7948 28.8816 15.9438C28.6332 16.0845 28.4594 16.3122 28.36 16.6268C28.2607 16.9331 28.1779 17.405 28.1117 18.0424H27.826C27.8509 17.7775 27.8633 17.4381 27.8633 17.0241C27.8633 16.5523 27.8343 16.0224 27.7764 15.4346C28.4635 15.4595 29.6308 15.4719 31.2782 15.4719C32.9174 15.4719 34.0806 15.4595 34.7677 15.4346ZM38.5736 15.298C38.9379 15.298 39.2235 15.3394 39.4304 15.4222C39.6457 15.4967 39.8651 15.6085 40.0886 15.7575C40.2707 15.8734 40.4115 15.9314 40.5108 15.9314C40.5853 15.9314 40.6433 15.89 40.6847 15.8072C40.726 15.7161 40.7592 15.5754 40.784 15.385H41.0696C41.0282 15.8651 41.0075 16.7096 41.0075 17.9182H40.7219C40.6722 17.2477 40.4777 16.6847 40.1383 16.2294C39.8071 15.7658 39.3228 15.534 38.6854 15.534C38.2383 15.534 37.8741 15.6706 37.5926 15.9438C37.3111 16.2087 37.1704 16.5523 37.1704 16.9745C37.1704 17.2891 37.2407 17.5623 37.3815 17.7941C37.5305 18.0259 37.7168 18.2245 37.9403 18.3901C38.1638 18.5557 38.4825 18.7668 38.8965 19.0234L39.2566 19.247C39.7781 19.5698 40.1879 19.8554 40.486 20.1038C40.7923 20.3439 41.0365 20.6212 41.2186 20.9358C41.4008 21.2504 41.4918 21.6188 41.4918 22.041C41.4918 22.7944 41.2435 23.378 40.7467 23.7919C40.25 24.1976 39.6208 24.4004 38.8592 24.4004C38.4618 24.4004 38.1348 24.359 37.8782 24.2762C37.6298 24.1934 37.3897 24.0817 37.1579 23.9409C36.9758 23.825 36.8351 23.7671 36.7357 23.7671C36.6612 23.7671 36.6033 23.8126 36.5619 23.9037C36.5205 23.9865 36.4874 24.1231 36.4625 24.3135H36.1769C36.21 23.8582 36.2266 22.8647 36.2266 21.3332H36.5122C36.5702 22.1693 36.7771 22.8482 37.1331 23.3697C37.4891 23.8913 38.0355 24.1521 38.7723 24.1521C39.2193 24.1521 39.6001 24.0155 39.9147 23.7423C40.2293 23.4608 40.3866 23.0469 40.3866 22.5005C40.3866 22.0369 40.2293 21.6436 39.9147 21.3208C39.6084 20.9979 39.12 20.6336 38.4494 20.228C37.961 19.9299 37.5636 19.665 37.2573 19.4332C36.9593 19.2014 36.715 18.9241 36.5246 18.6012C36.3342 18.2701 36.239 17.8851 36.239 17.4464C36.239 16.7509 36.4625 16.2211 36.9096 15.8569C37.3566 15.4843 37.9113 15.298 38.5736 15.298ZM49.3468 23.1835C49.5455 23.6967 49.8311 23.9616 50.2036 23.9782V24.2266C49.8725 24.2017 49.4295 24.1893 48.8749 24.1893C48.1629 24.1893 47.6331 24.2017 47.2854 24.2266V23.9782C47.6 23.9616 47.8235 23.9244 47.956 23.8664C48.0967 23.8002 48.1671 23.6843 48.1671 23.5187C48.1671 23.378 48.1174 23.1835 48.018 22.9351L47.2605 20.8985H44.2554L43.7463 22.2149C43.5807 22.6619 43.4979 23.0013 43.4979 23.2331C43.4979 23.4898 43.5848 23.676 43.7587 23.7919C43.9408 23.9078 44.214 23.9699 44.5783 23.9782V24.2266C44.1064 24.2017 43.6304 24.1893 43.1502 24.1893C42.7777 24.1893 42.4672 24.2017 42.2188 24.2266V23.9782C42.6328 23.8789 42.9598 23.5187 43.1999 22.8978L46.1181 15.3726H46.3168L49.3468 23.1835ZM47.1612 20.6502L45.7704 16.9372L44.3547 20.6502H47.1612ZM53.8389 15.683C53.5408 15.6996 53.3214 15.7327 53.1807 15.7823C53.0483 15.832 52.9572 15.9272 52.9075 16.068C52.8578 16.2087 52.833 16.4364 52.833 16.7509V22.9103C52.833 23.2248 52.8578 23.4525 52.9075 23.5932C52.9572 23.734 53.0483 23.8292 53.1807 23.8789C53.3214 23.9203 53.5408 23.9409 53.8389 23.9409H54.7454C55.2587 23.9409 55.6477 23.8706 55.9127 23.7298C56.1859 23.5808 56.3845 23.3449 56.5087 23.022C56.6329 22.6992 56.724 22.2314 56.7819 21.6188H57.0675C57.0427 21.8754 57.0303 22.2149 57.0303 22.6371C57.0303 23.1089 57.0593 23.6388 57.1172 24.2266C56.5543 24.2017 55.6064 24.1893 54.2735 24.1893C52.684 24.1893 51.4836 24.2017 50.6723 24.2266V23.9782C50.9703 23.9616 51.1856 23.9285 51.318 23.8789C51.4588 23.8292 51.554 23.734 51.6036 23.5932C51.6533 23.4525 51.6781 23.2248 51.6781 22.9103V16.7509C51.6781 16.4364 51.6533 16.2087 51.6036 16.068C51.554 15.9272 51.4588 15.832 51.318 15.7823C51.1856 15.7327 50.9703 15.6996 50.6723 15.683V15.4346C51.02 15.4595 51.5498 15.4719 52.2618 15.4719C52.9241 15.4719 53.4498 15.4595 53.8389 15.4346V15.683ZM23.3377 35.2207C23.4785 35.4277 23.6316 35.5932 23.7972 35.7174C23.971 35.8333 24.1821 35.9203 24.4305 35.9782V36.2266C24.0331 36.2017 23.5364 36.1893 22.9404 36.1893C22.4933 36.1893 22.067 36.2017 21.6613 36.2266V35.9782C21.86 35.9699 22.0049 35.9451 22.0959 35.9037C22.187 35.8623 22.2325 35.8002 22.2325 35.7174C22.2325 35.6346 22.1911 35.5353 22.1083 35.4194L20.2953 32.6874C20.0552 32.3232 19.8524 32.0872 19.6868 31.9796C19.5213 31.8637 19.2895 31.7975 18.9914 31.7809V34.9103C18.9914 35.2248 19.0163 35.4525 19.0659 35.5932C19.1156 35.734 19.2067 35.8292 19.3391 35.8789C19.4799 35.9285 19.6993 35.9616 19.9973 35.9782V36.2266C19.6165 36.2017 19.0908 36.1893 18.4202 36.1893C17.7082 36.1893 17.1784 36.2017 16.8307 36.2266V35.9782C17.1287 35.9616 17.344 35.9285 17.4764 35.8789C17.6172 35.8292 17.7124 35.734 17.7621 35.5932C17.8117 35.4525 17.8366 35.2248 17.8366 34.9103V28.7509C17.8366 28.4364 17.8117 28.2087 17.7621 28.068C17.7124 27.9272 17.6172 27.832 17.4764 27.7823C17.344 27.7327 17.1287 27.6996 16.8307 27.683V27.4346C17.1784 27.4595 17.7082 27.4719 18.4202 27.4719C19.0825 27.4719 19.6082 27.4595 19.9973 27.4346V27.683C19.6993 27.6996 19.4799 27.7327 19.3391 27.7823C19.2067 27.832 19.1156 27.9272 19.0659 28.068C19.0163 28.2087 18.9914 28.4364 18.9914 28.7509V31.5326C19.5958 31.5077 20.0677 31.2759 20.4071 30.8372L21.5992 29.3222C22.0214 28.8006 22.2325 28.4032 22.2325 28.13C22.2325 27.8403 21.9759 27.6913 21.4626 27.683V27.4346C21.9345 27.4595 22.4105 27.4719 22.8907 27.4719C23.346 27.4719 23.6978 27.4595 23.9462 27.4346V27.683C23.673 27.7244 23.4164 27.8155 23.1763 27.9562C22.9362 28.0887 22.7044 28.2998 22.4809 28.5895L20.4568 31.1849L23.3377 35.2207ZM28.4001 27.683C28.1021 27.6996 27.8827 27.7327 27.7419 27.7823C27.6095 27.832 27.5184 27.9272 27.4687 28.068C27.4191 28.2087 27.3942 28.4364 27.3942 28.7509V34.9103C27.3942 35.2248 27.4191 35.4525 27.4687 35.5932C27.5184 35.734 27.6095 35.8292 27.7419 35.8789C27.8827 35.9285 28.1021 35.9616 28.4001 35.9782V36.2266C28.0193 36.2017 27.4936 36.1893 26.823 36.1893C26.111 36.1893 25.5812 36.2017 25.2335 36.2266V35.9782C25.5315 35.9616 25.7468 35.9285 25.8792 35.8789C26.02 35.8292 26.1152 35.734 26.1648 35.5932C26.2145 35.4525 26.2394 35.2248 26.2394 34.9103V28.7509C26.2394 28.4364 26.2145 28.2087 26.1648 28.068C26.1152 27.9272 26.02 27.832 25.8792 27.7823C25.7468 27.7327 25.5315 27.6996 25.2335 27.683V27.4346C25.5812 27.4595 26.111 27.4719 26.823 27.4719C27.4853 27.4719 28.011 27.4595 28.4001 27.4346V27.683ZM36.537 27.4346C36.4791 28.0224 36.4501 28.5523 36.4501 29.0241C36.4501 29.4381 36.4625 29.7775 36.4874 30.0424H36.2018C36.1355 29.405 36.0527 28.9331 35.9534 28.6268C35.8541 28.3122 35.6802 28.0845 35.4319 27.9438C35.1835 27.7948 34.8027 27.7203 34.2894 27.7203H33.6188V34.7861C33.6188 35.1338 33.6519 35.3863 33.7182 35.5436C33.7844 35.7009 33.9003 35.8085 34.0659 35.8664C34.2314 35.9244 34.5005 35.9616 34.873 35.9782V36.2266C34.4426 36.2017 33.8341 36.1893 33.0476 36.1893C32.2197 36.1893 31.6071 36.2017 31.2097 36.2266V35.9782C31.5823 35.9616 31.8513 35.9244 32.0169 35.8664C32.1825 35.8085 32.2984 35.7009 32.3646 35.5436C32.4308 35.3863 32.464 35.1338 32.464 34.7861V27.7203H31.7934C31.2801 27.7203 30.8993 27.7948 30.6509 27.9438C30.4026 28.0845 30.2287 28.3122 30.1294 28.6268C30.03 28.9331 29.9472 29.405 29.881 30.0424H29.5954C29.6202 29.7775 29.6327 29.4381 29.6327 29.0241C29.6327 28.5523 29.6037 28.0224 29.5457 27.4346C30.2329 27.4595 31.4001 27.4719 33.0476 27.4719C34.6868 27.4719 35.8499 27.4595 36.537 27.4346ZM43.6229 35.1835C43.8215 35.6967 44.1072 35.9616 44.4797 35.9782V36.2266C44.1485 36.2017 43.7056 36.1893 43.151 36.1893C42.439 36.1893 41.9092 36.2017 41.5615 36.2266V35.9782C41.8761 35.9616 42.0996 35.9244 42.232 35.8664C42.3728 35.8002 42.4431 35.6843 42.4431 35.5187C42.4431 35.378 42.3935 35.1835 42.2941 34.9351L41.5366 32.8985H38.5315L38.0224 34.2149C37.8568 34.6619 37.774 35.0013 37.774 35.2331C37.774 35.4898 37.8609 35.676 38.0348 35.7919C38.2169 35.9078 38.4901 35.9699 38.8544 35.9782V36.2266C38.3825 36.2017 37.9065 36.1893 37.4263 36.1893C37.0538 36.1893 36.7433 36.2017 36.4949 36.2266V35.9782C36.9089 35.8789 37.2359 35.5187 37.476 34.8978L40.3942 27.3726H40.5929L43.6229 35.1835ZM41.4373 32.6502L40.0465 28.9372L38.6308 32.6502H41.4373ZM47.1091 32.675V34.9103C47.1091 35.2248 47.1422 35.4525 47.2084 35.5932C47.2747 35.734 47.3906 35.8292 47.5561 35.8789C47.7217 35.9285 47.9908 35.9616 48.3633 35.9782V36.2266C47.9328 36.2017 47.3243 36.1893 46.5379 36.1893C45.8259 36.1893 45.2961 36.2017 44.9484 36.2266V35.9782C45.2464 35.9616 45.4616 35.9285 45.5941 35.8789C45.7348 35.8292 45.83 35.734 45.8797 35.5932C45.9294 35.4525 45.9542 35.2248 45.9542 34.9103V28.7509C45.9542 28.4364 45.9294 28.2087 45.8797 28.068C45.83 27.9272 45.7348 27.832 45.5941 27.7823C45.4616 27.7327 45.2464 27.6996 44.9484 27.683V27.4346C45.2961 27.4595 45.8011 27.4719 46.4634 27.4719L47.8045 27.4595C47.9618 27.4512 48.1398 27.4471 48.3385 27.4471C49.3071 27.4471 50.048 27.6706 50.5613 28.1176C51.0746 28.5564 51.3312 29.1483 51.3312 29.8934C51.3312 30.3487 51.2277 30.7875 51.0208 31.2097C50.8221 31.6236 50.4785 31.9713 49.9901 32.2528C49.5099 32.5343 48.8683 32.675 48.0653 32.675H47.1091ZM48.028 27.683C47.7714 27.683 47.5768 27.712 47.4444 27.7699C47.3202 27.8279 47.2333 27.9314 47.1836 28.0804C47.1339 28.2294 47.1091 28.4529 47.1091 28.7509V32.4267H47.9411C48.7524 32.4267 49.3112 32.2114 49.6175 31.7809C49.9321 31.3422 50.0894 30.7585 50.0894 30.03C50.0894 29.227 49.928 28.635 49.6051 28.2542C49.2905 27.8734 48.7648 27.683 48.028 27.683Z"/>
</mask>
<path d="M17.3118 23.2207C17.4525 23.4277 17.6057 23.5932 17.7713 23.7174C17.9451 23.8333 18.1562 23.9203 18.4046 23.9782V24.2266C18.0072 24.2017 17.5105 24.1893 16.9144 24.1893C16.4674 24.1893 16.041 24.2017 15.6354 24.2266V23.9782C15.8341 23.9699 15.9789 23.9451 16.07 23.9037C16.1611 23.8623 16.2066 23.8002 16.2066 23.7174C16.2066 23.6346 16.1652 23.5353 16.0824 23.4194L14.2694 20.6874C14.0293 20.3232 13.8265 20.0872 13.6609 19.9796C13.4954 19.8637 13.2636 19.7975 12.9655 19.7809V22.9103C12.9655 23.2248 12.9904 23.4525 13.04 23.5932C13.0897 23.734 13.1808 23.8292 13.3132 23.8789C13.454 23.9285 13.6733 23.9616 13.9714 23.9782V24.2266C13.5906 24.2017 13.0649 24.1893 12.3943 24.1893C11.6823 24.1893 11.1525 24.2017 10.8048 24.2266V23.9782C11.1028 23.9616 11.3181 23.9285 11.4505 23.8789C11.5913 23.8292 11.6865 23.734 11.7361 23.5932C11.7858 23.4525 11.8107 23.2248 11.8107 22.9103V16.7509C11.8107 16.4364 11.7858 16.2087 11.7361 16.068C11.6865 15.9272 11.5913 15.832 11.4505 15.7823C11.3181 15.7327 11.1028 15.6996 10.8048 15.683V15.4346C11.1525 15.4595 11.6823 15.4719 12.3943 15.4719C13.0566 15.4719 13.5823 15.4595 13.9714 15.4346V15.683C13.6733 15.6996 13.454 15.7327 13.3132 15.7823C13.1808 15.832 13.0897 15.9272 13.04 16.068C12.9904 16.2087 12.9655 16.4364 12.9655 16.7509V19.5326C13.5699 19.5077 14.0417 19.2759 14.3812 18.8372L15.5733 17.3222C15.9955 16.8006 16.2066 16.4032 16.2066 16.13C16.2066 15.8403 15.95 15.6913 15.4367 15.683V15.4346C15.9086 15.4595 16.3846 15.4719 16.8648 15.4719C17.3201 15.4719 17.6719 15.4595 17.9203 15.4346V15.683C17.6471 15.7244 17.3905 15.8155 17.1504 15.9562C16.9103 16.0887 16.6785 16.2998 16.455 16.5895L14.4308 19.1849L17.3118 23.2207ZM26.8198 15.683C26.53 15.6996 26.3148 15.7451 26.1741 15.8196C26.0333 15.8858 25.9381 16.0017 25.8885 16.1673C25.8388 16.3246 25.8139 16.5605 25.8139 16.8751V20.6129C25.8139 21.209 25.7726 21.7223 25.6898 22.1528C25.6153 22.575 25.4869 22.9392 25.3048 23.2455C25.0978 23.6015 24.7915 23.883 24.3859 24.09C23.9885 24.2969 23.5373 24.4004 23.0323 24.4004C22.1217 24.4004 21.4263 24.1769 20.9461 23.7298C20.5818 23.3904 20.3376 23.0055 20.2134 22.575C20.0893 22.1445 20.0272 21.5029 20.0272 20.6502V16.7509C20.0272 16.4364 20.0023 16.2087 19.9527 16.068C19.903 15.9272 19.8078 15.832 19.6671 15.7823C19.5346 15.7327 19.3193 15.6996 19.0213 15.683V15.4346C19.369 15.4595 19.8989 15.4719 20.6108 15.4719C21.2814 15.4719 21.8071 15.4595 22.1879 15.4346V15.683C21.8899 15.6996 21.6705 15.7327 21.5297 15.7823C21.3973 15.832 21.3062 15.9272 21.2566 16.068C21.2069 16.2087 21.182 16.4364 21.182 16.7509V20.8613C21.182 21.5236 21.2276 22.0741 21.3186 22.5129C21.4097 22.9517 21.596 23.3035 21.8774 23.5684C22.1672 23.8333 22.5894 23.9658 23.1441 23.9658C24.0216 23.9658 24.6384 23.6843 24.9944 23.1214C25.3503 22.5584 25.5283 21.7678 25.5283 20.7495V16.8751C25.5283 16.4281 25.4455 16.1218 25.28 15.9562C25.1227 15.7906 24.8288 15.6996 24.3983 15.683V15.4346C24.6963 15.4595 25.1185 15.4719 25.6649 15.4719C26.1616 15.4719 26.5466 15.4595 26.8198 15.4346V15.683ZM34.7677 15.4346C34.7097 16.0224 34.6808 16.5523 34.6808 17.0241C34.6808 17.4381 34.6932 17.7775 34.718 18.0424H34.4324C34.3662 17.405 34.2834 16.9331 34.184 16.6268C34.0847 16.3122 33.9108 16.0845 33.6625 15.9438C33.4141 15.7948 33.0333 15.7203 32.52 15.7203H31.8495V22.7861C31.8495 23.1338 31.8826 23.3863 31.9488 23.5436C32.015 23.7009 32.1309 23.8085 32.2965 23.8664C32.4621 23.9244 32.7311 23.9616 33.1037 23.9782V24.2266C32.6732 24.2017 32.0647 24.1893 31.2782 24.1893C30.4504 24.1893 29.8378 24.2017 29.4404 24.2266V23.9782C29.8129 23.9616 30.082 23.9244 30.2475 23.8664C30.4131 23.8085 30.529 23.7009 30.5952 23.5436C30.6615 23.3863 30.6946 23.1338 30.6946 22.7861V15.7203H30.024C29.5107 15.7203 29.1299 15.7948 28.8816 15.9438C28.6332 16.0845 28.4594 16.3122 28.36 16.6268C28.2607 16.9331 28.1779 17.405 28.1117 18.0424H27.826C27.8509 17.7775 27.8633 17.4381 27.8633 17.0241C27.8633 16.5523 27.8343 16.0224 27.7764 15.4346C28.4635 15.4595 29.6308 15.4719 31.2782 15.4719C32.9174 15.4719 34.0806 15.4595 34.7677 15.4346ZM38.5736 15.298C38.9379 15.298 39.2235 15.3394 39.4304 15.4222C39.6457 15.4967 39.8651 15.6085 40.0886 15.7575C40.2707 15.8734 40.4115 15.9314 40.5108 15.9314C40.5853 15.9314 40.6433 15.89 40.6847 15.8072C40.726 15.7161 40.7592 15.5754 40.784 15.385H41.0696C41.0282 15.8651 41.0075 16.7096 41.0075 17.9182H40.7219C40.6722 17.2477 40.4777 16.6847 40.1383 16.2294C39.8071 15.7658 39.3228 15.534 38.6854 15.534C38.2383 15.534 37.8741 15.6706 37.5926 15.9438C37.3111 16.2087 37.1704 16.5523 37.1704 16.9745C37.1704 17.2891 37.2407 17.5623 37.3815 17.7941C37.5305 18.0259 37.7168 18.2245 37.9403 18.3901C38.1638 18.5557 38.4825 18.7668 38.8965 19.0234L39.2566 19.247C39.7781 19.5698 40.1879 19.8554 40.486 20.1038C40.7923 20.3439 41.0365 20.6212 41.2186 20.9358C41.4008 21.2504 41.4918 21.6188 41.4918 22.041C41.4918 22.7944 41.2435 23.378 40.7467 23.7919C40.25 24.1976 39.6208 24.4004 38.8592 24.4004C38.4618 24.4004 38.1348 24.359 37.8782 24.2762C37.6298 24.1934 37.3897 24.0817 37.1579 23.9409C36.9758 23.825 36.8351 23.7671 36.7357 23.7671C36.6612 23.7671 36.6033 23.8126 36.5619 23.9037C36.5205 23.9865 36.4874 24.1231 36.4625 24.3135H36.1769C36.21 23.8582 36.2266 22.8647 36.2266 21.3332H36.5122C36.5702 22.1693 36.7771 22.8482 37.1331 23.3697C37.4891 23.8913 38.0355 24.1521 38.7723 24.1521C39.2193 24.1521 39.6001 24.0155 39.9147 23.7423C40.2293 23.4608 40.3866 23.0469 40.3866 22.5005C40.3866 22.0369 40.2293 21.6436 39.9147 21.3208C39.6084 20.9979 39.12 20.6336 38.4494 20.228C37.961 19.9299 37.5636 19.665 37.2573 19.4332C36.9593 19.2014 36.715 18.9241 36.5246 18.6012C36.3342 18.2701 36.239 17.8851 36.239 17.4464C36.239 16.7509 36.4625 16.2211 36.9096 15.8569C37.3566 15.4843 37.9113 15.298 38.5736 15.298ZM49.3468 23.1835C49.5455 23.6967 49.8311 23.9616 50.2036 23.9782V24.2266C49.8725 24.2017 49.4295 24.1893 48.8749 24.1893C48.1629 24.1893 47.6331 24.2017 47.2854 24.2266V23.9782C47.6 23.9616 47.8235 23.9244 47.956 23.8664C48.0967 23.8002 48.1671 23.6843 48.1671 23.5187C48.1671 23.378 48.1174 23.1835 48.018 22.9351L47.2605 20.8985H44.2554L43.7463 22.2149C43.5807 22.6619 43.4979 23.0013 43.4979 23.2331C43.4979 23.4898 43.5848 23.676 43.7587 23.7919C43.9408 23.9078 44.214 23.9699 44.5783 23.9782V24.2266C44.1064 24.2017 43.6304 24.1893 43.1502 24.1893C42.7777 24.1893 42.4672 24.2017 42.2188 24.2266V23.9782C42.6328 23.8789 42.9598 23.5187 43.1999 22.8978L46.1181 15.3726H46.3168L49.3468 23.1835ZM47.1612 20.6502L45.7704 16.9372L44.3547 20.6502H47.1612ZM53.8389 15.683C53.5408 15.6996 53.3214 15.7327 53.1807 15.7823C53.0483 15.832 52.9572 15.9272 52.9075 16.068C52.8578 16.2087 52.833 16.4364 52.833 16.7509V22.9103C52.833 23.2248 52.8578 23.4525 52.9075 23.5932C52.9572 23.734 53.0483 23.8292 53.1807 23.8789C53.3214 23.9203 53.5408 23.9409 53.8389 23.9409H54.7454C55.2587 23.9409 55.6477 23.8706 55.9127 23.7298C56.1859 23.5808 56.3845 23.3449 56.5087 23.022C56.6329 22.6992 56.724 22.2314 56.7819 21.6188H57.0675C57.0427 21.8754 57.0303 22.2149 57.0303 22.6371C57.0303 23.1089 57.0593 23.6388 57.1172 24.2266C56.5543 24.2017 55.6064 24.1893 54.2735 24.1893C52.684 24.1893 51.4836 24.2017 50.6723 24.2266V23.9782C50.9703 23.9616 51.1856 23.9285 51.318 23.8789C51.4588 23.8292 51.554 23.734 51.6036 23.5932C51.6533 23.4525 51.6781 23.2248 51.6781 22.9103V16.7509C51.6781 16.4364 51.6533 16.2087 51.6036 16.068C51.554 15.9272 51.4588 15.832 51.318 15.7823C51.1856 15.7327 50.9703 15.6996 50.6723 15.683V15.4346C51.02 15.4595 51.5498 15.4719 52.2618 15.4719C52.9241 15.4719 53.4498 15.4595 53.8389 15.4346V15.683ZM23.3377 35.2207C23.4785 35.4277 23.6316 35.5932 23.7972 35.7174C23.971 35.8333 24.1821 35.9203 24.4305 35.9782V36.2266C24.0331 36.2017 23.5364 36.1893 22.9404 36.1893C22.4933 36.1893 22.067 36.2017 21.6613 36.2266V35.9782C21.86 35.9699 22.0049 35.9451 22.0959 35.9037C22.187 35.8623 22.2325 35.8002 22.2325 35.7174C22.2325 35.6346 22.1911 35.5353 22.1083 35.4194L20.2953 32.6874C20.0552 32.3232 19.8524 32.0872 19.6868 31.9796C19.5213 31.8637 19.2895 31.7975 18.9914 31.7809V34.9103C18.9914 35.2248 19.0163 35.4525 19.0659 35.5932C19.1156 35.734 19.2067 35.8292 19.3391 35.8789C19.4799 35.9285 19.6993 35.9616 19.9973 35.9782V36.2266C19.6165 36.2017 19.0908 36.1893 18.4202 36.1893C17.7082 36.1893 17.1784 36.2017 16.8307 36.2266V35.9782C17.1287 35.9616 17.344 35.9285 17.4764 35.8789C17.6172 35.8292 17.7124 35.734 17.7621 35.5932C17.8117 35.4525 17.8366 35.2248 17.8366 34.9103V28.7509C17.8366 28.4364 17.8117 28.2087 17.7621 28.068C17.7124 27.9272 17.6172 27.832 17.4764 27.7823C17.344 27.7327 17.1287 27.6996 16.8307 27.683V27.4346C17.1784 27.4595 17.7082 27.4719 18.4202 27.4719C19.0825 27.4719 19.6082 27.4595 19.9973 27.4346V27.683C19.6993 27.6996 19.4799 27.7327 19.3391 27.7823C19.2067 27.832 19.1156 27.9272 19.0659 28.068C19.0163 28.2087 18.9914 28.4364 18.9914 28.7509V31.5326C19.5958 31.5077 20.0677 31.2759 20.4071 30.8372L21.5992 29.3222C22.0214 28.8006 22.2325 28.4032 22.2325 28.13C22.2325 27.8403 21.9759 27.6913 21.4626 27.683V27.4346C21.9345 27.4595 22.4105 27.4719 22.8907 27.4719C23.346 27.4719 23.6978 27.4595 23.9462 27.4346V27.683C23.673 27.7244 23.4164 27.8155 23.1763 27.9562C22.9362 28.0887 22.7044 28.2998 22.4809 28.5895L20.4568 31.1849L23.3377 35.2207ZM28.4001 27.683C28.1021 27.6996 27.8827 27.7327 27.7419 27.7823C27.6095 27.832 27.5184 27.9272 27.4687 28.068C27.4191 28.2087 27.3942 28.4364 27.3942 28.7509V34.9103C27.3942 35.2248 27.4191 35.4525 27.4687 35.5932C27.5184 35.734 27.6095 35.8292 27.7419 35.8789C27.8827 35.9285 28.1021 35.9616 28.4001 35.9782V36.2266C28.0193 36.2017 27.4936 36.1893 26.823 36.1893C26.111 36.1893 25.5812 36.2017 25.2335 36.2266V35.9782C25.5315 35.9616 25.7468 35.9285 25.8792 35.8789C26.02 35.8292 26.1152 35.734 26.1648 35.5932C26.2145 35.4525 26.2394 35.2248 26.2394 34.9103V28.7509C26.2394 28.4364 26.2145 28.2087 26.1648 28.068C26.1152 27.9272 26.02 27.832 25.8792 27.7823C25.7468 27.7327 25.5315 27.6996 25.2335 27.683V27.4346C25.5812 27.4595 26.111 27.4719 26.823 27.4719C27.4853 27.4719 28.011 27.4595 28.4001 27.4346V27.683ZM36.537 27.4346C36.4791 28.0224 36.4501 28.5523 36.4501 29.0241C36.4501 29.4381 36.4625 29.7775 36.4874 30.0424H36.2018C36.1355 29.405 36.0527 28.9331 35.9534 28.6268C35.8541 28.3122 35.6802 28.0845 35.4319 27.9438C35.1835 27.7948 34.8027 27.7203 34.2894 27.7203H33.6188V34.7861C33.6188 35.1338 33.6519 35.3863 33.7182 35.5436C33.7844 35.7009 33.9003 35.8085 34.0659 35.8664C34.2314 35.9244 34.5005 35.9616 34.873 35.9782V36.2266C34.4426 36.2017 33.8341 36.1893 33.0476 36.1893C32.2197 36.1893 31.6071 36.2017 31.2097 36.2266V35.9782C31.5823 35.9616 31.8513 35.9244 32.0169 35.8664C32.1825 35.8085 32.2984 35.7009 32.3646 35.5436C32.4308 35.3863 32.464 35.1338 32.464 34.7861V27.7203H31.7934C31.2801 27.7203 30.8993 27.7948 30.6509 27.9438C30.4026 28.0845 30.2287 28.3122 30.1294 28.6268C30.03 28.9331 29.9472 29.405 29.881 30.0424H29.5954C29.6202 29.7775 29.6327 29.4381 29.6327 29.0241C29.6327 28.5523 29.6037 28.0224 29.5457 27.4346C30.2329 27.4595 31.4001 27.4719 33.0476 27.4719C34.6868 27.4719 35.8499 27.4595 36.537 27.4346ZM43.6229 35.1835C43.8215 35.6967 44.1072 35.9616 44.4797 35.9782V36.2266C44.1485 36.2017 43.7056 36.1893 43.151 36.1893C42.439 36.1893 41.9092 36.2017 41.5615 36.2266V35.9782C41.8761 35.9616 42.0996 35.9244 42.232 35.8664C42.3728 35.8002 42.4431 35.6843 42.4431 35.5187C42.4431 35.378 42.3935 35.1835 42.2941 34.9351L41.5366 32.8985H38.5315L38.0224 34.2149C37.8568 34.6619 37.774 35.0013 37.774 35.2331C37.774 35.4898 37.8609 35.676 38.0348 35.7919C38.2169 35.9078 38.4901 35.9699 38.8544 35.9782V36.2266C38.3825 36.2017 37.9065 36.1893 37.4263 36.1893C37.0538 36.1893 36.7433 36.2017 36.4949 36.2266V35.9782C36.9089 35.8789 37.2359 35.5187 37.476 34.8978L40.3942 27.3726H40.5929L43.6229 35.1835ZM41.4373 32.6502L40.0465 28.9372L38.6308 32.6502H41.4373ZM47.1091 32.675V34.9103C47.1091 35.2248 47.1422 35.4525 47.2084 35.5932C47.2747 35.734 47.3906 35.8292 47.5561 35.8789C47.7217 35.9285 47.9908 35.9616 48.3633 35.9782V36.2266C47.9328 36.2017 47.3243 36.1893 46.5379 36.1893C45.8259 36.1893 45.2961 36.2017 44.9484 36.2266V35.9782C45.2464 35.9616 45.4616 35.9285 45.5941 35.8789C45.7348 35.8292 45.83 35.734 45.8797 35.5932C45.9294 35.4525 45.9542 35.2248 45.9542 34.9103V28.7509C45.9542 28.4364 45.9294 28.2087 45.8797 28.068C45.83 27.9272 45.7348 27.832 45.5941 27.7823C45.4616 27.7327 45.2464 27.6996 44.9484 27.683V27.4346C45.2961 27.4595 45.8011 27.4719 46.4634 27.4719L47.8045 27.4595C47.9618 27.4512 48.1398 27.4471 48.3385 27.4471C49.3071 27.4471 50.048 27.6706 50.5613 28.1176C51.0746 28.5564 51.3312 29.1483 51.3312 29.8934C51.3312 30.3487 51.2277 30.7875 51.0208 31.2097C50.8221 31.6236 50.4785 31.9713 49.9901 32.2528C49.5099 32.5343 48.8683 32.675 48.0653 32.675H47.1091ZM48.028 27.683C47.7714 27.683 47.5768 27.712 47.4444 27.7699C47.3202 27.8279 47.2333 27.9314 47.1836 28.0804C47.1339 28.2294 47.1091 28.4529 47.1091 28.7509V32.4267H47.9411C48.7524 32.4267 49.3112 32.2114 49.6175 31.7809C49.9321 31.3422 50.0894 30.7585 50.0894 30.03C50.0894 29.227 49.928 28.635 49.6051 28.2542C49.2905 27.8734 48.7648 27.683 48.028 27.683Z" fill="#FEF5EB"/>
<path d="M17.3118 23.2207L17.4217 23.146L17.4199 23.1435L17.3118 23.2207ZM17.7713 23.7174L17.6915 23.8238L17.6976 23.8279L17.7713 23.7174ZM18.4046 23.9782H18.5374V23.8728L18.4348 23.8489L18.4046 23.9782ZM18.4046 24.2266L18.3963 24.3591L18.5374 24.3679V24.2266H18.4046ZM15.6354 24.2266H15.5026V24.3678L15.6435 24.3591L15.6354 24.2266ZM15.6354 23.9782L15.6299 23.8455L15.5026 23.8508V23.9782H15.6354ZM16.07 23.9037L16.125 24.0246V24.0246L16.07 23.9037ZM16.0824 23.4194L15.9717 23.4929L15.9744 23.4966L16.0824 23.4194ZM14.2694 20.6874L14.1585 20.7605L14.1587 20.7609L14.2694 20.6874ZM13.6609 19.9796L13.5847 20.0885L13.5885 20.091L13.6609 19.9796ZM12.9655 19.7809L12.9729 19.6483L12.8327 19.6405V19.7809H12.9655ZM13.04 23.5932L13.1653 23.549V23.549L13.04 23.5932ZM13.3132 23.8789L13.2666 24.0032L13.269 24.0041L13.3132 23.8789ZM13.9714 23.9782H14.1042V23.8526L13.9787 23.8456L13.9714 23.9782ZM13.9714 24.2266L13.9627 24.3591L14.1042 24.3683V24.2266H13.9714ZM10.8048 24.2266H10.672V24.3692L10.8143 24.359L10.8048 24.2266ZM10.8048 23.9782L10.7974 23.8456L10.672 23.8526V23.9782H10.8048ZM11.4505 23.8789L11.4063 23.7536L11.4039 23.7545L11.4505 23.8789ZM11.7361 16.068L11.6109 16.1122V16.1122L11.7361 16.068ZM11.4505 15.7823L11.4039 15.9067L11.4063 15.9076L11.4505 15.7823ZM10.8048 15.683H10.672V15.8086L10.7974 15.8156L10.8048 15.683ZM10.8048 15.4346L10.8143 15.3022L10.672 15.292V15.4346H10.8048ZM13.9714 15.4346H14.1042V15.2931L13.9629 15.3021L13.9714 15.4346ZM13.9714 15.683L13.9787 15.8156L14.1042 15.8086V15.683H13.9714ZM13.3132 15.7823L13.269 15.6571L13.2666 15.658L13.3132 15.7823ZM13.04 16.068L13.1653 16.1122V16.1122L13.04 16.068ZM12.9655 19.5326H12.8327V19.671L12.971 19.6653L12.9655 19.5326ZM14.3812 18.8372L14.2768 18.755L14.2761 18.7559L14.3812 18.8372ZM15.5733 17.3222L15.4701 17.2386L15.4689 17.24L15.5733 17.3222ZM15.4367 15.683H15.3039V15.8137L15.4346 15.8158L15.4367 15.683ZM15.4367 15.4346L15.4437 15.302L15.3039 15.2947V15.4346H15.4367ZM17.9203 15.4346H18.0531V15.2879L17.9071 15.3025L17.9203 15.4346ZM17.9203 15.683L17.9402 15.8143L18.0531 15.7972V15.683H17.9203ZM17.1504 15.9562L17.2146 16.0725L17.2175 16.0708L17.1504 15.9562ZM16.455 16.5895L16.5597 16.6712L16.5601 16.6706L16.455 16.5895ZM14.4308 19.1849L14.3261 19.1032L14.2652 19.1814L14.3227 19.262L14.4308 19.1849ZM17.202 23.2954C17.3493 23.512 17.5121 23.6891 17.6916 23.8237L17.851 23.6112C17.6993 23.4974 17.5558 23.3433 17.4216 23.146L17.202 23.2954ZM17.6976 23.8279C17.8873 23.9544 18.1139 24.0467 18.3744 24.1075L18.4348 23.8489C18.1986 23.7938 18.003 23.7123 17.8449 23.6069L17.6976 23.8279ZM18.2718 23.9782V24.2266H18.5374V23.9782H18.2718ZM18.4129 24.094C18.0118 24.0689 17.5121 24.0565 16.9144 24.0565V24.3221C17.5089 24.3221 18.0027 24.3345 18.3963 24.3591L18.4129 24.094ZM16.9144 24.0565C16.4649 24.0565 16.0359 24.069 15.6273 24.094L15.6435 24.3591C16.0462 24.3345 16.4698 24.3221 16.9144 24.3221V24.0565ZM15.7682 24.2266V23.9782H15.5026V24.2266H15.7682ZM15.6409 24.1109C15.8432 24.1025 16.0095 24.0771 16.125 24.0246L16.0151 23.7828C15.9484 23.8131 15.825 23.8374 15.6299 23.8455L15.6409 24.1109ZM16.125 24.0246C16.1852 23.9972 16.2399 23.9587 16.2796 23.9046C16.3203 23.849 16.3394 23.7848 16.3394 23.7174H16.0738C16.0738 23.7328 16.0701 23.741 16.0654 23.7475C16.0595 23.7555 16.0459 23.7688 16.0151 23.7828L16.125 24.0246ZM16.3394 23.7174C16.3394 23.5933 16.279 23.4661 16.1905 23.3422L15.9744 23.4966C16.0514 23.6045 16.0738 23.676 16.0738 23.7174H16.3394ZM16.1931 23.346L14.3801 20.614L14.1587 20.7609L15.9718 23.4928L16.1931 23.346ZM14.3803 20.6144C14.1394 20.2489 13.9239 19.9921 13.7333 19.8683L13.5885 20.091C13.7291 20.1823 13.9192 20.3975 14.1585 20.7605L14.3803 20.6144ZM13.7371 19.8708C13.5438 19.7355 13.2846 19.6656 12.9729 19.6483L12.9582 19.9135C13.2425 19.9293 13.4469 19.9919 13.5848 20.0884L13.7371 19.8708ZM12.8327 19.7809V22.9103H13.0983V19.7809H12.8327ZM12.8327 22.9103C12.8327 23.227 12.8571 23.474 12.9148 23.6374L13.1653 23.549C13.1236 23.431 13.0983 23.2227 13.0983 22.9103H12.8327ZM12.9148 23.6374C12.9767 23.8129 13.0951 23.9389 13.2666 24.0032L13.3599 23.7545C13.2664 23.7195 13.2027 23.6551 13.1653 23.549L12.9148 23.6374ZM13.269 24.0041C13.4283 24.0603 13.6633 24.0941 13.964 24.1108L13.9787 23.8456C13.6834 23.8292 13.4796 23.7967 13.3574 23.7536L13.269 24.0041ZM13.8386 23.9782V24.2266H14.1042V23.9782H13.8386ZM13.98 24.094C13.595 24.0689 13.0659 24.0565 12.3943 24.0565V24.3221C13.0638 24.3221 13.5862 24.3345 13.9627 24.3591L13.98 24.094ZM12.3943 24.0565C11.6817 24.0565 11.148 24.0689 10.7953 24.0941L10.8143 24.359C11.157 24.3346 11.683 24.3221 12.3943 24.3221V24.0565ZM10.9376 24.2266V23.9782H10.672V24.2266H10.9376ZM10.8122 24.1108C11.1121 24.0941 11.3446 24.0604 11.4972 24.0032L11.4039 23.7545C11.2915 23.7966 11.0935 23.8291 10.7974 23.8456L10.8122 24.1108ZM11.4947 24.0041C11.6733 23.9411 11.7983 23.8161 11.8614 23.6374L11.6109 23.549C11.5746 23.6519 11.5092 23.7173 11.4063 23.7536L11.4947 24.0041ZM11.8614 23.6374C11.9191 23.474 11.9435 23.227 11.9435 22.9103H11.6778C11.6778 23.2227 11.6526 23.431 11.6109 23.549L11.8614 23.6374ZM11.9435 22.9103V16.7509H11.6778V22.9103H11.9435ZM11.9435 16.7509C11.9435 16.4342 11.9191 16.1872 11.8614 16.0238L11.6109 16.1122C11.6526 16.2302 11.6778 16.4385 11.6778 16.7509H11.9435ZM11.8614 16.0238C11.7983 15.8451 11.6733 15.7201 11.4947 15.6571L11.4063 15.9076C11.5092 15.9439 11.5746 16.0093 11.6109 16.1122L11.8614 16.0238ZM11.4972 15.658C11.3446 15.6008 11.1121 15.5671 10.8122 15.5504L10.7974 15.8156C11.0935 15.8321 11.2915 15.8646 11.4039 15.9067L11.4972 15.658ZM10.9376 15.683V15.4346H10.672V15.683H10.9376ZM10.7953 15.5671C11.148 15.5923 11.6817 15.6047 12.3943 15.6047V15.3391C11.683 15.3391 11.157 15.3266 10.8143 15.3022L10.7953 15.5671ZM12.3943 15.6047C13.0578 15.6047 13.5867 15.5923 13.9798 15.5672L13.9629 15.3021C13.5779 15.3267 13.0554 15.3391 12.3943 15.3391V15.6047ZM13.8386 15.4346V15.683H14.1042V15.4346H13.8386ZM13.964 15.5504C13.6633 15.5671 13.4283 15.6009 13.269 15.6571L13.3574 15.9076C13.4796 15.8645 13.6834 15.832 13.9787 15.8156L13.964 15.5504ZM13.2666 15.658C13.0951 15.7223 12.9767 15.8483 12.9148 16.0238L13.1653 16.1122C13.2027 16.0061 13.2664 15.9417 13.3599 15.9067L13.2666 15.658ZM12.9148 16.0238C12.8571 16.1872 12.8327 16.4342 12.8327 16.7509H13.0983C13.0983 16.4385 13.1236 16.2302 13.1653 16.1122L12.9148 16.0238ZM12.8327 16.7509V19.5326H13.0983V16.7509H12.8327ZM12.971 19.6653C13.6105 19.639 14.1205 19.3912 14.4862 18.9184L14.2761 18.7559C13.963 19.1606 13.5293 19.3765 12.9601 19.3999L12.971 19.6653ZM14.4855 18.9193L15.6777 17.4043L15.4689 17.24L14.2768 18.755L14.4855 18.9193ZM15.6765 17.4057C15.8907 17.1412 16.0546 16.9042 16.1656 16.6953C16.2755 16.4884 16.3394 16.2981 16.3394 16.13H16.0738C16.0738 16.2352 16.0322 16.3802 15.931 16.5707C15.8309 16.7591 15.6782 16.9816 15.4701 17.2386L15.6765 17.4057ZM16.3394 16.13C16.3394 15.9364 16.2489 15.7837 16.0808 15.6861C15.9233 15.5947 15.7038 15.5545 15.4388 15.5502L15.4346 15.8158C15.6829 15.8198 15.8483 15.8582 15.9474 15.9158C16.0361 15.9673 16.0738 16.0339 16.0738 16.13H16.3394ZM15.5695 15.683V15.4346H15.3039V15.683H15.5695ZM15.4297 15.5673C15.904 15.5922 16.3823 15.6047 16.8648 15.6047V15.3391C16.3869 15.3391 15.9132 15.3267 15.4437 15.302L15.4297 15.5673ZM16.8648 15.6047C17.3215 15.6047 17.6786 15.5923 17.9335 15.5668L17.9071 15.3025C17.6653 15.3267 17.3186 15.3391 16.8648 15.3391V15.6047ZM17.7875 15.4346V15.683H18.0531V15.4346H17.7875ZM17.9004 15.5517C17.6104 15.5956 17.3377 15.6924 17.0832 15.8416L17.2175 16.0708C17.4432 15.9385 17.6838 15.8532 17.9402 15.8143L17.9004 15.5517ZM17.0862 15.8399C16.8258 15.9836 16.5809 16.2088 16.3498 16.5084L16.5601 16.6706C16.7761 16.3907 16.9948 16.1937 17.2145 16.0725L17.0862 15.8399ZM16.3502 16.5078L14.3261 19.1032L14.5356 19.2665L16.5597 16.6712L16.3502 16.5078ZM14.3227 19.262L17.2037 23.2979L17.4199 23.1435L14.5389 19.1077L14.3227 19.262ZM26.8198 15.683L26.8274 15.8156L26.9526 15.8084V15.683H26.8198ZM26.1741 15.8196L26.2307 15.9399L26.2362 15.937L26.1741 15.8196ZM25.8885 16.1673L26.0151 16.2073L26.0157 16.2055L25.8885 16.1673ZM25.6898 22.1528L25.5593 22.1277L25.559 22.1297L25.6898 22.1528ZM25.3048 23.2455L25.1906 23.1777L25.19 23.1788L25.3048 23.2455ZM24.3859 24.09L24.3255 23.9717L24.3245 23.9722L24.3859 24.09ZM20.9461 23.7298L20.8556 23.827L20.8556 23.827L20.9461 23.7298ZM20.2134 22.575L20.0858 22.6118V22.6118L20.2134 22.575ZM19.9527 16.068L19.8274 16.1122V16.1122L19.9527 16.068ZM19.6671 15.7823L19.6204 15.9067L19.6228 15.9076L19.6671 15.7823ZM19.0213 15.683H18.8885V15.8086L19.0139 15.8156L19.0213 15.683ZM19.0213 15.4346L19.0308 15.3022L18.8885 15.292V15.4346H19.0213ZM22.1879 15.4346H22.3207V15.2929L22.1793 15.3021L22.1879 15.4346ZM22.1879 15.683L22.1953 15.8156L22.3207 15.8086V15.683H22.1879ZM21.5297 15.7823L21.4855 15.6571L21.4831 15.658L21.5297 15.7823ZM21.2566 16.068L21.3818 16.1122V16.1122L21.2566 16.068ZM21.3186 22.5129L21.4487 22.4859V22.4859L21.3186 22.5129ZM21.8774 23.5684L21.7864 23.6651L21.7878 23.6664L21.8774 23.5684ZM24.9944 23.1214L25.1066 23.1923V23.1923L24.9944 23.1214ZM25.28 15.9562L25.1837 16.0477L25.1861 16.0501L25.28 15.9562ZM24.3983 15.683H24.2655V15.8108L24.3932 15.8157L24.3983 15.683ZM24.3983 15.4346L24.4093 15.3023L24.2655 15.2903V15.4346H24.3983ZM26.8198 15.4346H26.9526V15.2892L26.8078 15.3024L26.8198 15.4346ZM26.8122 15.5504C26.5166 15.5673 26.2782 15.6142 26.1119 15.7022L26.2362 15.937C26.3514 15.876 26.5435 15.8318 26.8274 15.8156L26.8122 15.5504ZM26.1175 15.6994C25.9386 15.7836 25.8204 15.9319 25.7612 16.1291L26.0157 16.2055C26.0558 16.0715 26.128 15.988 26.2306 15.9398L26.1175 15.6994ZM25.7618 16.1273C25.7059 16.3045 25.6811 16.5569 25.6811 16.8751H25.9468C25.9468 16.5642 25.9717 16.3447 26.0151 16.2073L25.7618 16.1273ZM25.6811 16.8751V20.6129H25.9468V16.8751H25.6811ZM25.6811 20.6129C25.6811 21.2034 25.6401 21.7078 25.5593 22.1277L25.8202 22.1778C25.905 21.7367 25.9468 21.2146 25.9468 20.6129H25.6811ZM25.559 22.1297C25.4867 22.5392 25.3631 22.8876 25.1907 23.1777L25.419 23.3134C25.6108 22.9908 25.7438 22.6107 25.8206 22.1758L25.559 22.1297ZM25.19 23.1788C24.9972 23.5104 24.7109 23.775 24.3255 23.9717L24.4462 24.2083C24.8721 23.991 25.1985 23.6926 25.4196 23.3123L25.19 23.1788ZM24.3245 23.9722C23.9484 24.1681 23.5187 24.2676 23.0323 24.2676V24.5332C23.5559 24.5332 24.0286 24.4258 24.4472 24.2078L24.3245 23.9722ZM23.0323 24.2676C22.1421 24.2676 21.484 24.0492 21.0366 23.6326L20.8556 23.827C21.3685 24.3046 22.1012 24.5332 23.0323 24.5332V24.2676ZM21.0366 23.6327C20.688 23.3078 20.4578 22.943 20.3411 22.5382L20.0858 22.6118C20.2174 23.0679 20.4757 23.4731 20.8556 23.827L21.0366 23.6327ZM20.3411 22.5382C20.2222 22.126 20.16 21.4995 20.16 20.6502H19.8944C19.8944 21.5063 19.9564 22.163 20.0858 22.6118L20.3411 22.5382ZM20.16 20.6502V16.7509H19.8944V20.6502H20.16ZM20.16 16.7509C20.16 16.4342 20.1356 16.1872 20.0779 16.0238L19.8274 16.1122C19.8691 16.2302 19.8944 16.4385 19.8944 16.7509H20.16ZM20.0779 16.0238C20.0149 15.8451 19.8899 15.7201 19.7113 15.6571L19.6228 15.9076C19.7257 15.9439 19.7911 16.0093 19.8274 16.1122L20.0779 16.0238ZM19.7137 15.658C19.5611 15.6008 19.3287 15.5671 19.0287 15.5504L19.0139 15.8156C19.31 15.8321 19.5081 15.8646 19.6204 15.9067L19.7137 15.658ZM19.1541 15.683V15.4346H18.8885V15.683H19.1541ZM19.0119 15.5671C19.3645 15.5923 19.8982 15.6047 20.6108 15.6047V15.3391C19.8995 15.3391 19.3735 15.3266 19.0308 15.3022L19.0119 15.5671ZM20.6108 15.6047C21.2825 15.6047 21.8115 15.5923 22.1965 15.5672L22.1793 15.3021C21.8027 15.3267 21.2803 15.3391 20.6108 15.3391V15.6047ZM22.0551 15.4346V15.683H22.3207V15.4346H22.0551ZM22.1805 15.5504C21.8798 15.5671 21.6448 15.6009 21.4855 15.6571L21.5739 15.9076C21.6961 15.8645 21.8999 15.832 22.1953 15.8156L22.1805 15.5504ZM21.4831 15.658C21.3116 15.7223 21.1932 15.8483 21.1313 16.0238L21.3818 16.1122C21.4192 16.0061 21.4829 15.9417 21.5764 15.9067L21.4831 15.658ZM21.1313 16.0238C21.0736 16.1872 21.0492 16.4342 21.0492 16.7509H21.3149C21.3149 16.4385 21.3401 16.2302 21.3818 16.1122L21.1313 16.0238ZM21.0492 16.7509V20.8613H21.3149V16.7509H21.0492ZM21.0492 20.8613C21.0492 21.5288 21.095 22.0891 21.1886 22.5399L21.4487 22.4859C21.3601 22.0591 21.3149 21.5184 21.3149 20.8613H21.0492ZM21.1886 22.5399C21.2843 23.0009 21.4821 23.3787 21.7864 23.6651L21.9685 23.4717C21.7099 23.2283 21.5351 22.9024 21.4487 22.4859L21.1886 22.5399ZM21.7878 23.6664C22.1106 23.9615 22.5699 24.0986 23.1441 24.0986V23.833C22.6089 23.833 22.2238 23.7052 21.9671 23.4704L21.7878 23.6664ZM23.1441 24.0986C24.0509 24.0986 24.7187 23.8058 25.1066 23.1923L24.8821 23.0504C24.558 23.5629 23.9923 23.833 23.1441 23.833V24.0986ZM25.1066 23.1923C25.4814 22.5997 25.6611 21.7806 25.6611 20.7495H25.3955C25.3955 21.755 25.2193 22.5171 24.8821 23.0504L25.1066 23.1923ZM25.6611 20.7495V16.8751H25.3955V20.7495H25.6611ZM25.6611 16.8751C25.6611 16.4213 25.5791 16.0675 25.3739 15.8623L25.1861 16.0501C25.312 16.1761 25.3955 16.4349 25.3955 16.8751H25.6611ZM25.3763 15.8647C25.1813 15.6595 24.8412 15.5671 24.4034 15.5503L24.3932 15.8157C24.8164 15.832 25.0641 15.9218 25.1837 16.0477L25.3763 15.8647ZM24.5311 15.683V15.4346H24.2655V15.683H24.5311ZM24.3873 15.567C24.6908 15.5923 25.1173 15.6047 25.6649 15.6047V15.3391C25.1197 15.3391 24.7019 15.3267 24.4093 15.3023L24.3873 15.567ZM25.6649 15.6047C26.163 15.6047 26.5527 15.5923 26.8318 15.5669L26.8078 15.3024C26.5406 15.3267 26.1603 15.3391 25.6649 15.3391V15.6047ZM26.687 15.4346V15.683H26.9526V15.4346H26.687ZM34.7677 15.4346L34.8999 15.4477L34.9148 15.2964L34.7629 15.3019L34.7677 15.4346ZM34.718 18.0424V18.1752H34.8639L34.8502 18.03L34.718 18.0424ZM34.4324 18.0424L34.3003 18.0561L34.3127 18.1752H34.4324V18.0424ZM34.184 16.6268L34.0574 16.6668L34.0577 16.6677L34.184 16.6268ZM33.6625 15.9438L33.5941 16.0577L33.597 16.0593L33.6625 15.9438ZM31.8495 15.7203V15.5874H31.7167V15.7203H31.8495ZM31.9488 23.5436L31.8264 23.5951V23.5951L31.9488 23.5436ZM32.2965 23.8664L32.2526 23.9918V23.9918L32.2965 23.8664ZM33.1037 23.9782H33.2365V23.8512L33.1096 23.8455L33.1037 23.9782ZM33.1037 24.2266L33.096 24.3592L33.2365 24.3673V24.2266H33.1037ZM29.4404 24.2266H29.3076V24.3679L29.4487 24.3591L29.4404 24.2266ZM29.4404 23.9782L29.4345 23.8455L29.3076 23.8512V23.9782H29.4404ZM30.2475 23.8664L30.2914 23.9918V23.9918L30.2475 23.8664ZM30.5952 23.5436L30.7177 23.5951V23.5951L30.5952 23.5436ZM30.6946 15.7203H30.8274V15.5874H30.6946V15.7203ZM28.8816 15.9438L28.9471 16.0594L28.9499 16.0577L28.8816 15.9438ZM28.36 16.6268L28.4864 16.6677L28.4867 16.6668L28.36 16.6268ZM28.1117 18.0424V18.1752H28.2314L28.2438 18.0561L28.1117 18.0424ZM27.826 18.0424L27.6938 18.03L27.6802 18.1752H27.826V18.0424ZM27.7764 15.4346L27.7812 15.3019L27.6293 15.2964L27.6442 15.4477L27.7764 15.4346ZM34.6355 15.4216C34.5772 16.0127 34.5479 16.547 34.5479 17.0241H34.8136C34.8136 16.5575 34.8422 16.0321 34.8999 15.4477L34.6355 15.4216ZM34.5479 17.0241C34.5479 17.4402 34.5604 17.7842 34.5858 18.0548L34.8502 18.03C34.8259 17.7708 34.8136 17.4359 34.8136 17.0241H34.5479ZM34.718 17.9096H34.4324V18.1752H34.718V17.9096ZM34.5645 18.0287C34.4981 17.3892 34.4142 16.9059 34.3104 16.5858L34.0577 16.6677C34.1526 16.9603 34.2343 17.4207 34.3003 18.0561L34.5645 18.0287ZM34.3107 16.5868C34.2029 16.2455 34.0101 15.9881 33.728 15.8282L33.597 16.0593C33.8116 16.1809 33.9665 16.3788 34.0574 16.6668L34.3107 16.5868ZM33.7308 15.8299C33.4514 15.6622 33.0413 15.5874 32.52 15.5874V15.8531C33.0253 15.8531 33.3769 15.9273 33.5942 16.0577L33.7308 15.8299ZM32.52 15.5874H31.8495V15.8531H32.52V15.5874ZM31.7167 15.7203V22.7861H31.9823V15.7203H31.7167ZM31.7167 22.7861C31.7167 23.1369 31.7493 23.412 31.8264 23.5951L32.0712 23.492C32.0159 23.3606 31.9823 23.1306 31.9823 22.7861H31.7167ZM31.8264 23.5951C31.9077 23.7881 32.0528 23.9218 32.2526 23.9918L32.3404 23.7411C32.2091 23.6951 32.1224 23.6137 32.0712 23.492L31.8264 23.5951ZM32.2526 23.9918C32.4378 24.0566 32.7235 24.0942 33.0978 24.1109L33.1096 23.8455C32.7388 23.829 32.4864 23.7922 32.3404 23.7411L32.2526 23.9918ZM32.9709 23.9782V24.2266H33.2365V23.9782H32.9709ZM33.1113 24.094C32.677 24.0689 32.0656 24.0565 31.2782 24.0565V24.3221C32.0639 24.3221 32.6694 24.3345 33.096 24.3592L33.1113 24.094ZM31.2782 24.0565C30.4499 24.0565 29.8338 24.0689 29.4321 24.094L29.4487 24.3591C29.8417 24.3346 30.4509 24.3221 31.2782 24.3221V24.0565ZM29.5732 24.2266V23.9782H29.3076V24.2266H29.5732ZM29.4463 24.1109C29.8206 24.0942 30.1063 24.0566 30.2914 23.9918L30.2037 23.7411C30.0577 23.7922 29.8052 23.829 29.4345 23.8455L29.4463 24.1109ZM30.2914 23.9918C30.4913 23.9218 30.6364 23.7881 30.7177 23.5951L30.4728 23.492C30.4216 23.6137 30.3349 23.6951 30.2037 23.7411L30.2914 23.9918ZM30.7177 23.5951C30.7948 23.412 30.8274 23.1369 30.8274 22.7861H30.5618C30.5618 23.1306 30.5282 23.3606 30.4728 23.492L30.7177 23.5951ZM30.8274 22.7861V15.7203H30.5618V22.7861H30.8274ZM30.6946 15.5874H30.024V15.8531H30.6946V15.5874ZM30.024 15.5874C29.5028 15.5874 29.0927 15.6622 28.8132 15.8299L28.9499 16.0577C29.1672 15.9273 29.5187 15.8531 30.024 15.8531V15.5874ZM28.8161 15.8282C28.534 15.9881 28.3411 16.2455 28.2334 16.5868L28.4867 16.6668C28.5776 16.3788 28.7324 16.1809 28.947 16.0593L28.8161 15.8282ZM28.2337 16.5858C28.1299 16.9059 28.046 17.3892 27.9796 18.0287L28.2438 18.0561C28.3098 17.4207 28.3915 16.9603 28.4863 16.6677L28.2337 16.5858ZM28.1117 17.9096H27.826V18.1752H28.1117V17.9096ZM27.9583 18.0548C27.9836 17.7842 27.9961 17.4402 27.9961 17.0241H27.7305C27.7305 17.4359 27.7181 17.7708 27.6938 18.03L27.9583 18.0548ZM27.9961 17.0241C27.9961 16.547 27.9668 16.0127 27.9085 15.4216L27.6442 15.4477C27.7018 16.0321 27.7305 16.5575 27.7305 17.0241H27.9961ZM27.7716 15.5674C28.4613 15.5923 29.6308 15.6047 31.2782 15.6047V15.3391C29.6308 15.3391 28.4657 15.3267 27.7812 15.3019L27.7716 15.5674ZM31.2782 15.6047C32.9174 15.6047 34.0827 15.5923 34.7725 15.5674L34.7629 15.3019C34.0784 15.3267 32.9174 15.3391 31.2782 15.3391V15.6047ZM39.4304 15.4222L39.3811 15.5457L39.387 15.5477L39.4304 15.4222ZM40.0886 15.7575L40.0149 15.868L40.0173 15.8696L40.0886 15.7575ZM40.6847 15.8072L40.8035 15.8666L40.8056 15.8621L40.6847 15.8072ZM40.784 15.385V15.2522H40.6674L40.6523 15.3678L40.784 15.385ZM41.0696 15.385L41.2019 15.3964L41.2144 15.2522H41.0696V15.385ZM41.0075 17.9182V18.051H41.1403V17.9182H41.0075ZM40.7219 17.9182L40.5895 17.928L40.5986 18.051H40.7219V17.9182ZM40.1383 16.2294L40.0302 16.3066L40.0318 16.3088L40.1383 16.2294ZM37.5926 15.9438L37.6836 16.0405L37.6851 16.0391L37.5926 15.9438ZM37.3815 17.7941L37.2679 17.863L37.2698 17.8659L37.3815 17.7941ZM37.9403 18.3901L38.0193 18.2834V18.2834L37.9403 18.3901ZM38.8965 19.0234L38.9665 18.9106L38.9664 18.9106L38.8965 19.0234ZM39.2566 19.247L39.1865 19.3598L39.1867 19.3599L39.2566 19.247ZM40.486 20.1038L40.4009 20.2059L40.404 20.2083L40.486 20.1038ZM41.2186 20.9358L41.1037 21.0023V21.0023L41.2186 20.9358ZM40.7467 23.7919L40.8308 23.8948L40.8318 23.894L40.7467 23.7919ZM37.8782 24.2762L37.8362 24.4022L37.8374 24.4026L37.8782 24.2762ZM37.1579 23.9409L37.0866 24.053L37.089 24.0545L37.1579 23.9409ZM36.5619 23.9037L36.6808 23.9631L36.6828 23.9587L36.5619 23.9037ZM36.4625 24.3135V24.4463H36.5792L36.5942 24.3307L36.4625 24.3135ZM36.1769 24.3135L36.0445 24.3039L36.0341 24.4463H36.1769V24.3135ZM36.2266 21.3332V21.2004H36.0938V21.3332H36.2266ZM36.5122 21.3332L36.6447 21.324L36.6361 21.2004H36.5122V21.3332ZM37.1331 23.3697L37.0234 23.4446V23.4446L37.1331 23.3697ZM39.9147 23.7423L40.0018 23.8426L40.0033 23.8412L39.9147 23.7423ZM39.9147 21.3208L39.8184 21.4122L39.8196 21.4134L39.9147 21.3208ZM38.4494 20.228L38.3802 20.3414L38.3807 20.3416L38.4494 20.228ZM37.2573 19.4332L37.1757 19.5381L37.1771 19.5391L37.2573 19.4332ZM36.5246 18.6012L36.4095 18.6674L36.4102 18.6687L36.5246 18.6012ZM36.9096 15.8569L36.9935 15.9598L36.9946 15.9589L36.9096 15.8569ZM38.5736 15.4309C38.9303 15.4309 39.1967 15.4718 39.3811 15.5455L39.4798 15.2989C39.2503 15.2071 38.9454 15.1652 38.5736 15.1652V15.4309ZM39.387 15.5477C39.5899 15.618 39.7992 15.7242 40.0149 15.868L40.1623 15.647C39.931 15.4928 39.7015 15.3755 39.4739 15.2967L39.387 15.5477ZM40.0173 15.8696C40.201 15.9865 40.3701 16.0642 40.5108 16.0642V15.7985C40.4528 15.7985 40.3404 15.7604 40.1599 15.6455L40.0173 15.8696ZM40.5108 16.0642C40.6487 16.0642 40.7461 15.9813 40.8034 15.8666L40.5659 15.7478C40.5404 15.7987 40.5219 15.7985 40.5108 15.7985V16.0642ZM40.8056 15.8621C40.8553 15.7526 40.8904 15.5959 40.9157 15.4021L40.6523 15.3678C40.6279 15.5548 40.5967 15.6796 40.5637 15.7522L40.8056 15.8621ZM40.784 15.5178H41.0696V15.2522H40.784V15.5178ZM40.9373 15.3736C40.8953 15.8601 40.8747 16.7097 40.8747 17.9182H41.1403C41.1403 16.7094 41.1611 15.8702 41.2019 15.3964L40.9373 15.3736ZM41.0075 17.7854H40.7219V18.051H41.0075V17.7854ZM40.8544 17.9084C40.8032 17.2174 40.6018 16.6291 40.2447 16.15L40.0318 16.3088C40.3535 16.7404 40.5413 17.278 40.5895 17.928L40.8544 17.9084ZM40.2463 16.1522C39.887 15.6491 39.3598 15.4012 38.6854 15.4012V15.6668C39.2858 15.6668 39.7272 15.8824 40.0302 16.3066L40.2463 16.1522ZM38.6854 15.4012C38.209 15.4012 37.8098 15.5478 37.5001 15.8485L37.6851 16.0391C37.9383 15.7933 38.2676 15.6668 38.6854 15.6668V15.4012ZM37.5016 15.8471C37.1908 16.1395 37.0376 16.5194 37.0376 16.9745H37.3032C37.3032 16.5851 37.4314 16.2778 37.6836 16.0405L37.5016 15.8471ZM37.0376 16.9745C37.0376 17.3094 37.1127 17.6073 37.2679 17.863L37.495 17.7251C37.3688 17.5172 37.3032 17.2687 37.3032 16.9745H37.0376ZM37.2698 17.8659C37.4275 18.1113 37.6249 18.3218 37.8612 18.4968L38.0193 18.2834C37.8086 18.1273 37.6334 17.9404 37.4932 17.7222L37.2698 17.8659ZM37.8612 18.4968C38.0891 18.6656 38.4114 18.8789 38.8265 19.1363L38.9664 18.9106C38.5537 18.6546 38.2385 18.4458 38.0193 18.2834L37.8612 18.4968ZM38.8264 19.1363L39.1865 19.3598L39.3266 19.1341L38.9665 18.9106L38.8264 19.1363ZM39.1867 19.3599C39.7056 19.6811 40.1096 19.963 40.4009 20.2058L40.571 20.0018C40.2663 19.7478 39.8507 19.4585 39.3265 19.134L39.1867 19.3599ZM40.404 20.2083C40.698 20.4387 40.9306 20.7034 41.1037 21.0023L41.3336 20.8693C41.1424 20.539 40.8866 20.249 40.5679 19.9993L40.404 20.2083ZM41.1037 21.0023C41.2723 21.2936 41.359 21.6383 41.359 22.041H41.6246C41.6246 21.5992 41.5292 21.2071 41.3336 20.8693L41.1037 21.0023ZM41.359 22.041C41.359 22.7622 41.123 23.3055 40.6617 23.6899L40.8318 23.894C41.3639 23.4505 41.6246 22.8265 41.6246 22.041H41.359ZM40.6627 23.6891C40.194 24.0719 39.5962 24.2676 38.8592 24.2676V24.5332C39.6455 24.5332 40.3061 24.3233 40.8307 23.8948L40.6627 23.6891ZM38.8592 24.2676C38.4698 24.2676 38.1578 24.2269 37.919 24.1498L37.8374 24.4026C38.1119 24.4912 38.4539 24.5332 38.8592 24.5332V24.2676ZM37.9202 24.1502C37.6816 24.0707 37.4505 23.9632 37.2269 23.8274L37.089 24.0545C37.329 24.2002 37.5781 24.3162 37.8362 24.4022L37.9202 24.1502ZM37.2293 23.8289C37.0455 23.712 36.8764 23.6343 36.7357 23.6343V23.8999C36.7937 23.8999 36.9061 23.9381 37.0866 24.053L37.2293 23.8289ZM36.7357 23.6343C36.5908 23.6343 36.4952 23.7295 36.441 23.8487L36.6828 23.9587C36.6977 23.9259 36.7111 23.9115 36.7184 23.9057C36.7237 23.9015 36.7279 23.8999 36.7357 23.8999V23.6343ZM36.4431 23.8443C36.3912 23.9481 36.356 24.1035 36.3308 24.2963L36.5942 24.3307C36.6188 24.1427 36.6498 24.0248 36.6807 23.9631L36.4431 23.8443ZM36.4625 24.1807H36.1769V24.4463H36.4625V24.1807ZM36.3094 24.3231C36.3429 23.8621 36.3594 22.8635 36.3594 21.3332H36.0938C36.0938 22.8659 36.0772 23.8543 36.0445 24.3039L36.3094 24.3231ZM36.2266 21.466H36.5122V21.2004H36.2266V21.466ZM36.3797 21.3424C36.4388 22.1946 36.6505 22.8982 37.0234 23.4446L37.2428 23.2949C36.9038 22.7982 36.7015 22.1441 36.6447 21.324L36.3797 21.3424ZM37.0234 23.4446C37.4086 24.0089 38 24.2849 38.7723 24.2849V24.0192C38.0709 24.0192 37.5696 23.7737 37.2428 23.2949L37.0234 23.4446ZM38.7723 24.2849C39.2488 24.2849 39.6612 24.1383 40.0018 23.8425L39.8277 23.642C39.5391 23.8926 39.1899 24.0192 38.7723 24.0192V24.2849ZM40.0033 23.8412C40.3538 23.5276 40.5194 23.0728 40.5194 22.5005H40.2538C40.2538 23.0209 40.1049 23.3939 39.8262 23.6433L40.0033 23.8412ZM40.5194 22.5005C40.5194 22.0033 40.3494 21.5765 40.0099 21.2281L39.8196 21.4134C40.1093 21.7107 40.2538 22.0704 40.2538 22.5005H40.5194ZM40.0111 21.2293C39.6927 20.8937 39.1924 20.5222 38.5182 20.1143L38.3807 20.3416C39.0475 20.745 39.5242 21.1021 39.8184 21.4122L40.0111 21.2293ZM38.5186 20.1146C38.0323 19.8179 37.639 19.5555 37.3374 19.3273L37.1771 19.5391C37.4882 19.7746 37.8897 20.042 38.3802 20.3414L38.5186 20.1146ZM37.3388 19.3284C37.0539 19.1068 36.8209 18.8421 36.639 18.5338L36.4102 18.6687C36.6092 19.0061 36.8646 19.2961 37.1758 19.5381L37.3388 19.3284ZM36.6398 18.535C36.4626 18.2268 36.3718 17.8654 36.3718 17.4464H36.1062C36.1062 17.9049 36.2059 18.3133 36.4095 18.6674L36.6398 18.535ZM36.3718 17.4464C36.3718 16.7818 36.5838 16.2936 36.9935 15.9598L36.8257 15.7539C36.3413 16.1486 36.1062 16.7201 36.1062 17.4464H36.3718ZM36.9946 15.9589C37.4145 15.609 37.9378 15.4309 38.5736 15.4309V15.1652C37.8848 15.1652 37.2988 15.3597 36.8246 15.7548L36.9946 15.9589ZM49.3468 23.1835L49.4706 23.1355L49.4706 23.1354L49.3468 23.1835ZM50.2036 23.9782H50.3364V23.8512L50.2095 23.8455L50.2036 23.9782ZM50.2036 24.2266L50.1937 24.359L50.3364 24.3697V24.2266H50.2036ZM47.2854 24.2266H47.1526V24.3692L47.2948 24.359L47.2854 24.2266ZM47.2854 23.9782L47.2784 23.8456L47.1526 23.8522V23.9782H47.2854ZM47.956 23.8664L48.0092 23.9882L48.0125 23.9866L47.956 23.8664ZM48.018 22.9351L47.8935 22.9814L47.8947 22.9844L48.018 22.9351ZM47.2605 20.8985L47.385 20.8522L47.3528 20.7657H47.2605V20.8985ZM44.2554 20.8985V20.7657H44.1644L44.1315 20.8506L44.2554 20.8985ZM43.7463 22.2149L43.6224 22.1669L43.6217 22.1687L43.7463 22.2149ZM43.7587 23.7919L43.685 23.9025L43.6874 23.904L43.7587 23.7919ZM44.5783 23.9782H44.7111V23.8484L44.5813 23.8454L44.5783 23.9782ZM44.5783 24.2266L44.5713 24.3592L44.7111 24.3665V24.2266H44.5783ZM42.2188 24.2266H42.086V24.3733L42.2321 24.3587L42.2188 24.2266ZM42.2188 23.9782L42.1879 23.8491L42.086 23.8735V23.9782H42.2188ZM43.1999 22.8978L43.076 22.8498L43.076 22.8499L43.1999 22.8978ZM46.1181 15.3726V15.2397H46.0271L45.9943 15.3245L46.1181 15.3726ZM46.3168 15.3726L46.4406 15.3245L46.4077 15.2397H46.3168V15.3726ZM47.1612 20.6502V20.783H47.3528L47.2856 20.6036L47.1612 20.6502ZM45.7704 16.9372L45.8948 16.8906L45.7715 16.5615L45.6463 16.8899L45.7704 16.9372ZM44.3547 20.6502L44.2306 20.6029L44.162 20.783H44.3547V20.6502ZM49.2229 23.2314C49.4302 23.7669 49.7487 24.0909 50.1977 24.1109L50.2095 23.8455C49.9134 23.8324 49.6607 23.6266 49.4706 23.1355L49.2229 23.2314ZM50.0708 23.9782V24.2266H50.3364V23.9782H50.0708ZM50.2135 24.0941C49.8776 24.0689 49.431 24.0565 48.8749 24.0565V24.3221C49.4281 24.3221 49.8673 24.3345 50.1937 24.359L50.2135 24.0941ZM48.8749 24.0565C48.1623 24.0565 47.6286 24.0689 47.2759 24.0941L47.2948 24.359C47.6376 24.3346 48.1635 24.3221 48.8749 24.3221V24.0565ZM47.4182 24.2266V23.9782H47.1526V24.2266H47.4182ZM47.2924 24.1108C47.6086 24.0942 47.8531 24.0564 48.0092 23.9881L47.9027 23.7448C47.7939 23.7924 47.5914 23.8291 47.2784 23.8456L47.2924 24.1108ZM48.0125 23.9866C48.1029 23.9441 48.1772 23.8822 48.2278 23.7988C48.2781 23.7159 48.2999 23.6205 48.2999 23.5187H48.0342C48.0342 23.5826 48.0208 23.6279 48.0008 23.6609C47.981 23.6934 47.9497 23.7226 47.8994 23.7463L48.0125 23.9866ZM48.2999 23.5187C48.2999 23.352 48.2424 23.1383 48.1414 22.8858L47.8947 22.9844C47.9924 23.2286 48.0342 23.404 48.0342 23.5187H48.2999ZM48.1425 22.8888L47.385 20.8522L47.1361 20.9448L47.8936 22.9814L48.1425 22.8888ZM47.2605 20.7657H44.2554V21.0314H47.2605V20.7657ZM44.1315 20.8506L43.6224 22.1669L43.8701 22.2628L44.3793 20.9465L44.1315 20.8506ZM43.6217 22.1687C43.4552 22.6183 43.3651 22.9764 43.3651 23.2331H43.6307C43.6307 23.0263 43.7062 22.7055 43.8708 22.261L43.6217 22.1687ZM43.3651 23.2331C43.3651 23.5226 43.4655 23.7561 43.685 23.9024L43.8323 23.6814C43.7041 23.5959 43.6307 23.4569 43.6307 23.2331H43.3651ZM43.6874 23.904C43.8996 24.039 44.2015 24.1025 44.5752 24.111L44.5813 23.8454C44.2265 23.8374 43.982 23.7766 43.83 23.6799L43.6874 23.904ZM44.4454 23.9782V24.2266H44.7111V23.9782H44.4454ZM44.5852 24.0939C44.111 24.069 43.6326 24.0565 43.1502 24.0565V24.3221C43.6281 24.3221 44.1018 24.3345 44.5713 24.3592L44.5852 24.0939ZM43.1502 24.0565C42.7752 24.0565 42.4599 24.069 42.2056 24.0944L42.2321 24.3587C42.4745 24.3345 42.7802 24.3221 43.1502 24.3221V24.0565ZM42.3517 24.2266V23.9782H42.086V24.2266H42.3517ZM42.2498 24.1073C42.726 23.9931 43.0771 23.5836 43.3237 22.9457L43.076 22.8499C42.8425 23.4539 42.5395 23.7647 42.1879 23.8491L42.2498 24.1073ZM43.3237 22.9459L46.2419 15.4206L45.9943 15.3245L43.076 22.8498L43.3237 22.9459ZM46.1181 15.5054H46.3168V15.2397H46.1181V15.5054ZM46.193 15.4206L49.2229 23.2315L49.4706 23.1354L46.4406 15.3245L46.193 15.4206ZM47.2856 20.6036L45.8948 16.8906L45.646 16.9838L47.0368 20.6968L47.2856 20.6036ZM45.6463 16.8899L44.2306 20.6029L44.4788 20.6975L45.8945 16.9845L45.6463 16.8899ZM44.3547 20.783H47.1612V20.5174H44.3547V20.783ZM53.8389 15.683L53.8462 15.8156L53.9717 15.8086V15.683H53.8389ZM53.1807 15.7823L53.1365 15.6571L53.1341 15.658L53.1807 15.7823ZM52.9075 16.068L53.0328 16.1122V16.1122L52.9075 16.068ZM52.9075 23.5932L53.0328 23.549V23.549L52.9075 23.5932ZM53.1807 23.8789L53.134 24.0035L53.1432 24.0063L53.1807 23.8789ZM55.9127 23.7298L55.975 23.8471L55.9763 23.8464L55.9127 23.7298ZM56.5087 23.022L56.6327 23.0697V23.0697L56.5087 23.022ZM56.7819 21.6188V21.486H56.6611L56.6497 21.6063L56.7819 21.6188ZM57.0675 21.6188L57.1997 21.6316L57.2138 21.486H57.0675V21.6188ZM57.1172 24.2266L57.1114 24.3592L57.2644 24.366L57.2494 24.2135L57.1172 24.2266ZM50.6723 24.2266H50.5395V24.3635L50.6763 24.3593L50.6723 24.2266ZM50.6723 23.9782L50.6649 23.8456L50.5395 23.8526V23.9782H50.6723ZM51.318 23.8789L51.2738 23.7536L51.2714 23.7545L51.318 23.8789ZM51.6036 16.068L51.4784 16.1122H51.4784L51.6036 16.068ZM51.318 15.7823L51.2714 15.9067L51.2738 15.9076L51.318 15.7823ZM50.6723 15.683H50.5395V15.8086L50.6649 15.8156L50.6723 15.683ZM50.6723 15.4346L50.6817 15.3022L50.5395 15.292V15.4346H50.6723ZM53.8389 15.4346H53.9717V15.2931L53.8304 15.3021L53.8389 15.4346ZM53.8315 15.5504C53.5308 15.5671 53.2958 15.6009 53.1365 15.6571L53.2249 15.9076C53.3471 15.8645 53.5509 15.832 53.8462 15.8156L53.8315 15.5504ZM53.1341 15.658C52.9626 15.7223 52.8442 15.8483 52.7823 16.0238L53.0328 16.1122C53.0702 16.0061 53.1339 15.9417 53.2273 15.9067L53.1341 15.658ZM52.7823 16.0238C52.7246 16.1872 52.7002 16.4342 52.7002 16.7509H52.9658C52.9658 16.4385 52.9911 16.2302 53.0328 16.1122L52.7823 16.0238ZM52.7002 16.7509V22.9103H52.9658V16.7509H52.7002ZM52.7002 22.9103C52.7002 23.227 52.7246 23.474 52.7823 23.6374L53.0328 23.549C52.9911 23.431 52.9658 23.2227 52.9658 22.9103H52.7002ZM52.7823 23.6374C52.8442 23.8129 52.9626 23.9389 53.1341 24.0032L53.2273 23.7545C53.1339 23.7195 53.0702 23.6551 53.0328 23.549L52.7823 23.6374ZM53.1432 24.0063C53.3031 24.0533 53.5384 24.0738 53.8389 24.0738V23.8081C53.5433 23.8081 53.3398 23.7872 53.2182 23.7514L53.1432 24.0063ZM53.8389 24.0738H54.7454V23.8081H53.8389V24.0738ZM54.7454 24.0738C55.2669 24.0738 55.6817 24.0029 55.975 23.8471L55.8504 23.6126C55.6138 23.7382 55.2504 23.8081 54.7454 23.8081V24.0738ZM55.9763 23.8464C56.2802 23.6806 56.4985 23.4185 56.6327 23.0697L56.3848 22.9743C56.2705 23.2713 56.0915 23.481 55.8491 23.6132L55.9763 23.8464ZM56.6327 23.0697C56.7633 22.73 56.8558 22.2482 56.9141 21.6313L56.6497 21.6063C56.5922 22.2147 56.5025 22.6683 56.3848 22.9743L56.6327 23.0697ZM56.7819 21.7516H57.0675V21.486H56.7819V21.7516ZM56.9353 21.606C56.9099 21.8687 56.8975 22.2129 56.8975 22.6371H57.1631C57.1631 22.2168 57.1755 21.8822 57.1997 21.6316L56.9353 21.606ZM56.8975 22.6371C56.8975 23.1142 56.9268 23.6485 56.985 24.2396L57.2494 24.2135C57.1918 23.6291 57.1631 23.1037 57.1631 22.6371H56.8975ZM57.1231 24.0939C56.5569 24.0689 55.6064 24.0565 54.2735 24.0565V24.3221C55.6063 24.3221 56.5516 24.3346 57.1114 24.3592L57.1231 24.0939ZM54.2735 24.0565C52.6837 24.0565 51.4816 24.0689 50.6682 24.0938L50.6763 24.3593C51.4856 24.3345 52.6843 24.3221 54.2735 24.3221V24.0565ZM50.8051 24.2266V23.9782H50.5395V24.2266H50.8051ZM50.6796 24.1108C50.9796 24.0941 51.2121 24.0604 51.3647 24.0032L51.2714 23.7545C51.159 23.7966 50.961 23.8291 50.6649 23.8456L50.6796 24.1108ZM51.3622 24.0041C51.5408 23.9411 51.6658 23.8161 51.7289 23.6374L51.4784 23.549C51.4421 23.6519 51.3767 23.7173 51.2738 23.7536L51.3622 24.0041ZM51.7289 23.6374C51.7865 23.474 51.8109 23.227 51.8109 22.9103H51.5453C51.5453 23.2227 51.5201 23.431 51.4784 23.549L51.7289 23.6374ZM51.8109 22.9103V16.7509H51.5453V22.9103H51.8109ZM51.8109 16.7509C51.8109 16.4342 51.7865 16.1872 51.7289 16.0238L51.4784 16.1122C51.5201 16.2302 51.5453 16.4385 51.5453 16.7509H51.8109ZM51.7289 16.0238C51.6658 15.8451 51.5408 15.7201 51.3622 15.6571L51.2738 15.9076C51.3767 15.9439 51.4421 16.0093 51.4784 16.1122L51.7289 16.0238ZM51.3647 15.658C51.2121 15.6008 50.9796 15.5671 50.6796 15.5504L50.6649 15.8156C50.961 15.8321 51.159 15.8646 51.2714 15.9067L51.3647 15.658ZM50.8051 15.683V15.4346H50.5395V15.683H50.8051ZM50.6628 15.5671C51.0155 15.5923 51.5492 15.6047 52.2618 15.6047V15.3391C51.5504 15.3391 51.0245 15.3266 50.6817 15.3022L50.6628 15.5671ZM52.2618 15.6047C52.9252 15.6047 53.4541 15.5923 53.8473 15.5672L53.8304 15.3021C53.4454 15.3267 52.9229 15.3391 52.2618 15.3391V15.6047ZM53.7061 15.4346V15.683H53.9717V15.4346H53.7061ZM23.3377 35.2207L23.4476 35.146L23.4458 35.1435L23.3377 35.2207ZM23.7972 35.7174L23.7174 35.8238L23.7235 35.8279L23.7972 35.7174ZM24.4305 35.9782H24.5633V35.8728L24.4607 35.8489L24.4305 35.9782ZM24.4305 36.2266L24.4222 36.3591L24.5633 36.3679V36.2266H24.4305ZM21.6613 36.2266H21.5285V36.3678L21.6694 36.3591L21.6613 36.2266ZM21.6613 35.9782L21.6558 35.8455L21.5285 35.8508V35.9782H21.6613ZM22.0959 35.9037L22.1509 36.0246V36.0246L22.0959 35.9037ZM22.1083 35.4194L21.9976 35.4929L22.0003 35.4966L22.1083 35.4194ZM20.2953 32.6874L20.1844 32.7605L20.1847 32.7609L20.2953 32.6874ZM19.6868 31.9796L19.6106 32.0885L19.6145 32.091L19.6868 31.9796ZM18.9914 31.7809L18.9988 31.6483L18.8586 31.6405V31.7809H18.9914ZM19.0659 35.5932L19.1912 35.549V35.549L19.0659 35.5932ZM19.3391 35.8789L19.2925 36.0032L19.2949 36.0041L19.3391 35.8789ZM19.9973 35.9782H20.1301V35.8526L20.0047 35.8456L19.9973 35.9782ZM19.9973 36.2266L19.9886 36.3591L20.1301 36.3683V36.2266H19.9973ZM16.8307 36.2266H16.6979V36.3692L16.8402 36.359L16.8307 36.2266ZM16.8307 35.9782L16.8233 35.8456L16.6979 35.8526V35.9782H16.8307ZM17.4764 35.8789L17.4322 35.7536L17.4298 35.7545L17.4764 35.8789ZM17.7621 28.068L17.6368 28.1122V28.1122L17.7621 28.068ZM17.4764 27.7823L17.4298 27.9067L17.4322 27.9076L17.4764 27.7823ZM16.8307 27.683H16.6979V27.8086L16.8233 27.8156L16.8307 27.683ZM16.8307 27.4346L16.8402 27.3022L16.6979 27.292V27.4346H16.8307ZM19.9973 27.4346H20.1301V27.2931L19.9888 27.3021L19.9973 27.4346ZM19.9973 27.683L20.0047 27.8156L20.1301 27.8086V27.683H19.9973ZM19.3391 27.7823L19.2949 27.6571L19.2925 27.658L19.3391 27.7823ZM19.0659 28.068L19.1912 28.1122V28.1122L19.0659 28.068ZM18.9914 31.5326H18.8586V31.671L18.9969 31.6653L18.9914 31.5326ZM20.4071 30.8372L20.3027 30.755L20.302 30.7559L20.4071 30.8372ZM21.5992 29.3222L21.496 29.2386L21.4948 29.24L21.5992 29.3222ZM21.4626 27.683H21.3298V27.8137L21.4605 27.8158L21.4626 27.683ZM21.4626 27.4346L21.4696 27.302L21.3298 27.2947V27.4346H21.4626ZM23.9462 27.4346H24.079V27.2879L23.933 27.3025L23.9462 27.4346ZM23.9462 27.683L23.9661 27.8143L24.079 27.7972V27.683H23.9462ZM23.1763 27.9562L23.2405 28.0725L23.2435 28.0708L23.1763 27.9562ZM22.4809 28.5895L22.5856 28.6712L22.586 28.6706L22.4809 28.5895ZM20.4568 31.1849L20.352 31.1032L20.2911 31.1814L20.3487 31.262L20.4568 31.1849ZM23.2279 35.2954C23.3752 35.512 23.5381 35.6891 23.7175 35.8237L23.8769 35.6112C23.7252 35.4974 23.5817 35.3433 23.4476 35.146L23.2279 35.2954ZM23.7235 35.8279C23.9132 35.9544 24.1398 36.0467 24.4003 36.1075L24.4607 35.8489C24.2245 35.7938 24.0289 35.7123 23.8709 35.6069L23.7235 35.8279ZM24.2977 35.9782V36.2266H24.5633V35.9782H24.2977ZM24.4388 36.094C24.0377 36.0689 23.538 36.0565 22.9404 36.0565V36.3221C23.5349 36.3221 24.0286 36.3345 24.4222 36.3591L24.4388 36.094ZM22.9404 36.0565C22.4909 36.0565 22.0618 36.069 21.6532 36.094L21.6694 36.3591C22.0721 36.3345 22.4957 36.3221 22.9404 36.3221V36.0565ZM21.7941 36.2266V35.9782H21.5285V36.2266H21.7941ZM21.6668 36.1109C21.8691 36.1025 22.0354 36.0771 22.1509 36.0246L22.041 35.7828C21.9743 35.8131 21.8509 35.8374 21.6558 35.8455L21.6668 36.1109ZM22.1509 36.0246C22.2111 35.9972 22.2658 35.9587 22.3055 35.9046C22.3462 35.849 22.3653 35.7848 22.3653 35.7174H22.0997C22.0997 35.7328 22.0961 35.741 22.0913 35.7475C22.0854 35.7555 22.0718 35.7688 22.041 35.7828L22.1509 36.0246ZM22.3653 35.7174C22.3653 35.5933 22.3049 35.4661 22.2164 35.3422L22.0003 35.4966C22.0773 35.6045 22.0997 35.676 22.0997 35.7174H22.3653ZM22.219 35.346L20.406 32.614L20.1847 32.7609L21.9977 35.4928L22.219 35.346ZM20.4062 32.6144C20.1653 32.2489 19.9498 31.9921 19.7592 31.8683L19.6145 32.091C19.755 32.1824 19.9451 32.3975 20.1844 32.7605L20.4062 32.6144ZM19.763 31.8708C19.5697 31.7355 19.3105 31.6656 18.9988 31.6483L18.9841 31.9135C19.2684 31.9293 19.4728 31.9919 19.6107 32.0884L19.763 31.8708ZM18.8586 31.7809V34.9103H19.1242V31.7809H18.8586ZM18.8586 34.9103C18.8586 35.227 18.883 35.474 18.9407 35.6374L19.1912 35.549C19.1495 35.431 19.1242 35.2227 19.1242 34.9103H18.8586ZM18.9407 35.6374C19.0026 35.8129 19.121 35.9389 19.2925 36.0032L19.3858 35.7545C19.2923 35.7195 19.2286 35.6551 19.1912 35.549L18.9407 35.6374ZM19.2949 36.0041C19.4542 36.0603 19.6892 36.0941 19.9899 36.1108L20.0047 35.8456C19.7093 35.8292 19.5055 35.7967 19.3833 35.7536L19.2949 36.0041ZM19.8645 35.9782V36.2266H20.1301V35.9782H19.8645ZM20.0059 36.094C19.6209 36.0689 19.0919 36.0565 18.4202 36.0565V36.3221C19.0897 36.3221 19.6121 36.3345 19.9886 36.3591L20.0059 36.094ZM18.4202 36.0565C17.7076 36.0565 17.1739 36.0689 16.8212 36.0941L16.8402 36.359C17.1829 36.3346 17.7089 36.3221 18.4202 36.3221V36.0565ZM16.9635 36.2266V35.9782H16.6979V36.2266H16.9635ZM16.8381 36.1108C17.1381 36.0941 17.3705 36.0604 17.5231 36.0032L17.4298 35.7545C17.3175 35.7966 17.1194 35.8291 16.8233 35.8456L16.8381 36.1108ZM17.5206 36.0041C17.6993 35.9411 17.8243 35.8161 17.8873 35.6374L17.6368 35.549C17.6005 35.6519 17.5351 35.7173 17.4322 35.7536L17.5206 36.0041ZM17.8873 35.6374C17.945 35.474 17.9694 35.227 17.9694 34.9103H17.7038C17.7038 35.2227 17.6785 35.431 17.6368 35.549L17.8873 35.6374ZM17.9694 34.9103V28.7509H17.7038V34.9103H17.9694ZM17.9694 28.7509C17.9694 28.4342 17.945 28.1872 17.8873 28.0238L17.6368 28.1122C17.6785 28.2302 17.7038 28.4385 17.7038 28.7509H17.9694ZM17.8873 28.0238C17.8243 27.8451 17.6993 27.7201 17.5206 27.6571L17.4322 27.9076C17.5351 27.9439 17.6005 28.0093 17.6368 28.1122L17.8873 28.0238ZM17.5231 27.658C17.3705 27.6008 17.1381 27.5671 16.8381 27.5504L16.8233 27.8156C17.1194 27.8321 17.3175 27.8646 17.4298 27.9067L17.5231 27.658ZM16.9635 27.683V27.4346H16.6979V27.683H16.9635ZM16.8212 27.5671C17.1739 27.5923 17.7076 27.6047 18.4202 27.6047V27.3391C17.7089 27.3391 17.1829 27.3266 16.8402 27.3022L16.8212 27.5671ZM18.4202 27.6047C19.0837 27.6047 19.6126 27.5923 20.0058 27.5672L19.9888 27.3021C19.6038 27.3267 19.0813 27.3391 18.4202 27.3391V27.6047ZM19.8645 27.4346V27.683H20.1301V27.4346H19.8645ZM19.9899 27.5504C19.6892 27.5671 19.4542 27.6009 19.2949 27.6571L19.3833 27.9076C19.5055 27.8645 19.7093 27.832 20.0047 27.8156L19.9899 27.5504ZM19.2925 27.658C19.121 27.7223 19.0026 27.8483 18.9407 28.0238L19.1912 28.1122C19.2286 28.0061 19.2923 27.9417 19.3858 27.9067L19.2925 27.658ZM18.9407 28.0238C18.883 28.1872 18.8586 28.4342 18.8586 28.7509H19.1242C19.1242 28.4385 19.1495 28.2302 19.1912 28.1122L18.9407 28.0238ZM18.8586 28.7509V31.5326H19.1242V28.7509H18.8586ZM18.9969 31.6653C19.6364 31.639 20.1464 31.3912 20.5121 30.9184L20.302 30.7559C19.9889 31.1606 19.5552 31.3765 18.986 31.3999L18.9969 31.6653ZM20.5115 30.9193L21.7036 29.4043L21.4948 29.24L20.3027 30.755L20.5115 30.9193ZM21.7024 29.4057C21.9166 29.1412 22.0805 28.9042 22.1915 28.6953C22.3014 28.4884 22.3653 28.2981 22.3653 28.13H22.0997C22.0997 28.2352 22.0581 28.3802 21.9569 28.5707C21.8568 28.7591 21.7041 28.9816 21.496 29.2386L21.7024 29.4057ZM22.3653 28.13C22.3653 27.9364 22.2748 27.7837 22.1067 27.6861C21.9493 27.5947 21.7297 27.5545 21.4648 27.5502L21.4605 27.8158C21.7088 27.8198 21.8742 27.8582 21.9734 27.9158C22.062 27.9673 22.0997 28.0339 22.0997 28.13H22.3653ZM21.5954 27.683V27.4346H21.3298V27.683H21.5954ZM21.4556 27.5673C21.9299 27.5922 22.4082 27.6047 22.8907 27.6047V27.3391C22.4128 27.3391 21.9391 27.3267 21.4696 27.302L21.4556 27.5673ZM22.8907 27.6047C23.3475 27.6047 23.7045 27.5923 23.9594 27.5668L23.933 27.3025C23.6912 27.3267 23.3445 27.3391 22.8907 27.3391V27.6047ZM23.8134 27.4346V27.683H24.079V27.4346H23.8134ZM23.9263 27.5517C23.6363 27.5956 23.3637 27.6924 23.1091 27.8416L23.2435 28.0708C23.4691 27.9385 23.7097 27.8532 23.9661 27.8143L23.9263 27.5517ZM23.1121 27.8399C22.8517 27.9836 22.6068 28.2088 22.3757 28.5084L22.586 28.6706C22.802 28.3907 23.0207 28.1937 23.2404 28.0725L23.1121 27.8399ZM22.3762 28.5078L20.352 31.1032L20.5615 31.2665L22.5856 28.6712L22.3762 28.5078ZM20.3487 31.262L23.2296 35.2979L23.4458 35.1435L20.5649 31.1077L20.3487 31.262ZM28.4001 27.683L28.4074 27.8156L28.5329 27.8086V27.683H28.4001ZM27.7419 27.7823L27.6977 27.6571L27.6953 27.658L27.7419 27.7823ZM27.4687 28.068L27.594 28.1122V28.1122L27.4687 28.068ZM27.4687 35.5932L27.594 35.549V35.549L27.4687 35.5932ZM27.7419 35.8789L27.6953 36.0032L27.6977 36.0041L27.7419 35.8789ZM28.4001 35.9782H28.5329V35.8526L28.4074 35.8456L28.4001 35.9782ZM28.4001 36.2266L28.3914 36.3591L28.5329 36.3683V36.2266H28.4001ZM25.2335 36.2266H25.1007V36.3692L25.243 36.359L25.2335 36.2266ZM25.2335 35.9782L25.2261 35.8456L25.1007 35.8526V35.9782H25.2335ZM25.8792 35.8789L25.835 35.7536L25.8326 35.7545L25.8792 35.8789ZM26.1648 28.068L26.0396 28.1122V28.1122L26.1648 28.068ZM25.8792 27.7823L25.8326 27.9067L25.835 27.9076L25.8792 27.7823ZM25.2335 27.683H25.1007V27.8086L25.2261 27.8156L25.2335 27.683ZM25.2335 27.4346L25.243 27.3022L25.1007 27.292V27.4346H25.2335ZM28.4001 27.4346H28.5329V27.2931L28.3916 27.3021L28.4001 27.4346ZM28.3927 27.5504C28.092 27.5671 27.857 27.6009 27.6977 27.6571L27.7861 27.9076C27.9083 27.8645 28.1121 27.832 28.4074 27.8156L28.3927 27.5504ZM27.6953 27.658C27.5238 27.7223 27.4054 27.8483 27.3435 28.0238L27.594 28.1122C27.6314 28.0061 27.6951 27.9417 27.7886 27.9067L27.6953 27.658ZM27.3435 28.0238C27.2858 28.1872 27.2614 28.4342 27.2614 28.7509H27.527C27.527 28.4385 27.5523 28.2302 27.594 28.1122L27.3435 28.0238ZM27.2614 28.7509V34.9103H27.527V28.7509H27.2614ZM27.2614 34.9103C27.2614 35.227 27.2858 35.474 27.3435 35.6374L27.594 35.549C27.5523 35.431 27.527 35.2227 27.527 34.9103H27.2614ZM27.3435 35.6374C27.4054 35.8129 27.5238 35.9389 27.6953 36.0032L27.7886 35.7545C27.6951 35.7195 27.6314 35.6551 27.594 35.549L27.3435 35.6374ZM27.6977 36.0041C27.857 36.0603 28.092 36.0941 28.3927 36.1108L28.4074 35.8456C28.1121 35.8292 27.9083 35.7967 27.7861 35.7536L27.6977 36.0041ZM28.2673 35.9782V36.2266H28.5329V35.9782H28.2673ZM28.4087 36.094C28.0237 36.0689 27.4946 36.0565 26.823 36.0565V36.3221C27.4925 36.3221 28.0149 36.3345 28.3914 36.3591L28.4087 36.094ZM26.823 36.0565C26.1104 36.0565 25.5767 36.0689 25.224 36.0941L25.243 36.359C25.5857 36.3346 26.1117 36.3221 26.823 36.3221V36.0565ZM25.3663 36.2266V35.9782H25.1007V36.2266H25.3663ZM25.2409 36.1108C25.5409 36.0941 25.7733 36.0604 25.9259 36.0032L25.8326 35.7545C25.7202 35.7966 25.5222 35.8291 25.2261 35.8456L25.2409 36.1108ZM25.9234 36.0041C26.1021 35.9411 26.227 35.8161 26.2901 35.6374L26.0396 35.549C26.0033 35.6519 25.9379 35.7173 25.835 35.7536L25.9234 36.0041ZM26.2901 35.6374C26.3478 35.474 26.3722 35.227 26.3722 34.9103H26.1065C26.1065 35.2227 26.0813 35.431 26.0396 35.549L26.2901 35.6374ZM26.3722 34.9103V28.7509H26.1065V34.9103H26.3722ZM26.3722 28.7509C26.3722 28.4342 26.3478 28.1872 26.2901 28.0238L26.0396 28.1122C26.0813 28.2302 26.1065 28.4385 26.1065 28.7509H26.3722ZM26.2901 28.0238C26.227 27.8451 26.1021 27.7201 25.9234 27.6571L25.835 27.9076C25.9379 27.9439 26.0033 28.0093 26.0396 28.1122L26.2901 28.0238ZM25.9259 27.658C25.7733 27.6008 25.5409 27.5671 25.2409 27.5504L25.2261 27.8156C25.5222 27.8321 25.7202 27.8646 25.8326 27.9067L25.9259 27.658ZM25.3663 27.683V27.4346H25.1007V27.683H25.3663ZM25.224 27.5671C25.5767 27.5923 26.1104 27.6047 26.823 27.6047V27.3391C26.1117 27.3391 25.5857 27.3266 25.243 27.3022L25.224 27.5671ZM26.823 27.6047C27.4865 27.6047 28.0154 27.5923 28.4085 27.5672L28.3916 27.3021C28.0066 27.3267 27.4841 27.3391 26.823 27.3391V27.6047ZM28.2673 27.4346V27.683H28.5329V27.4346H28.2673ZM36.5371 27.4346L36.6692 27.4477L36.6841 27.2964L36.5323 27.3019L36.5371 27.4346ZM36.4874 30.0424V30.1752H36.6332L36.6196 30.03L36.4874 30.0424ZM36.2018 30.0424L36.0697 30.0561L36.082 30.1752H36.2018V30.0424ZM35.9534 28.6268L35.8268 28.6668L35.8271 28.6677L35.9534 28.6268ZM35.4319 27.9438L35.3635 28.0577L35.3664 28.0593L35.4319 27.9438ZM33.6188 27.7203V27.5874H33.486V27.7203H33.6188ZM33.7182 35.5436L33.5958 35.5951V35.5951L33.7182 35.5436ZM34.0659 35.8664L34.022 35.9918V35.9918L34.0659 35.8664ZM34.873 35.9782H35.0059V35.8512L34.8789 35.8455L34.873 35.9782ZM34.873 36.2266L34.8654 36.3592L35.0059 36.3673V36.2266H34.873ZM31.2097 36.2266H31.0769V36.3679L31.218 36.3591L31.2097 36.2266ZM31.2097 35.9782L31.2038 35.8455L31.0769 35.8512V35.9782H31.2097ZM32.0169 35.8664L32.0608 35.9918V35.9918L32.0169 35.8664ZM32.3646 35.5436L32.487 35.5951V35.5951L32.3646 35.5436ZM32.464 27.7203H32.5968V27.5874H32.464V27.7203ZM30.6509 27.9438L30.7164 28.0594L30.7193 28.0577L30.6509 27.9438ZM30.1294 28.6268L30.2557 28.6677L30.256 28.6668L30.1294 28.6268ZM29.881 30.0424V30.1752H30.0007L30.0131 30.0561L29.881 30.0424ZM29.5954 30.0424L29.4632 30.03L29.4496 30.1752H29.5954V30.0424ZM29.5457 27.4346L29.5505 27.3019L29.3986 27.2964L29.4136 27.4477L29.5457 27.4346ZM36.4049 27.4216C36.3466 28.0127 36.3173 28.547 36.3173 29.0241H36.5829C36.5829 28.5575 36.6116 28.0321 36.6692 27.4477L36.4049 27.4216ZM36.3173 29.0241C36.3173 29.4402 36.3298 29.7842 36.3551 30.0548L36.6196 30.03C36.5953 29.7708 36.5829 29.4359 36.5829 29.0241H36.3173ZM36.4874 29.9096H36.2018V30.1752H36.4874V29.9096ZM36.3339 30.0287C36.2674 29.3892 36.1836 28.9059 36.0797 28.5858L35.8271 28.6677C35.9219 28.9603 36.0036 29.4207 36.0697 30.0561L36.3339 30.0287ZM36.0801 28.5868C35.9723 28.2455 35.7794 27.9881 35.4973 27.8282L35.3664 28.0593C35.581 28.1809 35.7358 28.3788 35.8268 28.6668L36.0801 28.5868ZM35.5002 27.8299C35.2207 27.6622 34.8106 27.5874 34.2894 27.5874V27.8531C34.7947 27.8531 35.1462 27.9273 35.3635 28.0577L35.5002 27.8299ZM34.2894 27.5874H33.6188V27.8531H34.2894V27.5874ZM33.486 27.7203V34.7861H33.7516V27.7203H33.486ZM33.486 34.7861C33.486 35.1369 33.5187 35.412 33.5958 35.5951L33.8406 35.492C33.7852 35.3606 33.7516 35.1306 33.7516 34.7861H33.486ZM33.5958 35.5951C33.677 35.7881 33.8221 35.9218 34.022 35.9918L34.1097 35.7411C33.9785 35.6951 33.8918 35.6136 33.8406 35.492L33.5958 35.5951ZM34.022 35.9918C34.2071 36.0566 34.4928 36.0942 34.8671 36.1109L34.8789 35.8455C34.5082 35.829 34.2558 35.7922 34.1097 35.7411L34.022 35.9918ZM34.7402 35.9782V36.2266H35.0059V35.9782H34.7402ZM34.8807 36.094C34.4464 36.0689 33.8349 36.0565 33.0476 36.0565V36.3221C33.8332 36.3221 34.4387 36.3345 34.8654 36.3592L34.8807 36.094ZM33.0476 36.0565C32.2192 36.0565 31.6032 36.0689 31.2015 36.094L31.218 36.3591C31.611 36.3346 32.2202 36.3221 33.0476 36.3221V36.0565ZM31.3426 36.2266V35.9782H31.0769V36.2266H31.3426ZM31.2156 36.1109C31.59 36.0942 31.8756 36.0566 32.0608 35.9918L31.973 35.7411C31.827 35.7922 31.5746 35.829 31.2038 35.8455L31.2156 36.1109ZM32.0608 35.9918C32.2607 35.9218 32.4058 35.7881 32.487 35.5951L32.2422 35.492C32.191 35.6136 32.1043 35.6951 31.973 35.7411L32.0608 35.9918ZM32.487 35.5951C32.5641 35.412 32.5968 35.1369 32.5968 34.7861H32.3311C32.3311 35.1306 32.2976 35.3606 32.2422 35.492L32.487 35.5951ZM32.5968 34.7861V27.7203H32.3311V34.7861H32.5968ZM32.464 27.5874H31.7934V27.8531H32.464V27.5874ZM31.7934 27.5874C31.2721 27.5874 30.862 27.6622 30.5826 27.8299L30.7193 28.0577C30.9365 27.9273 31.2881 27.8531 31.7934 27.8531V27.5874ZM30.5855 27.8282C30.3034 27.9881 30.1105 28.2455 30.0027 28.5868L30.256 28.6668C30.3469 28.3788 30.5018 28.1809 30.7164 28.0593L30.5855 27.8282ZM30.003 28.5858C29.8992 28.9059 29.8154 29.3892 29.7489 30.0287L30.0131 30.0561C30.0791 29.4207 30.1608 28.9603 30.2557 28.6677L30.003 28.5858ZM29.881 29.9096H29.5954V30.1752H29.881V29.9096ZM29.7276 30.0548C29.753 29.7842 29.7655 29.4402 29.7655 29.0241H29.4998C29.4998 29.4359 29.4875 29.7708 29.4632 30.03L29.7276 30.0548ZM29.7655 29.0241C29.7655 28.547 29.7362 28.0127 29.6779 27.4216L29.4136 27.4477C29.4712 28.0321 29.4998 28.5575 29.4998 29.0241H29.7655ZM29.5409 27.5674C30.2307 27.5923 31.4001 27.6047 33.0476 27.6047V27.3391C31.4002 27.3391 30.235 27.3267 29.5505 27.3019L29.5409 27.5674ZM33.0476 27.6047C34.6868 27.6047 35.8521 27.5923 36.5418 27.5674L36.5323 27.3019C35.8478 27.3267 34.6867 27.3391 33.0476 27.3391V27.6047ZM43.6229 35.1835L43.7467 35.1355L43.7467 35.1354L43.6229 35.1835ZM44.4797 35.9782H44.6125V35.8512L44.4856 35.8455L44.4797 35.9782ZM44.4797 36.2266L44.4698 36.359L44.6125 36.3697V36.2266H44.4797ZM41.5615 36.2266H41.4287V36.3692L41.5709 36.359L41.5615 36.2266ZM41.5615 35.9782L41.5545 35.8456L41.4287 35.8522V35.9782H41.5615ZM42.232 35.8664L42.2853 35.9882L42.2886 35.9866L42.232 35.8664ZM42.2941 34.9351L42.1696 34.9814L42.1708 34.9844L42.2941 34.9351ZM41.5366 32.8985L41.6611 32.8522L41.6289 32.7657H41.5366V32.8985ZM38.5315 32.8985V32.7657H38.4405L38.4076 32.8506L38.5315 32.8985ZM38.0224 34.2149L37.8985 34.1669L37.8978 34.1687L38.0224 34.2149ZM38.0348 35.7919L37.9611 35.9025L37.9635 35.904L38.0348 35.7919ZM38.8544 35.9782H38.9872V35.8484L38.8574 35.8454L38.8544 35.9782ZM38.8544 36.2266L38.8474 36.3592L38.9872 36.3665V36.2266H38.8544ZM36.4949 36.2266H36.3621V36.3733L36.5082 36.3587L36.4949 36.2266ZM36.4949 35.9782L36.4639 35.8491L36.3621 35.8735V35.9782H36.4949ZM37.476 34.8978L37.3521 34.8498L37.3521 34.8499L37.476 34.8978ZM40.3942 27.3726V27.2397H40.3032L40.2704 27.3245L40.3942 27.3726ZM40.5929 27.3726L40.7167 27.3245L40.6838 27.2397H40.5929V27.3726ZM41.4373 32.6502V32.783H41.6289L41.5617 32.6036L41.4373 32.6502ZM40.0465 28.9372L40.1709 28.8906L40.0476 28.5615L39.9224 28.8899L40.0465 28.9372ZM38.6308 32.6502L38.5067 32.6029L38.4381 32.783H38.6308V32.6502ZM43.499 35.2314C43.7063 35.7669 44.0248 36.0909 44.4738 36.1109L44.4856 35.8455C44.1895 35.8324 43.9368 35.6266 43.7467 35.1355L43.499 35.2314ZM44.3469 35.9782V36.2266H44.6125V35.9782H44.3469ZM44.4896 36.0941C44.1537 36.0689 43.7071 36.0565 43.151 36.0565V36.3221C43.7042 36.3221 44.1434 36.3345 44.4698 36.359L44.4896 36.0941ZM43.151 36.0565C42.4384 36.0565 41.9047 36.0689 41.552 36.0941L41.5709 36.359C41.9137 36.3346 42.4396 36.3221 43.151 36.3221V36.0565ZM41.6943 36.2266V35.9782H41.4287V36.2266H41.6943ZM41.5685 36.1108C41.8847 36.0942 42.1291 36.0564 42.2853 35.9881L42.1788 35.7448C42.07 35.7924 41.8675 35.8291 41.5545 35.8456L41.5685 36.1108ZM42.2886 35.9866C42.379 35.9441 42.4533 35.8822 42.5039 35.7988C42.5542 35.7159 42.576 35.6205 42.576 35.5187H42.3103C42.3103 35.5826 42.2969 35.6279 42.2768 35.6609C42.2571 35.6934 42.2258 35.7226 42.1755 35.7463L42.2886 35.9866ZM42.576 35.5187C42.576 35.352 42.5184 35.1383 42.4174 34.8858L42.1708 34.9844C42.2685 35.2286 42.3103 35.404 42.3103 35.5187H42.576ZM42.4186 34.8888L41.6611 32.8522L41.4122 32.9448L42.1697 34.9814L42.4186 34.8888ZM41.5366 32.7657H38.5315V33.0314H41.5366V32.7657ZM38.4076 32.8506L37.8985 34.1669L38.1462 34.2628L38.6554 32.9465L38.4076 32.8506ZM37.8978 34.1687C37.7313 34.6183 37.6412 34.9764 37.6412 35.2331H37.9068C37.9068 35.0263 37.9823 34.7055 38.1469 34.261L37.8978 34.1687ZM37.6412 35.2331C37.6412 35.5226 37.7416 35.7561 37.9611 35.9024L38.1084 35.6814C37.9802 35.5959 37.9068 35.4569 37.9068 35.2331H37.6412ZM37.9635 35.904C38.1757 36.039 38.4776 36.1025 38.8513 36.111L38.8574 35.8454C38.5026 35.8374 38.2581 35.7766 38.1061 35.6799L37.9635 35.904ZM38.7215 35.9782V36.2266H38.9872V35.9782H38.7215ZM38.8613 36.0939C38.3871 36.069 37.9087 36.0565 37.4263 36.0565V36.3221C37.9042 36.3221 38.3779 36.3345 38.8474 36.3592L38.8613 36.0939ZM37.4263 36.0565C37.0513 36.0565 36.736 36.069 36.4817 36.0944L36.5082 36.3587C36.7506 36.3345 37.0562 36.3221 37.4263 36.3221V36.0565ZM36.6278 36.2266V35.9782H36.3621V36.2266H36.6278ZM36.5259 36.1073C37.0021 35.9931 37.3532 35.5836 37.5998 34.9457L37.3521 34.8499C37.1186 35.4539 36.8156 35.7647 36.4639 35.8491L36.5259 36.1073ZM37.5998 34.9459L40.518 27.4206L40.2704 27.3245L37.3521 34.8498L37.5998 34.9459ZM40.3942 27.5054H40.5929V27.2397H40.3942V27.5054ZM40.469 27.4206L43.499 35.2315L43.7467 35.1354L40.7167 27.3245L40.469 27.4206ZM41.5617 32.6036L40.1709 28.8906L39.9221 28.9838L41.3129 32.6968L41.5617 32.6036ZM39.9224 28.8899L38.5067 32.6029L38.7549 32.6975L40.1706 28.9845L39.9224 28.8899ZM38.6308 32.783H41.4373V32.5174H38.6308V32.783ZM47.1091 32.675V32.5422H46.9763V32.675H47.1091ZM47.5561 35.8789L47.518 36.0061V36.0061L47.5561 35.8789ZM48.3633 35.9782H48.4961V35.8512L48.3692 35.8455L48.3633 35.9782ZM48.3633 36.2266L48.3557 36.3592L48.4961 36.3673V36.2266H48.3633ZM44.9484 36.2266H44.8156V36.3692L44.9578 36.359L44.9484 36.2266ZM44.9484 35.9782L44.941 35.8456L44.8156 35.8526V35.9782H44.9484ZM45.5941 35.8789L45.5499 35.7536L45.5475 35.7545L45.5941 35.8789ZM45.8797 28.068L45.7545 28.1122H45.7545L45.8797 28.068ZM45.5941 27.7823L45.5475 27.9067L45.5499 27.9076L45.5941 27.7823ZM44.9484 27.683H44.8156V27.8086L44.941 27.8156L44.9484 27.683ZM44.9484 27.4346L44.9578 27.3022L44.8156 27.292V27.4346H44.9484ZM46.4634 27.4719V27.6047L46.4646 27.6047L46.4634 27.4719ZM47.8045 27.4595L47.8057 27.5924L47.8115 27.5921L47.8045 27.4595ZM50.5613 28.1176L50.4741 28.2178L50.475 28.2186L50.5613 28.1176ZM51.0208 31.2097L50.9015 31.1512L50.901 31.1522L51.0208 31.2097ZM49.9901 32.2528L49.9238 32.1377L49.9229 32.1382L49.9901 32.2528ZM47.4444 27.7699L47.3911 27.6482L47.3882 27.6496L47.4444 27.7699ZM47.1836 28.0804L47.3096 28.1224V28.1224L47.1836 28.0804ZM47.1091 32.4267H46.9763V32.5595H47.1091V32.4267ZM49.6175 31.7809L49.5096 31.7035L49.5093 31.7039L49.6175 31.7809ZM49.6051 28.2542L49.5027 28.3388L49.5038 28.3401L49.6051 28.2542ZM46.9763 32.675V34.9103H47.2419V32.675H46.9763ZM46.9763 34.9103C46.9763 35.2284 47.0089 35.4811 47.0883 35.6498L47.3286 35.5367C47.2756 35.4239 47.2419 35.2213 47.2419 34.9103H46.9763ZM47.0883 35.6498C47.1725 35.8287 47.3208 35.9469 47.518 36.0061L47.5943 35.7516C47.4604 35.7115 47.3769 35.6393 47.3286 35.5367L47.0883 35.6498ZM47.518 36.0061C47.7004 36.0608 47.9835 36.0943 48.3574 36.1109L48.3692 35.8455C47.998 35.829 47.743 35.7963 47.5943 35.7516L47.518 36.0061ZM48.2305 35.9782V36.2266H48.4961V35.9782H48.2305ZM48.371 36.094C47.9367 36.0689 47.3252 36.0565 46.5379 36.0565V36.3221C47.3235 36.3221 47.929 36.3345 48.3557 36.3592L48.371 36.094ZM46.5379 36.0565C45.8253 36.0565 45.2916 36.0689 44.9389 36.0941L44.9578 36.359C45.3006 36.3346 45.8265 36.3221 46.5379 36.3221V36.0565ZM45.0812 36.2266V35.9782H44.8156V36.2266H45.0812ZM44.9557 36.1108C45.2557 36.0941 45.4882 36.0604 45.6407 36.0032L45.5475 35.7545C45.4351 35.7966 45.2371 35.8291 44.941 35.8456L44.9557 36.1108ZM45.6383 36.0041C45.8169 35.9411 45.9419 35.8161 46.005 35.6374L45.7545 35.549C45.7182 35.6519 45.6528 35.7173 45.5499 35.7536L45.6383 36.0041ZM46.005 35.6374C46.0626 35.474 46.087 35.227 46.087 34.9103H45.8214C45.8214 35.2227 45.7961 35.431 45.7545 35.549L46.005 35.6374ZM46.087 34.9103V28.7509H45.8214V34.9103H46.087ZM46.087 28.7509C46.087 28.4342 46.0626 28.1872 46.005 28.0238L45.7545 28.1122C45.7961 28.2302 45.8214 28.4385 45.8214 28.7509H46.087ZM46.005 28.0238C45.9419 27.8451 45.8169 27.7201 45.6383 27.6571L45.5499 27.9076C45.6528 27.9439 45.7182 28.0093 45.7545 28.1122L46.005 28.0238ZM45.6407 27.658C45.4882 27.6008 45.2557 27.5671 44.9557 27.5504L44.941 27.8156C45.2371 27.8321 45.4351 27.8646 45.5475 27.9067L45.6407 27.658ZM45.0812 27.683V27.4346H44.8156V27.683H45.0812ZM44.9389 27.5671C45.2914 27.5923 45.8002 27.6047 46.4634 27.6047V27.3391C45.802 27.3391 45.3007 27.3267 44.9578 27.3022L44.9389 27.5671ZM46.4646 27.6047L47.8057 27.5923L47.8033 27.3267L46.4621 27.3391L46.4646 27.6047ZM47.8115 27.5921C47.966 27.584 48.1416 27.5799 48.3385 27.5799V27.3142C48.138 27.3142 47.9577 27.3184 47.7975 27.3268L47.8115 27.5921ZM48.3385 27.5799C49.2884 27.5799 49.9935 27.7992 50.4741 28.2178L50.6485 28.0175C50.1026 27.542 49.3257 27.3142 48.3385 27.3142V27.5799ZM50.475 28.2186C50.9555 28.6293 51.1984 29.1826 51.1984 29.8934H51.464C51.464 29.114 51.1937 28.4835 50.6476 28.0167L50.475 28.2186ZM51.1984 29.8934C51.1984 30.3278 51.0999 30.7466 50.9015 31.1512L51.14 31.2682C51.3556 30.8284 51.464 30.3697 51.464 29.8934H51.1984ZM50.901 31.1522C50.7163 31.537 50.3943 31.8666 49.9238 32.1377L50.0564 32.3679C50.5627 32.0761 50.9278 31.7103 51.1405 31.2672L50.901 31.1522ZM49.9229 32.1382C49.4702 32.4036 48.8545 32.5422 48.0653 32.5422V32.8078C48.8821 32.8078 49.5496 32.665 50.0572 32.3674L49.9229 32.1382ZM48.0653 32.5422H47.1091V32.8078H48.0653V32.5422ZM48.028 27.5502C47.7651 27.5502 47.5487 27.5793 47.3912 27.6482L47.4976 27.8916C47.605 27.8446 47.7777 27.8158 48.028 27.8158V27.5502ZM47.3882 27.6496C47.2261 27.7253 47.117 27.8603 47.0576 28.0384L47.3096 28.1224C47.3496 28.0024 47.4144 27.9305 47.5005 27.8903L47.3882 27.6496ZM47.0576 28.0384C47.001 28.2082 46.9763 28.449 46.9763 28.7509H47.2419C47.2419 28.4568 47.2669 28.2506 47.3096 28.1224L47.0576 28.0384ZM46.9763 28.7509V32.4267H47.2419V28.7509H46.9763ZM47.1091 32.5595H47.9411V32.2939H47.1091V32.5595ZM47.9411 32.5595C48.7715 32.5595 49.3833 32.3392 49.7257 31.8579L49.5093 31.7039C49.2391 32.0837 48.7333 32.2939 47.9411 32.2939V32.5595ZM49.7255 31.8583C50.061 31.3903 50.2222 30.7767 50.2222 30.03H49.9566C49.9566 30.7403 49.8032 31.294 49.5096 31.7035L49.7255 31.8583ZM50.2222 30.03C50.2222 29.2135 50.0588 28.584 49.7064 28.1683L49.5038 28.3401C49.7971 28.6861 49.9566 29.2405 49.9566 30.03H50.2222ZM49.7075 28.1696C49.3573 27.7457 48.7845 27.5502 48.028 27.5502V27.8158C48.7451 27.8158 49.2238 28.0011 49.5027 28.3388L49.7075 28.1696Z" fill="#FEF5EB" mask="url(#path-5-outside-1_23668_7491)"/>
</g>
</g>
<defs>
<linearGradient id="paint0_linear_23668_7491" x1="34" y1="-1.04141e-05" x2="34" y2="68" gradientUnits="userSpaceOnUse">
<stop stop-color="#C93D34"/>
<stop offset="1" stop-color="#7A2629"/>
</linearGradient>
<linearGradient id="paint1_linear_23668_7491" x1="34" y1="-1.04141e-05" x2="34" y2="68" gradientUnits="userSpaceOnUse">
<stop stop-color="#C93D34"/>
<stop offset="1" stop-color="#7A2629"/>
</linearGradient>
<clipPath id="clip0_23668_7491">
<rect width="68" height="68" fill="white"/>
</clipPath>
</defs>
</svg>
