<svg width="68" height="68" viewBox="0 0 68 68" fill="none" xmlns="http://www.w3.org/2000/svg">
<g clip-path="url(#clip0_23632_22573)">
<mask id="mask0_23632_22573" style="mask-type:alpha" maskUnits="userSpaceOnUse" x="0" y="0" width="68" height="68">
<path fill-rule="evenodd" clip-rule="evenodd" d="M47.0333 0H20.9667C13.5811 0 8.89667 0.0377779 4.45778 4.45778C0.018889 8.89667 0 13.6 0 20.9667V47.0333C0 54.4189 0.0377779 59.1033 4.45778 63.5422C8.89667 67.9811 13.6 68 20.9667 68H47.0333C54.4189 68 59.1033 67.9811 63.5422 63.5422C67.9622 59.1033 68 54.4 68 47.0333V20.9667C68 13.5811 67.9622 8.89667 63.5422 4.45778C59.1033 0.018889 54.4 0 47.0333 0Z" fill="url(#paint0_linear_23632_22573)"/>
</mask>
<g mask="url(#mask0_23632_22573)">
<rect width="68" height="68" fill="url(#paint1_linear_23632_22573)"/>
<path fill-rule="evenodd" clip-rule="evenodd" d="M15.6212 64.3732C26.4256 64.3732 45.6357 64.3732 45.6357 64.3732C52.5868 64.3732 57.0823 64.6377 61.2379 60.4443C64.8079 56.8743 64.5057 50.8677 64.7323 46.1077C60.709 52.1521 53.3234 51.9443 47.619 51.9443C47.619 51.9443 20.929 51.9443 10.9556 51.9443C0.982316 51.9632 4.81676 64.3732 15.6212 64.3732Z" fill="#FEF5EB"/>
<path d="M12.4854 53.531H23.1387V61.521L17.812 58.8577L12.4854 61.521V53.531Z" fill="#F19C33"/>
<mask id="path-5-outside-1_23632_22573" maskUnits="userSpaceOnUse" x="10.1016" y="12.2266" width="48" height="26" fill="black">
<rect fill="white" x="10.1016" y="12.2266" width="48" height="26"/>
<path d="M15.8496 12.8224C16.426 12.8224 16.916 12.9041 17.3194 13.0674C17.7229 13.2307 18.1168 13.4613 18.5011 13.7591C18.6068 13.8456 18.698 13.8888 18.7749 13.8888C18.967 13.8888 19.0919 13.6006 19.1495 13.0242H19.481C19.4425 13.6486 19.4233 14.7534 19.4233 16.3385H19.0919C18.9862 15.7141 18.8902 15.2674 18.8037 14.9984C18.7172 14.7198 18.5731 14.4556 18.3714 14.2058C18.0832 13.8311 17.7133 13.5525 17.2618 13.37C16.8199 13.1779 16.3396 13.0818 15.8208 13.0818C15.1963 13.0818 14.6488 13.2884 14.178 13.7014C13.7169 14.1145 13.3567 14.7054 13.0973 15.4739C12.8379 16.2328 12.7082 17.1263 12.7082 18.1542C12.7082 19.2013 12.8475 20.0996 13.1261 20.8489C13.4047 21.5982 13.789 22.1698 14.2789 22.5637C14.7785 22.948 15.3404 23.1401 15.9649 23.1401C16.4452 23.1401 16.9112 23.0488 17.3627 22.8663C17.8142 22.6838 18.1696 22.41 18.429 22.0449C18.6212 21.7759 18.7605 21.4877 18.8469 21.1803C18.9334 20.8729 19.015 20.4022 19.0919 19.7681H19.4233C19.4233 21.4205 19.4425 22.5733 19.481 23.2266H19.1495C19.1207 22.9191 19.0775 22.703 19.0198 22.5781C18.9718 22.4436 18.8998 22.3764 18.8037 22.3764C18.7268 22.3764 18.626 22.4148 18.5011 22.4916C18.0688 22.7991 17.6557 23.0344 17.2618 23.1977C16.8679 23.3515 16.3924 23.4283 15.8352 23.4283C14.9226 23.4283 14.1204 23.2218 13.4287 22.8087C12.7466 22.3956 12.2134 21.8 11.8292 21.0218C11.4545 20.2341 11.2672 19.2974 11.2672 18.2118C11.2672 17.1551 11.4593 16.2184 11.8436 15.4018C12.2375 14.5853 12.7802 13.9512 13.4719 13.4997C14.1732 13.0482 14.9658 12.8224 15.8496 12.8224ZM26.0795 17.8372C27.1363 17.9813 27.8904 18.2887 28.3419 18.7594C28.7934 19.2205 29.0192 19.7777 29.0192 20.431C29.0192 20.9786 28.8799 21.4637 28.6013 21.8864C28.3227 22.3091 27.924 22.6405 27.4053 22.8807C26.8865 23.1113 26.2717 23.2266 25.5608 23.2266C25.3014 23.2266 25.0804 23.2218 24.8979 23.2122C24.2831 23.1929 23.6778 23.1833 23.0822 23.1833C22.2944 23.1833 21.6988 23.1977 21.2953 23.2266V22.9384C21.6412 22.9191 21.891 22.8807 22.0447 22.8231C22.208 22.7654 22.3185 22.655 22.3761 22.4916C22.4337 22.3283 22.4626 22.0641 22.4626 21.6991V14.5516C22.4626 14.1866 22.4337 13.9224 22.3761 13.7591C22.3185 13.5958 22.208 13.4853 22.0447 13.4277C21.891 13.37 21.6412 13.3316 21.2953 13.3124V13.0242C21.6988 13.053 22.2848 13.0674 23.0534 13.0674L24.6097 13.053C24.7922 13.0434 24.9988 13.0386 25.2293 13.0386C26.2092 13.0386 26.9585 13.2451 27.4773 13.6582C28.0057 14.0713 28.2699 14.6189 28.2699 15.301C28.2699 15.8582 28.0921 16.3577 27.7367 16.7996C27.3908 17.2415 26.8385 17.5778 26.0795 17.8083V17.8372ZM24.8691 13.3124C24.5713 13.3124 24.3455 13.346 24.1918 13.4132C24.0477 13.4805 23.9468 13.6006 23.8892 13.7735C23.8315 13.9464 23.8027 14.2058 23.8027 14.5516V17.8083H24.7682C25.5559 17.8083 26.1035 17.597 26.411 17.1743C26.728 16.742 26.8865 16.1704 26.8865 15.4595C26.8865 14.739 26.728 14.201 26.411 13.8456C26.0939 13.4901 25.58 13.3124 24.8691 13.3124ZM24.8835 22.8951C26.6799 22.8951 27.5782 22.0545 27.5782 20.3734C27.5782 19.6144 27.3716 19.038 26.9585 18.6441C26.5551 18.2503 25.9066 18.0533 25.0132 18.0533H23.8027V21.6991C23.8027 22.0449 23.8315 22.2995 23.8892 22.4628C23.9468 22.6261 24.0477 22.7414 24.1918 22.8087C24.3455 22.8663 24.5761 22.8951 24.8835 22.8951ZM38.7386 13.3124C38.3927 13.3316 38.1381 13.37 37.9748 13.4277C37.8211 13.4853 37.7154 13.5958 37.6578 13.7591C37.6002 13.9224 37.5713 14.1866 37.5713 14.5516V21.6991C37.5713 22.0641 37.6002 22.3283 37.6578 22.4916C37.7154 22.655 37.8211 22.7654 37.9748 22.8231C38.1381 22.8807 38.3927 22.9191 38.7386 22.9384V23.2266C38.3351 23.1977 37.7202 23.1833 36.8941 23.1833C36.1255 23.1833 35.5155 23.1977 35.064 23.2266V22.9384C35.4098 22.9191 35.6596 22.8807 35.8133 22.8231C35.9766 22.7654 36.0871 22.655 36.1447 22.4916C36.2024 22.3283 36.2312 22.0641 36.2312 21.6991V18.3847H34.7902C34.4251 18.3847 34.1417 18.4664 33.94 18.6297C33.7382 18.793 33.5845 19.0092 33.4788 19.2782C33.3828 19.5472 33.2771 19.9314 33.1618 20.431L32.8448 21.872C32.7199 22.4484 32.5278 22.8519 32.2684 23.0825C32.0186 23.313 31.6968 23.4283 31.3029 23.4283C30.9379 23.4283 30.6448 23.3563 30.4239 23.2122C30.2029 23.0681 29.982 22.8327 29.761 22.5061L29.9772 22.3475C30.1213 22.5397 30.2462 22.679 30.3518 22.7654C30.4671 22.8519 30.6064 22.8951 30.7697 22.8951C30.9523 22.8951 31.0916 22.8135 31.1876 22.6502C31.2837 22.4772 31.3798 22.165 31.4758 21.7135L31.8073 20.2437C31.9418 19.6384 32.1627 19.1965 32.4701 18.9179C32.7776 18.6393 33.2483 18.4472 33.8823 18.3415L34.0697 18.3127C33.0994 18.1686 32.3981 17.8372 31.9658 17.3184C31.5431 16.79 31.3317 16.1992 31.3317 15.5459C31.3317 14.8062 31.6295 14.2058 32.2252 13.7447C32.8304 13.2739 33.6902 13.0386 34.8046 13.0386C35.0351 13.0386 35.2417 13.0434 35.4242 13.053L36.9805 13.0674C37.7491 13.0674 38.3351 13.053 38.7386 13.0242V13.3124ZM32.7727 15.6036C32.7727 16.401 32.9505 17.0158 33.3059 17.4481C33.6614 17.8804 34.3146 18.0965 35.2657 18.0965H36.2312V14.5516C36.2312 14.2058 36.2024 13.9464 36.1447 13.7735C36.0871 13.6006 35.9814 13.4805 35.8277 13.4132C35.6836 13.346 35.4626 13.3124 35.1648 13.3124C34.329 13.3124 33.719 13.5093 33.3347 13.9032C32.9601 14.2971 32.7727 14.8639 32.7727 15.6036ZM48.1448 13.0242C48.0776 13.7063 48.044 14.3211 48.044 14.8687C48.044 15.349 48.0584 15.7429 48.0872 16.0503H47.7558C47.6789 15.3106 47.5828 14.763 47.4676 14.4075C47.3523 14.0425 47.1505 13.7783 46.8623 13.615C46.5741 13.4421 46.1322 13.3556 45.5366 13.3556H44.7584V21.555C44.7584 21.9585 44.7969 22.2515 44.8737 22.434C44.9506 22.6165 45.0851 22.7414 45.2772 22.8087C45.4693 22.8759 45.7816 22.9191 46.2139 22.9384V23.2266C45.7143 23.1977 45.0082 23.1833 44.0956 23.1833C43.1349 23.1833 42.424 23.1977 41.9629 23.2266V22.9384C42.3952 22.9191 42.7074 22.8759 42.8995 22.8087C43.0917 22.7414 43.2262 22.6165 43.303 22.434C43.3799 22.2515 43.4183 21.9585 43.4183 21.555V13.3556H42.6402C42.0445 13.3556 41.6026 13.4421 41.3144 13.615C41.0262 13.7783 40.8245 14.0425 40.7092 14.4075C40.5939 14.763 40.4978 15.3106 40.421 16.0503H40.0896C40.1184 15.7429 40.1328 15.349 40.1328 14.8687C40.1328 14.3211 40.0992 13.7063 40.0319 13.0242C40.8293 13.053 42.1838 13.0674 44.0956 13.0674C45.9977 13.0674 47.3475 13.053 48.1448 13.0242ZM56.3248 22.0161C56.5553 22.6117 56.8868 22.9191 57.3191 22.9384V23.2266C56.9348 23.1977 56.4209 23.1833 55.7772 23.1833C54.951 23.1833 54.3362 23.1977 53.9327 23.2266V22.9384C54.2978 22.9191 54.5571 22.8759 54.7108 22.8087C54.8742 22.7318 54.9558 22.5973 54.9558 22.4052C54.9558 22.2419 54.8982 22.0161 54.7829 21.7279L53.9039 19.3646H50.4166L49.8258 20.8921C49.6337 21.4109 49.5376 21.8048 49.5376 22.0737C49.5376 22.3716 49.6385 22.5877 49.8402 22.7222C50.0516 22.8567 50.3686 22.9288 50.7913 22.9384V23.2266C50.2437 23.1977 49.6913 23.1833 49.1341 23.1833C48.7018 23.1833 48.3416 23.1977 48.0534 23.2266V22.9384C48.5337 22.8231 48.9132 22.4052 49.1918 21.6847L52.5781 12.9521H52.8087L56.3248 22.0161ZM53.7886 19.0764L52.1747 14.7678L50.5319 19.0764H53.7886ZM14.6814 31.1599C15.8054 31.1599 16.6652 31.4385 17.2608 31.9957C17.8565 32.5433 18.1543 33.2734 18.1543 34.186C18.1543 35.0506 17.8613 35.7759 17.2753 36.362C16.6988 36.9384 15.7286 37.2266 14.3644 37.2266L13.7448 37.2122C13.3413 37.1929 12.9426 37.1833 12.5487 37.1833C11.8186 37.1833 11.2518 37.1977 10.8483 37.2266V36.9384C11.1942 36.9191 11.4439 36.8807 11.5977 36.8231C11.761 36.7654 11.8714 36.655 11.9291 36.4916C11.9867 36.3283 12.0155 36.0641 12.0155 35.6991V28.5516C12.0155 28.1866 11.9867 27.9224 11.9291 27.7591C11.8714 27.5958 11.761 27.4853 11.5977 27.4277C11.4439 27.37 11.1942 27.3316 10.8483 27.3124V27.0242C11.7898 27.053 13.1828 27.0674 15.0273 27.0674C16.2377 27.0674 17.0975 27.053 17.6067 27.0242C17.5394 27.6582 17.5058 28.225 17.5058 28.7246C17.5058 29.0992 17.5202 29.397 17.549 29.618H17.2176C17.1504 28.9936 17.0639 28.5324 16.9582 28.2346C16.8526 27.9272 16.6748 27.7063 16.4251 27.5718C16.1753 27.4277 15.7958 27.3556 15.2867 27.3556H14.5229C14.1771 27.3556 13.9225 27.3844 13.7592 27.4421C13.6055 27.4901 13.4998 27.5958 13.4422 27.7591C13.3845 27.9224 13.3557 28.1866 13.3557 28.5516V31.1887L14.6814 31.1599ZM14.3212 36.9384C15.2338 36.9384 15.8583 36.6982 16.1945 36.2179C16.5403 35.7375 16.7133 35.065 16.7133 34.2004C16.7133 33.2301 16.5211 32.5289 16.1369 32.0965C15.7526 31.6546 15.1041 31.4337 14.1915 31.4337C13.8552 31.4337 13.5766 31.4385 13.3557 31.4481V35.6991C13.3557 36.0545 13.3797 36.3187 13.4277 36.4916C13.4758 36.6646 13.5622 36.7847 13.6871 36.8519C13.8216 36.9095 14.033 36.9384 14.3212 36.9384ZM23.3727 27.3124C23.0269 27.3316 22.7723 27.37 22.609 27.4277C22.4553 27.4853 22.3496 27.5958 22.292 27.7591C22.2343 27.9224 22.2055 28.1866 22.2055 28.5516V35.6991C22.2055 36.0641 22.2343 36.3283 22.292 36.4916C22.3496 36.655 22.4553 36.7654 22.609 36.8231C22.7723 36.8807 23.0269 36.9191 23.3727 36.9384V37.2266C22.9308 37.1977 22.3208 37.1833 21.5426 37.1833C20.7164 37.1833 20.1016 37.1977 19.6981 37.2266V36.9384C20.044 36.9191 20.2937 36.8807 20.4475 36.8231C20.6108 36.7654 20.7212 36.655 20.7789 36.4916C20.8365 36.3283 20.8653 36.0641 20.8653 35.6991V28.5516C20.8653 28.1866 20.8365 27.9224 20.7789 27.7591C20.7212 27.5958 20.6108 27.4853 20.4475 27.4277C20.2937 27.37 20.044 27.3316 19.6981 27.3124V27.0242C20.1016 27.053 20.7164 27.0674 21.5426 27.0674C22.3112 27.0674 22.9212 27.053 23.3727 27.0242V27.3124ZM28.68 31.1599C29.804 31.1599 30.6638 31.4385 31.2594 31.9957C31.855 32.5433 32.1528 33.2734 32.1528 34.186C32.1528 35.0506 31.8598 35.7759 31.2738 36.362C30.6974 36.9384 29.7271 37.2266 28.363 37.2266L27.7433 37.2122C27.3398 37.1929 26.9412 37.1833 26.5473 37.1833C25.8172 37.1833 25.2504 37.1977 24.8469 37.2266V36.9384C25.1927 36.9191 25.4425 36.8807 25.5962 36.8231C25.7595 36.7654 25.87 36.655 25.9276 36.4916C25.9853 36.3283 26.0141 36.0641 26.0141 35.6991V28.5516C26.0141 28.1866 25.9853 27.9224 25.9276 27.7591C25.87 27.5958 25.7595 27.4853 25.5962 27.4277C25.4425 27.37 25.1927 27.3316 24.8469 27.3124V27.0242C25.7883 27.053 27.1813 27.0674 29.0258 27.0674C30.2363 27.0674 31.0961 27.053 31.6052 27.0242C31.538 27.6582 31.5044 28.225 31.5044 28.7246C31.5044 29.0992 31.5188 29.397 31.5476 29.618H31.2162C31.1489 28.9936 31.0625 28.5324 30.9568 28.2346C30.8511 27.9272 30.6734 27.7063 30.4236 27.5718C30.1738 27.4277 29.7944 27.3556 29.2852 27.3556H28.5215C28.1756 27.3556 27.921 27.3844 27.7577 27.4421C27.604 27.4901 27.4983 27.5958 27.4407 27.7591C27.3831 27.9224 27.3542 28.1866 27.3542 28.5516V31.1887L28.68 31.1599ZM28.3197 36.9384C29.2324 36.9384 29.8568 36.6982 30.193 36.2179C30.5389 35.7375 30.7118 35.065 30.7118 34.2004C30.7118 33.2301 30.5197 32.5289 30.1354 32.0965C29.7511 31.6546 29.1027 31.4337 28.19 31.4337C27.8538 31.4337 27.5752 31.4385 27.3542 31.4481V35.6991C27.3542 36.0545 27.3783 36.3187 27.4263 36.4916C27.4743 36.6646 27.5608 36.7847 27.6857 36.8519C27.8202 36.9095 28.0315 36.9384 28.3197 36.9384ZM42.316 27.3124C41.9701 27.3316 41.7156 27.37 41.5522 27.4277C41.3985 27.4853 41.2929 27.5958 41.2352 27.7591C41.1776 27.9224 41.1488 28.1866 41.1488 28.5516V35.6991C41.1488 36.0641 41.1776 36.3283 41.2352 36.4916C41.2929 36.655 41.3985 36.7654 41.5522 36.8231C41.7156 36.8807 41.9701 36.9191 42.316 36.9384V37.2266C41.9125 37.1977 41.2977 37.1833 40.4715 37.1833C39.5684 37.1833 38.8623 37.1977 38.3532 37.2266V36.9384C38.7855 36.9191 39.0977 36.8807 39.2898 36.8231C39.482 36.7654 39.6165 36.655 39.6933 36.4916C39.7702 36.3283 39.8086 36.0641 39.8086 35.6991V28.5516C39.8086 28.1866 39.7798 27.9224 39.7222 27.7591C39.6645 27.5862 39.554 27.4709 39.3907 27.4132C39.2274 27.346 38.9776 27.3124 38.6414 27.3124H38.4541C38.1082 27.3124 37.8584 27.346 37.7047 27.4132C37.5606 27.4709 37.4598 27.5814 37.4021 27.7447C37.3541 27.8984 37.3157 28.1674 37.2868 28.5516C37.258 28.8495 37.2244 29.3154 37.186 29.9494C37.0899 31.4673 36.965 32.7306 36.8113 33.7393C36.6672 34.7384 36.3934 35.603 35.9899 36.3331C35.5864 37.0632 35.0148 37.4283 34.2751 37.4283C33.9101 37.4283 33.5978 37.3515 33.3385 37.1977C33.0887 37.0344 32.9638 36.7847 32.9638 36.4484C32.9638 36.1986 33.0406 36.0017 33.1944 35.8576C33.3577 35.7039 33.5642 35.627 33.814 35.627C34.0253 35.627 34.1983 35.6847 34.3328 35.8C34.4769 35.9152 34.5489 36.0689 34.5489 36.2611C34.5489 36.4628 34.5009 36.6309 34.4048 36.7654C34.3087 36.8903 34.1502 37.0152 33.9293 37.1401C34.0157 37.1497 34.131 37.1545 34.2751 37.1545C34.9572 37.1545 35.4808 36.7462 35.8458 35.9296C36.2109 35.1131 36.4607 34.1476 36.5951 33.0332C36.7296 31.9092 36.8497 30.4154 36.9554 28.5516C36.965 28.4748 36.9698 28.3691 36.9698 28.2346C36.9698 27.9848 36.9362 27.7975 36.8689 27.6726C36.8017 27.5477 36.6864 27.4613 36.5231 27.4132C36.3598 27.3652 36.1148 27.3316 35.7882 27.3124V27.0242C36.1917 27.053 36.6864 27.0674 37.2724 27.0674C37.4165 27.0674 37.6327 27.0578 37.9209 27.0386L38.5405 27.0242L39.506 27.0386C39.9479 27.0578 40.313 27.0674 40.6012 27.0674C41.3409 27.0674 41.9125 27.053 42.316 27.0242V27.3124ZM47.4735 27.3124C47.1277 27.3316 46.8731 27.37 46.7098 27.4277C46.5561 27.4853 46.4504 27.5958 46.3928 27.7591C46.3351 27.9224 46.3063 28.1866 46.3063 28.5516V35.6991C46.3063 36.0641 46.3351 36.3283 46.3928 36.4916C46.4504 36.655 46.5561 36.7654 46.7098 36.8231C46.8731 36.8807 47.1277 36.9191 47.4735 36.9384V37.2266C47.0316 37.1977 46.4216 37.1833 45.6434 37.1833C44.8172 37.1833 44.2024 37.1977 43.7989 37.2266V36.9384C44.1448 36.9191 44.3945 36.8807 44.5483 36.8231C44.7116 36.7654 44.822 36.655 44.8797 36.4916C44.9373 36.3283 44.9661 36.0641 44.9661 35.6991V28.5516C44.9661 28.1866 44.9373 27.9224 44.8797 27.7591C44.822 27.5958 44.7116 27.4853 44.5483 27.4277C44.3945 27.37 44.1448 27.3316 43.7989 27.3124V27.0242C44.2024 27.053 44.8172 27.0674 45.6434 27.0674C46.412 27.0674 47.022 27.053 47.4735 27.0242V27.3124ZM57.1471 27.3124C56.8012 27.3316 56.5466 27.37 56.3833 27.4277C56.2296 27.4853 56.1239 27.5958 56.0663 27.7591C56.0087 27.9224 55.9798 28.1866 55.9798 28.5516V35.6991C55.9798 36.0641 56.0087 36.3283 56.0663 36.4916C56.1239 36.655 56.2296 36.7654 56.3833 36.8231C56.5466 36.8807 56.8012 36.9191 57.1471 36.9384V37.2266C56.7436 37.1977 56.1287 37.1833 55.3026 37.1833C54.534 37.1833 53.924 37.1977 53.4725 37.2266V36.9384C53.8183 36.9191 54.0681 36.8807 54.2218 36.8231C54.3851 36.7654 54.4956 36.655 54.5532 36.4916C54.6109 36.3283 54.6397 36.0641 54.6397 35.6991V32.3847H53.1987C52.8336 32.3847 52.5502 32.4664 52.3485 32.6297C52.1467 32.793 51.993 33.0092 51.8874 33.2782C51.7913 33.5472 51.6856 33.9314 51.5703 34.431L51.2533 35.872C51.1284 36.4484 50.9363 36.8519 50.6769 37.0825C50.4271 37.313 50.1053 37.4283 49.7114 37.4283C49.3464 37.4283 49.0534 37.3563 48.8324 37.2122C48.6114 37.0681 48.3905 36.8327 48.1695 36.5061L48.3857 36.3475C48.5298 36.5397 48.6547 36.679 48.7603 36.7654C48.8756 36.8519 49.0149 36.8951 49.1782 36.8951C49.3608 36.8951 49.5001 36.8135 49.5961 36.6502C49.6922 36.4772 49.7883 36.165 49.8843 35.7135L50.2158 34.2437C50.3503 33.6384 50.5712 33.1965 50.8786 32.9179C51.1861 32.6393 51.6568 32.4472 52.2908 32.3415L52.4782 32.3127C51.5079 32.1686 50.8066 31.8372 50.3743 31.3184C49.9516 30.79 49.7402 30.1992 49.7402 29.5459C49.7402 28.8062 50.038 28.2058 50.6337 27.7447C51.2389 27.2739 52.0987 27.0386 53.2131 27.0386C53.4436 27.0386 53.6502 27.0434 53.8327 27.053L55.389 27.0674C56.1576 27.0674 56.7436 27.053 57.1471 27.0242V27.3124ZM51.1813 29.6036C51.1813 30.401 51.359 31.0158 51.7144 31.4481C52.0699 31.8804 52.7231 32.0965 53.6742 32.0965H54.6397V28.5516C54.6397 28.2058 54.6109 27.9464 54.5532 27.7735C54.4956 27.6006 54.3899 27.4805 54.2362 27.4132C54.0921 27.346 53.8711 27.3124 53.5733 27.3124C52.7376 27.3124 52.1275 27.5093 51.7433 27.9032C51.3686 28.2971 51.1813 28.8639 51.1813 29.6036Z"/>
</mask>
<path d="M15.8496 12.8224C16.426 12.8224 16.916 12.9041 17.3194 13.0674C17.7229 13.2307 18.1168 13.4613 18.5011 13.7591C18.6068 13.8456 18.698 13.8888 18.7749 13.8888C18.967 13.8888 19.0919 13.6006 19.1495 13.0242H19.481C19.4425 13.6486 19.4233 14.7534 19.4233 16.3385H19.0919C18.9862 15.7141 18.8902 15.2674 18.8037 14.9984C18.7172 14.7198 18.5731 14.4556 18.3714 14.2058C18.0832 13.8311 17.7133 13.5525 17.2618 13.37C16.8199 13.1779 16.3396 13.0818 15.8208 13.0818C15.1963 13.0818 14.6488 13.2884 14.178 13.7014C13.7169 14.1145 13.3567 14.7054 13.0973 15.4739C12.8379 16.2328 12.7082 17.1263 12.7082 18.1542C12.7082 19.2013 12.8475 20.0996 13.1261 20.8489C13.4047 21.5982 13.789 22.1698 14.2789 22.5637C14.7785 22.948 15.3404 23.1401 15.9649 23.1401C16.4452 23.1401 16.9112 23.0488 17.3627 22.8663C17.8142 22.6838 18.1696 22.41 18.429 22.0449C18.6212 21.7759 18.7605 21.4877 18.8469 21.1803C18.9334 20.8729 19.015 20.4022 19.0919 19.7681H19.4233C19.4233 21.4205 19.4425 22.5733 19.481 23.2266H19.1495C19.1207 22.9191 19.0775 22.703 19.0198 22.5781C18.9718 22.4436 18.8998 22.3764 18.8037 22.3764C18.7268 22.3764 18.626 22.4148 18.5011 22.4916C18.0688 22.7991 17.6557 23.0344 17.2618 23.1977C16.8679 23.3515 16.3924 23.4283 15.8352 23.4283C14.9226 23.4283 14.1204 23.2218 13.4287 22.8087C12.7466 22.3956 12.2134 21.8 11.8292 21.0218C11.4545 20.2341 11.2672 19.2974 11.2672 18.2118C11.2672 17.1551 11.4593 16.2184 11.8436 15.4018C12.2375 14.5853 12.7802 13.9512 13.4719 13.4997C14.1732 13.0482 14.9658 12.8224 15.8496 12.8224ZM26.0795 17.8372C27.1363 17.9813 27.8904 18.2887 28.3419 18.7594C28.7934 19.2205 29.0192 19.7777 29.0192 20.431C29.0192 20.9786 28.8799 21.4637 28.6013 21.8864C28.3227 22.3091 27.924 22.6405 27.4053 22.8807C26.8865 23.1113 26.2717 23.2266 25.5608 23.2266C25.3014 23.2266 25.0804 23.2218 24.8979 23.2122C24.2831 23.1929 23.6778 23.1833 23.0822 23.1833C22.2944 23.1833 21.6988 23.1977 21.2953 23.2266V22.9384C21.6412 22.9191 21.891 22.8807 22.0447 22.8231C22.208 22.7654 22.3185 22.655 22.3761 22.4916C22.4337 22.3283 22.4626 22.0641 22.4626 21.6991V14.5516C22.4626 14.1866 22.4337 13.9224 22.3761 13.7591C22.3185 13.5958 22.208 13.4853 22.0447 13.4277C21.891 13.37 21.6412 13.3316 21.2953 13.3124V13.0242C21.6988 13.053 22.2848 13.0674 23.0534 13.0674L24.6097 13.053C24.7922 13.0434 24.9988 13.0386 25.2293 13.0386C26.2092 13.0386 26.9585 13.2451 27.4773 13.6582C28.0057 14.0713 28.2699 14.6189 28.2699 15.301C28.2699 15.8582 28.0921 16.3577 27.7367 16.7996C27.3908 17.2415 26.8385 17.5778 26.0795 17.8083V17.8372ZM24.8691 13.3124C24.5713 13.3124 24.3455 13.346 24.1918 13.4132C24.0477 13.4805 23.9468 13.6006 23.8892 13.7735C23.8315 13.9464 23.8027 14.2058 23.8027 14.5516V17.8083H24.7682C25.5559 17.8083 26.1035 17.597 26.411 17.1743C26.728 16.742 26.8865 16.1704 26.8865 15.4595C26.8865 14.739 26.728 14.201 26.411 13.8456C26.0939 13.4901 25.58 13.3124 24.8691 13.3124ZM24.8835 22.8951C26.6799 22.8951 27.5782 22.0545 27.5782 20.3734C27.5782 19.6144 27.3716 19.038 26.9585 18.6441C26.5551 18.2503 25.9066 18.0533 25.0132 18.0533H23.8027V21.6991C23.8027 22.0449 23.8315 22.2995 23.8892 22.4628C23.9468 22.6261 24.0477 22.7414 24.1918 22.8087C24.3455 22.8663 24.5761 22.8951 24.8835 22.8951ZM38.7386 13.3124C38.3927 13.3316 38.1381 13.37 37.9748 13.4277C37.8211 13.4853 37.7154 13.5958 37.6578 13.7591C37.6002 13.9224 37.5713 14.1866 37.5713 14.5516V21.6991C37.5713 22.0641 37.6002 22.3283 37.6578 22.4916C37.7154 22.655 37.8211 22.7654 37.9748 22.8231C38.1381 22.8807 38.3927 22.9191 38.7386 22.9384V23.2266C38.3351 23.1977 37.7202 23.1833 36.8941 23.1833C36.1255 23.1833 35.5155 23.1977 35.064 23.2266V22.9384C35.4098 22.9191 35.6596 22.8807 35.8133 22.8231C35.9766 22.7654 36.0871 22.655 36.1447 22.4916C36.2024 22.3283 36.2312 22.0641 36.2312 21.6991V18.3847H34.7902C34.4251 18.3847 34.1417 18.4664 33.94 18.6297C33.7382 18.793 33.5845 19.0092 33.4788 19.2782C33.3828 19.5472 33.2771 19.9314 33.1618 20.431L32.8448 21.872C32.7199 22.4484 32.5278 22.8519 32.2684 23.0825C32.0186 23.313 31.6968 23.4283 31.3029 23.4283C30.9379 23.4283 30.6448 23.3563 30.4239 23.2122C30.2029 23.0681 29.982 22.8327 29.761 22.5061L29.9772 22.3475C30.1213 22.5397 30.2462 22.679 30.3518 22.7654C30.4671 22.8519 30.6064 22.8951 30.7697 22.8951C30.9523 22.8951 31.0916 22.8135 31.1876 22.6502C31.2837 22.4772 31.3798 22.165 31.4758 21.7135L31.8073 20.2437C31.9418 19.6384 32.1627 19.1965 32.4701 18.9179C32.7776 18.6393 33.2483 18.4472 33.8823 18.3415L34.0697 18.3127C33.0994 18.1686 32.3981 17.8372 31.9658 17.3184C31.5431 16.79 31.3317 16.1992 31.3317 15.5459C31.3317 14.8062 31.6295 14.2058 32.2252 13.7447C32.8304 13.2739 33.6902 13.0386 34.8046 13.0386C35.0351 13.0386 35.2417 13.0434 35.4242 13.053L36.9805 13.0674C37.7491 13.0674 38.3351 13.053 38.7386 13.0242V13.3124ZM32.7727 15.6036C32.7727 16.401 32.9505 17.0158 33.3059 17.4481C33.6614 17.8804 34.3146 18.0965 35.2657 18.0965H36.2312V14.5516C36.2312 14.2058 36.2024 13.9464 36.1447 13.7735C36.0871 13.6006 35.9814 13.4805 35.8277 13.4132C35.6836 13.346 35.4626 13.3124 35.1648 13.3124C34.329 13.3124 33.719 13.5093 33.3347 13.9032C32.9601 14.2971 32.7727 14.8639 32.7727 15.6036ZM48.1448 13.0242C48.0776 13.7063 48.044 14.3211 48.044 14.8687C48.044 15.349 48.0584 15.7429 48.0872 16.0503H47.7558C47.6789 15.3106 47.5828 14.763 47.4676 14.4075C47.3523 14.0425 47.1505 13.7783 46.8623 13.615C46.5741 13.4421 46.1322 13.3556 45.5366 13.3556H44.7584V21.555C44.7584 21.9585 44.7969 22.2515 44.8737 22.434C44.9506 22.6165 45.0851 22.7414 45.2772 22.8087C45.4693 22.8759 45.7816 22.9191 46.2139 22.9384V23.2266C45.7143 23.1977 45.0082 23.1833 44.0956 23.1833C43.1349 23.1833 42.424 23.1977 41.9629 23.2266V22.9384C42.3952 22.9191 42.7074 22.8759 42.8995 22.8087C43.0917 22.7414 43.2262 22.6165 43.303 22.434C43.3799 22.2515 43.4183 21.9585 43.4183 21.555V13.3556H42.6402C42.0445 13.3556 41.6026 13.4421 41.3144 13.615C41.0262 13.7783 40.8245 14.0425 40.7092 14.4075C40.5939 14.763 40.4978 15.3106 40.421 16.0503H40.0896C40.1184 15.7429 40.1328 15.349 40.1328 14.8687C40.1328 14.3211 40.0992 13.7063 40.0319 13.0242C40.8293 13.053 42.1838 13.0674 44.0956 13.0674C45.9977 13.0674 47.3475 13.053 48.1448 13.0242ZM56.3248 22.0161C56.5553 22.6117 56.8868 22.9191 57.3191 22.9384V23.2266C56.9348 23.1977 56.4209 23.1833 55.7772 23.1833C54.951 23.1833 54.3362 23.1977 53.9327 23.2266V22.9384C54.2978 22.9191 54.5571 22.8759 54.7108 22.8087C54.8742 22.7318 54.9558 22.5973 54.9558 22.4052C54.9558 22.2419 54.8982 22.0161 54.7829 21.7279L53.9039 19.3646H50.4166L49.8258 20.8921C49.6337 21.4109 49.5376 21.8048 49.5376 22.0737C49.5376 22.3716 49.6385 22.5877 49.8402 22.7222C50.0516 22.8567 50.3686 22.9288 50.7913 22.9384V23.2266C50.2437 23.1977 49.6913 23.1833 49.1341 23.1833C48.7018 23.1833 48.3416 23.1977 48.0534 23.2266V22.9384C48.5337 22.8231 48.9132 22.4052 49.1918 21.6847L52.5781 12.9521H52.8087L56.3248 22.0161ZM53.7886 19.0764L52.1747 14.7678L50.5319 19.0764H53.7886ZM14.6814 31.1599C15.8054 31.1599 16.6652 31.4385 17.2608 31.9957C17.8565 32.5433 18.1543 33.2734 18.1543 34.186C18.1543 35.0506 17.8613 35.7759 17.2753 36.362C16.6988 36.9384 15.7286 37.2266 14.3644 37.2266L13.7448 37.2122C13.3413 37.1929 12.9426 37.1833 12.5487 37.1833C11.8186 37.1833 11.2518 37.1977 10.8483 37.2266V36.9384C11.1942 36.9191 11.4439 36.8807 11.5977 36.8231C11.761 36.7654 11.8714 36.655 11.9291 36.4916C11.9867 36.3283 12.0155 36.0641 12.0155 35.6991V28.5516C12.0155 28.1866 11.9867 27.9224 11.9291 27.7591C11.8714 27.5958 11.761 27.4853 11.5977 27.4277C11.4439 27.37 11.1942 27.3316 10.8483 27.3124V27.0242C11.7898 27.053 13.1828 27.0674 15.0273 27.0674C16.2377 27.0674 17.0975 27.053 17.6067 27.0242C17.5394 27.6582 17.5058 28.225 17.5058 28.7246C17.5058 29.0992 17.5202 29.397 17.549 29.618H17.2176C17.1504 28.9936 17.0639 28.5324 16.9582 28.2346C16.8526 27.9272 16.6748 27.7063 16.4251 27.5718C16.1753 27.4277 15.7958 27.3556 15.2867 27.3556H14.5229C14.1771 27.3556 13.9225 27.3844 13.7592 27.4421C13.6055 27.4901 13.4998 27.5958 13.4422 27.7591C13.3845 27.9224 13.3557 28.1866 13.3557 28.5516V31.1887L14.6814 31.1599ZM14.3212 36.9384C15.2338 36.9384 15.8583 36.6982 16.1945 36.2179C16.5403 35.7375 16.7133 35.065 16.7133 34.2004C16.7133 33.2301 16.5211 32.5289 16.1369 32.0965C15.7526 31.6546 15.1041 31.4337 14.1915 31.4337C13.8552 31.4337 13.5766 31.4385 13.3557 31.4481V35.6991C13.3557 36.0545 13.3797 36.3187 13.4277 36.4916C13.4758 36.6646 13.5622 36.7847 13.6871 36.8519C13.8216 36.9095 14.033 36.9384 14.3212 36.9384ZM23.3727 27.3124C23.0269 27.3316 22.7723 27.37 22.609 27.4277C22.4553 27.4853 22.3496 27.5958 22.292 27.7591C22.2343 27.9224 22.2055 28.1866 22.2055 28.5516V35.6991C22.2055 36.0641 22.2343 36.3283 22.292 36.4916C22.3496 36.655 22.4553 36.7654 22.609 36.8231C22.7723 36.8807 23.0269 36.9191 23.3727 36.9384V37.2266C22.9308 37.1977 22.3208 37.1833 21.5426 37.1833C20.7164 37.1833 20.1016 37.1977 19.6981 37.2266V36.9384C20.044 36.9191 20.2937 36.8807 20.4475 36.8231C20.6108 36.7654 20.7212 36.655 20.7789 36.4916C20.8365 36.3283 20.8653 36.0641 20.8653 35.6991V28.5516C20.8653 28.1866 20.8365 27.9224 20.7789 27.7591C20.7212 27.5958 20.6108 27.4853 20.4475 27.4277C20.2937 27.37 20.044 27.3316 19.6981 27.3124V27.0242C20.1016 27.053 20.7164 27.0674 21.5426 27.0674C22.3112 27.0674 22.9212 27.053 23.3727 27.0242V27.3124ZM28.68 31.1599C29.804 31.1599 30.6638 31.4385 31.2594 31.9957C31.855 32.5433 32.1528 33.2734 32.1528 34.186C32.1528 35.0506 31.8598 35.7759 31.2738 36.362C30.6974 36.9384 29.7271 37.2266 28.363 37.2266L27.7433 37.2122C27.3398 37.1929 26.9412 37.1833 26.5473 37.1833C25.8172 37.1833 25.2504 37.1977 24.8469 37.2266V36.9384C25.1927 36.9191 25.4425 36.8807 25.5962 36.8231C25.7595 36.7654 25.87 36.655 25.9276 36.4916C25.9853 36.3283 26.0141 36.0641 26.0141 35.6991V28.5516C26.0141 28.1866 25.9853 27.9224 25.9276 27.7591C25.87 27.5958 25.7595 27.4853 25.5962 27.4277C25.4425 27.37 25.1927 27.3316 24.8469 27.3124V27.0242C25.7883 27.053 27.1813 27.0674 29.0258 27.0674C30.2363 27.0674 31.0961 27.053 31.6052 27.0242C31.538 27.6582 31.5044 28.225 31.5044 28.7246C31.5044 29.0992 31.5188 29.397 31.5476 29.618H31.2162C31.1489 28.9936 31.0625 28.5324 30.9568 28.2346C30.8511 27.9272 30.6734 27.7063 30.4236 27.5718C30.1738 27.4277 29.7944 27.3556 29.2852 27.3556H28.5215C28.1756 27.3556 27.921 27.3844 27.7577 27.4421C27.604 27.4901 27.4983 27.5958 27.4407 27.7591C27.3831 27.9224 27.3542 28.1866 27.3542 28.5516V31.1887L28.68 31.1599ZM28.3197 36.9384C29.2324 36.9384 29.8568 36.6982 30.193 36.2179C30.5389 35.7375 30.7118 35.065 30.7118 34.2004C30.7118 33.2301 30.5197 32.5289 30.1354 32.0965C29.7511 31.6546 29.1027 31.4337 28.19 31.4337C27.8538 31.4337 27.5752 31.4385 27.3542 31.4481V35.6991C27.3542 36.0545 27.3783 36.3187 27.4263 36.4916C27.4743 36.6646 27.5608 36.7847 27.6857 36.8519C27.8202 36.9095 28.0315 36.9384 28.3197 36.9384ZM42.316 27.3124C41.9701 27.3316 41.7156 27.37 41.5522 27.4277C41.3985 27.4853 41.2929 27.5958 41.2352 27.7591C41.1776 27.9224 41.1488 28.1866 41.1488 28.5516V35.6991C41.1488 36.0641 41.1776 36.3283 41.2352 36.4916C41.2929 36.655 41.3985 36.7654 41.5522 36.8231C41.7156 36.8807 41.9701 36.9191 42.316 36.9384V37.2266C41.9125 37.1977 41.2977 37.1833 40.4715 37.1833C39.5684 37.1833 38.8623 37.1977 38.3532 37.2266V36.9384C38.7855 36.9191 39.0977 36.8807 39.2898 36.8231C39.482 36.7654 39.6165 36.655 39.6933 36.4916C39.7702 36.3283 39.8086 36.0641 39.8086 35.6991V28.5516C39.8086 28.1866 39.7798 27.9224 39.7222 27.7591C39.6645 27.5862 39.554 27.4709 39.3907 27.4132C39.2274 27.346 38.9776 27.3124 38.6414 27.3124H38.4541C38.1082 27.3124 37.8584 27.346 37.7047 27.4132C37.5606 27.4709 37.4598 27.5814 37.4021 27.7447C37.3541 27.8984 37.3157 28.1674 37.2868 28.5516C37.258 28.8495 37.2244 29.3154 37.186 29.9494C37.0899 31.4673 36.965 32.7306 36.8113 33.7393C36.6672 34.7384 36.3934 35.603 35.9899 36.3331C35.5864 37.0632 35.0148 37.4283 34.2751 37.4283C33.9101 37.4283 33.5978 37.3515 33.3385 37.1977C33.0887 37.0344 32.9638 36.7847 32.9638 36.4484C32.9638 36.1986 33.0406 36.0017 33.1944 35.8576C33.3577 35.7039 33.5642 35.627 33.814 35.627C34.0253 35.627 34.1983 35.6847 34.3328 35.8C34.4769 35.9152 34.5489 36.0689 34.5489 36.2611C34.5489 36.4628 34.5009 36.6309 34.4048 36.7654C34.3087 36.8903 34.1502 37.0152 33.9293 37.1401C34.0157 37.1497 34.131 37.1545 34.2751 37.1545C34.9572 37.1545 35.4808 36.7462 35.8458 35.9296C36.2109 35.1131 36.4607 34.1476 36.5951 33.0332C36.7296 31.9092 36.8497 30.4154 36.9554 28.5516C36.965 28.4748 36.9698 28.3691 36.9698 28.2346C36.9698 27.9848 36.9362 27.7975 36.8689 27.6726C36.8017 27.5477 36.6864 27.4613 36.5231 27.4132C36.3598 27.3652 36.1148 27.3316 35.7882 27.3124V27.0242C36.1917 27.053 36.6864 27.0674 37.2724 27.0674C37.4165 27.0674 37.6327 27.0578 37.9209 27.0386L38.5405 27.0242L39.506 27.0386C39.9479 27.0578 40.313 27.0674 40.6012 27.0674C41.3409 27.0674 41.9125 27.053 42.316 27.0242V27.3124ZM47.4735 27.3124C47.1277 27.3316 46.8731 27.37 46.7098 27.4277C46.5561 27.4853 46.4504 27.5958 46.3928 27.7591C46.3351 27.9224 46.3063 28.1866 46.3063 28.5516V35.6991C46.3063 36.0641 46.3351 36.3283 46.3928 36.4916C46.4504 36.655 46.5561 36.7654 46.7098 36.8231C46.8731 36.8807 47.1277 36.9191 47.4735 36.9384V37.2266C47.0316 37.1977 46.4216 37.1833 45.6434 37.1833C44.8172 37.1833 44.2024 37.1977 43.7989 37.2266V36.9384C44.1448 36.9191 44.3945 36.8807 44.5483 36.8231C44.7116 36.7654 44.822 36.655 44.8797 36.4916C44.9373 36.3283 44.9661 36.0641 44.9661 35.6991V28.5516C44.9661 28.1866 44.9373 27.9224 44.8797 27.7591C44.822 27.5958 44.7116 27.4853 44.5483 27.4277C44.3945 27.37 44.1448 27.3316 43.7989 27.3124V27.0242C44.2024 27.053 44.8172 27.0674 45.6434 27.0674C46.412 27.0674 47.022 27.053 47.4735 27.0242V27.3124ZM57.1471 27.3124C56.8012 27.3316 56.5466 27.37 56.3833 27.4277C56.2296 27.4853 56.1239 27.5958 56.0663 27.7591C56.0087 27.9224 55.9798 28.1866 55.9798 28.5516V35.6991C55.9798 36.0641 56.0087 36.3283 56.0663 36.4916C56.1239 36.655 56.2296 36.7654 56.3833 36.8231C56.5466 36.8807 56.8012 36.9191 57.1471 36.9384V37.2266C56.7436 37.1977 56.1287 37.1833 55.3026 37.1833C54.534 37.1833 53.924 37.1977 53.4725 37.2266V36.9384C53.8183 36.9191 54.0681 36.8807 54.2218 36.8231C54.3851 36.7654 54.4956 36.655 54.5532 36.4916C54.6109 36.3283 54.6397 36.0641 54.6397 35.6991V32.3847H53.1987C52.8336 32.3847 52.5502 32.4664 52.3485 32.6297C52.1467 32.793 51.993 33.0092 51.8874 33.2782C51.7913 33.5472 51.6856 33.9314 51.5703 34.431L51.2533 35.872C51.1284 36.4484 50.9363 36.8519 50.6769 37.0825C50.4271 37.313 50.1053 37.4283 49.7114 37.4283C49.3464 37.4283 49.0534 37.3563 48.8324 37.2122C48.6114 37.0681 48.3905 36.8327 48.1695 36.5061L48.3857 36.3475C48.5298 36.5397 48.6547 36.679 48.7603 36.7654C48.8756 36.8519 49.0149 36.8951 49.1782 36.8951C49.3608 36.8951 49.5001 36.8135 49.5961 36.6502C49.6922 36.4772 49.7883 36.165 49.8843 35.7135L50.2158 34.2437C50.3503 33.6384 50.5712 33.1965 50.8786 32.9179C51.1861 32.6393 51.6568 32.4472 52.2908 32.3415L52.4782 32.3127C51.5079 32.1686 50.8066 31.8372 50.3743 31.3184C49.9516 30.79 49.7402 30.1992 49.7402 29.5459C49.7402 28.8062 50.038 28.2058 50.6337 27.7447C51.2389 27.2739 52.0987 27.0386 53.2131 27.0386C53.4436 27.0386 53.6502 27.0434 53.8327 27.053L55.389 27.0674C56.1576 27.0674 56.7436 27.053 57.1471 27.0242V27.3124ZM51.1813 29.6036C51.1813 30.401 51.359 31.0158 51.7144 31.4481C52.0699 31.8804 52.7231 32.0965 53.6742 32.0965H54.6397V28.5516C54.6397 28.2058 54.6109 27.9464 54.5532 27.7735C54.4956 27.6006 54.3899 27.4805 54.2362 27.4132C54.0921 27.346 53.8711 27.3124 53.5733 27.3124C52.7376 27.3124 52.1275 27.5093 51.7433 27.9032C51.3686 28.2971 51.1813 28.8639 51.1813 29.6036Z" fill="#FEF5EB"/>
<path d="M17.3194 13.0674L17.2434 13.2553V13.2553L17.3194 13.0674ZM18.5011 13.7591L18.6295 13.6021L18.6253 13.5988L18.5011 13.7591ZM19.1495 13.0242V12.8214H18.9661L18.9478 13.004L19.1495 13.0242ZM19.481 13.0242L19.6833 13.0366L19.6966 12.8214H19.481V13.0242ZM19.4233 16.3385V16.5412H19.6261V16.3385H19.4233ZM19.0919 16.3385L18.892 16.3723L18.9206 16.5412H19.0919V16.3385ZM18.8037 14.9984L18.6101 15.0585L18.6107 15.0604L18.8037 14.9984ZM18.3714 14.2058L18.2106 14.3294L18.2137 14.3332L18.3714 14.2058ZM17.2618 13.37L17.1809 13.556L17.1858 13.558L17.2618 13.37ZM14.178 13.7014L14.0443 13.5491L14.0428 13.5504L14.178 13.7014ZM13.0973 15.4739L13.2891 15.5395L13.2894 15.5387L13.0973 15.4739ZM13.1261 20.8489L12.9361 20.9195V20.9195L13.1261 20.8489ZM14.2789 22.5637L14.1518 22.7217L14.1553 22.7244L14.2789 22.5637ZM17.3627 22.8663L17.4387 23.0543V23.0543L17.3627 22.8663ZM18.429 22.0449L18.2641 21.9271L18.2638 21.9275L18.429 22.0449ZM18.8469 21.1803L19.0421 21.2352V21.2352L18.8469 21.1803ZM19.0919 19.7681V19.5654H18.9122L18.8906 19.7437L19.0919 19.7681ZM19.4233 19.7681H19.6261V19.5654H19.4233V19.7681ZM19.481 23.2266V23.4293H19.696L19.6834 23.2147L19.481 23.2266ZM19.1495 23.2266L18.9477 23.2455L18.9649 23.4293H19.1495V23.2266ZM19.0198 22.5781L18.8289 22.6463L18.832 22.6548L18.8358 22.6631L19.0198 22.5781ZM18.5011 22.4916L18.3946 22.3186L18.3836 22.3264L18.5011 22.4916ZM17.2618 23.1977L17.3355 23.3866L17.3395 23.385L17.2618 23.1977ZM13.4287 22.8087L13.3237 22.9821L13.3247 22.9827L13.4287 22.8087ZM11.8292 21.0218L11.6461 21.1089L11.6474 21.1116L11.8292 21.0218ZM11.8436 15.4018L11.661 15.3138L11.6601 15.3155L11.8436 15.4018ZM13.4719 13.4997L13.3622 13.3292L13.3611 13.3299L13.4719 13.4997ZM15.8496 13.0252C16.4079 13.0252 16.8705 13.1044 17.2434 13.2553L17.3955 12.8795C16.9614 12.7038 16.4441 12.6197 15.8496 12.6197V13.0252ZM17.2434 13.2553C17.6277 13.4109 18.0056 13.6316 18.3769 13.9193L18.6253 13.5988C18.228 13.291 17.8181 13.0505 17.3955 12.8795L17.2434 13.2553ZM18.3727 13.916C18.4894 14.0115 18.6267 14.0915 18.7749 14.0915V13.686C18.7694 13.686 18.7241 13.6796 18.6295 13.6022L18.3727 13.916ZM18.7749 14.0915C18.9962 14.0915 19.1266 13.9196 19.1987 13.7532C19.2737 13.58 19.3218 13.3389 19.3513 13.0443L18.9478 13.004C18.9196 13.2858 18.8765 13.477 18.8266 13.592C18.7738 13.7139 18.7457 13.686 18.7749 13.686V14.0915ZM19.1495 13.2269H19.481V12.8214H19.1495V13.2269ZM19.2786 13.0117C19.2398 13.6431 19.2206 14.7536 19.2206 16.3385H19.6261C19.6261 14.7532 19.6453 13.6541 19.6833 13.0366L19.2786 13.0117ZM19.4233 16.1358H19.0919V16.5412H19.4233V16.1358ZM19.2918 16.3047C19.186 15.6794 19.088 15.2203 18.9967 14.9363L18.6107 15.0604C18.6923 15.3144 18.7865 15.7487 18.892 16.3723L19.2918 16.3047ZM18.9973 14.9383C18.9025 14.6328 18.7453 14.3461 18.5291 14.0784L18.2137 14.3332C18.4009 14.565 18.5319 14.8067 18.6101 15.0585L18.9973 14.9383ZM18.5321 14.0822C18.2212 13.678 17.8217 13.3777 17.3378 13.1821L17.1858 13.558C17.6049 13.7274 17.9452 13.9843 18.2107 14.3294L18.5321 14.0822ZM17.3426 13.1841C16.8733 12.98 16.3652 12.8791 15.8208 12.8791V13.2845C16.3139 13.2845 16.7665 13.3757 17.181 13.5559L17.3426 13.1841ZM15.8208 12.8791C15.147 12.8791 14.5519 13.1036 14.0443 13.5491L14.3118 13.8538C14.7456 13.4731 15.2457 13.2845 15.8208 13.2845V12.8791ZM14.0428 13.5504C13.5487 13.993 13.1724 14.6174 12.9052 15.4091L13.2894 15.5387C13.5409 14.7933 13.8851 14.2361 14.3133 13.8525L14.0428 13.5504ZM12.9054 15.4083C12.6371 16.1934 12.5055 17.1099 12.5055 18.1542H12.9109C12.9109 17.1426 13.0386 16.2723 13.2891 15.5395L12.9054 15.4083ZM12.5055 18.1542C12.5055 19.2184 12.6469 20.1418 12.9361 20.9195L13.3161 20.7782C13.0481 20.0573 12.9109 19.1843 12.9109 18.1542H12.5055ZM12.9361 20.9195C13.224 21.694 13.6267 22.2995 14.1519 22.7217L14.4059 22.4057C13.9512 22.0402 13.5854 21.5025 13.3161 20.7782L12.9361 20.9195ZM14.1553 22.7244C14.6899 23.1356 15.2953 23.3428 15.9649 23.3428V22.9374C15.3856 22.9374 14.867 22.7603 14.4025 22.403L14.1553 22.7244ZM15.9649 23.3428C16.4716 23.3428 16.9633 23.2464 17.4387 23.0543L17.2867 22.6783C16.859 22.8513 16.4188 22.9374 15.9649 22.9374V23.3428ZM17.4387 23.0543C17.9228 22.8586 18.3105 22.5617 18.5943 22.1624L18.2638 21.9275C18.0288 22.2583 17.7056 22.509 17.2867 22.6783L17.4387 23.0543ZM18.594 22.1628C18.7993 21.8754 18.9491 21.566 19.0421 21.2352L18.6518 21.1254C18.5719 21.4095 18.443 21.6765 18.2641 21.9271L18.594 22.1628ZM19.0421 21.2352C19.1329 20.9122 19.216 20.4288 19.2932 19.7925L18.8906 19.7437C18.814 20.3755 18.7338 20.8336 18.6518 21.1254L19.0421 21.2352ZM19.0919 19.9709H19.4233V19.5654H19.0919V19.9709ZM19.2206 19.7681C19.2206 21.4203 19.2398 22.5786 19.2786 23.2385L19.6834 23.2147C19.6453 22.5681 19.6261 21.4207 19.6261 19.7681H19.2206ZM19.481 23.0238H19.1495V23.4293H19.481V23.0238ZM19.3514 23.2076C19.3224 22.8987 19.2773 22.6521 19.2039 22.4931L18.8358 22.6631C18.8777 22.7539 18.919 22.9396 18.9477 23.2455L19.3514 23.2076ZM19.2108 22.5099C19.1804 22.4249 19.136 22.342 19.0681 22.2786C18.9956 22.2109 18.9045 22.1736 18.8037 22.1736V22.5791C18.8038 22.5791 18.803 22.5791 18.8014 22.5788C18.7998 22.5785 18.7979 22.578 18.7959 22.5772C18.7917 22.5755 18.7902 22.5738 18.7914 22.575C18.7956 22.5789 18.8112 22.5968 18.8289 22.6463L19.2108 22.5099ZM18.8037 22.1736C18.6684 22.1736 18.5273 22.2374 18.3948 22.319L18.6073 22.6643C18.7246 22.5921 18.7852 22.5791 18.8037 22.5791V22.1736ZM18.3836 22.3264C17.9608 22.6271 17.561 22.8542 17.1842 23.0105L17.3395 23.385C17.7503 23.2147 18.1767 22.9711 18.6186 22.6569L18.3836 22.3264ZM17.1881 23.0089C16.8239 23.151 16.3748 23.2256 15.8352 23.2256V23.631C16.41 23.631 16.912 23.5519 17.3355 23.3866L17.1881 23.0089ZM15.8352 23.2256C14.9542 23.2256 14.1889 23.0265 13.5327 22.6346L13.3247 22.9827C14.0519 23.417 14.8909 23.631 15.8352 23.631V23.2256ZM13.5337 22.6353C12.8876 22.2439 12.3797 21.6787 12.011 20.932L11.6474 21.1116C12.0472 21.9212 12.6057 22.5472 13.3237 22.9821L13.5337 22.6353ZM12.0123 20.9347C11.6533 20.18 11.4699 19.2744 11.4699 18.2118H11.0644C11.0644 19.3203 11.2557 20.2881 11.6461 21.1089L12.0123 20.9347ZM11.4699 18.2118C11.4699 17.1799 11.6575 16.2735 12.027 15.4882L11.6601 15.3155C11.2612 16.1633 11.0644 17.1303 11.0644 18.2118H11.4699ZM12.0262 15.4899C12.4056 14.7033 12.925 14.0989 13.5828 13.6695L13.3611 13.3299C12.6355 13.8036 12.0693 14.4673 11.661 15.3138L12.0262 15.4899ZM13.5817 13.6702C14.2483 13.241 15.0023 13.0252 15.8496 13.0252V12.6197C14.9293 12.6197 14.0982 12.8554 13.3622 13.3292L13.5817 13.6702ZM26.0795 17.8372H25.8768V18.0141L26.0521 18.038L26.0795 17.8372ZM28.3419 18.7594L28.1956 18.8998L28.1971 18.9013L28.3419 18.7594ZM28.6013 21.8864L28.7706 21.998V21.998L28.6013 21.8864ZM27.4053 22.8807L27.4876 23.066L27.4904 23.0647L27.4053 22.8807ZM24.8979 23.2122L24.9085 23.0096L24.9042 23.0095L24.8979 23.2122ZM21.2953 23.2266H21.0926V23.4443L21.3098 23.4288L21.2953 23.2266ZM21.2953 22.9384L21.2841 22.7359L21.0926 22.7466V22.9384H21.2953ZM22.0447 22.8231L21.9772 22.6319L21.9735 22.6332L22.0447 22.8231ZM22.3761 13.7591L22.1849 13.8266V13.8266L22.3761 13.7591ZM22.0447 13.4277L21.9735 13.6175L21.9772 13.6188L22.0447 13.4277ZM21.2953 13.3124H21.0926V13.5042L21.2841 13.5148L21.2953 13.3124ZM21.2953 13.0242L21.3098 12.822L21.0926 12.8064V13.0242H21.2953ZM23.0534 13.0674V13.2701L23.0553 13.2701L23.0534 13.0674ZM24.6097 13.053L24.6116 13.2559L24.6203 13.2554L24.6097 13.053ZM27.4773 13.6582L27.351 13.8168L27.3524 13.8179L27.4773 13.6582ZM27.7367 16.7996L27.5787 16.6726L27.577 16.6747L27.7367 16.7996ZM26.0795 17.8083L26.0206 17.6144L25.8768 17.658V17.8083H26.0795ZM24.1918 13.4132L24.1105 13.2275L24.1061 13.2295L24.1918 13.4132ZM23.8892 13.7735L24.0815 13.8376V13.8376L23.8892 13.7735ZM23.8027 17.8083H23.6V18.0111H23.8027V17.8083ZM26.411 17.1743L26.2475 17.0544L26.247 17.0551L26.411 17.1743ZM26.9585 18.6441L26.8169 18.7892L26.8186 18.7909L26.9585 18.6441ZM23.8027 18.0533V17.8506H23.6V18.0533H23.8027ZM23.8892 22.4628L24.0804 22.3953V22.3953L23.8892 22.4628ZM24.1918 22.8087L24.1061 22.9924L24.1132 22.9957L24.1206 22.9985L24.1918 22.8087ZM26.0521 18.038C27.0901 18.1796 27.7903 18.4773 28.1956 18.8998L28.4882 18.6191C27.9904 18.1001 27.1824 17.7829 26.1069 17.6363L26.0521 18.038ZM28.1971 18.9013C28.611 19.324 28.8165 19.83 28.8165 20.431H29.2219C29.2219 19.7254 28.9759 19.1171 28.4868 18.6176L28.1971 18.9013ZM28.8165 20.431C28.8165 20.9423 28.687 21.388 28.432 21.7748L28.7706 21.998C29.0728 21.5395 29.2219 21.0149 29.2219 20.431H28.8165ZM28.432 21.7748C28.1768 22.1621 27.8092 22.4703 27.3201 22.6967L27.4904 23.0647C28.0389 22.8108 28.4686 22.4561 28.7706 21.998L28.432 21.7748ZM27.3229 22.6955C26.8357 22.912 26.2502 23.0238 25.5608 23.0238V23.4293C26.2931 23.4293 26.9372 23.3106 27.4876 23.066L27.3229 22.6955ZM25.5608 23.0238C25.3036 23.0238 25.0864 23.0191 24.9085 23.0097L24.8872 23.4146C25.0744 23.4245 25.2992 23.4293 25.5608 23.4293V23.0238ZM24.9042 23.0095C24.2873 22.9902 23.68 22.9806 23.0822 22.9806V23.3861C23.6756 23.3861 24.2788 23.3956 24.8916 23.4148L24.9042 23.0095ZM23.0822 22.9806C22.2932 22.9806 21.6918 22.995 21.2809 23.0243L21.3098 23.4288C21.7059 23.4005 22.2957 23.3861 23.0822 23.3861V22.9806ZM21.4981 23.2266V22.9384H21.0926V23.2266H21.4981ZM21.3066 23.1408C21.6554 23.1214 21.9315 23.0821 22.1159 23.0129L21.9735 22.6332C21.8505 22.6794 21.627 22.7169 21.2841 22.7359L21.3066 23.1408ZM22.1121 23.0143C22.3333 22.9362 22.4892 22.7803 22.5673 22.5591L22.1849 22.4242C22.1477 22.5297 22.0827 22.5947 21.9772 22.6319L22.1121 23.0143ZM22.5673 22.5591C22.6371 22.3612 22.6653 22.0674 22.6653 21.6991H22.2598C22.2598 22.0609 22.2303 22.2955 22.1849 22.4242L22.5673 22.5591ZM22.6653 21.6991V14.5516H22.2598V21.6991H22.6653ZM22.6653 14.5516C22.6653 14.1833 22.6371 13.8896 22.5673 13.6916L22.1849 13.8266C22.2303 13.9553 22.2598 14.1899 22.2598 14.5516H22.6653ZM22.5673 13.6916C22.4892 13.4705 22.3333 13.3145 22.1121 13.2365L21.9772 13.6188C22.0827 13.6561 22.1477 13.7211 22.1849 13.8266L22.5673 13.6916ZM22.1159 13.2378C21.9315 13.1687 21.6554 13.1293 21.3066 13.1099L21.2841 13.5148C21.627 13.5338 21.8505 13.5714 21.9735 13.6175L22.1159 13.2378ZM21.4981 13.3124V13.0242H21.0926V13.3124H21.4981ZM21.2809 13.2264C21.6917 13.2557 22.2835 13.2701 23.0534 13.2701V12.8647C22.2862 12.8647 21.7059 12.8502 21.3098 12.822L21.2809 13.2264ZM23.0553 13.2701L24.6116 13.2557L24.6078 12.8503L23.0515 12.8647L23.0553 13.2701ZM24.6203 13.2554C24.7985 13.2461 25.0014 13.2413 25.2293 13.2413V12.8358C24.9961 12.8358 24.7859 12.8407 24.599 12.8505L24.6203 13.2554ZM25.2293 13.2413C26.1844 13.2413 26.8817 13.4431 27.351 13.8168L27.6036 13.4996C27.0353 13.0471 26.234 12.8358 25.2293 12.8358V13.2413ZM27.3524 13.8179C27.8307 14.1918 28.0671 14.68 28.0671 15.301H28.4726C28.4726 14.5578 28.1807 13.9508 27.6022 13.4985L27.3524 13.8179ZM28.0671 15.301C28.0671 15.8111 27.9058 16.266 27.5787 16.6726L27.8947 16.9267C28.2785 16.4495 28.4726 15.9053 28.4726 15.301H28.0671ZM27.577 16.6747C27.2655 17.0728 26.7556 17.3911 26.0206 17.6144L26.1384 18.0023C26.9213 17.7645 27.5162 17.4103 27.8963 16.9246L27.577 16.6747ZM25.8768 17.8083V17.8372H26.2823V17.8083H25.8768ZM24.8691 13.1096C24.5616 13.1096 24.3026 13.1435 24.1105 13.2275L24.273 13.599C24.3884 13.5485 24.5809 13.5151 24.8691 13.5151V13.1096ZM24.1061 13.2295C23.904 13.3238 23.7693 13.4921 23.6968 13.7094L24.0815 13.8376C24.1244 13.709 24.1914 13.6371 24.2775 13.597L24.1061 13.2295ZM23.6968 13.7094C23.6286 13.914 23.6 14.1999 23.6 14.5516H24.0054C24.0054 14.2117 24.0344 13.9788 24.0815 13.8376L23.6968 13.7094ZM23.6 14.5516V17.8083H24.0054V14.5516H23.6ZM23.8027 18.0111H24.7682V17.6056H23.8027V18.0111ZM24.7682 18.0111C25.5866 18.0111 26.2129 17.7913 26.5749 17.2935L26.247 17.0551C25.9942 17.4027 25.5253 17.6056 24.7682 17.6056V18.0111ZM26.5744 17.2942C26.9241 16.8173 27.0892 16.1996 27.0892 15.4595H26.6838C26.6838 16.1412 26.5318 16.6667 26.2475 17.0544L26.5744 17.2942ZM27.0892 15.4595C27.0892 14.7139 26.9258 14.1182 26.5623 13.7106L26.2596 13.9805C26.5301 14.2838 26.6838 14.764 26.6838 15.4595H27.0892ZM26.5623 13.7106C26.1911 13.2945 25.6091 13.1096 24.8691 13.1096V13.5151C25.5509 13.5151 25.9968 13.6857 26.2596 13.9805L26.5623 13.7106ZM24.8835 23.0979C25.8097 23.0979 26.5422 22.8814 27.043 22.4127C27.5464 21.9416 27.7809 21.2488 27.7809 20.3734H27.3754C27.3754 21.1791 27.1608 21.7471 26.766 22.1167C26.3686 22.4885 25.7537 22.6924 24.8835 22.6924V23.0979ZM27.7809 20.3734C27.7809 19.578 27.5636 18.9409 27.0984 18.4974L26.8186 18.7909C27.1796 19.1351 27.3754 19.6508 27.3754 20.3734H27.7809ZM27.1002 18.4991C26.6418 18.0516 25.9297 17.8506 25.0132 17.8506V18.2561C25.8835 18.2561 26.4683 18.4489 26.8169 18.7892L27.1002 18.4991ZM25.0132 17.8506H23.8027V18.2561H25.0132V17.8506ZM23.6 18.0533V21.6991H24.0054V18.0533H23.6ZM23.6 21.6991C23.6 22.0497 23.6284 22.333 23.698 22.5303L24.0804 22.3953C24.0347 22.266 24.0054 22.0401 24.0054 21.6991H23.6ZM23.698 22.5303C23.772 22.7399 23.908 22.8999 24.1061 22.9924L24.2775 22.625C24.1874 22.5829 24.1217 22.5124 24.0804 22.3953L23.698 22.5303ZM24.1206 22.9985C24.3091 23.0692 24.5692 23.0979 24.8835 23.0979V22.6924C24.583 22.6924 24.3819 22.6634 24.263 22.6188L24.1206 22.9985ZM38.7386 13.3124L38.7498 13.5148L38.9413 13.5042V13.3124H38.7386ZM37.9748 13.4277L37.9073 13.2364L37.9036 13.2378L37.9748 13.4277ZM37.6578 13.7591L37.4666 13.6916V13.6916L37.6578 13.7591ZM37.6578 22.4916L37.4666 22.5591V22.5591L37.6578 22.4916ZM37.9748 22.8231L37.9036 23.0129L37.9073 23.0143L37.9748 22.8231ZM38.7386 22.9384H38.9413V22.7466L38.7498 22.7359L38.7386 22.9384ZM38.7386 23.2266L38.7241 23.4288L38.9413 23.4443V23.2266H38.7386ZM35.064 23.2266H34.8612V23.4427L35.0769 23.4289L35.064 23.2266ZM35.064 22.9384L35.0527 22.7359L34.8612 22.7466V22.9384H35.064ZM35.8133 22.8231L35.7458 22.6319L35.7421 22.6332L35.8133 22.8231ZM36.1447 22.4916L36.3359 22.5591V22.5591L36.1447 22.4916ZM36.2312 18.3847H36.4339V18.182H36.2312V18.3847ZM33.94 18.6297L34.0675 18.7873V18.7873L33.94 18.6297ZM33.4788 19.2782L33.2901 19.204L33.2879 19.21L33.4788 19.2782ZM33.1618 20.431L32.9643 20.3854L32.9638 20.3874L33.1618 20.431ZM32.8448 21.872L32.6468 21.8284L32.6467 21.8291L32.8448 21.872ZM32.2684 23.0825L32.1337 22.9309L32.1309 22.9335L32.2684 23.0825ZM30.4239 23.2122L30.3131 23.382V23.382L30.4239 23.2122ZM29.761 22.5061L29.6411 22.3426L29.4837 22.458L29.5931 22.6196L29.761 22.5061ZM29.9772 22.3475L30.1394 22.2259L30.019 22.0654L29.8573 22.1841L29.9772 22.3475ZM30.3518 22.7654L30.2233 22.9225L30.2302 22.9276L30.3518 22.7654ZM31.1876 22.6502L31.3624 22.753L31.3649 22.7486L31.1876 22.6502ZM31.4758 21.7135L31.278 21.6689L31.2775 21.6713L31.4758 21.7135ZM31.8073 20.2437L32.005 20.2883L32.0052 20.2876L31.8073 20.2437ZM32.4701 18.9179L32.334 18.7677V18.7677L32.4701 18.9179ZM33.8823 18.3415L33.8515 18.1411L33.849 18.1415L33.8823 18.3415ZM34.0697 18.3127L34.1005 18.5131L34.0994 18.1122L34.0697 18.3127ZM31.9658 17.3184L31.8074 17.4451L31.81 17.4482L31.9658 17.3184ZM32.2252 13.7447L32.3493 13.905L32.3496 13.9047L32.2252 13.7447ZM35.4242 13.053L35.4136 13.2556L35.4223 13.2557L35.4242 13.053ZM36.9805 13.0674L36.9786 13.2701H36.9805V13.0674ZM38.7386 13.0242H38.9413V12.8064L38.7241 12.822L38.7386 13.0242ZM33.3059 17.4481L33.4625 17.3193V17.3193L33.3059 17.4481ZM36.2312 18.0965V18.2993H36.4339V18.0965H36.2312ZM36.1447 13.7735L36.3371 13.7094V13.7094L36.1447 13.7735ZM35.8277 13.4132L35.7419 13.597L35.7464 13.599L35.8277 13.4132ZM33.3347 13.9032L33.1896 13.7616L33.1878 13.7635L33.3347 13.9032ZM38.7273 13.1099C38.3774 13.1294 38.099 13.1688 37.9073 13.2365L38.0423 13.6188C38.1773 13.5712 38.408 13.5338 38.7498 13.5148L38.7273 13.1099ZM37.9036 13.2378C37.6904 13.3178 37.5429 13.4753 37.4666 13.6916L37.849 13.8266C37.8879 13.7162 37.9518 13.6528 38.046 13.6175L37.9036 13.2378ZM37.4666 13.6916C37.3967 13.8896 37.3686 14.1833 37.3686 14.5516H37.7741C37.7741 14.1899 37.8036 13.9553 37.849 13.8266L37.4666 13.6916ZM37.3686 14.5516V21.6991H37.7741V14.5516H37.3686ZM37.3686 21.6991C37.3686 22.0674 37.3967 22.3612 37.4666 22.5591L37.849 22.4242C37.8036 22.2955 37.7741 22.0609 37.7741 21.6991H37.3686ZM37.4666 22.5591C37.5429 22.7754 37.6904 22.9329 37.9036 23.0129L38.046 22.6332C37.9518 22.5979 37.8879 22.5345 37.849 22.4242L37.4666 22.5591ZM37.9073 23.0143C38.099 23.0819 38.3774 23.1213 38.7273 23.1408L38.7498 22.7359C38.408 22.7169 38.1773 22.6795 38.0423 22.6319L37.9073 23.0143ZM38.5358 22.9384V23.2266H38.9413V22.9384H38.5358ZM38.753 23.0243C38.342 22.995 37.7212 22.9806 36.8941 22.9806V23.3861C37.7193 23.3861 38.3282 23.4005 38.7241 23.4288L38.753 23.0243ZM36.8941 22.9806C36.1237 22.9806 35.5088 22.995 35.051 23.0242L35.0769 23.4289C35.5222 23.4005 36.1273 23.3861 36.8941 23.3861V22.9806ZM35.2667 23.2266V22.9384H34.8612V23.2266H35.2667ZM35.0752 23.1408C35.424 23.1214 35.7001 23.0821 35.8845 23.0129L35.7421 22.6332C35.6191 22.6794 35.3956 22.7169 35.0527 22.7359L35.0752 23.1408ZM35.8808 23.0143C36.1019 22.9362 36.2579 22.7803 36.3359 22.5591L35.9535 22.4242C35.9163 22.5297 35.8513 22.5947 35.7458 22.6319L35.8808 23.0143ZM36.3359 22.5591C36.4058 22.3612 36.4339 22.0674 36.4339 21.6991H36.0284C36.0284 22.0609 35.999 22.2955 35.9535 22.4242L36.3359 22.5591ZM36.4339 21.6991V18.3847H36.0284V21.6991H36.4339ZM36.2312 18.182H34.7902V18.5875H36.2312V18.182ZM34.7902 18.182C34.3972 18.182 34.0624 18.2698 33.8124 18.4721L34.0675 18.7873C34.221 18.6631 34.453 18.5875 34.7902 18.5875V18.182ZM33.8124 18.4721C33.5804 18.6599 33.4072 18.9062 33.2901 19.204L33.6675 19.3523C33.7619 19.1122 33.896 18.9261 34.0675 18.7873L33.8124 18.4721ZM33.2879 19.21C33.1879 19.49 33.0802 19.8832 32.9643 20.3854L33.3594 20.4766C33.474 19.9797 33.5776 19.6043 33.6698 19.3464L33.2879 19.21ZM32.9638 20.3874L32.6468 21.8284L33.0428 21.9156L33.3598 20.4746L32.9638 20.3874ZM32.6467 21.8291C32.5251 22.3899 32.3454 22.7428 32.1337 22.9309L32.4031 23.234C32.7102 22.961 32.9147 22.5069 33.0429 21.9149L32.6467 21.8291ZM32.1309 22.9335C31.9245 23.124 31.6545 23.2256 31.3029 23.2256V23.631C31.7391 23.631 32.1128 23.502 32.4059 23.2314L32.1309 22.9335ZM31.3029 23.2256C30.9626 23.2256 30.7123 23.1582 30.5346 23.0423L30.3131 23.382C30.5774 23.5543 30.9131 23.631 31.3029 23.631V23.2256ZM30.5346 23.0423C30.3446 22.9184 30.1416 22.7068 29.9289 22.3925L29.5931 22.6196C29.8224 22.9586 30.0613 23.2177 30.3131 23.382L30.5346 23.0423ZM29.8809 22.6695L30.0971 22.511L29.8573 22.1841L29.6411 22.3426L29.8809 22.6695ZM29.815 22.4692C29.9627 22.6661 30.0991 22.8206 30.2235 22.9223L30.4802 22.6085C30.3933 22.5374 30.2799 22.4132 30.1394 22.2259L29.815 22.4692ZM30.2302 22.9276C30.3852 23.0439 30.5687 23.0979 30.7697 23.0979V22.6924C30.6442 22.6924 30.5491 22.6599 30.4735 22.6032L30.2302 22.9276ZM30.7697 23.0979C31.0274 23.0979 31.2316 22.9753 31.3624 22.7529L31.0129 22.5474C30.9515 22.6516 30.8771 22.6924 30.7697 22.6924V23.0979ZM31.3649 22.7486C31.4771 22.5466 31.578 22.2077 31.6741 21.7557L31.2775 21.6713C31.1816 22.1223 31.0903 22.4078 31.0104 22.5517L31.3649 22.7486ZM31.6736 21.7581L32.005 20.2883L31.6095 20.1991L31.2781 21.6689L31.6736 21.7581ZM32.0052 20.2876C32.1348 19.7042 32.3419 19.3078 32.6063 19.0682L32.334 18.7677C31.9836 19.0853 31.7487 19.5726 31.6094 20.1997L32.0052 20.2876ZM32.6063 19.0682C32.8731 18.8263 33.3005 18.644 33.9157 18.5415L33.849 18.1415C33.1961 18.2504 32.682 18.4524 32.334 18.7677L32.6063 19.0682ZM33.9132 18.5419L34.1005 18.5131L34.0388 18.1123L33.8515 18.1411L33.9132 18.5419ZM34.0994 18.1122C33.1565 17.9721 32.5102 17.655 32.1215 17.1886L31.81 17.4482C32.286 18.0194 33.0423 18.3651 34.0399 18.5132L34.0994 18.1122ZM32.1241 17.1917C31.729 16.6979 31.5345 16.1514 31.5345 15.5459H31.129C31.129 16.247 31.3571 16.8821 31.8075 17.445L32.1241 17.1917ZM31.5345 15.5459C31.5345 14.8703 31.8022 14.3285 32.3493 13.905L32.1011 13.5844C31.4569 14.0831 31.129 14.7422 31.129 15.5459H31.5345ZM32.3496 13.9047C32.9063 13.4717 33.7155 13.2413 34.8046 13.2413V12.8358C33.6649 12.8358 32.7545 13.0762 32.1007 13.5846L32.3496 13.9047ZM34.8046 13.2413C35.0325 13.2413 35.2354 13.2461 35.4136 13.2554L35.4349 12.8505C35.248 12.8407 35.0378 12.8358 34.8046 12.8358V13.2413ZM35.4223 13.2557L36.9786 13.2701L36.9824 12.8647L35.4261 12.8503L35.4223 13.2557ZM36.9805 13.2701C37.7504 13.2701 38.3422 13.2557 38.753 13.2264L38.7241 12.822C38.328 12.8502 37.7477 12.8647 36.9805 12.8647V13.2701ZM38.5358 13.0242V13.3124H38.9413V13.0242H38.5358ZM32.57 15.6036C32.57 16.4284 32.7536 17.0956 33.1493 17.5768L33.4625 17.3193C33.1473 16.936 32.9755 16.3735 32.9755 15.6036H32.57ZM33.1493 17.5768C33.5634 18.0804 34.295 18.2993 35.2657 18.2993V17.8938C34.3343 17.8938 33.7594 17.6804 33.4625 17.3193L33.1493 17.5768ZM35.2657 18.2993H36.2312V17.8938H35.2657V18.2993ZM36.4339 18.0965V14.5516H36.0284V18.0965H36.4339ZM36.4339 14.5516C36.4339 14.1999 36.4053 13.914 36.3371 13.7094L35.9524 13.8376C35.9995 13.9788 36.0284 14.2117 36.0284 14.5516H36.4339ZM36.3371 13.7094C36.263 13.4873 36.1201 13.3199 35.909 13.2275L35.7464 13.599C35.8427 13.6411 35.9111 13.7138 35.9524 13.8376L36.3371 13.7094ZM35.9134 13.2295C35.7282 13.1431 35.4708 13.1096 35.1648 13.1096V13.5151C35.4545 13.5151 35.639 13.5489 35.742 13.597L35.9134 13.2295ZM35.1648 13.1096C34.3024 13.1096 33.628 13.3123 33.1896 13.7616L33.4799 14.0448C33.8101 13.7063 34.3557 13.5151 35.1648 13.5151V13.1096ZM33.1878 13.7635C32.766 14.2069 32.57 14.831 32.57 15.6036H32.9755C32.9755 14.8968 33.1541 14.3872 33.4816 14.0429L33.1878 13.7635ZM48.1448 13.0242L48.3466 13.0441L48.3694 12.8132L48.1375 12.8216L48.1448 13.0242ZM48.0872 16.0503V16.253H48.3098L48.289 16.0314L48.0872 16.0503ZM47.7558 16.0503L47.5541 16.0713L47.573 16.253H47.7558V16.0503ZM47.4676 14.4075L47.2742 14.4686L47.2747 14.4701L47.4676 14.4075ZM46.8623 13.615L46.758 13.7889L46.7624 13.7914L46.8623 13.615ZM44.7584 13.3556V13.1529H44.5557V13.3556H44.7584ZM44.8737 22.434L44.6869 22.5127V22.5127L44.8737 22.434ZM45.2772 22.8087L45.2102 23V23L45.2772 22.8087ZM46.2139 22.9384H46.4166V22.7444L46.2229 22.7358L46.2139 22.9384ZM46.2139 23.2266L46.2022 23.429L46.4166 23.4413V23.2266H46.2139ZM41.9629 23.2266H41.7601V23.4424L41.9755 23.4289L41.9629 23.2266ZM41.9629 22.9384L41.9539 22.7358L41.7601 22.7444V22.9384H41.9629ZM42.8995 22.8087L42.9665 23V23L42.8995 22.8087ZM43.303 22.434L43.4899 22.5127V22.5127L43.303 22.434ZM43.4183 13.3556H43.621V13.1529H43.4183V13.3556ZM41.3144 13.615L41.4144 13.7914L41.4187 13.7888L41.3144 13.615ZM40.7092 14.4075L40.902 14.4701L40.9025 14.4686L40.7092 14.4075ZM40.421 16.0503V16.253H40.6038L40.6226 16.0713L40.421 16.0503ZM40.0896 16.0503L39.8877 16.0314L39.8669 16.253H40.0896V16.0503ZM40.0319 13.0242L40.0392 12.8216L39.8074 12.8132L39.8302 13.0441L40.0319 13.0242ZM47.9431 13.0043C47.8753 13.6914 47.8412 14.313 47.8412 14.8687H48.2467C48.2467 14.3291 48.2798 13.7211 48.3466 13.0441L47.9431 13.0043ZM47.8412 14.8687C47.8412 15.3523 47.8557 15.7531 47.8853 16.0692L48.289 16.0314C48.261 15.7327 48.2467 15.3457 48.2467 14.8687H47.8412ZM48.0872 15.8476H47.7558V16.253H48.0872V15.8476ZM47.9574 16.0294C47.8802 15.2865 47.7825 14.7215 47.6604 14.345L47.2747 14.4701C47.3832 14.8045 47.4776 15.3347 47.5541 16.0713L47.9574 16.0294ZM47.6609 14.3465C47.5327 13.9407 47.302 13.6311 46.9623 13.4386L46.7624 13.7914C46.9991 13.9255 47.1718 14.1443 47.2742 14.4686L47.6609 14.3465ZM46.9666 13.4411C46.631 13.2398 46.1444 13.1529 45.5366 13.1529V13.5583C46.12 13.5583 46.5173 13.6444 46.758 13.7888L46.9666 13.4411ZM45.5366 13.1529H44.7584V13.5583H45.5366V13.1529ZM44.5557 13.3556V21.555H44.9612V13.3556H44.5557ZM44.5557 21.555C44.5557 21.9633 44.5934 22.2907 44.6869 22.5127L45.0606 22.3553C45.0003 22.2122 44.9612 21.9537 44.9612 21.555H44.5557ZM44.6869 22.5127C44.7867 22.7497 44.9657 22.9144 45.2102 23L45.3442 22.6173C45.2044 22.5684 45.1145 22.4834 45.0606 22.3553L44.6869 22.5127ZM45.2102 23C45.4322 23.0777 45.7698 23.1216 46.2049 23.1409L46.2229 22.7358C45.7933 22.7167 45.5065 22.6741 45.3442 22.6173L45.2102 23ZM46.0111 22.9384V23.2266H46.4166V22.9384H46.0111ZM46.2255 23.0242C45.7202 22.995 45.0095 22.9806 44.0956 22.9806V23.3861C45.0069 23.3861 45.7085 23.4005 46.2022 23.429L46.2255 23.0242ZM44.0956 22.9806C43.1342 22.9806 42.418 22.995 41.9502 23.0242L41.9755 23.4289C42.43 23.4005 43.1356 23.3861 44.0956 23.3861V22.9806ZM42.1656 23.2266V22.9384H41.7601V23.2266H42.1656ZM41.9719 23.1409C42.4069 23.1216 42.7445 23.0777 42.9665 23L42.8326 22.6173C42.6703 22.6741 42.3835 22.7167 41.9539 22.7358L41.9719 23.1409ZM42.9665 23C43.211 22.9144 43.3901 22.7497 43.4899 22.5127L43.1162 22.3553C43.0622 22.4834 42.9723 22.5684 42.8326 22.6173L42.9665 23ZM43.4899 22.5127C43.5833 22.2907 43.621 21.9633 43.621 21.555H43.2156C43.2156 21.9537 43.1764 22.2122 43.1162 22.3553L43.4899 22.5127ZM43.621 21.555V13.3556H43.2156V21.555H43.621ZM43.4183 13.1529H42.6402V13.5583H43.4183V13.1529ZM42.6402 13.1529C42.0324 13.1529 41.5457 13.2398 41.2101 13.4411L41.4187 13.7888C41.6595 13.6444 42.0567 13.5583 42.6402 13.5583V13.1529ZM41.2145 13.4386C40.8748 13.6311 40.644 13.9407 40.5159 14.3465L40.9025 14.4686C41.0049 14.1443 41.1777 13.9255 41.4144 13.7914L41.2145 13.4386ZM40.5163 14.345C40.3942 14.7215 40.2965 15.2865 40.2193 16.0294L40.6226 16.0713C40.6992 15.3347 40.7936 14.8045 40.902 14.4701L40.5163 14.345ZM40.421 15.8476H40.0896V16.253H40.421V15.8476ZM40.2914 16.0692C40.321 15.7531 40.3355 15.3523 40.3355 14.8687H39.93C39.93 15.3457 39.9157 15.7327 39.8877 16.0314L40.2914 16.0692ZM40.3355 14.8687C40.3355 14.313 40.3014 13.6914 40.2337 13.0043L39.8302 13.0441C39.8969 13.7211 39.93 14.3291 39.93 14.8687H40.3355ZM40.0246 13.2268C40.826 13.2557 42.1838 13.2701 44.0956 13.2701V12.8647C42.1839 12.8647 40.8326 12.8502 40.0392 12.8216L40.0246 13.2268ZM44.0956 13.2701C45.9978 13.2701 47.3508 13.2557 48.1522 13.2268L48.1375 12.8216C47.3442 12.8502 45.9977 12.8647 44.0956 12.8647V13.2701ZM56.3248 22.0161L56.5139 21.9429L56.5138 21.9428L56.3248 22.0161ZM57.3191 22.9384H57.5218V22.7444L57.3281 22.7358L57.3191 22.9384ZM57.3191 23.2266L57.3039 23.4287L57.5218 23.4451V23.2266H57.3191ZM53.9327 23.2266H53.73V23.4443L53.9471 23.4288L53.9327 23.2266ZM53.9327 22.9384L53.922 22.7359L53.73 22.746V22.9384H53.9327ZM54.7108 22.8087L54.7921 22.9945L54.7972 22.9921L54.7108 22.8087ZM54.7829 21.7279L54.5928 21.7986L54.5947 21.8032L54.7829 21.7279ZM53.9039 19.3646L54.0939 19.294L54.0448 19.1619H53.9039V19.3646ZM50.4166 19.3646V19.1619H50.2777L50.2275 19.2915L50.4166 19.3646ZM49.8258 20.8921L49.6367 20.819L49.6357 20.8217L49.8258 20.8921ZM49.8402 22.7222L49.7277 22.8909L49.7314 22.8932L49.8402 22.7222ZM50.7913 22.9384H50.994V22.7402L50.7959 22.7357L50.7913 22.9384ZM50.7913 23.2266L50.7806 23.429L50.994 23.4403V23.2266H50.7913ZM48.0534 23.2266H47.8506V23.4506L48.0735 23.4283L48.0534 23.2266ZM48.0534 22.9384L48.006 22.7412L47.8506 22.7785V22.9384H48.0534ZM49.1918 21.6847L49.0027 21.6114L49.0027 21.6116L49.1918 21.6847ZM52.5781 12.9521V12.7494H52.4393L52.3891 12.8788L52.5781 12.9521ZM52.8087 12.9521L52.9977 12.8788L52.9475 12.7494H52.8087V12.9521ZM53.7886 19.0764V19.2792H54.081L53.9785 19.0053L53.7886 19.0764ZM52.1747 14.7678L52.3645 14.6967L52.1763 14.1943L51.9852 14.6956L52.1747 14.7678ZM50.5319 19.0764L50.3425 19.0042L50.2376 19.2792H50.5319V19.0764ZM56.1357 22.0893C56.3794 22.7188 56.7611 23.1165 57.3101 23.1409L57.3281 22.7358C57.0125 22.7218 56.7313 22.5046 56.5139 21.9429L56.1357 22.0893ZM57.1164 22.9384V23.2266H57.5218V22.9384H57.1164ZM57.3343 23.0244C56.9427 22.995 56.4231 22.9806 55.7772 22.9806V23.3861C56.4187 23.3861 56.9269 23.4005 57.3039 23.4287L57.3343 23.0244ZM55.7772 22.9806C54.9501 22.9806 54.3293 22.995 53.9183 23.0243L53.9471 23.4288C54.3431 23.4005 54.952 23.3861 55.7772 23.3861V22.9806ZM54.1354 23.2266V22.9384H53.73V23.2266H54.1354ZM53.9434 23.1408C54.3109 23.1215 54.6023 23.0775 54.7921 22.9944L54.6296 22.6229C54.512 22.6744 54.2846 22.7168 53.922 22.7359L53.9434 23.1408ZM54.7972 22.9921C54.9094 22.9393 55.0035 22.8615 55.0679 22.7554C55.1318 22.6501 55.1586 22.5302 55.1586 22.4052H54.7531C54.7531 22.4724 54.739 22.5158 54.7213 22.5449C54.704 22.5733 54.6756 22.6012 54.6245 22.6252L54.7972 22.9921ZM55.1586 22.4052C55.1586 22.2022 55.0889 21.9471 54.9711 21.6526L54.5947 21.8032C54.7074 22.0851 54.7531 22.2815 54.7531 22.4052H55.1586ZM54.9729 21.6572L54.0939 19.294L53.7139 19.4353L54.5929 21.7986L54.9729 21.6572ZM53.9039 19.1619H50.4166V19.5674H53.9039V19.1619ZM50.2275 19.2915L49.6367 20.819L50.0149 20.9653L50.6057 19.4378L50.2275 19.2915ZM49.6357 20.8217C49.4421 21.3443 49.3349 21.7667 49.3349 22.0737H49.7403C49.7403 21.8428 49.8252 21.4774 50.0159 20.9625L49.6357 20.8217ZM49.3349 22.0737C49.3349 22.4217 49.4564 22.71 49.7278 22.8909L49.9527 22.5535C49.8206 22.4655 49.7403 22.3214 49.7403 22.0737H49.3349ZM49.7314 22.8932C49.9886 23.057 50.3495 23.1311 50.7867 23.141L50.7959 22.7357C50.3877 22.7264 50.1145 22.6564 49.9491 22.5512L49.7314 22.8932ZM50.5886 22.9384V23.2266H50.994V22.9384H50.5886ZM50.8019 23.0241C50.2508 22.9951 49.6948 22.9806 49.1341 22.9806V23.3861C49.6878 23.3861 50.2367 23.4004 50.7806 23.429L50.8019 23.0241ZM49.1341 22.9806C48.698 22.9806 48.3305 22.9951 48.0332 23.0248L48.0735 23.4283C48.3526 23.4004 48.7056 23.3861 49.1341 23.3861V22.9806ZM48.2561 23.2266V22.9384H47.8506V23.2266H48.2561ZM48.1007 23.1355C48.6761 22.9974 49.0922 22.5042 49.3809 21.7578L49.0027 21.6116C48.7341 22.3062 48.3913 22.6488 48.006 22.7412L48.1007 23.1355ZM49.3808 21.758L52.7672 13.0254L52.3891 12.8788L49.0027 21.6114L49.3808 21.758ZM52.5781 13.1549H52.8087V12.7494H52.5781V13.1549ZM52.6197 13.0254L56.1358 22.0894L56.5138 21.9428L52.9977 12.8788L52.6197 13.0254ZM53.9785 19.0053L52.3645 14.6967L51.9848 14.8389L53.5987 19.1476L53.9785 19.0053ZM51.9852 14.6956L50.3425 19.0042L50.7213 19.1487L52.3641 14.84L51.9852 14.6956ZM50.5319 19.2792H53.7886V18.8737H50.5319V19.2792ZM14.6814 31.1599V30.9571L14.677 30.9572L14.6814 31.1599ZM17.2608 31.9957L17.1223 32.1437L17.1236 32.1449L17.2608 31.9957ZM17.2753 36.362L17.4186 36.5053V36.5053L17.2753 36.362ZM14.3644 37.2266L14.3597 37.4293H14.3644V37.2266ZM13.7448 37.2122L13.7351 37.4147L13.7401 37.4148L13.7448 37.2122ZM10.8483 37.2266H10.6456V37.4443L10.8628 37.4288L10.8483 37.2266ZM10.8483 36.9384L10.8371 36.7359L10.6456 36.7466V36.9384H10.8483ZM11.5977 36.8231L11.5302 36.6319L11.5265 36.6332L11.5977 36.8231ZM11.9291 27.7591L11.7379 27.8266V27.8266L11.9291 27.7591ZM11.5977 27.4277L11.5265 27.6175L11.5302 27.6188L11.5977 27.4277ZM10.8483 27.3124H10.6456V27.5042L10.8371 27.5148L10.8483 27.3124ZM10.8483 27.0242L10.8545 26.8215L10.6456 26.8151V27.0242H10.8483ZM17.6067 27.0242L17.8083 27.0456L17.8335 26.8083L17.5952 26.8218L17.6067 27.0242ZM17.549 29.618V29.8207H17.7799L17.7501 29.5918L17.549 29.618ZM17.2176 29.618L17.016 29.6397L17.0355 29.8207H17.2176V29.618ZM16.9582 28.2346L16.7665 28.3005L16.7672 28.3024L16.9582 28.2346ZM16.4251 27.5718L16.3237 27.7474L16.3289 27.7503L16.4251 27.5718ZM13.7592 27.4421L13.8197 27.6357L13.8267 27.6332L13.7592 27.4421ZM13.4422 27.7591L13.6333 27.8266V27.8266L13.4422 27.7591ZM13.3557 31.1887H13.153V31.3959L13.3601 31.3914L13.3557 31.1887ZM16.1945 36.2179L16.03 36.0994L16.0284 36.1016L16.1945 36.2179ZM16.1369 32.0965L15.9839 32.2296L15.9853 32.2312L16.1369 32.0965ZM13.3557 31.4481L13.3469 31.2455L13.153 31.254V31.4481H13.3557ZM13.4277 36.4916L13.6231 36.4374V36.4374L13.4277 36.4916ZM13.6871 36.8519L13.591 37.0304L13.599 37.0347L13.6073 37.0382L13.6871 36.8519ZM14.6814 31.3626C15.7736 31.3626 16.5765 31.6331 17.1223 32.1437L17.3993 31.8476C16.7539 31.2438 15.8372 30.9571 14.6814 30.9571V31.3626ZM17.1236 32.1449C17.6719 32.649 17.9515 33.3221 17.9515 34.186H18.357C18.357 33.2247 18.041 32.4375 17.3981 31.8464L17.1236 32.1449ZM17.9515 34.186C17.9515 34.9995 17.6781 35.6724 17.1319 36.2186L17.4186 36.5053C18.0444 35.8795 18.357 35.1018 18.357 34.186H17.9515ZM17.1319 36.2186C16.6123 36.7382 15.709 37.0238 14.3644 37.0238V37.4293C15.7482 37.4293 16.7854 37.1385 17.4186 36.5053L17.1319 36.2186ZM14.3691 37.0239L13.7495 37.0095L13.7401 37.4148L14.3597 37.4292L14.3691 37.0239ZM13.7544 37.0096C13.3478 36.9903 12.9459 36.9806 12.5487 36.9806V37.3861C12.9393 37.3861 13.3348 37.3956 13.7351 37.4147L13.7544 37.0096ZM12.5487 36.9806C11.817 36.9806 11.2445 36.995 10.8339 37.0243L10.8628 37.4288C11.2591 37.4005 11.8203 37.3861 12.5487 37.3861V36.9806ZM11.0511 37.2266V36.9384H10.6456V37.2266H11.0511ZM10.8596 37.1408C11.2084 37.1214 11.4844 37.0821 11.6688 37.0129L11.5265 36.6332C11.4034 36.6794 11.1799 36.7169 10.8371 36.7359L10.8596 37.1408ZM11.6651 37.0143C11.8863 36.9362 12.0422 36.7803 12.1203 36.5591L11.7379 36.4242C11.7007 36.5297 11.6357 36.5947 11.5302 36.6319L11.6651 37.0143ZM12.1203 36.5591C12.1901 36.3612 12.2183 36.0674 12.2183 35.6991H11.8128C11.8128 36.0609 11.7833 36.2955 11.7379 36.4242L12.1203 36.5591ZM12.2183 35.6991V28.5516H11.8128V35.6991H12.2183ZM12.2183 28.5516C12.2183 28.1833 12.1901 27.8896 12.1203 27.6916L11.7379 27.8266C11.7833 27.9552 11.8128 28.1899 11.8128 28.5516H12.2183ZM12.1203 27.6916C12.0422 27.4705 11.8863 27.3145 11.6651 27.2365L11.5302 27.6188C11.6357 27.6561 11.7007 27.7211 11.7379 27.8266L12.1203 27.6916ZM11.6688 27.2378C11.4844 27.1687 11.2084 27.1293 10.8596 27.1099L10.8371 27.5148C11.1799 27.5338 11.4034 27.5714 11.5265 27.6175L11.6688 27.2378ZM11.0511 27.3124V27.0242H10.6456V27.3124H11.0511ZM10.8421 27.2268C11.7868 27.2557 13.1823 27.2701 15.0273 27.2701V26.8647C13.1833 26.8647 11.7928 26.8503 10.8545 26.8215L10.8421 27.2268ZM15.0273 27.2701C16.2378 27.2701 17.1027 27.2558 17.6181 27.2266L17.5952 26.8218C17.0924 26.8502 16.2377 26.8647 15.0273 26.8647V27.2701ZM17.4051 27.0028C17.3373 27.6421 17.3031 28.2162 17.3031 28.7246H17.7086C17.7086 28.2338 17.7416 27.6743 17.8083 27.0456L17.4051 27.0028ZM17.3031 28.7246C17.3031 29.103 17.3176 29.4107 17.348 29.6442L17.7501 29.5918C17.7229 29.3834 17.7086 29.0955 17.7086 28.7246H17.3031ZM17.549 29.4153H17.2176V29.8207H17.549V29.4153ZM17.4192 29.5963C17.3516 28.9684 17.2632 28.4878 17.1493 28.1668L16.7672 28.3024C16.8646 28.577 16.9492 29.0188 17.016 29.6397L17.4192 29.5963ZM17.15 28.1687C17.0303 27.8206 16.8224 27.5555 16.5212 27.3933L16.3289 27.7503C16.5273 27.857 16.6748 28.0338 16.7665 28.3005L17.15 28.1687ZM16.5264 27.3962C16.2303 27.2254 15.8078 27.1529 15.2867 27.1529V27.5583C15.7838 27.5583 16.1202 27.6299 16.3237 27.7474L16.5264 27.3962ZM15.2867 27.1529H14.5229V27.5583H15.2867V27.1529ZM14.5229 27.1529C14.1723 27.1529 13.889 27.1813 13.6917 27.2509L13.8267 27.6332C13.956 27.5876 14.1819 27.5583 14.5229 27.5583V27.1529ZM13.6987 27.2486C13.4788 27.3173 13.328 27.4733 13.251 27.6916L13.6333 27.8266C13.6716 27.7182 13.7321 27.6629 13.8196 27.6356L13.6987 27.2486ZM13.251 27.6916C13.1811 27.8896 13.153 28.1833 13.153 28.5516H13.5584C13.5584 28.1899 13.5879 27.9552 13.6333 27.8266L13.251 27.6916ZM13.153 28.5516V31.1887H13.5584V28.5516H13.153ZM13.3601 31.3914L14.6858 31.3626L14.677 30.9572L13.3513 30.986L13.3601 31.3914ZM14.3212 37.1411C15.2619 37.1411 15.9689 36.8937 16.3606 36.3341L16.0284 36.1016C15.7477 36.5027 15.2057 36.7356 14.3212 36.7356V37.1411ZM16.359 36.3363C16.7388 35.8089 16.916 35.0888 16.916 34.2004H16.5105C16.5105 35.0412 16.3419 35.6662 16.03 36.0994L16.359 36.3363ZM16.916 34.2004C16.916 33.2117 16.7217 32.4494 16.2884 31.9619L15.9853 32.2312C16.3205 32.6083 16.5105 33.2486 16.5105 34.2004H16.916ZM16.2898 31.9635C15.8499 31.4576 15.1302 31.2309 14.1915 31.2309V31.6364C15.078 31.6364 15.6553 31.8517 15.9839 32.2296L16.2898 31.9635ZM14.1915 31.2309C13.8536 31.2309 13.5719 31.2358 13.3469 31.2455L13.3645 31.6506C13.5814 31.6412 13.8568 31.6364 14.1915 31.6364V31.2309ZM13.153 31.4481V35.6991H13.5584V31.4481H13.153ZM13.153 35.6991C13.153 36.0586 13.1767 36.3455 13.2324 36.5459L13.6231 36.4374C13.5827 36.292 13.5584 36.0504 13.5584 35.6991H13.153ZM13.2324 36.5459C13.2911 36.7571 13.4054 36.9304 13.591 37.0304L13.7832 36.6734C13.7191 36.6389 13.6605 36.5721 13.6231 36.4374L13.2324 36.5459ZM13.6073 37.0382C13.7812 37.1128 14.027 37.1411 14.3212 37.1411V36.7356C14.039 36.7356 13.8621 36.7063 13.767 36.6656L13.6073 37.0382ZM23.3727 27.3124L23.384 27.5148L23.5755 27.5042V27.3124H23.3727ZM22.609 27.4277L22.5415 27.2364L22.5378 27.2378L22.609 27.4277ZM22.292 27.7591L22.4831 27.8266V27.8266L22.292 27.7591ZM22.292 36.4916L22.4831 36.4242V36.4242L22.292 36.4916ZM22.609 36.8231L22.5378 37.0129L22.5415 37.0143L22.609 36.8231ZM23.3727 36.9384H23.5755V36.7466L23.384 36.7359L23.3727 36.9384ZM23.3727 37.2266L23.3595 37.4289L23.5755 37.443V37.2266H23.3727ZM19.6981 37.2266H19.4954V37.4443L19.7126 37.4288L19.6981 37.2266ZM19.6981 36.9384L19.6869 36.7359L19.4954 36.7466V36.9384H19.6981ZM20.4475 36.8231L20.38 36.6319L20.3763 36.6332L20.4475 36.8231ZM20.7789 27.7591L20.5877 27.8266V27.8266L20.7789 27.7591ZM20.4475 27.4277L20.3763 27.6175L20.38 27.6188L20.4475 27.4277ZM19.6981 27.3124H19.4954V27.5042L19.6869 27.5148L19.6981 27.3124ZM19.6981 27.0242L19.7126 26.822L19.4954 26.8064V27.0242H19.6981ZM23.3727 27.0242H23.5755V26.8081L23.3598 26.8218L23.3727 27.0242ZM23.3615 27.1099C23.0116 27.1294 22.7331 27.1688 22.5415 27.2365L22.6765 27.6188C22.8114 27.5712 23.0422 27.5338 23.384 27.5148L23.3615 27.1099ZM22.5378 27.2378C22.3245 27.3178 22.1771 27.4753 22.1008 27.6916L22.4831 27.8266C22.5221 27.7162 22.586 27.6528 22.6802 27.6175L22.5378 27.2378ZM22.1008 27.6916C22.0309 27.8896 22.0028 28.1833 22.0028 28.5516H22.4082C22.4082 28.1899 22.4377 27.9552 22.4831 27.8266L22.1008 27.6916ZM22.0028 28.5516V35.6991H22.4082V28.5516H22.0028ZM22.0028 35.6991C22.0028 36.0674 22.0309 36.3612 22.1008 36.5591L22.4831 36.4242C22.4377 36.2955 22.4082 36.0609 22.4082 35.6991H22.0028ZM22.1008 36.5591C22.1771 36.7754 22.3245 36.9329 22.5378 37.0129L22.6802 36.6332C22.586 36.5979 22.5221 36.5345 22.4831 36.4242L22.1008 36.5591ZM22.5415 37.0143C22.7331 37.0819 23.0116 37.1213 23.3615 37.1408L23.384 36.7359C23.0422 36.7169 22.8114 36.6795 22.6765 36.6319L22.5415 37.0143ZM23.17 36.9384V37.2266H23.5755V36.9384H23.17ZM23.3859 37.0243C22.9375 36.995 22.3224 36.9806 21.5426 36.9806V37.3861C22.3191 37.3861 22.9241 37.4005 23.3595 37.4289L23.3859 37.0243ZM21.5426 36.9806C20.7155 36.9806 20.0947 36.995 19.6837 37.0243L19.7126 37.4288C20.1085 37.4005 20.7174 37.3861 21.5426 37.3861V36.9806ZM19.9009 37.2266V36.9384H19.4954V37.2266H19.9009ZM19.7094 37.1408C20.0582 37.1214 20.3342 37.0821 20.5186 37.0129L20.3763 36.6332C20.2532 36.6794 20.0297 36.7169 19.6869 36.7359L19.7094 37.1408ZM20.5149 37.0143C20.7361 36.9362 20.892 36.7803 20.9701 36.5591L20.5877 36.4242C20.5505 36.5297 20.4855 36.5947 20.38 36.6319L20.5149 37.0143ZM20.9701 36.5591C21.0399 36.3612 21.0681 36.0674 21.0681 35.6991H20.6626C20.6626 36.0609 20.6331 36.2955 20.5877 36.4242L20.9701 36.5591ZM21.0681 35.6991V28.5516H20.6626V35.6991H21.0681ZM21.0681 28.5516C21.0681 28.1833 21.0399 27.8896 20.9701 27.6916L20.5877 27.8266C20.6331 27.9552 20.6626 28.1899 20.6626 28.5516H21.0681ZM20.9701 27.6916C20.892 27.4705 20.7361 27.3145 20.5149 27.2365L20.38 27.6188C20.4855 27.6561 20.5505 27.7211 20.5877 27.8266L20.9701 27.6916ZM20.5186 27.2378C20.3342 27.1687 20.0582 27.1293 19.7094 27.1099L19.6869 27.5148C20.0297 27.5338 20.2532 27.5714 20.3763 27.6175L20.5186 27.2378ZM19.9009 27.3124V27.0242H19.4954V27.3124H19.9009ZM19.6837 27.2264C20.0947 27.2558 20.7155 27.2701 21.5426 27.2701V26.8647C20.7174 26.8647 20.1085 26.8502 19.7126 26.822L19.6837 27.2264ZM21.5426 27.2701C22.313 27.2701 22.9279 27.2557 23.3856 27.2265L23.3598 26.8218C22.9145 26.8503 22.3094 26.8647 21.5426 26.8647V27.2701ZM23.17 27.0242V27.3124H23.5755V27.0242H23.17ZM28.68 31.1599V30.9571L28.6756 30.9572L28.68 31.1599ZM31.2594 31.9957L31.1209 32.1437L31.1222 32.1449L31.2594 31.9957ZM31.2738 36.362L31.4172 36.5053V36.5053L31.2738 36.362ZM28.363 37.2266L28.3582 37.4293H28.363V37.2266ZM27.7433 37.2122L27.7337 37.4147L27.7386 37.4148L27.7433 37.2122ZM24.8469 37.2266H24.6441V37.4443L24.8613 37.4288L24.8469 37.2266ZM24.8469 36.9384L24.8356 36.7359L24.6441 36.7466V36.9384H24.8469ZM25.5962 36.8231L25.5287 36.6319L25.525 36.6332L25.5962 36.8231ZM25.9276 27.7591L25.7365 27.8266V27.8266L25.9276 27.7591ZM25.5962 27.4277L25.525 27.6175L25.5287 27.6188L25.5962 27.4277ZM24.8469 27.3124H24.6441V27.5042L24.8356 27.5148L24.8469 27.3124ZM24.8469 27.0242L24.8531 26.8215L24.6441 26.8151V27.0242H24.8469ZM31.6052 27.0242L31.8069 27.0456L31.832 26.8083L31.5938 26.8218L31.6052 27.0242ZM31.5476 29.618V29.8207H31.7785L31.7486 29.5918L31.5476 29.618ZM31.2162 29.618L31.0146 29.6397L31.0341 29.8207H31.2162V29.618ZM30.9568 28.2346L30.7651 28.3005L30.7657 28.3024L30.9568 28.2346ZM30.4236 27.5718L30.3223 27.7474L30.3275 27.7503L30.4236 27.5718ZM27.7577 27.4421L27.8182 27.6357L27.8252 27.6332L27.7577 27.4421ZM27.4407 27.7591L27.6319 27.8266V27.8266L27.4407 27.7591ZM27.3542 31.1887H27.1515V31.3959L27.3587 31.3914L27.3542 31.1887ZM30.193 36.2179L30.0285 36.0994L30.027 36.1016L30.193 36.2179ZM30.1354 32.0965L29.9824 32.2296L29.9839 32.2312L30.1354 32.0965ZM27.3542 31.4481L27.3454 31.2455L27.1515 31.254V31.4481H27.3542ZM27.4263 36.4916L27.6216 36.4374V36.4374L27.4263 36.4916ZM27.6857 36.8519L27.5896 37.0304L27.5975 37.0347L27.6058 37.0382L27.6857 36.8519ZM28.68 31.3626C29.7722 31.3626 30.5751 31.6331 31.1209 32.1437L31.3979 31.8476C30.7525 31.2438 29.8358 30.9571 28.68 30.9571V31.3626ZM31.1222 32.1449C31.6705 32.649 31.9501 33.3221 31.9501 34.186H32.3556C32.3556 33.2247 32.0396 32.4375 31.3966 31.8464L31.1222 32.1449ZM31.9501 34.186C31.9501 34.9995 31.6767 35.6724 31.1305 36.2186L31.4172 36.5053C32.043 35.8795 32.3556 35.1018 32.3556 34.186H31.9501ZM31.1305 36.2186C30.6108 36.7382 29.7075 37.0238 28.363 37.0238V37.4293C29.7467 37.4293 30.784 37.1385 31.4172 36.5053L31.1305 36.2186ZM28.3677 37.0239L27.748 37.0095L27.7386 37.4148L28.3582 37.4292L28.3677 37.0239ZM27.753 37.0096C27.3463 36.9903 26.9445 36.9806 26.5473 36.9806V37.3861C26.9379 37.3861 27.3333 37.3956 27.7337 37.4147L27.753 37.0096ZM26.5473 36.9806C25.8155 36.9806 25.2431 36.995 24.8324 37.0243L24.8613 37.4288C25.2576 37.4005 25.8188 37.3861 26.5473 37.3861V36.9806ZM25.0496 37.2266V36.9384H24.6441V37.2266H25.0496ZM24.8581 37.1408C25.207 37.1214 25.483 37.0821 25.6674 37.0129L25.525 36.6332C25.402 36.6794 25.1785 36.7169 24.8356 36.7359L24.8581 37.1408ZM25.6637 37.0143C25.8848 36.9362 26.0408 36.7803 26.1188 36.5591L25.7365 36.4242C25.6992 36.5297 25.6342 36.5947 25.5287 36.6319L25.6637 37.0143ZM26.1188 36.5591C26.1887 36.3612 26.2168 36.0674 26.2168 35.6991H25.8114C25.8114 36.0609 25.7819 36.2955 25.7365 36.4242L26.1188 36.5591ZM26.2168 35.6991V28.5516H25.8114V35.6991H26.2168ZM26.2168 28.5516C26.2168 28.1833 26.1887 27.8896 26.1188 27.6916L25.7365 27.8266C25.7819 27.9552 25.8114 28.1899 25.8114 28.5516H26.2168ZM26.1188 27.6916C26.0408 27.4705 25.8848 27.3145 25.6637 27.2365L25.5287 27.6188C25.6342 27.6561 25.6992 27.7211 25.7365 27.8266L26.1188 27.6916ZM25.6674 27.2378C25.483 27.1687 25.207 27.1293 24.8581 27.1099L24.8356 27.5148C25.1785 27.5338 25.402 27.5714 25.525 27.6175L25.6674 27.2378ZM25.0496 27.3124V27.0242H24.6441V27.3124H25.0496ZM24.8407 27.2268C25.7853 27.2557 27.1808 27.2701 29.0258 27.2701V26.8647C27.1818 26.8647 25.7914 26.8503 24.8531 26.8215L24.8407 27.2268ZM29.0258 27.2701C30.2364 27.2701 31.1013 27.2558 31.6167 27.2266L31.5938 26.8218C31.0909 26.8502 30.2362 26.8647 29.0258 26.8647V27.2701ZM31.4036 27.0028C31.3358 27.6421 31.3016 28.2162 31.3016 28.7246H31.7071C31.7071 28.2338 31.7402 27.6743 31.8069 27.0456L31.4036 27.0028ZM31.3016 28.7246C31.3016 29.103 31.3161 29.4107 31.3466 29.6442L31.7486 29.5918C31.7215 29.3834 31.7071 29.0955 31.7071 28.7246H31.3016ZM31.5476 29.4153H31.2162V29.8207H31.5476V29.4153ZM31.4177 29.5963C31.3501 28.9684 31.2618 28.4878 31.1479 28.1668L30.7657 28.3024C30.8632 28.577 30.9477 29.0188 31.0146 29.6397L31.4177 29.5963ZM31.1485 28.1687C31.0289 27.8206 30.821 27.5555 30.5197 27.3933L30.3275 27.7503C30.5258 27.857 30.6734 28.0338 30.7651 28.3005L31.1485 28.1687ZM30.5249 27.3962C30.2289 27.2254 29.8064 27.1529 29.2852 27.1529V27.5583C29.7824 27.5583 30.1188 27.6299 30.3223 27.7474L30.5249 27.3962ZM29.2852 27.1529H28.5215V27.5583H29.2852V27.1529ZM28.5215 27.1529C28.1708 27.1529 27.8875 27.1813 27.6903 27.2509L27.8252 27.6332C27.9546 27.5876 28.1804 27.5583 28.5215 27.5583V27.1529ZM27.6973 27.2486C27.4774 27.3173 27.3266 27.4733 27.2495 27.6916L27.6319 27.8266C27.6701 27.7182 27.7306 27.6629 27.8182 27.6356L27.6973 27.2486ZM27.2495 27.6916C27.1797 27.8896 27.1515 28.1833 27.1515 28.5516H27.557C27.557 28.1899 27.5865 27.9552 27.6319 27.8266L27.2495 27.6916ZM27.1515 28.5516V31.1887H27.557V28.5516H27.1515ZM27.3587 31.3914L28.6844 31.3626L28.6756 30.9572L27.3498 30.986L27.3587 31.3914ZM28.3197 37.1411C29.2605 37.1411 29.9674 36.8937 30.3591 36.3341L30.027 36.1016C29.7462 36.5027 29.2043 36.7356 28.3197 36.7356V37.1411ZM30.3576 36.3363C30.7373 35.8089 30.9146 35.0888 30.9146 34.2004H30.5091C30.5091 35.0412 30.3405 35.6662 30.0285 36.0994L30.3576 36.3363ZM30.9146 34.2004C30.9146 33.2117 30.7203 32.4494 30.2869 31.9619L29.9839 32.2312C30.3191 32.6083 30.5091 33.2486 30.5091 34.2004H30.9146ZM30.2884 31.9635C29.8484 31.4576 29.1288 31.2309 28.19 31.2309V31.6364C29.0766 31.6364 29.6538 31.8517 29.9824 32.2296L30.2884 31.9635ZM28.19 31.2309C27.8522 31.2309 27.5704 31.2358 27.3454 31.2455L27.3631 31.6506C27.58 31.6412 27.8554 31.6364 28.19 31.6364V31.2309ZM27.1515 31.4481V35.6991H27.557V31.4481H27.1515ZM27.1515 35.6991C27.1515 36.0586 27.1753 36.3455 27.231 36.5459L27.6216 36.4374C27.5812 36.292 27.557 36.0504 27.557 35.6991H27.1515ZM27.231 36.5459C27.2896 36.7571 27.4039 36.9304 27.5896 37.0304L27.7818 36.6734C27.7177 36.6389 27.659 36.5721 27.6216 36.4374L27.231 36.5459ZM27.6058 37.0382C27.7797 37.1128 28.0255 37.1411 28.3197 37.1411V36.7356C28.0375 36.7356 27.8606 36.7063 27.7655 36.6656L27.6058 37.0382ZM42.316 27.3124L42.3272 27.5148L42.5187 27.5042V27.3124H42.316ZM41.5522 27.4277L41.4848 27.2364L41.4811 27.2378L41.5522 27.4277ZM41.2352 27.7591L41.4264 27.8266V27.8266L41.2352 27.7591ZM41.2352 36.4916L41.4264 36.4242V36.4242L41.2352 36.4916ZM41.5522 36.8231L41.481 37.0129L41.4848 37.0143L41.5522 36.8231ZM42.316 36.9384H42.5187V36.7466L42.3272 36.7359L42.316 36.9384ZM42.316 37.2266L42.3015 37.4288L42.5187 37.4443V37.2266H42.316ZM38.3532 37.2266H38.1504V37.4411L38.3646 37.429L38.3532 37.2266ZM38.3532 36.9384L38.3442 36.7358L38.1504 36.7444V36.9384H38.3532ZM39.2898 36.8231L39.3481 37.0173V37.0173L39.2898 36.8231ZM39.6933 36.4916L39.5099 36.4053V36.4053L39.6933 36.4916ZM39.7222 27.7591L39.5298 27.8232L39.531 27.8266L39.7222 27.7591ZM39.3907 27.4132L39.3134 27.601L39.3232 27.6044L39.3907 27.4132ZM37.7047 27.4132L37.7801 27.6016L37.786 27.599L37.7047 27.4132ZM37.4021 27.7447L37.2108 27.6772L37.2086 27.6842L37.4021 27.7447ZM37.2868 28.5516L37.4887 28.5712L37.489 28.5668L37.2868 28.5516ZM37.186 29.9494L37.3883 29.9622L37.3883 29.9617L37.186 29.9494ZM36.8113 33.7393L36.6109 33.7088L36.6106 33.7104L36.8113 33.7393ZM35.9899 36.3331L36.1674 36.4312V36.4312L35.9899 36.3331ZM33.3385 37.1977L33.2274 37.3676L33.2351 37.3722L33.3385 37.1977ZM33.1944 35.8576L33.333 36.0055L33.3333 36.0052L33.1944 35.8576ZM34.3328 35.8L34.2007 35.954L34.2061 35.9583L34.3328 35.8ZM34.4048 36.7654L34.5656 36.8891L34.5698 36.8833L34.4048 36.7654ZM33.9293 37.1401L33.8295 36.9636L33.2833 37.2723L33.9069 37.3416L33.9293 37.1401ZM35.8458 35.9296L36.0309 36.0124L35.8458 35.9296ZM36.5951 33.0332L36.7964 33.0575L36.7964 33.0573L36.5951 33.0332ZM36.9554 28.5516L36.7538 28.5264L36.753 28.5402L36.9554 28.5516ZM36.5231 27.4132L36.5803 27.2187V27.2187L36.5231 27.4132ZM35.7882 27.3124H35.5854V27.5035L35.7763 27.5148L35.7882 27.3124ZM35.7882 27.0242L35.8026 26.822L35.5854 26.8064V27.0242H35.7882ZM37.9209 27.0386L37.9162 26.8357L37.9074 26.8363L37.9209 27.0386ZM38.5405 27.0242L38.5435 26.8213L38.5358 26.8215L38.5405 27.0242ZM39.506 27.0386L39.5148 26.836L39.509 26.8359L39.506 27.0386ZM42.316 27.0242H42.5187V26.8064L42.3015 26.822L42.316 27.0242ZM42.3047 27.1099C41.9548 27.1294 41.6764 27.1688 41.4848 27.2365L41.6197 27.6188C41.7547 27.5712 41.9854 27.5338 42.3272 27.5148L42.3047 27.1099ZM41.4811 27.2378C41.2678 27.3178 41.1204 27.4753 41.044 27.6916L41.4264 27.8266C41.4653 27.7162 41.5293 27.6528 41.6234 27.6175L41.4811 27.2378ZM41.044 27.6916C40.9742 27.8896 40.946 28.1833 40.946 28.5516H41.3515C41.3515 28.1899 41.381 27.9552 41.4264 27.8266L41.044 27.6916ZM40.946 28.5516V35.6991H41.3515V28.5516H40.946ZM40.946 35.6991C40.946 36.0674 40.9742 36.3612 41.044 36.5591L41.4264 36.4242C41.381 36.2955 41.3515 36.0609 41.3515 35.6991H40.946ZM41.044 36.5591C41.1204 36.7754 41.2678 36.9329 41.4811 37.0129L41.6234 36.6332C41.5293 36.5979 41.4653 36.5345 41.4264 36.4242L41.044 36.5591ZM41.4848 37.0143C41.6764 37.0819 41.9548 37.1213 42.3047 37.1408L42.3272 36.7359C41.9854 36.7169 41.7547 36.6795 41.6197 36.6319L41.4848 37.0143ZM42.1132 36.9384V37.2266H42.5187V36.9384H42.1132ZM42.3304 37.0243C41.9194 36.995 41.2986 36.9806 40.4715 36.9806V37.3861C41.2967 37.3861 41.9056 37.4005 42.3015 37.4288L42.3304 37.0243ZM40.4715 36.9806C39.567 36.9806 38.8565 36.995 38.3417 37.0241L38.3646 37.429C38.8682 37.4005 39.5698 37.3861 40.4715 37.3861V36.9806ZM38.5559 37.2266V36.9384H38.1504V37.2266H38.5559ZM38.3622 37.1409C38.7966 37.1216 39.1303 37.0826 39.3481 37.0173L39.2316 36.6289C39.0652 36.6788 38.7744 36.7167 38.3442 36.7358L38.3622 37.1409ZM39.3481 37.0173C39.5885 36.9451 39.7725 36.7995 39.8768 36.578L39.5099 36.4053C39.4604 36.5104 39.3754 36.5857 39.2316 36.6289L39.3481 37.0173ZM39.8768 36.578C39.9737 36.3719 40.0114 36.0696 40.0114 35.6991H39.6059C39.6059 36.0587 39.5666 36.2847 39.5099 36.4053L39.8768 36.578ZM40.0114 35.6991V28.5516H39.6059V35.6991H40.0114ZM40.0114 28.5516C40.0114 28.1833 39.9832 27.8896 39.9133 27.6916L39.531 27.8266C39.5764 27.9552 39.6059 28.1899 39.6059 28.5516H40.0114ZM39.9145 27.695C39.8383 27.4663 39.684 27.3018 39.4582 27.2221L39.3232 27.6044C39.4241 27.64 39.4908 27.706 39.5298 27.8232L39.9145 27.695ZM39.4679 27.2258C39.2669 27.143 38.9845 27.1096 38.6414 27.1096V27.5151C38.9707 27.5151 39.1879 27.549 39.3135 27.6007L39.4679 27.2258ZM38.6414 27.1096H38.4541V27.5151H38.6414V27.1096ZM38.4541 27.1096C38.1037 27.1096 37.8179 27.1424 37.6235 27.2275L37.786 27.599C37.8989 27.5496 38.1128 27.5151 38.4541 27.5151V27.1096ZM37.6294 27.225C37.4245 27.307 37.2855 27.466 37.2109 27.6772L37.5933 27.8122C37.634 27.6968 37.6968 27.6348 37.78 27.6015L37.6294 27.225ZM37.2086 27.6842C37.1529 27.8623 37.1135 28.1522 37.0847 28.5365L37.489 28.5668C37.5178 28.1826 37.5552 27.9344 37.5956 27.8052L37.2086 27.6842ZM37.085 28.5321C37.0558 28.8338 37.022 29.3028 36.9836 29.9372L37.3883 29.9617C37.4267 29.328 37.4602 28.8651 37.4886 28.5712L37.085 28.5321ZM36.9836 29.9366C36.8878 31.4511 36.7634 32.708 36.6109 33.7088L37.0117 33.7698C37.1666 32.7532 37.292 31.4835 37.3883 29.9622L36.9836 29.9366ZM36.6106 33.7104C36.4693 34.6902 36.2019 35.5304 35.8125 36.2351L36.1674 36.4312C36.5849 35.6757 36.8651 34.7867 37.012 33.7682L36.6106 33.7104ZM35.8125 36.2351C35.4392 36.9106 34.9303 37.2256 34.2751 37.2256V37.631C35.0994 37.631 35.7337 37.2159 36.1674 36.4312L35.8125 36.2351ZM34.2751 37.2256C33.9388 37.2256 33.6639 37.1549 33.4418 37.0233L33.2351 37.3722C33.5318 37.548 33.8814 37.631 34.2751 37.631V37.2256ZM33.4494 37.0281C33.2649 36.9074 33.1665 36.7264 33.1665 36.4484H32.7611C32.7611 36.8429 32.9124 37.1614 33.2275 37.3674L33.4494 37.0281ZM33.1665 36.4484C33.1665 36.2434 33.2277 36.1042 33.333 36.0055L33.0557 35.7097C32.8535 35.8992 32.7611 36.1539 32.7611 36.4484H33.1665ZM33.3333 36.0052C33.4546 35.8911 33.6095 35.8298 33.814 35.8298V35.4243C33.5189 35.4243 33.2607 35.5167 33.0554 35.71L33.3333 36.0052ZM33.814 35.8298C33.9867 35.8298 34.1099 35.8759 34.2008 35.9539L34.4647 35.646C34.2866 35.4934 34.0639 35.4243 33.814 35.4243V35.8298ZM34.2061 35.9583C34.2999 36.0333 34.3462 36.1276 34.3462 36.2611H34.7516C34.7516 36.0103 34.6538 35.7972 34.4594 35.6416L34.2061 35.9583ZM34.3462 36.2611C34.3462 36.43 34.3063 36.5545 34.2398 36.6476L34.5698 36.8833C34.6954 36.7074 34.7516 36.4956 34.7516 36.2611H34.3462ZM34.2441 36.6418C34.1717 36.736 34.0395 36.8449 33.8295 36.9636L34.029 37.3166C34.2609 37.1855 34.4458 37.0446 34.5655 36.889L34.2441 36.6418ZM33.9069 37.3416C34.004 37.3524 34.1277 37.3572 34.2751 37.3572V36.9518C34.1343 36.9518 34.0275 36.947 33.9517 36.9386L33.9069 37.3416ZM34.2751 37.3572C34.66 37.3572 35.0056 37.2409 35.304 37.0082C35.5994 36.7778 35.8393 36.4409 36.0309 36.0124L35.6607 35.8469C35.4872 36.235 35.2828 36.5105 35.0547 36.6884C34.8296 36.864 34.5723 36.9518 34.2751 36.9518V37.3572ZM36.0309 36.0124C36.4061 35.1732 36.6601 34.1872 36.7964 33.0575L36.3939 33.0089C36.2612 34.108 36.0157 35.0529 35.6607 35.8469L36.0309 36.0124ZM36.7964 33.0573C36.9317 31.9273 37.052 30.4287 37.1578 28.5631L36.753 28.5402C36.6474 30.402 36.5276 31.8911 36.3938 33.0091L36.7964 33.0573ZM37.1566 28.5768C37.1677 28.4877 37.1725 28.3724 37.1725 28.2346H36.7671C36.7671 28.3659 36.7623 28.4619 36.7542 28.5265L37.1566 28.5768ZM37.1725 28.2346C37.1725 27.9733 37.1385 27.7456 37.0474 27.5765L36.6904 27.7687C36.7339 27.8494 36.7671 27.9964 36.7671 28.2346H37.1725ZM37.0474 27.5765C36.9495 27.3946 36.7844 27.2788 36.5803 27.2187L36.4659 27.6077C36.5884 27.6438 36.6539 27.7009 36.6904 27.7687L37.0474 27.5765ZM36.5803 27.2187C36.3943 27.164 36.1307 27.1294 35.8001 27.11L35.7763 27.5148C36.0989 27.5337 36.3252 27.5664 36.4659 27.6077L36.5803 27.2187ZM35.9909 27.3124V27.0242H35.5854V27.3124H35.9909ZM35.7737 27.2264C36.1836 27.2557 36.6835 27.2701 37.2724 27.2701V26.8647C36.6893 26.8647 36.1997 26.8503 35.8026 26.822L35.7737 27.2264ZM37.2724 27.2701C37.4235 27.2701 37.6452 27.2601 37.9344 27.2409L37.9074 26.8363C37.6202 26.8554 37.4095 26.8647 37.2724 26.8647V27.2701ZM37.9256 27.2413L38.5452 27.2269L38.5358 26.8215L37.9162 26.8359L37.9256 27.2413ZM38.5375 27.2269L39.503 27.2413L39.509 26.8359L38.5435 26.8215L38.5375 27.2269ZM39.4972 27.2411C39.9407 27.2604 40.3089 27.2701 40.6012 27.2701V26.8647C40.317 26.8647 39.9552 26.8552 39.5148 26.836L39.4972 27.2411ZM40.6012 27.2701C41.3425 27.2701 41.9197 27.2557 42.3304 27.2264L42.3015 26.822C41.9053 26.8503 41.3393 26.8647 40.6012 26.8647V27.2701ZM42.1132 27.0242V27.3124H42.5187V27.0242H42.1132ZM47.4735 27.3124L47.4848 27.5148L47.6763 27.5042V27.3124H47.4735ZM46.7098 27.4277L46.6423 27.2364L46.6386 27.2378L46.7098 27.4277ZM46.3928 27.7591L46.5839 27.8266V27.8266L46.3928 27.7591ZM46.3928 36.4916L46.5839 36.4242V36.4242L46.3928 36.4916ZM46.7098 36.8231L46.6386 37.0129L46.6423 37.0143L46.7098 36.8231ZM47.4735 36.9384H47.6763V36.7466L47.4848 36.7359L47.4735 36.9384ZM47.4735 37.2266L47.4603 37.4289L47.6763 37.443V37.2266H47.4735ZM43.7989 37.2266H43.5962V37.4443L43.8134 37.4288L43.7989 37.2266ZM43.7989 36.9384L43.7877 36.7359L43.5962 36.7466V36.9384H43.7989ZM44.5483 36.8231L44.4808 36.6319L44.4771 36.6332L44.5483 36.8231ZM44.8797 27.7591L44.6885 27.8266V27.8266L44.8797 27.7591ZM44.5483 27.4277L44.4771 27.6175L44.4808 27.6188L44.5483 27.4277ZM43.7989 27.3124H43.5962V27.5042L43.7877 27.5148L43.7989 27.3124ZM43.7989 27.0242L43.8134 26.822L43.5962 26.8064V27.0242H43.7989ZM47.4735 27.0242H47.6763V26.8081L47.4606 26.8218L47.4735 27.0242ZM47.4623 27.1099C47.1124 27.1294 46.8339 27.1688 46.6423 27.2365L46.7773 27.6188C46.9122 27.5712 47.143 27.5338 47.4848 27.5148L47.4623 27.1099ZM46.6386 27.2378C46.4253 27.3178 46.2779 27.4753 46.2016 27.6916L46.5839 27.8266C46.6229 27.7162 46.6868 27.6528 46.781 27.6175L46.6386 27.2378ZM46.2016 27.6916C46.1317 27.8896 46.1036 28.1833 46.1036 28.5516H46.509C46.509 28.1899 46.5385 27.9552 46.5839 27.8266L46.2016 27.6916ZM46.1036 28.5516V35.6991H46.509V28.5516H46.1036ZM46.1036 35.6991C46.1036 36.0674 46.1317 36.3612 46.2016 36.5591L46.5839 36.4242C46.5385 36.2955 46.509 36.0609 46.509 35.6991H46.1036ZM46.2016 36.5591C46.2779 36.7754 46.4253 36.9329 46.6386 37.0129L46.781 36.6332C46.6868 36.5979 46.6229 36.5345 46.5839 36.4242L46.2016 36.5591ZM46.6423 37.0143C46.8339 37.0819 47.1124 37.1213 47.4623 37.1408L47.4848 36.7359C47.143 36.7169 46.9122 36.6795 46.7773 36.6319L46.6423 37.0143ZM47.2708 36.9384V37.2266H47.6763V36.9384H47.2708ZM47.4867 37.0243C47.0383 36.995 46.4232 36.9806 45.6434 36.9806V37.3861C46.4199 37.3861 47.0249 37.4005 47.4603 37.4289L47.4867 37.0243ZM45.6434 36.9806C44.8163 36.9806 44.1955 36.995 43.7845 37.0243L43.8134 37.4288C44.2093 37.4005 44.8182 37.3861 45.6434 37.3861V36.9806ZM44.0017 37.2266V36.9384H43.5962V37.2266H44.0017ZM43.8102 37.1408C44.159 37.1214 44.435 37.0821 44.6194 37.0129L44.4771 36.6332C44.354 36.6794 44.1305 36.7169 43.7877 36.7359L43.8102 37.1408ZM44.6157 37.0143C44.8369 36.9362 44.9928 36.7803 45.0709 36.5591L44.6885 36.4242C44.6513 36.5297 44.5863 36.5947 44.4808 36.6319L44.6157 37.0143ZM45.0709 36.5591C45.1407 36.3612 45.1689 36.0674 45.1689 35.6991H44.7634C44.7634 36.0609 44.7339 36.2955 44.6885 36.4242L45.0709 36.5591ZM45.1689 35.6991V28.5516H44.7634V35.6991H45.1689ZM45.1689 28.5516C45.1689 28.1833 45.1407 27.8896 45.0709 27.6916L44.6885 27.8266C44.7339 27.9552 44.7634 28.1899 44.7634 28.5516H45.1689ZM45.0709 27.6916C44.9928 27.4705 44.8369 27.3145 44.6157 27.2365L44.4808 27.6188C44.5863 27.6561 44.6513 27.7211 44.6885 27.8266L45.0709 27.6916ZM44.6194 27.2378C44.435 27.1687 44.159 27.1293 43.8102 27.1099L43.7877 27.5148C44.1305 27.5338 44.354 27.5714 44.4771 27.6175L44.6194 27.2378ZM44.0017 27.3124V27.0242H43.5962V27.3124H44.0017ZM43.7845 27.2264C44.1955 27.2558 44.8163 27.2701 45.6434 27.2701V26.8647C44.8182 26.8647 44.2093 26.8502 43.8134 26.822L43.7845 27.2264ZM45.6434 27.2701C46.4138 27.2701 47.0287 27.2557 47.4864 27.2265L47.4606 26.8218C47.0153 26.8503 46.4102 26.8647 45.6434 26.8647V27.2701ZM47.2708 27.0242V27.3124H47.6763V27.0242H47.2708ZM57.1471 27.3124L57.1583 27.5148L57.3498 27.5042V27.3124H57.1471ZM56.3833 27.4277L56.3158 27.2364L56.3121 27.2378L56.3833 27.4277ZM56.0663 27.7591L55.8751 27.6916V27.6916L56.0663 27.7591ZM56.0663 36.4916L55.8751 36.5591V36.5591L56.0663 36.4916ZM56.3833 36.8231L56.3121 37.0129L56.3158 37.0143L56.3833 36.8231ZM57.1471 36.9384H57.3498V36.7466L57.1583 36.7359L57.1471 36.9384ZM57.1471 37.2266L57.1326 37.4288L57.3498 37.4443V37.2266H57.1471ZM53.4725 37.2266H53.2697V37.4427L53.4854 37.4289L53.4725 37.2266ZM53.4725 36.9384L53.4612 36.7359L53.2697 36.7466V36.9384H53.4725ZM54.2218 36.8231L54.1543 36.6319L54.1506 36.6332L54.2218 36.8231ZM54.5532 36.4916L54.7444 36.5591L54.7444 36.5591L54.5532 36.4916ZM54.6397 32.3848H54.8424V32.182H54.6397V32.3848ZM52.3485 32.6297L52.476 32.7873V32.7873L52.3485 32.6297ZM51.8874 33.2782L51.6986 33.204L51.6964 33.21L51.8874 33.2782ZM51.5703 34.431L51.3728 34.3854L51.3723 34.3874L51.5703 34.431ZM51.2533 35.872L51.0553 35.8284L51.0552 35.8291L51.2533 35.872ZM50.6769 37.0825L50.5422 36.9309L50.5394 36.9335L50.6769 37.0825ZM48.8324 37.2122L48.7216 37.382V37.382L48.8324 37.2122ZM48.1695 36.5061L48.0496 36.3426L47.8922 36.458L48.0016 36.6196L48.1695 36.5061ZM48.3857 36.3475L48.5479 36.2259L48.4275 36.0654L48.2658 36.1841L48.3857 36.3475ZM48.7603 36.7654L48.6319 36.9225L48.6387 36.9276L48.7603 36.7654ZM49.5961 36.6502L49.7709 36.753L49.7734 36.7486L49.5961 36.6502ZM49.8843 35.7135L49.6866 35.6689L49.686 35.6713L49.8843 35.7135ZM50.2158 34.2437L50.4135 34.2883L50.4137 34.2876L50.2158 34.2437ZM50.8786 32.9179L50.7425 32.7677V32.7677L50.8786 32.9179ZM52.2908 32.3415L52.26 32.1411L52.2575 32.1415L52.2908 32.3415ZM52.4782 32.3127L52.509 32.5131L52.5079 32.1122L52.4782 32.3127ZM50.3743 31.3184L50.2159 31.4451L50.2185 31.4482L50.3743 31.3184ZM50.6337 27.7447L50.7578 27.905L50.7581 27.9047L50.6337 27.7447ZM53.8327 27.053L53.8221 27.2556L53.8308 27.2557L53.8327 27.053ZM55.389 27.0674L55.3871 27.2701H55.389V27.0674ZM57.1471 27.0242H57.3498V26.8064L57.1326 26.822L57.1471 27.0242ZM51.7144 31.4481L51.871 31.3193V31.3193L51.7144 31.4481ZM54.6397 32.0965V32.2993H54.8424V32.0965H54.6397ZM54.5532 27.7735L54.7456 27.7094V27.7094L54.5532 27.7735ZM54.2362 27.4132L54.1504 27.597L54.1549 27.599L54.2362 27.4132ZM51.7433 27.9032L51.5981 27.7616L51.5964 27.7635L51.7433 27.9032ZM57.1358 27.1099C56.7859 27.1294 56.5075 27.1688 56.3158 27.2365L56.4508 27.6188C56.5858 27.5712 56.8165 27.5338 57.1583 27.5148L57.1358 27.1099ZM56.3121 27.2378C56.0989 27.3178 55.9515 27.4753 55.8751 27.6916L56.2575 27.8266C56.2964 27.7162 56.3604 27.6528 56.4545 27.6175L56.3121 27.2378ZM55.8751 27.6916C55.8053 27.8896 55.7771 28.1833 55.7771 28.5516H56.1826C56.1826 28.1899 56.2121 27.9552 56.2575 27.8266L55.8751 27.6916ZM55.7771 28.5516V35.6991H56.1826V28.5516H55.7771ZM55.7771 35.6991C55.7771 36.0674 55.8053 36.3612 55.8751 36.5591L56.2575 36.4242C56.2121 36.2955 56.1826 36.0609 56.1826 35.6991H55.7771ZM55.8751 36.5591C55.9515 36.7754 56.0989 36.9329 56.3121 37.0129L56.4545 36.6332C56.3604 36.5979 56.2964 36.5345 56.2575 36.4242L55.8751 36.5591ZM56.3158 37.0143C56.5075 37.0819 56.7859 37.1213 57.1358 37.1408L57.1583 36.7359C56.8165 36.7169 56.5858 36.6795 56.4508 36.6319L56.3158 37.0143ZM56.9443 36.9384V37.2266H57.3498V36.9384H56.9443ZM57.1615 37.0243C56.7505 36.995 56.1297 36.9806 55.3026 36.9806V37.3861C56.1278 37.3861 56.7367 37.4005 57.1326 37.4288L57.1615 37.0243ZM55.3026 36.9806C54.5322 36.9806 53.9173 36.995 53.4596 37.0242L53.4854 37.4289C53.9307 37.4005 54.5358 37.3861 55.3026 37.3861V36.9806ZM53.6752 37.2266V36.9384H53.2697V37.2266H53.6752ZM53.4837 37.1408C53.8325 37.1214 54.1086 37.0821 54.293 37.0129L54.1506 36.6332C54.0276 36.6794 53.8041 36.7169 53.4612 36.7359L53.4837 37.1408ZM54.2893 37.0143C54.5104 36.9362 54.6664 36.7803 54.7444 36.5591L54.3621 36.4242C54.3248 36.5297 54.2598 36.5947 54.1543 36.6319L54.2893 37.0143ZM54.7444 36.5591C54.8143 36.3612 54.8424 36.0674 54.8424 35.6991H54.437C54.437 36.0609 54.4075 36.2955 54.3621 36.4242L54.7444 36.5591ZM54.8424 35.6991V32.3848H54.437V35.6991H54.8424ZM54.6397 32.182H53.1987V32.5875H54.6397V32.182ZM53.1987 32.182C52.8057 32.182 52.4709 32.2698 52.2209 32.4721L52.476 32.7873C52.6295 32.6631 52.8615 32.5875 53.1987 32.5875V32.182ZM52.2209 32.4721C51.9889 32.6599 51.8157 32.9062 51.6987 33.204L52.076 33.3523C52.1704 33.1122 52.3045 32.9261 52.476 32.7873L52.2209 32.4721ZM51.6964 33.21C51.5964 33.49 51.4887 33.8832 51.3728 34.3854L51.7679 34.4766C51.8825 33.9797 51.9861 33.6043 52.0783 33.3464L51.6964 33.21ZM51.3723 34.3874L51.0553 35.8284L51.4513 35.9156L51.7683 34.4746L51.3723 34.3874ZM51.0552 35.8291C50.9337 36.3899 50.7539 36.7428 50.5422 36.9309L50.8116 37.234C51.1187 36.961 51.3232 36.5069 51.4514 35.9149L51.0552 35.8291ZM50.5394 36.9335C50.333 37.124 50.063 37.2256 49.7114 37.2256V37.631C50.1476 37.631 50.5213 37.502 50.8144 37.2314L50.5394 36.9335ZM49.7114 37.2256C49.3711 37.2256 49.1208 37.1582 48.9431 37.0423L48.7216 37.382C48.9859 37.5543 49.3216 37.631 49.7114 37.631V37.2256ZM48.9431 37.0423C48.7531 36.9184 48.5501 36.7068 48.3375 36.3925L48.0016 36.6196C48.2309 36.9586 48.4698 37.2177 48.7216 37.382L48.9431 37.0423ZM48.2894 36.6695L48.5056 36.511L48.2658 36.1841L48.0496 36.3426L48.2894 36.6695ZM48.2235 36.4692C48.3712 36.6661 48.5076 36.8206 48.632 36.9223L48.8887 36.6085C48.8018 36.5374 48.6884 36.4132 48.5479 36.2259L48.2235 36.4692ZM48.6387 36.9276C48.7937 37.0439 48.9772 37.0979 49.1782 37.0979V36.6924C49.0527 36.6924 48.9576 36.6599 48.882 36.6032L48.6387 36.9276ZM49.1782 37.0979C49.4359 37.0979 49.6401 36.9753 49.7709 36.7529L49.4214 36.5474C49.36 36.6516 49.2856 36.6924 49.1782 36.6924V37.0979ZM49.7734 36.7486C49.8856 36.5466 49.9865 36.2077 50.0826 35.7557L49.686 35.6713C49.5901 36.1223 49.4988 36.4078 49.4189 36.5517L49.7734 36.7486ZM50.0821 35.7581L50.4135 34.2883L50.018 34.1991L49.6866 35.6689L50.0821 35.7581ZM50.4137 34.2876C50.5433 33.7042 50.7504 33.3078 51.0148 33.0682L50.7425 32.7677C50.3921 33.0853 50.1572 33.5726 50.0179 34.1997L50.4137 34.2876ZM51.0148 33.0682C51.2816 32.8263 51.709 32.644 52.3242 32.5415L52.2575 32.1415C51.6046 32.2504 51.0905 32.4524 50.7425 32.7677L51.0148 33.0682ZM52.3217 32.5419L52.509 32.5131L52.4473 32.1123L52.26 32.1411L52.3217 32.5419ZM52.5079 32.1122C51.565 31.9721 50.9187 31.655 50.53 31.1886L50.2185 31.4482C50.6945 32.0194 51.4508 32.3651 52.4484 32.5132L52.5079 32.1122ZM50.5326 31.1917C50.1375 30.6979 49.943 30.1514 49.943 29.5459H49.5375C49.5375 30.247 49.7656 30.8821 50.216 31.445L50.5326 31.1917ZM49.943 29.5459C49.943 28.8703 50.2107 28.3285 50.7578 27.905L50.5096 27.5844C49.8654 28.0831 49.5375 28.7422 49.5375 29.5459H49.943ZM50.7581 27.9047C51.3148 27.4717 52.124 27.2413 53.2131 27.2413V26.8358C52.0734 26.8358 51.163 27.0762 50.5092 27.5846L50.7581 27.9047ZM53.2131 27.2413C53.441 27.2413 53.6439 27.2461 53.8221 27.2554L53.8434 26.8505C53.6565 26.8407 53.4463 26.8358 53.2131 26.8358V27.2413ZM53.8308 27.2557L55.3871 27.2701L55.3909 26.8647L53.8346 26.8503L53.8308 27.2557ZM55.389 27.2701C56.1589 27.2701 56.7507 27.2557 57.1615 27.2264L57.1326 26.822C56.7365 26.8502 56.1562 26.8647 55.389 26.8647V27.2701ZM56.9443 27.0242V27.3124H57.3498V27.0242H56.9443ZM50.9785 29.6036C50.9785 30.4284 51.1621 31.0956 51.5578 31.5768L51.871 31.3193C51.5558 30.936 51.384 30.3735 51.384 29.6036H50.9785ZM51.5578 31.5768C51.9719 32.0804 52.7035 32.2993 53.6742 32.2993V31.8938C52.7428 31.8938 52.1679 31.6804 51.871 31.3193L51.5578 31.5768ZM53.6742 32.2993H54.6397V31.8938H53.6742V32.2993ZM54.8424 32.0965V28.5516H54.437V32.0965H54.8424ZM54.8424 28.5516C54.8424 28.1999 54.8138 27.914 54.7456 27.7094L54.3609 27.8376C54.408 27.9788 54.437 28.2117 54.437 28.5516H54.8424ZM54.7456 27.7094C54.6715 27.4873 54.5286 27.3199 54.3175 27.2275L54.1549 27.599C54.2512 27.6411 54.3196 27.7138 54.3609 27.8376L54.7456 27.7094ZM54.3219 27.2295C54.1367 27.1431 53.8793 27.1096 53.5733 27.1096V27.5151C53.863 27.5151 54.0475 27.5489 54.1505 27.597L54.3219 27.2295ZM53.5733 27.1096C52.7109 27.1096 52.0365 27.3123 51.5981 27.7616L51.8884 28.0448C52.2186 27.7063 52.7642 27.5151 53.5733 27.5151V27.1096ZM51.5964 27.7635C51.1745 28.2069 50.9785 28.831 50.9785 29.6036H51.384C51.384 28.8968 51.5626 28.3872 51.8901 28.0429L51.5964 27.7635Z" fill="#FEF5EB" mask="url(#path-5-outside-1_23632_22573)"/>
</g>
</g>
<defs>
<linearGradient id="paint0_linear_23632_22573" x1="34" y1="-1.04141e-05" x2="34" y2="68" gradientUnits="userSpaceOnUse">
<stop stop-color="#C93D34"/>
<stop offset="1" stop-color="#7A2629"/>
</linearGradient>
<linearGradient id="paint1_linear_23632_22573" x1="34" y1="-1.04141e-05" x2="34" y2="68" gradientUnits="userSpaceOnUse">
<stop stop-color="#C93D34"/>
<stop offset="1" stop-color="#7A2629"/>
</linearGradient>
<clipPath id="clip0_23632_22573">
<rect width="68" height="68" fill="white"/>
</clipPath>
</defs>
</svg>
