<svg width="68" height="68" viewBox="0 0 68 68" fill="none" xmlns="http://www.w3.org/2000/svg">
<mask id="mask0_23668_7356" style="mask-type:alpha" maskUnits="userSpaceOnUse" x="0" y="0" width="68" height="68">
<path fill-rule="evenodd" clip-rule="evenodd" d="M47.0333 0H20.9667C13.5811 0 8.89667 0.0377779 4.45778 4.45778C0.018889 8.89667 0 13.6 0 20.9667V47.0333C0 54.4189 0.0377779 59.1033 4.45778 63.5422C8.89667 67.9811 13.6 68 20.9667 68H47.0333C54.4189 68 59.1033 67.9811 63.5422 63.5422C67.9622 59.1033 68 54.4 68 47.0333V20.9667C68 13.5811 67.9622 8.89667 63.5422 4.45778C59.1033 0.018889 54.4 0 47.0333 0Z" fill="url(#paint0_linear_23668_7356)"/>
</mask>
<g mask="url(#mask0_23668_7356)">
<rect width="68" height="68" fill="url(#paint1_linear_23668_7356)"/>
<path fill-rule="evenodd" clip-rule="evenodd" d="M15.6212 64.3735C26.4256 64.3735 45.6356 64.3735 45.6356 64.3735C52.5868 64.3735 57.0823 64.6379 61.2379 60.4446C64.8079 56.8746 64.5056 50.8679 64.7323 46.1079C60.709 52.1524 53.3234 51.9446 47.619 51.9446C47.619 51.9446 20.929 51.9446 10.9556 51.9446C0.982317 51.9635 4.81676 64.3735 15.6212 64.3735Z" fill="#FEF5EB"/>
<path d="M12.4854 53.5312H23.1387V61.5213L17.812 58.8579L12.4854 61.5213V53.5312Z" fill="#F19C33"/>
<mask id="path-5-outside-1_23668_7356" maskUnits="userSpaceOnUse" x="8.10156" y="12.2266" width="51" height="26" fill="black">
<rect fill="white" x="8.10156" y="12.2266" width="51" height="26"/>
<path d="M23.9218 22.0593C24.0851 22.2995 24.2628 22.4916 24.455 22.6357C24.6567 22.7702 24.9017 22.8711 25.1899 22.9384V23.2266C24.7288 23.1977 24.1524 23.1833 23.4607 23.1833C22.9419 23.1833 22.4472 23.1977 21.9764 23.2266V22.9384C22.207 22.9288 22.3751 22.8999 22.4808 22.8519C22.5865 22.8039 22.6393 22.7318 22.6393 22.6357C22.6393 22.5397 22.5913 22.4244 22.4952 22.2899L20.3913 19.1197C20.1127 18.697 19.8773 18.4232 19.6852 18.2983C19.4931 18.1638 19.2241 18.0869 18.8782 18.0677V21.6991C18.8782 22.0641 18.9071 22.3283 18.9647 22.4916C19.0223 22.655 19.128 22.7654 19.2817 22.8231C19.445 22.8807 19.6996 22.9191 20.0455 22.9384V23.2266C19.6036 23.1977 18.9935 23.1833 18.2154 23.1833C17.3892 23.1833 16.7744 23.1977 16.3709 23.2266V22.9384C16.7167 22.9191 16.9665 22.8807 17.1202 22.8231C17.2835 22.7654 17.394 22.655 17.4516 22.4916C17.5093 22.3283 17.5381 22.0641 17.5381 21.6991V14.5516C17.5381 14.1866 17.5093 13.9224 17.4516 13.7591C17.394 13.5958 17.2835 13.4853 17.1202 13.4277C16.9665 13.37 16.7167 13.3316 16.3709 13.3124V13.0242C16.7744 13.053 17.3892 13.0674 18.2154 13.0674C18.9839 13.0674 19.5939 13.053 20.0455 13.0242V13.3124C19.6996 13.3316 19.445 13.37 19.2817 13.4277C19.128 13.4853 19.0223 13.5958 18.9647 13.7591C18.9071 13.9224 18.8782 14.1866 18.8782 14.5516V17.7795C19.5795 17.7507 20.1271 17.4817 20.521 16.9726L21.9044 15.2145C22.3943 14.6093 22.6393 14.1482 22.6393 13.8311C22.6393 13.4949 22.3415 13.322 21.7459 13.3124V13.0242C22.2934 13.053 22.8458 13.0674 23.403 13.0674C23.9314 13.0674 24.3397 13.053 24.6279 13.0242V13.3124C24.3109 13.3604 24.0131 13.4661 23.7345 13.6294C23.4559 13.7831 23.1869 14.0281 22.9275 14.3643L20.5786 17.376L23.9218 22.0593ZM29.7537 13.3124C29.4078 13.3316 29.1533 13.37 28.9899 13.4277C28.8362 13.4853 28.7306 13.5958 28.6729 13.7591C28.6153 13.9224 28.5865 14.1866 28.5865 14.5516V21.6991C28.5865 22.0641 28.6153 22.3283 28.6729 22.4916C28.7306 22.655 28.8362 22.7654 28.9899 22.8231C29.1533 22.8807 29.4078 22.9191 29.7537 22.9384V23.2266C29.3118 23.1977 28.7017 23.1833 27.9236 23.1833C27.0974 23.1833 26.4826 23.1977 26.0791 23.2266V22.9384C26.4249 22.9191 26.6747 22.8807 26.8284 22.8231C26.9917 22.7654 27.1022 22.655 27.1598 22.4916C27.2175 22.3283 27.2463 22.0641 27.2463 21.6991V14.5516C27.2463 14.1866 27.2175 13.9224 27.1598 13.7591C27.1022 13.5958 26.9917 13.4853 26.8284 13.4277C26.6747 13.37 26.4249 13.3316 26.0791 13.3124V13.0242C26.4826 13.053 27.0974 13.0674 27.9236 13.0674C28.6921 13.0674 29.3022 13.053 29.7537 13.0242V13.3124ZM40.2774 13.3124C39.9412 13.3316 39.6914 13.3844 39.5281 13.4709C39.3648 13.5477 39.2543 13.6822 39.1967 13.8744C39.139 14.0569 39.1102 14.3307 39.1102 14.6958V23.2986H38.7788L32.7265 13.9464V21.555C32.7265 21.9296 32.7553 22.2082 32.813 22.3908C32.8802 22.5733 33.0051 22.7078 33.1876 22.7943C33.3702 22.8711 33.6536 22.9191 34.0378 22.9384V23.2266C33.692 23.1977 33.202 23.1833 32.568 23.1833C31.9916 23.1833 31.5449 23.1977 31.2278 23.2266V22.9384C31.5641 22.9191 31.8139 22.8711 31.9772 22.7943C32.1405 22.7078 32.251 22.5733 32.3086 22.3908C32.3662 22.1986 32.3951 21.92 32.3951 21.555V14.5516C32.3951 14.1866 32.3662 13.9224 32.3086 13.7591C32.251 13.5958 32.1405 13.4853 31.9772 13.4277C31.8235 13.37 31.5737 13.3316 31.2278 13.3124V13.0242C31.5449 13.053 31.9916 13.0674 32.568 13.0674C33.0003 13.0674 33.375 13.053 33.692 13.0242L38.7788 20.8633V14.6958C38.7788 14.3211 38.7451 14.0425 38.6779 13.86C38.6203 13.6774 38.5002 13.5477 38.3176 13.4709C38.1351 13.3844 37.8517 13.3316 37.4674 13.3124V13.0242C37.8133 13.053 38.3032 13.0674 38.9373 13.0674C39.5137 13.0674 39.9604 13.053 40.2774 13.0242V13.3124ZM51.3659 13.3124C51.02 13.3316 50.7654 13.37 50.6021 13.4277C50.4484 13.4853 50.3427 13.5958 50.2851 13.7591C50.2275 13.9224 50.1986 14.1866 50.1986 14.5516V21.6991C50.1986 22.0641 50.2275 22.3283 50.2851 22.4916C50.3427 22.655 50.4484 22.7654 50.6021 22.8231C50.7654 22.8807 51.02 22.9191 51.3659 22.9384V23.2266C50.9624 23.1977 50.3475 23.1833 49.5214 23.1833C48.7432 23.1833 48.1332 23.1977 47.6913 23.2266V22.9384C48.0371 22.9191 48.2869 22.8807 48.4406 22.8231C48.6039 22.7654 48.7144 22.655 48.772 22.4916C48.8297 22.3283 48.8585 22.0641 48.8585 21.6991V18.2406H44.1752V21.6991C44.1752 22.0641 44.204 22.3283 44.2616 22.4916C44.3193 22.655 44.425 22.7654 44.5787 22.8231C44.742 22.8807 44.9966 22.9191 45.3424 22.9384V23.2266C44.9005 23.1977 44.2905 23.1833 43.5123 23.1833C42.6861 23.1833 42.0713 23.1977 41.6678 23.2266V22.9384C42.0137 22.9191 42.2634 22.8807 42.4171 22.8231C42.5805 22.7654 42.6909 22.655 42.7486 22.4916C42.8062 22.3283 42.835 22.0641 42.835 21.6991V14.5516C42.835 14.1866 42.8062 13.9224 42.7486 13.7591C42.6909 13.5958 42.5805 13.4853 42.4171 13.4277C42.2634 13.37 42.0137 13.3316 41.6678 13.3124V13.0242C42.0713 13.053 42.6861 13.0674 43.5123 13.0674C44.2809 13.0674 44.8909 13.053 45.3424 13.0242V13.3124C44.9966 13.3316 44.742 13.37 44.5787 13.4277C44.425 13.4853 44.3193 13.5958 44.2616 13.7591C44.204 13.9224 44.1752 14.1866 44.1752 14.5516V17.9524H48.8585V14.5516C48.8585 14.1866 48.8297 13.9224 48.772 13.7591C48.7144 13.5958 48.6039 13.4853 48.4406 13.4277C48.2869 13.37 48.0371 13.3316 47.6913 13.3124V13.0242C48.1332 13.053 48.7432 13.0674 49.5214 13.0674C50.3475 13.0674 50.9624 13.053 51.3659 13.0242V13.3124ZM17.1336 27.0242C17.0664 27.7063 17.0327 28.3211 17.0327 28.8687C17.0327 29.349 17.0471 29.7429 17.076 30.0503H16.7445C16.6677 29.3106 16.5716 28.763 16.4563 28.4075C16.341 28.0425 16.1393 27.7783 15.8511 27.615C15.5629 27.4421 15.121 27.3556 14.5254 27.3556H13.7472V35.555C13.7472 35.9585 13.7856 36.2515 13.8625 36.434C13.9393 36.6165 14.0738 36.7414 14.266 36.8087C14.4581 36.8759 14.7703 36.9191 15.2026 36.9384V37.2266C14.7031 37.1977 13.997 37.1833 13.0843 37.1833C12.1237 37.1833 11.4128 37.1977 10.9516 37.2266V36.9384C11.3839 36.9191 11.6962 36.8759 11.8883 36.8087C12.0804 36.7414 12.2149 36.6165 12.2918 36.434C12.3686 36.2515 12.4071 35.9585 12.4071 35.555V27.3556H11.6289C11.0333 27.3556 10.5914 27.4421 10.3032 27.615C10.015 27.7783 9.81324 28.0425 9.69796 28.4075C9.58268 28.763 9.48661 29.3106 9.40976 30.0503H9.07832C9.10714 29.7429 9.12155 29.349 9.12155 28.8687C9.12155 28.3211 9.08793 27.7063 9.02068 27.0242C9.81804 27.053 11.1726 27.0674 13.0843 27.0674C14.9865 27.0674 16.3362 27.053 17.1336 27.0242ZM28.1217 27.3124C27.7759 27.3316 27.5213 27.37 27.358 27.4277C27.2043 27.4853 27.0986 27.5958 27.041 27.7591C26.9833 27.9224 26.9545 28.1866 26.9545 28.5516V35.6991C26.9545 36.0641 26.9833 36.3283 27.041 36.4916C27.0986 36.655 27.2043 36.7654 27.358 36.8231C27.5213 36.8807 27.7759 36.9191 28.1217 36.9384V37.2266C27.7182 37.1977 27.1034 37.1833 26.2772 37.1833C25.4991 37.1833 24.8891 37.1977 24.4471 37.2266V36.9384C24.793 36.9191 25.0428 36.8807 25.1965 36.8231C25.3598 36.7654 25.4703 36.655 25.5279 36.4916C25.5855 36.3283 25.6144 36.0641 25.6144 35.6991V32.2406H20.9311V35.6991C20.9311 36.0641 20.9599 36.3283 21.0175 36.4916C21.0752 36.655 21.1808 36.7654 21.3345 36.8231C21.4979 36.8807 21.7524 36.9191 22.0983 36.9384V37.2266C21.6564 37.1977 21.0463 37.1833 20.2682 37.1833C19.442 37.1833 18.8272 37.1977 18.4237 37.2266V36.9384C18.7695 36.9191 19.0193 36.8807 19.173 36.8231C19.3363 36.7654 19.4468 36.655 19.5045 36.4916C19.5621 36.3283 19.5909 36.0641 19.5909 35.6991V28.5516C19.5909 28.1866 19.5621 27.9224 19.5045 27.7591C19.4468 27.5958 19.3363 27.4853 19.173 27.4277C19.0193 27.37 18.7695 27.3316 18.4237 27.3124V27.0242C18.8272 27.053 19.442 27.0674 20.2682 27.0674C21.0367 27.0674 21.6468 27.053 22.0983 27.0242V27.3124C21.7524 27.3316 21.4979 27.37 21.3345 27.4277C21.1808 27.4853 21.0752 27.5958 21.0175 27.7591C20.9599 27.9224 20.9311 28.1866 20.9311 28.5516V31.9524H25.6144V28.5516C25.6144 28.1866 25.5855 27.9224 25.5279 27.7591C25.4703 27.5958 25.3598 27.4853 25.1965 27.4277C25.0428 27.37 24.793 27.3316 24.4471 27.3124V27.0242C24.8891 27.053 25.4991 27.0674 26.2772 27.0674C27.1034 27.0674 27.7182 27.053 28.1217 27.0242V27.3124ZM37.1608 36.0161C37.3913 36.6117 37.7228 36.9191 38.1551 36.9384V37.2266C37.7708 37.1977 37.2568 37.1833 36.6132 37.1833C35.787 37.1833 35.1722 37.1977 34.7687 37.2266V36.9384C35.1337 36.9191 35.3931 36.8759 35.5468 36.8087C35.7102 36.7318 35.7918 36.5973 35.7918 36.4052C35.7918 36.2419 35.7342 36.0161 35.6189 35.7279L34.7399 33.3646H31.2526L30.6618 34.8921C30.4697 35.4109 30.3736 35.8048 30.3736 36.0738C30.3736 36.3716 30.4745 36.5877 30.6762 36.7222C30.8876 36.8567 31.2046 36.9288 31.6273 36.9384V37.2266C31.0797 37.1977 30.5273 37.1833 29.9701 37.1833C29.5378 37.1833 29.1775 37.1977 28.8893 37.2266V36.9384C29.3697 36.8231 29.7492 36.4052 30.0277 35.6847L33.4141 26.9521H33.6447L37.1608 36.0161ZM34.6246 33.0764L33.0106 28.7678L31.3679 33.0764H34.6246ZM35.0569 23.8828C35.2106 23.7867 35.3547 23.7387 35.4892 23.7387C35.6717 23.7387 35.8206 23.8203 35.9359 23.9836C35.9936 24.0701 36.0224 24.1614 36.0224 24.2574C36.0224 24.4688 35.8927 24.6561 35.6333 24.8194C35.4316 24.9443 35.0857 25.098 34.5958 25.2805C33.8753 25.5687 33.2556 25.8425 32.7369 26.1019L32.636 25.9146C33.0299 25.6168 33.3661 25.343 33.6447 25.0932C33.9329 24.8338 34.1106 24.6753 34.1779 24.6177C34.5333 24.2814 34.8263 24.0365 35.0569 23.8828ZM47.7059 27.3124C47.3697 27.3316 47.1199 27.3844 46.9566 27.4709C46.7933 27.5477 46.6828 27.6822 46.6251 27.8744C46.5675 28.0569 46.5387 28.3307 46.5387 28.6958V37.2986H46.2072L40.155 27.9464V35.555C40.155 35.9296 40.1838 36.2082 40.2414 36.3908C40.3087 36.5733 40.4336 36.7078 40.6161 36.7943C40.7986 36.8711 41.082 36.9191 41.4663 36.9384V37.2266C41.1205 37.1977 40.6305 37.1833 39.9965 37.1833C39.4201 37.1833 38.9733 37.1977 38.6563 37.2266V36.9384C38.9926 36.9191 39.2423 36.8711 39.4057 36.7943C39.569 36.7078 39.6794 36.5733 39.7371 36.3908C39.7947 36.1986 39.8235 35.92 39.8235 35.555V28.5516C39.8235 28.1866 39.7947 27.9224 39.7371 27.7591C39.6794 27.5958 39.569 27.4853 39.4057 27.4277C39.2519 27.37 39.0022 27.3316 38.6563 27.3124V27.0242C38.9733 27.053 39.4201 27.0674 39.9965 27.0674C40.4288 27.0674 40.8034 27.053 41.1205 27.0242L46.2072 34.8633V28.6958C46.2072 28.3211 46.1736 28.0425 46.1064 27.86C46.0487 27.6774 45.9287 27.5477 45.7461 27.4709C45.5636 27.3844 45.2802 27.3316 44.8959 27.3124V27.0242C45.2418 27.053 45.7317 27.0674 46.3658 27.0674C46.9422 27.0674 47.3889 27.053 47.7059 27.0242V27.3124ZM58.7943 27.3124C58.4485 27.3316 58.1939 27.37 58.0306 27.4277C57.8769 27.4853 57.7712 27.5958 57.7136 27.7591C57.6559 27.9224 57.6271 28.1866 57.6271 28.5516V35.6991C57.6271 36.0641 57.6559 36.3283 57.7136 36.4916C57.7712 36.655 57.8769 36.7654 58.0306 36.8231C58.1939 36.8807 58.4485 36.9191 58.7943 36.9384V37.2266C58.3909 37.1977 57.776 37.1833 56.9498 37.1833C56.1717 37.1833 55.5617 37.1977 55.1198 37.2266V36.9384C55.4656 36.9191 55.7154 36.8807 55.8691 36.8231C56.0324 36.7654 56.1429 36.655 56.2005 36.4916C56.2582 36.3283 56.287 36.0641 56.287 35.6991V32.2406H51.6037V35.6991C51.6037 36.0641 51.6325 36.3283 51.6901 36.4916C51.7478 36.655 51.8535 36.7654 52.0072 36.8231C52.1705 36.8807 52.4251 36.9191 52.7709 36.9384V37.2266C52.329 37.1977 51.719 37.1833 50.9408 37.1833C50.1146 37.1833 49.4998 37.1977 49.0963 37.2266V36.9384C49.4422 36.9191 49.6919 36.8807 49.8456 36.8231C50.009 36.7654 50.1194 36.655 50.1771 36.4916C50.2347 36.3283 50.2635 36.0641 50.2635 35.6991V28.5516C50.2635 28.1866 50.2347 27.9224 50.1771 27.7591C50.1194 27.5958 50.009 27.4853 49.8456 27.4277C49.6919 27.37 49.4422 27.3316 49.0963 27.3124V27.0242C49.4998 27.053 50.1146 27.0674 50.9408 27.0674C51.7093 27.0674 52.3194 27.053 52.7709 27.0242V27.3124C52.4251 27.3316 52.1705 27.37 52.0072 27.4277C51.8535 27.4853 51.7478 27.5958 51.6901 27.7591C51.6325 27.9224 51.6037 28.1866 51.6037 28.5516V31.9524H56.287V28.5516C56.287 28.1866 56.2582 27.9224 56.2005 27.7591C56.1429 27.5958 56.0324 27.4853 55.8691 27.4277C55.7154 27.37 55.4656 27.3316 55.1198 27.3124V27.0242C55.5617 27.053 56.1717 27.0674 56.9498 27.0674C57.776 27.0674 58.3909 27.053 58.7943 27.0242V27.3124Z"/>
</mask>
<path d="M23.9218 22.0593C24.0851 22.2995 24.2628 22.4916 24.455 22.6357C24.6567 22.7702 24.9017 22.8711 25.1899 22.9384V23.2266C24.7288 23.1977 24.1524 23.1833 23.4607 23.1833C22.9419 23.1833 22.4472 23.1977 21.9764 23.2266V22.9384C22.207 22.9288 22.3751 22.8999 22.4808 22.8519C22.5865 22.8039 22.6393 22.7318 22.6393 22.6357C22.6393 22.5397 22.5913 22.4244 22.4952 22.2899L20.3913 19.1197C20.1127 18.697 19.8773 18.4232 19.6852 18.2983C19.4931 18.1638 19.2241 18.0869 18.8782 18.0677V21.6991C18.8782 22.0641 18.9071 22.3283 18.9647 22.4916C19.0223 22.655 19.128 22.7654 19.2817 22.8231C19.445 22.8807 19.6996 22.9191 20.0455 22.9384V23.2266C19.6036 23.1977 18.9935 23.1833 18.2154 23.1833C17.3892 23.1833 16.7744 23.1977 16.3709 23.2266V22.9384C16.7167 22.9191 16.9665 22.8807 17.1202 22.8231C17.2835 22.7654 17.394 22.655 17.4516 22.4916C17.5093 22.3283 17.5381 22.0641 17.5381 21.6991V14.5516C17.5381 14.1866 17.5093 13.9224 17.4516 13.7591C17.394 13.5958 17.2835 13.4853 17.1202 13.4277C16.9665 13.37 16.7167 13.3316 16.3709 13.3124V13.0242C16.7744 13.053 17.3892 13.0674 18.2154 13.0674C18.9839 13.0674 19.5939 13.053 20.0455 13.0242V13.3124C19.6996 13.3316 19.445 13.37 19.2817 13.4277C19.128 13.4853 19.0223 13.5958 18.9647 13.7591C18.9071 13.9224 18.8782 14.1866 18.8782 14.5516V17.7795C19.5795 17.7507 20.1271 17.4817 20.521 16.9726L21.9044 15.2145C22.3943 14.6093 22.6393 14.1482 22.6393 13.8311C22.6393 13.4949 22.3415 13.322 21.7459 13.3124V13.0242C22.2934 13.053 22.8458 13.0674 23.403 13.0674C23.9314 13.0674 24.3397 13.053 24.6279 13.0242V13.3124C24.3109 13.3604 24.0131 13.4661 23.7345 13.6294C23.4559 13.7831 23.1869 14.0281 22.9275 14.3643L20.5786 17.376L23.9218 22.0593ZM29.7537 13.3124C29.4078 13.3316 29.1533 13.37 28.9899 13.4277C28.8362 13.4853 28.7306 13.5958 28.6729 13.7591C28.6153 13.9224 28.5865 14.1866 28.5865 14.5516V21.6991C28.5865 22.0641 28.6153 22.3283 28.6729 22.4916C28.7306 22.655 28.8362 22.7654 28.9899 22.8231C29.1533 22.8807 29.4078 22.9191 29.7537 22.9384V23.2266C29.3118 23.1977 28.7017 23.1833 27.9236 23.1833C27.0974 23.1833 26.4826 23.1977 26.0791 23.2266V22.9384C26.4249 22.9191 26.6747 22.8807 26.8284 22.8231C26.9917 22.7654 27.1022 22.655 27.1598 22.4916C27.2175 22.3283 27.2463 22.0641 27.2463 21.6991V14.5516C27.2463 14.1866 27.2175 13.9224 27.1598 13.7591C27.1022 13.5958 26.9917 13.4853 26.8284 13.4277C26.6747 13.37 26.4249 13.3316 26.0791 13.3124V13.0242C26.4826 13.053 27.0974 13.0674 27.9236 13.0674C28.6921 13.0674 29.3022 13.053 29.7537 13.0242V13.3124ZM40.2774 13.3124C39.9412 13.3316 39.6914 13.3844 39.5281 13.4709C39.3648 13.5477 39.2543 13.6822 39.1967 13.8744C39.139 14.0569 39.1102 14.3307 39.1102 14.6958V23.2986H38.7788L32.7265 13.9464V21.555C32.7265 21.9296 32.7553 22.2082 32.813 22.3908C32.8802 22.5733 33.0051 22.7078 33.1876 22.7943C33.3702 22.8711 33.6536 22.9191 34.0378 22.9384V23.2266C33.692 23.1977 33.202 23.1833 32.568 23.1833C31.9916 23.1833 31.5449 23.1977 31.2278 23.2266V22.9384C31.5641 22.9191 31.8139 22.8711 31.9772 22.7943C32.1405 22.7078 32.251 22.5733 32.3086 22.3908C32.3662 22.1986 32.3951 21.92 32.3951 21.555V14.5516C32.3951 14.1866 32.3662 13.9224 32.3086 13.7591C32.251 13.5958 32.1405 13.4853 31.9772 13.4277C31.8235 13.37 31.5737 13.3316 31.2278 13.3124V13.0242C31.5449 13.053 31.9916 13.0674 32.568 13.0674C33.0003 13.0674 33.375 13.053 33.692 13.0242L38.7788 20.8633V14.6958C38.7788 14.3211 38.7451 14.0425 38.6779 13.86C38.6203 13.6774 38.5002 13.5477 38.3176 13.4709C38.1351 13.3844 37.8517 13.3316 37.4674 13.3124V13.0242C37.8133 13.053 38.3032 13.0674 38.9373 13.0674C39.5137 13.0674 39.9604 13.053 40.2774 13.0242V13.3124ZM51.3659 13.3124C51.02 13.3316 50.7654 13.37 50.6021 13.4277C50.4484 13.4853 50.3427 13.5958 50.2851 13.7591C50.2275 13.9224 50.1986 14.1866 50.1986 14.5516V21.6991C50.1986 22.0641 50.2275 22.3283 50.2851 22.4916C50.3427 22.655 50.4484 22.7654 50.6021 22.8231C50.7654 22.8807 51.02 22.9191 51.3659 22.9384V23.2266C50.9624 23.1977 50.3475 23.1833 49.5214 23.1833C48.7432 23.1833 48.1332 23.1977 47.6913 23.2266V22.9384C48.0371 22.9191 48.2869 22.8807 48.4406 22.8231C48.6039 22.7654 48.7144 22.655 48.772 22.4916C48.8297 22.3283 48.8585 22.0641 48.8585 21.6991V18.2406H44.1752V21.6991C44.1752 22.0641 44.204 22.3283 44.2616 22.4916C44.3193 22.655 44.425 22.7654 44.5787 22.8231C44.742 22.8807 44.9966 22.9191 45.3424 22.9384V23.2266C44.9005 23.1977 44.2905 23.1833 43.5123 23.1833C42.6861 23.1833 42.0713 23.1977 41.6678 23.2266V22.9384C42.0137 22.9191 42.2634 22.8807 42.4171 22.8231C42.5805 22.7654 42.6909 22.655 42.7486 22.4916C42.8062 22.3283 42.835 22.0641 42.835 21.6991V14.5516C42.835 14.1866 42.8062 13.9224 42.7486 13.7591C42.6909 13.5958 42.5805 13.4853 42.4171 13.4277C42.2634 13.37 42.0137 13.3316 41.6678 13.3124V13.0242C42.0713 13.053 42.6861 13.0674 43.5123 13.0674C44.2809 13.0674 44.8909 13.053 45.3424 13.0242V13.3124C44.9966 13.3316 44.742 13.37 44.5787 13.4277C44.425 13.4853 44.3193 13.5958 44.2616 13.7591C44.204 13.9224 44.1752 14.1866 44.1752 14.5516V17.9524H48.8585V14.5516C48.8585 14.1866 48.8297 13.9224 48.772 13.7591C48.7144 13.5958 48.6039 13.4853 48.4406 13.4277C48.2869 13.37 48.0371 13.3316 47.6913 13.3124V13.0242C48.1332 13.053 48.7432 13.0674 49.5214 13.0674C50.3475 13.0674 50.9624 13.053 51.3659 13.0242V13.3124ZM17.1336 27.0242C17.0664 27.7063 17.0327 28.3211 17.0327 28.8687C17.0327 29.349 17.0471 29.7429 17.076 30.0503H16.7445C16.6677 29.3106 16.5716 28.763 16.4563 28.4075C16.341 28.0425 16.1393 27.7783 15.8511 27.615C15.5629 27.4421 15.121 27.3556 14.5254 27.3556H13.7472V35.555C13.7472 35.9585 13.7856 36.2515 13.8625 36.434C13.9393 36.6165 14.0738 36.7414 14.266 36.8087C14.4581 36.8759 14.7703 36.9191 15.2026 36.9384V37.2266C14.7031 37.1977 13.997 37.1833 13.0843 37.1833C12.1237 37.1833 11.4128 37.1977 10.9516 37.2266V36.9384C11.3839 36.9191 11.6962 36.8759 11.8883 36.8087C12.0804 36.7414 12.2149 36.6165 12.2918 36.434C12.3686 36.2515 12.4071 35.9585 12.4071 35.555V27.3556H11.6289C11.0333 27.3556 10.5914 27.4421 10.3032 27.615C10.015 27.7783 9.81324 28.0425 9.69796 28.4075C9.58268 28.763 9.48661 29.3106 9.40976 30.0503H9.07832C9.10714 29.7429 9.12155 29.349 9.12155 28.8687C9.12155 28.3211 9.08793 27.7063 9.02068 27.0242C9.81804 27.053 11.1726 27.0674 13.0843 27.0674C14.9865 27.0674 16.3362 27.053 17.1336 27.0242ZM28.1217 27.3124C27.7759 27.3316 27.5213 27.37 27.358 27.4277C27.2043 27.4853 27.0986 27.5958 27.041 27.7591C26.9833 27.9224 26.9545 28.1866 26.9545 28.5516V35.6991C26.9545 36.0641 26.9833 36.3283 27.041 36.4916C27.0986 36.655 27.2043 36.7654 27.358 36.8231C27.5213 36.8807 27.7759 36.9191 28.1217 36.9384V37.2266C27.7182 37.1977 27.1034 37.1833 26.2772 37.1833C25.4991 37.1833 24.8891 37.1977 24.4471 37.2266V36.9384C24.793 36.9191 25.0428 36.8807 25.1965 36.8231C25.3598 36.7654 25.4703 36.655 25.5279 36.4916C25.5855 36.3283 25.6144 36.0641 25.6144 35.6991V32.2406H20.9311V35.6991C20.9311 36.0641 20.9599 36.3283 21.0175 36.4916C21.0752 36.655 21.1808 36.7654 21.3345 36.8231C21.4979 36.8807 21.7524 36.9191 22.0983 36.9384V37.2266C21.6564 37.1977 21.0463 37.1833 20.2682 37.1833C19.442 37.1833 18.8272 37.1977 18.4237 37.2266V36.9384C18.7695 36.9191 19.0193 36.8807 19.173 36.8231C19.3363 36.7654 19.4468 36.655 19.5045 36.4916C19.5621 36.3283 19.5909 36.0641 19.5909 35.6991V28.5516C19.5909 28.1866 19.5621 27.9224 19.5045 27.7591C19.4468 27.5958 19.3363 27.4853 19.173 27.4277C19.0193 27.37 18.7695 27.3316 18.4237 27.3124V27.0242C18.8272 27.053 19.442 27.0674 20.2682 27.0674C21.0367 27.0674 21.6468 27.053 22.0983 27.0242V27.3124C21.7524 27.3316 21.4979 27.37 21.3345 27.4277C21.1808 27.4853 21.0752 27.5958 21.0175 27.7591C20.9599 27.9224 20.9311 28.1866 20.9311 28.5516V31.9524H25.6144V28.5516C25.6144 28.1866 25.5855 27.9224 25.5279 27.7591C25.4703 27.5958 25.3598 27.4853 25.1965 27.4277C25.0428 27.37 24.793 27.3316 24.4471 27.3124V27.0242C24.8891 27.053 25.4991 27.0674 26.2772 27.0674C27.1034 27.0674 27.7182 27.053 28.1217 27.0242V27.3124ZM37.1608 36.0161C37.3913 36.6117 37.7228 36.9191 38.1551 36.9384V37.2266C37.7708 37.1977 37.2568 37.1833 36.6132 37.1833C35.787 37.1833 35.1722 37.1977 34.7687 37.2266V36.9384C35.1337 36.9191 35.3931 36.8759 35.5468 36.8087C35.7102 36.7318 35.7918 36.5973 35.7918 36.4052C35.7918 36.2419 35.7342 36.0161 35.6189 35.7279L34.7399 33.3646H31.2526L30.6618 34.8921C30.4697 35.4109 30.3736 35.8048 30.3736 36.0738C30.3736 36.3716 30.4745 36.5877 30.6762 36.7222C30.8876 36.8567 31.2046 36.9288 31.6273 36.9384V37.2266C31.0797 37.1977 30.5273 37.1833 29.9701 37.1833C29.5378 37.1833 29.1775 37.1977 28.8893 37.2266V36.9384C29.3697 36.8231 29.7492 36.4052 30.0277 35.6847L33.4141 26.9521H33.6447L37.1608 36.0161ZM34.6246 33.0764L33.0106 28.7678L31.3679 33.0764H34.6246ZM35.0569 23.8828C35.2106 23.7867 35.3547 23.7387 35.4892 23.7387C35.6717 23.7387 35.8206 23.8203 35.9359 23.9836C35.9936 24.0701 36.0224 24.1614 36.0224 24.2574C36.0224 24.4688 35.8927 24.6561 35.6333 24.8194C35.4316 24.9443 35.0857 25.098 34.5958 25.2805C33.8753 25.5687 33.2556 25.8425 32.7369 26.1019L32.636 25.9146C33.0299 25.6168 33.3661 25.343 33.6447 25.0932C33.9329 24.8338 34.1106 24.6753 34.1779 24.6177C34.5333 24.2814 34.8263 24.0365 35.0569 23.8828ZM47.7059 27.3124C47.3697 27.3316 47.1199 27.3844 46.9566 27.4709C46.7933 27.5477 46.6828 27.6822 46.6251 27.8744C46.5675 28.0569 46.5387 28.3307 46.5387 28.6958V37.2986H46.2072L40.155 27.9464V35.555C40.155 35.9296 40.1838 36.2082 40.2414 36.3908C40.3087 36.5733 40.4336 36.7078 40.6161 36.7943C40.7986 36.8711 41.082 36.9191 41.4663 36.9384V37.2266C41.1205 37.1977 40.6305 37.1833 39.9965 37.1833C39.4201 37.1833 38.9733 37.1977 38.6563 37.2266V36.9384C38.9926 36.9191 39.2423 36.8711 39.4057 36.7943C39.569 36.7078 39.6794 36.5733 39.7371 36.3908C39.7947 36.1986 39.8235 35.92 39.8235 35.555V28.5516C39.8235 28.1866 39.7947 27.9224 39.7371 27.7591C39.6794 27.5958 39.569 27.4853 39.4057 27.4277C39.2519 27.37 39.0022 27.3316 38.6563 27.3124V27.0242C38.9733 27.053 39.4201 27.0674 39.9965 27.0674C40.4288 27.0674 40.8034 27.053 41.1205 27.0242L46.2072 34.8633V28.6958C46.2072 28.3211 46.1736 28.0425 46.1064 27.86C46.0487 27.6774 45.9287 27.5477 45.7461 27.4709C45.5636 27.3844 45.2802 27.3316 44.8959 27.3124V27.0242C45.2418 27.053 45.7317 27.0674 46.3658 27.0674C46.9422 27.0674 47.3889 27.053 47.7059 27.0242V27.3124ZM58.7943 27.3124C58.4485 27.3316 58.1939 27.37 58.0306 27.4277C57.8769 27.4853 57.7712 27.5958 57.7136 27.7591C57.6559 27.9224 57.6271 28.1866 57.6271 28.5516V35.6991C57.6271 36.0641 57.6559 36.3283 57.7136 36.4916C57.7712 36.655 57.8769 36.7654 58.0306 36.8231C58.1939 36.8807 58.4485 36.9191 58.7943 36.9384V37.2266C58.3909 37.1977 57.776 37.1833 56.9498 37.1833C56.1717 37.1833 55.5617 37.1977 55.1198 37.2266V36.9384C55.4656 36.9191 55.7154 36.8807 55.8691 36.8231C56.0324 36.7654 56.1429 36.655 56.2005 36.4916C56.2582 36.3283 56.287 36.0641 56.287 35.6991V32.2406H51.6037V35.6991C51.6037 36.0641 51.6325 36.3283 51.6901 36.4916C51.7478 36.655 51.8535 36.7654 52.0072 36.8231C52.1705 36.8807 52.4251 36.9191 52.7709 36.9384V37.2266C52.329 37.1977 51.719 37.1833 50.9408 37.1833C50.1146 37.1833 49.4998 37.1977 49.0963 37.2266V36.9384C49.4422 36.9191 49.6919 36.8807 49.8456 36.8231C50.009 36.7654 50.1194 36.655 50.1771 36.4916C50.2347 36.3283 50.2635 36.0641 50.2635 35.6991V28.5516C50.2635 28.1866 50.2347 27.9224 50.1771 27.7591C50.1194 27.5958 50.009 27.4853 49.8456 27.4277C49.6919 27.37 49.4422 27.3316 49.0963 27.3124V27.0242C49.4998 27.053 50.1146 27.0674 50.9408 27.0674C51.7093 27.0674 52.3194 27.053 52.7709 27.0242V27.3124C52.4251 27.3316 52.1705 27.37 52.0072 27.4277C51.8535 27.4853 51.7478 27.5958 51.6901 27.7591C51.6325 27.9224 51.6037 28.1866 51.6037 28.5516V31.9524H56.287V28.5516C56.287 28.1866 56.2582 27.9224 56.2005 27.7591C56.1429 27.5958 56.0324 27.4853 55.8691 27.4277C55.7154 27.37 55.4656 27.3316 55.1198 27.3124V27.0242C55.5617 27.053 56.1717 27.0674 56.9498 27.0674C57.776 27.0674 58.3909 27.053 58.7943 27.0242V27.3124Z" fill="#FEF5EB"/>
<path d="M23.9218 22.0593L24.0895 21.9453L24.0868 21.9415L23.9218 22.0593ZM24.455 22.6357L24.3331 22.7982L24.3425 22.8044L24.455 22.6357ZM25.1899 22.9384H25.3926V22.7775L25.236 22.7409L25.1899 22.9384ZM25.1899 23.2266L25.1772 23.4289L25.3926 23.4424V23.2266H25.1899ZM21.9764 23.2266H21.7737V23.4421L21.9888 23.4289L21.9764 23.2266ZM21.9764 22.9384L21.968 22.7358L21.7737 22.7439V22.9384H21.9764ZM22.4808 22.8519L22.5647 23.0365V23.0365L22.4808 22.8519ZM22.4952 22.2899L22.3262 22.4021L22.3302 22.4077L22.4952 22.2899ZM20.3913 19.1197L20.222 19.2312L20.2224 19.2318L20.3913 19.1197ZM19.6852 18.2983L19.5689 18.4645L19.5747 18.4683L19.6852 18.2983ZM18.8782 18.0677L18.8895 17.8653L18.6755 17.8534V18.0677H18.8782ZM18.9647 22.4916L19.1559 22.4242V22.4242L18.9647 22.4916ZM19.2817 22.8231L19.2105 23.0129L19.2142 23.0143L19.2817 22.8231ZM20.0455 22.9384H20.2482V22.7466L20.0567 22.7359L20.0455 22.9384ZM20.0455 23.2266L20.0323 23.4289L20.2482 23.443V23.2266H20.0455ZM16.3709 23.2266H16.1681V23.4443L16.3853 23.4288L16.3709 23.2266ZM16.3709 22.9384L16.3596 22.7359L16.1681 22.7466V22.9384H16.3709ZM17.1202 22.8231L17.0527 22.6319L17.049 22.6333L17.1202 22.8231ZM17.4516 13.7591L17.2605 13.8266V13.8266L17.4516 13.7591ZM17.1202 13.4277L17.049 13.6175L17.0527 13.6188L17.1202 13.4277ZM16.3709 13.3124H16.1681V13.5042L16.3596 13.5148L16.3709 13.3124ZM16.3709 13.0242L16.3853 12.822L16.1681 12.8064V13.0242H16.3709ZM20.0455 13.0242H20.2482V12.8081L20.0325 12.8218L20.0455 13.0242ZM20.0455 13.3124L20.0567 13.5148L20.2482 13.5042V13.3124H20.0455ZM19.2817 13.4277L19.2142 13.2364L19.2105 13.2378L19.2817 13.4277ZM18.9647 13.7591L19.1559 13.8266V13.8266L18.9647 13.7591ZM18.8782 17.7795H18.6755V17.9908L18.8866 17.9821L18.8782 17.7795ZM20.521 16.9726L20.3617 16.8472L20.3606 16.8485L20.521 16.9726ZM21.9044 15.2145L21.7468 15.0869L21.745 15.0891L21.9044 15.2145ZM21.7459 13.3124H21.5431V13.5119L21.7426 13.5151L21.7459 13.3124ZM21.7459 13.0242L21.7565 12.8217L21.5431 12.8105V13.0242H21.7459ZM24.6279 13.0242H24.8306V12.8002L24.6077 12.8224L24.6279 13.0242ZM24.6279 13.3124L24.6583 13.5128L24.8306 13.4867V13.3124H24.6279ZM23.7345 13.6294L23.8324 13.807L23.837 13.8043L23.7345 13.6294ZM22.9275 14.3643L23.0874 14.489L23.088 14.4882L22.9275 14.3643ZM20.5786 17.376L20.4188 17.2514L20.3257 17.3707L20.4136 17.4938L20.5786 17.376ZM23.7541 22.1733C23.9275 22.4283 24.12 22.6379 24.3333 22.7979L24.5766 22.4736C24.4057 22.3453 24.2427 22.1708 24.0894 21.9453L23.7541 22.1733ZM24.3425 22.8044C24.5684 22.955 24.837 23.0642 25.1438 23.1358L25.236 22.7409C24.9664 22.678 24.745 22.5855 24.5674 22.4671L24.3425 22.8044ZM24.9872 22.9384V23.2266H25.3926V22.9384H24.9872ZM25.2025 23.0242C24.7357 22.995 24.1547 22.9806 23.4607 22.9806V23.3861C24.15 23.3861 24.7218 23.4004 25.1772 23.4289L25.2025 23.0242ZM23.4607 22.9806C22.9382 22.9806 22.4393 22.9951 21.964 23.0242L21.9888 23.4289C22.455 23.4004 22.9456 23.3861 23.4607 23.3861V22.9806ZM22.1792 23.2266V22.9384H21.7737V23.2266H22.1792ZM21.9849 23.1409C22.2209 23.1311 22.4218 23.1014 22.5647 23.0365L22.3969 22.6673C22.3284 22.6984 22.1931 22.7264 21.968 22.7358L21.9849 23.1409ZM22.5647 23.0365C22.6399 23.0023 22.7109 22.9529 22.7631 22.8817C22.817 22.8083 22.842 22.7235 22.842 22.6357H22.4366C22.4366 22.641 22.4359 22.6429 22.436 22.6425C22.4361 22.642 22.4364 22.6416 22.4362 22.6419C22.4356 22.6428 22.4273 22.6535 22.3969 22.6673L22.5647 23.0365ZM22.842 22.6357C22.842 22.4766 22.765 22.3188 22.6602 22.1721L22.3302 22.4077C22.4175 22.53 22.4366 22.6028 22.4366 22.6357H22.842ZM22.6641 22.1778L20.5602 19.0076L20.2224 19.2318L22.3263 22.402L22.6641 22.1778ZM20.5606 19.0081C20.2808 18.5836 20.026 18.278 19.7957 18.1283L19.5747 18.4683C19.7287 18.5684 19.9446 18.8104 20.222 19.2312L20.5606 19.0081ZM19.8015 18.1322C19.567 17.9681 19.2562 17.8857 18.8895 17.8653L18.867 18.2702C19.192 18.2882 19.4192 18.3595 19.5689 18.4644L19.8015 18.1322ZM18.6755 18.0677V21.6991H19.081V18.0677H18.6755ZM18.6755 21.6991C18.6755 22.0674 18.7037 22.3612 18.7735 22.5591L19.1559 22.4242C19.1105 22.2955 19.081 22.0609 19.081 21.6991H18.6755ZM18.7735 22.5591C18.8499 22.7754 18.9973 22.9329 19.2105 23.0129L19.3529 22.6333C19.2588 22.5979 19.1948 22.5345 19.1559 22.4242L18.7735 22.5591ZM19.2142 23.0143C19.4059 23.0819 19.6843 23.1213 20.0342 23.1408L20.0567 22.7359C19.7149 22.7169 19.4842 22.6795 19.3492 22.6319L19.2142 23.0143ZM19.8427 22.9384V23.2266H20.2482V22.9384H19.8427ZM20.0587 23.0243C19.6103 22.995 18.9952 22.9806 18.2154 22.9806V23.3861C18.9919 23.3861 19.5968 23.4005 20.0323 23.4289L20.0587 23.0243ZM18.2154 22.9806C17.3882 22.9806 16.7675 22.995 16.3564 23.0243L16.3853 23.4288C16.7813 23.4005 17.3901 23.3861 18.2154 23.3861V22.9806ZM16.5736 23.2266V22.9384H16.1681V23.2266H16.5736ZM16.3821 23.1408C16.7309 23.1214 17.007 23.0821 17.1914 23.0129L17.049 22.6333C16.926 22.6794 16.7025 22.7169 16.3596 22.7359L16.3821 23.1408ZM17.1877 23.0143C17.4088 22.9362 17.5648 22.7803 17.6428 22.5591L17.2605 22.4242C17.2232 22.5297 17.1582 22.5947 17.0527 22.6319L17.1877 23.0143ZM17.6428 22.5591C17.7127 22.3612 17.7408 22.0674 17.7408 21.6991H17.3354C17.3354 22.0609 17.3059 22.2955 17.2605 22.4242L17.6428 22.5591ZM17.7408 21.6991V14.5516H17.3354V21.6991H17.7408ZM17.7408 14.5516C17.7408 14.1833 17.7127 13.8896 17.6428 13.6916L17.2605 13.8266C17.3059 13.9553 17.3354 14.1899 17.3354 14.5516H17.7408ZM17.6428 13.6916C17.5648 13.4705 17.4088 13.3145 17.1877 13.2365L17.0527 13.6188C17.1582 13.6561 17.2232 13.7211 17.2605 13.8266L17.6428 13.6916ZM17.1914 13.2378C17.007 13.1687 16.7309 13.1293 16.3821 13.11L16.3596 13.5148C16.7025 13.5338 16.926 13.5714 17.049 13.6175L17.1914 13.2378ZM16.5736 13.3124V13.0242H16.1681V13.3124H16.5736ZM16.3564 13.2264C16.7675 13.2558 17.3882 13.2701 18.2154 13.2701V12.8647C17.3901 12.8647 16.7813 12.8502 16.3853 12.822L16.3564 13.2264ZM18.2154 13.2701C18.9857 13.2701 19.6006 13.2557 20.0584 13.2265L20.0325 12.8218C19.5873 12.8503 18.9821 12.8647 18.2154 12.8647V13.2701ZM19.8427 13.0242V13.3124H20.2482V13.0242H19.8427ZM20.0342 13.11C19.6843 13.1294 19.4059 13.1688 19.2142 13.2365L19.3492 13.6188C19.4842 13.5712 19.7149 13.5338 20.0567 13.5148L20.0342 13.11ZM19.2105 13.2378C18.9973 13.3178 18.8499 13.4753 18.7735 13.6916L19.1559 13.8266C19.1948 13.7162 19.2588 13.6528 19.3529 13.6175L19.2105 13.2378ZM18.7735 13.6916C18.7037 13.8896 18.6755 14.1833 18.6755 14.5516H19.081C19.081 14.1899 19.1105 13.9553 19.1559 13.8266L18.7735 13.6916ZM18.6755 14.5516V17.7795H19.081V14.5516H18.6755ZM18.8866 17.9821C19.6415 17.9511 20.2473 17.6577 20.6814 17.0966L20.3606 16.8485C20.007 17.3057 19.5176 17.5503 18.8699 17.577L18.8866 17.9821ZM20.6803 17.0979L22.0637 15.3399L21.745 15.0891L20.3617 16.8472L20.6803 17.0979ZM22.0619 15.3421C22.3115 15.0338 22.5038 14.756 22.6346 14.5099C22.7637 14.2668 22.842 14.0377 22.842 13.8311H22.4366C22.4366 13.9416 22.3924 14.1016 22.2765 14.3196C22.1623 14.5346 21.9872 14.79 21.7468 15.087L22.0619 15.3421ZM22.842 13.8311C22.842 13.5886 22.7273 13.3956 22.5177 13.2739C22.3243 13.1616 22.0596 13.1147 21.7491 13.1097L21.7426 13.5151C22.0278 13.5197 22.2097 13.564 22.3141 13.6246C22.4024 13.6759 22.4366 13.7374 22.4366 13.8311H22.842ZM21.9486 13.3124V13.0242H21.5431V13.3124H21.9486ZM21.7352 13.2266C22.2864 13.2556 22.8423 13.2701 23.403 13.2701V12.8647C22.8493 12.8647 22.3005 12.8503 21.7565 12.8217L21.7352 13.2266ZM23.403 13.2701C23.9336 13.2701 24.3498 13.2557 24.6481 13.2259L24.6077 12.8224C24.3296 12.8503 23.9292 12.8647 23.403 12.8647V13.2701ZM24.4252 13.0242V13.3124H24.8306V13.0242H24.4252ZM24.5975 13.1119C24.2549 13.1638 23.9326 13.2783 23.6319 13.4545L23.837 13.8043C24.0935 13.6539 24.3669 13.557 24.6583 13.5128L24.5975 13.1119ZM23.6365 13.4519C23.3269 13.6227 23.0379 13.8892 22.767 14.2405L23.088 14.4882C23.3358 14.1669 23.5848 13.9435 23.8324 13.8069L23.6365 13.4519ZM22.7676 14.2396L20.4188 17.2514L20.7385 17.5007L23.0874 14.489L22.7676 14.2396ZM20.4136 17.4938L23.7568 22.1771L24.0868 21.9415L20.7436 17.2582L20.4136 17.4938ZM29.7537 13.3124L29.7649 13.5148L29.9564 13.5042V13.3124H29.7537ZM28.9899 13.4277L28.9225 13.2364L28.9188 13.2378L28.9899 13.4277ZM28.6729 13.7591L28.8641 13.8266V13.8266L28.6729 13.7591ZM28.6729 22.4916L28.8641 22.4242V22.4242L28.6729 22.4916ZM28.9899 22.8231L28.9187 23.0129L28.9225 23.0143L28.9899 22.8231ZM29.7537 22.9384H29.9564V22.7466L29.7649 22.7359L29.7537 22.9384ZM29.7537 23.2266L29.7405 23.4289L29.9564 23.443V23.2266H29.7537ZM26.0791 23.2266H25.8764V23.4443L26.0935 23.4288L26.0791 23.2266ZM26.0791 22.9384L26.0678 22.7359L25.8764 22.7466V22.9384H26.0791ZM26.8284 22.8231L26.7609 22.6319L26.7572 22.6333L26.8284 22.8231ZM27.1598 13.7591L26.9687 13.8266L26.9687 13.8266L27.1598 13.7591ZM26.8284 13.4277L26.7572 13.6175L26.7609 13.6188L26.8284 13.4277ZM26.0791 13.3124H25.8764V13.5042L26.0678 13.5148L26.0791 13.3124ZM26.0791 13.0242L26.0935 12.822L25.8764 12.8064V13.0242H26.0791ZM29.7537 13.0242H29.9564V12.8081L29.7408 12.8218L29.7537 13.0242ZM29.7424 13.11C29.3925 13.1294 29.1141 13.1688 28.9225 13.2365L29.0574 13.6188C29.1924 13.5712 29.4231 13.5338 29.7649 13.5148L29.7424 13.11ZM28.9188 13.2378C28.7055 13.3178 28.5581 13.4753 28.4817 13.6916L28.8641 13.8266C28.903 13.7162 28.967 13.6528 29.0611 13.6175L28.9188 13.2378ZM28.4817 13.6916C28.4119 13.8896 28.3837 14.1833 28.3837 14.5516H28.7892C28.7892 14.1899 28.8187 13.9553 28.8641 13.8266L28.4817 13.6916ZM28.3837 14.5516V21.6991H28.7892V14.5516H28.3837ZM28.3837 21.6991C28.3837 22.0674 28.4119 22.3612 28.4817 22.5591L28.8641 22.4242C28.8187 22.2955 28.7892 22.0609 28.7892 21.6991H28.3837ZM28.4817 22.5591C28.5581 22.7754 28.7055 22.9329 28.9188 23.0129L29.0611 22.6333C28.967 22.5979 28.903 22.5345 28.8641 22.4242L28.4817 22.5591ZM28.9225 23.0143C29.1141 23.0819 29.3925 23.1213 29.7424 23.1408L29.7649 22.7359C29.4231 22.7169 29.1924 22.6795 29.0574 22.6319L28.9225 23.0143ZM29.5509 22.9384V23.2266H29.9564V22.9384H29.5509ZM29.7669 23.0243C29.3185 22.995 28.7034 22.9806 27.9236 22.9806V23.3861C28.7001 23.3861 29.305 23.4005 29.7405 23.4289L29.7669 23.0243ZM27.9236 22.9806C27.0965 22.9806 26.4757 22.995 26.0646 23.0243L26.0935 23.4288C26.4895 23.4005 27.0984 23.3861 27.9236 23.3861V22.9806ZM26.2818 23.2266V22.9384H25.8764V23.2266H26.2818ZM26.0903 23.1408C26.4392 23.1214 26.7152 23.0821 26.8996 23.0129L26.7572 22.6333C26.6342 22.6794 26.4107 22.7169 26.0678 22.7359L26.0903 23.1408ZM26.8959 23.0143C27.117 22.9362 27.273 22.7803 27.351 22.5591L26.9687 22.4242C26.9314 22.5297 26.8664 22.5947 26.7609 22.6319L26.8959 23.0143ZM27.351 22.5591C27.4209 22.3612 27.449 22.0674 27.449 21.6991H27.0436C27.0436 22.0609 27.0141 22.2955 26.9687 22.4242L27.351 22.5591ZM27.449 21.6991V14.5516H27.0436V21.6991H27.449ZM27.449 14.5516C27.449 14.1833 27.4209 13.8896 27.351 13.6916L26.9687 13.8266C27.0141 13.9553 27.0436 14.1899 27.0436 14.5516H27.449ZM27.351 13.6916C27.273 13.4705 27.117 13.3145 26.8959 13.2365L26.7609 13.6188C26.8664 13.6561 26.9314 13.7211 26.9687 13.8266L27.351 13.6916ZM26.8996 13.2378C26.7152 13.1687 26.4392 13.1293 26.0903 13.11L26.0678 13.5148C26.4107 13.5338 26.6342 13.5714 26.7572 13.6175L26.8996 13.2378ZM26.2818 13.3124V13.0242H25.8764V13.3124H26.2818ZM26.0646 13.2264C26.4757 13.2558 27.0965 13.2701 27.9236 13.2701V12.8647C27.0984 12.8647 26.4895 12.8502 26.0935 12.822L26.0646 13.2264ZM27.9236 13.2701C28.6939 13.2701 29.3088 13.2557 29.7666 13.2265L29.7408 12.8218C29.2955 12.8503 28.6903 12.8647 27.9236 12.8647V13.2701ZM29.5509 13.0242V13.3124H29.9564V13.0242H29.5509ZM40.2774 13.3124L40.289 13.5148L40.4802 13.5039V13.3124H40.2774ZM39.5281 13.4709L39.6145 13.6545L39.6229 13.6501L39.5281 13.4709ZM39.1967 13.8744L39.39 13.9354L39.3908 13.9326L39.1967 13.8744ZM39.1102 23.2986V23.5014H39.3129V23.2986H39.1102ZM38.7788 23.2986L38.6086 23.4088L38.6685 23.5014H38.7788V23.2986ZM32.7265 13.9464L32.8967 13.8363L32.5238 13.26V13.9464H32.7265ZM32.813 22.3908L32.6194 22.4519L32.6227 22.4609L32.813 22.3908ZM33.1876 22.7943L33.1007 22.9777L33.1089 22.9811L33.1876 22.7943ZM34.0378 22.9384H34.2406V22.7455L34.0479 22.7359L34.0378 22.9384ZM34.0378 23.2266L34.021 23.4286L34.2406 23.4469V23.2266H34.0378ZM31.2278 23.2266H31.0251V23.4486L31.2462 23.4285L31.2278 23.2266ZM31.2278 22.9384L31.2163 22.736L31.0251 22.7469V22.9384H31.2278ZM31.9772 22.7943L32.0636 22.9779L32.072 22.9734L31.9772 22.7943ZM32.3086 22.3908L32.502 22.4518L32.5028 22.449L32.3086 22.3908ZM32.3086 13.7591L32.1174 13.8266L32.1174 13.8266L32.3086 13.7591ZM31.9772 13.4277L31.906 13.6175L31.9097 13.6188L31.9772 13.4277ZM31.2278 13.3124H31.0251V13.5042L31.2166 13.5148L31.2278 13.3124ZM31.2278 13.0242L31.2462 12.8223L31.0251 12.8022V13.0242H31.2278ZM33.692 13.0242L33.862 12.9138L33.7955 12.8112L33.6736 12.8223L33.692 13.0242ZM38.7788 20.8633L38.6087 20.9737L38.9815 21.5482V20.8633H38.7788ZM38.6779 13.86L38.4844 13.9211L38.4877 13.93L38.6779 13.86ZM38.3176 13.4709L38.2308 13.6543L38.239 13.6577L38.3176 13.4709ZM37.4674 13.3124H37.2647V13.5052L37.4573 13.5149L37.4674 13.3124ZM37.4674 13.0242L37.4843 12.8221L37.2647 12.8038V13.0242H37.4674ZM40.2774 13.0242H40.4802V12.8022L40.2591 12.8223L40.2774 13.0242ZM40.2659 13.11C39.9206 13.1297 39.6356 13.1846 39.4332 13.2917L39.6229 13.6501C39.7472 13.5843 39.9618 13.5335 40.289 13.5148L40.2659 13.11ZM39.4418 13.2874C39.2202 13.3917 39.0746 13.5757 39.0025 13.8161L39.3908 13.9326C39.434 13.7888 39.5093 13.7038 39.6144 13.6543L39.4418 13.2874ZM39.0033 13.8133C38.9361 14.0262 38.9075 14.3252 38.9075 14.6958H39.3129C39.3129 14.3362 39.3419 14.0876 39.39 13.9354L39.0033 13.8133ZM38.9075 14.6958V23.2986H39.3129V14.6958H38.9075ZM39.1102 23.0959H38.7788V23.5014H39.1102V23.0959ZM38.949 23.1885L32.8967 13.8363L32.5563 14.0566L38.6086 23.4088L38.949 23.1885ZM32.5238 13.9464V21.555H32.9292V13.9464H32.5238ZM32.5238 21.555C32.5238 21.9345 32.5523 22.2386 32.6196 22.4518L33.0063 22.3297C32.9583 22.1778 32.9292 21.9248 32.9292 21.555H32.5238ZM32.6227 22.4609C32.7091 22.6953 32.8724 22.8693 33.1008 22.9775L33.2744 22.611C33.1378 22.5463 33.0513 22.4513 33.0032 22.3207L32.6227 22.4609ZM33.1089 22.9811C33.3252 23.0722 33.6378 23.1213 34.0277 23.1408L34.0479 22.7359C33.6694 22.7169 33.4151 22.6701 33.2663 22.6074L33.1089 22.9811ZM33.8351 22.9384V23.2266H34.2406V22.9384H33.8351ZM34.0547 23.0245C33.7004 22.995 33.2039 22.9806 32.568 22.9806V23.3861C33.2002 23.3861 33.6835 23.4005 34.021 23.4286L34.0547 23.0245ZM32.568 22.9806C31.9895 22.9806 31.5356 22.995 31.2095 23.0247L31.2462 23.4285C31.5541 23.4005 31.9937 23.3861 32.568 23.3861V22.9806ZM31.4306 23.2266V22.9384H31.0251V23.2266H31.4306ZM31.2394 23.1408C31.5831 23.1211 31.8643 23.0714 32.0635 22.9777L31.8908 22.6108C31.7634 22.6708 31.5451 22.7172 31.2163 22.736L31.2394 23.1408ZM32.072 22.9734C32.2843 22.8611 32.4289 22.6831 32.5019 22.4518L32.1153 22.3297C32.073 22.4635 31.9967 22.5545 31.8823 22.6151L32.072 22.9734ZM32.5028 22.449C32.569 22.2285 32.5978 21.9264 32.5978 21.555H32.1923C32.1923 21.9137 32.1635 22.1688 32.1144 22.3325L32.5028 22.449ZM32.5978 21.555V14.5516H32.1923V21.555H32.5978ZM32.5978 14.5516C32.5978 14.1833 32.5696 13.8896 32.4998 13.6916L32.1174 13.8266C32.1628 13.9553 32.1923 14.1899 32.1923 14.5516H32.5978ZM32.4998 13.6916C32.4217 13.4705 32.2658 13.3145 32.0446 13.2365L31.9097 13.6188C32.0152 13.6561 32.0802 13.7211 32.1174 13.8266L32.4998 13.6916ZM32.0484 13.2378C31.864 13.1687 31.5879 13.1293 31.2391 13.11L31.2166 13.5148C31.5595 13.5338 31.783 13.5714 31.906 13.6175L32.0484 13.2378ZM31.4306 13.3124V13.0242H31.0251V13.3124H31.4306ZM31.2095 13.2261C31.5356 13.2557 31.9895 13.2701 32.568 13.2701V12.8647C31.9937 12.8647 31.5541 12.8503 31.2462 12.8223L31.2095 13.2261ZM32.568 13.2701C33.0044 13.2701 33.3855 13.2556 33.7103 13.2261L33.6736 12.8223C33.3644 12.8504 32.9962 12.8647 32.568 12.8647V13.2701ZM33.5219 13.1345L38.6087 20.9737L38.9488 20.7529L33.862 12.9138L33.5219 13.1345ZM38.9815 20.8633V14.6958H38.576V20.8633H38.9815ZM38.9815 14.6958C38.9815 14.3151 38.9481 14.0071 38.8681 13.7899L38.4877 13.93C38.5421 14.0779 38.576 14.3271 38.576 14.6958H38.9815ZM38.8712 13.7989C38.795 13.5574 38.6315 13.3831 38.3963 13.284L38.239 13.6577C38.3689 13.7124 38.4455 13.7974 38.4846 13.921L38.8712 13.7989ZM38.4044 13.2877C38.1849 13.1837 37.8687 13.1295 37.4776 13.1099L37.4573 13.5149C37.8347 13.5337 38.0854 13.5852 38.2309 13.6541L38.4044 13.2877ZM37.6702 13.3124V13.0242H37.2647V13.3124H37.6702ZM37.4506 13.2262C37.8048 13.2557 38.3014 13.2701 38.9373 13.2701V12.8647C38.3051 12.8647 37.8217 12.8503 37.4843 12.8221L37.4506 13.2262ZM38.9373 13.2701C39.5158 13.2701 39.9696 13.2557 40.2958 13.2261L40.2591 12.8223C39.9512 12.8503 39.5116 12.8647 38.9373 12.8647V13.2701ZM40.0747 13.0242V13.3124H40.4802V13.0242H40.0747ZM51.3659 13.3124L51.3771 13.5148L51.5686 13.5042V13.3124H51.3659ZM50.6021 13.4277L50.5346 13.2364L50.5309 13.2378L50.6021 13.4277ZM50.2851 13.7591L50.4763 13.8266V13.8266L50.2851 13.7591ZM50.2851 22.4916L50.4763 22.4242V22.4242L50.2851 22.4916ZM50.6021 22.8231L50.5309 23.0129L50.5346 23.0143L50.6021 22.8231ZM51.3659 22.9384H51.5686V22.7466L51.3771 22.7359L51.3659 22.9384ZM51.3659 23.2266L51.3514 23.4288L51.5686 23.4443V23.2266H51.3659ZM47.6913 23.2266H47.4885V23.443L47.7045 23.4289L47.6913 23.2266ZM47.6913 22.9384L47.68 22.7359L47.4885 22.7466V22.9384H47.6913ZM48.4406 22.8231L48.3731 22.6319L48.3694 22.6333L48.4406 22.8231ZM48.8585 18.2406H49.0612V18.0379H48.8585V18.2406ZM44.1752 18.2406V18.0379H43.9725V18.2406H44.1752ZM44.2617 22.4916L44.4528 22.4242V22.4242L44.2617 22.4916ZM44.5787 22.8231L44.5075 23.0129L44.5112 23.0143L44.5787 22.8231ZM45.3424 22.9384H45.5451V22.7466L45.3537 22.7359L45.3424 22.9384ZM45.3424 23.2266L45.3292 23.4289L45.5451 23.443V23.2266H45.3424ZM41.6678 23.2266H41.4651V23.4443L41.6823 23.4288L41.6678 23.2266ZM41.6678 22.9384L41.6566 22.7359L41.4651 22.7466V22.9384H41.6678ZM42.4171 22.8231L42.3497 22.6319L42.346 22.6333L42.4171 22.8231ZM42.7486 13.7591L42.5574 13.8266V13.8266L42.7486 13.7591ZM42.4171 13.4277L42.346 13.6175L42.3497 13.6188L42.4171 13.4277ZM41.6678 13.3124H41.4651V13.5042L41.6566 13.5148L41.6678 13.3124ZM41.6678 13.0242L41.6823 12.822L41.4651 12.8064V13.0242H41.6678ZM45.3424 13.0242H45.5451V12.8081L45.3295 12.8218L45.3424 13.0242ZM45.3424 13.3124L45.3537 13.5148L45.5451 13.5042V13.3124H45.3424ZM44.5787 13.4277L44.5112 13.2364L44.5075 13.2378L44.5787 13.4277ZM44.2617 13.7591L44.4528 13.8266V13.8266L44.2617 13.7591ZM44.1752 17.9524H43.9725V18.1552H44.1752V17.9524ZM48.8585 17.9524V18.1552H49.0612V17.9524H48.8585ZM48.772 13.7591L48.5808 13.8266V13.8266L48.772 13.7591ZM48.4406 13.4277L48.3694 13.6175L48.3731 13.6188L48.4406 13.4277ZM47.6913 13.3124H47.4885V13.5042L47.68 13.5148L47.6913 13.3124ZM47.6913 13.0242L47.7045 12.8219L47.4885 12.8078V13.0242H47.6913ZM51.3659 13.0242H51.5686V12.8064L51.3514 12.822L51.3659 13.0242ZM51.3546 13.11C51.0047 13.1294 50.7263 13.1688 50.5346 13.2365L50.6696 13.6188C50.8046 13.5712 51.0353 13.5338 51.3771 13.5148L51.3546 13.11ZM50.5309 13.2378C50.3177 13.3178 50.1702 13.4753 50.0939 13.6916L50.4763 13.8266C50.5152 13.7162 50.5792 13.6528 50.6733 13.6175L50.5309 13.2378ZM50.0939 13.6916C50.0241 13.8896 49.9959 14.1833 49.9959 14.5516H50.4014C50.4014 14.1899 50.4309 13.9553 50.4763 13.8266L50.0939 13.6916ZM49.9959 14.5516V21.6991H50.4014V14.5516H49.9959ZM49.9959 21.6991C49.9959 22.0674 50.0241 22.3612 50.0939 22.5591L50.4763 22.4242C50.4309 22.2955 50.4014 22.0609 50.4014 21.6991H49.9959ZM50.0939 22.5591C50.1702 22.7754 50.3177 22.9329 50.5309 23.0129L50.6733 22.6332C50.5792 22.5979 50.5152 22.5345 50.4763 22.4242L50.0939 22.5591ZM50.5346 23.0143C50.7263 23.0819 51.0047 23.1213 51.3546 23.1408L51.3771 22.7359C51.0353 22.7169 50.8046 22.6795 50.6696 22.6319L50.5346 23.0143ZM51.1631 22.9384V23.2266H51.5686V22.9384H51.1631ZM51.3803 23.0243C50.9693 22.995 50.3485 22.9806 49.5214 22.9806V23.3861C50.3466 23.3861 50.9555 23.4005 51.3514 23.4288L51.3803 23.0243ZM49.5214 22.9806C48.7416 22.9806 48.1265 22.995 47.6781 23.0243L47.7045 23.4289C48.1399 23.4005 48.7449 23.3861 49.5214 23.3861V22.9806ZM47.894 23.2266V22.9384H47.4885V23.2266H47.894ZM47.7025 23.1408C48.0513 23.1214 48.3274 23.0821 48.5118 23.0129L48.3694 22.6333C48.2464 22.6794 48.0229 22.7169 47.68 22.7359L47.7025 23.1408ZM48.5081 23.0143C48.7292 22.9362 48.8852 22.7803 48.9632 22.5591L48.5808 22.4242C48.5436 22.5297 48.4786 22.5947 48.3731 22.6319L48.5081 23.0143ZM48.9632 22.5591C49.0331 22.3612 49.0612 22.0674 49.0612 21.6991H48.6558C48.6558 22.0609 48.6263 22.2955 48.5808 22.4242L48.9632 22.5591ZM49.0612 21.6991V18.2406H48.6558V21.6991H49.0612ZM48.8585 18.0379H44.1752V18.4434H48.8585V18.0379ZM43.9725 18.2406V21.6991H44.3779V18.2406H43.9725ZM43.9725 21.6991C43.9725 22.0674 44.0006 22.3612 44.0705 22.5591L44.4528 22.4242C44.4074 22.2955 44.3779 22.0609 44.3779 21.6991H43.9725ZM44.0705 22.5591C44.1468 22.7754 44.2942 22.9329 44.5075 23.0129L44.6499 22.6333C44.5557 22.5979 44.4918 22.5345 44.4528 22.4242L44.0705 22.5591ZM44.5112 23.0143C44.7028 23.0819 44.9813 23.1213 45.3312 23.1408L45.3537 22.7359C45.0119 22.7169 44.7811 22.6795 44.6461 22.6319L44.5112 23.0143ZM45.1397 22.9384V23.2266H45.5451V22.9384H45.1397ZM45.3556 23.0243C44.9072 22.995 44.2921 22.9806 43.5123 22.9806V23.3861C44.2888 23.3861 44.8938 23.4005 45.3292 23.4289L45.3556 23.0243ZM43.5123 22.9806C42.6852 22.9806 42.0644 22.995 41.6534 23.0243L41.6823 23.4288C42.0782 23.4005 42.6871 23.3861 43.5123 23.3861V22.9806ZM41.8706 23.2266V22.9384H41.4651V23.2266H41.8706ZM41.6791 23.1408C42.0279 23.1214 42.3039 23.0821 42.4883 23.0129L42.346 22.6333C42.2229 22.6794 41.9994 22.7169 41.6566 22.7359L41.6791 23.1408ZM42.4846 23.0143C42.7058 22.9362 42.8617 22.7803 42.9398 22.5591L42.5574 22.4242C42.5202 22.5297 42.4552 22.5947 42.3497 22.6319L42.4846 23.0143ZM42.9398 22.5591C43.0096 22.3612 43.0378 22.0674 43.0378 21.6991H42.6323C42.6323 22.0609 42.6028 22.2955 42.5574 22.4242L42.9398 22.5591ZM43.0378 21.6991V14.5516H42.6323V21.6991H43.0378ZM43.0378 14.5516C43.0378 14.1833 43.0096 13.8896 42.9398 13.6916L42.5574 13.8266C42.6028 13.9553 42.6323 14.1899 42.6323 14.5516H43.0378ZM42.9398 13.6916C42.8617 13.4705 42.7058 13.3145 42.4846 13.2365L42.3497 13.6188C42.4552 13.6561 42.5202 13.7211 42.5574 13.8266L42.9398 13.6916ZM42.4883 13.2378C42.3039 13.1687 42.0279 13.1293 41.6791 13.11L41.6566 13.5148C41.9994 13.5338 42.2229 13.5714 42.346 13.6175L42.4883 13.2378ZM41.8706 13.3124V13.0242H41.4651V13.3124H41.8706ZM41.6534 13.2264C42.0644 13.2558 42.6852 13.2701 43.5123 13.2701V12.8647C42.6871 12.8647 42.0782 12.8502 41.6823 12.822L41.6534 13.2264ZM43.5123 13.2701C44.2826 13.2701 44.8976 13.2557 45.3553 13.2265L45.3295 12.8218C44.8842 12.8503 44.2791 12.8647 43.5123 12.8647V13.2701ZM45.1397 13.0242V13.3124H45.5451V13.0242H45.1397ZM45.3312 13.11C44.9813 13.1294 44.7028 13.1688 44.5112 13.2365L44.6461 13.6188C44.7811 13.5712 45.0119 13.5338 45.3537 13.5148L45.3312 13.11ZM44.5075 13.2378C44.2942 13.3178 44.1468 13.4753 44.0705 13.6916L44.4528 13.8266C44.4918 13.7162 44.5557 13.6528 44.6499 13.6175L44.5075 13.2378ZM44.0705 13.6916C44.0006 13.8896 43.9725 14.1833 43.9725 14.5516H44.3779C44.3779 14.1899 44.4074 13.9553 44.4528 13.8266L44.0705 13.6916ZM43.9725 14.5516V17.9524H44.3779V14.5516H43.9725ZM44.1752 18.1552H48.8585V17.7497H44.1752V18.1552ZM49.0612 17.9524V14.5516H48.6558V17.9524H49.0612ZM49.0612 14.5516C49.0612 14.1833 49.0331 13.8896 48.9632 13.6916L48.5808 13.8266C48.6263 13.9553 48.6558 14.1899 48.6558 14.5516H49.0612ZM48.9632 13.6916C48.8852 13.4705 48.7292 13.3145 48.5081 13.2365L48.3731 13.6188C48.4786 13.6561 48.5436 13.7211 48.5808 13.8266L48.9632 13.6916ZM48.5118 13.2378C48.3274 13.1687 48.0513 13.1293 47.7025 13.11L47.68 13.5148C48.0229 13.5338 48.2464 13.5714 48.3694 13.6175L48.5118 13.2378ZM47.894 13.3124V13.0242H47.4885V13.3124H47.894ZM47.6781 13.2265C48.1265 13.2557 48.7416 13.2701 49.5214 13.2701V12.8647C48.7449 12.8647 48.1399 12.8503 47.7045 12.8219L47.6781 13.2265ZM49.5214 13.2701C50.3485 13.2701 50.9693 13.2558 51.3803 13.2264L51.3514 12.822C50.9555 12.8502 50.3466 12.8647 49.5214 12.8647V13.2701ZM51.1631 13.0242V13.3124H51.5686V13.0242H51.1631ZM17.1336 27.0242L17.3354 27.0441L17.3581 26.8132L17.1263 26.8216L17.1336 27.0242ZM17.076 30.0503V30.253H17.2986L17.2778 30.0314L17.076 30.0503ZM16.7445 30.0503L16.5429 30.0713L16.5618 30.253H16.7445V30.0503ZM16.4563 28.4075L16.263 28.4686L16.2635 28.4701L16.4563 28.4075ZM15.8511 27.615L15.7468 27.7889L15.7511 27.7914L15.8511 27.615ZM13.7472 27.3556V27.1529H13.5445V27.3556H13.7472ZM13.8625 36.434L13.6756 36.5127H13.6756L13.8625 36.434ZM14.266 36.8087L14.199 37V37L14.266 36.8087ZM15.2026 36.9384H15.4054V36.7444L15.2116 36.7358L15.2026 36.9384ZM15.2026 37.2266L15.191 37.429L15.4054 37.4413V37.2266H15.2026ZM10.9516 37.2266H10.7489V37.4424L10.9643 37.4289L10.9516 37.2266ZM10.9516 36.9384L10.9426 36.7358L10.7489 36.7444V36.9384H10.9516ZM11.8883 36.8087L11.9553 37H11.9553L11.8883 36.8087ZM12.2918 36.434L12.4786 36.5127V36.5127L12.2918 36.434ZM12.4071 27.3556H12.6098V27.1529H12.4071V27.3556ZM10.3032 27.615L10.4032 27.7914L10.4075 27.7888L10.3032 27.615ZM9.69796 28.4075L9.89081 28.4701L9.89129 28.4686L9.69796 28.4075ZM9.40976 30.0503V30.253H9.59252L9.61141 30.0713L9.40976 30.0503ZM9.07832 30.0503L8.87647 30.0314L8.85569 30.253H9.07832V30.0503ZM9.02068 27.0242L9.028 26.8216L8.79616 26.8132L8.81892 27.0441L9.02068 27.0242ZM16.9318 27.0043C16.8641 27.6914 16.83 28.313 16.83 28.8687H17.2355C17.2355 28.3291 17.2686 27.7211 17.3354 27.0441L16.9318 27.0043ZM16.83 28.8687C16.83 29.3523 16.8445 29.7531 16.8741 30.0692L17.2778 30.0314C17.2498 29.7327 17.2355 29.3457 17.2355 28.8687H16.83ZM17.076 29.8476H16.7445V30.253H17.076V29.8476ZM16.9462 30.0294C16.869 29.2865 16.7713 28.7215 16.6492 28.345L16.2635 28.4701C16.3719 28.8045 16.4663 29.3347 16.5429 30.0713L16.9462 30.0294ZM16.6496 28.3465C16.5215 27.9407 16.2907 27.6311 15.951 27.4386L15.7511 27.7914C15.9878 27.9255 16.1606 28.1443 16.263 28.4686L16.6496 28.3465ZM15.9554 27.4411C15.6198 27.2398 15.1331 27.1529 14.5254 27.1529V27.5583C15.1088 27.5583 15.506 27.6444 15.7468 27.7888L15.9554 27.4411ZM14.5254 27.1529H13.7472V27.5583H14.5254V27.1529ZM13.5445 27.3556V35.555H13.9499V27.3556H13.5445ZM13.5445 35.555C13.5445 35.9633 13.5822 36.2907 13.6756 36.5127L14.0493 36.3553C13.9891 36.2122 13.9499 35.9537 13.9499 35.555H13.5445ZM13.6756 36.5127C13.7754 36.7497 13.9545 36.9144 14.199 37L14.333 36.6173C14.1932 36.5684 14.1033 36.4834 14.0493 36.3553L13.6756 36.5127ZM14.199 37C14.421 37.0777 14.7586 37.1216 15.1936 37.1409L15.2116 36.7358C14.7821 36.7167 14.4952 36.6741 14.333 36.6173L14.199 37ZM14.9999 36.9384V37.2266H15.4054V36.9384H14.9999ZM15.2143 37.0242C14.7089 36.995 13.9983 36.9806 13.0843 36.9806V37.3861C13.9957 37.3861 14.6972 37.4005 15.191 37.429L15.2143 37.0242ZM13.0843 36.9806C12.1229 36.9806 11.4068 36.995 10.939 37.0242L10.9643 37.4289C11.4188 37.4005 12.1244 37.3861 13.0843 37.3861V36.9806ZM11.1544 37.2266V36.9384H10.7489V37.2266H11.1544ZM10.9606 37.1409C11.3957 37.1216 11.7333 37.0777 11.9553 37L11.8213 36.6173C11.6591 36.6741 11.3722 36.7167 10.9426 36.7358L10.9606 37.1409ZM11.9553 37C12.1998 36.9144 12.3788 36.7497 12.4786 36.5127L12.1049 36.3553C12.051 36.4834 11.9611 36.5684 11.8213 36.6173L11.9553 37ZM12.4786 36.5127C12.5721 36.2907 12.6098 35.9633 12.6098 35.555H12.2043C12.2043 35.9537 12.1652 36.2122 12.1049 36.3553L12.4786 36.5127ZM12.6098 35.555V27.3556H12.2043V35.555H12.6098ZM12.4071 27.1529H11.6289V27.5583H12.4071V27.1529ZM11.6289 27.1529C11.0211 27.1529 10.5345 27.2398 10.1989 27.4411L10.4075 27.7888C10.6483 27.6444 11.0455 27.5583 11.6289 27.5583V27.1529ZM10.2032 27.4386C9.86353 27.6311 9.63277 27.9407 9.50463 28.3465L9.89129 28.4686C9.99371 28.1443 10.1664 27.9255 10.4031 27.7914L10.2032 27.4386ZM9.50511 28.345C9.383 28.7215 9.28528 29.2865 9.2081 30.0294L9.61141 30.0713C9.68793 29.3347 9.78235 28.8045 9.89081 28.4701L9.50511 28.345ZM9.40976 29.8476H9.07832V30.253H9.40976V29.8476ZM9.28017 30.0692C9.30981 29.7531 9.32429 29.3523 9.32429 28.8687H8.91882C8.91882 29.3457 8.90447 29.7327 8.87647 30.0314L9.28017 30.0692ZM9.32429 28.8687C9.32429 28.313 9.29019 27.6914 9.22244 27.0043L8.81892 27.0441C8.88567 27.7211 8.91882 28.3291 8.91882 28.8687H9.32429ZM9.01336 27.2268C9.81475 27.2557 11.1726 27.2701 13.0843 27.2701V26.8647C11.1726 26.8647 9.82133 26.8502 9.028 26.8216L9.01336 27.2268ZM13.0843 27.2701C14.9865 27.2701 16.3395 27.2557 17.1409 27.2268L17.1263 26.8216C16.3329 26.8502 14.9864 26.8647 13.0843 26.8647V27.2701ZM28.1217 27.3124L28.133 27.5148L28.3245 27.5042V27.3124H28.1217ZM27.358 27.4277L27.2905 27.2364L27.2868 27.2378L27.358 27.4277ZM27.041 27.7591L27.2321 27.8266V27.8266L27.041 27.7591ZM27.041 36.4916L27.2321 36.4242V36.4242L27.041 36.4916ZM27.358 36.8231L27.2868 37.0129L27.2905 37.0143L27.358 36.8231ZM28.1217 36.9384H28.3245V36.7466L28.133 36.7359L28.1217 36.9384ZM28.1217 37.2266L28.1073 37.4288L28.3245 37.4443V37.2266H28.1217ZM24.4471 37.2266H24.2444V37.443L24.4603 37.4289L24.4471 37.2266ZM24.4471 36.9384L24.4359 36.7359L24.2444 36.7466V36.9384H24.4471ZM25.1965 36.8231L25.129 36.6319L25.1253 36.6332L25.1965 36.8231ZM25.6144 32.2406H25.8171V32.0379H25.6144V32.2406ZM20.9311 32.2406V32.0379H20.7283V32.2406H20.9311ZM21.0175 36.4916L21.2087 36.4242V36.4242L21.0175 36.4916ZM21.3345 36.8231L21.2633 37.0129L21.2671 37.0143L21.3345 36.8231ZM22.0983 36.9384H22.301V36.7466L22.1095 36.7359L22.0983 36.9384ZM22.0983 37.2266L22.0851 37.4289L22.301 37.443V37.2266H22.0983ZM18.4237 37.2266H18.221V37.4443L18.4381 37.4288L18.4237 37.2266ZM18.4237 36.9384L18.4124 36.7359L18.221 36.7466V36.9384H18.4237ZM19.173 36.8231L19.1055 36.6319L19.1018 36.6332L19.173 36.8231ZM19.5045 27.7591L19.3133 27.8266V27.8266L19.5045 27.7591ZM19.173 27.4277L19.1018 27.6175L19.1055 27.6188L19.173 27.4277ZM18.4237 27.3124H18.221V27.5042L18.4124 27.5148L18.4237 27.3124ZM18.4237 27.0242L18.4381 26.822L18.221 26.8064V27.0242H18.4237ZM22.0983 27.0242H22.301V26.8081L22.0854 26.8218L22.0983 27.0242ZM22.0983 27.3124L22.1095 27.5148L22.301 27.5042V27.3124H22.0983ZM21.3345 27.4277L21.2671 27.2364L21.2634 27.2378L21.3345 27.4277ZM21.0175 27.7591L21.2087 27.8266V27.8266L21.0175 27.7591ZM20.9311 31.9524H20.7283V32.1552H20.9311V31.9524ZM25.6144 31.9524V32.1552H25.8171V31.9524H25.6144ZM25.5279 27.7591L25.3367 27.8266V27.8266L25.5279 27.7591ZM25.1965 27.4277L25.1253 27.6175L25.129 27.6188L25.1965 27.4277ZM24.4471 27.3124H24.2444V27.5042L24.4359 27.5148L24.4471 27.3124ZM24.4471 27.0242L24.4603 26.8219L24.2444 26.8078V27.0242H24.4471ZM28.1217 27.0242H28.3245V26.8064L28.1073 26.822L28.1217 27.0242ZM28.1105 27.11C27.7606 27.1294 27.4822 27.1688 27.2905 27.2365L27.4255 27.6188C27.5605 27.5712 27.7912 27.5338 28.133 27.5148L28.1105 27.11ZM27.2868 27.2378C27.0735 27.3178 26.9261 27.4753 26.8498 27.6916L27.2321 27.8266C27.2711 27.7162 27.335 27.6528 27.4292 27.6175L27.2868 27.2378ZM26.8498 27.6916C26.7799 27.8896 26.7518 28.1833 26.7518 28.5516H27.1572C27.1572 28.1899 27.1867 27.9553 27.2321 27.8266L26.8498 27.6916ZM26.7518 28.5516V35.6991H27.1572V28.5516H26.7518ZM26.7518 35.6991C26.7518 36.0674 26.7799 36.3612 26.8498 36.5591L27.2321 36.4242C27.1867 36.2955 27.1572 36.0609 27.1572 35.6991H26.7518ZM26.8498 36.5591C26.9261 36.7754 27.0735 36.9329 27.2868 37.0129L27.4292 36.6332C27.335 36.5979 27.2711 36.5345 27.2321 36.4242L26.8498 36.5591ZM27.2905 37.0143C27.4822 37.0819 27.7606 37.1213 28.1105 37.1408L28.133 36.7359C27.7912 36.7169 27.5605 36.6795 27.4255 36.6319L27.2905 37.0143ZM27.919 36.9384V37.2266H28.3245V36.9384H27.919ZM28.1362 37.0243C27.7251 36.995 27.1044 36.9806 26.2772 36.9806V37.3861C27.1025 37.3861 27.7113 37.4005 28.1073 37.4288L28.1362 37.0243ZM26.2772 36.9806C25.4974 36.9806 24.8823 36.995 24.4339 37.0243L24.4603 37.4289C24.8958 37.4005 25.5007 37.3861 26.2772 37.3861V36.9806ZM24.6499 37.2266V36.9384H24.2444V37.2266H24.6499ZM24.4584 37.1408C24.8072 37.1214 25.0833 37.0821 25.2677 37.0129L25.1253 36.6332C25.0023 36.6794 24.7788 36.7169 24.4359 36.7359L24.4584 37.1408ZM25.2639 37.0143C25.4851 36.9362 25.641 36.7803 25.7191 36.5591L25.3367 36.4242C25.2995 36.5297 25.2345 36.5947 25.129 36.6319L25.2639 37.0143ZM25.7191 36.5591C25.7889 36.3612 25.8171 36.0674 25.8171 35.6991H25.4116C25.4116 36.0609 25.3821 36.2955 25.3367 36.4242L25.7191 36.5591ZM25.8171 35.6991V32.2406H25.4116V35.6991H25.8171ZM25.6144 32.0379H20.9311V32.4434H25.6144V32.0379ZM20.7283 32.2406V35.6991H21.1338V32.2406H20.7283ZM20.7283 35.6991C20.7283 36.0674 20.7565 36.3612 20.8263 36.5591L21.2087 36.4242C21.1633 36.2955 21.1338 36.0609 21.1338 35.6991H20.7283ZM20.8263 36.5591C20.9027 36.7754 21.0501 36.9329 21.2634 37.0129L21.4057 36.6332C21.3116 36.5979 21.2477 36.5345 21.2087 36.4242L20.8263 36.5591ZM21.2671 37.0143C21.4587 37.0819 21.7371 37.1213 22.087 37.1408L22.1095 36.7359C21.7677 36.7169 21.537 36.6795 21.402 36.6319L21.2671 37.0143ZM21.8955 36.9384V37.2266H22.301V36.9384H21.8955ZM22.1115 37.0243C21.6631 36.995 21.048 36.9806 20.2682 36.9806V37.3861C21.0447 37.3861 21.6497 37.4005 22.0851 37.4289L22.1115 37.0243ZM20.2682 36.9806C19.4411 36.9806 18.8203 36.995 18.4093 37.0243L18.4381 37.4288C18.8341 37.4005 19.443 37.3861 20.2682 37.3861V36.9806ZM18.6264 37.2266V36.9384H18.221V37.2266H18.6264ZM18.4349 37.1408C18.7838 37.1214 19.0598 37.0821 19.2442 37.0129L19.1018 36.6332C18.9788 36.6794 18.7553 36.7169 18.4124 36.7359L18.4349 37.1408ZM19.2405 37.0143C19.4616 36.9362 19.6176 36.7803 19.6956 36.5591L19.3133 36.4242C19.276 36.5297 19.211 36.5947 19.1055 36.6319L19.2405 37.0143ZM19.6956 36.5591C19.7655 36.3612 19.7937 36.0674 19.7937 35.6991H19.3882C19.3882 36.0609 19.3587 36.2955 19.3133 36.4242L19.6956 36.5591ZM19.7937 35.6991V28.5516H19.3882V35.6991H19.7937ZM19.7937 28.5516C19.7937 28.1833 19.7655 27.8896 19.6956 27.6916L19.3133 27.8266C19.3587 27.9553 19.3882 28.1899 19.3882 28.5516H19.7937ZM19.6956 27.6916C19.6176 27.4705 19.4616 27.3145 19.2405 27.2365L19.1055 27.6188C19.211 27.6561 19.276 27.7211 19.3133 27.8266L19.6956 27.6916ZM19.2442 27.2378C19.0598 27.1687 18.7838 27.1293 18.4349 27.11L18.4124 27.5148C18.7553 27.5338 18.9788 27.5714 19.1018 27.6175L19.2442 27.2378ZM18.6264 27.3124V27.0242H18.221V27.3124H18.6264ZM18.4093 27.2264C18.8203 27.2558 19.4411 27.2701 20.2682 27.2701V26.8647C19.443 26.8647 18.8341 26.8502 18.4381 26.822L18.4093 27.2264ZM20.2682 27.2701C21.0385 27.2701 21.6534 27.2557 22.1112 27.2265L22.0854 26.8218C21.6401 26.8503 21.0349 26.8647 20.2682 26.8647V27.2701ZM21.8955 27.0242V27.3124H22.301V27.0242H21.8955ZM22.087 27.11C21.7371 27.1294 21.4587 27.1688 21.2671 27.2365L21.402 27.6188C21.537 27.5712 21.7677 27.5338 22.1095 27.5148L22.087 27.11ZM21.2634 27.2378C21.0501 27.3178 20.9027 27.4753 20.8263 27.6916L21.2087 27.8266C21.2477 27.7162 21.3116 27.6528 21.4057 27.6175L21.2634 27.2378ZM20.8263 27.6916C20.7565 27.8896 20.7283 28.1833 20.7283 28.5516H21.1338C21.1338 28.1899 21.1633 27.9553 21.2087 27.8266L20.8263 27.6916ZM20.7283 28.5516V31.9524H21.1338V28.5516H20.7283ZM20.9311 32.1552H25.6144V31.7497H20.9311V32.1552ZM25.8171 31.9524V28.5516H25.4116V31.9524H25.8171ZM25.8171 28.5516C25.8171 28.1833 25.7889 27.8896 25.7191 27.6916L25.3367 27.8266C25.3821 27.9553 25.4116 28.1899 25.4116 28.5516H25.8171ZM25.7191 27.6916C25.641 27.4705 25.4851 27.3145 25.2639 27.2365L25.129 27.6188C25.2345 27.6561 25.2995 27.7211 25.3367 27.8266L25.7191 27.6916ZM25.2677 27.2378C25.0833 27.1687 24.8072 27.1293 24.4584 27.11L24.4359 27.5148C24.7788 27.5338 25.0023 27.5714 25.1253 27.6175L25.2677 27.2378ZM24.6499 27.3124V27.0242H24.2444V27.3124H24.6499ZM24.4339 27.2265C24.8823 27.2557 25.4974 27.2701 26.2772 27.2701V26.8647C25.5007 26.8647 24.8958 26.8503 24.4603 26.8219L24.4339 27.2265ZM26.2772 27.2701C27.1044 27.2701 27.7251 27.2558 28.1362 27.2264L28.1073 26.822C27.7113 26.8502 27.1025 26.8647 26.2772 26.8647V27.2701ZM27.919 27.0242V27.3124H28.3245V27.0242H27.919ZM37.1608 36.0161L37.3498 35.9429L37.3498 35.9428L37.1608 36.0161ZM38.1551 36.9384H38.3578V36.7444L38.1641 36.7358L38.1551 36.9384ZM38.1551 37.2266L38.1399 37.4287L38.3578 37.4451V37.2266H38.1551ZM34.7687 37.2266H34.566V37.4443L34.7831 37.4288L34.7687 37.2266ZM34.7687 36.9384L34.758 36.7359L34.566 36.746V36.9384H34.7687ZM35.5468 36.8087L35.6281 36.9945L35.6332 36.9921L35.5468 36.8087ZM35.6189 35.7279L35.4288 35.7986L35.4306 35.8032L35.6189 35.7279ZM34.7399 33.3646L34.9299 33.294L34.8808 33.1619H34.7399V33.3646ZM31.2526 33.3646V33.1619H31.1137L31.0635 33.2915L31.2526 33.3646ZM30.6618 34.8921L30.4727 34.819L30.4717 34.8217L30.6618 34.8921ZM30.6762 36.7222L30.5637 36.8909L30.5674 36.8932L30.6762 36.7222ZM31.6273 36.9384H31.83V36.7402L31.6319 36.7357L31.6273 36.9384ZM31.6273 37.2266L31.6166 37.429L31.83 37.4403V37.2266H31.6273ZM28.8893 37.2266H28.6866V37.4506L28.9095 37.4283L28.8893 37.2266ZM28.8893 36.9384L28.842 36.7412L28.6866 36.7785V36.9384H28.8893ZM30.0277 35.6847L29.8387 35.6114L29.8387 35.6116L30.0277 35.6847ZM33.4141 26.9521V26.7494H33.2753L33.2251 26.8788L33.4141 26.9521ZM33.6447 26.9521L33.8337 26.8788L33.7835 26.7494H33.6447V26.9521ZM34.6246 33.0764V33.2792H34.917L34.8144 33.0053L34.6246 33.0764ZM33.0106 28.7678L33.2005 28.6967L33.0123 28.1943L32.8212 28.6956L33.0106 28.7678ZM31.3679 33.0764L31.1785 33.0042L31.0736 33.2792H31.3679V33.0764ZM35.0569 23.8828L34.9494 23.7108L34.9444 23.7141L35.0569 23.8828ZM35.9359 23.9836L36.1047 23.8711L36.1015 23.8667L35.9359 23.9836ZM35.6333 24.8194L35.74 24.9918L35.7413 24.991L35.6333 24.8194ZM34.5958 25.2805L34.525 25.0905L34.5205 25.0923L34.5958 25.2805ZM32.7369 26.1019L32.5584 26.198L32.6516 26.3712L32.8275 26.2833L32.7369 26.1019ZM32.636 25.9146L32.5137 25.7529L32.3751 25.8577L32.4575 26.0107L32.636 25.9146ZM33.6447 25.0932L33.78 25.2442L33.7803 25.2439L33.6447 25.0932ZM34.1779 24.6177L34.31 24.7718L34.3172 24.765L34.1779 24.6177ZM36.9717 36.0893C37.2154 36.7188 37.5971 37.1165 38.1461 37.1409L38.1641 36.7358C37.8485 36.7218 37.5673 36.5046 37.3498 35.9429L36.9717 36.0893ZM37.9523 36.9384V37.2266H38.3578V36.9384H37.9523ZM38.1702 37.0244C37.7787 36.995 37.259 36.9806 36.6132 36.9806V37.3861C37.2546 37.3861 37.7629 37.4005 38.1399 37.4287L38.1702 37.0244ZM36.6132 36.9806C35.7861 36.9806 35.1653 36.995 34.7542 37.0243L34.7831 37.4288C35.1791 37.4005 35.788 37.3861 36.6132 37.3861V36.9806ZM34.9714 37.2266V36.9384H34.566V37.2266H34.9714ZM34.7793 37.1408C35.1469 37.1215 35.4382 37.0775 35.6281 36.9944L35.4656 36.6229C35.348 36.6744 35.1206 36.7168 34.758 36.7359L34.7793 37.1408ZM35.6332 36.9921C35.7454 36.9393 35.8394 36.8615 35.9039 36.7554C35.9678 36.6501 35.9945 36.5302 35.9945 36.4052H35.5891C35.5891 36.4724 35.575 36.5158 35.5573 36.5449C35.54 36.5733 35.5116 36.6012 35.4605 36.6252L35.6332 36.9921ZM35.9945 36.4052C35.9945 36.2022 35.9249 35.9471 35.8071 35.6526L35.4306 35.8032C35.5434 36.0851 35.5891 36.2815 35.5891 36.4052H35.9945ZM35.8089 35.6572L34.9299 33.294L34.5498 33.4353L35.4289 35.7986L35.8089 35.6572ZM34.7399 33.1619H31.2526V33.5674H34.7399V33.1619ZM31.0635 33.2915L30.4727 34.819L30.8509 34.9653L31.4417 33.4378L31.0635 33.2915ZM30.4717 34.8217C30.2781 35.3443 30.1709 35.7667 30.1709 36.0737H30.5763C30.5763 35.8428 30.6612 35.4774 30.8519 34.9625L30.4717 34.8217ZM30.1709 36.0737C30.1709 36.4217 30.2924 36.71 30.5637 36.8909L30.7887 36.5535C30.6566 36.4655 30.5763 36.3214 30.5763 36.0737H30.1709ZM30.5674 36.8932C30.8246 37.057 31.1855 37.1311 31.6227 37.141L31.6319 36.7357C31.2236 36.7264 30.9505 36.6564 30.785 36.5512L30.5674 36.8932ZM31.4245 36.9384V37.2266H31.83V36.9384H31.4245ZM31.6379 37.0241C31.0867 36.9951 30.5308 36.9806 29.9701 36.9806V37.3861C30.5238 37.3861 31.0726 37.4004 31.6166 37.429L31.6379 37.0241ZM29.9701 36.9806C29.534 36.9806 29.1665 36.9951 28.8692 37.0248L28.9095 37.4283C29.1886 37.4004 29.5416 37.3861 29.9701 37.3861V36.9806ZM29.0921 37.2266V36.9384H28.6866V37.2266H29.0921ZM28.9367 37.1355C29.5121 36.9974 29.9282 36.5042 30.2168 35.7578L29.8387 35.6116C29.5701 36.3062 29.2273 36.6488 28.842 36.7412L28.9367 37.1355ZM30.2168 35.758L33.6032 27.0254L33.2251 26.8788L29.8387 35.6114L30.2168 35.758ZM33.4141 27.1549H33.6447V26.7494H33.4141V27.1549ZM33.4557 27.0254L36.9718 36.0894L37.3498 35.9428L33.8337 26.8788L33.4557 27.0254ZM34.8144 33.0053L33.2005 28.6967L32.8208 28.8389L34.4347 33.1476L34.8144 33.0053ZM32.8212 28.6956L31.1785 33.0042L31.5573 33.1487L33.2001 28.84L32.8212 28.6956ZM31.3679 33.2792H34.6246V32.8737H31.3679V33.2792ZM35.1643 24.0547C35.2967 23.972 35.4037 23.9414 35.4892 23.9414V23.5359C35.3057 23.5359 35.1245 23.6014 34.9494 23.7108L35.1643 24.0547ZM35.4892 23.9414C35.5988 23.9414 35.6888 23.9851 35.7703 24.1005L36.1015 23.8667C35.9525 23.6556 35.7446 23.5359 35.4892 23.5359V23.9414ZM35.7672 24.0961C35.8046 24.1521 35.8196 24.2047 35.8196 24.2574H36.2251C36.2251 24.118 36.1825 23.9881 36.1046 23.8712L35.7672 24.0961ZM35.8196 24.2574C35.8196 24.3708 35.7545 24.5035 35.5253 24.6479L35.7413 24.991C36.0309 24.8087 36.2251 24.5667 36.2251 24.2574H35.8196ZM35.5266 24.647C35.3432 24.7606 35.0137 24.9085 34.525 25.0906L34.6665 25.4705C35.1578 25.2875 35.5199 25.128 35.74 24.9918L35.5266 24.647ZM34.5205 25.0923C33.7964 25.382 33.1713 25.658 32.6462 25.9206L32.8275 26.2833C33.3399 26.0271 33.9541 25.7555 34.6711 25.4688L34.5205 25.0923ZM32.9154 26.0058L32.8145 25.8185L32.4575 26.0107L32.5584 26.198L32.9154 26.0058ZM32.7583 26.0763C33.1553 25.7761 33.4962 25.4987 33.78 25.2442L33.5094 24.9423C33.236 25.1873 32.9044 25.4575 32.5137 25.7529L32.7583 26.0763ZM33.7803 25.2439C34.0693 24.9838 34.2449 24.8273 34.3098 24.7716L34.0459 24.4637C33.9764 24.5234 33.7965 24.6838 33.5091 24.9425L33.7803 25.2439ZM34.3172 24.765C34.6696 24.4316 34.9529 24.1957 35.1693 24.0514L34.9444 23.7141C34.6997 23.8772 34.3971 24.1313 34.0385 24.4704L34.3172 24.765ZM47.7059 27.3124L47.7175 27.5148L47.9086 27.5039V27.3124H47.7059ZM46.9566 27.4709L47.043 27.6545L47.0514 27.6501L46.9566 27.4709ZM46.6251 27.8744L46.8185 27.9354L46.8193 27.9326L46.6251 27.8744ZM46.5387 37.2986V37.5014H46.7414V37.2986H46.5387ZM46.2072 37.2986L46.037 37.4088L46.097 37.5014H46.2072V37.2986ZM40.155 27.9464L40.3252 27.8363L39.9522 27.26V27.9464H40.155ZM40.2414 36.3908L40.0479 36.4519L40.0512 36.4609L40.2414 36.3908ZM40.6161 36.7943L40.5292 36.9777L40.5374 36.9811L40.6161 36.7943ZM41.4663 36.9384H41.669V36.7455L41.4764 36.7359L41.4663 36.9384ZM41.4663 37.2266L41.4495 37.4286L41.669 37.4469V37.2266H41.4663ZM38.6563 37.2266H38.4536V37.4486L38.6747 37.4285L38.6563 37.2266ZM38.6563 36.9384L38.6448 36.736L38.4536 36.7469V36.9384H38.6563ZM39.4057 36.7943L39.4921 36.9779L39.5005 36.9734L39.4057 36.7943ZM39.7371 36.3908L39.9304 36.4518L39.9313 36.449L39.7371 36.3908ZM39.7371 27.7591L39.5459 27.8266H39.5459L39.7371 27.7591ZM39.4057 27.4277L39.3345 27.6175L39.3382 27.6188L39.4057 27.4277ZM38.6563 27.3124H38.4536V27.5042L38.6451 27.5148L38.6563 27.3124ZM38.6563 27.0242L38.6747 26.8223L38.4536 26.8022V27.0242H38.6563ZM41.1205 27.0242L41.2905 26.9138L41.2239 26.8112L41.1021 26.8223L41.1205 27.0242ZM46.2072 34.8633L46.0372 34.9737L46.41 35.5482V34.8633H46.2072ZM46.1064 27.86L45.9128 27.9211L45.9161 27.93L46.1064 27.86ZM45.7461 27.4709L45.6592 27.6543L45.6674 27.6577L45.7461 27.4709ZM44.8959 27.3124H44.6932V27.5052L44.8858 27.5149L44.8959 27.3124ZM44.8959 27.0242L44.9128 26.8221L44.6932 26.8038V27.0242H44.8959ZM47.7059 27.0242H47.9086V26.8022L47.6875 26.8223L47.7059 27.0242ZM47.6943 27.11C47.3491 27.1297 47.0641 27.1846 46.8617 27.2917L47.0514 27.6501C47.1757 27.5843 47.3903 27.5335 47.7175 27.5148L47.6943 27.11ZM46.8703 27.2874C46.6487 27.3917 46.5031 27.5757 46.431 27.8161L46.8193 27.9326C46.8625 27.7888 46.9378 27.7038 47.0429 27.6543L46.8703 27.2874ZM46.4318 27.8133C46.3646 28.0262 46.3359 28.3252 46.3359 28.6958H46.7414C46.7414 28.3362 46.7704 28.0876 46.8185 27.9354L46.4318 27.8133ZM46.3359 28.6958V37.2986H46.7414V28.6958H46.3359ZM46.5387 37.0959H46.2072V37.5014H46.5387V37.0959ZM46.3775 37.1885L40.3252 27.8363L39.9848 28.0566L46.037 37.4088L46.3775 37.1885ZM39.9522 27.9464V35.555H40.3577V27.9464H39.9522ZM39.9522 35.555C39.9522 35.9345 39.9808 36.2386 40.0481 36.4518L40.4348 36.3297C40.3868 36.1778 40.3577 35.9248 40.3577 35.555H39.9522ZM40.0512 36.4609C40.1376 36.6953 40.3009 36.8693 40.5293 36.9775L40.7029 36.611C40.5663 36.5463 40.4798 36.4513 40.4317 36.3207L40.0512 36.4609ZM40.5374 36.9811C40.7537 37.0722 41.0662 37.1213 41.4562 37.1408L41.4764 36.7359C41.0978 36.7169 40.8436 36.6701 40.6948 36.6074L40.5374 36.9811ZM41.2636 36.9384V37.2266H41.669V36.9384H41.2636ZM41.4831 37.0245C41.1289 36.995 40.6324 36.9806 39.9965 36.9806V37.3861C40.6287 37.3861 41.112 37.4005 41.4495 37.4286L41.4831 37.0245ZM39.9965 36.9806C39.418 36.9806 38.9641 36.995 38.638 37.0247L38.6747 37.4285C38.9826 37.4005 39.4221 37.3861 39.9965 37.3861V36.9806ZM38.8591 37.2266V36.9384H38.4536V37.2266H38.8591ZM38.6679 37.1408C39.0115 37.1211 39.2928 37.0714 39.492 36.9777L39.3193 36.6108C39.1919 36.6708 38.9736 36.7172 38.6448 36.736L38.6679 37.1408ZM39.5005 36.9734C39.7127 36.8611 39.8574 36.6831 39.9304 36.4518L39.5438 36.3297C39.5015 36.4635 39.4252 36.5545 39.3108 36.6151L39.5005 36.9734ZM39.9313 36.449C39.9974 36.2285 40.0263 35.9264 40.0263 35.555H39.6208C39.6208 35.9137 39.592 36.1688 39.5429 36.3325L39.9313 36.449ZM40.0263 35.555V28.5516H39.6208V35.555H40.0263ZM40.0263 28.5516C40.0263 28.1833 39.9981 27.8896 39.9283 27.6916L39.5459 27.8266C39.5913 27.9553 39.6208 28.1899 39.6208 28.5516H40.0263ZM39.9283 27.6916C39.8502 27.4705 39.6943 27.3145 39.4731 27.2365L39.3382 27.6188C39.4437 27.6561 39.5087 27.7211 39.5459 27.8266L39.9283 27.6916ZM39.4768 27.2378C39.2924 27.1687 39.0164 27.1293 38.6676 27.11L38.6451 27.5148C38.9879 27.5338 39.2114 27.5714 39.3345 27.6175L39.4768 27.2378ZM38.8591 27.3124V27.0242H38.4536V27.3124H38.8591ZM38.638 27.2261C38.9641 27.2557 39.418 27.2701 39.9965 27.2701V26.8647C39.4221 26.8647 38.9826 26.8503 38.6747 26.8223L38.638 27.2261ZM39.9965 27.2701C40.4329 27.2701 40.814 27.2556 41.1388 27.2261L41.1021 26.8223C40.7929 26.8504 40.4247 26.8647 39.9965 26.8647V27.2701ZM40.9504 27.1345L46.0372 34.9737L46.3773 34.7529L41.2905 26.9138L40.9504 27.1345ZM46.41 34.8633V28.6958H46.0045V34.8633H46.41ZM46.41 28.6958C46.41 28.3151 46.3766 28.0071 46.2966 27.7899L45.9161 27.93C45.9706 28.0779 46.0045 28.3271 46.0045 28.6958H46.41ZM46.2997 27.7989C46.2234 27.5574 46.06 27.3831 45.8248 27.284L45.6674 27.6577C45.7973 27.7124 45.874 27.7974 45.913 27.921L46.2997 27.7989ZM45.8329 27.2877C45.6133 27.1837 45.2972 27.1295 44.906 27.1099L44.8858 27.5149C45.2632 27.5337 45.5138 27.5852 45.6593 27.6541L45.8329 27.2877ZM45.0987 27.3124V27.0242H44.6932V27.3124H45.0987ZM44.8791 27.2262C45.2333 27.2557 45.7299 27.2701 46.3658 27.2701V26.8647C45.7336 26.8647 45.2502 26.8503 44.9128 26.8221L44.8791 27.2262ZM46.3658 27.2701C46.9442 27.2701 47.3981 27.2557 47.7243 27.2261L47.6875 26.8223C47.3796 26.8503 46.9401 26.8647 46.3658 26.8647V27.2701ZM47.5032 27.0242V27.3124H47.9086V27.0242H47.5032ZM58.7943 27.3124L58.8056 27.5148L58.9971 27.5042V27.3124H58.7943ZM58.0306 27.4277L57.9631 27.2364L57.9594 27.2378L58.0306 27.4277ZM57.7136 27.7591L57.9048 27.8266V27.8266L57.7136 27.7591ZM57.7136 36.4916L57.9048 36.4242V36.4242L57.7136 36.4916ZM58.0306 36.8231L57.9594 37.0129L57.9631 37.0143L58.0306 36.8231ZM58.7943 36.9384H58.9971V36.7466L58.8056 36.7359L58.7943 36.9384ZM58.7943 37.2266L58.7799 37.4288L58.9971 37.4443V37.2266H58.7943ZM55.1198 37.2266H54.917V37.443L55.1329 37.4289L55.1198 37.2266ZM55.1198 36.9384L55.1085 36.7359L54.917 36.7466V36.9384H55.1198ZM55.8691 36.8231L55.8016 36.6319L55.7979 36.6332L55.8691 36.8231ZM56.287 32.2406H56.4897V32.0379H56.287V32.2406ZM51.6037 32.2406V32.0379H51.4009V32.2406H51.6037ZM51.6901 36.4916L51.8813 36.4242V36.4242L51.6901 36.4916ZM52.0072 36.8231L51.936 37.0129L51.9397 37.0143L52.0072 36.8231ZM52.7709 36.9384H52.9736V36.7466L52.7821 36.7359L52.7709 36.9384ZM52.7709 37.2266L52.7577 37.4289L52.9736 37.443V37.2266H52.7709ZM49.0963 37.2266H48.8936V37.4443L49.1108 37.4288L49.0963 37.2266ZM49.0963 36.9384L49.0851 36.7359L48.8936 36.7466V36.9384H49.0963ZM49.8456 36.8231L49.7781 36.6319L49.7744 36.6332L49.8456 36.8231ZM50.1771 27.7591L49.9859 27.8266V27.8266L50.1771 27.7591ZM49.8456 27.4277L49.7744 27.6175L49.7782 27.6188L49.8456 27.4277ZM49.0963 27.3124H48.8936V27.5042L49.0851 27.5148L49.0963 27.3124ZM49.0963 27.0242L49.1108 26.822L48.8936 26.8064V27.0242H49.0963ZM52.7709 27.0242H52.9736V26.8081L52.758 26.8218L52.7709 27.0242ZM52.7709 27.3124L52.7821 27.5148L52.9736 27.5042V27.3124H52.7709ZM52.0072 27.4277L51.9397 27.2364L51.936 27.2378L52.0072 27.4277ZM51.6901 27.7591L51.8813 27.8266V27.8266L51.6901 27.7591ZM51.6037 31.9524H51.4009V32.1552H51.6037V31.9524ZM56.287 31.9524V32.1552H56.4897V31.9524H56.287ZM56.2005 27.7591L56.0093 27.8266V27.8266L56.2005 27.7591ZM55.8691 27.4277L55.7979 27.6175L55.8016 27.6188L55.8691 27.4277ZM55.1198 27.3124H54.917V27.5042L55.1085 27.5148L55.1198 27.3124ZM55.1198 27.0242L55.1329 26.8219L54.917 26.8078V27.0242H55.1198ZM58.7943 27.0242H58.9971V26.8064L58.7799 26.822L58.7943 27.0242ZM58.7831 27.11C58.4332 27.1294 58.1548 27.1688 57.9631 27.2365L58.0981 27.6188C58.2331 27.5712 58.4638 27.5338 58.8056 27.5148L58.7831 27.11ZM57.9594 27.2378C57.7462 27.3178 57.5987 27.4753 57.5224 27.6916L57.9048 27.8266C57.9437 27.7162 58.0076 27.6528 58.1018 27.6175L57.9594 27.2378ZM57.5224 27.6916C57.4525 27.8896 57.4244 28.1833 57.4244 28.5516H57.8299C57.8299 28.1899 57.8593 27.9553 57.9048 27.8266L57.5224 27.6916ZM57.4244 28.5516V35.6991H57.8299V28.5516H57.4244ZM57.4244 35.6991C57.4244 36.0674 57.4525 36.3612 57.5224 36.5591L57.9048 36.4242C57.8593 36.2955 57.8299 36.0609 57.8299 35.6991H57.4244ZM57.5224 36.5591C57.5987 36.7754 57.7462 36.9329 57.9594 37.0129L58.1018 36.6332C58.0076 36.5979 57.9437 36.5345 57.9048 36.4242L57.5224 36.5591ZM57.9631 37.0143C58.1548 37.0819 58.4332 37.1213 58.7831 37.1408L58.8056 36.7359C58.4638 36.7169 58.2331 36.6795 58.0981 36.6319L57.9631 37.0143ZM58.5916 36.9384V37.2266H58.9971V36.9384H58.5916ZM58.8088 37.0243C58.3978 36.995 57.777 36.9806 56.9498 36.9806V37.3861C57.7751 37.3861 58.384 37.4005 58.7799 37.4288L58.8088 37.0243ZM56.9498 36.9806C56.17 36.9806 55.5549 36.995 55.1066 37.0243L55.1329 37.4289C55.5684 37.4005 56.1733 37.3861 56.9498 37.3861V36.9806ZM55.3225 37.2266V36.9384H54.917V37.2266H55.3225ZM55.131 37.1408C55.4798 37.1214 55.7559 37.0821 55.9403 37.0129L55.7979 36.6332C55.6749 36.6794 55.4514 36.7169 55.1085 36.7359L55.131 37.1408ZM55.9366 37.0143C56.1577 36.9362 56.3136 36.7803 56.3917 36.5591L56.0093 36.4242C55.9721 36.5297 55.9071 36.5947 55.8016 36.6319L55.9366 37.0143ZM56.3917 36.5591C56.4616 36.3612 56.4897 36.0674 56.4897 35.6991H56.0842C56.0842 36.0609 56.0548 36.2955 56.0093 36.4242L56.3917 36.5591ZM56.4897 35.6991V32.2406H56.0842V35.6991H56.4897ZM56.287 32.0379H51.6037V32.4434H56.287V32.0379ZM51.4009 32.2406V35.6991H51.8064V32.2406H51.4009ZM51.4009 35.6991C51.4009 36.0674 51.4291 36.3612 51.499 36.5591L51.8813 36.4242C51.8359 36.2955 51.8064 36.0609 51.8064 35.6991H51.4009ZM51.499 36.5591C51.5753 36.7754 51.7227 36.9329 51.936 37.0129L52.0783 36.6332C51.9842 36.5979 51.9203 36.5345 51.8813 36.4242L51.499 36.5591ZM51.9397 37.0143C52.1313 37.0819 52.4098 37.1213 52.7597 37.1408L52.7821 36.7359C52.4404 36.7169 52.2096 36.6795 52.0746 36.6319L51.9397 37.0143ZM52.5682 36.9384V37.2266H52.9736V36.9384H52.5682ZM52.7841 37.0243C52.3357 36.995 51.7206 36.9806 50.9408 36.9806V37.3861C51.7173 37.3861 52.3223 37.4005 52.7577 37.4289L52.7841 37.0243ZM50.9408 36.9806C50.1137 36.9806 49.4929 36.995 49.0819 37.0243L49.1108 37.4288C49.5067 37.4005 50.1156 37.3861 50.9408 37.3861V36.9806ZM49.299 37.2266V36.9384H48.8936V37.2266H49.299ZM49.1076 37.1408C49.4564 37.1214 49.7324 37.0821 49.9168 37.0129L49.7744 36.6332C49.6514 36.6794 49.4279 36.7169 49.0851 36.7359L49.1076 37.1408ZM49.9131 37.0143C50.1342 36.9362 50.2902 36.7803 50.3682 36.5591L49.9859 36.4242C49.9487 36.5297 49.8837 36.5947 49.7782 36.6319L49.9131 37.0143ZM50.3682 36.5591C50.4381 36.3612 50.4663 36.0674 50.4663 35.6991H50.0608C50.0608 36.0609 50.0313 36.2955 49.9859 36.4242L50.3682 36.5591ZM50.4663 35.6991V28.5516H50.0608V35.6991H50.4663ZM50.4663 28.5516C50.4663 28.1833 50.4381 27.8896 50.3682 27.6916L49.9859 27.8266C50.0313 27.9553 50.0608 28.1899 50.0608 28.5516H50.4663ZM50.3682 27.6916C50.2902 27.4705 50.1342 27.3145 49.9131 27.2365L49.7782 27.6188C49.8837 27.6561 49.9487 27.7211 49.9859 27.8266L50.3682 27.6916ZM49.9168 27.2378C49.7324 27.1687 49.4564 27.1293 49.1076 27.11L49.0851 27.5148C49.4279 27.5338 49.6514 27.5714 49.7744 27.6175L49.9168 27.2378ZM49.299 27.3124V27.0242H48.8936V27.3124H49.299ZM49.0819 27.2264C49.4929 27.2558 50.1137 27.2701 50.9408 27.2701V26.8647C50.1156 26.8647 49.5067 26.8502 49.1108 26.822L49.0819 27.2264ZM50.9408 27.2701C51.7111 27.2701 52.3261 27.2557 52.7838 27.2265L52.758 26.8218C52.3127 26.8503 51.7076 26.8647 50.9408 26.8647V27.2701ZM52.5682 27.0242V27.3124H52.9736V27.0242H52.5682ZM52.7597 27.11C52.4098 27.1294 52.1313 27.1688 51.9397 27.2365L52.0746 27.6188C52.2096 27.5712 52.4404 27.5338 52.7821 27.5148L52.7597 27.11ZM51.936 27.2378C51.7227 27.3178 51.5753 27.4753 51.499 27.6916L51.8813 27.8266C51.9203 27.7162 51.9842 27.6528 52.0783 27.6175L51.936 27.2378ZM51.499 27.6916C51.4291 27.8896 51.4009 28.1833 51.4009 28.5516H51.8064C51.8064 28.1899 51.8359 27.9553 51.8813 27.8266L51.499 27.6916ZM51.4009 28.5516V31.9524H51.8064V28.5516H51.4009ZM51.6037 32.1552H56.287V31.7497H51.6037V32.1552ZM56.4897 31.9524V28.5516H56.0842V31.9524H56.4897ZM56.4897 28.5516C56.4897 28.1833 56.4616 27.8896 56.3917 27.6916L56.0093 27.8266C56.0548 27.9553 56.0842 28.1899 56.0842 28.5516H56.4897ZM56.3917 27.6916C56.3136 27.4705 56.1577 27.3145 55.9366 27.2365L55.8016 27.6188C55.9071 27.6561 55.9721 27.7211 56.0093 27.8266L56.3917 27.6916ZM55.9403 27.2378C55.7559 27.1687 55.4798 27.1293 55.131 27.11L55.1085 27.5148C55.4514 27.5338 55.6749 27.5714 55.7979 27.6175L55.9403 27.2378ZM55.3225 27.3124V27.0242H54.917V27.3124H55.3225ZM55.1066 27.2265C55.5549 27.2557 56.17 27.2701 56.9498 27.2701V26.8647C56.1733 26.8647 55.5684 26.8503 55.1329 26.8219L55.1066 27.2265ZM56.9498 27.2701C57.777 27.2701 58.3978 27.2558 58.8088 27.2264L58.7799 26.822C58.384 26.8502 57.7751 26.8647 56.9498 26.8647V27.2701ZM58.5916 27.0242V27.3124H58.9971V27.0242H58.5916Z" fill="#FEF5EB" mask="url(#path-5-outside-1_23668_7356)"/>
</g>
<defs>
<linearGradient id="paint0_linear_23668_7356" x1="34" y1="-1.04141e-05" x2="34" y2="68" gradientUnits="userSpaceOnUse">
<stop stop-color="#C93D34"/>
<stop offset="1" stop-color="#7A2629"/>
</linearGradient>
<linearGradient id="paint1_linear_23668_7356" x1="34" y1="-1.04141e-05" x2="34" y2="68" gradientUnits="userSpaceOnUse">
<stop stop-color="#C93D34"/>
<stop offset="1" stop-color="#7A2629"/>
</linearGradient>
</defs>
</svg>
