<svg width="68" height="68" viewBox="0 0 68 68" fill="none" xmlns="http://www.w3.org/2000/svg">
<g clip-path="url(#clip0_23668_7173)">
<mask id="mask0_23668_7173" style="mask-type:alpha" maskUnits="userSpaceOnUse" x="0" y="0" width="68" height="68">
<path fill-rule="evenodd" clip-rule="evenodd" d="M47.0333 0H20.9667C13.5811 0 8.89667 0.0377779 4.45778 4.45778C0.018889 8.89667 0 13.6 0 20.9667V47.0333C0 54.4189 0.0377779 59.1033 4.45778 63.5422C8.89667 67.9811 13.6 68 20.9667 68H47.0333C54.4189 68 59.1033 67.9811 63.5422 63.5422C67.9622 59.1033 68 54.4 68 47.0333V20.9667C68 13.5811 67.9622 8.89667 63.5422 4.45778C59.1033 0.018889 54.4 0 47.0333 0Z" fill="url(#paint0_linear_23668_7173)"/>
</mask>
<g mask="url(#mask0_23668_7173)">
<rect width="68" height="68" fill="url(#paint1_linear_23668_7173)"/>
<path fill-rule="evenodd" clip-rule="evenodd" d="M15.6211 64.3735C26.4256 64.3735 45.6356 64.3735 45.6356 64.3735C52.5867 64.3735 57.0823 64.6379 61.2378 60.4446C64.8078 56.8746 64.5056 50.8679 64.7323 46.1079C60.7089 52.1524 53.3234 51.9446 47.6189 51.9446C47.6189 51.9446 20.9289 51.9446 10.9556 51.9446C0.982255 51.9635 4.8167 64.3735 15.6211 64.3735Z" fill="#FEF5EB"/>
<path d="M12.4855 53.5312H23.1389V61.5213L17.8122 58.8579L12.4855 61.5213V53.5312Z" fill="#FF3D4D"/>
<mask id="path-5-outside-1_23668_7173" maskUnits="userSpaceOnUse" x="13.1016" y="12.2266" width="42" height="26" fill="black">
<rect fill="white" x="13.1016" y="12.2266" width="42" height="26"/>
<path d="M26.2979 13.0242C27.9983 13.0242 29.2712 13.4517 30.1166 14.3067C30.962 15.1521 31.3847 16.3865 31.3847 18.0101C31.3847 19.0572 31.1782 19.9747 30.7651 20.7624C30.352 21.5502 29.7516 22.1602 28.9638 22.5925C28.1857 23.0152 27.2538 23.2266 26.1683 23.2266L25.3325 23.2122C24.7945 23.1929 24.4006 23.1833 24.1508 23.1833C23.3631 23.1833 22.7675 23.1977 22.364 23.2266V22.9384C22.7098 22.9191 22.9596 22.8807 23.1133 22.8231C23.2766 22.7654 23.3871 22.655 23.4447 22.4916C23.5024 22.3283 23.5312 22.0641 23.5312 21.6991V14.5516C23.5312 14.1866 23.5024 13.9224 23.4447 13.7591C23.3871 13.5958 23.2766 13.4853 23.1133 13.4277C22.9596 13.37 22.7098 13.3316 22.364 13.3124V13.0242C22.7002 13.053 23.1661 13.0674 23.7618 13.0674L24.9866 13.053C25.6399 13.0338 26.077 13.0242 26.2979 13.0242ZM25.9377 13.2836C25.6399 13.2836 25.4141 13.3172 25.2604 13.3844C25.1163 13.4517 25.0154 13.5718 24.9578 13.7447C24.9002 13.9176 24.8713 14.177 24.8713 14.5228V21.7279C24.8713 22.0737 24.9002 22.3331 24.9578 22.5061C25.0154 22.679 25.1163 22.7991 25.2604 22.8663C25.4141 22.9336 25.6447 22.9672 25.9521 22.9672C26.9704 22.9672 27.7726 22.7847 28.3586 22.4196C28.9446 22.0449 29.3529 21.5021 29.5835 20.7912C29.8236 20.0803 29.9437 19.1725 29.9437 18.0677C29.9437 16.9629 29.814 16.0647 29.5546 15.373C29.2953 14.6717 28.8726 14.1482 28.2865 13.8023C27.7101 13.4565 26.9272 13.2836 25.9377 13.2836ZM36.5911 13.3124C36.2453 13.3316 35.9907 13.37 35.8274 13.4277C35.6737 13.4853 35.568 13.5958 35.5104 13.7591C35.4527 13.9224 35.4239 14.1866 35.4239 14.5516V21.6991C35.4239 22.0641 35.4527 22.3283 35.5104 22.4916C35.568 22.655 35.6737 22.7654 35.8274 22.8231C35.9907 22.8807 36.2453 22.9191 36.5911 22.9384V23.2266C36.1492 23.1977 35.5392 23.1833 34.761 23.1833C33.9349 23.1833 33.32 23.1977 32.9165 23.2266V22.9384C33.2624 22.9191 33.5122 22.8807 33.6659 22.8231C33.8292 22.7654 33.9397 22.655 33.9973 22.4916C34.0549 22.3283 34.0838 22.0641 34.0838 21.6991V14.5516C34.0838 14.1866 34.0549 13.9224 33.9973 13.7591C33.9397 13.5958 33.8292 13.4853 33.6659 13.4277C33.5122 13.37 33.2624 13.3316 32.9165 13.3124V13.0242C33.32 13.053 33.9349 13.0674 34.761 13.0674C35.5296 13.0674 36.1396 13.053 36.5911 13.0242V13.3124ZM45.4433 21.3821C45.4433 21.9296 45.4769 22.5445 45.5442 23.2266C44.8909 23.1977 43.7909 23.1833 42.2442 23.1833C40.3997 23.1833 39.0068 23.1977 38.0653 23.2266V22.9384C38.4111 22.9191 38.6609 22.8807 38.8146 22.8231C38.9779 22.7654 39.0884 22.655 39.1461 22.4916C39.2037 22.3283 39.2325 22.0641 39.2325 21.6991V14.5516C39.2325 14.1866 39.2037 13.9224 39.1461 13.7591C39.0884 13.5958 38.9779 13.4853 38.8146 13.4277C38.6609 13.37 38.4111 13.3316 38.0653 13.3124V13.0242C39.0068 13.053 40.3997 13.0674 42.2442 13.0674C43.6564 13.0674 44.6603 13.053 45.256 13.0242C45.1887 13.6582 45.1551 14.225 45.1551 14.7246C45.1551 15.0992 45.1695 15.397 45.1983 15.618H44.8669C44.7996 14.9936 44.7132 14.5324 44.6075 14.2346C44.5018 13.9272 44.3241 13.7063 44.0743 13.5718C43.8245 13.4277 43.4451 13.3556 42.9359 13.3556H41.7399C41.394 13.3556 41.1395 13.3844 40.9761 13.4421C40.8224 13.4901 40.7168 13.5958 40.6591 13.7591C40.6015 13.9224 40.5727 14.1866 40.5727 14.5516V17.9524H41.5237C41.86 17.9524 42.1193 17.8756 42.3019 17.7219C42.4844 17.5586 42.6045 17.3712 42.6621 17.1599C42.7294 16.9389 42.7822 16.6651 42.8206 16.3385L42.8639 16.0503H43.1953C43.1665 16.4538 43.1521 16.9053 43.1521 17.4049V18.0965C43.1521 18.5865 43.1809 19.2686 43.2385 20.1428H42.9071C42.8975 20.0755 42.8687 19.845 42.8206 19.4511C42.7726 19.0476 42.6381 18.745 42.4172 18.5433C42.2058 18.3415 41.908 18.2406 41.5237 18.2406H40.5727V21.6991C40.5727 22.0641 40.6015 22.3283 40.6591 22.4916C40.7168 22.655 40.8224 22.7654 40.9761 22.8231C41.1395 22.8711 41.394 22.8951 41.7399 22.8951H42.7918C43.3874 22.8951 43.839 22.8183 44.1464 22.6646C44.4634 22.5013 44.694 22.2467 44.8381 21.9008C44.9822 21.5454 45.0878 21.0266 45.1551 20.3445H45.4865C45.4577 20.6039 45.4433 20.9498 45.4433 21.3821ZM18.9105 31.8372C19.9672 31.9813 20.7214 32.2887 21.1729 32.7594C21.6244 33.2205 21.8502 33.7777 21.8502 34.431C21.8502 34.9786 21.7109 35.4637 21.4323 35.8864C21.1537 36.3091 20.755 36.6405 20.2362 36.8807C19.7175 37.1113 19.1026 37.2266 18.3917 37.2266C18.1323 37.2266 17.9114 37.2218 17.7289 37.2122C17.114 37.1929 16.5088 37.1833 15.9132 37.1833C15.1254 37.1833 14.5298 37.1977 14.1263 37.2266V36.9384C14.4722 36.9191 14.7219 36.8807 14.8757 36.8231C15.039 36.7654 15.1494 36.655 15.2071 36.4916C15.2647 36.3283 15.2935 36.0641 15.2935 35.6991V28.5516C15.2935 28.1866 15.2647 27.9224 15.2071 27.7591C15.1494 27.5958 15.039 27.4853 14.8757 27.4277C14.7219 27.37 14.4722 27.3316 14.1263 27.3124V27.0242C14.5298 27.053 15.1158 27.0674 15.8844 27.0674L17.4407 27.053C17.6232 27.0434 17.8297 27.0386 18.0603 27.0386C19.0402 27.0386 19.7895 27.2451 20.3083 27.6582C20.8367 28.0713 21.1008 28.6189 21.1008 29.301C21.1008 29.8582 20.9231 30.3577 20.5677 30.7996C20.2218 31.2415 19.6694 31.5778 18.9105 31.8083V31.8372ZM17.7 27.3124C17.4022 27.3124 17.1765 27.346 17.0228 27.4132C16.8787 27.4805 16.7778 27.6006 16.7202 27.7735C16.6625 27.9464 16.6337 28.2058 16.6337 28.5516V31.8083H17.5992C18.3869 31.8083 18.9345 31.597 19.2419 31.1743C19.559 30.742 19.7175 30.1704 19.7175 29.4595C19.7175 28.739 19.559 28.201 19.2419 27.8456C18.9249 27.4901 18.4109 27.3124 17.7 27.3124ZM17.7145 36.8951C19.5109 36.8951 20.4092 36.0545 20.4092 34.3734C20.4092 33.6144 20.2026 33.038 19.7895 32.6441C19.386 32.2503 18.7376 32.0533 17.8441 32.0533H16.6337V35.6991C16.6337 36.0449 16.6625 36.2995 16.7202 36.4628C16.7778 36.6261 16.8787 36.7414 17.0228 36.8087C17.1765 36.8663 17.407 36.8951 17.7145 36.8951ZM26.9462 27.3124C26.6004 27.3316 26.3458 27.37 26.1825 27.4277C26.0288 27.4853 25.9231 27.5958 25.8655 27.7591C25.8078 27.9224 25.779 28.1866 25.779 28.5516V35.6991C25.779 36.0641 25.8078 36.3283 25.8655 36.4916C25.9231 36.655 26.0288 36.7654 26.1825 36.8231C26.3458 36.8807 26.6004 36.9191 26.9462 36.9384V37.2266C26.5043 37.1977 25.8943 37.1833 25.1161 37.1833C24.29 37.1833 23.6751 37.1977 23.2716 37.2266V36.9384C23.6175 36.9191 23.8673 36.8807 24.021 36.8231C24.1843 36.7654 24.2948 36.655 24.3524 36.4916C24.41 36.3283 24.4389 36.0641 24.4389 35.6991V28.5516C24.4389 28.1866 24.41 27.9224 24.3524 27.7591C24.2948 27.5958 24.1843 27.4853 24.021 27.4277C23.8673 27.37 23.6175 27.3316 23.2716 27.3124V27.0242C23.6751 27.053 24.29 27.0674 25.1161 27.0674C25.8847 27.0674 26.4947 27.053 26.9462 27.0242V27.3124ZM33.2046 31.8372C34.2613 31.9813 35.0154 32.2887 35.467 32.7594C35.9185 33.2205 36.1442 33.7777 36.1442 34.431C36.1442 34.9786 36.0049 35.4637 35.7263 35.8864C35.4478 36.3091 35.0491 36.6405 34.5303 36.8807C34.0115 37.1113 33.3967 37.2266 32.6858 37.2266C32.4264 37.2266 32.2055 37.2218 32.0229 37.2122C31.4081 37.1929 30.8029 37.1833 30.2073 37.1833C29.4195 37.1833 28.8239 37.1977 28.4204 37.2266V36.9384C28.7662 36.9191 29.016 36.8807 29.1697 36.8231C29.333 36.7654 29.4435 36.655 29.5012 36.4916C29.5588 36.3283 29.5876 36.0641 29.5876 35.6991V28.5516C29.5876 28.1866 29.5588 27.9224 29.5012 27.7591C29.4435 27.5958 29.333 27.4853 29.1697 27.4277C29.016 27.37 28.7662 27.3316 28.4204 27.3124V27.0242C28.8239 27.053 29.4099 27.0674 30.1784 27.0674L31.7347 27.053C31.9173 27.0434 32.1238 27.0386 32.3544 27.0386C33.3343 27.0386 34.0836 27.2451 34.6024 27.6582C35.1307 28.0713 35.3949 28.6189 35.3949 29.301C35.3949 29.8582 35.2172 30.3577 34.8617 30.7996C34.5159 31.2415 33.9635 31.5778 33.2046 31.8083V31.8372ZM31.9941 27.3124C31.6963 27.3124 31.4705 27.346 31.3168 27.4132C31.1727 27.4805 31.0719 27.6006 31.0142 27.7735C30.9566 27.9464 30.9278 28.2058 30.9278 28.5516V31.8083H31.8932C32.681 31.8083 33.2286 31.597 33.536 31.1743C33.853 30.742 34.0115 30.1704 34.0115 29.4595C34.0115 28.739 33.853 28.201 33.536 27.8456C33.219 27.4901 32.705 27.3124 31.9941 27.3124ZM32.0085 36.8951C33.805 36.8951 34.7032 36.0545 34.7032 34.3734C34.7032 33.6144 34.4967 33.038 34.0836 32.6441C33.6801 32.2503 33.0316 32.0533 32.1382 32.0533H30.9278V35.6991C30.9278 36.0449 30.9566 36.2995 31.0142 36.4628C31.0719 36.6261 31.1727 36.7414 31.3168 36.8087C31.4705 36.8663 31.7011 36.8951 32.0085 36.8951ZM44.9437 35.3821C44.9437 35.9296 44.9773 36.5445 45.0446 37.2266C44.3913 37.1977 43.2914 37.1833 41.7447 37.1833C39.9002 37.1833 38.5072 37.1977 37.5657 37.2266V36.9384C37.9116 36.9191 38.1613 36.8807 38.315 36.8231C38.4784 36.7654 38.5888 36.655 38.6465 36.4916C38.7041 36.3283 38.7329 36.0641 38.7329 35.6991V28.5516C38.7329 28.1866 38.7041 27.9224 38.6465 27.7591C38.5888 27.5958 38.4784 27.4853 38.315 27.4277C38.1613 27.37 37.9116 27.3316 37.5657 27.3124V27.0242C38.5072 27.053 39.9002 27.0674 41.7447 27.0674C43.1569 27.0674 44.1608 27.053 44.7564 27.0242C44.6891 27.6582 44.6555 28.225 44.6555 28.7246C44.6555 29.0992 44.6699 29.397 44.6987 29.618H44.3673C44.3001 28.9936 44.2136 28.5324 44.1079 28.2346C44.0023 27.9272 43.8245 27.7063 43.5748 27.5718C43.325 27.4277 42.9455 27.3556 42.4364 27.3556H41.2403C40.8945 27.3556 40.6399 27.3844 40.4766 27.4421C40.3229 27.4901 40.2172 27.5958 40.1595 27.7591C40.1019 27.9224 40.0731 28.1866 40.0731 28.5516V31.9524H41.0242C41.3604 31.9524 41.6198 31.8756 41.8023 31.7219C41.9848 31.5586 42.1049 31.3712 42.1626 31.1599C42.2298 30.9389 42.2826 30.6651 42.3211 30.3385L42.3643 30.0503H42.6957C42.6669 30.4538 42.6525 30.9053 42.6525 31.4049V32.0965C42.6525 32.5865 42.6813 33.2686 42.739 34.1428H42.4075C42.3979 34.0755 42.3691 33.845 42.3211 33.4511C42.273 33.0476 42.1385 32.745 41.9176 32.5433C41.7062 32.3415 41.4084 32.2406 41.0242 32.2406H40.0731V35.6991C40.0731 36.0641 40.1019 36.3283 40.1595 36.4916C40.2172 36.655 40.3229 36.7654 40.4766 36.8231C40.6399 36.8711 40.8945 36.8951 41.2403 36.8951H42.2923C42.8879 36.8951 43.3394 36.8183 43.6468 36.6646C43.9638 36.5013 44.1944 36.2467 44.3385 35.9008C44.4826 35.5454 44.5883 35.0266 44.6555 34.3445H44.987C44.9581 34.6039 44.9437 34.9498 44.9437 35.3821ZM50.2871 27.3124C49.9413 27.3316 49.6867 27.37 49.5234 27.4277C49.3697 27.4853 49.264 27.5958 49.2064 27.7591C49.1487 27.9224 49.1199 28.1866 49.1199 28.5516V35.6991C49.1199 36.0641 49.1487 36.3283 49.2064 36.4916C49.264 36.655 49.3697 36.7654 49.5234 36.8231C49.6867 36.8711 49.9413 36.8951 50.2871 36.8951H51.3391C51.9347 36.8951 52.3862 36.8135 52.6936 36.6502C53.0106 36.4772 53.2412 36.2034 53.3853 35.8288C53.5294 35.4541 53.6351 34.9113 53.7023 34.2004H54.0338C54.0049 34.4982 53.9905 34.8921 53.9905 35.3821C53.9905 35.9296 54.0242 36.5445 54.0914 37.2266C53.4381 37.1977 52.3382 37.1833 50.7915 37.1833C48.947 37.1833 47.554 37.1977 46.6125 37.2266V36.9384C46.9584 36.9191 47.2082 36.8807 47.3619 36.8231C47.5252 36.7654 47.6357 36.655 47.6933 36.4916C47.7509 36.3283 47.7798 36.0641 47.7798 35.6991V28.5516C47.7798 28.1866 47.7509 27.9224 47.6933 27.7591C47.6357 27.5958 47.5252 27.4853 47.3619 27.4277C47.2082 27.37 46.9584 27.3316 46.6125 27.3124V27.0242C47.016 27.053 47.6309 27.0674 48.457 27.0674C49.2256 27.0674 49.8356 27.053 50.2871 27.0242V27.3124Z"/>
</mask>
<path d="M26.2979 13.0242C27.9983 13.0242 29.2712 13.4517 30.1166 14.3067C30.962 15.1521 31.3847 16.3865 31.3847 18.0101C31.3847 19.0572 31.1782 19.9747 30.7651 20.7624C30.352 21.5502 29.7516 22.1602 28.9638 22.5925C28.1857 23.0152 27.2538 23.2266 26.1683 23.2266L25.3325 23.2122C24.7945 23.1929 24.4006 23.1833 24.1508 23.1833C23.3631 23.1833 22.7675 23.1977 22.364 23.2266V22.9384C22.7098 22.9191 22.9596 22.8807 23.1133 22.8231C23.2766 22.7654 23.3871 22.655 23.4447 22.4916C23.5024 22.3283 23.5312 22.0641 23.5312 21.6991V14.5516C23.5312 14.1866 23.5024 13.9224 23.4447 13.7591C23.3871 13.5958 23.2766 13.4853 23.1133 13.4277C22.9596 13.37 22.7098 13.3316 22.364 13.3124V13.0242C22.7002 13.053 23.1661 13.0674 23.7618 13.0674L24.9866 13.053C25.6399 13.0338 26.077 13.0242 26.2979 13.0242ZM25.9377 13.2836C25.6399 13.2836 25.4141 13.3172 25.2604 13.3844C25.1163 13.4517 25.0154 13.5718 24.9578 13.7447C24.9002 13.9176 24.8713 14.177 24.8713 14.5228V21.7279C24.8713 22.0737 24.9002 22.3331 24.9578 22.5061C25.0154 22.679 25.1163 22.7991 25.2604 22.8663C25.4141 22.9336 25.6447 22.9672 25.9521 22.9672C26.9704 22.9672 27.7726 22.7847 28.3586 22.4196C28.9446 22.0449 29.3529 21.5021 29.5835 20.7912C29.8236 20.0803 29.9437 19.1725 29.9437 18.0677C29.9437 16.9629 29.814 16.0647 29.5546 15.373C29.2953 14.6717 28.8726 14.1482 28.2865 13.8023C27.7101 13.4565 26.9272 13.2836 25.9377 13.2836ZM36.5911 13.3124C36.2453 13.3316 35.9907 13.37 35.8274 13.4277C35.6737 13.4853 35.568 13.5958 35.5104 13.7591C35.4527 13.9224 35.4239 14.1866 35.4239 14.5516V21.6991C35.4239 22.0641 35.4527 22.3283 35.5104 22.4916C35.568 22.655 35.6737 22.7654 35.8274 22.8231C35.9907 22.8807 36.2453 22.9191 36.5911 22.9384V23.2266C36.1492 23.1977 35.5392 23.1833 34.761 23.1833C33.9349 23.1833 33.32 23.1977 32.9165 23.2266V22.9384C33.2624 22.9191 33.5122 22.8807 33.6659 22.8231C33.8292 22.7654 33.9397 22.655 33.9973 22.4916C34.0549 22.3283 34.0838 22.0641 34.0838 21.6991V14.5516C34.0838 14.1866 34.0549 13.9224 33.9973 13.7591C33.9397 13.5958 33.8292 13.4853 33.6659 13.4277C33.5122 13.37 33.2624 13.3316 32.9165 13.3124V13.0242C33.32 13.053 33.9349 13.0674 34.761 13.0674C35.5296 13.0674 36.1396 13.053 36.5911 13.0242V13.3124ZM45.4433 21.3821C45.4433 21.9296 45.4769 22.5445 45.5442 23.2266C44.8909 23.1977 43.7909 23.1833 42.2442 23.1833C40.3997 23.1833 39.0068 23.1977 38.0653 23.2266V22.9384C38.4111 22.9191 38.6609 22.8807 38.8146 22.8231C38.9779 22.7654 39.0884 22.655 39.1461 22.4916C39.2037 22.3283 39.2325 22.0641 39.2325 21.6991V14.5516C39.2325 14.1866 39.2037 13.9224 39.1461 13.7591C39.0884 13.5958 38.9779 13.4853 38.8146 13.4277C38.6609 13.37 38.4111 13.3316 38.0653 13.3124V13.0242C39.0068 13.053 40.3997 13.0674 42.2442 13.0674C43.6564 13.0674 44.6603 13.053 45.256 13.0242C45.1887 13.6582 45.1551 14.225 45.1551 14.7246C45.1551 15.0992 45.1695 15.397 45.1983 15.618H44.8669C44.7996 14.9936 44.7132 14.5324 44.6075 14.2346C44.5018 13.9272 44.3241 13.7063 44.0743 13.5718C43.8245 13.4277 43.4451 13.3556 42.9359 13.3556H41.7399C41.394 13.3556 41.1395 13.3844 40.9761 13.4421C40.8224 13.4901 40.7168 13.5958 40.6591 13.7591C40.6015 13.9224 40.5727 14.1866 40.5727 14.5516V17.9524H41.5237C41.86 17.9524 42.1193 17.8756 42.3019 17.7219C42.4844 17.5586 42.6045 17.3712 42.6621 17.1599C42.7294 16.9389 42.7822 16.6651 42.8206 16.3385L42.8639 16.0503H43.1953C43.1665 16.4538 43.1521 16.9053 43.1521 17.4049V18.0965C43.1521 18.5865 43.1809 19.2686 43.2385 20.1428H42.9071C42.8975 20.0755 42.8687 19.845 42.8206 19.4511C42.7726 19.0476 42.6381 18.745 42.4172 18.5433C42.2058 18.3415 41.908 18.2406 41.5237 18.2406H40.5727V21.6991C40.5727 22.0641 40.6015 22.3283 40.6591 22.4916C40.7168 22.655 40.8224 22.7654 40.9761 22.8231C41.1395 22.8711 41.394 22.8951 41.7399 22.8951H42.7918C43.3874 22.8951 43.839 22.8183 44.1464 22.6646C44.4634 22.5013 44.694 22.2467 44.8381 21.9008C44.9822 21.5454 45.0878 21.0266 45.1551 20.3445H45.4865C45.4577 20.6039 45.4433 20.9498 45.4433 21.3821ZM18.9105 31.8372C19.9672 31.9813 20.7214 32.2887 21.1729 32.7594C21.6244 33.2205 21.8502 33.7777 21.8502 34.431C21.8502 34.9786 21.7109 35.4637 21.4323 35.8864C21.1537 36.3091 20.755 36.6405 20.2362 36.8807C19.7175 37.1113 19.1026 37.2266 18.3917 37.2266C18.1323 37.2266 17.9114 37.2218 17.7289 37.2122C17.114 37.1929 16.5088 37.1833 15.9132 37.1833C15.1254 37.1833 14.5298 37.1977 14.1263 37.2266V36.9384C14.4722 36.9191 14.7219 36.8807 14.8757 36.8231C15.039 36.7654 15.1494 36.655 15.2071 36.4916C15.2647 36.3283 15.2935 36.0641 15.2935 35.6991V28.5516C15.2935 28.1866 15.2647 27.9224 15.2071 27.7591C15.1494 27.5958 15.039 27.4853 14.8757 27.4277C14.7219 27.37 14.4722 27.3316 14.1263 27.3124V27.0242C14.5298 27.053 15.1158 27.0674 15.8844 27.0674L17.4407 27.053C17.6232 27.0434 17.8297 27.0386 18.0603 27.0386C19.0402 27.0386 19.7895 27.2451 20.3083 27.6582C20.8367 28.0713 21.1008 28.6189 21.1008 29.301C21.1008 29.8582 20.9231 30.3577 20.5677 30.7996C20.2218 31.2415 19.6694 31.5778 18.9105 31.8083V31.8372ZM17.7 27.3124C17.4022 27.3124 17.1765 27.346 17.0228 27.4132C16.8787 27.4805 16.7778 27.6006 16.7202 27.7735C16.6625 27.9464 16.6337 28.2058 16.6337 28.5516V31.8083H17.5992C18.3869 31.8083 18.9345 31.597 19.2419 31.1743C19.559 30.742 19.7175 30.1704 19.7175 29.4595C19.7175 28.739 19.559 28.201 19.2419 27.8456C18.9249 27.4901 18.4109 27.3124 17.7 27.3124ZM17.7145 36.8951C19.5109 36.8951 20.4092 36.0545 20.4092 34.3734C20.4092 33.6144 20.2026 33.038 19.7895 32.6441C19.386 32.2503 18.7376 32.0533 17.8441 32.0533H16.6337V35.6991C16.6337 36.0449 16.6625 36.2995 16.7202 36.4628C16.7778 36.6261 16.8787 36.7414 17.0228 36.8087C17.1765 36.8663 17.407 36.8951 17.7145 36.8951ZM26.9462 27.3124C26.6004 27.3316 26.3458 27.37 26.1825 27.4277C26.0288 27.4853 25.9231 27.5958 25.8655 27.7591C25.8078 27.9224 25.779 28.1866 25.779 28.5516V35.6991C25.779 36.0641 25.8078 36.3283 25.8655 36.4916C25.9231 36.655 26.0288 36.7654 26.1825 36.8231C26.3458 36.8807 26.6004 36.9191 26.9462 36.9384V37.2266C26.5043 37.1977 25.8943 37.1833 25.1161 37.1833C24.29 37.1833 23.6751 37.1977 23.2716 37.2266V36.9384C23.6175 36.9191 23.8673 36.8807 24.021 36.8231C24.1843 36.7654 24.2948 36.655 24.3524 36.4916C24.41 36.3283 24.4389 36.0641 24.4389 35.6991V28.5516C24.4389 28.1866 24.41 27.9224 24.3524 27.7591C24.2948 27.5958 24.1843 27.4853 24.021 27.4277C23.8673 27.37 23.6175 27.3316 23.2716 27.3124V27.0242C23.6751 27.053 24.29 27.0674 25.1161 27.0674C25.8847 27.0674 26.4947 27.053 26.9462 27.0242V27.3124ZM33.2046 31.8372C34.2613 31.9813 35.0154 32.2887 35.467 32.7594C35.9185 33.2205 36.1442 33.7777 36.1442 34.431C36.1442 34.9786 36.0049 35.4637 35.7263 35.8864C35.4478 36.3091 35.0491 36.6405 34.5303 36.8807C34.0115 37.1113 33.3967 37.2266 32.6858 37.2266C32.4264 37.2266 32.2055 37.2218 32.0229 37.2122C31.4081 37.1929 30.8029 37.1833 30.2073 37.1833C29.4195 37.1833 28.8239 37.1977 28.4204 37.2266V36.9384C28.7662 36.9191 29.016 36.8807 29.1697 36.8231C29.333 36.7654 29.4435 36.655 29.5012 36.4916C29.5588 36.3283 29.5876 36.0641 29.5876 35.6991V28.5516C29.5876 28.1866 29.5588 27.9224 29.5012 27.7591C29.4435 27.5958 29.333 27.4853 29.1697 27.4277C29.016 27.37 28.7662 27.3316 28.4204 27.3124V27.0242C28.8239 27.053 29.4099 27.0674 30.1784 27.0674L31.7347 27.053C31.9173 27.0434 32.1238 27.0386 32.3544 27.0386C33.3343 27.0386 34.0836 27.2451 34.6024 27.6582C35.1307 28.0713 35.3949 28.6189 35.3949 29.301C35.3949 29.8582 35.2172 30.3577 34.8617 30.7996C34.5159 31.2415 33.9635 31.5778 33.2046 31.8083V31.8372ZM31.9941 27.3124C31.6963 27.3124 31.4705 27.346 31.3168 27.4132C31.1727 27.4805 31.0719 27.6006 31.0142 27.7735C30.9566 27.9464 30.9278 28.2058 30.9278 28.5516V31.8083H31.8932C32.681 31.8083 33.2286 31.597 33.536 31.1743C33.853 30.742 34.0115 30.1704 34.0115 29.4595C34.0115 28.739 33.853 28.201 33.536 27.8456C33.219 27.4901 32.705 27.3124 31.9941 27.3124ZM32.0085 36.8951C33.805 36.8951 34.7032 36.0545 34.7032 34.3734C34.7032 33.6144 34.4967 33.038 34.0836 32.6441C33.6801 32.2503 33.0316 32.0533 32.1382 32.0533H30.9278V35.6991C30.9278 36.0449 30.9566 36.2995 31.0142 36.4628C31.0719 36.6261 31.1727 36.7414 31.3168 36.8087C31.4705 36.8663 31.7011 36.8951 32.0085 36.8951ZM44.9437 35.3821C44.9437 35.9296 44.9773 36.5445 45.0446 37.2266C44.3913 37.1977 43.2914 37.1833 41.7447 37.1833C39.9002 37.1833 38.5072 37.1977 37.5657 37.2266V36.9384C37.9116 36.9191 38.1613 36.8807 38.315 36.8231C38.4784 36.7654 38.5888 36.655 38.6465 36.4916C38.7041 36.3283 38.7329 36.0641 38.7329 35.6991V28.5516C38.7329 28.1866 38.7041 27.9224 38.6465 27.7591C38.5888 27.5958 38.4784 27.4853 38.315 27.4277C38.1613 27.37 37.9116 27.3316 37.5657 27.3124V27.0242C38.5072 27.053 39.9002 27.0674 41.7447 27.0674C43.1569 27.0674 44.1608 27.053 44.7564 27.0242C44.6891 27.6582 44.6555 28.225 44.6555 28.7246C44.6555 29.0992 44.6699 29.397 44.6987 29.618H44.3673C44.3001 28.9936 44.2136 28.5324 44.1079 28.2346C44.0023 27.9272 43.8245 27.7063 43.5748 27.5718C43.325 27.4277 42.9455 27.3556 42.4364 27.3556H41.2403C40.8945 27.3556 40.6399 27.3844 40.4766 27.4421C40.3229 27.4901 40.2172 27.5958 40.1595 27.7591C40.1019 27.9224 40.0731 28.1866 40.0731 28.5516V31.9524H41.0242C41.3604 31.9524 41.6198 31.8756 41.8023 31.7219C41.9848 31.5586 42.1049 31.3712 42.1626 31.1599C42.2298 30.9389 42.2826 30.6651 42.3211 30.3385L42.3643 30.0503H42.6957C42.6669 30.4538 42.6525 30.9053 42.6525 31.4049V32.0965C42.6525 32.5865 42.6813 33.2686 42.739 34.1428H42.4075C42.3979 34.0755 42.3691 33.845 42.3211 33.4511C42.273 33.0476 42.1385 32.745 41.9176 32.5433C41.7062 32.3415 41.4084 32.2406 41.0242 32.2406H40.0731V35.6991C40.0731 36.0641 40.1019 36.3283 40.1595 36.4916C40.2172 36.655 40.3229 36.7654 40.4766 36.8231C40.6399 36.8711 40.8945 36.8951 41.2403 36.8951H42.2923C42.8879 36.8951 43.3394 36.8183 43.6468 36.6646C43.9638 36.5013 44.1944 36.2467 44.3385 35.9008C44.4826 35.5454 44.5883 35.0266 44.6555 34.3445H44.987C44.9581 34.6039 44.9437 34.9498 44.9437 35.3821ZM50.2871 27.3124C49.9413 27.3316 49.6867 27.37 49.5234 27.4277C49.3697 27.4853 49.264 27.5958 49.2064 27.7591C49.1487 27.9224 49.1199 28.1866 49.1199 28.5516V35.6991C49.1199 36.0641 49.1487 36.3283 49.2064 36.4916C49.264 36.655 49.3697 36.7654 49.5234 36.8231C49.6867 36.8711 49.9413 36.8951 50.2871 36.8951H51.3391C51.9347 36.8951 52.3862 36.8135 52.6936 36.6502C53.0106 36.4772 53.2412 36.2034 53.3853 35.8288C53.5294 35.4541 53.6351 34.9113 53.7023 34.2004H54.0338C54.0049 34.4982 53.9905 34.8921 53.9905 35.3821C53.9905 35.9296 54.0242 36.5445 54.0914 37.2266C53.4381 37.1977 52.3382 37.1833 50.7915 37.1833C48.947 37.1833 47.554 37.1977 46.6125 37.2266V36.9384C46.9584 36.9191 47.2082 36.8807 47.3619 36.8231C47.5252 36.7654 47.6357 36.655 47.6933 36.4916C47.7509 36.3283 47.7798 36.0641 47.7798 35.6991V28.5516C47.7798 28.1866 47.7509 27.9224 47.6933 27.7591C47.6357 27.5958 47.5252 27.4853 47.3619 27.4277C47.2082 27.37 46.9584 27.3316 46.6125 27.3124V27.0242C47.016 27.053 47.6309 27.0674 48.457 27.0674C49.2256 27.0674 49.8356 27.053 50.2871 27.0242V27.3124Z" fill="#FEF5EB"/>
<path d="M30.1166 14.3067L29.9725 14.4492L29.9733 14.45L30.1166 14.3067ZM30.7651 20.7624L30.5855 20.6683V20.6683L30.7651 20.7624ZM28.9638 22.5925L29.0606 22.7707L29.0614 22.7702L28.9638 22.5925ZM26.1683 23.2266L26.1648 23.4293H26.1683V23.2266ZM25.3325 23.2122L25.3252 23.4148L25.329 23.4149L25.3325 23.2122ZM22.364 23.2266H22.1612V23.4443L22.3784 23.4288L22.364 23.2266ZM22.364 22.9384L22.3527 22.7359L22.1612 22.7466V22.9384H22.364ZM23.1133 22.8231L23.0458 22.6319L23.0421 22.6332L23.1133 22.8231ZM23.4447 13.7591L23.2536 13.8266V13.8266L23.4447 13.7591ZM23.1133 13.4277L23.0421 13.6175L23.0458 13.6188L23.1133 13.4277ZM22.364 13.3124H22.1612V13.5042L22.3527 13.5148L22.364 13.3124ZM22.364 13.0242L22.3813 12.8222L22.1612 12.8033V13.0242H22.364ZM23.7618 13.0674V13.2702L23.7641 13.2701L23.7618 13.0674ZM24.9866 13.053L24.989 13.2557L24.9926 13.2556L24.9866 13.053ZM25.2604 13.3844L25.1791 13.1986L25.1747 13.2007L25.2604 13.3844ZM24.9578 13.7447L25.1501 13.8088V13.8088L24.9578 13.7447ZM24.9578 22.5061L25.1501 22.4419V22.4419L24.9578 22.5061ZM25.2604 22.8663L25.1747 23.0501L25.1792 23.052L25.2604 22.8663ZM28.3586 22.4196L28.4658 22.5917L28.4678 22.5904L28.3586 22.4196ZM29.5835 20.7912L29.3914 20.7264L29.3906 20.7287L29.5835 20.7912ZM29.5546 15.373L29.3645 15.4434L29.3648 15.4442L29.5546 15.373ZM28.2865 13.8023L28.1822 13.9762L28.1835 13.9769L28.2865 13.8023ZM26.2979 13.2269C27.9669 13.2269 29.1786 13.6463 29.9725 14.4492L30.2608 14.1641C29.3639 13.257 28.0298 12.8214 26.2979 12.8214V13.2269ZM29.9733 14.45C30.7687 15.2454 31.182 16.4206 31.182 18.0101H31.5875C31.5875 16.3525 31.1554 15.0587 30.26 14.1633L29.9733 14.45ZM31.182 18.0101C31.182 19.0302 30.9809 19.9143 30.5855 20.6683L30.9446 20.8566C31.3755 20.035 31.5875 19.0842 31.5875 18.0101H31.182ZM30.5855 20.6683C30.1912 21.4203 29.6195 22.0015 28.8663 22.4148L29.0614 22.7702C29.8837 22.319 30.5128 21.68 30.9446 20.8566L30.5855 20.6683ZM28.8671 22.4144C28.1246 22.8177 27.2276 23.0238 26.1683 23.0238V23.4293C27.2801 23.4293 28.2467 23.2128 29.0606 22.7707L28.8671 22.4144ZM26.1718 23.0239L25.336 23.0094L25.329 23.4149L26.1648 23.4293L26.1718 23.0239ZM25.3397 23.0095C24.8014 22.9903 24.4045 22.9806 24.1508 22.9806V23.3861C24.3968 23.3861 24.7876 23.3956 25.3252 23.4148L25.3397 23.0095ZM24.1508 22.9806C23.3619 22.9806 22.7604 22.995 22.3495 23.0243L22.3784 23.4288C22.7745 23.4005 23.3643 23.3861 24.1508 23.3861V22.9806ZM22.5667 23.2266V22.9384H22.1612V23.2266H22.5667ZM22.3752 23.1408C22.724 23.1214 23.0001 23.0821 23.1845 23.0129L23.0421 22.6332C22.9191 22.6794 22.6956 22.7169 22.3527 22.7359L22.3752 23.1408ZM23.1808 23.0143C23.4019 22.9362 23.5579 22.7803 23.6359 22.5591L23.2536 22.4242C23.2163 22.5297 23.1513 22.5947 23.0458 22.6319L23.1808 23.0143ZM23.6359 22.5591C23.7058 22.3612 23.7339 22.0674 23.7339 21.6991H23.3285C23.3285 22.0609 23.299 22.2955 23.2536 22.4242L23.6359 22.5591ZM23.7339 21.6991V14.5516H23.3285V21.6991H23.7339ZM23.7339 14.5516C23.7339 14.1833 23.7058 13.8896 23.6359 13.6916L23.2536 13.8266C23.299 13.9553 23.3285 14.1899 23.3285 14.5516H23.7339ZM23.6359 13.6916C23.5579 13.4705 23.4019 13.3145 23.1808 13.2365L23.0458 13.6188C23.1513 13.6561 23.2163 13.7211 23.2536 13.8266L23.6359 13.6916ZM23.1845 13.2378C23.0001 13.1687 22.724 13.1293 22.3752 13.1099L22.3527 13.5148C22.6956 13.5338 22.9191 13.5714 23.0421 13.6175L23.1845 13.2378ZM22.5667 13.3124V13.0242H22.1612V13.3124H22.5667ZM22.3467 13.2262C22.6914 13.2557 23.164 13.2701 23.7618 13.2701V12.8647C23.1683 12.8647 22.709 12.8503 22.3813 12.8222L22.3467 13.2262ZM23.7641 13.2701L24.989 13.2557L24.9842 12.8503L23.7594 12.8647L23.7641 13.2701ZM24.9926 13.2556C25.6463 13.2364 26.0805 13.2269 26.2979 13.2269V12.8214C26.0735 12.8214 25.6335 12.8311 24.9807 12.8503L24.9926 13.2556ZM25.9377 13.0808C25.6303 13.0808 25.3712 13.1147 25.1792 13.1987L25.3417 13.5702C25.4571 13.5197 25.6495 13.4863 25.9377 13.4863V13.0808ZM25.1747 13.2007C24.9726 13.295 24.8379 13.4633 24.7655 13.6806L25.1501 13.8088C25.193 13.6802 25.26 13.6083 25.3461 13.5681L25.1747 13.2007ZM24.7655 13.6806C24.6973 13.8852 24.6686 14.1711 24.6686 14.5228H25.0741C25.0741 14.1829 25.1031 13.95 25.1501 13.8088L24.7655 13.6806ZM24.6686 14.5228V21.7279H25.0741V14.5228H24.6686ZM24.6686 21.7279C24.6686 22.0797 24.6973 22.3655 24.7655 22.5702L25.1501 22.4419C25.1031 22.3007 25.0741 22.0678 25.0741 21.7279H24.6686ZM24.7655 22.5702C24.8379 22.7874 24.9726 22.9557 25.1747 23.05L25.3461 22.6826C25.26 22.6424 25.193 22.5705 25.1501 22.4419L24.7655 22.5702ZM25.1792 23.052C25.3717 23.1363 25.6361 23.1699 25.9521 23.1699V22.7644C25.6532 22.7644 25.4565 22.7308 25.3417 22.6806L25.1792 23.052ZM25.9521 23.1699C26.9914 23.1699 27.8358 22.9841 28.4658 22.5917L28.2514 22.2475C27.7094 22.5852 26.9494 22.7644 25.9521 22.7644V23.1699ZM28.4678 22.5904C29.0965 22.1885 29.5324 21.6058 29.7763 20.8538L29.3906 20.7287C29.1734 21.3985 28.7928 21.9014 28.2494 22.2488L28.4678 22.5904ZM29.7755 20.8561C30.0253 20.117 30.1465 19.1852 30.1465 18.0677H29.741C29.741 19.1599 29.622 20.0437 29.3914 20.7264L29.7755 20.8561ZM30.1465 18.0677C30.1465 16.9495 30.0155 16.0246 29.7445 15.3018L29.3648 15.4442C29.6125 16.1048 29.741 16.9764 29.741 18.0677H30.1465ZM29.7448 15.3027C29.4709 14.5623 29.0198 13.9997 28.3896 13.6277L28.1835 13.9769C28.7253 14.2967 29.1196 14.7812 29.3645 15.4434L29.7448 15.3027ZM28.3909 13.6285C27.7715 13.2568 26.9477 13.0808 25.9377 13.0808V13.4863C26.9067 13.4863 27.6488 13.6561 28.1822 13.9762L28.3909 13.6285ZM36.5911 13.3124L36.6024 13.5148L36.7939 13.5042V13.3124H36.5911ZM35.8274 13.4277L35.7599 13.2364L35.7562 13.2378L35.8274 13.4277ZM35.5104 13.7591L35.7015 13.8266V13.8266L35.5104 13.7591ZM35.5104 22.4916L35.7015 22.4242V22.4242L35.5104 22.4916ZM35.8274 22.8231L35.7562 23.0129L35.7599 23.0143L35.8274 22.8231ZM36.5911 22.9384H36.7939V22.7466L36.6024 22.7359L36.5911 22.9384ZM36.5911 23.2266L36.5779 23.4289L36.7939 23.443V23.2266H36.5911ZM32.9165 23.2266H32.7138V23.4443L32.931 23.4288L32.9165 23.2266ZM32.9165 22.9384L32.9053 22.7359L32.7138 22.7466V22.9384H32.9165ZM33.6659 22.8231L33.5984 22.6319L33.5947 22.6332L33.6659 22.8231ZM33.9973 13.7591L33.8061 13.8266V13.8266L33.9973 13.7591ZM33.6659 13.4277L33.5947 13.6175L33.5984 13.6188L33.6659 13.4277ZM32.9165 13.3124H32.7138V13.5042L32.9053 13.5148L32.9165 13.3124ZM32.9165 13.0242L32.931 12.822L32.7138 12.8064V13.0242H32.9165ZM36.5911 13.0242H36.7939V12.8081L36.5782 12.8218L36.5911 13.0242ZM36.5799 13.1099C36.23 13.1294 35.9516 13.1688 35.7599 13.2365L35.8949 13.6188C36.0299 13.5712 36.2606 13.5338 36.6024 13.5148L36.5799 13.1099ZM35.7562 13.2378C35.5429 13.3178 35.3955 13.4753 35.3192 13.6916L35.7015 13.8266C35.7405 13.7162 35.8044 13.6528 35.8986 13.6175L35.7562 13.2378ZM35.3192 13.6916C35.2493 13.8896 35.2212 14.1833 35.2212 14.5516H35.6266C35.6266 14.1899 35.6561 13.9553 35.7015 13.8266L35.3192 13.6916ZM35.2212 14.5516V21.6991H35.6266V14.5516H35.2212ZM35.2212 21.6991C35.2212 22.0674 35.2493 22.3612 35.3192 22.5591L35.7015 22.4242C35.6561 22.2955 35.6266 22.0609 35.6266 21.6991H35.2212ZM35.3192 22.5591C35.3955 22.7754 35.5429 22.9329 35.7562 23.0129L35.8986 22.6332C35.8044 22.5979 35.7405 22.5345 35.7015 22.4242L35.3192 22.5591ZM35.7599 23.0143C35.9516 23.0819 36.23 23.1213 36.5799 23.1408L36.6024 22.7359C36.2606 22.7169 36.0299 22.6795 35.8949 22.6319L35.7599 23.0143ZM36.3884 22.9384V23.2266H36.7939V22.9384H36.3884ZM36.6043 23.0243C36.1559 22.995 35.5408 22.9806 34.761 22.9806V23.3861C35.5375 23.3861 36.1425 23.4005 36.5779 23.4289L36.6043 23.0243ZM34.761 22.9806C33.9339 22.9806 33.3131 22.995 32.9021 23.0243L32.931 23.4288C33.3269 23.4005 33.9358 23.3861 34.761 23.3861V22.9806ZM33.1193 23.2266V22.9384H32.7138V23.2266H33.1193ZM32.9278 23.1408C33.2766 23.1214 33.5527 23.0821 33.7371 23.0129L33.5947 22.6332C33.4717 22.6794 33.2482 22.7169 32.9053 22.7359L32.9278 23.1408ZM33.7333 23.0143C33.9545 22.9362 34.1104 22.7803 34.1885 22.5591L33.8061 22.4242C33.7689 22.5297 33.7039 22.5947 33.5984 22.6319L33.7333 23.0143ZM34.1885 22.5591C34.2583 22.3612 34.2865 22.0674 34.2865 21.6991H33.881C33.881 22.0609 33.8515 22.2955 33.8061 22.4242L34.1885 22.5591ZM34.2865 21.6991V14.5516H33.881V21.6991H34.2865ZM34.2865 14.5516C34.2865 14.1833 34.2583 13.8896 34.1885 13.6916L33.8061 13.8266C33.8515 13.9553 33.881 14.1899 33.881 14.5516H34.2865ZM34.1885 13.6916C34.1104 13.4705 33.9545 13.3145 33.7333 13.2365L33.5984 13.6188C33.7039 13.6561 33.7689 13.7211 33.8061 13.8266L34.1885 13.6916ZM33.7371 13.2378C33.5527 13.1687 33.2766 13.1293 32.9278 13.1099L32.9053 13.5148C33.2482 13.5338 33.4717 13.5714 33.5947 13.6175L33.7371 13.2378ZM33.1193 13.3124V13.0242H32.7138V13.3124H33.1193ZM32.9021 13.2264C33.3131 13.2558 33.9339 13.2701 34.761 13.2701V12.8647C33.9358 12.8647 33.3269 12.8502 32.931 12.822L32.9021 13.2264ZM34.761 13.2701C35.5314 13.2701 36.1463 13.2557 36.604 13.2265L36.5782 12.8218C36.1329 12.8503 35.5278 12.8647 34.761 12.8647V13.2701ZM36.3884 13.0242V13.3124H36.7939V13.0242H36.3884ZM45.5442 23.2266L45.5352 23.4291L45.7689 23.4394L45.7459 23.2067L45.5442 23.2266ZM38.0653 23.2266H37.8626V23.4356L38.0715 23.4292L38.0653 23.2266ZM38.0653 22.9384L38.054 22.7359L37.8626 22.7466V22.9384H38.0653ZM38.8146 22.8231L38.7471 22.6319L38.7434 22.6332L38.8146 22.8231ZM39.1461 13.7591L38.9549 13.8266V13.8266L39.1461 13.7591ZM38.8146 13.4277L38.7434 13.6175L38.7471 13.6188L38.8146 13.4277ZM38.0653 13.3124H37.8626V13.5042L38.054 13.5148L38.0653 13.3124ZM38.0653 13.0242L38.0715 12.8215L37.8626 12.8151V13.0242H38.0653ZM45.256 13.0242L45.4576 13.0456L45.4825 12.8102L45.2462 12.8217L45.256 13.0242ZM45.1983 15.618V15.8207H45.4292L45.3994 15.5918L45.1983 15.618ZM44.8669 15.618L44.6653 15.6397L44.6848 15.8207H44.8669V15.618ZM44.6075 14.2346L44.4158 14.3005L44.4164 14.3024L44.6075 14.2346ZM44.0743 13.5718L43.973 13.7474L43.9782 13.7503L44.0743 13.5718ZM40.9761 13.4421L41.0367 13.6357L41.0436 13.6332L40.9761 13.4421ZM40.6591 13.7591L40.8503 13.8266V13.8266L40.6591 13.7591ZM40.5727 17.9524H40.3699V18.1552H40.5727V17.9524ZM42.3019 17.7219L42.4325 17.877L42.4371 17.873L42.3019 17.7219ZM42.6621 17.1599L42.4681 17.1008L42.4665 17.1065L42.6621 17.1599ZM42.8206 16.3385L42.62 16.3084L42.6193 16.3148L42.8206 16.3385ZM42.8639 16.0503V15.8476H42.6893L42.6634 16.0202L42.8639 16.0503ZM43.1953 16.0503L43.3975 16.0647L43.413 15.8476H43.1953V16.0503ZM43.2385 20.1428V20.3455H43.4551L43.4408 20.1295L43.2385 20.1428ZM42.9071 20.1428L42.7064 20.1715L42.7313 20.3455H42.9071V20.1428ZM42.8206 19.4511L42.6193 19.4751L42.6194 19.4756L42.8206 19.4511ZM42.4172 18.5433L42.2771 18.6899L42.2805 18.693L42.4172 18.5433ZM40.5727 18.2406V18.0379H40.3699V18.2406H40.5727ZM40.6591 22.4916L40.8503 22.4242V22.4242L40.6591 22.4916ZM40.9761 22.8231L40.905 23.0129L40.9119 23.0155L40.9189 23.0176L40.9761 22.8231ZM44.1464 22.6646L44.237 22.8459L44.2392 22.8448L44.1464 22.6646ZM44.8381 21.9008L45.0252 21.9788L45.0259 21.977L44.8381 21.9008ZM45.1551 20.3445V20.1418H44.9714L44.9533 20.3246L45.1551 20.3445ZM45.4865 20.3445L45.688 20.3669L45.713 20.1418H45.4865V20.3445ZM45.2406 21.3821C45.2406 21.9377 45.2747 22.5593 45.3424 23.2465L45.7459 23.2067C45.6792 22.5296 45.646 21.9216 45.646 21.3821H45.2406ZM45.5531 23.024C44.8949 22.995 43.791 22.9806 42.2442 22.9806V23.3861C43.7909 23.3861 44.8869 23.4005 45.5352 23.4291L45.5531 23.024ZM42.2442 22.9806C40.3992 22.9806 39.0037 22.995 38.0591 23.0239L38.0715 23.4292C39.0098 23.4005 40.4002 23.3861 42.2442 23.3861V22.9806ZM38.268 23.2266V22.9384H37.8626V23.2266H38.268ZM38.0765 23.1408C38.4254 23.1214 38.7014 23.0821 38.8858 23.0129L38.7434 22.6332C38.6204 22.6794 38.3969 22.7169 38.054 22.7359L38.0765 23.1408ZM38.8821 23.0143C39.1032 22.9362 39.2592 22.7803 39.3372 22.5591L38.9549 22.4242C38.9176 22.5297 38.8526 22.5947 38.7471 22.6319L38.8821 23.0143ZM39.3372 22.5591C39.4071 22.3612 39.4352 22.0674 39.4352 21.6991H39.0298C39.0298 22.0609 39.0003 22.2955 38.9549 22.4242L39.3372 22.5591ZM39.4352 21.6991V14.5516H39.0298V21.6991H39.4352ZM39.4352 14.5516C39.4352 14.1833 39.4071 13.8896 39.3372 13.6916L38.9549 13.8266C39.0003 13.9553 39.0298 14.1899 39.0298 14.5516H39.4352ZM39.3372 13.6916C39.2592 13.4705 39.1032 13.3145 38.8821 13.2365L38.7471 13.6188C38.8526 13.6561 38.9176 13.7211 38.9549 13.8266L39.3372 13.6916ZM38.8858 13.2378C38.7014 13.1687 38.4254 13.1293 38.0765 13.1099L38.054 13.5148C38.3969 13.5338 38.6204 13.5714 38.7434 13.6175L38.8858 13.2378ZM38.268 13.3124V13.0242H37.8626V13.3124H38.268ZM38.0591 13.2268C39.0037 13.2557 40.3992 13.2701 42.2442 13.2701V12.8647C40.4002 12.8647 39.0098 12.8503 38.0715 12.8215L38.0591 13.2268ZM42.2442 13.2701C43.6565 13.2701 44.6648 13.2558 45.2658 13.2267L45.2462 12.8217C44.6559 12.8502 43.6564 12.8647 42.2442 12.8647V13.2701ZM45.0544 13.0028C44.9865 13.6421 44.9524 14.2162 44.9524 14.7246H45.3578C45.3578 14.2338 45.3909 13.6743 45.4576 13.0456L45.0544 13.0028ZM44.9524 14.7246C44.9524 15.103 44.9668 15.4107 44.9973 15.6442L45.3994 15.5918C45.3722 15.3834 45.3578 15.0955 45.3578 14.7246H44.9524ZM45.1983 15.4153H44.8669V15.8207H45.1983V15.4153ZM45.0685 15.5963C45.0008 14.9684 44.9125 14.4878 44.7986 14.1668L44.4164 14.3024C44.5139 14.577 44.5984 15.0188 44.6653 15.6397L45.0685 15.5963ZM44.7992 14.1687C44.6796 13.8206 44.4717 13.5555 44.1704 13.3933L43.9782 13.7503C44.1765 13.857 44.3241 14.0338 44.4158 14.3005L44.7992 14.1687ZM44.1756 13.3961C43.8796 13.2254 43.4571 13.1529 42.9359 13.1529V13.5583C43.4331 13.5583 43.7695 13.6299 43.973 13.7474L44.1756 13.3961ZM42.9359 13.1529H41.7399V13.5583H42.9359V13.1529ZM41.7399 13.1529C41.3892 13.1529 41.1059 13.1813 40.9087 13.2509L41.0436 13.6332C41.173 13.5876 41.3988 13.5583 41.7399 13.5583V13.1529ZM40.9157 13.2486C40.6958 13.3173 40.545 13.4733 40.4679 13.6916L40.8503 13.8266C40.8885 13.7182 40.9491 13.6629 41.0366 13.6356L40.9157 13.2486ZM40.4679 13.6916C40.3981 13.8896 40.3699 14.1833 40.3699 14.5516H40.7754C40.7754 14.1899 40.8049 13.9553 40.8503 13.8266L40.4679 13.6916ZM40.3699 14.5516V17.9524H40.7754V14.5516H40.3699ZM40.5727 18.1552H41.5237V17.7497H40.5727V18.1552ZM41.5237 18.1552C41.8884 18.1552 42.2009 18.0719 42.4325 17.877L42.1713 17.5668C42.0378 17.6792 41.8315 17.7497 41.5237 17.7497V18.1552ZM42.4371 17.873C42.6452 17.6868 42.7886 17.4667 42.8577 17.2132L42.4665 17.1065C42.4204 17.2758 42.3236 17.4304 42.1667 17.5708L42.4371 17.873ZM42.8561 17.2189C42.928 16.9827 42.9827 16.6962 43.022 16.3622L42.6193 16.3148C42.5817 16.6341 42.5308 16.8951 42.4682 17.1009L42.8561 17.2189ZM43.0211 16.3686L43.0644 16.0804L42.6634 16.0202L42.6201 16.3084L43.0211 16.3686ZM42.8639 16.253H43.1953V15.8476H42.8639V16.253ZM42.9931 16.0359C42.9639 16.4451 42.9493 16.9016 42.9493 17.4049H43.3548C43.3548 16.9091 43.3691 16.4625 43.3975 16.0647L42.9931 16.0359ZM42.9493 17.4049V18.0965H43.3548V17.4049H42.9493ZM42.9493 18.0965C42.9493 18.5931 42.9785 19.2803 43.0362 20.1561L43.4408 20.1295C43.3833 19.2568 43.3548 18.5799 43.3548 18.0965H42.9493ZM43.2385 19.9401H42.9071V20.3455H43.2385V19.9401ZM43.1078 20.1141C43.0986 20.0495 43.0701 19.8217 43.0219 19.4266L42.6194 19.4756C42.6673 19.8683 42.6964 20.1016 42.7064 20.1715L43.1078 20.1141ZM43.022 19.4271C42.9702 18.9927 42.8218 18.6382 42.5539 18.3935L42.2805 18.693C42.4544 18.8518 42.575 19.1025 42.6193 19.4751L43.022 19.4271ZM42.5571 18.3966C42.2974 18.1487 41.9432 18.0379 41.5237 18.0379V18.4434C41.8728 18.4434 42.1142 18.5344 42.2772 18.6899L42.5571 18.3966ZM41.5237 18.0379H40.5727V18.4434H41.5237V18.0379ZM40.3699 18.2406V21.6991H40.7754V18.2406H40.3699ZM40.3699 21.6991C40.3699 22.0674 40.3981 22.3612 40.4679 22.5591L40.8503 22.4242C40.8049 22.2955 40.7754 22.0609 40.7754 21.6991H40.3699ZM40.4679 22.5591C40.5443 22.7754 40.6917 22.9329 40.905 23.0129L41.0473 22.6332C40.9532 22.5979 40.8892 22.5345 40.8503 22.4242L40.4679 22.5591ZM40.9189 23.0176C41.1115 23.0742 41.3903 23.0979 41.7399 23.0979V22.6924C41.3978 22.6924 41.1674 22.668 41.0333 22.6286L40.9189 23.0176ZM41.7399 23.0979H42.7918V22.6924H41.7399V23.0979ZM42.7918 23.0979C43.399 23.0979 43.8879 23.0205 44.237 22.8459L44.0557 22.4832C43.79 22.6161 43.3759 22.6924 42.7918 22.6924V23.0979ZM44.2392 22.8448C44.601 22.6584 44.8637 22.3664 45.0252 21.9788L44.6509 21.8229C44.5242 22.127 44.3258 22.3441 44.0535 22.4843L44.2392 22.8448ZM45.0259 21.977C45.1809 21.5947 45.2889 21.0532 45.3568 20.3644L44.9533 20.3246C44.8867 21 44.7834 21.4961 44.6502 21.8247L45.0259 21.977ZM45.1551 20.5473H45.4865V20.1418H45.1551V20.5473ZM45.285 20.3221C45.255 20.5922 45.2406 20.9464 45.2406 21.3821H45.646C45.646 20.9531 45.6604 20.6156 45.688 20.3669L45.285 20.3221ZM18.9105 31.8372H18.7078V32.0141L18.8831 32.038L18.9105 31.8372ZM21.1729 32.7594L21.0266 32.8998L21.028 32.9013L21.1729 32.7594ZM21.4323 35.8864L21.6016 35.998V35.998L21.4323 35.8864ZM20.2362 36.8807L20.3186 37.066L20.3214 37.0647L20.2362 36.8807ZM17.7289 37.2122L17.7395 37.0096L17.7352 37.0095L17.7289 37.2122ZM14.1263 37.2266H13.9236V37.4443L14.1408 37.4288L14.1263 37.2266ZM14.1263 36.9384L14.1151 36.7359L13.9236 36.7466V36.9384H14.1263ZM14.8757 36.8231L14.8082 36.6319L14.8045 36.6332L14.8757 36.8231ZM15.2071 27.7591L15.0159 27.8266V27.8266L15.2071 27.7591ZM14.8757 27.4277L14.8045 27.6175L14.8082 27.6188L14.8757 27.4277ZM14.1263 27.3124H13.9236V27.5042L14.1151 27.5148L14.1263 27.3124ZM14.1263 27.0242L14.1408 26.822L13.9236 26.8064V27.0242H14.1263ZM15.8844 27.0674V27.2701L15.8862 27.2701L15.8844 27.0674ZM17.4407 27.053L17.4425 27.2559L17.4513 27.2554L17.4407 27.053ZM20.3083 27.6582L20.182 27.8168L20.1834 27.8179L20.3083 27.6582ZM20.5677 30.7996L20.4097 30.6726L20.408 30.6747L20.5677 30.7996ZM18.9105 31.8083L18.8516 31.6144L18.7078 31.658V31.8083H18.9105ZM17.0228 27.4132L16.9415 27.2275L16.937 27.2295L17.0228 27.4132ZM16.7202 27.7735L16.9125 27.8376V27.8376L16.7202 27.7735ZM16.6337 31.8083H16.431V32.0111H16.6337V31.8083ZM19.2419 31.1743L19.0784 31.0544L19.078 31.0551L19.2419 31.1743ZM19.7895 32.6441L19.6479 32.7892L19.6496 32.7909L19.7895 32.6441ZM16.6337 32.0533V31.8506H16.431V32.0533H16.6337ZM16.7202 36.4628L16.9113 36.3953V36.3953L16.7202 36.4628ZM17.0228 36.8087L16.937 36.9924L16.9442 36.9957L16.9516 36.9985L17.0228 36.8087ZM18.8831 32.038C19.9211 32.1796 20.6213 32.4773 21.0266 32.8998L21.3192 32.6191C20.8214 32.1001 20.0134 31.7829 18.9379 31.6363L18.8831 32.038ZM21.028 32.9013C21.4419 33.324 21.6474 33.83 21.6474 34.431H22.0529C22.0529 33.7254 21.8069 33.1171 21.3177 32.6176L21.028 32.9013ZM21.6474 34.431C21.6474 34.9423 21.518 35.388 21.263 35.7748L21.6016 35.998C21.9038 35.5395 22.0529 35.0149 22.0529 34.431H21.6474ZM21.263 35.7748C21.0077 36.1621 20.6401 36.4703 20.1511 36.6967L20.3214 37.0647C20.8699 36.8108 21.2996 36.4561 21.6016 35.998L21.263 35.7748ZM20.1539 36.6955C19.6667 36.912 19.0812 37.0238 18.3917 37.0238V37.4293C19.1241 37.4293 19.7682 37.3106 20.3186 37.066L20.1539 36.6955ZM18.3917 37.0238C18.1346 37.0238 17.9174 37.0191 17.7395 37.0097L17.7182 37.4146C17.9054 37.4245 18.1301 37.4293 18.3917 37.4293V37.0238ZM17.7352 37.0095C17.1183 36.9902 16.511 36.9806 15.9132 36.9806V37.3861C16.5066 37.3861 17.1097 37.3956 17.7225 37.4148L17.7352 37.0095ZM15.9132 36.9806C15.1242 36.9806 14.5228 36.995 14.1119 37.0243L14.1408 37.4288C14.5368 37.4005 15.1266 37.3861 15.9132 37.3861V36.9806ZM14.3291 37.2266V36.9384H13.9236V37.2266H14.3291ZM14.1376 37.1408C14.4864 37.1214 14.7624 37.0821 14.9468 37.0129L14.8045 36.6332C14.6814 36.6794 14.4579 36.7169 14.1151 36.7359L14.1376 37.1408ZM14.9431 37.0143C15.1643 36.9362 15.3202 36.7803 15.3983 36.5591L15.0159 36.4242C14.9787 36.5297 14.9137 36.5947 14.8082 36.6319L14.9431 37.0143ZM15.3983 36.5591C15.4681 36.3612 15.4963 36.0674 15.4963 35.6991H15.0908C15.0908 36.0609 15.0613 36.2955 15.0159 36.4242L15.3983 36.5591ZM15.4963 35.6991V28.5516H15.0908V35.6991H15.4963ZM15.4963 28.5516C15.4963 28.1833 15.4681 27.8896 15.3983 27.6916L15.0159 27.8266C15.0613 27.9552 15.0908 28.1899 15.0908 28.5516H15.4963ZM15.3983 27.6916C15.3202 27.4705 15.1643 27.3145 14.9431 27.2365L14.8082 27.6188C14.9137 27.6561 14.9787 27.7211 15.0159 27.8266L15.3983 27.6916ZM14.9468 27.2378C14.7624 27.1687 14.4864 27.1293 14.1376 27.1099L14.1151 27.5148C14.4579 27.5338 14.6814 27.5714 14.8045 27.6175L14.9468 27.2378ZM14.3291 27.3124V27.0242H13.9236V27.3124H14.3291ZM14.1119 27.2264C14.5227 27.2557 15.1145 27.2701 15.8844 27.2701V26.8647C15.1172 26.8647 14.5369 26.8502 14.1408 26.822L14.1119 27.2264ZM15.8862 27.2701L17.4425 27.2557L17.4388 26.8503L15.8825 26.8647L15.8862 27.2701ZM17.4513 27.2554C17.6295 27.2461 17.8324 27.2413 18.0603 27.2413V26.8358C17.8271 26.8358 17.6169 26.8407 17.43 26.8505L17.4513 27.2554ZM18.0603 27.2413C19.0154 27.2413 19.7127 27.4431 20.182 27.8168L20.4346 27.4996C19.8663 27.0471 19.065 26.8358 18.0603 26.8358V27.2413ZM20.1834 27.8179C20.6617 28.1918 20.8981 28.68 20.8981 29.301H21.3036C21.3036 28.5578 21.0116 27.9508 20.4332 27.4985L20.1834 27.8179ZM20.8981 29.301C20.8981 29.8111 20.7367 30.266 20.4097 30.6726L20.7256 30.9267C21.1095 30.4495 21.3036 29.9053 21.3036 29.301H20.8981ZM20.408 30.6747C20.0965 31.0728 19.5865 31.3911 18.8516 31.6144L18.9694 32.0023C19.7523 31.7645 20.3472 31.4103 20.7273 30.9246L20.408 30.6747ZM18.7078 31.8083V31.8372H19.1132V31.8083H18.7078ZM17.7 27.1096C17.3926 27.1096 17.1335 27.1435 16.9415 27.2275L17.104 27.599C17.2194 27.5485 17.4118 27.5151 17.7 27.5151V27.1096ZM16.937 27.2295C16.7349 27.3238 16.6002 27.4921 16.5278 27.7094L16.9125 27.8376C16.9553 27.709 17.0224 27.6371 17.1085 27.597L16.937 27.2295ZM16.5278 27.7094C16.4596 27.914 16.431 28.1999 16.431 28.5516H16.8364C16.8364 28.2117 16.8654 27.9788 16.9125 27.8376L16.5278 27.7094ZM16.431 28.5516V31.8083H16.8364V28.5516H16.431ZM16.6337 32.0111H17.5992V31.6056H16.6337V32.0111ZM17.5992 32.0111C18.4176 32.0111 19.0439 31.7913 19.4059 31.2935L19.078 31.0551C18.8251 31.4027 18.3563 31.6056 17.5992 31.6056V32.0111ZM19.4054 31.2942C19.7551 30.8173 19.9202 30.1996 19.9202 29.4595H19.5147C19.5147 30.1412 19.3628 30.6667 19.0784 31.0544L19.4054 31.2942ZM19.9202 29.4595C19.9202 28.7139 19.7568 28.1182 19.3932 27.7106L19.0906 27.9805C19.3611 28.2838 19.5147 28.764 19.5147 29.4595H19.9202ZM19.3932 27.7106C19.0221 27.2945 18.44 27.1096 17.7 27.1096V27.5151C18.3819 27.5151 18.8277 27.6857 19.0906 27.9805L19.3932 27.7106ZM17.7145 37.0979C18.6407 37.0979 19.3732 36.8814 19.874 36.4127C20.3774 35.9416 20.6119 35.2488 20.6119 34.3734H20.2064C20.2064 35.1791 19.9918 35.7471 19.5969 36.1167C19.1996 36.4885 18.5847 36.6924 17.7145 36.6924V37.0979ZM20.6119 34.3734C20.6119 33.578 20.3946 32.9409 19.9294 32.4974L19.6496 32.7909C20.0106 33.1351 20.2064 33.6508 20.2064 34.3734H20.6119ZM19.9311 32.4991C19.4728 32.0516 18.7607 31.8506 17.8441 31.8506V32.2561C18.7144 32.2561 19.2993 32.4489 19.6479 32.7892L19.9311 32.4991ZM17.8441 31.8506H16.6337V32.2561H17.8441V31.8506ZM16.431 32.0533V35.6991H16.8364V32.0533H16.431ZM16.431 35.6991C16.431 36.0497 16.4594 36.333 16.529 36.5303L16.9113 36.3953C16.8657 36.266 16.8364 36.0401 16.8364 35.6991H16.431ZM16.529 36.5303C16.6029 36.7399 16.7389 36.8999 16.937 36.9924L17.1085 36.625C17.0184 36.5829 16.9526 36.5124 16.9113 36.3953L16.529 36.5303ZM16.9516 36.9985C17.1401 37.0692 17.4001 37.0979 17.7145 37.0979V36.6924C17.4139 36.6924 17.2129 36.6634 17.094 36.6188L16.9516 36.9985ZM26.9462 27.3124L26.9575 27.5148L27.149 27.5042V27.3124H26.9462ZM26.1825 27.4277L26.115 27.2364L26.1113 27.2378L26.1825 27.4277ZM25.8655 27.7591L26.0567 27.8266V27.8266L25.8655 27.7591ZM25.8655 36.4916L26.0567 36.4242V36.4242L25.8655 36.4916ZM26.1825 36.8231L26.1113 37.0129L26.115 37.0143L26.1825 36.8231ZM26.9462 36.9384H27.149V36.7466L26.9575 36.7359L26.9462 36.9384ZM26.9462 37.2266L26.933 37.4289L27.149 37.443V37.2266H26.9462ZM23.2716 37.2266H23.0689V37.4443L23.2861 37.4288L23.2716 37.2266ZM23.2716 36.9384L23.2604 36.7359L23.0689 36.7466V36.9384H23.2716ZM24.021 36.8231L23.9535 36.6319L23.9498 36.6332L24.021 36.8231ZM24.3524 27.7591L24.1612 27.8266V27.8266L24.3524 27.7591ZM24.021 27.4277L23.9498 27.6175L23.9535 27.6188L24.021 27.4277ZM23.2716 27.3124H23.0689V27.5042L23.2604 27.5148L23.2716 27.3124ZM23.2716 27.0242L23.2861 26.822L23.0689 26.8064V27.0242H23.2716ZM26.9462 27.0242H27.149V26.8081L26.9333 26.8218L26.9462 27.0242ZM26.935 27.1099C26.5851 27.1294 26.3067 27.1688 26.115 27.2365L26.25 27.6188C26.385 27.5712 26.6157 27.5338 26.9575 27.5148L26.935 27.1099ZM26.1113 27.2378C25.898 27.3178 25.7506 27.4753 25.6743 27.6916L26.0567 27.8266C26.0956 27.7162 26.1595 27.6528 26.2537 27.6175L26.1113 27.2378ZM25.6743 27.6916C25.6044 27.8896 25.5763 28.1833 25.5763 28.5516H25.9817C25.9817 28.1899 26.0112 27.9552 26.0567 27.8266L25.6743 27.6916ZM25.5763 28.5516V35.6991H25.9817V28.5516H25.5763ZM25.5763 35.6991C25.5763 36.0674 25.6044 36.3612 25.6743 36.5591L26.0567 36.4242C26.0112 36.2955 25.9817 36.0609 25.9817 35.6991H25.5763ZM25.6743 36.5591C25.7506 36.7754 25.898 36.9329 26.1113 37.0129L26.2537 36.6332C26.1595 36.5979 26.0956 36.5345 26.0567 36.4242L25.6743 36.5591ZM26.115 37.0143C26.3067 37.0819 26.5851 37.1213 26.935 37.1408L26.9575 36.7359C26.6157 36.7169 26.385 36.6795 26.25 36.6319L26.115 37.0143ZM26.7435 36.9384V37.2266H27.149V36.9384H26.7435ZM26.9594 37.0243C26.511 36.995 25.8959 36.9806 25.1161 36.9806V37.3861C25.8926 37.3861 26.4976 37.4005 26.933 37.4289L26.9594 37.0243ZM25.1161 36.9806C24.289 36.9806 23.6682 36.995 23.2572 37.0243L23.2861 37.4288C23.682 37.4005 24.2909 37.3861 25.1161 37.3861V36.9806ZM23.4744 37.2266V36.9384H23.0689V37.2266H23.4744ZM23.2829 37.1408C23.6317 37.1214 23.9078 37.0821 24.0922 37.0129L23.9498 36.6332C23.8268 36.6794 23.6033 36.7169 23.2604 36.7359L23.2829 37.1408ZM24.0884 37.0143C24.3096 36.9362 24.4655 36.7803 24.5436 36.5591L24.1612 36.4242C24.124 36.5297 24.059 36.5947 23.9535 36.6319L24.0884 37.0143ZM24.5436 36.5591C24.6134 36.3612 24.6416 36.0674 24.6416 35.6991H24.2361C24.2361 36.0609 24.2066 36.2955 24.1612 36.4242L24.5436 36.5591ZM24.6416 35.6991V28.5516H24.2361V35.6991H24.6416ZM24.6416 28.5516C24.6416 28.1833 24.6134 27.8896 24.5436 27.6916L24.1612 27.8266C24.2066 27.9552 24.2361 28.1899 24.2361 28.5516H24.6416ZM24.5436 27.6916C24.4655 27.4705 24.3096 27.3145 24.0884 27.2365L23.9535 27.6188C24.059 27.6561 24.124 27.7211 24.1612 27.8266L24.5436 27.6916ZM24.0922 27.2378C23.9078 27.1687 23.6317 27.1293 23.2829 27.1099L23.2604 27.5148C23.6033 27.5338 23.8268 27.5714 23.9498 27.6175L24.0922 27.2378ZM23.4744 27.3124V27.0242H23.0689V27.3124H23.4744ZM23.2572 27.2264C23.6682 27.2558 24.289 27.2701 25.1161 27.2701V26.8647C24.2909 26.8647 23.682 26.8502 23.2861 26.822L23.2572 27.2264ZM25.1161 27.2701C25.8865 27.2701 26.5014 27.2557 26.9591 27.2265L26.9333 26.8218C26.488 26.8503 25.8829 26.8647 25.1161 26.8647V27.2701ZM26.7435 27.0242V27.3124H27.149V27.0242H26.7435ZM33.2046 31.8372H33.0018V32.0141L33.1772 32.038L33.2046 31.8372ZM35.467 32.7594L35.3206 32.8998L35.3221 32.9013L35.467 32.7594ZM35.7263 35.8864L35.8956 35.998V35.998L35.7263 35.8864ZM34.5303 36.8807L34.6127 37.066L34.6155 37.0647L34.5303 36.8807ZM32.0229 37.2122L32.0336 37.0096L32.0293 37.0095L32.0229 37.2122ZM28.4204 37.2266H28.2177V37.4443L28.4348 37.4288L28.4204 37.2266ZM28.4204 36.9384L28.4092 36.7359L28.2177 36.7466V36.9384H28.4204ZM29.1697 36.8231L29.1022 36.6319L29.0985 36.6332L29.1697 36.8231ZM29.5012 27.7591L29.31 27.8266V27.8266L29.5012 27.7591ZM29.1697 27.4277L29.0985 27.6175L29.1023 27.6188L29.1697 27.4277ZM28.4204 27.3124H28.2177V27.5042L28.4092 27.5148L28.4204 27.3124ZM28.4204 27.0242L28.4348 26.822L28.2177 26.8064V27.0242H28.4204ZM30.1784 27.0674V27.2701L30.1803 27.2701L30.1784 27.0674ZM31.7347 27.053L31.7366 27.2559L31.7454 27.2554L31.7347 27.053ZM34.6024 27.6582L34.4761 27.8168L34.4775 27.8179L34.6024 27.6582ZM34.8617 30.7996L34.7037 30.6726L34.7021 30.6747L34.8617 30.7996ZM33.2046 31.8083L33.1456 31.6144L33.0018 31.658V31.8083H33.2046ZM31.3168 27.4132L31.2356 27.2275L31.2311 27.2295L31.3168 27.4132ZM31.0142 27.7735L31.2066 27.8376V27.8376L31.0142 27.7735ZM30.9278 31.8083H30.725V32.0111H30.9278V31.8083ZM33.536 31.1743L33.3725 31.0544L33.372 31.0551L33.536 31.1743ZM34.0836 32.6441L33.942 32.7892L33.9437 32.7909L34.0836 32.6441ZM30.9278 32.0533V31.8506H30.725V32.0533H30.9278ZM31.0142 36.4628L31.2054 36.3953V36.3953L31.0142 36.4628ZM31.3168 36.8087L31.2311 36.9924L31.2383 36.9957L31.2457 36.9985L31.3168 36.8087ZM33.1772 32.038C34.2152 32.1796 34.9154 32.4773 35.3207 32.8998L35.6133 32.6191C35.1155 32.1001 34.3074 31.7829 33.232 31.6363L33.1772 32.038ZM35.3221 32.9013C35.736 33.324 35.9415 33.83 35.9415 34.431H36.347C36.347 33.7254 36.1009 33.1171 35.6118 32.6176L35.3221 32.9013ZM35.9415 34.431C35.9415 34.9423 35.812 35.388 35.5571 35.7748L35.8956 35.998C36.1978 35.5395 36.347 35.0149 36.347 34.431H35.9415ZM35.5571 35.7748C35.3018 36.1621 34.9342 36.4703 34.4451 36.6967L34.6155 37.0647C35.1639 36.8108 35.5937 36.4561 35.8956 35.998L35.5571 35.7748ZM34.448 36.6955C33.9608 36.912 33.3753 37.0238 32.6858 37.0238V37.4293C33.4181 37.4293 34.0623 37.3106 34.6126 37.066L34.448 36.6955ZM32.6858 37.0238C32.4286 37.0238 32.2115 37.0191 32.0336 37.0097L32.0123 37.4146C32.1995 37.4245 32.4242 37.4293 32.6858 37.4293V37.0238ZM32.0293 37.0095C31.4124 36.9902 30.8051 36.9806 30.2073 36.9806V37.3861C30.8007 37.3861 31.4038 37.3956 32.0166 37.4148L32.0293 37.0095ZM30.2073 36.9806C29.4183 36.9806 28.8168 36.995 28.406 37.0243L28.4348 37.4288C28.8309 37.4005 29.4207 37.3861 30.2073 37.3861V36.9806ZM28.6231 37.2266V36.9384H28.2177V37.2266H28.6231ZM28.4316 37.1408C28.7805 37.1214 29.0565 37.0821 29.2409 37.0129L29.0985 36.6332C28.9755 36.6794 28.752 36.7169 28.4092 36.7359L28.4316 37.1408ZM29.2372 37.0143C29.4583 36.9362 29.6143 36.7803 29.6923 36.5591L29.31 36.4242C29.2727 36.5297 29.2077 36.5947 29.1023 36.6319L29.2372 37.0143ZM29.6923 36.5591C29.7622 36.3612 29.7904 36.0674 29.7904 35.6991H29.3849C29.3849 36.0609 29.3554 36.2955 29.31 36.4242L29.6923 36.5591ZM29.7904 35.6991V28.5516H29.3849V35.6991H29.7904ZM29.7904 28.5516C29.7904 28.1833 29.7622 27.8896 29.6923 27.6916L29.31 27.8266C29.3554 27.9552 29.3849 28.1899 29.3849 28.5516H29.7904ZM29.6923 27.6916C29.6143 27.4705 29.4583 27.3145 29.2372 27.2365L29.1023 27.6188C29.2077 27.6561 29.2727 27.7211 29.31 27.8266L29.6923 27.6916ZM29.2409 27.2378C29.0565 27.1687 28.7805 27.1293 28.4316 27.1099L28.4092 27.5148C28.752 27.5338 28.9755 27.5714 29.0985 27.6175L29.2409 27.2378ZM28.6231 27.3124V27.0242H28.2177V27.3124H28.6231ZM28.406 27.2264C28.8168 27.2557 29.4085 27.2701 30.1784 27.2701V26.8647C29.4113 26.8647 28.831 26.8502 28.4348 26.822L28.406 27.2264ZM30.1803 27.2701L31.7366 27.2557L31.7329 26.8503L30.1766 26.8647L30.1803 27.2701ZM31.7454 27.2554C31.9236 27.2461 32.1265 27.2413 32.3544 27.2413V26.8358C32.1211 26.8358 31.9109 26.8407 31.7241 26.8505L31.7454 27.2554ZM32.3544 27.2413C33.3095 27.2413 34.0068 27.4431 34.4761 27.8168L34.7286 27.4996C34.1604 27.0471 33.359 26.8358 32.3544 26.8358V27.2413ZM34.4775 27.8179C34.9557 28.1918 35.1922 28.68 35.1922 29.301H35.5977C35.5977 28.5578 35.3057 27.9508 34.7272 27.4985L34.4775 27.8179ZM35.1922 29.301C35.1922 29.8111 35.0308 30.266 34.7038 30.6726L35.0197 30.9267C35.4036 30.4495 35.5977 29.9053 35.5977 29.301H35.1922ZM34.7021 30.6747C34.3906 31.0728 33.8806 31.3911 33.1456 31.6144L33.2635 32.0023C34.0464 31.7645 34.6412 31.4103 35.0214 30.9246L34.7021 30.6747ZM33.0018 31.8083V31.8372H33.4073V31.8083H33.0018ZM31.9941 27.1096C31.6867 27.1096 31.4276 27.1435 31.2356 27.2275L31.3981 27.599C31.5135 27.5485 31.7059 27.5151 31.9941 27.5151V27.1096ZM31.2311 27.2295C31.029 27.3238 30.8943 27.4921 30.8219 27.7094L31.2066 27.8376C31.2494 27.709 31.3165 27.6371 31.4026 27.597L31.2311 27.2295ZM30.8219 27.7094C30.7537 27.914 30.725 28.1999 30.725 28.5516H31.1305C31.1305 28.2117 31.1595 27.9788 31.2066 27.8376L30.8219 27.7094ZM30.725 28.5516V31.8083H31.1305V28.5516H30.725ZM30.9278 32.0111H31.8932V31.6056H30.9278V32.0111ZM31.8932 32.0111C32.7116 32.0111 33.338 31.7913 33.7 31.2935L33.372 31.0551C33.1192 31.4027 32.6504 31.6056 31.8932 31.6056V32.0111ZM33.6995 31.2942C34.0492 30.8173 34.2143 30.1996 34.2143 29.4595H33.8088C33.8088 30.1412 33.6569 30.6667 33.3725 31.0544L33.6995 31.2942ZM34.2143 29.4595C34.2143 28.7139 34.0509 28.1182 33.6873 27.7106L33.3847 27.9805C33.6552 28.2838 33.8088 28.764 33.8088 29.4595H34.2143ZM33.6873 27.7106C33.3161 27.2945 32.7341 27.1096 31.9941 27.1096V27.5151C32.6759 27.5151 33.1218 27.6857 33.3847 27.9805L33.6873 27.7106ZM32.0085 37.0979C32.9348 37.0979 33.6672 36.8814 34.1681 36.4127C34.6715 35.9416 34.906 35.2488 34.906 34.3734H34.5005C34.5005 35.1791 34.2859 35.7471 33.891 36.1167C33.4936 36.4885 32.8787 36.6924 32.0085 36.6924V37.0979ZM34.906 34.3734C34.906 33.578 34.6887 32.9409 34.2235 32.4974L33.9437 32.7909C34.3047 33.1351 34.5005 33.6508 34.5005 34.3734H34.906ZM34.2252 32.4991C33.7669 32.0516 33.0548 31.8506 32.1382 31.8506V32.2561C33.0085 32.2561 33.5933 32.4489 33.942 32.7892L34.2252 32.4991ZM32.1382 31.8506H30.9278V32.2561H32.1382V31.8506ZM30.725 32.0533V35.6991H31.1305V32.0533H30.725ZM30.725 35.6991C30.725 36.0497 30.7534 36.333 30.823 36.5303L31.2054 36.3953C31.1597 36.266 31.1305 36.0401 31.1305 35.6991H30.725ZM30.823 36.5303C30.897 36.7399 31.033 36.8999 31.2311 36.9924L31.4026 36.625C31.3125 36.5829 31.2467 36.5124 31.2054 36.3953L30.823 36.5303ZM31.2457 36.9985C31.4341 37.0692 31.6942 37.0979 32.0085 37.0979V36.6924C31.708 36.6924 31.507 36.6634 31.388 36.6188L31.2457 36.9985ZM45.0446 37.2266L45.0357 37.4291L45.2693 37.4394L45.2463 37.2067L45.0446 37.2266ZM37.5657 37.2266H37.363V37.4356L37.5719 37.4292L37.5657 37.2266ZM37.5657 36.9384L37.5545 36.7359L37.363 36.7466V36.9384H37.5657ZM38.315 36.8231L38.2476 36.6319L38.2439 36.6332L38.315 36.8231ZM38.6465 27.7591L38.4553 27.8266V27.8266L38.6465 27.7591ZM38.315 27.4277L38.2438 27.6175L38.2476 27.6188L38.315 27.4277ZM37.5657 27.3124H37.363V27.5042L37.5545 27.5148L37.5657 27.3124ZM37.5657 27.0242L37.5719 26.8215L37.363 26.8151V27.0242H37.5657ZM44.7564 27.0242L44.958 27.0456L44.983 26.8102L44.7466 26.8217L44.7564 27.0242ZM44.6987 29.618V29.8207H44.9296L44.8998 29.5918L44.6987 29.618ZM44.3673 29.618L44.1657 29.6397L44.1852 29.8207H44.3673V29.618ZM44.1079 28.2346L43.9162 28.3005L43.9169 28.3024L44.1079 28.2346ZM43.5748 27.5718L43.4734 27.7474L43.4786 27.7503L43.5748 27.5718ZM40.4766 27.4421L40.5371 27.6357L40.544 27.6332L40.4766 27.4421ZM40.1595 27.7591L40.3507 27.8266V27.8266L40.1595 27.7591ZM40.0731 31.9524H39.8703V32.1552H40.0731V31.9524ZM41.8023 31.7219L41.933 31.877L41.9375 31.873L41.8023 31.7219ZM42.1626 31.1599L41.9685 31.1008L41.967 31.1065L42.1626 31.1599ZM42.3211 30.3385L42.1205 30.3084L42.1197 30.3148L42.3211 30.3385ZM42.3643 30.0503V29.8476H42.1897L42.1638 30.0202L42.3643 30.0503ZM42.6957 30.0503L42.898 30.0647L42.9135 29.8476H42.6957V30.0503ZM42.739 34.1428V34.3455H42.9555L42.9413 34.1294L42.739 34.1428ZM42.4075 34.1428L42.2068 34.1715L42.2317 34.3455H42.4075V34.1428ZM42.3211 33.4511L42.1198 33.4751L42.1198 33.4756L42.3211 33.4511ZM41.9176 32.5433L41.7776 32.6899L41.7809 32.693L41.9176 32.5433ZM40.0731 32.2406V32.0379H39.8703V32.2406H40.0731ZM40.1595 36.4916L40.3507 36.4242V36.4242L40.1595 36.4916ZM40.4766 36.8231L40.4054 37.0129L40.4123 37.0155L40.4194 37.0176L40.4766 36.8231ZM43.6468 36.6646L43.7375 36.8459L43.7397 36.8448L43.6468 36.6646ZM44.3385 35.9008L44.5256 35.9788L44.5264 35.977L44.3385 35.9008ZM44.6555 34.3445V34.1418H44.4718L44.4538 34.3246L44.6555 34.3445ZM44.9869 34.3445L45.1884 34.3669L45.2135 34.1418H44.9869V34.3445ZM44.741 35.3821C44.741 35.9377 44.7751 36.5593 44.8428 37.2465L45.2463 37.2067C45.1796 36.5296 45.1465 35.9216 45.1465 35.3821H44.741ZM45.0535 37.024C44.3954 36.995 43.2914 36.9806 41.7447 36.9806V37.3861C43.2913 37.3861 44.3873 37.4005 45.0357 37.4291L45.0535 37.024ZM41.7447 36.9806C39.8997 36.9806 38.5042 36.995 37.5595 37.0239L37.5719 37.4292C38.5102 37.4005 39.9007 37.3861 41.7447 37.3861V36.9806ZM37.7685 37.2266V36.9384H37.363V37.2266H37.7685ZM37.577 37.1408C37.9258 37.1214 38.2018 37.0821 38.3862 37.0129L38.2439 36.6332C38.1208 36.6794 37.8973 36.7169 37.5545 36.7359L37.577 37.1408ZM38.3825 37.0143C38.6037 36.9362 38.7596 36.7803 38.8377 36.5591L38.4553 36.4242C38.4181 36.5297 38.3531 36.5947 38.2476 36.6319L38.3825 37.0143ZM38.8377 36.5591C38.9075 36.3612 38.9357 36.0674 38.9357 35.6991H38.5302C38.5302 36.0609 38.5007 36.2955 38.4553 36.4242L38.8377 36.5591ZM38.9357 35.6991V28.5516H38.5302V35.6991H38.9357ZM38.9357 28.5516C38.9357 28.1833 38.9075 27.8896 38.8377 27.6916L38.4553 27.8266C38.5007 27.9552 38.5302 28.1899 38.5302 28.5516H38.9357ZM38.8377 27.6916C38.7596 27.4705 38.6037 27.3145 38.3825 27.2365L38.2476 27.6188C38.3531 27.6561 38.4181 27.7211 38.4553 27.8266L38.8377 27.6916ZM38.3862 27.2378C38.2018 27.1687 37.9258 27.1293 37.577 27.1099L37.5545 27.5148C37.8973 27.5338 38.1208 27.5714 38.2439 27.6175L38.3862 27.2378ZM37.7685 27.3124V27.0242H37.363V27.3124H37.7685ZM37.5595 27.2268C38.5042 27.2557 39.8997 27.2701 41.7447 27.2701V26.8647C39.9007 26.8647 38.5102 26.8503 37.5719 26.8215L37.5595 27.2268ZM41.7447 27.2701C43.1569 27.2701 44.1652 27.2558 44.7662 27.2267L44.7466 26.8217C44.1563 26.8502 43.1568 26.8647 41.7447 26.8647V27.2701ZM44.5548 27.0028C44.487 27.6421 44.4528 28.2162 44.4528 28.7246H44.8583C44.8583 28.2338 44.8913 27.6743 44.958 27.0456L44.5548 27.0028ZM44.4528 28.7246C44.4528 29.103 44.4673 29.4107 44.4977 29.6442L44.8998 29.5918C44.8726 29.3834 44.8583 29.0955 44.8583 28.7246H44.4528ZM44.6987 29.4153H44.3673V29.8207H44.6987V29.4153ZM44.5689 29.5963C44.5013 28.9684 44.4129 28.4878 44.299 28.1668L43.9169 28.3024C44.0143 28.577 44.0989 29.0188 44.1657 29.6397L44.5689 29.5963ZM44.2997 28.1687C44.18 27.8206 43.9721 27.5555 43.6709 27.3933L43.4786 27.7503C43.677 27.857 43.8245 28.0338 43.9162 28.3005L44.2997 28.1687ZM43.6761 27.3962C43.38 27.2254 42.9575 27.1529 42.4364 27.1529V27.5583C42.9335 27.5583 43.2699 27.6299 43.4734 27.7474L43.6761 27.3962ZM42.4364 27.1529H41.2403V27.5583H42.4364V27.1529ZM41.2403 27.1529C40.8897 27.1529 40.6064 27.1813 40.4091 27.2509L40.544 27.6332C40.6734 27.5876 40.8993 27.5583 41.2403 27.5583V27.1529ZM40.4161 27.2486C40.1962 27.3173 40.0454 27.4733 39.9684 27.6916L40.3507 27.8266C40.389 27.7182 40.4495 27.6629 40.537 27.6356L40.4161 27.2486ZM39.9684 27.6916C39.8985 27.8896 39.8703 28.1833 39.8703 28.5516H40.2758C40.2758 28.1899 40.3053 27.9552 40.3507 27.8266L39.9684 27.6916ZM39.8703 28.5516V31.9524H40.2758V28.5516H39.8703ZM40.0731 32.1552H41.0242V31.7497H40.0731V32.1552ZM41.0242 32.1552C41.3889 32.1552 41.7014 32.0719 41.9329 31.877L41.6717 31.5668C41.5382 31.6792 41.3319 31.7497 41.0242 31.7497V32.1552ZM41.9375 31.873C42.1456 31.6868 42.289 31.4667 42.3582 31.2132L41.967 31.1065C41.9208 31.2758 41.8241 31.4304 41.6671 31.5708L41.9375 31.873ZM42.3565 31.2189C42.4284 30.9827 42.4831 30.6962 42.5224 30.3622L42.1197 30.3148C42.0822 30.6341 42.0312 30.8951 41.9686 31.1009L42.3565 31.2189ZM42.5216 30.3686L42.5648 30.0804L42.1638 30.0202L42.1206 30.3084L42.5216 30.3686ZM42.3643 30.253H42.6957V29.8476H42.3643V30.253ZM42.4935 30.0359C42.4643 30.4451 42.4498 30.9016 42.4498 31.4049H42.8552C42.8552 30.9091 42.8695 30.4625 42.898 30.0647L42.4935 30.0359ZM42.4498 31.4049V32.0965H42.8552V31.4049H42.4498ZM42.4498 32.0965C42.4498 32.5931 42.4789 33.2803 42.5367 34.1561L42.9413 34.1294C42.8837 33.2568 42.8552 32.5799 42.8552 32.0965H42.4498ZM42.739 33.9401H42.4075V34.3455H42.739V33.9401ZM42.6082 34.1141C42.599 34.0495 42.5705 33.8217 42.5223 33.4266L42.1198 33.4756C42.1677 33.8683 42.1968 34.1016 42.2068 34.1715L42.6082 34.1141ZM42.5224 33.4271C42.4707 32.9927 42.3223 32.6382 42.0543 32.3935L41.7809 32.693C41.9548 32.8518 42.0754 33.1025 42.1198 33.4751L42.5224 33.4271ZM42.0576 32.3966C41.7978 32.1487 41.4436 32.0379 41.0242 32.0379V32.4434C41.3732 32.4434 41.6147 32.5344 41.7776 32.6899L42.0576 32.3966ZM41.0242 32.0379H40.0731V32.4434H41.0242V32.0379ZM39.8703 32.2406V35.6991H40.2758V32.2406H39.8703ZM39.8703 35.6991C39.8703 36.0674 39.8985 36.3612 39.9684 36.5591L40.3507 36.4242C40.3053 36.2955 40.2758 36.0609 40.2758 35.6991H39.8703ZM39.9684 36.5591C40.0447 36.7754 40.1921 36.9329 40.4054 37.0129L40.5478 36.6332C40.4536 36.5979 40.3897 36.5345 40.3507 36.4242L39.9684 36.5591ZM40.4194 37.0176C40.6119 37.0742 40.8907 37.0979 41.2403 37.0979V36.6924C40.8982 36.6924 40.6679 36.668 40.5338 36.6286L40.4194 37.0176ZM41.2403 37.0979H42.2923V36.6924H41.2403V37.0979ZM42.2923 37.0979C42.8994 37.0979 43.3883 37.0205 43.7375 36.8459L43.5561 36.4832C43.2905 36.6161 42.8763 36.6924 42.2923 36.6924V37.0979ZM43.7397 36.8448C44.1015 36.6584 44.3642 36.3664 44.5256 35.9788L44.1514 35.8229C44.0246 36.127 43.8262 36.3441 43.554 36.4843L43.7397 36.8448ZM44.5264 35.977C44.6814 35.5947 44.7894 35.0532 44.8573 34.3644L44.4538 34.3246C44.3872 35 44.2838 35.4961 44.1506 35.8247L44.5264 35.977ZM44.6555 34.5473H44.9869V34.1418H44.6555V34.5473ZM44.7855 34.3221C44.7554 34.5922 44.741 34.9464 44.741 35.3821H45.1465C45.1465 34.9531 45.1608 34.6156 45.1884 34.3669L44.7855 34.3221ZM50.2871 27.3124L50.2984 27.5148L50.4899 27.5042V27.3124H50.2871ZM49.5234 27.4277L49.4559 27.2364L49.4522 27.2378L49.5234 27.4277ZM49.2064 27.7591L49.3975 27.8266V27.8266L49.2064 27.7591ZM49.2064 36.4916L49.3975 36.4242V36.4242L49.2064 36.4916ZM49.5234 36.8231L49.4522 37.0129L49.4591 37.0155L49.4662 37.0176L49.5234 36.8231ZM52.6936 36.6502L52.7887 36.8292L52.7907 36.8281L52.6936 36.6502ZM53.3853 35.8288L53.5745 35.9016V35.9016L53.3853 35.8288ZM53.7023 34.2004V33.9977H53.5179L53.5005 34.1813L53.7023 34.2004ZM54.0338 34.2004L54.2356 34.22L54.2571 33.9977H54.0338V34.2004ZM54.0914 37.2266L54.0825 37.4291L54.3161 37.4394L54.2932 37.2067L54.0914 37.2266ZM46.6125 37.2266H46.4098V37.4356L46.6187 37.4292L46.6125 37.2266ZM46.6125 36.9384L46.6013 36.7359L46.4098 36.7466V36.9384H46.6125ZM47.3619 36.8231L47.2944 36.6319L47.2907 36.6332L47.3619 36.8231ZM47.6933 27.7591L47.5021 27.8266V27.8266L47.6933 27.7591ZM47.3619 27.4277L47.2907 27.6175L47.2944 27.6188L47.3619 27.4277ZM46.6125 27.3124H46.4098V27.5042L46.6013 27.5148L46.6125 27.3124ZM46.6125 27.0242L46.627 26.822L46.4098 26.8064V27.0242H46.6125ZM50.2871 27.0242H50.4899V26.8081L50.2742 26.8218L50.2871 27.0242ZM50.2759 27.1099C49.926 27.1294 49.6475 27.1688 49.4559 27.2365L49.5909 27.6188C49.7259 27.5712 49.9566 27.5338 50.2984 27.5148L50.2759 27.1099ZM49.4522 27.2378C49.2389 27.3178 49.0915 27.4753 49.0152 27.6916L49.3975 27.8266C49.4365 27.7162 49.5004 27.6528 49.5946 27.6175L49.4522 27.2378ZM49.0152 27.6916C48.9453 27.8896 48.9172 28.1833 48.9172 28.5516H49.3226C49.3226 28.1899 49.3521 27.9552 49.3975 27.8266L49.0152 27.6916ZM48.9172 28.5516V35.6991H49.3226V28.5516H48.9172ZM48.9172 35.6991C48.9172 36.0674 48.9453 36.3612 49.0152 36.5591L49.3975 36.4242C49.3521 36.2955 49.3226 36.0609 49.3226 35.6991H48.9172ZM49.0152 36.5591C49.0915 36.7754 49.2389 36.9329 49.4522 37.0129L49.5946 36.6332C49.5004 36.5979 49.4365 36.5345 49.3975 36.4242L49.0152 36.5591ZM49.4662 37.0176C49.6587 37.0742 49.9376 37.0979 50.2871 37.0979V36.6924C49.945 36.6924 49.7147 36.668 49.5806 36.6286L49.4662 37.0176ZM50.2871 37.0979H51.3391V36.6924H50.2871V37.0979ZM51.3391 37.0979C51.9473 37.0979 52.4381 37.0155 52.7887 36.8292L52.5985 36.4711C52.3343 36.6115 51.9221 36.6924 51.3391 36.6924V37.0979ZM52.7907 36.8281C53.1547 36.6296 53.4152 36.3157 53.5745 35.9016L53.1961 35.756C53.0672 36.0911 52.8666 36.3249 52.5965 36.4722L52.7907 36.8281ZM53.5745 35.9016C53.7285 35.5012 53.8363 34.9369 53.9042 34.2195L53.5005 34.1813C53.4339 34.8858 53.3303 35.407 53.1961 35.756L53.5745 35.9016ZM53.7023 34.4032H54.0338V33.9977H53.7023V34.4032ZM53.832 34.1809C53.8023 34.488 53.7878 34.8891 53.7878 35.3821H54.1933C54.1933 34.8951 54.2076 34.5085 54.2356 34.22L53.832 34.1809ZM53.7878 35.3821C53.7878 35.9377 53.8219 36.5593 53.8896 37.2465L54.2932 37.2067C54.2264 36.5296 54.1933 35.9216 54.1933 35.3821H53.7878ZM54.1003 37.024C53.4422 36.995 52.3382 36.9806 50.7915 36.9806V37.3861C52.3381 37.3861 53.4341 37.4005 54.0825 37.4291L54.1003 37.024ZM50.7915 36.9806C48.9465 36.9806 47.551 36.995 46.6063 37.0239L46.6187 37.4292C47.557 37.4005 48.9475 37.3861 50.7915 37.3861V36.9806ZM46.8153 37.2266V36.9384H46.4098V37.2266H46.8153ZM46.6238 37.1408C46.9726 37.1214 47.2487 37.0821 47.433 37.0129L47.2907 36.6332C47.1677 36.6794 46.9442 36.7169 46.6013 36.7359L46.6238 37.1408ZM47.4293 37.0143C47.6505 36.9362 47.8064 36.7803 47.8845 36.5591L47.5021 36.4242C47.4649 36.5297 47.3999 36.5947 47.2944 36.6319L47.4293 37.0143ZM47.8845 36.5591C47.9543 36.3612 47.9825 36.0674 47.9825 35.6991H47.577C47.577 36.0609 47.5475 36.2955 47.5021 36.4242L47.8845 36.5591ZM47.9825 35.6991V28.5516H47.577V35.6991H47.9825ZM47.9825 28.5516C47.9825 28.1833 47.9543 27.8896 47.8845 27.6916L47.5021 27.8266C47.5475 27.9552 47.577 28.1899 47.577 28.5516H47.9825ZM47.8845 27.6916C47.8064 27.4705 47.6505 27.3145 47.4293 27.2365L47.2944 27.6188C47.3999 27.6561 47.4649 27.7211 47.5021 27.8266L47.8845 27.6916ZM47.433 27.2378C47.2487 27.1687 46.9726 27.1293 46.6238 27.1099L46.6013 27.5148C46.9442 27.5338 47.1677 27.5714 47.2907 27.6175L47.433 27.2378ZM46.8153 27.3124V27.0242H46.4098V27.3124H46.8153ZM46.5981 27.2264C47.0091 27.2558 47.6299 27.2701 48.457 27.2701V26.8647C47.6318 26.8647 47.0229 26.8502 46.627 26.822L46.5981 27.2264ZM48.457 27.2701C49.2274 27.2701 49.8423 27.2557 50.3 27.2265L50.2742 26.8218C49.8289 26.8503 49.2238 26.8647 48.457 26.8647V27.2701ZM50.0844 27.0242V27.3124H50.4899V27.0242H50.0844Z" fill="#FEF5EB" mask="url(#path-5-outside-1_23668_7173)"/>
</g>
</g>
<defs>
<linearGradient id="paint0_linear_23668_7173" x1="34" y1="-1.04141e-05" x2="34" y2="68" gradientUnits="userSpaceOnUse">
<stop stop-color="#C93D34"/>
<stop offset="1" stop-color="#7A2629"/>
</linearGradient>
<linearGradient id="paint1_linear_23668_7173" x1="34" y1="-1.04141e-05" x2="34" y2="68" gradientUnits="userSpaceOnUse">
<stop stop-color="#C93D34"/>
<stop offset="1" stop-color="#7A2629"/>
</linearGradient>
<clipPath id="clip0_23668_7173">
<rect width="68" height="68" fill="white"/>
</clipPath>
</defs>
</svg>
