<svg width="68" height="68" viewBox="0 0 68 68" fill="none" xmlns="http://www.w3.org/2000/svg">
<mask id="mask0_17348_2745" style="mask-type:alpha" maskUnits="userSpaceOnUse" x="0" y="0" width="68" height="68">
<path fill-rule="evenodd" clip-rule="evenodd" d="M47.0333 0H20.9667C13.5811 0 8.89667 0.0377779 4.45778 4.45778C0.018889 8.89667 0 13.6 0 20.9667V47.0333C0 54.4189 0.0377779 59.1033 4.45778 63.5422C8.89667 67.9811 13.6 68 20.9667 68H47.0333C54.4189 68 59.1033 67.9811 63.5422 63.5422C67.9622 59.1033 68 54.4 68 47.0333V20.9667C68 13.5811 67.9622 8.89667 63.5422 4.45778C59.1033 0.018889 54.4 0 47.0333 0Z" fill="url(#paint0_linear_17348_2745)"/>
</mask>
<g mask="url(#mask0_17348_2745)">
<rect width="68" height="68" fill="url(#paint1_linear_17348_2745)"/>
<path fill-rule="evenodd" clip-rule="evenodd" d="M15.6211 64.3735C26.4256 64.3735 45.6356 64.3735 45.6356 64.3735C52.5867 64.3735 57.0823 64.6379 61.2378 60.4446C64.8078 56.8746 64.5056 50.8679 64.7323 46.1079C60.7089 52.1524 53.3234 51.9446 47.6189 51.9446C47.6189 51.9446 20.9289 51.9446 10.9556 51.9446C0.982255 51.9635 4.8167 64.3735 15.6211 64.3735Z" fill="#FEF5EB"/>
<path d="M12.4855 53.5312H23.1389V61.5213L17.8122 58.8579L12.4855 61.5213V53.5312Z" fill="#FF3D4D"/>
<path d="M29.1234 23.2248C29.8412 23.6592 30.6723 23.867 31.6168 23.867C32.5234 23.867 33.3545 23.6403 34.0723 23.1681C34.809 22.6959 35.3568 22.0348 35.7534 21.2037C36.169 20.3537 36.3579 19.3903 36.3579 18.3326C36.3579 17.237 36.169 16.2737 35.7723 15.4614C35.3756 14.6492 34.8279 14.0259 34.1101 13.5914C33.3923 13.157 32.5612 12.9492 31.6356 12.9492C30.729 12.9492 29.8979 13.1759 29.1612 13.6481C28.4434 14.1203 27.8768 14.7814 27.4801 15.6126C27.0834 16.4626 26.8945 17.4259 26.8945 18.4837C26.8945 19.5792 27.0834 20.5426 27.4801 21.3548C27.8579 22.167 28.4056 22.7903 29.1234 23.2248ZM28.7268 18.427C28.7268 17.4637 28.8401 16.6137 29.0856 15.877C29.3312 15.1403 29.6712 14.5737 30.1056 14.1959C30.5401 13.7992 31.0312 13.6103 31.579 13.6103C32.1268 13.6103 32.599 13.7992 33.0523 14.177C33.5056 14.5548 33.8645 15.1026 34.129 15.8392C34.4123 16.557 34.5445 17.407 34.5445 18.3892C34.5445 19.3526 34.4123 20.2026 34.1668 20.9392C33.9212 21.6759 33.5812 22.2426 33.1468 22.6392C32.7312 23.017 32.2401 23.2248 31.6734 23.2248C31.1256 23.2248 30.6534 23.0359 30.2001 22.6581C29.7468 22.2803 29.3879 21.7326 29.1045 20.9959C28.859 20.2403 28.7268 19.3903 28.7268 18.427Z" fill="#FEF5EB"/>
<path d="M54.2457 37.8071C54.1701 37.1271 54.1512 36.5227 54.1512 35.9938C54.1512 35.5594 54.1701 35.2383 54.189 34.9927L54.2079 34.766H53.9812H53.6601H53.4712L53.4523 34.9549C53.3957 35.6349 53.2823 36.126 53.1501 36.4471C53.0179 36.7494 52.829 36.9571 52.5645 37.1083C52.3001 37.2405 51.8845 37.316 51.3179 37.316H50.279C49.939 37.316 49.7123 37.2971 49.5801 37.2594C49.4857 37.2216 49.429 37.1649 49.3912 37.0516C49.3534 36.9194 49.3157 36.6927 49.3157 36.3338V33.1038H50.0523C50.3923 33.1038 50.6379 33.1982 50.8079 33.3494C50.9779 33.5005 51.0912 33.7649 51.1479 34.1238C51.2045 34.5205 51.2234 34.7471 51.2423 34.8227L51.2612 34.9927H51.4312H51.7523H51.9601L51.9412 34.7849C51.8845 33.916 51.8468 33.236 51.8468 32.7638V32.0838C51.8468 31.5927 51.8657 31.1394 51.8845 30.7427L51.9034 30.5349H51.6768H51.3557H51.1857L51.1668 30.7049L51.129 30.9882C51.0912 31.3094 51.0345 31.5738 50.9779 31.7627C50.9401 31.9327 50.8457 32.0838 50.6757 32.216C50.5434 32.3294 50.3357 32.4049 50.0334 32.4049H49.2968V29.2316C49.2968 28.8727 49.3345 28.646 49.3723 28.5138C49.4101 28.4005 49.4668 28.3438 49.5612 28.3249C49.6934 28.2871 49.9201 28.2494 50.2601 28.2494H51.4501C51.9412 28.2494 52.2812 28.3249 52.489 28.4382C52.6779 28.5516 52.829 28.7216 52.9234 28.986C53.0179 29.2505 53.1123 29.7038 53.169 30.3083L53.1879 30.4971H53.3768H53.6979H53.9245L53.8868 30.2705C53.8679 30.0627 53.849 29.7794 53.849 29.4016C53.849 28.9105 53.8868 28.3627 53.9434 27.7394L53.9623 27.5127H46.3879V28.1927L46.5768 28.2116C46.9168 28.2305 47.1434 28.2683 47.2568 28.306C47.3701 28.3438 47.4268 28.4005 47.4645 28.5138C47.5023 28.646 47.5401 28.8727 47.5401 29.2316V36.296C47.5401 36.6549 47.5023 36.8816 47.4645 37.0138C47.4268 37.1271 47.3701 37.1838 47.2568 37.2216C47.1434 37.2594 46.9168 37.2971 46.5768 37.316L46.3879 37.3349V38.0149H54.2457V37.8071Z" fill="#FEF5EB"/>
<path d="M45.4245 23.678L45.4056 23.4514C45.3301 22.7714 45.3112 22.1669 45.3112 21.638C45.3112 21.1469 45.3301 20.7691 45.349 20.4858L45.3679 20.2591H45.1412H44.8201H44.6312L44.6123 20.448C44.5367 21.1469 44.4423 21.6569 44.3101 22.0158C44.1779 22.3558 43.989 22.5825 43.7056 22.7336C43.4412 22.8658 43.0256 22.9603 42.459 22.9603H41.4201C41.0801 22.9603 40.8534 22.9414 40.7212 22.9036C40.6267 22.8658 40.5701 22.8091 40.5323 22.6958C40.4945 22.5636 40.4567 22.3369 40.4567 21.978V14.838C40.4567 14.4791 40.4945 14.2525 40.5323 14.1203C40.5701 14.0069 40.6267 13.9503 40.7212 13.9125C40.8534 13.8747 41.0801 13.8369 41.4201 13.818L41.609 13.7991V13.6103V13.3269V13.1191H37.5479V13.3458V13.6291V13.818L37.7367 13.8369C38.0767 13.8558 38.3034 13.8936 38.4167 13.9314C38.5301 13.9691 38.5867 14.0258 38.6245 14.1391C38.6623 14.2714 38.7001 14.498 38.7001 14.8569V21.9403C38.7001 22.2991 38.6623 22.5258 38.6245 22.658C38.5867 22.7714 38.5301 22.828 38.4167 22.8658C38.3034 22.9036 38.0767 22.9414 37.7367 22.9603L37.5479 22.9791V23.168V23.4514V23.6591L45.4245 23.678Z" fill="#FEF5EB"/>
<path d="M21.5112 33.2361C21.1334 32.8394 20.5479 32.5561 19.8112 32.3861C20.2834 32.1783 20.6612 31.8949 20.9256 31.5549C21.3034 31.0827 21.4923 30.5349 21.4923 29.9494C21.4923 29.2127 21.209 28.6083 20.6234 28.1549C20.0568 27.7016 19.2634 27.4938 18.2623 27.4938C18.0356 27.4938 14.1445 27.4561 14.1445 27.4561V27.6827V27.9661V28.1549L14.3334 28.1738C14.6734 28.1927 14.9001 28.2305 15.0134 28.2683C15.1268 28.3061 15.1834 28.3627 15.2212 28.4761C15.259 28.6083 15.2968 28.8349 15.2968 29.1938V36.2961C15.2968 36.6549 15.259 36.8816 15.2212 37.0138C15.1834 37.1272 15.1268 37.1838 15.0134 37.2216C14.9001 37.2594 14.6734 37.2972 14.3334 37.3161L14.1445 37.3349V37.5238V37.8072V38.0338C14.1445 38.0338 18.319 38.0149 18.5834 38.0149C19.3201 38.0149 19.9434 37.9016 20.4912 37.6561C21.039 37.4105 21.4545 37.0516 21.7568 36.5983C22.059 36.1449 22.2101 35.6161 22.2101 35.0494C22.2479 34.3316 22.0023 33.7272 21.5112 33.2361ZM17.0534 29.1938C17.0534 28.8538 17.0912 28.6272 17.129 28.4761C17.1668 28.3438 17.2423 28.2872 17.3179 28.2305C17.4312 28.1738 17.6201 28.1549 17.9034 28.1549C18.5834 28.1549 19.0179 28.3249 19.2823 28.6083C19.5468 28.9105 19.6979 29.3827 19.6979 30.0816C19.6979 30.7616 19.5468 31.2716 19.2634 31.6683C19.0179 32.0083 18.5456 32.2161 17.7901 32.2161H17.0345V29.1938H17.0534ZM19.7923 36.7116C19.3956 37.0894 18.7912 37.2783 17.9223 37.2783C17.639 37.2783 17.4312 37.2594 17.3179 37.2027C17.2234 37.1649 17.1668 37.0894 17.129 36.9761C17.0912 36.8438 17.0534 36.6172 17.0534 36.2772V32.8583H18.0545C18.9234 32.8583 19.509 33.0472 19.849 33.3872C20.2079 33.7272 20.3968 34.2372 20.3968 34.9549C20.3968 35.7861 20.189 36.3527 19.7923 36.7116Z" fill="#FEF5EB"/>
<path d="M35.8667 33.2361C35.8478 33.2361 35.8667 33.2361 35.8667 33.2361C35.8478 33.2361 35.8478 33.2361 35.8667 33.2361C35.4889 32.8394 34.9034 32.5561 34.1667 32.3861C34.6389 32.1783 35.0167 31.8949 35.2812 31.5549C35.659 31.0827 35.8478 30.5349 35.8478 29.9494C35.8478 29.2127 35.5645 28.6083 34.979 28.1549C34.4123 27.7016 33.619 27.4938 32.6178 27.4938C32.3912 27.4938 28.5001 27.4561 28.5001 27.4561V27.6827V27.9661V28.1549L28.6889 28.1738C29.0289 28.1927 29.2556 28.2305 29.369 28.2683C29.4823 28.3061 29.539 28.3627 29.5767 28.4761C29.6145 28.6083 29.6523 28.8349 29.6523 29.1938V36.2961C29.6523 36.6549 29.6145 36.8816 29.5767 37.0138C29.539 37.1272 29.4823 37.1838 29.369 37.2216C29.2556 37.2594 29.0289 37.2972 28.6889 37.3161L28.5001 37.3349V37.5238V37.8072V38.0338C28.5001 38.0338 32.6745 38.0149 32.9389 38.0149C33.6756 38.0149 34.299 37.9016 34.8467 37.6561C35.3945 37.4105 35.8101 37.0516 36.1123 36.5983C36.4145 36.1449 36.5656 35.6161 36.5656 35.0494C36.5845 34.3316 36.3389 33.7272 35.8667 33.2361ZM34.8656 28.3061C34.8467 28.3061 34.8467 28.3061 34.8656 28.3061V28.3061ZM31.409 29.1938C31.409 28.8538 31.4467 28.6272 31.4845 28.4761C31.5223 28.3438 31.5978 28.2872 31.6734 28.2305C31.7867 28.1738 31.9756 28.1549 32.259 28.1549C32.939 28.1549 33.3734 28.3249 33.6378 28.6083C33.9023 28.9105 34.0534 29.3827 34.0534 30.0816C34.0534 30.7616 33.9023 31.2716 33.619 31.6683C33.3734 32.0083 32.9012 32.2161 32.1456 32.2161H31.3901V29.1938H31.409ZM34.1478 36.7116C33.7512 37.0894 33.1467 37.2783 32.2778 37.2783C31.9756 37.2783 31.7867 37.2594 31.6734 37.2027C31.579 37.1649 31.5223 37.0894 31.4845 36.9761C31.4467 36.8438 31.409 36.6172 31.409 36.2772V32.8583H32.4101C33.279 32.8583 33.8645 33.0472 34.2045 33.3872C34.5634 33.7272 34.7523 34.2372 34.7523 34.9549C34.7523 35.7861 34.5445 36.3527 34.1478 36.7116Z" fill="#FEF5EB"/>
<path d="M23.3245 27.4561V27.6827V27.9661V28.1549L23.5134 28.1738C23.8534 28.1927 24.0801 28.2305 24.1934 28.2683C24.3067 28.3061 24.3634 28.3627 24.4012 28.4761C24.439 28.6083 24.4767 28.8349 24.4767 29.1938V36.2961C24.4767 36.6549 24.439 36.8816 24.4012 37.0138C24.3634 37.1272 24.3067 37.1838 24.1934 37.2216C24.0801 37.2594 23.8534 37.2972 23.5134 37.3161L23.3245 37.3349V37.5238V37.8072V38.0338H27.3856V37.8261V37.5427V37.3538L27.1967 37.3349C26.8567 37.3161 26.6301 37.2783 26.4979 37.2405C26.4034 37.2027 26.3467 37.1461 26.309 37.0327C26.2712 36.9005 26.2334 36.6738 26.2334 36.3149V29.2127C26.2334 28.8538 26.2712 28.6272 26.309 28.4949C26.3467 28.3816 26.4034 28.3249 26.4979 28.2872C26.6301 28.2494 26.8567 28.2116 27.1967 28.1927L27.3856 28.1738V27.9849V27.7016V27.4938L23.3245 27.4561Z" fill="#FEF5EB"/>
<path d="M19.7168 23.6779V23.4701V23.1868V22.9979L19.5279 22.979C19.1879 22.9601 18.9612 22.9223 18.829 22.8845C18.7345 22.8468 18.6779 22.7901 18.6401 22.6768C18.6023 22.5445 18.5645 22.3179 18.5645 21.959V18.7101H22.8145V21.9401C22.8145 22.299 22.7768 22.5257 22.739 22.6579C22.7012 22.7712 22.6445 22.8279 22.5312 22.8657C22.4179 22.9034 22.1912 22.9412 21.8512 22.9601L21.6623 22.979V23.1679V23.4512V23.659H25.7234V23.4323V23.149V22.9601L25.5345 22.9412C25.1945 22.9223 24.9679 22.8845 24.8356 22.8468C24.7412 22.809 24.6845 22.7523 24.6467 22.639C24.609 22.5068 24.5712 22.2801 24.5712 21.9212V14.8379C24.5712 14.479 24.609 14.2523 24.6467 14.1201C24.6845 14.0068 24.7412 13.9501 24.8356 13.9123C24.9679 13.8745 25.1945 13.8368 25.5345 13.8179L25.7234 13.799V13.6101V13.3268V13.1001H21.6623V13.3079V13.5912V13.7801L21.8512 13.799C22.1912 13.8179 22.4179 13.8557 22.5312 13.8934C22.6445 13.9312 22.7012 13.9879 22.739 14.1012C22.7768 14.2334 22.8145 14.4601 22.8145 14.819V17.9923H18.5645V14.8379C18.5645 14.479 18.6023 14.2523 18.6401 14.1201C18.6779 14.0068 18.7345 13.9501 18.829 13.9123C18.9612 13.8745 19.1879 13.8368 19.5279 13.8179L19.7168 13.799V13.6101V13.3268V13.119H15.6556V13.3457V13.629V13.8179L15.8445 13.8368C16.1845 13.8557 16.4112 13.8934 16.5245 13.9312C16.6379 13.969 16.6945 14.0257 16.7323 14.139C16.7701 14.2712 16.8079 14.4979 16.8079 14.8568V21.9401C16.8079 22.299 16.7701 22.5257 16.7323 22.6579C16.6945 22.7712 16.6379 22.8279 16.5245 22.8657C16.4112 22.9034 16.1845 22.9412 15.8445 22.9601L15.6556 22.979V23.1679V23.4512V23.6779H19.7168Z" fill="#FEF5EB"/>
<path d="M45.1034 13.9501C45.2168 14.0445 45.349 14.2145 45.519 14.5357L48.409 19.8623V21.9401C48.409 22.299 48.3712 22.5257 48.3334 22.6579C48.2956 22.7712 48.239 22.8279 48.1256 22.8657C48.0123 22.9034 47.7856 22.9412 47.4456 22.9601L47.2568 22.979V23.1679V23.4512V23.6779L51.0912 23.659L51.299 23.6779V23.4701V23.1868V22.9979L51.1101 22.979C50.7701 22.9601 50.5434 22.9223 50.4112 22.8845C50.3168 22.8468 50.2601 22.7901 50.2223 22.6768C50.1845 22.5445 50.1468 22.3179 50.1468 21.959V19.409L52.3756 14.989C52.5834 14.5923 52.7723 14.309 52.9234 14.139C53.0934 13.9501 53.2445 13.8557 53.3768 13.8179L53.5279 13.7801V13.629V13.3457V13.119H50.619L50.4112 13.1001V13.3079V13.5912V13.7801H50.6001C51.0156 13.7801 51.2801 13.8557 51.4501 13.9501C51.5823 14.0257 51.6579 14.139 51.6579 14.3468C51.6579 14.6112 51.5445 14.989 51.299 15.4801L49.6368 18.7668L47.4456 14.5734C47.3512 14.4034 47.3323 14.2712 47.3323 14.1579C47.3323 14.1012 47.3512 14.0634 47.3701 14.0257C47.389 13.9879 47.4268 13.9501 47.4834 13.9312C47.5968 13.8557 47.8234 13.8179 48.1445 13.8179H48.3523V13.629V13.3268V13.1001H44.6879V13.3268V13.629V13.8368H44.8956C44.9145 13.8368 44.9901 13.8557 45.1034 13.9501Z" fill="#FEF5EB"/>
<path d="M45.4056 35.9938C45.4056 35.5027 45.4245 35.1249 45.4434 34.8416L45.4623 34.6149H45.2356H44.9145H44.7256L44.7067 34.8038C44.6312 35.5027 44.5368 36.0127 44.4045 36.3716C44.2723 36.7116 44.0834 36.9382 43.819 37.0894C43.5545 37.2216 43.139 37.316 42.5723 37.316H41.5334C41.1934 37.316 40.9667 37.2971 40.8345 37.2594C40.7401 37.2216 40.6834 37.1649 40.6456 37.0516C40.6079 36.9194 40.5701 36.6927 40.5701 36.3338V29.2316C40.5701 28.8727 40.6079 28.646 40.6456 28.5138C40.6834 28.4005 40.7401 28.3438 40.8345 28.306C40.9667 28.2683 41.1934 28.2305 41.5334 28.2116L41.7223 28.1927V28.0038V27.7205V27.5127H37.6612V27.7394V28.0227V28.2116L37.8501 28.2305C38.1901 28.2494 38.4168 28.2871 38.5301 28.3249C38.6434 28.3627 38.7001 28.4194 38.7379 28.5327C38.7756 28.6649 38.8134 28.8916 38.8134 29.2505V36.296C38.8134 36.6549 38.7756 36.8816 38.7379 37.0138C38.7001 37.1271 38.6434 37.1838 38.5301 37.2216C38.4168 37.2594 38.1901 37.2971 37.8501 37.316L37.6612 37.3349V37.5238V37.8071V38.0149H45.519L45.5001 37.7882C45.4434 37.1271 45.4056 36.5227 45.4056 35.9938Z" fill="#FEF5EB"/>
</g>
<defs>
<linearGradient id="paint0_linear_17348_2745" x1="34" y1="-1.04141e-05" x2="34" y2="68" gradientUnits="userSpaceOnUse">
<stop stop-color="#C93D34"/>
<stop offset="1" stop-color="#7A2629"/>
</linearGradient>
<linearGradient id="paint1_linear_17348_2745" x1="34" y1="-1.04141e-05" x2="34" y2="68" gradientUnits="userSpaceOnUse">
<stop stop-color="#C93D34"/>
<stop offset="1" stop-color="#7A2629"/>
</linearGradient>
</defs>
</svg>
