<svg width="68" height="68" viewBox="0 0 68 68" fill="none" xmlns="http://www.w3.org/2000/svg">
<g clip-path="url(#clip0_23668_7180)">
<mask id="mask0_23668_7180" style="mask-type:alpha" maskUnits="userSpaceOnUse" x="0" y="0" width="68" height="68">
<path fill-rule="evenodd" clip-rule="evenodd" d="M47.0333 0H20.9667C13.5811 0 8.89667 0.0377779 4.45778 4.45778C0.018889 8.89667 0 13.6 0 20.9667V47.0333C0 54.4189 0.0377779 59.1033 4.45778 63.5422C8.89667 67.9811 13.6 68 20.9667 68H47.0333C54.4189 68 59.1033 67.9811 63.5422 63.5422C67.9622 59.1033 68 54.4 68 47.0333V20.9667C68 13.5811 67.9622 8.89667 63.5422 4.45778C59.1033 0.018889 54.4 0 47.0333 0Z" fill="url(#paint0_linear_23668_7180)"/>
</mask>
<g mask="url(#mask0_23668_7180)">
<rect width="68" height="68" fill="url(#paint1_linear_23668_7180)"/>
<path fill-rule="evenodd" clip-rule="evenodd" d="M15.6211 64.3735C26.4256 64.3735 45.6356 64.3735 45.6356 64.3735C52.5867 64.3735 57.0823 64.6379 61.2378 60.4446C64.8078 56.8746 64.5056 50.8679 64.7323 46.1079C60.7089 52.1524 53.3234 51.9446 47.6189 51.9446C47.6189 51.9446 20.9289 51.9446 10.9556 51.9446C0.982255 51.9635 4.8167 64.3735 15.6211 64.3735Z" fill="#FEF5EB"/>
<path d="M12.4855 53.5312H23.1389V61.5213L17.8122 58.8579L12.4855 61.5213V53.5312Z" fill="#FF3D4D"/>
<mask id="path-5-outside-1_23668_7180" maskUnits="userSpaceOnUse" x="11.1016" y="12.2266" width="47" height="26" fill="black">
<rect fill="white" x="11.1016" y="12.2266" width="47" height="26"/>
<path d="M15.1415 12.8657C15.5641 12.8657 15.8956 12.9137 16.1358 13.0098C16.3855 13.0962 16.6401 13.2259 16.8995 13.3988C17.1108 13.5333 17.2742 13.6006 17.3894 13.6006C17.4759 13.6006 17.5431 13.5525 17.5912 13.4565C17.6392 13.3508 17.6776 13.1875 17.7065 12.9665H18.0379C17.9899 13.5237 17.9658 14.5036 17.9658 15.9062H17.6344C17.5768 15.1281 17.351 14.4748 16.9571 13.9464C16.5729 13.4084 16.0109 13.1395 15.2711 13.1395C14.7524 13.1395 14.3297 13.298 14.003 13.615C13.6764 13.9224 13.5131 14.3211 13.5131 14.811C13.5131 15.1761 13.5948 15.4931 13.7581 15.7621C13.931 16.0311 14.1472 16.2617 14.4065 16.4538C14.6659 16.6459 15.0358 16.8909 15.5161 17.1887L15.934 17.4481C16.5392 17.8228 17.0148 18.1542 17.3606 18.4424C17.7161 18.721 17.9995 19.0428 18.2108 19.4079C18.4222 19.7729 18.5278 20.2004 18.5278 20.6904C18.5278 21.5646 18.2396 22.2419 17.6632 22.7222C17.0868 23.1929 16.3567 23.4283 15.4729 23.4283C15.0118 23.4283 14.6323 23.3803 14.3345 23.2842C14.0463 23.1881 13.7677 23.0584 13.4987 22.8951C13.2873 22.7606 13.124 22.6934 13.0087 22.6934C12.9223 22.6934 12.855 22.7462 12.807 22.8519C12.759 22.948 12.7205 23.1065 12.6917 23.3274H12.3603C12.3987 22.7991 12.4179 21.6462 12.4179 19.869H12.7494C12.8166 20.8393 13.0568 21.627 13.4699 22.2323C13.883 22.8375 14.517 23.1401 15.372 23.1401C15.8908 23.1401 16.3327 22.9816 16.6977 22.6646C17.0628 22.3379 17.2453 21.8576 17.2453 21.2236C17.2453 20.6856 17.0628 20.2292 16.6977 19.8546C16.3423 19.4799 15.7755 19.0572 14.9974 18.5865C14.4306 18.2406 13.9694 17.9332 13.614 17.6642C13.2681 17.3953 12.9847 17.0734 12.7638 16.6988C12.5428 16.3145 12.4323 15.8678 12.4323 15.3586C12.4323 14.5516 12.6917 13.9368 13.2105 13.5141C13.7293 13.0818 14.3729 12.8657 15.1415 12.8657ZM27.6003 22.0161C27.8309 22.6117 28.1623 22.9191 28.5946 22.9384V23.2266C28.2104 23.1977 27.6964 23.1833 27.0527 23.1833C26.2266 23.1833 25.6117 23.1977 25.2082 23.2266V22.9384C25.5733 22.9191 25.8327 22.8759 25.9864 22.8087C26.1497 22.7318 26.2314 22.5973 26.2314 22.4052C26.2314 22.2419 26.1737 22.0161 26.0584 21.7279L25.1794 19.3646H21.6922L21.1013 20.8921C20.9092 21.4109 20.8131 21.8048 20.8131 22.0737C20.8131 22.3716 20.914 22.5877 21.1158 22.7222C21.3271 22.8567 21.6441 22.9288 22.0668 22.9384V23.2266C21.5192 23.1977 20.9668 23.1833 20.4097 23.1833C19.9773 23.1833 19.6171 23.1977 19.3289 23.2266V22.9384C19.8092 22.8231 20.1887 22.4052 20.4673 21.6847L23.8537 12.9521H24.0842L27.6003 22.0161ZM25.0641 19.0764L23.4502 14.7678L21.8074 19.0764H25.0641ZM38.1455 13.3124C37.8092 13.3316 37.5594 13.3844 37.3961 13.4709C37.2328 13.5477 37.1223 13.6822 37.0647 13.8744C37.0071 14.0569 36.9782 14.3307 36.9782 14.6957V23.2986H36.6468L30.5945 13.9464V21.555C30.5945 21.9296 30.6234 22.2082 30.681 22.3908C30.7482 22.5733 30.8731 22.7078 31.0557 22.7943C31.2382 22.8711 31.5216 22.9191 31.9059 22.9384V23.2266C31.56 23.1977 31.0701 23.1833 30.436 23.1833C29.8596 23.1833 29.4129 23.1977 29.0959 23.2266V22.9384C29.4321 22.9191 29.6819 22.8711 29.8452 22.7943C30.0085 22.7078 30.119 22.5733 30.1766 22.3908C30.2343 22.1986 30.2631 21.92 30.2631 21.555V14.5516C30.2631 14.1866 30.2343 13.9224 30.1766 13.7591C30.119 13.5958 30.0085 13.4853 29.8452 13.4277C29.6915 13.37 29.4417 13.3316 29.0959 13.3124V13.0242C29.4129 13.053 29.8596 13.0674 30.436 13.0674C30.8683 13.0674 31.243 13.053 31.56 13.0242L36.6468 20.8633V14.6957C36.6468 14.3211 36.6132 14.0425 36.5459 13.86C36.4883 13.6774 36.3682 13.5477 36.1857 13.4709C36.0031 13.3844 35.7197 13.3316 35.3355 13.3124V13.0242C35.6813 13.053 36.1713 13.0674 36.8053 13.0674C37.3817 13.0674 37.8284 13.053 38.1455 13.0242V13.3124ZM47.4614 13.0242C47.3942 13.7063 47.3606 14.3211 47.3606 14.8687C47.3606 15.349 47.375 15.7429 47.4038 16.0503H47.0724C46.9955 15.3106 46.8994 14.763 46.7842 14.4075C46.6689 14.0425 46.4671 13.7783 46.1789 13.615C45.8907 13.4421 45.4488 13.3556 44.8532 13.3556H44.0751V21.555C44.0751 21.9585 44.1135 22.2515 44.1903 22.434C44.2672 22.6165 44.4017 22.7414 44.5938 22.8087C44.786 22.8759 45.0982 22.9191 45.5305 22.9384V23.2266C45.0309 23.1977 44.3248 23.1833 43.4122 23.1833C42.4515 23.1833 41.7406 23.1977 41.2795 23.2266V22.9384C41.7118 22.9191 42.024 22.8759 42.2161 22.8087C42.4083 22.7414 42.5428 22.6165 42.6196 22.434C42.6965 22.2515 42.7349 21.9585 42.7349 21.555V13.3556H41.9568C41.3611 13.3556 40.9192 13.4421 40.631 13.615C40.3428 13.7783 40.1411 14.0425 40.0258 14.4075C39.9105 14.763 39.8145 15.3106 39.7376 16.0503H39.4062C39.435 15.7429 39.4494 15.349 39.4494 14.8687C39.4494 14.3211 39.4158 13.7063 39.3485 13.0242C40.1459 13.053 41.5004 13.0674 43.4122 13.0674C45.3143 13.0674 46.6641 13.053 47.4614 13.0242ZM55.6414 22.0161C55.872 22.6117 56.2034 22.9191 56.6357 22.9384V23.2266C56.2514 23.1977 55.7375 23.1833 55.0938 23.1833C54.2676 23.1833 53.6528 23.1977 53.2493 23.2266V22.9384C53.6144 22.9191 53.8738 22.8759 54.0275 22.8087C54.1908 22.7318 54.2724 22.5973 54.2724 22.4052C54.2724 22.2419 54.2148 22.0161 54.0995 21.7279L53.2205 19.3646H49.7332L49.1424 20.8921C48.9503 21.4109 48.8542 21.8048 48.8542 22.0737C48.8542 22.3716 48.9551 22.5877 49.1568 22.7222C49.3682 22.8567 49.6852 22.9288 50.1079 22.9384V23.2266C49.5603 23.1977 49.0079 23.1833 48.4507 23.1833C48.0184 23.1833 47.6582 23.1977 47.37 23.2266V22.9384C47.8503 22.8231 48.2298 22.4052 48.5084 21.6847L51.8948 12.9521H52.1253L55.6414 22.0161ZM53.1052 19.0764L51.4913 14.7678L49.8485 19.0764H53.1052ZM16.1884 31.8372C17.2451 31.9813 17.9992 32.2887 18.4508 32.7594C18.9023 33.2205 19.128 33.7777 19.128 34.431C19.128 34.9786 18.9887 35.4637 18.7101 35.8864C18.4315 36.3091 18.0329 36.6405 17.5141 36.8807C16.9953 37.1113 16.3805 37.2266 15.6696 37.2266C15.4102 37.2266 15.1893 37.2218 15.0067 37.2122C14.3919 37.1929 13.7867 37.1833 13.191 37.1833C12.4033 37.1833 11.8077 37.1977 11.4042 37.2266V36.9384C11.75 36.9191 11.9998 36.8807 12.1535 36.8231C12.3168 36.7654 12.4273 36.655 12.4849 36.4916C12.5426 36.3283 12.5714 36.0641 12.5714 35.6991V28.5516C12.5714 28.1866 12.5426 27.9224 12.4849 27.7591C12.4273 27.5958 12.3168 27.4853 12.1535 27.4277C11.9998 27.37 11.75 27.3316 11.4042 27.3124V27.0242C11.8077 27.053 12.3937 27.0674 13.1622 27.0674L14.7185 27.053C14.9011 27.0434 15.1076 27.0386 15.3382 27.0386C16.318 27.0386 17.0674 27.2451 17.5861 27.6582C18.1145 28.0713 18.3787 28.6189 18.3787 29.301C18.3787 29.8582 18.201 30.3577 17.8455 30.7996C17.4997 31.2415 16.9473 31.5778 16.1884 31.8083V31.8372ZM14.9779 27.3124C14.6801 27.3124 14.4543 27.346 14.3006 27.4132C14.1565 27.4805 14.0557 27.6006 13.998 27.7735C13.9404 27.9464 13.9116 28.2058 13.9116 28.5516V31.8083H14.877C15.6648 31.8083 16.2124 31.597 16.5198 31.1743C16.8368 30.742 16.9953 30.1704 16.9953 29.4595C16.9953 28.739 16.8368 28.201 16.5198 27.8456C16.2028 27.4901 15.6888 27.3124 14.9779 27.3124ZM14.9923 36.8951C16.7888 36.8951 17.687 36.0545 17.687 34.3734C17.687 33.6144 17.4805 33.038 17.0674 32.6441C16.6639 32.2503 16.0154 32.0533 15.122 32.0533H13.9116V35.6991C13.9116 36.0449 13.9404 36.2995 13.998 36.4628C14.0557 36.6261 14.1565 36.7414 14.3006 36.8087C14.4543 36.8663 14.6849 36.8951 14.9923 36.8951ZM24.2241 27.3124C23.8783 27.3316 23.6237 27.37 23.4604 27.4277C23.3067 27.4853 23.201 27.5958 23.1433 27.7591C23.0857 27.9224 23.0569 28.1866 23.0569 28.5516V35.6991C23.0569 36.0641 23.0857 36.3283 23.1433 36.4916C23.201 36.655 23.3067 36.7654 23.4604 36.8231C23.6237 36.8807 23.8783 36.9191 24.2241 36.9384V37.2266C23.7822 37.1977 23.1722 37.1833 22.394 37.1833C21.5678 37.1833 20.953 37.1977 20.5495 37.2266V36.9384C20.8954 36.9191 21.1451 36.8807 21.2988 36.8231C21.4622 36.7654 21.5726 36.655 21.6303 36.4916C21.6879 36.3283 21.7167 36.0641 21.7167 35.6991V28.5516C21.7167 28.1866 21.6879 27.9224 21.6303 27.7591C21.5726 27.5958 21.4622 27.4853 21.2988 27.4277C21.1451 27.37 20.8954 27.3316 20.5495 27.3124V27.0242C20.953 27.053 21.5678 27.0674 22.394 27.0674C23.1625 27.0674 23.7726 27.053 24.2241 27.0242V27.3124ZM30.4824 31.8372C31.5392 31.9813 32.2933 32.2887 32.7448 32.7594C33.1963 33.2205 33.4221 33.7777 33.4221 34.431C33.4221 34.9786 33.2828 35.4637 33.0042 35.8864C32.7256 36.3091 32.3269 36.6405 31.8082 36.8807C31.2894 37.1113 30.6746 37.2266 29.9637 37.2266C29.7043 37.2266 29.4833 37.2218 29.3008 37.2122C28.686 37.1929 28.0807 37.1833 27.4851 37.1833C26.6974 37.1833 26.1017 37.1977 25.6983 37.2266V36.9384C26.0441 36.9191 26.2939 36.8807 26.4476 36.8231C26.6109 36.7654 26.7214 36.655 26.779 36.4916C26.8367 36.3283 26.8655 36.0641 26.8655 35.6991V28.5516C26.8655 28.1866 26.8367 27.9224 26.779 27.7591C26.7214 27.5958 26.6109 27.4853 26.4476 27.4277C26.2939 27.37 26.0441 27.3316 25.6983 27.3124V27.0242C26.1017 27.053 26.6878 27.0674 27.4563 27.0674L29.0126 27.053C29.1951 27.0434 29.4017 27.0386 29.6322 27.0386C30.6121 27.0386 31.3615 27.2451 31.8802 27.6582C32.4086 28.0713 32.6728 28.6189 32.6728 29.301C32.6728 29.8582 32.4951 30.3577 32.1396 30.7996C31.7938 31.2415 31.2414 31.5778 30.4824 31.8083V31.8372ZM29.272 27.3124C28.9742 27.3124 28.7484 27.346 28.5947 27.4132C28.4506 27.4805 28.3497 27.6006 28.2921 27.7735C28.2344 27.9464 28.2056 28.2058 28.2056 28.5516V31.8083H29.1711C29.9589 31.8083 30.5065 31.597 30.8139 31.1743C31.1309 30.742 31.2894 30.1704 31.2894 29.4595C31.2894 28.739 31.1309 28.201 30.8139 27.8456C30.4968 27.4901 29.9829 27.3124 29.272 27.3124ZM29.2864 36.8951C31.0829 36.8951 31.9811 36.0545 31.9811 34.3734C31.9811 33.6144 31.7745 33.038 31.3615 32.6441C30.958 32.2503 30.3095 32.0533 29.4161 32.0533H28.2056V35.6991C28.2056 36.0449 28.2344 36.2995 28.2921 36.4628C28.3497 36.6261 28.4506 36.7414 28.5947 36.8087C28.7484 36.8663 28.979 36.8951 29.2864 36.8951ZM38.5182 27.3124C38.1723 27.3316 37.9177 27.37 37.7544 27.4277C37.6007 27.4853 37.4951 27.5958 37.4374 27.7591C37.3798 27.9224 37.3509 28.1866 37.3509 28.5516V35.6991C37.3509 36.0641 37.3798 36.3283 37.4374 36.4916C37.4951 36.655 37.6007 36.7654 37.7544 36.8231C37.9177 36.8711 38.1723 36.8951 38.5182 36.8951H39.5701C40.1657 36.8951 40.6173 36.8135 40.9247 36.6502C41.2417 36.4772 41.4723 36.2034 41.6164 35.8288C41.7605 35.4541 41.8661 34.9113 41.9334 34.2004H42.2648C42.236 34.4982 42.2216 34.8921 42.2216 35.3821C42.2216 35.9296 42.2552 36.5445 42.3225 37.2266C41.6692 37.1977 40.5692 37.1833 39.0225 37.1833C37.178 37.1833 35.785 37.1977 34.8436 37.2266V36.9384C35.1894 36.9191 35.4392 36.8807 35.5929 36.8231C35.7562 36.7654 35.8667 36.655 35.9243 36.4916C35.982 36.3283 36.0108 36.0641 36.0108 35.6991V28.5516C36.0108 28.1866 35.982 27.9224 35.9243 27.7591C35.8667 27.5958 35.7562 27.4853 35.5929 27.4277C35.4392 27.37 35.1894 27.3316 34.8436 27.3124V27.0242C35.2471 27.053 35.8619 27.0674 36.6881 27.0674C37.4566 27.0674 38.0667 27.053 38.5182 27.0242V27.3124ZM47.2554 27.3124C46.9096 27.3316 46.655 27.37 46.4917 27.4277C46.3379 27.4853 46.2323 27.5958 46.1746 27.7591C46.117 27.9224 46.0882 28.1866 46.0882 28.5516V35.6991C46.0882 36.0641 46.117 36.3283 46.1746 36.4916C46.2323 36.655 46.3379 36.7654 46.4917 36.8231C46.655 36.8807 46.9096 36.9191 47.2554 36.9384V37.2266C46.8135 37.1977 46.2035 37.1833 45.4253 37.1833C44.5991 37.1833 43.9843 37.1977 43.5808 37.2266V36.9384C43.9266 36.9191 44.1764 36.8807 44.3301 36.8231C44.4934 36.7654 44.6039 36.655 44.6616 36.4916C44.7192 36.3283 44.748 36.0641 44.748 35.6991V28.5516C44.748 28.1866 44.7192 27.9224 44.6616 27.7591C44.6039 27.5958 44.4934 27.4853 44.3301 27.4277C44.1764 27.37 43.9266 27.3316 43.5808 27.3124V27.0242C43.9843 27.053 44.5991 27.0674 45.4253 27.0674C46.1938 27.0674 46.8039 27.053 47.2554 27.0242V27.3124ZM56.2949 36.0161C56.5255 36.6117 56.8569 36.9191 57.2892 36.9384V37.2266C56.9049 37.1977 56.391 37.1833 55.7473 37.1833C54.9211 37.1833 54.3063 37.1977 53.9028 37.2266V36.9384C54.2679 36.9191 54.5272 36.8759 54.6809 36.8087C54.8443 36.7318 54.9259 36.5973 54.9259 36.4052C54.9259 36.2419 54.8683 36.0161 54.753 35.7279L53.874 33.3646H50.3867L49.7959 34.8921C49.6038 35.4109 49.5077 35.8048 49.5077 36.0737C49.5077 36.3716 49.6086 36.5877 49.8103 36.7222C50.0217 36.8567 50.3387 36.9288 50.7614 36.9384V37.2266C50.2138 37.1977 49.6614 37.1833 49.1042 37.1833C48.6719 37.1833 48.3117 37.1977 48.0235 37.2266V36.9384C48.5038 36.8231 48.8833 36.4052 49.1619 35.6847L52.5482 26.9521H52.7788L56.2949 36.0161ZM53.7587 33.0764L52.1448 28.7678L50.502 33.0764H53.7587Z"/>
</mask>
<path d="M15.1415 12.8657C15.5641 12.8657 15.8956 12.9137 16.1358 13.0098C16.3855 13.0962 16.6401 13.2259 16.8995 13.3988C17.1108 13.5333 17.2742 13.6006 17.3894 13.6006C17.4759 13.6006 17.5431 13.5525 17.5912 13.4565C17.6392 13.3508 17.6776 13.1875 17.7065 12.9665H18.0379C17.9899 13.5237 17.9658 14.5036 17.9658 15.9062H17.6344C17.5768 15.1281 17.351 14.4748 16.9571 13.9464C16.5729 13.4084 16.0109 13.1395 15.2711 13.1395C14.7524 13.1395 14.3297 13.298 14.003 13.615C13.6764 13.9224 13.5131 14.3211 13.5131 14.811C13.5131 15.1761 13.5948 15.4931 13.7581 15.7621C13.931 16.0311 14.1472 16.2617 14.4065 16.4538C14.6659 16.6459 15.0358 16.8909 15.5161 17.1887L15.934 17.4481C16.5392 17.8228 17.0148 18.1542 17.3606 18.4424C17.7161 18.721 17.9995 19.0428 18.2108 19.4079C18.4222 19.7729 18.5278 20.2004 18.5278 20.6904C18.5278 21.5646 18.2396 22.2419 17.6632 22.7222C17.0868 23.1929 16.3567 23.4283 15.4729 23.4283C15.0118 23.4283 14.6323 23.3803 14.3345 23.2842C14.0463 23.1881 13.7677 23.0584 13.4987 22.8951C13.2873 22.7606 13.124 22.6934 13.0087 22.6934C12.9223 22.6934 12.855 22.7462 12.807 22.8519C12.759 22.948 12.7205 23.1065 12.6917 23.3274H12.3603C12.3987 22.7991 12.4179 21.6462 12.4179 19.869H12.7494C12.8166 20.8393 13.0568 21.627 13.4699 22.2323C13.883 22.8375 14.517 23.1401 15.372 23.1401C15.8908 23.1401 16.3327 22.9816 16.6977 22.6646C17.0628 22.3379 17.2453 21.8576 17.2453 21.2236C17.2453 20.6856 17.0628 20.2292 16.6977 19.8546C16.3423 19.4799 15.7755 19.0572 14.9974 18.5865C14.4306 18.2406 13.9694 17.9332 13.614 17.6642C13.2681 17.3953 12.9847 17.0734 12.7638 16.6988C12.5428 16.3145 12.4323 15.8678 12.4323 15.3586C12.4323 14.5516 12.6917 13.9368 13.2105 13.5141C13.7293 13.0818 14.3729 12.8657 15.1415 12.8657ZM27.6003 22.0161C27.8309 22.6117 28.1623 22.9191 28.5946 22.9384V23.2266C28.2104 23.1977 27.6964 23.1833 27.0527 23.1833C26.2266 23.1833 25.6117 23.1977 25.2082 23.2266V22.9384C25.5733 22.9191 25.8327 22.8759 25.9864 22.8087C26.1497 22.7318 26.2314 22.5973 26.2314 22.4052C26.2314 22.2419 26.1737 22.0161 26.0584 21.7279L25.1794 19.3646H21.6922L21.1013 20.8921C20.9092 21.4109 20.8131 21.8048 20.8131 22.0737C20.8131 22.3716 20.914 22.5877 21.1158 22.7222C21.3271 22.8567 21.6441 22.9288 22.0668 22.9384V23.2266C21.5192 23.1977 20.9668 23.1833 20.4097 23.1833C19.9773 23.1833 19.6171 23.1977 19.3289 23.2266V22.9384C19.8092 22.8231 20.1887 22.4052 20.4673 21.6847L23.8537 12.9521H24.0842L27.6003 22.0161ZM25.0641 19.0764L23.4502 14.7678L21.8074 19.0764H25.0641ZM38.1455 13.3124C37.8092 13.3316 37.5594 13.3844 37.3961 13.4709C37.2328 13.5477 37.1223 13.6822 37.0647 13.8744C37.0071 14.0569 36.9782 14.3307 36.9782 14.6957V23.2986H36.6468L30.5945 13.9464V21.555C30.5945 21.9296 30.6234 22.2082 30.681 22.3908C30.7482 22.5733 30.8731 22.7078 31.0557 22.7943C31.2382 22.8711 31.5216 22.9191 31.9059 22.9384V23.2266C31.56 23.1977 31.0701 23.1833 30.436 23.1833C29.8596 23.1833 29.4129 23.1977 29.0959 23.2266V22.9384C29.4321 22.9191 29.6819 22.8711 29.8452 22.7943C30.0085 22.7078 30.119 22.5733 30.1766 22.3908C30.2343 22.1986 30.2631 21.92 30.2631 21.555V14.5516C30.2631 14.1866 30.2343 13.9224 30.1766 13.7591C30.119 13.5958 30.0085 13.4853 29.8452 13.4277C29.6915 13.37 29.4417 13.3316 29.0959 13.3124V13.0242C29.4129 13.053 29.8596 13.0674 30.436 13.0674C30.8683 13.0674 31.243 13.053 31.56 13.0242L36.6468 20.8633V14.6957C36.6468 14.3211 36.6132 14.0425 36.5459 13.86C36.4883 13.6774 36.3682 13.5477 36.1857 13.4709C36.0031 13.3844 35.7197 13.3316 35.3355 13.3124V13.0242C35.6813 13.053 36.1713 13.0674 36.8053 13.0674C37.3817 13.0674 37.8284 13.053 38.1455 13.0242V13.3124ZM47.4614 13.0242C47.3942 13.7063 47.3606 14.3211 47.3606 14.8687C47.3606 15.349 47.375 15.7429 47.4038 16.0503H47.0724C46.9955 15.3106 46.8994 14.763 46.7842 14.4075C46.6689 14.0425 46.4671 13.7783 46.1789 13.615C45.8907 13.4421 45.4488 13.3556 44.8532 13.3556H44.0751V21.555C44.0751 21.9585 44.1135 22.2515 44.1903 22.434C44.2672 22.6165 44.4017 22.7414 44.5938 22.8087C44.786 22.8759 45.0982 22.9191 45.5305 22.9384V23.2266C45.0309 23.1977 44.3248 23.1833 43.4122 23.1833C42.4515 23.1833 41.7406 23.1977 41.2795 23.2266V22.9384C41.7118 22.9191 42.024 22.8759 42.2161 22.8087C42.4083 22.7414 42.5428 22.6165 42.6196 22.434C42.6965 22.2515 42.7349 21.9585 42.7349 21.555V13.3556H41.9568C41.3611 13.3556 40.9192 13.4421 40.631 13.615C40.3428 13.7783 40.1411 14.0425 40.0258 14.4075C39.9105 14.763 39.8145 15.3106 39.7376 16.0503H39.4062C39.435 15.7429 39.4494 15.349 39.4494 14.8687C39.4494 14.3211 39.4158 13.7063 39.3485 13.0242C40.1459 13.053 41.5004 13.0674 43.4122 13.0674C45.3143 13.0674 46.6641 13.053 47.4614 13.0242ZM55.6414 22.0161C55.872 22.6117 56.2034 22.9191 56.6357 22.9384V23.2266C56.2514 23.1977 55.7375 23.1833 55.0938 23.1833C54.2676 23.1833 53.6528 23.1977 53.2493 23.2266V22.9384C53.6144 22.9191 53.8738 22.8759 54.0275 22.8087C54.1908 22.7318 54.2724 22.5973 54.2724 22.4052C54.2724 22.2419 54.2148 22.0161 54.0995 21.7279L53.2205 19.3646H49.7332L49.1424 20.8921C48.9503 21.4109 48.8542 21.8048 48.8542 22.0737C48.8542 22.3716 48.9551 22.5877 49.1568 22.7222C49.3682 22.8567 49.6852 22.9288 50.1079 22.9384V23.2266C49.5603 23.1977 49.0079 23.1833 48.4507 23.1833C48.0184 23.1833 47.6582 23.1977 47.37 23.2266V22.9384C47.8503 22.8231 48.2298 22.4052 48.5084 21.6847L51.8948 12.9521H52.1253L55.6414 22.0161ZM53.1052 19.0764L51.4913 14.7678L49.8485 19.0764H53.1052ZM16.1884 31.8372C17.2451 31.9813 17.9992 32.2887 18.4508 32.7594C18.9023 33.2205 19.128 33.7777 19.128 34.431C19.128 34.9786 18.9887 35.4637 18.7101 35.8864C18.4315 36.3091 18.0329 36.6405 17.5141 36.8807C16.9953 37.1113 16.3805 37.2266 15.6696 37.2266C15.4102 37.2266 15.1893 37.2218 15.0067 37.2122C14.3919 37.1929 13.7867 37.1833 13.191 37.1833C12.4033 37.1833 11.8077 37.1977 11.4042 37.2266V36.9384C11.75 36.9191 11.9998 36.8807 12.1535 36.8231C12.3168 36.7654 12.4273 36.655 12.4849 36.4916C12.5426 36.3283 12.5714 36.0641 12.5714 35.6991V28.5516C12.5714 28.1866 12.5426 27.9224 12.4849 27.7591C12.4273 27.5958 12.3168 27.4853 12.1535 27.4277C11.9998 27.37 11.75 27.3316 11.4042 27.3124V27.0242C11.8077 27.053 12.3937 27.0674 13.1622 27.0674L14.7185 27.053C14.9011 27.0434 15.1076 27.0386 15.3382 27.0386C16.318 27.0386 17.0674 27.2451 17.5861 27.6582C18.1145 28.0713 18.3787 28.6189 18.3787 29.301C18.3787 29.8582 18.201 30.3577 17.8455 30.7996C17.4997 31.2415 16.9473 31.5778 16.1884 31.8083V31.8372ZM14.9779 27.3124C14.6801 27.3124 14.4543 27.346 14.3006 27.4132C14.1565 27.4805 14.0557 27.6006 13.998 27.7735C13.9404 27.9464 13.9116 28.2058 13.9116 28.5516V31.8083H14.877C15.6648 31.8083 16.2124 31.597 16.5198 31.1743C16.8368 30.742 16.9953 30.1704 16.9953 29.4595C16.9953 28.739 16.8368 28.201 16.5198 27.8456C16.2028 27.4901 15.6888 27.3124 14.9779 27.3124ZM14.9923 36.8951C16.7888 36.8951 17.687 36.0545 17.687 34.3734C17.687 33.6144 17.4805 33.038 17.0674 32.6441C16.6639 32.2503 16.0154 32.0533 15.122 32.0533H13.9116V35.6991C13.9116 36.0449 13.9404 36.2995 13.998 36.4628C14.0557 36.6261 14.1565 36.7414 14.3006 36.8087C14.4543 36.8663 14.6849 36.8951 14.9923 36.8951ZM24.2241 27.3124C23.8783 27.3316 23.6237 27.37 23.4604 27.4277C23.3067 27.4853 23.201 27.5958 23.1433 27.7591C23.0857 27.9224 23.0569 28.1866 23.0569 28.5516V35.6991C23.0569 36.0641 23.0857 36.3283 23.1433 36.4916C23.201 36.655 23.3067 36.7654 23.4604 36.8231C23.6237 36.8807 23.8783 36.9191 24.2241 36.9384V37.2266C23.7822 37.1977 23.1722 37.1833 22.394 37.1833C21.5678 37.1833 20.953 37.1977 20.5495 37.2266V36.9384C20.8954 36.9191 21.1451 36.8807 21.2988 36.8231C21.4622 36.7654 21.5726 36.655 21.6303 36.4916C21.6879 36.3283 21.7167 36.0641 21.7167 35.6991V28.5516C21.7167 28.1866 21.6879 27.9224 21.6303 27.7591C21.5726 27.5958 21.4622 27.4853 21.2988 27.4277C21.1451 27.37 20.8954 27.3316 20.5495 27.3124V27.0242C20.953 27.053 21.5678 27.0674 22.394 27.0674C23.1625 27.0674 23.7726 27.053 24.2241 27.0242V27.3124ZM30.4824 31.8372C31.5392 31.9813 32.2933 32.2887 32.7448 32.7594C33.1963 33.2205 33.4221 33.7777 33.4221 34.431C33.4221 34.9786 33.2828 35.4637 33.0042 35.8864C32.7256 36.3091 32.3269 36.6405 31.8082 36.8807C31.2894 37.1113 30.6746 37.2266 29.9637 37.2266C29.7043 37.2266 29.4833 37.2218 29.3008 37.2122C28.686 37.1929 28.0807 37.1833 27.4851 37.1833C26.6974 37.1833 26.1017 37.1977 25.6983 37.2266V36.9384C26.0441 36.9191 26.2939 36.8807 26.4476 36.8231C26.6109 36.7654 26.7214 36.655 26.779 36.4916C26.8367 36.3283 26.8655 36.0641 26.8655 35.6991V28.5516C26.8655 28.1866 26.8367 27.9224 26.779 27.7591C26.7214 27.5958 26.6109 27.4853 26.4476 27.4277C26.2939 27.37 26.0441 27.3316 25.6983 27.3124V27.0242C26.1017 27.053 26.6878 27.0674 27.4563 27.0674L29.0126 27.053C29.1951 27.0434 29.4017 27.0386 29.6322 27.0386C30.6121 27.0386 31.3615 27.2451 31.8802 27.6582C32.4086 28.0713 32.6728 28.6189 32.6728 29.301C32.6728 29.8582 32.4951 30.3577 32.1396 30.7996C31.7938 31.2415 31.2414 31.5778 30.4824 31.8083V31.8372ZM29.272 27.3124C28.9742 27.3124 28.7484 27.346 28.5947 27.4132C28.4506 27.4805 28.3497 27.6006 28.2921 27.7735C28.2344 27.9464 28.2056 28.2058 28.2056 28.5516V31.8083H29.1711C29.9589 31.8083 30.5065 31.597 30.8139 31.1743C31.1309 30.742 31.2894 30.1704 31.2894 29.4595C31.2894 28.739 31.1309 28.201 30.8139 27.8456C30.4968 27.4901 29.9829 27.3124 29.272 27.3124ZM29.2864 36.8951C31.0829 36.8951 31.9811 36.0545 31.9811 34.3734C31.9811 33.6144 31.7745 33.038 31.3615 32.6441C30.958 32.2503 30.3095 32.0533 29.4161 32.0533H28.2056V35.6991C28.2056 36.0449 28.2344 36.2995 28.2921 36.4628C28.3497 36.6261 28.4506 36.7414 28.5947 36.8087C28.7484 36.8663 28.979 36.8951 29.2864 36.8951ZM38.5182 27.3124C38.1723 27.3316 37.9177 27.37 37.7544 27.4277C37.6007 27.4853 37.4951 27.5958 37.4374 27.7591C37.3798 27.9224 37.3509 28.1866 37.3509 28.5516V35.6991C37.3509 36.0641 37.3798 36.3283 37.4374 36.4916C37.4951 36.655 37.6007 36.7654 37.7544 36.8231C37.9177 36.8711 38.1723 36.8951 38.5182 36.8951H39.5701C40.1657 36.8951 40.6173 36.8135 40.9247 36.6502C41.2417 36.4772 41.4723 36.2034 41.6164 35.8288C41.7605 35.4541 41.8661 34.9113 41.9334 34.2004H42.2648C42.236 34.4982 42.2216 34.8921 42.2216 35.3821C42.2216 35.9296 42.2552 36.5445 42.3225 37.2266C41.6692 37.1977 40.5692 37.1833 39.0225 37.1833C37.178 37.1833 35.785 37.1977 34.8436 37.2266V36.9384C35.1894 36.9191 35.4392 36.8807 35.5929 36.8231C35.7562 36.7654 35.8667 36.655 35.9243 36.4916C35.982 36.3283 36.0108 36.0641 36.0108 35.6991V28.5516C36.0108 28.1866 35.982 27.9224 35.9243 27.7591C35.8667 27.5958 35.7562 27.4853 35.5929 27.4277C35.4392 27.37 35.1894 27.3316 34.8436 27.3124V27.0242C35.2471 27.053 35.8619 27.0674 36.6881 27.0674C37.4566 27.0674 38.0667 27.053 38.5182 27.0242V27.3124ZM47.2554 27.3124C46.9096 27.3316 46.655 27.37 46.4917 27.4277C46.3379 27.4853 46.2323 27.5958 46.1746 27.7591C46.117 27.9224 46.0882 28.1866 46.0882 28.5516V35.6991C46.0882 36.0641 46.117 36.3283 46.1746 36.4916C46.2323 36.655 46.3379 36.7654 46.4917 36.8231C46.655 36.8807 46.9096 36.9191 47.2554 36.9384V37.2266C46.8135 37.1977 46.2035 37.1833 45.4253 37.1833C44.5991 37.1833 43.9843 37.1977 43.5808 37.2266V36.9384C43.9266 36.9191 44.1764 36.8807 44.3301 36.8231C44.4934 36.7654 44.6039 36.655 44.6616 36.4916C44.7192 36.3283 44.748 36.0641 44.748 35.6991V28.5516C44.748 28.1866 44.7192 27.9224 44.6616 27.7591C44.6039 27.5958 44.4934 27.4853 44.3301 27.4277C44.1764 27.37 43.9266 27.3316 43.5808 27.3124V27.0242C43.9843 27.053 44.5991 27.0674 45.4253 27.0674C46.1938 27.0674 46.8039 27.053 47.2554 27.0242V27.3124ZM56.2949 36.0161C56.5255 36.6117 56.8569 36.9191 57.2892 36.9384V37.2266C56.9049 37.1977 56.391 37.1833 55.7473 37.1833C54.9211 37.1833 54.3063 37.1977 53.9028 37.2266V36.9384C54.2679 36.9191 54.5272 36.8759 54.6809 36.8087C54.8443 36.7318 54.9259 36.5973 54.9259 36.4052C54.9259 36.2419 54.8683 36.0161 54.753 35.7279L53.874 33.3646H50.3867L49.7959 34.8921C49.6038 35.4109 49.5077 35.8048 49.5077 36.0737C49.5077 36.3716 49.6086 36.5877 49.8103 36.7222C50.0217 36.8567 50.3387 36.9288 50.7614 36.9384V37.2266C50.2138 37.1977 49.6614 37.1833 49.1042 37.1833C48.6719 37.1833 48.3117 37.1977 48.0235 37.2266V36.9384C48.5038 36.8231 48.8833 36.4052 49.1619 35.6847L52.5482 26.9521H52.7788L56.2949 36.0161ZM53.7587 33.0764L52.1448 28.7678L50.502 33.0764H53.7587Z" fill="#FEF5EB"/>
<path d="M16.1358 13.0098L16.0604 13.1982L16.0694 13.2013L16.1358 13.0098ZM16.8995 13.3988L16.787 13.5676L16.7906 13.5699L16.8995 13.3988ZM17.5912 13.4565L17.7726 13.5472L17.7757 13.5404L17.5912 13.4565ZM17.7065 12.9665V12.7638H17.5284L17.5054 12.9403L17.7065 12.9665ZM18.0379 12.9665L18.2399 12.9839L18.2589 12.7638H18.0379V12.9665ZM17.9658 15.9062V16.1089H18.1686V15.9062H17.9658ZM17.6344 15.9062L17.4322 15.9212L17.4461 16.1089H17.6344V15.9062ZM16.9571 13.9464L16.7921 14.0643L16.7946 14.0676L16.9571 13.9464ZM14.003 13.615L14.142 13.7626L14.1443 13.7605L14.003 13.615ZM13.7581 15.7621L13.5847 15.8674L13.5875 15.8717L13.7581 15.7621ZM14.4065 16.4538L14.5272 16.2909V16.2909L14.4065 16.4538ZM15.5161 17.1887L15.623 17.0165L15.6229 17.0164L15.5161 17.1887ZM15.934 17.4481L15.8271 17.6203L15.8273 17.6205L15.934 17.4481ZM17.3606 18.4424L17.2308 18.5982L17.2356 18.602L17.3606 18.4424ZM18.2108 19.4079L18.0354 19.5094V19.5094L18.2108 19.4079ZM17.6632 22.7222L17.7915 22.8792L17.793 22.878L17.6632 22.7222ZM14.3345 23.2842L14.2704 23.4765L14.2722 23.4771L14.3345 23.2842ZM13.4987 22.8951L13.3898 23.0662L13.3935 23.0684L13.4987 22.8951ZM12.807 22.8519L12.9885 22.9426L12.9916 22.9358L12.807 22.8519ZM12.6917 23.3274V23.5302H12.8697L12.8928 23.3537L12.6917 23.3274ZM12.3603 23.3274L12.1581 23.3127L12.1423 23.5302H12.3603V23.3274ZM12.4179 19.869V19.6663H12.2152V19.869H12.4179ZM12.7494 19.869L12.9516 19.855L12.9385 19.6663H12.7494V19.869ZM13.4699 22.2323L13.3024 22.3466V22.3466L13.4699 22.2323ZM16.6977 22.6646L16.8307 22.8177L16.8329 22.8157L16.6977 22.6646ZM16.6977 19.8546L16.5507 19.9941L16.5525 19.9961L16.6977 19.8546ZM14.9974 18.5865L14.8918 18.7596L14.8924 18.76L14.9974 18.5865ZM13.614 17.6642L13.4895 17.8243L13.4916 17.8259L13.614 17.6642ZM12.7638 16.6988L12.588 16.7998L12.5891 16.8017L12.7638 16.6988ZM13.2105 13.5141L13.3386 13.6713L13.3403 13.6699L13.2105 13.5141ZM15.1415 13.0684C15.5526 13.0684 15.8546 13.1157 16.0605 13.198L16.211 12.8215C15.9365 12.7117 15.5757 12.6629 15.1415 12.6629V13.0684ZM16.0694 13.2013C16.3003 13.2813 16.5395 13.4025 16.787 13.5675L17.0119 13.2301C16.7407 13.0493 16.4707 12.9112 16.2021 12.8182L16.0694 13.2013ZM16.7906 13.5699C17.0044 13.7059 17.211 13.8033 17.3894 13.8033V13.3978C17.3373 13.3978 17.2173 13.3607 17.0083 13.2278L16.7906 13.5699ZM17.3894 13.8033C17.5727 13.8033 17.7001 13.6919 17.7725 13.5471L17.4098 13.3658C17.4032 13.3791 17.3974 13.3876 17.3932 13.3929C17.3912 13.3954 17.3896 13.3971 17.3885 13.3981C17.3875 13.3992 17.3869 13.3996 17.3869 13.3996C17.3869 13.3996 17.3872 13.3993 17.3879 13.399C17.3886 13.3986 17.3894 13.3983 17.3902 13.3981C17.392 13.3975 17.3921 13.3978 17.3894 13.3978V13.8033ZM17.7757 13.5404C17.8366 13.4065 17.878 13.2189 17.9075 12.9928L17.5054 12.9403C17.4773 13.1561 17.4418 13.2951 17.4066 13.3726L17.7757 13.5404ZM17.7065 13.1693H18.0379V12.7638H17.7065V13.1693ZM17.8359 12.9491C17.787 13.516 17.7631 14.5039 17.7631 15.9062H18.1686C18.1686 14.5033 18.1927 13.5314 18.2399 12.9839L17.8359 12.9491ZM17.9658 15.7035H17.6344V16.1089H17.9658V15.7035ZM17.8366 15.8912C17.7766 15.0818 17.5405 14.3898 17.1197 13.8253L16.7946 14.0676C17.1615 14.5598 17.3769 15.1743 17.4322 15.9212L17.8366 15.8912ZM17.1221 13.8286C16.6948 13.2304 16.0673 12.9367 15.2711 12.9367V13.3422C15.9544 13.3422 16.4509 13.5865 16.7922 14.0643L17.1221 13.8286ZM15.2711 12.9367C14.7076 12.9367 14.2317 13.1106 13.8618 13.4695L14.1443 13.7605C14.4277 13.4854 14.7971 13.3422 15.2711 13.3422V12.9367ZM13.8641 13.4674C13.4928 13.8168 13.3104 14.2709 13.3104 14.811H13.7158C13.7158 14.3713 13.8601 14.028 14.142 13.7626L13.8641 13.4674ZM13.3104 14.811C13.3104 15.2072 13.3993 15.5618 13.5848 15.8673L13.9314 15.6569C13.7902 15.4244 13.7158 15.145 13.7158 14.811H13.3104ZM13.5875 15.8717C13.7738 16.1616 14.007 16.4101 14.2859 16.6167L14.5272 16.2909C14.2873 16.1132 14.0881 15.9006 13.9286 15.6525L13.5875 15.8717ZM14.2859 16.6167C14.5518 16.8137 14.9272 17.0621 15.4093 17.361L15.6229 17.0164C15.1444 16.7197 14.78 16.4781 14.5272 16.2909L14.2859 16.6167ZM15.4092 17.361L15.8271 17.6203L16.0409 17.2758L15.623 17.0165L15.4092 17.361ZM15.8273 17.6205C16.4285 17.9926 16.8952 18.3184 17.2308 18.5981L17.4904 18.2866C17.1343 17.9899 16.65 17.6529 16.0407 17.2757L15.8273 17.6205ZM17.2356 18.602C17.5721 18.8657 17.8379 19.1683 18.0354 19.5094L18.3863 19.3063C18.1611 18.9173 17.86 18.5762 17.4857 18.2828L17.2356 18.602ZM18.0354 19.5094C18.2261 19.839 18.3251 20.2303 18.3251 20.6904H18.7306C18.7306 20.1706 18.6182 19.7069 18.3863 19.3063L18.0354 19.5094ZM18.3251 20.6904C18.3251 21.5155 18.0557 22.1312 17.5334 22.5665L17.793 22.878C18.4235 22.3525 18.7306 21.6137 18.7306 20.6904H18.3251ZM17.535 22.5652C17.0013 23.001 16.3191 23.2256 15.4729 23.2256V23.631C16.3943 23.631 17.1724 23.3848 17.7915 22.8792L17.535 22.5652ZM15.4729 23.2256C15.0239 23.2256 14.6673 23.1786 14.3967 23.0913L14.2722 23.4771C14.5973 23.582 14.9997 23.631 15.4729 23.631V23.2256ZM14.3986 23.0919C14.1253 23.0008 13.8604 22.8776 13.6039 22.7218L13.3935 23.0684C13.675 23.2393 13.9673 23.3755 14.2704 23.4765L14.3986 23.0919ZM13.6075 22.7241C13.3938 22.5881 13.1872 22.4907 13.0087 22.4907V22.8961C13.0609 22.8961 13.1809 22.9332 13.3898 23.0662L13.6075 22.7241ZM13.0087 22.4907C12.8148 22.4907 12.69 22.6194 12.6224 22.768L12.9916 22.9358C13.0067 22.9025 13.0181 22.8929 13.0187 22.8924C13.0188 22.8924 13.0183 22.8927 13.0173 22.8933C13.0162 22.8939 13.0149 22.8945 13.0134 22.895C13.0101 22.8962 13.0081 22.8961 13.0087 22.8961V22.4907ZM12.6257 22.7612C12.5616 22.8894 12.52 23.0766 12.4907 23.3012L12.8928 23.3537C12.9211 23.1364 12.9564 23.0065 12.9883 22.9426L12.6257 22.7612ZM12.6917 23.1247H12.3603V23.5302H12.6917V23.1247ZM12.5625 23.3421C12.6016 22.805 12.6207 21.6444 12.6207 19.869H12.2152C12.2152 21.6481 12.1959 22.7931 12.1581 23.3127L12.5625 23.3421ZM12.4179 20.0717H12.7494V19.6663H12.4179V20.0717ZM12.5471 19.883C12.6161 20.8778 12.8634 21.7034 13.3024 22.3466L13.6373 22.118C13.2501 21.5507 13.0172 20.8007 12.9516 19.855L12.5471 19.883ZM13.3024 22.3466C13.76 23.017 14.4629 23.3428 15.372 23.3428V22.9374C14.5711 22.9374 14.0059 22.658 13.6373 22.118L13.3024 22.3466ZM15.372 23.3428C15.9358 23.3428 16.4259 23.1691 16.8307 22.8176L16.5648 22.5115C16.2395 22.794 15.8458 22.9374 15.372 22.9374V23.3428ZM16.8329 22.8157C17.2528 22.44 17.4481 21.8972 17.4481 21.2236H17.0426C17.0426 21.818 16.8728 22.2359 16.5626 22.5135L16.8329 22.8157ZM17.4481 21.2236C17.4481 20.6344 17.2461 20.1268 16.843 19.7131L16.5525 19.9961C16.8796 20.3317 17.0426 20.7368 17.0426 21.2236H17.4481ZM16.8448 19.715C16.4709 19.3209 15.8861 18.8872 15.1023 18.413L14.8924 18.76C15.6649 19.2273 16.2137 19.6389 16.5507 19.9941L16.8448 19.715ZM15.1029 18.4134C14.5394 18.0696 14.0845 17.766 13.7363 17.5026L13.4916 17.8259C13.8544 18.1004 14.3217 18.4117 14.8918 18.7596L15.1029 18.4134ZM13.7384 17.5042C13.4126 17.2508 13.1463 16.9483 12.9384 16.5958L12.5891 16.8017C12.8232 17.1986 13.1236 17.5397 13.4895 17.8243L13.7384 17.5042ZM12.9395 16.5977C12.7387 16.2485 12.6351 15.8377 12.6351 15.3586H12.2296C12.2296 15.8979 12.3469 16.3805 12.588 16.7998L12.9395 16.5977ZM12.6351 15.3586C12.6351 14.5987 12.8768 14.0475 13.3386 13.6713L13.0824 13.3569C12.5066 13.8261 12.2296 14.5046 12.2296 15.3586H12.6351ZM13.3403 13.6699C13.8176 13.2721 14.4134 13.0684 15.1415 13.0684V12.6629C14.3324 12.6629 13.6409 12.8915 13.0807 13.3584L13.3403 13.6699ZM27.6003 22.0161L27.7894 21.9429L27.7893 21.9428L27.6003 22.0161ZM28.5946 22.9384H28.7974V22.7444L28.6036 22.7358L28.5946 22.9384ZM28.5946 23.2266L28.5795 23.4287L28.7974 23.4451V23.2266H28.5946ZM25.2082 23.2266H25.0055V23.4443L25.2227 23.4288L25.2082 23.2266ZM25.2082 22.9384L25.1976 22.7359L25.0055 22.746V22.9384H25.2082ZM25.9864 22.8087L26.0677 22.9945L26.0727 22.9921L25.9864 22.8087ZM26.0584 21.7279L25.8684 21.7986L25.8702 21.8032L26.0584 21.7279ZM25.1794 19.3646L25.3694 19.294L25.3203 19.1619H25.1794V19.3646ZM21.6922 19.3646V19.1619H21.5532L21.5031 19.2915L21.6922 19.3646ZM21.1013 20.8921L20.9122 20.819L20.9112 20.8217L21.1013 20.8921ZM21.1158 22.7222L21.0033 22.8909L21.0069 22.8932L21.1158 22.7222ZM22.0668 22.9384H22.2696V22.7402L22.0714 22.7357L22.0668 22.9384ZM22.0668 23.2266L22.0562 23.429L22.2696 23.4403V23.2266H22.0668ZM19.3289 23.2266H19.1262V23.4506L19.3491 23.4283L19.3289 23.2266ZM19.3289 22.9384L19.2816 22.7412L19.1262 22.7785V22.9384H19.3289ZM20.4673 21.6847L20.2783 21.6114L20.2782 21.6116L20.4673 21.6847ZM23.8537 12.9521V12.7494H23.7149L23.6647 12.8788L23.8537 12.9521ZM24.0842 12.9521L24.2733 12.8788L24.2231 12.7494H24.0842V12.9521ZM25.0641 19.0764V19.2792H25.3566L25.254 19.0053L25.0641 19.0764ZM23.4502 14.7678L23.64 14.6967L23.4519 14.1943L23.2608 14.6956L23.4502 14.7678ZM21.8074 19.0764L21.618 19.0042L21.5132 19.2792H21.8074V19.0764ZM27.4113 22.0893C27.655 22.7188 28.0366 23.1165 28.5856 23.1409L28.6036 22.7358C28.288 22.7218 28.0068 22.5046 27.7894 21.9429L27.4113 22.0893ZM28.3919 22.9384V23.2266H28.7974V22.9384H28.3919ZM28.6098 23.0244C28.2183 22.995 27.6986 22.9806 27.0527 22.9806V23.3861C27.6942 23.3861 28.2025 23.4005 28.5795 23.4287L28.6098 23.0244ZM27.0527 22.9806C26.2256 22.9806 25.6048 22.995 25.1938 23.0243L25.2227 23.4288C25.6186 23.4005 26.2275 23.3861 27.0527 23.3861V22.9806ZM25.411 23.2266V22.9384H25.0055V23.2266H25.411ZM25.2189 23.1408C25.5864 23.1215 25.8778 23.0775 26.0676 22.9944L25.9051 22.6229C25.7876 22.6744 25.5602 22.7168 25.1976 22.7359L25.2189 23.1408ZM26.0727 22.9921C26.185 22.9393 26.279 22.8615 26.3434 22.7554C26.4074 22.6501 26.4341 22.5302 26.4341 22.4052H26.0286C26.0286 22.4724 26.0145 22.5158 25.9968 22.5449C25.9796 22.5733 25.9511 22.6012 25.9001 22.6252L26.0727 22.9921ZM26.4341 22.4052C26.4341 22.2022 26.3645 21.9471 26.2467 21.6526L25.8702 21.8032C25.9829 22.0851 26.0286 22.2815 26.0286 22.4052H26.4341ZM26.2485 21.6572L25.3694 19.294L24.9894 19.4353L25.8684 21.7986L26.2485 21.6572ZM25.1794 19.1619H21.6922V19.5674H25.1794V19.1619ZM21.5031 19.2915L20.9123 20.819L21.2904 20.9653L21.8812 19.4378L21.5031 19.2915ZM20.9112 20.8217C20.7177 21.3443 20.6104 21.7667 20.6104 22.0737H21.0159C21.0159 21.8428 21.1008 21.4774 21.2915 20.9625L20.9112 20.8217ZM20.6104 22.0737C20.6104 22.4217 20.7319 22.71 21.0033 22.8909L21.2282 22.5535C21.0961 22.4655 21.0159 22.3214 21.0159 22.0737H20.6104ZM21.0069 22.8932C21.2642 23.057 21.6251 23.1311 22.0622 23.141L22.0714 22.7357C21.6632 22.7264 21.39 22.6564 21.2246 22.5512L21.0069 22.8932ZM21.8641 22.9384V23.2266H22.2696V22.9384H21.8641ZM22.0775 23.0241C21.5263 22.9951 20.9703 22.9806 20.4097 22.9806V23.3861C20.9633 23.3861 21.5122 23.4004 22.0562 23.429L22.0775 23.0241ZM20.4097 22.9806C19.9735 22.9806 19.606 22.9951 19.3087 23.0248L19.3491 23.4283C19.6282 23.4004 19.9812 23.3861 20.4097 23.3861V22.9806ZM19.5316 23.2266V22.9384H19.1262V23.2266H19.5316ZM19.3762 23.1355C19.9516 22.9974 20.3678 22.5042 20.6564 21.7578L20.2782 21.6116C20.0096 22.3062 19.6669 22.6488 19.2816 22.7412L19.3762 23.1355ZM20.6563 21.758L24.0427 13.0254L23.6647 12.8788L20.2783 21.6114L20.6563 21.758ZM23.8537 13.1549H24.0842V12.7494H23.8537V13.1549ZM23.8952 13.0254L27.4113 22.0894L27.7893 21.9428L24.2733 12.8788L23.8952 13.0254ZM25.254 19.0053L23.64 14.6967L23.2603 14.8389L24.8743 19.1476L25.254 19.0053ZM23.2608 14.6956L21.618 19.0042L21.9969 19.1487L23.6396 14.84L23.2608 14.6956ZM21.8074 19.2792H25.0641V18.8737H21.8074V19.2792ZM38.1455 13.3124L38.157 13.5148L38.3482 13.5039V13.3124H38.1455ZM37.3961 13.4709L37.4825 13.6545L37.491 13.6501L37.3961 13.4709ZM37.0647 13.8744L37.258 13.9354L37.2589 13.9326L37.0647 13.8744ZM36.9782 23.2986V23.5014H37.181V23.2986H36.9782ZM36.6468 23.2986L36.4766 23.4088L36.5365 23.5014H36.6468V23.2986ZM30.5945 13.9464L30.7647 13.8363L30.3918 13.26V13.9464H30.5945ZM30.681 22.3908L30.4875 22.4519L30.4908 22.4609L30.681 22.3908ZM31.0557 22.7943L30.9688 22.9777L30.977 22.9811L31.0557 22.7943ZM31.9059 22.9384H32.1086V22.7455L31.916 22.7359L31.9059 22.9384ZM31.9059 23.2266L31.889 23.4286L32.1086 23.4469V23.2266H31.9059ZM29.0959 23.2266H28.8931V23.4486L29.1142 23.4285L29.0959 23.2266ZM29.0959 22.9384L29.0843 22.736L28.8931 22.7469V22.9384H29.0959ZM29.8452 22.7943L29.9316 22.9779L29.9401 22.9734L29.8452 22.7943ZM30.1766 22.3908L30.37 22.4518L30.3708 22.449L30.1766 22.3908ZM30.1766 13.7591L29.9855 13.8266V13.8266L30.1766 13.7591ZM29.8452 13.4277L29.774 13.6175L29.7777 13.6188L29.8452 13.4277ZM29.0959 13.3124H28.8931V13.5042L29.0846 13.5148L29.0959 13.3124ZM29.0959 13.0242L29.1142 12.8223L28.8931 12.8022V13.0242H29.0959ZM31.56 13.0242L31.7301 12.9138L31.6635 12.8112L31.5417 12.8223L31.56 13.0242ZM36.6468 20.8633L36.4767 20.9737L36.8495 21.5482V20.8633H36.6468ZM36.5459 13.86L36.3524 13.9211L36.3557 13.93L36.5459 13.86ZM36.1857 13.4709L36.0988 13.6543L36.107 13.6577L36.1857 13.4709ZM35.3355 13.3124H35.1327V13.5052L35.3253 13.5149L35.3355 13.3124ZM35.3355 13.0242L35.3523 12.8221L35.1327 12.8038V13.0242H35.3355ZM38.1455 13.0242H38.3482V12.8022L38.1271 12.8223L38.1455 13.0242ZM38.1339 13.11C37.7886 13.1297 37.5036 13.1846 37.3013 13.2917L37.491 13.6501C37.6153 13.5843 37.8298 13.5335 38.157 13.5148L38.1339 13.11ZM37.3098 13.2874C37.0882 13.3917 36.9426 13.5757 36.8705 13.8161L37.2589 13.9326C37.302 13.7888 37.3774 13.7038 37.4825 13.6543L37.3098 13.2874ZM36.8714 13.8133C36.8041 14.0262 36.7755 14.3252 36.7755 14.6957H37.181C37.181 14.3362 37.21 14.0876 37.258 13.9354L36.8714 13.8133ZM36.7755 14.6957V23.2986H37.181V14.6957H36.7755ZM36.9782 23.0959H36.6468V23.5014H36.9782V23.0959ZM36.817 23.1885L30.7647 13.8363L30.4243 14.0566L36.4766 23.4088L36.817 23.1885ZM30.3918 13.9464V21.555H30.7973V13.9464H30.3918ZM30.3918 21.555C30.3918 21.9345 30.4203 22.2386 30.4877 22.4518L30.8743 22.3297C30.8264 22.1778 30.7973 21.9248 30.7973 21.555H30.3918ZM30.4908 22.4609C30.5771 22.6953 30.7404 22.8693 30.9689 22.9775L31.1424 22.611C31.0058 22.5463 30.9194 22.4513 30.8712 22.3207L30.4908 22.4609ZM30.977 22.9811C31.1932 23.0722 31.5058 23.1213 31.8957 23.1408L31.916 22.7359C31.5374 22.7169 31.2831 22.6701 31.1343 22.6074L30.977 22.9811ZM31.7031 22.9384V23.2266H32.1086V22.9384H31.7031ZM31.9227 23.0245C31.5684 22.995 31.0719 22.9806 30.436 22.9806V23.3861C31.0682 23.3861 31.5516 23.4005 31.889 23.4286L31.9227 23.0245ZM30.436 22.9806C29.8575 22.9806 29.4037 22.995 29.0775 23.0247L29.1142 23.4285C29.4221 23.4005 29.8617 23.3861 30.436 23.3861V22.9806ZM29.2986 23.2266V22.9384H28.8931V23.2266H29.2986ZM29.1074 23.1408C29.4511 23.1211 29.7324 23.0714 29.9315 22.9777L29.7589 22.6108C29.6314 22.6708 29.4131 22.7172 29.0843 22.736L29.1074 23.1408ZM29.9401 22.9734C30.1523 22.8611 30.2969 22.6831 30.37 22.4518L29.9833 22.3297C29.9411 22.4635 29.8647 22.5545 29.7503 22.6151L29.9401 22.9734ZM30.3708 22.449C30.437 22.2285 30.4658 21.9264 30.4658 21.555H30.0604C30.0604 21.9137 30.0316 22.1688 29.9825 22.3325L30.3708 22.449ZM30.4658 21.555V14.5516H30.0604V21.555H30.4658ZM30.4658 14.5516C30.4658 14.1833 30.4377 13.8896 30.3678 13.6916L29.9855 13.8266C30.0309 13.9553 30.0604 14.1899 30.0604 14.5516H30.4658ZM30.3678 13.6916C30.2898 13.4705 30.1338 13.3145 29.9127 13.2365L29.7777 13.6188C29.8832 13.6561 29.9482 13.7211 29.9855 13.8266L30.3678 13.6916ZM29.9164 13.2378C29.732 13.1687 29.4559 13.1293 29.1071 13.1099L29.0846 13.5148C29.4275 13.5338 29.651 13.5714 29.774 13.6175L29.9164 13.2378ZM29.2986 13.3124V13.0242H28.8931V13.3124H29.2986ZM29.0775 13.2261C29.4037 13.2557 29.8575 13.2701 30.436 13.2701V12.8647C29.8617 12.8647 29.4221 12.8503 29.1142 12.8223L29.0775 13.2261ZM30.436 13.2701C30.8724 13.2701 31.2535 13.2556 31.5784 13.2261L31.5417 12.8223C31.2325 12.8504 30.8642 12.8647 30.436 12.8647V13.2701ZM31.3899 13.1345L36.4767 20.9737L36.8169 20.7529L31.7301 12.9138L31.3899 13.1345ZM36.8495 20.8633V14.6957H36.4441V20.8633H36.8495ZM36.8495 14.6957C36.8495 14.3151 36.8162 14.0071 36.7362 13.7899L36.3557 13.93C36.4102 14.0779 36.4441 14.3271 36.4441 14.6957H36.8495ZM36.7393 13.7989C36.663 13.5574 36.4995 13.3831 36.2643 13.284L36.107 13.6577C36.2369 13.7124 36.3136 13.7974 36.3526 13.921L36.7393 13.7989ZM36.2725 13.2877C36.0529 13.1837 35.7368 13.1294 35.3456 13.1099L35.3253 13.5149C35.7027 13.5337 35.9534 13.5852 36.0989 13.6541L36.2725 13.2877ZM35.5382 13.3124V13.0242H35.1327V13.3124H35.5382ZM35.3186 13.2262C35.6729 13.2557 36.1694 13.2701 36.8053 13.2701V12.8647C36.1731 12.8647 35.6898 12.8503 35.3523 12.8221L35.3186 13.2262ZM36.8053 13.2701C37.3838 13.2701 37.8377 13.2557 38.1638 13.2261L38.1271 12.8223C37.8192 12.8503 37.3796 12.8647 36.8053 12.8647V13.2701ZM37.9427 13.0242V13.3124H38.3482V13.0242H37.9427ZM47.4614 13.0242L47.6632 13.0441L47.686 12.8132L47.4541 12.8216L47.4614 13.0242ZM47.4038 16.0503V16.253H47.6264L47.6057 16.0314L47.4038 16.0503ZM47.0724 16.0503L46.8707 16.0713L46.8896 16.253H47.0724V16.0503ZM46.7842 14.4075L46.5908 14.4686L46.5913 14.4701L46.7842 14.4075ZM46.1789 13.615L46.0746 13.7889L46.079 13.7914L46.1789 13.615ZM44.0751 13.3556V13.1529H43.8723V13.3556H44.0751ZM44.1903 22.434L44.0035 22.5127V22.5127L44.1903 22.434ZM44.5938 22.8087L44.5268 23V23L44.5938 22.8087ZM45.5305 22.9384H45.7332V22.7444L45.5395 22.7358L45.5305 22.9384ZM45.5305 23.2266L45.5188 23.429L45.7332 23.4413V23.2266H45.5305ZM41.2795 23.2266H41.0768V23.4424L41.2921 23.4289L41.2795 23.2266ZM41.2795 22.9384L41.2705 22.7358L41.0768 22.7444V22.9384H41.2795ZM42.2161 22.8087L42.2831 23V23L42.2161 22.8087ZM42.6196 22.434L42.8065 22.5127V22.5127L42.6196 22.434ZM42.7349 13.3556H42.9376V13.1529H42.7349V13.3556ZM40.631 13.615L40.731 13.7914L40.7353 13.7888L40.631 13.615ZM40.0258 14.4075L40.2187 14.4701L40.2191 14.4686L40.0258 14.4075ZM39.7376 16.0503V16.253H39.9204L39.9393 16.0713L39.7376 16.0503ZM39.4062 16.0503L39.2043 16.0314L39.1835 16.253H39.4062V16.0503ZM39.3485 13.0242L39.3558 12.8216L39.124 12.8132L39.1468 13.0441L39.3485 13.0242ZM47.2597 13.0043C47.1919 13.6914 47.1578 14.313 47.1578 14.8687H47.5633C47.5633 14.3291 47.5965 13.7211 47.6632 13.0441L47.2597 13.0043ZM47.1578 14.8687C47.1578 15.3523 47.1723 15.7531 47.202 16.0692L47.6057 16.0314C47.5777 15.7327 47.5633 15.3457 47.5633 14.8687H47.1578ZM47.4038 15.8476H47.0724V16.253H47.4038V15.8476ZM47.274 16.0294C47.1968 15.2865 47.0991 14.7215 46.977 14.345L46.5913 14.4701C46.6998 14.8045 46.7942 15.3347 46.8707 16.0713L47.274 16.0294ZM46.9775 14.3465C46.8494 13.9407 46.6186 13.6311 46.2789 13.4386L46.079 13.7914C46.3157 13.9255 46.4884 14.1443 46.5908 14.4686L46.9775 14.3465ZM46.2832 13.4411C45.9476 13.2398 45.461 13.1529 44.8532 13.1529V13.5583C45.4367 13.5583 45.8339 13.6444 46.0746 13.7888L46.2832 13.4411ZM44.8532 13.1529H44.0751V13.5583H44.8532V13.1529ZM43.8723 13.3556V21.555H44.2778V13.3556H43.8723ZM43.8723 21.555C43.8723 21.9633 43.91 22.2907 44.0035 22.5127L44.3772 22.3553C44.3169 22.2122 44.2778 21.9537 44.2778 21.555H43.8723ZM44.0035 22.5127C44.1033 22.7497 44.2823 22.9144 44.5268 23L44.6608 22.6173C44.521 22.5684 44.4311 22.4834 44.3772 22.3553L44.0035 22.5127ZM44.5268 23C44.7489 23.0777 45.0865 23.1216 45.5215 23.1409L45.5395 22.7358C45.1099 22.7167 44.8231 22.6741 44.6608 22.6173L44.5268 23ZM45.3277 22.9384V23.2266H45.7332V22.9384H45.3277ZM45.5422 23.0242C45.0368 22.995 44.3261 22.9806 43.4122 22.9806V23.3861C44.3235 23.3861 45.0251 23.4005 45.5188 23.429L45.5422 23.0242ZM43.4122 22.9806C42.4508 22.9806 41.7346 22.995 41.2668 23.0242L41.2921 23.4289C41.7466 23.4005 42.4523 23.3861 43.4122 23.3861V22.9806ZM41.4822 23.2266V22.9384H41.0768V23.2266H41.4822ZM41.2885 23.1409C41.7235 23.1216 42.0611 23.0777 42.2831 23L42.1492 22.6173C41.9869 22.6741 41.7001 22.7167 41.2705 22.7358L41.2885 23.1409ZM42.2831 23C42.5276 22.9144 42.7067 22.7497 42.8065 22.5127L42.4328 22.3553C42.3789 22.4834 42.2889 22.5684 42.1492 22.6173L42.2831 23ZM42.8065 22.5127C42.8999 22.2907 42.9376 21.9633 42.9376 21.555H42.5322C42.5322 21.9537 42.493 22.2122 42.4328 22.3553L42.8065 22.5127ZM42.9376 21.555V13.3556H42.5322V21.555H42.9376ZM42.7349 13.1529H41.9568V13.5583H42.7349V13.1529ZM41.9568 13.1529C41.349 13.1529 40.8624 13.2398 40.5267 13.4411L40.7353 13.7888C40.9761 13.6444 41.3733 13.5583 41.9568 13.5583V13.1529ZM40.5311 13.4386C40.1914 13.6311 39.9606 13.9407 39.8325 14.3465L40.2191 14.4686C40.3216 14.1443 40.4943 13.9255 40.731 13.7914L40.5311 13.4386ZM39.833 14.345C39.7108 14.7215 39.6131 15.2865 39.5359 16.0294L39.9393 16.0713C40.0158 15.3347 40.1102 14.8045 40.2187 14.4701L39.833 14.345ZM39.7376 15.8476H39.4062V16.253H39.7376V15.8476ZM39.608 16.0692C39.6377 15.7531 39.6521 15.3523 39.6521 14.8687H39.2467C39.2467 15.3457 39.2323 15.7327 39.2043 16.0314L39.608 16.0692ZM39.6521 14.8687C39.6521 14.313 39.618 13.6914 39.5503 13.0043L39.1468 13.0441C39.2135 13.7211 39.2467 14.3291 39.2467 14.8687H39.6521ZM39.3412 13.2268C40.1426 13.2557 41.5004 13.2701 43.4122 13.2701V12.8647C41.5005 12.8647 40.1492 12.8502 39.3558 12.8216L39.3412 13.2268ZM43.4122 13.2701C45.3144 13.2701 46.6674 13.2557 47.4688 13.2268L47.4541 12.8216C46.6608 12.8502 45.3143 12.8647 43.4122 12.8647V13.2701ZM55.6414 22.0161L55.8305 21.9429L55.8304 21.9428L55.6414 22.0161ZM56.6357 22.9384H56.8384V22.7444L56.6447 22.7358L56.6357 22.9384ZM56.6357 23.2266L56.6205 23.4287L56.8384 23.4451V23.2266H56.6357ZM53.2493 23.2266H53.0466V23.4443L53.2638 23.4288L53.2493 23.2266ZM53.2493 22.9384L53.2387 22.7359L53.0466 22.746V22.9384H53.2493ZM54.0275 22.8087L54.1088 22.9945L54.1138 22.9921L54.0275 22.8087ZM54.0995 21.7279L53.9094 21.7986L53.9113 21.8032L54.0995 21.7279ZM53.2205 19.3646L53.4105 19.294L53.3614 19.1619H53.2205V19.3646ZM49.7332 19.3646V19.1619H49.5943L49.5442 19.2915L49.7332 19.3646ZM49.1424 20.8921L48.9533 20.819L48.9523 20.8217L49.1424 20.8921ZM49.1568 22.7222L49.0443 22.8909L49.048 22.8932L49.1568 22.7222ZM50.1079 22.9384H50.3106V22.7402L50.1125 22.7357L50.1079 22.9384ZM50.1079 23.2266L50.0972 23.429L50.3106 23.4403V23.2266H50.1079ZM47.37 23.2266H47.1672V23.4506L47.3901 23.4283L47.37 23.2266ZM47.37 22.9384L47.3227 22.7412L47.1672 22.7785V22.9384H47.37ZM48.5084 21.6847L48.3194 21.6114L48.3193 21.6116L48.5084 21.6847ZM51.8948 12.9521V12.7494H51.7559L51.7057 12.8788L51.8948 12.9521ZM52.1253 12.9521L52.3143 12.8788L52.2641 12.7494H52.1253V12.9521ZM53.1052 19.0764V19.2792H53.3976L53.2951 19.0053L53.1052 19.0764ZM51.4913 14.7678L51.6811 14.6967L51.493 14.1943L51.3018 14.6956L51.4913 14.7678ZM49.8485 19.0764L49.6591 19.0042L49.5542 19.2792H49.8485V19.0764ZM55.4523 22.0893C55.696 22.7188 56.0777 23.1165 56.6267 23.1409L56.6447 22.7358C56.3291 22.7218 56.0479 22.5046 55.8305 21.9429L55.4523 22.0893ZM56.433 22.9384V23.2266H56.8384V22.9384H56.433ZM56.6509 23.0244C56.2593 22.995 55.7397 22.9806 55.0938 22.9806V23.3861C55.7353 23.3861 56.2435 23.4005 56.6205 23.4287L56.6509 23.0244ZM55.0938 22.9806C54.2667 22.9806 53.6459 22.995 53.2349 23.0243L53.2638 23.4288C53.6597 23.4005 54.2686 23.3861 55.0938 23.3861V22.9806ZM53.452 23.2266V22.9384H53.0466V23.2266H53.452ZM53.26 23.1408C53.6275 23.1215 53.9189 23.0775 54.1087 22.9944L53.9462 22.6229C53.8286 22.6744 53.6012 22.7168 53.2387 22.7359L53.26 23.1408ZM54.1138 22.9921C54.226 22.9393 54.3201 22.8615 54.3845 22.7554C54.4484 22.6501 54.4752 22.5302 54.4752 22.4052H54.0697C54.0697 22.4724 54.0556 22.5158 54.0379 22.5449C54.0207 22.5733 53.9922 22.6012 53.9411 22.6252L54.1138 22.9921ZM54.4752 22.4052C54.4752 22.2022 54.4056 21.9471 54.2878 21.6526L53.9113 21.8032C54.024 22.0851 54.0697 22.2815 54.0697 22.4052H54.4752ZM54.2895 21.6572L53.4105 19.294L53.0305 19.4353L53.9095 21.7986L54.2895 21.6572ZM53.2205 19.1619H49.7332V19.5674H53.2205V19.1619ZM49.5442 19.2915L48.9533 20.819L49.3315 20.9653L49.9223 19.4378L49.5442 19.2915ZM48.9523 20.8217C48.7587 21.3443 48.6515 21.7667 48.6515 22.0737H49.057C49.057 21.8428 49.1418 21.4774 49.3325 20.9625L48.9523 20.8217ZM48.6515 22.0737C48.6515 22.4217 48.773 22.71 49.0444 22.8909L49.2693 22.5535C49.1372 22.4655 49.057 22.3214 49.057 22.0737H48.6515ZM49.048 22.8932C49.3052 23.057 49.6661 23.1311 50.1033 23.141L50.1125 22.7357C49.7043 22.7264 49.4311 22.6564 49.2657 22.5512L49.048 22.8932ZM49.9052 22.9384V23.2266H50.3106V22.9384H49.9052ZM50.1186 23.0241C49.5674 22.9951 49.0114 22.9806 48.4507 22.9806V23.3861C49.0044 23.3861 49.5533 23.4004 50.0972 23.429L50.1186 23.0241ZM48.4507 22.9806C48.0146 22.9806 47.6471 22.9951 47.3498 23.0248L47.3901 23.4283C47.6693 23.4004 48.0222 23.3861 48.4507 23.3861V22.9806ZM47.5727 23.2266V22.9384H47.1672V23.2266H47.5727ZM47.4173 23.1355C47.9927 22.9974 48.4088 22.5042 48.6975 21.7578L48.3193 21.6116C48.0507 22.3062 47.7079 22.6488 47.3227 22.7412L47.4173 23.1355ZM48.6974 21.758L52.0838 13.0254L51.7057 12.8788L48.3194 21.6114L48.6974 21.758ZM51.8948 13.1549H52.1253V12.7494H51.8948V13.1549ZM51.9363 13.0254L55.4524 22.0894L55.8304 21.9428L52.3143 12.8788L51.9363 13.0254ZM53.2951 19.0053L51.6811 14.6967L51.3014 14.8389L52.9154 19.1476L53.2951 19.0053ZM51.3018 14.6956L49.6591 19.0042L50.038 19.1487L51.6807 14.84L51.3018 14.6956ZM49.8485 19.2792H53.1052V18.8737H49.8485V19.2792ZM16.1884 31.8372H15.9856V32.0141L16.161 32.038L16.1884 31.8372ZM18.4508 32.7594L18.3044 32.8998L18.3059 32.9013L18.4508 32.7594ZM18.7101 35.8864L18.8794 35.998V35.998L18.7101 35.8864ZM17.5141 36.8807L17.5964 37.066L17.5993 37.0647L17.5141 36.8807ZM15.0067 37.2122L15.0174 37.0096L15.0131 37.0095L15.0067 37.2122ZM11.4042 37.2266H11.2014V37.4443L11.4186 37.4288L11.4042 37.2266ZM11.4042 36.9384L11.3929 36.7359L11.2014 36.7466V36.9384H11.4042ZM12.1535 36.8231L12.086 36.6319L12.0823 36.6332L12.1535 36.8231ZM12.4849 27.7591L12.2938 27.8266V27.8266L12.4849 27.7591ZM12.1535 27.4277L12.0823 27.6175L12.086 27.6188L12.1535 27.4277ZM11.4042 27.3124H11.2014V27.5042L11.3929 27.5148L11.4042 27.3124ZM11.4042 27.0242L11.4186 26.822L11.2014 26.8064V27.0242H11.4042ZM13.1622 27.0674V27.2701L13.1641 27.2701L13.1622 27.0674ZM14.7185 27.053L14.7204 27.2559L14.7292 27.2554L14.7185 27.053ZM17.5861 27.6582L17.4598 27.8168L17.4613 27.8179L17.5861 27.6582ZM17.8455 30.7996L17.6875 30.6726L17.6859 30.6747L17.8455 30.7996ZM16.1884 31.8083L16.1294 31.6144L15.9856 31.658V31.8083H16.1884ZM14.3006 27.4132L14.2193 27.2275L14.2149 27.2295L14.3006 27.4132ZM13.998 27.7735L14.1903 27.8376V27.8376L13.998 27.7735ZM13.9116 31.8083H13.7088V32.0111H13.9116V31.8083ZM16.5198 31.1743L16.3563 31.0544L16.3558 31.0551L16.5198 31.1743ZM17.0674 32.6441L16.9257 32.7892L16.9275 32.7909L17.0674 32.6441ZM13.9116 32.0533V31.8506H13.7088V32.0533H13.9116ZM13.998 36.4628L14.1892 36.3953V36.3953L13.998 36.4628ZM14.3006 36.8087L14.2149 36.9924L14.222 36.9957L14.2294 36.9985L14.3006 36.8087ZM16.161 32.038C17.199 32.1796 17.8992 32.4773 18.3044 32.8998L18.5971 32.6191C18.0993 32.1001 17.2912 31.7829 16.2158 31.6363L16.161 32.038ZM18.3059 32.9013C18.7198 33.324 18.9253 33.83 18.9253 34.431H19.3308C19.3308 33.7254 19.0847 33.1171 18.5956 32.6176L18.3059 32.9013ZM18.9253 34.431C18.9253 34.9423 18.7958 35.388 18.5409 35.7748L18.8794 35.998C19.1816 35.5395 19.3308 35.0149 19.3308 34.431H18.9253ZM18.5409 35.7748C18.2856 36.1621 17.918 36.4703 17.4289 36.6967L17.5993 37.0647C18.1477 36.8108 18.5775 36.4561 18.8794 35.998L18.5409 35.7748ZM17.4318 36.6955C16.9446 36.912 16.3591 37.0238 15.6696 37.0238V37.4293C16.4019 37.4293 17.0461 37.3106 17.5964 37.066L17.4318 36.6955ZM15.6696 37.0238C15.4124 37.0238 15.1952 37.0191 15.0174 37.0097L14.9961 37.4146C15.1833 37.4245 15.408 37.4293 15.6696 37.4293V37.0238ZM15.0131 37.0095C14.3962 36.9902 13.7888 36.9806 13.191 36.9806V37.3861C13.7845 37.3861 14.3876 37.3956 15.0004 37.4148L15.0131 37.0095ZM13.191 36.9806C12.4021 36.9806 11.8006 36.995 11.3897 37.0243L11.4186 37.4288C11.8147 37.4005 12.4045 37.3861 13.191 37.3861V36.9806ZM11.6069 37.2266V36.9384H11.2014V37.2266H11.6069ZM11.4154 37.1408C11.7643 37.1214 12.0403 37.0821 12.2247 37.0129L12.0823 36.6332C11.9593 36.6794 11.7358 36.7169 11.3929 36.7359L11.4154 37.1408ZM12.221 37.0143C12.4421 36.9362 12.5981 36.7803 12.6761 36.5591L12.2938 36.4242C12.2565 36.5297 12.1915 36.5947 12.086 36.6319L12.221 37.0143ZM12.6761 36.5591C12.746 36.3612 12.7741 36.0674 12.7741 35.6991H12.3687C12.3687 36.0609 12.3392 36.2955 12.2938 36.4242L12.6761 36.5591ZM12.7741 35.6991V28.5516H12.3687V35.6991H12.7741ZM12.7741 28.5516C12.7741 28.1833 12.746 27.8896 12.6761 27.6916L12.2938 27.8266C12.3392 27.9552 12.3687 28.1899 12.3687 28.5516H12.7741ZM12.6761 27.6916C12.5981 27.4705 12.4421 27.3145 12.221 27.2365L12.086 27.6188C12.1915 27.6561 12.2565 27.7211 12.2938 27.8266L12.6761 27.6916ZM12.2247 27.2378C12.0403 27.1687 11.7643 27.1293 11.4154 27.1099L11.3929 27.5148C11.7358 27.5338 11.9593 27.5714 12.0823 27.6175L12.2247 27.2378ZM11.6069 27.3124V27.0242H11.2014V27.3124H11.6069ZM11.3897 27.2264C11.8006 27.2557 12.3923 27.2701 13.1622 27.2701V26.8647C12.395 26.8647 11.8148 26.8502 11.4186 26.822L11.3897 27.2264ZM13.1641 27.2701L14.7204 27.2557L14.7166 26.8503L13.1603 26.8647L13.1641 27.2701ZM14.7292 27.2554C14.9074 27.2461 15.1103 27.2413 15.3382 27.2413V26.8358C15.1049 26.8358 14.8947 26.8407 14.7079 26.8505L14.7292 27.2554ZM15.3382 27.2413C16.2933 27.2413 16.9906 27.4431 17.4599 27.8168L17.7124 27.4996C17.1442 27.0471 16.3428 26.8358 15.3382 26.8358V27.2413ZM17.4613 27.8179C17.9395 28.1918 18.176 28.68 18.176 29.301H18.5814C18.5814 28.5578 18.2895 27.9508 17.711 27.4985L17.4613 27.8179ZM18.176 29.301C18.176 29.8111 18.0146 30.266 17.6876 30.6726L18.0035 30.9267C18.3874 30.4495 18.5814 29.9053 18.5814 29.301H18.176ZM17.6859 30.6747C17.3743 31.0728 16.8644 31.3911 16.1294 31.6144L16.2473 32.0023C17.0302 31.7645 17.625 31.4103 18.0052 30.9246L17.6859 30.6747ZM15.9856 31.8083V31.8372H16.3911V31.8083H15.9856ZM14.9779 27.1096C14.6705 27.1096 14.4114 27.1435 14.2194 27.2275L14.3819 27.599C14.4973 27.5485 14.6897 27.5151 14.9779 27.5151V27.1096ZM14.2149 27.2295C14.0128 27.3238 13.8781 27.4921 13.8057 27.7094L14.1903 27.8376C14.2332 27.709 14.3003 27.6371 14.3864 27.597L14.2149 27.2295ZM13.8057 27.7094C13.7375 27.914 13.7088 28.1999 13.7088 28.5516H14.1143C14.1143 28.2117 14.1433 27.9788 14.1903 27.8376L13.8057 27.7094ZM13.7088 28.5516V31.8083H14.1143V28.5516H13.7088ZM13.9116 32.0111H14.877V31.6056H13.9116V32.0111ZM14.877 32.0111C15.6954 32.0111 16.3217 31.7913 16.6838 31.2935L16.3558 31.0551C16.103 31.4027 15.6341 31.6056 14.877 31.6056V32.0111ZM16.6833 31.2942C17.033 30.8173 17.1981 30.1996 17.1981 29.4595H16.7926C16.7926 30.1412 16.6407 30.6667 16.3563 31.0544L16.6833 31.2942ZM17.1981 29.4595C17.1981 28.7139 17.0347 28.1182 16.6711 27.7106L16.3685 27.9805C16.639 28.2838 16.7926 28.764 16.7926 29.4595H17.1981ZM16.6711 27.7106C16.2999 27.2945 15.7179 27.1096 14.9779 27.1096V27.5151C15.6597 27.5151 16.1056 27.6857 16.3685 27.9805L16.6711 27.7106ZM14.9923 37.0979C15.9186 37.0979 16.651 36.8814 17.1519 36.4127C17.6553 35.9416 17.8898 35.2488 17.8898 34.3734H17.4843C17.4843 35.1791 17.2697 35.7471 16.8748 36.1167C16.4774 36.4885 15.8625 36.6924 14.9923 36.6924V37.0979ZM17.8898 34.3734C17.8898 33.578 17.6725 32.9409 17.2073 32.4974L16.9275 32.7909C17.2885 33.1351 17.4843 33.6508 17.4843 34.3734H17.8898ZM17.209 32.4991C16.7507 32.0516 16.0386 31.8506 15.122 31.8506V32.2561C15.9923 32.2561 16.5771 32.4489 16.9258 32.7892L17.209 32.4991ZM15.122 31.8506H13.9116V32.2561H15.122V31.8506ZM13.7088 32.0533V35.6991H14.1143V32.0533H13.7088ZM13.7088 35.6991C13.7088 36.0497 13.7372 36.333 13.8068 36.5303L14.1892 36.3953C14.1435 36.266 14.1143 36.0401 14.1143 35.6991H13.7088ZM13.8068 36.5303C13.8808 36.7399 14.0168 36.8999 14.2149 36.9924L14.3864 36.625C14.2962 36.5829 14.2305 36.5124 14.1892 36.3953L13.8068 36.5303ZM14.2294 36.9985C14.4179 37.0692 14.678 37.0979 14.9923 37.0979V36.6924C14.6918 36.6924 14.4908 36.6634 14.3718 36.6188L14.2294 36.9985ZM24.2241 27.3124L24.2353 27.5148L24.4268 27.5042V27.3124H24.2241ZM23.4604 27.4277L23.3929 27.2364L23.3892 27.2378L23.4604 27.4277ZM23.1433 27.7591L23.3345 27.8266V27.8266L23.1433 27.7591ZM23.1433 36.4916L23.3345 36.4242V36.4242L23.1433 36.4916ZM23.4604 36.8231L23.3892 37.0129L23.3929 37.0143L23.4604 36.8231ZM24.2241 36.9384H24.4268V36.7466L24.2353 36.7359L24.2241 36.9384ZM24.2241 37.2266L24.2109 37.4289L24.4268 37.443V37.2266H24.2241ZM20.5495 37.2266H20.3468V37.4443L20.564 37.4288L20.5495 37.2266ZM20.5495 36.9384L20.5383 36.7359L20.3468 36.7466V36.9384H20.5495ZM21.2988 36.8231L21.2313 36.6319L21.2276 36.6332L21.2988 36.8231ZM21.6303 27.7591L21.4391 27.8266V27.8266L21.6303 27.7591ZM21.2988 27.4277L21.2276 27.6175L21.2314 27.6188L21.2988 27.4277ZM20.5495 27.3124H20.3468V27.5042L20.5383 27.5148L20.5495 27.3124ZM20.5495 27.0242L20.564 26.822L20.3468 26.8064V27.0242H20.5495ZM24.2241 27.0242H24.4268V26.8081L24.2112 26.8218L24.2241 27.0242ZM24.2129 27.1099C23.863 27.1294 23.5845 27.1688 23.3929 27.2365L23.5278 27.6188C23.6628 27.5712 23.8936 27.5338 24.2353 27.5148L24.2129 27.1099ZM23.3892 27.2378C23.1759 27.3178 23.0285 27.4753 22.9522 27.6916L23.3345 27.8266C23.3735 27.7162 23.4374 27.6528 23.5315 27.6175L23.3892 27.2378ZM22.9522 27.6916C22.8823 27.8896 22.8541 28.1833 22.8541 28.5516H23.2596C23.2596 28.1899 23.2891 27.9552 23.3345 27.8266L22.9522 27.6916ZM22.8541 28.5516V35.6991H23.2596V28.5516H22.8541ZM22.8541 35.6991C22.8541 36.0674 22.8823 36.3612 22.9522 36.5591L23.3345 36.4242C23.2891 36.2955 23.2596 36.0609 23.2596 35.6991H22.8541ZM22.9522 36.5591C23.0285 36.7754 23.1759 36.9329 23.3892 37.0129L23.5315 36.6332C23.4374 36.5979 23.3735 36.5345 23.3345 36.4242L22.9522 36.5591ZM23.3929 37.0143C23.5845 37.0819 23.863 37.1213 24.2129 37.1408L24.2353 36.7359C23.8936 36.7169 23.6628 36.6795 23.5278 36.6319L23.3929 37.0143ZM24.0214 36.9384V37.2266H24.4268V36.9384H24.0214ZM24.2373 37.0243C23.7889 36.995 23.1738 36.9806 22.394 36.9806V37.3861C23.1705 37.3861 23.7755 37.4005 24.2109 37.4289L24.2373 37.0243ZM22.394 36.9806C21.5669 36.9806 20.9461 36.995 20.5351 37.0243L20.564 37.4288C20.9599 37.4005 21.5688 37.3861 22.394 37.3861V36.9806ZM20.7522 37.2266V36.9384H20.3468V37.2266H20.7522ZM20.5608 37.1408C20.9096 37.1214 21.1856 37.0821 21.37 37.0129L21.2276 36.6332C21.1046 36.6794 20.8811 36.7169 20.5383 36.7359L20.5608 37.1408ZM21.3663 37.0143C21.5874 36.9362 21.7434 36.7803 21.8214 36.5591L21.4391 36.4242C21.4019 36.5297 21.3369 36.5947 21.2314 36.6319L21.3663 37.0143ZM21.8214 36.5591C21.8913 36.3612 21.9195 36.0674 21.9195 35.6991H21.514C21.514 36.0609 21.4845 36.2955 21.4391 36.4242L21.8214 36.5591ZM21.9195 35.6991V28.5516H21.514V35.6991H21.9195ZM21.9195 28.5516C21.9195 28.1833 21.8913 27.8896 21.8214 27.6916L21.4391 27.8266C21.4845 27.9552 21.514 28.1899 21.514 28.5516H21.9195ZM21.8214 27.6916C21.7434 27.4705 21.5874 27.3145 21.3663 27.2365L21.2314 27.6188C21.3369 27.6561 21.4019 27.7211 21.4391 27.8266L21.8214 27.6916ZM21.37 27.2378C21.1856 27.1687 20.9096 27.1293 20.5608 27.1099L20.5383 27.5148C20.8811 27.5338 21.1046 27.5714 21.2276 27.6175L21.37 27.2378ZM20.7522 27.3124V27.0242H20.3468V27.3124H20.7522ZM20.5351 27.2264C20.9461 27.2558 21.5669 27.2701 22.394 27.2701V26.8647C21.5688 26.8647 20.9599 26.8502 20.564 26.822L20.5351 27.2264ZM22.394 27.2701C23.1643 27.2701 23.7793 27.2557 24.237 27.2265L24.2112 26.8218C23.7659 26.8503 23.1608 26.8647 22.394 26.8647V27.2701ZM24.0214 27.0242V27.3124H24.4268V27.0242H24.0214ZM30.4824 31.8372H30.2797V32.0141L30.455 32.038L30.4824 31.8372ZM32.7448 32.7594L32.5985 32.8998L32.6 32.9013L32.7448 32.7594ZM33.0042 35.8864L33.1735 35.998V35.998L33.0042 35.8864ZM31.8082 36.8807L31.8905 37.066L31.8933 37.0647L31.8082 36.8807ZM29.3008 37.2122L29.3115 37.0096L29.3071 37.0095L29.3008 37.2122ZM25.6983 37.2266H25.4955V37.4443L25.7127 37.4288L25.6983 37.2266ZM25.6983 36.9384L25.687 36.7359L25.4955 36.7466V36.9384H25.6983ZM26.4476 36.8231L26.3801 36.6319L26.3764 36.6332L26.4476 36.8231ZM26.779 27.7591L26.5878 27.8266V27.8266L26.779 27.7591ZM26.4476 27.4277L26.3764 27.6175L26.3801 27.6188L26.4476 27.4277ZM25.6983 27.3124H25.4955V27.5042L25.687 27.5148L25.6983 27.3124ZM25.6983 27.0242L25.7127 26.822L25.4955 26.8064V27.0242H25.6983ZM27.4563 27.0674V27.2701L27.4582 27.2701L27.4563 27.0674ZM29.0126 27.053L29.0145 27.2559L29.0233 27.2554L29.0126 27.053ZM31.8802 27.6582L31.7539 27.8168L31.7553 27.8179L31.8802 27.6582ZM32.1396 30.7996L31.9816 30.6726L31.9799 30.6747L32.1396 30.7996ZM30.4824 31.8083L30.4235 31.6144L30.2797 31.658V31.8083H30.4824ZM28.5947 27.4132L28.5134 27.2275L28.509 27.2295L28.5947 27.4132ZM28.2921 27.7735L28.4844 27.8376V27.8376L28.2921 27.7735ZM28.2056 31.8083H28.0029V32.0111H28.2056V31.8083ZM30.8139 31.1743L30.6504 31.0544L30.6499 31.0551L30.8139 31.1743ZM31.3615 32.6441L31.2198 32.7892L31.2215 32.7909L31.3615 32.6441ZM28.2056 32.0533V31.8506H28.0029V32.0533H28.2056ZM28.2921 36.4628L28.4833 36.3953V36.3953L28.2921 36.4628ZM28.5947 36.8087L28.509 36.9924L28.5161 36.9957L28.5235 36.9985L28.5947 36.8087ZM30.455 32.038C31.493 32.1796 32.1933 32.4773 32.5985 32.8998L32.8911 32.6191C32.3934 32.1001 31.5853 31.7829 30.5098 31.6363L30.455 32.038ZM32.6 32.9013C33.0139 33.324 33.2194 33.83 33.2194 34.431H33.6248C33.6248 33.7254 33.3788 33.1171 32.8897 32.6176L32.6 32.9013ZM33.2194 34.431C33.2194 34.9423 33.0899 35.388 32.8349 35.7748L33.1735 35.998C33.4757 35.5395 33.6248 35.0149 33.6248 34.431H33.2194ZM32.8349 35.7748C32.5797 36.1621 32.2121 36.4703 31.723 36.6967L31.8933 37.0647C32.4418 36.8108 32.8715 36.4561 33.1735 35.998L32.8349 35.7748ZM31.7258 36.6955C31.2386 36.912 30.6531 37.0238 29.9637 37.0238V37.4293C30.696 37.4293 31.3402 37.3106 31.8905 37.066L31.7258 36.6955ZM29.9637 37.0238C29.7065 37.0238 29.4893 37.0191 29.3115 37.0097L29.2901 37.4146C29.4773 37.4245 29.7021 37.4293 29.9637 37.4293V37.0238ZM29.3071 37.0095C28.6903 36.9902 28.0829 36.9806 27.4851 36.9806V37.3861C28.0786 37.3861 28.6817 37.3956 29.2945 37.4148L29.3071 37.0095ZM27.4851 36.9806C26.6961 36.9806 26.0947 36.995 25.6838 37.0243L25.7127 37.4288C26.1088 37.4005 26.6986 37.3861 27.4851 37.3861V36.9806ZM25.901 37.2266V36.9384H25.4955V37.2266H25.901ZM25.7095 37.1408C26.0583 37.1214 26.3344 37.0821 26.5188 37.0129L26.3764 36.6332C26.2534 36.6794 26.0299 36.7169 25.687 36.7359L25.7095 37.1408ZM26.5151 37.0143C26.7362 36.9362 26.8922 36.7803 26.9702 36.5591L26.5878 36.4242C26.5506 36.5297 26.4856 36.5947 26.3801 36.6319L26.5151 37.0143ZM26.9702 36.5591C27.0401 36.3612 27.0682 36.0674 27.0682 35.6991H26.6627C26.6627 36.0609 26.6333 36.2955 26.5878 36.4242L26.9702 36.5591ZM27.0682 35.6991V28.5516H26.6627V35.6991H27.0682ZM27.0682 28.5516C27.0682 28.1833 27.0401 27.8896 26.9702 27.6916L26.5878 27.8266C26.6333 27.9552 26.6627 28.1899 26.6627 28.5516H27.0682ZM26.9702 27.6916C26.8922 27.4705 26.7362 27.3145 26.5151 27.2365L26.3801 27.6188C26.4856 27.6561 26.5506 27.7211 26.5878 27.8266L26.9702 27.6916ZM26.5188 27.2378C26.3344 27.1687 26.0583 27.1293 25.7095 27.1099L25.687 27.5148C26.0299 27.5338 26.2534 27.5714 26.3764 27.6175L26.5188 27.2378ZM25.901 27.3124V27.0242H25.4955V27.3124H25.901ZM25.6838 27.2264C26.0946 27.2557 26.6864 27.2701 27.4563 27.2701V26.8647C26.6891 26.8647 26.1089 26.8502 25.7127 26.822L25.6838 27.2264ZM27.4582 27.2701L29.0145 27.2557L29.0107 26.8503L27.4544 26.8647L27.4582 27.2701ZM29.0233 27.2554C29.2015 27.2461 29.4044 27.2413 29.6322 27.2413V26.8358C29.399 26.8358 29.1888 26.8407 29.0019 26.8505L29.0233 27.2554ZM29.6322 27.2413C30.5874 27.2413 31.2847 27.4431 31.7539 27.8168L32.0065 27.4996C31.4382 27.0471 30.6369 26.8358 29.6322 26.8358V27.2413ZM31.7553 27.8179C32.2336 28.1918 32.47 28.68 32.47 29.301H32.8755C32.8755 28.5578 32.5836 27.9508 32.0051 27.4985L31.7553 27.8179ZM32.47 29.301C32.47 29.8111 32.3087 30.266 31.9816 30.6726L32.2976 30.9267C32.6814 30.4495 32.8755 29.9053 32.8755 29.301H32.47ZM31.9799 30.6747C31.6684 31.0728 31.1585 31.3911 30.4235 31.6144L30.5414 32.0023C31.3243 31.7645 31.9191 31.4103 32.2993 30.9246L31.9799 30.6747ZM30.2797 31.8083V31.8372H30.6852V31.8083H30.2797ZM29.272 27.1096C28.9646 27.1096 28.7055 27.1435 28.5134 27.2275L28.676 27.599C28.7913 27.5485 28.9838 27.5151 29.272 27.5151V27.1096ZM28.509 27.2295C28.3069 27.3238 28.1722 27.4921 28.0998 27.7094L28.4844 27.8376C28.5273 27.709 28.5943 27.6371 28.6804 27.597L28.509 27.2295ZM28.0998 27.7094C28.0316 27.914 28.0029 28.1999 28.0029 28.5516H28.4084C28.4084 28.2117 28.4373 27.9788 28.4844 27.8376L28.0998 27.7094ZM28.0029 28.5516V31.8083H28.4084V28.5516H28.0029ZM28.2056 32.0111H29.1711V31.6056H28.2056V32.0111ZM29.1711 32.0111C29.9895 32.0111 30.6158 31.7913 30.9778 31.2935L30.6499 31.0551C30.3971 31.4027 29.9282 31.6056 29.1711 31.6056V32.0111ZM30.9774 31.2942C31.327 30.8173 31.4921 30.1996 31.4921 29.4595H31.0867C31.0867 30.1412 30.9347 30.6667 30.6504 31.0544L30.9774 31.2942ZM31.4921 29.4595C31.4921 28.7139 31.3287 28.1182 30.9652 27.7106L30.6626 27.9805C30.9331 28.2838 31.0867 28.764 31.0867 29.4595H31.4921ZM30.9652 27.7106C30.594 27.2945 30.012 27.1096 29.272 27.1096V27.5151C29.9538 27.5151 30.3997 27.6857 30.6626 27.9805L30.9652 27.7106ZM29.2864 37.0979C30.2127 37.0979 30.9451 36.8814 31.4459 36.4127C31.9493 35.9416 32.1838 35.2488 32.1838 34.3734H31.7784C31.7784 35.1791 31.5637 35.7471 31.1689 36.1167C30.7715 36.4885 30.1566 36.6924 29.2864 36.6924V37.0979ZM32.1838 34.3734C32.1838 33.578 31.9665 32.9409 31.5014 32.4974L31.2215 32.7909C31.5826 33.1351 31.7784 33.6508 31.7784 34.3734H32.1838ZM31.5031 32.4991C31.0447 32.0516 30.3327 31.8506 29.4161 31.8506V32.2561C30.2864 32.2561 30.8712 32.4489 31.2198 32.7892L31.5031 32.4991ZM29.4161 31.8506H28.2056V32.2561H29.4161V31.8506ZM28.0029 32.0533V35.6991H28.4084V32.0533H28.0029ZM28.0029 35.6991C28.0029 36.0497 28.0313 36.333 28.1009 36.5303L28.4833 36.3953C28.4376 36.266 28.4084 36.0401 28.4084 35.6991H28.0029ZM28.1009 36.5303C28.1749 36.7399 28.3109 36.8999 28.509 36.9924L28.6804 36.625C28.5903 36.5829 28.5246 36.5124 28.4833 36.3953L28.1009 36.5303ZM28.5235 36.9985C28.712 37.0692 28.9721 37.0979 29.2864 37.0979V36.6924C28.9859 36.6924 28.7848 36.6634 28.6659 36.6188L28.5235 36.9985ZM38.5182 27.3124L38.5294 27.5148L38.7209 27.5042V27.3124H38.5182ZM37.7544 27.4277L37.6869 27.2364L37.6832 27.2378L37.7544 27.4277ZM37.4374 27.7591L37.6286 27.8266V27.8266L37.4374 27.7591ZM37.4374 36.4916L37.6286 36.4242V36.4242L37.4374 36.4916ZM37.7544 36.8231L37.6832 37.0129L37.6902 37.0155L37.6972 37.0176L37.7544 36.8231ZM40.9247 36.6502L41.0198 36.8292L41.0217 36.8281L40.9247 36.6502ZM41.6164 35.8288L41.8056 35.9016V35.9016L41.6164 35.8288ZM41.9334 34.2004V33.9977H41.7489L41.7315 34.1813L41.9334 34.2004ZM42.2648 34.2004L42.4666 34.22L42.4881 33.9977H42.2648V34.2004ZM42.3225 37.2266L42.3135 37.4291L42.5472 37.4394L42.5242 37.2067L42.3225 37.2266ZM34.8436 37.2266H34.6408V37.4356L34.8498 37.4292L34.8436 37.2266ZM34.8436 36.9384L34.8323 36.7359L34.6408 36.7466V36.9384H34.8436ZM35.5929 36.8231L35.5254 36.6319L35.5217 36.6332L35.5929 36.8231ZM35.9243 27.7591L35.7332 27.8266V27.8266L35.9243 27.7591ZM35.5929 27.4277L35.5217 27.6175L35.5254 27.6188L35.5929 27.4277ZM34.8436 27.3124H34.6408V27.5042L34.8323 27.5148L34.8436 27.3124ZM34.8436 27.0242L34.858 26.822L34.6408 26.8064V27.0242H34.8436ZM38.5182 27.0242H38.7209V26.8081L38.5053 26.8218L38.5182 27.0242ZM38.5069 27.1099C38.157 27.1294 37.8786 27.1688 37.687 27.2365L37.8219 27.6188C37.9569 27.5712 38.1876 27.5338 38.5294 27.5148L38.5069 27.1099ZM37.6832 27.2378C37.47 27.3178 37.3226 27.4753 37.2462 27.6916L37.6286 27.8266C37.6675 27.7162 37.7315 27.6528 37.8256 27.6175L37.6832 27.2378ZM37.2462 27.6916C37.1764 27.8896 37.1482 28.1833 37.1482 28.5516H37.5537C37.5537 28.1899 37.5832 27.9552 37.6286 27.8266L37.2462 27.6916ZM37.1482 28.5516V35.6991H37.5537V28.5516H37.1482ZM37.1482 35.6991C37.1482 36.0674 37.1764 36.3612 37.2462 36.5591L37.6286 36.4242C37.5832 36.2955 37.5537 36.0609 37.5537 35.6991H37.1482ZM37.2462 36.5591C37.3226 36.7754 37.47 36.9329 37.6832 37.0129L37.8256 36.6332C37.7315 36.5979 37.6675 36.5345 37.6286 36.4242L37.2462 36.5591ZM37.6972 37.0176C37.8898 37.0742 38.1686 37.0979 38.5182 37.0979V36.6924C38.1761 36.6924 37.9457 36.668 37.8116 36.6286L37.6972 37.0176ZM38.5182 37.0979H39.5701V36.6924H38.5182V37.0979ZM39.5701 37.0979C40.1784 37.0979 40.6691 37.0155 41.0198 36.8292L40.8296 36.4711C40.5654 36.6115 40.1531 36.6924 39.5701 36.6924V37.0979ZM41.0217 36.8281C41.3858 36.6296 41.6463 36.3157 41.8056 35.9016L41.4271 35.756C41.2982 36.0911 41.0976 36.3249 40.8276 36.4722L41.0217 36.8281ZM41.8056 35.9016C41.9595 35.5012 42.0674 34.9369 42.1352 34.2195L41.7315 34.1813C41.6649 34.8858 41.5614 35.407 41.4271 35.756L41.8056 35.9016ZM41.9334 34.4032H42.2648V33.9977H41.9334V34.4032ZM42.063 34.1809C42.0333 34.488 42.0188 34.8891 42.0188 35.3821H42.4243C42.4243 34.8951 42.4387 34.5085 42.4666 34.22L42.063 34.1809ZM42.0188 35.3821C42.0188 35.9377 42.053 36.5593 42.1207 37.2465L42.5242 37.2067C42.4575 36.5296 42.4243 35.9216 42.4243 35.3821H42.0188ZM42.3314 37.024C41.6732 36.995 40.5693 36.9806 39.0225 36.9806V37.3861C40.5691 37.3861 41.6652 37.4005 42.3135 37.4291L42.3314 37.024ZM39.0225 36.9806C37.1775 36.9806 35.782 36.995 34.8374 37.0239L34.8498 37.4292C35.7881 37.4005 37.1785 37.3861 39.0225 37.3861V36.9806ZM35.0463 37.2266V36.9384H34.6408V37.2266H35.0463ZM34.8548 37.1408C35.2037 37.1214 35.4797 37.0821 35.6641 37.0129L35.5217 36.6332C35.3987 36.6794 35.1752 36.7169 34.8323 36.7359L34.8548 37.1408ZM35.6604 37.0143C35.8815 36.9362 36.0375 36.7803 36.1155 36.5591L35.7332 36.4242C35.6959 36.5297 35.6309 36.5947 35.5254 36.6319L35.6604 37.0143ZM36.1155 36.5591C36.1854 36.3612 36.2135 36.0674 36.2135 35.6991H35.8081C35.8081 36.0609 35.7786 36.2955 35.7332 36.4242L36.1155 36.5591ZM36.2135 35.6991V28.5516H35.8081V35.6991H36.2135ZM36.2135 28.5516C36.2135 28.1833 36.1854 27.8896 36.1155 27.6916L35.7332 27.8266C35.7786 27.9552 35.8081 28.1899 35.8081 28.5516H36.2135ZM36.1155 27.6916C36.0375 27.4705 35.8815 27.3145 35.6604 27.2365L35.5254 27.6188C35.6309 27.6561 35.6959 27.7211 35.7332 27.8266L36.1155 27.6916ZM35.6641 27.2378C35.4797 27.1687 35.2037 27.1293 34.8548 27.1099L34.8323 27.5148C35.1752 27.5338 35.3987 27.5714 35.5217 27.6175L35.6641 27.2378ZM35.0463 27.3124V27.0242H34.6408V27.3124H35.0463ZM34.8291 27.2264C35.2402 27.2558 35.861 27.2701 36.6881 27.2701V26.8647C35.8628 26.8647 35.254 26.8502 34.858 26.822L34.8291 27.2264ZM36.6881 27.2701C37.4584 27.2701 38.0733 27.2557 38.5311 27.2265L38.5053 26.8218C38.06 26.8503 37.4548 26.8647 36.6881 26.8647V27.2701ZM38.3154 27.0242V27.3124H38.7209V27.0242H38.3154ZM47.2554 27.3124L47.2666 27.5148L47.4581 27.5042V27.3124H47.2554ZM46.4917 27.4277L46.4242 27.2364L46.4205 27.2378L46.4917 27.4277ZM46.1746 27.7591L46.3658 27.8266V27.8266L46.1746 27.7591ZM46.1746 36.4916L46.3658 36.4242V36.4242L46.1746 36.4916ZM46.4917 36.8231L46.4205 37.0129L46.4242 37.0143L46.4917 36.8231ZM47.2554 36.9384H47.4581V36.7466L47.2666 36.7359L47.2554 36.9384ZM47.2554 37.2266L47.2422 37.4289L47.4581 37.443V37.2266H47.2554ZM43.5808 37.2266H43.3781V37.4443L43.5952 37.4288L43.5808 37.2266ZM43.5808 36.9384L43.5696 36.7359L43.3781 36.7466V36.9384H43.5808ZM44.3301 36.8231L44.2626 36.6319L44.2589 36.6332L44.3301 36.8231ZM44.6616 27.7591L44.4704 27.8266V27.8266L44.6616 27.7591ZM44.3301 27.4277L44.2589 27.6175L44.2627 27.6188L44.3301 27.4277ZM43.5808 27.3124H43.3781V27.5042L43.5696 27.5148L43.5808 27.3124ZM43.5808 27.0242L43.5952 26.822L43.3781 26.8064V27.0242H43.5808ZM47.2554 27.0242H47.4581V26.8081L47.2425 26.8218L47.2554 27.0242ZM47.2441 27.1099C46.8943 27.1294 46.6158 27.1688 46.4242 27.2365L46.5591 27.6188C46.6941 27.5712 46.9249 27.5338 47.2666 27.5148L47.2441 27.1099ZM46.4205 27.2378C46.2072 27.3178 46.0598 27.4753 45.9835 27.6916L46.3658 27.8266C46.4048 27.7162 46.4687 27.6528 46.5628 27.6175L46.4205 27.2378ZM45.9835 27.6916C45.9136 27.8896 45.8854 28.1833 45.8854 28.5516H46.2909C46.2909 28.1899 46.3204 27.9552 46.3658 27.8266L45.9835 27.6916ZM45.8854 28.5516V35.6991H46.2909V28.5516H45.8854ZM45.8854 35.6991C45.8854 36.0674 45.9136 36.3612 45.9835 36.5591L46.3658 36.4242C46.3204 36.2955 46.2909 36.0609 46.2909 35.6991H45.8854ZM45.9835 36.5591C46.0598 36.7754 46.2072 36.9329 46.4205 37.0129L46.5628 36.6332C46.4687 36.5979 46.4048 36.5345 46.3658 36.4242L45.9835 36.5591ZM46.4242 37.0143C46.6158 37.0819 46.8943 37.1213 47.2441 37.1408L47.2666 36.7359C46.9249 36.7169 46.6941 36.6795 46.5591 36.6319L46.4242 37.0143ZM47.0527 36.9384V37.2266H47.4581V36.9384H47.0527ZM47.2686 37.0243C46.8202 36.995 46.2051 36.9806 45.4253 36.9806V37.3861C46.2018 37.3861 46.8068 37.4005 47.2422 37.4289L47.2686 37.0243ZM45.4253 36.9806C44.5982 36.9806 43.9774 36.995 43.5664 37.0243L43.5952 37.4288C43.9912 37.4005 44.6001 37.3861 45.4253 37.3861V36.9806ZM43.7835 37.2266V36.9384H43.3781V37.2266H43.7835ZM43.5921 37.1408C43.9409 37.1214 44.2169 37.0821 44.4013 37.0129L44.2589 36.6332C44.1359 36.6794 43.9124 36.7169 43.5696 36.7359L43.5921 37.1408ZM44.3976 37.0143C44.6187 36.9362 44.7747 36.7803 44.8527 36.5591L44.4704 36.4242C44.4332 36.5297 44.3682 36.5947 44.2627 36.6319L44.3976 37.0143ZM44.8527 36.5591C44.9226 36.3612 44.9508 36.0674 44.9508 35.6991H44.5453C44.5453 36.0609 44.5158 36.2955 44.4704 36.4242L44.8527 36.5591ZM44.9508 35.6991V28.5516H44.5453V35.6991H44.9508ZM44.9508 28.5516C44.9508 28.1833 44.9226 27.8896 44.8527 27.6916L44.4704 27.8266C44.5158 27.9552 44.5453 28.1899 44.5453 28.5516H44.9508ZM44.8527 27.6916C44.7747 27.4705 44.6187 27.3145 44.3976 27.2365L44.2627 27.6188C44.3682 27.6561 44.4332 27.7211 44.4704 27.8266L44.8527 27.6916ZM44.4013 27.2378C44.2169 27.1687 43.9409 27.1293 43.5921 27.1099L43.5696 27.5148C43.9124 27.5338 44.1359 27.5714 44.2589 27.6175L44.4013 27.2378ZM43.7835 27.3124V27.0242H43.3781V27.3124H43.7835ZM43.5664 27.2264C43.9774 27.2558 44.5982 27.2701 45.4253 27.2701V26.8647C44.6001 26.8647 43.9912 26.8502 43.5952 26.822L43.5664 27.2264ZM45.4253 27.2701C46.1956 27.2701 46.8106 27.2557 47.2683 27.2265L47.2425 26.8218C46.7972 26.8503 46.1921 26.8647 45.4253 26.8647V27.2701ZM47.0527 27.0242V27.3124H47.4581V27.0242H47.0527ZM56.2949 36.0161L56.484 35.9429L56.4839 35.9428L56.2949 36.0161ZM57.2892 36.9384H57.4919V36.7444L57.2982 36.7358L57.2892 36.9384ZM57.2892 37.2266L57.274 37.4287L57.4919 37.4451V37.2266H57.2892ZM53.9028 37.2266H53.7001V37.4443L53.9172 37.4288L53.9028 37.2266ZM53.9028 36.9384L53.8921 36.7359L53.7001 36.746V36.9384H53.9028ZM54.681 36.8087L54.7622 36.9945L54.7673 36.9921L54.681 36.8087ZM54.753 35.7279L54.5629 35.7986L54.5648 35.8032L54.753 35.7279ZM53.874 33.3646L54.064 33.294L54.0149 33.1619H53.874V33.3646ZM50.3867 33.3646V33.1619H50.2478L50.1976 33.2915L50.3867 33.3646ZM49.7959 34.8921L49.6068 34.819L49.6058 34.8217L49.7959 34.8921ZM49.8103 36.7222L49.6978 36.8909L49.7015 36.8932L49.8103 36.7222ZM50.7614 36.9384H50.9641V36.7402L50.766 36.7357L50.7614 36.9384ZM50.7614 37.2266L50.7507 37.429L50.9641 37.4403V37.2266H50.7614ZM48.0235 37.2266H47.8207V37.4506L48.0436 37.4283L48.0235 37.2266ZM48.0235 36.9384L47.9761 36.7412L47.8207 36.7785V36.9384H48.0235ZM49.1619 35.6847L48.9728 35.6114L48.9728 35.6116L49.1619 35.6847ZM52.5482 26.9521V26.7494H52.4094L52.3592 26.8788L52.5482 26.9521ZM52.7788 26.9521L52.9678 26.8788L52.9176 26.7494H52.7788V26.9521ZM53.7587 33.0764V33.2792H54.0511L53.9486 33.0053L53.7587 33.0764ZM52.1448 28.7678L52.3346 28.6967L52.1464 28.1943L51.9553 28.6956L52.1448 28.7678ZM50.502 33.0764L50.3126 33.0042L50.2077 33.2792H50.502V33.0764ZM56.1058 36.0893C56.3495 36.7188 56.7312 37.1165 57.2802 37.1409L57.2982 36.7358C56.9826 36.7218 56.7014 36.5046 56.484 35.9429L56.1058 36.0893ZM57.0865 36.9384V37.2266H57.4919V36.9384H57.0865ZM57.3044 37.0244C56.9128 36.995 56.3932 36.9806 55.7473 36.9806V37.3861C56.3888 37.3861 56.897 37.4005 57.274 37.4287L57.3044 37.0244ZM55.7473 36.9806C54.9202 36.9806 54.2994 36.995 53.8884 37.0243L53.9172 37.4288C54.3132 37.4005 54.9221 37.3861 55.7473 37.3861V36.9806ZM54.1055 37.2266V36.9384H53.7001V37.2266H54.1055ZM53.9135 37.1408C54.281 37.1215 54.5724 37.0775 54.7622 36.9944L54.5997 36.6229C54.4821 36.6744 54.2547 36.7168 53.8921 36.7359L53.9135 37.1408ZM54.7673 36.9921C54.8795 36.9393 54.9736 36.8615 55.038 36.7554C55.1019 36.6501 55.1287 36.5302 55.1287 36.4052H54.7232C54.7232 36.4724 54.7091 36.5158 54.6914 36.5449C54.6741 36.5733 54.6457 36.6012 54.5946 36.6252L54.7673 36.9921ZM55.1287 36.4052C55.1287 36.2022 55.059 35.9471 54.9412 35.6526L54.5648 35.8032C54.6775 36.0851 54.7232 36.2815 54.7232 36.4052H55.1287ZM54.943 35.6572L54.064 33.294L53.684 33.4353L54.563 35.7986L54.943 35.6572ZM53.874 33.1619H50.3867V33.5674H53.874V33.1619ZM50.1976 33.2915L49.6068 34.819L49.985 34.9653L50.5758 33.4378L50.1976 33.2915ZM49.6058 34.8217C49.4122 35.3443 49.305 35.7667 49.305 36.0737H49.7104C49.7104 35.8428 49.7953 35.4774 49.986 34.9625L49.6058 34.8217ZM49.305 36.0737C49.305 36.4217 49.4265 36.71 49.6979 36.8909L49.9228 36.5535C49.7907 36.4655 49.7104 36.3214 49.7104 36.0737H49.305ZM49.7015 36.8932C49.9587 37.057 50.3196 37.1311 50.7568 37.141L50.766 36.7357C50.3578 36.7264 50.0846 36.6564 49.9192 36.5512L49.7015 36.8932ZM50.5587 36.9384V37.2266H50.9641V36.9384H50.5587ZM50.772 37.0241C50.2209 36.9951 49.6649 36.9806 49.1042 36.9806V37.3861C49.6579 37.3861 50.2068 37.4004 50.7507 37.429L50.772 37.0241ZM49.1042 36.9806C48.6681 36.9806 48.3006 36.9951 48.0033 37.0248L48.0436 37.4283C48.3227 37.4004 48.6757 37.3861 49.1042 37.3861V36.9806ZM48.2262 37.2266V36.9384H47.8207V37.2266H48.2262ZM48.0708 37.1355C48.6462 36.9974 49.0623 36.5042 49.351 35.7578L48.9728 35.6116C48.7042 36.3062 48.3614 36.6488 47.9761 36.7412L48.0708 37.1355ZM49.3509 35.758L52.7373 27.0254L52.3592 26.8788L48.9728 35.6114L49.3509 35.758ZM52.5482 27.1549H52.7788V26.7494H52.5482V27.1549ZM52.5898 27.0254L56.1059 36.0894L56.4839 35.9428L52.9678 26.8788L52.5898 27.0254ZM53.9486 33.0053L52.3346 28.6967L51.9549 28.8389L53.5688 33.1476L53.9486 33.0053ZM51.9553 28.6956L50.3126 33.0042L50.6914 33.1487L52.3342 28.84L51.9553 28.6956ZM50.502 33.2792H53.7587V32.8737H50.502V33.2792Z" fill="#FEF5EB" mask="url(#path-5-outside-1_23668_7180)"/>
</g>
</g>
<defs>
<linearGradient id="paint0_linear_23668_7180" x1="34" y1="-1.04141e-05" x2="34" y2="68" gradientUnits="userSpaceOnUse">
<stop stop-color="#C93D34"/>
<stop offset="1" stop-color="#7A2629"/>
</linearGradient>
<linearGradient id="paint1_linear_23668_7180" x1="34" y1="-1.04141e-05" x2="34" y2="68" gradientUnits="userSpaceOnUse">
<stop stop-color="#C93D34"/>
<stop offset="1" stop-color="#7A2629"/>
</linearGradient>
<clipPath id="clip0_23668_7180">
<rect width="68" height="68" fill="white"/>
</clipPath>
</defs>
</svg>
