<svg width="68" height="68" viewBox="0 0 68 68" fill="none" xmlns="http://www.w3.org/2000/svg">
<g clip-path="url(#clip0_23632_13380)">
<mask id="mask0_23632_13380" style="mask-type:alpha" maskUnits="userSpaceOnUse" x="0" y="0" width="68" height="68">
<path fill-rule="evenodd" clip-rule="evenodd" d="M47.0333 0H20.9667C13.5811 0 8.89667 0.0377779 4.45778 4.45778C0.018889 8.89667 0 13.6 0 20.9667V47.0333C0 54.4189 0.0377779 59.1033 4.45778 63.5422C8.89667 67.9811 13.6 68 20.9667 68H47.0333C54.4189 68 59.1033 67.9811 63.5422 63.5422C67.9622 59.1033 68 54.4 68 47.0333V20.9667C68 13.5811 67.9622 8.89667 63.5422 4.45778C59.1033 0.018889 54.4 0 47.0333 0Z" fill="url(#paint0_linear_23632_13380)"/>
</mask>
<g mask="url(#mask0_23632_13380)">
<rect width="68" height="68" fill="url(#paint1_linear_23632_13380)"/>
<path fill-rule="evenodd" clip-rule="evenodd" d="M15.6211 64.373C26.4255 64.373 45.6355 64.373 45.6355 64.373C52.5866 64.373 57.0822 64.6374 61.2378 60.4441C64.8078 56.8741 64.5055 50.8674 64.7322 46.1074C60.7089 52.1519 53.3233 51.9441 47.6189 51.9441C47.6189 51.9441 20.9289 51.9441 10.9555 51.9441C0.982194 51.963 4.81664 64.373 15.6211 64.373Z" fill="#FEF5EB"/>
<path d="M12.4855 53.5312H23.1389V61.5213L17.8122 58.8579L12.4855 61.5213V53.5312Z" fill="#FF3D4D"/>
<mask id="path-5-outside-1_23632_13380" maskUnits="userSpaceOnUse" x="8.10156" y="21.2266" width="52" height="7" fill="black">
<rect fill="white" x="8.10156" y="21.2266" width="52" height="7"/>
<path d="M10.7835 22.2042C10.6083 22.2139 10.4793 22.2334 10.3966 22.2626C10.3187 22.2918 10.2652 22.3477 10.236 22.4305C10.2068 22.5132 10.1922 22.647 10.1922 22.832V26.4528C10.1922 26.6377 10.2068 26.7715 10.236 26.8543C10.2652 26.937 10.3187 26.993 10.3966 27.0222C10.4793 27.0514 10.6083 27.0708 10.7835 27.0806V27.2266C10.5596 27.212 10.2506 27.2047 9.85638 27.2047C9.43785 27.2047 9.12638 27.212 8.92198 27.2266V27.0806C9.09718 27.0708 9.22371 27.0514 9.30158 27.0222C9.38431 26.993 9.44028 26.937 9.46948 26.8543C9.49868 26.7715 9.51328 26.6377 9.51328 26.4528V22.832C9.51328 22.647 9.49868 22.5132 9.46948 22.4305C9.44028 22.3477 9.38431 22.2918 9.30158 22.2626C9.22371 22.2334 9.09718 22.2139 8.92198 22.2042V22.0582C9.12638 22.0728 9.43785 22.0801 9.85638 22.0801C10.2457 22.0801 10.5547 22.0728 10.7835 22.0582V22.2042ZM13.5228 22.2042C13.3476 22.2139 13.2187 22.2334 13.1359 22.2626C13.0581 22.2918 13.0045 22.3477 12.9753 22.4305C12.9461 22.5132 12.9315 22.647 12.9315 22.832V26.4528C12.9315 26.6377 12.9461 26.7715 12.9753 26.8543C13.0045 26.937 13.0581 26.993 13.1359 27.0222C13.2187 27.0465 13.3476 27.0587 13.5228 27.0587H14.0557C14.3575 27.0587 14.5862 27.0173 14.7419 26.9346C14.9025 26.847 15.0193 26.7083 15.0923 26.5185C15.1653 26.3287 15.2189 26.0537 15.2529 25.6936H15.4208C15.4062 25.8444 15.3989 26.044 15.3989 26.2922C15.3989 26.5696 15.416 26.881 15.45 27.2266C15.1191 27.212 14.5619 27.2047 13.7783 27.2047C12.8439 27.2047 12.1383 27.212 11.6613 27.2266V27.0806C11.8365 27.0708 11.9631 27.0514 12.0409 27.0222C12.1237 26.993 12.1796 26.937 12.2088 26.8543C12.238 26.7715 12.2526 26.6377 12.2526 26.4528V22.832C12.2526 22.647 12.238 22.5132 12.2088 22.4305C12.1796 22.3477 12.1237 22.2918 12.0409 22.2626C11.9631 22.2334 11.8365 22.2139 11.6613 22.2042V22.0582C11.8657 22.0728 12.1772 22.0801 12.5957 22.0801C12.9851 22.0801 13.2941 22.0728 13.5228 22.0582V22.2042ZM21.9637 22.2042C21.7885 22.2139 21.6595 22.2334 21.5768 22.2626C21.4989 22.2918 21.4454 22.3477 21.4162 22.4305C21.387 22.5132 21.3724 22.647 21.3724 22.832V26.4528C21.3724 26.6377 21.387 26.7715 21.4162 26.8543C21.4454 26.937 21.4989 26.993 21.5768 27.0222C21.6595 27.0514 21.7885 27.0708 21.9637 27.0806V27.2266C21.7398 27.212 21.4308 27.2047 21.0366 27.2047C20.618 27.2047 20.3066 27.212 20.1022 27.2266V27.0806C20.2774 27.0708 20.4039 27.0514 20.4818 27.0222C20.5645 26.993 20.6205 26.937 20.6497 26.8543C20.6789 26.7715 20.6935 26.6377 20.6935 26.4528V22.54L18.9342 27.2631H18.8174L16.9778 22.5254V26.3798C16.9778 26.5696 16.9924 26.7107 17.0216 26.8032C17.0556 26.8956 17.1189 26.9638 17.2114 27.0076C17.3038 27.0465 17.4474 27.0708 17.6421 27.0806V27.2266C17.4669 27.212 17.2187 27.2047 16.8975 27.2047C16.6055 27.2047 16.3792 27.212 16.2186 27.2266V27.0806C16.3889 27.0708 16.5154 27.0465 16.5982 27.0076C16.6809 26.9638 16.7369 26.8956 16.7661 26.8032C16.7953 26.7058 16.8099 26.5647 16.8099 26.3798V22.832C16.8099 22.647 16.7953 22.5132 16.7661 22.4305C16.7369 22.3477 16.6809 22.2918 16.5982 22.2626C16.5203 22.2334 16.3938 22.2139 16.2186 22.2042V22.0582C16.3792 22.0728 16.6055 22.0801 16.8975 22.0801C17.1505 22.0801 17.3574 22.0728 17.518 22.0582L19.124 26.2849L20.6935 22.0801H21.0366C21.4308 22.0801 21.7398 22.0728 21.9637 22.0582V22.2042ZM25.1878 21.956C25.6502 21.956 26.0541 22.0606 26.3996 22.2699C26.75 22.4791 27.0201 22.7833 27.2099 23.1824C27.4046 23.5766 27.5019 24.0486 27.5019 24.5986C27.5019 25.1339 27.4022 25.6084 27.2026 26.0221C27.008 26.4357 26.733 26.7569 26.3777 26.9857C26.0273 27.2144 25.6283 27.3288 25.1805 27.3288C24.7182 27.3288 24.3118 27.2241 23.9614 27.0149C23.6159 26.8056 23.3458 26.5039 23.1511 26.1097C22.9613 25.7106 22.8664 25.2361 22.8664 24.6862C22.8664 24.1508 22.9638 23.6763 23.1584 23.2627C23.358 22.849 23.6329 22.5278 23.9833 22.2991C24.3386 22.0703 24.7401 21.956 25.1878 21.956ZM25.1586 22.0874C24.8472 22.0874 24.5722 22.1969 24.3337 22.4159C24.1001 22.63 23.9176 22.9317 23.7862 23.3211C23.6597 23.7104 23.5964 24.1557 23.5964 24.657C23.5964 25.1631 23.667 25.6084 23.8081 25.9929C23.9541 26.3773 24.1488 26.6742 24.3921 26.8835C24.6355 27.0927 24.908 27.1974 25.2097 27.1974C25.5212 27.1974 25.7937 27.0903 26.0273 26.8762C26.2658 26.6572 26.4483 26.353 26.5748 25.9637C26.7062 25.5743 26.7719 25.129 26.7719 24.6278C26.7719 24.1216 26.6989 23.6763 26.5529 23.2919C26.4118 22.9074 26.2196 22.6105 25.9762 22.4013C25.7329 22.192 25.4604 22.0874 25.1586 22.0874ZM30.2671 22.2042C30.0919 22.2139 29.9629 22.2334 29.8802 22.2626C29.8023 22.2918 29.7488 22.3477 29.7196 22.4305C29.6904 22.5132 29.6758 22.647 29.6758 22.832V26.4528C29.6758 26.6377 29.6904 26.7715 29.7196 26.8543C29.7488 26.937 29.8023 26.993 29.8802 27.0222C29.9629 27.0514 30.0919 27.0708 30.2671 27.0806V27.2266C30.0432 27.212 29.7342 27.2047 29.34 27.2047C28.9214 27.2047 28.61 27.212 28.4056 27.2266V27.0806C28.5808 27.0708 28.7073 27.0514 28.7852 27.0222C28.8679 26.993 28.9239 26.937 28.9531 26.8543C28.9823 26.7715 28.9969 26.6377 28.9969 26.4528V22.832C28.9969 22.647 28.9823 22.5132 28.9531 22.4305C28.9239 22.3477 28.8679 22.2918 28.7852 22.2626C28.7073 22.2334 28.5808 22.2139 28.4056 22.2042V22.0582C28.61 22.0728 28.9214 22.0801 29.34 22.0801C29.7293 22.0801 30.0383 22.0728 30.2671 22.0582V22.2042ZM35.1599 22.0582C35.1259 22.4037 35.1088 22.7152 35.1088 22.9926C35.1088 23.2359 35.1161 23.4354 35.1307 23.5912H34.9628C34.9239 23.2164 34.8752 22.939 34.8168 22.759C34.7584 22.574 34.6562 22.4402 34.5102 22.3575C34.3642 22.2699 34.1404 22.2261 33.8386 22.2261H33.4444V26.3798C33.4444 26.5842 33.4639 26.7326 33.5028 26.8251C33.5418 26.9175 33.6099 26.9808 33.7072 27.0149C33.8046 27.0489 33.9627 27.0708 34.1817 27.0806V27.2266C33.9287 27.212 33.571 27.2047 33.1086 27.2047C32.622 27.2047 32.2618 27.212 32.0282 27.2266V27.0806C32.2472 27.0708 32.4054 27.0489 32.5027 27.0149C32.6001 26.9808 32.6682 26.9175 32.7071 26.8251C32.7461 26.7326 32.7655 26.5842 32.7655 26.3798V22.2261H32.3713C32.0696 22.2261 31.8457 22.2699 31.6997 22.3575C31.5537 22.4402 31.4515 22.574 31.3931 22.759C31.3347 22.939 31.2861 23.2164 31.2471 23.5912H31.0792C31.0938 23.4354 31.1011 23.2359 31.1011 22.9926C31.1011 22.7152 31.0841 22.4037 31.05 22.0582C31.454 22.0728 32.1402 22.0801 33.1086 22.0801C34.0722 22.0801 34.756 22.0728 35.1599 22.0582ZM40.4194 22.2042C40.2491 22.2139 40.1226 22.2407 40.0398 22.2845C39.9571 22.3234 39.9011 22.3915 39.8719 22.4889C39.8427 22.5813 39.8281 22.72 39.8281 22.905V25.1023C39.8281 25.4527 39.8038 25.7544 39.7551 26.0075C39.7113 26.2557 39.6359 26.4698 39.5288 26.6499C39.4072 26.8591 39.2271 27.0246 38.9886 27.1463C38.755 27.2679 38.4898 27.3288 38.1929 27.3288C37.6576 27.3288 37.2488 27.1974 36.9665 26.9346C36.7524 26.735 36.6088 26.5087 36.5358 26.2557C36.4628 26.0026 36.4263 25.6254 36.4263 25.1242V22.832C36.4263 22.647 36.4117 22.5132 36.3825 22.4305C36.3533 22.3477 36.2974 22.2918 36.2146 22.2626C36.1368 22.2334 36.0102 22.2139 35.835 22.2042V22.0582C36.0394 22.0728 36.3509 22.0801 36.7694 22.0801C37.1636 22.0801 37.4727 22.0728 37.6965 22.0582V22.2042C37.5213 22.2139 37.3924 22.2334 37.3096 22.2626C37.2318 22.2918 37.1782 22.3477 37.149 22.4305C37.1198 22.5132 37.1052 22.647 37.1052 22.832V25.2483C37.1052 25.6376 37.132 25.9612 37.1855 26.2192C37.2391 26.4771 37.3486 26.6839 37.514 26.8397C37.6844 26.9954 37.9326 27.0733 38.2586 27.0733C38.7745 27.0733 39.1371 26.9078 39.3463 26.5769C39.5556 26.2459 39.6602 25.7812 39.6602 25.1826V22.905C39.6602 22.6422 39.6116 22.4621 39.5142 22.3648C39.4218 22.2674 39.249 22.2139 38.9959 22.2042V22.0582C39.1711 22.0728 39.4193 22.0801 39.7405 22.0801C40.0325 22.0801 40.2588 22.0728 40.4194 22.0582V22.2042ZM45.0113 26.6353C45.0941 26.7569 45.1841 26.8543 45.2814 26.9273C45.3836 26.9954 45.5077 27.0465 45.6537 27.0806V27.2266C45.4201 27.212 45.1281 27.2047 44.7777 27.2047C44.5149 27.2047 44.2643 27.212 44.0258 27.2266V27.0806C44.1426 27.0757 44.2278 27.0611 44.2813 27.0368C44.3349 27.0124 44.3616 26.9759 44.3616 26.9273C44.3616 26.8786 44.3373 26.8202 44.2886 26.7521L43.2228 25.1461C43.0817 24.9319 42.9625 24.7932 42.8651 24.73C42.7678 24.6618 42.6315 24.6229 42.4563 24.6132V26.4528C42.4563 26.6377 42.4709 26.7715 42.5001 26.8543C42.5293 26.937 42.5829 26.993 42.6607 27.0222C42.7435 27.0514 42.8724 27.0708 43.0476 27.0806V27.2266C42.8238 27.212 42.5147 27.2047 42.1205 27.2047C41.702 27.2047 41.3905 27.212 41.1861 27.2266V27.0806C41.3613 27.0708 41.4879 27.0514 41.5657 27.0222C41.6485 26.993 41.7044 26.937 41.7336 26.8543C41.7628 26.7715 41.7774 26.6377 41.7774 26.4528V22.832C41.7774 22.647 41.7628 22.5132 41.7336 22.4305C41.7044 22.3477 41.6485 22.2918 41.5657 22.2626C41.4879 22.2334 41.3613 22.2139 41.1861 22.2042V22.0582C41.3905 22.0728 41.702 22.0801 42.1205 22.0801C42.5099 22.0801 42.8189 22.0728 43.0476 22.0582V22.2042C42.8724 22.2139 42.7435 22.2334 42.6607 22.2626C42.5829 22.2918 42.5293 22.3477 42.5001 22.4305C42.4709 22.5132 42.4563 22.647 42.4563 22.832V24.4672C42.8116 24.4526 43.089 24.3163 43.2885 24.0584L43.9893 23.1678C44.2375 22.8612 44.3616 22.6276 44.3616 22.467C44.3616 22.2966 44.2108 22.209 43.909 22.2042V22.0582C44.1864 22.0728 44.4663 22.0801 44.7485 22.0801C45.0162 22.0801 45.223 22.0728 45.369 22.0582V22.2042C45.2084 22.2285 45.0576 22.282 44.9164 22.3648C44.7753 22.4426 44.639 22.5667 44.5076 22.7371L43.3177 24.2628L45.0113 26.6353ZM47.7975 21.9779C48.0116 21.9779 48.1795 22.0022 48.3012 22.0509C48.4277 22.0947 48.5567 22.1604 48.6881 22.248C48.7951 22.3161 48.8779 22.3502 48.9363 22.3502C48.9801 22.3502 49.0141 22.3258 49.0385 22.2772C49.0628 22.2236 49.0823 22.1409 49.0969 22.029H49.2648C49.2404 22.3112 49.2283 22.8076 49.2283 23.5182H49.0604C49.0312 23.124 48.9168 22.793 48.7173 22.5254C48.5226 22.2528 48.2379 22.1166 47.8632 22.1166C47.6004 22.1166 47.3862 22.1969 47.2208 22.3575C47.0553 22.5132 46.9726 22.7152 46.9726 22.9634C46.9726 23.1483 47.0139 23.3089 47.0967 23.4452C47.1843 23.5814 47.2938 23.6982 47.4252 23.7956C47.5566 23.8929 47.7439 24.017 47.9873 24.1679L48.199 24.2993C48.5056 24.4891 48.7465 24.657 48.9217 24.803C49.1017 24.9441 49.2453 25.1071 49.3524 25.2921C49.4594 25.477 49.513 25.6936 49.513 25.9418C49.513 26.3846 49.367 26.7277 49.075 26.9711C48.783 27.2095 48.4131 27.3288 47.9654 27.3288C47.7318 27.3288 47.5395 27.3044 47.3887 27.2558C47.2427 27.2071 47.1015 27.1414 46.9653 27.0587C46.8582 26.9905 46.7755 26.9565 46.7171 26.9565C46.6733 26.9565 46.6392 26.9832 46.6149 27.0368C46.5905 27.0854 46.5711 27.1657 46.5565 27.2777H46.3886C46.408 27.01 46.4178 26.426 46.4178 25.5257H46.5857C46.6197 26.0172 46.7414 26.4163 46.9507 26.7229C47.1599 27.0295 47.4811 27.1828 47.9143 27.1828C48.1771 27.1828 48.4009 27.1025 48.5859 26.9419C48.7708 26.7764 48.8633 26.5331 48.8633 26.2119C48.8633 25.9393 48.7708 25.7082 48.5859 25.5184C48.4058 25.3286 48.1187 25.1144 47.7245 24.876C47.4373 24.7008 47.2037 24.545 47.0237 24.4088C46.8485 24.2725 46.7049 24.1095 46.593 23.9197C46.481 23.725 46.4251 23.4987 46.4251 23.2408C46.4251 22.832 46.5565 22.5205 46.8193 22.3064C47.0821 22.0874 47.4081 21.9779 47.7975 21.9779ZM54.1808 26.2922C54.1808 26.5696 54.1978 26.881 54.2319 27.2266C53.9009 27.212 53.3437 27.2047 52.5602 27.2047C51.6258 27.2047 50.9201 27.212 50.4432 27.2266V27.0806C50.6184 27.0708 50.7449 27.0514 50.8228 27.0222C50.9055 26.993 50.9615 26.937 50.9907 26.8543C51.0199 26.7715 51.0345 26.6377 51.0345 26.4528V22.832C51.0345 22.647 51.0199 22.5132 50.9907 22.4305C50.9615 22.3477 50.9055 22.2918 50.8228 22.2626C50.7449 22.2334 50.6184 22.2139 50.4432 22.2042V22.0582C50.9201 22.0728 51.6258 22.0801 52.5602 22.0801C53.2756 22.0801 53.7841 22.0728 54.0859 22.0582C54.0518 22.3794 54.0348 22.6665 54.0348 22.9196C54.0348 23.1094 54.0421 23.2602 54.0567 23.3722H53.8888C53.8547 23.0558 53.8109 22.8222 53.7574 22.6714C53.7038 22.5156 53.6138 22.4037 53.4873 22.3356C53.3607 22.2626 53.1685 22.2261 52.9106 22.2261H52.3047C52.1295 22.2261 52.0005 22.2407 51.9178 22.2699C51.8399 22.2942 51.7864 22.3477 51.7572 22.4305C51.728 22.5132 51.7134 22.647 51.7134 22.832V24.5548H52.1952C52.3655 24.5548 52.4969 24.5158 52.5894 24.438C52.6818 24.3552 52.7427 24.2603 52.7719 24.1533C52.8059 24.0413 52.8327 23.9026 52.8522 23.7372L52.8741 23.5912H53.042C53.0274 23.7956 53.0201 24.0243 53.0201 24.2774V24.6278C53.0201 24.876 53.0347 25.2215 53.0639 25.6644H52.896C52.8911 25.6303 52.8765 25.5135 52.8522 25.314C52.8278 25.1096 52.7597 24.9563 52.6478 24.8541C52.5407 24.7519 52.3898 24.7008 52.1952 24.7008H51.7134V26.4528C51.7134 26.6377 51.728 26.7715 51.7572 26.8543C51.7864 26.937 51.8399 26.993 51.9178 27.0222C52.0005 27.0465 52.1295 27.0587 52.3047 27.0587H52.8376C53.1393 27.0587 53.368 27.0197 53.5238 26.9419C53.6844 26.8591 53.8012 26.7302 53.8742 26.555C53.9472 26.3749 54.0007 26.1121 54.0348 25.7666H54.2027C54.1881 25.898 54.1808 26.0732 54.1808 26.2922ZM59.1722 22.0582C59.1382 22.4037 59.1211 22.7152 59.1211 22.9926C59.1211 23.2359 59.1284 23.4354 59.143 23.5912H58.9751C58.9362 23.2164 58.8875 22.939 58.8291 22.759C58.7707 22.574 58.6685 22.4402 58.5225 22.3575C58.3765 22.2699 58.1527 22.2261 57.8509 22.2261H57.4567V26.3798C57.4567 26.5842 57.4762 26.7326 57.5151 26.8251C57.5541 26.9175 57.6222 26.9808 57.7195 27.0149C57.8169 27.0489 57.975 27.0708 58.194 27.0806V27.2266C57.941 27.212 57.5833 27.2047 57.1209 27.2047C56.6343 27.2047 56.2741 27.212 56.0405 27.2266V27.0806C56.2595 27.0708 56.4177 27.0489 56.515 27.0149C56.6124 26.9808 56.6805 26.9175 56.7194 26.8251C56.7584 26.7326 56.7778 26.5842 56.7778 26.3798V22.2261H56.3836C56.0819 22.2261 55.858 22.2699 55.712 22.3575C55.566 22.4402 55.4638 22.574 55.4054 22.759C55.347 22.939 55.2984 23.2164 55.2594 23.5912H55.0915C55.1061 23.4354 55.1134 23.2359 55.1134 22.9926C55.1134 22.7152 55.0964 22.4037 55.0623 22.0582C55.4663 22.0728 56.1525 22.0801 57.1209 22.0801C58.0845 22.0801 58.7683 22.0728 59.1722 22.0582Z"/>
</mask>
<path d="M10.7835 22.2042C10.6083 22.2139 10.4793 22.2334 10.3966 22.2626C10.3187 22.2918 10.2652 22.3477 10.236 22.4305C10.2068 22.5132 10.1922 22.647 10.1922 22.832V26.4528C10.1922 26.6377 10.2068 26.7715 10.236 26.8543C10.2652 26.937 10.3187 26.993 10.3966 27.0222C10.4793 27.0514 10.6083 27.0708 10.7835 27.0806V27.2266C10.5596 27.212 10.2506 27.2047 9.85638 27.2047C9.43785 27.2047 9.12638 27.212 8.92198 27.2266V27.0806C9.09718 27.0708 9.22371 27.0514 9.30158 27.0222C9.38431 26.993 9.44028 26.937 9.46948 26.8543C9.49868 26.7715 9.51328 26.6377 9.51328 26.4528V22.832C9.51328 22.647 9.49868 22.5132 9.46948 22.4305C9.44028 22.3477 9.38431 22.2918 9.30158 22.2626C9.22371 22.2334 9.09718 22.2139 8.92198 22.2042V22.0582C9.12638 22.0728 9.43785 22.0801 9.85638 22.0801C10.2457 22.0801 10.5547 22.0728 10.7835 22.0582V22.2042ZM13.5228 22.2042C13.3476 22.2139 13.2187 22.2334 13.1359 22.2626C13.0581 22.2918 13.0045 22.3477 12.9753 22.4305C12.9461 22.5132 12.9315 22.647 12.9315 22.832V26.4528C12.9315 26.6377 12.9461 26.7715 12.9753 26.8543C13.0045 26.937 13.0581 26.993 13.1359 27.0222C13.2187 27.0465 13.3476 27.0587 13.5228 27.0587H14.0557C14.3575 27.0587 14.5862 27.0173 14.7419 26.9346C14.9025 26.847 15.0193 26.7083 15.0923 26.5185C15.1653 26.3287 15.2189 26.0537 15.2529 25.6936H15.4208C15.4062 25.8444 15.3989 26.044 15.3989 26.2922C15.3989 26.5696 15.416 26.881 15.45 27.2266C15.1191 27.212 14.5619 27.2047 13.7783 27.2047C12.8439 27.2047 12.1383 27.212 11.6613 27.2266V27.0806C11.8365 27.0708 11.9631 27.0514 12.0409 27.0222C12.1237 26.993 12.1796 26.937 12.2088 26.8543C12.238 26.7715 12.2526 26.6377 12.2526 26.4528V22.832C12.2526 22.647 12.238 22.5132 12.2088 22.4305C12.1796 22.3477 12.1237 22.2918 12.0409 22.2626C11.9631 22.2334 11.8365 22.2139 11.6613 22.2042V22.0582C11.8657 22.0728 12.1772 22.0801 12.5957 22.0801C12.9851 22.0801 13.2941 22.0728 13.5228 22.0582V22.2042ZM21.9637 22.2042C21.7885 22.2139 21.6595 22.2334 21.5768 22.2626C21.4989 22.2918 21.4454 22.3477 21.4162 22.4305C21.387 22.5132 21.3724 22.647 21.3724 22.832V26.4528C21.3724 26.6377 21.387 26.7715 21.4162 26.8543C21.4454 26.937 21.4989 26.993 21.5768 27.0222C21.6595 27.0514 21.7885 27.0708 21.9637 27.0806V27.2266C21.7398 27.212 21.4308 27.2047 21.0366 27.2047C20.618 27.2047 20.3066 27.212 20.1022 27.2266V27.0806C20.2774 27.0708 20.4039 27.0514 20.4818 27.0222C20.5645 26.993 20.6205 26.937 20.6497 26.8543C20.6789 26.7715 20.6935 26.6377 20.6935 26.4528V22.54L18.9342 27.2631H18.8174L16.9778 22.5254V26.3798C16.9778 26.5696 16.9924 26.7107 17.0216 26.8032C17.0556 26.8956 17.1189 26.9638 17.2114 27.0076C17.3038 27.0465 17.4474 27.0708 17.6421 27.0806V27.2266C17.4669 27.212 17.2187 27.2047 16.8975 27.2047C16.6055 27.2047 16.3792 27.212 16.2186 27.2266V27.0806C16.3889 27.0708 16.5154 27.0465 16.5982 27.0076C16.6809 26.9638 16.7369 26.8956 16.7661 26.8032C16.7953 26.7058 16.8099 26.5647 16.8099 26.3798V22.832C16.8099 22.647 16.7953 22.5132 16.7661 22.4305C16.7369 22.3477 16.6809 22.2918 16.5982 22.2626C16.5203 22.2334 16.3938 22.2139 16.2186 22.2042V22.0582C16.3792 22.0728 16.6055 22.0801 16.8975 22.0801C17.1505 22.0801 17.3574 22.0728 17.518 22.0582L19.124 26.2849L20.6935 22.0801H21.0366C21.4308 22.0801 21.7398 22.0728 21.9637 22.0582V22.2042ZM25.1878 21.956C25.6502 21.956 26.0541 22.0606 26.3996 22.2699C26.75 22.4791 27.0201 22.7833 27.2099 23.1824C27.4046 23.5766 27.5019 24.0486 27.5019 24.5986C27.5019 25.1339 27.4022 25.6084 27.2026 26.0221C27.008 26.4357 26.733 26.7569 26.3777 26.9857C26.0273 27.2144 25.6283 27.3288 25.1805 27.3288C24.7182 27.3288 24.3118 27.2241 23.9614 27.0149C23.6159 26.8056 23.3458 26.5039 23.1511 26.1097C22.9613 25.7106 22.8664 25.2361 22.8664 24.6862C22.8664 24.1508 22.9638 23.6763 23.1584 23.2627C23.358 22.849 23.6329 22.5278 23.9833 22.2991C24.3386 22.0703 24.7401 21.956 25.1878 21.956ZM25.1586 22.0874C24.8472 22.0874 24.5722 22.1969 24.3337 22.4159C24.1001 22.63 23.9176 22.9317 23.7862 23.3211C23.6597 23.7104 23.5964 24.1557 23.5964 24.657C23.5964 25.1631 23.667 25.6084 23.8081 25.9929C23.9541 26.3773 24.1488 26.6742 24.3921 26.8835C24.6355 27.0927 24.908 27.1974 25.2097 27.1974C25.5212 27.1974 25.7937 27.0903 26.0273 26.8762C26.2658 26.6572 26.4483 26.353 26.5748 25.9637C26.7062 25.5743 26.7719 25.129 26.7719 24.6278C26.7719 24.1216 26.6989 23.6763 26.5529 23.2919C26.4118 22.9074 26.2196 22.6105 25.9762 22.4013C25.7329 22.192 25.4604 22.0874 25.1586 22.0874ZM30.2671 22.2042C30.0919 22.2139 29.9629 22.2334 29.8802 22.2626C29.8023 22.2918 29.7488 22.3477 29.7196 22.4305C29.6904 22.5132 29.6758 22.647 29.6758 22.832V26.4528C29.6758 26.6377 29.6904 26.7715 29.7196 26.8543C29.7488 26.937 29.8023 26.993 29.8802 27.0222C29.9629 27.0514 30.0919 27.0708 30.2671 27.0806V27.2266C30.0432 27.212 29.7342 27.2047 29.34 27.2047C28.9214 27.2047 28.61 27.212 28.4056 27.2266V27.0806C28.5808 27.0708 28.7073 27.0514 28.7852 27.0222C28.8679 26.993 28.9239 26.937 28.9531 26.8543C28.9823 26.7715 28.9969 26.6377 28.9969 26.4528V22.832C28.9969 22.647 28.9823 22.5132 28.9531 22.4305C28.9239 22.3477 28.8679 22.2918 28.7852 22.2626C28.7073 22.2334 28.5808 22.2139 28.4056 22.2042V22.0582C28.61 22.0728 28.9214 22.0801 29.34 22.0801C29.7293 22.0801 30.0383 22.0728 30.2671 22.0582V22.2042ZM35.1599 22.0582C35.1259 22.4037 35.1088 22.7152 35.1088 22.9926C35.1088 23.2359 35.1161 23.4354 35.1307 23.5912H34.9628C34.9239 23.2164 34.8752 22.939 34.8168 22.759C34.7584 22.574 34.6562 22.4402 34.5102 22.3575C34.3642 22.2699 34.1404 22.2261 33.8386 22.2261H33.4444V26.3798C33.4444 26.5842 33.4639 26.7326 33.5028 26.8251C33.5418 26.9175 33.6099 26.9808 33.7072 27.0149C33.8046 27.0489 33.9627 27.0708 34.1817 27.0806V27.2266C33.9287 27.212 33.571 27.2047 33.1086 27.2047C32.622 27.2047 32.2618 27.212 32.0282 27.2266V27.0806C32.2472 27.0708 32.4054 27.0489 32.5027 27.0149C32.6001 26.9808 32.6682 26.9175 32.7071 26.8251C32.7461 26.7326 32.7655 26.5842 32.7655 26.3798V22.2261H32.3713C32.0696 22.2261 31.8457 22.2699 31.6997 22.3575C31.5537 22.4402 31.4515 22.574 31.3931 22.759C31.3347 22.939 31.2861 23.2164 31.2471 23.5912H31.0792C31.0938 23.4354 31.1011 23.2359 31.1011 22.9926C31.1011 22.7152 31.0841 22.4037 31.05 22.0582C31.454 22.0728 32.1402 22.0801 33.1086 22.0801C34.0722 22.0801 34.756 22.0728 35.1599 22.0582ZM40.4194 22.2042C40.2491 22.2139 40.1226 22.2407 40.0398 22.2845C39.9571 22.3234 39.9011 22.3915 39.8719 22.4889C39.8427 22.5813 39.8281 22.72 39.8281 22.905V25.1023C39.8281 25.4527 39.8038 25.7544 39.7551 26.0075C39.7113 26.2557 39.6359 26.4698 39.5288 26.6499C39.4072 26.8591 39.2271 27.0246 38.9886 27.1463C38.755 27.2679 38.4898 27.3288 38.1929 27.3288C37.6576 27.3288 37.2488 27.1974 36.9665 26.9346C36.7524 26.735 36.6088 26.5087 36.5358 26.2557C36.4628 26.0026 36.4263 25.6254 36.4263 25.1242V22.832C36.4263 22.647 36.4117 22.5132 36.3825 22.4305C36.3533 22.3477 36.2974 22.2918 36.2146 22.2626C36.1368 22.2334 36.0102 22.2139 35.835 22.2042V22.0582C36.0394 22.0728 36.3509 22.0801 36.7694 22.0801C37.1636 22.0801 37.4727 22.0728 37.6965 22.0582V22.2042C37.5213 22.2139 37.3924 22.2334 37.3096 22.2626C37.2318 22.2918 37.1782 22.3477 37.149 22.4305C37.1198 22.5132 37.1052 22.647 37.1052 22.832V25.2483C37.1052 25.6376 37.132 25.9612 37.1855 26.2192C37.2391 26.4771 37.3486 26.6839 37.514 26.8397C37.6844 26.9954 37.9326 27.0733 38.2586 27.0733C38.7745 27.0733 39.1371 26.9078 39.3463 26.5769C39.5556 26.2459 39.6602 25.7812 39.6602 25.1826V22.905C39.6602 22.6422 39.6116 22.4621 39.5142 22.3648C39.4218 22.2674 39.249 22.2139 38.9959 22.2042V22.0582C39.1711 22.0728 39.4193 22.0801 39.7405 22.0801C40.0325 22.0801 40.2588 22.0728 40.4194 22.0582V22.2042ZM45.0113 26.6353C45.0941 26.7569 45.1841 26.8543 45.2814 26.9273C45.3836 26.9954 45.5077 27.0465 45.6537 27.0806V27.2266C45.4201 27.212 45.1281 27.2047 44.7777 27.2047C44.5149 27.2047 44.2643 27.212 44.0258 27.2266V27.0806C44.1426 27.0757 44.2278 27.0611 44.2813 27.0368C44.3349 27.0124 44.3616 26.9759 44.3616 26.9273C44.3616 26.8786 44.3373 26.8202 44.2886 26.7521L43.2228 25.1461C43.0817 24.9319 42.9625 24.7932 42.8651 24.73C42.7678 24.6618 42.6315 24.6229 42.4563 24.6132V26.4528C42.4563 26.6377 42.4709 26.7715 42.5001 26.8543C42.5293 26.937 42.5829 26.993 42.6607 27.0222C42.7435 27.0514 42.8724 27.0708 43.0476 27.0806V27.2266C42.8238 27.212 42.5147 27.2047 42.1205 27.2047C41.702 27.2047 41.3905 27.212 41.1861 27.2266V27.0806C41.3613 27.0708 41.4879 27.0514 41.5657 27.0222C41.6485 26.993 41.7044 26.937 41.7336 26.8543C41.7628 26.7715 41.7774 26.6377 41.7774 26.4528V22.832C41.7774 22.647 41.7628 22.5132 41.7336 22.4305C41.7044 22.3477 41.6485 22.2918 41.5657 22.2626C41.4879 22.2334 41.3613 22.2139 41.1861 22.2042V22.0582C41.3905 22.0728 41.702 22.0801 42.1205 22.0801C42.5099 22.0801 42.8189 22.0728 43.0476 22.0582V22.2042C42.8724 22.2139 42.7435 22.2334 42.6607 22.2626C42.5829 22.2918 42.5293 22.3477 42.5001 22.4305C42.4709 22.5132 42.4563 22.647 42.4563 22.832V24.4672C42.8116 24.4526 43.089 24.3163 43.2885 24.0584L43.9893 23.1678C44.2375 22.8612 44.3616 22.6276 44.3616 22.467C44.3616 22.2966 44.2108 22.209 43.909 22.2042V22.0582C44.1864 22.0728 44.4663 22.0801 44.7485 22.0801C45.0162 22.0801 45.223 22.0728 45.369 22.0582V22.2042C45.2084 22.2285 45.0576 22.282 44.9164 22.3648C44.7753 22.4426 44.639 22.5667 44.5076 22.7371L43.3177 24.2628L45.0113 26.6353ZM47.7975 21.9779C48.0116 21.9779 48.1795 22.0022 48.3012 22.0509C48.4277 22.0947 48.5567 22.1604 48.6881 22.248C48.7951 22.3161 48.8779 22.3502 48.9363 22.3502C48.9801 22.3502 49.0141 22.3258 49.0385 22.2772C49.0628 22.2236 49.0823 22.1409 49.0969 22.029H49.2648C49.2404 22.3112 49.2283 22.8076 49.2283 23.5182H49.0604C49.0312 23.124 48.9168 22.793 48.7173 22.5254C48.5226 22.2528 48.2379 22.1166 47.8632 22.1166C47.6004 22.1166 47.3862 22.1969 47.2208 22.3575C47.0553 22.5132 46.9726 22.7152 46.9726 22.9634C46.9726 23.1483 47.0139 23.3089 47.0967 23.4452C47.1843 23.5814 47.2938 23.6982 47.4252 23.7956C47.5566 23.8929 47.7439 24.017 47.9873 24.1679L48.199 24.2993C48.5056 24.4891 48.7465 24.657 48.9217 24.803C49.1017 24.9441 49.2453 25.1071 49.3524 25.2921C49.4594 25.477 49.513 25.6936 49.513 25.9418C49.513 26.3846 49.367 26.7277 49.075 26.9711C48.783 27.2095 48.4131 27.3288 47.9654 27.3288C47.7318 27.3288 47.5395 27.3044 47.3887 27.2558C47.2427 27.2071 47.1015 27.1414 46.9653 27.0587C46.8582 26.9905 46.7755 26.9565 46.7171 26.9565C46.6733 26.9565 46.6392 26.9832 46.6149 27.0368C46.5905 27.0854 46.5711 27.1657 46.5565 27.2777H46.3886C46.408 27.01 46.4178 26.426 46.4178 25.5257H46.5857C46.6197 26.0172 46.7414 26.4163 46.9507 26.7229C47.1599 27.0295 47.4811 27.1828 47.9143 27.1828C48.1771 27.1828 48.4009 27.1025 48.5859 26.9419C48.7708 26.7764 48.8633 26.5331 48.8633 26.2119C48.8633 25.9393 48.7708 25.7082 48.5859 25.5184C48.4058 25.3286 48.1187 25.1144 47.7245 24.876C47.4373 24.7008 47.2037 24.545 47.0237 24.4088C46.8485 24.2725 46.7049 24.1095 46.593 23.9197C46.481 23.725 46.4251 23.4987 46.4251 23.2408C46.4251 22.832 46.5565 22.5205 46.8193 22.3064C47.0821 22.0874 47.4081 21.9779 47.7975 21.9779ZM54.1808 26.2922C54.1808 26.5696 54.1978 26.881 54.2319 27.2266C53.9009 27.212 53.3437 27.2047 52.5602 27.2047C51.6258 27.2047 50.9201 27.212 50.4432 27.2266V27.0806C50.6184 27.0708 50.7449 27.0514 50.8228 27.0222C50.9055 26.993 50.9615 26.937 50.9907 26.8543C51.0199 26.7715 51.0345 26.6377 51.0345 26.4528V22.832C51.0345 22.647 51.0199 22.5132 50.9907 22.4305C50.9615 22.3477 50.9055 22.2918 50.8228 22.2626C50.7449 22.2334 50.6184 22.2139 50.4432 22.2042V22.0582C50.9201 22.0728 51.6258 22.0801 52.5602 22.0801C53.2756 22.0801 53.7841 22.0728 54.0859 22.0582C54.0518 22.3794 54.0348 22.6665 54.0348 22.9196C54.0348 23.1094 54.0421 23.2602 54.0567 23.3722H53.8888C53.8547 23.0558 53.8109 22.8222 53.7574 22.6714C53.7038 22.5156 53.6138 22.4037 53.4873 22.3356C53.3607 22.2626 53.1685 22.2261 52.9106 22.2261H52.3047C52.1295 22.2261 52.0005 22.2407 51.9178 22.2699C51.8399 22.2942 51.7864 22.3477 51.7572 22.4305C51.728 22.5132 51.7134 22.647 51.7134 22.832V24.5548H52.1952C52.3655 24.5548 52.4969 24.5158 52.5894 24.438C52.6818 24.3552 52.7427 24.2603 52.7719 24.1533C52.8059 24.0413 52.8327 23.9026 52.8522 23.7372L52.8741 23.5912H53.042C53.0274 23.7956 53.0201 24.0243 53.0201 24.2774V24.6278C53.0201 24.876 53.0347 25.2215 53.0639 25.6644H52.896C52.8911 25.6303 52.8765 25.5135 52.8522 25.314C52.8278 25.1096 52.7597 24.9563 52.6478 24.8541C52.5407 24.7519 52.3898 24.7008 52.1952 24.7008H51.7134V26.4528C51.7134 26.6377 51.728 26.7715 51.7572 26.8543C51.7864 26.937 51.8399 26.993 51.9178 27.0222C52.0005 27.0465 52.1295 27.0587 52.3047 27.0587H52.8376C53.1393 27.0587 53.368 27.0197 53.5238 26.9419C53.6844 26.8591 53.8012 26.7302 53.8742 26.555C53.9472 26.3749 54.0007 26.1121 54.0348 25.7666H54.2027C54.1881 25.898 54.1808 26.0732 54.1808 26.2922ZM59.1722 22.0582C59.1382 22.4037 59.1211 22.7152 59.1211 22.9926C59.1211 23.2359 59.1284 23.4354 59.143 23.5912H58.9751C58.9362 23.2164 58.8875 22.939 58.8291 22.759C58.7707 22.574 58.6685 22.4402 58.5225 22.3575C58.3765 22.2699 58.1527 22.2261 57.8509 22.2261H57.4567V26.3798C57.4567 26.5842 57.4762 26.7326 57.5151 26.8251C57.5541 26.9175 57.6222 26.9808 57.7195 27.0149C57.8169 27.0489 57.975 27.0708 58.194 27.0806V27.2266C57.941 27.212 57.5833 27.2047 57.1209 27.2047C56.6343 27.2047 56.2741 27.212 56.0405 27.2266V27.0806C56.2595 27.0708 56.4177 27.0489 56.515 27.0149C56.6124 26.9808 56.6805 26.9175 56.7194 26.8251C56.7584 26.7326 56.7778 26.5842 56.7778 26.3798V22.2261H56.3836C56.0819 22.2261 55.858 22.2699 55.712 22.3575C55.566 22.4402 55.4638 22.574 55.4054 22.759C55.347 22.939 55.2984 23.2164 55.2594 23.5912H55.0915C55.1061 23.4354 55.1134 23.2359 55.1134 22.9926C55.1134 22.7152 55.0964 22.4037 55.0623 22.0582C55.4663 22.0728 56.1525 22.0801 57.1209 22.0801C58.0845 22.0801 58.7683 22.0728 59.1722 22.0582Z" fill="#FEF5EB"/>
<path d="M10.7835 22.2042L10.7947 22.4066L10.9862 22.3959V22.2042H10.7835ZM10.3966 22.2626L10.3291 22.0713L10.3254 22.0727L10.3966 22.2626ZM10.236 22.4305L10.4272 22.4979V22.4979L10.236 22.4305ZM10.236 26.8543L10.4272 26.7868V26.7868L10.236 26.8543ZM10.3966 27.0222L10.3254 27.212L10.3291 27.2133L10.3966 27.0222ZM10.7835 27.0806H10.9862V26.8888L10.7947 26.8781L10.7835 27.0806ZM10.7835 27.2266L10.7703 27.4289L10.9862 27.443V27.2266H10.7835ZM8.92198 27.2266H8.71924V27.4443L8.93642 27.4288L8.92198 27.2266ZM8.92198 27.0806L8.91073 26.8781L8.71924 26.8888V27.0806H8.92198ZM9.30158 27.0222L9.23409 26.8309L9.23039 26.8323L9.30158 27.0222ZM9.46948 22.4305L9.2783 22.4979H9.2783L9.46948 22.4305ZM9.30158 22.2626L9.23038 22.4524L9.2341 22.4537L9.30158 22.2626ZM8.92198 22.2042H8.71924V22.3959L8.91073 22.4066L8.92198 22.2042ZM8.92198 22.0582L8.93642 21.8559L8.71924 21.8404V22.0582H8.92198ZM10.7835 22.0582H10.9862V21.8421L10.7706 21.8558L10.7835 22.0582ZM10.7722 22.0017C10.593 22.0117 10.4402 22.0322 10.3291 22.0714L10.4641 22.4537C10.5185 22.4345 10.6236 22.4161 10.7947 22.4066L10.7722 22.0017ZM10.3254 22.0727C10.188 22.1243 10.0927 22.2273 10.0448 22.363L10.4272 22.4979C10.4377 22.4682 10.4495 22.4593 10.4678 22.4524L10.3254 22.0727ZM10.0448 22.363C10.0034 22.4803 9.98944 22.6437 9.98944 22.832H10.3949C10.3949 22.6503 10.4102 22.546 10.4272 22.4979L10.0448 22.363ZM9.98944 22.832V26.4528H10.3949V22.832H9.98944ZM9.98944 26.4528C9.98944 26.641 10.0034 26.8044 10.0448 26.9217L10.4272 26.7868C10.4102 26.7387 10.3949 26.6344 10.3949 26.4528H9.98944ZM10.0448 26.9217C10.0927 27.0574 10.188 27.1605 10.3254 27.212L10.4678 26.8323C10.4495 26.8255 10.4377 26.8166 10.4272 26.7868L10.0448 26.9217ZM10.3291 27.2133C10.4402 27.2525 10.593 27.273 10.7722 27.283L10.7947 26.8781C10.6236 26.8686 10.5185 26.8502 10.4641 26.831L10.3291 27.2133ZM10.5807 27.0806V27.2266H10.9862V27.0806H10.5807ZM10.7967 27.0243C10.5663 27.0092 10.2522 27.0019 9.85638 27.0019V27.4074C10.2489 27.4074 10.5529 27.4147 10.7703 27.4289L10.7967 27.0243ZM9.85638 27.0019C9.4369 27.0019 9.11947 27.0092 8.90753 27.0243L8.93642 27.4288C9.13328 27.4147 9.43879 27.4074 9.85638 27.4074V27.0019ZM9.12472 27.2266V27.0806H8.71924V27.2266H9.12472ZM8.93323 27.283C9.11141 27.2731 9.26421 27.2527 9.37277 27.212L9.23039 26.8323C9.18321 26.85 9.08295 26.8686 8.91073 26.8781L8.93323 27.283ZM9.36905 27.2133C9.50961 27.1637 9.61105 27.0623 9.66066 26.9217L9.2783 26.7868C9.26951 26.8117 9.25902 26.8222 9.2341 26.831L9.36905 27.2133ZM9.66066 26.9217C9.70208 26.8044 9.71602 26.641 9.71602 26.4528H9.31054C9.31054 26.6344 9.29528 26.7387 9.2783 26.7868L9.66066 26.9217ZM9.71602 26.4528V22.832H9.31054V26.4528H9.71602ZM9.71602 22.832C9.71602 22.6437 9.70208 22.4803 9.66066 22.363L9.2783 22.4979C9.29528 22.546 9.31054 22.6503 9.31054 22.832H9.71602ZM9.66066 22.363C9.61105 22.2224 9.50961 22.121 9.36905 22.0714L9.2341 22.4537C9.25902 22.4625 9.26951 22.473 9.2783 22.4979L9.66066 22.363ZM9.37277 22.0727C9.26421 22.032 9.11141 22.0116 8.93323 22.0017L8.91073 22.4066C9.08295 22.4162 9.18321 22.4347 9.23039 22.4524L9.37277 22.0727ZM9.12472 22.2042V22.0582H8.71924V22.2042H9.12472ZM8.90754 22.2604C9.11947 22.2755 9.4369 22.2828 9.85638 22.2828V21.8773C9.43879 21.8773 9.13328 21.87 8.93642 21.8559L8.90754 22.2604ZM9.85638 22.2828C10.2475 22.2828 10.5614 22.2755 10.7964 22.2605L10.7706 21.8558C10.5481 21.87 10.2439 21.8773 9.85638 21.8773V22.2828ZM10.5807 22.0582V22.2042H10.9862V22.0582H10.5807ZM13.5228 22.2042L13.5341 22.4066L13.7256 22.3959V22.2042H13.5228ZM13.1359 22.2626L13.0684 22.0713L13.0647 22.0727L13.1359 22.2626ZM12.9753 22.4305L13.1665 22.4979V22.4979L12.9753 22.4305ZM12.9753 26.8543L13.1665 26.7868V26.7868L12.9753 26.8543ZM13.1359 27.0222L13.0647 27.212L13.0717 27.2146L13.0787 27.2167L13.1359 27.0222ZM14.7419 26.9346L14.8371 27.1136L14.839 27.1125L14.7419 26.9346ZM15.0923 26.5185L15.2816 26.5912H15.2816L15.0923 26.5185ZM15.2529 25.6936V25.4908H15.0685L15.0511 25.6745L15.2529 25.6936ZM15.4208 25.6936L15.6226 25.7131L15.6441 25.4908H15.4208V25.6936ZM15.45 27.2266L15.4411 27.4291L15.6747 27.4394L15.6518 27.2067L15.45 27.2266ZM11.6613 27.2266H11.4586V27.4356L11.6675 27.4292L11.6613 27.2266ZM11.6613 27.0806L11.6501 26.8781L11.4586 26.8888V27.0806H11.6613ZM12.0409 27.0222L11.9734 26.8309L11.9697 26.8323L12.0409 27.0222ZM12.2088 22.4305L12.0177 22.4979V22.4979L12.2088 22.4305ZM12.0409 22.2626L11.9697 22.4524L11.9735 22.4537L12.0409 22.2626ZM11.6613 22.2042H11.4586V22.3959L11.6501 22.4066L11.6613 22.2042ZM11.6613 22.0582L11.6758 21.8559L11.4586 21.8404V22.0582H11.6613ZM13.5228 22.0582H13.7256V21.8421L13.5099 21.8558L13.5228 22.0582ZM13.5116 22.0017C13.3323 22.0117 13.1795 22.0322 13.0685 22.0714L13.2034 22.4537C13.2578 22.4345 13.3629 22.4161 13.5341 22.4066L13.5116 22.0017ZM13.0647 22.0727C12.9273 22.1243 12.832 22.2273 12.7842 22.363L13.1665 22.4979C13.177 22.4682 13.1888 22.4593 13.2071 22.4524L13.0647 22.0727ZM12.7842 22.363C12.7427 22.4803 12.7288 22.6437 12.7288 22.832H13.1343C13.1343 22.6503 13.1495 22.546 13.1665 22.4979L12.7842 22.363ZM12.7288 22.832V26.4528H13.1343V22.832H12.7288ZM12.7288 26.4528C12.7288 26.641 12.7427 26.8044 12.7842 26.9217L13.1665 26.7868C13.1495 26.7387 13.1343 26.6344 13.1343 26.4528H12.7288ZM12.7842 26.9217C12.832 27.0574 12.9273 27.1605 13.0647 27.212L13.2071 26.8323C13.1888 26.8255 13.177 26.8166 13.1665 26.7868L12.7842 26.9217ZM13.0787 27.2167C13.1907 27.2496 13.3439 27.2614 13.5228 27.2614V26.8559C13.3514 26.8559 13.2467 26.8434 13.1931 26.8277L13.0787 27.2167ZM13.5228 27.2614H14.0557V26.8559H13.5228V27.2614ZM14.0557 27.2614C14.3701 27.2614 14.6381 27.2193 14.837 27.1136L14.6468 26.7555C14.5343 26.8153 14.3448 26.8559 14.0557 26.8559V27.2614ZM14.839 27.1125C15.0466 26.9993 15.1934 26.8206 15.2816 26.5912L14.9031 26.4457C14.8453 26.596 14.7585 26.6946 14.6449 26.7566L14.839 27.1125ZM15.2816 26.5912C15.3644 26.3758 15.4201 26.0793 15.4548 25.7127L15.0511 25.6745C15.0176 26.0281 14.9662 26.2815 14.9031 26.4457L15.2816 26.5912ZM15.2529 25.8963H15.4208V25.4908H15.2529V25.8963ZM15.219 25.674C15.2035 25.8342 15.1962 26.041 15.1962 26.2922H15.6017C15.6017 26.0469 15.6089 25.8547 15.6226 25.7131L15.219 25.674ZM15.1962 26.2922C15.1962 26.5776 15.2137 26.8959 15.2483 27.2465L15.6518 27.2067C15.6182 26.8662 15.6017 26.5615 15.6017 26.2922H15.1962ZM15.459 27.024C15.1231 27.0092 14.5619 27.0019 13.7783 27.0019V27.4074C14.5618 27.4074 15.1151 27.4147 15.4411 27.4291L15.459 27.024ZM13.7783 27.0019C12.8434 27.0019 12.1353 27.0092 11.6551 27.0239L11.6675 27.4292C12.1413 27.4147 12.8444 27.4074 13.7783 27.4074V27.0019ZM11.8641 27.2266V27.0806H11.4586V27.2266H11.8641ZM11.6726 27.283C11.8508 27.2731 12.0036 27.2527 12.1121 27.212L11.9697 26.8323C11.9226 26.85 11.8223 26.8686 11.6501 26.8781L11.6726 27.283ZM12.1084 27.2133C12.249 27.1637 12.3504 27.0623 12.4 26.9217L12.0177 26.7868C12.0089 26.8117 11.9984 26.8222 11.9735 26.831L12.1084 27.2133ZM12.4 26.9217C12.4414 26.8044 12.4554 26.641 12.4554 26.4528H12.0499C12.0499 26.6344 12.0346 26.7387 12.0177 26.7868L12.4 26.9217ZM12.4554 26.4528V22.832H12.0499V26.4528H12.4554ZM12.4554 22.832C12.4554 22.6437 12.4414 22.4803 12.4 22.363L12.0177 22.4979C12.0346 22.546 12.0499 22.6503 12.0499 22.832H12.4554ZM12.4 22.363C12.3504 22.2224 12.249 22.121 12.1084 22.0714L11.9735 22.4537C11.9984 22.4625 12.0089 22.473 12.0177 22.4979L12.4 22.363ZM12.1121 22.0727C12.0036 22.032 11.8508 22.0116 11.6726 22.0017L11.6501 22.4066C11.8223 22.4162 11.9226 22.4347 11.9697 22.4524L12.1121 22.0727ZM11.8641 22.2042V22.0582H11.4586V22.2042H11.8641ZM11.6469 22.2604C11.8588 22.2755 12.1763 22.2828 12.5957 22.2828V21.8773C12.1781 21.8773 11.8726 21.87 11.6758 21.8559L11.6469 22.2604ZM12.5957 22.2828C12.9869 22.2828 13.3008 22.2755 13.5357 22.2605L13.5099 21.8558C13.2874 21.87 12.9833 21.8773 12.5957 21.8773V22.2828ZM13.3201 22.0582V22.2042H13.7256V22.0582H13.3201ZM21.9637 22.2042L21.9749 22.4066L22.1664 22.3959V22.2042H21.9637ZM21.5768 22.2626L21.5093 22.0713L21.5056 22.0727L21.5768 22.2626ZM21.4162 22.4305L21.225 22.363V22.363L21.4162 22.4305ZM21.4162 26.8543L21.225 26.9217V26.9217L21.4162 26.8543ZM21.5768 27.0222L21.5056 27.212L21.5093 27.2133L21.5768 27.0222ZM21.9637 27.0806H22.1664V26.8888L21.9749 26.8781L21.9637 27.0806ZM21.9637 27.2266L21.9505 27.4289L22.1664 27.443V27.2266H21.9637ZM20.1022 27.2266H19.8994V27.4443L20.1166 27.4288L20.1022 27.2266ZM20.1022 27.0806L20.0909 26.8781L19.8994 26.8888V27.0806H20.1022ZM20.4818 27.0222L20.4143 26.8309L20.4106 26.8323L20.4818 27.0222ZM20.6497 26.8543L20.8408 26.9217H20.8408L20.6497 26.8543ZM20.6935 22.54H20.8962L20.5035 22.4692L20.6935 22.54ZM18.9342 27.2631V27.4658H19.075L19.1241 27.3338L18.9342 27.2631ZM18.8174 27.2631L18.6284 27.3364L18.6786 27.4658H18.8174V27.2631ZM16.9778 22.5254L17.1668 22.452L16.775 22.5254H16.9778ZM17.0216 26.8032L16.828 26.8643L16.8313 26.8732L17.0216 26.8032ZM17.2114 27.0076L17.1245 27.191L17.1327 27.1944L17.2114 27.0076ZM17.6421 27.0806H17.8448V26.8877L17.6522 26.8781L17.6421 27.0806ZM17.6421 27.2266L17.6252 27.4286L17.8448 27.4469V27.2266H17.6421ZM16.2186 27.2266H16.0158V27.4486L16.2369 27.4285L16.2186 27.2266ZM16.2186 27.0806L16.207 26.8782L16.0158 26.8891V27.0806H16.2186ZM16.5982 27.0076L16.6846 27.1912L16.693 27.1867L16.5982 27.0076ZM16.7661 26.8032L16.9594 26.8642L16.9602 26.8614L16.7661 26.8032ZM16.7661 22.4305L16.5749 22.4979V22.4979L16.7661 22.4305ZM16.5982 22.2626L16.527 22.4524L16.5307 22.4537L16.5982 22.2626ZM16.2186 22.2042H16.0158V22.3959L16.2073 22.4066L16.2186 22.2042ZM16.2186 22.0582L16.2369 21.8563L16.0158 21.8362V22.0582H16.2186ZM17.518 22.0582L17.7075 21.9862L17.6528 21.8423L17.4996 21.8563L17.518 22.0582ZM19.124 26.2849L18.9344 26.3569L19.1256 26.8601L19.3139 26.3558L19.124 26.2849ZM20.6935 22.0801V21.8773H20.5527L20.5035 22.0092L20.6935 22.0801ZM21.9637 22.0582H22.1664V21.8418L21.9505 21.8559L21.9637 22.0582ZM21.9524 22.0017C21.7732 22.0117 21.6203 22.0322 21.5093 22.0714L21.6442 22.4537C21.6986 22.4345 21.8038 22.4161 21.9749 22.4066L21.9524 22.0017ZM21.5056 22.0727C21.3682 22.1243 21.2729 22.2273 21.225 22.363L21.6073 22.4979C21.6178 22.4682 21.6296 22.4593 21.6479 22.4524L21.5056 22.0727ZM21.225 22.363C21.1836 22.4803 21.1696 22.6437 21.1696 22.832H21.5751C21.5751 22.6503 21.5904 22.546 21.6073 22.4979L21.225 22.363ZM21.1696 22.832V26.4528H21.5751V22.832H21.1696ZM21.1696 26.4528C21.1696 26.641 21.1836 26.8044 21.225 26.9217L21.6073 26.7868C21.5904 26.7387 21.5751 26.6344 21.5751 26.4528H21.1696ZM21.225 26.9217C21.2729 27.0574 21.3682 27.1605 21.5056 27.212L21.6479 26.8323C21.6296 26.8255 21.6178 26.8166 21.6073 26.7868L21.225 26.9217ZM21.5093 27.2133C21.6203 27.2525 21.7732 27.273 21.9524 27.283L21.9749 26.8781C21.8038 26.8686 21.6986 26.8502 21.6442 26.831L21.5093 27.2133ZM21.7609 27.0806V27.2266H22.1664V27.0806H21.7609ZM21.9769 27.0243C21.7465 27.0092 21.4324 27.0019 21.0366 27.0019V27.4074C21.4291 27.4074 21.7331 27.4147 21.9505 27.4289L21.9769 27.0243ZM21.0366 27.0019C20.6171 27.0019 20.2997 27.0092 20.0877 27.0243L20.1166 27.4288C20.3135 27.4147 20.619 27.4074 21.0366 27.4074V27.0019ZM20.3049 27.2266V27.0806H19.8994V27.2266H20.3049ZM20.1134 27.283C20.2916 27.2731 20.4444 27.2527 20.5529 27.212L20.4106 26.8323C20.3634 26.85 20.2631 26.8686 20.0909 26.8781L20.1134 27.283ZM20.5492 27.2133C20.6898 27.1637 20.7912 27.0623 20.8408 26.9217L20.4585 26.7868C20.4497 26.8117 20.4392 26.8222 20.4143 26.831L20.5492 27.2133ZM20.8408 26.9217C20.8823 26.8044 20.8962 26.641 20.8962 26.4528H20.4907C20.4907 26.6344 20.4755 26.7387 20.4585 26.7868L20.8408 26.9217ZM20.8962 26.4528V22.54H20.4907V26.4528H20.8962ZM20.5035 22.4692L18.7442 27.1923L19.1241 27.3338L20.8834 22.6107L20.5035 22.4692ZM18.9342 27.0603H18.8174V27.4658H18.9342V27.0603ZM19.0064 27.1897L17.1668 22.452L16.7888 22.5987L18.6284 27.3364L19.0064 27.1897ZM16.775 22.5254V26.3798H17.1805V22.5254H16.775ZM16.775 26.3798C16.775 26.5744 16.7894 26.7411 16.8282 26.8642L17.2149 26.7421C17.1954 26.6803 17.1805 26.5647 17.1805 26.3798H16.775ZM16.8313 26.8732C16.8845 27.0176 16.9862 27.1252 17.1246 27.1908L17.2982 26.8243C17.2516 26.8023 17.2268 26.7737 17.2118 26.7331L16.8313 26.8732ZM17.1327 27.1944C17.2589 27.2475 17.4316 27.273 17.6319 27.283L17.6522 26.8781C17.4632 26.8686 17.3488 26.8454 17.29 26.8207L17.1327 27.1944ZM17.4393 27.0806V27.2266H17.8448V27.0806H17.4393ZM17.6589 27.0245C17.4753 27.0092 17.2205 27.0019 16.8975 27.0019V27.4074C17.2168 27.4074 17.4584 27.4147 17.6252 27.4286L17.6589 27.0245ZM16.8975 27.0019C16.6034 27.0019 16.3699 27.0092 16.2002 27.0247L16.2369 27.4285C16.3884 27.4147 16.6075 27.4074 16.8975 27.4074V27.0019ZM16.4213 27.2266V27.0806H16.0158V27.2266H16.4213ZM16.2301 27.283C16.4079 27.2728 16.5659 27.2468 16.6845 27.191L16.5118 26.8241C16.4649 26.8462 16.3699 26.8688 16.207 26.8782L16.2301 27.283ZM16.693 27.1867C16.8247 27.117 16.9148 27.0054 16.9594 26.8642L16.5727 26.7421C16.5589 26.7858 16.5371 26.8105 16.5033 26.8284L16.693 27.1867ZM16.9602 26.8614C16.998 26.7357 17.0126 26.5711 17.0126 26.3798H16.6071C16.6071 26.5583 16.5925 26.676 16.5719 26.7449L16.9602 26.8614ZM17.0126 26.3798V22.832H16.6071V26.3798H17.0126ZM17.0126 22.832C17.0126 22.6437 16.9987 22.4803 16.9572 22.363L16.5749 22.4979C16.5919 22.546 16.6071 22.6503 16.6071 22.832H17.0126ZM16.9572 22.363C16.9076 22.2224 16.8062 22.121 16.6656 22.0714L16.5307 22.4537C16.5556 22.4625 16.5661 22.473 16.5749 22.4979L16.9572 22.363ZM16.6693 22.0727C16.5608 22.032 16.408 22.0116 16.2298 22.0017L16.2073 22.4066C16.3795 22.4162 16.4798 22.4347 16.527 22.4524L16.6693 22.0727ZM16.4213 22.2042V22.0582H16.0158V22.2042H16.4213ZM16.2002 22.2601C16.3699 22.2755 16.6034 22.2828 16.8975 22.2828V21.8773C16.6075 21.8773 16.3884 21.87 16.2369 21.8563L16.2002 22.2601ZM16.8975 22.2828C17.1536 22.2828 17.3672 22.2754 17.5363 22.2601L17.4996 21.8563C17.3475 21.8701 17.1474 21.8773 16.8975 21.8773V22.2828ZM17.3284 22.1302L18.9344 26.3569L19.3135 26.2129L17.7075 21.9862L17.3284 22.1302ZM19.3139 26.3558L20.8834 22.151L20.5035 22.0092L18.934 26.214L19.3139 26.3558ZM20.6935 22.2828H21.0366V21.8773H20.6935V22.2828ZM21.0366 22.2828C21.4324 22.2828 21.7465 22.2755 21.9769 22.2605L21.9505 21.8559C21.7331 21.87 21.4291 21.8773 21.0366 21.8773V22.2828ZM21.7609 22.0582V22.2042H22.1664V22.0582H21.7609ZM26.3996 22.2699L26.2946 22.4433L26.2957 22.4439L26.3996 22.2699ZM27.2099 23.1824L27.0268 23.2694L27.0282 23.2721L27.2099 23.1824ZM27.2026 26.0221L27.02 25.934L27.0192 25.9357L27.2026 26.0221ZM26.3777 26.9857L26.268 26.8152L26.2669 26.8159L26.3777 26.9857ZM23.9614 27.0149L23.8564 27.1883L23.8575 27.1889L23.9614 27.0149ZM23.1511 26.1097L22.968 26.1967L22.9694 26.1994L23.1511 26.1097ZM23.1584 23.2627L22.9758 23.1746L22.975 23.1763L23.1584 23.2627ZM23.9833 22.2991L23.8736 22.1286L23.8725 22.1293L23.9833 22.2991ZM24.3337 22.4159L24.4707 22.5653L24.4709 22.5652L24.3337 22.4159ZM23.7862 23.3211L23.5941 23.2562L23.5934 23.2584L23.7862 23.3211ZM23.8081 25.9929L23.6178 26.0627L23.6186 26.0648L23.8081 25.9929ZM24.3921 26.8835L24.5243 26.7297V26.7297L24.3921 26.8835ZM26.0273 26.8762L26.1643 27.0256L26.1645 27.0255L26.0273 26.8762ZM26.5748 25.9637L26.3827 25.8988L26.382 25.901L26.5748 25.9637ZM26.5529 23.2919L26.3626 23.3617L26.3634 23.3638L26.5529 23.2919ZM25.9762 22.4013L25.844 22.555V22.555L25.9762 22.4013ZM25.1878 22.1587C25.6186 22.1587 25.9851 22.2558 26.2946 22.4433L26.5047 22.0964C26.1231 21.8654 25.6817 21.7532 25.1878 21.7532V22.1587ZM26.2957 22.4439C26.6088 22.6309 26.8528 22.9034 27.0269 23.2694L27.393 23.0953C27.1875 22.6632 26.8912 22.3273 26.5036 22.0958L26.2957 22.4439ZM27.0282 23.2721C27.206 23.6323 27.2992 24.0721 27.2992 24.5986H27.7047C27.7047 24.0251 27.6032 23.5208 27.3917 23.0926L27.0282 23.2721ZM27.2992 24.5986C27.2992 25.1084 27.2043 25.552 27.02 25.934L27.3852 26.1101C27.6001 25.6648 27.7047 25.1594 27.7047 24.5986H27.2992ZM27.0192 25.9357C26.8393 26.3179 26.5887 26.6087 26.268 26.8152L26.4875 27.1561C26.8773 26.9051 27.1766 26.5535 27.3861 26.1084L27.0192 25.9357ZM26.2669 26.8159C25.9518 27.0216 25.5918 27.126 25.1805 27.126V27.5315C25.6647 27.5315 26.1029 27.4072 26.4886 27.1554L26.2669 26.8159ZM25.1805 27.126C24.7498 27.126 24.3804 27.0289 24.0654 26.8408L23.8575 27.1889C24.2433 27.4193 24.6866 27.5315 25.1805 27.5315V27.126ZM24.0665 26.8414C23.7569 26.6539 23.5121 26.3827 23.3329 26.0199L22.9694 26.1994C23.1796 26.6251 23.4749 26.9572 23.8564 27.1883L24.0665 26.8414ZM23.3342 26.0226C23.1601 25.6565 23.0692 25.2132 23.0692 24.6862H22.6637C22.6637 25.259 22.7626 25.7647 22.9681 26.1967L23.3342 26.0226ZM23.0692 24.6862C23.0692 24.1756 23.1619 23.7314 23.3419 23.349L22.975 23.1763C22.7656 23.6212 22.6637 24.1261 22.6637 24.6862H23.0692ZM23.341 23.3507C23.5261 22.967 23.7777 22.6754 24.0942 22.4688L23.8725 22.1293C23.4882 22.3802 23.1898 22.731 22.9758 23.1746L23.341 23.3507ZM24.0931 22.4695C24.4136 22.2631 24.7766 22.1587 25.1878 22.1587V21.7532C24.7036 21.7532 24.2636 21.8775 23.8736 22.1286L24.0931 22.4695ZM25.1586 21.8846C24.7942 21.8846 24.4709 22.0147 24.1966 22.2665L24.4709 22.5652C24.6736 22.379 24.9001 22.2901 25.1586 22.2901V21.8846ZM24.1967 22.2664C23.9315 22.5095 23.7333 22.8438 23.5941 23.2562L23.9783 23.3859C24.1019 23.0196 24.2687 22.7505 24.4707 22.5653L24.1967 22.2664ZM23.5934 23.2584C23.459 23.6719 23.3937 24.139 23.3937 24.657H23.7992C23.7992 24.1724 23.8604 23.7489 23.979 23.3837L23.5934 23.2584ZM23.3937 24.657C23.3937 25.1815 23.4668 25.6513 23.6178 26.0627L23.9985 25.923C23.8672 25.5655 23.7992 25.1447 23.7992 24.657H23.3937ZM23.6186 26.0648C23.7733 26.4722 23.9848 26.8005 24.2599 27.0372L24.5243 26.7297C24.3128 26.5479 24.135 26.2824 23.9977 25.9209L23.6186 26.0648ZM24.2599 27.0372C24.5375 27.2759 24.8562 27.4001 25.2097 27.4001V26.9946C24.9598 26.9946 24.7334 26.9096 24.5243 26.7297L24.2599 27.0372ZM25.2097 27.4001C25.5729 27.4001 25.8941 27.2734 26.1643 27.0256L25.8903 26.7267C25.6934 26.9072 25.4695 26.9946 25.2097 26.9946V27.4001ZM26.1645 27.0255C26.4346 26.7774 26.6331 26.4402 26.7677 26.0263L26.382 25.901C26.2635 26.2658 26.097 26.5369 25.8902 26.7268L26.1645 27.0255ZM26.7669 26.0285C26.9067 25.6143 26.9747 25.1464 26.9747 24.6278H26.5692C26.5692 25.1117 26.5057 25.5344 26.3827 25.8988L26.7669 26.0285ZM26.9747 24.6278C26.9747 24.1025 26.899 23.632 26.7425 23.2199L26.3634 23.3638C26.4989 23.7207 26.5692 24.1407 26.5692 24.6278H26.9747ZM26.7433 23.222C26.5934 22.8139 26.3842 22.4847 26.1084 22.2476L25.844 22.555C26.0549 22.7363 26.2302 23.0009 26.3626 23.3617L26.7433 23.222ZM26.1084 22.2476C25.8309 22.0088 25.5121 21.8846 25.1586 21.8846V22.2901C25.4086 22.2901 25.635 22.3752 25.844 22.555L26.1084 22.2476ZM30.2671 22.2042L30.2783 22.4066L30.4698 22.3959V22.2042H30.2671ZM29.8802 22.2626L29.8127 22.0713L29.809 22.0727L29.8802 22.2626ZM29.7196 22.4305L29.9108 22.4979V22.4979L29.7196 22.4305ZM29.7196 26.8543L29.9108 26.7868V26.7868L29.7196 26.8543ZM29.8802 27.0222L29.809 27.212L29.8127 27.2133L29.8802 27.0222ZM30.2671 27.0806H30.4698V26.8888L30.2783 26.8781L30.2671 27.0806ZM30.2671 27.2266L30.2539 27.4289L30.4698 27.443V27.2266H30.2671ZM28.4056 27.2266H28.2028V27.4443L28.42 27.4288L28.4056 27.2266ZM28.4056 27.0806L28.3943 26.8781L28.2028 26.8888V27.0806H28.4056ZM28.7852 27.0222L28.7177 26.8309L28.714 26.8323L28.7852 27.0222ZM28.9531 22.4305L28.7619 22.4979V22.4979L28.9531 22.4305ZM28.7852 22.2626L28.714 22.4524L28.7177 22.4537L28.7852 22.2626ZM28.4056 22.2042H28.2028V22.3959L28.3943 22.4066L28.4056 22.2042ZM28.4056 22.0582L28.42 21.8559L28.2028 21.8404V22.0582H28.4056ZM30.2671 22.0582H30.4698V21.8421L30.2542 21.8558L30.2671 22.0582ZM30.2558 22.0017C30.0766 22.0117 29.9238 22.0322 29.8127 22.0714L29.9476 22.4537C30.0021 22.4345 30.1072 22.4161 30.2783 22.4066L30.2558 22.0017ZM29.809 22.0727C29.6716 22.1243 29.5763 22.2273 29.5284 22.363L29.9108 22.4979C29.9213 22.4682 29.933 22.4593 29.9514 22.4524L29.809 22.0727ZM29.5284 22.363C29.487 22.4803 29.473 22.6437 29.473 22.832H29.8785C29.8785 22.6503 29.8938 22.546 29.9108 22.4979L29.5284 22.363ZM29.473 22.832V26.4528H29.8785V22.832H29.473ZM29.473 26.4528C29.473 26.641 29.487 26.8044 29.5284 26.9217L29.9108 26.7868C29.8938 26.7387 29.8785 26.6344 29.8785 26.4528H29.473ZM29.5284 26.9217C29.5763 27.0574 29.6716 27.1605 29.809 27.212L29.9514 26.8323C29.933 26.8255 29.9213 26.8166 29.9108 26.7868L29.5284 26.9217ZM29.8127 27.2133C29.9238 27.2525 30.0766 27.273 30.2558 27.283L30.2783 26.8781C30.1072 26.8686 30.0021 26.8502 29.9476 26.831L29.8127 27.2133ZM30.0643 27.0806V27.2266H30.4698V27.0806H30.0643ZM30.2803 27.0243C30.0499 27.0092 29.7358 27.0019 29.34 27.0019V27.4074C29.7325 27.4074 30.0365 27.4147 30.2539 27.4289L30.2803 27.0243ZM29.34 27.0019C28.9205 27.0019 28.6031 27.0092 28.3911 27.0243L28.42 27.4288C28.6169 27.4147 28.9224 27.4074 29.34 27.4074V27.0019ZM28.6083 27.2266V27.0806H28.2028V27.2266H28.6083ZM28.4168 27.283C28.595 27.2731 28.7478 27.2527 28.8564 27.212L28.714 26.8323C28.6668 26.85 28.5665 26.8686 28.3943 26.8781L28.4168 27.283ZM28.8526 27.2133C28.9932 27.1637 29.0946 27.0623 29.1443 26.9217L28.7619 26.7868C28.7531 26.8117 28.7426 26.8222 28.7177 26.831L28.8526 27.2133ZM29.1443 26.9217C29.1857 26.8044 29.1996 26.641 29.1996 26.4528H28.7941C28.7941 26.6344 28.7789 26.7387 28.7619 26.7868L29.1443 26.9217ZM29.1996 26.4528V22.832H28.7941V26.4528H29.1996ZM29.1996 22.832C29.1996 22.6437 29.1857 22.4803 29.1443 22.363L28.7619 22.4979C28.7789 22.546 28.7941 22.6503 28.7941 22.832H29.1996ZM29.1443 22.363C29.0946 22.2224 28.9932 22.121 28.8526 22.0714L28.7177 22.4537C28.7426 22.4625 28.7531 22.473 28.7619 22.4979L29.1443 22.363ZM28.8564 22.0727C28.7478 22.032 28.595 22.0116 28.4168 22.0017L28.3943 22.4066C28.5665 22.4162 28.6668 22.4347 28.714 22.4524L28.8564 22.0727ZM28.6083 22.2042V22.0582H28.2028V22.2042H28.6083ZM28.3911 22.2604C28.6031 22.2755 28.9205 22.2828 29.34 22.2828V21.8773C28.9224 21.8773 28.6169 21.87 28.42 21.8559L28.3911 22.2604ZM29.34 22.2828C29.7311 22.2828 30.045 22.2755 30.28 22.2605L30.2542 21.8558C30.0317 21.87 29.7275 21.8773 29.34 21.8773V22.2828ZM30.0643 22.0582V22.2042H30.4698V22.0582H30.0643ZM35.1599 22.0582L35.3617 22.0781L35.3845 21.8472L35.1526 21.8556L35.1599 22.0582ZM35.1307 23.5912V23.7939H35.3534L35.3326 23.5722L35.1307 23.5912ZM34.9628 23.5912L34.7612 23.6121L34.7801 23.7939H34.9628V23.5912ZM34.8168 22.759L34.6235 22.82L34.624 22.8215L34.8168 22.759ZM34.5102 22.3575L34.4059 22.5314L34.4103 22.5338L34.5102 22.3575ZM33.4444 22.2261V22.0233H33.2417V22.2261H33.4444ZM33.5028 26.8251L33.316 26.9037H33.316L33.5028 26.8251ZM33.7072 27.0149L33.6403 27.2062V27.2062L33.7072 27.0149ZM34.1817 27.0806H34.3845V26.8866L34.1907 26.878L34.1817 27.0806ZM34.1817 27.2266L34.1701 27.429L34.3845 27.4413V27.2266H34.1817ZM32.0282 27.2266H31.8255V27.4424L32.0409 27.4289L32.0282 27.2266ZM32.0282 27.0806L32.0192 26.878L31.8255 26.8866V27.0806H32.0282ZM32.5027 27.0149L32.5697 27.2062V27.2062L32.5027 27.0149ZM32.7071 26.8251L32.894 26.9037V26.9037L32.7071 26.8251ZM32.7655 22.2261H32.9683V22.0233H32.7655V22.2261ZM31.6997 22.3575L31.7997 22.5339L31.804 22.5313L31.6997 22.3575ZM31.3931 22.759L31.586 22.8215L31.5865 22.82L31.3931 22.759ZM31.2471 23.5912V23.7939H31.4299L31.4488 23.6121L31.2471 23.5912ZM31.0792 23.5912L30.8774 23.5722L30.8566 23.7939H31.0792V23.5912ZM31.05 22.0582L31.0574 21.8556L30.8255 21.8472L30.8483 22.0781L31.05 22.0582ZM34.9582 22.0383C34.9236 22.3889 34.9061 22.7071 34.9061 22.9926H35.3116C35.3116 22.7232 35.3281 22.4185 35.3617 22.0781L34.9582 22.0383ZM34.9061 22.9926C34.9061 23.2392 34.9135 23.4456 34.9289 23.6101L35.3326 23.5722C35.3188 23.4252 35.3116 23.2326 35.3116 22.9926H34.9061ZM35.1307 23.3884H34.9628V23.7939H35.1307V23.3884ZM35.1645 23.5702C35.1252 23.1923 35.0749 22.8975 35.0097 22.6964L34.624 22.8215C34.6756 22.9805 34.7226 23.2405 34.7612 23.6121L35.1645 23.5702ZM35.0102 22.6979C34.9389 22.4723 34.8077 22.293 34.6102 22.1811L34.4103 22.5338C34.5048 22.5874 34.578 22.6758 34.6235 22.82L35.0102 22.6979ZM34.6145 22.1836C34.4211 22.0676 34.1525 22.0233 33.8386 22.0233V22.4288C34.1282 22.4288 34.3074 22.4722 34.4059 22.5313L34.6145 22.1836ZM33.8386 22.0233H33.4444V22.4288H33.8386V22.0233ZM33.2417 22.2261V26.3798H33.6472V22.2261H33.2417ZM33.2417 26.3798C33.2417 26.589 33.2605 26.7719 33.316 26.9037L33.6897 26.7464C33.6673 26.6933 33.6472 26.5794 33.6472 26.3798H33.2417ZM33.316 26.9037C33.3778 27.0507 33.4905 27.1538 33.6403 27.2062L33.7742 26.8235C33.7292 26.8078 33.7057 26.7844 33.6897 26.7464L33.316 26.9037ZM33.6403 27.2062C33.7675 27.2507 33.951 27.2732 34.1727 27.2831L34.1907 26.878C33.9744 26.8684 33.8417 26.8471 33.7742 26.8235L33.6403 27.2062ZM33.979 27.0806V27.2266H34.3845V27.0806H33.979ZM34.1934 27.0242C33.9345 27.0092 33.5723 27.0019 33.1086 27.0019V27.4074C33.5697 27.4074 33.9228 27.4147 34.1701 27.429L34.1934 27.0242ZM33.1086 27.0019C32.6212 27.0019 32.2558 27.0092 32.0156 27.0242L32.0409 27.4289C32.2678 27.4147 32.6227 27.4074 33.1086 27.4074V27.0019ZM32.231 27.2266V27.0806H31.8255V27.2266H32.231ZM32.0372 27.2831C32.2589 27.2732 32.4425 27.2507 32.5697 27.2062L32.4358 26.8235C32.3683 26.8471 32.2355 26.8684 32.0192 26.878L32.0372 27.2831ZM32.5697 27.2062C32.7194 27.1538 32.8321 27.0507 32.894 26.9037L32.5203 26.7464C32.5043 26.7844 32.4807 26.8078 32.4358 26.8235L32.5697 27.2062ZM32.894 26.9037C32.9495 26.7719 32.9683 26.589 32.9683 26.3798H32.5628C32.5628 26.5794 32.5426 26.6933 32.5203 26.7464L32.894 26.9037ZM32.9683 26.3798V22.2261H32.5628V26.3798H32.9683ZM32.7655 22.0233H32.3713V22.4288H32.7655V22.0233ZM32.3713 22.0233C32.0574 22.0233 31.7889 22.0676 31.5954 22.1836L31.804 22.5313C31.9026 22.4722 32.0818 22.4288 32.3713 22.4288V22.0233ZM31.5998 22.1811C31.4023 22.293 31.2711 22.4723 31.1998 22.6979L31.5865 22.82C31.632 22.6758 31.7052 22.5874 31.7997 22.5338L31.5998 22.1811ZM31.2003 22.6964C31.1351 22.8975 31.0847 23.1923 31.0455 23.5702L31.4488 23.6121C31.4874 23.2405 31.5344 22.9805 31.586 22.8215L31.2003 22.6964ZM31.2471 23.3884H31.0792V23.7939H31.2471V23.3884ZM31.2811 23.6101C31.2965 23.4456 31.3039 23.2392 31.3039 22.9926H30.8984C30.8984 23.2326 30.8912 23.4252 30.8774 23.5722L31.2811 23.6101ZM31.3039 22.9926C31.3039 22.7071 31.2864 22.3889 31.2518 22.0383L30.8483 22.0781C30.8818 22.4185 30.8984 22.7232 30.8984 22.9926H31.3039ZM31.0427 22.2608C31.4507 22.2755 32.1401 22.2828 33.1086 22.2828V21.8773C32.1402 21.8773 31.4573 21.87 31.0574 21.8556L31.0427 22.2608ZM33.1086 22.2828C34.0723 22.2828 34.7593 22.2755 35.1673 22.2608L35.1526 21.8556C34.7527 21.87 34.0722 21.8773 33.1086 21.8773V22.2828ZM40.4194 22.2042L40.431 22.4066L40.6222 22.3956V22.2042H40.4194ZM40.0398 22.2845L40.1263 22.4681L40.1347 22.4636L40.0398 22.2845ZM39.8719 22.4889L40.0653 22.5499L40.0661 22.5471L39.8719 22.4889ZM39.7551 26.0075L39.556 25.9692L39.5555 25.9722L39.7551 26.0075ZM39.5288 26.6499L39.3546 26.5462L39.3536 26.548L39.5288 26.6499ZM38.9886 27.1463L38.8965 26.9657L38.895 26.9665L38.9886 27.1463ZM36.9665 26.9346L36.8283 27.0829L36.8284 27.0829L36.9665 26.9346ZM36.5358 26.2557L36.341 26.3119V26.3119L36.5358 26.2557ZM36.3825 22.4305L36.1914 22.4979V22.4979L36.3825 22.4305ZM36.2146 22.2626L36.1434 22.4524L36.1472 22.4537L36.2146 22.2626ZM35.835 22.2042H35.6323V22.3959L35.8238 22.4066L35.835 22.2042ZM35.835 22.0582L35.8495 21.8559L35.6323 21.8404V22.0582H35.835ZM37.6965 22.0582H37.8993V21.8418L37.6833 21.8559L37.6965 22.0582ZM37.6965 22.2042L37.7078 22.4066L37.8993 22.3959V22.2042H37.6965ZM37.3096 22.2626L37.2422 22.0713L37.2385 22.0727L37.3096 22.2626ZM37.149 22.4305L37.3402 22.4979H37.3402L37.149 22.4305ZM37.1855 26.2192L37.384 26.178V26.178L37.1855 26.2192ZM37.514 26.8397L37.3751 26.9873L37.3772 26.9893L37.514 26.8397ZM39.3463 26.5769L39.5177 26.6852V26.6852L39.3463 26.5769ZM39.5142 22.3648L39.3672 22.5044L39.3709 22.5081L39.5142 22.3648ZM38.9959 22.2042H38.7932V22.3993L38.9881 22.4067L38.9959 22.2042ZM38.9959 22.0582L39.0128 21.8561L38.7932 21.8378V22.0582H38.9959ZM40.4194 22.0582H40.6222V21.8362L40.4011 21.8563L40.4194 22.0582ZM40.4079 22.0018C40.2285 22.012 40.0667 22.0408 39.945 22.1053L40.1347 22.4636C40.1784 22.4405 40.2697 22.4158 40.431 22.4066L40.4079 22.0018ZM39.9535 22.101C39.8125 22.1674 39.7214 22.285 39.6778 22.4306L40.0661 22.5471C40.0808 22.4981 40.1017 22.4794 40.1262 22.4679L39.9535 22.101ZM39.6786 22.4278C39.6398 22.5506 39.6254 22.7145 39.6254 22.905H40.0309C40.0309 22.7256 40.0456 22.6121 40.0653 22.5499L39.6786 22.4278ZM39.6254 22.905V25.1023H40.0309V22.905H39.6254ZM39.6254 25.1023C39.6254 25.4441 39.6016 25.7323 39.5561 25.9692L39.9542 26.0457C40.006 25.7765 40.0309 25.4613 40.0309 25.1023H39.6254ZM39.5555 25.9722C39.5151 26.2011 39.4469 26.3911 39.3546 26.5462L39.7031 26.7535C39.825 26.5485 39.9076 26.3103 39.9548 26.0427L39.5555 25.9722ZM39.3536 26.548C39.2535 26.72 39.1041 26.8598 38.8965 26.9657L39.0808 27.3269C39.3501 27.1894 39.5608 26.9982 39.7041 26.7518L39.3536 26.548ZM38.895 26.9665C38.6938 27.0712 38.4614 27.126 38.1929 27.126V27.5315C38.5182 27.5315 38.8163 27.4646 39.0823 27.3261L38.895 26.9665ZM38.1929 27.126C37.6888 27.126 37.337 27.0024 37.1047 26.7862L36.8284 27.0829C37.1606 27.3923 37.6264 27.5315 38.1929 27.5315V27.126ZM37.1047 26.7862C36.9144 26.6089 36.7924 26.4134 36.7306 26.1995L36.341 26.3119C36.4253 26.604 36.5904 26.8612 36.8283 27.0829L37.1047 26.7862ZM36.7306 26.1995C36.6657 25.9744 36.6291 25.6203 36.6291 25.1242H36.2236C36.2236 25.6306 36.26 26.0308 36.341 26.3119L36.7306 26.1995ZM36.6291 25.1242V22.832H36.2236V25.1242H36.6291ZM36.6291 22.832C36.6291 22.6437 36.6151 22.4803 36.5737 22.363L36.1914 22.4979C36.2083 22.546 36.2236 22.6503 36.2236 22.832H36.6291ZM36.5737 22.363C36.5241 22.2224 36.4227 22.121 36.2821 22.0714L36.1472 22.4537C36.1721 22.4625 36.1826 22.473 36.1914 22.4979L36.5737 22.363ZM36.2858 22.0727C36.1773 22.032 36.0245 22.0116 35.8463 22.0017L35.8238 22.4066C35.996 22.4162 36.0963 22.4347 36.1435 22.4524L36.2858 22.0727ZM36.0378 22.2042V22.0582H35.6323V22.2042H36.0378ZM35.8206 22.2604C36.0325 22.2755 36.35 22.2828 36.7694 22.2828V21.8773C36.3519 21.8773 36.0463 21.87 35.8495 21.8559L35.8206 22.2604ZM36.7694 22.2828C37.1653 22.2828 37.4794 22.2755 37.7097 22.2605L37.6833 21.8559C37.466 21.87 37.162 21.8773 36.7694 21.8773V22.2828ZM37.4938 22.0582V22.2042H37.8993V22.0582H37.4938ZM37.6853 22.0017C37.506 22.0117 37.3532 22.0322 37.2422 22.0714L37.3771 22.4537C37.4315 22.4345 37.5366 22.4161 37.7078 22.4066L37.6853 22.0017ZM37.2385 22.0727C37.101 22.1243 37.0058 22.2273 36.9579 22.363L37.3402 22.4979C37.3507 22.4682 37.3625 22.4593 37.3808 22.4524L37.2385 22.0727ZM36.9579 22.363C36.9164 22.4803 36.9025 22.6437 36.9025 22.832H37.308C37.308 22.6503 37.3232 22.546 37.3402 22.4979L36.9579 22.363ZM36.9025 22.832V25.2483H37.308V22.832H36.9025ZM36.9025 25.2483C36.9025 25.6455 36.9297 25.9841 36.987 26.2604L37.384 26.178C37.3343 25.9383 37.308 25.6297 37.308 25.2483H36.9025ZM36.987 26.2604C37.0476 26.5524 37.1747 26.7987 37.3751 26.9873L37.653 26.692C37.5225 26.5692 37.4305 26.4018 37.384 26.178L36.987 26.2604ZM37.3772 26.9893C37.5979 27.191 37.9028 27.276 38.2586 27.276V26.8705C37.9623 26.8705 37.7708 26.7997 37.6508 26.69L37.3772 26.9893ZM38.2586 27.276C38.8192 27.276 39.2597 27.0932 39.5177 26.6852L39.175 26.4685C39.0144 26.7224 38.7298 26.8705 38.2586 26.8705V27.276ZM39.5177 26.6852C39.7556 26.309 39.863 25.8007 39.863 25.1826H39.4575C39.4575 25.7616 39.3556 26.1829 39.175 26.4685L39.5177 26.6852ZM39.863 25.1826V22.905H39.4575V25.1826H39.863ZM39.863 22.905C39.863 22.6318 39.8154 22.3792 39.6576 22.2214L39.3709 22.5081C39.4078 22.545 39.4575 22.6525 39.4575 22.905H39.863ZM39.6612 22.2251C39.5112 22.0673 39.268 22.0117 39.0037 22.0016L38.9881 22.4067C39.2301 22.4161 39.3323 22.4676 39.3673 22.5044L39.6612 22.2251ZM39.1987 22.2042V22.0582H38.7932V22.2042H39.1987ZM38.9791 22.2602C39.1627 22.2755 39.4175 22.2828 39.7405 22.2828V21.8773C39.4212 21.8773 39.1796 21.87 39.0128 21.8561L38.9791 22.2602ZM39.7405 22.2828C40.0346 22.2828 40.2681 22.2755 40.4378 22.2601L40.4011 21.8563C40.2496 21.87 40.0305 21.8773 39.7405 21.8773V22.2828ZM40.2167 22.0582V22.2042H40.6222V22.0582H40.2167ZM45.0113 26.6353L45.179 26.5212L45.1763 26.5175L45.0113 26.6353ZM45.2814 26.9273L45.1596 27.0897L45.169 27.0959L45.2814 26.9273ZM45.6537 27.0806H45.8565V26.9197L45.6998 26.8831L45.6537 27.0806ZM45.6537 27.2266L45.6411 27.4289L45.8565 27.4424V27.2266H45.6537ZM44.0258 27.2266H43.8231V27.4421L44.0382 27.4289L44.0258 27.2266ZM44.0258 27.0806L44.0174 26.878L43.8231 26.8861V27.0806H44.0258ZM44.2813 27.0368L44.3652 27.2213V27.2213L44.2813 27.0368ZM44.2886 26.7521L44.1196 26.8642L44.1237 26.8699L44.2886 26.7521ZM43.2228 25.1461L43.0536 25.2576L43.0539 25.2582L43.2228 25.1461ZM42.8651 24.73L42.7488 24.8961L42.7547 24.8999L42.8651 24.73ZM42.4563 24.6132L42.4676 24.4107L42.2536 24.3988V24.6132H42.4563ZM42.5001 26.8543L42.6913 26.7868V26.7868L42.5001 26.8543ZM42.6607 27.0222L42.5895 27.212L42.5933 27.2133L42.6607 27.0222ZM43.0476 27.0806H43.2504V26.8888L43.0589 26.8781L43.0476 27.0806ZM43.0476 27.2266L43.0344 27.4289L43.2504 27.443V27.2266H43.0476ZM41.1861 27.2266H40.9834V27.4443L41.2006 27.4288L41.1861 27.2266ZM41.1861 27.0806L41.1749 26.8781L40.9834 26.8888V27.0806H41.1861ZM41.5657 27.0222L41.4983 26.8309L41.4946 26.8323L41.5657 27.0222ZM41.7336 22.4305L41.5425 22.4979V22.4979L41.7336 22.4305ZM41.5657 22.2626L41.4945 22.4524L41.4983 22.4537L41.5657 22.2626ZM41.1861 22.2042H40.9834V22.3959L41.1749 22.4066L41.1861 22.2042ZM41.1861 22.0582L41.2006 21.8559L40.9834 21.8404V22.0582H41.1861ZM43.0476 22.0582H43.2504V21.8421L43.0347 21.8558L43.0476 22.0582ZM43.0476 22.2042L43.0589 22.4066L43.2504 22.3959V22.2042H43.0476ZM42.6607 22.2626L42.5933 22.0713L42.5896 22.0727L42.6607 22.2626ZM42.5001 22.4305L42.6913 22.4979V22.4979L42.5001 22.4305ZM42.4563 24.4672H42.2536V24.6784L42.4647 24.6697L42.4563 24.4672ZM43.2885 24.0584L43.1292 23.933L43.1282 23.9343L43.2885 24.0584ZM43.9893 23.1678L43.8317 23.0402L43.83 23.0424L43.9893 23.1678ZM43.909 22.2042H43.7063V22.4037L43.9058 22.4069L43.909 22.2042ZM43.909 22.0582L43.9197 21.8557L43.7063 21.8445V22.0582H43.909ZM45.369 22.0582H45.5718V21.8341L45.3489 21.8564L45.369 22.0582ZM45.369 22.2042L45.3994 22.4046L45.5718 22.3785V22.2042H45.369ZM44.9164 22.3648L45.0144 22.5423L45.019 22.5397L44.9164 22.3648ZM44.5076 22.7371L44.6675 22.8617L44.6682 22.8609L44.5076 22.7371ZM43.3177 24.2628L43.1579 24.1381L43.0648 24.2574L43.1527 24.3806L43.3177 24.2628ZM44.8437 26.7493C44.9365 26.8857 45.0413 27.0006 45.1598 27.0895L45.4031 26.7651C45.3269 26.708 45.2517 26.6282 45.179 26.5213L44.8437 26.7493ZM45.169 27.0959C45.2953 27.1802 45.4431 27.2396 45.6077 27.278L45.6998 26.8831C45.5724 26.8534 45.472 26.8106 45.3939 26.7586L45.169 27.0959ZM45.451 27.0806V27.2266H45.8565V27.0806H45.451ZM45.6664 27.0242C45.4271 27.0093 45.1305 27.0019 44.7777 27.0019V27.4074C45.1258 27.4074 45.4132 27.4147 45.6411 27.4289L45.6664 27.0242ZM44.7777 27.0019C44.5112 27.0019 44.2564 27.0093 44.0135 27.0242L44.0382 27.4289C44.2722 27.4146 44.5187 27.4074 44.7777 27.4074V27.0019ZM44.2286 27.2266V27.0806H43.8231V27.2266H44.2286ZM44.0343 27.2831C44.1565 27.278 44.2745 27.2626 44.3652 27.2213L44.1974 26.8522C44.1811 26.8596 44.1287 26.8734 44.0174 26.878L44.0343 27.2831ZM44.3652 27.2213C44.4144 27.199 44.4659 27.1645 44.5051 27.111C44.5459 27.0553 44.5644 26.9913 44.5644 26.9273H44.1589C44.1589 26.9119 44.164 26.8904 44.1781 26.8712C44.1905 26.8543 44.2018 26.8502 44.1974 26.8522L44.3652 27.2213ZM44.5644 26.9273C44.5644 26.8155 44.511 26.7146 44.4536 26.6342L44.1237 26.8699C44.1418 26.8953 44.1515 26.9135 44.1562 26.9249C44.1611 26.9365 44.1589 26.9364 44.1589 26.9273H44.5644ZM44.4576 26.64L43.3918 25.034L43.0539 25.2582L44.1197 26.8642L44.4576 26.64ZM43.3921 25.0345C43.2498 24.8185 43.1111 24.648 42.9756 24.56L42.7547 24.8999C42.8138 24.9384 42.9136 25.0453 43.0536 25.2576L43.3921 25.0345ZM42.9814 24.5639C42.8417 24.4661 42.6636 24.4216 42.4676 24.4107L42.4451 24.8156C42.5994 24.8242 42.6939 24.8576 42.7489 24.8961L42.9814 24.5639ZM42.2536 24.6132V26.4528H42.6591V24.6132H42.2536ZM42.2536 26.4528C42.2536 26.641 42.2675 26.8044 42.309 26.9217L42.6913 26.7868C42.6743 26.7387 42.6591 26.6344 42.6591 26.4528H42.2536ZM42.309 26.9217C42.3569 27.0574 42.4521 27.1605 42.5896 27.212L42.7319 26.8323C42.7136 26.8255 42.7018 26.8166 42.6913 26.7868L42.309 26.9217ZM42.5933 27.2133C42.7043 27.2525 42.8571 27.273 43.0364 27.283L43.0589 26.8781C42.8877 26.8686 42.7826 26.8502 42.7282 26.831L42.5933 27.2133ZM42.8449 27.0806V27.2266H43.2504V27.0806H42.8449ZM43.0608 27.0243C42.8305 27.0092 42.5164 27.0019 42.1205 27.0019V27.4074C42.5131 27.4074 42.8171 27.4147 43.0344 27.4289L43.0608 27.0243ZM42.1205 27.0019C41.7011 27.0019 41.3836 27.0092 41.1717 27.0243L41.2006 27.4288C41.3974 27.4147 41.703 27.4074 42.1205 27.4074V27.0019ZM41.3889 27.2266V27.0806H40.9834V27.2266H41.3889ZM41.1974 27.283C41.3756 27.2731 41.5284 27.2527 41.6369 27.212L41.4946 26.8323C41.4474 26.85 41.3471 26.8686 41.1749 26.8781L41.1974 27.283ZM41.6332 27.2133C41.7738 27.1637 41.8752 27.0623 41.9248 26.9217L41.5425 26.7868C41.5337 26.8117 41.5232 26.8222 41.4983 26.831L41.6332 27.2133ZM41.9248 26.9217C41.9662 26.8044 41.9802 26.641 41.9802 26.4528H41.5747C41.5747 26.6344 41.5594 26.7387 41.5425 26.7868L41.9248 26.9217ZM41.9802 26.4528V22.832H41.5747V26.4528H41.9802ZM41.9802 22.832C41.9802 22.6437 41.9662 22.4803 41.9248 22.363L41.5425 22.4979C41.5594 22.546 41.5747 22.6503 41.5747 22.832H41.9802ZM41.9248 22.363C41.8752 22.2224 41.7738 22.121 41.6332 22.0714L41.4983 22.4537C41.5232 22.4625 41.5337 22.473 41.5425 22.4979L41.9248 22.363ZM41.6369 22.0727C41.5284 22.032 41.3756 22.0116 41.1974 22.0017L41.1749 22.4066C41.3471 22.4162 41.4474 22.4347 41.4946 22.4524L41.6369 22.0727ZM41.3889 22.2042V22.0582H40.9834V22.2042H41.3889ZM41.1717 22.2604C41.3836 22.2755 41.7011 22.2828 42.1205 22.2828V21.8773C41.703 21.8773 41.3974 21.87 41.2006 21.8559L41.1717 22.2604ZM42.1205 22.2828C42.5117 22.2828 42.8256 22.2755 43.0606 22.2605L43.0347 21.8558C42.8122 21.87 42.5081 21.8773 42.1205 21.8773V22.2828ZM42.8449 22.0582V22.2042H43.2504V22.0582H42.8449ZM43.0364 22.0017C42.8571 22.0117 42.7043 22.0322 42.5933 22.0714L42.7282 22.4537C42.7826 22.4345 42.8877 22.4161 43.0589 22.4066L43.0364 22.0017ZM42.5896 22.0727C42.4521 22.1243 42.3569 22.2273 42.309 22.363L42.6913 22.4979C42.7018 22.4682 42.7136 22.4593 42.7319 22.4524L42.5896 22.0727ZM42.309 22.363C42.2675 22.4803 42.2536 22.6437 42.2536 22.832H42.6591C42.6591 22.6503 42.6743 22.546 42.6913 22.4979L42.309 22.363ZM42.2536 22.832V24.4672H42.6591V22.832H42.2536ZM42.4647 24.6697C42.8736 24.6529 43.2092 24.4923 43.4489 24.1824L43.1282 23.9343C42.9688 24.1403 42.7496 24.2522 42.448 24.2646L42.4647 24.6697ZM43.4479 24.1837L44.1487 23.2931L43.83 23.0424L43.1292 23.933L43.4479 24.1837ZM44.1469 23.2953C44.2756 23.1363 44.3773 22.9901 44.4476 22.8577C44.5163 22.7284 44.5644 22.5953 44.5644 22.467H44.1589C44.1589 22.4992 44.1449 22.5632 44.0895 22.6675C44.0358 22.7687 43.9513 22.8926 43.8318 23.0402L44.1469 23.2953ZM44.5644 22.467C44.5644 22.3074 44.4863 22.1772 44.3503 22.0982C44.2303 22.0285 44.0758 22.0041 43.9123 22.0015L43.9058 22.4069C44.044 22.4091 44.1158 22.4309 44.1467 22.4488C44.1592 22.4561 44.1599 22.4598 44.1584 22.4571C44.1566 22.4541 44.1589 22.4552 44.1589 22.467H44.5644ZM44.1118 22.2042V22.0582H43.7063V22.2042H44.1118ZM43.8984 22.2606C44.1794 22.2754 44.4628 22.2828 44.7485 22.2828V21.8773C44.4698 21.8773 44.1935 21.8701 43.9197 21.8557L43.8984 22.2606ZM44.7485 22.2828C45.0184 22.2828 45.2332 22.2755 45.3892 22.2599L45.3489 21.8564C45.2129 21.87 45.014 21.8773 44.7485 21.8773V22.2828ZM45.1663 22.0582V22.2042H45.5718V22.0582H45.1663ZM45.3387 22.0037C45.1524 22.0319 44.9771 22.0942 44.8139 22.1899L45.019 22.5397C45.1381 22.4699 45.2645 22.4251 45.3994 22.4046L45.3387 22.0037ZM44.8185 22.1873C44.6464 22.2822 44.4901 22.4279 44.3471 22.6132L44.6682 22.8609C44.788 22.7056 44.9042 22.603 45.0144 22.5423L44.8185 22.1873ZM44.3478 22.6124L43.1579 24.1381L43.4776 24.3874L44.6675 22.8617L44.3478 22.6124ZM43.1527 24.3806L44.8463 26.7531L45.1763 26.5175L43.4827 24.145L43.1527 24.3806ZM48.3012 22.0509L48.2258 22.2393L48.2348 22.2424L48.3012 22.0509ZM48.6881 22.248L48.5756 22.4167L48.5792 22.419L48.6881 22.248ZM49.0385 22.2772L49.2199 22.3679L49.223 22.3611L49.0385 22.2772ZM49.0969 22.029V21.8262H48.9188L48.8958 22.0027L49.0969 22.029ZM49.2648 22.029L49.4668 22.0464L49.4857 21.8262H49.2648V22.029ZM49.2283 23.5182V23.7209H49.431V23.5182H49.2283ZM49.0604 23.5182L48.8582 23.5331L48.8721 23.7209H49.0604V23.5182ZM48.7173 22.5254L48.5523 22.6432L48.5547 22.6465L48.7173 22.5254ZM47.2208 22.3575L47.3597 22.5051L47.362 22.5029L47.2208 22.3575ZM47.0967 23.4452L46.9233 23.5504L46.9261 23.5548L47.0967 23.4452ZM47.4252 23.7956L47.5458 23.6327V23.6327L47.4252 23.7956ZM47.9873 24.1679L48.0942 23.9956L48.0941 23.9956L47.9873 24.1679ZM48.199 24.2993L48.092 24.4715L48.0923 24.4716L48.199 24.2993ZM48.9217 24.803L48.7918 24.9588L48.7966 24.9625L48.9217 24.803ZM49.3524 25.2921L49.1769 25.3936V25.3936L49.3524 25.2921ZM49.075 26.9711L49.2032 27.1281L49.2048 27.1268L49.075 26.9711ZM47.3887 27.2558L47.3245 27.4481L47.3264 27.4487L47.3887 27.2558ZM46.9653 27.0587L46.8564 27.2297L46.86 27.232L46.9653 27.0587ZM46.6149 27.0368L46.7963 27.1275L46.7994 27.1207L46.6149 27.0368ZM46.5565 27.2777V27.4804H46.7345L46.7575 27.3039L46.5565 27.2777ZM46.3886 27.2777L46.1864 27.263L46.1705 27.4804H46.3886V27.2777ZM46.4178 25.5257V25.3229H46.215V25.5257H46.4178ZM46.5857 25.5257L46.7879 25.5116L46.7748 25.3229H46.5857V25.5257ZM46.9507 26.7229L46.7832 26.8372V26.8372L46.9507 26.7229ZM48.5859 26.9419L48.7188 27.095L48.721 27.093L48.5859 26.9419ZM48.5859 25.5184L48.4388 25.6579L48.4407 25.6598L48.5859 25.5184ZM47.7245 24.876L47.6189 25.049L47.6195 25.0494L47.7245 24.876ZM47.0237 24.4088L46.8992 24.5688L46.9013 24.5704L47.0237 24.4088ZM46.593 23.9197L46.4172 24.0207L46.4183 24.0226L46.593 23.9197ZM46.8193 22.3064L46.9473 22.4635L46.9491 22.4621L46.8193 22.3064ZM47.7975 22.1806C48.0001 22.1806 48.1386 22.2042 48.2259 22.2391L48.3765 21.8626C48.2204 21.8002 48.0231 21.7751 47.7975 21.7751V22.1806ZM48.2348 22.2424C48.3425 22.2797 48.4561 22.337 48.5756 22.4166L48.8005 22.0793C48.6573 21.9838 48.5129 21.9096 48.3675 21.8593L48.2348 22.2424ZM48.5792 22.419C48.6887 22.4887 48.8147 22.5529 48.9363 22.5529V22.1474C48.9438 22.1474 48.9362 22.1489 48.9076 22.1371C48.8807 22.1261 48.8442 22.107 48.7969 22.0769L48.5792 22.419ZM48.9363 22.5529C49.0769 22.5529 49.1711 22.4652 49.2198 22.3678L48.8571 22.1865C48.8555 22.1898 48.8601 22.1789 48.8768 22.1669C48.8958 22.1534 48.918 22.1474 48.9363 22.1474V22.5529ZM49.223 22.3611C49.2602 22.2794 49.2826 22.1723 49.2979 22.0552L48.8958 22.0027C48.8819 22.1095 48.8654 22.1679 48.8539 22.1933L49.223 22.3611ZM49.0969 22.2317H49.2648V21.8262H49.0969V22.2317ZM49.0628 22.0115C49.0376 22.3035 49.0255 22.8079 49.0255 23.5182H49.431C49.431 22.8074 49.4433 22.3189 49.4668 22.0464L49.0628 22.0115ZM49.2283 23.3154H49.0604V23.7209H49.2283V23.3154ZM49.2625 23.5032C49.231 23.0777 49.1063 22.7081 48.8798 22.4042L48.5547 22.6465C48.7273 22.878 48.8313 23.1702 48.8582 23.5331L49.2625 23.5032ZM48.8822 22.4075C48.6446 22.0748 48.2943 21.9138 47.8632 21.9138V22.3193C48.1814 22.3193 48.4006 22.4309 48.5523 22.6432L48.8822 22.4075ZM47.8632 21.9138C47.5556 21.9138 47.2882 22.0095 47.0796 22.212L47.362 22.5029C47.4842 22.3843 47.6451 22.3193 47.8632 22.3193V21.9138ZM47.0818 22.2098C46.8716 22.4076 46.7698 22.665 46.7698 22.9634H47.1753C47.1753 22.7653 47.2389 22.6188 47.3597 22.5051L47.0818 22.2098ZM46.7698 22.9634C46.7698 23.1794 46.8185 23.3776 46.9234 23.5504L47.27 23.3399C47.2094 23.2402 47.1753 23.1172 47.1753 22.9634H46.7698ZM46.9261 23.5548C47.0271 23.7119 47.1536 23.8467 47.3045 23.9585L47.5458 23.6327C47.434 23.5498 47.3414 23.451 47.2672 23.3355L46.9261 23.5548ZM47.3045 23.9585C47.4425 24.0607 47.6353 24.1882 47.8804 24.3402L48.0941 23.9956C47.8526 23.8458 47.6706 23.7251 47.5458 23.6327L47.3045 23.9585ZM47.8803 24.3401L48.092 24.4715L48.3059 24.127L48.0942 23.9956L47.8803 24.3401ZM48.0923 24.4716C48.3948 24.659 48.6269 24.8212 48.7919 24.9587L49.0514 24.6472C48.866 24.4927 48.6163 24.3192 48.3057 24.1269L48.0923 24.4716ZM48.7966 24.9625C48.9578 25.0889 49.0837 25.2326 49.1769 25.3936L49.5278 25.1905C49.4069 24.9816 49.2457 24.7993 49.0467 24.6434L48.7966 24.9625ZM49.1769 25.3936C49.2634 25.543 49.3102 25.7234 49.3102 25.9418H49.7157C49.7157 25.6637 49.6555 25.411 49.5278 25.1905L49.1769 25.3936ZM49.3102 25.9418C49.3102 26.3355 49.1831 26.6171 48.9452 26.8153L49.2048 27.1268C49.5508 26.8384 49.7157 26.4337 49.7157 25.9418H49.3102ZM48.9467 26.814C48.6974 27.0176 48.3755 27.126 47.9654 27.126V27.5315C48.4507 27.5315 48.8685 27.4014 49.2032 27.1281L48.9467 26.814ZM47.9654 27.126C47.7439 27.126 47.5746 27.1027 47.4509 27.0628L47.3264 27.4487C47.5045 27.5061 47.7197 27.5315 47.9654 27.5315V27.126ZM47.4528 27.0634C47.3216 27.0197 47.1943 26.9605 47.0705 26.8854L46.86 27.232C47.0088 27.3223 47.1637 27.3945 47.3246 27.4481L47.4528 27.0634ZM47.0741 26.8876C46.9646 26.8179 46.8386 26.7537 46.7171 26.7537V27.1592C46.7095 27.1592 46.7171 27.1577 46.7457 27.1695C46.7726 27.1805 46.8091 27.1996 46.8564 27.2297L47.0741 26.8876ZM46.7171 26.7537C46.5658 26.7537 46.4741 26.8564 46.4303 26.9529L46.7994 27.1207C46.8027 27.1134 46.7999 27.1234 46.7839 27.136C46.7755 27.1425 46.7648 27.1488 46.7519 27.1532C46.7391 27.1576 46.7271 27.1592 46.7171 27.1592V26.7537ZM46.4335 26.9461C46.3931 27.0269 46.3705 27.1359 46.3554 27.2514L46.7575 27.3039C46.7716 27.1956 46.7879 27.144 46.7962 27.1274L46.4335 26.9461ZM46.5565 27.0749H46.3886V27.4804H46.5565V27.0749ZM46.5908 27.2924C46.6109 27.0159 46.6205 26.4242 46.6205 25.5257H46.215C46.215 26.4278 46.2052 27.004 46.1864 27.263L46.5908 27.2924ZM46.4178 25.7284H46.5857V25.3229H46.4178V25.7284ZM46.3834 25.5397C46.4192 26.0557 46.548 26.4926 46.7832 26.8372L47.1181 26.6086C46.9347 26.3399 46.8203 25.9787 46.7879 25.5116L46.3834 25.5397ZM46.7832 26.8372C47.037 27.209 47.427 27.3855 47.9143 27.3855V26.98C47.5352 26.98 47.2829 26.85 47.1181 26.6086L46.7832 26.8372ZM47.9143 27.3855C48.222 27.3855 48.4942 27.29 48.7188 27.0949L48.4529 26.7888C48.3077 26.9149 48.1321 26.98 47.9143 26.98V27.3855ZM48.721 27.093C48.9608 26.8784 49.066 26.5727 49.066 26.2119H48.6605C48.6605 26.4934 48.5808 26.6744 48.4507 26.7908L48.721 27.093ZM49.066 26.2119C49.066 25.8881 48.954 25.6057 48.7311 25.3769L48.4407 25.6598C48.5875 25.8106 48.6605 25.9905 48.6605 26.2119H49.066ZM48.7329 25.3788C48.5344 25.1696 48.2293 24.9444 47.8294 24.7025L47.6195 25.0494C48.0081 25.2845 48.2772 25.4876 48.4388 25.6579L48.7329 25.3788ZM47.8301 24.7029C47.5462 24.5297 47.3188 24.3778 47.146 24.2471L46.9013 24.5704C47.0887 24.7122 47.3285 24.8718 47.6189 25.049L47.8301 24.7029ZM47.1481 24.2487C46.9929 24.128 46.8665 23.9843 46.7676 23.8167L46.4183 24.0226C46.5433 24.2346 46.704 24.417 46.8992 24.5688L47.1481 24.2487ZM46.7687 23.8186C46.6769 23.659 46.6278 23.4686 46.6278 23.2408H46.2223C46.2223 23.5288 46.2851 23.791 46.4172 24.0207L46.7687 23.8186ZM46.6278 23.2408C46.6278 22.879 46.7416 22.6312 46.9473 22.4635L46.6912 22.1492C46.3713 22.4098 46.2223 22.7849 46.2223 23.2408H46.6278ZM46.9491 22.4621C47.1704 22.2776 47.4486 22.1806 47.7975 22.1806V21.7751C47.3676 21.7751 46.9937 21.8971 46.6895 22.1506L46.9491 22.4621ZM54.2319 27.2266L54.2229 27.4291L54.4566 27.4394L54.4336 27.2067L54.2319 27.2266ZM50.4432 27.2266H50.2404V27.4356L50.4494 27.4292L50.4432 27.2266ZM50.4432 27.0806L50.4319 26.8781L50.2404 26.8888V27.0806H50.4432ZM50.8228 27.0222L50.7553 26.8309L50.7516 26.8323L50.8228 27.0222ZM50.9907 22.4305L50.7995 22.4979V22.4979L50.9907 22.4305ZM50.8228 22.2626L50.7516 22.4524L50.7553 22.4537L50.8228 22.2626ZM50.4432 22.2042H50.2404V22.3959L50.4319 22.4066L50.4432 22.2042ZM50.4432 22.0582L50.4494 21.8555L50.2404 21.8491V22.0582H50.4432ZM54.0859 22.0582L54.2875 22.0795L54.3124 21.8442L54.0761 21.8557L54.0859 22.0582ZM54.0567 23.3722V23.5749H54.2876L54.2577 23.3459L54.0567 23.3722ZM53.8888 23.3722L53.6872 23.3939L53.7067 23.5749H53.8888V23.3722ZM53.7574 22.6714L53.5656 22.7373L53.5663 22.7392L53.7574 22.6714ZM53.4873 22.3356L53.3859 22.5112L53.3912 22.5141L53.4873 22.3356ZM51.9178 22.2699L51.9783 22.4635L51.9852 22.461L51.9178 22.2699ZM51.7572 22.4305L51.9484 22.4979V22.4979L51.7572 22.4305ZM51.7134 24.5548H51.5106V24.7575H51.7134V24.5548ZM52.5894 24.438L52.72 24.5931L52.7246 24.5891L52.5894 24.438ZM52.7719 24.1533L52.5778 24.0942L52.5763 24.0999L52.7719 24.1533ZM52.8522 23.7372L52.6516 23.7071L52.6508 23.7135L52.8522 23.7372ZM52.8741 23.5912V23.3884H52.6995L52.6736 23.5611L52.8741 23.5912ZM53.042 23.5912L53.2442 23.6056L53.2597 23.3884H53.042V23.5912ZM53.0639 25.6644V25.8671H53.2804L53.2662 25.651L53.0639 25.6644ZM52.896 25.6644L52.6953 25.693L52.7201 25.8671H52.896V25.6644ZM52.8522 25.314L52.6509 25.3379L52.6509 25.3385L52.8522 25.314ZM52.6478 24.8541L52.5078 25.0007L52.5111 25.0038L52.6478 24.8541ZM51.7134 24.7008V24.498H51.5106V24.7008H51.7134ZM51.7572 26.8543L51.9484 26.7868V26.7868L51.7572 26.8543ZM51.9178 27.0222L51.8466 27.212L51.8535 27.2146L51.8606 27.2167L51.9178 27.0222ZM53.5238 26.9419L53.6144 27.1232L53.6166 27.1221L53.5238 26.9419ZM53.8742 26.555L54.0613 26.6329L54.0621 26.6311L53.8742 26.555ZM54.0348 25.7666V25.5638H53.851L53.833 25.7467L54.0348 25.7666ZM54.2027 25.7666L54.4042 25.789L54.4292 25.5638H54.2027V25.7666ZM53.978 26.2922C53.978 26.5776 53.9956 26.8959 54.0301 27.2465L54.4336 27.2067C54.4001 26.8662 54.3835 26.5615 54.3835 26.2922H53.978ZM54.2408 27.024C53.905 27.0092 53.3438 27.0019 52.5602 27.0019V27.4074C53.3436 27.4074 53.8969 27.4147 54.2229 27.4291L54.2408 27.024ZM52.5602 27.0019C51.6253 27.0019 50.9171 27.0092 50.437 27.0239L50.4494 27.4292C50.9231 27.4147 51.6263 27.4074 52.5602 27.4074V27.0019ZM50.6459 27.2266V27.0806H50.2404V27.2266H50.6459ZM50.4544 27.283C50.6326 27.2731 50.7854 27.2527 50.894 27.212L50.7516 26.8323C50.7044 26.85 50.6041 26.8686 50.4319 26.8781L50.4544 27.283ZM50.8902 27.2133C51.0308 27.1637 51.1322 27.0623 51.1819 26.9217L50.7995 26.7868C50.7907 26.8117 50.7802 26.8222 50.7553 26.831L50.8902 27.2133ZM51.1819 26.9217C51.2233 26.8044 51.2372 26.641 51.2372 26.4528H50.8317C50.8317 26.6344 50.8165 26.7387 50.7995 26.7868L51.1819 26.9217ZM51.2372 26.4528V22.832H50.8317V26.4528H51.2372ZM51.2372 22.832C51.2372 22.6437 51.2233 22.4803 51.1819 22.363L50.7995 22.4979C50.8165 22.546 50.8317 22.6503 50.8317 22.832H51.2372ZM51.1819 22.363C51.1322 22.2224 51.0308 22.121 50.8902 22.0714L50.7553 22.4537C50.7802 22.4625 50.7907 22.473 50.7995 22.4979L51.1819 22.363ZM50.894 22.0727C50.7854 22.032 50.6326 22.0116 50.4544 22.0017L50.4319 22.4066C50.6041 22.4162 50.7044 22.4347 50.7516 22.4524L50.894 22.0727ZM50.6459 22.2042V22.0582H50.2404V22.2042H50.6459ZM50.437 22.2608C50.9171 22.2755 51.6253 22.2828 52.5602 22.2828V21.8773C51.6263 21.8773 50.9231 21.87 50.4494 21.8555L50.437 22.2608ZM52.5602 22.2828C53.2756 22.2828 53.7886 22.2755 54.0957 22.2607L54.0761 21.8557C53.7797 21.87 53.2755 21.8773 52.5602 21.8773V22.2828ZM53.8843 22.0368C53.8496 22.3632 53.832 22.6577 53.832 22.9196H54.2375C54.2375 22.6753 54.254 22.3955 54.2875 22.0795L53.8843 22.0368ZM53.832 22.9196C53.832 23.1131 53.8394 23.2739 53.8556 23.3984L54.2577 23.3459C54.2447 23.2466 54.2375 23.1056 54.2375 22.9196H53.832ZM54.0567 23.1694H53.8888V23.5749H54.0567V23.1694ZM54.0903 23.3505C54.0559 23.0306 54.0102 22.7776 53.9484 22.6036L53.5663 22.7392C53.6116 22.8668 53.6535 23.081 53.6872 23.3939L54.0903 23.3505ZM53.9491 22.6055C53.8816 22.409 53.7614 22.2529 53.5834 22.1571L53.3912 22.5141C53.4662 22.5545 53.5261 22.6222 53.5656 22.7373L53.9491 22.6055ZM53.5886 22.16C53.4158 22.0603 53.1805 22.0233 52.9106 22.0233V22.4288C53.1565 22.4288 53.3057 22.4649 53.386 22.5112L53.5886 22.16ZM52.9106 22.0233H52.3047V22.4288H52.9106V22.0233ZM52.3047 22.0233C52.1247 22.0233 51.967 22.0375 51.8503 22.0787L51.9852 22.461C52.034 22.4438 52.1343 22.4288 52.3047 22.4288V22.0233ZM51.8573 22.0764C51.7133 22.1214 51.6146 22.2253 51.566 22.363L51.9484 22.4979C51.9545 22.4806 51.9604 22.4738 51.9626 22.4716C51.9644 22.4698 51.9681 22.4665 51.9782 22.4634L51.8573 22.0764ZM51.566 22.363C51.5246 22.4803 51.5106 22.6437 51.5106 22.832H51.9161C51.9161 22.6503 51.9314 22.546 51.9484 22.4979L51.566 22.363ZM51.5106 22.832V24.5548H51.9161V22.832H51.5106ZM51.7134 24.7575H52.1952V24.352H51.7134V24.7575ZM52.1952 24.7575C52.394 24.7575 52.5785 24.7122 52.72 24.593L52.4588 24.2829C52.4153 24.3195 52.337 24.352 52.1952 24.352V24.7575ZM52.7246 24.5891C52.8426 24.4834 52.9268 24.3558 52.9675 24.2066L52.5763 24.0999C52.5586 24.1649 52.5211 24.227 52.4542 24.2869L52.7246 24.5891ZM52.9658 24.2123C53.0045 24.0851 53.0332 23.9337 53.0535 23.7608L52.6508 23.7135C52.6322 23.8715 52.6073 23.9975 52.5779 24.0942L52.9658 24.2123ZM53.0527 23.7672L53.0746 23.6212L52.6736 23.5611L52.6517 23.7071L53.0527 23.7672ZM52.8741 23.7939H53.042V23.3884H52.8741V23.7939ZM52.8398 23.5767C52.8247 23.7869 52.8173 24.0205 52.8173 24.2774H53.2228C53.2228 24.028 53.23 23.8042 53.2442 23.6056L52.8398 23.5767ZM52.8173 24.2774V24.6278H53.2228V24.2774H52.8173ZM52.8173 24.6278C52.8173 24.8826 52.8323 25.2333 52.8616 25.6777L53.2662 25.651C53.2371 25.2097 53.2228 24.8694 53.2228 24.6278H52.8173ZM53.0639 25.4616H52.896V25.8671H53.0639V25.4616ZM53.0967 25.6357C53.0922 25.6043 53.0779 25.4902 53.0534 25.2894L52.6509 25.3385C52.6751 25.5368 52.69 25.6563 52.6953 25.693L53.0967 25.6357ZM53.0535 25.29C53.0255 25.0547 52.9434 24.8495 52.7845 24.7043L52.5111 25.0038C52.576 25.063 52.6302 25.1645 52.6509 25.3379L53.0535 25.29ZM52.7878 24.7074C52.6323 24.559 52.425 24.498 52.1952 24.498V24.9035C52.3546 24.9035 52.4491 24.9447 52.5078 25.0007L52.7878 24.7074ZM52.1952 24.498H51.7134V24.9035H52.1952V24.498ZM51.5106 24.7008V26.4528H51.9161V24.7008H51.5106ZM51.5106 26.4528C51.5106 26.641 51.5246 26.8044 51.566 26.9217L51.9484 26.7868C51.9314 26.7387 51.9161 26.6344 51.9161 26.4528H51.5106ZM51.566 26.9217C51.6139 27.0574 51.7092 27.1605 51.8466 27.212L51.989 26.8323C51.9706 26.8255 51.9589 26.8166 51.9484 26.7868L51.566 26.9217ZM51.8606 27.2167C51.9725 27.2496 52.1258 27.2614 52.3047 27.2614V26.8559C52.1332 26.8559 52.0285 26.8434 51.975 26.8277L51.8606 27.2167ZM52.3047 27.2614H52.8376V26.8559H52.3047V27.2614ZM52.8376 27.2614C53.1509 27.2614 53.417 27.2219 53.6144 27.1232L53.4331 26.7605C53.3191 26.8175 53.1277 26.8559 52.8376 26.8559V27.2614ZM53.6166 27.1221C53.822 27.0163 53.9709 26.8499 54.0613 26.6329L53.687 26.477C53.6314 26.6105 53.5467 26.702 53.4309 26.7616L53.6166 27.1221ZM54.0621 26.6311C54.1459 26.4242 54.2018 26.1387 54.2365 25.7865L53.833 25.7467C53.7996 26.0855 53.7484 26.3256 53.6863 26.4788L54.0621 26.6311ZM54.0348 25.9693H54.2027V25.5638H54.0348V25.9693ZM54.0012 25.7442C53.9854 25.8862 53.978 26.0698 53.978 26.2922H54.3835C54.3835 26.0765 54.3908 25.9097 54.4042 25.789L54.0012 25.7442ZM59.1722 22.0582L59.374 22.0781L59.3968 21.8472L59.1649 21.8556L59.1722 22.0582ZM59.143 23.5912V23.7939H59.3657L59.3449 23.5722L59.143 23.5912ZM58.9751 23.5912L58.7735 23.6121L58.7924 23.7939H58.9751V23.5912ZM58.8291 22.759L58.6358 22.82L58.6363 22.8215L58.8291 22.759ZM58.5225 22.3575L58.4182 22.5314L58.4226 22.5338L58.5225 22.3575ZM57.4567 22.2261V22.0233H57.254V22.2261H57.4567ZM57.5151 26.8251L57.3283 26.9037V26.9037L57.5151 26.8251ZM57.7195 27.0149L57.6526 27.2062V27.2062L57.7195 27.0149ZM58.194 27.0806H58.3968V26.8866L58.203 26.878L58.194 27.0806ZM58.194 27.2266L58.1824 27.429L58.3968 27.4413V27.2266H58.194ZM56.0405 27.2266H55.8378V27.4424L56.0532 27.4289L56.0405 27.2266ZM56.0405 27.0806L56.0315 26.878L55.8378 26.8866V27.0806H56.0405ZM56.515 27.0149L56.582 27.2062V27.2062L56.515 27.0149ZM56.7194 26.8251L56.9063 26.9037V26.9037L56.7194 26.8251ZM56.7778 22.2261H56.9806V22.0233H56.7778V22.2261ZM55.712 22.3575L55.812 22.5339L55.8163 22.5313L55.712 22.3575ZM55.4054 22.759L55.5983 22.8215L55.5988 22.82L55.4054 22.759ZM55.2594 23.5912V23.7939H55.4422L55.4611 23.6121L55.2594 23.5912ZM55.0915 23.5912L54.8897 23.5722L54.8689 23.7939H55.0915V23.5912ZM55.0623 22.0582L55.0697 21.8556L54.8378 21.8472L54.8606 22.0781L55.0623 22.0582ZM58.9705 22.0383C58.9359 22.3889 58.9184 22.7071 58.9184 22.9926H59.3239C59.3239 22.7232 59.3404 22.4185 59.374 22.0781L58.9705 22.0383ZM58.9184 22.9926C58.9184 23.2392 58.9258 23.4456 58.9412 23.6101L59.3449 23.5722C59.3311 23.4252 59.3239 23.2326 59.3239 22.9926H58.9184ZM59.143 23.3884H58.9751V23.7939H59.143V23.3884ZM59.1768 23.5702C59.1375 23.1923 59.0872 22.8975 59.022 22.6964L58.6363 22.8215C58.6879 22.9805 58.7349 23.2405 58.7735 23.6121L59.1768 23.5702ZM59.0225 22.6979C58.9512 22.4723 58.82 22.293 58.6225 22.1811L58.4226 22.5338C58.5171 22.5874 58.5903 22.6758 58.6358 22.82L59.0225 22.6979ZM58.6268 22.1836C58.4334 22.0676 58.1648 22.0233 57.8509 22.0233V22.4288C58.1405 22.4288 58.3197 22.4722 58.4182 22.5313L58.6268 22.1836ZM57.8509 22.0233H57.4567V22.4288H57.8509V22.0233ZM57.254 22.2261V26.3798H57.6595V22.2261H57.254ZM57.254 26.3798C57.254 26.589 57.2728 26.7719 57.3283 26.9037L57.702 26.7464C57.6796 26.6933 57.6595 26.5794 57.6595 26.3798H57.254ZM57.3283 26.9037C57.3902 27.0507 57.5029 27.1538 57.6526 27.2062L57.7865 26.8235C57.7416 26.8078 57.718 26.7844 57.702 26.7464L57.3283 26.9037ZM57.6526 27.2062C57.7798 27.2507 57.9633 27.2732 58.185 27.2831L58.203 26.878C57.9868 26.8684 57.854 26.8471 57.7865 26.8235L57.6526 27.2062ZM57.9913 27.0806V27.2266H58.3968V27.0806H57.9913ZM58.2057 27.0242C57.9468 27.0092 57.5846 27.0019 57.1209 27.0019V27.4074C57.582 27.4074 57.9351 27.4147 58.1824 27.429L58.2057 27.0242ZM57.1209 27.0019C56.6335 27.0019 56.2681 27.0092 56.0279 27.0242L56.0532 27.4289C56.2801 27.4147 56.635 27.4074 57.1209 27.4074V27.0019ZM56.2433 27.2266V27.0806H55.8378V27.2266H56.2433ZM56.0495 27.2831C56.2713 27.2732 56.4548 27.2507 56.582 27.2062L56.4481 26.8235C56.3806 26.8471 56.2478 26.8684 56.0315 26.878L56.0495 27.2831ZM56.582 27.2062C56.7317 27.1538 56.8444 27.0507 56.9063 26.9037L56.5326 26.7464C56.5166 26.7844 56.493 26.8078 56.4481 26.8235L56.582 27.2062ZM56.9063 26.9037C56.9618 26.7719 56.9806 26.589 56.9806 26.3798H56.5751C56.5751 26.5794 56.5549 26.6933 56.5326 26.7464L56.9063 26.9037ZM56.9806 26.3798V22.2261H56.5751V26.3798H56.9806ZM56.7778 22.0233H56.3836V22.4288H56.7778V22.0233ZM56.3836 22.0233C56.0697 22.0233 55.8012 22.0676 55.6077 22.1836L55.8163 22.5313C55.9149 22.4722 56.0941 22.4288 56.3836 22.4288V22.0233ZM55.6121 22.1811C55.4146 22.293 55.2834 22.4723 55.2121 22.6979L55.5988 22.82C55.6443 22.6758 55.7175 22.5874 55.812 22.5338L55.6121 22.1811ZM55.2126 22.6964C55.1474 22.8975 55.097 23.1923 55.0578 23.5702L55.4611 23.6121C55.4997 23.2405 55.5467 22.9805 55.5983 22.8215L55.2126 22.6964ZM55.2594 23.3884H55.0915V23.7939H55.2594V23.3884ZM55.2934 23.6101C55.3088 23.4456 55.3162 23.2392 55.3162 22.9926H54.9107C54.9107 23.2326 54.9035 23.4252 54.8897 23.5722L55.2934 23.6101ZM55.3162 22.9926C55.3162 22.7071 55.2987 22.3889 55.2641 22.0383L54.8606 22.0781C54.8941 22.4185 54.9107 22.7232 54.9107 22.9926H55.3162ZM55.055 22.2608C55.463 22.2755 56.1524 22.2828 57.1209 22.2828V21.8773C56.1525 21.8773 55.4696 21.87 55.0697 21.8556L55.055 22.2608ZM57.1209 22.2828C58.0846 22.2828 58.7716 22.2755 59.1796 22.2608L59.1649 21.8556C58.765 21.87 58.0845 21.8773 57.1209 21.8773V22.2828Z" fill="#FEF5EB" mask="url(#path-5-outside-1_23632_13380)"/>
</g>
</g>
<defs>
<linearGradient id="paint0_linear_23632_13380" x1="34" y1="-1.04141e-05" x2="34" y2="68" gradientUnits="userSpaceOnUse">
<stop stop-color="#C93D34"/>
<stop offset="1" stop-color="#7A2629"/>
</linearGradient>
<linearGradient id="paint1_linear_23632_13380" x1="34" y1="-1.04141e-05" x2="34" y2="68" gradientUnits="userSpaceOnUse">
<stop stop-color="#C93D34"/>
<stop offset="1" stop-color="#7A2629"/>
</linearGradient>
<clipPath id="clip0_23632_13380">
<rect width="68" height="68" fill="white"/>
</clipPath>
</defs>
</svg>
